<svg width="100" height="52" viewBox="0 0 100 52" fill="none" xmlns="http://www.w3.org/2000/svg">
<rect width="100" height="41.2371" fill="#AACD03"/>
<mask id="mask0_122_363" style="mask-type:alpha" maskUnits="userSpaceOnUse" x="0" y="41" width="100" height="11">
<rect width="100" height="10.3093" transform="matrix(1 0 0 -1 0 51.5464)" fill="#C4C4C4"/>
</mask>
<g mask="url(#mask0_122_363)">
<rect width="100" height="10.3093" transform="matrix(1 0 0 -1 0 51.5464)" fill="white"/>
<rect opacity="0.8" width="25" height="10.3093" transform="matrix(1 0 0 -1 0 51.5464)" fill="#AACD03"/>
<rect opacity="0.6" width="25" height="10.3093" transform="matrix(1 0 0 -1 25 51.5464)" fill="#AACD03"/>
<rect opacity="0.4" width="25" height="10.3093" transform="matrix(1 0 0 -1 50 51.5464)" fill="#AACD03"/>
<rect opacity="0.2" width="25" height="10.3093" transform="matrix(1 0 0 -1 75.0002 51.5464)" fill="#AACD03"/>
</g>
<path d="M12.0618 11.1922L11.7258 12.9442H13.3218V13.8682H11.5458L11.0658 16.3402H10.0818L10.5618 13.8682H9.01383L8.55783 16.3402H7.59783L8.04183 13.8682H6.56583V12.9442H8.22183L8.56983 11.1922H7.00983V10.2682H8.73783L9.20583 7.77221H10.2018L9.72183 10.2682H11.2938L11.7618 7.77221H12.7218L12.2418 10.2682H13.7298V11.1922H12.0618ZM9.19383 12.9442H10.7418L11.0898 11.1922H9.54183L9.19383 12.9442ZM20.3956 16.3402L19.4836 13.8682H16.1716L15.2596 16.3402H13.9156L17.1676 7.73621H18.5116L21.7516 16.3402H20.3956ZM19.1236 12.7402L18.2596 10.3282C18.2276 10.2402 18.1836 10.1082 18.1276 9.93221C18.0716 9.75621 18.0156 9.57221 17.9596 9.38021C17.9036 9.18821 17.8596 9.03221 17.8276 8.91221C17.7636 9.16021 17.6916 9.42421 17.6116 9.70421C17.5316 9.98421 17.4676 10.1922 17.4196 10.3282L16.5556 12.7402H19.1236ZM28.1272 16.3402L27.2152 13.8682H23.9032L22.9912 16.3402H21.6472L24.8992 7.73621H26.2432L29.4832 16.3402H28.1272ZM26.8552 12.7402L25.9912 10.3282C25.9592 10.2402 25.9152 10.1082 25.8592 9.93221C25.8032 9.75621 25.7472 9.57221 25.6912 9.38021C25.6352 9.18821 25.5912 9.03221 25.5592 8.91221C25.4952 9.16021 25.4232 9.42421 25.3432 9.70421C25.2632 9.98421 25.1992 10.1922 25.1512 10.3282L24.2872 12.7402H26.8552ZM33.9444 8.76821C33.0964 8.76821 32.4284 9.06421 31.9404 9.65621C31.4604 10.2402 31.2204 11.0442 31.2204 12.0682C31.2204 13.0842 31.4444 13.8842 31.8924 14.4682C32.3404 15.0522 33.0204 15.3442 33.9324 15.3442C34.3004 15.3442 34.6524 15.3122 34.9884 15.2482C35.3324 15.1762 35.6804 15.0842 36.0324 14.9722V16.0882C35.6964 16.2162 35.3524 16.3082 35.0004 16.3642C34.6484 16.4282 34.2404 16.4602 33.7764 16.4602C32.8964 16.4602 32.1644 16.2802 31.5804 15.9202C31.0044 15.5522 30.5724 15.0402 30.2844 14.3842C30.0044 13.7202 29.8644 12.9442 29.8644 12.0562C29.8644 11.1922 30.0204 10.4322 30.3324 9.77621C30.6524 9.11221 31.1164 8.59221 31.7244 8.21621C32.3324 7.84021 33.0764 7.65221 33.9564 7.65221C34.3884 7.65221 34.8084 7.70021 35.2164 7.79621C35.6324 7.88421 36.0124 8.01221 36.3564 8.18021L35.8764 9.26021C35.5964 9.13221 35.2964 9.02021 34.9764 8.92421C34.6564 8.82021 34.3124 8.76821 33.9444 8.76821ZM44.6941 11.9722C44.6941 13.4202 44.2941 14.5122 43.4941 15.2482C42.7021 15.9762 41.5901 16.3402 40.1581 16.3402H37.7581V7.77221H40.4101C41.2821 7.77221 42.0381 7.93221 42.6781 8.25221C43.3181 8.57221 43.8141 9.04421 44.1661 9.66821C44.5181 10.2922 44.6941 11.0602 44.6941 11.9722ZM43.3381 12.0082C43.3381 10.9282 43.0781 10.1362 42.5581 9.63221C42.0381 9.12021 41.2941 8.86421 40.3261 8.86421H39.0541V15.2482H40.0981C42.2581 15.2482 43.3381 14.1682 43.3381 12.0082ZM51.6229 12.0442C51.6229 12.9722 51.5269 13.7642 51.3349 14.4202C51.1429 15.0762 50.8309 15.5802 50.3989 15.9322C49.9749 16.2842 49.4149 16.4602 48.7189 16.4602C47.7349 16.4602 47.0069 16.0722 46.5349 15.2962C46.0709 14.5122 45.8389 13.4282 45.8389 12.0442C45.8389 11.1162 45.9309 10.3242 46.1149 9.66821C46.3069 9.01221 46.6149 8.51221 47.0389 8.16821C47.4629 7.81621 48.0229 7.64021 48.7189 7.64021C49.6949 7.64021 50.4229 8.02821 50.9029 8.80421C51.3829 9.57221 51.6229 10.6522 51.6229 12.0442ZM47.1109 12.0442C47.1109 13.1642 47.2309 14.0042 47.4709 14.5642C47.7109 15.1162 48.1269 15.3922 48.7189 15.3922C49.3029 15.3922 49.7189 15.1162 49.9669 14.5642C50.2149 14.0122 50.3389 13.1722 50.3389 12.0442C50.3389 10.9322 50.2149 10.1002 49.9669 9.54821C49.7189 8.98821 49.3029 8.70821 48.7189 8.70821C48.1269 8.70821 47.7109 8.98821 47.4709 9.54821C47.2309 10.1002 47.1109 10.9322 47.1109 12.0442ZM58.0221 9.75221C58.0221 10.3362 57.8581 10.8002 57.5301 11.1442C57.2021 11.4882 56.7701 11.7162 56.2341 11.8282V11.8762C56.9141 11.9562 57.4261 12.1722 57.7701 12.5242C58.1141 12.8762 58.2861 13.3322 58.2861 13.8922C58.2861 14.3882 58.1661 14.8322 57.9261 15.2242C57.6941 15.6082 57.3301 15.9122 56.8341 16.1362C56.3461 16.3522 55.7181 16.4602 54.9501 16.4602C54.4941 16.4602 54.0701 16.4242 53.6781 16.3522C53.2861 16.2802 52.9141 16.1602 52.5621 15.9922V14.8402C52.9221 15.0242 53.3101 15.1642 53.7261 15.2602C54.1421 15.3562 54.5341 15.4042 54.9021 15.4042C55.6381 15.4042 56.1621 15.2682 56.4741 14.9962C56.7941 14.7162 56.9541 14.3282 56.9541 13.8322C56.9541 13.3522 56.7621 13.0002 56.3781 12.7762C55.9941 12.5522 55.4181 12.4402 54.6501 12.4402H53.8701V11.3962H54.6621C55.3901 11.3962 55.9181 11.2602 56.2461 10.9882C56.5741 10.7162 56.7381 10.3602 56.7381 9.92021C56.7381 9.53621 56.6101 9.24021 56.3541 9.03221C56.1061 8.81621 55.7461 8.70821 55.2741 8.70821C54.8341 8.70821 54.4501 8.78021 54.1221 8.92421C53.8021 9.06021 53.5021 9.22021 53.2221 9.40421L52.5981 8.52821C52.9181 8.28821 53.3021 8.08421 53.7501 7.91621C54.1981 7.74021 54.7181 7.65221 55.3101 7.65221C56.1981 7.65221 56.8701 7.84821 57.3261 8.24021C57.7901 8.62421 58.0221 9.12821 58.0221 9.75221Z" fill="white"/>
<path d="M16.636 29.7225H15.448V31.6185H14.212V29.7225H10.24V28.7145L14.188 23.0145H15.448V28.6425H16.636V29.7225ZM14.212 28.6425V26.3145C14.212 25.9385 14.216 25.5865 14.224 25.2585C14.24 24.9225 14.256 24.6425 14.272 24.4185H14.224C14.16 24.5785 14.08 24.7425 13.984 24.9105C13.888 25.0785 13.796 25.2265 13.708 25.3545L11.44 28.6425H14.212ZM23.0712 27.3225C23.0712 28.2505 22.9752 29.0425 22.7832 29.6985C22.5912 30.3545 22.2792 30.8585 21.8472 31.2105C21.4232 31.5625 20.8632 31.7385 20.1672 31.7385C19.1832 31.7385 18.4552 31.3505 17.9832 30.5745C17.5192 29.7905 17.2872 28.7065 17.2872 27.3225C17.2872 26.3945 17.3792 25.6025 17.5632 24.9465C17.7552 24.2905 18.0632 23.7905 18.4872 23.4465C18.9112 23.0945 19.4712 22.9185 20.1672 22.9185C21.1432 22.9185 21.8712 23.3065 22.3512 24.0825C22.8312 24.8505 23.0712 25.9305 23.0712 27.3225ZM18.5592 27.3225C18.5592 28.4425 18.6792 29.2825 18.9192 29.8425C19.1592 30.3945 19.5752 30.6705 20.1672 30.6705C20.7512 30.6705 21.1672 30.3945 21.4152 29.8425C21.6632 29.2905 21.7872 28.4505 21.7872 27.3225C21.7872 26.2105 21.6632 25.3785 21.4152 24.8265C21.1672 24.2665 20.7512 23.9865 20.1672 23.9865C19.5752 23.9865 19.1592 24.2665 18.9192 24.8265C18.6792 25.3785 18.5592 26.2105 18.5592 27.3225ZM24.3104 30.9105C24.3104 30.5985 24.3904 30.3785 24.5504 30.2505C24.7104 30.1225 24.9024 30.0585 25.1264 30.0585C25.3504 30.0585 25.5424 30.1225 25.7024 30.2505C25.8704 30.3785 25.9544 30.5985 25.9544 30.9105C25.9544 31.2225 25.8704 31.4465 25.7024 31.5825C25.5424 31.7185 25.3504 31.7865 25.1264 31.7865C24.9024 31.7865 24.7104 31.7185 24.5504 31.5825C24.3904 31.4465 24.3104 31.2225 24.3104 30.9105ZM32.9796 27.3225C32.9796 28.2505 32.8836 29.0425 32.6916 29.6985C32.4996 30.3545 32.1876 30.8585 31.7556 31.2105C31.3316 31.5625 30.7716 31.7385 30.0756 31.7385C29.0916 31.7385 28.3636 31.3505 27.8916 30.5745C27.4276 29.7905 27.1956 28.7065 27.1956 27.3225C27.1956 26.3945 27.2876 25.6025 27.4716 24.9465C27.6636 24.2905 27.9716 23.7905 28.3956 23.4465C28.8196 23.0945 29.3796 22.9185 30.0756 22.9185C31.0516 22.9185 31.7796 23.3065 32.2596 24.0825C32.7396 24.8505 32.9796 25.9305 32.9796 27.3225ZM28.4676 27.3225C28.4676 28.4425 28.5876 29.2825 28.8276 29.8425C29.0676 30.3945 29.4836 30.6705 30.0756 30.6705C30.6596 30.6705 31.0756 30.3945 31.3236 29.8425C31.5716 29.2905 31.6956 28.4505 31.6956 27.3225C31.6956 26.2105 31.5716 25.3785 31.3236 24.8265C31.0756 24.2665 30.6596 23.9865 30.0756 23.9865C29.4836 23.9865 29.0676 24.2665 28.8276 24.8265C28.5876 25.3785 28.4676 26.2105 28.4676 27.3225ZM34.2188 30.9105C34.2188 30.5985 34.2988 30.3785 34.4588 30.2505C34.6188 30.1225 34.8108 30.0585 35.0348 30.0585C35.2588 30.0585 35.4508 30.1225 35.6108 30.2505C35.7788 30.3785 35.8628 30.5985 35.8628 30.9105C35.8628 31.2225 35.7788 31.4465 35.6108 31.5825C35.4508 31.7185 35.2588 31.7865 35.0348 31.7865C34.8108 31.7865 34.6188 31.7185 34.4588 31.5825C34.2988 31.4465 34.2188 31.2225 34.2188 30.9105ZM41.0281 31.6185H39.7681V25.9305C39.7681 25.6265 39.7721 25.3545 39.7801 25.1145C39.7881 24.8665 39.8001 24.6265 39.8161 24.3945C39.7121 24.5065 39.6041 24.6105 39.4921 24.7065C39.3801 24.8025 39.2521 24.9105 39.1081 25.0305L38.1721 25.7865L37.5241 24.9705L39.9721 23.0505H41.0281V31.6185ZM49.6352 27.3225C49.6352 28.2505 49.5392 29.0425 49.3472 29.6985C49.1552 30.3545 48.8432 30.8585 48.4112 31.2105C47.9872 31.5625 47.4272 31.7385 46.7312 31.7385C45.7472 31.7385 45.0192 31.3505 44.5472 30.5745C44.0832 29.7905 43.8512 28.7065 43.8512 27.3225C43.8512 26.3945 43.9432 25.6025 44.1272 24.9465C44.3192 24.2905 44.6272 23.7905 45.0512 23.4465C45.4752 23.0945 46.0352 22.9185 46.7312 22.9185C47.7072 22.9185 48.4352 23.3065 48.9152 24.0825C49.3952 24.8505 49.6352 25.9305 49.6352 27.3225ZM45.1232 27.3225C45.1232 28.4425 45.2432 29.2825 45.4832 29.8425C45.7232 30.3945 46.1392 30.6705 46.7312 30.6705C47.3152 30.6705 47.7312 30.3945 47.9792 29.8425C48.2272 29.2905 48.3512 28.4505 48.3512 27.3225C48.3512 26.2105 48.2272 25.3785 47.9792 24.8265C47.7312 24.2665 47.3152 23.9865 46.7312 23.9865C46.1392 23.9865 45.7232 24.2665 45.4832 24.8265C45.2432 25.3785 45.1232 26.2105 45.1232 27.3225ZM56.3824 27.3225C56.3824 28.2505 56.2864 29.0425 56.0944 29.6985C55.9024 30.3545 55.5904 30.8585 55.1584 31.2105C54.7344 31.5625 54.1744 31.7385 53.4784 31.7385C52.4944 31.7385 51.7664 31.3505 51.2944 30.5745C50.8304 29.7905 50.5984 28.7065 50.5984 27.3225C50.5984 26.3945 50.6904 25.6025 50.8744 24.9465C51.0664 24.2905 51.3744 23.7905 51.7984 23.4465C52.2224 23.0945 52.7824 22.9185 53.4784 22.9185C54.4544 22.9185 55.1824 23.3065 55.6624 24.0825C56.1424 24.8505 56.3824 25.9305 56.3824 27.3225ZM51.8704 27.3225C51.8704 28.4425 51.9904 29.2825 52.2304 29.8425C52.4704 30.3945 52.8864 30.6705 53.4784 30.6705C54.0624 30.6705 54.4784 30.3945 54.7264 29.8425C54.9744 29.2905 55.0984 28.4505 55.0984 27.3225C55.0984 26.2105 54.9744 25.3785 54.7264 24.8265C54.4784 24.2665 54.0624 23.9865 53.4784 23.9865C52.8864 23.9865 52.4704 24.2665 52.2304 24.8265C51.9904 25.3785 51.8704 26.2105 51.8704 27.3225ZM57.6216 30.9105C57.6216 30.5985 57.7016 30.3785 57.8616 30.2505C58.0216 30.1225 58.2136 30.0585 58.4376 30.0585C58.6616 30.0585 58.8536 30.1225 59.0136 30.2505C59.1816 30.3785 59.2656 30.5985 59.2656 30.9105C59.2656 31.2225 59.1816 31.4465 59.0136 31.5825C58.8536 31.7185 58.6616 31.7865 58.4376 31.7865C58.2136 31.7865 58.0216 31.7185 57.8616 31.5825C57.7016 31.4465 57.6216 31.2225 57.6216 30.9105ZM66.2909 27.3225C66.2909 28.2505 66.1949 29.0425 66.0029 29.6985C65.8109 30.3545 65.4989 30.8585 65.0669 31.2105C64.6429 31.5625 64.0829 31.7385 63.3869 31.7385C62.4029 31.7385 61.6749 31.3505 61.2029 30.5745C60.7389 29.7905 60.5069 28.7065 60.5069 27.3225C60.5069 26.3945 60.5989 25.6025 60.7829 24.9465C60.9749 24.2905 61.2829 23.7905 61.7069 23.4465C62.1309 23.0945 62.6909 22.9185 63.3869 22.9185C64.3629 22.9185 65.0909 23.3065 65.5709 24.0825C66.0509 24.8505 66.2909 25.9305 66.2909 27.3225ZM61.7789 27.3225C61.7789 28.4425 61.8989 29.2825 62.1389 29.8425C62.3789 30.3945 62.7949 30.6705 63.3869 30.6705C63.9709 30.6705 64.3869 30.3945 64.6349 29.8425C64.8829 29.2905 65.0069 28.4505 65.0069 27.3225C65.0069 26.2105 64.8829 25.3785 64.6349 24.8265C64.3869 24.2665 63.9709 23.9865 63.3869 23.9865C62.7949 23.9865 62.3789 24.2665 62.1389 24.8265C61.8989 25.3785 61.7789 26.2105 61.7789 27.3225Z" fill="white"/>
</svg>
