<svg width="210" height="64" viewBox="0 0 210 64" fill="none" xmlns="http://www.w3.org/2000/svg">
<mask id="mask0_123_444" style="mask-type:alpha" maskUnits="userSpaceOnUse" x="0" y="48" width="210" height="16">
<rect x="210" y="64" width="210" height="16" transform="rotate(-180 210 64)" fill="#C4C4C4"/>
</mask>
<g mask="url(#mask0_123_444)">
<rect x="210" y="64" width="210" height="16" transform="rotate(-180 210 64)" fill="white"/>
<rect x="210" y="64" width="52.5" height="16" transform="rotate(-180 210 64)" fill="#F7CED1"/>
<rect x="157.5" y="64" width="52.5" height="16" transform="rotate(-180 157.5 64)" fill="#EF9EA3"/>
<rect x="105" y="64" width="52.5" height="16" transform="rotate(-180 105 64)" fill="#E66D74"/>
<rect x="52.5" y="64" width="52.5" height="16" transform="rotate(-180 52.5 64)" fill="#DE3D46"/>
</g>
<rect width="210" height="48" fill="#D60C18"/>
<path d="M13.464 36.8513H12.204V31.1633C12.204 30.9633 12.204 30.7793 12.204 30.6113C12.212 30.4353 12.22 30.2673 12.228 30.1073C12.236 29.9393 12.244 29.7793 12.252 29.6273C12.148 29.7313 12.04 29.8313 11.928 29.9273C11.816 30.0233 11.688 30.1353 11.544 30.2633L10.608 31.0193L9.96 30.2033L12.408 28.2833H13.464V36.8513ZM22.0712 32.5553C22.0712 33.2513 22.0152 33.8713 21.9032 34.4153C21.7992 34.9593 21.6312 35.4233 21.3992 35.8073C21.1752 36.1833 20.8752 36.4713 20.4992 36.6713C20.1312 36.8713 19.6872 36.9713 19.1672 36.9713C18.5112 36.9713 17.9712 36.7953 17.5472 36.4433C17.1232 36.0913 16.8072 35.5873 16.5992 34.9313C16.3912 34.2673 16.2872 33.4753 16.2872 32.5553C16.2872 31.6273 16.3792 30.8353 16.5632 30.1793C16.7552 29.5233 17.0632 29.0233 17.4872 28.6793C17.9112 28.3273 18.4712 28.1513 19.1672 28.1513C19.8232 28.1513 20.3632 28.3273 20.7872 28.6793C21.2192 29.0233 21.5392 29.5233 21.7472 30.1793C21.9632 30.8353 22.0712 31.6273 22.0712 32.5553ZM17.5592 32.5553C17.5592 33.2993 17.6112 33.9193 17.7152 34.4153C17.8192 34.9113 17.9872 35.2833 18.2192 35.5313C18.4592 35.7793 18.7752 35.9033 19.1672 35.9033C19.5592 35.9033 19.8712 35.7833 20.1032 35.5433C20.3432 35.2953 20.5152 34.9233 20.6192 34.4273C20.7312 33.9233 20.7872 33.2993 20.7872 32.5553C20.7872 31.8113 20.7312 31.1953 20.6192 30.7073C20.5152 30.2113 20.3432 29.8393 20.1032 29.5913C19.8712 29.3433 19.5592 29.2193 19.1672 29.2193C18.7752 29.2193 18.4592 29.3433 18.2192 29.5913C17.9872 29.8393 17.8192 30.2113 17.7152 30.7073C17.6112 31.1953 17.5592 31.8113 17.5592 32.5553ZM23.3104 36.1433C23.3104 35.8313 23.3904 35.6113 23.5504 35.4833C23.7104 35.3553 23.9024 35.2913 24.1264 35.2913C24.3584 35.2913 24.5544 35.3553 24.7144 35.4833C24.8744 35.6113 24.9544 35.8313 24.9544 36.1433C24.9544 36.4553 24.8744 36.6793 24.7144 36.8153C24.5544 36.9513 24.3584 37.0193 24.1264 37.0193C23.9024 37.0193 23.7104 36.9513 23.5504 36.8153C23.3904 36.6793 23.3104 36.4553 23.3104 36.1433ZM30.1196 36.8513H28.8596V31.1633C28.8596 30.9633 28.8596 30.7793 28.8596 30.6113C28.8676 30.4353 28.8756 30.2673 28.8836 30.1073C28.8916 29.9393 28.8996 29.7793 28.9076 29.6273C28.8036 29.7313 28.6956 29.8313 28.5836 29.9273C28.4716 30.0233 28.3436 30.1353 28.1996 30.2633L27.2636 31.0193L26.6156 30.2033L29.0636 28.2833H30.1196V36.8513ZM38.7268 32.5553C38.7268 33.2513 38.6708 33.8713 38.5588 34.4153C38.4548 34.9593 38.2868 35.4233 38.0548 35.8073C37.8308 36.1833 37.5308 36.4713 37.1548 36.6713C36.7868 36.8713 36.3428 36.9713 35.8228 36.9713C35.1668 36.9713 34.6268 36.7953 34.2028 36.4433C33.7788 36.0913 33.4628 35.5873 33.2548 34.9313C33.0468 34.2673 32.9428 33.4753 32.9428 32.5553C32.9428 31.6273 33.0348 30.8353 33.2188 30.1793C33.4108 29.5233 33.7188 29.0233 34.1428 28.6793C34.5668 28.3273 35.1268 28.1513 35.8228 28.1513C36.4788 28.1513 37.0188 28.3273 37.4428 28.6793C37.8748 29.0233 38.1948 29.5233 38.4028 30.1793C38.6188 30.8353 38.7268 31.6273 38.7268 32.5553ZM34.2148 32.5553C34.2148 33.2993 34.2668 33.9193 34.3708 34.4153C34.4748 34.9113 34.6428 35.2833 34.8748 35.5313C35.1148 35.7793 35.4308 35.9033 35.8228 35.9033C36.2148 35.9033 36.5268 35.7833 36.7588 35.5433C36.9988 35.2953 37.1708 34.9233 37.2748 34.4273C37.3868 33.9233 37.4428 33.2993 37.4428 32.5553C37.4428 31.8113 37.3868 31.1953 37.2748 30.7073C37.1708 30.2113 36.9988 29.8393 36.7588 29.5913C36.5268 29.3433 36.2148 29.2193 35.8228 29.2193C35.4308 29.2193 35.1148 29.3433 34.8748 29.5913C34.6428 29.8393 34.4748 30.2113 34.3708 30.7073C34.2668 31.1953 34.2148 31.8113 34.2148 32.5553ZM45.474 32.5553C45.474 33.2513 45.418 33.8713 45.306 34.4153C45.202 34.9593 45.034 35.4233 44.802 35.8073C44.578 36.1833 44.278 36.4713 43.902 36.6713C43.534 36.8713 43.09 36.9713 42.57 36.9713C41.914 36.9713 41.374 36.7953 40.95 36.4433C40.526 36.0913 40.21 35.5873 40.002 34.9313C39.794 34.2673 39.69 33.4753 39.69 32.5553C39.69 31.6273 39.782 30.8353 39.966 30.1793C40.158 29.5233 40.466 29.0233 40.89 28.6793C41.314 28.3273 41.874 28.1513 42.57 28.1513C43.226 28.1513 43.766 28.3273 44.19 28.6793C44.622 29.0233 44.942 29.5233 45.15 30.1793C45.366 30.8353 45.474 31.6273 45.474 32.5553ZM40.962 32.5553C40.962 33.2993 41.014 33.9193 41.118 34.4153C41.222 34.9113 41.39 35.2833 41.622 35.5313C41.862 35.7793 42.178 35.9033 42.57 35.9033C42.962 35.9033 43.274 35.7833 43.506 35.5433C43.746 35.2953 43.918 34.9233 44.022 34.4273C44.134 33.9233 44.19 33.2993 44.19 32.5553C44.19 31.8113 44.134 31.1953 44.022 30.7073C43.918 30.2113 43.746 29.8393 43.506 29.5913C43.274 29.3433 42.962 29.2193 42.57 29.2193C42.178 29.2193 41.862 29.3433 41.622 29.5913C41.39 29.8393 41.222 30.2113 41.118 30.7073C41.014 31.1953 40.962 31.8113 40.962 32.5553ZM46.7132 36.1433C46.7132 35.8313 46.7932 35.6113 46.9532 35.4833C47.1132 35.3553 47.3052 35.2913 47.5292 35.2913C47.7612 35.2913 47.9572 35.3553 48.1172 35.4833C48.2772 35.6113 48.3572 35.8313 48.3572 36.1433C48.3572 36.4553 48.2772 36.6793 48.1172 36.8153C47.9572 36.9513 47.7612 37.0193 47.5292 37.0193C47.3052 37.0193 47.1132 36.9513 46.9532 36.8153C46.7932 36.6793 46.7132 36.4553 46.7132 36.1433ZM53.5224 36.8513H52.2624V31.1633C52.2624 30.9633 52.2624 30.7793 52.2624 30.6113C52.2704 30.4353 52.2784 30.2673 52.2864 30.1073C52.2944 29.9393 52.3024 29.7793 52.3104 29.6273C52.2064 29.7313 52.0984 29.8313 51.9864 29.9273C51.8744 30.0233 51.7464 30.1353 51.6024 30.2633L50.6664 31.0193L50.0184 30.2033L52.4664 28.2833H53.5224V36.8513ZM62.1296 32.5553C62.1296 33.2513 62.0736 33.8713 61.9616 34.4153C61.8576 34.9593 61.6896 35.4233 61.4576 35.8073C61.2336 36.1833 60.9336 36.4713 60.5576 36.6713C60.1896 36.8713 59.7456 36.9713 59.2256 36.9713C58.5696 36.9713 58.0296 36.7953 57.6056 36.4433C57.1816 36.0913 56.8656 35.5873 56.6576 34.9313C56.4496 34.2673 56.3456 33.4753 56.3456 32.5553C56.3456 31.6273 56.4376 30.8353 56.6216 30.1793C56.8136 29.5233 57.1216 29.0233 57.5456 28.6793C57.9696 28.3273 58.5296 28.1513 59.2256 28.1513C59.8816 28.1513 60.4216 28.3273 60.8456 28.6793C61.2776 29.0233 61.5976 29.5233 61.8056 30.1793C62.0216 30.8353 62.1296 31.6273 62.1296 32.5553ZM57.6176 32.5553C57.6176 33.2993 57.6696 33.9193 57.7736 34.4153C57.8776 34.9113 58.0456 35.2833 58.2776 35.5313C58.5176 35.7793 58.8336 35.9033 59.2256 35.9033C59.6176 35.9033 59.9296 35.7833 60.1616 35.5433C60.4016 35.2953 60.5736 34.9233 60.6776 34.4273C60.7896 33.9233 60.8456 33.2993 60.8456 32.5553C60.8456 31.8113 60.7896 31.1953 60.6776 30.7073C60.5736 30.2113 60.4016 29.8393 60.1616 29.5913C59.9296 29.3433 59.6176 29.2193 59.2256 29.2193C58.8336 29.2193 58.5176 29.3433 58.2776 29.5913C58.0456 29.8393 57.8776 30.2113 57.7736 30.7073C57.6696 31.1953 57.6176 31.8113 57.6176 32.5553ZM68.8768 32.5553C68.8768 33.2513 68.8208 33.8713 68.7088 34.4153C68.6048 34.9593 68.4368 35.4233 68.2048 35.8073C67.9808 36.1833 67.6808 36.4713 67.3048 36.6713C66.9368 36.8713 66.4928 36.9713 65.9728 36.9713C65.3168 36.9713 64.7768 36.7953 64.3528 36.4433C63.9288 36.0913 63.6128 35.5873 63.4048 34.9313C63.1968 34.2673 63.0928 33.4753 63.0928 32.5553C63.0928 31.6273 63.1848 30.8353 63.3688 30.1793C63.5608 29.5233 63.8688 29.0233 64.2928 28.6793C64.7168 28.3273 65.2768 28.1513 65.9728 28.1513C66.6288 28.1513 67.1688 28.3273 67.5928 28.6793C68.0248 29.0233 68.3448 29.5233 68.5528 30.1793C68.7688 30.8353 68.8768 31.6273 68.8768 32.5553ZM64.3648 32.5553C64.3648 33.2993 64.4168 33.9193 64.5208 34.4153C64.6248 34.9113 64.7928 35.2833 65.0248 35.5313C65.2648 35.7793 65.5808 35.9033 65.9728 35.9033C66.3648 35.9033 66.6768 35.7833 66.9088 35.5433C67.1488 35.2953 67.3208 34.9233 67.4248 34.4273C67.5368 33.9233 67.5928 33.2993 67.5928 32.5553C67.5928 31.8113 67.5368 31.1953 67.4248 30.7073C67.3208 30.2113 67.1488 29.8393 66.9088 29.5913C66.6768 29.3433 66.3648 29.2193 65.9728 29.2193C65.5808 29.2193 65.2648 29.3433 65.0248 29.5913C64.7928 29.8393 64.6248 30.2113 64.5208 30.7073C64.4168 31.1953 64.3648 31.8113 64.3648 32.5553ZM70.116 36.1433C70.116 35.8313 70.196 35.6113 70.356 35.4833C70.516 35.3553 70.708 35.2913 70.932 35.2913C71.164 35.2913 71.36 35.3553 71.52 35.4833C71.68 35.6113 71.76 35.8313 71.76 36.1433C71.76 36.4553 71.68 36.6793 71.52 36.8153C71.36 36.9513 71.164 37.0193 70.932 37.0193C70.708 37.0193 70.516 36.9513 70.356 36.8153C70.196 36.6793 70.116 36.4553 70.116 36.1433ZM78.7853 32.5553C78.7853 33.2513 78.7293 33.8713 78.6173 34.4153C78.5133 34.9593 78.3453 35.4233 78.1133 35.8073C77.8893 36.1833 77.5893 36.4713 77.2133 36.6713C76.8453 36.8713 76.4013 36.9713 75.8813 36.9713C75.2253 36.9713 74.6853 36.7953 74.2613 36.4433C73.8373 36.0913 73.5213 35.5873 73.3133 34.9313C73.1053 34.2673 73.0013 33.4753 73.0013 32.5553C73.0013 31.6273 73.0933 30.8353 73.2773 30.1793C73.4693 29.5233 73.7773 29.0233 74.2013 28.6793C74.6253 28.3273 75.1853 28.1513 75.8813 28.1513C76.5373 28.1513 77.0773 28.3273 77.5013 28.6793C77.9333 29.0233 78.2533 29.5233 78.4613 30.1793C78.6773 30.8353 78.7853 31.6273 78.7853 32.5553ZM74.2733 32.5553C74.2733 33.2993 74.3253 33.9193 74.4293 34.4153C74.5333 34.9113 74.7013 35.2833 74.9333 35.5313C75.1733 35.7793 75.4893 35.9033 75.8813 35.9033C76.2733 35.9033 76.5853 35.7833 76.8173 35.5433C77.0573 35.2953 77.2293 34.9233 77.3333 34.4273C77.4453 33.9233 77.5013 33.2993 77.5013 32.5553C77.5013 31.8113 77.4453 31.1953 77.3333 30.7073C77.2293 30.2113 77.0573 29.8393 76.8173 29.5913C76.5853 29.3433 76.2733 29.2193 75.8813 29.2193C75.4893 29.2193 75.1733 29.3433 74.9333 29.5913C74.7013 29.8393 74.5333 30.2113 74.4293 30.7073C74.3253 31.1953 74.2733 31.8113 74.2733 32.5553Z" fill="white"/>
<path d="M14.784 14.7033L14.448 16.4553H16.044V17.3793H14.268L13.788 19.8513H12.804L13.284 17.3793H11.736L11.28 19.8513H10.32L10.764 17.3793H9.288V16.4553H10.944L11.292 14.7033H9.732V13.7793H11.46L11.928 11.2833H12.924L12.444 13.7793H14.016L14.484 11.2833H15.444L14.964 13.7793H16.452V14.7033H14.784ZM11.916 16.4553H13.464L13.812 14.7033H12.264L11.916 16.4553ZM24.7138 15.4833C24.7138 16.4433 24.5338 17.2473 24.1738 17.8953C23.8138 18.5433 23.2938 19.0313 22.6138 19.3593C21.9418 19.6873 21.1298 19.8513 20.1778 19.8513H17.7778V11.2833H20.4298C21.3018 11.2833 22.0578 11.4433 22.6978 11.7633C23.3378 12.0833 23.8338 12.5553 24.1858 13.1793C24.5378 13.7953 24.7138 14.5633 24.7138 15.4833ZM23.3578 15.5193C23.3578 14.7993 23.2418 14.2073 23.0098 13.7433C22.7778 13.2793 22.4338 12.9353 21.9778 12.7113C21.5298 12.4873 20.9858 12.3753 20.3458 12.3753H19.0738V18.7593H20.1178C21.1978 18.7593 22.0058 18.4873 22.5418 17.9433C23.0858 17.3993 23.3578 16.5913 23.3578 15.5193ZM25.9066 16.2033C25.9066 15.7073 25.9386 15.2193 26.0026 14.7393C26.0746 14.2593 26.1946 13.8073 26.3626 13.3833C26.5386 12.9513 26.7786 12.5713 27.0826 12.2433C27.3866 11.9073 27.7706 11.6473 28.2346 11.4633C28.7066 11.2713 29.2746 11.1753 29.9386 11.1753C30.1066 11.1753 30.2946 11.1833 30.5026 11.1993C30.7186 11.2073 30.8946 11.2313 31.0306 11.2713V12.3393C30.8786 12.2913 30.7106 12.2553 30.5266 12.2313C30.3506 12.2073 30.1746 12.1953 29.9986 12.1953C29.4466 12.1953 28.9906 12.2793 28.6306 12.4473C28.2706 12.6153 27.9866 12.8473 27.7786 13.1433C27.5706 13.4393 27.4186 13.7833 27.3226 14.1753C27.2266 14.5593 27.1666 14.9793 27.1426 15.4353H27.2146C27.3346 15.2433 27.4826 15.0713 27.6586 14.9193C27.8346 14.7673 28.0506 14.6473 28.3066 14.5593C28.5626 14.4713 28.8586 14.4273 29.1946 14.4273C29.6906 14.4273 30.1226 14.5313 30.4906 14.7393C30.8666 14.9473 31.1546 15.2473 31.3546 15.6393C31.5626 16.0313 31.6666 16.5073 31.6666 17.0673C31.6666 17.6673 31.5506 18.1873 31.3186 18.6273C31.0946 19.0593 30.7746 19.3913 30.3586 19.6233C29.9506 19.8553 29.4586 19.9713 28.8826 19.9713C28.4666 19.9713 28.0786 19.8953 27.7186 19.7433C27.3586 19.5913 27.0426 19.3593 26.7706 19.0473C26.4986 18.7353 26.2866 18.3433 26.1346 17.8713C25.9826 17.3913 25.9066 16.8353 25.9066 16.2033ZM28.8706 18.9153C29.3266 18.9153 29.6986 18.7673 29.9866 18.4713C30.2746 18.1673 30.4186 17.6993 30.4186 17.0673C30.4186 16.5633 30.2906 16.1633 30.0346 15.8673C29.7866 15.5713 29.4106 15.4233 28.9066 15.4233C28.5626 15.4233 28.2626 15.4953 28.0066 15.6393C27.7506 15.7833 27.5506 15.9673 27.4066 16.1913C27.2626 16.4153 27.1906 16.6433 27.1906 16.8753C27.1906 17.1233 27.2266 17.3673 27.2986 17.6073C27.3706 17.8473 27.4746 18.0673 27.6106 18.2673C27.7546 18.4673 27.9306 18.6273 28.1386 18.7473C28.3466 18.8593 28.5906 18.9153 28.8706 18.9153ZM38.3898 15.5553C38.3898 16.2513 38.3338 16.8713 38.2218 17.4153C38.1178 17.9593 37.9498 18.4233 37.7178 18.8073C37.4938 19.1833 37.1938 19.4713 36.8178 19.6713C36.4498 19.8713 36.0058 19.9713 35.4858 19.9713C34.8298 19.9713 34.2898 19.7953 33.8658 19.4433C33.4418 19.0913 33.1258 18.5873 32.9178 17.9313C32.7098 17.2673 32.6058 16.4753 32.6058 15.5553C32.6058 14.6273 32.6978 13.8353 32.8818 13.1793C33.0738 12.5233 33.3818 12.0233 33.8058 11.6793C34.2298 11.3273 34.7898 11.1513 35.4858 11.1513C36.1418 11.1513 36.6818 11.3273 37.1058 11.6793C37.5378 12.0233 37.8578 12.5233 38.0658 13.1793C38.2818 13.8353 38.3898 14.6273 38.3898 15.5553ZM33.8778 15.5553C33.8778 16.2993 33.9298 16.9193 34.0338 17.4153C34.1378 17.9113 34.3058 18.2833 34.5378 18.5313C34.7778 18.7793 35.0938 18.9033 35.4858 18.9033C35.8778 18.9033 36.1898 18.7833 36.4218 18.5433C36.6618 18.2953 36.8338 17.9233 36.9378 17.4273C37.0498 16.9233 37.1058 16.2993 37.1058 15.5553C37.1058 14.8113 37.0498 14.1953 36.9378 13.7073C36.8338 13.2113 36.6618 12.8393 36.4218 12.5913C36.1898 12.3433 35.8778 12.2193 35.4858 12.2193C35.0938 12.2193 34.7778 12.3433 34.5378 12.5913C34.3058 12.8393 34.1378 13.2113 34.0338 13.7073C33.9298 14.1953 33.8778 14.8113 33.8778 15.5553ZM43.613 12.2793C43.189 12.2793 42.809 12.3553 42.473 12.5073C42.137 12.6513 41.849 12.8673 41.609 13.1553C41.377 13.4433 41.197 13.7913 41.069 14.1993C40.949 14.6073 40.889 15.0673 40.889 15.5793C40.889 16.2513 40.989 16.8353 41.189 17.3313C41.389 17.8193 41.689 18.1953 42.089 18.4593C42.489 18.7233 42.993 18.8553 43.601 18.8553C43.969 18.8553 44.321 18.8233 44.657 18.7593C45.001 18.6873 45.349 18.5953 45.701 18.4833V19.5993C45.365 19.7273 45.021 19.8193 44.669 19.8753C44.317 19.9393 43.909 19.9713 43.445 19.9713C42.573 19.9713 41.845 19.7913 41.261 19.4313C40.685 19.0713 40.253 18.5593 39.965 17.8953C39.677 17.2313 39.533 16.4553 39.533 15.5673C39.533 14.9193 39.621 14.3273 39.797 13.7913C39.981 13.2473 40.245 12.7793 40.589 12.3873C40.933 11.9953 41.357 11.6953 41.861 11.4873C42.373 11.2713 42.961 11.1633 43.625 11.1633C44.057 11.1633 44.481 11.2113 44.897 11.3073C45.313 11.3953 45.689 11.5233 46.025 11.6913L45.545 12.7713C45.265 12.6433 44.961 12.5313 44.633 12.4353C44.313 12.3313 43.973 12.2793 43.613 12.2793ZM50.7507 19.8513H49.4907V14.1633C49.4907 13.9633 49.4907 13.7793 49.4907 13.6113C49.4987 13.4353 49.5067 13.2673 49.5147 13.1073C49.5227 12.9393 49.5307 12.7793 49.5387 12.6273C49.4347 12.7313 49.3267 12.8313 49.2147 12.9273C49.1027 13.0233 48.9747 13.1353 48.8307 13.2633L47.8947 14.0193L47.2467 13.2033L49.6947 11.2833H50.7507V19.8513ZM56.4539 11.1633C56.9579 11.1633 57.4059 11.2433 57.7979 11.4033C58.1899 11.5553 58.4979 11.7833 58.7219 12.0873C58.9539 12.3913 59.0699 12.7713 59.0699 13.2273C59.0699 13.5713 58.9979 13.8713 58.8539 14.1273C58.7099 14.3833 58.5179 14.6113 58.2779 14.8113C58.0379 15.0033 57.7699 15.1713 57.4739 15.3153C57.8099 15.4833 58.1179 15.6753 58.3979 15.8913C58.6859 16.0993 58.9139 16.3433 59.0819 16.6233C59.2579 16.9033 59.3459 17.2393 59.3459 17.6313C59.3459 18.1113 59.2259 18.5273 58.9859 18.8793C58.7539 19.2233 58.4219 19.4913 57.9899 19.6833C57.5579 19.8753 57.0539 19.9713 56.4779 19.9713C55.8619 19.9713 55.3339 19.8793 54.8939 19.6953C54.4619 19.5113 54.1339 19.2513 53.9099 18.9153C53.6859 18.5713 53.5739 18.1553 53.5739 17.6673C53.5739 17.2753 53.6539 16.9353 53.8139 16.6473C53.9739 16.3593 54.1859 16.1113 54.4499 15.9033C54.7139 15.6953 55.0019 15.5193 55.3139 15.3753C55.0419 15.2153 54.7939 15.0353 54.5699 14.8353C54.3459 14.6273 54.1699 14.3913 54.0419 14.1273C53.9139 13.8633 53.8499 13.5593 53.8499 13.2153C53.8499 12.7673 53.9659 12.3953 54.1979 12.0993C54.4299 11.7953 54.7419 11.5633 55.1339 11.4033C55.5339 11.2433 55.9739 11.1633 56.4539 11.1633ZM54.7979 17.6433C54.7979 18.0353 54.9339 18.3593 55.2059 18.6153C55.4779 18.8633 55.8939 18.9873 56.4539 18.9873C56.8219 18.9873 57.1259 18.9313 57.3659 18.8193C57.6139 18.6993 57.8019 18.5393 57.9299 18.3393C58.0579 18.1313 58.1219 17.8953 58.1219 17.6313C58.1219 17.3673 58.0499 17.1353 57.9059 16.9353C57.7699 16.7353 57.5779 16.5593 57.3299 16.4073C57.0899 16.2473 56.8099 16.1033 56.4899 15.9753L56.3099 15.9033C55.9819 16.0393 55.7059 16.1913 55.4819 16.3593C55.2579 16.5273 55.0859 16.7153 54.9659 16.9233C54.8539 17.1313 54.7979 17.3713 54.7979 17.6433ZM56.4419 12.1593C56.0499 12.1593 55.7219 12.2553 55.4579 12.4473C55.2019 12.6393 55.0739 12.9193 55.0739 13.2873C55.0739 13.5513 55.1379 13.7753 55.2659 13.9593C55.3939 14.1433 55.5659 14.3033 55.7819 14.4393C55.9979 14.5673 56.2339 14.6913 56.4899 14.8113C56.7459 14.6993 56.9739 14.5793 57.1739 14.4513C57.3739 14.3153 57.5339 14.1553 57.6539 13.9713C57.7739 13.7793 57.8339 13.5513 57.8339 13.2873C57.8339 12.9193 57.7059 12.6393 57.4499 12.4473C57.1939 12.2553 56.8579 12.1593 56.4419 12.1593Z" fill="white"/>
</svg>
