<svg width="100" height="52" viewBox="0 0 100 52" fill="none" xmlns="http://www.w3.org/2000/svg">
<rect width="100" height="41.2371" fill="#914D99"/>
<mask id="mask0_122_366" style="mask-type:alpha" maskUnits="userSpaceOnUse" x="0" y="41" width="100" height="11">
<rect width="100" height="10.3093" transform="matrix(1 0 0 -1 0 51.5464)" fill="#C4C4C4"/>
</mask>
<g mask="url(#mask0_122_366)">
<rect width="100" height="10.3093" transform="matrix(1 0 0 -1 0 51.5464)" fill="white"/>
<rect opacity="0.8" width="25" height="10.3093" transform="matrix(1 0 0 -1 0 51.5464)" fill="#914D99"/>
<rect opacity="0.6" width="25" height="10.3093" transform="matrix(1 0 0 -1 25 51.5464)" fill="#914D99"/>
<rect opacity="0.4" width="25" height="10.3093" transform="matrix(1 0 0 -1 50 51.5464)" fill="#914D99"/>
<rect opacity="0.2" width="25" height="10.3093" transform="matrix(1 0 0 -1 75.0002 51.5464)" fill="#914D99"/>
</g>
<path d="M14.0618 11.1922L13.7258 12.9442H15.3218V13.8682H13.5458L13.0658 16.3402H12.0818L12.5618 13.8682H11.0138L10.5578 16.3402H9.59783L10.0418 13.8682H8.56583V12.9442H10.2218L10.5698 11.1922H9.00983V10.2682H10.7378L11.2058 7.77221H12.2018L11.7218 10.2682H13.2938L13.7618 7.77221H14.7218L14.2418 10.2682H15.7298V11.1922H14.0618ZM11.1938 12.9442H12.7418L13.0898 11.1922H11.5418L11.1938 12.9442ZM22.2156 11.4322C22.2156 11.9202 22.1796 12.4082 22.1076 12.8962C22.0436 13.3762 21.9236 13.8322 21.7476 14.2642C21.5796 14.6882 21.3436 15.0682 21.0396 15.4042C20.7356 15.7322 20.3476 15.9922 19.8756 16.1842C19.4036 16.3682 18.8356 16.4602 18.1716 16.4602C18.0116 16.4602 17.8196 16.4522 17.5956 16.4362C17.3796 16.4202 17.2036 16.3922 17.0676 16.3522V15.2842C17.2196 15.3322 17.3876 15.3682 17.5716 15.3922C17.7636 15.4162 17.9476 15.4282 18.1236 15.4282C18.6756 15.4282 19.1316 15.3482 19.4916 15.1882C19.8516 15.0202 20.1356 14.7882 20.3436 14.4922C20.5516 14.1962 20.7036 13.8562 20.7996 13.4722C20.8956 13.0802 20.9516 12.6602 20.9676 12.2122H20.8956C20.7196 12.4842 20.4756 12.7202 20.1636 12.9202C19.8516 13.1122 19.4316 13.2082 18.9036 13.2082C18.1676 13.2082 17.5756 12.9802 17.1276 12.5242C16.6796 12.0602 16.4556 11.4122 16.4556 10.5802C16.4556 9.67621 16.7076 8.96421 17.2116 8.44421C17.7156 7.92421 18.3916 7.66421 19.2396 7.66421C19.7916 7.66421 20.2916 7.80021 20.7396 8.07221C21.1956 8.34421 21.5556 8.76021 21.8196 9.32021C22.0836 9.87221 22.2156 10.5762 22.2156 11.4322ZM19.2516 8.70821C18.7956 8.70821 18.4236 8.86021 18.1356 9.16421C17.8476 9.46821 17.7036 9.93221 17.7036 10.5562C17.7036 11.0682 17.8276 11.4722 18.0756 11.7682C18.3236 12.0642 18.6996 12.2122 19.2036 12.2122C19.5556 12.2122 19.8596 12.1402 20.1156 11.9962C20.3796 11.8522 20.5796 11.6682 20.7156 11.4442C20.8596 11.2202 20.9316 10.9882 20.9316 10.7482C20.9316 10.4282 20.8676 10.1122 20.7396 9.80021C20.6196 9.48821 20.4316 9.22821 20.1756 9.02021C19.9276 8.81221 19.6196 8.70821 19.2516 8.70821ZM27.1268 16.3402H25.8668V10.6522C25.8668 10.3482 25.8708 10.0762 25.8788 9.83621C25.8868 9.58821 25.8988 9.34821 25.9148 9.11621C25.8108 9.22821 25.7028 9.33221 25.5908 9.42821C25.4788 9.52421 25.3508 9.63221 25.2068 9.75221L24.2708 10.5082L23.6228 9.69221L26.0708 7.77221H27.1268V16.3402ZM36.046 14.4442H34.858V16.3402H33.622V14.4442H29.65V13.4362L33.598 7.73621H34.858V13.3642H36.046V14.4442ZM33.622 13.3642V11.0362C33.622 10.6602 33.626 10.3082 33.634 9.98021C33.65 9.64421 33.666 9.36421 33.682 9.14021H33.634C33.57 9.30021 33.49 9.46421 33.394 9.63221C33.298 9.80021 33.206 9.94821 33.118 10.0762L30.85 13.3642H33.622ZM39.5772 7.65221C40.0812 7.65221 40.5292 7.73221 40.9212 7.89221C41.3132 8.04421 41.6212 8.27621 41.8452 8.58821C42.0772 8.89221 42.1932 9.26821 42.1932 9.71621C42.1932 10.2282 42.0372 10.6482 41.7252 10.9762C41.4132 11.3042 41.0372 11.5802 40.5972 11.8042C40.9332 11.9722 41.2412 12.1642 41.5212 12.3802C41.8092 12.5882 42.0372 12.8362 42.2052 13.1242C42.3812 13.4042 42.4692 13.7362 42.4692 14.1202C42.4692 14.6002 42.3492 15.0162 42.1092 15.3682C41.8692 15.7122 41.5332 15.9802 41.1012 16.1722C40.6772 16.3642 40.1772 16.4602 39.6012 16.4602C38.6732 16.4602 37.9572 16.2602 37.4532 15.8602C36.9492 15.4522 36.6972 14.8842 36.6972 14.1562C36.6972 13.7722 36.7772 13.4362 36.9372 13.1482C37.0972 12.8522 37.3092 12.6002 37.5732 12.3922C37.8372 12.1842 38.1252 12.0082 38.4372 11.8642C38.0212 11.6242 37.6732 11.3362 37.3932 11.0002C37.1132 10.6562 36.9732 10.2242 36.9732 9.70421C36.9732 9.26421 37.0892 8.89221 37.3212 8.58821C37.5532 8.27621 37.8652 8.04421 38.2572 7.89221C38.6492 7.73221 39.0892 7.65221 39.5772 7.65221ZM39.5652 8.64821C39.1652 8.64821 38.8372 8.74821 38.5812 8.94821C38.3252 9.14021 38.1972 9.41621 38.1972 9.77621C38.1972 10.1762 38.3332 10.4882 38.6052 10.7122C38.8852 10.9282 39.2212 11.1242 39.6132 11.3002C39.9812 11.1402 40.2972 10.9442 40.5612 10.7122C40.8252 10.4802 40.9572 10.1682 40.9572 9.77621C40.9572 9.41621 40.8292 9.14021 40.5732 8.94821C40.3172 8.74821 39.9812 8.64821 39.5652 8.64821ZM37.9212 14.1322C37.9212 14.5162 38.0572 14.8362 38.3292 15.0922C38.6012 15.3482 39.0172 15.4762 39.5772 15.4762C40.1212 15.4762 40.5332 15.3522 40.8132 15.1042C41.1012 14.8482 41.2452 14.5202 41.2452 14.1202C41.2452 13.7282 41.0892 13.4042 40.7772 13.1482C40.4652 12.8922 40.0772 12.6642 39.6132 12.4642L39.4332 12.3922C38.9452 12.6002 38.5692 12.8442 38.3052 13.1242C38.0492 13.3962 37.9212 13.7322 37.9212 14.1322ZM49.2044 11.4322C49.2044 11.9202 49.1684 12.4082 49.0964 12.8962C49.0324 13.3762 48.9124 13.8322 48.7364 14.2642C48.5684 14.6882 48.3324 15.0682 48.0284 15.4042C47.7244 15.7322 47.3364 15.9922 46.8644 16.1842C46.3924 16.3682 45.8244 16.4602 45.1604 16.4602C45.0004 16.4602 44.8084 16.4522 44.5844 16.4362C44.3684 16.4202 44.1924 16.3922 44.0564 16.3522V15.2842C44.2084 15.3322 44.3764 15.3682 44.5604 15.3922C44.7524 15.4162 44.9364 15.4282 45.1124 15.4282C45.6644 15.4282 46.1204 15.3482 46.4804 15.1882C46.8404 15.0202 47.1244 14.7882 47.3324 14.4922C47.5404 14.1962 47.6924 13.8562 47.7884 13.4722C47.8844 13.0802 47.9404 12.6602 47.9564 12.2122H47.8844C47.7084 12.4842 47.4644 12.7202 47.1524 12.9202C46.8404 13.1122 46.4204 13.2082 45.8924 13.2082C45.1564 13.2082 44.5644 12.9802 44.1164 12.5242C43.6684 12.0602 43.4444 11.4122 43.4444 10.5802C43.4444 9.67621 43.6964 8.96421 44.2004 8.44421C44.7044 7.92421 45.3804 7.66421 46.2284 7.66421C46.7804 7.66421 47.2804 7.80021 47.7284 8.07221C48.1844 8.34421 48.5444 8.76021 48.8084 9.32021C49.0724 9.87221 49.2044 10.5762 49.2044 11.4322ZM46.2404 8.70821C45.7844 8.70821 45.4124 8.86021 45.1244 9.16421C44.8364 9.46821 44.6924 9.93221 44.6924 10.5562C44.6924 11.0682 44.8164 11.4722 45.0644 11.7682C45.3124 12.0642 45.6884 12.2122 46.1924 12.2122C46.5444 12.2122 46.8484 12.1402 47.1044 11.9962C47.3684 11.8522 47.5684 11.6682 47.7044 11.4442C47.8484 11.2202 47.9204 10.9882 47.9204 10.7482C47.9204 10.4282 47.8564 10.1122 47.7284 9.80021C47.6084 9.48821 47.4204 9.22821 47.1644 9.02021C46.9164 8.81221 46.6084 8.70821 46.2404 8.70821ZM51.1996 16.3402L54.6196 8.90021H50.1196V7.77221H55.9876V8.68421L52.5796 16.3402H51.1996Z" fill="white"/>
<path d="M13.384 26.3025C14.232 26.3025 14.916 26.5225 15.436 26.9625C15.956 27.4025 16.216 28.0305 16.216 28.8465C16.216 29.7505 15.932 30.4585 15.364 30.9705C14.796 31.4825 13.992 31.7385 12.952 31.7385C12.504 31.7385 12.084 31.6985 11.692 31.6185C11.308 31.5385 10.98 31.4225 10.708 31.2705V30.1065C10.996 30.2745 11.344 30.4105 11.752 30.5145C12.168 30.6185 12.564 30.6705 12.94 30.6705C13.54 30.6705 14.02 30.5345 14.38 30.2625C14.74 29.9825 14.92 29.5505 14.92 28.9665C14.92 28.4465 14.756 28.0505 14.428 27.7785C14.108 27.4985 13.6 27.3585 12.904 27.3585C12.68 27.3585 12.428 27.3785 12.148 27.4185C11.876 27.4585 11.656 27.4985 11.488 27.5385L10.9 27.1905L11.224 23.0505H15.628V24.1785H12.328L12.136 26.4225C12.272 26.3985 12.444 26.3745 12.652 26.3505C12.86 26.3185 13.104 26.3025 13.384 26.3025ZM17.5632 30.9105C17.5632 30.5985 17.6432 30.3785 17.8032 30.2505C17.9632 30.1225 18.1552 30.0585 18.3792 30.0585C18.6032 30.0585 18.7952 30.1225 18.9552 30.2505C19.1232 30.3785 19.2072 30.5985 19.2072 30.9105C19.2072 31.2225 19.1232 31.4465 18.9552 31.5825C18.7952 31.7185 18.6032 31.7865 18.3792 31.7865C18.1552 31.7865 17.9632 31.7185 17.8032 31.5825C17.6432 31.4465 17.5632 31.2225 17.5632 30.9105ZM23.2924 26.3025C24.1404 26.3025 24.8244 26.5225 25.3444 26.9625C25.8644 27.4025 26.1244 28.0305 26.1244 28.8465C26.1244 29.7505 25.8404 30.4585 25.2724 30.9705C24.7044 31.4825 23.9004 31.7385 22.8604 31.7385C22.4124 31.7385 21.9924 31.6985 21.6004 31.6185C21.2164 31.5385 20.8884 31.4225 20.6164 31.2705V30.1065C20.9044 30.2745 21.2524 30.4105 21.6604 30.5145C22.0764 30.6185 22.4724 30.6705 22.8484 30.6705C23.4484 30.6705 23.9284 30.5345 24.2884 30.2625C24.6484 29.9825 24.8284 29.5505 24.8284 28.9665C24.8284 28.4465 24.6644 28.0505 24.3364 27.7785C24.0164 27.4985 23.5084 27.3585 22.8124 27.3585C22.5884 27.3585 22.3364 27.3785 22.0564 27.4185C21.7844 27.4585 21.5644 27.4985 21.3964 27.5385L20.8084 27.1905L21.1324 23.0505H25.5364V24.1785H22.2364L22.0444 26.4225C22.1804 26.3985 22.3524 26.3745 22.5604 26.3505C22.7684 26.3185 23.0124 26.3025 23.2924 26.3025ZM32.9796 27.3225C32.9796 28.2505 32.8836 29.0425 32.6916 29.6985C32.4996 30.3545 32.1876 30.8585 31.7556 31.2105C31.3316 31.5625 30.7716 31.7385 30.0756 31.7385C29.0916 31.7385 28.3636 31.3505 27.8916 30.5745C27.4276 29.7905 27.1956 28.7065 27.1956 27.3225C27.1956 26.3945 27.2876 25.6025 27.4716 24.9465C27.6636 24.2905 27.9716 23.7905 28.3956 23.4465C28.8196 23.0945 29.3796 22.9185 30.0756 22.9185C31.0516 22.9185 31.7796 23.3065 32.2596 24.0825C32.7396 24.8505 32.9796 25.9305 32.9796 27.3225ZM28.4676 27.3225C28.4676 28.4425 28.5876 29.2825 28.8276 29.8425C29.0676 30.3945 29.4836 30.6705 30.0756 30.6705C30.6596 30.6705 31.0756 30.3945 31.3236 29.8425C31.5716 29.2905 31.6956 28.4505 31.6956 27.3225C31.6956 26.2105 31.5716 25.3785 31.3236 24.8265C31.0756 24.2665 30.6596 23.9865 30.0756 23.9865C29.4836 23.9865 29.0676 24.2665 28.8276 24.8265C28.5876 25.3785 28.4676 26.2105 28.4676 27.3225ZM34.2188 30.9105C34.2188 30.5985 34.2988 30.3785 34.4588 30.2505C34.6188 30.1225 34.8108 30.0585 35.0348 30.0585C35.2588 30.0585 35.4508 30.1225 35.6108 30.2505C35.7788 30.3785 35.8628 30.5985 35.8628 30.9105C35.8628 31.2225 35.7788 31.4465 35.6108 31.5825C35.4508 31.7185 35.2588 31.7865 35.0348 31.7865C34.8108 31.7865 34.6188 31.7185 34.4588 31.5825C34.2988 31.4465 34.2188 31.2225 34.2188 30.9105ZM42.8881 27.3225C42.8881 28.2505 42.7921 29.0425 42.6001 29.6985C42.4081 30.3545 42.0961 30.8585 41.6641 31.2105C41.2401 31.5625 40.6801 31.7385 39.9841 31.7385C39.0001 31.7385 38.2721 31.3505 37.8001 30.5745C37.3361 29.7905 37.1041 28.7065 37.1041 27.3225C37.1041 26.3945 37.1961 25.6025 37.3801 24.9465C37.5721 24.2905 37.8801 23.7905 38.3041 23.4465C38.7281 23.0945 39.2881 22.9185 39.9841 22.9185C40.9601 22.9185 41.6881 23.3065 42.1681 24.0825C42.6481 24.8505 42.8881 25.9305 42.8881 27.3225ZM38.3761 27.3225C38.3761 28.4425 38.4961 29.2825 38.7361 29.8425C38.9761 30.3945 39.3921 30.6705 39.9841 30.6705C40.5681 30.6705 40.9841 30.3945 41.2321 29.8425C41.4801 29.2905 41.6041 28.4505 41.6041 27.3225C41.6041 26.2105 41.4801 25.3785 41.2321 24.8265C40.9841 24.2665 40.5681 23.9865 39.9841 23.9865C39.3921 23.9865 38.9761 24.2665 38.7361 24.8265C38.4961 25.3785 38.3761 26.2105 38.3761 27.3225ZM44.1272 30.9105C44.1272 30.5985 44.2072 30.3785 44.3672 30.2505C44.5272 30.1225 44.7192 30.0585 44.9432 30.0585C45.1672 30.0585 45.3592 30.1225 45.5192 30.2505C45.6872 30.3785 45.7712 30.5985 45.7712 30.9105C45.7712 31.2225 45.6872 31.4465 45.5192 31.5825C45.3592 31.7185 45.1672 31.7865 44.9432 31.7865C44.7192 31.7865 44.5272 31.7185 44.3672 31.5825C44.2072 31.4465 44.1272 31.2225 44.1272 30.9105ZM53.1085 29.7225H51.9205V31.6185H50.6845V29.7225H46.7125V28.7145L50.6605 23.0145H51.9205V28.6425H53.1085V29.7225ZM50.6845 28.6425V26.3145C50.6845 25.9385 50.6885 25.5865 50.6965 25.2585C50.7125 24.9225 50.7285 24.6425 50.7445 24.4185H50.6965C50.6325 24.5785 50.5525 24.7425 50.4565 24.9105C50.3605 25.0785 50.2685 25.2265 50.1805 25.3545L47.9125 28.6425H50.6845ZM59.5437 27.3225C59.5437 28.2505 59.4477 29.0425 59.2557 29.6985C59.0637 30.3545 58.7517 30.8585 58.3197 31.2105C57.8957 31.5625 57.3357 31.7385 56.6397 31.7385C55.6557 31.7385 54.9277 31.3505 54.4557 30.5745C53.9917 29.7905 53.7597 28.7065 53.7597 27.3225C53.7597 26.3945 53.8517 25.6025 54.0357 24.9465C54.2277 24.2905 54.5357 23.7905 54.9597 23.4465C55.3837 23.0945 55.9437 22.9185 56.6397 22.9185C57.6157 22.9185 58.3437 23.3065 58.8237 24.0825C59.3037 24.8505 59.5437 25.9305 59.5437 27.3225ZM55.0317 27.3225C55.0317 28.4425 55.1517 29.2825 55.3917 29.8425C55.6317 30.3945 56.0477 30.6705 56.6397 30.6705C57.2237 30.6705 57.6397 30.3945 57.8877 29.8425C58.1357 29.2905 58.2597 28.4505 58.2597 27.3225C58.2597 26.2105 58.1357 25.3785 57.8877 24.8265C57.6397 24.2665 57.2237 23.9865 56.6397 23.9865C56.0477 23.9865 55.6317 24.2665 55.3917 24.8265C55.1517 25.3785 55.0317 26.2105 55.0317 27.3225Z" fill="white"/>
</svg>
