<svg width="100" height="52" viewBox="0 0 100 52" fill="none" xmlns="http://www.w3.org/2000/svg">
<rect width="100" height="41.2371" fill="#F2BC00"/>
<mask id="mask0_122_365" style="mask-type:alpha" maskUnits="userSpaceOnUse" x="0" y="41" width="100" height="11">
<rect width="100" height="10.3093" transform="matrix(1 0 0 -1 0 51.5464)" fill="#C4C4C4"/>
</mask>
<g mask="url(#mask0_122_365)">
<rect width="100" height="10.3093" transform="matrix(1 0 0 -1 0 51.5464)" fill="white"/>
<rect opacity="0.8" width="25" height="10.3093" transform="matrix(1 0 0 -1 0 51.5464)" fill="#F2BC00"/>
<rect opacity="0.6" width="25" height="10.3093" transform="matrix(1 0 0 -1 25 51.5464)" fill="#F2BC00"/>
<rect opacity="0.4" width="25" height="10.3093" transform="matrix(1 0 0 -1 50 51.5464)" fill="#F2BC00"/>
<rect opacity="0.2" width="25" height="10.3093" transform="matrix(1 0 0 -1 75.0002 51.5464)" fill="#F2BC00"/>
</g>
<path d="M13.5618 11.1922L13.2258 12.9442H14.8218V13.8682H13.0458L12.5658 16.3402H11.5818L12.0618 13.8682H10.5138L10.0578 16.3402H9.09783L9.54183 13.8682H8.06583V12.9442H9.72183L10.0698 11.1922H8.50983V10.2682H10.2378L10.7058 7.77221H11.7018L11.2218 10.2682H12.7938L13.2618 7.77221H14.2218L13.7418 10.2682H15.2298V11.1922H13.5618ZM10.6938 12.9442H12.2418L12.5898 11.1922H11.0418L10.6938 12.9442ZM17.8396 16.3402H16.5556V7.77221H21.3796V8.87621H17.8396V11.6722H21.1516V12.7762H17.8396V16.3402ZM27.9475 16.3402H22.1875V15.3562L24.3955 13.1122C24.8275 12.6722 25.1875 12.2922 25.4755 11.9722C25.7635 11.6442 25.9795 11.3322 26.1235 11.0362C26.2675 10.7322 26.3395 10.4042 26.3395 10.0522C26.3395 9.62021 26.2115 9.29221 25.9555 9.06821C25.7075 8.84421 25.3755 8.73221 24.9595 8.73221C24.5675 8.73221 24.2155 8.80421 23.9035 8.94821C23.5915 9.09221 23.2675 9.30021 22.9315 9.57221L22.2475 8.72021C22.5915 8.43221 22.9835 8.18421 23.4235 7.97621C23.8635 7.76021 24.3875 7.65221 24.9955 7.65221C25.8035 7.65221 26.4435 7.86021 26.9155 8.27621C27.3875 8.69221 27.6235 9.24821 27.6235 9.94421C27.6235 10.4002 27.5315 10.8242 27.3475 11.2162C27.1635 11.6082 26.9035 11.9962 26.5675 12.3802C26.2315 12.7642 25.8355 13.1722 25.3795 13.6042L23.7835 15.1522V15.2122H27.9475V16.3402ZM29.5227 7.77221H32.0307C33.1187 7.77221 33.9427 7.93221 34.5027 8.25221C35.0707 8.57221 35.3547 9.12421 35.3547 9.90821C35.3547 10.4042 35.2187 10.8202 34.9467 11.1562C34.6827 11.4922 34.3027 11.7042 33.8067 11.7922V11.8522C34.1427 11.9162 34.4467 12.0242 34.7187 12.1762C34.9987 12.3202 35.2187 12.5322 35.3787 12.8122C35.5387 13.0842 35.6187 13.4442 35.6187 13.8922C35.6187 14.6762 35.3467 15.2802 34.8027 15.7042C34.2587 16.1282 33.5227 16.3402 32.5947 16.3402H29.5227V7.77221ZM30.8187 11.3482H32.2467C32.9187 11.3482 33.3787 11.2402 33.6267 11.0242C33.8827 10.8082 34.0107 10.4882 34.0107 10.0642C34.0107 9.64021 33.8547 9.33621 33.5427 9.15221C33.2387 8.96021 32.7587 8.86421 32.1027 8.86421H30.8187V11.3482ZM30.8187 12.4042V15.2602H32.3907C33.0787 15.2602 33.5587 15.1242 33.8307 14.8522C34.1107 14.5802 34.2507 14.2202 34.2507 13.7722C34.2507 13.3642 34.1067 13.0362 33.8187 12.7882C33.5387 12.5322 33.0347 12.4042 32.3067 12.4042H30.8187ZM40.9377 8.76821C40.0897 8.76821 39.4217 9.06421 38.9337 9.65621C38.4537 10.2402 38.2137 11.0442 38.2137 12.0682C38.2137 13.0842 38.4377 13.8842 38.8857 14.4682C39.3337 15.0522 40.0137 15.3442 40.9257 15.3442C41.2937 15.3442 41.6457 15.3122 41.9817 15.2482C42.3257 15.1762 42.6737 15.0842 43.0257 14.9722V16.0882C42.6897 16.2162 42.3457 16.3082 41.9937 16.3642C41.6417 16.4282 41.2337 16.4602 40.7697 16.4602C39.8897 16.4602 39.1577 16.2802 38.5737 15.9202C37.9977 15.5522 37.5657 15.0402 37.2777 14.3842C36.9977 13.7202 36.8577 12.9442 36.8577 12.0562C36.8577 11.1922 37.0137 10.4322 37.3257 9.77621C37.6457 9.11221 38.1097 8.59221 38.7177 8.21621C39.3257 7.84021 40.0697 7.65221 40.9497 7.65221C41.3817 7.65221 41.8017 7.70021 42.2097 7.79621C42.6257 7.88421 43.0057 8.01221 43.3497 8.18021L42.8697 9.26021C42.5897 9.13221 42.2897 9.02021 41.9697 8.92421C41.6497 8.82021 41.3057 8.76821 40.9377 8.76821ZM49.9354 12.0442C49.9354 12.9722 49.8394 13.7642 49.6474 14.4202C49.4554 15.0762 49.1434 15.5802 48.7114 15.9322C48.2874 16.2842 47.7274 16.4602 47.0314 16.4602C46.0474 16.4602 45.3194 16.0722 44.8474 15.2962C44.3834 14.5122 44.1514 13.4282 44.1514 12.0442C44.1514 11.1162 44.2434 10.3242 44.4274 9.66821C44.6194 9.01221 44.9274 8.51221 45.3514 8.16821C45.7754 7.81621 46.3354 7.64021 47.0314 7.64021C48.0074 7.64021 48.7354 8.02821 49.2154 8.80421C49.6954 9.57221 49.9354 10.6522 49.9354 12.0442ZM45.4234 12.0442C45.4234 13.1642 45.5434 14.0042 45.7834 14.5642C46.0234 15.1162 46.4394 15.3922 47.0314 15.3922C47.6154 15.3922 48.0314 15.1162 48.2794 14.5642C48.5274 14.0122 48.6514 13.1722 48.6514 12.0442C48.6514 10.9322 48.5274 10.1002 48.2794 9.54821C48.0314 8.98821 47.6154 8.70821 47.0314 8.70821C46.4394 8.70821 46.0234 8.98821 45.7834 9.54821C45.5434 10.1002 45.4234 10.9322 45.4234 12.0442ZM56.6826 12.0442C56.6826 12.9722 56.5866 13.7642 56.3946 14.4202C56.2026 15.0762 55.8906 15.5802 55.4586 15.9322C55.0346 16.2842 54.4746 16.4602 53.7786 16.4602C52.7946 16.4602 52.0666 16.0722 51.5946 15.2962C51.1306 14.5122 50.8986 13.4282 50.8986 12.0442C50.8986 11.1162 50.9906 10.3242 51.1746 9.66821C51.3666 9.01221 51.6746 8.51221 52.0986 8.16821C52.5226 7.81621 53.0826 7.64021 53.7786 7.64021C54.7546 7.64021 55.4826 8.02821 55.9626 8.80421C56.4426 9.57221 56.6826 10.6522 56.6826 12.0442ZM52.1706 12.0442C52.1706 13.1642 52.2906 14.0042 52.5306 14.5642C52.7706 15.1162 53.1866 15.3922 53.7786 15.3922C54.3626 15.3922 54.7786 15.1162 55.0266 14.5642C55.2746 14.0122 55.3986 13.1722 55.3986 12.0442C55.3986 10.9322 55.2746 10.1002 55.0266 9.54821C54.7786 8.98821 54.3626 8.70821 53.7786 8.70821C53.1866 8.70821 52.7706 8.98821 52.5306 9.54821C52.2906 10.1002 52.1706 10.9322 52.1706 12.0442Z" fill="white"/>
<path d="M16.324 27.3225C16.324 28.2505 16.228 29.0425 16.036 29.6985C15.844 30.3545 15.532 30.8585 15.1 31.2105C14.676 31.5625 14.116 31.7385 13.42 31.7385C12.436 31.7385 11.708 31.3505 11.236 30.5745C10.772 29.7905 10.54 28.7065 10.54 27.3225C10.54 26.3945 10.632 25.6025 10.816 24.9465C11.008 24.2905 11.316 23.7905 11.74 23.4465C12.164 23.0945 12.724 22.9185 13.42 22.9185C14.396 22.9185 15.124 23.3065 15.604 24.0825C16.084 24.8505 16.324 25.9305 16.324 27.3225ZM11.812 27.3225C11.812 28.4425 11.932 29.2825 12.172 29.8425C12.412 30.3945 12.828 30.6705 13.42 30.6705C14.004 30.6705 14.42 30.3945 14.668 29.8425C14.916 29.2905 15.04 28.4505 15.04 27.3225C15.04 26.2105 14.916 25.3785 14.668 24.8265C14.42 24.2665 14.004 23.9865 13.42 23.9865C12.828 23.9865 12.412 24.2665 12.172 24.8265C11.932 25.3785 11.812 26.2105 11.812 27.3225ZM17.5632 30.9105C17.5632 30.5985 17.6432 30.3785 17.8032 30.2505C17.9632 30.1225 18.1552 30.0585 18.3792 30.0585C18.6032 30.0585 18.7952 30.1225 18.9552 30.2505C19.1232 30.3785 19.2072 30.5985 19.2072 30.9105C19.2072 31.2225 19.1232 31.4465 18.9552 31.5825C18.7952 31.7185 18.6032 31.7865 18.3792 31.7865C18.1552 31.7865 17.9632 31.7185 17.8032 31.5825C17.6432 31.4465 17.5632 31.2225 17.5632 30.9105ZM26.2204 31.6185H20.4604V30.6345L22.6684 28.3905C23.1004 27.9505 23.4604 27.5705 23.7484 27.2505C24.0364 26.9225 24.2524 26.6105 24.3964 26.3145C24.5404 26.0105 24.6124 25.6825 24.6124 25.3305C24.6124 24.8985 24.4844 24.5705 24.2284 24.3465C23.9804 24.1225 23.6484 24.0105 23.2324 24.0105C22.8404 24.0105 22.4884 24.0825 22.1764 24.2265C21.8644 24.3705 21.5404 24.5785 21.2044 24.8505L20.5204 23.9985C20.8644 23.7105 21.2564 23.4625 21.6964 23.2545C22.1364 23.0385 22.6604 22.9305 23.2684 22.9305C24.0764 22.9305 24.7164 23.1385 25.1884 23.5545C25.6604 23.9705 25.8964 24.5265 25.8964 25.2225C25.8964 25.6785 25.8044 26.1025 25.6204 26.4945C25.4364 26.8865 25.1764 27.2745 24.8404 27.6585C24.5044 28.0425 24.1084 28.4505 23.6524 28.8825L22.0564 30.4305V30.4905H26.2204V31.6185ZM32.9796 27.3225C32.9796 28.2505 32.8836 29.0425 32.6916 29.6985C32.4996 30.3545 32.1876 30.8585 31.7556 31.2105C31.3316 31.5625 30.7716 31.7385 30.0756 31.7385C29.0916 31.7385 28.3636 31.3505 27.8916 30.5745C27.4276 29.7905 27.1956 28.7065 27.1956 27.3225C27.1956 26.3945 27.2876 25.6025 27.4716 24.9465C27.6636 24.2905 27.9716 23.7905 28.3956 23.4465C28.8196 23.0945 29.3796 22.9185 30.0756 22.9185C31.0516 22.9185 31.7796 23.3065 32.2596 24.0825C32.7396 24.8505 32.9796 25.9305 32.9796 27.3225ZM28.4676 27.3225C28.4676 28.4425 28.5876 29.2825 28.8276 29.8425C29.0676 30.3945 29.4836 30.6705 30.0756 30.6705C30.6596 30.6705 31.0756 30.3945 31.3236 29.8425C31.5716 29.2905 31.6956 28.4505 31.6956 27.3225C31.6956 26.2105 31.5716 25.3785 31.3236 24.8265C31.0756 24.2665 30.6596 23.9865 30.0756 23.9865C29.4836 23.9865 29.0676 24.2665 28.8276 24.8265C28.5876 25.3785 28.4676 26.2105 28.4676 27.3225ZM34.2188 30.9105C34.2188 30.5985 34.2988 30.3785 34.4588 30.2505C34.6188 30.1225 34.8108 30.0585 35.0348 30.0585C35.2588 30.0585 35.4508 30.1225 35.6108 30.2505C35.7788 30.3785 35.8628 30.5985 35.8628 30.9105C35.8628 31.2225 35.7788 31.4465 35.6108 31.5825C35.4508 31.7185 35.2588 31.7865 35.0348 31.7865C34.8108 31.7865 34.6188 31.7185 34.4588 31.5825C34.2988 31.4465 34.2188 31.2225 34.2188 30.9105ZM41.0281 31.6185H39.7681V25.9305C39.7681 25.6265 39.7721 25.3545 39.7801 25.1145C39.7881 24.8665 39.8001 24.6265 39.8161 24.3945C39.7121 24.5065 39.6041 24.6105 39.4921 24.7065C39.3801 24.8025 39.2521 24.9105 39.1081 25.0305L38.1721 25.7865L37.5241 24.9705L39.9721 23.0505H41.0281V31.6185ZM49.6352 27.3225C49.6352 28.2505 49.5392 29.0425 49.3472 29.6985C49.1552 30.3545 48.8432 30.8585 48.4112 31.2105C47.9872 31.5625 47.4272 31.7385 46.7312 31.7385C45.7472 31.7385 45.0192 31.3505 44.5472 30.5745C44.0832 29.7905 43.8512 28.7065 43.8512 27.3225C43.8512 26.3945 43.9432 25.6025 44.1272 24.9465C44.3192 24.2905 44.6272 23.7905 45.0512 23.4465C45.4752 23.0945 46.0352 22.9185 46.7312 22.9185C47.7072 22.9185 48.4352 23.3065 48.9152 24.0825C49.3952 24.8505 49.6352 25.9305 49.6352 27.3225ZM45.1232 27.3225C45.1232 28.4425 45.2432 29.2825 45.4832 29.8425C45.7232 30.3945 46.1392 30.6705 46.7312 30.6705C47.3152 30.6705 47.7312 30.3945 47.9792 29.8425C48.2272 29.2905 48.3512 28.4505 48.3512 27.3225C48.3512 26.2105 48.2272 25.3785 47.9792 24.8265C47.7312 24.2665 47.3152 23.9865 46.7312 23.9865C46.1392 23.9865 45.7232 24.2665 45.4832 24.8265C45.2432 25.3785 45.1232 26.2105 45.1232 27.3225ZM56.3824 27.3225C56.3824 28.2505 56.2864 29.0425 56.0944 29.6985C55.9024 30.3545 55.5904 30.8585 55.1584 31.2105C54.7344 31.5625 54.1744 31.7385 53.4784 31.7385C52.4944 31.7385 51.7664 31.3505 51.2944 30.5745C50.8304 29.7905 50.5984 28.7065 50.5984 27.3225C50.5984 26.3945 50.6904 25.6025 50.8744 24.9465C51.0664 24.2905 51.3744 23.7905 51.7984 23.4465C52.2224 23.0945 52.7824 22.9185 53.4784 22.9185C54.4544 22.9185 55.1824 23.3065 55.6624 24.0825C56.1424 24.8505 56.3824 25.9305 56.3824 27.3225ZM51.8704 27.3225C51.8704 28.4425 51.9904 29.2825 52.2304 29.8425C52.4704 30.3945 52.8864 30.6705 53.4784 30.6705C54.0624 30.6705 54.4784 30.3945 54.7264 29.8425C54.9744 29.2905 55.0984 28.4505 55.0984 27.3225C55.0984 26.2105 54.9744 25.3785 54.7264 24.8265C54.4784 24.2665 54.0624 23.9865 53.4784 23.9865C52.8864 23.9865 52.4704 24.2665 52.2304 24.8265C51.9904 25.3785 51.8704 26.2105 51.8704 27.3225ZM57.6216 30.9105C57.6216 30.5985 57.7016 30.3785 57.8616 30.2505C58.0216 30.1225 58.2136 30.0585 58.4376 30.0585C58.6616 30.0585 58.8536 30.1225 59.0136 30.2505C59.1816 30.3785 59.2656 30.5985 59.2656 30.9105C59.2656 31.2225 59.1816 31.4465 59.0136 31.5825C58.8536 31.7185 58.6616 31.7865 58.4376 31.7865C58.2136 31.7865 58.0216 31.7185 57.8616 31.5825C57.7016 31.4465 57.6216 31.2225 57.6216 30.9105ZM63.3509 26.3025C64.1989 26.3025 64.8829 26.5225 65.4029 26.9625C65.9229 27.4025 66.1829 28.0305 66.1829 28.8465C66.1829 29.7505 65.8989 30.4585 65.3309 30.9705C64.7629 31.4825 63.9589 31.7385 62.9189 31.7385C62.4709 31.7385 62.0509 31.6985 61.6589 31.6185C61.2749 31.5385 60.9469 31.4225 60.6749 31.2705V30.1065C60.9629 30.2745 61.3109 30.4105 61.7189 30.5145C62.1349 30.6185 62.5309 30.6705 62.9069 30.6705C63.5069 30.6705 63.9869 30.5345 64.3469 30.2625C64.7069 29.9825 64.8869 29.5505 64.8869 28.9665C64.8869 28.4465 64.7229 28.0505 64.3949 27.7785C64.0749 27.4985 63.5669 27.3585 62.8709 27.3585C62.6469 27.3585 62.3949 27.3785 62.1149 27.4185C61.8429 27.4585 61.6229 27.4985 61.4549 27.5385L60.8669 27.1905L61.1909 23.0505H65.5949V24.1785H62.2949L62.1029 26.4225C62.2389 26.3985 62.4109 26.3745 62.6189 26.3505C62.8269 26.3185 63.0709 26.3025 63.3509 26.3025Z" fill="white"/>
</svg>
