<svg width="100" height="52" viewBox="0 0 100 52" fill="none" xmlns="http://www.w3.org/2000/svg">
<rect width="100" height="41.2371" fill="#0075BE"/>
<mask id="mask0_122_360" style="mask-type:alpha" maskUnits="userSpaceOnUse" x="0" y="41" width="100" height="11">
<rect width="100" height="10.3093" transform="matrix(1 0 0 -1 0 51.5463)" fill="#C4C4C4"/>
</mask>
<g mask="url(#mask0_122_360)">
<rect width="100" height="10.3093" transform="matrix(1 0 0 -1 0 51.5463)" fill="white"/>
<rect opacity="0.8" width="25" height="10.3093" transform="matrix(1 0 0 -1 0 51.5463)" fill="#0075BE"/>
<rect opacity="0.6" width="25" height="10.3093" transform="matrix(1 0 0 -1 25 51.5463)" fill="#0075BE"/>
<rect opacity="0.4" width="25" height="10.3093" transform="matrix(1 0 0 -1 50 51.5463)" fill="#0075BE"/>
<rect opacity="0.2" width="25" height="10.3093" transform="matrix(1 0 0 -1 75.0002 51.5463)" fill="#0075BE"/>
</g>
<path d="M13.5618 11.1922L13.2258 12.9442H14.8218V13.8682H13.0458L12.5658 16.3402H11.5818L12.0618 13.8682H10.5138L10.0578 16.3402H9.09783L9.54183 13.8682H8.06583V12.9442H9.72183L10.0698 11.1922H8.50983V10.2682H10.2378L10.7058 7.77221H11.7018L11.2218 10.2682H12.7938L13.2618 7.77221H14.2218L13.7418 10.2682H15.2298V11.1922H13.5618ZM10.6938 12.9442H12.2418L12.5898 11.1922H11.0418L10.6938 12.9442ZM21.7396 12.0442C21.7396 12.9722 21.6436 13.7642 21.4516 14.4202C21.2596 15.0762 20.9476 15.5802 20.5156 15.9322C20.0916 16.2842 19.5316 16.4602 18.8356 16.4602C17.8516 16.4602 17.1236 16.0722 16.6516 15.2962C16.1876 14.5122 15.9556 13.4282 15.9556 12.0442C15.9556 11.1162 16.0476 10.3242 16.2316 9.66821C16.4236 9.01221 16.7316 8.51221 17.1556 8.16821C17.5796 7.81621 18.1396 7.64021 18.8356 7.64021C19.8116 7.64021 20.5396 8.02821 21.0196 8.80421C21.4996 9.57221 21.7396 10.6522 21.7396 12.0442ZM17.2276 12.0442C17.2276 13.1642 17.3476 14.0042 17.5876 14.5642C17.8276 15.1162 18.2436 15.3922 18.8356 15.3922C19.4196 15.3922 19.8356 15.1162 20.0836 14.5642C20.3316 14.0122 20.4556 13.1722 20.4556 12.0442C20.4556 10.9322 20.3316 10.1002 20.0836 9.54821C19.8356 8.98821 19.4196 8.70821 18.8356 8.70821C18.2436 8.70821 17.8276 8.98821 17.5876 9.54821C17.3476 10.1002 17.2276 10.9322 17.2276 12.0442ZM28.4868 12.0442C28.4868 12.9722 28.3908 13.7642 28.1988 14.4202C28.0068 15.0762 27.6948 15.5802 27.2628 15.9322C26.8388 16.2842 26.2788 16.4602 25.5828 16.4602C24.5988 16.4602 23.8708 16.0722 23.3988 15.2962C22.9348 14.5122 22.7028 13.4282 22.7028 12.0442C22.7028 11.1162 22.7948 10.3242 22.9788 9.66821C23.1708 9.01221 23.4788 8.51221 23.9028 8.16821C24.3268 7.81621 24.8868 7.64021 25.5828 7.64021C26.5588 7.64021 27.2868 8.02821 27.7668 8.80421C28.2468 9.57221 28.4868 10.6522 28.4868 12.0442ZM23.9748 12.0442C23.9748 13.1642 24.0948 14.0042 24.3348 14.5642C24.5748 15.1162 24.9908 15.3922 25.5828 15.3922C26.1668 15.3922 26.5828 15.1162 26.8308 14.5642C27.0788 14.0122 27.2028 13.1722 27.2028 12.0442C27.2028 10.9322 27.0788 10.1002 26.8308 9.54821C26.5828 8.98821 26.1668 8.70821 25.5828 8.70821C24.9908 8.70821 24.5748 8.98821 24.3348 9.54821C24.0948 10.1002 23.9748 10.9322 23.9748 12.0442ZM30.458 16.3402L33.878 8.90021H29.378V7.77221H35.246V8.68421L31.838 16.3402H30.458ZM39.0412 11.0242C39.8892 11.0242 40.5732 11.2442 41.0932 11.6842C41.6132 12.1242 41.8732 12.7522 41.8732 13.5682C41.8732 14.4722 41.5892 15.1802 41.0212 15.6922C40.4532 16.2042 39.6492 16.4602 38.6092 16.4602C38.1612 16.4602 37.7412 16.4202 37.3492 16.3402C36.9652 16.2602 36.6372 16.1442 36.3652 15.9922V14.8282C36.6532 14.9962 37.0012 15.1322 37.4092 15.2362C37.8252 15.3402 38.2212 15.3922 38.5972 15.3922C39.1972 15.3922 39.6772 15.2562 40.0372 14.9842C40.3972 14.7042 40.5772 14.2722 40.5772 13.6882C40.5772 13.1682 40.4132 12.7722 40.0852 12.5002C39.7652 12.2202 39.2572 12.0802 38.5612 12.0802C38.3372 12.0802 38.0852 12.1002 37.8052 12.1402C37.5332 12.1802 37.3132 12.2202 37.1452 12.2602L36.5572 11.9122L36.8812 7.77221H41.2852V8.90021H37.9852L37.7932 11.1442C37.9292 11.1202 38.1012 11.0962 38.3092 11.0722C38.5172 11.0402 38.7612 11.0242 39.0412 11.0242ZM43.5444 7.77221H46.0524C47.1404 7.77221 47.9644 7.93221 48.5244 8.25221C49.0924 8.57221 49.3764 9.12421 49.3764 9.90821C49.3764 10.4042 49.2404 10.8202 48.9684 11.1562C48.7044 11.4922 48.3244 11.7042 47.8284 11.7922V11.8522C48.1644 11.9162 48.4684 12.0242 48.7404 12.1762C49.0204 12.3202 49.2404 12.5322 49.4004 12.8122C49.5604 13.0842 49.6404 13.4442 49.6404 13.8922C49.6404 14.6762 49.3684 15.2802 48.8244 15.7042C48.2804 16.1282 47.5444 16.3402 46.6164 16.3402H43.5444V7.77221ZM44.8404 11.3482H46.2684C46.9404 11.3482 47.4004 11.2402 47.6484 11.0242C47.9044 10.8082 48.0324 10.4882 48.0324 10.0642C48.0324 9.64021 47.8764 9.33621 47.5644 9.15221C47.2604 8.96021 46.7804 8.86421 46.1244 8.86421H44.8404V11.3482ZM44.8404 12.4042V15.2602H46.4124C47.1004 15.2602 47.5804 15.1242 47.8524 14.8522C48.1324 14.5802 48.2724 14.2202 48.2724 13.7722C48.2724 13.3642 48.1284 13.0362 47.8404 12.7882C47.5604 12.5322 47.0564 12.4042 46.3284 12.4042H44.8404ZM56.1234 16.3402H51.2994V7.77221H56.1234V8.87621H52.5954V11.3242H55.9074V12.4162H52.5954V15.2242H56.1234V16.3402Z" fill="white"/>
<path d="M16.3 26.7105C16.3 27.1985 16.264 27.6865 16.192 28.1745C16.128 28.6545 16.008 29.1105 15.832 29.5425C15.664 29.9665 15.428 30.3465 15.124 30.6825C14.82 31.0105 14.432 31.2705 13.96 31.4625C13.488 31.6465 12.92 31.7385 12.256 31.7385C12.096 31.7385 11.904 31.7305 11.68 31.7145C11.464 31.6985 11.288 31.6705 11.152 31.6305V30.5625C11.304 30.6105 11.472 30.6465 11.656 30.6705C11.848 30.6945 12.032 30.7065 12.208 30.7065C12.76 30.7065 13.216 30.6265 13.576 30.4665C13.936 30.2985 14.22 30.0665 14.428 29.7705C14.636 29.4745 14.788 29.1345 14.884 28.7505C14.98 28.3585 15.036 27.9385 15.052 27.4905H14.98C14.804 27.7625 14.56 27.9985 14.248 28.1985C13.936 28.3905 13.516 28.4865 12.988 28.4865C12.252 28.4865 11.66 28.2585 11.212 27.8025C10.764 27.3385 10.54 26.6905 10.54 25.8585C10.54 24.9545 10.792 24.2425 11.296 23.7225C11.8 23.2025 12.476 22.9425 13.324 22.9425C13.876 22.9425 14.376 23.0785 14.824 23.3505C15.28 23.6225 15.64 24.0385 15.904 24.5985C16.168 25.1505 16.3 25.8545 16.3 26.7105ZM13.336 23.9865C12.88 23.9865 12.508 24.1385 12.22 24.4425C11.932 24.7465 11.788 25.2105 11.788 25.8345C11.788 26.3465 11.912 26.7505 12.16 27.0465C12.408 27.3425 12.784 27.4905 13.288 27.4905C13.64 27.4905 13.944 27.4185 14.2 27.2745C14.464 27.1305 14.664 26.9465 14.8 26.7225C14.944 26.4985 15.016 26.2665 15.016 26.0265C15.016 25.7065 14.952 25.3905 14.824 25.0785C14.704 24.7665 14.516 24.5065 14.26 24.2985C14.012 24.0905 13.704 23.9865 13.336 23.9865ZM23.0712 27.3225C23.0712 28.2505 22.9752 29.0425 22.7832 29.6985C22.5912 30.3545 22.2792 30.8585 21.8472 31.2105C21.4232 31.5625 20.8632 31.7385 20.1672 31.7385C19.1832 31.7385 18.4552 31.3505 17.9832 30.5745C17.5192 29.7905 17.2872 28.7065 17.2872 27.3225C17.2872 26.3945 17.3792 25.6025 17.5632 24.9465C17.7552 24.2905 18.0632 23.7905 18.4872 23.4465C18.9112 23.0945 19.4712 22.9185 20.1672 22.9185C21.1432 22.9185 21.8712 23.3065 22.3512 24.0825C22.8312 24.8505 23.0712 25.9305 23.0712 27.3225ZM18.5592 27.3225C18.5592 28.4425 18.6792 29.2825 18.9192 29.8425C19.1592 30.3945 19.5752 30.6705 20.1672 30.6705C20.7512 30.6705 21.1672 30.3945 21.4152 29.8425C21.6632 29.2905 21.7872 28.4505 21.7872 27.3225C21.7872 26.2105 21.6632 25.3785 21.4152 24.8265C21.1672 24.2665 20.7512 23.9865 20.1672 23.9865C19.5752 23.9865 19.1592 24.2665 18.9192 24.8265C18.6792 25.3785 18.5592 26.2105 18.5592 27.3225ZM24.3104 30.9105C24.3104 30.5985 24.3904 30.3785 24.5504 30.2505C24.7104 30.1225 24.9024 30.0585 25.1264 30.0585C25.3504 30.0585 25.5424 30.1225 25.7024 30.2505C25.8704 30.3785 25.9544 30.5985 25.9544 30.9105C25.9544 31.2225 25.8704 31.4465 25.7024 31.5825C25.5424 31.7185 25.3504 31.7865 25.1264 31.7865C24.9024 31.7865 24.7104 31.7185 24.5504 31.5825C24.3904 31.4465 24.3104 31.2225 24.3104 30.9105ZM30.0396 26.3025C30.8876 26.3025 31.5716 26.5225 32.0916 26.9625C32.6116 27.4025 32.8716 28.0305 32.8716 28.8465C32.8716 29.7505 32.5876 30.4585 32.0196 30.9705C31.4516 31.4825 30.6476 31.7385 29.6076 31.7385C29.1596 31.7385 28.7396 31.6985 28.3476 31.6185C27.9636 31.5385 27.6356 31.4225 27.3636 31.2705V30.1065C27.6516 30.2745 27.9996 30.4105 28.4076 30.5145C28.8236 30.6185 29.2196 30.6705 29.5956 30.6705C30.1956 30.6705 30.6756 30.5345 31.0356 30.2625C31.3956 29.9825 31.5756 29.5505 31.5756 28.9665C31.5756 28.4465 31.4116 28.0505 31.0836 27.7785C30.7636 27.4985 30.2556 27.3585 29.5596 27.3585C29.3356 27.3585 29.0836 27.3785 28.8036 27.4185C28.5316 27.4585 28.3116 27.4985 28.1436 27.5385L27.5556 27.1905L27.8796 23.0505H32.2836V24.1785H28.9836L28.7916 26.4225C28.9276 26.3985 29.0996 26.3745 29.3076 26.3505C29.5156 26.3185 29.7596 26.3025 30.0396 26.3025ZM39.7268 27.3225C39.7268 28.2505 39.6308 29.0425 39.4388 29.6985C39.2468 30.3545 38.9348 30.8585 38.5028 31.2105C38.0788 31.5625 37.5188 31.7385 36.8228 31.7385C35.8388 31.7385 35.1108 31.3505 34.6388 30.5745C34.1748 29.7905 33.9428 28.7065 33.9428 27.3225C33.9428 26.3945 34.0348 25.6025 34.2188 24.9465C34.4108 24.2905 34.7188 23.7905 35.1428 23.4465C35.5668 23.0945 36.1268 22.9185 36.8228 22.9185C37.7988 22.9185 38.5268 23.3065 39.0068 24.0825C39.4868 24.8505 39.7268 25.9305 39.7268 27.3225ZM35.2148 27.3225C35.2148 28.4425 35.3348 29.2825 35.5748 29.8425C35.8148 30.3945 36.2308 30.6705 36.8228 30.6705C37.4068 30.6705 37.8228 30.3945 38.0708 29.8425C38.3188 29.2905 38.4428 28.4505 38.4428 27.3225C38.4428 26.2105 38.3188 25.3785 38.0708 24.8265C37.8228 24.2665 37.4068 23.9865 36.8228 23.9865C36.2308 23.9865 35.8148 24.2665 35.5748 24.8265C35.3348 25.3785 35.2148 26.2105 35.2148 27.3225ZM40.966 30.9105C40.966 30.5985 41.046 30.3785 41.206 30.2505C41.366 30.1225 41.558 30.0585 41.782 30.0585C42.006 30.0585 42.198 30.1225 42.358 30.2505C42.526 30.3785 42.61 30.5985 42.61 30.9105C42.61 31.2225 42.526 31.4465 42.358 31.5825C42.198 31.7185 42.006 31.7865 41.782 31.7865C41.558 31.7865 41.366 31.7185 41.206 31.5825C41.046 31.4465 40.966 31.2225 40.966 30.9105ZM49.6352 27.3225C49.6352 28.2505 49.5392 29.0425 49.3472 29.6985C49.1552 30.3545 48.8432 30.8585 48.4112 31.2105C47.9872 31.5625 47.4272 31.7385 46.7312 31.7385C45.7472 31.7385 45.0192 31.3505 44.5472 30.5745C44.0832 29.7905 43.8512 28.7065 43.8512 27.3225C43.8512 26.3945 43.9432 25.6025 44.1272 24.9465C44.3192 24.2905 44.6272 23.7905 45.0512 23.4465C45.4752 23.0945 46.0352 22.9185 46.7312 22.9185C47.7072 22.9185 48.4352 23.3065 48.9152 24.0825C49.3952 24.8505 49.6352 25.9305 49.6352 27.3225ZM45.1232 27.3225C45.1232 28.4425 45.2432 29.2825 45.4832 29.8425C45.7232 30.3945 46.1392 30.6705 46.7312 30.6705C47.3152 30.6705 47.7312 30.3945 47.9792 29.8425C48.2272 29.2905 48.3512 28.4505 48.3512 27.3225C48.3512 26.2105 48.2272 25.3785 47.9792 24.8265C47.7312 24.2665 47.3152 23.9865 46.7312 23.9865C46.1392 23.9865 45.7232 24.2665 45.4832 24.8265C45.2432 25.3785 45.1232 26.2105 45.1232 27.3225ZM50.8744 30.9105C50.8744 30.5985 50.9544 30.3785 51.1144 30.2505C51.2744 30.1225 51.4664 30.0585 51.6904 30.0585C51.9144 30.0585 52.1064 30.1225 52.2664 30.2505C52.4344 30.3785 52.5184 30.5985 52.5184 30.9105C52.5184 31.2225 52.4344 31.4465 52.2664 31.5825C52.1064 31.7185 51.9144 31.7865 51.6904 31.7865C51.4664 31.7865 51.2744 31.7185 51.1144 31.5825C50.9544 31.4465 50.8744 31.2225 50.8744 30.9105ZM59.5437 27.3225C59.5437 28.2505 59.4477 29.0425 59.2557 29.6985C59.0637 30.3545 58.7517 30.8585 58.3197 31.2105C57.8957 31.5625 57.3357 31.7385 56.6397 31.7385C55.6557 31.7385 54.9277 31.3505 54.4557 30.5745C53.9917 29.7905 53.7597 28.7065 53.7597 27.3225C53.7597 26.3945 53.8517 25.6025 54.0357 24.9465C54.2277 24.2905 54.5357 23.7905 54.9597 23.4465C55.3837 23.0945 55.9437 22.9185 56.6397 22.9185C57.6157 22.9185 58.3437 23.3065 58.8237 24.0825C59.3037 24.8505 59.5437 25.9305 59.5437 27.3225ZM55.0317 27.3225C55.0317 28.4425 55.1517 29.2825 55.3917 29.8425C55.6317 30.3945 56.0477 30.6705 56.6397 30.6705C57.2237 30.6705 57.6397 30.3945 57.8877 29.8425C58.1357 29.2905 58.2597 28.4505 58.2597 27.3225C58.2597 26.2105 58.1357 25.3785 57.8877 24.8265C57.6397 24.2665 57.2237 23.9865 56.6397 23.9865C56.0477 23.9865 55.6317 24.2665 55.3917 24.8265C55.1517 25.3785 55.0317 26.2105 55.0317 27.3225Z" fill="white"/>
</svg>
