<svg width="100" height="52" viewBox="0 0 100 52" fill="none" xmlns="http://www.w3.org/2000/svg">
<rect width="100" height="41.2371" fill="#00AFEC"/>
<mask id="mask0_122_361" style="mask-type:alpha" maskUnits="userSpaceOnUse" x="0" y="41" width="100" height="11">
<rect width="100" height="10.3093" transform="matrix(1 0 0 -1 0 51.5464)" fill="#C4C4C4"/>
</mask>
<g mask="url(#mask0_122_361)">
<rect width="100" height="10.3093" transform="matrix(1 0 0 -1 0 51.5464)" fill="white"/>
<rect opacity="0.8" width="25" height="10.3093" transform="matrix(1 0 0 -1 0 51.5464)" fill="#00AFEC"/>
<rect opacity="0.6" width="25" height="10.3093" transform="matrix(1 0 0 -1 25 51.5464)" fill="#00AFEC"/>
<rect opacity="0.4" width="25" height="10.3093" transform="matrix(1 0 0 -1 50 51.5464)" fill="#00AFEC"/>
<rect opacity="0.2" width="25" height="10.3093" transform="matrix(1 0 0 -1 75.0002 51.5464)" fill="#00AFEC"/>
</g>
<path d="M13.5618 11.1922L13.2258 12.9442H14.8218V13.8682H13.0458L12.5658 16.3402H11.5818L12.0618 13.8682H10.5138L10.0578 16.3402H9.09783L9.54183 13.8682H8.06583V12.9442H9.72183L10.0698 11.1922H8.50983V10.2682H10.2378L10.7058 7.77221H11.7018L11.2218 10.2682H12.7938L13.2618 7.77221H14.2218L13.7418 10.2682H15.2298V11.1922H13.5618ZM10.6938 12.9442H12.2418L12.5898 11.1922H11.0418L10.6938 12.9442ZM21.7396 12.0442C21.7396 12.9722 21.6436 13.7642 21.4516 14.4202C21.2596 15.0762 20.9476 15.5802 20.5156 15.9322C20.0916 16.2842 19.5316 16.4602 18.8356 16.4602C17.8516 16.4602 17.1236 16.0722 16.6516 15.2962C16.1876 14.5122 15.9556 13.4282 15.9556 12.0442C15.9556 11.1162 16.0476 10.3242 16.2316 9.66821C16.4236 9.01221 16.7316 8.51221 17.1556 8.16821C17.5796 7.81621 18.1396 7.64021 18.8356 7.64021C19.8116 7.64021 20.5396 8.02821 21.0196 8.80421C21.4996 9.57221 21.7396 10.6522 21.7396 12.0442ZM17.2276 12.0442C17.2276 13.1642 17.3476 14.0042 17.5876 14.5642C17.8276 15.1162 18.2436 15.3922 18.8356 15.3922C19.4196 15.3922 19.8356 15.1162 20.0836 14.5642C20.3316 14.0122 20.4556 13.1722 20.4556 12.0442C20.4556 10.9322 20.3316 10.1002 20.0836 9.54821C19.8356 8.98821 19.4196 8.70821 18.8356 8.70821C18.2436 8.70821 17.8276 8.98821 17.5876 9.54821C17.3476 10.1002 17.2276 10.9322 17.2276 12.0442ZM28.4868 12.0442C28.4868 12.9722 28.3908 13.7642 28.1988 14.4202C28.0068 15.0762 27.6948 15.5802 27.2628 15.9322C26.8388 16.2842 26.2788 16.4602 25.5828 16.4602C24.5988 16.4602 23.8708 16.0722 23.3988 15.2962C22.9348 14.5122 22.7028 13.4282 22.7028 12.0442C22.7028 11.1162 22.7948 10.3242 22.9788 9.66821C23.1708 9.01221 23.4788 8.51221 23.9028 8.16821C24.3268 7.81621 24.8868 7.64021 25.5828 7.64021C26.5588 7.64021 27.2868 8.02821 27.7668 8.80421C28.2468 9.57221 28.4868 10.6522 28.4868 12.0442ZM23.9748 12.0442C23.9748 13.1642 24.0948 14.0042 24.3348 14.5642C24.5748 15.1162 24.9908 15.3922 25.5828 15.3922C26.1668 15.3922 26.5828 15.1162 26.8308 14.5642C27.0788 14.0122 27.2028 13.1722 27.2028 12.0442C27.2028 10.9322 27.0788 10.1002 26.8308 9.54821C26.5828 8.98821 26.1668 8.70821 25.5828 8.70821C24.9908 8.70821 24.5748 8.98821 24.3348 9.54821C24.0948 10.1002 23.9748 10.9322 23.9748 12.0442ZM35.39 16.3402L34.478 13.8682H31.166L30.254 16.3402H28.91L32.162 7.73621H33.506L36.746 16.3402H35.39ZM34.118 12.7402L33.254 10.3282C33.222 10.2402 33.178 10.1082 33.122 9.93221C33.066 9.75621 33.01 9.57221 32.954 9.38021C32.898 9.18821 32.854 9.03221 32.822 8.91221C32.758 9.16021 32.686 9.42421 32.606 9.70421C32.526 9.98421 32.462 10.1922 32.414 10.3282L31.55 12.7402H34.118ZM39.0656 16.3402H37.7816V7.77221H42.6056V8.87621H39.0656V11.6722H42.3776V12.7762H39.0656V16.3402ZM48.8254 16.3402H44.0014V7.77221H48.8254V8.87621H45.2974V11.3242H48.6094V12.4162H45.2974V15.2242H48.8254V16.3402ZM54.2211 8.76821C53.3731 8.76821 52.7051 9.06421 52.2171 9.65621C51.7371 10.2402 51.4971 11.0442 51.4971 12.0682C51.4971 13.0842 51.7211 13.8842 52.1691 14.4682C52.6171 15.0522 53.2971 15.3442 54.2091 15.3442C54.5771 15.3442 54.9291 15.3122 55.2651 15.2482C55.6091 15.1762 55.9571 15.0842 56.3091 14.9722V16.0882C55.9731 16.2162 55.6291 16.3082 55.2771 16.3642C54.9251 16.4282 54.5171 16.4602 54.0531 16.4602C53.1731 16.4602 52.4411 16.2802 51.8571 15.9202C51.2811 15.5522 50.8491 15.0402 50.5611 14.3842C50.2811 13.7202 50.1411 12.9442 50.1411 12.0562C50.1411 11.1922 50.2971 10.4322 50.6091 9.77621C50.9291 9.11221 51.3931 8.59221 52.0011 8.21621C52.6091 7.84021 53.3531 7.65221 54.2331 7.65221C54.6651 7.65221 55.0851 7.70021 55.4931 7.79621C55.9091 7.88421 56.2891 8.01221 56.6331 8.18021L56.1531 9.26021C55.8731 9.13221 55.5731 9.02021 55.2531 8.92421C54.9331 8.82021 54.5891 8.76821 54.2211 8.76821Z" fill="white"/>
<path d="M13.42 22.9305C13.924 22.9305 14.372 23.0105 14.764 23.1705C15.156 23.3225 15.464 23.5545 15.688 23.8665C15.92 24.1705 16.036 24.5465 16.036 24.9945C16.036 25.5065 15.88 25.9265 15.568 26.2545C15.256 26.5825 14.88 26.8585 14.44 27.0825C14.776 27.2505 15.084 27.4425 15.364 27.6585C15.652 27.8665 15.88 28.1145 16.048 28.4025C16.224 28.6825 16.312 29.0145 16.312 29.3985C16.312 29.8785 16.192 30.2945 15.952 30.6465C15.712 30.9905 15.376 31.2585 14.944 31.4505C14.52 31.6425 14.02 31.7385 13.444 31.7385C12.516 31.7385 11.8 31.5385 11.296 31.1385C10.792 30.7305 10.54 30.1625 10.54 29.4345C10.54 29.0505 10.62 28.7145 10.78 28.4265C10.94 28.1305 11.152 27.8785 11.416 27.6705C11.68 27.4625 11.968 27.2865 12.28 27.1425C11.864 26.9025 11.516 26.6145 11.236 26.2785C10.956 25.9345 10.816 25.5025 10.816 24.9825C10.816 24.5425 10.932 24.1705 11.164 23.8665C11.396 23.5545 11.708 23.3225 12.1 23.1705C12.492 23.0105 12.932 22.9305 13.42 22.9305ZM13.408 23.9265C13.008 23.9265 12.68 24.0265 12.424 24.2265C12.168 24.4185 12.04 24.6945 12.04 25.0545C12.04 25.4545 12.176 25.7665 12.448 25.9905C12.728 26.2065 13.064 26.4025 13.456 26.5785C13.824 26.4185 14.14 26.2225 14.404 25.9905C14.668 25.7585 14.8 25.4465 14.8 25.0545C14.8 24.6945 14.672 24.4185 14.416 24.2265C14.16 24.0265 13.824 23.9265 13.408 23.9265ZM11.764 29.4105C11.764 29.7945 11.9 30.1145 12.172 30.3705C12.444 30.6265 12.86 30.7545 13.42 30.7545C13.964 30.7545 14.376 30.6305 14.656 30.3825C14.944 30.1265 15.088 29.7985 15.088 29.3985C15.088 29.0065 14.932 28.6825 14.62 28.4265C14.308 28.1705 13.92 27.9425 13.456 27.7425L13.276 27.6705C12.788 27.8785 12.412 28.1225 12.148 28.4025C11.892 28.6745 11.764 29.0105 11.764 29.4105ZM23.0712 27.3225C23.0712 28.2505 22.9752 29.0425 22.7832 29.6985C22.5912 30.3545 22.2792 30.8585 21.8472 31.2105C21.4232 31.5625 20.8632 31.7385 20.1672 31.7385C19.1832 31.7385 18.4552 31.3505 17.9832 30.5745C17.5192 29.7905 17.2872 28.7065 17.2872 27.3225C17.2872 26.3945 17.3792 25.6025 17.5632 24.9465C17.7552 24.2905 18.0632 23.7905 18.4872 23.4465C18.9112 23.0945 19.4712 22.9185 20.1672 22.9185C21.1432 22.9185 21.8712 23.3065 22.3512 24.0825C22.8312 24.8505 23.0712 25.9305 23.0712 27.3225ZM18.5592 27.3225C18.5592 28.4425 18.6792 29.2825 18.9192 29.8425C19.1592 30.3945 19.5752 30.6705 20.1672 30.6705C20.7512 30.6705 21.1672 30.3945 21.4152 29.8425C21.6632 29.2905 21.7872 28.4505 21.7872 27.3225C21.7872 26.2105 21.6632 25.3785 21.4152 24.8265C21.1672 24.2665 20.7512 23.9865 20.1672 23.9865C19.5752 23.9865 19.1592 24.2665 18.9192 24.8265C18.6792 25.3785 18.5592 26.2105 18.5592 27.3225ZM24.3104 30.9105C24.3104 30.5985 24.3904 30.3785 24.5504 30.2505C24.7104 30.1225 24.9024 30.0585 25.1264 30.0585C25.3504 30.0585 25.5424 30.1225 25.7024 30.2505C25.8704 30.3785 25.9544 30.5985 25.9544 30.9105C25.9544 31.2225 25.8704 31.4465 25.7024 31.5825C25.5424 31.7185 25.3504 31.7865 25.1264 31.7865C24.9024 31.7865 24.7104 31.7185 24.5504 31.5825C24.3904 31.4465 24.3104 31.2225 24.3104 30.9105ZM32.9796 27.3225C32.9796 28.2505 32.8836 29.0425 32.6916 29.6985C32.4996 30.3545 32.1876 30.8585 31.7556 31.2105C31.3316 31.5625 30.7716 31.7385 30.0756 31.7385C29.0916 31.7385 28.3636 31.3505 27.8916 30.5745C27.4276 29.7905 27.1956 28.7065 27.1956 27.3225C27.1956 26.3945 27.2876 25.6025 27.4716 24.9465C27.6636 24.2905 27.9716 23.7905 28.3956 23.4465C28.8196 23.0945 29.3796 22.9185 30.0756 22.9185C31.0516 22.9185 31.7796 23.3065 32.2596 24.0825C32.7396 24.8505 32.9796 25.9305 32.9796 27.3225ZM28.4676 27.3225C28.4676 28.4425 28.5876 29.2825 28.8276 29.8425C29.0676 30.3945 29.4836 30.6705 30.0756 30.6705C30.6596 30.6705 31.0756 30.3945 31.3236 29.8425C31.5716 29.2905 31.6956 28.4505 31.6956 27.3225C31.6956 26.2105 31.5716 25.3785 31.3236 24.8265C31.0756 24.2665 30.6596 23.9865 30.0756 23.9865C29.4836 23.9865 29.0676 24.2665 28.8276 24.8265C28.5876 25.3785 28.4676 26.2105 28.4676 27.3225ZM34.2188 30.9105C34.2188 30.5985 34.2988 30.3785 34.4588 30.2505C34.6188 30.1225 34.8108 30.0585 35.0348 30.0585C35.2588 30.0585 35.4508 30.1225 35.6108 30.2505C35.7788 30.3785 35.8628 30.5985 35.8628 30.9105C35.8628 31.2225 35.7788 31.4465 35.6108 31.5825C35.4508 31.7185 35.2588 31.7865 35.0348 31.7865C34.8108 31.7865 34.6188 31.7185 34.4588 31.5825C34.2988 31.4465 34.2188 31.2225 34.2188 30.9105ZM42.8881 27.3225C42.8881 28.2505 42.7921 29.0425 42.6001 29.6985C42.4081 30.3545 42.0961 30.8585 41.6641 31.2105C41.2401 31.5625 40.6801 31.7385 39.9841 31.7385C39.0001 31.7385 38.2721 31.3505 37.8001 30.5745C37.3361 29.7905 37.1041 28.7065 37.1041 27.3225C37.1041 26.3945 37.1961 25.6025 37.3801 24.9465C37.5721 24.2905 37.8801 23.7905 38.3041 23.4465C38.7281 23.0945 39.2881 22.9185 39.9841 22.9185C40.9601 22.9185 41.6881 23.3065 42.1681 24.0825C42.6481 24.8505 42.8881 25.9305 42.8881 27.3225ZM38.3761 27.3225C38.3761 28.4425 38.4961 29.2825 38.7361 29.8425C38.9761 30.3945 39.3921 30.6705 39.9841 30.6705C40.5681 30.6705 40.9841 30.3945 41.2321 29.8425C41.4801 29.2905 41.6041 28.4505 41.6041 27.3225C41.6041 26.2105 41.4801 25.3785 41.2321 24.8265C40.9841 24.2665 40.5681 23.9865 39.9841 23.9865C39.3921 23.9865 38.9761 24.2665 38.7361 24.8265C38.4961 25.3785 38.3761 26.2105 38.3761 27.3225ZM44.1272 30.9105C44.1272 30.5985 44.2072 30.3785 44.3672 30.2505C44.5272 30.1225 44.7192 30.0585 44.9432 30.0585C45.1672 30.0585 45.3592 30.1225 45.5192 30.2505C45.6872 30.3785 45.7712 30.5985 45.7712 30.9105C45.7712 31.2225 45.6872 31.4465 45.5192 31.5825C45.3592 31.7185 45.1672 31.7865 44.9432 31.7865C44.7192 31.7865 44.5272 31.7185 44.3672 31.5825C44.2072 31.4465 44.1272 31.2225 44.1272 30.9105ZM52.7965 27.3225C52.7965 28.2505 52.7005 29.0425 52.5085 29.6985C52.3165 30.3545 52.0045 30.8585 51.5725 31.2105C51.1485 31.5625 50.5885 31.7385 49.8925 31.7385C48.9085 31.7385 48.1805 31.3505 47.7085 30.5745C47.2445 29.7905 47.0125 28.7065 47.0125 27.3225C47.0125 26.3945 47.1045 25.6025 47.2885 24.9465C47.4805 24.2905 47.7885 23.7905 48.2125 23.4465C48.6365 23.0945 49.1965 22.9185 49.8925 22.9185C50.8685 22.9185 51.5965 23.3065 52.0765 24.0825C52.5565 24.8505 52.7965 25.9305 52.7965 27.3225ZM48.2845 27.3225C48.2845 28.4425 48.4045 29.2825 48.6445 29.8425C48.8845 30.3945 49.3005 30.6705 49.8925 30.6705C50.4765 30.6705 50.8925 30.3945 51.1405 29.8425C51.3885 29.2905 51.5125 28.4505 51.5125 27.3225C51.5125 26.2105 51.3885 25.3785 51.1405 24.8265C50.8925 24.2665 50.4765 23.9865 49.8925 23.9865C49.3005 23.9865 48.8845 24.2665 48.6445 24.8265C48.4045 25.3785 48.2845 26.2105 48.2845 27.3225ZM54.0357 30.9105C54.0357 30.5985 54.1157 30.3785 54.2757 30.2505C54.4357 30.1225 54.6277 30.0585 54.8517 30.0585C55.0757 30.0585 55.2677 30.1225 55.4277 30.2505C55.5957 30.3785 55.6797 30.5985 55.6797 30.9105C55.6797 31.2225 55.5957 31.4465 55.4277 31.5825C55.2677 31.7185 55.0757 31.7865 54.8517 31.7865C54.6277 31.7865 54.4357 31.7185 54.2757 31.5825C54.1157 31.4465 54.0357 31.2225 54.0357 30.9105Z" fill="white"/>
</svg>
