<svg width="100" height="52" viewBox="0 0 100 52" fill="none" xmlns="http://www.w3.org/2000/svg">
<rect width="100" height="41.2371" fill="#D1B158"/>
<mask id="mask0_122_364" style="mask-type:alpha" maskUnits="userSpaceOnUse" x="0" y="41" width="100" height="11">
<rect width="100" height="10.3093" transform="matrix(1 0 0 -1 0 51.5464)" fill="#C4C4C4"/>
</mask>
<g mask="url(#mask0_122_364)">
<rect width="100" height="10.3093" transform="matrix(1 0 0 -1 0 51.5464)" fill="white"/>
<rect opacity="0.8" width="25" height="10.3093" transform="matrix(1 0 0 -1 0 51.5464)" fill="#D1B158"/>
<rect opacity="0.6" width="25" height="10.3093" transform="matrix(1 0 0 -1 25 51.5464)" fill="#D1B158"/>
<rect opacity="0.4" width="25" height="10.3093" transform="matrix(1 0 0 -1 50 51.5464)" fill="#D1B158"/>
<rect opacity="0.2" width="25" height="10.3093" transform="matrix(1 0 0 -1 75.0002 51.5464)" fill="#D1B158"/>
</g>
<path d="M12.5618 11.1922L12.2258 12.9442H13.8218V13.8682H12.0458L11.5658 16.3402H10.5818L11.0618 13.8682H9.51383L9.05783 16.3402H8.09783L8.54183 13.8682H7.06583V12.9442H8.72183L9.06983 11.1922H7.50983V10.2682H9.23783L9.70583 7.77221H10.7018L10.2218 10.2682H11.7938L12.2618 7.77221H13.2218L12.7418 10.2682H14.2298V11.1922H12.5618ZM9.69383 12.9442H11.2418L11.5898 11.1922H10.0418L9.69383 12.9442ZM22.4916 11.9722C22.4916 13.4202 22.0916 14.5122 21.2916 15.2482C20.4996 15.9762 19.3876 16.3402 17.9556 16.3402H15.5556V7.77221H18.2076C19.0796 7.77221 19.8356 7.93221 20.4756 8.25221C21.1156 8.57221 21.6116 9.04421 21.9636 9.66821C22.3156 10.2922 22.4916 11.0602 22.4916 11.9722ZM21.1356 12.0082C21.1356 10.9282 20.8756 10.1362 20.3556 9.63221C19.8356 9.12021 19.0916 8.86421 18.1236 8.86421H16.8516V15.2482H17.8956C20.0556 15.2482 21.1356 14.1682 21.1356 12.0082ZM27.5604 16.3402H26.3004V10.6522C26.3004 10.3482 26.3044 10.0762 26.3124 9.83621C26.3204 9.58821 26.3324 9.34821 26.3484 9.11621C26.2444 9.22821 26.1364 9.33221 26.0244 9.42821C25.9124 9.52421 25.7844 9.63221 25.6404 9.75221L24.7044 10.5082L24.0564 9.69221L26.5044 7.77221H27.5604V16.3402ZM30.9836 7.77221H33.4916C34.5796 7.77221 35.4036 7.93221 35.9636 8.25221C36.5316 8.57221 36.8156 9.12421 36.8156 9.90821C36.8156 10.4042 36.6796 10.8202 36.4076 11.1562C36.1436 11.4922 35.7636 11.7042 35.2676 11.7922V11.8522C35.6036 11.9162 35.9076 12.0242 36.1796 12.1762C36.4596 12.3202 36.6796 12.5322 36.8396 12.8122C36.9996 13.0842 37.0796 13.4442 37.0796 13.8922C37.0796 14.6762 36.8076 15.2802 36.2636 15.7042C35.7196 16.1282 34.9836 16.3402 34.0556 16.3402H30.9836V7.77221ZM32.2796 11.3482H33.7076C34.3796 11.3482 34.8396 11.2402 35.0876 11.0242C35.3436 10.8082 35.4716 10.4882 35.4716 10.0642C35.4716 9.64021 35.3156 9.33621 35.0036 9.15221C34.6996 8.96021 34.2196 8.86421 33.5636 8.86421H32.2796V11.3482ZM32.2796 12.4042V15.2602H33.8516C34.5396 15.2602 35.0196 15.1242 35.2916 14.8522C35.5716 14.5802 35.7116 14.2202 35.7116 13.7722C35.7116 13.3642 35.5676 13.0362 35.2796 12.7882C34.9996 12.5322 34.4956 12.4042 33.7676 12.4042H32.2796ZM42.0626 16.3402H40.8026V10.6522C40.8026 10.3482 40.8066 10.0762 40.8146 9.83621C40.8226 9.58821 40.8346 9.34821 40.8506 9.11621C40.7466 9.22821 40.6386 9.33221 40.5266 9.42821C40.4146 9.52421 40.2866 9.63221 40.1426 9.75221L39.2066 10.5082L38.5586 9.69221L41.0066 7.77221H42.0626V16.3402ZM47.7298 11.0242C48.5778 11.0242 49.2618 11.2442 49.7818 11.6842C50.3018 12.1242 50.5618 12.7522 50.5618 13.5682C50.5618 14.4722 50.2778 15.1802 49.7098 15.6922C49.1418 16.2042 48.3378 16.4602 47.2978 16.4602C46.8498 16.4602 46.4298 16.4202 46.0378 16.3402C45.6538 16.2602 45.3258 16.1442 45.0538 15.9922V14.8282C45.3418 14.9962 45.6898 15.1322 46.0978 15.2362C46.5138 15.3402 46.9098 15.3922 47.2858 15.3922C47.8858 15.3922 48.3658 15.2562 48.7258 14.9842C49.0858 14.7042 49.2658 14.2722 49.2658 13.6882C49.2658 13.1682 49.1018 12.7722 48.7738 12.5002C48.4538 12.2202 47.9458 12.0802 47.2498 12.0802C47.0258 12.0802 46.7738 12.1002 46.4938 12.1402C46.2218 12.1802 46.0018 12.2202 45.8338 12.2602L45.2458 11.9122L45.5698 7.77221H49.9738V8.90021H46.6738L46.4818 11.1442C46.6178 11.1202 46.7898 11.0962 46.9978 11.0722C47.2058 11.0402 47.4498 11.0242 47.7298 11.0242ZM54.513 7.65221C55.017 7.65221 55.465 7.73221 55.857 7.89221C56.249 8.04421 56.557 8.27621 56.781 8.58821C57.013 8.89221 57.129 9.26821 57.129 9.71621C57.129 10.2282 56.973 10.6482 56.661 10.9762C56.349 11.3042 55.973 11.5802 55.533 11.8042C55.869 11.9722 56.177 12.1642 56.457 12.3802C56.745 12.5882 56.973 12.8362 57.141 13.1242C57.317 13.4042 57.405 13.7362 57.405 14.1202C57.405 14.6002 57.285 15.0162 57.045 15.3682C56.805 15.7122 56.469 15.9802 56.037 16.1722C55.613 16.3642 55.113 16.4602 54.537 16.4602C53.609 16.4602 52.893 16.2602 52.389 15.8602C51.885 15.4522 51.633 14.8842 51.633 14.1562C51.633 13.7722 51.713 13.4362 51.873 13.1482C52.033 12.8522 52.245 12.6002 52.509 12.3922C52.773 12.1842 53.061 12.0082 53.373 11.8642C52.957 11.6242 52.609 11.3362 52.329 11.0002C52.049 10.6562 51.909 10.2242 51.909 9.70421C51.909 9.26421 52.025 8.89221 52.257 8.58821C52.489 8.27621 52.801 8.04421 53.193 7.89221C53.585 7.73221 54.025 7.65221 54.513 7.65221ZM54.501 8.64821C54.101 8.64821 53.773 8.74821 53.517 8.94821C53.261 9.14021 53.133 9.41621 53.133 9.77621C53.133 10.1762 53.269 10.4882 53.541 10.7122C53.821 10.9282 54.157 11.1242 54.549 11.3002C54.917 11.1402 55.233 10.9442 55.497 10.7122C55.761 10.4802 55.893 10.1682 55.893 9.77621C55.893 9.41621 55.765 9.14021 55.509 8.94821C55.253 8.74821 54.917 8.64821 54.501 8.64821ZM52.857 14.1322C52.857 14.5162 52.993 14.8362 53.265 15.0922C53.537 15.3482 53.953 15.4762 54.513 15.4762C55.057 15.4762 55.469 15.3522 55.749 15.1042C56.037 14.8482 56.181 14.5202 56.181 14.1202C56.181 13.7282 56.025 13.4042 55.713 13.1482C55.401 12.8922 55.013 12.6642 54.549 12.4642L54.369 12.3922C53.881 12.6002 53.505 12.8442 53.241 13.1242C52.985 13.3962 52.857 13.7322 52.857 14.1322Z" fill="white"/>
<path d="M11.548 31.6185L14.968 24.1785H10.468V23.0505H16.336V23.9625L12.928 31.6185H11.548ZM17.5632 30.9105C17.5632 30.5985 17.6432 30.3785 17.8032 30.2505C17.9632 30.1225 18.1552 30.0585 18.3792 30.0585C18.6032 30.0585 18.7952 30.1225 18.9552 30.2505C19.1232 30.3785 19.2072 30.5985 19.2072 30.9105C19.2072 31.2225 19.1232 31.4465 18.9552 31.5825C18.7952 31.7185 18.6032 31.7865 18.3792 31.7865C18.1552 31.7865 17.9632 31.7185 17.8032 31.5825C17.6432 31.4465 17.5632 31.2225 17.5632 30.9105ZM26.2204 31.6185H20.4604V30.6345L22.6684 28.3905C23.1004 27.9505 23.4604 27.5705 23.7484 27.2505C24.0364 26.9225 24.2524 26.6105 24.3964 26.3145C24.5404 26.0105 24.6124 25.6825 24.6124 25.3305C24.6124 24.8985 24.4844 24.5705 24.2284 24.3465C23.9804 24.1225 23.6484 24.0105 23.2324 24.0105C22.8404 24.0105 22.4884 24.0825 22.1764 24.2265C21.8644 24.3705 21.5404 24.5785 21.2044 24.8505L20.5204 23.9985C20.8644 23.7105 21.2564 23.4625 21.6964 23.2545C22.1364 23.0385 22.6604 22.9305 23.2684 22.9305C24.0764 22.9305 24.7164 23.1385 25.1884 23.5545C25.6604 23.9705 25.8964 24.5265 25.8964 25.2225C25.8964 25.6785 25.8044 26.1025 25.6204 26.4945C25.4364 26.8865 25.1764 27.2745 24.8404 27.6585C24.5044 28.0425 24.1084 28.4505 23.6524 28.8825L22.0564 30.4305V30.4905H26.2204V31.6185ZM32.6316 25.0305C32.6316 25.6145 32.4676 26.0785 32.1396 26.4225C31.8116 26.7665 31.3796 26.9945 30.8436 27.1065V27.1545C31.5236 27.2345 32.0356 27.4505 32.3796 27.8025C32.7236 28.1545 32.8956 28.6105 32.8956 29.1705C32.8956 29.6665 32.7756 30.1105 32.5356 30.5025C32.3036 30.8865 31.9396 31.1905 31.4436 31.4145C30.9556 31.6305 30.3276 31.7385 29.5596 31.7385C29.1036 31.7385 28.6796 31.7025 28.2876 31.6305C27.8956 31.5585 27.5236 31.4385 27.1716 31.2705V30.1185C27.5316 30.3025 27.9196 30.4425 28.3356 30.5385C28.7516 30.6345 29.1436 30.6825 29.5116 30.6825C30.2476 30.6825 30.7716 30.5465 31.0836 30.2745C31.4036 29.9945 31.5636 29.6065 31.5636 29.1105C31.5636 28.6305 31.3716 28.2785 30.9876 28.0545C30.6036 27.8305 30.0276 27.7185 29.2596 27.7185H28.4796V26.6745H29.2716C29.9996 26.6745 30.5276 26.5385 30.8556 26.2665C31.1836 25.9945 31.3476 25.6385 31.3476 25.1985C31.3476 24.8145 31.2196 24.5185 30.9636 24.3105C30.7156 24.0945 30.3556 23.9865 29.8836 23.9865C29.4436 23.9865 29.0596 24.0585 28.7316 24.2025C28.4116 24.3385 28.1116 24.4985 27.8316 24.6825L27.2076 23.8065C27.5276 23.5665 27.9116 23.3625 28.3596 23.1945C28.8076 23.0185 29.3276 22.9305 29.9196 22.9305C30.8076 22.9305 31.4796 23.1265 31.9356 23.5185C32.3996 23.9025 32.6316 24.4065 32.6316 25.0305ZM34.2188 30.9105C34.2188 30.5985 34.2988 30.3785 34.4588 30.2505C34.6188 30.1225 34.8108 30.0585 35.0348 30.0585C35.2588 30.0585 35.4508 30.1225 35.6108 30.2505C35.7788 30.3785 35.8628 30.5985 35.8628 30.9105C35.8628 31.2225 35.7788 31.4465 35.6108 31.5825C35.4508 31.7185 35.2588 31.7865 35.0348 31.7865C34.8108 31.7865 34.6188 31.7185 34.4588 31.5825C34.2988 31.4465 34.2188 31.2225 34.2188 30.9105ZM38.1121 31.6185L41.5321 24.1785H37.0321V23.0505H42.9001V23.9625L39.4921 31.6185H38.1121ZM43.8992 27.9705C43.8992 27.4745 43.9312 26.9865 43.9952 26.5065C44.0672 26.0265 44.1872 25.5745 44.3552 25.1505C44.5312 24.7185 44.7712 24.3385 45.0752 24.0105C45.3792 23.6745 45.7632 23.4145 46.2272 23.2305C46.6992 23.0385 47.2672 22.9425 47.9312 22.9425C48.0992 22.9425 48.2872 22.9505 48.4952 22.9665C48.7112 22.9745 48.8872 22.9985 49.0232 23.0385V24.1065C48.8712 24.0585 48.7032 24.0225 48.5192 23.9985C48.3432 23.9745 48.1672 23.9625 47.9912 23.9625C47.4392 23.9625 46.9832 24.0465 46.6232 24.2145C46.2632 24.3825 45.9792 24.6145 45.7712 24.9105C45.5632 25.2065 45.4112 25.5505 45.3152 25.9425C45.2192 26.3345 45.1592 26.7545 45.1352 27.2025H45.2072C45.3832 26.9225 45.6312 26.6865 45.9512 26.4945C46.2712 26.2945 46.6832 26.1945 47.1872 26.1945C47.9312 26.1945 48.5272 26.4265 48.9752 26.8905C49.4312 27.3465 49.6592 27.9945 49.6592 28.8345C49.6592 29.7305 49.4072 30.4385 48.9032 30.9585C48.4072 31.4785 47.7312 31.7385 46.8752 31.7385C46.3232 31.7385 45.8192 31.6025 45.3632 31.3305C44.9152 31.0585 44.5592 30.6465 44.2952 30.0945C44.0312 29.5345 43.8992 28.8265 43.8992 27.9705ZM46.8632 30.6825C47.3192 30.6825 47.6912 30.5345 47.9792 30.2385C48.2672 29.9345 48.4112 29.4665 48.4112 28.8345C48.4112 28.3305 48.2832 27.9305 48.0272 27.6345C47.7792 27.3385 47.4032 27.1905 46.8992 27.1905C46.5552 27.1905 46.2552 27.2625 45.9992 27.4065C45.7432 27.5505 45.5432 27.7345 45.3992 27.9585C45.2552 28.1825 45.1832 28.4105 45.1832 28.6425C45.1832 28.9625 45.2472 29.2825 45.3752 29.6025C45.5032 29.9145 45.6912 30.1745 45.9392 30.3825C46.1872 30.5825 46.4952 30.6825 46.8632 30.6825ZM50.8744 30.9105C50.8744 30.5985 50.9544 30.3785 51.1144 30.2505C51.2744 30.1225 51.4664 30.0585 51.6904 30.0585C51.9144 30.0585 52.1064 30.1225 52.2664 30.2505C52.4344 30.3785 52.5184 30.5985 52.5184 30.9105C52.5184 31.2225 52.4344 31.4465 52.2664 31.5825C52.1064 31.7185 51.9144 31.7865 51.6904 31.7865C51.4664 31.7865 51.2744 31.7185 51.1144 31.5825C50.9544 31.4465 50.8744 31.2225 50.8744 30.9105ZM57.6837 31.6185H56.4237V25.9305C56.4237 25.6265 56.4277 25.3545 56.4357 25.1145C56.4437 24.8665 56.4557 24.6265 56.4717 24.3945C56.3677 24.5065 56.2597 24.6105 56.1477 24.7065C56.0357 24.8025 55.9077 24.9105 55.7637 25.0305L54.8277 25.7865L54.1797 24.9705L56.6277 23.0505H57.6837V31.6185ZM63.3869 22.9305C63.8909 22.9305 64.3389 23.0105 64.7309 23.1705C65.1229 23.3225 65.4309 23.5545 65.6549 23.8665C65.8869 24.1705 66.0029 24.5465 66.0029 24.9945C66.0029 25.5065 65.8469 25.9265 65.5349 26.2545C65.2229 26.5825 64.8469 26.8585 64.4069 27.0825C64.7429 27.2505 65.0509 27.4425 65.3309 27.6585C65.6189 27.8665 65.8469 28.1145 66.0149 28.4025C66.1909 28.6825 66.2789 29.0145 66.2789 29.3985C66.2789 29.8785 66.1589 30.2945 65.9189 30.6465C65.6789 30.9905 65.3429 31.2585 64.9109 31.4505C64.4869 31.6425 63.9869 31.7385 63.4109 31.7385C62.4829 31.7385 61.7669 31.5385 61.2629 31.1385C60.7589 30.7305 60.5069 30.1625 60.5069 29.4345C60.5069 29.0505 60.5869 28.7145 60.7469 28.4265C60.9069 28.1305 61.1189 27.8785 61.3829 27.6705C61.6469 27.4625 61.9349 27.2865 62.2469 27.1425C61.8309 26.9025 61.4829 26.6145 61.2029 26.2785C60.9229 25.9345 60.7829 25.5025 60.7829 24.9825C60.7829 24.5425 60.8989 24.1705 61.1309 23.8665C61.3629 23.5545 61.6749 23.3225 62.0669 23.1705C62.4589 23.0105 62.8989 22.9305 63.3869 22.9305ZM63.3749 23.9265C62.9749 23.9265 62.6469 24.0265 62.3909 24.2265C62.1349 24.4185 62.0069 24.6945 62.0069 25.0545C62.0069 25.4545 62.1429 25.7665 62.4149 25.9905C62.6949 26.2065 63.0309 26.4025 63.4229 26.5785C63.7909 26.4185 64.1069 26.2225 64.3709 25.9905C64.6349 25.7585 64.7669 25.4465 64.7669 25.0545C64.7669 24.6945 64.6389 24.4185 64.3829 24.2265C64.1269 24.0265 63.7909 23.9265 63.3749 23.9265ZM61.7309 29.4105C61.7309 29.7945 61.8669 30.1145 62.1389 30.3705C62.4109 30.6265 62.8269 30.7545 63.3869 30.7545C63.9309 30.7545 64.3429 30.6305 64.6229 30.3825C64.9109 30.1265 65.0549 29.7985 65.0549 29.3985C65.0549 29.0065 64.8989 28.6825 64.5869 28.4265C64.2749 28.1705 63.8869 27.9425 63.4229 27.7425L63.2429 27.6705C62.7549 27.8785 62.3789 28.1225 62.1149 28.4025C61.8589 28.6745 61.7309 29.0105 61.7309 29.4105Z" fill="white"/>
</svg>
