<svg width="210" height="64" viewBox="0 0 210 64" fill="none" xmlns="http://www.w3.org/2000/svg">
<mask id="mask0_123_455" style="mask-type:alpha" maskUnits="userSpaceOnUse" x="0" y="48" width="210" height="16">
<rect x="210" y="64" width="210" height="16" transform="rotate(-180 210 64)" fill="#C4C4C4"/>
</mask>
<g mask="url(#mask0_123_455)">
<rect x="210" y="64" width="210" height="16" transform="rotate(-180 210 64)" fill="white"/>
<rect x="210" y="64" width="52.5" height="16" transform="rotate(-180 210 64)" fill="#E9ECED"/>
<rect x="157.5" y="64" width="52.5" height="16" transform="rotate(-180 157.5 64)" fill="#D3D6D8"/>
<rect x="105" y="64" width="52.5" height="16" transform="rotate(-180 105 64)" fill="#91989E"/>
<rect x="52.5" y="64" width="52.5" height="16" transform="rotate(-180 52.5 64)" fill="#48545D"/>
</g>
<rect width="210" height="48" fill="#939EA7"/>
<path d="M13.464 36.8513H12.204V31.1633C12.204 30.9633 12.204 30.7793 12.204 30.6113C12.212 30.4353 12.22 30.2673 12.228 30.1073C12.236 29.9393 12.244 29.7793 12.252 29.6273C12.148 29.7313 12.04 29.8313 11.928 29.9273C11.816 30.0233 11.688 30.1353 11.544 30.2633L10.608 31.0193L9.96 30.2033L12.408 28.2833H13.464V36.8513ZM22.0712 32.5553C22.0712 33.2513 22.0152 33.8713 21.9032 34.4153C21.7992 34.9593 21.6312 35.4233 21.3992 35.8073C21.1752 36.1833 20.8752 36.4713 20.4992 36.6713C20.1312 36.8713 19.6872 36.9713 19.1672 36.9713C18.5112 36.9713 17.9712 36.7953 17.5472 36.4433C17.1232 36.0913 16.8072 35.5873 16.5992 34.9313C16.3912 34.2673 16.2872 33.4753 16.2872 32.5553C16.2872 31.6273 16.3792 30.8353 16.5632 30.1793C16.7552 29.5233 17.0632 29.0233 17.4872 28.6793C17.9112 28.3273 18.4712 28.1513 19.1672 28.1513C19.8232 28.1513 20.3632 28.3273 20.7872 28.6793C21.2192 29.0233 21.5392 29.5233 21.7472 30.1793C21.9632 30.8353 22.0712 31.6273 22.0712 32.5553ZM17.5592 32.5553C17.5592 33.2993 17.6112 33.9193 17.7152 34.4153C17.8192 34.9113 17.9872 35.2833 18.2192 35.5313C18.4592 35.7793 18.7752 35.9033 19.1672 35.9033C19.5592 35.9033 19.8712 35.7833 20.1032 35.5433C20.3432 35.2953 20.5152 34.9233 20.6192 34.4273C20.7312 33.9233 20.7872 33.2993 20.7872 32.5553C20.7872 31.8113 20.7312 31.1953 20.6192 30.7073C20.5152 30.2113 20.3432 29.8393 20.1032 29.5913C19.8712 29.3433 19.5592 29.2193 19.1672 29.2193C18.7752 29.2193 18.4592 29.3433 18.2192 29.5913C17.9872 29.8393 17.8192 30.2113 17.7152 30.7073C17.6112 31.1953 17.5592 31.8113 17.5592 32.5553ZM23.3104 36.1433C23.3104 35.8313 23.3904 35.6113 23.5504 35.4833C23.7104 35.3553 23.9024 35.2913 24.1264 35.2913C24.3584 35.2913 24.5544 35.3553 24.7144 35.4833C24.8744 35.6113 24.9544 35.8313 24.9544 36.1433C24.9544 36.4553 24.8744 36.6793 24.7144 36.8153C24.5544 36.9513 24.3584 37.0193 24.1264 37.0193C23.9024 37.0193 23.7104 36.9513 23.5504 36.8153C23.3904 36.6793 23.3104 36.4553 23.3104 36.1433ZM29.0396 31.5353C29.6076 31.5353 30.1036 31.6353 30.5276 31.8353C30.9516 32.0353 31.2796 32.3233 31.5116 32.6993C31.7516 33.0753 31.8716 33.5353 31.8716 34.0793C31.8716 34.6793 31.7436 35.1953 31.4876 35.6273C31.2316 36.0593 30.8596 36.3913 30.3716 36.6233C29.8916 36.8553 29.3036 36.9713 28.6076 36.9713C28.1676 36.9713 27.7516 36.9313 27.3596 36.8513C26.9676 36.7713 26.6356 36.6553 26.3636 36.5033V35.3393C26.6516 35.5073 26.9996 35.6433 27.4076 35.7473C27.8236 35.8513 28.2196 35.9033 28.5956 35.9033C29.0036 35.9033 29.3516 35.8433 29.6396 35.7233C29.9356 35.5953 30.1636 35.4073 30.3236 35.1593C30.4916 34.9033 30.5756 34.5833 30.5756 34.1993C30.5756 33.6793 30.4116 33.2833 30.0836 33.0113C29.7636 32.7313 29.2556 32.5913 28.5596 32.5913C28.3356 32.5913 28.0836 32.6113 27.8036 32.6513C27.5316 32.6913 27.3116 32.7313 27.1436 32.7713L26.5556 32.4233L26.8796 28.2833H31.2836V29.4113H27.9836L27.7916 31.6553C27.9276 31.6313 28.0996 31.6073 28.3076 31.5833C28.5156 31.5513 28.7596 31.5353 29.0396 31.5353ZM33.2188 36.1433C33.2188 35.8313 33.2988 35.6113 33.4588 35.4833C33.6188 35.3553 33.8108 35.2913 34.0348 35.2913C34.2668 35.2913 34.4628 35.3553 34.6228 35.4833C34.7828 35.6113 34.8628 35.8313 34.8628 36.1433C34.8628 36.4553 34.7828 36.6793 34.6228 36.8153C34.4628 36.9513 34.2668 37.0193 34.0348 37.0193C33.8108 37.0193 33.6188 36.9513 33.4588 36.8153C33.2988 36.6793 33.2188 36.4553 33.2188 36.1433ZM41.8881 32.5553C41.8881 33.2513 41.8321 33.8713 41.7201 34.4153C41.6161 34.9593 41.4481 35.4233 41.2161 35.8073C40.9921 36.1833 40.6921 36.4713 40.3161 36.6713C39.9481 36.8713 39.5041 36.9713 38.9841 36.9713C38.3281 36.9713 37.7881 36.7953 37.3641 36.4433C36.9401 36.0913 36.6241 35.5873 36.4161 34.9313C36.2081 34.2673 36.1041 33.4753 36.1041 32.5553C36.1041 31.6273 36.1961 30.8353 36.3801 30.1793C36.5721 29.5233 36.8801 29.0233 37.3041 28.6793C37.7281 28.3273 38.2881 28.1513 38.9841 28.1513C39.6401 28.1513 40.1801 28.3273 40.6041 28.6793C41.0361 29.0233 41.3561 29.5233 41.5641 30.1793C41.7801 30.8353 41.8881 31.6273 41.8881 32.5553ZM37.3761 32.5553C37.3761 33.2993 37.4281 33.9193 37.5321 34.4153C37.6361 34.9113 37.8041 35.2833 38.0361 35.5313C38.2761 35.7793 38.5921 35.9033 38.9841 35.9033C39.3761 35.9033 39.6881 35.7833 39.9201 35.5433C40.1601 35.2953 40.3321 34.9233 40.4361 34.4273C40.5481 33.9233 40.6041 33.2993 40.6041 32.5553C40.6041 31.8113 40.5481 31.1953 40.4361 30.7073C40.3321 30.2113 40.1601 29.8393 39.9201 29.5913C39.6881 29.3433 39.3761 29.2193 38.9841 29.2193C38.5921 29.2193 38.2761 29.3433 38.0361 29.5913C37.8041 29.8393 37.6361 30.2113 37.5321 30.7073C37.4281 31.1953 37.3761 31.8113 37.3761 32.5553ZM43.1272 36.1433C43.1272 35.8313 43.2072 35.6113 43.3672 35.4833C43.5272 35.3553 43.7192 35.2913 43.9432 35.2913C44.1752 35.2913 44.3712 35.3553 44.5312 35.4833C44.6912 35.6113 44.7712 35.8313 44.7712 36.1433C44.7712 36.4553 44.6912 36.6793 44.5312 36.8153C44.3712 36.9513 44.1752 37.0193 43.9432 37.0193C43.7192 37.0193 43.5272 36.9513 43.3672 36.8153C43.2072 36.6793 43.1272 36.4553 43.1272 36.1433ZM51.4485 30.2633C51.4485 30.6473 51.3725 30.9833 51.2205 31.2713C51.0765 31.5513 50.8685 31.7793 50.5965 31.9553C50.3245 32.1313 50.0125 32.2593 49.6605 32.3393V32.3873C50.3485 32.4673 50.8605 32.6833 51.1965 33.0353C51.5405 33.3793 51.7125 33.8353 51.7125 34.4033C51.7125 34.8993 51.5925 35.3433 51.3525 35.7353C51.1205 36.1193 50.7565 36.4233 50.2605 36.6473C49.7725 36.8633 49.1445 36.9713 48.3765 36.9713C47.9205 36.9713 47.4965 36.9353 47.1045 36.8633C46.7125 36.7913 46.3405 36.6713 45.9885 36.5033V35.3513C46.3485 35.5353 46.7325 35.6753 47.1405 35.7713C47.5565 35.8673 47.9525 35.9153 48.3285 35.9153C49.0565 35.9153 49.5805 35.7793 49.9005 35.5073C50.2205 35.2273 50.3805 34.8393 50.3805 34.3433C50.3805 34.0233 50.2965 33.7633 50.1285 33.5633C49.9605 33.3553 49.7045 33.2033 49.3605 33.1073C49.0165 33.0033 48.5885 32.9513 48.0765 32.9513H47.2965V31.9073H48.0885C48.5765 31.9073 48.9725 31.8473 49.2765 31.7273C49.5805 31.5993 49.8045 31.4233 49.9485 31.1993C50.0925 30.9753 50.1645 30.7193 50.1645 30.4313C50.1645 30.0473 50.0365 29.7513 49.7805 29.5433C49.5325 29.3273 49.1725 29.2193 48.7005 29.2193C48.4125 29.2193 48.1445 29.2513 47.8965 29.3153C47.6565 29.3793 47.4365 29.4633 47.2365 29.5673C47.0365 29.6713 46.8405 29.7873 46.6485 29.9153L46.0245 29.0393C46.2405 28.8793 46.4805 28.7313 46.7445 28.5953C47.0165 28.4593 47.3165 28.3553 47.6445 28.2833C47.9805 28.2033 48.3445 28.1633 48.7365 28.1633C49.6245 28.1633 50.2965 28.3593 50.7525 28.7513C51.2165 29.1353 51.4485 29.6393 51.4485 30.2633ZM55.6037 31.5353C56.1717 31.5353 56.6677 31.6353 57.0917 31.8353C57.5157 32.0353 57.8437 32.3233 58.0757 32.6993C58.3157 33.0753 58.4357 33.5353 58.4357 34.0793C58.4357 34.6793 58.3077 35.1953 58.0517 35.6273C57.7957 36.0593 57.4237 36.3913 56.9357 36.6233C56.4557 36.8553 55.8677 36.9713 55.1717 36.9713C54.7317 36.9713 54.3157 36.9313 53.9237 36.8513C53.5317 36.7713 53.1997 36.6553 52.9277 36.5033V35.3393C53.2157 35.5073 53.5637 35.6433 53.9717 35.7473C54.3877 35.8513 54.7837 35.9033 55.1597 35.9033C55.5677 35.9033 55.9157 35.8433 56.2037 35.7233C56.4997 35.5953 56.7277 35.4073 56.8877 35.1593C57.0557 34.9033 57.1397 34.5833 57.1397 34.1993C57.1397 33.6793 56.9757 33.2833 56.6477 33.0113C56.3277 32.7313 55.8197 32.5913 55.1237 32.5913C54.8997 32.5913 54.6477 32.6113 54.3677 32.6513C54.0957 32.6913 53.8757 32.7313 53.7077 32.7713L53.1197 32.4233L53.4437 28.2833H57.8477V29.4113H54.5477L54.3557 31.6553C54.4917 31.6313 54.6637 31.6073 54.8717 31.5833C55.0797 31.5513 55.3237 31.5353 55.6037 31.5353Z" fill="white"/>
<path d="M14.784 14.7033L14.448 16.4553H16.044V17.3793H14.268L13.788 19.8513H12.804L13.284 17.3793H11.736L11.28 19.8513H10.32L10.764 17.3793H9.288V16.4553H10.944L11.292 14.7033H9.732V13.7793H11.46L11.928 11.2833H12.924L12.444 13.7793H14.016L14.484 11.2833H15.444L14.964 13.7793H16.452V14.7033H14.784ZM11.916 16.4553H13.464L13.812 14.7033H12.264L11.916 16.4553ZM22.9618 15.5553C22.9618 16.2513 22.9058 16.8713 22.7938 17.4153C22.6898 17.9593 22.5218 18.4233 22.2898 18.8073C22.0658 19.1833 21.7658 19.4713 21.3898 19.6713C21.0218 19.8713 20.5778 19.9713 20.0578 19.9713C19.4018 19.9713 18.8618 19.7953 18.4378 19.4433C18.0138 19.0913 17.6978 18.5873 17.4898 17.9313C17.2818 17.2673 17.1778 16.4753 17.1778 15.5553C17.1778 14.6273 17.2698 13.8353 17.4538 13.1793C17.6458 12.5233 17.9538 12.0233 18.3778 11.6793C18.8018 11.3273 19.3618 11.1513 20.0578 11.1513C20.7138 11.1513 21.2538 11.3273 21.6778 11.6793C22.1098 12.0233 22.4298 12.5233 22.6378 13.1793C22.8538 13.8353 22.9618 14.6273 22.9618 15.5553ZM18.4498 15.5553C18.4498 16.2993 18.5018 16.9193 18.6058 17.4153C18.7098 17.9113 18.8778 18.2833 19.1098 18.5313C19.3498 18.7793 19.6658 18.9033 20.0578 18.9033C20.4498 18.9033 20.7618 18.7833 20.9938 18.5433C21.2338 18.2953 21.4058 17.9233 21.5098 17.4273C21.6218 16.9233 21.6778 16.2993 21.6778 15.5553C21.6778 14.8113 21.6218 14.1953 21.5098 13.7073C21.4058 13.2113 21.2338 12.8393 20.9938 12.5913C20.7618 12.3433 20.4498 12.2193 20.0578 12.2193C19.6658 12.2193 19.3498 12.3433 19.1098 12.5913C18.8778 12.8393 18.7098 13.2113 18.6058 13.7073C18.5018 14.1953 18.4498 14.8113 18.4498 15.5553ZM29.709 15.5553C29.709 16.2513 29.653 16.8713 29.541 17.4153C29.437 17.9593 29.269 18.4233 29.037 18.8073C28.813 19.1833 28.513 19.4713 28.137 19.6713C27.769 19.8713 27.325 19.9713 26.805 19.9713C26.149 19.9713 25.609 19.7953 25.185 19.4433C24.761 19.0913 24.445 18.5873 24.237 17.9313C24.029 17.2673 23.925 16.4753 23.925 15.5553C23.925 14.6273 24.017 13.8353 24.201 13.1793C24.393 12.5233 24.701 12.0233 25.125 11.6793C25.549 11.3273 26.109 11.1513 26.805 11.1513C27.461 11.1513 28.001 11.3273 28.425 11.6793C28.857 12.0233 29.177 12.5233 29.385 13.1793C29.601 13.8353 29.709 14.6273 29.709 15.5553ZM25.197 15.5553C25.197 16.2993 25.249 16.9193 25.353 17.4153C25.457 17.9113 25.625 18.2833 25.857 18.5313C26.097 18.7793 26.413 18.9033 26.805 18.9033C27.197 18.9033 27.509 18.7833 27.741 18.5433C27.981 18.2953 28.153 17.9233 28.257 17.4273C28.369 16.9233 28.425 16.2993 28.425 15.5553C28.425 14.8113 28.369 14.1953 28.257 13.7073C28.153 13.2113 27.981 12.8393 27.741 12.5913C27.509 12.3433 27.197 12.2193 26.805 12.2193C26.413 12.2193 26.097 12.3433 25.857 12.5913C25.625 12.8393 25.457 13.2113 25.353 13.7073C25.249 14.1953 25.197 14.8113 25.197 15.5553ZM36.4562 15.5553C36.4562 16.2513 36.4002 16.8713 36.2882 17.4153C36.1842 17.9593 36.0162 18.4233 35.7842 18.8073C35.5602 19.1833 35.2602 19.4713 34.8842 19.6713C34.5162 19.8713 34.0722 19.9713 33.5522 19.9713C32.8962 19.9713 32.3562 19.7953 31.9322 19.4433C31.5082 19.0913 31.1922 18.5873 30.9842 17.9313C30.7762 17.2673 30.6722 16.4753 30.6722 15.5553C30.6722 14.6273 30.7642 13.8353 30.9482 13.1793C31.1402 12.5233 31.4482 12.0233 31.8722 11.6793C32.2962 11.3273 32.8562 11.1513 33.5522 11.1513C34.2082 11.1513 34.7482 11.3273 35.1722 11.6793C35.6042 12.0233 35.9242 12.5233 36.1322 13.1793C36.3482 13.8353 36.4562 14.6273 36.4562 15.5553ZM31.9442 15.5553C31.9442 16.2993 31.9962 16.9193 32.1002 17.4153C32.2042 17.9113 32.3722 18.2833 32.6042 18.5313C32.8442 18.7793 33.1602 18.9033 33.5522 18.9033C33.9442 18.9033 34.2562 18.7833 34.4882 18.5433C34.7282 18.2953 34.9002 17.9233 35.0042 17.4273C35.1162 16.9233 35.1722 16.2993 35.1722 15.5553C35.1722 14.8113 35.1162 14.1953 35.0042 13.7073C34.9002 13.2113 34.7282 12.8393 34.4882 12.5913C34.2562 12.3433 33.9442 12.2193 33.5522 12.2193C33.1602 12.2193 32.8442 12.3433 32.6042 12.5913C32.3722 12.8393 32.2042 13.2113 32.1002 13.7073C31.9962 14.1953 31.9442 14.8113 31.9442 15.5553ZM43.2034 15.5553C43.2034 16.2513 43.1474 16.8713 43.0354 17.4153C42.9314 17.9593 42.7634 18.4233 42.5314 18.8073C42.3074 19.1833 42.0074 19.4713 41.6314 19.6713C41.2634 19.8713 40.8194 19.9713 40.2994 19.9713C39.6434 19.9713 39.1034 19.7953 38.6794 19.4433C38.2554 19.0913 37.9394 18.5873 37.7314 17.9313C37.5234 17.2673 37.4194 16.4753 37.4194 15.5553C37.4194 14.6273 37.5114 13.8353 37.6954 13.1793C37.8874 12.5233 38.1954 12.0233 38.6194 11.6793C39.0434 11.3273 39.6034 11.1513 40.2994 11.1513C40.9554 11.1513 41.4954 11.3273 41.9194 11.6793C42.3514 12.0233 42.6714 12.5233 42.8794 13.1793C43.0954 13.8353 43.2034 14.6273 43.2034 15.5553ZM38.6914 15.5553C38.6914 16.2993 38.7434 16.9193 38.8474 17.4153C38.9514 17.9113 39.1194 18.2833 39.3514 18.5313C39.5914 18.7793 39.9074 18.9033 40.2994 18.9033C40.6914 18.9033 41.0034 18.7833 41.2354 18.5433C41.4754 18.2953 41.6474 17.9233 41.7514 17.4273C41.8634 16.9233 41.9194 16.2993 41.9194 15.5553C41.9194 14.8113 41.8634 14.1953 41.7514 13.7073C41.6474 13.2113 41.4754 12.8393 41.2354 12.5913C41.0034 12.3433 40.6914 12.2193 40.2994 12.2193C39.9074 12.2193 39.5914 12.3433 39.3514 12.5913C39.1194 12.8393 38.9514 13.2113 38.8474 13.7073C38.7434 14.1953 38.6914 14.8113 38.6914 15.5553ZM49.9506 15.5553C49.9506 16.2513 49.8946 16.8713 49.7826 17.4153C49.6786 17.9593 49.5106 18.4233 49.2786 18.8073C49.0546 19.1833 48.7546 19.4713 48.3786 19.6713C48.0106 19.8713 47.5666 19.9713 47.0466 19.9713C46.3906 19.9713 45.8506 19.7953 45.4266 19.4433C45.0026 19.0913 44.6866 18.5873 44.4786 17.9313C44.2706 17.2673 44.1666 16.4753 44.1666 15.5553C44.1666 14.6273 44.2586 13.8353 44.4426 13.1793C44.6346 12.5233 44.9426 12.0233 45.3666 11.6793C45.7906 11.3273 46.3506 11.1513 47.0466 11.1513C47.7026 11.1513 48.2426 11.3273 48.6666 11.6793C49.0986 12.0233 49.4186 12.5233 49.6266 13.1793C49.8426 13.8353 49.9506 14.6273 49.9506 15.5553ZM45.4386 15.5553C45.4386 16.2993 45.4906 16.9193 45.5946 17.4153C45.6986 17.9113 45.8666 18.2833 46.0986 18.5313C46.3386 18.7793 46.6546 18.9033 47.0466 18.9033C47.4386 18.9033 47.7506 18.7833 47.9826 18.5433C48.2226 18.2953 48.3946 17.9233 48.4986 17.4273C48.6106 16.9233 48.6666 16.2993 48.6666 15.5553C48.6666 14.8113 48.6106 14.1953 48.4986 13.7073C48.3946 13.2113 48.2226 12.8393 47.9826 12.5913C47.7506 12.3433 47.4386 12.2193 47.0466 12.2193C46.6546 12.2193 46.3386 12.3433 46.0986 12.5913C45.8666 12.8393 45.6986 13.2113 45.5946 13.7073C45.4906 14.1953 45.4386 14.8113 45.4386 15.5553ZM56.6977 15.5553C56.6977 16.2513 56.6417 16.8713 56.5297 17.4153C56.4257 17.9593 56.2577 18.4233 56.0257 18.8073C55.8017 19.1833 55.5017 19.4713 55.1257 19.6713C54.7577 19.8713 54.3137 19.9713 53.7937 19.9713C53.1377 19.9713 52.5977 19.7953 52.1737 19.4433C51.7497 19.0913 51.4337 18.5873 51.2257 17.9313C51.0177 17.2673 50.9137 16.4753 50.9137 15.5553C50.9137 14.6273 51.0057 13.8353 51.1897 13.1793C51.3817 12.5233 51.6897 12.0233 52.1137 11.6793C52.5377 11.3273 53.0977 11.1513 53.7937 11.1513C54.4497 11.1513 54.9897 11.3273 55.4137 11.6793C55.8457 12.0233 56.1657 12.5233 56.3737 13.1793C56.5897 13.8353 56.6977 14.6273 56.6977 15.5553ZM52.1857 15.5553C52.1857 16.2993 52.2377 16.9193 52.3417 17.4153C52.4457 17.9113 52.6137 18.2833 52.8457 18.5313C53.0857 18.7793 53.4017 18.9033 53.7937 18.9033C54.1857 18.9033 54.4977 18.7833 54.7297 18.5433C54.9697 18.2953 55.1417 17.9233 55.2457 17.4273C55.3577 16.9233 55.4137 16.2993 55.4137 15.5553C55.4137 14.8113 55.3577 14.1953 55.2457 13.7073C55.1417 13.2113 54.9697 12.8393 54.7297 12.5913C54.4977 12.3433 54.1857 12.2193 53.7937 12.2193C53.4017 12.2193 53.0857 12.3433 52.8457 12.5913C52.6137 12.8393 52.4457 13.2113 52.3417 13.7073C52.2377 14.1953 52.1857 14.8113 52.1857 15.5553Z" fill="white"/>
</svg>
