<svg width="100" height="52" viewBox="0 0 100 52" fill="none" xmlns="http://www.w3.org/2000/svg">
<rect width="100" height="41.2371" fill="#549B35"/>
<mask id="mask0_122_362" style="mask-type:alpha" maskUnits="userSpaceOnUse" x="0" y="41" width="100" height="11">
<rect width="100" height="10.3093" transform="matrix(1 0 0 -1 0 51.5464)" fill="#C4C4C4"/>
</mask>
<g mask="url(#mask0_122_362)">
<rect width="100" height="10.3093" transform="matrix(1 0 0 -1 0 51.5464)" fill="white"/>
<rect opacity="0.8" width="25" height="10.3093" transform="matrix(1 0 0 -1 0 51.5464)" fill="#549B35"/>
<rect opacity="0.6" width="25" height="10.3093" transform="matrix(1 0 0 -1 25 51.5464)" fill="#549B35"/>
<rect opacity="0.4" width="25" height="10.3093" transform="matrix(1 0 0 -1 50 51.5464)" fill="#549B35"/>
<rect opacity="0.2" width="25" height="10.3093" transform="matrix(1 0 0 -1 75.0002 51.5464)" fill="#549B35"/>
</g>
<path d="M13.5618 11.1922L13.2258 12.9442H14.8218V13.8682H13.0458L12.5658 16.3402H11.5818L12.0618 13.8682H10.5138L10.0578 16.3402H9.09783L9.54183 13.8682H8.06583V12.9442H9.72183L10.0698 11.1922H8.50983V10.2682H10.2378L10.7058 7.77221H11.7018L11.2218 10.2682H12.7938L13.2618 7.77221H14.2218L13.7418 10.2682H15.2298V11.1922H13.5618ZM10.6938 12.9442H12.2418L12.5898 11.1922H11.0418L10.6938 12.9442ZM18.7996 11.0242C19.6476 11.0242 20.3316 11.2442 20.8516 11.6842C21.3716 12.1242 21.6316 12.7522 21.6316 13.5682C21.6316 14.4722 21.3476 15.1802 20.7796 15.6922C20.2116 16.2042 19.4076 16.4602 18.3676 16.4602C17.9196 16.4602 17.4996 16.4202 17.1076 16.3402C16.7236 16.2602 16.3956 16.1442 16.1236 15.9922V14.8282C16.4116 14.9962 16.7596 15.1322 17.1676 15.2362C17.5836 15.3402 17.9796 15.3922 18.3556 15.3922C18.9556 15.3922 19.4356 15.2562 19.7956 14.9842C20.1556 14.7042 20.3356 14.2722 20.3356 13.6882C20.3356 13.1682 20.1716 12.7722 19.8436 12.5002C19.5236 12.2202 19.0156 12.0802 18.3196 12.0802C18.0956 12.0802 17.8436 12.1002 17.5636 12.1402C17.2916 12.1802 17.0716 12.2202 16.9036 12.2602L16.3156 11.9122L16.6396 7.77221H21.0436V8.90021H17.7436L17.5516 11.1442C17.6876 11.1202 17.8596 11.0962 18.0676 11.0722C18.2756 11.0402 18.5196 11.0242 18.7996 11.0242ZM28.7988 14.4442H27.6108V16.3402H26.3748V14.4442H22.4028V13.4362L26.3508 7.73621H27.6108V13.3642H28.7988V14.4442ZM26.3748 13.3642V11.0362C26.3748 10.6602 26.3788 10.3082 26.3868 9.98021C26.4028 9.64421 26.4188 9.36421 26.4348 9.14021H26.3868C26.3228 9.30021 26.2428 9.46421 26.1468 9.63221C26.0508 9.80021 25.9588 9.94821 25.8708 10.0762L23.6028 13.3642H26.3748ZM35.21 11.4322C35.21 11.9202 35.174 12.4082 35.102 12.8962C35.038 13.3762 34.918 13.8322 34.742 14.2642C34.574 14.6882 34.338 15.0682 34.034 15.4042C33.73 15.7322 33.342 15.9922 32.87 16.1842C32.398 16.3682 31.83 16.4602 31.166 16.4602C31.006 16.4602 30.814 16.4522 30.59 16.4362C30.374 16.4202 30.198 16.3922 30.062 16.3522V15.2842C30.214 15.3322 30.382 15.3682 30.566 15.3922C30.758 15.4162 30.942 15.4282 31.118 15.4282C31.67 15.4282 32.126 15.3482 32.486 15.1882C32.846 15.0202 33.13 14.7882 33.338 14.4922C33.546 14.1962 33.698 13.8562 33.794 13.4722C33.89 13.0802 33.946 12.6602 33.962 12.2122H33.89C33.714 12.4842 33.47 12.7202 33.158 12.9202C32.846 13.1122 32.426 13.2082 31.898 13.2082C31.162 13.2082 30.57 12.9802 30.122 12.5242C29.674 12.0602 29.45 11.4122 29.45 10.5802C29.45 9.67621 29.702 8.96421 30.206 8.44421C30.71 7.92421 31.386 7.66421 32.234 7.66421C32.786 7.66421 33.286 7.80021 33.734 8.07221C34.19 8.34421 34.55 8.76021 34.814 9.32021C35.078 9.87221 35.21 10.5762 35.21 11.4322ZM32.246 8.70821C31.79 8.70821 31.418 8.86021 31.13 9.16421C30.842 9.46821 30.698 9.93221 30.698 10.5562C30.698 11.0682 30.822 11.4722 31.07 11.7682C31.318 12.0642 31.694 12.2122 32.198 12.2122C32.55 12.2122 32.854 12.1402 33.11 11.9962C33.374 11.8522 33.574 11.6682 33.71 11.4442C33.854 11.2202 33.926 10.9882 33.926 10.7482C33.926 10.4282 33.862 10.1122 33.734 9.80021C33.614 9.48821 33.426 9.22821 33.17 9.02021C32.922 8.81221 32.614 8.70821 32.246 8.70821ZM36.7972 7.77221H39.3052C40.3932 7.77221 41.2172 7.93221 41.7772 8.25221C42.3452 8.57221 42.6292 9.12421 42.6292 9.90821C42.6292 10.4042 42.4932 10.8202 42.2212 11.1562C41.9572 11.4922 41.5772 11.7042 41.0812 11.7922V11.8522C41.4172 11.9162 41.7212 12.0242 41.9932 12.1762C42.2732 12.3202 42.4932 12.5322 42.6532 12.8122C42.8132 13.0842 42.8932 13.4442 42.8932 13.8922C42.8932 14.6762 42.6212 15.2802 42.0772 15.7042C41.5332 16.1282 40.7972 16.3402 39.8692 16.3402H36.7972V7.77221ZM38.0932 11.3482H39.5212C40.1932 11.3482 40.6532 11.2402 40.9012 11.0242C41.1572 10.8082 41.2852 10.4882 41.2852 10.0642C41.2852 9.64021 41.1292 9.33621 40.8172 9.15221C40.5132 8.96021 40.0332 8.86421 39.3772 8.86421H38.0932V11.3482ZM38.0932 12.4042V15.2602H39.6652C40.3532 15.2602 40.8332 15.1242 41.1052 14.8522C41.3852 14.5802 41.5252 14.2202 41.5252 13.7722C41.5252 13.3642 41.3812 13.0362 41.0932 12.7882C40.8132 12.5322 40.3092 12.4042 39.5812 12.4042H38.0932ZM49.3882 9.75221C49.3882 10.3362 49.2242 10.8002 48.8962 11.1442C48.5682 11.4882 48.1362 11.7162 47.6002 11.8282V11.8762C48.2802 11.9562 48.7922 12.1722 49.1362 12.5242C49.4802 12.8762 49.6522 13.3322 49.6522 13.8922C49.6522 14.3882 49.5322 14.8322 49.2922 15.2242C49.0602 15.6082 48.6962 15.9122 48.2002 16.1362C47.7122 16.3522 47.0842 16.4602 46.3162 16.4602C45.8602 16.4602 45.4362 16.4242 45.0442 16.3522C44.6522 16.2802 44.2802 16.1602 43.9282 15.9922V14.8402C44.2882 15.0242 44.6762 15.1642 45.0922 15.2602C45.5082 15.3562 45.9002 15.4042 46.2682 15.4042C47.0042 15.4042 47.5282 15.2682 47.8402 14.9962C48.1602 14.7162 48.3202 14.3282 48.3202 13.8322C48.3202 13.3522 48.1282 13.0002 47.7442 12.7762C47.3602 12.5522 46.7842 12.4402 46.0162 12.4402H45.2362V11.3962H46.0282C46.7562 11.3962 47.2842 11.2602 47.6122 10.9882C47.9402 10.7162 48.1042 10.3602 48.1042 9.92021C48.1042 9.53621 47.9762 9.24021 47.7202 9.03221C47.4722 8.81621 47.1122 8.70821 46.6402 8.70821C46.2002 8.70821 45.8162 8.78021 45.4882 8.92421C45.1682 9.06021 44.8682 9.22021 44.5882 9.40421L43.9642 8.52821C44.2842 8.28821 44.6682 8.08421 45.1162 7.91621C45.5642 7.74021 46.0842 7.65221 46.6762 7.65221C47.5642 7.65221 48.2362 7.84821 48.6922 8.24021C49.1562 8.62421 49.3882 9.12821 49.3882 9.75221ZM53.5434 11.0242C54.3914 11.0242 55.0754 11.2442 55.5954 11.6842C56.1154 12.1242 56.3754 12.7522 56.3754 13.5682C56.3754 14.4722 56.0914 15.1802 55.5234 15.6922C54.9554 16.2042 54.1514 16.4602 53.1114 16.4602C52.6634 16.4602 52.2434 16.4202 51.8514 16.3402C51.4674 16.2602 51.1394 16.1442 50.8674 15.9922V14.8282C51.1554 14.9962 51.5034 15.1322 51.9114 15.2362C52.3274 15.3402 52.7234 15.3922 53.0994 15.3922C53.6994 15.3922 54.1794 15.2562 54.5394 14.9842C54.8994 14.7042 55.0794 14.2722 55.0794 13.6882C55.0794 13.1682 54.9154 12.7722 54.5874 12.5002C54.2674 12.2202 53.7594 12.0802 53.0634 12.0802C52.8394 12.0802 52.5874 12.1002 52.3074 12.1402C52.0354 12.1802 51.8154 12.2202 51.6474 12.2602L51.0594 11.9122L51.3834 7.77221H55.7874V8.90021H52.4874L52.2954 11.1442C52.4314 11.1202 52.6034 11.0962 52.8114 11.0722C53.0194 11.0402 53.2634 11.0242 53.5434 11.0242Z" fill="white"/>
<path d="M11.548 31.6185L14.968 24.1785H10.468V23.0505H16.336V23.9625L12.928 31.6185H11.548ZM23.0712 27.3225C23.0712 28.2505 22.9752 29.0425 22.7832 29.6985C22.5912 30.3545 22.2792 30.8585 21.8472 31.2105C21.4232 31.5625 20.8632 31.7385 20.1672 31.7385C19.1832 31.7385 18.4552 31.3505 17.9832 30.5745C17.5192 29.7905 17.2872 28.7065 17.2872 27.3225C17.2872 26.3945 17.3792 25.6025 17.5632 24.9465C17.7552 24.2905 18.0632 23.7905 18.4872 23.4465C18.9112 23.0945 19.4712 22.9185 20.1672 22.9185C21.1432 22.9185 21.8712 23.3065 22.3512 24.0825C22.8312 24.8505 23.0712 25.9305 23.0712 27.3225ZM18.5592 27.3225C18.5592 28.4425 18.6792 29.2825 18.9192 29.8425C19.1592 30.3945 19.5752 30.6705 20.1672 30.6705C20.7512 30.6705 21.1672 30.3945 21.4152 29.8425C21.6632 29.2905 21.7872 28.4505 21.7872 27.3225C21.7872 26.2105 21.6632 25.3785 21.4152 24.8265C21.1672 24.2665 20.7512 23.9865 20.1672 23.9865C19.5752 23.9865 19.1592 24.2665 18.9192 24.8265C18.6792 25.3785 18.5592 26.2105 18.5592 27.3225ZM24.3104 30.9105C24.3104 30.5985 24.3904 30.3785 24.5504 30.2505C24.7104 30.1225 24.9024 30.0585 25.1264 30.0585C25.3504 30.0585 25.5424 30.1225 25.7024 30.2505C25.8704 30.3785 25.9544 30.5985 25.9544 30.9105C25.9544 31.2225 25.8704 31.4465 25.7024 31.5825C25.5424 31.7185 25.3504 31.7865 25.1264 31.7865C24.9024 31.7865 24.7104 31.7185 24.5504 31.5825C24.3904 31.4465 24.3104 31.2225 24.3104 30.9105ZM32.9676 31.6185H27.2076V30.6345L29.4156 28.3905C29.8476 27.9505 30.2076 27.5705 30.4956 27.2505C30.7836 26.9225 30.9996 26.6105 31.1436 26.3145C31.2876 26.0105 31.3596 25.6825 31.3596 25.3305C31.3596 24.8985 31.2316 24.5705 30.9756 24.3465C30.7276 24.1225 30.3956 24.0105 29.9796 24.0105C29.5876 24.0105 29.2356 24.0825 28.9236 24.2265C28.6116 24.3705 28.2876 24.5785 27.9516 24.8505L27.2676 23.9985C27.6116 23.7105 28.0036 23.4625 28.4436 23.2545C28.8836 23.0385 29.4076 22.9305 30.0156 22.9305C30.8236 22.9305 31.4636 23.1385 31.9356 23.5545C32.4076 23.9705 32.6436 24.5265 32.6436 25.2225C32.6436 25.6785 32.5516 26.1025 32.3676 26.4945C32.1836 26.8865 31.9236 27.2745 31.5876 27.6585C31.2516 28.0425 30.8556 28.4505 30.3996 28.8825L28.8036 30.4305V30.4905H32.9676V31.6185ZM39.7268 27.3225C39.7268 28.2505 39.6308 29.0425 39.4388 29.6985C39.2468 30.3545 38.9348 30.8585 38.5028 31.2105C38.0788 31.5625 37.5188 31.7385 36.8228 31.7385C35.8388 31.7385 35.1108 31.3505 34.6388 30.5745C34.1748 29.7905 33.9428 28.7065 33.9428 27.3225C33.9428 26.3945 34.0348 25.6025 34.2188 24.9465C34.4108 24.2905 34.7188 23.7905 35.1428 23.4465C35.5668 23.0945 36.1268 22.9185 36.8228 22.9185C37.7988 22.9185 38.5268 23.3065 39.0068 24.0825C39.4868 24.8505 39.7268 25.9305 39.7268 27.3225ZM35.2148 27.3225C35.2148 28.4425 35.3348 29.2825 35.5748 29.8425C35.8148 30.3945 36.2308 30.6705 36.8228 30.6705C37.4068 30.6705 37.8228 30.3945 38.0708 29.8425C38.3188 29.2905 38.4428 28.4505 38.4428 27.3225C38.4428 26.2105 38.3188 25.3785 38.0708 24.8265C37.8228 24.2665 37.4068 23.9865 36.8228 23.9865C36.2308 23.9865 35.8148 24.2665 35.5748 24.8265C35.3348 25.3785 35.2148 26.2105 35.2148 27.3225ZM40.966 30.9105C40.966 30.5985 41.046 30.3785 41.206 30.2505C41.366 30.1225 41.558 30.0585 41.782 30.0585C42.006 30.0585 42.198 30.1225 42.358 30.2505C42.526 30.3785 42.61 30.5985 42.61 30.9105C42.61 31.2225 42.526 31.4465 42.358 31.5825C42.198 31.7185 42.006 31.7865 41.782 31.7865C41.558 31.7865 41.366 31.7185 41.206 31.5825C41.046 31.4465 40.966 31.2225 40.966 30.9105ZM47.7752 31.6185H46.5152V25.9305C46.5152 25.6265 46.5192 25.3545 46.5272 25.1145C46.5352 24.8665 46.5472 24.6265 46.5632 24.3945C46.4592 24.5065 46.3512 24.6105 46.2392 24.7065C46.1272 24.8025 45.9992 24.9105 45.8552 25.0305L44.9192 25.7865L44.2712 24.9705L46.7192 23.0505H47.7752V31.6185ZM56.3824 27.3225C56.3824 28.2505 56.2864 29.0425 56.0944 29.6985C55.9024 30.3545 55.5904 30.8585 55.1584 31.2105C54.7344 31.5625 54.1744 31.7385 53.4784 31.7385C52.4944 31.7385 51.7664 31.3505 51.2944 30.5745C50.8304 29.7905 50.5984 28.7065 50.5984 27.3225C50.5984 26.3945 50.6904 25.6025 50.8744 24.9465C51.0664 24.2905 51.3744 23.7905 51.7984 23.4465C52.2224 23.0945 52.7824 22.9185 53.4784 22.9185C54.4544 22.9185 55.1824 23.3065 55.6624 24.0825C56.1424 24.8505 56.3824 25.9305 56.3824 27.3225ZM51.8704 27.3225C51.8704 28.4425 51.9904 29.2825 52.2304 29.8425C52.4704 30.3945 52.8864 30.6705 53.4784 30.6705C54.0624 30.6705 54.4784 30.3945 54.7264 29.8425C54.9744 29.2905 55.0984 28.4505 55.0984 27.3225C55.0984 26.2105 54.9744 25.3785 54.7264 24.8265C54.4784 24.2665 54.0624 23.9865 53.4784 23.9865C52.8864 23.9865 52.4704 24.2665 52.2304 24.8265C51.9904 25.3785 51.8704 26.2105 51.8704 27.3225ZM63.1296 27.3225C63.1296 28.2505 63.0336 29.0425 62.8416 29.6985C62.6496 30.3545 62.3376 30.8585 61.9056 31.2105C61.4816 31.5625 60.9216 31.7385 60.2256 31.7385C59.2416 31.7385 58.5136 31.3505 58.0416 30.5745C57.5776 29.7905 57.3456 28.7065 57.3456 27.3225C57.3456 26.3945 57.4376 25.6025 57.6216 24.9465C57.8136 24.2905 58.1216 23.7905 58.5456 23.4465C58.9696 23.0945 59.5296 22.9185 60.2256 22.9185C61.2016 22.9185 61.9296 23.3065 62.4096 24.0825C62.8896 24.8505 63.1296 25.9305 63.1296 27.3225ZM58.6176 27.3225C58.6176 28.4425 58.7376 29.2825 58.9776 29.8425C59.2176 30.3945 59.6336 30.6705 60.2256 30.6705C60.8096 30.6705 61.2256 30.3945 61.4736 29.8425C61.7216 29.2905 61.8456 28.4505 61.8456 27.3225C61.8456 26.2105 61.7216 25.3785 61.4736 24.8265C61.2256 24.2665 60.8096 23.9865 60.2256 23.9865C59.6336 23.9865 59.2176 24.2665 58.9776 24.8265C58.7376 25.3785 58.6176 26.2105 58.6176 27.3225ZM64.3688 30.9105C64.3688 30.5985 64.4488 30.3785 64.6088 30.2505C64.7688 30.1225 64.9608 30.0585 65.1848 30.0585C65.4088 30.0585 65.6008 30.1225 65.7608 30.2505C65.9288 30.3785 66.0128 30.5985 66.0128 30.9105C66.0128 31.2225 65.9288 31.4465 65.7608 31.5825C65.6008 31.7185 65.4088 31.7865 65.1848 31.7865C64.9608 31.7865 64.7688 31.7185 64.6088 31.5825C64.4488 31.4465 64.3688 31.2225 64.3688 30.9105ZM73.0381 27.3225C73.0381 28.2505 72.9421 29.0425 72.7501 29.6985C72.5581 30.3545 72.2461 30.8585 71.8141 31.2105C71.3901 31.5625 70.8301 31.7385 70.1341 31.7385C69.1501 31.7385 68.4221 31.3505 67.9501 30.5745C67.4861 29.7905 67.2541 28.7065 67.2541 27.3225C67.2541 26.3945 67.3461 25.6025 67.5301 24.9465C67.7221 24.2905 68.0301 23.7905 68.4541 23.4465C68.8781 23.0945 69.4381 22.9185 70.1341 22.9185C71.1101 22.9185 71.8381 23.3065 72.3181 24.0825C72.7981 24.8505 73.0381 25.9305 73.0381 27.3225ZM68.5261 27.3225C68.5261 28.4425 68.6461 29.2825 68.8861 29.8425C69.1261 30.3945 69.5421 30.6705 70.1341 30.6705C70.7181 30.6705 71.1341 30.3945 71.3821 29.8425C71.6301 29.2905 71.7541 28.4505 71.7541 27.3225C71.7541 26.2105 71.6301 25.3785 71.3821 24.8265C71.1341 24.2665 70.7181 23.9865 70.1341 23.9865C69.5421 23.9865 69.1261 24.2665 68.8861 24.8265C68.6461 25.3785 68.5261 26.2105 68.5261 27.3225Z" fill="white"/>
</svg>
