<svg width="140" height="71" viewBox="0 0 140 71" fill="none" xmlns="http://www.w3.org/2000/svg">
<rect width="140" height="50" fill="#EEEEEE"/>
<path d="M20.28 25.584V26.224H29.64V25.584H20.28ZM19.56 28.016V28.672H30.12V28.016H19.56ZM22.68 24.24V28.368H23.416V24.24H22.68ZM26.36 24.24V28.368H27.08V24.24H26.36ZM25.848 29.344C27.16 29.952 28.456 30.736 29.208 31.408L29.88 30.992C29.064 30.336 27.672 29.568 26.392 28.976L25.848 29.344ZM23.192 28.96C22.392 29.696 21.112 30.432 19.96 30.928C20.168 31.04 20.456 31.296 20.6 31.44C21.704 30.896 23.032 30.032 23.912 29.2L23.192 28.96ZM20.536 19.344V19.952H23.688V21.232H20.536V21.856H24.376V19.344H20.536ZM25.672 19.36V19.968H28.856V21.248H25.672V21.872H29.576V19.36H25.672ZM25.352 19.36V22.688C25.352 23.6 25.576 23.904 26.472 23.904C26.696 23.904 28.6 23.904 28.984 23.904C29.416 23.904 29.832 23.888 30.04 23.84C30.008 23.68 29.976 23.424 29.96 23.232C29.704 23.28 29.24 23.296 28.952 23.296C28.616 23.296 26.84 23.296 26.488 23.296C26.104 23.296 26.024 23.168 26.024 22.704V19.36H25.352ZM20.2 24.288C20.44 24.144 20.872 24.032 24.616 23.328C24.6 23.184 24.584 22.944 24.6 22.752L20.584 23.424L20.184 23.712L20.2 24.288ZM20.2 24.288C20.2 24 20.904 23.584 20.904 23.584V19.344H20.232V22.752C20.232 23.344 20.024 23.504 19.864 23.584C19.976 23.776 20.136 24.096 20.2 24.288ZM16.2 19.136C16.904 19.92 17.768 21.024 18.184 21.68L18.808 21.264C18.376 20.624 17.512 19.584 16.792 18.8L16.2 19.136ZM15.8 22.336V23.024H18.696V22.336H15.8ZM18.28 29.888L17.768 30.176C18.984 32.576 21.176 32.976 25 32.976C26.696 32.976 28.728 32.944 30.152 32.848C30.2 32.64 30.28 32.256 30.424 32.064C28.872 32.192 26.68 32.256 24.984 32.256C21.592 32.256 19.352 31.952 18.28 29.888ZM18.648 26.384V26.544C18.232 29.488 17.096 31.568 15.56 32.688C15.736 32.8 15.976 33.072 16.104 33.248C17.688 32.016 18.904 29.808 19.4 26.512L18.984 26.368L18.84 26.384H18.648ZM15.992 27.264C16.104 27.168 16.504 27.056 16.888 27.056H18.856V26.384H16.504L15.992 26.624V27.264ZM15.992 27.264C15.992 27.024 16.68 26.688 16.68 26.688C17.432 25.696 18.68 23.552 19.304 22.48L18.728 22.256L18.456 22.368V22.416C18.04 23.232 16.744 25.552 16.328 26.032C16.12 26.32 15.864 26.416 15.656 26.48C15.752 26.656 15.944 27.056 15.992 27.264ZM31.896 20.592V21.344H37.304V20.592H31.896ZM34.184 20.944V28.736H34.952V20.944H34.184ZM31.624 29.296L31.928 30.048C33.464 29.504 35.592 28.736 37.624 28.016L37.496 27.312C35.32 28.064 33.064 28.848 31.624 29.296ZM37.304 19.488V20.192H46.296V19.488H37.304ZM38.904 25.216H44.92V27.088H38.904V25.216ZM38.904 27.728H44.92V29.632H38.904V27.728ZM38.904 22.72H44.92V24.576H38.904V22.72ZM38.168 22.048V30.288H45.688V22.048H38.168ZM41.416 19.776C41.272 20.544 41 21.664 40.744 22.368L41.464 22.528C41.736 21.856 42.024 20.816 42.28 19.936L41.416 19.776ZM39.912 30.72C39.128 31.424 37.464 32.208 36.072 32.656C36.232 32.8 36.472 33.056 36.584 33.216C37.992 32.752 39.64 31.952 40.648 31.136L39.912 30.72ZM42.696 31.184C43.848 31.76 45.256 32.64 45.96 33.232L46.568 32.752C45.832 32.144 44.424 31.296 43.304 30.752L42.696 31.184ZM47.752 25.344V26.192H62.296V25.344H47.752Z" fill="#D60C18"/>
<path d="M109.981 22.8H120.032C120.728 22.8 121.075 23.6398 120.583 24.132L115.56 29.1594C115.255 29.4641 114.759 29.4641 114.454 29.1594L109.431 24.132C108.938 23.6398 109.286 22.8 109.981 22.8V22.8Z" fill="black"/>
<path d="M21.426 57.298V57.928H27.894V57.298H21.426ZM21.132 60.07V60.7H28.328V60.07H21.132ZM22.826 55.338V60.42H23.442V55.338H22.826ZM26.032 55.338V60.42H26.662V55.338H26.032ZM22.014 62.03V68.036H22.644V62.632H26.788V67.994H27.432V62.03H22.014ZM22.364 64.382V64.97H27.082V64.382H22.364ZM22.364 66.762V67.35H27.054V66.762H22.364ZM16.568 58.922V59.524H20.292V58.922H16.568ZM15.826 61.358V61.974H20.726V61.358H15.826ZM16.176 62.982C16.442 63.85 16.68 64.956 16.736 65.698L17.254 65.558C17.17 64.83 16.946 63.71 16.666 62.856L16.176 62.982ZM15.686 66.902L15.854 67.532C17.156 67.224 19.004 66.776 20.74 66.342L20.698 65.782C18.822 66.202 16.904 66.65 15.686 66.902ZM19.914 62.674C19.76 63.472 19.452 64.648 19.2 65.362L19.634 65.544C19.9 64.858 20.208 63.766 20.46 62.884L19.914 62.674ZM18.094 59.216V66.762L18.668 66.678V59.216H18.094ZM18.416 55.254C17.758 56.682 16.624 58.026 15.504 58.88C15.616 59.034 15.812 59.384 15.868 59.538C17.03 58.558 18.248 57.06 19.004 55.492L18.416 55.254ZM18.066 56.416C18.99 57.088 20.04 57.998 20.656 58.67L21.034 58.124C20.376 57.466 19.354 56.598 18.388 55.926L18.066 56.416ZM31.184 55.562C31.534 56.136 31.94 56.906 32.108 57.41L32.724 57.144C32.528 56.682 32.136 55.912 31.758 55.338L31.184 55.562ZM34.418 63.682V64.312H42.37V63.682H34.418ZM37.092 56.346H40.438V59.216H37.092V56.346ZM36.462 55.73V59.818H41.096V55.73H36.462ZM35.202 56.682V61.638H35.818V56.682H35.202ZM35.524 61.022V61.638H40.942V63.976H41.586V61.022H35.524ZM37.946 61.316V62.94C37.946 64.508 37.624 66.328 34.166 67.574C34.306 67.686 34.488 67.924 34.586 68.064C38.198 66.72 38.59 64.746 38.59 62.94V61.316H37.946ZM30.078 59.524V60.112H34.082V59.524H30.078ZM30.078 61.372V61.96H34.082V61.372H30.078ZM29.602 57.662V58.264H34.53V57.662H29.602ZM30.386 63.234V63.836H33.424V66.622H30.386V67.224H34.04V63.234H30.386ZM30.078 63.234V67.91H30.68V63.234H30.078ZM38.338 65.39C39.584 66.202 41.18 67.336 42.006 68.022L42.44 67.532C41.6 66.86 39.99 65.754 38.772 64.97L38.338 65.39ZM44.302 59.538V60.112H48.194V59.538H44.302ZM44.302 61.344V61.918H48.208V61.344H44.302ZM43.728 57.732V58.334H48.754V57.732H43.728ZM44.554 63.164V63.78H47.592V66.552H44.554V67.154H48.194V63.164H44.554ZM44.274 63.164V67.854H44.848V63.164H44.274ZM45.268 55.562C45.646 56.122 46.108 56.892 46.304 57.382L46.85 57.032C46.612 56.556 46.178 55.828 45.772 55.268L45.268 55.562ZM48.726 61.246V61.89H53.64V61.246H48.726ZM54.2 56.164C54.2 62.674 54.074 67.35 55.516 67.742C56.048 67.924 56.356 67.49 56.468 65.544C56.356 65.46 56.132 65.278 56.006 65.138C55.95 66.216 55.824 67.084 55.74 67.07C54.774 66.846 54.844 62.492 54.872 56.164H54.2ZM50.84 56.57V68.036H51.484V56.57H50.84ZM48.866 56.164V56.822H54.508V56.164H48.866ZM60.458 59.202H67.514V60.616H60.458V59.202ZM60.458 61.19H67.514V62.618H60.458V61.19ZM60.458 57.256H67.514V58.642H60.458V57.256ZM59.8 56.668V63.192H68.186V56.668H59.8ZM63.72 55.184C63.58 55.646 63.272 56.346 63.02 56.808L63.608 56.962C63.86 56.556 64.196 55.94 64.462 55.38L63.72 55.184ZM60.752 64.214V66.706C60.752 67.602 61.13 67.798 62.544 67.798C62.852 67.798 65.778 67.798 66.1 67.798C67.318 67.798 67.584 67.406 67.682 65.726C67.486 65.684 67.206 65.586 67.024 65.46C66.968 66.944 66.856 67.154 66.058 67.154C65.456 67.154 62.992 67.154 62.53 67.154C61.592 67.154 61.41 67.07 61.41 66.692V64.214H60.752ZM62.894 63.626C63.65 64.284 64.504 65.222 64.896 65.852L65.456 65.474C65.05 64.872 64.182 63.948 63.412 63.304L62.894 63.626ZM67.836 64.368C68.508 65.194 69.208 66.356 69.474 67.084L70.104 66.804C69.824 66.062 69.124 64.928 68.438 64.116L67.836 64.368ZM59.24 64.326C58.904 65.124 58.344 66.356 57.756 67.112L58.358 67.406C58.918 66.622 59.436 65.404 59.8 64.564L59.24 64.326Z" fill="#D60C18"/>
</svg>
