<svg width="230" height="61" viewBox="0 0 230 61" fill="none" xmlns="http://www.w3.org/2000/svg">
<rect x="0.5" y="11.5" width="229" height="49" stroke="#939EA7"/>
<rect x="14" width="75" height="21" fill="white"/>
<path d="M19.944 8.024V8.516H26.376V8.024H19.944ZM20.244 9.428V9.896H26.148V9.428H20.244ZM19.836 10.88V11.384H26.472V10.88H19.836ZM22.812 6.992V11.144H23.364V6.992H22.812ZM25.14 12.236V17.18C25.14 17.312 25.104 17.36 24.948 17.36C24.792 17.372 24.312 17.372 23.7 17.348C23.796 17.504 23.868 17.72 23.904 17.864C24.636 17.864 25.104 17.864 25.368 17.78C25.62 17.684 25.692 17.516 25.692 17.168V12.236H25.14ZM20.904 13.808V14.288H25.476V13.808H20.904ZM20.904 15.38V15.848H25.476V15.38H20.904ZM20.628 12.236V14.48C20.628 15.464 20.544 16.712 19.824 17.672C19.956 17.732 20.16 17.936 20.232 18.056C21.036 17.036 21.18 15.572 21.18 14.48V12.236H20.628ZM20.94 12.236V12.728H25.38V12.236H20.94ZM15.852 10.496V11H19.284V10.496H15.852ZM16.224 13.748V14.264H18.72V16.652H16.224V17.168H19.248V13.748H16.224ZM15.948 13.748V17.756H16.476V13.748H15.948ZM15.864 12.128V12.632H19.308V12.128H15.864ZM15.588 9.032V9.548H19.668V9.032H15.588ZM17.112 7.172C17.34 7.676 17.604 8.348 17.712 8.78L18.228 8.576C18.108 8.156 17.844 7.496 17.592 7.004L17.112 7.172ZM33.588 9.98V10.46H36.924V9.98H33.588ZM32.892 13.172V13.664H34.836V13.172H32.892ZM32.844 14.948V15.44H34.8V14.948H32.844ZM36.06 11.672V15.98H36.528V11.672H36.06ZM34.656 11.456V17.168C34.656 17.288 34.62 17.312 34.5 17.324C34.392 17.324 34.008 17.336 33.552 17.324C33.636 17.456 33.708 17.672 33.732 17.804C34.308 17.804 34.656 17.804 34.872 17.708C35.088 17.624 35.148 17.468 35.148 17.168V11.456H34.656ZM37.512 11.276V17.108C37.512 17.252 37.464 17.288 37.332 17.3C37.176 17.3 36.708 17.3 36.12 17.288C36.204 17.432 36.276 17.636 36.3 17.768C37.02 17.768 37.44 17.768 37.692 17.684C37.932 17.588 38.004 17.432 38.004 17.108V11.276H37.512ZM35.196 6.908C34.536 8.168 33.312 9.404 32.04 10.088C32.172 10.184 32.34 10.364 32.436 10.484C33.744 9.728 34.992 8.444 35.7 7.088L35.196 6.908ZM35.388 7.34L34.932 7.508C35.796 8.828 36.864 9.716 38.112 10.472C38.208 10.304 38.376 10.136 38.508 10.028C37.296 9.356 36.216 8.552 35.388 7.34ZM32.832 11.456V11.948H34.788V11.456H32.832ZM32.604 11.456V13.976C32.604 15.056 32.52 16.472 31.872 17.528C31.992 17.6 32.172 17.78 32.256 17.876C32.976 16.724 33.096 15.152 33.096 13.988V11.456H32.604ZM27.696 8.348V8.888H31.968V8.348H27.696ZM27.576 15.224V15.752H32.004V15.224H27.576ZM29.616 6.992V10.232H30.132V6.992H29.616ZM29.64 10.172V13.748H29.604V17.876H30.144V13.748H30.108V10.172H29.64ZM28.476 12.272H31.236V13.664H28.476V12.272ZM28.476 10.424H31.236V11.804H28.476V10.424ZM27.972 9.932V14.156H31.728V9.932H27.972ZM41.712 7.76V8.336H45.108V7.76H41.712ZM44.808 7.76C44.808 9.896 45.12 14.864 50.052 17.852C50.16 17.72 50.4 17.492 50.532 17.396C45.624 14.456 45.384 9.812 45.384 7.76H44.808ZM44.568 9.944C43.776 13.472 42.252 15.944 39.492 17.408C39.648 17.528 39.912 17.756 40.02 17.876C42.756 16.28 44.328 13.784 45.204 10.064L44.568 9.944ZM57.2964 17.168C58.2084 17.168 58.8204 16.856 59.3364 16.532L59.0604 16.016C58.5804 16.352 58.0524 16.568 57.3684 16.568C55.9764 16.568 55.0524 15.476 55.0284 13.928H59.5644C59.5884 13.76 59.6004 13.592 59.6004 13.424C59.6004 11.552 58.6644 10.448 57.1164 10.448C55.6764 10.448 54.3084 11.732 54.3084 13.82C54.3084 15.92 55.6404 17.168 57.2964 17.168ZM55.0164 13.376C55.1604 11.9 56.0844 11.036 57.1284 11.036C58.2444 11.036 58.9524 11.828 58.9524 13.376H55.0164ZM60.7507 13.988H63.7027V13.4H60.7507V13.988ZM65.4068 17H66.1148V12.212C66.7868 11.456 67.3988 11.072 67.9628 11.072C68.8988 11.072 69.3428 11.684 69.3428 13.004V17H70.0268V12.212C70.7228 11.456 71.3108 11.072 71.8748 11.072C72.8228 11.072 73.2668 11.684 73.2668 13.004V17H73.9628V12.908C73.9628 11.264 73.3148 10.448 72.0428 10.448C71.2988 10.448 70.6028 10.952 69.8828 11.732C69.6548 10.952 69.1388 10.448 68.1188 10.448C67.3867 10.448 66.6788 10.94 66.1028 11.588H66.0788L65.9948 10.604H65.4068V17ZM77.6743 17.168C78.5023 17.168 79.2703 16.712 79.9063 16.196H79.9423L80.0143 17H80.6023V12.944C80.6023 11.528 80.0503 10.448 78.5263 10.448C77.4823 10.448 76.5943 10.94 76.1143 11.276L76.4143 11.792C76.8703 11.456 77.5903 11.048 78.4423 11.048C79.6543 11.048 79.9183 12.032 79.8943 12.98C77.0743 13.304 75.8143 13.976 75.8143 15.392C75.8143 16.58 76.6543 17.168 77.6743 17.168ZM77.8183 16.568C77.1103 16.568 76.5223 16.232 76.5223 15.356C76.5223 14.384 77.3743 13.784 79.8943 13.508V15.584C79.1503 16.232 78.5263 16.568 77.8183 16.568ZM82.8208 17H83.5288V10.604H82.8208V17ZM83.1808 9.104C83.5048 9.104 83.7328 8.888 83.7328 8.516C83.7328 8.192 83.5048 7.964 83.1808 7.964C82.8568 7.964 82.6288 8.192 82.6288 8.516C82.6288 8.888 82.8568 9.104 83.1808 9.104ZM86.7548 17.168C86.9828 17.168 87.1028 17.132 87.2348 17.096L87.1268 16.532C86.9948 16.556 86.9468 16.556 86.8868 16.556C86.7188 16.556 86.6108 16.424 86.6108 16.124V7.472H85.9028V16.052C85.9028 16.796 86.1788 17.168 86.7548 17.168Z" fill="#003A9F"/>
</svg>
