<svg width="230" height="61" viewBox="0 0 230 61" fill="none" xmlns="http://www.w3.org/2000/svg">
<rect x="0.5" y="11.5" width="229" height="49" stroke="#939EA7"/>
<rect x="14" width="75" height="21" fill="white"/>
<path d="M19.944 8.024V8.516H26.376V8.024H19.944ZM20.244 9.428V9.896H26.148V9.428H20.244ZM19.836 10.88V11.384H26.472V10.88H19.836ZM22.812 6.992V11.144H23.364V6.992H22.812ZM25.14 12.236V17.18C25.14 17.312 25.104 17.36 24.948 17.36C24.792 17.372 24.312 17.372 23.7 17.348C23.796 17.504 23.868 17.72 23.904 17.864C24.636 17.864 25.104 17.864 25.368 17.78C25.62 17.684 25.692 17.516 25.692 17.168V12.236H25.14ZM20.904 13.808V14.288H25.476V13.808H20.904ZM20.904 15.38V15.848H25.476V15.38H20.904ZM20.628 12.236V14.48C20.628 15.464 20.544 16.712 19.824 17.672C19.956 17.732 20.16 17.936 20.232 18.056C21.036 17.036 21.18 15.572 21.18 14.48V12.236H20.628ZM20.94 12.236V12.728H25.38V12.236H20.94ZM15.852 10.496V11H19.284V10.496H15.852ZM16.224 13.748V14.264H18.72V16.652H16.224V17.168H19.248V13.748H16.224ZM15.948 13.748V17.756H16.476V13.748H15.948ZM15.864 12.128V12.632H19.308V12.128H15.864ZM15.588 9.032V9.548H19.668V9.032H15.588ZM17.112 7.172C17.34 7.676 17.604 8.348 17.712 8.78L18.228 8.576C18.108 8.156 17.844 7.496 17.592 7.004L17.112 7.172ZM33.588 9.98V10.46H36.924V9.98H33.588ZM32.892 13.172V13.664H34.836V13.172H32.892ZM32.844 14.948V15.44H34.8V14.948H32.844ZM36.06 11.672V15.98H36.528V11.672H36.06ZM34.656 11.456V17.168C34.656 17.288 34.62 17.312 34.5 17.324C34.392 17.324 34.008 17.336 33.552 17.324C33.636 17.456 33.708 17.672 33.732 17.804C34.308 17.804 34.656 17.804 34.872 17.708C35.088 17.624 35.148 17.468 35.148 17.168V11.456H34.656ZM37.512 11.276V17.108C37.512 17.252 37.464 17.288 37.332 17.3C37.176 17.3 36.708 17.3 36.12 17.288C36.204 17.432 36.276 17.636 36.3 17.768C37.02 17.768 37.44 17.768 37.692 17.684C37.932 17.588 38.004 17.432 38.004 17.108V11.276H37.512ZM35.196 6.908C34.536 8.168 33.312 9.404 32.04 10.088C32.172 10.184 32.34 10.364 32.436 10.484C33.744 9.728 34.992 8.444 35.7 7.088L35.196 6.908ZM35.388 7.34L34.932 7.508C35.796 8.828 36.864 9.716 38.112 10.472C38.208 10.304 38.376 10.136 38.508 10.028C37.296 9.356 36.216 8.552 35.388 7.34ZM32.832 11.456V11.948H34.788V11.456H32.832ZM32.604 11.456V13.976C32.604 15.056 32.52 16.472 31.872 17.528C31.992 17.6 32.172 17.78 32.256 17.876C32.976 16.724 33.096 15.152 33.096 13.988V11.456H32.604ZM27.696 8.348V8.888H31.968V8.348H27.696ZM27.576 15.224V15.752H32.004V15.224H27.576ZM29.616 6.992V10.232H30.132V6.992H29.616ZM29.64 10.172V13.748H29.604V17.876H30.144V13.748H30.108V10.172H29.64ZM28.476 12.272H31.236V13.664H28.476V12.272ZM28.476 10.424H31.236V11.804H28.476V10.424ZM27.972 9.932V14.156H31.728V9.932H27.972ZM41.712 7.76V8.336H45.108V7.76H41.712ZM44.808 7.76C44.808 9.896 45.12 14.864 50.052 17.852C50.16 17.72 50.4 17.492 50.532 17.396C45.624 14.456 45.384 9.812 45.384 7.76H44.808ZM44.568 9.944C43.776 13.472 42.252 15.944 39.492 17.408C39.648 17.528 39.912 17.756 40.02 17.876C42.756 16.28 44.328 13.784 45.204 10.064L44.568 9.944ZM57.2964 17.168C58.2084 17.168 58.8204 16.856 59.3364 16.532L59.0604 16.016C58.5804 16.352 58.0524 16.568 57.3684 16.568C55.9764 16.568 55.0524 15.476 55.0284 13.928H59.5644C59.5884 13.76 59.6004 13.592 59.6004 13.424C59.6004 11.552 58.6644 10.448 57.1164 10.448C55.6764 10.448 54.3084 11.732 54.3084 13.82C54.3084 15.92 55.6404 17.168 57.2964 17.168ZM55.0164 13.376C55.1604 11.9 56.0844 11.036 57.1284 11.036C58.2444 11.036 58.9524 11.828 58.9524 13.376H55.0164ZM60.7507 13.988H63.7027V13.4H60.7507V13.988ZM65.4068 17H66.1148V12.212C66.7868 11.456 67.3988 11.072 67.9628 11.072C68.8988 11.072 69.3428 11.684 69.3428 13.004V17H70.0268V12.212C70.7228 11.456 71.3108 11.072 71.8748 11.072C72.8228 11.072 73.2668 11.684 73.2668 13.004V17H73.9628V12.908C73.9628 11.264 73.3148 10.448 72.0428 10.448C71.2988 10.448 70.6028 10.952 69.8828 11.732C69.6548 10.952 69.1388 10.448 68.1188 10.448C67.3867 10.448 66.6788 10.94 66.1028 11.588H66.0788L65.9948 10.604H65.4068V17ZM77.6743 17.168C78.5023 17.168 79.2703 16.712 79.9063 16.196H79.9423L80.0143 17H80.6023V12.944C80.6023 11.528 80.0503 10.448 78.5263 10.448C77.4823 10.448 76.5943 10.94 76.1143 11.276L76.4143 11.792C76.8703 11.456 77.5903 11.048 78.4423 11.048C79.6543 11.048 79.9183 12.032 79.8943 12.98C77.0743 13.304 75.8143 13.976 75.8143 15.392C75.8143 16.58 76.6543 17.168 77.6743 17.168ZM77.8183 16.568C77.1103 16.568 76.5223 16.232 76.5223 15.356C76.5223 14.384 77.3743 13.784 79.8943 13.508V15.584C79.1503 16.232 78.5263 16.568 77.8183 16.568ZM82.8208 17H83.5288V10.604H82.8208V17ZM83.1808 9.104C83.5048 9.104 83.7328 8.888 83.7328 8.516C83.7328 8.192 83.5048 7.964 83.1808 7.964C82.8568 7.964 82.6288 8.192 82.6288 8.516C82.6288 8.888 82.8568 9.104 83.1808 9.104ZM86.7548 17.168C86.9828 17.168 87.1028 17.132 87.2348 17.096L87.1268 16.532C86.9948 16.556 86.9468 16.556 86.8868 16.556C86.7188 16.556 86.6108 16.424 86.6108 16.124V7.472H85.9028V16.052C85.9028 16.796 86.1788 17.168 86.7548 17.168Z" fill="#48545D"/>
<path d="M21.1797 31.3047L17.2422 42H16.2422L20.5391 30.625H21.2344L21.1797 31.3047ZM24.7578 42L20.8125 31.3047L20.7578 30.625H21.4531L25.7578 42H24.7578ZM24.0547 37.9844V38.8125H18.0156V37.9844H24.0547ZM31.3594 36.5312H28.1562L28.1406 35.7188H30.8984C31.4609 35.7188 31.9401 35.638 32.3359 35.4766C32.7318 35.3151 33.0312 35.0755 33.2344 34.7578C33.4427 34.4349 33.5469 34.0391 33.5469 33.5703C33.5469 33.0911 33.4453 32.6953 33.2422 32.3828C33.0391 32.0651 32.7344 31.8307 32.3281 31.6797C31.9219 31.5286 31.4115 31.4531 30.7969 31.4531H28.4062V42H27.4453V30.625H30.7969C31.375 30.625 31.8932 30.6823 32.3516 30.7969C32.8099 30.9115 33.2005 31.0911 33.5234 31.3359C33.8464 31.5807 34.0911 31.8906 34.2578 32.2656C34.4297 32.6354 34.5156 33.0781 34.5156 33.5938C34.5156 34.0625 34.4115 34.487 34.2031 34.8672C33.9948 35.2422 33.7005 35.5495 33.3203 35.7891C32.9453 36.0234 32.4948 36.1693 31.9688 36.2266L31.3594 36.5312ZM31.2891 42H27.8516L28.3438 41.1797H31.2891C31.8516 41.1797 32.3307 41.0859 32.7266 40.8984C33.1276 40.7057 33.4349 40.4323 33.6484 40.0781C33.862 39.724 33.9688 39.3021 33.9688 38.8125C33.9688 38.3802 33.875 37.9922 33.6875 37.6484C33.5 37.3047 33.2135 37.0339 32.8281 36.8359C32.4427 36.6328 31.9531 36.5312 31.3594 36.5312H29.3672L29.3828 35.7188H32.2031L32.375 36.0078C32.8854 36.0599 33.3307 36.2188 33.7109 36.4844C34.0964 36.7448 34.3932 37.0755 34.6016 37.4766C34.8151 37.8776 34.9219 38.3177 34.9219 38.7969C34.9219 39.4844 34.7682 40.0677 34.4609 40.5469C34.1589 41.0208 33.7344 41.3828 33.1875 41.6328C32.6458 41.8776 32.013 42 31.2891 42ZM44.3438 38.4531H45.3047C45.2266 39.2188 45.0156 39.8802 44.6719 40.4375C44.3281 40.9896 43.8594 41.4141 43.2656 41.7109C42.6719 42.0078 41.9557 42.1562 41.1172 42.1562C40.4714 42.1562 39.8854 42.0339 39.3594 41.7891C38.8385 41.5443 38.3906 41.1979 38.0156 40.75C37.6406 40.2969 37.3516 39.7552 37.1484 39.125C36.9453 38.4948 36.8438 37.7943 36.8438 37.0234V35.6016C36.8438 34.8307 36.9453 34.1328 37.1484 33.5078C37.3516 32.8776 37.6432 32.3359 38.0234 31.8828C38.4036 31.4297 38.8594 31.0807 39.3906 30.8359C39.9219 30.5911 40.5208 30.4688 41.1875 30.4688C41.9948 30.4688 42.6927 30.6172 43.2812 30.9141C43.8698 31.2057 44.3333 31.6276 44.6719 32.1797C45.0156 32.7318 45.2266 33.3984 45.3047 34.1797H44.3438C44.2708 33.5651 44.1094 33.0443 43.8594 32.6172C43.6094 32.1901 43.263 31.8646 42.8203 31.6406C42.3828 31.4115 41.8385 31.2969 41.1875 31.2969C40.6562 31.2969 40.1823 31.3984 39.7656 31.6016C39.349 31.8047 38.9948 32.0964 38.7031 32.4766C38.4115 32.8516 38.1875 33.3021 38.0312 33.8281C37.8802 34.3542 37.8047 34.9401 37.8047 35.5859V37.0234C37.8047 37.6484 37.8776 38.224 38.0234 38.75C38.1693 39.276 38.3828 39.7318 38.6641 40.1172C38.9505 40.5026 39.2995 40.8021 39.7109 41.0156C40.1224 41.2292 40.5911 41.3359 41.1172 41.3359C41.7891 41.3359 42.349 41.2292 42.7969 41.0156C43.25 40.7969 43.6016 40.474 43.8516 40.0469C44.1016 39.6198 44.2656 39.0885 44.3438 38.4531ZM50.7578 42H48.1797L48.1953 41.1797H50.7578C51.5755 41.1797 52.2786 40.9974 52.8672 40.6328C53.4609 40.263 53.9193 39.7526 54.2422 39.1016C54.5651 38.4505 54.7266 37.6953 54.7266 36.8359V35.7734C54.7266 35.1172 54.6328 34.5234 54.4453 33.9922C54.263 33.4609 54 33.0078 53.6562 32.6328C53.3125 32.2526 52.901 31.9609 52.4219 31.7578C51.9479 31.5547 51.4167 31.4531 50.8281 31.4531H48.1328V30.625H50.8281C51.5365 30.625 52.1849 30.7474 52.7734 30.9922C53.3672 31.2318 53.8802 31.5807 54.3125 32.0391C54.75 32.4922 55.0859 33.0365 55.3203 33.6719C55.5599 34.3073 55.6797 35.0156 55.6797 35.7969V36.8359C55.6797 37.6172 55.5599 38.3255 55.3203 38.9609C55.0859 39.5964 54.75 40.1406 54.3125 40.5938C53.875 41.0469 53.3568 41.3958 52.7578 41.6406C52.1589 41.8802 51.4922 42 50.7578 42ZM48.6094 30.625V42H47.6484V30.625H48.6094ZM65.2031 41.1797V42H58.8047V41.1797H65.2031ZM59.0938 30.625V42H58.1328V30.625H59.0938ZM64.4062 35.7266V36.5469H58.8047V35.7266H64.4062ZM65.1641 30.625V31.4531H58.8047V30.625H65.1641ZM68.2031 30.625V42H67.2422V30.625H68.2031ZM73.5 35.8594V36.6875H67.8828V35.8594H73.5ZM74.2891 30.625V31.4531H67.8828V30.625H74.2891ZM84.4453 36.5938V40.6406C84.3151 40.8333 84.0911 41.0469 83.7734 41.2812C83.4557 41.5156 83.0286 41.7214 82.4922 41.8984C81.9557 42.0703 81.2891 42.1562 80.4922 42.1562C79.8255 42.1562 79.2135 42.0365 78.6562 41.7969C78.099 41.5573 77.6146 41.2109 77.2031 40.7578C76.7969 40.2995 76.4818 39.75 76.2578 39.1094C76.0391 38.4688 75.9297 37.75 75.9297 36.9531V35.5781C75.9297 34.7969 76.0312 34.0938 76.2344 33.4688C76.4375 32.8385 76.7318 32.2995 77.1172 31.8516C77.5026 31.4036 77.9661 31.0625 78.5078 30.8281C79.0547 30.5885 79.6667 30.4688 80.3438 30.4688C81.1875 30.4688 81.8984 30.6146 82.4766 30.9062C83.0547 31.1979 83.5052 31.599 83.8281 32.1094C84.1562 32.6146 84.3594 33.1875 84.4375 33.8281H83.4766C83.4036 33.375 83.2526 32.9583 83.0234 32.5781C82.7943 32.1927 82.4609 31.8828 82.0234 31.6484C81.5911 31.4141 81.0312 31.2969 80.3438 31.2969C79.7917 31.2969 79.2995 31.3984 78.8672 31.6016C78.4401 31.8047 78.0807 32.0938 77.7891 32.4688C77.4974 32.8438 77.276 33.2943 77.125 33.8203C76.974 34.3411 76.8984 34.9219 76.8984 35.5625V36.9531C76.8984 37.6198 76.9818 38.2214 77.1484 38.7578C77.3203 39.2943 77.5651 39.7552 77.8828 40.1406C78.2005 40.526 78.5807 40.8229 79.0234 41.0312C79.4661 41.2344 79.9583 41.3359 80.5 41.3359C81.0781 41.3359 81.5703 41.2812 81.9766 41.1719C82.3828 41.0625 82.7083 40.9323 82.9531 40.7812C83.2031 40.625 83.3828 40.4792 83.4922 40.3438V37.4141H80.4375V36.5938H84.4453ZM99.4375 37.9922C99.4167 38.4818 99.3438 38.9714 99.2188 39.4609C99.099 39.9505 98.9167 40.401 98.6719 40.8125C98.4323 41.2188 98.1224 41.5443 97.7422 41.7891C97.3672 42.0339 96.9167 42.1562 96.3906 42.1562C96.0573 42.1562 95.763 42.0964 95.5078 41.9766C95.2578 41.8568 95.0495 41.6849 94.8828 41.4609C94.7161 41.237 94.599 40.9661 94.5312 40.6484C94.4635 40.3255 94.4453 39.9661 94.4766 39.5703L94.8672 35.1172H95.6562L95.2656 39.5703C95.2292 39.987 95.2474 40.3229 95.3203 40.5781C95.3932 40.8281 95.4974 41.0208 95.6328 41.1562C95.7682 41.2865 95.9115 41.375 96.0625 41.4219C96.2188 41.4635 96.3594 41.4844 96.4844 41.4844C96.8333 41.4844 97.1406 41.3958 97.4062 41.2188C97.6719 41.0417 97.8984 40.7943 98.0859 40.4766C98.2734 40.1589 98.4193 39.7891 98.5234 39.3672C98.6276 38.9453 98.6901 38.487 98.7109 37.9922C98.7474 37.2057 98.7109 36.4818 98.6016 35.8203C98.4974 35.1589 98.3125 34.5703 98.0469 34.0547C97.7812 33.5339 97.4349 33.0938 97.0078 32.7344C96.5807 32.375 96.0677 32.1016 95.4688 31.9141C94.875 31.7266 94.1901 31.6328 93.4141 31.6328C92.7422 31.6328 92.112 31.7344 91.5234 31.9375C90.9401 32.1354 90.4089 32.4271 89.9297 32.8125C89.4505 33.1927 89.0339 33.6536 88.6797 34.1953C88.3307 34.737 88.0521 35.3516 87.8438 36.0391C87.6406 36.7214 87.5208 37.4635 87.4844 38.2656C87.4479 39.0417 87.4948 39.7656 87.625 40.4375C87.7552 41.1094 87.9635 41.7161 88.25 42.2578C88.5365 42.7995 88.8984 43.263 89.3359 43.6484C89.7734 44.0339 90.2812 44.3281 90.8594 44.5312C91.4427 44.7344 92.0938 44.8359 92.8125 44.8359C93.2708 44.8359 93.7344 44.7786 94.2031 44.6641C94.6771 44.5547 95.0729 44.4062 95.3906 44.2188L95.625 44.8438C95.2812 45.0729 94.8385 45.2448 94.2969 45.3594C93.7552 45.4792 93.25 45.5391 92.7812 45.5391C91.9896 45.5391 91.2656 45.4297 90.6094 45.2109C89.9583 44.9974 89.3802 44.6823 88.875 44.2656C88.375 43.8542 87.9583 43.3516 87.625 42.7578C87.2917 42.1693 87.0469 41.4974 86.8906 40.7422C86.7344 39.987 86.6745 39.1615 86.7109 38.2656C86.7474 37.3906 86.8776 36.5755 87.1016 35.8203C87.3307 35.0651 87.6406 34.388 88.0312 33.7891C88.4219 33.1849 88.888 32.6667 89.4297 32.2344C89.9714 31.8021 90.5781 31.4714 91.25 31.2422C91.9271 31.013 92.6589 30.8984 93.4453 30.8984C94.2786 30.8984 95.0234 31.0052 95.6797 31.2188C96.3411 31.4323 96.9141 31.7422 97.3984 32.1484C97.888 32.5495 98.2891 33.0391 98.6016 33.6172C98.9141 34.1953 99.1406 34.8516 99.2812 35.5859C99.4219 36.3203 99.474 37.1224 99.4375 37.9922ZM90.9844 38.6641C90.9427 39.0651 90.9401 39.4323 90.9766 39.7656C91.0182 40.099 91.0964 40.388 91.2109 40.6328C91.3255 40.8724 91.4792 41.0599 91.6719 41.1953C91.8646 41.3255 92.0938 41.3906 92.3594 41.3906C92.5573 41.3906 92.763 41.3542 92.9766 41.2812C93.1901 41.2031 93.3958 41.0755 93.5938 40.8984C93.7969 40.7214 93.987 40.4792 94.1641 40.1719C94.3411 39.8594 94.4922 39.4661 94.6172 38.9922L95 39.4688C94.875 39.9115 94.7161 40.2995 94.5234 40.6328C94.3359 40.9661 94.1198 41.2474 93.875 41.4766C93.6354 41.7005 93.3724 41.8698 93.0859 41.9844C92.8047 42.099 92.5052 42.1562 92.1875 42.1562C91.8229 42.1562 91.5026 42.0729 91.2266 41.9062C90.9505 41.7396 90.724 41.5026 90.5469 41.1953C90.375 40.888 90.2552 40.5208 90.1875 40.0938C90.1198 39.6667 90.1094 39.1901 90.1562 38.6641C90.2031 38.1276 90.2969 37.6328 90.4375 37.1797C90.5833 36.7214 90.7604 36.3151 90.9688 35.9609C91.1823 35.6016 91.4245 35.2969 91.6953 35.0469C91.9714 34.7969 92.2656 34.6068 92.5781 34.4766C92.8906 34.3411 93.2161 34.2734 93.5547 34.2734C94.0807 34.2734 94.4948 34.3594 94.7969 34.5312C95.099 34.6979 95.3854 34.8932 95.6562 35.1172L95.125 35.6328C94.9688 35.4557 94.763 35.3047 94.5078 35.1797C94.2578 35.0547 93.9583 34.9922 93.6094 34.9922C93.2917 34.9922 92.9896 35.0677 92.7031 35.2188C92.4167 35.3646 92.1536 35.5911 91.9141 35.8984C91.6797 36.2005 91.4818 36.5807 91.3203 37.0391C91.1589 37.4974 91.0469 38.0391 90.9844 38.6641ZM107.164 33.5469H108.031V41.8516C108.031 42.5859 107.891 43.2161 107.609 43.7422C107.333 44.2682 106.94 44.6719 106.43 44.9531C105.924 45.2344 105.328 45.375 104.641 45.375C104.292 45.375 103.932 45.3203 103.562 45.2109C103.198 45.1068 102.852 44.9453 102.523 44.7266C102.201 44.513 101.924 44.2474 101.695 43.9297L102.219 43.3594C102.562 43.776 102.93 44.0807 103.32 44.2734C103.711 44.4714 104.133 44.5703 104.586 44.5703C105.122 44.5703 105.576 44.4635 105.945 44.25C106.32 44.0365 106.604 43.7292 106.797 43.3281C106.995 42.9271 107.094 42.4453 107.094 41.8828V35.4062L107.164 33.5469ZM101.227 37.8594V37.6953C101.227 37.0391 101.299 36.4479 101.445 35.9219C101.596 35.3906 101.812 34.9375 102.094 34.5625C102.375 34.1823 102.716 33.8932 103.117 33.6953C103.523 33.4922 103.982 33.3906 104.492 33.3906C104.982 33.3906 105.417 33.4714 105.797 33.6328C106.177 33.7943 106.505 34.026 106.781 34.3281C107.057 34.6302 107.279 34.9896 107.445 35.4062C107.617 35.8229 107.742 36.2865 107.82 36.7969V38.8828C107.758 39.362 107.643 39.8021 107.477 40.2031C107.31 40.599 107.089 40.9453 106.812 41.2422C106.536 41.5339 106.203 41.7604 105.812 41.9219C105.427 42.0781 104.982 42.1562 104.477 42.1562C103.971 42.1562 103.518 42.0521 103.117 41.8438C102.716 41.6354 102.375 41.3411 102.094 40.9609C101.812 40.5755 101.596 40.1198 101.445 39.5938C101.299 39.0677 101.227 38.4896 101.227 37.8594ZM102.164 37.6953V37.8594C102.164 38.3542 102.214 38.8125 102.312 39.2344C102.411 39.6562 102.562 40.0234 102.766 40.3359C102.969 40.6484 103.227 40.8932 103.539 41.0703C103.852 41.2474 104.219 41.3359 104.641 41.3359C105.177 41.3359 105.628 41.2344 105.992 41.0312C106.357 40.8229 106.646 40.5495 106.859 40.2109C107.073 39.8672 107.229 39.4922 107.328 39.0859V36.6562C107.271 36.3802 107.182 36.099 107.062 35.8125C106.948 35.526 106.786 35.263 106.578 35.0234C106.375 34.7786 106.115 34.5833 105.797 34.4375C105.484 34.2865 105.104 34.2109 104.656 34.2109C104.229 34.2109 103.857 34.2995 103.539 34.4766C103.227 34.6536 102.969 34.901 102.766 35.2188C102.562 35.5312 102.411 35.8984 102.312 36.3203C102.214 36.7422 102.164 37.2005 102.164 37.6953ZM111.359 35.2969V42H110.422V33.5469H111.32L111.359 35.2969ZM111.188 37.25L110.734 37.0156C110.766 36.5156 110.859 36.0469 111.016 35.6094C111.177 35.1719 111.401 34.7865 111.688 34.4531C111.974 34.1198 112.318 33.8594 112.719 33.6719C113.12 33.4844 113.576 33.3906 114.086 33.3906C114.497 33.3906 114.87 33.4479 115.203 33.5625C115.542 33.6719 115.828 33.8464 116.062 34.0859C116.302 34.3203 116.487 34.6276 116.617 35.0078C116.747 35.388 116.812 35.8438 116.812 36.375V42H115.883V36.4062C115.883 35.8438 115.794 35.4036 115.617 35.0859C115.445 34.7682 115.203 34.5417 114.891 34.4062C114.583 34.2708 114.227 34.2031 113.82 34.2031C113.341 34.2031 112.935 34.3021 112.602 34.5C112.273 34.6927 112.005 34.9453 111.797 35.2578C111.594 35.5651 111.443 35.8958 111.344 36.25C111.245 36.599 111.193 36.9323 111.188 37.25ZM116.805 36.5156L116.18 36.5312C116.206 36.1198 116.299 35.7266 116.461 35.3516C116.628 34.9766 116.854 34.6432 117.141 34.3516C117.427 34.0547 117.768 33.8203 118.164 33.6484C118.565 33.4766 119.016 33.3906 119.516 33.3906C119.953 33.3906 120.344 33.4505 120.688 33.5703C121.031 33.6849 121.32 33.8698 121.555 34.125C121.794 34.375 121.977 34.6953 122.102 35.0859C122.227 35.4766 122.289 35.9453 122.289 36.4922V42H121.352V36.4844C121.352 35.8854 121.263 35.4219 121.086 35.0938C120.914 34.7604 120.674 34.5286 120.367 34.3984C120.06 34.2682 119.701 34.2031 119.289 34.2031C118.883 34.2083 118.526 34.2839 118.219 34.4297C117.911 34.5703 117.654 34.7578 117.445 34.9922C117.242 35.2214 117.086 35.4688 116.977 35.7344C116.872 36 116.815 36.2604 116.805 36.5156ZM129.805 40.4844V36.125C129.805 35.724 129.721 35.3776 129.555 35.0859C129.388 34.7943 129.143 34.5703 128.82 34.4141C128.497 34.2578 128.099 34.1797 127.625 34.1797C127.188 34.1797 126.797 34.2578 126.453 34.4141C126.115 34.5651 125.846 34.7708 125.648 35.0312C125.456 35.2865 125.359 35.5703 125.359 35.8828L124.422 35.875C124.422 35.5573 124.5 35.25 124.656 34.9531C124.812 34.6562 125.034 34.3906 125.32 34.1562C125.607 33.9219 125.948 33.737 126.344 33.6016C126.745 33.4609 127.185 33.3906 127.664 33.3906C128.268 33.3906 128.799 33.4922 129.258 33.6953C129.721 33.8984 130.083 34.2031 130.344 34.6094C130.604 35.0156 130.734 35.526 130.734 36.1406V40.2266C130.734 40.5182 130.755 40.8203 130.797 41.1328C130.844 41.4453 130.909 41.7031 130.992 41.9062V42H130C129.938 41.8125 129.888 41.5781 129.852 41.2969C129.82 41.0104 129.805 40.7396 129.805 40.4844ZM130.023 37.0781L130.039 37.7969H128.203C127.724 37.7969 127.294 37.8411 126.914 37.9297C126.539 38.013 126.221 38.138 125.961 38.3047C125.701 38.4661 125.5 38.6615 125.359 38.8906C125.224 39.1198 125.156 39.3802 125.156 39.6719C125.156 39.974 125.232 40.25 125.383 40.5C125.539 40.75 125.758 40.9505 126.039 41.1016C126.326 41.2474 126.664 41.3203 127.055 41.3203C127.576 41.3203 128.034 41.224 128.43 41.0312C128.831 40.8385 129.161 40.5859 129.422 40.2734C129.682 39.9609 129.857 39.6198 129.945 39.25L130.352 39.7891C130.284 40.0495 130.159 40.3177 129.977 40.5938C129.799 40.8646 129.568 41.1198 129.281 41.3594C128.995 41.5938 128.656 41.7865 128.266 41.9375C127.88 42.0833 127.443 42.1562 126.953 42.1562C126.401 42.1562 125.919 42.0521 125.508 41.8438C125.102 41.6354 124.784 41.3516 124.555 40.9922C124.331 40.6276 124.219 40.2161 124.219 39.7578C124.219 39.3411 124.307 38.9688 124.484 38.6406C124.661 38.3073 124.917 38.026 125.25 37.7969C125.589 37.5625 125.995 37.3854 126.469 37.2656C126.948 37.1406 127.484 37.0781 128.078 37.0781H130.023ZM134.281 33.5469V42H133.352V33.5469H134.281ZM133.188 31.1016C133.188 30.9245 133.242 30.776 133.352 30.6562C133.466 30.5312 133.622 30.4688 133.82 30.4688C134.018 30.4688 134.174 30.5312 134.289 30.6562C134.409 30.776 134.469 30.9245 134.469 31.1016C134.469 31.2734 134.409 31.4219 134.289 31.5469C134.174 31.6667 134.018 31.7266 133.82 31.7266C133.622 31.7266 133.466 31.6667 133.352 31.5469C133.242 31.4219 133.188 31.2734 133.188 31.1016ZM137.875 30V42H136.945V30H137.875ZM140.344 41.4297C140.344 41.2474 140.401 41.0938 140.516 40.9688C140.635 40.8385 140.797 40.7734 141 40.7734C141.208 40.7734 141.372 40.8359 141.492 40.9609C141.612 41.0859 141.672 41.2422 141.672 41.4297C141.672 41.6068 141.612 41.7578 141.492 41.8828C141.372 42.0078 141.208 42.0703 141 42.0703C140.797 42.0703 140.635 42.0078 140.516 41.8828C140.401 41.7578 140.344 41.6068 140.344 41.4297ZM147.375 41.3516C147.771 41.3516 148.141 41.2786 148.484 41.1328C148.833 40.9818 149.12 40.7604 149.344 40.4688C149.573 40.1719 149.703 39.8099 149.734 39.3828H150.625C150.599 39.9193 150.435 40.3984 150.133 40.8203C149.836 41.237 149.445 41.5651 148.961 41.8047C148.482 42.0391 147.953 42.1562 147.375 42.1562C146.786 42.1562 146.266 42.0495 145.812 41.8359C145.365 41.6224 144.99 41.3255 144.688 40.9453C144.385 40.5599 144.156 40.112 144 39.6016C143.849 39.0859 143.773 38.5312 143.773 37.9375V37.6094C143.773 37.0156 143.849 36.4635 144 35.9531C144.156 35.4375 144.385 34.9896 144.688 34.6094C144.99 34.224 145.365 33.9245 145.812 33.7109C146.26 33.4974 146.779 33.3906 147.367 33.3906C147.971 33.3906 148.513 33.513 148.992 33.7578C149.477 34.0026 149.862 34.349 150.148 34.7969C150.44 35.2448 150.599 35.776 150.625 36.3906H149.734C149.708 35.9375 149.589 35.5469 149.375 35.2188C149.161 34.8906 148.88 34.638 148.531 34.4609C148.182 34.2839 147.794 34.1953 147.367 34.1953C146.888 34.1953 146.479 34.2891 146.141 34.4766C145.802 34.6589 145.526 34.9115 145.312 35.2344C145.104 35.5521 144.951 35.9167 144.852 36.3281C144.753 36.7344 144.703 37.1615 144.703 37.6094V37.9375C144.703 38.3906 144.75 38.8229 144.844 39.2344C144.943 39.6406 145.096 40.0026 145.305 40.3203C145.518 40.638 145.794 40.8906 146.133 41.0781C146.477 41.2604 146.891 41.3516 147.375 41.3516ZM151.992 37.9062V37.6484C151.992 37.0339 152.081 36.4661 152.258 35.9453C152.435 35.4245 152.688 34.974 153.016 34.5938C153.349 34.2135 153.747 33.9193 154.211 33.7109C154.674 33.4974 155.19 33.3906 155.758 33.3906C156.331 33.3906 156.849 33.4974 157.312 33.7109C157.776 33.9193 158.174 34.2135 158.508 34.5938C158.841 34.974 159.096 35.4245 159.273 35.9453C159.451 36.4661 159.539 37.0339 159.539 37.6484V37.9062C159.539 38.5208 159.451 39.0885 159.273 39.6094C159.096 40.125 158.841 40.5729 158.508 40.9531C158.18 41.3333 157.784 41.6302 157.32 41.8438C156.857 42.0521 156.341 42.1562 155.773 42.1562C155.201 42.1562 154.682 42.0521 154.219 41.8438C153.755 41.6302 153.357 41.3333 153.023 40.9531C152.69 40.5729 152.435 40.125 152.258 39.6094C152.081 39.0885 151.992 38.5208 151.992 37.9062ZM152.922 37.6484V37.9062C152.922 38.3698 152.984 38.8099 153.109 39.2266C153.234 39.638 153.417 40.0052 153.656 40.3281C153.896 40.6458 154.193 40.8958 154.547 41.0781C154.901 41.2604 155.31 41.3516 155.773 41.3516C156.232 41.3516 156.635 41.2604 156.984 41.0781C157.339 40.8958 157.635 40.6458 157.875 40.3281C158.115 40.0052 158.294 39.638 158.414 39.2266C158.539 38.8099 158.602 38.3698 158.602 37.9062V37.6484C158.602 37.1901 158.539 36.7552 158.414 36.3438C158.294 35.9323 158.112 35.5651 157.867 35.2422C157.628 34.9193 157.331 34.6641 156.977 34.4766C156.622 34.2891 156.216 34.1953 155.758 34.1953C155.299 34.1953 154.893 34.2891 154.539 34.4766C154.19 34.6641 153.893 34.9193 153.648 35.2422C153.409 35.5651 153.227 35.9323 153.102 36.3438C152.982 36.7552 152.922 37.1901 152.922 37.6484ZM162.359 35.2969V42H161.422V33.5469H162.32L162.359 35.2969ZM162.188 37.25L161.734 37.0156C161.766 36.5156 161.859 36.0469 162.016 35.6094C162.177 35.1719 162.401 34.7865 162.688 34.4531C162.974 34.1198 163.318 33.8594 163.719 33.6719C164.12 33.4844 164.576 33.3906 165.086 33.3906C165.497 33.3906 165.87 33.4479 166.203 33.5625C166.542 33.6719 166.828 33.8464 167.062 34.0859C167.302 34.3203 167.487 34.6276 167.617 35.0078C167.747 35.388 167.812 35.8438 167.812 36.375V42H166.883V36.4062C166.883 35.8438 166.794 35.4036 166.617 35.0859C166.445 34.7682 166.203 34.5417 165.891 34.4062C165.583 34.2708 165.227 34.2031 164.82 34.2031C164.341 34.2031 163.935 34.3021 163.602 34.5C163.273 34.6927 163.005 34.9453 162.797 35.2578C162.594 35.5651 162.443 35.8958 162.344 36.25C162.245 36.599 162.193 36.9323 162.188 37.25ZM167.805 36.5156L167.18 36.5312C167.206 36.1198 167.299 35.7266 167.461 35.3516C167.628 34.9766 167.854 34.6432 168.141 34.3516C168.427 34.0547 168.768 33.8203 169.164 33.6484C169.565 33.4766 170.016 33.3906 170.516 33.3906C170.953 33.3906 171.344 33.4505 171.688 33.5703C172.031 33.6849 172.32 33.8698 172.555 34.125C172.794 34.375 172.977 34.6953 173.102 35.0859C173.227 35.4766 173.289 35.9453 173.289 36.4922V42H172.352V36.4844C172.352 35.8854 172.263 35.4219 172.086 35.0938C171.914 34.7604 171.674 34.5286 171.367 34.3984C171.06 34.2682 170.701 34.2031 170.289 34.2031C169.883 34.2083 169.526 34.2839 169.219 34.4297C168.911 34.5703 168.654 34.7578 168.445 34.9922C168.242 35.2214 168.086 35.4688 167.977 35.7344C167.872 36 167.815 36.2604 167.805 36.5156Z" fill="black"/>
</svg>
