<svg width="204" height="71" viewBox="0 0 204 71" fill="none" xmlns="http://www.w3.org/2000/svg">
<g clip-path="url(#clip0_811_3311)">
<path d="M92.7477 1.38123H0.301758V35.3812H92.7477V1.38123Z" fill="#D60C18"/>
<path d="M10.3163 11.0435C10.8218 11.3653 11.4332 11.4763 12.0194 11.3526C12.5789 11.2166 13.1352 11.062 13.6885 10.9044C14.6591 10.6262 15.6234 10.3264 16.6002 10.0637C17.0854 9.93383 17.5738 9.8102 18.0653 9.70202C18.2878 9.66711 18.507 9.61334 18.7205 9.54129C18.94 9.45474 19.1347 9.31565 19.3387 9.2322C19.6478 9.08693 19.9569 8.95402 20.2876 8.8242C21.2149 8.44711 23.1993 7.98038 22.7078 6.55238C22.5533 6.09183 22.0896 5.88783 21.6847 5.67456C21.2572 5.48817 20.7853 5.42811 20.3247 5.50147C19.8774 5.50681 19.4438 5.65641 19.0883 5.92802C18.6062 6.53074 17.8056 6.71311 17.2029 7.19529C16.9896 7.35602 16.6991 7.35911 16.4858 7.52293C16.3807 7.60329 16.3467 7.67129 16.22 7.70838C16.1094 7.7243 15.9979 7.73256 15.8862 7.73311C15.676 7.76092 15.4689 7.78874 15.268 7.82274C14.669 7.90183 14.0836 8.06196 13.5278 8.29874C13.2497 8.43469 12.983 8.59284 12.7303 8.77165C12.4862 8.93547 12.2543 8.87056 11.9762 8.88911C11.698 8.90765 11.4723 8.93547 11.2189 8.97256L10.4647 9.09929L10.0845 9.15493C9.95599 9.14585 9.82692 9.1616 9.70434 9.20129C9.61286 9.2814 9.55161 9.39045 9.53079 9.51026C9.50998 9.63006 9.53087 9.75338 9.58998 9.85965C9.80943 10.3171 9.84034 10.7653 10.3163 11.0435Z" fill="white"/>
<path d="M48.1122 10.382C48.5665 10.2614 48.9591 10.1594 49.2002 9.7205C49.2743 9.5845 49.3547 9.4485 49.4227 9.30941C49.5746 9.03816 49.6474 8.72977 49.6329 8.41923C49.5154 8.17637 49.3281 7.97406 49.0951 7.83814C48.6554 7.62215 48.1836 7.47913 47.698 7.41468C47.1354 7.29414 46.5482 7.15505 45.9794 7.08087C45.6427 7.0415 45.3016 7.06774 44.9749 7.15814C44.3282 7.33067 43.6974 7.55816 43.0894 7.83814C42.3909 8.14723 41.544 7.96177 40.8918 8.38832C40.6098 8.521 40.3061 8.60163 39.9954 8.62632C39.6091 8.71596 39.2443 8.8705 38.8673 8.99414C38.2213 9.20123 37.5753 9.40214 36.92 9.58141C36.4533 9.70814 35.968 9.58141 35.5043 9.80396C35.3245 9.93456 35.1343 10.0503 34.9356 10.1501C34.7285 10.2212 34.5183 10.317 34.3174 10.3881C33.5756 10.6478 32.772 10.827 32.0116 11.028C30.664 11.4916 29.1587 11.2907 27.774 11.5503C27.3722 11.6523 26.9518 11.711 26.652 12.0325C26.5531 12.5085 26.8993 12.6909 27.2083 12.9165C27.5174 13.1421 27.7863 13.5841 28.1573 13.819C28.4921 14.0043 28.8428 14.1594 29.2051 14.2827C30.0149 14.6103 30.7753 15.04 31.6469 15.21C32.126 15.3027 33.1089 15.417 33.5447 15.1265C34.0578 14.7834 34.6358 14.5454 35.1334 14.1745C35.3653 14.0014 35.5507 13.7758 35.7887 13.612C36.057 13.4645 36.317 13.3025 36.5676 13.1267C36.875 12.8132 37.2184 12.5372 37.5907 12.3045C38.0698 12.2241 38.518 11.6863 38.994 12.0232C39.2227 12.1283 39.1145 12.3323 39.1269 12.5394C39.1393 12.7465 39.2907 12.9969 39.2907 13.2441C39.2836 13.483 39.2452 13.72 39.1763 13.9489V14.3321C39.4143 18.9283 39.0156 23.2958 38.6138 27.9321C38.4283 28.504 38.654 29.0263 38.7838 29.5796C38.8017 29.7994 38.8495 30.0157 38.926 30.2225C39.1511 30.6204 39.4888 30.943 39.8965 31.1498C40.7156 31.4218 41.8623 31.5578 42.5083 30.8407C43.1667 30.5316 43.3707 29.9134 43.4665 29.2365C43.5597 28.6364 43.6206 28.0318 43.6489 27.4252C43.6483 26.9462 43.5753 26.47 43.4325 26.0127C43.3769 25.7747 43.3614 25.5305 43.3058 25.2925C43.2131 24.9154 43.0925 24.5383 43.0276 24.155C42.747 22.3221 42.6065 20.4704 42.6073 18.6161C42.6474 17.3798 42.326 15.8343 42.1653 14.7649C41.8036 13.9612 42.3074 13.1576 41.9242 12.354C41.7542 11.9552 41.8283 11.4669 41.8253 11.0465C41.8253 10.688 42.0725 10.555 42.3631 10.4005C42.472 10.3419 42.5755 10.2737 42.6722 10.1965C42.7784 10.1258 42.8968 10.0755 43.0214 10.0481C43.1389 10.008 43.2563 9.97396 43.3769 9.94305C44.2423 9.7205 45.216 9.57832 46.0134 10.0883C46.219 10.2482 46.456 10.363 46.7089 10.4252C47.173 10.5269 47.6552 10.512 48.1122 10.382Z" fill="white"/>
<path d="M32.4628 27.7467C32.2859 27.5885 32.0896 27.4535 31.8786 27.3448C31.6376 27.2521 31.3717 27.2367 31.1276 27.1501C30.5071 26.9087 29.916 26.5976 29.3657 26.2228C29.2485 26.1303 29.1245 26.0466 28.9948 25.9725C28.8666 25.9384 28.7349 25.9197 28.6023 25.9168C28.3519 25.8643 28.2036 25.6325 27.9841 25.5181C27.8821 25.4625 27.7492 25.4439 27.675 25.3512C27.4473 25.1569 27.1934 24.9956 26.9208 24.8721C26.6735 24.7052 26.4016 24.6527 26.1481 24.5074C25.9311 24.3713 25.7245 24.2195 25.5299 24.053C25.1785 23.6976 24.7851 23.3862 24.3585 23.1257C22.8563 22.4303 21.8332 20.687 20.7174 19.5403C19.9941 18.8788 19.073 17.9577 19.0916 16.811C19.4006 16.0908 20.2754 15.8497 20.9183 15.5067C21.7219 14.907 22.8656 14.5794 23.3261 13.6212C23.4068 13.4464 23.4436 13.2545 23.4334 13.0622C23.4231 12.8699 23.3662 12.683 23.2674 12.5177C23.0046 11.9737 22.3401 11.9954 21.8208 11.7945C21.4982 11.7663 21.1732 11.8041 20.8657 11.9057C20.356 12.0989 19.8918 12.3957 19.5026 12.7774C19.3172 12.9443 19.1534 13.1545 18.9586 13.3121C18.7488 13.4423 18.5191 13.5374 18.2786 13.5934C18.1609 13.6565 18.0259 13.6797 17.8939 13.6597C17.7618 13.6396 17.6398 13.5773 17.5461 13.4821C17.3524 12.9461 17.0749 12.4443 16.7239 11.9954C16.6081 11.9343 16.4806 11.8985 16.3499 11.8903C16.2263 11.8594 16.149 11.7605 16.0408 11.7296C15.8585 11.677 15.6205 11.8068 15.4226 11.8068C15.1801 11.7769 14.9341 11.7905 14.6963 11.847C14.4195 11.9579 14.1825 12.1496 14.0163 12.3972C13.8308 12.6723 13.9112 12.8794 13.8741 13.1854C13.8525 13.3925 13.803 13.5934 13.7628 13.8036C13.7136 14.0062 13.6857 14.2133 13.6794 14.4217C13.7077 14.6111 13.75 14.7981 13.8061 14.9812C13.8217 15.2538 13.7678 15.5259 13.6494 15.7719C13.531 16.0179 13.352 16.2298 13.1292 16.3876C12.9285 16.5585 12.711 16.7086 12.4801 16.8357C12.2112 16.9841 11.9052 17.0212 11.627 17.1448C11.3714 17.2682 11.1255 17.4108 10.8914 17.5714C10.6534 17.729 10.4185 17.8805 10.1681 18.0257C9.91773 18.171 9.61792 18.205 9.37064 18.3348C8.92864 18.5543 8.40628 18.5945 7.96428 18.7768C7.4821 18.8757 6.64137 18.6965 6.41882 19.2961C6.50185 19.8307 6.75557 20.324 7.1421 20.7025C7.40173 21.2836 8.16519 21.4845 8.68755 21.8677C9.46955 22.1274 10.2546 21.7472 10.9965 21.8059C11.2777 22.8507 11.1974 23.9325 10.4741 24.6959C10.3404 25.1068 10.1387 25.4923 9.87755 25.8365C9.74821 26.0024 9.60777 26.1594 9.45719 26.3063C9.32119 26.4361 9.26864 26.6154 9.13264 26.7514C8.98296 26.9369 8.81176 27.1039 8.62264 27.249C8.34446 27.4097 8.24555 27.2057 8.0261 27.0697C7.88878 26.9892 7.73961 26.9308 7.5841 26.8967C7.27724 26.8316 6.95923 26.8411 6.65683 26.9245C6.44283 27.0267 6.26808 27.196 6.15919 27.4067C5.9966 27.5623 5.88825 27.7659 5.8501 27.9877C5.87565 28.126 5.91076 28.2623 5.95519 28.3957C6.01392 28.6832 5.90573 28.8594 6.10355 29.1252C6.2581 29.3292 6.21483 29.4127 6.24883 29.6568C6.27349 29.7694 6.32314 29.8751 6.3941 29.9659C6.52726 30.1326 6.68457 30.2785 6.86082 30.3987C7.01121 30.5109 7.17666 30.6014 7.35228 30.6676C7.52319 30.6965 7.69241 30.7347 7.85919 30.7819C8.16117 30.9564 8.50587 31.0431 8.85446 31.0323C9.44173 31.0045 9.94246 30.7572 10.4926 30.581C10.7567 30.5186 11.0129 30.4263 11.2561 30.3059C11.4784 30.1566 11.6855 29.9858 11.8743 29.7959C12.1308 29.5703 12.3781 29.3354 12.613 29.0881C13.0372 28.6529 13.421 28.1801 13.7597 27.6756C13.9306 27.4265 14.0865 27.1674 14.2265 26.8997C14.3532 26.6617 14.4119 26.4052 14.5356 26.1641C14.5943 26.0312 14.6839 25.9137 14.7396 25.7808C14.8533 25.5374 14.9474 25.2852 15.0208 25.0267C15.0735 24.7948 15.1599 24.5719 15.2774 24.3652C15.4432 23.9724 15.5414 23.5544 15.5679 23.1288C15.6019 22.9403 15.673 22.7579 15.707 22.5694C15.741 22.3808 15.7348 22.1088 15.7843 21.8832C15.8602 21.5526 15.9953 21.2384 16.183 20.9559C16.642 21.0432 17.0489 21.306 17.3174 21.6885C17.4743 21.8671 17.6426 22.0353 17.8212 22.1923C18.0314 22.3716 18.1705 22.6157 18.3806 22.7888C18.9988 23.2772 19.4223 24.0036 19.8643 24.6434C20.4114 25.4223 20.9306 26.2197 21.4746 27.0017C22.0186 27.7837 22.4885 28.5163 23.2148 29.0696C23.7529 29.5357 24.3208 29.9662 24.9148 30.3585C25.3568 30.6119 25.9286 30.5377 26.417 30.547C27.3097 30.544 28.2014 30.4882 29.0876 30.3801C29.5265 30.3337 29.9685 30.2874 30.4074 30.2565C30.6141 30.2626 30.821 30.2502 31.0255 30.2194C31.3965 30.1792 31.7766 30.0092 32.1445 29.9505C32.5123 29.8917 32.9605 29.8176 33.2077 29.5147C33.3084 29.3928 33.3795 29.2493 33.4155 29.0954C33.4514 28.9415 33.4512 28.7814 33.4148 28.6276C33.2634 28.201 32.8028 27.9877 32.4628 27.7467Z" fill="white"/>
<path d="M57.3352 24.5383C57.5077 24.5409 57.6799 24.5232 57.8482 24.4858C58.0098 24.4498 58.1664 24.3948 58.315 24.3219L58.4262 23.9449H58.3706C58.2415 24.0553 58.094 24.1421 57.9348 24.2014C57.7837 24.263 57.622 24.2945 57.4588 24.2941C57.3006 24.3047 57.1423 24.277 56.997 24.2135C56.8518 24.1501 56.7239 24.0526 56.6242 23.9294C56.4136 23.62 56.3124 23.249 56.3368 22.8754C56.3144 22.5208 56.4148 22.1693 56.6212 21.8801C56.7135 21.7618 56.8331 21.6676 56.9699 21.6057C57.1066 21.5437 57.2564 21.516 57.4062 21.5247C57.6021 21.5178 57.7959 21.566 57.9657 21.6638C58.1146 21.748 58.2253 21.8864 58.2748 22.0501H58.3428C58.353 21.9462 58.3695 21.843 58.3922 21.741C58.4112 21.6492 58.4349 21.5584 58.4633 21.469C58.2947 21.3951 58.1199 21.3362 57.941 21.2929C57.7704 21.2559 57.5963 21.2372 57.4217 21.2372C56.94 21.2118 56.4672 21.3735 56.1019 21.6885C55.9371 21.841 55.8074 22.0275 55.722 22.2351C55.6366 22.4428 55.5975 22.6665 55.6073 22.8909C55.594 23.1174 55.6277 23.3442 55.7065 23.557C55.7852 23.7698 55.9072 23.964 56.0648 24.1272C56.4177 24.4259 56.8741 24.5736 57.3352 24.5383Z" fill="white"/>
<path d="M61.007 23.3575C61.0163 23.1985 60.9938 23.0392 60.9407 22.889C60.8876 22.7388 60.8051 22.6007 60.6979 22.4828C60.4603 22.2883 60.1588 22.1891 59.8522 22.2046C59.5455 22.2201 59.2555 22.3492 59.0388 22.5667C58.822 22.7842 58.694 23.0746 58.6796 23.3813C58.6652 23.6881 58.7654 23.9892 58.9608 24.2261C59.0765 24.3337 59.2129 24.4167 59.3617 24.4698C59.5105 24.5229 59.6686 24.5452 59.8263 24.5352C59.9669 24.5493 60.109 24.5355 60.2443 24.4946C60.3797 24.4538 60.5056 24.3867 60.615 24.2971C60.7244 24.2075 60.815 24.0973 60.8817 23.9727C60.9485 23.848 60.99 23.7115 61.0039 23.5708C61.0101 23.4999 61.0101 23.4285 61.0039 23.3575H61.007ZM60.2065 24.1086C60.172 24.1781 60.1179 24.236 60.0509 24.275C59.9838 24.3141 59.9068 24.3325 59.8294 24.3281C59.7527 24.3329 59.6763 24.3146 59.6101 24.2754C59.544 24.2363 59.4912 24.1782 59.4585 24.1086C59.3699 23.8687 59.334 23.6125 59.3534 23.3575C59.3374 23.1001 59.3753 22.8422 59.4646 22.6003C59.5188 22.5012 59.6101 22.4276 59.7185 22.3958C59.8268 22.3639 59.9434 22.3763 60.0426 22.4303C60.1137 22.4704 60.1725 22.5292 60.2126 22.6003C60.3016 22.8412 60.3394 23.0981 60.3239 23.3544C60.3392 23.6113 60.2991 23.8685 60.2065 24.1086Z" fill="white"/>
<path d="M64.8985 24.4765C64.8985 24.322 64.8923 24.1736 64.88 24.0314V23.3267C64.8862 23.1138 64.8738 22.9007 64.8429 22.69C64.8213 22.5846 64.7747 22.486 64.7069 22.4025C64.6443 22.3289 64.5647 22.2716 64.4751 22.2356C64.3564 22.1915 64.2298 22.1731 64.1035 22.1816C63.9772 22.1901 63.8541 22.2254 63.7425 22.2851C63.6141 22.3672 63.508 22.4797 63.4334 22.6127C63.3871 22.4854 63.3002 22.3768 63.1861 22.3036C63.0663 22.2272 62.9264 22.1884 62.7843 22.1923C62.6527 22.1886 62.5221 22.2172 62.4041 22.2758C62.2839 22.3462 62.1789 22.4397 62.0951 22.5509V22.2418H61.4429C61.4429 22.4952 61.4583 22.7147 61.4645 22.9002C61.4707 23.0856 61.4645 23.2371 61.4645 23.3607V23.8243C61.4645 24.0129 61.4645 24.2354 61.4429 24.4827H62.1352V24.4394C62.1352 24.2602 62.1167 24.1303 62.1167 24.0592V23.3082C62.1045 23.1123 62.1351 22.9161 62.2063 22.7332C62.2386 22.6854 62.2821 22.6463 62.333 22.6192C62.3839 22.5921 62.4407 22.578 62.4984 22.578C62.5561 22.578 62.6129 22.5921 62.6638 22.6192C62.7147 22.6463 62.7582 22.6854 62.7905 22.7332C62.8649 22.9836 62.8922 23.2456 62.8709 23.506V23.9727C62.8709 24.1303 62.8554 24.3065 62.8431 24.4796H63.5416V23.3082C63.5269 23.1135 63.5565 22.918 63.6281 22.7363C63.6629 22.6866 63.7091 22.646 63.763 22.6179C63.8168 22.5899 63.8766 22.5753 63.9372 22.5753C63.9979 22.5753 64.0577 22.5899 64.1115 22.6179C64.1653 22.646 64.2116 22.6866 64.2463 22.7363C64.3186 22.9574 64.347 23.1905 64.3298 23.4225V23.9109C64.3298 24.0902 64.3143 24.2725 64.2989 24.4765H64.917H64.8985Z" fill="white"/>
<path d="M66.8707 24.4765H67.5693V23.3082C67.5546 23.1135 67.5841 22.918 67.6558 22.7363C67.6906 22.6866 67.7368 22.646 67.7906 22.618C67.8445 22.5899 67.9042 22.5753 67.9649 22.5753C68.0256 22.5753 68.0854 22.5899 68.1392 22.618C68.193 22.646 68.2393 22.6866 68.274 22.7363C68.3463 22.9574 68.3747 23.1905 68.3575 23.4225V23.9109C68.3575 24.0902 68.3575 24.2725 68.3266 24.4765H69.0251C69.0251 24.322 69.0189 24.1736 69.0066 24.0314V23.3267C68.9909 23.118 68.9568 22.9112 68.9046 22.7085C68.883 22.6032 68.8364 22.5045 68.7686 22.4211C68.7059 22.3475 68.6264 22.2902 68.5367 22.2542C68.4181 22.21 68.2914 22.1916 68.1651 22.2001C68.0389 22.2087 67.9158 22.2439 67.8042 22.3036C67.6758 22.3858 67.5696 22.4983 67.4951 22.6313C67.4488 22.5039 67.3619 22.3953 67.2478 22.3222C67.128 22.2457 66.9881 22.207 66.846 22.2109C66.7144 22.2071 66.5838 22.2358 66.4658 22.2943C66.3449 22.3637 66.2397 22.4574 66.1567 22.5694V22.2603H65.5015C65.5015 22.5138 65.52 22.7333 65.5231 22.9187C65.5262 23.1042 65.5231 23.2556 65.5231 23.3793V23.8429C65.5231 24.0314 65.5231 24.254 65.5015 24.5013H66.1815V24.458C66.1815 24.2787 66.166 24.1489 66.166 24.0778V23.3082C66.1512 23.1125 66.1808 22.9159 66.2526 22.7333C66.2789 22.6947 66.3126 22.6616 66.3517 22.6361C66.3909 22.6105 66.4347 22.5929 66.4806 22.5843C66.5265 22.5757 66.5737 22.5762 66.6194 22.5859C66.6652 22.5955 66.7086 22.6141 66.7471 22.6405C66.7839 22.6649 66.8154 22.6965 66.8398 22.7333C66.9112 22.9842 66.9384 23.2457 66.9202 23.506V23.9727C66.9202 24.1303 66.88 24.3034 66.8707 24.4765Z" fill="white"/>
<path d="M71.7541 23.3576C71.7648 23.1985 71.743 23.0388 71.6898 22.8884C71.6367 22.7379 71.5533 22.6 71.445 22.4829C71.207 22.2946 70.908 22.2003 70.605 22.2182C70.302 22.2361 70.0162 22.3648 69.802 22.5797C69.5877 22.7947 69.4601 23.081 69.4433 23.3841C69.4265 23.6871 69.5218 23.9857 69.711 24.2231C69.9554 24.4224 70.2611 24.5313 70.5764 24.5313C70.8918 24.5313 71.1975 24.4224 71.4419 24.2231C71.5493 24.1072 71.6324 23.9708 71.686 23.8221C71.7396 23.6734 71.7628 23.5154 71.7541 23.3576ZM70.9504 24.1087C70.8946 24.2078 70.8017 24.2807 70.6922 24.3114C70.5827 24.3421 70.4655 24.3281 70.3663 24.2725C70.298 24.2336 70.2414 24.177 70.2024 24.1087C70.1132 23.8689 70.0753 23.613 70.0912 23.3576C70.0752 23.1002 70.1131 22.8423 70.2024 22.6004C70.2293 22.5501 70.2659 22.5057 70.3101 22.4698C70.3544 22.4339 70.4054 22.4072 70.4602 22.3914C70.5149 22.3755 70.5723 22.3708 70.6289 22.3775C70.6855 22.3842 70.7402 22.4022 70.7897 22.4304C70.8608 22.4705 70.9196 22.5293 70.9597 22.6004C71.0514 22.8407 71.0904 23.0979 71.0741 23.3545C71.0904 23.6112 71.0514 23.8684 70.9597 24.1087H70.9504Z" fill="white"/>
<path d="M73.513 22.7271C73.587 22.9382 73.6154 23.1626 73.5965 23.3854V24.0036C73.6021 24.1627 73.5938 24.322 73.5717 24.4796H74.2672C74.2672 24.3591 74.2487 24.2323 74.2425 24.1025C74.2363 23.9727 74.2425 23.8336 74.2425 23.6883V23.098C74.2482 22.9447 74.2368 22.7913 74.2085 22.6405C74.1906 22.5573 74.1523 22.4798 74.0972 22.4149C74.0335 22.3383 73.9517 22.2788 73.8592 22.2418C73.7434 22.1995 73.6204 22.1807 73.4972 22.1866C73.3741 22.1924 73.2534 22.2228 73.1421 22.2758C73.0198 22.3458 72.9142 22.4419 72.833 22.5571V22.248H72.1963C72.2087 22.4334 72.2179 22.6189 72.2241 22.8043V23.9016C72.2241 24.084 72.2241 24.2818 72.1963 24.4889H72.8732C72.8732 24.2447 72.8732 24.0283 72.8546 23.8429C72.8453 23.6833 72.8453 23.5234 72.8546 23.3638C72.8418 23.1606 72.8735 22.957 72.9474 22.7673C72.9744 22.7177 73.0135 22.6757 73.061 22.6452C73.1085 22.6147 73.1629 22.5966 73.2192 22.5926C73.2755 22.5886 73.332 22.5988 73.3833 22.6223C73.4346 22.6458 73.4792 22.6818 73.513 22.7271Z" fill="white"/>
<path d="M78.8972 21.2928H78.6809C78.5851 21.6885 78.48 22.0779 78.3718 22.4612C78.2636 22.8445 78.1338 23.2247 78.004 23.6018C77.8618 23.1999 77.7289 22.8074 77.6022 22.4241C77.4754 22.0408 77.3611 21.6638 77.2498 21.2928H76.7769C76.6532 21.6576 76.5296 22.0347 76.3967 22.4179C76.2638 22.8012 76.1278 23.2061 75.9794 23.6327C75.8589 23.2463 75.7476 22.8568 75.6425 22.4674C75.5374 22.0779 75.4385 21.6854 75.3334 21.2928H74.5391C74.7307 21.8451 74.9079 22.3891 75.0707 22.9248C75.2345 23.4565 75.3798 23.9819 75.5158 24.495H75.9918C76.1216 24.0963 76.2514 23.7099 76.3843 23.3298C76.5172 22.9496 76.6563 22.5848 76.7954 22.2263C76.9407 22.6219 77.0767 23.0114 77.2034 23.3885C77.3302 23.7656 77.4445 24.1334 77.5527 24.495H78.038C78.2265 23.8985 78.412 23.3359 78.5882 22.8012C78.7643 22.2665 78.9343 21.7658 79.1012 21.2928H78.8972Z" fill="white"/>
<path d="M80.3377 22.1738C80.1877 22.166 80.0377 22.1895 79.8973 22.2427C79.7568 22.2959 79.6289 22.3777 79.5217 22.4829C79.4176 22.5934 79.3367 22.7236 79.2836 22.8659C79.2305 23.0081 79.2064 23.1595 79.2126 23.3112C79.1933 23.6382 79.3044 23.9594 79.5217 24.2045C79.635 24.3128 79.7697 24.3963 79.9171 24.4495C80.0646 24.5027 80.2215 24.5246 80.3779 24.5136C80.5229 24.5138 80.6673 24.4951 80.8075 24.458C80.9307 24.4246 81.0477 24.3714 81.1537 24.3003L81.2557 24.0345L81.2124 24.0005C81.1252 24.0714 81.0271 24.1278 80.9219 24.1674C80.823 24.2043 80.7183 24.2232 80.6128 24.2231C80.5137 24.2263 80.4152 24.2065 80.3251 24.1652C80.235 24.1239 80.1557 24.0622 80.0935 23.9851C79.9549 23.8004 79.8859 23.5727 79.8988 23.3422H81.3361V23.1938C81.3466 23.0549 81.3293 22.9153 81.2853 22.7831C81.2412 22.651 81.1713 22.5289 81.0795 22.4242C80.9795 22.334 80.8621 22.2652 80.7345 22.2222C80.6069 22.1791 80.4719 22.1627 80.3377 22.1738ZM80.6808 23.0671V23.132H79.8864V23.0887C79.8747 22.9053 79.9143 22.7223 80.0008 22.5601C80.0306 22.5041 80.0751 22.4571 80.1296 22.4245C80.184 22.3918 80.2464 22.3746 80.3099 22.3747C80.3663 22.3743 80.4218 22.3893 80.4703 22.4182C80.5188 22.4471 80.5584 22.4887 80.585 22.5385C80.6566 22.6876 80.6895 22.8524 80.6808 23.0176C80.6823 23.0341 80.6823 23.0506 80.6808 23.0671Z" fill="white"/>
<path d="M83.5463 24.2168C83.4897 24.1031 83.4671 23.9753 83.4814 23.849V23.7594L83.4969 22.9434V22.9186C83.5028 22.815 83.4856 22.7113 83.4466 22.6151C83.4076 22.5189 83.3477 22.4325 83.2713 22.3623C83.0857 22.2207 82.855 22.1515 82.6222 22.1676C82.4763 22.1677 82.3321 22.1983 82.1987 22.2572C82.0484 22.3248 81.9097 22.4155 81.7876 22.5261C81.8031 22.5663 81.8185 22.6065 81.8309 22.6497C81.8452 22.7101 81.8649 22.769 81.8896 22.8259C81.9509 22.7209 82.0317 22.6286 82.1276 22.5539C82.2132 22.4954 82.3145 22.4641 82.4182 22.4643C82.4755 22.4637 82.5324 22.4746 82.5855 22.4964C82.6386 22.5181 82.6868 22.5503 82.7273 22.591C82.7685 22.6365 82.8004 22.6896 82.8211 22.7475C82.8418 22.8053 82.8509 22.8666 82.8478 22.9279V23.0176C82.69 23.1084 82.5205 23.177 82.344 23.2216L82.106 23.2957C81.9636 23.3362 81.8352 23.4154 81.7351 23.5245C81.6516 23.6251 81.6066 23.7522 81.6083 23.883C81.6037 23.9697 81.6164 24.0564 81.6456 24.1381C81.6748 24.2198 81.7199 24.2949 81.7783 24.359C81.8393 24.4188 81.9119 24.4653 81.9917 24.4956C82.0715 24.526 82.1567 24.5394 82.242 24.5352C82.3706 24.5376 82.4976 24.5055 82.6098 24.4425C82.7204 24.3818 82.8123 24.292 82.8756 24.1828C82.8931 24.2808 82.9446 24.3694 83.0209 24.4332C83.0994 24.4938 83.1969 24.5245 83.296 24.5197C83.3792 24.5198 83.4621 24.5105 83.5433 24.4919C83.6282 24.4751 83.7111 24.4492 83.7905 24.4146V24.3003H83.772C83.7306 24.3033 83.689 24.2974 83.6501 24.283C83.6112 24.2686 83.5758 24.246 83.5463 24.2168ZM82.8694 23.7872C82.8765 23.9015 82.8473 24.015 82.786 24.1117C82.7582 24.1481 82.722 24.1771 82.6806 24.1965C82.6392 24.2159 82.5937 24.225 82.548 24.223C82.5061 24.2257 82.4642 24.2181 82.4259 24.2009C82.3877 24.1836 82.3542 24.1573 82.3285 24.1241C82.2757 24.03 82.251 23.9227 82.2574 23.815C82.2531 23.7457 82.2636 23.6762 82.2881 23.6112C82.3126 23.5462 82.3506 23.4872 82.3996 23.4379C82.5355 23.3302 82.6977 23.2608 82.8694 23.237V23.7872Z" fill="white"/>
<path d="M84.8227 20.959C84.7584 20.9632 84.6944 20.9715 84.6311 20.9837H84.322C84.2571 20.9837 84.1953 20.9837 84.1304 20.959C84.1304 21.2155 84.1489 21.4844 84.1551 21.775C84.1613 22.0655 84.1551 22.3932 84.1551 22.727V23.6543C84.1551 23.9448 84.1396 24.2168 84.1304 24.4795C84.1866 24.4693 84.2434 24.4621 84.3004 24.4579C84.4206 24.4455 84.5418 24.4455 84.662 24.4579C84.718 24.4621 84.7737 24.4693 84.8289 24.4795C84.8289 24.2261 84.8073 23.9541 84.8011 23.6666C84.7949 23.3792 84.8011 23.0484 84.8011 22.7115V21.7812C84.7949 21.4721 84.8104 21.2248 84.8227 20.959Z" fill="white"/>
<path d="M86.3308 24.2818C86.2872 24.2857 86.2436 24.2751 86.2066 24.2516C86.1697 24.2282 86.1416 24.1931 86.1268 24.1519C86.08 23.9327 86.0624 23.7082 86.0742 23.4843V23.2958C86.0742 23.1598 86.0742 22.9279 86.0897 22.6034V22.4952H86.5533C86.5502 22.4602 86.5502 22.4251 86.5533 22.3901V22.2665H86.099V21.8461C86.0967 21.6964 86.1039 21.5467 86.1206 21.3979L86.0681 21.3608C85.9692 21.4103 85.8672 21.4567 85.759 21.503L85.4499 21.6328C85.4462 21.7187 85.4514 21.8046 85.4653 21.8894C85.4731 21.9541 85.4731 22.0194 85.4653 22.0841V22.2634H85.1562V22.3097C85.1595 22.3354 85.1595 22.3614 85.1562 22.387V22.5076H85.4653V23.9232C85.4587 24.0071 85.4692 24.0916 85.4963 24.1713C85.5234 24.251 85.5665 24.3244 85.623 24.3868C85.6845 24.4431 85.7567 24.4863 85.8353 24.5139C85.9139 24.5415 85.9973 24.553 86.0804 24.5476C86.1659 24.5482 86.2511 24.5378 86.3339 24.5167C86.4318 24.492 86.527 24.4579 86.6182 24.4147V24.2539C86.5239 24.2747 86.4274 24.284 86.3308 24.2818Z" fill="white"/>
<path d="M88.9645 24.1303V23.0979C88.9686 22.9467 88.9573 22.7955 88.9305 22.6466C88.9091 22.5615 88.869 22.4823 88.813 22.4148C88.7493 22.3382 88.6675 22.2787 88.575 22.2417C88.4761 22.2048 88.3715 22.186 88.2659 22.1861C88.1221 22.1832 87.9797 22.2161 87.8517 22.2819C87.7262 22.353 87.6201 22.4538 87.5426 22.5755V21.3732C87.5466 21.2345 87.559 21.0962 87.5797 20.959L87.4036 20.9868H87.0759L86.8936 20.959C86.8936 21.1568 86.9183 21.3917 86.9245 21.6637C86.9306 21.9357 86.9245 22.319 86.9245 22.8073V23.8644C86.9245 24.1086 86.909 24.3126 86.8936 24.4826H87.5766C87.5809 24.2763 87.5736 24.0699 87.555 23.8644C87.5441 23.6956 87.5441 23.5263 87.555 23.3575C87.5422 23.1543 87.5738 22.9507 87.6477 22.761C87.678 22.7096 87.7205 22.6667 87.7716 22.6359C87.8226 22.6052 87.8805 22.5876 87.94 22.5848C87.9995 22.5821 88.0588 22.5942 88.1125 22.6201C88.1661 22.646 88.2125 22.6849 88.2474 22.7332C88.3188 22.9448 88.3461 23.1689 88.3277 23.3915V24.0097C88.3334 24.1688 88.3251 24.3281 88.303 24.4857H88.9954C88.9785 24.3679 88.9682 24.2492 88.9645 24.1303Z" fill="white"/>
<path d="M59.4033 28.7482L59.1343 26.5042H58.7047C58.5316 26.8905 58.3585 27.2645 58.1793 27.6292C58 27.994 57.8207 28.3494 57.6353 28.6987C57.4436 28.3371 57.2551 27.9754 57.0758 27.6138C56.8965 27.2522 56.7173 26.8782 56.5503 26.5042H56.1423L55.8333 28.7203C55.8213 28.8438 55.8027 28.9666 55.7776 29.0882C55.7498 29.2612 55.7158 29.4683 55.6787 29.7063L55.7776 29.6878H55.9538L56.0558 29.7063C56.0558 29.3509 56.096 28.9923 56.1423 28.64V28.6029L56.2567 27.6292C56.4236 27.9383 56.5936 28.2691 56.7698 28.6152C56.946 28.9614 57.1191 29.3261 57.3014 29.7063H57.4993C57.6816 29.32 57.8609 28.946 58.0371 28.5905C58.2133 28.2351 58.3863 27.8889 58.5625 27.552L58.714 29.048C58.714 29.1283 58.7356 29.3292 58.748 29.6662V29.7125L58.9489 29.694H59.3198L59.5331 29.7094C59.5083 29.5982 59.4836 29.4745 59.462 29.3323C59.4403 29.1902 59.4311 28.9954 59.4033 28.7482Z" fill="white"/>
<path d="M61.8265 29.4497C61.7713 29.3355 61.7488 29.2082 61.7616 29.0819V28.9923L61.7771 28.1763V28.1516C61.783 28.0479 61.7658 27.9442 61.7268 27.848C61.6877 27.7518 61.6279 27.6655 61.5514 27.5952C61.3659 27.4536 61.1352 27.3844 60.9023 27.4005C60.7565 27.4006 60.6123 27.4312 60.4789 27.4901C60.3286 27.5577 60.1899 27.6484 60.0678 27.759C60.0832 27.7961 60.0987 27.8363 60.1142 27.8826C60.1296 27.929 60.1482 27.9846 60.1698 28.0588C60.2287 27.9512 60.3111 27.8582 60.4109 27.7868C60.4946 27.7268 60.5954 27.6954 60.6983 27.6972C60.7555 27.6964 60.8122 27.7069 60.8652 27.7281C60.9183 27.7493 60.9666 27.7808 61.0074 27.8208C61.0907 27.914 61.134 28.0361 61.128 28.1608V28.2412C60.9712 28.331 60.8026 28.3986 60.6272 28.4421L60.3892 28.5194C60.2462 28.5605 60.117 28.6395 60.0152 28.7481C59.9315 28.8507 59.8886 28.9806 59.8947 29.1128C59.8895 29.2 59.9019 29.2873 59.9311 29.3696C59.9603 29.4519 60.0057 29.5275 60.0647 29.5919C60.1256 29.6517 60.1983 29.6982 60.2781 29.7285C60.3579 29.7589 60.4431 29.7723 60.5283 29.7681C60.658 29.7701 60.7858 29.7382 60.8992 29.6754C61.0085 29.6125 61.0991 29.5219 61.162 29.4126C61.1759 29.5124 61.2275 29.603 61.3064 29.6657C61.3852 29.7284 61.4851 29.7584 61.5854 29.7496C61.6674 29.7491 61.7492 29.7409 61.8296 29.7248C61.9142 29.7066 61.997 29.6807 62.0769 29.6476V29.5301H62.0614C62.0187 29.5351 61.9755 29.5305 61.9348 29.5166C61.8942 29.5027 61.8572 29.4798 61.8265 29.4497ZM61.1496 29.0201C61.1532 29.1291 61.1242 29.2368 61.0662 29.3292C61.0384 29.3655 61.0022 29.3946 60.9608 29.414C60.9193 29.4333 60.8738 29.4424 60.8282 29.4405C60.7864 29.4429 60.7448 29.4348 60.707 29.417C60.6692 29.3992 60.6365 29.3722 60.6118 29.3385C60.5552 29.2458 60.5292 29.1376 60.5376 29.0294C60.5334 28.9605 60.5438 28.8915 60.5684 28.827C60.5929 28.7625 60.6309 28.704 60.6798 28.6554C60.8156 28.5476 60.9779 28.4783 61.1496 28.4545V29.0201Z" fill="white"/>
<path d="M64.2281 29.4497C64.0515 29.3875 63.8652 29.3571 63.6779 29.3601H63.5944C63.1494 29.3601 62.9299 29.2643 62.9299 29.1221C62.9274 29.0652 62.9474 29.0096 62.9856 28.9674C63.0237 28.9251 63.077 28.8996 63.1339 28.8965H63.2143C63.4889 28.9121 63.7615 28.8407 63.9932 28.6925C64.0832 28.6283 64.1558 28.5427 64.2043 28.4433C64.2529 28.344 64.276 28.2342 64.2714 28.1237C64.2742 28.0263 64.2529 27.9297 64.2095 27.8425C64.1666 27.762 64.1038 27.694 64.0272 27.6446H64.4908V27.4159H64.0704C63.9023 27.4183 63.7341 27.4121 63.5666 27.3974L63.2575 27.3788C63.0057 27.3641 62.7566 27.4373 62.5528 27.5859C62.4689 27.6499 62.4013 27.7328 62.3557 27.8279C62.31 27.923 62.2875 28.0275 62.2901 28.133C62.2851 28.2142 62.2962 28.2956 62.3227 28.3725C62.3492 28.4494 62.3906 28.5203 62.4446 28.5812C62.5672 28.7048 62.7267 28.7851 62.899 28.8099V28.8903C62.7673 28.9416 62.6482 29.0207 62.5497 29.1221C62.5101 29.163 62.4791 29.2115 62.4584 29.2645C62.4377 29.3176 62.4278 29.3742 62.4292 29.4312C62.4262 29.5152 62.4536 29.5976 62.5064 29.663C62.5646 29.7311 62.6423 29.7797 62.729 29.8021V29.8392C62.5919 29.8804 62.4682 29.9572 62.3704 30.0617C62.2891 30.1582 62.2471 30.2818 62.253 30.4079C62.2524 30.4985 62.2765 30.5876 62.3228 30.6655C62.3691 30.7434 62.4358 30.8071 62.5157 30.8499C62.7403 30.9703 62.9939 31.026 63.2483 31.0106C63.5796 31.0266 63.9065 30.9296 64.1755 30.7355C64.288 30.6552 64.3793 30.5489 64.4418 30.4257C64.5042 30.3024 64.5359 30.1659 64.5341 30.0277C64.5364 29.9128 64.5099 29.799 64.4568 29.697C64.4094 29.592 64.3291 29.5052 64.2281 29.4497ZM63.0195 27.7374C63.0455 27.6921 63.0826 27.6542 63.1272 27.6271C63.1718 27.6 63.2226 27.5847 63.2747 27.5825C63.3269 27.5804 63.3788 27.5914 63.4255 27.6147C63.4722 27.638 63.5122 27.6728 63.5419 27.7157C63.6062 27.8316 63.6352 27.9638 63.6254 28.0959C63.6364 28.257 63.6078 28.4183 63.5419 28.5657C63.4905 28.6364 63.4132 28.6839 63.3269 28.6978C63.2406 28.7117 63.1523 28.6909 63.0813 28.6399C63.0536 28.6184 63.0287 28.5935 63.0072 28.5657C62.9427 28.4343 62.9139 28.2883 62.9237 28.1423C62.9147 28.0008 62.9481 27.8598 63.0195 27.7374ZM63.7768 30.6614C63.628 30.7571 63.4528 30.8036 63.2761 30.7943C63.1186 30.8028 62.9638 30.7509 62.8433 30.649C62.7895 30.6004 62.747 30.5407 62.7187 30.4739C62.6904 30.4072 62.677 30.3351 62.6795 30.2626C62.6776 30.1758 62.7001 30.0901 62.7444 30.0154C62.7864 29.9425 62.8487 29.8834 62.9237 29.8454L63.4646 29.8732C63.5987 29.8707 63.73 29.9119 63.8386 29.9906C63.8799 30.0303 63.9118 30.0785 63.9321 30.132C63.9524 30.1854 63.9606 30.2427 63.9561 30.2997C63.9592 30.3702 63.9444 30.4404 63.9131 30.5037C63.8817 30.5669 63.8348 30.6212 63.7768 30.6614Z" fill="white"/>
<path d="M66.5923 29.4498C66.5371 29.3356 66.5146 29.2083 66.5274 29.082V28.1547C66.5333 28.0511 66.5161 27.9474 66.4771 27.8512C66.4381 27.755 66.3782 27.6686 66.3018 27.5984C66.1162 27.4568 65.8855 27.3876 65.6527 27.4036C65.5068 27.4038 65.3626 27.4343 65.2292 27.4933C65.0789 27.5608 64.9402 27.6516 64.8181 27.7622C64.8181 27.7993 64.849 27.8395 64.8645 27.8858C64.8799 27.9322 64.8985 27.9878 64.9201 28.062C64.979 27.9544 65.0614 27.8614 65.1612 27.79C65.2449 27.73 65.3457 27.6986 65.4487 27.7004C65.5058 27.6995 65.5625 27.7101 65.6156 27.7313C65.6686 27.7525 65.7169 27.784 65.7578 27.824C65.8418 27.9168 65.8862 28.0389 65.8814 28.164V28.2135C65.8845 28.2235 65.8845 28.2343 65.8814 28.2444C65.7246 28.3342 65.5561 28.4018 65.3807 28.4453L65.1427 28.5225C64.9997 28.5637 64.8704 28.6427 64.7687 28.7513C64.685 28.8539 64.642 28.9837 64.6481 29.116C64.6429 29.2032 64.6553 29.2905 64.6845 29.3728C64.7137 29.4551 64.7592 29.5307 64.8181 29.5951C64.879 29.6549 64.9517 29.7014 65.0315 29.7317C65.1113 29.762 65.1965 29.7755 65.2818 29.7713C65.4114 29.7733 65.5393 29.7413 65.6527 29.6785C65.7619 29.6157 65.8525 29.525 65.9154 29.4158C65.9293 29.5156 65.981 29.6062 66.0598 29.6689C66.1386 29.7316 66.2385 29.7616 66.3388 29.7527C66.4208 29.7523 66.5026 29.744 66.583 29.728C66.6676 29.7098 66.7504 29.6839 66.8303 29.6507V29.5333C66.787 29.5369 66.7434 29.5313 66.7024 29.5169C66.6614 29.5025 66.6239 29.4797 66.5923 29.4498ZM65.9185 29.0202C65.9205 29.129 65.8916 29.2362 65.835 29.3293C65.8056 29.3646 65.7687 29.3929 65.727 29.4121C65.6853 29.4314 65.6399 29.4411 65.5939 29.4405C65.5522 29.4429 65.5106 29.4349 65.4728 29.4171C65.435 29.3992 65.4023 29.3722 65.3776 29.3385C65.321 29.2459 65.295 29.1377 65.3034 29.0295C65.3003 28.9604 65.3117 28.8916 65.3367 28.8272C65.3617 28.7628 65.3998 28.7043 65.4487 28.6555C65.5834 28.5458 65.7462 28.4762 65.9185 28.4545V29.0202Z" fill="white"/>
<path d="M68.0577 27.484H67.1304C67.1335 27.5003 67.1335 27.5171 67.1304 27.5334C67.1335 27.5601 67.1335 27.5871 67.1304 27.6138C67.1337 27.6394 67.1337 27.6654 67.1304 27.6911V27.7405H67.183C67.457 27.7281 67.6579 27.722 67.7857 27.722H68.1721L67.7332 28.3927C67.3622 28.9614 67.0902 29.3756 66.9141 29.629V29.7032L67.3901 29.6847H68.5059L68.951 29.7032V29.4189C68.8212 29.4189 68.6882 29.4374 68.5522 29.4405C68.4162 29.4436 68.2772 29.4405 68.135 29.4405H67.7239L68.5151 28.2041L68.9726 27.5025V27.4685H68.5492L68.0577 27.484Z" fill="white"/>
<path d="M70.0607 27.4685H69.3652C69.3652 27.6694 69.3838 27.8641 69.39 28.0465C69.3961 28.2289 69.39 28.4112 69.39 28.5905V29.085C69.3932 29.2914 69.3849 29.4978 69.3652 29.7032L69.5445 29.6847H69.8845L70.0607 29.7032C70.0607 29.4652 70.0421 29.2581 70.036 29.085C70.0298 28.912 70.036 28.742 70.036 28.5874V28.0434C70.036 27.858 70.0483 27.6694 70.0607 27.4685Z" fill="white"/>
<path d="M69.7172 26.2661C69.6232 26.2627 69.5315 26.2965 69.4621 26.3601C69.3927 26.4237 69.3511 26.5121 69.3463 26.6061C69.3449 26.6582 69.3547 26.7099 69.3749 26.7579C69.3952 26.8059 69.4255 26.849 69.4638 26.8843C69.4961 26.9178 69.5351 26.9442 69.5782 26.9618C69.6213 26.9793 69.6676 26.9877 69.7141 26.9863C69.7611 26.9915 69.8086 26.9872 69.8539 26.9738C69.8992 26.9605 69.9413 26.9382 69.9779 26.9083C70.0145 26.8784 70.0448 26.8416 70.067 26.7999C70.0891 26.7582 70.1028 26.7125 70.1071 26.6654C70.1114 26.6184 70.1063 26.571 70.0921 26.5259C70.0779 26.4809 70.0548 26.4391 70.0243 26.4031C69.9937 26.3671 69.9563 26.3375 69.9142 26.3161C69.8721 26.2947 69.8262 26.2819 69.779 26.2785H69.7141L69.7172 26.2661Z" fill="white"/>
<path d="M72.7034 28.9182V28.3309C72.7091 28.1766 72.6977 28.0221 72.6694 27.8703C72.6515 27.7871 72.6133 27.7096 72.5581 27.6447C72.4923 27.5699 72.4097 27.5116 72.317 27.4747C72.2188 27.4353 72.1138 27.4154 72.0079 27.416C71.8685 27.4139 71.7306 27.4458 71.6061 27.5087C71.4838 27.5787 71.3783 27.6748 71.297 27.79V27.4809H70.6387C70.651 27.6643 70.6603 27.8497 70.6665 28.0373C70.6727 28.2248 70.6727 28.4133 70.6665 28.6029V29.1345C70.6706 29.3307 70.6613 29.5269 70.6387 29.7218L70.8179 29.7033H71.127L71.3001 29.7218C71.3001 29.4787 71.2939 29.2623 71.2816 29.0727V28.5813C71.2689 28.379 71.3005 28.1765 71.3743 27.9878C71.4014 27.9302 71.4456 27.8823 71.501 27.8508C71.5563 27.8192 71.62 27.8056 71.6834 27.8116C71.7438 27.8031 71.8054 27.8126 71.8604 27.839C71.9154 27.8654 71.9614 27.9075 71.9925 27.96C72.0639 28.1717 72.0912 28.3957 72.0729 28.6184V29.2365C72.0785 29.3956 72.0702 29.5549 72.0481 29.7125L72.2305 29.694H72.5581L72.7436 29.7125C72.7436 29.592 72.725 29.4653 72.7189 29.3354C72.7127 29.2056 72.7034 29.0634 72.7034 28.9182Z" fill="white"/>
<path d="M74.2949 27.4067C74.1444 27.3991 73.994 27.4226 73.8531 27.4758C73.7121 27.529 73.5837 27.6107 73.4758 27.7158C73.3712 27.8259 73.2898 27.9561 73.2367 28.0984C73.1836 28.2408 73.1598 28.3924 73.1667 28.5442C73.1474 28.8711 73.2585 29.1924 73.4758 29.4374C73.5898 29.5457 73.725 29.6291 73.873 29.6823C74.0209 29.7355 74.1783 29.7574 74.3351 29.7465C74.4801 29.7467 74.6245 29.728 74.7647 29.6909C74.8879 29.6576 75.0049 29.6043 75.1109 29.5333L75.2129 29.2674L75.1665 29.2334C75.0804 29.3043 74.9833 29.3607 74.8791 29.4003C74.7802 29.4373 74.6755 29.4561 74.57 29.456C74.4702 29.4591 74.371 29.439 74.2803 29.3971C74.1897 29.3553 74.11 29.2929 74.0476 29.2149C73.9115 29.0291 73.8438 28.802 73.856 28.572H75.2902C75.2933 28.5536 75.2933 28.5348 75.2902 28.5163C75.2933 28.4855 75.2933 28.4545 75.2902 28.4236C75.3089 28.1428 75.2155 27.8661 75.0305 27.654C74.9318 27.5639 74.8154 27.4954 74.6888 27.4528C74.5621 27.4102 74.428 27.3945 74.2949 27.4067ZM74.6504 28.3V28.3618H73.856V28.3216C73.8461 28.1387 73.8845 27.9565 73.9673 27.7931C73.9976 27.7374 74.0422 27.6909 74.0966 27.6583C74.1509 27.6257 74.213 27.6082 74.2764 27.6076C74.332 27.6075 74.3866 27.6223 74.4344 27.6506C74.4823 27.6789 74.5217 27.7196 74.5484 27.7683C74.6189 27.9188 74.6508 28.0846 74.6411 28.2505L74.6504 28.3Z" fill="white"/>
<path d="M57.0229 11.2721C57.2475 11.625 57.4538 11.9892 57.641 12.3632L58.2592 11.7667C57.947 11.4146 57.5919 11.103 57.2021 10.8394C57.3328 10.5402 57.4362 10.2299 57.5112 9.91214L56.6179 9.72668C56.4316 10.8126 56.0593 11.8582 55.5176 12.8176L55.8267 13.071C56.3077 12.5304 56.7103 11.9248 57.0229 11.2721Z" fill="white"/>
<path d="M63.9496 9.63702C63.6711 8.96523 63.2917 8.33986 62.8245 7.78247L62.4722 7.95865C62.7073 8.62012 62.8983 9.29646 63.044 9.9832L63.9496 9.63702Z" fill="white"/>
<path d="M60.4569 9.1301H58.4973L58.9393 8.51192C58.3757 8.14392 57.7584 7.86552 57.1095 7.68665L56.958 8.02665C57.3847 8.36638 57.7884 8.73397 58.1666 9.12701H55.7124V9.62156H60.4569V9.1301Z" fill="white"/>
<path d="M57.706 15.2408V18.1246H58.6519V15.0337C59.0443 15.4786 59.4117 15.945 59.7522 16.4308L60.4044 15.7045C59.8687 15.2381 59.2805 14.8357 58.6519 14.5052V14.0972H60.4786V13.5995H58.6519V12.5641H58.4664C58.7407 12.1914 58.9797 11.7941 59.1804 11.3772C59.4153 11.7075 59.6221 12.057 59.7986 12.4219L60.3148 11.949C60.2157 12.2272 60.1012 12.4996 59.9717 12.765L60.2808 12.9937C60.4477 12.7743 60.5899 12.5332 60.7537 12.289V18.0721H61.7211V17.2221H65.4302V16.7152H63.7457V14.8112H65.0222V14.3166H63.7457V12.5981H65.013V12.1035H63.7457V10.6292H65.2911V10.1315H61.6686C61.8696 9.44573 62.0021 8.74168 62.0642 8.02973L61.0628 7.83191C60.899 9.43918 60.7537 10.6292 60.3797 11.7512C60.0888 11.4327 59.7561 11.1551 59.3906 10.9259C59.5227 10.6166 59.6262 10.2959 59.6997 9.96773L58.8064 9.74827C58.7183 10.7291 58.4456 11.6845 58.0028 12.5641H57.7184V13.5995H55.6444V14.0972H57.4619C56.9706 15.2064 56.2719 16.2114 55.4033 17.0583L55.6351 17.3674C56.441 16.7811 57.1413 16.062 57.706 15.2408ZM61.6902 10.6292H62.7535V12.1035H61.684L61.6902 10.6292ZM61.6902 12.5981H62.7535V14.3166H61.684L61.6902 12.5981ZM61.6902 14.8112H62.7535V16.7152H61.684L61.6902 14.8112Z" fill="white"/>
<path d="M75.7356 13.8437C75.147 13.3436 74.4864 12.9351 73.7759 12.6321L73.5781 12.9412C74.1102 13.4563 74.6137 14 75.0865 14.5701L75.7356 13.8437Z" fill="white"/>
<path d="M73.9582 12.1036H71.9213V12.5982H77.1171V12.1036H74.9473V10.1996H77.2593V9.702H74.9473V7.85364H73.9582V9.702H71.6895V10.1996H73.9582V12.1036Z" fill="white"/>
<path d="M77.6581 16.165C77.2869 15.3658 76.7843 14.6344 76.1714 14.0013L75.8623 14.2084C76.2325 14.9798 76.5425 15.7786 76.7896 16.5977L77.6581 16.165Z" fill="white"/>
<path d="M72.9536 16.5267C72.9536 17.7167 73.1731 17.8373 74.7834 17.8373C76.4989 17.8373 76.4123 17.1325 75.9054 15.3275H75.5098C75.5098 16.7925 75.5098 16.9347 74.7154 16.9347C74.0231 16.9347 73.9242 16.7925 73.9242 16.3505V13.6553H72.9536V16.5267Z" fill="white"/>
<path d="M71.4578 9.70191H69.8629L70.4347 9.263C69.945 8.6819 69.3746 8.17396 68.7409 7.75464L68.4658 8.02973C68.7193 8.39137 69.1273 9.07446 69.4889 9.70191H67.792V10.1995H71.4578V9.70191Z" fill="white"/>
<path d="M70.2704 17.9052H71.0988V16.573L71.8375 17.1232C72.3444 16.4525 72.5979 15.4819 72.6628 14.3167L72.2764 14.2394C72.1283 15.0859 71.7161 15.8638 71.0988 16.4617V14.2981H68.1377V18.0721H68.997V17.2685H70.2642L70.2704 17.9052ZM70.2704 16.7708H69.0155V14.7679H70.2704V16.7708Z" fill="white"/>
<path d="M71.2044 12.7527H68.1104V13.2163H71.2044V12.7527Z" fill="white"/>
<path d="M71.2044 11.2319H68.1104V11.6956H71.2044V11.2319Z" fill="white"/>
<path d="M51.5737 17.42L51.4779 17.3705C51.3348 17.2683 51.1789 17.1852 51.0143 17.1233C50.7577 17.0584 50.4857 17.0893 50.2292 17.0336C49.8675 16.9564 49.509 16.8667 49.1443 16.8111C48.688 16.7243 48.2182 16.7402 47.7688 16.8574C47.5496 16.908 47.3473 17.0145 47.1815 17.1665C47.0899 17.3015 47.0356 17.4582 47.0239 17.6209C46.9868 17.7758 46.9681 17.9345 46.9683 18.0938C46.9895 18.6885 47.1664 19.2673 47.4814 19.7722C47.6401 20.0449 47.8221 20.3034 48.0254 20.5449C48.2113 20.7922 48.4273 21.0154 48.6683 21.2094C48.8883 21.3339 49.0758 21.5086 49.2154 21.7194C49.3204 21.8894 49.3297 21.9389 49.5244 22.0285C49.8596 22.1267 50.2075 22.1747 50.5568 22.1707C51.0179 22.2013 51.481 22.1743 51.9354 22.0904C52.2723 22.0316 52.3341 21.7813 52.6092 21.6329C52.8843 21.4845 52.9924 21.4598 53.1099 21.1785C53.6415 19.9113 52.9863 18.8325 52.2104 17.9176C52.0275 17.7174 51.8123 17.5492 51.5737 17.42Z" fill="white"/>
</g>
<path d="M133.215 14.5096C133.298 14.5096 133.377 14.5426 133.436 14.6013C133.495 14.66 133.528 14.7396 133.528 14.8226V29.0683C133.528 33.628 133.127 34.2226 129.944 34.3572V34.8141H145.536V34.3666C141.877 34.3228 141.467 33.7782 141.467 29.0777V14.8351C141.467 14.7521 141.5 14.6725 141.559 14.6138C141.618 14.5551 141.697 14.5222 141.78 14.5222H145.17L146.822 12.416H141.799C141.716 12.416 141.636 12.383 141.578 12.3243C141.519 12.2656 141.486 12.186 141.486 12.103V6.46985C141.486 4.85188 141.661 4.01003 142.159 3.24329C142.657 2.47655 143.339 2.03216 143.996 2.03216C144.252 2.04391 144.501 2.12005 144.72 2.25352C144.939 2.387 145.12 2.57349 145.248 2.79577C145.511 3.28085 145.601 3.7847 145.695 5.25872C145.783 7.05508 145.871 7.80617 146.187 8.44146C146.418 8.89828 146.746 9.2991 147.148 9.61587C147.55 9.93265 148.017 10.1577 148.515 10.2754L152.549 5.01774C151.375 2.82706 148.481 1.40625 145.157 1.40625C142.006 1.40625 140.391 2.58296 136.063 8.03775L130.943 14.5096H133.215Z" fill="#D1B158"/>
<path d="M132.886 28.0793V15.1637H130.943C130.82 15.164 130.699 15.1298 130.595 15.0648C130.491 14.9999 130.407 14.9069 130.353 14.7966C130.299 14.6862 130.278 14.5629 130.291 14.4407C130.303 14.3186 130.351 14.2025 130.426 14.1059L132.651 11.2893C131.79 10.0973 130.775 9.02496 129.631 8.10031C126.661 5.61384 122.896 4.27867 119.022 4.3386C115.079 4.3386 111.63 5.59042 108.448 8.09406C106.65 9.47427 105.199 11.2544 104.21 13.2932C103.221 15.332 102.721 17.5733 102.749 19.8392C102.749 24.5899 104.626 28.5331 108.438 31.6251C111.41 34.0846 115.155 35.4148 119.013 35.3805C121.748 35.4018 124.446 34.7463 126.867 33.4724C129.287 32.1986 131.355 30.3459 132.886 28.0793ZM124.077 31.2652C123.705 32.307 123.019 33.2078 122.114 33.8434C121.209 34.4791 120.128 34.8182 119.022 34.8141C114.453 34.8141 112.482 30.3795 112.482 19.8486C112.482 9.31771 114.444 4.9207 119.022 4.9207C123.682 4.9207 125.594 9.4022 125.594 20.0207C125.594 24.859 125.106 28.6677 124.077 31.2652Z" fill="#D1B158"/>
<path d="M160.076 1.38123C156.915 1.38123 155.247 2.63304 151.122 8.01273L146.165 14.5097H148.669V29.0683C148.669 33.0866 148.356 34.0224 146.196 34.2821C146.198 34.3071 146.198 34.3322 146.196 34.3572V34.8141H160.464V34.3666C156.821 34.3228 156.427 33.7845 156.427 29.0777V14.5097H160.113L161.3 12.4035H156.433V6.45734C156.433 4.8425 156.608 3.99126 157.09 3.23079C157.572 2.47031 158.276 2.01965 158.89 2.01965C159.149 2.03147 159.401 2.10744 159.623 2.24072C159.845 2.37401 160.031 2.56044 160.163 2.78326C160.426 3.2746 160.514 3.81288 160.602 5.24621C160.689 7.08325 160.777 7.79992 161.084 8.42896C161.393 9.04218 161.872 9.55398 162.463 9.9039C163.054 10.2538 163.733 10.4273 164.42 10.4037C166.394 10.4037 167.843 9.01418 167.843 7.08638C167.843 3.89112 164.42 1.38123 160.076 1.38123Z" fill="#D1B158"/>
<line x1="175.844" y1="1.22498" x2="183.844" y2="1.22498" stroke="#939EA7"/>
<path d="M183.5 35.2515V1.03766" stroke="#939EA7"/>
<line x1="175.844" y1="35.225" x2="183.844" y2="35.225" stroke="#939EA7"/>
<path d="M190.53 18.0408H191.515C191.897 18.0408 192.214 17.9747 192.465 17.8425C192.72 17.7104 192.909 17.5281 193.032 17.2957C193.155 17.0632 193.217 16.7966 193.217 16.4958C193.217 16.1814 193.16 15.9125 193.046 15.6892C192.937 15.4613 192.768 15.2859 192.54 15.1628C192.317 15.0398 192.032 14.9783 191.686 14.9783C191.394 14.9783 191.13 15.0375 190.893 15.156C190.66 15.2699 190.476 15.434 190.339 15.6482C190.202 15.8578 190.134 16.1085 190.134 16.4001H188.479C188.479 15.8715 188.618 15.4021 188.896 14.9919C189.174 14.5818 189.553 14.2605 190.031 14.0281C190.514 13.7911 191.057 13.6726 191.658 13.6726C192.301 13.6726 192.861 13.7797 193.34 13.9939C193.823 14.2035 194.199 14.518 194.468 14.9373C194.737 15.3565 194.871 15.8761 194.871 16.4958C194.871 16.7784 194.805 17.0655 194.673 17.3572C194.541 17.6488 194.345 17.9154 194.085 18.157C193.825 18.394 193.502 18.5876 193.114 18.738C192.727 18.8839 192.278 18.9568 191.768 18.9568H190.53V18.0408ZM190.53 19.3259V18.4236H191.768C192.351 18.4236 192.848 18.4919 193.258 18.6287C193.673 18.7654 194.01 18.9545 194.27 19.196C194.529 19.433 194.718 19.7042 194.837 20.0095C194.96 20.3149 195.021 20.6384 195.021 20.9802C195.021 21.4451 194.937 21.8598 194.769 22.2244C194.604 22.5844 194.37 22.8897 194.064 23.1404C193.759 23.391 193.401 23.5802 192.991 23.7078C192.586 23.8354 192.144 23.8992 191.665 23.8992C191.237 23.8992 190.826 23.8399 190.435 23.7214C190.043 23.6029 189.692 23.4275 189.382 23.1951C189.072 22.9581 188.826 22.6641 188.644 22.3132C188.466 21.9578 188.377 21.5476 188.377 21.0828H190.024C190.024 21.379 190.093 21.641 190.229 21.8689C190.371 22.0922 190.567 22.2677 190.817 22.3953C191.073 22.5229 191.364 22.5867 191.692 22.5867C192.039 22.5867 192.337 22.5251 192.588 22.4021C192.839 22.2791 193.03 22.0968 193.162 21.8552C193.299 21.6137 193.367 21.322 193.367 20.9802C193.367 20.5929 193.292 20.2784 193.142 20.0369C192.991 19.7953 192.777 19.6176 192.499 19.5037C192.221 19.3852 191.893 19.3259 191.515 19.3259H190.53ZM203.269 20.2146V21.5271H196.091L196.037 20.5359L200.33 13.8093H201.649L200.22 16.2566L197.753 20.2146H203.269ZM202.025 13.8093V23.7625H200.378V13.8093H202.025Z" fill="#171717"/>
<line x1="94.5" y1="51.725" x2="94.5" y2="43.725" stroke="#939EA7"/>
<line x1="95" y1="51.2625" x2="105" y2="51.2625" stroke="#939EA7"/>
<line x1="104.5" y1="51.725" x2="104.5" y2="43.725" stroke="#939EA7"/>
<path d="M97.363 58.7751V68.7625H95.7155V60.7302L93.2751 61.5574V60.197L97.1647 58.7751H97.363ZM107.169 62.9519V64.5789C107.169 65.3582 107.092 66.0235 106.937 66.575C106.786 67.1218 106.568 67.5662 106.281 67.908C105.993 68.2498 105.649 68.5004 105.248 68.6599C104.852 68.8194 104.408 68.8992 103.915 68.8992C103.523 68.8992 103.159 68.849 102.822 68.7488C102.489 68.6485 102.188 68.4913 101.919 68.2771C101.65 68.0629 101.42 67.7872 101.229 67.45C101.042 67.1082 100.896 66.7003 100.791 66.2263C100.691 65.7524 100.641 65.2032 100.641 64.5789V62.9519C100.641 62.1681 100.718 61.5072 100.873 60.9695C101.028 60.4272 101.249 59.9874 101.536 59.6501C101.824 59.3083 102.165 59.06 102.562 58.905C102.963 58.7501 103.409 58.6726 103.902 58.6726C104.298 58.6726 104.663 58.7227 104.995 58.823C105.333 58.9187 105.633 59.0714 105.898 59.281C106.167 59.4906 106.395 59.7641 106.581 60.1013C106.773 60.434 106.919 60.8373 107.019 61.3113C107.119 61.7807 107.169 62.3276 107.169 62.9519ZM105.522 64.8113V62.7058C105.522 62.3093 105.499 61.9607 105.453 61.6599C105.408 61.3546 105.34 61.0971 105.248 60.8875C105.162 60.6733 105.052 60.5001 104.92 60.3679C104.788 60.2312 104.638 60.1332 104.469 60.074C104.3 60.0102 104.111 59.9783 103.902 59.9783C103.646 59.9783 103.419 60.0284 103.218 60.1287C103.018 60.2244 102.849 60.3793 102.712 60.5935C102.576 60.8077 102.471 61.0903 102.398 61.4412C102.329 61.7875 102.295 62.2091 102.295 62.7058V64.8113C102.295 65.2123 102.318 65.5655 102.364 65.8708C102.409 66.1762 102.478 66.4382 102.569 66.657C102.66 66.8712 102.769 67.0489 102.897 67.1902C103.029 67.3269 103.179 67.4272 103.348 67.491C103.521 67.5548 103.71 67.5867 103.915 67.5867C104.175 67.5867 104.405 67.5365 104.606 67.4363C104.806 67.336 104.975 67.1765 105.112 66.9578C105.248 66.7345 105.351 66.4451 105.419 66.0896C105.488 65.7341 105.522 65.308 105.522 64.8113Z" fill="#171717"/>
<defs>
<clipPath id="clip0_811_3311">
<rect width="92.446" height="34" fill="white" transform="translate(0.301758 1.38123)"/>
</clipPath>
</defs>
</svg>
