<svg width="270" height="85" viewBox="0 0 270 85" fill="none" xmlns="http://www.w3.org/2000/svg">
<g clip-path="url(#clip0_811_3137)">
<path d="M130 0.0375977H0V47.8493H130V0.0375977Z" fill="#D60C18"/>
<path d="M14.0825 13.6249C14.7932 14.0775 15.653 14.2335 16.4774 14.0595C17.2641 13.8683 18.0465 13.651 18.8245 13.4293C20.1893 13.0381 21.5455 12.6165 22.919 12.247C23.6014 12.0645 24.2881 11.8906 24.9792 11.7385C25.2922 11.6894 25.6005 11.6138 25.9007 11.5125C26.2093 11.3908 26.4831 11.1952 26.77 11.0778C27.2046 10.8735 27.6393 10.6866 28.1044 10.5041C29.4083 9.9738 32.1988 9.31748 31.5077 7.30939C31.2904 6.66175 30.6384 6.37488 30.069 6.07497C29.4678 5.81287 28.8042 5.72841 28.1565 5.83157C27.5275 5.83908 26.9177 6.04945 26.4179 6.43139C25.7398 7.27896 24.6141 7.5354 23.7665 8.21346C23.4666 8.43948 23.058 8.44383 22.7581 8.67419C22.6104 8.7872 22.5625 8.88283 22.3843 8.93498C22.2288 8.95737 22.072 8.96898 21.9149 8.96976C21.6193 9.00887 21.3281 9.04799 21.0456 9.0958C20.2034 9.20702 19.3801 9.4322 18.5985 9.76517C18.2075 9.95634 17.8324 10.1787 17.4771 10.4302C17.1337 10.6606 16.8078 10.5693 16.4166 10.5954C16.0254 10.6214 15.7081 10.6606 15.3517 10.7127L14.2911 10.8909L13.7565 10.9692C13.5758 10.9564 13.3943 10.9785 13.2219 11.0344C13.0932 11.147 13.0071 11.3004 12.9778 11.4688C12.9486 11.6373 12.9779 11.8107 13.0611 11.9602C13.3697 12.6034 13.4131 13.2337 14.0825 13.6249Z" fill="white"/>
<path d="M67.2319 12.6946C67.8708 12.5251 68.4228 12.3817 68.7618 11.7645C68.8662 11.5732 68.9792 11.382 69.0748 11.1864C69.2884 10.805 69.3908 10.3713 69.3704 9.9346C69.2051 9.59309 68.9418 9.30859 68.6141 9.11745C67.9958 8.81372 67.3323 8.6126 66.6494 8.52198C65.8584 8.35247 65.0325 8.15687 64.2328 8.05256C63.7593 7.9972 63.2796 8.0341 62.8201 8.16122C61.9107 8.40384 61.0237 8.72374 60.1688 9.11745C59.1865 9.5521 57.9955 9.29131 57.0784 9.89113C56.6818 10.0777 56.2548 10.1911 55.8179 10.2258C55.2746 10.3519 54.7617 10.5692 54.2314 10.7431C53.323 11.0343 52.4146 11.3168 51.4931 11.5689C50.8368 11.7471 50.1544 11.5689 49.5024 11.8818C49.2495 12.0655 48.982 12.2283 48.7027 12.3686C48.4114 12.4686 48.1159 12.6034 47.8334 12.7033C46.7902 13.0684 45.6601 13.3205 44.5909 13.6031C42.6958 14.255 40.579 13.9725 38.6318 14.3376C38.0667 14.4811 37.4756 14.5636 37.054 15.0157C36.9149 15.685 37.4017 15.9415 37.8364 16.2588C38.271 16.5761 38.6492 17.1976 39.1707 17.528C39.6417 17.7884 40.1347 18.0066 40.6442 18.1799C41.783 18.6407 42.8522 19.2448 44.078 19.4839C44.7517 19.6143 46.1339 19.7751 46.7467 19.3665C47.4682 18.8841 48.281 18.5494 48.9808 18.0278C49.3068 17.7844 49.5676 17.4671 49.9023 17.2367C50.2796 17.0294 50.6452 16.8016 50.9976 16.5543C51.4299 16.1135 51.9128 15.7254 52.4363 15.3982C53.11 15.2852 53.7403 14.5289 54.4096 15.0026C54.7313 15.1504 54.5792 15.4373 54.5965 15.7285C54.6139 16.0197 54.8269 16.3718 54.8269 16.7195C54.8169 17.0555 54.7629 17.3887 54.6661 17.7105V18.2495C55.0008 24.7128 54.4401 30.8544 53.875 37.3742C53.6142 38.1783 53.9315 38.9128 54.1141 39.6909C54.1392 39.9999 54.2065 40.3041 54.314 40.5949C54.6306 41.1545 55.1054 41.6081 55.6788 41.8989C56.8307 42.2814 58.4432 42.4726 59.3516 41.4642C60.2774 41.0296 60.5643 40.1603 60.6991 39.2084C60.8301 38.3646 60.9157 37.5143 60.9555 36.6613C60.9546 35.9877 60.852 35.318 60.6512 34.675C60.573 34.3403 60.5513 33.9969 60.473 33.6622C60.3426 33.132 60.1731 32.6017 60.0818 32.0627C59.6873 29.4852 59.4897 26.8813 59.4907 24.2738C59.5472 22.5352 59.0952 20.3619 58.8692 18.858C58.3606 17.7279 59.0691 16.5978 58.5301 15.4677C58.2911 14.907 58.3954 14.2203 58.391 13.6291C58.391 13.1249 58.7388 12.938 59.1473 12.7207C59.3006 12.6384 59.446 12.5424 59.582 12.4338C59.7314 12.3345 59.8979 12.2637 60.0732 12.2252C60.2383 12.1687 60.4035 12.1209 60.573 12.0774C61.79 11.7645 63.1592 11.5645 64.2806 12.2817C64.5697 12.5066 64.9029 12.668 65.2585 12.7555C65.9113 12.8984 66.5892 12.8775 67.2319 12.6946Z" fill="white"/>
<path d="M45.2253 37.1133C44.9765 36.8909 44.7004 36.7011 44.4038 36.5482C44.0648 36.4178 43.691 36.3961 43.3476 36.2744C42.475 35.9349 41.6439 35.4975 40.8701 34.9705C40.7052 34.8403 40.5309 34.7226 40.3485 34.6184C40.1682 34.5705 39.9829 34.5442 39.7965 34.5401C39.4444 34.4663 39.2358 34.1403 38.9272 33.9794C38.7837 33.9012 38.5968 33.8751 38.4925 33.7447C38.1724 33.4715 37.8153 33.2447 37.432 33.071C37.0842 32.8363 36.7018 32.7624 36.3453 32.5581C36.0403 32.3668 35.7497 32.1533 35.476 31.9192C34.9818 31.4194 34.4287 30.9815 33.8287 30.6152C31.7163 29.6373 30.2776 27.1858 28.7085 25.5733C27.6914 24.6431 26.3962 23.3479 26.4222 21.7353C26.8569 20.7226 28.087 20.3835 28.991 19.9011C30.1211 19.0579 31.7293 18.5971 32.377 17.2497C32.4904 17.0038 32.5422 16.734 32.5278 16.4636C32.5134 16.1932 32.4333 15.9304 32.2944 15.698C31.9249 14.933 30.9904 14.9634 30.2602 14.6809C29.8065 14.6413 29.3496 14.6945 28.9171 14.8374C28.2003 15.109 27.5476 15.5264 27.0003 16.0631C26.7395 16.2978 26.5092 16.5934 26.2353 16.815C25.9403 16.9982 25.6173 17.1318 25.2791 17.2106C25.1135 17.2993 24.9237 17.332 24.738 17.3038C24.5523 17.2756 24.3807 17.188 24.249 17.0541C23.9767 16.3004 23.5864 15.5947 23.0928 14.9634C22.9299 14.8776 22.7507 14.8272 22.5669 14.8156C22.393 14.7722 22.2844 14.6331 22.1322 14.5896C21.8758 14.5157 21.5411 14.6983 21.2629 14.6983C20.9218 14.6562 20.5759 14.6753 20.2415 14.7548C19.8522 14.9107 19.519 15.1803 19.2853 15.5285C19.0245 15.9153 19.1375 16.2065 19.0853 16.6368C19.0549 16.9281 18.9853 17.2106 18.9288 17.5061C18.8597 17.7911 18.8203 18.0824 18.8115 18.3754C18.8513 18.6417 18.9108 18.9047 18.9897 19.1622C19.0117 19.5455 18.9359 19.9281 18.7694 20.274C18.6028 20.62 18.3511 20.9179 18.0378 21.1398C17.7556 21.3801 17.4498 21.5913 17.125 21.7701C16.7469 21.9787 16.3166 22.0309 15.9254 22.2047C15.5659 22.3783 15.2201 22.5788 14.8909 22.8045C14.5562 23.0262 14.2259 23.2392 13.8738 23.4435C13.5218 23.6478 13.1002 23.6956 12.7524 23.8781C12.1309 24.1867 11.3963 24.2432 10.7748 24.4997C10.0967 24.6388 8.91447 24.3867 8.60152 25.2299C8.71827 25.9816 9.07506 26.6754 9.6186 27.2076C9.98371 28.0247 11.0573 28.3072 11.7919 28.8462C12.8915 29.2113 13.9955 28.6767 15.0387 28.7593C15.4342 30.2284 15.3212 31.7497 14.3041 32.8233C14.1161 33.401 13.8325 33.9431 13.4653 34.4271C13.2834 34.6605 13.0859 34.8812 12.8741 35.0878C12.6829 35.2704 12.609 35.5225 12.4178 35.7137C12.2073 35.9746 11.9665 36.2095 11.7006 36.4135C11.3094 36.6395 11.1703 36.3526 10.8617 36.1614C10.6686 36.0481 10.4588 35.966 10.2402 35.918C9.80864 35.8265 9.36146 35.8399 8.9362 35.9571C8.63527 36.1008 8.38954 36.3389 8.23641 36.6352C8.00777 36.854 7.85541 37.1404 7.80176 37.4523C7.83768 37.6467 7.88706 37.8385 7.94954 38.0261C8.03212 38.4303 7.88 38.678 8.15817 39.0518C8.3755 39.3387 8.31465 39.4561 8.36246 39.7994C8.39714 39.9578 8.46696 40.1063 8.56675 40.2341C8.754 40.4685 8.97521 40.6736 9.22307 40.8426C9.43455 41.0004 9.6672 41.1277 9.91417 41.2207C10.1545 41.2614 10.3925 41.3151 10.627 41.3816C11.0516 41.6269 11.5364 41.7489 12.0266 41.7336C12.8524 41.6945 13.5565 41.3468 14.3302 41.099C14.7016 41.0112 15.0618 40.8814 15.4038 40.7122C15.7164 40.5023 16.0076 40.2621 16.2731 39.995C16.6339 39.6777 16.9816 39.3474 17.3119 38.9997C17.9084 38.3877 18.4482 37.7228 18.9245 37.0133C19.1648 36.663 19.384 36.2987 19.5808 35.9223C19.759 35.5877 19.8416 35.2269 20.0155 34.8879C20.0981 34.701 20.2241 34.5358 20.3023 34.3489C20.4623 34.0065 20.5946 33.6519 20.6979 33.2883C20.772 32.9623 20.8935 32.6489 21.0586 32.3582C21.2918 31.8058 21.43 31.218 21.4672 30.6196C21.515 30.3545 21.615 30.098 21.6628 29.8329C21.7106 29.5677 21.7019 29.1852 21.7715 28.8679C21.8782 28.403 22.0682 27.9613 22.3322 27.564C22.9777 27.6868 23.5499 28.0563 23.9273 28.5941C24.148 28.8452 24.3847 29.0819 24.6358 29.3026C24.9314 29.5547 25.127 29.8981 25.4225 30.1415C26.2918 30.8282 26.8873 31.8497 27.5089 32.7494C28.2782 33.8447 29.0084 34.9661 29.7734 36.0658C30.5384 37.1654 31.1991 38.1956 32.2205 38.9736C32.9771 39.6291 33.7757 40.2345 34.6111 40.7861C35.2326 41.1425 36.0367 41.0382 36.7235 41.0512C37.9788 41.0469 39.2328 40.9686 40.4789 40.8165C41.0961 40.7513 41.7176 40.6861 42.3348 40.6427C42.6256 40.6513 42.9165 40.6338 43.2041 40.5905C43.7257 40.534 44.2603 40.2949 44.7776 40.2124C45.2948 40.1298 45.9251 40.0254 46.2728 39.5995C46.4144 39.4282 46.5144 39.2264 46.5649 39.01C46.6154 38.7935 46.6151 38.5683 46.564 38.352C46.351 37.7522 45.7034 37.4523 45.2253 37.1133Z" fill="white"/>
<path d="M80.2018 32.6017C80.4443 32.6053 80.6865 32.5805 80.9233 32.5278C81.1504 32.4772 81.3707 32.3999 81.5796 32.2974L81.7361 31.7671H81.6579C81.4763 31.9224 81.2689 32.0446 81.045 32.1279C80.8325 32.2145 80.6051 32.2588 80.3756 32.2583C80.1532 32.2731 79.9305 32.2342 79.7263 32.145C79.5221 32.0557 79.3423 31.9187 79.2021 31.7454C78.9058 31.3103 78.7635 30.7886 78.7978 30.2632C78.7663 29.7646 78.9075 29.2704 79.1977 28.8637C79.3275 28.6972 79.4958 28.5648 79.6881 28.4777C79.8804 28.3906 80.091 28.3515 80.3017 28.3638C80.5771 28.3542 80.8497 28.4219 81.0885 28.5594C81.2979 28.6778 81.4536 28.8724 81.5231 29.1027H81.6187C81.6331 28.9566 81.6563 28.8114 81.6883 28.6681C81.715 28.5389 81.7483 28.4113 81.7883 28.2856C81.5511 28.1817 81.3053 28.0988 81.0537 28.0378C80.8138 27.9858 80.569 27.9596 80.3235 27.9596C79.6461 27.9238 78.9812 28.1512 78.4675 28.5942C78.2357 28.8086 78.0534 29.0709 77.9333 29.3629C77.8132 29.6549 77.7582 29.9696 77.7721 30.285C77.7533 30.6035 77.8008 30.9225 77.9115 31.2217C78.0222 31.521 78.1938 31.794 78.4154 32.0236C78.9117 32.4436 79.5535 32.6513 80.2018 32.6017Z" fill="white"/>
<path d="M85.3656 30.9413C85.3787 30.7176 85.347 30.4936 85.2724 30.2824C85.1977 30.0712 85.0817 29.877 84.931 29.7112C84.5969 29.4376 84.1729 29.2982 83.7416 29.32C83.3104 29.3418 82.9027 29.5233 82.5979 29.8292C82.2931 30.135 82.113 30.5434 82.0927 30.9747C82.0725 31.4061 82.2134 31.8295 82.4882 32.1627C82.6509 32.314 82.8427 32.4307 83.0519 32.5054C83.2612 32.5801 83.4835 32.6114 83.7052 32.5973C83.903 32.6171 84.1028 32.5978 84.2931 32.5403C84.4834 32.4829 84.6605 32.3885 84.8143 32.2625C84.9682 32.1366 85.0956 31.9815 85.1895 31.8063C85.2833 31.6311 85.3417 31.439 85.3613 31.2412C85.3699 31.1414 85.3699 31.0411 85.3613 30.9413H85.3656ZM84.2399 31.9975C84.1915 32.0952 84.1154 32.1766 84.0211 32.2315C83.9268 32.2864 83.8185 32.3123 83.7096 32.3061C83.6017 32.3129 83.4943 32.2871 83.4013 32.232C83.3083 32.177 83.234 32.0953 83.188 31.9975C83.0635 31.6601 83.0131 31.2999 83.0402 30.9413C83.0178 30.5793 83.0711 30.2166 83.1967 29.8764C83.2729 29.7371 83.4013 29.6336 83.5537 29.5888C83.706 29.544 83.87 29.5614 84.0095 29.6373C84.1095 29.6938 84.1921 29.7764 84.2486 29.8764C84.3736 30.2153 84.4269 30.5764 84.405 30.9369C84.4265 31.2982 84.3701 31.6599 84.2399 31.9975Z" fill="white"/>
<path d="M90.8379 32.5148C90.8379 32.2975 90.8292 32.0889 90.8118 31.8889V30.8979C90.8206 30.5985 90.8032 30.2989 90.7597 30.0025C90.7294 29.8544 90.6638 29.7157 90.5684 29.5983C90.4804 29.4948 90.3685 29.4143 90.2425 29.3636C90.0756 29.3015 89.8975 29.2757 89.7199 29.2876C89.5423 29.2996 89.3693 29.3492 89.2123 29.4331C89.0318 29.5487 88.8825 29.7069 88.7777 29.8939C88.7125 29.7148 88.5904 29.5621 88.4299 29.4592C88.2615 29.3518 88.0647 29.2973 87.8649 29.3027C87.6798 29.2975 87.4962 29.3378 87.3303 29.4201C87.1613 29.5191 87.0135 29.6505 86.8956 29.8069V29.3723H85.9785C85.9785 29.7287 86.0003 30.0373 86.0089 30.2981C86.0176 30.5589 86.0089 30.7719 86.0089 30.9457V31.5977C86.0089 31.8629 86.0089 32.1758 85.9785 32.5235H86.9521V32.4627C86.9521 32.2106 86.9261 32.028 86.9261 31.928V30.8718C86.909 30.5964 86.952 30.3206 87.0521 30.0634C87.0975 29.9962 87.1586 29.9411 87.2303 29.903C87.3019 29.8649 87.3817 29.845 87.4629 29.845C87.544 29.845 87.6238 29.8649 87.6954 29.903C87.7671 29.9411 87.8282 29.9962 87.8736 30.0634C87.9783 30.4155 88.0166 30.7839 87.9866 31.15V31.8063C87.9866 32.028 87.9649 32.2758 87.9475 32.5192H88.9298V30.8718C88.9091 30.5981 88.9507 30.3231 89.0515 30.0677C89.1004 29.9978 89.1654 29.9407 89.2411 29.9012C89.3168 29.8618 89.4008 29.8412 89.4862 29.8412C89.5715 29.8412 89.6556 29.8618 89.7312 29.9012C89.8069 29.9407 89.8719 29.9978 89.9208 30.0677C90.0225 30.3786 90.0623 30.7064 90.0382 31.0327V31.7194C90.0382 31.9715 90.0164 32.228 89.9947 32.5148H90.864H90.8379Z" fill="white"/>
<path d="M93.6111 32.5148H94.5934V30.8718C94.5727 30.598 94.6143 30.3231 94.7151 30.0677C94.764 29.9977 94.829 29.9406 94.9047 29.9012C94.9803 29.8617 95.0644 29.8411 95.1497 29.8411C95.2351 29.8411 95.3191 29.8617 95.3948 29.9012C95.4705 29.9406 95.5355 29.9977 95.5844 30.0677C95.686 30.3786 95.7259 30.7064 95.7017 31.0326V31.7193C95.7017 31.9714 95.7017 32.2279 95.6583 32.5148H96.6406C96.6406 32.2974 96.6319 32.0888 96.6145 31.8889V30.8978C96.5925 30.6044 96.5445 30.3135 96.4711 30.0285C96.4408 29.8804 96.3752 29.7417 96.2798 29.6243C96.1918 29.5208 96.0799 29.4403 95.9538 29.3896C95.787 29.3275 95.6089 29.3017 95.4313 29.3136C95.2537 29.3256 95.0807 29.3752 94.9237 29.4591C94.7432 29.5747 94.5939 29.7329 94.4891 29.9199C94.4239 29.7408 94.3017 29.5881 94.1413 29.4852C93.9729 29.3778 93.776 29.3233 93.5763 29.3287C93.3912 29.3235 93.2076 29.3638 93.0417 29.4461C92.8716 29.5437 92.7237 29.6754 92.607 29.8329V29.3983H91.6855C91.6855 29.7547 91.7116 30.0633 91.716 30.3241C91.7203 30.5849 91.716 30.7979 91.716 30.9717V31.6237C91.716 31.8889 91.716 32.2018 91.6855 32.5495H92.6418V32.4887C92.6418 32.2366 92.62 32.054 92.62 31.9541V30.8718C92.5993 30.5966 92.6409 30.3202 92.7418 30.0633C92.7788 30.009 92.8262 29.9626 92.8812 29.9267C92.9363 29.8907 92.9978 29.866 93.0624 29.8539C93.127 29.8418 93.1934 29.8425 93.2577 29.8561C93.322 29.8696 93.383 29.8958 93.4372 29.9329C93.4889 29.9672 93.5333 30.0116 93.5676 30.0633C93.668 30.4162 93.7062 30.7839 93.6806 31.1499V31.8063C93.6806 32.0279 93.6241 32.2713 93.6111 32.5148Z" fill="white"/>
<path d="M100.479 30.9414C100.494 30.7175 100.463 30.493 100.388 30.2815C100.314 30.0699 100.196 29.8759 100.044 29.7113C99.7093 29.4464 99.2889 29.314 98.8629 29.3391C98.4368 29.3642 98.0349 29.5451 97.7336 29.8475C97.4323 30.1498 97.2528 30.5524 97.2292 30.9785C97.2056 31.4047 97.3396 31.8246 97.6056 32.1584C97.9493 32.4387 98.3792 32.5918 98.8227 32.5918C99.2661 32.5918 99.696 32.4387 100.04 32.1584C100.191 31.9954 100.308 31.8036 100.383 31.5945C100.458 31.3854 100.491 31.1633 100.479 30.9414ZM99.3486 31.9976C99.27 32.1369 99.1395 32.2393 98.9855 32.2825C98.8315 32.3257 98.6666 32.3061 98.5271 32.2279C98.4311 32.1731 98.3515 32.0936 98.2967 31.9976C98.1713 31.6603 98.118 31.3005 98.1403 30.9414C98.1178 30.5794 98.1711 30.2167 98.2967 29.8765C98.3345 29.8057 98.386 29.7433 98.4482 29.6928C98.5105 29.6424 98.5822 29.6049 98.6592 29.5826C98.7362 29.5603 98.8168 29.5537 98.8964 29.5631C98.976 29.5725 99.0529 29.5978 99.1226 29.6374C99.2225 29.6938 99.3052 29.7765 99.3616 29.8765C99.4906 30.2144 99.5454 30.576 99.5225 30.937C99.5454 31.298 99.4906 31.6596 99.3616 31.9976H99.3486Z" fill="white"/>
<path d="M102.952 30.0546C103.056 30.3515 103.096 30.667 103.069 30.9804V31.8497C103.077 32.0734 103.065 32.2974 103.034 32.5191H104.012C104.012 32.3496 103.986 32.1714 103.977 31.9888C103.969 31.8062 103.977 31.6107 103.977 31.4064V30.5762C103.986 30.3606 103.97 30.1449 103.93 29.9329C103.904 29.8158 103.851 29.7068 103.773 29.6156C103.684 29.5079 103.569 29.4243 103.439 29.3722C103.276 29.3127 103.103 29.2863 102.93 29.2946C102.756 29.3028 102.587 29.3454 102.43 29.42C102.258 29.5185 102.11 29.6535 101.995 29.8155V29.3809H101.1C101.117 29.6417 101.131 29.9025 101.139 30.1633V31.7063C101.139 31.9627 101.139 32.2409 101.1 32.5321H102.052C102.052 32.1887 102.052 31.8845 102.026 31.6237C102.013 31.3993 102.013 31.1744 102.026 30.95C102.008 30.6642 102.052 30.3779 102.156 30.1111C102.194 30.0414 102.249 29.9824 102.316 29.9395C102.383 29.8966 102.459 29.8712 102.539 29.8655C102.618 29.8599 102.697 29.8743 102.769 29.9073C102.841 29.9403 102.904 29.991 102.952 30.0546Z" fill="white"/>
<path d="M110.523 28.0378H110.219C110.084 28.5942 109.936 29.1419 109.784 29.6808C109.632 30.2198 109.45 30.7544 109.267 31.2847C109.067 30.7196 108.88 30.1676 108.702 29.6287C108.524 29.0897 108.363 28.5594 108.206 28.0378H107.541C107.368 28.5507 107.194 29.081 107.007 29.62C106.82 30.1589 106.629 30.7283 106.42 31.3282C106.25 30.7848 106.094 30.2372 105.946 29.6895C105.798 29.1419 105.659 28.5898 105.512 28.0378H104.395C104.664 28.8144 104.913 29.5794 105.142 30.3328C105.372 31.0804 105.577 31.8193 105.768 32.5408H106.437C106.62 31.9801 106.803 31.4368 106.989 30.9022C107.176 30.3676 107.372 29.8547 107.567 29.3505C107.772 29.9068 107.963 30.4545 108.141 30.9848C108.319 31.5151 108.48 32.0323 108.632 32.5408H109.315C109.58 31.702 109.841 30.9109 110.088 30.1589C110.336 29.407 110.575 28.7029 110.81 28.0378H110.523Z" fill="white"/>
<path d="M112.549 29.2766C112.338 29.2657 112.127 29.2987 111.929 29.3735C111.732 29.4483 111.552 29.5633 111.401 29.7112C111.255 29.8667 111.141 30.0498 111.066 30.2499C110.992 30.4499 110.958 30.6628 110.966 30.8761C110.939 31.3359 111.096 31.7876 111.401 32.1323C111.56 32.2846 111.75 32.4019 111.957 32.4768C112.164 32.5516 112.385 32.5823 112.605 32.5669C112.809 32.5671 113.012 32.5408 113.209 32.4887C113.382 32.4418 113.547 32.3669 113.696 32.267L113.839 31.8932L113.779 31.8454C113.656 31.9451 113.518 32.0244 113.37 32.0801C113.231 32.132 113.084 32.1585 112.935 32.1583C112.796 32.1629 112.658 32.1351 112.531 32.077C112.404 32.0189 112.293 31.9322 112.205 31.8237C112.01 31.564 111.913 31.2438 111.931 30.9196H113.952V30.7109C113.967 30.5156 113.943 30.3193 113.881 30.1335C113.819 29.9476 113.721 29.776 113.592 29.6287C113.451 29.5019 113.286 29.4052 113.107 29.3447C112.927 29.2841 112.737 29.2609 112.549 29.2766ZM113.031 30.5327V30.624H111.914V30.5632C111.897 30.3053 111.953 30.0479 112.075 29.8199C112.117 29.741 112.179 29.6751 112.256 29.6291C112.332 29.5832 112.42 29.559 112.509 29.5591C112.589 29.5585 112.667 29.5797 112.735 29.6203C112.803 29.6609 112.859 29.7194 112.896 29.7895C112.997 29.9992 113.043 30.2309 113.031 30.4632C113.033 30.4863 113.033 30.5096 113.031 30.5327Z" fill="white"/>
<path d="M117.061 32.1497C116.981 31.9897 116.949 31.8101 116.969 31.6325V31.5064L116.991 30.3589V30.3242C116.999 30.1784 116.975 30.0326 116.92 29.8973C116.865 29.762 116.781 29.6406 116.674 29.5418C116.413 29.3427 116.088 29.2454 115.761 29.268C115.556 29.2682 115.353 29.3111 115.165 29.394C114.954 29.489 114.759 29.6166 114.587 29.7722C114.609 29.8287 114.631 29.8852 114.648 29.946C114.668 30.0309 114.696 30.1138 114.731 30.1938C114.817 30.0461 114.931 29.9163 115.065 29.8113C115.186 29.729 115.328 29.685 115.474 29.6852C115.555 29.6844 115.635 29.6998 115.709 29.7304C115.784 29.761 115.852 29.8062 115.909 29.8634C115.967 29.9274 116.012 30.0021 116.041 30.0834C116.07 30.1647 116.083 30.251 116.078 30.3372V30.4633C115.856 30.591 115.618 30.6875 115.37 30.7501L115.035 30.8544C114.835 30.9114 114.654 31.0227 114.513 31.1761C114.396 31.3176 114.333 31.4964 114.335 31.6803C114.329 31.8021 114.347 31.924 114.388 32.0389C114.429 32.1538 114.492 32.2595 114.574 32.3496C114.66 32.4337 114.762 32.4991 114.874 32.5418C114.987 32.5844 115.106 32.6034 115.226 32.5974C115.407 32.6007 115.586 32.5557 115.744 32.467C115.899 32.3816 116.028 32.2554 116.117 32.1019C116.142 32.2396 116.214 32.3642 116.322 32.454C116.432 32.5392 116.569 32.5824 116.708 32.5757C116.825 32.5758 116.942 32.5627 117.056 32.5365C117.176 32.5129 117.292 32.4765 117.404 32.4279V32.2671H117.378C117.32 32.2713 117.261 32.263 117.206 32.2428C117.152 32.2225 117.102 32.1908 117.061 32.1497ZM116.109 31.5455C116.119 31.7062 116.077 31.8659 115.991 32.0019C115.952 32.053 115.901 32.0939 115.843 32.1211C115.785 32.1484 115.721 32.1612 115.657 32.1584C115.598 32.1622 115.539 32.1515 115.485 32.1273C115.431 32.103 115.384 32.066 115.348 32.0193C115.274 31.887 115.239 31.7361 115.248 31.5847C115.242 31.4872 115.257 31.3895 115.291 31.2981C115.326 31.2067 115.379 31.1236 115.448 31.0544C115.639 30.9029 115.867 30.8053 116.109 30.7719V31.5455Z" fill="white"/>
<path d="M118.855 27.5685C118.765 27.5744 118.675 27.5861 118.586 27.6033H118.151C118.06 27.6033 117.973 27.6033 117.882 27.5685C117.882 27.9292 117.908 28.3074 117.917 28.716C117.925 29.1245 117.917 29.5853 117.917 30.0547V31.3586C117.917 31.7672 117.895 32.1497 117.882 32.5192C117.961 32.5048 118.041 32.4946 118.121 32.4887C118.29 32.4714 118.46 32.4714 118.629 32.4887C118.708 32.4946 118.787 32.5048 118.864 32.5192C118.864 32.1628 118.834 31.7803 118.825 31.376C118.816 30.9718 118.825 30.5067 118.825 30.033V28.7247C118.816 28.29 118.838 27.9423 118.855 27.5685Z" fill="white"/>
<path d="M120.977 32.241C120.916 32.2466 120.854 32.2317 120.802 32.1987C120.75 32.1656 120.711 32.1163 120.69 32.0585C120.624 31.7501 120.599 31.4344 120.616 31.1196V30.8545C120.616 30.6632 120.616 30.3372 120.638 29.8808V29.7287H121.29C121.285 29.6796 121.285 29.6301 121.29 29.5809V29.4071H120.651V28.8159C120.648 28.6054 120.658 28.3949 120.681 28.1857L120.607 28.1335C120.468 28.2031 120.325 28.2683 120.173 28.3335L119.738 28.516C119.733 28.6367 119.74 28.7576 119.76 28.8768C119.771 28.9678 119.771 29.0597 119.76 29.1506V29.4027H119.325V29.4679C119.33 29.504 119.33 29.5405 119.325 29.5766V29.7461H119.76V31.7368C119.75 31.8549 119.765 31.9736 119.803 32.0857C119.841 32.1978 119.902 32.3009 119.982 32.3888C120.068 32.4679 120.17 32.5287 120.28 32.5675C120.391 32.6063 120.508 32.6224 120.625 32.6148C120.745 32.6156 120.865 32.601 120.981 32.5713C121.119 32.5367 121.253 32.4887 121.381 32.4279V32.2019C121.248 32.231 121.113 32.2442 120.977 32.241Z" fill="white"/>
<path d="M124.68 32.028V30.5763C124.686 30.3637 124.67 30.151 124.632 29.9417C124.602 29.822 124.545 29.7107 124.467 29.6157C124.377 29.508 124.262 29.4244 124.132 29.3723C123.993 29.3204 123.846 29.2939 123.697 29.294C123.495 29.29 123.295 29.3363 123.115 29.4288C122.938 29.5288 122.789 29.6706 122.68 29.8417V28.1509C122.686 27.9559 122.703 27.7614 122.733 27.5685L122.485 27.6076H122.024L121.768 27.5685C121.768 27.8467 121.802 28.177 121.811 28.5595C121.82 28.942 121.811 29.4809 121.811 30.1677V31.6542C121.811 31.9976 121.789 32.2845 121.768 32.5235H122.728C122.734 32.2334 122.724 31.9432 122.698 31.6542C122.682 31.4168 122.682 31.1787 122.698 30.9414C122.68 30.6556 122.724 30.3693 122.828 30.1025C122.871 30.0303 122.931 29.9699 123.002 29.9266C123.074 29.8834 123.155 29.8587 123.239 29.8548C123.323 29.8509 123.406 29.868 123.482 29.9044C123.557 29.9408 123.622 29.9954 123.671 30.0634C123.772 30.3611 123.81 30.6761 123.784 30.9892V31.8585C123.792 32.0822 123.781 32.3062 123.75 32.5279H124.723C124.7 32.3622 124.685 32.1953 124.68 32.028Z" fill="white"/>
<path d="M83.1096 38.5217L82.7315 35.3661H82.1273C81.8839 35.9094 81.6405 36.4353 81.3884 36.9482C81.1363 37.4611 80.8842 37.961 80.6234 38.4521C80.3539 37.9436 80.0888 37.435 79.8367 36.9265C79.5846 36.4179 79.3325 35.892 79.0978 35.3661H78.524L78.0894 38.4825C78.0726 38.6562 78.0464 38.8289 78.0112 38.9998C77.972 39.2432 77.9242 39.5344 77.8721 39.8691L78.0112 39.843H78.2589L78.4023 39.8691C78.4023 39.3692 78.4588 38.865 78.524 38.3695V38.3174L78.6849 36.9482C78.9196 37.3829 79.1586 37.848 79.4064 38.3348C79.6541 38.8216 79.8975 39.3345 80.154 39.8691H80.4322C80.6886 39.3258 80.9407 38.7998 81.1885 38.3C81.4362 37.8001 81.6796 37.3133 81.9274 36.8396L82.1403 38.9433C82.1403 39.0563 82.1708 39.3388 82.1882 39.8126V39.8778L82.4707 39.8517H82.9923L83.2922 39.8734C83.2574 39.717 83.2226 39.5431 83.1922 39.3432C83.1618 39.1432 83.1487 38.8694 83.1096 38.5217Z" fill="white"/>
<path d="M86.5175 39.5083C86.4398 39.3477 86.4082 39.1687 86.4262 38.9911V38.8651L86.4479 37.7176V37.6828C86.4562 37.5371 86.4321 37.3913 86.3772 37.256C86.3223 37.1207 86.2381 36.9992 86.1307 36.9004C85.8697 36.7014 85.5453 36.6041 85.2179 36.6266C85.0128 36.6269 84.81 36.6698 84.6224 36.7527C84.4111 36.8477 84.216 36.9753 84.0443 37.1308C84.0661 37.183 84.0878 37.2395 84.1095 37.3047C84.1313 37.3699 84.1573 37.4481 84.1878 37.5524C84.2706 37.4011 84.3865 37.2703 84.5268 37.1699C84.6445 37.0856 84.7862 37.0414 84.931 37.0439C85.0114 37.0427 85.0911 37.0575 85.1657 37.0873C85.2403 37.1172 85.3083 37.1615 85.3657 37.2177C85.4827 37.3487 85.5436 37.5204 85.5352 37.6959V37.8089C85.3147 37.9352 85.0777 38.0302 84.8311 38.0914L84.4964 38.2001C84.2953 38.2579 84.1136 38.369 83.9704 38.5217C83.8527 38.666 83.7924 38.8486 83.8009 39.0346C83.7936 39.1572 83.8111 39.28 83.8521 39.3957C83.8932 39.5114 83.9571 39.6177 84.04 39.7083C84.1257 39.7924 84.2278 39.8578 84.34 39.9004C84.4522 39.9431 84.5721 39.962 84.692 39.956C84.8742 39.9589 85.0541 39.9139 85.2135 39.8256C85.3671 39.7373 85.4946 39.6098 85.583 39.4562C85.6025 39.5965 85.6752 39.7239 85.7861 39.8121C85.8969 39.9003 86.0374 39.9425 86.1785 39.93C86.2938 39.9294 86.4088 39.9177 86.5218 39.8952C86.6408 39.8696 86.7572 39.8332 86.8696 39.7865V39.6214H86.8478C86.7878 39.6284 86.727 39.6219 86.6698 39.6024C86.6127 39.5828 86.5606 39.5507 86.5175 39.5083ZM85.5656 38.9042C85.5707 39.0575 85.5298 39.2089 85.4483 39.3388C85.4092 39.3899 85.3583 39.4308 85.3001 39.458C85.2418 39.4853 85.1778 39.4981 85.1136 39.4953C85.0549 39.4987 84.9964 39.4873 84.9432 39.4623C84.8901 39.4372 84.844 39.3993 84.8093 39.3519C84.7297 39.2216 84.6932 39.0695 84.705 38.9172C84.699 38.8204 84.7138 38.7234 84.7482 38.6327C84.7827 38.542 84.8361 38.4597 84.9049 38.3913C85.096 38.2398 85.3241 38.1422 85.5656 38.1088V38.9042Z" fill="white"/>
<path d="M89.8949 39.5083C89.6465 39.4207 89.3845 39.3781 89.1212 39.3822H89.0039C88.378 39.3822 88.0694 39.2475 88.0694 39.0476C88.0658 38.9676 88.0939 38.8894 88.1476 38.83C88.2013 38.7706 88.2763 38.7348 88.3562 38.7303H88.4692C88.8554 38.7522 89.2387 38.6519 89.5646 38.4434C89.6911 38.3531 89.7932 38.2327 89.8615 38.0931C89.9298 37.9534 89.9622 37.799 89.9557 37.6436C89.9597 37.5067 89.9298 37.3708 89.8688 37.2481C89.8084 37.135 89.7202 37.0393 89.6124 36.9699H90.2643V36.6483H89.6732C89.4368 36.6516 89.2003 36.6429 88.9647 36.6222L88.5301 36.5961C88.176 36.5754 87.8257 36.6783 87.5391 36.8873C87.4211 36.9773 87.3261 37.0939 87.2619 37.2276C87.1977 37.3613 87.166 37.5084 87.1696 37.6567C87.1626 37.7709 87.1782 37.8853 87.2155 37.9935C87.2528 38.1016 87.311 38.2013 87.3869 38.2869C87.5593 38.4607 87.7836 38.5737 88.0259 38.6086V38.7216C87.8407 38.7938 87.6732 38.905 87.5347 39.0476C87.4791 39.1052 87.4354 39.1732 87.4063 39.2479C87.3772 39.3225 87.3632 39.4021 87.3652 39.4822C87.361 39.6004 87.3996 39.7162 87.4739 39.8082C87.5556 39.904 87.6649 39.9723 87.7868 40.0038V40.056C87.5941 40.1139 87.4201 40.2219 87.2826 40.3689C87.1682 40.5046 87.1092 40.6784 87.1175 40.8557C87.1166 40.9831 87.1506 41.1084 87.2157 41.2179C87.2808 41.3274 87.3746 41.4171 87.4869 41.4773C87.8027 41.6466 88.1594 41.7248 88.517 41.7033C88.983 41.7257 89.4427 41.5893 89.821 41.3164C89.9791 41.2035 90.1076 41.054 90.1954 40.8807C90.2832 40.7074 90.3277 40.5154 90.3252 40.3211C90.3285 40.1594 90.2912 39.9995 90.2165 39.856C90.1498 39.7083 90.037 39.5863 89.8949 39.5083ZM88.1954 37.1003C88.232 37.0367 88.2841 36.9833 88.3468 36.9452C88.4096 36.9072 88.481 36.8856 88.5543 36.8826C88.6276 36.8795 88.7006 36.8951 88.7662 36.9279C88.8319 36.9606 88.8883 37.0095 88.93 37.0699C89.0203 37.2329 89.0611 37.4187 89.0473 37.6045C89.0629 37.831 89.0226 38.0579 88.93 38.2652C88.8577 38.3646 88.749 38.4314 88.6277 38.451C88.5063 38.4705 88.3822 38.4412 88.2823 38.3695C88.2433 38.3392 88.2083 38.3042 88.178 38.2652C88.0874 38.0804 88.0469 37.8751 88.0607 37.6697C88.048 37.4708 88.095 37.2725 88.1954 37.1003ZM89.2603 41.2121C89.051 41.3467 88.8047 41.4121 88.5562 41.399C88.3347 41.4111 88.117 41.338 87.9476 41.1947C87.872 41.1264 87.8122 41.0424 87.7724 40.9486C87.7326 40.8547 87.7138 40.7533 87.7173 40.6514C87.7145 40.5293 87.7461 40.4088 87.8086 40.3037C87.8676 40.2012 87.9552 40.1181 88.0607 40.0646L88.8213 40.1038C89.0099 40.1003 89.1945 40.1583 89.3472 40.2689C89.4052 40.3246 89.4501 40.3925 89.4787 40.4677C89.5072 40.5429 89.5187 40.6234 89.5124 40.7036C89.5168 40.8028 89.496 40.9014 89.4519 40.9904C89.4078 41.0793 89.3419 41.1556 89.2603 41.2121Z" fill="white"/>
<path d="M93.2199 39.5083C93.1423 39.3476 93.1107 39.1686 93.1287 38.991V37.6871C93.137 37.5413 93.1128 37.3955 93.0579 37.2602C93.0031 37.125 92.9188 37.0035 92.8114 36.9047C92.5504 36.7057 92.226 36.6083 91.8986 36.6309C91.6935 36.6311 91.4907 36.6741 91.3031 36.7569C91.0918 36.8519 90.8968 36.9795 90.725 37.1351C90.725 37.1872 90.7685 37.2437 90.7902 37.3089C90.812 37.3741 90.8381 37.4524 90.8685 37.5567C90.9513 37.4053 91.0672 37.2746 91.2075 37.1742C91.3252 37.0898 91.4669 37.0456 91.6117 37.0481C91.6921 37.047 91.7718 37.0618 91.8465 37.0916C91.9211 37.1214 91.989 37.1658 92.0464 37.222C92.1646 37.3525 92.227 37.5242 92.2202 37.7001V37.7697C92.2246 37.7838 92.2246 37.799 92.2202 37.8131C91.9997 37.9394 91.7628 38.0345 91.5161 38.0957L91.1814 38.2043C90.9803 38.2622 90.7986 38.3733 90.6555 38.526C90.5378 38.6702 90.4774 38.8528 90.486 39.0389C90.4787 39.1614 90.4961 39.2842 90.5372 39.4C90.5782 39.5157 90.6421 39.622 90.725 39.7126C90.8107 39.7966 90.9129 39.862 91.0251 39.9047C91.1373 39.9473 91.2571 39.9663 91.377 39.9603C91.5593 39.9632 91.7391 39.9182 91.8986 39.8299C92.0522 39.7415 92.1797 39.6141 92.2681 39.4605C92.2876 39.6007 92.3603 39.7282 92.4711 39.8163C92.582 39.9045 92.7224 39.9467 92.8635 39.9342C92.9788 39.9336 93.0938 39.922 93.2069 39.8995C93.3259 39.8738 93.4422 39.8375 93.5546 39.7908V39.6256C93.4937 39.6307 93.4324 39.6229 93.3748 39.6026C93.3171 39.5824 93.2643 39.5503 93.2199 39.5083ZM92.2724 38.9041C92.2752 39.0572 92.2345 39.2079 92.155 39.3388C92.1137 39.3884 92.0618 39.4282 92.0032 39.4553C91.9445 39.4823 91.8806 39.496 91.816 39.4952C91.7574 39.4986 91.6988 39.4873 91.6457 39.4622C91.5925 39.4371 91.5465 39.3992 91.5118 39.3518C91.4321 39.2215 91.3956 39.0694 91.4074 38.9171C91.4031 38.8201 91.4191 38.7232 91.4542 38.6327C91.4894 38.5421 91.543 38.4599 91.6117 38.3912C91.8012 38.237 92.0301 38.1391 92.2724 38.1087V38.9041Z" fill="white"/>
<path d="M95.2801 36.7439H93.9761C93.9805 36.7669 93.9805 36.7905 93.9761 36.8134C93.9805 36.851 93.9805 36.8889 93.9761 36.9265C93.9807 36.9625 93.9807 36.999 93.9761 37.0351V37.1047H94.05C94.4354 37.0873 94.7179 37.0786 94.8976 37.0786H95.4409L94.8237 38.0218C94.3021 38.8215 93.9196 39.404 93.6719 39.7604V39.8647L94.3412 39.8386H95.9103L96.5362 39.8647V39.4648C96.3537 39.4648 96.1668 39.4909 95.9755 39.4952C95.7843 39.4996 95.5887 39.4952 95.3888 39.4952H94.8107L95.9234 37.7566L96.5667 36.77V36.7222H95.9712L95.2801 36.7439Z" fill="white"/>
<path d="M98.0966 36.7222H97.1187C97.1187 37.0047 97.1447 37.2785 97.1534 37.535C97.1621 37.7914 97.1534 38.0479 97.1534 38.3V38.9954C97.158 39.2856 97.1464 39.5758 97.1187 39.8647L97.3708 39.8386H97.8489L98.0966 39.8647C98.0966 39.53 98.0705 39.2388 98.0618 38.9954C98.0532 38.752 98.0618 38.5129 98.0618 38.2956V37.5306C98.0618 37.2698 98.0792 37.0047 98.0966 36.7222Z" fill="white"/>
<path d="M97.6141 35.0315C97.4818 35.0267 97.3529 35.0742 97.2553 35.1637C97.1577 35.2531 97.0992 35.3774 97.0925 35.5096C97.0905 35.5828 97.1042 35.6556 97.1327 35.7231C97.1612 35.7905 97.2038 35.8511 97.2576 35.9008C97.3031 35.9479 97.3579 35.985 97.4185 36.0097C97.4791 36.0344 97.5443 36.0462 97.6097 36.0442C97.6757 36.0515 97.7425 36.0455 97.8062 36.0267C97.8699 36.0079 97.9292 35.9765 97.9807 35.9345C98.0321 35.8925 98.0747 35.8407 98.1059 35.782C98.137 35.7234 98.1562 35.6591 98.1623 35.593C98.1684 35.5269 98.1612 35.4602 98.1412 35.3968C98.1212 35.3335 98.0888 35.2748 98.0458 35.2241C98.0029 35.1735 97.9502 35.1319 97.891 35.1018C97.8318 35.0717 97.7672 35.0537 97.701 35.0488H97.6097L97.6141 35.0315Z" fill="white"/>
<path d="M101.813 38.7607V37.9349C101.821 37.7179 101.805 37.5007 101.765 37.2873C101.74 37.1702 101.686 37.0612 101.608 36.97C101.516 36.8647 101.4 36.7828 101.269 36.7309C101.131 36.6755 100.984 36.6475 100.835 36.6483C100.639 36.6455 100.445 36.6902 100.27 36.7787C100.098 36.8772 99.9492 37.0122 99.835 37.1743V36.7396H98.9092C98.9266 36.9975 98.9396 37.2583 98.9483 37.522C98.957 37.7857 98.957 38.0508 98.9483 38.3174V39.065C98.9541 39.3408 98.941 39.6168 98.9092 39.8908L99.1613 39.8647H99.5959L99.8393 39.8908C99.8393 39.5489 99.8306 39.2446 99.8133 38.9781V38.287C99.7954 38.0026 99.8399 37.7178 99.9437 37.4524C99.9818 37.3714 100.044 37.3041 100.122 37.2597C100.2 37.2154 100.289 37.1962 100.378 37.2047C100.463 37.1927 100.55 37.2061 100.627 37.2432C100.705 37.2803 100.769 37.3395 100.813 37.4133C100.913 37.711 100.952 38.026 100.926 38.3391V39.2084C100.934 39.4321 100.922 39.6561 100.891 39.8778L101.148 39.8517H101.608L101.869 39.8778C101.869 39.7083 101.843 39.5301 101.834 39.3475C101.826 39.165 101.813 38.965 101.813 38.7607Z" fill="white"/>
<path d="M104.051 36.6353C103.84 36.6245 103.628 36.6576 103.43 36.7324C103.232 36.8072 103.051 36.9221 102.9 37.0699C102.752 37.2248 102.638 37.4078 102.563 37.608C102.489 37.8082 102.455 38.0214 102.465 38.2348C102.438 38.6945 102.594 39.1463 102.9 39.4909C103.06 39.6431 103.25 39.7604 103.458 39.8352C103.666 39.91 103.887 39.9408 104.108 39.9256C104.312 39.9258 104.515 39.8995 104.712 39.8473C104.885 39.8005 105.05 39.7256 105.199 39.6257L105.342 39.2519L105.277 39.2041C105.156 39.3037 105.019 39.383 104.873 39.4388C104.734 39.4907 104.587 39.5172 104.438 39.517C104.298 39.5214 104.158 39.4931 104.031 39.4342C103.903 39.3754 103.791 39.2877 103.704 39.178C103.512 38.9167 103.417 38.5973 103.434 38.2739H105.451C105.455 38.248 105.455 38.2216 105.451 38.1957C105.455 38.1523 105.455 38.1086 105.451 38.0653C105.477 37.6704 105.346 37.2812 105.086 36.983C104.947 36.8563 104.783 36.76 104.605 36.7001C104.427 36.6402 104.239 36.6181 104.051 36.6353ZM104.551 37.8914V37.9783H103.434V37.9218C103.42 37.6647 103.474 37.4083 103.591 37.1786C103.633 37.1003 103.696 37.0349 103.773 36.989C103.849 36.9431 103.936 36.9186 104.025 36.9178C104.104 36.9176 104.18 36.9385 104.248 36.9782C104.315 37.018 104.37 37.0752 104.408 37.1438C104.507 37.3554 104.552 37.5885 104.538 37.8219L104.551 37.8914Z" fill="white"/>
<path d="M79.7628 13.9465C80.0786 14.4427 80.3687 14.9548 80.6321 15.4808L81.5014 14.6419C81.0624 14.1467 80.563 13.7087 80.0148 13.3379C80.1986 12.9172 80.344 12.4808 80.4495 12.034L79.1934 11.7732C78.9313 13.3002 78.4078 14.7706 77.646 16.1197L78.0806 16.4761C78.757 15.7158 79.3233 14.8643 79.7628 13.9465Z" fill="white"/>
<path d="M89.5034 11.6472C89.1117 10.7025 88.5782 9.82312 87.9213 9.03931L87.4258 9.28706C87.7564 10.2172 88.0251 11.1683 88.2299 12.134L89.5034 11.6472Z" fill="white"/>
<path d="M84.5918 10.9344H81.8361L82.4577 10.0651C81.6651 9.54757 80.7971 9.15608 79.8845 8.90454L79.6716 9.38266C80.2716 9.86039 80.8393 10.3773 81.3711 10.93H77.9199V11.6255H84.5918V10.9344Z" fill="white"/>
<path d="M80.7235 19.5275V23.5828H82.0535V19.2363C82.6055 19.8619 83.122 20.5178 83.6009 21.2009L84.518 20.1795C83.7646 19.5237 82.9376 18.9578 82.0535 18.493V17.9193H84.6223V17.2195H82.0535V15.7634H81.7928C82.1784 15.2394 82.5146 14.6806 82.7968 14.0943C83.1271 14.5589 83.4179 15.0503 83.6661 15.5635L84.392 14.8984C84.2527 15.2896 84.0916 15.6727 83.9095 16.0459L84.3442 16.3676C84.5789 16.059 84.7788 15.7199 85.0092 15.3766V23.5089H86.3696V22.3136H91.5855V21.6008H89.2166V18.9233H91.0117V18.2279H89.2166V15.8112H90.9987V15.1158H89.2166V13.0425H91.3899V12.3427H86.2957C86.5784 11.3783 86.7647 10.3882 86.8521 9.38706L85.4438 9.10889C85.2135 11.3691 85.0092 13.0425 84.4832 14.6203C84.0742 14.1724 83.6063 13.782 83.0924 13.4598C83.2781 13.0248 83.4236 12.5738 83.527 12.1123L82.2709 11.8037C82.147 13.183 81.7635 14.5265 81.1408 15.7634H80.7409V17.2195H77.8244V17.9193H80.3801C79.6893 19.479 78.7068 20.8924 77.4854 22.0832L77.8113 22.5179C78.9446 21.6934 79.9294 20.6822 80.7235 19.5275ZM86.3262 13.0425H87.8214V15.1158H86.3175L86.3262 13.0425ZM86.3262 15.8112H87.8214V18.2279H86.3175L86.3262 15.8112ZM86.3262 18.9233H87.8214V21.6008H86.3175L86.3262 18.9233Z" fill="white"/>
<path d="M106.077 17.5627C105.249 16.8595 104.32 16.2851 103.321 15.8589L103.043 16.2935C103.791 17.0179 104.499 17.7825 105.164 18.5842L106.077 17.5627Z" fill="white"/>
<path d="M103.578 15.1156H100.713V15.8111H108.02V15.1156H104.968V12.4382H108.22V11.7384H104.968V9.13916H103.578V11.7384H100.387V12.4382H103.578V15.1156Z" fill="white"/>
<path d="M108.78 20.827C108.258 19.7031 107.551 18.6747 106.69 17.7844L106.255 18.0756C106.775 19.1603 107.211 20.2836 107.559 21.4355L108.78 20.827Z" fill="white"/>
<path d="M102.165 21.3355C102.165 23.0089 102.474 23.1784 104.738 23.1784C107.15 23.1784 107.029 22.1874 106.316 19.6491H105.76C105.76 21.7093 105.76 21.9093 104.643 21.9093C103.669 21.9093 103.53 21.7093 103.53 21.0878V17.2976H102.165V21.3355Z" fill="white"/>
<path d="M100.061 11.7383H97.8184L98.6225 11.1211C97.9339 10.3039 97.1318 9.58965 96.2406 9L95.8538 9.38684C96.2102 9.89538 96.7839 10.856 97.2925 11.7383H94.9062V12.4381H100.061V11.7383Z" fill="white"/>
<path d="M98.3922 23.2741H99.557V21.4008L100.596 22.1744C101.309 21.2312 101.665 19.8664 101.756 18.2278L101.213 18.1191C101.005 19.3095 100.425 20.4035 99.557 21.2443V18.2017H95.3931V23.5088H96.6014V22.3787H98.3835L98.3922 23.2741ZM98.3922 21.6789H96.6275V18.8624H98.3922V21.6789Z" fill="white"/>
<path d="M99.7049 16.0283H95.354V16.6803H99.7049V16.0283Z" fill="white"/>
<path d="M99.7049 13.8899H95.354V14.5419H99.7049V13.8899Z" fill="white"/>
<path d="M72.0998 22.5917L71.9651 22.5222C71.7638 22.3784 71.5446 22.2615 71.3131 22.1744C70.9524 22.0832 70.5699 22.1266 70.2091 22.0484C69.7006 21.9397 69.1964 21.8137 68.6835 21.7354C68.0419 21.6135 67.3812 21.6357 66.7493 21.8006C66.4411 21.8717 66.1565 22.0215 65.9234 22.2353C65.7947 22.4251 65.7182 22.6455 65.7018 22.8742C65.6495 23.092 65.6233 23.3153 65.6235 23.5393C65.6534 24.3756 65.9022 25.1894 66.3451 25.8994C66.5683 26.2829 66.8243 26.6465 67.1101 26.986C67.3716 27.3337 67.6753 27.6476 68.0141 27.9205C68.3236 28.0955 68.5872 28.3413 68.7835 28.6377C68.9312 28.8768 68.9443 28.9463 69.2181 29.0724C69.6895 29.2105 70.1787 29.2779 70.6698 29.2723C71.3182 29.3153 71.9694 29.2773 72.6084 29.1593C73.0822 29.0767 73.1691 28.7246 73.5559 28.516C73.9428 28.3074 74.0949 28.2726 74.2601 27.8771C75.0077 26.095 74.0862 24.5781 72.9952 23.2915C72.7379 23.0099 72.4353 22.7733 72.0998 22.5917Z" fill="white"/>
</g>
<path d="M184.2 6.48885L179.299 0.825195L177.969 1.69186C177.969 1.69186 179.745 5.63085 180.135 8.47351L184.2 6.48885Z" fill="#373737"/>
<path d="M202.456 2.64519L197.954 0.825195C197.954 0.825195 197.261 4.95052 195.735 7.85384L196.793 8.47351L202.456 2.64519Z" fill="#373737"/>
<path d="M191.675 16.698H187.862V20.1777H191.675V16.698Z" fill="#373737"/>
<path d="M192.403 15.0472H194.327L197.997 10.3325H193.599L192.403 15.0472Z" fill="#373737"/>
<path d="M183.234 15.0469H187.298L184.326 10.3323H182.501L183.234 15.0469Z" fill="#373737"/>
<path d="M185.227 27.2411C184.386 28.3981 180.46 33.4637 174.35 35.8817L174.866 37.3247C174.866 37.3247 183.563 34.6251 187.866 29.7891V37.7797H191.683V28.3548C195.345 33.8321 203.006 36.9564 203.006 36.9564L205.255 32.5321C200.685 31.9956 196.364 30.1593 192.806 27.2411H185.227Z" fill="#373737"/>
<path d="M188.434 0.617188H185.062V8.67716H188.434V0.617188Z" fill="#373737"/>
<path d="M191.675 21.8286H187.862V25.5856H191.675V21.8286Z" fill="#373737"/>
<path d="M194.604 0.617188H191.233V8.67716H194.604V0.617188Z" fill="#373737"/>
<path d="M157.255 4.75126L158.278 2.9746L153.607 1.1936C153.607 1.1936 151.366 11.5459 140 18.8909L140.784 20.2602C140.784 20.2602 150.725 15.7622 156.436 6.28092C156.436 6.28092 160.475 14.5142 168.851 19.6362L171.477 14.8392C171.477 14.8392 164.436 12.8242 157.255 4.75126Z" fill="#373737"/>
<path d="M158.729 12.98H154.391V35.5436H158.729V12.98Z" fill="#373737"/>
<path d="M149.993 19.7573H145.811V35.5436H149.993V19.7573Z" fill="#373737"/>
<path d="M241.01 2.31152V36.0854H270V2.31152H241.01ZM266.183 34.4344H244.832V3.96685H266.183V34.4344Z" fill="#373737"/>
<path d="M251.12 11.6584H254.439L255.171 8.97176H259.019V11.6584H262.217V8.97176V7.31643H259.019H255.622L256.12 5.49644L252.71 5.00244L252.155 7.31643H247.935V8.97176H251.761L251.12 11.6584Z" fill="#373737"/>
<path d="M251.514 15.2117H248.208V20.845H255.405V23.12H258.815V20.832H262.715V15.1987H251.514V15.2117ZM259.392 19.1811H251.514V16.8671H259.392V19.1811Z" fill="#373737"/>
<path d="M258.816 24.7625H255.405V27.7784H258.816V24.7625Z" fill="#373737"/>
<path d="M258.816 29.4336H255.405V33.3206H258.816V29.4336Z" fill="#373737"/>
<path d="M251.106 24.7625H247.644V27.7784H251.106V24.7625Z" fill="#373737"/>
<path d="M210.308 19.1983L211.127 20.4983C211.127 20.4983 218.693 17.699 221.254 10.2456L217.163 8.26099C217.163 8.26099 216.353 16.1606 210.308 19.1983Z" fill="#373737"/>
<path d="M212.427 7.33377H224.392V15.9614C224.392 15.9614 224.054 19.0424 227.031 19.0424H231.988C231.988 19.0424 234.419 19.1811 234.419 16.2647V13.0494L232.885 12.3864V13.7601C232.885 13.7601 233.011 15.4674 231.295 15.4674H228.643C228.559 15.4674 228.477 15.4509 228.4 15.4188C228.323 15.3868 228.253 15.3398 228.194 15.2806C228.135 15.2214 228.089 15.1511 228.057 15.0739C228.025 14.9966 228.01 14.9139 228.01 14.8304V7.33377H233.773V11.1948L236.334 12.2954H237.608V5.67844H224.903V0.474121H220.791V5.67411H208.571V13.3267H212.427V7.33377Z" fill="#373737"/>
<path d="M224.66 23.1375C224.82 22.1544 224.929 21.1636 224.985 20.1691C224.603 20.0844 224.251 19.9003 223.963 19.6355C223.676 19.3707 223.463 19.0345 223.347 18.6611H220.678C220.98 20.1334 221.046 21.6445 220.873 23.1375H224.66Z" fill="#373737"/>
<path d="M225.223 24.7971H220.599C219.672 28.7924 216.699 33.7108 208.146 36.1894L208.622 37.9227C210.149 37.908 211.666 37.6775 213.129 37.2381L213.298 37.1861C213.432 37.1471 213.562 37.1081 213.701 37.0604L214.086 36.9304L214.307 36.8524C217.926 35.5524 222.268 32.5754 224.131 25.9671C226.982 35.0671 235.805 37.7537 235.805 37.7537L238.158 32.9871C229.327 31.9601 225.981 26.3268 225.223 24.7971Z" fill="#373737"/>
<path d="M234.965 18.8605L234.601 19.0945C235.09 20.1804 235.454 21.3188 235.684 22.4875L236.75 21.9675C236.866 21.9118 236.967 21.8302 237.046 21.7288C237.125 21.6274 237.18 21.5091 237.205 21.3832C237.231 21.2572 237.227 21.1271 237.194 21.0029C237.161 20.8787 237.099 20.7639 237.014 20.6675L235.502 18.9341C235.434 18.8625 235.344 18.8162 235.246 18.8028C235.149 18.7895 235.049 18.8098 234.965 18.8605Z" fill="#373737"/>
<path d="M181.894 44.4486C181.511 44.4612 181.138 44.5781 180.815 44.7866L180.941 45.1159C181.046 44.983 181.177 44.873 181.326 44.7925C181.475 44.712 181.639 44.6628 181.808 44.6479C182.215 44.6479 182.41 44.9123 182.419 45.4799C182.293 45.5103 182.046 45.5579 181.786 45.5926C180.997 45.7139 180.633 46.0259 180.633 46.6196C180.633 47.0963 180.976 47.3909 181.522 47.3909C181.88 47.3671 182.218 47.213 182.471 46.9576V47.3606H182.969V45.6273C182.979 45.4117 182.951 45.1961 182.887 44.9903C182.8 44.8064 182.657 44.6548 182.479 44.5574C182.301 44.46 182.096 44.4219 181.894 44.4486ZM182.466 46.8016C182.273 46.9558 182.037 47.0466 181.79 47.0616C181.717 47.064 181.644 47.0513 181.576 47.0243C181.508 46.9972 181.446 46.9564 181.394 46.9043C181.342 46.8522 181.302 46.7901 181.276 46.7217C181.249 46.6533 181.237 46.5802 181.24 46.5069C181.235 46.3741 181.269 46.2427 181.34 46.1299C181.41 46.0171 181.513 45.928 181.634 45.8743C181.759 45.8178 181.892 45.7826 182.029 45.7703C182.293 45.7183 182.341 45.7096 182.462 45.6749L182.466 46.8016Z" fill="#373737"/>
<path d="M195.999 45.8829C195.822 45.7646 195.623 45.6808 195.414 45.6359C195.232 45.6066 195.057 45.5387 194.903 45.4366C194.85 45.4015 194.807 45.3529 194.779 45.2958C194.751 45.2387 194.738 45.1751 194.743 45.1116C194.743 44.8516 194.938 44.6783 195.25 44.6783C195.396 44.6811 195.539 44.7132 195.673 44.7727C195.806 44.8323 195.926 44.9181 196.025 45.0249L196.16 44.7346C195.902 44.5634 195.602 44.4674 195.293 44.4573C194.656 44.4573 194.279 44.7606 194.279 45.2676C194.279 45.7746 194.539 45.9956 195.098 46.1343C195.272 46.1646 195.439 46.2247 195.592 46.3119C195.659 46.3527 195.714 46.4108 195.751 46.4803C195.787 46.5498 195.804 46.6279 195.8 46.7063C195.8 46.9793 195.553 47.1656 195.189 47.1656C195.027 47.1698 194.865 47.1391 194.716 47.0755C194.566 47.012 194.432 46.9171 194.322 46.7973L194.188 47.0919C194.473 47.2844 194.81 47.3856 195.154 47.3823C195.913 47.3823 196.316 47.0919 196.316 46.5546C196.32 46.4255 196.294 46.2972 196.239 46.1804C196.184 46.0636 196.102 45.9616 195.999 45.8829Z" fill="#373737"/>
<path d="M200.991 43.5258C200.93 43.6723 200.905 43.8312 200.918 43.9894V44.5268H200.372V44.7348H200.918V47.3781H201.455V44.7348H202.088V44.5268H201.455V44.0068C201.444 43.903 201.444 43.7985 201.455 43.6948C201.472 43.619 201.516 43.5521 201.579 43.5073C201.642 43.4624 201.72 43.4427 201.797 43.4521C201.888 43.4459 201.979 43.4459 202.07 43.4521V43.2701C201.955 43.2372 201.835 43.2226 201.715 43.2268C201.342 43.2268 201.1 43.3264 200.991 43.5258Z" fill="#373737"/>
<path d="M207.482 44.4443C207.296 44.4393 207.111 44.4745 206.939 44.5474C206.767 44.6204 206.613 44.7294 206.488 44.8671C206.362 45.0048 206.267 45.1679 206.21 45.3455C206.153 45.523 206.135 45.7108 206.156 45.896C206.156 46.8233 206.676 47.4126 207.482 47.4126C208.288 47.4126 208.782 46.8493 208.782 45.9003C208.782 44.9513 208.275 44.4443 207.482 44.4443ZM207.482 47.196C207.049 47.196 206.707 46.624 206.707 45.896C206.707 45.168 207.062 44.6697 207.487 44.6697C207.911 44.6697 208.223 45.207 208.223 45.883C208.223 46.559 207.898 47.196 207.482 47.196Z" fill="#373737"/>
<path d="M229.912 45.8266C229.928 45.4841 229.82 45.1471 229.608 44.8776C229.492 44.7393 229.347 44.6287 229.183 44.5537C229.019 44.4787 228.84 44.4414 228.659 44.4442C227.914 44.4442 227.42 45.0292 227.42 45.9089C227.42 46.8622 227.853 47.3692 228.72 47.3692C228.935 47.3772 229.148 47.332 229.341 47.2374C229.533 47.1429 229.7 47.0021 229.825 46.8276L229.699 46.6932C229.597 46.8259 229.465 46.9337 229.315 47.0087C229.165 47.0837 229 47.124 228.833 47.1266C228.33 47.1266 227.966 46.6152 227.966 45.9002V45.8266H229.912ZM228.646 44.6609C229.01 44.6609 229.27 45.0466 229.283 45.6186H227.983C228.066 45.0292 228.308 44.6782 228.646 44.6782V44.6609Z" fill="#373737"/>
<path d="M241.916 45.8831C241.737 45.7654 241.539 45.6817 241.331 45.6361C241.146 45.6074 240.97 45.5394 240.815 45.4367C240.763 45.4011 240.721 45.3523 240.693 45.2952C240.666 45.2381 240.654 45.1748 240.659 45.1117C240.659 44.8517 240.854 44.6784 241.162 44.6784C241.308 44.6807 241.452 44.7126 241.585 44.7722C241.718 44.8318 241.838 44.9178 241.937 45.0251L242.072 44.7347C241.808 44.559 241.5 44.4627 241.183 44.4574C240.551 44.4574 240.174 44.7607 240.174 45.2677C240.174 45.7747 240.429 45.9957 240.988 46.1344C241.162 46.1647 241.329 46.2248 241.482 46.3121C241.551 46.3505 241.608 46.4082 241.645 46.4782C241.682 46.5483 241.698 46.6276 241.69 46.7064C241.69 46.9794 241.443 47.1657 241.079 47.1657C240.917 47.1696 240.755 47.1388 240.606 47.0753C240.457 47.0117 240.322 46.917 240.213 46.7974L240.083 47.0921C240.367 47.2855 240.705 47.3868 241.049 47.3824C241.803 47.3824 242.21 47.0921 242.21 46.5547C242.217 46.4275 242.194 46.3004 242.143 46.1836C242.092 46.0669 242.014 45.964 241.916 45.8831Z" fill="#373737"/>
<path d="M167.794 43.6816H169.068H169.675H170.944V43.4736H167.794V43.6816Z" fill="#373737"/>
<path d="M175.49 45.3933V45.8743C175.483 45.7597 175.502 45.6451 175.543 45.5381C175.585 45.4311 175.649 45.3343 175.731 45.2542C175.813 45.1741 175.911 45.1126 176.019 45.0738C176.127 45.035 176.242 45.0198 176.357 45.0293C176.406 45.0226 176.455 45.0226 176.504 45.0293H176.539L176.608 44.4876C176.541 44.4678 176.47 44.4591 176.4 44.4616C175.967 44.479 175.655 44.7953 175.49 45.3933Z" fill="#373737"/>
<path d="M213.835 45.3933V45.8743C213.828 45.7596 213.845 45.6446 213.887 45.5373C213.928 45.43 213.992 45.3329 214.074 45.2526C214.157 45.1724 214.255 45.1108 214.364 45.0723C214.472 45.0338 214.587 45.0191 214.702 45.0293C214.751 45.0229 214.8 45.0229 214.849 45.0293H214.884L214.966 44.5267C214.899 44.5071 214.828 44.4983 214.758 44.5007C214.325 44.479 214 44.7953 213.835 45.3933Z" fill="#373737"/>
<path d="M234.943 45.3933V45.8743C234.937 45.7597 234.955 45.6451 234.996 45.5381C235.038 45.4311 235.102 45.3343 235.184 45.2542C235.266 45.1741 235.364 45.1126 235.472 45.0738C235.58 45.035 235.696 45.0198 235.81 45.0293C235.859 45.0229 235.908 45.0229 235.957 45.0293H235.992L236.061 44.4876C235.994 44.4678 235.923 44.4591 235.853 44.4616C235.433 44.479 235.108 44.7953 234.943 45.3933Z" fill="#373737"/>
<path d="M188.806 44.4746C188.653 44.4653 188.5 44.5014 188.366 44.5784C188.233 44.6555 188.125 44.7701 188.057 44.9079V45.5319C188.066 45.3604 188.113 45.193 188.195 45.0423C188.236 44.9454 188.304 44.8618 188.389 44.8007C188.475 44.7395 188.576 44.7032 188.681 44.6956C188.809 44.6933 188.934 44.7351 189.035 44.814C189.136 44.8929 189.207 45.0041 189.235 45.1289C189.268 45.271 189.284 45.4164 189.283 45.5623V47.4083H189.833V45.5536C189.858 45.4109 189.849 45.2645 189.807 45.1259C189.765 44.9873 189.691 44.8605 189.591 44.7556C189.492 44.6508 189.369 44.5707 189.232 44.5219C189.096 44.4731 188.95 44.4569 188.806 44.4746Z" fill="#373737"/>
<path d="M222.151 44.4747C221.981 44.4788 221.816 44.5305 221.674 44.624C221.532 44.7175 221.42 44.8489 221.349 45.0034C221.289 44.8386 221.177 44.6979 221.03 44.6025C220.883 44.5071 220.709 44.4623 220.535 44.4747C220.385 44.4748 220.238 44.515 220.109 44.5913C219.98 44.6675 219.874 44.7769 219.802 44.908V45.532C219.802 45.0987 220.097 44.6957 220.396 44.6957C220.695 44.6957 220.89 44.9947 220.89 45.5364V47.3823H221.436V45.5277C221.451 45.3616 221.494 45.1991 221.562 45.0467C221.599 44.9513 221.662 44.8681 221.744 44.8061C221.826 44.7442 221.923 44.706 222.025 44.6957C222.14 44.7053 222.247 44.7534 222.331 44.8321C222.414 44.9108 222.468 45.0155 222.485 45.129C222.512 45.2719 222.525 45.417 222.524 45.5623V47.3823H223.07V45.5537C223.07 44.8604 222.736 44.4747 222.151 44.4747Z" fill="#373737"/>
<path d="M203.509 15.0469H176.227V16.7022H203.509V15.0469Z" fill="#D7B788"/>
<path d="M201.806 20.1777H177.934V21.8331H201.806V20.1777Z" fill="#D7B788"/>
<path d="M204.705 8.6814H175.035V10.3367H204.705V8.6814Z" fill="#D7B788"/>
<path d="M204.943 25.5857H174.796V27.241H204.943V25.5857Z" fill="#D7B788"/>
<path d="M167.248 22.8601H158.729V24.5154H167.248V22.8601Z" fill="#D7B788"/>
<path d="M170.251 35.5437H140.854V37.2034H170.251V35.5437Z" fill="#D7B788"/>
<path d="M265.293 11.6584H245.715V13.3138H265.293V11.6584Z" fill="#D7B788"/>
<path d="M264.306 23.1069H247.644V24.7623H264.306V23.1069Z" fill="#D7B788"/>
<path d="M265.294 27.7783H245.785V29.4336H265.294V27.7783Z" fill="#D7B788"/>
<path d="M237.794 23.1372H208.124V24.7969H237.794V23.1372Z" fill="#D7B788"/>
<path d="M169.675 43.6816H169.072V47.3606H169.675V43.6816Z" fill="#D7B788"/>
<path d="M175.494 44.5093H174.952V47.3606H175.494V44.5093Z" fill="#D7B788"/>
<path d="M213.836 44.5094H213.294V47.3607H213.836V44.5094Z" fill="#D7B788"/>
<path d="M234.947 44.5093H234.406V47.3606H234.947V44.5093Z" fill="#D7B788"/>
<path d="M188.057 44.5094H187.506V47.3607H188.057V44.5094Z" fill="#D7B788"/>
<path d="M219.803 44.5093H219.252V47.3606H219.803V44.5093Z" fill="#D7B788"/>
<line x1="0.5" y1="64.0001" x2="0.5" y2="56.0001" stroke="#939EA7"/>
<line y1="63.5376" x2="130" y2="63.5376" stroke="#939EA7"/>
<line x1="129.5" y1="64.0001" x2="129.5" y2="56.0001" stroke="#939EA7"/>
<path d="M58.4545 71.0503V81.0376H56.807V73.0054L54.3666 73.8325V72.4722L58.2562 71.0503H58.4545ZM63.708 75.3159H64.6924C65.0752 75.3159 65.3919 75.2498 65.6426 75.1177C65.8978 74.9855 66.0869 74.8032 66.21 74.5708C66.333 74.3384 66.3945 74.0718 66.3945 73.771C66.3945 73.4565 66.3376 73.1877 66.2236 72.9644C66.1143 72.7365 65.9456 72.561 65.7178 72.438C65.4945 72.3149 65.2096 72.2534 64.8633 72.2534C64.5716 72.2534 64.3073 72.3127 64.0703 72.4312C63.8379 72.5451 63.6533 72.7091 63.5166 72.9233C63.3799 73.133 63.3115 73.3836 63.3115 73.6753H61.6572C61.6572 73.1466 61.7962 72.6772 62.0742 72.2671C62.3522 71.8569 62.7305 71.5356 63.209 71.3032C63.6921 71.0662 64.2344 70.9478 64.8359 70.9478C65.4785 70.9478 66.0391 71.0549 66.5176 71.269C67.0007 71.4787 67.3766 71.7931 67.6455 72.2124C67.9144 72.6317 68.0488 73.1512 68.0488 73.771C68.0488 74.0535 67.9827 74.3407 67.8506 74.6323C67.7184 74.924 67.5225 75.1906 67.2627 75.4321C67.0029 75.6691 66.6794 75.8628 66.292 76.0132C65.9046 76.159 65.4557 76.2319 64.9453 76.2319H63.708V75.3159ZM63.708 76.6011V75.6987H64.9453C65.5286 75.6987 66.0254 75.7671 66.4355 75.9038C66.8503 76.0405 67.1875 76.2297 67.4473 76.4712C67.707 76.7082 67.8962 76.9793 68.0146 77.2847C68.1377 77.59 68.1992 77.9136 68.1992 78.2554C68.1992 78.7202 68.1149 79.1349 67.9463 79.4995C67.7822 79.8595 67.5475 80.1649 67.2422 80.4155C66.9368 80.6662 66.5791 80.8553 66.1689 80.9829C65.7633 81.1105 65.3213 81.1743 64.8428 81.1743C64.4144 81.1743 64.0042 81.1151 63.6123 80.9966C63.2204 80.8781 62.8695 80.7026 62.5596 80.4702C62.2497 80.2332 62.0036 79.9393 61.8213 79.5884C61.6436 79.2329 61.5547 78.8228 61.5547 78.3579H63.2021C63.2021 78.6541 63.2705 78.9162 63.4072 79.144C63.5485 79.3674 63.7445 79.5428 63.9951 79.6704C64.2503 79.798 64.542 79.8618 64.8701 79.8618C65.2165 79.8618 65.515 79.8003 65.7656 79.6772C66.0163 79.5542 66.2077 79.3719 66.3398 79.1304C66.4766 78.8888 66.5449 78.5972 66.5449 78.2554C66.5449 77.868 66.4697 77.5535 66.3193 77.312C66.1689 77.0705 65.9548 76.8927 65.6768 76.7788C65.3988 76.6603 65.0706 76.6011 64.6924 76.6011H63.708ZM76.0778 75.2271V76.854C76.0778 77.6333 76.0003 78.2987 75.8454 78.8501C75.695 79.397 75.4762 79.8413 75.1891 80.1831C74.902 80.5249 74.5579 80.7756 74.1569 80.9351C73.7604 81.0946 73.3161 81.1743 72.8239 81.1743C72.4319 81.1743 72.0674 81.1242 71.7301 81.0239C71.3974 80.9237 71.0967 80.7664 70.8278 80.5522C70.5589 80.3381 70.3288 80.0623 70.1373 79.7251C69.9505 79.3833 69.8047 78.9754 69.6998 78.5015C69.5996 78.0275 69.5495 77.4784 69.5495 76.854V75.2271C69.5495 74.4432 69.6269 73.7824 69.7819 73.2446C69.9368 72.7023 70.1579 72.2625 70.445 71.9253C70.7321 71.5835 71.0739 71.3351 71.4704 71.1802C71.8714 71.0252 72.318 70.9478 72.8102 70.9478C73.2067 70.9478 73.5713 70.9979 73.9039 71.0981C74.2412 71.1938 74.542 71.3465 74.8063 71.5562C75.0752 71.7658 75.303 72.0392 75.4899 72.3765C75.6813 72.7091 75.8271 73.1125 75.9274 73.5864C76.0276 74.0558 76.0778 74.6027 76.0778 75.2271ZM74.4303 77.0864V74.981C74.4303 74.5845 74.4075 74.2358 74.362 73.9351C74.3164 73.6297 74.248 73.3722 74.1569 73.1626C74.0703 72.9484 73.9609 72.7752 73.8288 72.6431C73.6966 72.5063 73.5462 72.4084 73.3776 72.3491C73.209 72.2853 73.0198 72.2534 72.8102 72.2534C72.555 72.2534 72.3271 72.3035 72.1266 72.4038C71.9261 72.4995 71.7575 72.6545 71.6207 72.8687C71.484 73.0828 71.3792 73.3654 71.3063 73.7163C71.2379 74.0627 71.2038 74.4842 71.2038 74.981V77.0864C71.2038 77.4875 71.2265 77.8407 71.2721 78.146C71.3177 78.4513 71.386 78.7134 71.4772 78.9321C71.5683 79.1463 71.6777 79.3241 71.8053 79.4653C71.9375 79.6021 72.0879 79.7023 72.2565 79.7661C72.4297 79.8299 72.6188 79.8618 72.8239 79.8618C73.0836 79.8618 73.3138 79.8117 73.5143 79.7114C73.7148 79.6112 73.8834 79.4517 74.0202 79.2329C74.1569 79.0096 74.2594 78.7202 74.3278 78.3647C74.3961 78.0093 74.4303 77.5832 74.4303 77.0864Z" fill="#171717"/>
<line x1="129.5" y1="64.0001" x2="129.5" y2="56.0001" stroke="#939EA7"/>
<line x1="130" y1="63.5376" x2="141" y2="63.5376" stroke="#939EA7"/>
<line x1="140.5" y1="64.0001" x2="140.5" y2="56.0001" stroke="#939EA7"/>
<path d="M132.363 71.0503V81.0376H130.716V73.0054L128.275 73.8325V72.4722L132.165 71.0503H132.363ZM142.169 75.2271V76.854C142.169 77.6333 142.092 78.2987 141.937 78.8501C141.786 79.397 141.568 79.8413 141.281 80.1831C140.993 80.5249 140.649 80.7756 140.248 80.9351C139.852 81.0946 139.408 81.1743 138.915 81.1743C138.523 81.1743 138.159 81.1242 137.822 81.0239C137.489 80.9237 137.188 80.7664 136.919 80.5522C136.65 80.3381 136.42 80.0623 136.229 79.7251C136.042 79.3833 135.896 78.9754 135.791 78.5015C135.691 78.0275 135.641 77.4784 135.641 76.854V75.2271C135.641 74.4432 135.718 73.7824 135.873 73.2446C136.028 72.7023 136.249 72.2625 136.536 71.9253C136.824 71.5835 137.165 71.3351 137.562 71.1802C137.963 71.0252 138.409 70.9478 138.902 70.9478C139.298 70.9478 139.663 70.9979 139.995 71.0981C140.333 71.1938 140.633 71.3465 140.898 71.5562C141.167 71.7658 141.395 72.0392 141.581 72.3765C141.773 72.7091 141.919 73.1125 142.019 73.5864C142.119 74.0558 142.169 74.6027 142.169 75.2271ZM140.522 77.0864V74.981C140.522 74.5845 140.499 74.2358 140.453 73.9351C140.408 73.6297 140.34 73.3722 140.248 73.1626C140.162 72.9484 140.052 72.7752 139.92 72.6431C139.788 72.5063 139.638 72.4084 139.469 72.3491C139.3 72.2853 139.111 72.2534 138.902 72.2534C138.646 72.2534 138.419 72.3035 138.218 72.4038C138.018 72.4995 137.849 72.6545 137.712 72.8687C137.576 73.0828 137.471 73.3654 137.398 73.7163C137.329 74.0627 137.295 74.4842 137.295 74.981V77.0864C137.295 77.4875 137.318 77.8407 137.364 78.146C137.409 78.4513 137.478 78.7134 137.569 78.9321C137.66 79.1463 137.769 79.3241 137.897 79.4653C138.029 79.6021 138.179 79.7023 138.348 79.7661C138.521 79.8299 138.71 79.8618 138.915 79.8618C139.175 79.8618 139.405 79.8117 139.606 79.7114C139.806 79.6112 139.975 79.4517 140.112 79.2329C140.248 79.0096 140.351 78.7202 140.419 78.3647C140.488 78.0093 140.522 77.5832 140.522 77.0864Z" fill="#171717"/>
<line x1="140.5" y1="64.0001" x2="140.5" y2="56.0001" stroke="#939EA7"/>
<line x1="140" y1="63.5376" x2="270" y2="63.5376" stroke="#939EA7"/>
<line x1="269.5" y1="64.0001" x2="269.5" y2="56.0001" stroke="#939EA7"/>
<path d="M198.454 71.0503V81.0376H196.807V73.0054L194.367 73.8325V72.4722L198.256 71.0503H198.454ZM203.708 75.3159H204.692C205.075 75.3159 205.392 75.2498 205.643 75.1177C205.898 74.9855 206.087 74.8032 206.21 74.5708C206.333 74.3384 206.395 74.0718 206.395 73.771C206.395 73.4565 206.338 73.1877 206.224 72.9644C206.114 72.7365 205.946 72.561 205.718 72.438C205.494 72.3149 205.21 72.2534 204.863 72.2534C204.572 72.2534 204.307 72.3127 204.07 72.4312C203.838 72.5451 203.653 72.7091 203.517 72.9233C203.38 73.133 203.312 73.3836 203.312 73.6753H201.657C201.657 73.1466 201.796 72.6772 202.074 72.2671C202.352 71.8569 202.73 71.5356 203.209 71.3032C203.692 71.0662 204.234 70.9478 204.836 70.9478C205.479 70.9478 206.039 71.0549 206.518 71.269C207.001 71.4787 207.377 71.7931 207.646 72.2124C207.914 72.6317 208.049 73.1512 208.049 73.771C208.049 74.0535 207.983 74.3407 207.851 74.6323C207.718 74.924 207.522 75.1906 207.263 75.4321C207.003 75.6691 206.679 75.8628 206.292 76.0132C205.905 76.159 205.456 76.2319 204.945 76.2319H203.708V75.3159ZM203.708 76.6011V75.6987H204.945C205.529 75.6987 206.025 75.7671 206.436 75.9038C206.85 76.0405 207.188 76.2297 207.447 76.4712C207.707 76.7082 207.896 76.9793 208.015 77.2847C208.138 77.59 208.199 77.9136 208.199 78.2554C208.199 78.7202 208.115 79.1349 207.946 79.4995C207.782 79.8595 207.548 80.1649 207.242 80.4155C206.937 80.6662 206.579 80.8553 206.169 80.9829C205.763 81.1105 205.321 81.1743 204.843 81.1743C204.414 81.1743 204.004 81.1151 203.612 80.9966C203.22 80.8781 202.869 80.7026 202.56 80.4702C202.25 80.2332 202.004 79.9393 201.821 79.5884C201.644 79.2329 201.555 78.8228 201.555 78.3579H203.202C203.202 78.6541 203.271 78.9162 203.407 79.144C203.549 79.3674 203.744 79.5428 203.995 79.6704C204.25 79.798 204.542 79.8618 204.87 79.8618C205.216 79.8618 205.515 79.8003 205.766 79.6772C206.016 79.5542 206.208 79.3719 206.34 79.1304C206.477 78.8888 206.545 78.5972 206.545 78.2554C206.545 77.868 206.47 77.5535 206.319 77.312C206.169 77.0705 205.955 76.8927 205.677 76.7788C205.399 76.6603 205.071 76.6011 204.692 76.6011H203.708ZM216.078 75.2271V76.854C216.078 77.6333 216 78.2987 215.845 78.8501C215.695 79.397 215.476 79.8413 215.189 80.1831C214.902 80.5249 214.558 80.7756 214.157 80.9351C213.76 81.0946 213.316 81.1743 212.824 81.1743C212.432 81.1743 212.067 81.1242 211.73 81.0239C211.397 80.9237 211.097 80.7664 210.828 80.5522C210.559 80.3381 210.329 80.0623 210.137 79.7251C209.95 79.3833 209.805 78.9754 209.7 78.5015C209.6 78.0275 209.549 77.4784 209.549 76.854V75.2271C209.549 74.4432 209.627 73.7824 209.782 73.2446C209.937 72.7023 210.158 72.2625 210.445 71.9253C210.732 71.5835 211.074 71.3351 211.47 71.1802C211.871 71.0252 212.318 70.9478 212.81 70.9478C213.207 70.9478 213.571 70.9979 213.904 71.0981C214.241 71.1938 214.542 71.3465 214.806 71.5562C215.075 71.7658 215.303 72.0392 215.49 72.3765C215.681 72.7091 215.827 73.1125 215.927 73.5864C216.028 74.0558 216.078 74.6027 216.078 75.2271ZM214.43 77.0864V74.981C214.43 74.5845 214.408 74.2358 214.362 73.9351C214.316 73.6297 214.248 73.3722 214.157 73.1626C214.07 72.9484 213.961 72.7752 213.829 72.6431C213.697 72.5063 213.546 72.4084 213.378 72.3491C213.209 72.2853 213.02 72.2534 212.81 72.2534C212.555 72.2534 212.327 72.3035 212.127 72.4038C211.926 72.4995 211.757 72.6545 211.621 72.8687C211.484 73.0828 211.379 73.3654 211.306 73.7163C211.238 74.0627 211.204 74.4842 211.204 74.981V77.0864C211.204 77.4875 211.227 77.8407 211.272 78.146C211.318 78.4513 211.386 78.7134 211.477 78.9321C211.568 79.1463 211.678 79.3241 211.805 79.4653C211.937 79.6021 212.088 79.7023 212.256 79.7661C212.43 79.8299 212.619 79.8618 212.824 79.8618C213.084 79.8618 213.314 79.8117 213.514 79.7114C213.715 79.6112 213.883 79.4517 214.02 79.2329C214.157 79.0096 214.259 78.7202 214.328 78.3647C214.396 78.0093 214.43 77.5832 214.43 77.0864Z" fill="#171717"/>
<defs>
<clipPath id="clip0_811_3137">
<rect width="130" height="47.8117" fill="white" transform="translate(0 0.0375977)"/>
</clipPath>
</defs>
</svg>
