<svg width="233" height="31" viewBox="0 0 233 31" fill="none" xmlns="http://www.w3.org/2000/svg">
<g clip-path="url(#clip0_811_3215)">
<path d="M117.57 0.0375977H36V30.0376H117.57V0.0375977Z" fill="#D60C18"/>
<path d="M44.8363 8.56307C45.2822 8.84704 45.8217 8.94495 46.339 8.83579C46.8326 8.71579 47.3236 8.57943 47.8117 8.44034C48.6681 8.19488 49.519 7.93034 50.3808 7.69852C50.809 7.58397 51.2399 7.47488 51.6736 7.37943C51.87 7.34863 52.0634 7.30118 52.2517 7.23761C52.4454 7.16125 52.6172 7.03852 52.7972 6.96488C53.0699 6.8367 53.3426 6.71943 53.6345 6.60488C54.4526 6.27216 56.2036 5.86034 55.7699 4.60034C55.6336 4.19397 55.2245 4.01397 54.8672 3.82579C54.49 3.66133 54.0736 3.60833 53.6672 3.67306C53.2725 3.67777 52.8899 3.80978 52.5763 4.04943C52.1508 4.58125 51.4445 4.74216 50.9126 5.16761C50.7245 5.30943 50.4681 5.31216 50.2799 5.4567C50.1872 5.52761 50.1572 5.58761 50.0454 5.62034C49.9478 5.63438 49.8494 5.64167 49.7508 5.64216C49.5654 5.6667 49.3826 5.69125 49.2054 5.72125C48.6769 5.79103 48.1603 5.93232 47.6699 6.14125C47.4245 6.2612 47.1892 6.40074 46.9663 6.55852C46.7508 6.70307 46.5463 6.64579 46.3008 6.66216C46.0554 6.67852 45.8563 6.70307 45.6326 6.73579L44.9672 6.84761L44.6317 6.8967C44.5183 6.8887 44.4044 6.90259 44.2963 6.93761C44.2156 7.0083 44.1615 7.10452 44.1432 7.21023C44.1248 7.31594 44.1432 7.42475 44.1954 7.51852C44.389 7.92216 44.4163 8.31761 44.8363 8.56307Z" fill="white"/>
<path d="M78.1855 7.97942C78.5864 7.87306 78.9328 7.78306 79.1455 7.39578C79.211 7.27578 79.2819 7.15578 79.3419 7.03306C79.4759 6.79372 79.5401 6.52161 79.5273 6.2476C79.4236 6.03332 79.2584 5.8548 79.0528 5.73487C78.6649 5.54429 78.2485 5.4181 77.82 5.36124C77.3237 5.25487 76.8055 5.13215 76.3037 5.06669C76.0066 5.03196 75.7056 5.05511 75.4173 5.13487C74.8467 5.28711 74.2901 5.48784 73.7537 5.73487C73.1373 6.0076 72.3901 5.84396 71.8146 6.22033C71.5658 6.3374 71.2978 6.40854 71.0237 6.43033C70.6828 6.50942 70.361 6.64578 70.0282 6.75487C69.4582 6.9376 68.8882 7.11487 68.3101 7.27306C67.8982 7.38487 67.4701 7.27306 67.061 7.46942C66.9022 7.58466 66.7344 7.68681 66.5591 7.77487C66.3764 7.8376 66.191 7.92215 66.0137 7.98487C65.3591 8.21396 64.6501 8.37215 63.9791 8.54942C62.7901 8.95851 61.4619 8.78124 60.2401 9.01033C59.8855 9.10033 59.5146 9.15215 59.2501 9.43578C59.1628 9.85578 59.4682 10.0167 59.741 10.2158C60.0137 10.4149 60.251 10.8049 60.5782 11.0121C60.8737 11.1756 61.1831 11.3125 61.5028 11.4212C62.2173 11.7103 62.8882 12.0894 63.6573 12.2394C64.0801 12.3212 64.9473 12.4221 65.3319 12.1658C65.7846 11.8631 66.2946 11.6531 66.7337 11.3258C66.9382 11.1731 67.1019 10.974 67.3119 10.8294C67.5486 10.6993 67.778 10.5564 67.9991 10.4012C68.2704 10.1246 68.5734 9.88114 68.9019 9.67578C69.3246 9.60487 69.7201 9.13033 70.1401 9.4276C70.3419 9.52033 70.2464 9.70033 70.2573 9.88306C70.2682 10.0658 70.4019 10.2867 70.4019 10.5049C70.3956 10.7157 70.3617 10.9247 70.301 11.1267V11.4649C70.511 15.5203 70.1591 19.374 69.8046 23.4649C69.641 23.9694 69.8401 24.4303 69.9546 24.9185C69.9704 25.1124 70.0126 25.3033 70.0801 25.4858C70.2787 25.8369 70.5766 26.1215 70.9364 26.304C71.6591 26.544 72.671 26.664 73.241 26.0312C73.8219 25.7585 74.0019 25.2131 74.0864 24.6158C74.1686 24.0863 74.2224 23.5528 74.2473 23.0176C74.2468 22.5949 74.1824 22.1747 74.0564 21.7712C74.0073 21.5612 73.9937 21.3458 73.9446 21.1358C73.8628 20.8031 73.7564 20.4703 73.6991 20.1321C73.4516 18.5148 73.3276 16.881 73.3282 15.2449C73.3637 14.154 73.0801 12.7903 72.9382 11.8467C72.6191 11.1376 73.0637 10.4285 72.7255 9.71942C72.5755 9.3676 72.641 8.93669 72.6382 8.56578C72.6382 8.24942 72.8564 8.13215 73.1128 7.99578C73.2089 7.94411 73.3002 7.88387 73.3855 7.81578C73.4792 7.75342 73.5837 7.70903 73.6937 7.68487C73.7973 7.64942 73.901 7.61942 74.0073 7.59215C74.771 7.39578 75.6301 7.27033 76.3337 7.72033C76.5151 7.86141 76.7242 7.9627 76.9473 8.0176C77.3569 8.10729 77.7823 8.09418 78.1855 7.97942Z" fill="white"/>
<path d="M64.3773 23.3012C64.2212 23.1617 64.048 23.0426 63.8619 22.9467C63.6491 22.8649 63.4146 22.8512 63.1991 22.7749C62.6517 22.5619 62.1301 22.2874 61.6446 21.9567C61.5412 21.875 61.4318 21.8012 61.3173 21.7358C61.2042 21.7057 61.088 21.6893 60.971 21.6867C60.7501 21.6403 60.6191 21.4358 60.4255 21.3349C60.3355 21.2858 60.2182 21.2694 60.1528 21.1876C59.9519 21.0162 59.7279 20.8739 59.4873 20.7649C59.2691 20.6176 59.0291 20.5712 58.8055 20.4431C58.6141 20.323 58.4318 20.189 58.2601 20.0422C57.95 19.7285 57.6029 19.4538 57.2264 19.224C55.901 18.6103 54.9982 17.0722 54.0137 16.0603C53.3755 15.4767 52.5628 14.664 52.5791 13.6522C52.8519 13.0167 53.6237 12.804 54.191 12.5012C54.9001 11.9722 55.9091 11.6831 56.3155 10.8376C56.3867 10.6833 56.4192 10.514 56.4102 10.3444C56.4011 10.1747 56.3509 10.0098 56.2637 9.86397C56.0319 9.38397 55.4455 9.40306 54.9873 9.22579C54.7027 9.20092 54.4159 9.23433 54.1446 9.32397C53.6948 9.4944 53.2853 9.75628 52.9419 10.0931C52.7782 10.2403 52.6337 10.4258 52.4619 10.5649C52.2768 10.6798 52.0741 10.7636 51.8619 10.8131C51.758 10.8687 51.6389 10.8892 51.5223 10.8715C51.4058 10.8538 51.2982 10.7989 51.2155 10.7149C51.0446 10.242 50.7998 9.79919 50.4901 9.40307C50.3878 9.3492 50.2754 9.3176 50.1601 9.31034C50.051 9.28307 49.9828 9.19579 49.8873 9.16852C49.7264 9.12216 49.5164 9.2367 49.3419 9.2367C49.1278 9.21026 48.9108 9.22227 48.701 9.27216C48.4567 9.37 48.2476 9.53917 48.101 9.75761C47.9373 10.0003 48.0082 10.1831 47.9755 10.4531C47.9564 10.6358 47.9128 10.8131 47.8773 10.9985C47.8339 11.1773 47.8092 11.3601 47.8037 11.544C47.8286 11.7111 47.866 11.8761 47.9155 12.0376C47.9293 12.2781 47.8817 12.5182 47.7773 12.7353C47.6728 12.9523 47.5148 13.1393 47.3182 13.2785C47.1411 13.4293 46.9493 13.5618 46.7455 13.674C46.5082 13.8049 46.2382 13.8376 45.9928 13.9467C45.7672 14.0556 45.5502 14.1814 45.3437 14.3231C45.1337 14.4622 44.9264 14.5958 44.7055 14.724C44.4846 14.8522 44.2201 14.8822 44.0019 14.9967C43.6119 15.1903 43.151 15.2258 42.761 15.3867C42.3355 15.474 41.5937 15.3158 41.3973 15.8449C41.4706 16.3165 41.6945 16.7519 42.0355 17.0858C42.2646 17.5985 42.9382 17.7758 43.3991 18.114C44.0891 18.3431 44.7819 18.0076 45.4364 18.0594C45.6846 18.9812 45.6137 19.9358 44.9755 20.6094C44.8575 20.9719 44.6796 21.3121 44.4491 21.6158C44.335 21.7622 44.2111 21.9007 44.0782 22.0303C43.9582 22.1449 43.9119 22.3031 43.7919 22.4231C43.6598 22.5867 43.5087 22.7341 43.3419 22.8622C43.0964 23.004 43.0091 22.824 42.8155 22.704C42.6943 22.6329 42.5627 22.5813 42.4255 22.5512C42.1547 22.4938 41.8742 22.5022 41.6073 22.5758C41.4185 22.666 41.2643 22.8154 41.1682 23.0012C41.0248 23.1385 40.9292 23.3183 40.8955 23.514C40.918 23.636 40.949 23.7563 40.9882 23.874C41.0401 24.1276 40.9446 24.2831 41.1191 24.5176C41.2555 24.6976 41.2173 24.7712 41.2473 24.9867C41.2691 25.0861 41.3129 25.1793 41.3755 25.2594C41.493 25.4065 41.6318 25.5352 41.7873 25.6412C41.92 25.7403 42.066 25.8202 42.221 25.8785C42.3718 25.9041 42.5211 25.9377 42.6682 25.9794C42.9347 26.1334 43.2388 26.2099 43.5464 26.2003C44.0646 26.1758 44.5064 25.9576 44.9919 25.8022C45.2249 25.747 45.4509 25.6656 45.6655 25.5594C45.8617 25.4277 46.0444 25.277 46.211 25.1094C46.4373 24.9103 46.6555 24.7031 46.8628 24.4849C47.237 24.1009 47.5757 23.6837 47.8746 23.2385C48.0254 23.0187 48.1629 22.7901 48.2864 22.554C48.3982 22.344 48.4501 22.1176 48.5591 21.9049C48.611 21.7876 48.6901 21.684 48.7391 21.5667C48.8395 21.3519 48.9225 21.1293 48.9873 20.9012C49.0338 20.6967 49.1101 20.5 49.2137 20.3176C49.36 19.971 49.4467 19.6022 49.4701 19.2267C49.5001 19.0603 49.5628 18.8994 49.5928 18.7331C49.6228 18.5667 49.6173 18.3267 49.661 18.1276C49.7279 17.8359 49.8471 17.5587 50.0128 17.3094C50.4178 17.3865 50.7768 17.6183 51.0137 17.9558C51.1522 18.1134 51.3007 18.2619 51.4582 18.4003C51.6437 18.5585 51.7664 18.774 51.9519 18.9267C52.4973 19.3576 52.871 19.9985 53.261 20.5631C53.7437 21.2503 54.2019 21.954 54.6819 22.644C55.1619 23.334 55.5764 23.9803 56.2173 24.4685C56.6921 24.8798 57.1931 25.2597 57.7173 25.6058C58.1073 25.8294 58.6119 25.764 59.0428 25.7722C59.8304 25.7695 60.6173 25.7203 61.3991 25.6249C61.7864 25.584 62.1764 25.5431 62.5637 25.5158C62.7461 25.5212 62.9287 25.5103 63.1091 25.4831C63.4364 25.4476 63.7719 25.2976 64.0964 25.2458C64.421 25.194 64.8164 25.1285 65.0346 24.8612C65.1234 24.7538 65.1862 24.6271 65.2179 24.4913C65.2496 24.3555 65.2494 24.2142 65.2173 24.0785C65.0837 23.7022 64.6773 23.514 64.3773 23.3012Z" fill="white"/>
<path d="M86.3234 20.4704C86.4756 20.4727 86.6276 20.4572 86.7762 20.4241C86.9187 20.3923 87.0569 20.3438 87.188 20.2795L87.2862 19.9468H87.2371C87.1232 20.0443 86.993 20.1209 86.8525 20.1732C86.7192 20.2275 86.5765 20.2553 86.4325 20.255C86.293 20.2643 86.1533 20.2399 86.0251 20.1839C85.897 20.1279 85.7841 20.0419 85.6962 19.9332C85.5103 19.6601 85.421 19.3328 85.4425 19.0032C85.4227 18.6903 85.5113 18.3802 85.6934 18.125C85.7749 18.0205 85.8805 17.9374 86.0012 17.8828C86.1218 17.8282 86.2539 17.8037 86.3862 17.8114C86.559 17.8053 86.73 17.8478 86.8798 17.9341C87.0112 18.0084 87.1089 18.1305 87.1525 18.275H87.2125C87.2215 18.1833 87.2361 18.0922 87.2562 18.0023C87.2729 17.9212 87.2938 17.8411 87.3189 17.7623C87.1701 17.6971 87.0159 17.645 86.858 17.6068C86.7074 17.5742 86.5538 17.5577 86.3998 17.5577C85.9748 17.5353 85.5576 17.6779 85.2353 17.9559C85.0898 18.0904 84.9755 18.255 84.9001 18.4382C84.8247 18.6215 84.7902 18.8189 84.7989 19.0168C84.7871 19.2167 84.8169 19.4168 84.8864 19.6046C84.9558 19.7923 85.0635 19.9637 85.2025 20.1077C85.514 20.3713 85.9167 20.5016 86.3234 20.4704Z" fill="white"/>
<path d="M89.5636 19.4286C89.5718 19.2883 89.5519 19.1477 89.5051 19.0152C89.4583 18.8827 89.3854 18.7608 89.2909 18.6568C89.0812 18.4851 88.8152 18.3976 88.5446 18.4113C88.274 18.425 88.0182 18.5389 87.8269 18.7308C87.6357 18.9227 87.5227 19.179 87.51 19.4496C87.4973 19.7203 87.5857 19.986 87.7581 20.195C87.8602 20.29 87.9806 20.3631 88.1119 20.41C88.2432 20.4569 88.3826 20.4766 88.5218 20.4677C88.6459 20.4801 88.7712 20.468 88.8906 20.4319C89.0101 20.3959 89.1212 20.3367 89.2177 20.2576C89.3142 20.1786 89.3942 20.0813 89.4531 19.9714C89.512 19.8614 89.5486 19.7409 89.5609 19.6168C89.5663 19.5542 89.5663 19.4912 89.5609 19.4286H89.5636ZM88.8572 20.0913C88.8269 20.1527 88.7791 20.2037 88.72 20.2382C88.6608 20.2726 88.5928 20.2889 88.5245 20.285C88.4568 20.2892 88.3894 20.2731 88.3311 20.2385C88.2727 20.204 88.2261 20.1527 88.1972 20.0913C88.1191 19.8797 88.0875 19.6536 88.1045 19.4286C88.0904 19.2015 88.1239 18.9739 88.2027 18.7604C88.2505 18.673 88.3311 18.6081 88.4267 18.58C88.5223 18.5519 88.6251 18.5628 88.7127 18.6104C88.7754 18.6458 88.8273 18.6977 88.8627 18.7604C88.9411 18.9731 88.9746 19.1997 88.9609 19.4259C88.9743 19.6526 88.939 19.8795 88.8572 20.0913Z" fill="white"/>
<path d="M92.9973 20.4159C92.9973 20.2795 92.9919 20.1486 92.981 20.0232V19.4013C92.9865 19.2135 92.9755 19.0255 92.9482 18.8395C92.9293 18.7465 92.8881 18.6595 92.8282 18.5859C92.773 18.521 92.7028 18.4704 92.6237 18.4386C92.519 18.3997 92.4073 18.3834 92.2958 18.391C92.1844 18.3985 92.0758 18.4296 91.9773 18.4822C91.864 18.5547 91.7704 18.654 91.7046 18.7713C91.6637 18.659 91.5871 18.5631 91.4864 18.4986C91.3807 18.4312 91.2572 18.397 91.1319 18.4004C91.0157 18.3971 90.9005 18.4224 90.7964 18.4741C90.6904 18.5362 90.5977 18.6187 90.5237 18.7168V18.4441H89.9482C89.9482 18.6677 89.9619 18.8613 89.9673 19.025C89.9728 19.1886 89.9673 19.3222 89.9673 19.4313V19.8404C89.9673 20.0068 89.9673 20.2032 89.9482 20.4213H90.5592V20.3832C90.5592 20.225 90.5428 20.1104 90.5428 20.0477V19.385C90.5321 19.2122 90.5591 19.0391 90.6219 18.8777C90.6503 18.8355 90.6887 18.801 90.7337 18.7771C90.7786 18.7532 90.8287 18.7407 90.8796 18.7407C90.9305 18.7407 90.9806 18.7532 91.0255 18.7771C91.0705 18.801 91.1089 18.8355 91.1373 18.8777C91.203 19.0986 91.2271 19.3298 91.2082 19.5595V19.9713C91.2082 20.1104 91.1946 20.2659 91.1837 20.4186H91.8001V19.385C91.7871 19.2132 91.8132 19.0407 91.8764 18.8804C91.9071 18.8365 91.9479 18.8007 91.9954 18.776C92.0429 18.7512 92.0956 18.7383 92.1492 18.7383C92.2027 18.7383 92.2554 18.7512 92.3029 18.776C92.3504 18.8007 92.3912 18.8365 92.4219 18.8804C92.4857 19.0755 92.5107 19.2812 92.4955 19.4859V19.9168C92.4955 20.075 92.4819 20.2359 92.4682 20.4159H93.0137H92.9973Z" fill="white"/>
<path d="M94.7375 20.4159H95.3538V19.385C95.3408 19.2132 95.367 19.0407 95.4302 18.8804C95.4609 18.8365 95.5017 18.8007 95.5492 18.776C95.5966 18.7512 95.6494 18.7383 95.7029 18.7383C95.7565 18.7383 95.8092 18.7512 95.8567 18.776C95.9042 18.8007 95.945 18.8365 95.9757 18.8804C96.0395 19.0755 96.0645 19.2812 96.0493 19.4859V19.9168C96.0493 20.075 96.0493 20.2359 96.022 20.4159H96.6384C96.6384 20.2795 96.6329 20.1486 96.622 20.0232V19.4013C96.6082 19.2172 96.5781 19.0347 96.532 18.8559C96.513 18.7629 96.4719 18.6759 96.412 18.6022C96.3568 18.5373 96.2866 18.4868 96.2075 18.455C96.1028 18.416 95.991 18.3998 95.8796 18.4073C95.7682 18.4148 95.6596 18.446 95.5611 18.4986C95.4478 18.5711 95.3542 18.6704 95.2884 18.7877C95.2475 18.6753 95.1709 18.5795 95.0702 18.515C94.9645 18.4475 94.841 18.4133 94.7157 18.4168C94.5995 18.4135 94.4843 18.4388 94.3802 18.4904C94.2735 18.5517 94.1807 18.6343 94.1075 18.7332V18.4604H93.5293C93.5293 18.6841 93.5457 18.8777 93.5484 19.0413C93.5511 19.205 93.5484 19.3386 93.5484 19.4477V19.8568C93.5484 20.0232 93.5484 20.2195 93.5293 20.4377H94.1293V20.3995C94.1293 20.2413 94.1157 20.1268 94.1157 20.0641V19.385C94.1026 19.2123 94.1287 19.0389 94.192 18.8777C94.2153 18.8436 94.245 18.8145 94.2795 18.792C94.3141 18.7694 94.3527 18.7539 94.3932 18.7463C94.4338 18.7387 94.4754 18.7392 94.5158 18.7477C94.5561 18.7562 94.5944 18.7726 94.6284 18.7959C94.6608 18.8174 94.6887 18.8452 94.7102 18.8777C94.7732 19.0991 94.7972 19.3298 94.7811 19.5595V19.9713C94.7811 20.1104 94.7457 20.2632 94.7375 20.4159Z" fill="white"/>
<path d="M99.0464 19.4284C99.0559 19.288 99.0366 19.1471 98.9897 19.0143C98.9428 18.8816 98.8693 18.7599 98.7737 18.6566C98.5637 18.4904 98.2999 18.4073 98.0326 18.423C97.7652 18.4388 97.513 18.5523 97.324 18.742C97.135 18.9317 97.0223 19.1843 97.0075 19.4517C96.9927 19.7191 97.0768 19.9826 97.2437 20.192C97.4593 20.3679 97.7291 20.464 98.0073 20.464C98.2856 20.464 98.5554 20.3679 98.771 20.192C98.8658 20.0898 98.939 19.9694 98.9864 19.8382C99.0337 19.707 99.0541 19.5677 99.0464 19.4284ZM98.3374 20.0911C98.2881 20.1785 98.2061 20.2428 98.1095 20.2699C98.0129 20.297 97.9095 20.2847 97.8219 20.2357C97.7616 20.2013 97.7117 20.1514 97.6774 20.0911C97.5986 19.8795 97.5652 19.6537 97.5792 19.4284C97.5651 19.2013 97.5985 18.9737 97.6774 18.7602C97.701 18.7159 97.7333 18.6767 97.7724 18.645C97.8115 18.6133 97.8565 18.5898 97.9048 18.5758C97.9531 18.5618 98.0037 18.5577 98.0536 18.5636C98.1036 18.5695 98.1518 18.5854 98.1955 18.6102C98.2583 18.6456 98.3101 18.6975 98.3455 18.7602C98.4264 18.9723 98.4608 19.1992 98.4464 19.4257C98.4608 19.6522 98.4264 19.8791 98.3455 20.0911H98.3374Z" fill="white"/>
<path d="M100.598 18.8721C100.664 19.0584 100.689 19.2564 100.672 19.453V19.9985C100.677 20.1388 100.67 20.2794 100.65 20.4185H101.264C101.264 20.3121 101.247 20.2003 101.242 20.0857C101.237 19.9712 101.242 19.8485 101.242 19.7203V19.1994C101.247 19.0641 101.237 18.9288 101.212 18.7957C101.196 18.7223 101.162 18.6539 101.114 18.5967C101.058 18.5291 100.985 18.4766 100.904 18.4439C100.802 18.4066 100.693 18.3901 100.584 18.3952C100.476 18.4004 100.369 18.4271 100.271 18.4739C100.163 18.5357 100.07 18.6204 99.9983 18.7221V18.4494H99.4365C99.4474 18.613 99.4556 18.7766 99.4611 18.9403V19.9085C99.4611 20.0694 99.4611 20.2439 99.4365 20.4267H100.034C100.034 20.2112 100.034 20.0203 100.017 19.8567C100.009 19.7159 100.009 19.5747 100.017 19.4339C100.006 19.2546 100.034 19.075 100.099 18.9076C100.123 18.8638 100.158 18.8268 100.2 18.7999C100.241 18.773 100.289 18.757 100.339 18.7535C100.389 18.7499 100.439 18.759 100.484 18.7797C100.529 18.8004 100.569 18.8322 100.598 18.8721Z" fill="white"/>
<path d="M105.349 17.6067H105.158C105.073 17.9558 104.981 18.2994 104.885 18.6376C104.79 18.9758 104.675 19.3112 104.561 19.644C104.435 19.2894 104.318 18.9431 104.206 18.6049C104.094 18.2667 103.993 17.934 103.895 17.6067H103.478C103.369 17.9285 103.26 18.2612 103.143 18.5994C103.025 18.9376 102.905 19.2949 102.774 19.6712C102.668 19.3303 102.57 18.9867 102.477 18.6431C102.384 18.2994 102.297 17.9531 102.204 17.6067H101.503C101.673 18.094 101.829 18.574 101.973 19.0467C102.117 19.5158 102.245 19.9794 102.365 20.4321H102.785C102.9 20.0803 103.014 19.7394 103.132 19.404C103.249 19.0685 103.372 18.7467 103.494 18.4303C103.623 18.7794 103.743 19.1231 103.854 19.4558C103.966 19.7885 104.067 20.1131 104.163 20.4321H104.591C104.757 19.9058 104.921 19.4094 105.076 18.9376C105.232 18.4658 105.382 18.024 105.529 17.6067H105.349Z" fill="white"/>
<path d="M106.62 18.3838C106.488 18.377 106.355 18.3977 106.231 18.4446C106.108 18.4916 105.995 18.5637 105.9 18.6566C105.808 18.7541 105.737 18.869 105.69 18.9945C105.643 19.12 105.622 19.2536 105.627 19.3875C105.61 19.676 105.708 19.9594 105.9 20.1757C106 20.2712 106.119 20.3449 106.249 20.3918C106.379 20.4388 106.518 20.4581 106.656 20.4484C106.784 20.4485 106.911 20.432 107.035 20.3993C107.143 20.3699 107.247 20.3229 107.34 20.2602L107.43 20.0257L107.392 19.9957C107.315 20.0582 107.228 20.108 107.136 20.1429C107.048 20.1755 106.956 20.1921 106.863 20.192C106.775 20.1949 106.689 20.1774 106.609 20.141C106.53 20.1045 106.46 20.0501 106.405 19.982C106.282 19.8191 106.221 19.6182 106.233 19.4147H107.501V19.2838C107.51 19.1613 107.495 19.0381 107.456 18.9215C107.417 18.8049 107.356 18.6972 107.275 18.6047C107.186 18.5252 107.083 18.4645 106.97 18.4265C106.858 18.3885 106.739 18.374 106.62 18.3838ZM106.923 19.172V19.2293H106.222V19.1911C106.212 19.0293 106.247 18.8678 106.323 18.7247C106.349 18.6753 106.388 18.6339 106.436 18.605C106.485 18.5762 106.54 18.561 106.596 18.5611C106.645 18.5607 106.694 18.574 106.737 18.5995C106.78 18.625 106.815 18.6617 106.838 18.7057C106.902 18.8372 106.931 18.9826 106.923 19.1284C106.924 19.1429 106.924 19.1575 106.923 19.172Z" fill="white"/>
<path d="M109.451 20.1867C109.401 20.0863 109.381 19.9735 109.394 19.8621V19.783L109.407 19.063V19.0412C109.413 18.9497 109.397 18.8583 109.363 18.7734C109.329 18.6885 109.276 18.6123 109.208 18.5503C109.045 18.4254 108.841 18.3643 108.636 18.3785C108.507 18.3786 108.38 18.4056 108.262 18.4576C108.129 18.5172 108.007 18.5972 107.899 18.6948C107.913 18.7303 107.926 18.7657 107.937 18.8039C107.95 18.8572 107.967 18.9092 107.989 18.9594C108.043 18.8667 108.115 18.7853 108.199 18.7194C108.275 18.6677 108.364 18.6401 108.456 18.6403C108.506 18.6398 108.556 18.6494 108.603 18.6686C108.65 18.6878 108.693 18.7162 108.728 18.7521C108.765 18.7922 108.793 18.8391 108.811 18.8901C108.829 18.9412 108.837 18.9953 108.835 19.0494V19.1285C108.695 19.2086 108.546 19.2692 108.39 19.3085L108.18 19.3739C108.054 19.4096 107.941 19.4795 107.853 19.5757C107.779 19.6646 107.74 19.7767 107.741 19.8921C107.737 19.9686 107.748 20.0451 107.774 20.1172C107.8 20.1893 107.839 20.2555 107.891 20.3121C107.945 20.3649 108.009 20.4059 108.079 20.4327C108.15 20.4594 108.225 20.4713 108.3 20.4676C108.414 20.4696 108.526 20.4414 108.625 20.3857C108.722 20.3322 108.803 20.253 108.859 20.1567C108.875 20.2431 108.92 20.3213 108.987 20.3776C109.057 20.4311 109.143 20.4581 109.23 20.4539C109.304 20.454 109.377 20.4458 109.448 20.4294C109.523 20.4146 109.596 20.3917 109.667 20.3612V20.2603H109.65C109.614 20.2629 109.577 20.2577 109.543 20.245C109.508 20.2323 109.477 20.2124 109.451 20.1867ZM108.854 19.8076C108.86 19.9084 108.834 20.0086 108.78 20.0939C108.756 20.126 108.724 20.1516 108.687 20.1687C108.651 20.1858 108.61 20.1938 108.57 20.1921C108.533 20.1945 108.496 20.1878 108.462 20.1726C108.429 20.1574 108.399 20.1341 108.376 20.1048C108.33 20.0218 108.308 19.9272 108.314 19.8321C108.31 19.7709 108.319 19.7096 108.341 19.6523C108.362 19.5949 108.396 19.5428 108.439 19.4994C108.559 19.4043 108.702 19.3431 108.854 19.3221V19.8076Z" fill="white"/>
<path d="M110.577 17.3123C110.52 17.316 110.464 17.3233 110.408 17.3341H110.135C110.078 17.3341 110.024 17.3341 109.966 17.3123C109.966 17.5386 109.983 17.7759 109.988 18.0323C109.994 18.2886 109.988 18.5777 109.988 18.8723V19.6904C109.988 19.9468 109.974 20.1868 109.966 20.4186C110.016 20.4096 110.066 20.4032 110.116 20.3995C110.222 20.3886 110.329 20.3886 110.435 20.3995C110.485 20.4032 110.534 20.4096 110.583 20.4186C110.583 20.195 110.564 19.955 110.558 19.7013C110.553 19.4477 110.558 19.1559 110.558 18.8586V18.0377C110.553 17.765 110.566 17.5468 110.577 17.3123Z" fill="white"/>
<path d="M111.908 20.244C111.869 20.2475 111.831 20.2382 111.798 20.2175C111.766 20.1967 111.741 20.1658 111.728 20.1295C111.687 19.936 111.671 19.7379 111.682 19.5404V19.374C111.682 19.254 111.682 19.0495 111.695 18.7631V18.6677H112.104C112.102 18.6368 112.102 18.6058 112.104 18.5749V18.4658H111.703V18.0949C111.701 17.9628 111.708 17.8308 111.722 17.6995L111.676 17.6667C111.589 17.7104 111.499 17.7513 111.403 17.7922L111.131 17.9067C111.127 17.9825 111.132 18.0583 111.144 18.1331C111.151 18.1902 111.151 18.2479 111.144 18.3049V18.4631H110.872V18.504C110.874 18.5267 110.874 18.5496 110.872 18.5722V18.6786H111.144V19.9277C111.138 20.0017 111.148 20.0762 111.172 20.1466C111.196 20.2169 111.234 20.2816 111.283 20.3367C111.338 20.3864 111.401 20.4245 111.471 20.4489C111.54 20.4733 111.614 20.4834 111.687 20.4786C111.762 20.4791 111.838 20.4699 111.911 20.4513C111.997 20.4296 112.081 20.3994 112.162 20.3613V20.2195C112.078 20.2378 111.993 20.246 111.908 20.244Z" fill="white"/>
<path d="M114.232 20.1104V19.1995C114.235 19.0661 114.225 18.9327 114.202 18.8013C114.183 18.7263 114.147 18.6564 114.098 18.5968C114.042 18.5292 113.97 18.4767 113.888 18.4441C113.801 18.4115 113.708 18.3949 113.615 18.395C113.488 18.3925 113.363 18.4215 113.25 18.4795C113.139 18.5423 113.045 18.6312 112.977 18.7386V17.6777C112.981 17.5553 112.991 17.4333 113.01 17.3123L112.854 17.3368H112.565L112.404 17.3123C112.404 17.4868 112.426 17.6941 112.432 17.9341C112.437 18.1741 112.432 18.5123 112.432 18.9432V19.8759C112.432 20.0913 112.418 20.2713 112.404 20.4213H113.007C113.011 20.2393 113.004 20.0572 112.988 19.8759C112.978 19.727 112.978 19.5776 112.988 19.4286C112.977 19.2493 113.005 19.0697 113.07 18.9023C113.096 18.857 113.134 18.819 113.179 18.7919C113.224 18.7648 113.275 18.7493 113.328 18.7468C113.38 18.7444 113.432 18.7551 113.48 18.7779C113.527 18.8008 113.568 18.8351 113.599 18.8777C113.662 19.0645 113.686 19.2622 113.67 19.4586V20.0041C113.675 20.1444 113.667 20.285 113.648 20.4241H114.259C114.244 20.3201 114.235 20.2154 114.232 20.1104Z" fill="white"/>
<path d="M88.1482 24.1848L87.9109 22.2048H87.5318C87.3791 22.5457 87.2264 22.8757 87.0682 23.1976C86.91 23.5194 86.7518 23.833 86.5882 24.1412C86.4191 23.8221 86.2527 23.503 86.0945 23.1839C85.9364 22.8648 85.7782 22.5348 85.6309 22.2048H85.2709L84.9982 24.1603C84.9876 24.2693 84.9712 24.3776 84.9491 24.4848C84.9245 24.6376 84.8945 24.8203 84.8618 25.0303L84.9491 25.0139H85.1045L85.1945 25.0303C85.1945 24.7167 85.23 24.4003 85.2709 24.0894V24.0567L85.3718 23.1976C85.5191 23.4703 85.6691 23.7621 85.8245 24.0676C85.98 24.373 86.1327 24.6948 86.2936 25.0303H86.4682C86.6291 24.6894 86.7873 24.3594 86.9427 24.0457C87.0982 23.7321 87.2509 23.4267 87.4064 23.1294L87.54 24.4494C87.54 24.5203 87.5591 24.6976 87.57 24.9948V25.0357L87.7473 25.0194H88.0745L88.2627 25.033C88.2409 24.9348 88.2191 24.8257 88.2 24.7003C88.1809 24.5748 88.1727 24.403 88.1482 24.1848Z" fill="white"/>
<path d="M90.2861 24.8041C90.2374 24.7033 90.2176 24.5909 90.2288 24.4795V24.4004L90.2425 23.6804V23.6586C90.2477 23.5672 90.2325 23.4757 90.1981 23.3908C90.1637 23.3059 90.1108 23.2297 90.0434 23.1677C89.8797 23.0428 89.6761 22.9818 89.4707 22.9959C89.342 22.9961 89.2147 23.023 89.097 23.075C88.9644 23.1346 88.842 23.2147 88.7343 23.3123C88.7479 23.345 88.7616 23.3804 88.7752 23.4214C88.7889 23.4623 88.8052 23.5114 88.8243 23.5768C88.8763 23.4818 88.949 23.3998 89.037 23.3368C89.1109 23.2839 89.1998 23.2561 89.2907 23.2577C89.3411 23.257 89.3911 23.2663 89.4379 23.285C89.4847 23.3037 89.5274 23.3315 89.5634 23.3668C89.6368 23.449 89.675 23.5567 89.6698 23.6668V23.7377C89.5314 23.817 89.3827 23.8766 89.2279 23.915L89.0179 23.9832C88.8918 24.0195 88.7777 24.0892 88.6879 24.185C88.6141 24.2755 88.5762 24.3901 88.5816 24.5068C88.577 24.5837 88.5879 24.6608 88.6137 24.7334C88.6395 24.806 88.6796 24.8727 88.7316 24.9295C88.7853 24.9823 88.8494 25.0233 88.9198 25.0501C88.9903 25.0768 89.0654 25.0887 89.1407 25.085C89.255 25.0868 89.3679 25.0586 89.4679 25.0032C89.5643 24.9477 89.6443 24.8677 89.6998 24.7714C89.712 24.8594 89.7576 24.9393 89.8272 24.9947C89.8967 25.05 89.9849 25.0765 90.0734 25.0686C90.1457 25.0683 90.2179 25.061 90.2888 25.0468C90.3635 25.0307 90.4365 25.0079 90.507 24.9786V24.875H90.4934C90.4557 24.8794 90.4176 24.8753 90.3817 24.8631C90.3458 24.8508 90.3132 24.8306 90.2861 24.8041ZM89.6888 24.425C89.692 24.5212 89.6664 24.6162 89.6152 24.6977C89.5907 24.7298 89.5588 24.7554 89.5222 24.7725C89.4857 24.7896 89.4455 24.7976 89.4052 24.7959C89.3684 24.798 89.3317 24.7909 89.2983 24.7752C89.265 24.7595 89.2361 24.7356 89.2143 24.7059C89.1643 24.6241 89.1414 24.5287 89.1489 24.4332C89.1451 24.3724 89.1544 24.3115 89.176 24.2546C89.1976 24.1977 89.2311 24.1461 89.2743 24.1032C89.3942 24.0081 89.5373 23.9469 89.6888 23.9259V24.425Z" fill="white"/>
<path d="M92.4053 24.804C92.2495 24.7491 92.0851 24.7223 91.9199 24.7249H91.8462C91.4535 24.7249 91.2599 24.6404 91.2599 24.5149C91.2576 24.4647 91.2753 24.4157 91.309 24.3784C91.3427 24.3411 91.3897 24.3187 91.4399 24.3158H91.5108C91.7531 24.3296 91.9936 24.2666 92.198 24.1358C92.2775 24.0792 92.3415 24.0037 92.3844 23.916C92.4272 23.8284 92.4476 23.7315 92.4435 23.634C92.446 23.5481 92.4272 23.4628 92.389 23.3858C92.3511 23.3149 92.2957 23.2548 92.228 23.2113H92.6371V23.0095H92.2662C92.1179 23.0116 91.9695 23.0061 91.8217 22.9931L91.549 22.9767C91.3268 22.9637 91.107 23.0283 90.9271 23.1595C90.8531 23.2159 90.7935 23.2891 90.7532 23.373C90.7129 23.4569 90.6931 23.5491 90.6953 23.6422C90.6909 23.7138 90.7007 23.7857 90.7241 23.8535C90.7475 23.9214 90.784 23.984 90.8317 24.0377C90.9398 24.1467 91.0806 24.2176 91.2326 24.2395V24.3104C91.1164 24.3557 91.0113 24.4254 90.9244 24.5149C90.8895 24.5511 90.8621 24.5938 90.8438 24.6406C90.8256 24.6874 90.8168 24.7374 90.818 24.7877C90.8154 24.8618 90.8396 24.9344 90.8862 24.9922C90.9375 25.0523 91.0061 25.0952 91.0826 25.1149V25.1477C90.9616 25.184 90.8525 25.2518 90.7662 25.344C90.6944 25.4291 90.6574 25.5382 90.6626 25.6495C90.6621 25.7294 90.6834 25.808 90.7242 25.8767C90.7651 25.9455 90.8239 26.0017 90.8944 26.0395C91.0926 26.1457 91.3163 26.1948 91.5408 26.1813C91.8331 26.1953 92.1216 26.1098 92.359 25.9386C92.4582 25.8677 92.5388 25.7739 92.5939 25.6651C92.6489 25.5564 92.6769 25.4359 92.6753 25.314C92.6774 25.2126 92.654 25.1122 92.6071 25.0222C92.5653 24.9295 92.4945 24.8529 92.4053 24.804ZM91.339 23.2931C91.3619 23.2532 91.3946 23.2197 91.434 23.1958C91.4733 23.1719 91.5181 23.1584 91.5641 23.1565C91.6102 23.1546 91.6559 23.1643 91.6971 23.1849C91.7384 23.2055 91.7737 23.2361 91.7999 23.274C91.8566 23.3763 91.8822 23.4929 91.8735 23.6095C91.8833 23.7516 91.858 23.8939 91.7999 24.024C91.7545 24.0864 91.6863 24.1283 91.6102 24.1406C91.534 24.1529 91.4561 24.1345 91.3935 24.0895C91.369 24.0705 91.347 24.0485 91.328 24.024C91.2712 23.9081 91.2458 23.7792 91.2544 23.6504C91.2465 23.5255 91.2759 23.4012 91.339 23.2931ZM92.0071 25.8731C91.8758 25.9576 91.7212 25.9986 91.5653 25.9904C91.4264 25.9979 91.2898 25.9521 91.1835 25.8622C91.136 25.8193 91.0985 25.7666 91.0735 25.7077C91.0486 25.6488 91.0368 25.5852 91.039 25.5213C91.0372 25.4446 91.0571 25.369 91.0962 25.3031C91.1333 25.2388 91.1882 25.1867 91.2544 25.1531L91.7317 25.1777C91.85 25.1755 91.9658 25.2119 92.0617 25.2813C92.0981 25.3162 92.1262 25.3588 92.1442 25.406C92.1621 25.4532 92.1693 25.5037 92.1653 25.554C92.1681 25.6162 92.155 25.6782 92.1274 25.734C92.0997 25.7898 92.0583 25.8376 92.0071 25.8731Z" fill="white"/>
<path d="M94.4919 24.804C94.4431 24.7032 94.4233 24.5909 94.4346 24.4795V23.6613C94.4398 23.5699 94.4246 23.4784 94.3902 23.3935C94.3558 23.3086 94.3029 23.2324 94.2355 23.1704C94.0718 23.0455 93.8682 22.9844 93.6628 22.9986C93.5341 22.9987 93.4068 23.0257 93.2891 23.0777C93.1565 23.1373 93.0341 23.2174 92.9264 23.315C92.9264 23.3477 92.9537 23.3831 92.9673 23.424C92.9809 23.465 92.9973 23.514 93.0164 23.5795C93.0684 23.4845 93.1411 23.4025 93.2291 23.3395C93.303 23.2866 93.3919 23.2588 93.4828 23.2604C93.5332 23.2597 93.5832 23.269 93.63 23.2877C93.6769 23.3064 93.7195 23.3342 93.7555 23.3695C93.8297 23.4514 93.8688 23.5591 93.8646 23.6695V23.7131C93.8673 23.722 93.8673 23.7315 93.8646 23.7404C93.7262 23.8196 93.5775 23.8793 93.4228 23.9177L93.2128 23.9859C93.0866 24.0222 92.9726 24.0919 92.8828 24.1877C92.8089 24.2782 92.771 24.3928 92.7764 24.5095C92.7718 24.5864 92.7828 24.6635 92.8085 24.7361C92.8343 24.8087 92.8744 24.8754 92.9264 24.9322C92.9802 24.985 93.0443 25.026 93.1147 25.0528C93.1851 25.0795 93.2603 25.0914 93.3355 25.0877C93.4499 25.0895 93.5627 25.0613 93.6628 25.0059C93.7591 24.9504 93.8391 24.8704 93.8946 24.774C93.9068 24.8621 93.9524 24.942 94.022 24.9973C94.0915 25.0527 94.1797 25.0792 94.2682 25.0713C94.3406 25.0709 94.4127 25.0636 94.4837 25.0495C94.5583 25.0334 94.6313 25.0106 94.7019 24.9813V24.8777C94.6636 24.8809 94.6252 24.8759 94.589 24.8633C94.5528 24.8506 94.5197 24.8304 94.4919 24.804ZM93.8973 24.4249C93.8991 24.521 93.8735 24.6156 93.8237 24.6977C93.7977 24.7288 93.7652 24.7538 93.7284 24.7708C93.6916 24.7878 93.6515 24.7963 93.6109 24.7959C93.5741 24.798 93.5374 24.7909 93.504 24.7751C93.4707 24.7594 93.4418 24.7356 93.42 24.7059C93.3701 24.6241 93.3472 24.5287 93.3546 24.4331C93.3519 24.3722 93.3619 24.3115 93.3839 24.2546C93.406 24.1978 93.4397 24.1462 93.4828 24.1031C93.6016 24.0064 93.7453 23.945 93.8973 23.9259V24.4249Z" fill="white"/>
<path d="M95.7845 23.0693H94.9663C94.969 23.0837 94.969 23.0985 94.9663 23.1129C94.969 23.1365 94.969 23.1603 94.9663 23.1838C94.9692 23.2065 94.9692 23.2294 94.9663 23.252V23.2957H95.0127C95.2545 23.2848 95.4318 23.2793 95.5445 23.2793H95.8854L95.4981 23.8711C95.1708 24.3729 94.9308 24.7384 94.7754 24.962V25.0275L95.1954 25.0111H96.1799L96.5727 25.0275V24.7766C96.4581 24.7766 96.3408 24.7929 96.2208 24.7957C96.1008 24.7984 95.9781 24.7957 95.8527 24.7957H95.4899L96.1881 23.7048L96.5918 23.0857V23.0557H96.2181L95.7845 23.0693Z" fill="white"/>
<path d="M97.5516 23.0557H96.938C96.938 23.2329 96.9544 23.4048 96.9598 23.5657C96.9653 23.7266 96.9598 23.8875 96.9598 24.0457V24.482C96.9627 24.6641 96.9554 24.8462 96.938 25.0275L97.0962 25.0111H97.3962L97.5516 25.0275C97.5516 24.8175 97.5353 24.6348 97.5298 24.482C97.5244 24.3293 97.5298 24.1793 97.5298 24.0429V23.5629C97.5298 23.3993 97.5407 23.2329 97.5516 23.0557Z" fill="white"/>
<path d="M97.2493 21.9948C97.1663 21.9919 97.0854 22.0217 97.0242 22.0778C96.9629 22.1339 96.9262 22.2119 96.922 22.2948C96.9207 22.3408 96.9293 22.3864 96.9472 22.4288C96.9651 22.4711 96.9918 22.5091 97.0256 22.5403C97.0541 22.5699 97.0885 22.5931 97.1266 22.6086C97.1646 22.6241 97.2055 22.6315 97.2465 22.6303C97.288 22.6349 97.3299 22.6311 97.3698 22.6193C97.4098 22.6075 97.447 22.5878 97.4793 22.5615C97.5116 22.5351 97.5383 22.5026 97.5578 22.4658C97.5774 22.429 97.5895 22.3887 97.5933 22.3472C97.5971 22.3057 97.5926 22.2638 97.58 22.2241C97.5675 22.1844 97.5471 22.1475 97.5202 22.1157C97.4932 22.0839 97.4602 22.0578 97.4231 22.039C97.3859 22.0201 97.3454 22.0088 97.3038 22.0057H97.2465L97.2493 21.9948Z" fill="white"/>
<path d="M99.8838 24.3348V23.8166C99.8889 23.6805 99.8788 23.5442 99.8538 23.4103C99.838 23.3368 99.8043 23.2684 99.7557 23.2112C99.6975 23.1451 99.6246 23.0937 99.5429 23.0612C99.4562 23.0264 99.3636 23.0088 99.2702 23.0094C99.1471 23.0076 99.0255 23.0356 98.9156 23.0912C98.8077 23.153 98.7146 23.2377 98.6429 23.3394V23.0666H98.062C98.0729 23.2284 98.0811 23.3921 98.0866 23.5575C98.092 23.723 98.092 23.8894 98.0866 24.0566V24.5257C98.0902 24.6988 98.082 24.8719 98.062 25.0439L98.2202 25.0275H98.4929L98.6456 25.0439C98.6456 24.8294 98.6402 24.6384 98.6293 24.4712V24.0375C98.6181 23.8591 98.646 23.6804 98.7111 23.5139C98.735 23.4631 98.774 23.4208 98.8229 23.393C98.8717 23.3652 98.9279 23.3531 98.9838 23.3584C99.0371 23.3509 99.0915 23.3593 99.14 23.3826C99.1885 23.4059 99.2291 23.4431 99.2566 23.4894C99.3196 23.6761 99.3437 23.8738 99.3275 24.0703V24.6157C99.3324 24.7561 99.3251 24.8966 99.3057 25.0357L99.4666 25.0194H99.7557L99.9193 25.0357C99.9193 24.9294 99.9029 24.8175 99.8975 24.703C99.892 24.5884 99.8838 24.463 99.8838 24.3348Z" fill="white"/>
<path d="M101.288 23.0013C101.156 22.9946 101.023 23.0153 100.899 23.0623C100.774 23.1092 100.661 23.1813 100.566 23.2741C100.473 23.3712 100.402 23.4861 100.355 23.6117C100.308 23.7373 100.287 23.8711 100.293 24.005C100.276 24.2934 100.374 24.5769 100.566 24.7932C100.666 24.8887 100.786 24.9622 100.916 25.0092C101.047 25.0561 101.185 25.0754 101.324 25.0659C101.452 25.066 101.579 25.0495 101.703 25.0168C101.812 24.9874 101.915 24.9404 102.008 24.8777L102.098 24.6432L102.057 24.6132C101.981 24.6757 101.896 24.7254 101.804 24.7604C101.717 24.793 101.624 24.8096 101.531 24.8095C101.443 24.8123 101.356 24.7945 101.276 24.7576C101.196 24.7207 101.125 24.6656 101.07 24.5968C100.95 24.4329 100.89 24.2325 100.901 24.0295H102.167C102.169 24.0133 102.169 23.9967 102.167 23.9804C102.169 23.9532 102.169 23.9258 102.167 23.8986C102.183 23.6508 102.101 23.4066 101.937 23.2195C101.85 23.14 101.748 23.0796 101.636 23.042C101.524 23.0044 101.406 22.9906 101.288 23.0013ZM101.602 23.7895V23.8441H100.901V23.8086C100.892 23.6472 100.926 23.4864 100.999 23.3422C101.026 23.2931 101.065 23.2521 101.113 23.2233C101.161 23.1945 101.216 23.1791 101.272 23.1786C101.321 23.1785 101.369 23.1916 101.412 23.2165C101.454 23.2415 101.488 23.2774 101.512 23.3204C101.574 23.4532 101.602 23.5995 101.594 23.7459L101.602 23.7895Z" fill="white"/>
<path d="M86.0484 8.76476C86.2466 9.07612 86.4286 9.39745 86.5939 9.72749L87.1393 9.20112C86.8639 8.89044 86.5505 8.61556 86.2066 8.38294C86.3219 8.11895 86.4131 7.84512 86.4793 7.56476L85.6911 7.40112C85.5267 8.35927 85.1982 9.28189 84.7202 10.1284L84.9929 10.352C85.4173 9.87497 85.7726 9.34066 86.0484 8.76476Z" fill="white"/>
<path d="M92.1601 7.32215C91.9143 6.7294 91.5795 6.1776 91.1674 5.68579L90.8564 5.84125C91.0639 6.4249 91.2325 7.02166 91.361 7.62761L92.1601 7.32215Z" fill="white"/>
<path d="M89.078 6.87495H87.3489L87.7389 6.3295C87.2416 6.00479 86.6969 5.75915 86.1243 5.60132L85.9907 5.90132C86.3672 6.20108 86.7234 6.52542 87.0571 6.87223H84.8916V7.30859H89.078V6.87495Z" fill="white"/>
<path d="M86.651 12.2668V14.8113H87.4855V12.084C87.8318 12.4766 88.1559 12.8881 88.4564 13.3168L89.0319 12.6759C88.5592 12.2644 88.0402 11.9093 87.4855 11.6177V11.2577H89.0973V10.8186H87.4855V9.90495H87.3219C87.5639 9.57614 87.7748 9.22554 87.9519 8.85767C88.1591 9.14916 88.3416 9.45751 88.4973 9.77949L88.9528 9.36222C88.8654 9.60768 88.7643 9.84805 88.6501 10.0822L88.9228 10.284C89.0701 10.0904 89.1955 9.87767 89.34 9.66222V14.7649H90.1937V14.0149H93.4664V13.5677H91.9801V11.8877H93.1064V11.4513H91.9801V9.93495H93.0982V9.49858H91.9801V8.19767H93.3437V7.75858H90.1473C90.3247 7.15345 90.4416 6.53223 90.4964 5.90404L89.6128 5.72949C89.4682 7.14767 89.3401 8.19767 89.0101 9.18767C88.7534 8.90664 88.4598 8.66169 88.1373 8.45949C88.2539 8.18661 88.3452 7.9036 88.41 7.61404L87.6219 7.4204C87.5441 8.28586 87.3035 9.12883 86.9128 9.90495H86.6619V10.8186H84.8319V11.2577H86.4355C86.002 12.2364 85.3855 13.1232 84.6191 13.8704L84.8237 14.1431C85.5348 13.6258 86.1527 12.9913 86.651 12.2668ZM90.1664 8.19767H91.1046V9.49858H90.161L90.1664 8.19767ZM90.1664 9.93495H91.1046V11.4513H90.161L90.1664 9.93495ZM90.1664 11.8877H91.1046V13.5677H90.161L90.1664 11.8877Z" fill="white"/>
<path d="M102.559 11.0339C102.04 10.5927 101.457 10.2322 100.83 9.96484L100.655 10.2376C101.125 10.6921 101.569 11.1719 101.986 11.6748L102.559 11.0339Z" fill="white"/>
<path d="M100.991 9.49854H99.1938V9.9349H103.778V9.49854H101.864V7.81854H103.904V7.37944H101.864V5.74854H100.991V7.37944H98.9893V7.81854H100.991V9.49854Z" fill="white"/>
<path d="M104.255 13.0822C103.928 12.377 103.484 11.7317 102.944 11.1731L102.671 11.3558C102.998 12.0364 103.271 12.7413 103.489 13.464L104.255 13.0822Z" fill="white"/>
<path d="M100.104 13.4013C100.104 14.4513 100.298 14.5577 101.719 14.5577C103.233 14.5577 103.156 13.9359 102.709 12.3431H102.36C102.36 13.6359 102.36 13.7613 101.659 13.7613C101.048 13.7613 100.961 13.6359 100.961 13.2459V10.8677H100.104V13.4013Z" fill="white"/>
<path d="M98.7844 7.37932H97.3771L97.8816 6.99204C97.4496 6.47931 96.9463 6.03112 96.3871 5.66113L96.1443 5.90386C96.368 6.22295 96.728 6.82568 97.0471 7.37932H95.5498V7.81841H98.7844V7.37932Z" fill="white"/>
<path d="M97.7373 14.6176H98.4682V13.4421L99.12 13.9276C99.5673 13.3358 99.7909 12.4794 99.8482 11.4512L99.5073 11.3831C99.3766 12.13 99.0129 12.8164 98.4682 13.344V11.4349H95.8555V14.7649H96.6137V14.0558H97.7318L97.7373 14.6176ZM97.7373 13.6167H96.63V11.8494H97.7373V13.6167Z" fill="white"/>
<path d="M98.5611 10.0713H95.8311V10.4804H98.5611V10.0713Z" fill="white"/>
<path d="M98.5611 8.72949H95.8311V9.13858H98.5611V8.72949Z" fill="white"/>
<path d="M81.2399 14.1894L81.1554 14.1458C81.0291 14.0556 80.8915 13.9822 80.7463 13.9276C80.5199 13.8703 80.2799 13.8976 80.0535 13.8485C79.7345 13.7803 79.4181 13.7012 79.0963 13.6521C78.6937 13.5756 78.2791 13.5896 77.8826 13.693C77.6892 13.7376 77.5107 13.8316 77.3645 13.9658C77.2836 14.0848 77.2357 14.2231 77.2254 14.3667C77.1926 14.5033 77.1761 14.6434 77.1763 14.784C77.195 15.3087 77.3511 15.8194 77.629 16.2649C77.7691 16.5055 77.9297 16.7336 78.109 16.9467C78.2731 17.1648 78.4637 17.3618 78.6763 17.533C78.8704 17.6428 79.0359 17.797 79.159 17.983C79.2517 18.133 79.2599 18.1767 79.4317 18.2558C79.7275 18.3424 80.0345 18.3847 80.3426 18.3812C80.7495 18.4082 81.1581 18.3844 81.559 18.3103C81.8563 18.2585 81.9108 18.0376 82.1535 17.9067C82.3963 17.7758 82.4917 17.754 82.5954 17.5058C83.0645 16.3876 82.4863 15.4358 81.8017 14.6285C81.6403 14.4518 81.4504 14.3034 81.2399 14.1894Z" fill="white"/>
</g>
<path d="M151.111 5.74114L148.501 2.72461L147.792 3.1862C147.792 3.1862 148.739 5.28416 148.946 6.79819L151.111 5.74114Z" fill="#373737"/>
<path d="M160.835 3.69396L158.437 2.72461C158.437 2.72461 158.068 4.9218 157.255 6.46815L157.819 6.79819L160.835 3.69396Z" fill="#373737"/>
<path d="M155.093 11.1787H153.062V13.032H155.093V11.1787Z" fill="#373737"/>
<path d="M155.48 10.2992H156.505L158.46 7.78809H156.117L155.48 10.2992Z" fill="#373737"/>
<path d="M150.597 10.2994H152.761L151.178 7.78833H150.207L150.597 10.2994Z" fill="#373737"/>
<path d="M151.658 16.7939C151.211 17.4102 149.119 20.1082 145.865 21.3961L146.14 22.1646C146.14 22.1646 150.772 20.7267 153.064 18.151V22.4069H155.097V17.3871C157.047 20.3044 161.128 21.9684 161.128 21.9684L162.326 19.612C159.891 19.3263 157.59 18.3482 155.695 16.7939H151.658Z" fill="#373737"/>
<path d="M153.366 2.61377H151.571V6.90661H153.366V2.61377Z" fill="#373737"/>
<path d="M155.093 13.9111H153.062V15.9122H155.093V13.9111Z" fill="#373737"/>
<path d="M156.653 2.61377H154.857V6.90661H156.653V2.61377Z" fill="#373737"/>
<path d="M136.76 4.8155L137.305 3.86923L134.817 2.92065C134.817 2.92065 133.624 8.43441 127.57 12.3464L127.988 13.0758C127.988 13.0758 133.282 10.6801 136.324 5.63022C136.324 5.63022 138.475 10.0154 142.936 12.7434L144.335 10.1885C144.335 10.1885 140.585 9.11527 136.76 4.8155Z" fill="#373737"/>
<path d="M137.545 9.19849H135.235V21.2161H137.545V9.19849Z" fill="#373737"/>
<path d="M132.892 12.8081H130.665V21.2161H132.892V12.8081Z" fill="#373737"/>
<path d="M181.369 3.51611V21.5045H196.81V3.51611H181.369ZM194.776 20.6252H183.405V4.39776H194.776V20.6252Z" fill="#373737"/>
<path d="M186.753 8.49452H188.521L188.911 7.06357H190.961V8.49452H192.664V7.06357V6.18192H190.961H189.151L189.417 5.21257L187.601 4.94946L187.305 6.18192H185.057V7.06357H187.095L186.753 8.49452Z" fill="#373737"/>
<path d="M186.964 10.3871H185.203V13.3874H189.036V14.5991H190.853V13.3805H192.93V10.3801H186.964V10.3871ZM191.16 12.5012H186.964V11.2687H191.16V12.5012Z" fill="#373737"/>
<path d="M190.853 15.4739H189.036V17.0802H190.853V15.4739Z" fill="#373737"/>
<path d="M190.853 17.9619H189.036V20.0322H190.853V17.9619Z" fill="#373737"/>
<path d="M186.746 15.4739H184.902V17.0802H186.746V15.4739Z" fill="#373737"/>
<path d="M165.017 12.5104L165.453 13.2028C165.453 13.2028 169.483 11.7118 170.847 7.74211L168.668 6.68506C168.668 6.68506 168.236 10.8925 165.017 12.5104Z" fill="#373737"/>
<path d="M166.145 6.19113H172.518V10.7863C172.518 10.7863 172.338 12.4273 173.923 12.4273H176.564C176.564 12.4273 177.858 12.5011 177.858 10.9479V9.23535L177.041 8.88223V9.61386C177.041 9.61386 177.108 10.5232 176.194 10.5232H174.782C174.737 10.5232 174.693 10.5144 174.652 10.4973C174.611 10.4803 174.574 10.4552 174.543 10.4237C174.511 10.3922 174.487 10.3547 174.47 10.3136C174.453 10.2724 174.445 10.2284 174.445 10.1839V6.19113H177.515V8.24754L178.879 8.83376H179.557V5.30948H172.79V2.5376H170.6V5.30717H164.091V9.38306H166.145V6.19113Z" fill="#373737"/>
<path d="M172.661 14.6083C172.746 14.0847 172.804 13.5569 172.834 13.0273C172.63 12.9822 172.443 12.8841 172.289 12.7431C172.136 12.602 172.023 12.423 171.961 12.2241H170.54C170.701 13.0083 170.736 13.8131 170.643 14.6083H172.661Z" fill="#373737"/>
<path d="M172.96 15.4922H170.498C170.004 17.6201 168.421 20.2397 163.865 21.5599L164.119 22.4831C164.932 22.4752 165.74 22.3525 166.519 22.1184L166.609 22.0907C166.68 22.0699 166.75 22.0492 166.824 22.0238L167.029 21.9545L167.147 21.913C169.074 21.2206 171.386 19.635 172.379 16.1153C173.898 20.9621 178.597 22.393 178.597 22.393L179.85 19.8543C175.146 19.3073 173.364 16.3069 172.96 15.4922Z" fill="#373737"/>
<path d="M178.149 12.3302L177.955 12.4548C178.216 13.0332 178.409 13.6395 178.532 14.262L179.1 13.985C179.162 13.9554 179.216 13.9119 179.258 13.8579C179.3 13.8039 179.329 13.7409 179.342 13.6738C179.356 13.6067 179.354 13.5374 179.336 13.4713C179.319 13.4051 179.286 13.344 179.241 13.2926L178.435 12.3694C178.399 12.3313 178.351 12.3066 178.299 12.2995C178.247 12.2924 178.194 12.3032 178.149 12.3302Z" fill="#373737"/>
<path d="M149.883 25.959C149.679 25.9657 149.48 26.028 149.308 26.139L149.375 26.3144C149.431 26.2436 149.501 26.185 149.58 26.1422C149.66 26.0993 149.747 26.0731 149.837 26.0652C150.054 26.0652 150.158 26.206 150.162 26.5083C150.095 26.5245 149.964 26.5499 149.825 26.5683C149.405 26.6329 149.211 26.7991 149.211 27.1153C149.211 27.3692 149.394 27.5261 149.685 27.5261C149.876 27.5134 150.055 27.4313 150.19 27.2953V27.51H150.455V26.5868C150.461 26.472 150.446 26.3571 150.412 26.2475C150.365 26.1496 150.289 26.0688 150.194 26.0169C150.099 25.9651 149.99 25.9448 149.883 25.959ZM150.188 27.2122C150.085 27.2944 149.959 27.3427 149.828 27.3507C149.789 27.352 149.75 27.3453 149.713 27.3308C149.677 27.3164 149.644 27.2947 149.617 27.2669C149.589 27.2392 149.568 27.2061 149.554 27.1697C149.539 27.1333 149.533 27.0943 149.535 27.0553C149.532 26.9845 149.55 26.9146 149.588 26.8545C149.625 26.7944 149.68 26.747 149.745 26.7183C149.811 26.6882 149.882 26.6695 149.955 26.6629C150.095 26.6352 150.121 26.6306 150.185 26.6122L150.188 27.2122Z" fill="#373737"/>
<path d="M157.396 26.7229C157.301 26.6599 157.196 26.6153 157.084 26.5914C156.987 26.5758 156.894 26.5396 156.812 26.4852C156.784 26.4665 156.761 26.4406 156.746 26.4102C156.731 26.3798 156.724 26.346 156.727 26.3121C156.727 26.1736 156.83 26.0813 156.997 26.0813C157.074 26.0828 157.151 26.0999 157.222 26.1316C157.293 26.1634 157.357 26.209 157.41 26.266L157.481 26.1113C157.344 26.0202 157.184 25.969 157.02 25.9636C156.68 25.9636 156.48 26.1252 156.48 26.3952C156.48 26.6652 156.618 26.783 156.916 26.8568C157.008 26.873 157.097 26.905 157.179 26.9514C157.215 26.9731 157.244 27.0041 157.263 27.0411C157.283 27.0781 157.292 27.1197 157.29 27.1615C157.29 27.3069 157.158 27.4061 156.964 27.4061C156.878 27.4083 156.792 27.392 156.712 27.3581C156.633 27.3243 156.561 27.2738 156.503 27.2099L156.431 27.3669C156.583 27.4694 156.763 27.5233 156.946 27.5215C157.35 27.5215 157.564 27.3669 157.564 27.0807C157.567 27.0119 157.553 26.9436 157.524 26.8814C157.494 26.8192 157.45 26.7648 157.396 26.7229Z" fill="#373737"/>
<path d="M160.055 25.4675C160.022 25.5455 160.009 25.6302 160.015 25.7144V26.0006H159.725V26.1114H160.015V27.5193H160.302V26.1114H160.639V26.0006H160.302V25.7237C160.296 25.6684 160.296 25.6127 160.302 25.5575C160.31 25.5171 160.334 25.4815 160.368 25.4576C160.402 25.4337 160.443 25.4233 160.484 25.4282C160.532 25.4249 160.581 25.4249 160.629 25.4282V25.3313C160.568 25.3138 160.504 25.306 160.44 25.3082C160.242 25.3082 160.112 25.3613 160.055 25.4675Z" fill="#373737"/>
<path d="M163.512 25.9565C163.412 25.9539 163.314 25.9726 163.222 26.0115C163.131 26.0503 163.049 26.1084 162.982 26.1817C162.915 26.2551 162.865 26.342 162.834 26.4365C162.804 26.5311 162.794 26.6311 162.806 26.7297C162.806 27.2236 163.082 27.5375 163.512 27.5375C163.941 27.5375 164.204 27.2375 164.204 26.732C164.204 26.2266 163.934 25.9565 163.512 25.9565ZM163.512 27.4221C163.281 27.4221 163.099 27.1175 163.099 26.7297C163.099 26.342 163.288 26.0766 163.514 26.0766C163.74 26.0766 163.906 26.3628 163.906 26.7228C163.906 27.0828 163.733 27.4221 163.512 27.4221Z" fill="#373737"/>
<path d="M175.458 26.6929C175.467 26.5104 175.409 26.331 175.296 26.1874C175.235 26.1138 175.157 26.0549 175.07 26.0149C174.982 25.975 174.887 25.9551 174.791 25.9566C174.394 25.9566 174.131 26.2682 174.131 26.7367C174.131 27.2445 174.362 27.5145 174.823 27.5145C174.938 27.5188 175.051 27.4947 175.154 27.4443C175.257 27.394 175.345 27.319 175.412 27.226L175.345 27.1545C175.29 27.2251 175.22 27.2825 175.14 27.3225C175.06 27.3624 174.973 27.3839 174.883 27.3853C174.616 27.3853 174.422 27.1129 174.422 26.7321V26.6929H175.458ZM174.784 26.072C174.978 26.072 175.116 26.2774 175.123 26.5821H174.431C174.475 26.2682 174.604 26.0813 174.784 26.0813V26.072Z" fill="#373737"/>
<path d="M181.851 26.7229C181.756 26.6603 181.651 26.6157 181.54 26.5914C181.442 26.5761 181.348 26.5399 181.265 26.4852C181.237 26.4662 181.215 26.4402 181.2 26.4098C181.186 26.3794 181.179 26.3457 181.182 26.3121C181.182 26.1736 181.286 26.0813 181.45 26.0813C181.527 26.0825 181.604 26.0995 181.675 26.1313C181.746 26.163 181.81 26.2088 181.863 26.266L181.934 26.1113C181.794 26.0177 181.63 25.9665 181.461 25.9636C181.124 25.9636 180.923 26.1252 180.923 26.3952C180.923 26.6652 181.06 26.783 181.357 26.8568C181.45 26.873 181.539 26.905 181.62 26.9514C181.657 26.9719 181.687 27.0026 181.707 27.0399C181.727 27.0773 181.735 27.1195 181.731 27.1615C181.731 27.3069 181.6 27.4061 181.406 27.4061C181.319 27.4082 181.233 27.3918 181.154 27.3579C181.074 27.3241 181.003 27.2736 180.944 27.2099L180.875 27.3669C181.027 27.4699 181.206 27.5239 181.39 27.5215C181.791 27.5215 182.008 27.3669 182.008 27.0807C182.012 27.0129 182 26.9452 181.973 26.883C181.945 26.8209 181.904 26.766 181.851 26.7229Z" fill="#373737"/>
<path d="M142.373 25.5504H143.052H143.375H144.051V25.4396H142.373V25.5504Z" fill="#373737"/>
<path d="M146.472 26.462V26.7182C146.469 26.6572 146.478 26.5961 146.501 26.5392C146.523 26.4822 146.557 26.4306 146.601 26.388C146.644 26.3453 146.697 26.3125 146.754 26.2918C146.812 26.2712 146.873 26.2631 146.934 26.2682C146.96 26.2646 146.986 26.2646 147.012 26.2682H147.031L147.068 25.9797C147.032 25.9691 146.994 25.9644 146.957 25.9658C146.726 25.975 146.56 26.1435 146.472 26.462Z" fill="#373737"/>
<path d="M166.895 26.4621V26.7183C166.891 26.6572 166.901 26.5959 166.923 26.5388C166.945 26.4816 166.979 26.4299 167.023 26.3871C167.067 26.3444 167.119 26.3116 167.177 26.2911C167.235 26.2706 167.296 26.2628 167.357 26.2682C167.383 26.2648 167.409 26.2648 167.435 26.2682H167.454L167.498 26.0005C167.462 25.9901 167.424 25.9854 167.387 25.9866C167.156 25.9751 166.983 26.1436 166.895 26.4621Z" fill="#373737"/>
<path d="M178.138 26.462V26.7182C178.134 26.6572 178.144 26.5961 178.166 26.5392C178.188 26.4822 178.222 26.4306 178.266 26.388C178.31 26.3453 178.362 26.3125 178.42 26.2918C178.477 26.2712 178.539 26.2631 178.6 26.2682C178.626 26.2647 178.652 26.2647 178.678 26.2682H178.696L178.733 25.9797C178.697 25.9691 178.66 25.9644 178.623 25.9658C178.399 25.975 178.226 26.1435 178.138 26.462Z" fill="#373737"/>
<path d="M153.565 25.9727C153.483 25.9677 153.401 25.987 153.33 26.028C153.259 26.069 153.202 26.1301 153.166 26.2035V26.5358C153.17 26.4445 153.195 26.3553 153.239 26.275C153.261 26.2235 153.297 26.1789 153.343 26.1464C153.388 26.1138 153.442 26.0944 153.498 26.0904C153.566 26.0892 153.633 26.1115 153.686 26.1535C153.74 26.1955 153.778 26.2547 153.793 26.3212C153.811 26.3969 153.819 26.4743 153.819 26.552V27.5352H154.112V26.5474C154.125 26.4714 154.12 26.3934 154.098 26.3196C154.075 26.2458 154.036 26.1782 153.983 26.1224C153.93 26.0665 153.864 26.0239 153.792 25.9979C153.719 25.9719 153.641 25.9633 153.565 25.9727Z" fill="#373737"/>
<path d="M171.324 25.9728C171.234 25.9749 171.146 26.0025 171.07 26.0523C170.995 26.1021 170.935 26.1721 170.897 26.2543C170.865 26.1666 170.806 26.0917 170.727 26.0409C170.649 25.9901 170.556 25.9661 170.463 25.9728C170.384 25.9728 170.305 25.9942 170.237 26.0348C170.168 26.0754 170.112 26.1337 170.073 26.2036V26.5359C170.073 26.3051 170.23 26.0905 170.389 26.0905C170.549 26.0905 170.653 26.2497 170.653 26.5382V27.5214H170.943V26.5336C170.951 26.4451 170.974 26.3586 171.01 26.2774C171.03 26.2266 171.064 26.1823 171.108 26.1493C171.151 26.1163 171.203 26.096 171.257 26.0905C171.318 26.0956 171.375 26.1212 171.42 26.1631C171.464 26.205 171.493 26.2608 171.502 26.3213C171.516 26.3973 171.523 26.4746 171.523 26.5521V27.5214H171.813V26.5474C171.813 26.1782 171.636 25.9728 171.324 25.9728Z" fill="#373737"/>
<path d="M161.396 10.2993H146.865V11.181H161.396V10.2993Z" fill="#D7B788"/>
<path d="M160.489 13.032H147.774V13.9136H160.489V13.032Z" fill="#D7B788"/>
<path d="M162.032 6.90894H146.229V7.79058H162.032V6.90894Z" fill="#D7B788"/>
<path d="M162.16 15.9124H146.103V16.794H162.16V15.9124Z" fill="#D7B788"/>
<path d="M142.082 14.4604H137.545V15.3421H142.082V14.4604Z" fill="#D7B788"/>
<path d="M143.682 21.2161H128.024V22.1H143.682V21.2161Z" fill="#D7B788"/>
<path d="M194.302 8.49438H183.875V9.37603H194.302V8.49438Z" fill="#D7B788"/>
<path d="M193.777 14.592H184.902V15.4737H193.777V14.592Z" fill="#D7B788"/>
<path d="M194.303 17.0801H183.912V17.9617H194.303V17.0801Z" fill="#D7B788"/>
<path d="M179.656 14.6084H163.854V15.4924H179.656V14.6084Z" fill="#D7B788"/>
<path d="M143.375 25.5504H143.054V27.5099H143.375V25.5504Z" fill="#D7B788"/>
<path d="M146.474 25.9913H146.186V27.51H146.474V25.9913Z" fill="#D7B788"/>
<path d="M166.895 25.9913H166.607V27.51H166.895V25.9913Z" fill="#D7B788"/>
<path d="M178.14 25.9913H177.852V27.51H178.14V25.9913Z" fill="#D7B788"/>
<path d="M153.165 25.9913H152.872V27.51H153.165V25.9913Z" fill="#D7B788"/>
<path d="M170.074 25.9913H169.781V27.51H170.074V25.9913Z" fill="#D7B788"/>
<line y1="-0.5" x2="8" y2="-0.5" transform="matrix(-1 0 0 1 28 1)" stroke="#939EA7"/>
<path d="M20.5 29.0375V1.03748" stroke="#939EA7"/>
<line y1="-0.5" x2="8" y2="-0.5" transform="matrix(-1 0 0 1 28 30)" stroke="#939EA7"/>
<path d="M2.91246 14.3159H3.89684C4.27965 14.3159 4.59638 14.2498 4.84703 14.1177C5.10224 13.9855 5.29137 13.8032 5.41441 13.5708C5.53746 13.3384 5.59898 13.0718 5.59898 12.771C5.59898 12.4565 5.54202 12.1877 5.42809 11.9644C5.31871 11.7365 5.15009 11.561 4.92223 11.438C4.69892 11.3149 4.41409 11.2534 4.06773 11.2534C3.77607 11.2534 3.51175 11.3127 3.27477 11.4312C3.04234 11.5451 2.85777 11.7091 2.72106 11.9233C2.58434 12.133 2.51598 12.3836 2.51598 12.6753H0.86168C0.86168 12.1466 1.00068 11.6772 1.27867 11.2671C1.55667 10.8569 1.93492 10.5356 2.41344 10.3032C2.89651 10.0662 3.43883 9.94775 4.04039 9.94775C4.68297 9.94775 5.24352 10.0549 5.72203 10.269C6.2051 10.4787 6.58108 10.7931 6.84996 11.2124C7.11884 11.6317 7.25328 12.1512 7.25328 12.771C7.25328 13.0535 7.1872 13.3407 7.05504 13.6323C6.92288 13.924 6.72691 14.1906 6.46715 14.4321C6.20738 14.6691 5.88382 14.8628 5.49645 15.0132C5.10908 15.159 4.66018 15.2319 4.14977 15.2319H2.91246V14.3159ZM2.91246 15.6011V14.6987H4.14977C4.7331 14.6987 5.22984 14.7671 5.64 14.9038C6.05471 15.0405 6.39195 15.2297 6.65172 15.4712C6.91148 15.7082 7.10061 15.9793 7.2191 16.2847C7.34215 16.59 7.40367 16.9136 7.40367 17.2554C7.40367 17.7202 7.31936 18.1349 7.15074 18.4995C6.98668 18.8595 6.75198 19.1649 6.44664 19.4155C6.1413 19.6662 5.78356 19.8553 5.3734 19.9829C4.9678 20.1105 4.52574 20.1743 4.04723 20.1743C3.61884 20.1743 3.20869 20.1151 2.81676 19.9966C2.42483 19.8781 2.07392 19.7026 1.76402 19.4702C1.45413 19.2332 1.20803 18.9393 1.02574 18.5884C0.848008 18.2329 0.759141 17.8228 0.759141 17.3579H2.4066C2.4066 17.6541 2.47496 17.9162 2.61168 18.144C2.75296 18.3674 2.94892 18.5428 3.19957 18.6704C3.45478 18.798 3.74645 18.8618 4.07457 18.8618C4.42092 18.8618 4.71943 18.8003 4.97008 18.6772C5.22073 18.5542 5.41214 18.3719 5.5443 18.1304C5.68102 17.8888 5.74938 17.5972 5.74938 17.2554C5.74938 16.868 5.67418 16.5535 5.52379 16.312C5.3734 16.0705 5.15921 15.8927 4.88121 15.7788C4.60322 15.6603 4.27509 15.6011 3.89684 15.6011H2.91246ZM15.2822 14.2271V15.854C15.2822 16.6333 15.2048 17.2987 15.0498 17.8501C14.8994 18.397 14.6807 18.8413 14.3936 19.1831C14.1064 19.5249 13.7624 19.7756 13.3613 19.9351C12.9648 20.0946 12.5205 20.1743 12.0283 20.1743C11.6364 20.1743 11.2718 20.1242 10.9346 20.0239C10.6019 19.9237 10.3011 19.7664 10.0322 19.5522C9.76335 19.3381 9.5332 19.0623 9.3418 18.7251C9.15495 18.3833 9.00911 17.9754 8.9043 17.5015C8.80404 17.0275 8.75391 16.4784 8.75391 15.854V14.2271C8.75391 13.4432 8.83138 12.7824 8.98633 12.2446C9.14128 11.7023 9.3623 11.2625 9.64941 10.9253C9.93652 10.5835 10.2783 10.3351 10.6748 10.1802C11.0758 10.0252 11.5225 9.94775 12.0146 9.94775C12.4111 9.94775 12.7757 9.99788 13.1084 10.0981C13.4456 10.1938 13.7464 10.3465 14.0107 10.5562C14.2796 10.7658 14.5075 11.0392 14.6943 11.3765C14.8857 11.7091 15.0316 12.1125 15.1318 12.5864C15.2321 13.0558 15.2822 13.6027 15.2822 14.2271ZM13.6348 16.0864V13.981C13.6348 13.5845 13.612 13.2358 13.5664 12.9351C13.5208 12.6297 13.4525 12.3722 13.3613 12.1626C13.2747 11.9484 13.1654 11.7752 13.0332 11.6431C12.901 11.5063 12.7507 11.4084 12.582 11.3491C12.4134 11.2853 12.2243 11.2534 12.0146 11.2534C11.7594 11.2534 11.5316 11.3035 11.3311 11.4038C11.1305 11.4995 10.9619 11.6545 10.8252 11.8687C10.6885 12.0828 10.5837 12.3654 10.5107 12.7163C10.4424 13.0627 10.4082 13.4842 10.4082 13.981V16.0864C10.4082 16.4875 10.431 16.8407 10.4766 17.146C10.5221 17.4513 10.5905 17.7134 10.6816 17.9321C10.7728 18.1463 10.8822 18.3241 11.0098 18.4653C11.1419 18.6021 11.2923 18.7023 11.4609 18.7661C11.6341 18.8299 11.8232 18.8618 12.0283 18.8618C12.2881 18.8618 12.5182 18.8117 12.7188 18.7114C12.9193 18.6112 13.0879 18.4517 13.2246 18.2329C13.3613 18.0096 13.4639 17.7202 13.5322 17.3647C13.6006 17.0093 13.6348 16.5832 13.6348 16.0864Z" fill="#171717"/>
<line x1="205" y1="2.5" x2="213" y2="2.5" stroke="#939EA7"/>
<path d="M213 27V2" stroke="#939EA7"/>
<line x1="205" y1="26.5" x2="213" y2="26.5" stroke="#939EA7"/>
<path d="M224.424 18.2251V19.5376H217.752V18.4097L220.992 14.8755C221.348 14.4744 221.628 14.1281 221.833 13.8364C222.038 13.5448 222.182 13.2827 222.264 13.0503C222.35 12.8133 222.394 12.5832 222.394 12.3599C222.394 12.0454 222.334 11.7697 222.216 11.5327C222.102 11.2912 221.933 11.1021 221.71 10.9653C221.487 10.8241 221.215 10.7534 220.896 10.7534C220.527 10.7534 220.217 10.8332 219.967 10.9927C219.716 11.1522 219.527 11.3732 219.399 11.6558C219.272 11.9338 219.208 12.2528 219.208 12.6128H217.561C217.561 12.034 217.693 11.5054 217.957 11.0269C218.221 10.5438 218.604 10.161 219.105 9.87842C219.607 9.59131 220.211 9.44775 220.917 9.44775C221.582 9.44775 222.147 9.55941 222.612 9.78271C223.077 10.006 223.43 10.3228 223.672 10.7329C223.918 11.1431 224.041 11.6284 224.041 12.189C224.041 12.4989 223.991 12.8065 223.891 13.1118C223.79 13.4172 223.647 13.7225 223.46 14.0278C223.278 14.3286 223.061 14.6317 222.811 14.937C222.56 15.2378 222.284 15.5431 221.983 15.853L219.83 18.2251H224.424ZM227.298 14.9097L225.986 14.5884L226.526 9.58447H231.892V10.979H227.893L227.62 13.4194C227.775 13.3283 227.989 13.2394 228.262 13.1528C228.536 13.0617 228.848 13.0161 229.199 13.0161C229.668 13.0161 230.088 13.0936 230.457 13.2485C230.83 13.3989 231.147 13.62 231.407 13.9116C231.667 14.1987 231.865 14.5496 232.002 14.9644C232.138 15.3745 232.207 15.8371 232.207 16.3521C232.207 16.8123 232.138 17.243 232.002 17.644C231.869 18.0451 231.669 18.3983 231.4 18.7036C231.131 19.009 230.792 19.2482 230.381 19.4214C229.976 19.59 229.495 19.6743 228.939 19.6743C228.524 19.6743 228.126 19.6151 227.743 19.4966C227.365 19.3735 227.025 19.1935 226.724 18.9565C226.423 18.715 226.182 18.4188 226 18.0679C225.817 17.7124 225.713 17.3045 225.685 16.8442H227.298C227.339 17.1678 227.428 17.4435 227.565 17.6714C227.706 17.8947 227.893 18.0656 228.126 18.1841C228.358 18.3026 228.627 18.3618 228.932 18.3618C229.21 18.3618 229.45 18.314 229.65 18.2183C229.851 18.118 230.017 17.9767 230.149 17.7944C230.286 17.6076 230.386 17.3888 230.45 17.1382C230.518 16.8875 230.552 16.6095 230.552 16.3042C230.552 16.0125 230.514 15.7459 230.436 15.5044C230.363 15.2629 230.252 15.0532 230.101 14.8755C229.955 14.6978 229.771 14.561 229.548 14.4653C229.324 14.3651 229.067 14.3149 228.775 14.3149C228.383 14.3149 228.082 14.3719 227.873 14.4858C227.668 14.5998 227.476 14.741 227.298 14.9097Z" fill="#171717"/>
<defs>
<clipPath id="clip0_811_3215">
<rect width="81.57" height="30" fill="white" transform="translate(36 0.0375977)"/>
</clipPath>
</defs>
</svg>
