<svg width="209" height="71" viewBox="0 0 209 71" fill="none" xmlns="http://www.w3.org/2000/svg">
<g clip-path="url(#clip0_811_3396)">
<path d="M92.446 1.45081H0V35.4508H92.446V1.45081Z" fill="#D60C18"/>
<path d="M10.0146 11.1131C10.52 11.4349 11.1314 11.5458 11.7177 11.4221C12.2771 11.2861 12.8335 11.1316 13.3868 10.974C14.3573 10.6958 15.3217 10.396 16.2984 10.1332C16.7837 10.0034 17.272 9.87978 17.7635 9.7716C17.9861 9.73669 18.2053 9.68292 18.4188 9.61087C18.6382 9.52432 18.8329 9.38523 19.0369 9.30178C19.346 9.15651 19.6551 9.0236 19.9859 8.89378C20.9131 8.51669 22.8975 8.04996 22.406 6.62196C22.2515 6.16141 21.7879 5.95741 21.3829 5.74414C20.9554 5.55775 20.4835 5.49769 20.0229 5.57105C19.5756 5.57639 19.142 5.72599 18.7866 5.9976C18.3044 6.60032 17.5039 6.78269 16.9011 7.26487C16.6879 7.4256 16.3973 7.42869 16.184 7.59251C16.0789 7.67287 16.0449 7.74087 15.9182 7.77796C15.8076 7.79388 15.6961 7.80214 15.5844 7.80269C15.3742 7.8305 15.1671 7.85832 14.9662 7.89232C14.3673 7.97141 13.7819 8.13155 13.226 8.36832C12.9479 8.50427 12.6813 8.66242 12.4286 8.84123C12.1844 9.00505 11.9526 8.94014 11.6744 8.95869C11.3962 8.97723 11.1706 9.00505 10.9171 9.04214L10.1629 9.16887L9.78276 9.22451C9.65424 9.21543 9.52516 9.23118 9.40258 9.27087C9.3111 9.35098 9.24985 9.46003 9.22904 9.57984C9.20822 9.69964 9.22911 9.82296 9.28822 9.92923C9.50767 10.3867 9.53858 10.8349 10.0146 11.1131Z" fill="white"/>
<path d="M47.8104 10.4515C48.2648 10.331 48.6573 10.229 48.8984 9.79008C48.9726 9.65408 49.0529 9.51808 49.1209 9.37899C49.2728 9.10774 49.3457 8.79935 49.3311 8.48881C49.2136 8.24595 49.0264 8.04364 48.7933 7.90772C48.3537 7.69173 47.8818 7.54871 47.3962 7.48426C46.8337 7.36372 46.2464 7.22463 45.6777 7.15045C45.341 7.11108 44.9998 7.13732 44.6731 7.22772C44.0264 7.40025 43.3956 7.62774 42.7877 7.90772C42.0891 8.21681 41.2422 8.03136 40.59 8.4579C40.308 8.59058 40.0044 8.67121 39.6937 8.6959C39.3073 8.78554 38.9426 8.94008 38.5655 9.06372C37.9195 9.27081 37.2735 9.47172 36.6182 9.65099C36.1515 9.77772 35.6662 9.65099 35.2026 9.87354C35.0227 10.0041 34.8325 10.1199 34.6339 10.2197C34.4268 10.2908 34.2166 10.3866 34.0157 10.4577C33.2739 10.7174 32.4702 10.8966 31.7099 11.0975C30.3622 11.5612 28.857 11.3603 27.4722 11.6199C27.0704 11.7219 26.65 11.7806 26.3502 12.1021C26.2513 12.5781 26.5975 12.7604 26.9066 12.9861C27.2157 13.2117 27.4846 13.6537 27.8555 13.8886C28.1904 14.0739 28.541 14.229 28.9033 14.3523C29.7131 14.6799 30.4735 15.1095 31.3451 15.2795C31.8242 15.3723 32.8071 15.4866 33.2429 15.1961C33.756 14.853 34.334 14.615 34.8317 14.2441C35.0635 14.071 35.249 13.8454 35.4869 13.6815C35.7552 13.5341 36.0153 13.3721 36.2659 13.1963C36.5733 12.8828 36.9167 12.6068 37.2889 12.3741C37.768 12.2937 38.2162 11.7559 38.6922 12.0928C38.9209 12.1979 38.8128 12.4019 38.8251 12.609C38.8375 12.8161 38.9889 13.0664 38.9889 13.3137C38.9818 13.5526 38.9434 13.7896 38.8746 14.0184V14.4017C39.1126 18.9979 38.7139 23.3654 38.312 28.0017C38.1266 28.5735 38.3522 29.0959 38.482 29.6492C38.4999 29.869 38.5478 30.0853 38.6242 30.2921C38.8494 30.69 39.187 31.0126 39.5948 31.2194C40.4139 31.4914 41.5606 31.6274 42.2066 30.9103C42.865 30.6012 43.069 29.983 43.1648 29.3061C43.258 28.706 43.3188 28.1014 43.3471 27.4948C43.3465 27.0158 43.2736 26.5395 43.1308 26.0823C43.0751 25.8443 43.0597 25.6001 43.004 25.3621C42.9113 24.985 42.7908 24.6079 42.7259 24.2246C42.4453 22.3917 42.3048 20.54 42.3055 18.6857C42.3457 17.4494 42.0242 15.9039 41.8635 14.8344C41.5019 14.0308 42.0057 13.2272 41.6224 12.4235C41.4524 12.0248 41.5266 11.5364 41.5235 11.1161C41.5235 10.7575 41.7708 10.6246 42.0613 10.4701C42.1703 10.4115 42.2737 10.3432 42.3704 10.2661C42.4766 10.1954 42.5951 10.1451 42.7197 10.1177C42.8371 10.0775 42.9546 10.0435 43.0751 10.0126C43.9406 9.79008 44.9142 9.6479 45.7117 10.1579C45.9173 10.3178 46.1542 10.4326 46.4071 10.4948C46.8713 10.5965 47.3534 10.5816 47.8104 10.4515Z" fill="white"/>
<path d="M32.1611 27.8162C31.9841 27.6581 31.7878 27.5231 31.5769 27.4144C31.3358 27.3217 31.07 27.3062 30.8258 27.2197C30.2053 26.9783 29.6143 26.6672 29.064 26.2924C28.9467 26.1998 28.8228 26.1161 28.6931 26.0421C28.5649 26.008 28.4331 25.9893 28.3005 25.9864C28.0502 25.9339 27.9018 25.7021 27.6823 25.5877C27.5803 25.5321 27.4474 25.5135 27.3732 25.4208C27.1456 25.2265 26.8917 25.0652 26.6191 24.9417C26.3718 24.7748 26.0998 24.7222 25.8463 24.577C25.6294 24.4409 25.4228 24.289 25.2282 24.1226C24.8767 23.7671 24.4833 23.4558 24.0567 23.1953C22.5545 22.4999 21.5314 20.7566 20.4156 19.6099C19.6923 18.9484 18.7712 18.0273 18.7898 16.8806C19.0989 16.1604 19.9736 15.9193 20.6165 15.5762C21.4202 14.9766 22.5638 14.649 23.0243 13.6908C23.105 13.5159 23.1419 13.3241 23.1316 13.1318C23.1214 12.9395 23.0644 12.7526 22.9656 12.5873C22.7029 12.0433 22.0383 12.065 21.5191 11.8641C21.1964 11.8359 20.8715 11.8737 20.564 11.9753C20.0542 12.1685 19.5901 12.4653 19.2009 12.847C19.0154 13.0139 18.8516 13.2241 18.6569 13.3817C18.4471 13.5119 18.2174 13.6069 17.9769 13.663C17.8591 13.726 17.7241 13.7493 17.5921 13.7292C17.46 13.7092 17.338 13.6469 17.2443 13.5517C17.0507 13.0157 16.7732 12.5139 16.4222 12.065C16.3063 12.0039 16.1788 11.9681 16.0482 11.9599C15.9245 11.929 15.8472 11.8301 15.7391 11.7991C15.5567 11.7466 15.3187 11.8764 15.1209 11.8764C14.8783 11.8464 14.6323 11.8601 14.3945 11.9166C14.1177 12.0275 13.8807 12.2192 13.7145 12.4668C13.5291 12.7419 13.6094 12.949 13.5723 13.255C13.5507 13.4621 13.5012 13.663 13.4611 13.8731C13.4119 14.0757 13.3839 14.2829 13.3776 14.4913C13.4059 14.6807 13.4483 14.8677 13.5043 15.0508C13.52 15.3234 13.4661 15.5954 13.3477 15.8415C13.2292 16.0875 13.0502 16.2993 12.8274 16.4571C12.6267 16.628 12.4093 16.7782 12.1783 16.9053C11.9094 17.0537 11.6034 17.0908 11.3252 17.2144C11.0696 17.3378 10.8237 17.4804 10.5896 17.641C10.3516 17.7986 10.1167 17.9501 9.86634 18.0953C9.61598 18.2406 9.31616 18.2746 9.06889 18.4044C8.62689 18.6239 8.10452 18.6641 7.66252 18.8464C7.18034 18.9453 6.33961 18.7661 6.11707 19.3657C6.20009 19.9002 6.45382 20.3936 6.84034 20.7721C7.09998 21.3531 7.86343 21.5541 8.38579 21.9373C9.16779 22.197 9.95288 21.8168 10.6947 21.8755C10.976 22.9202 10.8956 24.0021 10.1723 24.7655C10.0386 25.1763 9.83697 25.5619 9.57579 25.9061C9.44645 26.072 9.30601 26.2289 9.15543 26.3759C9.01943 26.5057 8.96689 26.685 8.83089 26.821C8.68121 27.0065 8.51 27.1735 8.32089 27.3186C8.0427 27.4793 7.94379 27.2753 7.72434 27.1393C7.58702 27.0588 7.43786 27.0003 7.28234 26.9662C6.97548 26.9012 6.65748 26.9107 6.35507 26.9941C6.14107 27.0963 5.96633 27.2656 5.85743 27.4762C5.69484 27.6318 5.58649 27.8355 5.54834 28.0573C5.57389 28.1956 5.609 28.3319 5.65343 28.4653C5.71216 28.7528 5.60398 28.929 5.80179 29.1948C5.95634 29.3988 5.91307 29.4822 5.94707 29.7264C5.97173 29.839 6.02138 29.9447 6.09234 30.0355C6.2255 30.2022 6.38281 30.348 6.55907 30.4682C6.70946 30.5805 6.8749 30.671 7.05052 30.7371C7.22143 30.7661 7.39065 30.8043 7.55743 30.8515C7.85941 31.026 8.20411 31.1127 8.5527 31.1019C9.13998 31.0741 9.6407 30.8268 10.1909 30.6506C10.455 30.5881 10.7111 30.4958 10.9543 30.3755C11.1766 30.2262 11.3837 30.0554 11.5725 29.8655C11.8291 29.6399 12.0763 29.405 12.3112 29.1577C12.7354 28.7225 13.1192 28.2497 13.458 27.7451C13.6289 27.4961 13.7847 27.237 13.9247 26.9693C14.0514 26.7313 14.1102 26.4748 14.2338 26.2337C14.2925 26.1008 14.3822 25.9833 14.4378 25.8504C14.5516 25.6069 14.6456 25.3547 14.7191 25.0962C14.7718 24.8644 14.8582 24.6415 14.9756 24.4348C15.1414 24.042 15.2397 23.624 15.2662 23.1984C15.3002 23.0099 15.3712 22.8275 15.4052 22.639C15.4392 22.4504 15.4331 22.1784 15.4825 21.9528C15.5584 21.6222 15.6935 21.308 15.8812 21.0255C16.3403 21.1128 16.7472 21.3756 17.0156 21.7581C17.1726 21.9366 17.3408 22.1049 17.5194 22.2619C17.7296 22.4411 17.8687 22.6853 18.0789 22.8584C18.6971 23.3468 19.1205 24.0731 19.5625 24.713C20.1096 25.4919 20.6289 26.2893 21.1729 27.0713C21.7169 27.8533 22.1867 28.5859 22.9131 29.1391C23.4511 29.6053 24.019 30.0358 24.6131 30.4281C25.0551 30.6815 25.6269 30.6073 26.1152 30.6166C27.0079 30.6135 27.8997 30.5578 28.7858 30.4497C29.2247 30.4033 29.6667 30.357 30.1056 30.3261C30.3124 30.3322 30.5193 30.3198 30.7238 30.289C31.0947 30.2488 31.4749 30.0788 31.8427 30.0201C32.2105 29.9613 32.6587 29.8871 32.906 29.5842C33.0067 29.4624 33.0778 29.3189 33.1137 29.165C33.1496 29.0111 33.1494 28.851 33.1131 28.6971C32.9616 28.2706 32.5011 28.0573 32.1611 27.8162Z" fill="white"/>
<path d="M57.0334 24.6079C57.2059 24.6105 57.3781 24.5928 57.5465 24.5553C57.708 24.5194 57.8647 24.4644 58.0132 24.3915L58.1245 24.0144H58.0689C57.9398 24.1249 57.7922 24.2117 57.633 24.271C57.4819 24.3325 57.3202 24.364 57.157 24.3637C56.9989 24.3742 56.8405 24.3466 56.6953 24.2831C56.55 24.2196 56.4222 24.1222 56.3225 23.999C56.1118 23.6895 56.0106 23.3185 56.035 22.945C56.0126 22.5904 56.113 22.2389 56.3194 21.9497C56.4117 21.8313 56.5314 21.7371 56.6681 21.6752C56.8049 21.6133 56.9546 21.5855 57.1045 21.5943C57.3003 21.5874 57.4941 21.6356 57.6639 21.7333C57.8129 21.8175 57.9236 21.9559 57.973 22.1197H58.041C58.0512 22.0158 58.0678 21.9126 58.0905 21.8106C58.1095 21.7188 58.1332 21.628 58.1616 21.5386C57.9929 21.4647 57.8182 21.4058 57.6392 21.3624C57.4686 21.3255 57.2945 21.3068 57.1199 21.3068C56.6383 21.2814 56.1654 21.4431 55.8001 21.7581C55.6353 21.9105 55.5057 22.0971 55.4203 22.3047C55.3349 22.5124 55.2957 22.7361 55.3056 22.9604C55.2922 23.1869 55.326 23.4138 55.4047 23.6266C55.4835 23.8394 55.6055 24.0335 55.763 24.1968C56.116 24.4955 56.5724 24.6432 57.0334 24.6079Z" fill="white"/>
<path d="M60.7052 23.4271C60.7146 23.2681 60.692 23.1088 60.639 22.9586C60.5859 22.8084 60.5033 22.6703 60.3962 22.5524C60.1586 22.3578 59.8571 22.2587 59.5504 22.2742C59.2437 22.2897 58.9538 22.4187 58.737 22.6363C58.5203 22.8538 58.3922 23.1442 58.3778 23.4509C58.3634 23.7577 58.4637 24.0588 58.6591 24.2957C58.7747 24.4033 58.9111 24.4862 59.0599 24.5394C59.2087 24.5925 59.3668 24.6148 59.5245 24.6048C59.6652 24.6188 59.8072 24.6051 59.9426 24.5642C60.0779 24.5234 60.2039 24.4562 60.3132 24.3667C60.4226 24.2771 60.5132 24.1669 60.58 24.0422C60.6467 23.9176 60.6882 23.7811 60.7021 23.6404C60.7083 23.5694 60.7083 23.4981 60.7021 23.4271H60.7052ZM59.9047 24.1782C59.8703 24.2477 59.8162 24.3056 59.7491 24.3446C59.6821 24.3836 59.6051 24.4021 59.5276 24.3977C59.4509 24.4025 59.3745 24.3841 59.3084 24.345C59.2422 24.3059 59.1894 24.2478 59.1567 24.1782C59.0681 23.9383 59.0323 23.6821 59.0516 23.4271C59.0356 23.1697 59.0735 22.9118 59.1629 22.6698C59.2171 22.5708 59.3084 22.4972 59.4167 22.4653C59.5251 22.4335 59.6417 22.4459 59.7409 22.4998C59.812 22.54 59.8708 22.5988 59.9109 22.6698C59.9998 22.9108 60.0377 23.1676 60.0222 23.424C60.0374 23.6809 59.9973 23.9381 59.9047 24.1782Z" fill="white"/>
<path d="M64.5967 24.5461C64.5967 24.3916 64.5906 24.2432 64.5782 24.101V23.3963C64.5844 23.1834 64.572 22.9703 64.5411 22.7596C64.5196 22.6542 64.4729 22.5556 64.4051 22.4721C64.3425 22.3985 64.2629 22.3412 64.1733 22.3052C64.0547 22.2611 63.928 22.2426 63.8017 22.2512C63.6754 22.2597 63.5524 22.295 63.4407 22.3546C63.3124 22.4368 63.2062 22.5493 63.1317 22.6823C63.0853 22.5549 62.9985 22.4463 62.8844 22.3732C62.7646 22.2968 62.6246 22.258 62.4826 22.2619C62.3509 22.2582 62.2204 22.2868 62.1024 22.3454C61.9822 22.4157 61.8771 22.5092 61.7933 22.6205V22.3114H61.1411C61.1411 22.5648 61.1566 22.7843 61.1628 22.9697C61.1689 23.1552 61.1628 23.3066 61.1628 23.4303V23.8939C61.1628 24.0825 61.1627 24.305 61.1411 24.5523H61.8335V24.509C61.8335 24.3297 61.8149 24.1999 61.8149 24.1288V23.3777C61.8028 23.1819 61.8334 22.9857 61.9046 22.8028C61.9368 22.755 61.9803 22.7159 62.0313 22.6888C62.0822 22.6617 62.139 22.6475 62.1967 22.6475C62.2543 22.6475 62.3111 22.6617 62.3621 22.6888C62.413 22.7159 62.4565 22.755 62.4887 22.8028C62.5632 23.0532 62.5904 23.3152 62.5691 23.5756V24.0423C62.5691 24.1999 62.5537 24.3761 62.5413 24.5492H63.2398V23.3777C63.2251 23.183 63.2547 22.9875 63.3264 22.8059C63.3611 22.7562 63.4074 22.7156 63.4612 22.6875C63.515 22.6595 63.5748 22.6448 63.6355 22.6448C63.6962 22.6448 63.7559 22.6595 63.8097 22.6875C63.8636 22.7156 63.9098 22.7562 63.9446 22.8059C64.0169 23.027 64.0452 23.2601 64.028 23.4921V23.9805C64.028 24.1597 64.0126 24.3421 63.9971 24.5461H64.6153H64.5967Z" fill="white"/>
<path d="M66.569 24.5461H67.2675V23.3777C67.2528 23.183 67.2824 22.9875 67.3541 22.8059C67.3888 22.7562 67.4351 22.7156 67.4889 22.6875C67.5427 22.6595 67.6025 22.6448 67.6632 22.6448C67.7238 22.6448 67.7836 22.6595 67.8374 22.6875C67.8912 22.7156 67.9375 22.7562 67.9723 22.8059C68.0446 23.027 68.0729 23.2601 68.0557 23.4921V23.9805C68.0557 24.1597 68.0557 24.3421 68.0248 24.5461H68.7233C68.7233 24.3916 68.7172 24.2432 68.7048 24.101V23.3963C68.6892 23.1876 68.655 22.9807 68.6028 22.7781C68.5813 22.6727 68.5346 22.5741 68.4668 22.4907C68.4042 22.4171 68.3246 22.3598 68.235 22.3237C68.1163 22.2796 67.9897 22.2612 67.8634 22.2697C67.7371 22.2783 67.6141 22.3135 67.5024 22.3732C67.374 22.4553 67.2679 22.5679 67.1933 22.7008C67.147 22.5735 67.0601 22.4649 66.9461 22.3917C66.8263 22.3153 66.6863 22.2766 66.5443 22.2805C66.4126 22.2767 66.282 22.3054 66.1641 22.3639C66.0432 22.4333 65.9379 22.527 65.855 22.639V22.3299H65.1997C65.1997 22.5834 65.2183 22.8028 65.2213 22.9883C65.2244 23.1737 65.2213 23.3252 65.2213 23.4488V23.9125C65.2213 24.101 65.2213 24.3236 65.1997 24.5708H65.8797V24.5276C65.8797 24.3483 65.8643 24.2185 65.8643 24.1474V23.3777C65.8495 23.182 65.8791 22.9855 65.9508 22.8028C65.9772 22.7642 66.0109 22.7312 66.05 22.7057C66.0891 22.6801 66.1329 22.6625 66.1788 22.6539C66.2248 22.6453 66.272 22.6458 66.3177 22.6555C66.3634 22.6651 66.4068 22.6837 66.4453 22.7101C66.4821 22.7345 66.5137 22.766 66.5381 22.8028C66.6095 23.0538 66.6366 23.3153 66.6184 23.5756V24.0423C66.6184 24.1999 66.5783 24.373 66.569 24.5461Z" fill="white"/>
<path d="M71.4523 23.4272C71.4631 23.268 71.4412 23.1084 71.388 22.9579C71.3349 22.8075 71.2516 22.6696 71.1432 22.5525C70.9052 22.3641 70.6062 22.2699 70.3033 22.2878C70.0003 22.3056 69.7145 22.4343 69.5002 22.6493C69.286 22.8643 69.1583 23.1506 69.1415 23.4537C69.1248 23.7567 69.22 24.0553 69.4092 24.2927C69.6536 24.492 69.9593 24.6009 70.2747 24.6009C70.59 24.6009 70.8957 24.492 71.1401 24.2927C71.2476 24.1767 71.3306 24.0404 71.3842 23.8917C71.4379 23.743 71.461 23.585 71.4523 23.4272ZM70.6487 24.1783C70.5928 24.2774 70.4999 24.3502 70.3904 24.3809C70.2809 24.4117 70.1637 24.3977 70.0645 24.3421C69.9962 24.3032 69.9396 24.2466 69.9007 24.1783C69.8115 23.9385 69.7736 23.6826 69.7894 23.4272C69.7734 23.1698 69.8113 22.9119 69.9007 22.6699C69.9275 22.6196 69.9641 22.5752 70.0084 22.5394C70.0527 22.5035 70.1037 22.4768 70.1584 22.461C70.2132 22.4451 70.2705 22.4404 70.3271 22.4471C70.3837 22.4538 70.4384 22.4718 70.4879 22.4999C70.559 22.5401 70.6178 22.5988 70.6579 22.6699C70.7496 22.9102 70.7886 23.1674 70.7723 23.4241C70.7886 23.6808 70.7496 23.938 70.6579 24.1783H70.6487Z" fill="white"/>
<path d="M73.2113 22.7967C73.2852 23.0078 73.3136 23.2321 73.2947 23.455V24.0732C73.3004 24.2323 73.2921 24.3916 73.27 24.5492H73.9654C73.9654 24.4287 73.9469 24.3019 73.9407 24.1721C73.9345 24.0423 73.9407 23.9032 73.9407 23.7579V23.1676C73.9464 23.0143 73.935 22.8609 73.9067 22.7101C73.8888 22.6269 73.8506 22.5494 73.7954 22.4845C73.7317 22.4079 73.6499 22.3484 73.5574 22.3114C73.4416 22.2691 73.3186 22.2503 73.1955 22.2562C73.0723 22.262 72.9516 22.2923 72.8403 22.3454C72.718 22.4154 72.6125 22.5114 72.5313 22.6267V22.3176H71.8945C71.9069 22.503 71.9162 22.6885 71.9223 22.8739V23.9712C71.9223 24.1536 71.9223 24.3514 71.8945 24.5585H72.5714C72.5714 24.3143 72.5714 24.0979 72.5529 23.9125C72.5435 23.7529 72.5435 23.5929 72.5529 23.4334C72.5401 23.2302 72.5717 23.0266 72.6456 22.8368C72.6727 22.7873 72.7117 22.7453 72.7592 22.7148C72.8067 22.6843 72.8611 22.6662 72.9175 22.6622C72.9738 22.6582 73.0302 22.6684 73.0815 22.6919C73.1329 22.7154 73.1775 22.7514 73.2113 22.7967Z" fill="white"/>
<path d="M78.5955 21.3624H78.3791C78.2833 21.7581 78.1782 22.1475 78.07 22.5308C77.9619 22.9141 77.832 23.2942 77.7022 23.6713C77.56 23.2695 77.4271 22.877 77.3004 22.4937C77.1737 22.1104 77.0593 21.7333 76.948 21.3624H76.4751C76.3515 21.7272 76.2279 22.1042 76.0949 22.4875C75.962 22.8708 75.826 23.2757 75.6777 23.7022C75.5571 23.3159 75.4458 22.9264 75.3408 22.537C75.2357 22.1475 75.1368 21.755 75.0317 21.3624H74.2373C74.4289 21.9147 74.6062 22.4587 74.7689 22.9944C74.9328 23.5261 75.078 24.0515 75.214 24.5646H75.69C75.8199 24.1659 75.9497 23.7795 76.0826 23.3993C76.2155 23.0192 76.3546 22.6544 76.4937 22.2959C76.6389 22.6915 76.7749 23.081 76.9017 23.4581C77.0284 23.8352 77.1428 24.203 77.2509 24.5646H77.7362C77.9248 23.9681 78.1102 23.4055 78.2864 22.8708C78.4626 22.3361 78.6326 21.8353 78.7995 21.3624H78.5955Z" fill="white"/>
<path d="M80.0359 22.2434C79.8859 22.2356 79.736 22.2591 79.5955 22.3123C79.455 22.3655 79.3272 22.4473 79.2199 22.5525C79.1159 22.663 79.0349 22.7932 78.9819 22.9355C78.9288 23.0777 78.9046 23.2291 78.9109 23.3808C78.8915 23.7078 79.0027 24.029 79.2199 24.2741C79.3332 24.3824 79.4679 24.4659 79.6154 24.5191C79.7628 24.5723 79.9198 24.5941 80.0761 24.5832C80.2211 24.5833 80.3656 24.5646 80.5058 24.5275C80.629 24.4942 80.7459 24.441 80.8519 24.3699L80.9539 24.1041L80.9107 24.0701C80.8234 24.141 80.7253 24.1974 80.6201 24.237C80.5213 24.2739 80.4166 24.2928 80.311 24.2926C80.212 24.2959 80.1135 24.2761 80.0234 24.2348C79.9332 24.1935 79.854 24.1318 79.7918 24.0546C79.6531 23.87 79.5842 23.6423 79.597 23.4117H81.0343V23.2634C81.0448 23.1245 81.0276 22.9849 80.9835 22.8527C80.9395 22.7206 80.8695 22.5985 80.7778 22.4937C80.6778 22.4036 80.5603 22.3348 80.4328 22.2918C80.3052 22.2487 80.1701 22.2322 80.0359 22.2434ZM80.379 23.1366V23.2015H79.5847V23.1583C79.573 22.9749 79.6126 22.7919 79.699 22.6297C79.7288 22.5736 79.7733 22.5267 79.8278 22.494C79.8823 22.4614 79.9446 22.4442 80.0081 22.4443C80.0646 22.4439 80.12 22.4589 80.1685 22.4878C80.217 22.5167 80.2567 22.5583 80.2832 22.6081C80.3548 22.7572 80.3878 22.922 80.379 23.0872C80.3806 23.1036 80.3806 23.1202 80.379 23.1366Z" fill="white"/>
<path d="M83.2446 24.2864C83.1879 24.1726 83.1654 24.0449 83.1797 23.9186V23.829L83.1951 23.013V22.9882C83.201 22.8846 83.1839 22.7809 83.1448 22.6847C83.1058 22.5885 83.0459 22.5021 82.9695 22.4319C82.7839 22.2903 82.5532 22.2211 82.3204 22.2371C82.1746 22.2373 82.0304 22.2678 81.8969 22.3268C81.7467 22.3943 81.608 22.4851 81.4859 22.5957C81.5013 22.6359 81.5168 22.676 81.5291 22.7193C81.5435 22.7797 81.5631 22.8386 81.5879 22.8955C81.6492 22.7905 81.7299 22.6982 81.8259 22.6235C81.9114 22.565 82.0127 22.5337 82.1164 22.5339C82.1738 22.5333 82.2307 22.5442 82.2838 22.566C82.3369 22.5877 82.385 22.6199 82.4255 22.6606C82.4668 22.7061 82.4987 22.7592 82.5193 22.817C82.54 22.8748 82.5491 22.9362 82.546 22.9975V23.0871C82.3883 23.178 82.2187 23.2466 82.0422 23.2911L81.8042 23.3653C81.6618 23.4058 81.5334 23.485 81.4333 23.594C81.3498 23.6947 81.3049 23.8218 81.3066 23.9526C81.302 24.0392 81.3147 24.1259 81.3438 24.2076C81.373 24.2894 81.4181 24.3645 81.4766 24.4286C81.5375 24.4884 81.6102 24.5349 81.69 24.5652C81.7698 24.5955 81.855 24.609 81.9402 24.6048C82.0689 24.6071 82.1959 24.5751 82.308 24.512C82.4186 24.4513 82.5106 24.3616 82.5739 24.2524C82.5914 24.3503 82.6428 24.439 82.7191 24.5028C82.7976 24.5634 82.8952 24.5941 82.9942 24.5893C83.0774 24.5894 83.1604 24.5801 83.2415 24.5615C83.3265 24.5447 83.4094 24.5188 83.4888 24.4842V24.3699H83.4702C83.4288 24.3729 83.3873 24.367 83.3484 24.3526C83.3094 24.3382 83.2741 24.3156 83.2446 24.2864ZM82.5677 23.8568C82.5747 23.971 82.5455 24.0846 82.4842 24.1813C82.4564 24.2176 82.4203 24.2467 82.3788 24.2661C82.3374 24.2855 82.2919 24.2946 82.2462 24.2926C82.2043 24.2953 82.1624 24.2877 82.1242 24.2705C82.0859 24.2532 82.0525 24.2269 82.0268 24.1937C81.9739 24.0996 81.9492 23.9923 81.9557 23.8846C81.9514 23.8153 81.9618 23.7458 81.9863 23.6808C82.0108 23.6158 82.0489 23.5567 82.0979 23.5075C82.2337 23.3998 82.3959 23.3304 82.5677 23.3066V23.8568Z" fill="white"/>
<path d="M84.521 21.0286C84.4566 21.0328 84.3926 21.0411 84.3293 21.0533H84.0202C83.9553 21.0533 83.8935 21.0533 83.8286 21.0286C83.8286 21.2851 83.8472 21.554 83.8533 21.8446C83.8595 22.1351 83.8533 22.4627 83.8533 22.7966V23.7238C83.8533 24.0144 83.8379 24.2864 83.8286 24.5491C83.8849 24.5389 83.9416 24.5316 83.9986 24.5275C84.1188 24.5151 84.24 24.5151 84.3602 24.5275C84.4162 24.5316 84.472 24.5389 84.5272 24.5491C84.5272 24.2957 84.5055 24.0237 84.4993 23.7362C84.4932 23.4487 84.4993 23.118 84.4993 22.7811V21.8507C84.4932 21.5417 84.5086 21.2944 84.521 21.0286Z" fill="white"/>
<path d="M86.029 24.3513C85.9855 24.3553 85.9418 24.3447 85.9049 24.3212C85.868 24.2977 85.8399 24.2627 85.825 24.2215C85.7783 24.0022 85.7606 23.7778 85.7725 23.5539V23.3653C85.7725 23.2293 85.7725 22.9975 85.7879 22.673V22.5648H86.2516C86.2485 22.5298 86.2485 22.4947 86.2516 22.4597V22.3361H85.7972V21.9157C85.7949 21.766 85.8022 21.6163 85.8189 21.4675L85.7663 21.4304C85.6674 21.4799 85.5654 21.5262 85.4572 21.5726L85.1481 21.7024C85.1445 21.7882 85.1496 21.8742 85.1636 21.959C85.1713 22.0236 85.1713 22.089 85.1636 22.1537V22.333H84.8545V22.3793C84.8577 22.405 84.8577 22.4309 84.8545 22.4566V22.5771H85.1636V23.9928C85.1569 24.0767 85.1674 24.1612 85.1945 24.2409C85.2216 24.3206 85.2647 24.394 85.3212 24.4564C85.3827 24.5127 85.4549 24.5559 85.5335 24.5835C85.6121 24.6111 85.6955 24.6226 85.7787 24.6171C85.8641 24.6177 85.9493 24.6073 86.0321 24.5862C86.13 24.5616 86.2253 24.5274 86.3165 24.4842V24.3235C86.2221 24.3442 86.1256 24.3536 86.029 24.3513Z" fill="white"/>
<path d="M88.6627 24.1998V23.1675C88.6669 23.0163 88.6555 22.8651 88.6287 22.7162C88.6074 22.6311 88.5672 22.5519 88.5112 22.4844C88.4475 22.4078 88.3657 22.3483 88.2733 22.3113C88.1744 22.2744 88.0697 22.2555 87.9642 22.2557C87.8203 22.2528 87.678 22.2857 87.55 22.3515C87.4245 22.4226 87.3183 22.5234 87.2409 22.6451V21.4427C87.2449 21.3041 87.2573 21.1657 87.278 21.0286L87.1018 21.0564H86.7742L86.5918 21.0286C86.5918 21.2264 86.6165 21.4613 86.6227 21.7333C86.6289 22.0053 86.6227 22.3886 86.6227 22.8769V23.934C86.6227 24.1782 86.6073 24.3822 86.5918 24.5522H87.2749C87.2791 24.3459 87.2719 24.1395 87.2532 23.934C87.2424 23.7652 87.2424 23.5959 87.2532 23.4271C87.2404 23.2239 87.2721 23.0203 87.346 22.8306C87.3762 22.7792 87.4188 22.7362 87.4698 22.7055C87.5209 22.6747 87.5788 22.6572 87.6383 22.6544C87.6978 22.6517 87.7571 22.6638 87.8107 22.6897C87.8644 22.7156 87.9107 22.7544 87.9456 22.8027C88.017 23.0144 88.0444 23.2385 88.026 23.4611V24.0793C88.0316 24.2384 88.0233 24.3976 88.0013 24.5553H88.6936C88.6768 24.4375 88.6665 24.3188 88.6627 24.1998Z" fill="white"/>
<path d="M59.1015 28.8177L58.8326 26.5737H58.4029C58.2299 26.9601 58.0568 27.3341 57.8775 27.6988C57.6982 28.0635 57.519 28.419 57.3335 28.7683C57.1419 28.4066 56.9533 28.045 56.774 27.6834C56.5948 27.3217 56.4155 26.9477 56.2486 26.5737H55.8406L55.5315 28.7899C55.5195 28.9134 55.501 29.0362 55.4759 29.1577C55.448 29.3308 55.414 29.5379 55.377 29.7759L55.4759 29.7574H55.652L55.754 29.7759C55.754 29.4205 55.7942 29.0619 55.8406 28.7095V28.6725L55.955 27.6988C56.1219 28.0079 56.2919 28.3386 56.468 28.6848C56.6442 29.031 56.8173 29.3957 56.9997 29.7759H57.1975C57.3799 29.3895 57.5591 29.0155 57.7353 28.6601C57.9115 28.3046 58.0846 27.9585 58.2608 27.6215L58.4122 29.1175C58.4122 29.1979 58.4339 29.3988 58.4462 29.7357V29.7821L58.6471 29.7635H59.018L59.2313 29.779C59.2066 29.6677 59.1819 29.5441 59.1602 29.4019C59.1386 29.2597 59.1293 29.065 59.1015 28.8177Z" fill="white"/>
<path d="M61.5248 29.5193C61.4695 29.4051 61.4471 29.2777 61.4598 29.1515V29.0619L61.4753 28.2459V28.2211C61.4812 28.1175 61.464 28.0138 61.425 27.9176C61.386 27.8214 61.3261 27.735 61.2497 27.6648C61.0641 27.5232 60.8334 27.454 60.6006 27.47C60.4547 27.4702 60.3105 27.5007 60.1771 27.5597C60.0269 27.6272 59.8881 27.718 59.766 27.8286C59.7815 27.8657 59.7969 27.9059 59.8124 27.9522C59.8279 27.9986 59.8464 28.0542 59.868 28.1284C59.9269 28.0208 60.0093 27.9278 60.1091 27.8564C60.1928 27.7964 60.2936 27.765 60.3966 27.7668C60.4537 27.766 60.5104 27.7765 60.5635 27.7977C60.6165 27.8189 60.6649 27.8504 60.7057 27.8904C60.7889 27.9835 60.8322 28.1056 60.8262 28.2304V28.3108C60.6694 28.4006 60.5009 28.4682 60.3255 28.5117L60.0875 28.589C59.9445 28.6301 59.8153 28.7091 59.7135 28.8177C59.6298 28.9203 59.5869 29.0501 59.5929 29.1824C59.5878 29.2696 59.6001 29.3569 59.6293 29.4392C59.6585 29.5215 59.704 29.5971 59.7629 29.6615C59.8239 29.7213 59.8965 29.7678 59.9763 29.7981C60.0561 29.8284 60.1413 29.8419 60.2266 29.8377C60.3562 29.8397 60.4841 29.8077 60.5975 29.745C60.7067 29.6821 60.7974 29.5915 60.8602 29.4822C60.8741 29.582 60.9258 29.6726 61.0046 29.7353C61.0834 29.798 61.1833 29.828 61.2837 29.8191C61.3657 29.8187 61.4474 29.8104 61.5278 29.7944C61.6124 29.7762 61.6952 29.7503 61.7751 29.7171V29.5997H61.7597C61.717 29.6047 61.6737 29.6001 61.6331 29.5862C61.5924 29.5723 61.5554 29.5494 61.5248 29.5193ZM60.8478 29.0897C60.8515 29.1987 60.8224 29.3064 60.7644 29.3988C60.7366 29.4351 60.7004 29.4642 60.659 29.4835C60.6176 29.5029 60.5721 29.512 60.5264 29.51C60.4847 29.5124 60.443 29.5044 60.4052 29.4866C60.3675 29.4687 60.3347 29.4417 60.31 29.408C60.2534 29.3154 60.2275 29.2072 60.2359 29.099C60.2316 29.0301 60.2421 28.9611 60.2666 28.8966C60.2911 28.8321 60.3291 28.7736 60.378 28.725C60.5139 28.6172 60.6761 28.5478 60.8478 28.524V29.0897Z" fill="white"/>
<path d="M63.9263 29.5193C63.7497 29.457 63.5634 29.4267 63.3761 29.4297H63.2927C62.8476 29.4297 62.6281 29.3339 62.6281 29.1917C62.6256 29.1348 62.6456 29.0792 62.6838 29.037C62.722 28.9947 62.7753 28.9692 62.8321 28.966H62.9125C63.1871 28.9817 63.4597 28.9103 63.6914 28.762C63.7814 28.6979 63.854 28.6122 63.9026 28.5129C63.9512 28.4136 63.9742 28.3038 63.9696 28.1933C63.9724 28.0959 63.9512 27.9993 63.9078 27.912C63.8648 27.8316 63.8021 27.7635 63.7254 27.7142H64.1891V27.4855H63.7687C63.6005 27.4879 63.4324 27.4817 63.2649 27.4669L62.9558 27.4484C62.704 27.4336 62.4548 27.5069 62.251 27.6555C62.1671 27.7194 62.0996 27.8024 62.0539 27.8975C62.0083 27.9926 61.9858 28.0971 61.9883 28.2026C61.9833 28.2838 61.9944 28.3652 62.0209 28.4421C62.0474 28.519 62.0889 28.5899 62.1429 28.6508C62.2654 28.7744 62.4249 28.8547 62.5972 28.8795V28.9599C62.4655 29.0112 62.3464 29.0903 62.248 29.1917C62.2084 29.2326 62.1773 29.281 62.1566 29.3341C62.1359 29.3872 62.126 29.4438 62.1274 29.5008C62.1244 29.5848 62.1518 29.6671 62.2047 29.7326C62.2628 29.8007 62.3405 29.8493 62.4272 29.8717V29.9088C62.2901 29.95 62.1664 30.0267 62.0687 30.1313C61.9873 30.2278 61.9454 30.3514 61.9512 30.4775C61.9506 30.5681 61.9748 30.6572 62.0211 30.735C62.0674 30.8129 62.1341 30.8767 62.214 30.9195C62.4385 31.0399 62.6921 31.0955 62.9465 31.0802C63.2778 31.0961 63.6047 30.9991 63.8738 30.8051C63.9862 30.7248 64.0776 30.6185 64.14 30.4953C64.2024 30.372 64.2341 30.2355 64.2323 30.0973C64.2347 29.9823 64.2081 29.8686 64.155 29.7666C64.1076 29.6615 64.0274 29.5748 63.9263 29.5193ZM62.7178 27.8069C62.7438 27.7617 62.7808 27.7237 62.8254 27.6967C62.8701 27.6696 62.9208 27.6543 62.973 27.6521C63.0251 27.6499 63.077 27.661 63.1237 27.6843C63.1704 27.7076 63.2105 27.7423 63.2401 27.7853C63.3044 27.9012 63.3334 28.0333 63.3236 28.1655C63.3347 28.3266 63.306 28.4879 63.2401 28.6353C63.1888 28.706 63.1115 28.7535 63.0252 28.7674C62.9389 28.7813 62.8506 28.7605 62.7796 28.7095C62.7519 28.688 62.7269 28.663 62.7054 28.6353C62.6409 28.5039 62.6122 28.3579 62.622 28.2119C62.613 28.0704 62.6463 27.9294 62.7178 27.8069ZM63.475 30.7309C63.3262 30.8267 63.151 30.8732 62.9743 30.8639C62.8168 30.8724 62.662 30.8204 62.5416 30.7186C62.4878 30.67 62.4453 30.6102 62.417 30.5435C62.3887 30.4768 62.3753 30.4047 62.3778 30.3322C62.3758 30.2453 62.3983 30.1597 62.4427 30.0849C62.4846 30.0121 62.5469 29.953 62.622 29.9149L63.1629 29.9428C63.297 29.9403 63.4282 29.9815 63.5369 30.0602C63.5781 30.0998 63.61 30.1481 63.6303 30.2016C63.6506 30.255 63.6588 30.3123 63.6543 30.3693C63.6575 30.4398 63.6427 30.51 63.6113 30.5732C63.58 30.6365 63.5331 30.6908 63.475 30.7309Z" fill="white"/>
<path d="M66.2905 29.5194C66.2353 29.4052 66.2128 29.2778 66.2256 29.1516V28.2243C66.2315 28.1207 66.2143 28.017 66.1753 27.9208C66.1363 27.8246 66.0764 27.7382 66 27.6679C65.8144 27.5264 65.5837 27.4572 65.3509 27.4732C65.2051 27.4734 65.0609 27.5039 64.9275 27.5629C64.7772 27.6304 64.6385 27.7212 64.5164 27.8318C64.5164 27.8689 64.5473 27.909 64.5627 27.9554C64.5782 28.0018 64.5967 28.0574 64.6184 28.1316C64.6773 28.0239 64.7597 27.931 64.8595 27.8596C64.9431 27.7996 65.0439 27.7682 65.1469 27.7699C65.204 27.7691 65.2608 27.7796 65.3138 27.8009C65.3669 27.8221 65.4152 27.8536 65.456 27.8936C65.5401 27.9864 65.5844 28.1084 65.5796 28.2336V28.283C65.5827 28.2931 65.5827 28.3039 65.5796 28.3139C65.4228 28.4038 65.2543 28.4714 65.0789 28.5149L64.8409 28.5921C64.6979 28.6333 64.5687 28.7123 64.4669 28.8209C64.3832 28.9234 64.3403 29.0533 64.3464 29.1856C64.3412 29.2728 64.3536 29.3601 64.3828 29.4424C64.412 29.5247 64.4574 29.6003 64.5164 29.6647C64.5773 29.7245 64.6499 29.771 64.7297 29.8013C64.8095 29.8316 64.8947 29.8451 64.98 29.8409C65.1096 29.8429 65.2375 29.8109 65.3509 29.7481C65.4601 29.6853 65.5508 29.5946 65.6136 29.4854C65.6275 29.5852 65.6792 29.6758 65.758 29.7385C65.8369 29.8012 65.9368 29.8312 66.0371 29.8223C66.1191 29.8219 66.2009 29.8136 66.2813 29.7976C66.3659 29.7794 66.4486 29.7535 66.5285 29.7203V29.6029C66.4852 29.6065 66.4417 29.6009 66.4006 29.5865C66.3596 29.5721 66.3221 29.5493 66.2905 29.5194ZM65.6167 29.0898C65.6187 29.1986 65.5898 29.3058 65.5333 29.3989C65.5039 29.4341 65.467 29.4624 65.4253 29.4817C65.3836 29.5009 65.3381 29.5107 65.2922 29.5101C65.2505 29.5125 65.2088 29.5045 65.171 29.4866C65.1332 29.4688 65.1005 29.4418 65.0758 29.4081C65.0192 29.3155 64.9932 29.2073 65.0016 29.099C64.9986 29.03 65.0099 28.9611 65.0349 28.8967C65.0599 28.8324 65.0981 28.7739 65.1469 28.725C65.2816 28.6154 65.4444 28.5458 65.6167 28.5241V29.0898Z" fill="white"/>
<path d="M67.7559 27.5535H66.8287C66.8318 27.5699 66.8318 27.5867 66.8287 27.603C66.8318 27.6297 66.8318 27.6567 66.8287 27.6834C66.8319 27.709 66.8319 27.735 66.8287 27.7606V27.8101H66.8812C67.1553 27.7977 67.3562 27.7915 67.4839 27.7915H67.8703L67.4314 28.4623C67.0605 29.031 66.7885 29.4452 66.6123 29.6986V29.7728L67.0883 29.7543H68.2041L68.6492 29.7728V29.4884C68.5194 29.4884 68.3865 29.507 68.2505 29.5101C68.1145 29.5132 67.9754 29.5101 67.8332 29.5101H67.4221L68.2134 28.2737L68.6708 27.5721V27.5381H68.2474L67.7559 27.5535Z" fill="white"/>
<path d="M69.7589 27.5381H69.0635C69.0635 27.739 69.082 27.9337 69.0882 28.1161C69.0944 28.2984 69.0882 28.4808 69.0882 28.6601V29.1546C69.0914 29.361 69.0832 29.5674 69.0635 29.7728L69.2428 29.7543H69.5828L69.7589 29.7728C69.7589 29.5348 69.7404 29.3277 69.7342 29.1546C69.728 28.9815 69.7342 28.8115 69.7342 28.657V28.113C69.7342 27.9275 69.7466 27.739 69.7589 27.5381Z" fill="white"/>
<path d="M69.4155 26.3357C69.3214 26.3323 69.2298 26.3661 69.1604 26.4297C69.091 26.4933 69.0494 26.5817 69.0446 26.6757C69.0431 26.7277 69.0529 26.7795 69.0732 26.8275C69.0934 26.8755 69.1237 26.9186 69.162 26.9539C69.1943 26.9874 69.2333 27.0138 69.2764 27.0313C69.3195 27.0489 69.3658 27.0573 69.4124 27.0559C69.4593 27.061 69.5068 27.0568 69.5521 27.0434C69.5974 27.03 69.6396 27.0078 69.6762 26.9779C69.7128 26.948 69.743 26.9111 69.7652 26.8694C69.7874 26.8277 69.801 26.782 69.8053 26.735C69.8096 26.688 69.8045 26.6406 69.7903 26.5955C69.7761 26.5505 69.753 26.5087 69.7225 26.4727C69.692 26.4367 69.6545 26.4071 69.6124 26.3857C69.5703 26.3643 69.5244 26.3515 69.4773 26.348H69.4124L69.4155 26.3357Z" fill="white"/>
<path d="M72.4016 28.9877V28.4005C72.4074 28.2462 72.396 28.0917 72.3676 27.9399C72.3497 27.8567 72.3115 27.7792 72.2564 27.7143C72.1905 27.6394 72.1079 27.5812 72.0153 27.5443C71.917 27.5049 71.812 27.485 71.7062 27.4856C71.5667 27.4835 71.4288 27.5153 71.3044 27.5783C71.182 27.6483 71.0765 27.7443 70.9953 27.8596V27.5505H70.3369C70.3493 27.7339 70.3586 27.9193 70.3647 28.1068C70.3709 28.2944 70.3709 28.4829 70.3647 28.6725V29.2041C70.3689 29.4003 70.3596 29.5965 70.3369 29.7914L70.5162 29.7728H70.8253L70.9984 29.7914C70.9984 29.5482 70.9922 29.3319 70.9798 29.1423V28.6508C70.9671 28.4486 70.9988 28.2461 71.0726 28.0574C71.0996 27.9998 71.1439 27.9519 71.1992 27.9204C71.2545 27.8888 71.3182 27.8752 71.3816 27.8812C71.4421 27.8727 71.5036 27.8822 71.5586 27.9086C71.6136 27.935 71.6596 27.9771 71.6907 28.0296C71.7621 28.2412 71.7895 28.4653 71.7711 28.6879V29.3061C71.7767 29.4652 71.7685 29.6245 71.7464 29.7821L71.9287 29.7636H72.2564L72.4418 29.7821C72.4418 29.6616 72.4233 29.5348 72.4171 29.405C72.4109 29.2752 72.4016 29.133 72.4016 28.9877Z" fill="white"/>
<path d="M73.9931 27.4763C73.8427 27.4686 73.6923 27.4922 73.5513 27.5453C73.4104 27.5985 73.2819 27.6803 73.174 27.7854C73.0694 27.8955 72.9881 28.0257 72.935 28.168C72.8819 28.3104 72.858 28.462 72.865 28.6137C72.8456 28.9407 72.9568 29.262 73.174 29.507C73.288 29.6153 73.4233 29.6986 73.5712 29.7518C73.7191 29.8051 73.8765 29.8269 74.0333 29.8161C74.1783 29.8163 74.3228 29.7976 74.463 29.7605C74.5862 29.7271 74.7031 29.6739 74.8091 29.6028L74.9111 29.337L74.8648 29.303C74.7786 29.3739 74.6815 29.4302 74.5773 29.4699C74.4785 29.5068 74.3738 29.5257 74.2682 29.5256C74.1684 29.5287 74.0692 29.5086 73.9786 29.4667C73.8879 29.4249 73.8082 29.3625 73.7459 29.2845C73.6097 29.0987 73.542 28.8716 73.5542 28.6416H74.9884C74.9915 28.6231 74.9915 28.6043 74.9884 28.5859C74.9915 28.5551 74.9915 28.524 74.9884 28.4932C75.0071 28.2124 74.9138 27.9356 74.7288 27.7236C74.6301 27.6335 74.5137 27.565 74.387 27.5224C74.2604 27.4798 74.1262 27.4641 73.9931 27.4763ZM74.3486 28.3696V28.4314H73.5542V28.3912C73.5443 28.2083 73.5827 28.026 73.6655 27.8627C73.6958 27.807 73.7404 27.7604 73.7948 27.7278C73.8491 27.6952 73.9112 27.6777 73.9746 27.6772C74.0302 27.677 74.0848 27.6919 74.1327 27.7202C74.1806 27.7485 74.2199 27.7891 74.2466 27.8379C74.3172 27.9884 74.349 28.1542 74.3393 28.3201L74.3486 28.3696Z" fill="white"/>
<path d="M56.7211 11.3417C56.9457 11.6946 57.152 12.0588 57.3393 12.4328L57.9575 11.8363C57.6453 11.4842 57.2901 11.1726 56.9004 10.909C57.031 10.6098 57.1345 10.2995 57.2095 9.98172L56.3162 9.79626C56.1298 10.8822 55.7576 11.9278 55.2158 12.8872L55.5249 13.1406C56.0059 12.6 56.4086 11.9944 56.7211 11.3417Z" fill="white"/>
<path d="M63.6479 9.7066C63.3693 9.03481 62.9899 8.40944 62.5228 7.85205L62.1704 8.02823C62.4055 8.6897 62.5966 9.36604 62.7422 10.0528L63.6479 9.7066Z" fill="white"/>
<path d="M60.1552 9.19968H58.1956L58.6376 8.5815C58.0739 8.2135 57.4567 7.9351 56.8077 7.75623L56.6563 8.09623C57.083 8.43596 57.4867 8.80355 57.8648 9.19659H55.4106V9.69114H60.1552V9.19968Z" fill="white"/>
<path d="M57.4043 15.3104V18.1942H58.3501V15.1033C58.7426 15.5482 59.1099 16.0146 59.4505 16.5004L60.1027 15.774C59.5669 15.3077 58.9788 14.9053 58.3501 14.5748V14.1668H60.1768V13.6691H58.3501V12.6337H58.1647C58.4389 12.261 58.678 11.8637 58.8787 11.4468C59.1136 11.7771 59.3203 12.1266 59.4968 12.4915L60.013 12.0186C59.914 12.2968 59.7994 12.5692 59.6699 12.8346L59.979 13.0633C60.1459 12.8439 60.2881 12.6028 60.4519 12.3586V18.1417H61.4194V17.2917H65.1285V16.7848H63.4439V14.8808H64.7205V14.3862H63.4439V12.6677H64.7112V12.1731H63.4439V10.6988H64.9894V10.2011H61.3668C61.5678 9.51531 61.7003 8.81126 61.7625 8.09931L60.761 7.90149C60.5972 9.50876 60.4519 10.6988 60.0779 11.8208C59.787 11.5023 59.4543 11.2246 59.0888 10.9955C59.221 10.6862 59.3244 10.3655 59.3979 10.0373L58.5047 9.81785C58.4165 10.7987 58.1439 11.7541 57.701 12.6337H57.4167V13.6691H55.3427V14.1668H57.1601C56.6689 15.2759 55.9701 16.281 55.1016 17.1279L55.3334 17.4369C56.1393 16.8507 56.8396 16.1316 57.4043 15.3104ZM61.3885 10.6988H62.4517V12.1731H61.3823L61.3885 10.6988ZM61.3885 12.6677H62.4517V14.3862H61.3823L61.3885 12.6677ZM61.3885 14.8808H62.4517V16.7848H61.3823L61.3885 14.8808Z" fill="white"/>
<path d="M75.4338 13.9133C74.8452 13.4132 74.1846 13.0047 73.4742 12.7017L73.2764 13.0108C73.8085 13.5258 74.312 14.0696 74.7847 14.6397L75.4338 13.9133Z" fill="white"/>
<path d="M73.6564 12.1732H71.6195V12.6678H76.8153V12.1732H74.6455V10.2692H76.9575V9.77158H74.6455V7.92322H73.6564V9.77158H71.3877V10.2692H73.6564V12.1732Z" fill="white"/>
<path d="M77.3564 16.2346C76.9851 15.4354 76.4826 14.704 75.8696 14.0709L75.5605 14.278C75.9307 15.0494 76.2407 15.8482 76.4878 16.6673L77.3564 16.2346Z" fill="white"/>
<path d="M72.6519 16.5963C72.6519 17.7863 72.8713 17.9069 74.4817 17.9069C76.1971 17.9069 76.1106 17.2021 75.6037 15.397H75.208C75.208 16.8621 75.208 17.0043 74.4137 17.0043C73.7213 17.0043 73.6224 16.8621 73.6224 16.4201V13.7249H72.6519V16.5963Z" fill="white"/>
<path d="M71.1561 9.77149H69.5611L70.133 9.33258C69.6433 8.75148 69.0729 8.24354 68.4391 7.82422L68.1641 8.09931C68.4175 8.46095 68.8255 9.14404 69.1871 9.77149H67.4902V10.2691H71.1561V9.77149Z" fill="white"/>
<path d="M69.9687 17.9748H70.797V16.6426L71.5358 17.1928C72.0427 16.5221 72.2961 15.5515 72.361 14.3862L71.9747 14.309C71.8265 15.1555 71.4143 15.9334 70.797 16.5313V14.3677H67.8359V18.1417H68.6952V17.3381H69.9625L69.9687 17.9748ZM69.9687 16.8404H68.7138V14.8375H69.9687V16.8404Z" fill="white"/>
<path d="M70.9026 12.8223H67.8086V13.2859H70.9026V12.8223Z" fill="white"/>
<path d="M70.9026 11.3015H67.8086V11.7652H70.9026V11.3015Z" fill="white"/>
<path d="M51.272 17.4896L51.1761 17.4401C51.033 17.3379 50.8771 17.2548 50.7125 17.1928C50.456 17.1279 50.184 17.1588 49.9274 17.1032C49.5658 17.0259 49.2072 16.9363 48.8425 16.8807C48.3863 16.7939 47.9164 16.8098 47.4671 16.927C47.2479 16.9776 47.0455 17.0841 46.8798 17.2361C46.7882 17.3711 46.7338 17.5278 46.7221 17.6905C46.685 17.8454 46.6663 18.0041 46.6665 18.1634C46.6877 18.7581 46.8646 19.3368 47.1796 19.8418C47.3384 20.1145 47.5204 20.373 47.7236 20.6145C47.9096 20.8617 48.1255 21.085 48.3665 21.279C48.5866 21.4035 48.7741 21.5782 48.9136 21.789C49.0187 21.959 49.028 22.0085 49.2227 22.0981C49.5579 22.1963 49.9058 22.2442 50.255 22.2403C50.7161 22.2709 51.1792 22.2439 51.6336 22.1599C51.9705 22.1012 52.0323 21.8508 52.3074 21.7025C52.5825 21.5541 52.6907 21.5294 52.8081 21.2481C53.3398 19.9808 52.6845 18.9021 51.9087 17.9872C51.7257 17.7869 51.5105 17.6187 51.272 17.4896Z" fill="white"/>
</g>
<path d="M104.013 25.4316C104.245 25.4301 104.47 25.5128 104.646 25.6645C104.821 25.8161 104.936 26.0263 104.969 26.2561V26.3369H105.477V26.2191C105.435 25.8643 105.259 25.5387 104.986 25.3082C104.713 25.0777 104.363 24.9594 104.006 24.9772C103.808 24.9753 103.61 25.0126 103.426 25.0871C103.242 25.1616 103.074 25.2718 102.933 25.4114C102.529 25.8085 102.529 26.2191 102.529 27.1009C102.529 27.9826 102.529 28.3932 102.926 28.7836C103.212 29.0648 103.598 29.222 104 29.2211C104.357 29.2408 104.709 29.1238 104.983 28.8938C105.257 28.6638 105.434 28.338 105.477 27.9826V27.8749H104.992V27.949C104.963 28.1264 104.886 28.2924 104.769 28.4291C104.653 28.5657 104.501 28.6677 104.33 28.7239C104.159 28.7801 103.976 28.7884 103.801 28.7479C103.626 28.7074 103.465 28.6197 103.337 28.4942C103.074 28.235 103.057 27.9422 103.057 27.1042C103.057 26.2662 103.057 25.9801 103.337 25.721C103.515 25.5391 103.758 25.435 104.013 25.4316Z" fill="#595757"/>
<path d="M106.719 26.2628C106.567 26.2607 106.416 26.2894 106.276 26.3472C106.135 26.4051 106.008 26.4908 105.901 26.5993C105.664 26.9387 105.537 27.3429 105.537 27.7571C105.537 28.1713 105.664 28.5754 105.901 28.9148C106.009 29.0233 106.138 29.109 106.28 29.1668C106.421 29.2247 106.573 29.2534 106.726 29.2513C106.879 29.2535 107.03 29.2248 107.171 29.167C107.312 29.1092 107.44 29.0234 107.547 28.9148C107.682 28.7551 107.784 28.5703 107.847 28.371C107.91 28.1717 107.933 27.9619 107.914 27.7537C107.932 27.5466 107.909 27.3379 107.846 27.1398C107.783 26.9416 107.682 26.7579 107.547 26.5993C107.44 26.4894 107.311 26.4029 107.168 26.345C107.026 26.2871 106.873 26.2591 106.719 26.2628ZM107.453 27.7335C107.489 28.0295 107.414 28.3284 107.241 28.5715C107.106 28.6933 106.93 28.7607 106.748 28.7607C106.566 28.7607 106.39 28.6933 106.255 28.5715C106.081 28.3291 106.005 28.0296 106.043 27.7335C106.006 27.4375 106.082 27.1386 106.255 26.8955C106.387 26.7678 106.564 26.6964 106.748 26.6964C106.932 26.6964 107.109 26.7678 107.241 26.8955C107.41 27.1447 107.476 27.4503 107.423 27.747L107.453 27.7335Z" fill="#595757"/>
<path d="M111.067 26.2627C110.893 26.2596 110.72 26.2955 110.561 26.3676C110.402 26.4398 110.261 26.5465 110.149 26.68C110.049 26.5426 109.917 26.4324 109.764 26.3594C109.612 26.2865 109.443 26.2532 109.274 26.2627C109.01 26.2529 108.751 26.3337 108.54 26.4915V26.2997H108.092V29.2378H108.57V27.4002C108.541 27.2374 108.577 27.0695 108.671 26.9332C108.765 26.797 108.909 26.7035 109.072 26.6733C109.128 26.6665 109.184 26.6665 109.24 26.6733C109.664 26.6733 109.886 26.9156 109.886 27.4069V29.1873H110.364V27.4002C110.356 27.3184 110.364 27.2357 110.388 27.1572C110.413 27.0786 110.452 27.0058 110.506 26.943C110.559 26.8801 110.624 26.8287 110.697 26.7916C110.771 26.7545 110.851 26.7326 110.933 26.7271H111.03C111.465 26.7271 111.687 26.9694 111.687 27.4608V29.2546H112.154V27.4002C112.163 27.2496 112.14 27.099 112.087 26.9577C112.034 26.8164 111.953 26.6875 111.848 26.579C111.639 26.3764 111.359 26.2629 111.067 26.2627Z" fill="#595757"/>
<path d="M115.44 26.2628C115.266 26.26 115.094 26.296 114.936 26.3682C114.779 26.4405 114.639 26.547 114.528 26.6801C114.428 26.5444 114.296 26.4353 114.144 26.3625C113.992 26.2897 113.824 26.2555 113.656 26.2628C113.391 26.2526 113.131 26.3333 112.919 26.4917V26.2998H112.441V29.2379H112.919V27.4004C112.89 27.2376 112.927 27.0702 113.021 26.9342C113.114 26.7982 113.258 26.7045 113.42 26.6734C113.476 26.6667 113.533 26.6667 113.589 26.6734C114.023 26.6734 114.241 26.9157 114.241 27.4071V29.1874H114.719V27.4004C114.712 27.3186 114.72 27.2362 114.745 27.1578C114.769 27.0794 114.809 27.0068 114.862 26.944C114.915 26.8813 114.98 26.8298 115.053 26.7926C115.126 26.7554 115.206 26.7332 115.288 26.7273H115.389C115.823 26.7273 116.035 26.9696 116.035 27.4609V29.2548H116.513V27.4004C116.535 27.1292 116.448 26.8606 116.272 26.6531C116.096 26.4457 115.845 26.3163 115.574 26.2931H115.423L115.44 26.2628Z" fill="#595757"/>
<path d="M117.879 26.2628C117.726 26.2599 117.574 26.2883 117.432 26.3462C117.291 26.404 117.162 26.4902 117.055 26.5993C116.787 26.9212 116.657 27.3364 116.695 27.7537C116.656 28.1731 116.786 28.5906 117.055 28.9148C117.162 29.0239 117.291 29.1101 117.432 29.1679C117.574 29.2258 117.726 29.2542 117.879 29.2513C118.031 29.2542 118.181 29.2258 118.322 29.1679C118.462 29.11 118.588 29.0238 118.694 28.9148C118.83 28.7559 118.932 28.5712 118.996 28.3716C119.059 28.1721 119.081 27.9619 119.061 27.7537C119.081 27.5454 119.059 27.3352 118.996 27.1357C118.932 26.9362 118.83 26.7515 118.694 26.5926C118.587 26.486 118.46 26.402 118.32 26.3453C118.18 26.2887 118.03 26.2606 117.879 26.2628ZM117.879 26.7104C118.062 26.7134 118.237 26.7841 118.371 26.9089C118.556 27.1467 118.639 27.4479 118.603 27.747C118.641 28.0431 118.565 28.3426 118.391 28.585C118.255 28.7068 118.08 28.7742 117.898 28.7742C117.716 28.7742 117.54 28.7068 117.405 28.585C117.238 28.3383 117.144 28.0495 117.134 27.7518C117.123 27.4541 117.198 27.1596 117.347 26.9022C117.418 26.8349 117.501 26.783 117.593 26.7499C117.685 26.7169 117.782 26.7034 117.879 26.7104Z" fill="#595757"/>
<path d="M120.421 26.2627C120.169 26.2558 119.922 26.3367 119.724 26.4916V26.2998H119.239V29.2379H119.724V27.4003C119.724 26.9392 119.959 26.6666 120.397 26.6666C120.835 26.6666 121.07 26.9089 121.07 27.4003V29.1806H121.585V27.4003C121.596 27.2642 121.579 27.1273 121.536 26.9977C121.493 26.8681 121.425 26.7483 121.335 26.6452C121.246 26.5422 121.137 26.458 121.014 26.3975C120.892 26.3371 120.759 26.3016 120.622 26.293H120.468L120.421 26.2627Z" fill="#595757"/>
<path d="M125.381 25.0074L124.611 28.1946L123.773 25.0781L123.756 25.0074H123.295L122.443 28.1946L121.686 25.0781L121.672 25.0074H121.147L122.201 29.2009H122.655L123.524 25.9902L124.395 29.2009H124.853L125.896 25.0074H125.381Z" fill="#595757"/>
<path d="M127.353 28.4806C127.271 28.5779 127.167 28.6557 127.051 28.7081C126.934 28.7605 126.808 28.7862 126.68 28.7835C126.078 28.7835 125.946 28.3291 125.896 27.9084H127.777V27.6796C127.777 26.8079 127.319 26.2627 126.593 26.2627C125.866 26.2627 125.418 26.8214 125.418 27.7334C125.418 28.6455 125.859 29.2008 126.66 29.2008C126.853 29.2055 127.045 29.1686 127.223 29.0926C127.401 29.0165 127.56 28.903 127.69 28.7599L127.77 28.6791L127.404 28.3931L127.353 28.4806ZM127.286 27.4709H125.896C125.89 27.3432 125.912 27.2158 125.96 27.0973C126.013 26.9789 126.099 26.8783 126.208 26.8077C126.317 26.7371 126.444 26.6996 126.574 26.6996C126.704 26.6996 126.831 26.7371 126.94 26.8077C127.049 26.8783 127.135 26.9789 127.188 27.0973C127.244 27.218 127.276 27.3483 127.282 27.481L127.286 27.4709Z" fill="#595757"/>
<path d="M129.083 26.2627C128.889 26.2425 128.694 26.2738 128.517 26.3536C128.339 26.4335 128.186 26.5588 128.073 26.717L128.013 26.7911L128.363 27.1007L128.423 27.0132C128.494 26.9026 128.595 26.8151 128.714 26.7613C128.834 26.7074 128.967 26.6897 129.096 26.7103C129.574 26.7103 129.769 26.8718 129.769 27.2757V27.481H128.975C128.336 27.481 127.932 27.8176 127.932 28.356C127.928 28.5762 128.008 28.7894 128.157 28.9517C128.275 29.0582 128.415 29.1375 128.567 29.184C128.718 29.2306 128.878 29.2432 129.036 29.221C129.295 29.2448 129.555 29.1769 129.769 29.0291V29.1907H130.247V27.2387C130.23 26.7978 130.045 26.2627 129.083 26.2627ZM129.756 28.1373C129.766 28.2164 129.76 28.2968 129.739 28.3737C129.718 28.4506 129.681 28.5224 129.631 28.5849C129.549 28.6547 129.453 28.7071 129.349 28.7389C129.246 28.7707 129.137 28.7813 129.029 28.77C128.49 28.77 128.42 28.5546 128.42 28.3358C128.42 28.1171 128.474 27.8748 129.009 27.8748H129.746L129.756 28.1373Z" fill="#595757"/>
<path d="M131.015 28.3931V25.0074H130.54V28.3999C130.531 28.4966 130.541 28.5943 130.57 28.6871C130.599 28.7798 130.647 28.8659 130.709 28.9402C130.772 29.0145 130.849 29.0755 130.935 29.1197C131.022 29.1639 131.117 29.1903 131.214 29.1975H131.627V28.7533H131.325C131.106 28.7533 131.015 28.6657 131.015 28.3931Z" fill="#595757"/>
<path d="M132.156 25.4314H131.678V26.2997H131.304V26.7036H131.678V28.3863C131.668 28.4835 131.678 28.5817 131.707 28.6751C131.735 28.7684 131.782 28.8551 131.845 28.93C131.908 29.005 131.985 29.0666 132.072 29.1114C132.159 29.1561 132.253 29.1831 132.351 29.1907H132.738V28.7532H132.442C132.223 28.7532 132.125 28.6421 132.125 28.4166V26.7338H132.738V26.33H132.139L132.156 25.4314Z" fill="#595757"/>
<path d="M134.044 26.2627C133.78 26.2524 133.521 26.3333 133.31 26.4916V25.0209H132.832V29.221H133.31V27.4037C133.28 27.2408 133.317 27.0729 133.411 26.9367C133.505 26.8004 133.649 26.707 133.811 26.6767C133.866 26.6699 133.922 26.6699 133.976 26.6767C134.404 26.6767 134.622 26.919 134.622 27.4104V29.1907H135.094V27.4003C135.11 27.2658 135.1 27.1292 135.063 26.9988C135.026 26.8684 134.963 26.7468 134.878 26.6413C134.793 26.5357 134.687 26.4484 134.567 26.3846C134.448 26.3207 134.317 26.2815 134.182 26.2695C134.136 26.2642 134.09 26.2619 134.044 26.2627Z" fill="#595757"/>
<path d="M137.998 27.3195H139.805V26.8585H137.998V25.4685H140.118V25.0074H137.503V29.2009H140.118V28.7398H137.998V27.3195Z" fill="#595757"/>
<path d="M141.986 28.4739C141.925 28.5573 141.848 28.6278 141.759 28.6812C141.671 28.7347 141.573 28.7701 141.47 28.7854C141.368 28.8008 141.264 28.7957 141.163 28.7706C141.063 28.7454 140.969 28.7006 140.886 28.6389C140.824 28.5917 140.768 28.5362 140.721 28.4739C140.61 28.2452 140.553 27.9944 140.553 27.7403C140.553 27.4861 140.61 27.2353 140.721 27.0066C140.795 26.9096 140.891 26.831 141.001 26.7769C141.111 26.7228 141.231 26.6946 141.354 26.6946C141.476 26.6946 141.597 26.7228 141.706 26.7769C141.816 26.831 141.912 26.9096 141.986 27.0066L142.054 27.0806L142.39 26.771L142.323 26.7003C142.212 26.5611 142.07 26.4498 141.908 26.3756C141.746 26.3014 141.569 26.2662 141.391 26.2729C140.596 26.2729 140.105 26.845 140.105 27.7436C140.105 28.6422 140.596 29.211 141.391 29.211C141.575 29.2197 141.759 29.1835 141.927 29.1056C142.095 29.0276 142.241 28.9102 142.353 28.7634L142.42 28.6893L142.084 28.3898L141.986 28.4739Z" fill="#595757"/>
<path d="M143.477 26.2628C143.325 26.261 143.174 26.2899 143.033 26.3477C142.892 26.4055 142.764 26.4911 142.656 26.5994C142.416 26.9374 142.286 27.3421 142.286 27.7571C142.286 28.1721 142.416 28.5768 142.656 28.9148C142.878 29.1221 143.17 29.2373 143.474 29.2373C143.778 29.2373 144.07 29.1221 144.292 28.9148C144.563 28.5917 144.696 28.1744 144.662 27.7537C144.706 27.3397 144.585 26.925 144.326 26.5994C144.216 26.4866 144.084 26.3983 143.938 26.3403C143.791 26.2823 143.635 26.2559 143.477 26.2628ZM144.211 27.7335C144.249 28.0296 144.173 28.3292 143.999 28.5715C143.863 28.6952 143.686 28.7638 143.503 28.7638C143.319 28.7638 143.142 28.6952 143.006 28.5715C142.837 28.3269 142.762 28.0293 142.794 27.7335C142.761 27.4399 142.837 27.1442 143.006 26.9023C143.071 26.8352 143.149 26.7823 143.235 26.7469C143.322 26.7116 143.414 26.6946 143.508 26.697C143.599 26.696 143.69 26.7136 143.775 26.7489C143.859 26.7842 143.935 26.8364 143.999 26.9023C144.168 27.1492 144.234 27.4521 144.184 27.747L144.211 27.7335Z" fill="#595757"/>
<path d="M146.028 26.2627C145.763 26.2525 145.503 26.3332 145.291 26.4916V26.2997H144.854V29.2378H145.331V27.4002C145.302 27.2374 145.338 27.0695 145.432 26.9333C145.526 26.797 145.67 26.7036 145.833 26.6733C145.889 26.6666 145.945 26.6666 146.001 26.6733C146.435 26.6733 146.654 26.9156 146.654 27.407V29.1873H147.132V27.4002C147.138 27.2496 147.114 27.0991 147.061 26.958C147.008 26.8169 146.927 26.688 146.822 26.5791C146.719 26.4747 146.595 26.3928 146.458 26.3384C146.321 26.284 146.175 26.2582 146.028 26.2627Z" fill="#595757"/>
<path d="M148.458 26.2628C148.306 26.261 148.154 26.2898 148.013 26.3477C147.872 26.4055 147.744 26.4911 147.637 26.5993C147.502 26.7579 147.401 26.9416 147.338 27.1398C147.275 27.3379 147.252 27.5466 147.27 27.7537C147.251 27.9619 147.274 28.1717 147.337 28.371C147.4 28.5703 147.502 28.7551 147.637 28.9148C147.86 29.1227 148.154 29.2383 148.46 29.2383C148.765 29.2383 149.059 29.1227 149.283 28.9148C149.548 28.5887 149.68 28.1734 149.649 27.7537C149.685 27.3355 149.553 26.9204 149.283 26.5993C149.174 26.4914 149.046 26.4061 148.904 26.3483C148.762 26.2906 148.611 26.2615 148.458 26.2628ZM149.195 27.7335C149.235 28.0302 149.158 28.3308 148.98 28.5715C148.845 28.6931 148.67 28.7604 148.488 28.7604C148.307 28.7604 148.132 28.6931 147.997 28.5715C147.82 28.3302 147.743 28.0301 147.782 27.7335C147.748 27.4425 147.828 27.15 148.004 26.9157C148.133 26.787 148.309 26.7148 148.492 26.7148C148.674 26.7148 148.85 26.787 148.98 26.9157C149.142 27.1603 149.204 27.4577 149.155 27.747L149.195 27.7335Z" fill="#595757"/>
<path d="M152.81 26.2627C152.635 26.2597 152.462 26.2955 152.303 26.3677C152.144 26.4399 152.003 26.5466 151.891 26.6801C151.79 26.5444 151.658 26.4355 151.505 26.3628C151.353 26.2901 151.185 26.2557 151.016 26.2627C150.752 26.253 150.493 26.3337 150.282 26.4916V26.2998H149.804V29.2378H150.282V27.4003C150.253 27.2374 150.289 27.0695 150.383 26.9333C150.477 26.7971 150.621 26.7036 150.784 26.6733C150.838 26.6666 150.894 26.6666 150.948 26.6733C151.376 26.6733 151.598 26.9156 151.598 27.407V29.1874H152.073V27.4003C152.065 27.3184 152.074 27.2358 152.099 27.1574C152.124 27.0791 152.164 27.0064 152.217 26.9438C152.271 26.8811 152.336 26.8297 152.409 26.7925C152.483 26.7553 152.563 26.7331 152.645 26.7272H152.742C153.176 26.7272 153.388 26.9695 153.388 27.4609V29.2547H153.883V27.4003C153.894 27.265 153.877 27.1289 153.835 26.9999C153.793 26.8709 153.726 26.7515 153.637 26.6486C153.549 26.5457 153.441 26.4613 153.319 26.4003C153.198 26.3393 153.066 26.3028 152.931 26.293H152.786L152.81 26.2627Z" fill="#595757"/>
<path d="M154.684 26.2998H154.207V29.2009H154.684V26.2998Z" fill="#595757"/>
<path d="M154.721 25.0074H154.176V25.5527H154.721V25.0074Z" fill="#595757"/>
<path d="M159.555 25.4685H161.678V25.0074H159.063V29.2009H159.555V27.3869H161.362V26.9224H159.555V25.4685Z" fill="#595757"/>
<path d="M162.691 26.2628C162.539 26.261 162.388 26.2899 162.247 26.3477C162.106 26.4055 161.978 26.4911 161.87 26.5994C161.736 26.7578 161.634 26.9415 161.571 27.1397C161.508 27.3379 161.485 27.5466 161.503 27.7537C161.485 27.9619 161.508 28.1717 161.571 28.371C161.634 28.5703 161.735 28.7551 161.87 28.9148C162.093 29.1223 162.385 29.2377 162.69 29.2377C162.994 29.2377 163.287 29.1223 163.509 28.9148C163.644 28.7551 163.746 28.5703 163.809 28.371C163.872 28.1717 163.895 27.9619 163.876 27.7537C163.894 27.5466 163.872 27.3379 163.809 27.1397C163.746 26.9415 163.644 26.7578 163.509 26.5994C163.403 26.4909 163.275 26.4051 163.135 26.3473C162.994 26.2894 162.843 26.2607 162.691 26.2628ZM163.428 27.7335C163.465 28.0301 163.388 28.3295 163.213 28.5715C163.078 28.695 162.901 28.7634 162.718 28.7634C162.535 28.7634 162.359 28.695 162.224 28.5715C162.036 28.339 161.941 28.0453 161.958 27.747C161.921 27.4541 161.994 27.1579 162.163 26.9157C162.3 26.7872 162.48 26.7157 162.668 26.7157C162.855 26.7157 163.036 26.7872 163.173 26.9157C163.368 27.147 163.466 27.445 163.445 27.747L163.428 27.7335Z" fill="#595757"/>
<path d="M167.79 28.0768C167.805 28.1575 167.804 28.2404 167.787 28.3206C167.77 28.4009 167.737 28.477 167.69 28.5446C167.644 28.6121 167.584 28.6698 167.515 28.7143C167.446 28.7588 167.369 28.7892 167.288 28.8038C167.234 28.8105 167.178 28.8105 167.123 28.8038C166.585 28.8038 166.474 28.4134 166.474 28.0667V26.2998H165.989V26.5859C165.895 26.4876 165.781 26.411 165.654 26.3616C165.527 26.3122 165.391 26.2911 165.256 26.2998C165.003 26.297 164.758 26.38 164.559 26.5354V26.2998H164.081V29.2379H164.559V27.4744C164.548 27.3893 164.554 27.3029 164.577 27.2202C164.599 27.1374 164.638 27.0599 164.69 26.9921C164.743 26.9243 164.808 26.8674 164.883 26.8249C164.957 26.7823 165.039 26.7549 165.124 26.7441H165.188C165.271 26.7378 165.354 26.7513 165.431 26.7835C165.508 26.8157 165.576 26.8656 165.629 26.9292L165.696 26.9998L166.006 26.6835V28.1542C166.013 28.3645 166.077 28.5689 166.191 28.7453C166.306 28.9216 166.467 29.0629 166.657 29.154C166.846 29.245 167.057 29.2821 167.267 29.2613C167.476 29.2405 167.676 29.1625 167.844 29.036V29.2211H168.318V26.2931H167.844L167.79 28.0768Z" fill="#595757"/>
<path d="M171.589 26.2628C171.416 26.2578 171.243 26.2928 171.085 26.3651C170.927 26.4375 170.787 26.5453 170.677 26.6801C170.576 26.5435 170.442 26.434 170.289 26.3612C170.135 26.2885 169.966 26.2546 169.796 26.2628C169.532 26.253 169.273 26.3338 169.062 26.4916V26.2998H168.584V29.2379H169.062V27.4003C169.032 27.2375 169.069 27.0696 169.163 26.9334C169.257 26.7971 169.401 26.7036 169.563 26.6734C169.619 26.6666 169.676 26.6666 169.732 26.6734C170.156 26.6734 170.378 26.9157 170.378 27.4071V29.1874H170.862V27.4003C170.854 27.3197 170.861 27.2382 170.884 27.1605C170.907 27.0828 170.946 27.0105 170.997 26.9478C171.048 26.8851 171.112 26.8333 171.183 26.7954C171.255 26.7575 171.334 26.7344 171.414 26.7272H171.522C171.956 26.7272 172.178 26.9695 172.178 27.4609V29.2547H172.646V27.4003C172.654 27.2497 172.631 27.0991 172.579 26.9578C172.526 26.8165 172.445 26.6876 172.34 26.5791C172.138 26.3836 171.87 26.2707 171.589 26.2628Z" fill="#595757"/>
<path d="M156.176 26.7711C156.297 26.7665 156.417 26.7921 156.526 26.8455C156.634 26.899 156.728 26.9786 156.798 27.0773L156.866 27.1514L157.202 26.8451L157.138 26.7711C157.026 26.6238 156.88 26.5061 156.712 26.4281C156.545 26.3501 156.36 26.3142 156.176 26.3235C155.381 26.3235 154.89 26.8956 154.89 27.7908C154.89 28.686 155.381 29.2615 156.176 29.2615C156.354 29.2778 156.534 29.2523 156.702 29.1868C156.869 29.1214 157.018 29.0179 157.138 28.8846L157.202 28.8106L156.866 28.511L156.798 28.575C156.725 28.6738 156.63 28.7541 156.521 28.8094C156.411 28.8648 156.29 28.8936 156.167 28.8936C156.045 28.8936 155.923 28.8648 155.814 28.8094C155.704 28.7541 155.609 28.6738 155.536 28.575C155.42 28.3478 155.36 28.0964 155.36 27.8413C155.36 27.5862 155.42 27.3348 155.536 27.1076C155.605 27.0009 155.699 26.9137 155.811 26.8547C155.924 26.7957 156.049 26.7669 156.176 26.7711Z" fill="#595757"/>
<path d="M128.255 33.7341L127.814 33.6702C127.657 33.6472 127.508 33.5859 127.38 33.4918C127.33 33.445 127.291 33.388 127.266 33.3247C127.24 33.2613 127.229 33.1932 127.232 33.125C127.232 32.7884 127.481 32.5225 127.966 32.5225C128.121 32.5138 128.277 32.5362 128.423 32.5882C128.57 32.6401 128.705 32.7208 128.82 32.8254L129.194 32.4485C129.033 32.2979 128.843 32.1813 128.636 32.1055C128.429 32.0298 128.209 31.9965 127.989 32.0076C127.827 31.9876 127.663 32.0022 127.508 32.0503C127.352 32.0985 127.208 32.1792 127.086 32.287C126.964 32.3949 126.866 32.5275 126.799 32.676C126.732 32.8245 126.697 32.9856 126.697 33.1485C126.69 33.2835 126.711 33.4184 126.76 33.5447C126.808 33.671 126.881 33.7859 126.976 33.8822C127.186 34.0541 127.441 34.1616 127.71 34.1918L128.164 34.2558C128.321 34.2581 128.472 34.3153 128.592 34.4173C128.644 34.4702 128.685 34.5334 128.712 34.6029C128.738 34.6725 128.75 34.7468 128.746 34.8212C128.746 35.2048 128.454 35.4169 127.945 35.4169C127.761 35.4313 127.575 35.406 127.401 35.3427C127.227 35.2794 127.068 35.1796 126.936 35.05L126.545 35.4404C126.725 35.6187 126.941 35.7562 127.178 35.8433C127.416 35.9304 127.67 35.9652 127.922 35.9453C128.736 35.9453 129.315 35.5279 129.315 34.8077C129.321 34.6587 129.294 34.5102 129.236 34.3728C129.178 34.2355 129.09 34.1128 128.979 34.0135C128.773 33.8463 128.52 33.7485 128.255 33.7341Z" fill="#009FD1"/>
<path d="M132.236 34.6059C132.264 34.7986 132.215 34.9945 132.099 35.1509C131.983 35.3073 131.81 35.4114 131.617 35.4405C131.554 35.4472 131.491 35.4472 131.429 35.4405C131.332 35.4497 131.234 35.4396 131.14 35.4107C131.047 35.3818 130.961 35.3346 130.886 35.272C130.811 35.2094 130.749 35.1326 130.704 35.0459C130.66 34.9593 130.632 34.8646 130.624 34.7674C130.616 34.7082 130.616 34.6482 130.624 34.589V32.0312H130.045V34.6059C130.07 34.9587 130.227 35.289 130.486 35.5303C130.745 35.7715 131.085 35.9056 131.439 35.9056C131.792 35.9056 132.133 35.7715 132.391 35.5303C132.65 35.289 132.808 34.9587 132.832 34.6059V32.038H132.236V34.6059Z" fill="#009FD1"/>
<path d="M135.504 34.4645L134.374 32.038H133.778V35.9319H134.374V33.3303L135.292 35.2251H135.726L136.622 33.3303V35.9319H137.211V32.038H136.622L135.504 34.4645Z" fill="#009FD1"/>
<path d="M139.951 34.4645L138.813 32.038H138.224V35.9319H138.813V33.3303L139.732 35.2251H140.173L141.068 33.3303V35.9319H141.657V32.038H141.068L139.951 34.4645Z" fill="#009FD1"/>
<path d="M142.669 35.9319H145.153V35.4035H143.258V34.2356H144.874V33.7073H143.258V32.5663H145.153V32.038H142.669V35.9319Z" fill="#009FD1"/>
<path d="M148.68 33.1755C148.687 32.8797 148.575 32.5934 148.371 32.3796C148.167 32.1657 147.886 32.0416 147.59 32.0345H145.961V35.9284H146.536V34.2928H147.273L148.095 35.9318H148.768L147.883 34.212C148.115 34.159 148.322 34.0264 148.468 33.8372C148.614 33.648 148.689 33.414 148.68 33.1755ZM146.536 33.7947V32.5461H147.411C147.574 32.5282 147.737 32.5757 147.864 32.6779C147.992 32.7802 148.073 32.9289 148.091 33.0913C148.109 33.2538 148.062 33.4167 147.959 33.5441C147.857 33.6716 147.709 33.7533 147.546 33.7711C147.501 33.7779 147.456 33.7779 147.411 33.7711L146.536 33.7947Z" fill="#009FD1"/>
<path d="M172.377 33.6533H150.276V33.8081H172.377V33.6533Z" fill="#009FD1"/>
<path d="M124.977 33.6533H102.876V33.8081H124.977V33.6533Z" fill="#009FD1"/>
<path d="M147.098 23.5232H148.017C154.513 23.3011 159.759 18.3269 159.759 12.2454C159.759 6.16397 154.513 1.19312 148.004 0.950806H147.098C140.606 1.19312 135.396 6.16734 135.396 12.2454C135.396 18.3235 140.606 23.3011 147.098 23.5232ZM136.665 16.7922H140.061C141.051 19.8919 142.999 22.2578 145.446 23.1564C143.58 22.869 141.81 22.142 140.281 21.0354C138.752 19.9289 137.508 18.4744 136.652 16.7922H136.665ZM159.531 12.1478H155.771C155.756 10.6203 155.507 9.10406 155.034 7.65153H158.417C159.12 9.04732 159.496 10.585 159.517 12.1478H159.531ZM147.472 16.7922V23.3247C144.278 23.2641 141.528 20.5986 140.287 16.7922H147.472ZM140.213 16.5634C139.802 15.1952 139.59 13.775 139.583 12.3464H147.472V16.5634H140.213ZM147.67 16.7922H154.859C153.604 20.5986 150.854 23.2641 147.657 23.3247L147.67 16.7922ZM147.67 16.5634V12.3464H155.563C155.56 13.7755 155.347 15.1964 154.93 16.5634H147.67ZM155.748 12.3464H159.493C159.484 13.8028 159.164 15.2404 158.555 16.5634H155.145C155.55 15.1938 155.76 13.7744 155.771 12.3464H155.748ZM155.526 12.1478H147.657V7.65153H154.829C155.303 9.10327 155.546 10.6206 155.549 12.1478H155.526ZM147.664 7.43613V1.16956C150.787 1.22341 153.476 3.76437 154.762 7.42267L147.664 7.43613ZM147.465 7.43613H140.371C141.65 3.76437 144.329 1.22341 147.458 1.16956L147.465 7.43613ZM147.465 7.66499V12.1478H139.57C139.579 10.62 139.826 9.10299 140.303 7.65153L147.465 7.66499ZM139.388 12.1613H135.602C135.618 10.6002 135.987 9.06289 136.682 7.66499H140.068C139.6 9.11802 139.359 10.6347 139.354 12.1613H139.388ZM139.388 12.3599C139.391 13.7882 139.6 15.2087 140.011 16.5768H136.541C135.932 15.2539 135.612 13.8163 135.602 12.3599H139.388ZM149.693 23.1631C152.103 22.2645 154.102 19.8986 155.078 16.799H158.474C157.619 18.4792 156.377 19.9323 154.85 21.0387C153.323 22.1451 151.556 22.8732 149.693 23.1631ZM158.316 7.42267H154.984C153.974 4.48459 152.046 2.20614 149.693 1.3412C151.501 1.62541 153.218 2.32175 154.714 3.37632C156.209 4.43089 157.441 5.8154 158.316 7.42267ZM145.426 1.3412C143.07 2.20614 141.155 4.46439 140.142 7.42267H136.776C137.654 5.81279 138.891 4.42676 140.391 3.3721C141.891 2.31744 143.614 1.62251 145.426 1.3412Z" fill="#595757"/>
<path d="M136.945 3.84516H138.055V3.10475L135 3.11821V3.83843H136.124L132.3 16.624L129.1 3.82497L130.157 3.8317L130.163 3.10475L124.55 3.08792V3.81487H125.536L127.821 12.1916L125.879 17.2331L122.588 3.80814L123.567 3.81487V3.08792L118.027 3.07446V3.80141H119.047L123.735 21.2145L123.772 21.3559L125.108 21.3626L128.158 13.4133L130.332 21.3693L131.671 21.3761L136.945 3.84516Z" fill="#595757"/>
<path d="M105.262 18.687C106.116 19.5085 107.113 20.1666 108.203 20.6289C109.308 21.1052 110.497 21.3547 111.7 21.3626C112.21 21.3659 112.718 21.3186 113.218 21.2213C113.679 21.1338 114.12 21.0395 114.534 20.9285L115.591 20.6357C115.943 20.4835 116.339 20.4679 116.701 20.5919C116.799 20.6768 116.872 20.7859 116.913 20.9083L116.964 21.0227H117.701V15.4562H116.967L116.93 15.6009C116.783 16.253 116.557 16.8847 116.257 17.4822C115.967 18.0657 115.593 18.6033 115.146 19.0774C114.713 19.5329 114.202 19.9087 113.639 20.1881C113.048 20.472 112.399 20.6148 111.744 20.6054C110.968 20.623 110.195 20.4964 109.465 20.2318C108.838 19.9741 108.309 19.524 107.954 18.9462C107.5 18.1552 107.201 17.2848 107.073 16.3817C106.865 15.0096 106.769 13.6229 106.787 12.2354C106.787 10.9666 106.837 9.78191 106.931 8.71841C107 7.78148 107.224 6.86249 107.594 5.99908C107.9 5.28644 108.411 4.68079 109.062 4.25912C109.883 3.80302 110.816 3.58616 111.754 3.63313C112.481 3.60671 113.204 3.76047 113.857 4.08075C114.406 4.36988 114.89 4.76715 115.281 5.24858C115.672 5.73072 115.997 6.26264 116.247 6.83036C116.483 7.38567 116.695 7.95444 116.886 8.51312L116.93 8.64774H117.576V3.30668H116.829L116.792 3.45813C116.742 3.68698 116.674 3.73747 116.651 3.75429C116.515 3.8019 116.371 3.82136 116.227 3.81151C115.976 3.80504 115.727 3.76079 115.49 3.68025L114.457 3.37063C114.059 3.26293 113.639 3.1586 113.205 3.06436C112.722 2.96466 112.23 2.91504 111.737 2.91628C110.624 2.93108 109.524 3.15959 108.496 3.58938C106.251 4.48613 104.418 6.18431 103.354 8.35494C102.78 9.50794 102.47 10.7745 102.447 12.0624C102.424 13.3502 102.689 14.6269 103.222 15.7994C103.714 16.882 104.406 17.8618 105.262 18.687Z" fill="#595757"/>
<path d="M158.026 3.27979V4.01347H160.231V20.2453H158.026V20.979H166.44V20.2453H164.179V12.582H165.649C166.113 12.5649 166.575 12.6583 166.995 12.8546C167.343 13.0326 167.648 13.2827 167.891 13.5883C168.149 13.9159 168.348 14.286 168.48 14.6821C168.637 15.123 168.77 15.5724 168.877 16.0283V16.1764H169.55V8.24054H168.877V8.39535C168.766 8.89737 168.611 9.38846 168.412 9.86271C168.258 10.2581 168.04 10.6254 167.766 10.9498C167.501 11.2414 167.174 11.4712 166.81 11.6229C166.341 11.7987 165.841 11.881 165.34 11.8652H164.165V4H167.648C168.198 3.99044 168.744 4.077 169.264 4.25578C169.707 4.41858 170.113 4.66799 170.459 4.98946C170.817 5.32794 171.121 5.71956 171.36 6.15056C171.646 6.64673 171.892 7.16433 172.098 7.69869L172.148 7.82322H172.787V3.27979H158.026Z" fill="#595757"/>
<path d="M155.661 15.3384H155.139V15.4226C154.984 16.0909 154.752 16.7391 154.449 17.3544C154.156 17.9328 153.773 18.461 153.315 18.9193C152.864 19.3551 152.337 19.7041 151.76 19.9492C151.13 20.1982 150.458 20.3228 149.781 20.316H145.887V12.5148H147.402C147.875 12.5022 148.344 12.5978 148.775 12.7941C149.131 12.9707 149.444 13.2222 149.694 13.5312C149.956 13.8694 150.16 14.2494 150.296 14.6552C150.444 15.086 150.582 15.537 150.693 16.0014V16.0957H151.215V8.29781H150.693V8.38531C150.593 8.88753 150.447 9.37974 150.259 9.85604C150.101 10.2583 149.881 10.6331 149.606 10.9667C149.331 11.2864 148.985 11.5376 148.596 11.7003C148.127 11.8726 147.629 11.9548 147.129 11.9426H145.877V3.92602H150.192C150.871 3.90875 151.545 4.05779 152.154 4.36017C152.663 4.61865 153.12 4.97023 153.5 5.39674C153.823 5.76343 154.092 6.17352 154.301 6.61505C154.462 6.95217 154.597 7.30093 154.705 7.65836V7.73913H155.226V3.33032H139.92V3.90582H142.125V20.3194H139.651V20.8915H155.661V15.3384Z" fill="#009FD1"/>
<line x1="180.788" y1="1.70215" x2="188.788" y2="1.70215" stroke="#939EA7"/>
<path d="M188.288 35.6431V1.25848" stroke="#939EA7"/>
<path d="M180.788 35.4381H188.788" stroke="#939EA7"/>
<path d="M195.474 17.729H196.458C196.841 17.729 197.158 17.6629 197.409 17.5308C197.664 17.3986 197.853 17.2163 197.976 16.9839C198.099 16.7515 198.161 16.4849 198.161 16.1841C198.161 15.8696 198.104 15.6007 197.99 15.3774C197.88 15.1496 197.712 14.9741 197.484 14.8511C197.261 14.728 196.976 14.6665 196.629 14.6665C196.338 14.6665 196.073 14.7257 195.836 14.8442C195.604 14.9582 195.419 15.1222 195.283 15.3364C195.146 15.5461 195.078 15.7967 195.078 16.0884H193.423C193.423 15.5597 193.562 15.0903 193.84 14.6802C194.118 14.27 194.497 13.9487 194.975 13.7163C195.458 13.4793 196 13.3608 196.602 13.3608C197.245 13.3608 197.805 13.4679 198.284 13.6821C198.767 13.8918 199.143 14.2062 199.412 14.6255C199.681 15.0448 199.815 15.5643 199.815 16.1841C199.815 16.4666 199.749 16.7537 199.617 17.0454C199.485 17.3371 199.289 17.6037 199.029 17.8452C198.769 18.0822 198.445 18.2759 198.058 18.4263C197.671 18.5721 197.222 18.645 196.711 18.645H195.474V17.729ZM195.474 19.0142V18.1118H196.711C197.295 18.1118 197.792 18.1802 198.202 18.3169C198.616 18.4536 198.954 18.6427 199.213 18.8843C199.473 19.1213 199.662 19.3924 199.781 19.6978C199.904 20.0031 199.965 20.3267 199.965 20.6685C199.965 21.1333 199.881 21.548 199.712 21.9126C199.548 22.2726 199.314 22.578 199.008 22.8286C198.703 23.0793 198.345 23.2684 197.935 23.396C197.529 23.5236 197.087 23.5874 196.609 23.5874C196.181 23.5874 195.77 23.5282 195.378 23.4097C194.986 23.2912 194.636 23.1157 194.326 22.8833C194.016 22.6463 193.77 22.3524 193.587 22.0015C193.41 21.646 193.321 21.2358 193.321 20.771H194.968C194.968 21.0672 195.037 21.3293 195.173 21.5571C195.315 21.7804 195.511 21.9559 195.761 22.0835C196.016 22.2111 196.308 22.2749 196.636 22.2749C196.983 22.2749 197.281 22.2134 197.532 22.0903C197.782 21.9673 197.974 21.785 198.106 21.5435C198.243 21.3019 198.311 21.0103 198.311 20.6685C198.311 20.2811 198.236 19.9666 198.085 19.7251C197.935 19.4836 197.721 19.3058 197.443 19.1919C197.165 19.0734 196.837 19.0142 196.458 19.0142H195.474ZM203.086 18.8228L201.774 18.5015L202.314 13.4976H207.68V14.8921H203.681L203.407 17.3325C203.562 17.2414 203.777 17.1525 204.05 17.0659C204.323 16.9748 204.636 16.9292 204.986 16.9292C205.456 16.9292 205.875 17.0067 206.244 17.1616C206.618 17.312 206.935 17.533 207.194 17.8247C207.454 18.1118 207.652 18.4627 207.789 18.8774C207.926 19.2876 207.994 19.7502 207.994 20.2651C207.994 20.7254 207.926 21.1561 207.789 21.5571C207.657 21.9582 207.457 22.3114 207.188 22.6167C206.919 22.922 206.579 23.1613 206.169 23.3345C205.763 23.5031 205.283 23.5874 204.727 23.5874C204.312 23.5874 203.913 23.5282 203.53 23.4097C203.152 23.2866 202.813 23.1066 202.512 22.8696C202.211 22.6281 201.97 22.3319 201.787 21.981C201.605 21.6255 201.5 21.2176 201.473 20.7573H203.086C203.127 21.0809 203.216 21.3566 203.353 21.5845C203.494 21.8078 203.681 21.9787 203.913 22.0972C204.146 22.2157 204.415 22.2749 204.72 22.2749C204.998 22.2749 205.237 22.2271 205.438 22.1313C205.638 22.0311 205.804 21.8898 205.937 21.7075C206.073 21.5207 206.174 21.3019 206.237 21.0513C206.306 20.8006 206.34 20.5226 206.34 20.2173C206.34 19.9256 206.301 19.659 206.224 19.4175C206.151 19.1759 206.039 18.9663 205.889 18.7886C205.743 18.6108 205.558 18.4741 205.335 18.3784C205.112 18.2782 204.854 18.228 204.563 18.228C204.171 18.228 203.87 18.285 203.66 18.3989C203.455 18.5129 203.264 18.6541 203.086 18.8228Z" fill="#171717"/>
<line x1="94.5" y1="51.0001" x2="94.5" y2="43.0001" stroke="#939EA7"/>
<line x1="95" y1="50.5494" x2="105" y2="50.5494" stroke="#939EA7"/>
<line x1="104.5" y1="51.0001" x2="104.5" y2="43.0001" stroke="#939EA7"/>
<path d="M97.363 58.0621V68.0494H95.7155V60.0172L93.2751 60.8444V59.484L97.1647 58.0621H97.363ZM107.169 62.2389V63.8658C107.169 64.6451 107.092 65.3105 106.937 65.8619C106.786 66.4088 106.568 66.8531 106.281 67.1949C105.993 67.5367 105.649 67.7874 105.248 67.9469C104.852 68.1064 104.408 68.1862 103.915 68.1862C103.523 68.1862 103.159 68.136 102.822 68.0358C102.489 67.9355 102.188 67.7783 101.919 67.5641C101.65 67.3499 101.42 67.0742 101.229 66.7369C101.042 66.3951 100.896 65.9873 100.791 65.5133C100.691 65.0393 100.641 64.4902 100.641 63.8658V62.2389C100.641 61.455 100.718 60.7942 100.873 60.2565C101.028 59.7142 101.249 59.2744 101.536 58.9371C101.824 58.5953 102.165 58.347 102.562 58.192C102.963 58.0371 103.409 57.9596 103.902 57.9596C104.298 57.9596 104.663 58.0097 104.995 58.11C105.333 58.2057 105.633 58.3584 105.898 58.568C106.167 58.7776 106.395 59.0511 106.581 59.3883C106.773 59.721 106.919 60.1243 107.019 60.5983C107.119 61.0677 107.169 61.6145 107.169 62.2389ZM105.522 64.0983V61.9928C105.522 61.5963 105.499 61.2477 105.453 60.9469C105.408 60.6416 105.34 60.3841 105.248 60.1744C105.162 59.9602 105.052 59.7871 104.92 59.6549C104.788 59.5182 104.638 59.4202 104.469 59.361C104.3 59.2972 104.111 59.2653 103.902 59.2653C103.646 59.2653 103.419 59.3154 103.218 59.4156C103.018 59.5114 102.849 59.6663 102.712 59.8805C102.576 60.0947 102.471 60.3772 102.398 60.7281C102.329 61.0745 102.295 61.4961 102.295 61.9928V64.0983C102.295 64.4993 102.318 64.8525 102.364 65.1578C102.409 65.4632 102.478 65.7252 102.569 65.944C102.66 66.1582 102.769 66.3359 102.897 66.4772C103.029 66.6139 103.179 66.7142 103.348 66.778C103.521 66.8418 103.71 66.8737 103.915 66.8737C104.175 66.8737 104.405 66.8235 104.606 66.7233C104.806 66.623 104.975 66.4635 105.112 66.2448C105.248 66.0214 105.351 65.7321 105.419 65.3766C105.488 65.0211 105.522 64.595 105.522 64.0983Z" fill="#171717"/>
<defs>
<clipPath id="clip0_811_3396">
<rect width="92.446" height="34" fill="white" transform="translate(0 1.45081)"/>
</clipPath>
</defs>
</svg>
