<svg width="468" height="261" viewBox="0 0 468 261" fill="none" xmlns="http://www.w3.org/2000/svg">
<path d="M103.324 79.9519C103.324 80.6479 103.268 81.2679 103.156 81.8119C103.052 82.3559 102.884 82.8199 102.652 83.2039C102.428 83.5799 102.128 83.8679 101.752 84.0679C101.384 84.2679 100.94 84.3679 100.42 84.3679C99.764 84.3679 99.224 84.1919 98.8 83.8399C98.376 83.4879 98.06 82.9839 97.852 82.3279C97.644 81.6639 97.54 80.8719 97.54 79.9519C97.54 79.0239 97.632 78.2319 97.816 77.5759C98.008 76.9199 98.316 76.4199 98.74 76.0759C99.164 75.7239 99.724 75.5479 100.42 75.5479C101.076 75.5479 101.616 75.7239 102.04 76.0759C102.472 76.4199 102.792 76.9199 103 77.5759C103.216 78.2319 103.324 79.0239 103.324 79.9519ZM98.812 79.9519C98.812 80.6959 98.864 81.3159 98.968 81.8119C99.072 82.3079 99.24 82.6799 99.472 82.9279C99.712 83.1759 100.028 83.2999 100.42 83.2999C100.812 83.2999 101.124 83.1799 101.356 82.9399C101.596 82.6919 101.768 82.3199 101.872 81.8239C101.984 81.3199 102.04 80.6959 102.04 79.9519C102.04 79.2079 101.984 78.5919 101.872 78.1039C101.768 77.6079 101.596 77.2359 101.356 76.9879C101.124 76.7399 100.812 76.6159 100.42 76.6159C100.028 76.6159 99.712 76.7399 99.472 76.9879C99.24 77.2359 99.072 77.6079 98.968 78.1039C98.864 78.5919 98.812 79.2079 98.812 79.9519ZM104.563 83.5399C104.563 83.2279 104.643 83.0079 104.803 82.8799C104.963 82.7519 105.155 82.6879 105.379 82.6879C105.611 82.6879 105.807 82.7519 105.967 82.8799C106.127 83.0079 106.207 83.2279 106.207 83.5399C106.207 83.8519 106.127 84.0759 105.967 84.2119C105.807 84.3479 105.611 84.4159 105.379 84.4159C105.155 84.4159 104.963 84.3479 104.803 84.2119C104.643 84.0759 104.563 83.8519 104.563 83.5399ZM110.328 75.5599C110.832 75.5599 111.28 75.6399 111.672 75.7999C112.064 75.9519 112.372 76.1799 112.596 76.4839C112.828 76.7879 112.944 77.1679 112.944 77.6239C112.944 77.9679 112.872 78.2679 112.728 78.5239C112.584 78.7799 112.392 79.0079 112.152 79.2079C111.912 79.3999 111.644 79.5679 111.348 79.7119C111.684 79.8799 111.992 80.0719 112.272 80.2879C112.56 80.4959 112.788 80.7399 112.956 81.0199C113.132 81.2999 113.22 81.6359 113.22 82.0279C113.22 82.5079 113.1 82.9239 112.86 83.2759C112.628 83.6199 112.296 83.8879 111.864 84.0799C111.432 84.2719 110.928 84.3679 110.352 84.3679C109.736 84.3679 109.208 84.2759 108.768 84.0919C108.336 83.9079 108.008 83.6479 107.784 83.3119C107.56 82.9679 107.448 82.5519 107.448 82.0639C107.448 81.6719 107.528 81.3319 107.688 81.0439C107.848 80.7559 108.06 80.5079 108.324 80.2999C108.588 80.0919 108.876 79.9159 109.188 79.7719C108.916 79.6119 108.668 79.4319 108.444 79.2319C108.22 79.0239 108.044 78.7879 107.916 78.5239C107.788 78.2599 107.724 77.9559 107.724 77.6119C107.724 77.1639 107.84 76.7919 108.072 76.4959C108.304 76.1919 108.616 75.9599 109.008 75.7999C109.408 75.6399 109.848 75.5599 110.328 75.5599ZM108.672 82.0399C108.672 82.4319 108.808 82.7559 109.08 83.0119C109.352 83.2599 109.768 83.3839 110.328 83.3839C110.696 83.3839 111 83.3279 111.24 83.2159C111.488 83.0959 111.676 82.9359 111.804 82.7359C111.932 82.5279 111.996 82.2919 111.996 82.0279C111.996 81.7639 111.924 81.5319 111.78 81.3319C111.644 81.1319 111.452 80.9559 111.204 80.8039C110.964 80.6439 110.684 80.4999 110.364 80.3719L110.184 80.2999C109.856 80.4359 109.58 80.5879 109.356 80.7559C109.132 80.9239 108.96 81.1119 108.84 81.3199C108.728 81.5279 108.672 81.7679 108.672 82.0399ZM110.316 76.5559C109.924 76.5559 109.596 76.6519 109.332 76.8439C109.076 77.0359 108.948 77.3159 108.948 77.6839C108.948 77.9479 109.012 78.1719 109.14 78.3559C109.268 78.5399 109.44 78.6999 109.656 78.8359C109.872 78.9639 110.108 79.0879 110.364 79.2079C110.62 79.0959 110.848 78.9759 111.048 78.8479C111.248 78.7119 111.408 78.5519 111.528 78.3679C111.648 78.1759 111.708 77.9479 111.708 77.6839C111.708 77.3159 111.58 77.0359 111.324 76.8439C111.068 76.6519 110.732 76.5559 110.316 76.5559ZM116.458 83.6034C116.673 83.6034 116.872 83.5594 117.054 83.4716C117.236 83.3837 117.386 83.2632 117.503 83.1102C117.62 82.954 117.687 82.7766 117.703 82.578H118.563C118.547 82.8905 118.441 83.1818 118.245 83.452C118.053 83.719 117.801 83.9354 117.489 84.1014C117.176 84.2642 116.833 84.3456 116.458 84.3456C116.061 84.3456 115.715 84.2756 115.418 84.1356C115.125 83.9956 114.881 83.8036 114.686 83.5594C114.494 83.3153 114.349 83.0354 114.251 82.7196C114.157 82.4006 114.11 82.0637 114.11 81.7089V81.5038C114.11 81.149 114.157 80.8137 114.251 80.4979C114.349 80.1789 114.494 79.8973 114.686 79.6532C114.881 79.4091 115.125 79.217 115.418 79.077C115.715 78.9371 116.061 78.8671 116.458 78.8671C116.872 78.8671 117.233 78.9517 117.542 79.121C117.852 79.287 118.094 79.5149 118.27 79.8046C118.449 80.091 118.547 80.4165 118.563 80.7811H117.703C117.687 80.563 117.625 80.3661 117.518 80.1903C117.414 80.0145 117.271 79.8746 117.088 79.7704C116.909 79.663 116.699 79.6093 116.458 79.6093C116.182 79.6093 115.949 79.6646 115.76 79.7753C115.575 79.8827 115.426 80.0292 115.316 80.2147C115.208 80.397 115.13 80.6005 115.081 80.8251C115.036 81.0464 115.013 81.2727 115.013 81.5038V81.7089C115.013 81.94 115.036 82.1678 115.081 82.3925C115.127 82.6171 115.203 82.8205 115.311 83.0028C115.422 83.1851 115.57 83.3316 115.755 83.4423C115.944 83.5497 116.178 83.6034 116.458 83.6034ZM120.377 80.0145V84.2479H119.469V78.9647H120.328L120.377 80.0145ZM120.191 81.4061L119.771 81.3915C119.775 81.0302 119.822 80.6965 119.913 80.3905C120.004 80.0813 120.139 79.8127 120.318 79.5848C120.497 79.357 120.72 79.1812 120.987 79.0575C121.254 78.9305 121.563 78.8671 121.915 78.8671C122.162 78.8671 122.39 78.9029 122.599 78.9745C122.807 79.0428 122.988 79.1519 123.141 79.3016C123.294 79.4514 123.412 79.6434 123.497 79.8778C123.582 80.1122 123.624 80.3954 123.624 80.7274V84.2479H122.721V80.7714C122.721 80.4947 122.673 80.2733 122.579 80.1073C122.488 79.9413 122.358 79.8208 122.188 79.746C122.019 79.6678 121.821 79.6288 121.593 79.6288C121.326 79.6288 121.103 79.676 120.924 79.7704C120.745 79.8648 120.602 79.995 120.494 80.161C120.387 80.327 120.309 80.5175 120.26 80.7323C120.214 80.9439 120.191 81.1685 120.191 81.4061ZM123.614 80.9081L123.009 81.0936C123.012 80.8039 123.059 80.5256 123.15 80.2587C123.245 79.9917 123.38 79.7541 123.556 79.5458C123.735 79.3374 123.954 79.1731 124.215 79.0526C124.475 78.9289 124.773 78.8671 125.108 78.8671C125.392 78.8671 125.642 78.9045 125.86 78.9794C126.082 79.0542 126.267 79.1698 126.417 79.326C126.57 79.479 126.686 79.676 126.764 79.9169C126.842 80.1578 126.881 80.4442 126.881 80.7762V84.2479H125.973V80.7665C125.973 80.4703 125.925 80.2408 125.831 80.078C125.74 79.912 125.61 79.7964 125.44 79.7313C125.274 79.663 125.076 79.6288 124.845 79.6288C124.646 79.6288 124.47 79.663 124.317 79.7313C124.164 79.7997 124.036 79.8941 123.932 80.0145C123.827 80.1317 123.748 80.2668 123.692 80.4198C123.64 80.5728 123.614 80.7356 123.614 80.9081Z" fill="#171717"/>
<line x1="-4.37114e-08" y1="94.7479" x2="88" y2="94.7479" stroke="#C4C4C4"/>
<path d="M6.324 112.952C6.324 113.648 6.268 114.268 6.156 114.812C6.052 115.356 5.884 115.82 5.652 116.204C5.428 116.58 5.128 116.868 4.752 117.068C4.384 117.268 3.94 117.368 3.42 117.368C2.764 117.368 2.224 117.192 1.8 116.84C1.376 116.488 1.06 115.984 0.852 115.328C0.644 114.664 0.54 113.872 0.54 112.952C0.54 112.024 0.632 111.232 0.816 110.576C1.008 109.92 1.316 109.42 1.74 109.076C2.164 108.724 2.724 108.548 3.42 108.548C4.076 108.548 4.616 108.724 5.04 109.076C5.472 109.42 5.792 109.92 6 110.576C6.216 111.232 6.324 112.024 6.324 112.952ZM1.812 112.952C1.812 113.696 1.864 114.316 1.968 114.812C2.072 115.308 2.24 115.68 2.472 115.928C2.712 116.176 3.028 116.3 3.42 116.3C3.812 116.3 4.124 116.18 4.356 115.94C4.596 115.692 4.768 115.32 4.872 114.824C4.984 114.32 5.04 113.696 5.04 112.952C5.04 112.208 4.984 111.592 4.872 111.104C4.768 110.608 4.596 110.236 4.356 109.988C4.124 109.74 3.812 109.616 3.42 109.616C3.028 109.616 2.712 109.74 2.472 109.988C2.24 110.236 2.072 110.608 1.968 111.104C1.864 111.592 1.812 112.208 1.812 112.952ZM7.56319 116.54C7.56319 116.228 7.64319 116.008 7.80319 115.88C7.96319 115.752 8.15519 115.688 8.37919 115.688C8.61119 115.688 8.80719 115.752 8.96719 115.88C9.12719 116.008 9.20719 116.228 9.20719 116.54C9.20719 116.852 9.12719 117.076 8.96719 117.212C8.80719 117.348 8.61119 117.416 8.37919 117.416C8.15519 117.416 7.96319 117.348 7.80319 117.212C7.64319 117.076 7.56319 116.852 7.56319 116.54ZM13.3284 108.56C13.8324 108.56 14.2804 108.64 14.6724 108.8C15.0644 108.952 15.3724 109.18 15.5964 109.484C15.8284 109.788 15.9444 110.168 15.9444 110.624C15.9444 110.968 15.8724 111.268 15.7284 111.524C15.5844 111.78 15.3924 112.008 15.1524 112.208C14.9124 112.4 14.6444 112.568 14.3484 112.712C14.6844 112.88 14.9924 113.072 15.2724 113.288C15.5604 113.496 15.7884 113.74 15.9564 114.02C16.1324 114.3 16.2204 114.636 16.2204 115.028C16.2204 115.508 16.1004 115.924 15.8604 116.276C15.6284 116.62 15.2964 116.888 14.8644 117.08C14.4324 117.272 13.9284 117.368 13.3524 117.368C12.7364 117.368 12.2084 117.276 11.7684 117.092C11.3364 116.908 11.0084 116.648 10.7844 116.312C10.5604 115.968 10.4484 115.552 10.4484 115.064C10.4484 114.672 10.5284 114.332 10.6884 114.044C10.8484 113.756 11.0604 113.508 11.3244 113.3C11.5884 113.092 11.8764 112.916 12.1884 112.772C11.9164 112.612 11.6684 112.432 11.4444 112.232C11.2204 112.024 11.0444 111.788 10.9164 111.524C10.7884 111.26 10.7244 110.956 10.7244 110.612C10.7244 110.164 10.8404 109.792 11.0724 109.496C11.3044 109.192 11.6164 108.96 12.0084 108.8C12.4084 108.64 12.8484 108.56 13.3284 108.56ZM11.6724 115.04C11.6724 115.432 11.8084 115.756 12.0804 116.012C12.3524 116.26 12.7684 116.384 13.3284 116.384C13.6964 116.384 14.0004 116.328 14.2404 116.216C14.4884 116.096 14.6764 115.936 14.8044 115.736C14.9324 115.528 14.9964 115.292 14.9964 115.028C14.9964 114.764 14.9244 114.532 14.7804 114.332C14.6444 114.132 14.4524 113.956 14.2044 113.804C13.9644 113.644 13.6844 113.5 13.3644 113.372L13.1844 113.3C12.8564 113.436 12.5804 113.588 12.3564 113.756C12.1324 113.924 11.9604 114.112 11.8404 114.32C11.7284 114.528 11.6724 114.768 11.6724 115.04ZM13.3164 109.556C12.9244 109.556 12.5964 109.652 12.3324 109.844C12.0764 110.036 11.9484 110.316 11.9484 110.684C11.9484 110.948 12.0124 111.172 12.1404 111.356C12.2684 111.54 12.4404 111.7 12.6564 111.836C12.8724 111.964 13.1084 112.088 13.3644 112.208C13.6204 112.096 13.8484 111.976 14.0484 111.848C14.2484 111.712 14.4084 111.552 14.5284 111.368C14.6484 111.176 14.7084 110.948 14.7084 110.684C14.7084 110.316 14.5804 110.036 14.3244 109.844C14.0684 109.652 13.7324 109.556 13.3164 109.556ZM19.4584 116.603C19.6732 116.603 19.8718 116.559 20.0541 116.472C20.2364 116.384 20.3861 116.263 20.5033 116.11C20.6205 115.954 20.6872 115.777 20.7035 115.578H21.5629C21.5466 115.891 21.4408 116.182 21.2455 116.452C21.0534 116.719 20.8011 116.935 20.4886 117.101C20.1761 117.264 19.8327 117.346 19.4584 117.346C19.0612 117.346 18.7145 117.276 18.4183 117.136C18.1254 116.996 17.8812 116.804 17.6859 116.559C17.4938 116.315 17.349 116.035 17.2513 115.72C17.1569 115.401 17.1097 115.064 17.1097 114.709V114.504C17.1097 114.149 17.1569 113.814 17.2513 113.498C17.349 113.179 17.4938 112.897 17.6859 112.653C17.8812 112.409 18.1254 112.217 18.4183 112.077C18.7145 111.937 19.0612 111.867 19.4584 111.867C19.8718 111.867 20.2331 111.952 20.5423 112.121C20.8516 112.287 21.0941 112.515 21.2699 112.805C21.4489 113.091 21.5466 113.417 21.5629 113.781H20.7035C20.6872 113.563 20.6254 113.366 20.5179 113.19C20.4138 113.015 20.2705 112.875 20.0882 112.77C19.9092 112.663 19.6992 112.609 19.4584 112.609C19.1817 112.609 18.9489 112.665 18.7601 112.775C18.5746 112.883 18.4265 113.029 18.3158 113.215C18.2084 113.397 18.1302 113.6 18.0814 113.825C18.0358 114.046 18.013 114.273 18.013 114.504V114.709C18.013 114.94 18.0358 115.168 18.0814 115.392C18.127 115.617 18.2035 115.821 18.3109 116.003C18.4216 116.185 18.5697 116.332 18.7552 116.442C18.944 116.55 19.1784 116.603 19.4584 116.603ZM23.3769 113.015V117.248H22.4687V111.965H23.3281L23.3769 113.015ZM23.1914 114.406L22.7714 114.391C22.7747 114.03 22.8219 113.696 22.913 113.391C23.0042 113.081 23.1393 112.813 23.3183 112.585C23.4974 112.357 23.7203 112.181 23.9873 112.057C24.2542 111.931 24.5634 111.867 24.915 111.867C25.1624 111.867 25.3903 111.903 25.5986 111.974C25.8069 112.043 25.9876 112.152 26.1406 112.302C26.2936 112.451 26.4124 112.643 26.497 112.878C26.5817 113.112 26.624 113.395 26.624 113.727V117.248H25.7207V113.771C25.7207 113.495 25.6735 113.273 25.5791 113.107C25.4879 112.941 25.3577 112.821 25.1884 112.746C25.0192 112.668 24.8206 112.629 24.5927 112.629C24.3258 112.629 24.1028 112.676 23.9238 112.77C23.7448 112.865 23.6015 112.995 23.4941 113.161C23.3867 113.327 23.3086 113.517 23.2597 113.732C23.2142 113.944 23.1914 114.168 23.1914 114.406ZM26.6142 113.908L26.0088 114.094C26.012 113.804 26.0592 113.526 26.1504 113.259C26.2448 112.992 26.3798 112.754 26.5556 112.546C26.7347 112.337 26.9544 112.173 27.2148 112.053C27.4752 111.929 27.7731 111.867 28.1084 111.867C28.3916 111.867 28.6422 111.905 28.8603 111.979C29.0817 112.054 29.2672 112.17 29.417 112.326C29.5699 112.479 29.6855 112.676 29.7636 112.917C29.8418 113.158 29.8808 113.444 29.8808 113.776V117.248H28.9726V113.766C28.9726 113.47 28.9254 113.241 28.831 113.078C28.7399 112.912 28.6097 112.796 28.4404 112.731C28.2744 112.663 28.0758 112.629 27.8447 112.629C27.6461 112.629 27.4703 112.663 27.3173 112.731C27.1643 112.8 27.0358 112.894 26.9316 113.015C26.8274 113.132 26.7477 113.267 26.6923 113.42C26.6403 113.573 26.6142 113.736 26.6142 113.908Z" fill="#171717"/>
<path d="M81.999 15.5743H201.999" stroke="#C4C4C4"/>
<path d="M202 15.2386L202 25.2324" stroke="#C4C4C4"/>
<path d="M137.135 4.65992C137.135 5.04392 137.059 5.37992 136.907 5.66792C136.763 5.94792 136.555 6.17592 136.283 6.35192C136.011 6.52792 135.699 6.65592 135.347 6.73592V6.78392C136.035 6.86392 136.547 7.07992 136.883 7.43192C137.227 7.77592 137.399 8.23192 137.399 8.79992C137.399 9.29592 137.279 9.73992 137.039 10.1319C136.807 10.5159 136.443 10.8199 135.947 11.0439C135.459 11.2599 134.831 11.3679 134.063 11.3679C133.607 11.3679 133.183 11.3319 132.791 11.2599C132.399 11.1879 132.027 11.0679 131.675 10.8999V9.74792C132.035 9.93192 132.419 10.0719 132.827 10.1679C133.243 10.2639 133.639 10.3119 134.015 10.3119C134.743 10.3119 135.267 10.1759 135.587 9.90392C135.907 9.62392 136.067 9.23592 136.067 8.73992C136.067 8.41992 135.983 8.15992 135.815 7.95992C135.647 7.75192 135.391 7.59992 135.047 7.50392C134.703 7.39992 134.275 7.34792 133.763 7.34792H132.983V6.30392H133.775C134.263 6.30392 134.659 6.24392 134.963 6.12392C135.267 5.99592 135.491 5.81992 135.635 5.59592C135.779 5.37192 135.851 5.11592 135.851 4.82792C135.851 4.44392 135.723 4.14792 135.467 3.93992C135.219 3.72392 134.859 3.61592 134.387 3.61592C134.099 3.61592 133.831 3.64792 133.583 3.71192C133.343 3.77592 133.123 3.85992 132.923 3.96392C132.723 4.06792 132.527 4.18392 132.335 4.31192L131.711 3.43592C131.927 3.27592 132.167 3.12792 132.431 2.99192C132.703 2.85592 133.003 2.75192 133.331 2.67992C133.667 2.59992 134.031 2.55992 134.423 2.55992C135.311 2.55992 135.983 2.75592 136.439 3.14792C136.903 3.53192 137.135 4.03592 137.135 4.65992ZM138.722 10.5399C138.722 10.2279 138.802 10.0079 138.962 9.87992C139.122 9.75192 139.314 9.68792 139.538 9.68792C139.77 9.68792 139.966 9.75192 140.126 9.87992C140.286 10.0079 140.366 10.2279 140.366 10.5399C140.366 10.8519 140.286 11.0759 140.126 11.2119C139.966 11.3479 139.77 11.4159 139.538 11.4159C139.314 11.4159 139.122 11.3479 138.962 11.2119C138.802 11.0759 138.722 10.8519 138.722 10.5399ZM144.451 5.93192C145.019 5.93192 145.515 6.03192 145.939 6.23192C146.363 6.43192 146.691 6.71992 146.923 7.09592C147.163 7.47192 147.283 7.93192 147.283 8.47592C147.283 9.07592 147.155 9.59192 146.899 10.0239C146.643 10.4559 146.271 10.7879 145.783 11.0199C145.303 11.2519 144.715 11.3679 144.019 11.3679C143.579 11.3679 143.163 11.3279 142.771 11.2479C142.379 11.1679 142.047 11.0519 141.775 10.8999V9.73592C142.063 9.90392 142.411 10.0399 142.819 10.1439C143.235 10.2479 143.631 10.2999 144.007 10.2999C144.415 10.2999 144.763 10.2399 145.051 10.1199C145.347 9.99192 145.575 9.80392 145.735 9.55592C145.903 9.29992 145.987 8.97992 145.987 8.59592C145.987 8.07592 145.823 7.67992 145.495 7.40792C145.175 7.12792 144.667 6.98792 143.971 6.98792C143.747 6.98792 143.495 7.00792 143.215 7.04792C142.943 7.08792 142.723 7.12792 142.555 7.16792L141.967 6.81992L142.291 2.67992H146.695V3.80792H143.395L143.203 6.05192C143.339 6.02792 143.511 6.00392 143.719 5.97992C143.927 5.94792 144.171 5.93192 144.451 5.93192ZM150.617 10.6034C150.832 10.6034 151.031 10.5594 151.213 10.4716C151.395 10.3837 151.545 10.2632 151.662 10.1102C151.779 9.95398 151.846 9.77657 151.862 9.578H152.722C152.705 9.8905 152.6 10.1818 152.404 10.452C152.212 10.719 151.96 10.9354 151.647 11.1014C151.335 11.2642 150.992 11.3456 150.617 11.3456C150.22 11.3456 149.873 11.2756 149.577 11.1356C149.284 10.9956 149.04 10.8036 148.845 10.5594C148.653 10.3153 148.508 10.0354 148.41 9.7196C148.316 9.40059 148.269 9.06368 148.269 8.70886V8.50378C148.269 8.14897 148.316 7.81368 148.41 7.49792C148.508 7.17891 148.653 6.89734 148.845 6.6532C149.04 6.40906 149.284 6.217 149.577 6.07703C149.873 5.93705 150.22 5.86707 150.617 5.86707C151.031 5.86707 151.392 5.9517 151.701 6.12097C152.01 6.28699 152.253 6.51485 152.429 6.80457C152.608 7.09102 152.705 7.41654 152.722 7.78113H151.862C151.846 7.56303 151.784 7.36609 151.677 7.19031C151.573 7.01453 151.429 6.87455 151.247 6.77039C151.068 6.66296 150.858 6.60925 150.617 6.60925C150.34 6.60925 150.108 6.66459 149.919 6.77527C149.733 6.88269 149.585 7.02917 149.475 7.21472C149.367 7.39701 149.289 7.60046 149.24 7.82507C149.195 8.04643 149.172 8.27266 149.172 8.50378V8.70886C149.172 8.93998 149.195 9.16785 149.24 9.39246C149.286 9.61707 149.362 9.82052 149.47 10.0028C149.58 10.1851 149.729 10.3316 149.914 10.4423C150.103 10.5497 150.337 10.6034 150.617 10.6034ZM154.536 7.01453V11.2479H153.628V5.96472H154.487L154.536 7.01453ZM154.35 8.40613L153.93 8.39148C153.934 8.03015 153.981 7.69649 154.072 7.3905C154.163 7.08126 154.298 6.8127 154.477 6.58484C154.656 6.35697 154.879 6.18119 155.146 6.0575C155.413 5.93054 155.722 5.86707 156.074 5.86707C156.321 5.86707 156.549 5.90287 156.757 5.97449C156.966 6.04285 157.146 6.1519 157.299 6.30164C157.452 6.45138 157.571 6.64343 157.656 6.87781C157.74 7.11218 157.783 7.39539 157.783 7.72742V11.2479H156.879V7.77136C156.879 7.49467 156.832 7.27332 156.738 7.1073C156.647 6.94128 156.517 6.82084 156.347 6.74597C156.178 6.66785 155.979 6.62878 155.752 6.62878C155.485 6.62878 155.262 6.67598 155.083 6.77039C154.904 6.86479 154.76 6.995 154.653 7.16101C154.546 7.32703 154.467 7.51746 154.419 7.7323C154.373 7.94389 154.35 8.1685 154.35 8.40613ZM157.773 7.90808L157.168 8.09363C157.171 7.80391 157.218 7.52559 157.309 7.25867C157.404 6.99174 157.539 6.75411 157.714 6.54578C157.893 6.33744 158.113 6.17306 158.374 6.05261C158.634 5.92891 158.932 5.86707 159.267 5.86707C159.55 5.86707 159.801 5.9045 160.019 5.97937C160.24 6.05424 160.426 6.1698 160.576 6.32605C160.729 6.47904 160.844 6.67598 160.922 6.91687C161.001 7.15776 161.04 7.44421 161.04 7.77625V11.2479H160.131V7.76648C160.131 7.47026 160.084 7.24076 159.99 7.078C159.899 6.91199 159.768 6.79643 159.599 6.73132C159.433 6.66296 159.235 6.62878 159.004 6.62878C158.805 6.62878 158.629 6.66296 158.476 6.73132C158.323 6.79968 158.195 6.89408 158.09 7.01453C157.986 7.13171 157.907 7.26681 157.851 7.4198C157.799 7.57279 157.773 7.73556 157.773 7.90808Z" fill="#171717"/>
<path d="M82 15.2479V103.248" stroke="#C4C4C4"/>
<g clip-path="url(#clip0_811_2960)">
<path d="M202 94.2479H82V138.481H202V94.2479Z" fill="#D60C18"/>
<path d="M110.995 101.02C111.63 102.713 109.09 103.348 108.032 103.983C107.609 104.195 107.185 104.407 106.762 104.618C106.339 104.618 106.127 104.83 105.915 104.83C105.704 105.041 105.281 105.041 105.069 105.041C104.434 105.253 103.799 105.253 103.164 105.465C101.894 105.888 100.624 106.311 99.3546 106.523C98.7197 106.735 97.8731 106.946 97.2382 107.158C96.3916 107.369 95.7567 107.158 95.1218 106.735C94.2752 106.523 94.2752 105.888 94.0636 105.253C93.8519 105.041 93.8519 104.618 94.2752 104.407H94.6985C94.9101 104.407 95.1218 104.407 95.1218 104.407C95.5451 104.407 95.7567 104.195 96.18 104.195C96.6033 104.195 96.8149 104.195 97.2382 103.983C97.6615 103.983 97.8731 103.983 98.2964 103.772C98.7197 103.56 98.9313 103.348 99.3546 103.137C99.9895 102.925 100.624 102.713 101.471 102.502C101.683 102.502 102.106 102.502 102.318 102.29C102.529 102.29 102.529 102.29 102.741 102.29C102.952 102.29 102.952 102.078 103.164 102.078C103.376 101.867 103.799 101.867 104.011 101.655C104.857 101.02 105.915 100.809 106.55 99.9621C106.974 99.5388 107.609 99.5388 108.243 99.3271C108.878 99.3271 109.513 99.3271 109.937 99.5388C110.36 100.174 110.995 100.385 110.995 101.02Z" fill="white"/>
<path d="M132.37 110.544C132.37 110.333 132.582 109.909 132.582 109.698C132.582 109.274 132.37 109.063 132.37 108.851C132.37 108.64 132.582 108.216 132.159 108.216C131.524 107.793 130.889 108.428 130.254 108.64C129.83 108.851 129.407 109.274 128.984 109.698C128.772 109.909 128.349 110.121 127.926 110.333C127.714 110.544 127.291 110.756 127.079 110.968C126.444 111.391 125.598 111.814 124.963 112.237C124.328 112.661 123.058 112.449 122.423 112.449C121.365 112.237 120.307 111.602 119.248 111.179C118.825 110.968 118.402 110.756 117.979 110.544C117.555 110.333 117.132 109.698 116.709 109.274C116.286 109.063 115.862 108.64 116.074 108.216C116.497 107.793 116.92 107.793 117.555 107.581C119.248 107.158 121.365 107.581 123.058 106.946C124.116 106.735 125.174 106.523 126.021 106.1C126.233 106.1 126.444 105.888 126.868 105.888C127.079 105.888 127.291 105.677 127.714 105.465C128.349 104.83 128.984 105.042 129.619 104.83C130.465 104.618 131.312 104.407 132.159 103.983C132.582 103.772 133.217 103.56 133.64 103.56C134.063 103.56 134.487 103.56 134.91 103.348C135.545 102.714 136.603 103.137 137.45 102.714C138.296 102.29 139.143 102.079 139.989 101.867C140.412 101.867 140.836 101.655 141.259 101.867C141.894 101.867 142.741 102.079 143.587 102.29C144.222 102.502 144.857 102.502 145.492 102.925C145.704 103.137 146.127 103.348 146.127 103.772C146.127 104.195 146.127 104.618 145.915 104.83C145.704 104.618 145.492 104.83 145.492 105.042C145.28 105.677 144.645 105.677 144.01 105.888C143.375 106.1 142.741 106.1 142.106 105.888C141.682 105.888 141.471 105.677 141.259 105.465C140.201 104.83 138.931 105.042 137.873 105.253C137.661 105.253 137.661 105.253 137.45 105.465C137.238 105.465 137.238 105.465 137.026 105.677C136.815 105.677 136.815 105.888 136.603 105.888C136.18 106.1 135.968 106.311 135.968 106.735C135.968 107.37 135.968 108.005 136.18 108.428C136.603 109.486 135.968 110.544 136.391 111.602C136.603 113.084 137.026 114.989 137.026 116.682C137.026 119.01 137.238 121.761 137.661 123.878C137.661 124.301 137.873 124.936 138.084 125.359C138.084 125.571 138.084 125.994 138.296 126.206C138.508 126.841 138.508 127.264 138.508 128.11C138.508 128.957 138.296 129.592 138.296 130.438C138.084 131.285 137.873 132.132 137.026 132.555C136.18 133.401 134.698 133.401 133.64 132.978C133.217 132.766 132.582 132.132 132.37 131.708C132.159 131.497 132.159 131.073 132.159 130.862C131.947 130.227 131.735 129.38 131.947 128.745C132.37 122.819 133.005 117.105 132.582 111.179" fill="white"/>
<path d="M103.376 108.005C103.799 108.639 104.222 109.274 104.434 109.909C104.646 110.121 105.069 110.121 105.281 110.121C105.492 109.909 105.916 109.909 106.127 109.698C106.339 109.486 106.55 109.274 106.762 109.063C107.185 108.639 107.82 108.216 108.455 108.005C108.879 107.793 109.302 107.793 109.725 107.793C110.36 108.005 111.207 108.005 111.63 108.639C111.841 109.063 111.841 109.698 111.63 110.121C110.995 111.391 109.513 111.814 108.455 112.661C107.609 113.084 106.55 113.507 106.127 114.354C106.127 115.835 107.397 117.105 108.244 117.952C109.725 119.433 110.995 121.761 112.9 122.608C113.535 122.819 113.958 123.454 114.381 123.878C114.593 124.089 115.016 124.301 115.228 124.512C115.651 124.724 115.863 124.724 116.286 124.936C116.498 125.147 116.921 125.147 117.344 125.571C117.344 125.782 117.556 125.782 117.767 125.782C117.979 125.994 118.191 126.206 118.614 126.206C118.826 126.206 119.037 126.206 119.037 126.206C119.249 126.206 119.461 126.417 119.461 126.629C120.095 127.052 120.942 127.475 121.789 127.899C122 128.11 122.424 128.11 122.847 128.11C123.058 128.322 123.27 128.534 123.693 128.745C124.117 128.957 124.752 129.38 124.963 129.803C125.175 130.227 124.963 130.65 124.752 130.862C124.328 131.285 123.905 131.285 123.27 131.497C122.847 131.497 122.212 131.708 121.789 131.92C121.577 131.92 121.154 131.92 120.942 131.92C120.307 131.92 119.884 131.92 119.249 132.132C118.191 132.343 116.921 132.343 115.863 132.343C115.228 132.343 114.381 132.343 113.958 132.132C113.111 131.708 112.476 131.073 111.841 130.438C110.995 129.803 110.36 128.745 109.513 127.687C108.879 126.629 108.032 125.571 107.397 124.724C106.762 123.878 106.339 123.031 105.492 122.396C105.281 122.184 105.069 121.761 104.857 121.549C104.646 121.338 104.434 121.126 104.222 120.915C103.588 120.068 103.164 119.645 102.529 119.645C102.318 120.068 102.106 120.491 102.106 120.915C102.106 121.126 102.106 121.549 102.106 121.761C102.106 121.973 101.894 122.184 101.894 122.396C101.894 123.031 101.894 123.454 101.471 124.089C101.259 124.301 101.048 124.512 101.048 124.936C101.048 125.359 100.836 125.571 100.625 125.994C100.625 126.206 100.413 126.417 100.413 126.417C100.201 126.629 100.201 127.052 99.9896 127.475C99.778 127.899 99.5664 128.11 99.3547 128.534C98.9314 128.957 98.5082 129.592 97.8732 130.227C97.6616 130.65 97.2383 130.862 96.815 131.073C96.6034 131.285 96.3918 131.497 95.9685 131.708C95.7568 131.92 95.3336 131.92 94.9103 132.132C94.2754 132.343 93.6404 132.766 92.7939 132.766C92.3706 132.766 91.9473 132.766 91.524 132.343C91.3124 132.343 91.1007 132.343 90.8891 132.132C90.6775 132.132 90.4658 131.92 90.2542 131.708C90.0425 131.497 89.8309 131.285 89.6193 131.073C89.6193 130.862 89.4076 130.862 89.4076 130.65C89.4076 130.438 89.4076 130.227 89.196 130.015C88.9843 129.592 88.9843 129.38 88.9843 129.169C88.9843 128.957 88.7727 128.745 88.7727 128.534C88.7727 128.322 88.9843 127.899 89.196 127.687C89.4076 127.475 89.6193 127.264 89.8309 127.052C90.2542 126.84 90.6775 127.052 91.1007 127.052C91.3124 127.052 91.524 127.264 91.7357 127.264C91.9473 127.475 92.1589 127.687 92.5822 127.475C92.7939 127.264 93.0055 127.052 93.2172 126.84C93.4288 126.629 93.4288 126.417 93.6404 126.206C93.8521 125.994 94.0637 125.782 94.2754 125.571C94.6986 125.147 94.9103 124.724 95.1219 124.089C95.9685 123.031 96.1801 121.761 95.7568 120.28C94.6986 120.28 93.8521 120.703 92.7939 120.28C92.1589 119.856 91.1007 119.433 90.8891 118.798C90.4658 118.798 90.0425 118.163 90.0425 117.528C90.2542 116.682 91.524 116.893 91.9473 116.893C92.5822 116.682 93.2171 116.682 93.8521 116.258C94.2754 116.047 94.487 116.047 94.9103 115.835C95.3336 115.624 95.5452 115.412 95.7568 115.2C95.9685 114.989 96.3918 114.777 96.815 114.565C97.2383 114.354 97.6616 114.354 97.8732 114.142C98.0849 113.93 98.5082 113.719 98.7198 113.507C99.1431 113.296 99.5664 112.661 99.5664 111.814C99.5664 111.602 99.3547 111.391 99.3547 110.967C99.3547 110.756 99.3547 110.333 99.5664 110.121C99.5664 109.909 99.778 109.698 99.778 109.274C99.778 108.851 99.778 108.639 99.9896 108.216C100.201 108.005 100.413 107.581 100.836 107.581C101.048 107.37 101.471 107.581 101.683 107.581C101.894 107.581 102.318 107.37 102.529 107.581C102.741 107.581 102.741 107.793 102.953 107.793C102.953 108.005 103.164 108.005 103.376 108.005Z" fill="white"/>
<path d="M173.428 130.015V130.862H167.714V132.132H166.233V123.031C166.021 123.454 165.809 123.878 165.386 124.089L164.963 123.666C165.174 123.243 165.386 122.819 165.598 122.396L164.54 123.243C164.328 122.608 163.905 122.185 163.693 121.55C163.481 122.185 163.058 122.819 162.635 123.454H162.846V125.147H165.809V125.994H162.846V126.629C163.905 127.264 164.963 127.899 165.598 128.534L164.54 129.592C164.116 128.957 163.27 128.11 162.846 127.476V132.343H161.365V127.899C160.73 128.957 159.46 130.227 158.19 131.285L157.767 130.862C159.037 129.592 160.095 128.11 160.942 126.206H158.19V125.359H161.365V123.666H161.788C162.423 122.396 162.846 120.915 163.058 119.222L164.54 119.645C164.54 120.068 164.328 120.703 164.116 121.126C164.751 121.55 165.174 121.973 165.598 122.396C166.233 120.703 166.444 118.798 166.656 116.259L168.137 116.47C168.137 117.528 167.926 118.798 167.503 119.856H173.005V120.703H170.677V123.031H172.582V123.878H170.677V126.629H172.582V127.476H170.677V130.438H173.428V130.015ZM158.402 124.301L157.979 123.878C158.825 122.608 159.46 120.703 159.672 119.01L161.153 119.433C161.153 119.856 160.942 120.28 160.73 120.915C161.365 121.338 162 121.761 162.423 122.396L161.365 123.243C161.153 122.608 160.73 122.185 160.307 121.55C159.672 122.396 159.037 123.454 158.402 124.301ZM165.598 118.798H158.19V117.952H162C161.365 117.317 160.73 116.682 160.095 116.259L160.307 115.624C161.365 115.835 162.423 116.47 163.27 116.893L162.635 117.952H165.809L165.598 118.798ZM169.196 120.491H167.503V122.819H169.196V120.491ZM169.196 123.454H167.503V126.206H169.196V123.454ZM169.196 127.052H167.503V130.015H169.196V127.052ZM169.619 119.433C169.407 118.798 168.984 117.317 168.772 116.259L169.407 116.047C170.042 116.893 170.889 118.163 171.1 119.01L169.619 119.433Z" fill="white"/>
<path d="M182.952 119.645H177.238V118.798H179.777C179.143 117.74 178.508 116.682 178.084 116.259L178.508 115.835C179.354 116.47 180.412 117.317 181.259 118.163L180.412 118.798H182.952V119.645ZM177.661 122.185V121.55H182.529V122.185H177.661ZM182.529 124.513H177.661V123.878H182.529V124.513ZM184.222 125.994L184.857 126.206C184.857 128.11 184.434 129.592 183.587 130.65L182.529 129.804V131.92H181.259V130.862H179.354V132.132H178.084V126.206H182.74V129.592C183.164 128.745 184.01 127.687 184.222 125.994ZM181.047 126.841H179.143V130.015H181.047V126.841ZM186.762 119.645H183.164V118.798H186.762V115.835H188.243V118.798H192.053V119.645H188.455V122.608H191.841V123.454H183.587V122.608H186.762V119.645ZM189.936 127.687C190.783 130.439 190.783 131.708 188.243 131.708C185.703 131.708 185.28 131.497 185.28 129.592V125.147H186.762V129.38C186.762 130.015 186.973 130.227 188.031 130.227C189.301 130.227 189.301 130.015 189.301 127.687H189.936ZM186.55 123.454C187.397 123.878 188.878 124.724 189.725 125.359L188.666 126.417C188.031 125.571 186.973 124.513 186.338 123.878L186.55 123.454ZM192.688 129.169L191.418 129.804C190.994 128.322 190.571 127.264 189.936 125.994L190.359 125.571C191.206 126.629 192.053 127.899 192.688 129.169Z" fill="white"/>
<path d="M149.302 115.624C149.09 115.2 148.667 114.989 148.455 114.989C148.455 114.989 148.455 114.989 148.244 114.989C148.032 114.777 147.82 114.777 147.609 114.565C147.185 114.565 146.974 114.565 146.55 114.354C146.127 114.354 145.704 114.142 145.069 114.142C144.434 114.142 143.799 113.93 143.376 114.142C143.164 114.142 142.741 114.354 142.529 114.565C142.318 114.777 142.318 114.989 142.318 115.2C142.318 115.412 142.318 115.624 142.318 115.835C142.318 116.682 142.529 117.317 142.953 117.952C143.164 118.375 143.376 118.586 143.587 119.01C143.799 119.221 144.011 119.645 144.434 119.856C144.646 120.068 144.857 120.28 145.069 120.491C145.281 120.703 145.281 120.703 145.492 120.915C145.916 121.126 146.339 121.126 146.762 121.126C147.397 121.126 148.032 121.126 148.455 121.126C148.878 121.126 148.878 120.703 149.302 120.491C149.725 120.28 149.725 120.28 149.937 119.856C151.207 118.375 150.36 116.893 149.302 115.624Z" fill="white"/>
</g>
<path d="M468 60.2479H48V260.248" stroke="#C4C4C4" stroke-width="2"/>
<defs>
<clipPath id="clip0_811_2960">
<rect width="120" height="44.2328" fill="white" transform="translate(82 94.2479)"/>
</clipPath>
</defs>
</svg>
