<?xml version="1.0" encoding="utf-8"?>
<!-- Generator: Adobe Illustrator 25.2.3, SVG Export Plug-In . SVG Version: 6.00 Build 0)  -->
<svg version="1.1" id="圖層_1" xmlns="http://www.w3.org/2000/svg" xmlns:xlink="http://www.w3.org/1999/xlink" x="0px" y="0px"
	 viewBox="0 0 468 261" style="enable-background:new 0 0 468 261;" xml:space="preserve">
<style type="text/css">
	.st0{fill:#171717;}
	.st1{fill:none;stroke:#C4C4C4;}
	.st2{fill:none;stroke:#C4C4C4;stroke-width:2;}
	.st3{clip-path:url(#SVGID_1_);}
	.st4{fill:#D60C18;}
	.st5{fill:#FFFFFF;}
</style>
<path class="st0" d="M103.3,80c0,0.7-0.1,1.3-0.2,1.9c-0.1,0.5-0.3,1-0.5,1.4c-0.2,0.4-0.5,0.7-0.9,0.9c-0.4,0.2-0.8,0.3-1.3,0.3
	c-0.7,0-1.2-0.2-1.6-0.5c-0.4-0.4-0.7-0.9-0.9-1.5c-0.2-0.7-0.3-1.5-0.3-2.4c0-0.9,0.1-1.7,0.3-2.4c0.2-0.7,0.5-1.2,0.9-1.5
	c0.4-0.4,1-0.5,1.7-0.5c0.7,0,1.2,0.2,1.6,0.5c0.4,0.3,0.8,0.8,1,1.5C103.2,78.2,103.3,79,103.3,80z M98.8,80c0,0.7,0.1,1.4,0.2,1.9
	c0.1,0.5,0.3,0.9,0.5,1.1c0.2,0.2,0.6,0.4,0.9,0.4s0.7-0.1,0.9-0.4c0.2-0.2,0.4-0.6,0.5-1.1c0.1-0.5,0.2-1.1,0.2-1.9
	c0-0.7-0.1-1.4-0.2-1.8c-0.1-0.5-0.3-0.9-0.5-1.1c-0.2-0.2-0.5-0.4-0.9-0.4s-0.7,0.1-0.9,0.4c-0.2,0.2-0.4,0.6-0.5,1.1
	C98.9,78.6,98.8,79.2,98.8,80z M104.6,83.5c0-0.3,0.1-0.5,0.2-0.7c0.2-0.1,0.4-0.2,0.6-0.2c0.2,0,0.4,0.1,0.6,0.2
	c0.2,0.1,0.2,0.3,0.2,0.7c0,0.3-0.1,0.5-0.2,0.7c-0.2,0.1-0.4,0.2-0.6,0.2c-0.2,0-0.4-0.1-0.6-0.2C104.6,84.1,104.6,83.9,104.6,83.5
	z M110.3,75.6c0.5,0,1,0.1,1.3,0.2c0.4,0.2,0.7,0.4,0.9,0.7c0.2,0.3,0.3,0.7,0.3,1.1c0,0.3-0.1,0.6-0.2,0.9
	c-0.1,0.3-0.3,0.5-0.6,0.7c-0.2,0.2-0.5,0.4-0.8,0.5c0.3,0.2,0.6,0.4,0.9,0.6c0.3,0.2,0.5,0.5,0.7,0.7c0.2,0.3,0.3,0.6,0.3,1
	c0,0.5-0.1,0.9-0.4,1.2c-0.2,0.3-0.6,0.6-1,0.8c-0.4,0.2-0.9,0.3-1.5,0.3c-0.6,0-1.1-0.1-1.6-0.3c-0.4-0.2-0.8-0.4-1-0.8
	c-0.2-0.3-0.3-0.8-0.3-1.2c0-0.4,0.1-0.7,0.2-1c0.2-0.3,0.4-0.5,0.6-0.7c0.3-0.2,0.6-0.4,0.9-0.5c-0.3-0.2-0.5-0.3-0.7-0.5
	c-0.2-0.2-0.4-0.4-0.5-0.7s-0.2-0.6-0.2-0.9c0-0.4,0.1-0.8,0.3-1.1c0.2-0.3,0.5-0.5,0.9-0.7C109.4,75.6,109.8,75.6,110.3,75.6z
	 M108.7,82c0,0.4,0.1,0.7,0.4,1c0.3,0.2,0.7,0.4,1.2,0.4c0.4,0,0.7-0.1,0.9-0.2c0.2-0.1,0.4-0.3,0.6-0.5c0.1-0.2,0.2-0.4,0.2-0.7
	s-0.1-0.5-0.2-0.7c-0.1-0.2-0.3-0.4-0.6-0.5c-0.2-0.2-0.5-0.3-0.8-0.4l-0.2-0.1c-0.3,0.1-0.6,0.3-0.8,0.5s-0.4,0.4-0.5,0.6
	C108.7,81.5,108.7,81.8,108.7,82z M110.3,76.6c-0.4,0-0.7,0.1-1,0.3c-0.3,0.2-0.4,0.5-0.4,0.8c0,0.3,0.1,0.5,0.2,0.7
	c0.1,0.2,0.3,0.3,0.5,0.5c0.2,0.1,0.5,0.3,0.7,0.4c0.3-0.1,0.5-0.2,0.7-0.4c0.2-0.1,0.4-0.3,0.5-0.5c0.1-0.2,0.2-0.4,0.2-0.7
	c0-0.4-0.1-0.6-0.4-0.8C111.1,76.7,110.7,76.6,110.3,76.6z M116.5,83.6c0.2,0,0.4,0,0.6-0.1c0.2-0.1,0.3-0.2,0.4-0.4
	c0.1-0.2,0.2-0.3,0.2-0.5h0.9c0,0.3-0.1,0.6-0.3,0.9c-0.2,0.3-0.4,0.5-0.8,0.6c-0.3,0.2-0.7,0.2-1,0.2c-0.4,0-0.7-0.1-1-0.2
	c-0.3-0.1-0.5-0.3-0.7-0.6c-0.2-0.2-0.3-0.5-0.4-0.8c-0.1-0.3-0.1-0.7-0.1-1v-0.2c0-0.4,0-0.7,0.1-1c0.1-0.3,0.2-0.6,0.4-0.8
	c0.2-0.2,0.4-0.4,0.7-0.6c0.3-0.1,0.6-0.2,1-0.2c0.4,0,0.8,0.1,1.1,0.3c0.3,0.2,0.6,0.4,0.7,0.7c0.2,0.3,0.3,0.6,0.3,1h-0.9
	c0-0.2-0.1-0.4-0.2-0.6c-0.1-0.2-0.2-0.3-0.4-0.4c-0.2-0.1-0.4-0.2-0.6-0.2c-0.3,0-0.5,0.1-0.7,0.2c-0.2,0.1-0.3,0.3-0.4,0.4
	c-0.1,0.2-0.2,0.4-0.2,0.6c0,0.2-0.1,0.4-0.1,0.7v0.2c0,0.2,0,0.5,0.1,0.7c0,0.2,0.1,0.4,0.2,0.6c0.1,0.2,0.3,0.3,0.4,0.4
	C115.9,83.5,116.2,83.6,116.5,83.6z M120.4,80v4.2h-0.9V79h0.9L120.4,80z M120.2,81.4l-0.4,0c0-0.4,0.1-0.7,0.1-1
	c0.1-0.3,0.2-0.6,0.4-0.8c0.2-0.2,0.4-0.4,0.7-0.5c0.3-0.1,0.6-0.2,0.9-0.2c0.2,0,0.5,0,0.7,0.1c0.2,0.1,0.4,0.2,0.5,0.3
	c0.2,0.1,0.3,0.3,0.4,0.6s0.1,0.5,0.1,0.8v3.5h-0.9v-3.5c0-0.3,0-0.5-0.1-0.7c-0.1-0.2-0.2-0.3-0.4-0.4c-0.2-0.1-0.4-0.1-0.6-0.1
	c-0.3,0-0.5,0-0.7,0.1c-0.2,0.1-0.3,0.2-0.4,0.4c-0.1,0.2-0.2,0.4-0.2,0.6C120.2,80.9,120.2,81.2,120.2,81.4z M123.6,80.9l-0.6,0.2
	c0-0.3,0-0.6,0.1-0.8c0.1-0.3,0.2-0.5,0.4-0.7c0.2-0.2,0.4-0.4,0.7-0.5c0.3-0.1,0.6-0.2,0.9-0.2c0.3,0,0.5,0,0.8,0.1
	c0.2,0.1,0.4,0.2,0.6,0.3c0.2,0.2,0.3,0.4,0.3,0.6s0.1,0.5,0.1,0.9v3.5H126v-3.5c0-0.3,0-0.5-0.1-0.7c-0.1-0.2-0.2-0.3-0.4-0.3
	c-0.2-0.1-0.4-0.1-0.6-0.1c-0.2,0-0.4,0-0.5,0.1c-0.2,0.1-0.3,0.2-0.4,0.3c-0.1,0.1-0.2,0.3-0.2,0.4
	C123.6,80.6,123.6,80.7,123.6,80.9z"/>
<line class="st1" x1="0" y1="94.7" x2="88" y2="94.7"/>
<path class="st0" d="M6.3,113c0,0.7-0.1,1.3-0.2,1.9c-0.1,0.5-0.3,1-0.5,1.4c-0.2,0.4-0.5,0.7-0.9,0.9c-0.4,0.2-0.8,0.3-1.3,0.3
	c-0.7,0-1.2-0.2-1.6-0.5c-0.4-0.4-0.7-0.9-0.9-1.5c-0.2-0.7-0.3-1.5-0.3-2.4c0-0.9,0.1-1.7,0.3-2.4c0.2-0.7,0.5-1.2,0.9-1.5
	c0.4-0.4,1-0.5,1.7-0.5c0.7,0,1.2,0.2,1.6,0.5c0.4,0.3,0.8,0.8,1,1.5C6.2,111.2,6.3,112,6.3,113z M1.8,113c0,0.7,0.1,1.4,0.2,1.9
	c0.1,0.5,0.3,0.9,0.5,1.1c0.2,0.2,0.6,0.4,0.9,0.4s0.7-0.1,0.9-0.4c0.2-0.2,0.4-0.6,0.5-1.1C5,114.3,5,113.7,5,113
	c0-0.7-0.1-1.4-0.2-1.8c-0.1-0.5-0.3-0.9-0.5-1.1c-0.2-0.2-0.5-0.4-0.9-0.4s-0.7,0.1-0.9,0.4c-0.2,0.2-0.4,0.6-0.5,1.1
	C1.9,111.6,1.8,112.2,1.8,113z M7.6,116.5c0-0.3,0.1-0.5,0.2-0.7c0.2-0.1,0.4-0.2,0.6-0.2c0.2,0,0.4,0.1,0.6,0.2
	c0.2,0.1,0.2,0.3,0.2,0.7c0,0.3-0.1,0.5-0.2,0.7s-0.4,0.2-0.6,0.2c-0.2,0-0.4-0.1-0.6-0.2C7.6,117.1,7.6,116.9,7.6,116.5z
	 M13.3,108.6c0.5,0,1,0.1,1.3,0.2c0.4,0.2,0.7,0.4,0.9,0.7c0.2,0.3,0.3,0.7,0.3,1.1c0,0.3-0.1,0.6-0.2,0.9c-0.1,0.3-0.3,0.5-0.6,0.7
	c-0.2,0.2-0.5,0.4-0.8,0.5c0.3,0.2,0.6,0.4,0.9,0.6c0.3,0.2,0.5,0.5,0.7,0.7c0.2,0.3,0.3,0.6,0.3,1c0,0.5-0.1,0.9-0.4,1.2
	c-0.2,0.3-0.6,0.6-1,0.8s-0.9,0.3-1.5,0.3c-0.6,0-1.1-0.1-1.6-0.3c-0.4-0.2-0.8-0.4-1-0.8c-0.2-0.3-0.3-0.8-0.3-1.2
	c0-0.4,0.1-0.7,0.2-1s0.4-0.5,0.6-0.7s0.6-0.4,0.9-0.5c-0.3-0.2-0.5-0.3-0.7-0.5c-0.2-0.2-0.4-0.4-0.5-0.7s-0.2-0.6-0.2-0.9
	c0-0.4,0.1-0.8,0.3-1.1c0.2-0.3,0.5-0.5,0.9-0.7C12.4,108.6,12.8,108.6,13.3,108.6z M11.7,115c0,0.4,0.1,0.7,0.4,1
	c0.3,0.2,0.7,0.4,1.2,0.4c0.4,0,0.7-0.1,0.9-0.2c0.2-0.1,0.4-0.3,0.6-0.5c0.1-0.2,0.2-0.4,0.2-0.7s-0.1-0.5-0.2-0.7
	c-0.1-0.2-0.3-0.4-0.6-0.5c-0.2-0.2-0.5-0.3-0.8-0.4l-0.2-0.1c-0.3,0.1-0.6,0.3-0.8,0.5c-0.2,0.2-0.4,0.4-0.5,0.6
	C11.7,114.5,11.7,114.8,11.7,115z M13.3,109.6c-0.4,0-0.7,0.1-1,0.3c-0.3,0.2-0.4,0.5-0.4,0.8c0,0.3,0.1,0.5,0.2,0.7
	c0.1,0.2,0.3,0.3,0.5,0.5c0.2,0.1,0.5,0.3,0.7,0.4c0.3-0.1,0.5-0.2,0.7-0.4c0.2-0.1,0.4-0.3,0.5-0.5c0.1-0.2,0.2-0.4,0.2-0.7
	c0-0.4-0.1-0.6-0.4-0.8C14.1,109.7,13.7,109.6,13.3,109.6z M19.5,116.6c0.2,0,0.4,0,0.6-0.1c0.2-0.1,0.3-0.2,0.4-0.4
	c0.1-0.2,0.2-0.3,0.2-0.5h0.9c0,0.3-0.1,0.6-0.3,0.9c-0.2,0.3-0.4,0.5-0.8,0.6c-0.3,0.2-0.7,0.2-1,0.2c-0.4,0-0.7-0.1-1-0.2
	c-0.3-0.1-0.5-0.3-0.7-0.6c-0.2-0.2-0.3-0.5-0.4-0.8c-0.1-0.3-0.1-0.7-0.1-1v-0.2c0-0.4,0-0.7,0.1-1c0.1-0.3,0.2-0.6,0.4-0.8
	c0.2-0.2,0.4-0.4,0.7-0.6c0.3-0.1,0.6-0.2,1-0.2c0.4,0,0.8,0.1,1.1,0.3c0.3,0.2,0.6,0.4,0.7,0.7c0.2,0.3,0.3,0.6,0.3,1h-0.9
	c0-0.2-0.1-0.4-0.2-0.6c-0.1-0.2-0.2-0.3-0.4-0.4c-0.2-0.1-0.4-0.2-0.6-0.2c-0.3,0-0.5,0.1-0.7,0.2c-0.2,0.1-0.3,0.3-0.4,0.4
	c-0.1,0.2-0.2,0.4-0.2,0.6c0,0.2-0.1,0.4-0.1,0.7v0.2c0,0.2,0,0.5,0.1,0.7c0,0.2,0.1,0.4,0.2,0.6c0.1,0.2,0.3,0.3,0.4,0.4
	C18.9,116.6,19.2,116.6,19.5,116.6z M23.4,113v4.2h-0.9V112h0.9L23.4,113z M23.2,114.4l-0.4,0c0-0.4,0.1-0.7,0.1-1
	c0.1-0.3,0.2-0.6,0.4-0.8c0.2-0.2,0.4-0.4,0.7-0.5c0.3-0.1,0.6-0.2,0.9-0.2c0.2,0,0.5,0,0.7,0.1c0.2,0.1,0.4,0.2,0.5,0.3
	c0.2,0.1,0.3,0.3,0.4,0.6c0.1,0.2,0.1,0.5,0.1,0.8v3.5h-0.9v-3.5c0-0.3,0-0.5-0.1-0.7c-0.1-0.2-0.2-0.3-0.4-0.4
	c-0.2-0.1-0.4-0.1-0.6-0.1c-0.3,0-0.5,0-0.7,0.1c-0.2,0.1-0.3,0.2-0.4,0.4c-0.1,0.2-0.2,0.4-0.2,0.6
	C23.2,113.9,23.2,114.2,23.2,114.4z M26.6,113.9l-0.6,0.2c0-0.3,0.1-0.6,0.1-0.8c0.1-0.3,0.2-0.5,0.4-0.7c0.2-0.2,0.4-0.4,0.7-0.5
	c0.3-0.1,0.6-0.2,0.9-0.2c0.3,0,0.5,0,0.8,0.1c0.2,0.1,0.4,0.2,0.6,0.3c0.2,0.2,0.3,0.4,0.3,0.6c0.1,0.2,0.1,0.5,0.1,0.9v3.5H29
	v-3.5c0-0.3,0-0.5-0.1-0.7c-0.1-0.2-0.2-0.3-0.4-0.3c-0.2-0.1-0.4-0.1-0.6-0.1c-0.2,0-0.4,0-0.5,0.1c-0.2,0.1-0.3,0.2-0.4,0.3
	c-0.1,0.1-0.2,0.3-0.2,0.4C26.6,113.6,26.6,113.7,26.6,113.9z"/>
<path class="st1" d="M82,15.6h120"/>
<path class="st1" d="M202,15.2v10"/>
<path class="st0" d="M137.1,4.7c0,0.4-0.1,0.7-0.2,1c-0.1,0.3-0.4,0.5-0.6,0.7c-0.3,0.2-0.6,0.3-0.9,0.4v0c0.7,0.1,1.2,0.3,1.5,0.6
	c0.3,0.3,0.5,0.8,0.5,1.4c0,0.5-0.1,0.9-0.4,1.3c-0.2,0.4-0.6,0.7-1.1,0.9c-0.5,0.2-1.1,0.3-1.9,0.3c-0.5,0-0.9,0-1.3-0.1
	c-0.4-0.1-0.8-0.2-1.1-0.4V9.7c0.4,0.2,0.7,0.3,1.2,0.4c0.4,0.1,0.8,0.1,1.2,0.1c0.7,0,1.3-0.1,1.6-0.4c0.3-0.3,0.5-0.7,0.5-1.2
	c0-0.3-0.1-0.6-0.3-0.8c-0.2-0.2-0.4-0.4-0.8-0.5c-0.3-0.1-0.8-0.2-1.3-0.2H133v-1h0.8c0.5,0,0.9-0.1,1.2-0.2
	c0.3-0.1,0.5-0.3,0.7-0.5c0.1-0.2,0.2-0.5,0.2-0.8c0-0.4-0.1-0.7-0.4-0.9c-0.2-0.2-0.6-0.3-1.1-0.3c-0.3,0-0.6,0-0.8,0.1
	c-0.2,0.1-0.5,0.1-0.7,0.3c-0.2,0.1-0.4,0.2-0.6,0.3l-0.6-0.9c0.2-0.2,0.5-0.3,0.7-0.4c0.3-0.1,0.6-0.2,0.9-0.3
	c0.3-0.1,0.7-0.1,1.1-0.1c0.9,0,1.6,0.2,2,0.6C136.9,3.5,137.1,4,137.1,4.7z M138.7,10.5c0-0.3,0.1-0.5,0.2-0.7
	c0.2-0.1,0.4-0.2,0.6-0.2c0.2,0,0.4,0.1,0.6,0.2c0.2,0.1,0.2,0.3,0.2,0.7s-0.1,0.5-0.2,0.7c-0.2,0.1-0.4,0.2-0.6,0.2
	c-0.2,0-0.4-0.1-0.6-0.2C138.8,11.1,138.7,10.9,138.7,10.5z M144.5,5.9c0.6,0,1.1,0.1,1.5,0.3c0.4,0.2,0.8,0.5,1,0.9
	c0.2,0.4,0.4,0.8,0.4,1.4c0,0.6-0.1,1.1-0.4,1.5c-0.3,0.4-0.6,0.8-1.1,1c-0.5,0.2-1.1,0.3-1.8,0.3c-0.4,0-0.9,0-1.2-0.1
	s-0.7-0.2-1-0.3V9.7c0.3,0.2,0.6,0.3,1,0.4c0.4,0.1,0.8,0.2,1.2,0.2c0.4,0,0.8-0.1,1-0.2c0.3-0.1,0.5-0.3,0.7-0.6
	c0.2-0.3,0.3-0.6,0.3-1c0-0.5-0.2-0.9-0.5-1.2C145.2,7.1,144.7,7,144,7c-0.2,0-0.5,0-0.8,0.1c-0.3,0-0.5,0.1-0.7,0.1L142,6.8
	l0.3-4.1h4.4v1.1h-3.3l-0.2,2.2c0.1,0,0.3,0,0.5-0.1C143.9,5.9,144.2,5.9,144.5,5.9z M150.6,10.6c0.2,0,0.4,0,0.6-0.1
	c0.2-0.1,0.3-0.2,0.4-0.4c0.1-0.2,0.2-0.3,0.2-0.5h0.9c0,0.3-0.1,0.6-0.3,0.9c-0.2,0.3-0.4,0.5-0.8,0.6c-0.3,0.2-0.7,0.2-1,0.2
	c-0.4,0-0.7-0.1-1-0.2c-0.3-0.1-0.5-0.3-0.7-0.6c-0.2-0.2-0.3-0.5-0.4-0.8c-0.1-0.3-0.1-0.7-0.1-1V8.5c0-0.4,0-0.7,0.1-1
	c0.1-0.3,0.2-0.6,0.4-0.8c0.2-0.2,0.4-0.4,0.7-0.6c0.3-0.1,0.6-0.2,1-0.2c0.4,0,0.8,0.1,1.1,0.3c0.3,0.2,0.6,0.4,0.7,0.7
	c0.2,0.3,0.3,0.6,0.3,1h-0.9c0-0.2-0.1-0.4-0.2-0.6c-0.1-0.2-0.2-0.3-0.4-0.4c-0.2-0.1-0.4-0.2-0.6-0.2c-0.3,0-0.5,0.1-0.7,0.2
	c-0.2,0.1-0.3,0.3-0.4,0.4c-0.1,0.2-0.2,0.4-0.2,0.6c0,0.2-0.1,0.4-0.1,0.7v0.2c0,0.2,0,0.5,0.1,0.7c0,0.2,0.1,0.4,0.2,0.6
	c0.1,0.2,0.3,0.3,0.4,0.4C150.1,10.5,150.3,10.6,150.6,10.6z M154.5,7v4.2h-0.9V6h0.9L154.5,7z M154.4,8.4l-0.4,0
	c0-0.4,0.1-0.7,0.1-1c0.1-0.3,0.2-0.6,0.4-0.8c0.2-0.2,0.4-0.4,0.7-0.5c0.3-0.1,0.6-0.2,0.9-0.2c0.2,0,0.5,0,0.7,0.1
	c0.2,0.1,0.4,0.2,0.5,0.3c0.2,0.1,0.3,0.3,0.4,0.6c0.1,0.2,0.1,0.5,0.1,0.8v3.5h-0.9V7.8c0-0.3,0-0.5-0.1-0.7
	c-0.1-0.2-0.2-0.3-0.4-0.4c-0.2-0.1-0.4-0.1-0.6-0.1c-0.3,0-0.5,0-0.7,0.1c-0.2,0.1-0.3,0.2-0.4,0.4c-0.1,0.2-0.2,0.4-0.2,0.6
	C154.4,7.9,154.4,8.2,154.4,8.4z M157.8,7.9l-0.6,0.2c0-0.3,0.1-0.6,0.1-0.8c0.1-0.3,0.2-0.5,0.4-0.7c0.2-0.2,0.4-0.4,0.7-0.5
	c0.3-0.1,0.6-0.2,0.9-0.2c0.3,0,0.5,0,0.8,0.1c0.2,0.1,0.4,0.2,0.6,0.3c0.2,0.2,0.3,0.3,0.3,0.6c0.1,0.2,0.1,0.5,0.1,0.9v3.5h-0.9
	V7.8c0-0.3,0-0.5-0.1-0.7c-0.1-0.2-0.2-0.3-0.4-0.3c-0.2-0.1-0.4-0.1-0.6-0.1c-0.2,0-0.4,0-0.5,0.1c-0.2,0.1-0.3,0.2-0.4,0.3
	c-0.1,0.1-0.2,0.3-0.2,0.4C157.8,7.6,157.8,7.7,157.8,7.9z"/>
<path class="st1" d="M82,15.2v88"/>
<path class="st2" d="M468,60.2H48v200"/>
<g>
	<defs>
		<rect id="SVGID_3_" x="82" y="94.7" width="120" height="44.1"/>
	</defs>
	<clipPath id="SVGID_1_">
		<use xlink:href="#SVGID_3_"  style="overflow:visible;"/>
	</clipPath>
	<g class="st3">
		<path class="st4" d="M202,94.7H82v44.1h120V94.7z"/>
		<path class="st5" d="M95,107.3c0.7,0.4,1.4,0.6,2.2,0.4c0.7-0.2,1.4-0.4,2.2-0.6c1.3-0.4,2.5-0.8,3.8-1.1c0.6-0.2,1.3-0.3,1.9-0.5
			c0.3,0,0.6-0.1,0.9-0.2c0.3-0.1,0.5-0.3,0.8-0.4c0.4-0.2,0.8-0.4,1.2-0.5c1.2-0.5,3.8-1.1,3.1-2.9c-0.2-0.6-0.8-0.9-1.3-1.1
			c-0.6-0.2-1.2-0.3-1.8-0.2c-0.6,0-1.1,0.2-1.6,0.6c-0.6,0.8-1.7,1-2.4,1.6c-0.3,0.2-0.7,0.2-0.9,0.4c-0.1,0.1-0.2,0.2-0.3,0.2
			c-0.1,0-0.3,0-0.4,0c-0.3,0-0.5,0.1-0.8,0.1c-0.8,0.1-1.5,0.3-2.3,0.6c-0.4,0.2-0.7,0.4-1,0.6c-0.3,0.2-0.6,0.1-1,0.2
			c-0.4,0-0.7,0.1-1,0.1l-1,0.2l-0.5,0.1c-0.2,0-0.3,0-0.5,0.1c-0.1,0.1-0.2,0.2-0.2,0.4c0,0.2,0,0.3,0.1,0.5
			C94.3,106.3,94.4,106.9,95,107.3z"/>
		<path class="st5" d="M144.1,106.4c0.6-0.2,1.1-0.3,1.4-0.9c0.1-0.2,0.2-0.4,0.3-0.5c0.2-0.4,0.3-0.8,0.3-1.2
			c-0.2-0.3-0.4-0.6-0.7-0.8c-0.6-0.3-1.2-0.5-1.8-0.5c-0.7-0.2-1.5-0.3-2.2-0.4c-0.4-0.1-0.9,0-1.3,0.1c-0.8,0.2-1.7,0.5-2.4,0.9
			c-0.9,0.4-2,0.2-2.9,0.7c-0.4,0.2-0.8,0.3-1.2,0.3c-0.5,0.1-1,0.3-1.5,0.5c-0.8,0.3-1.7,0.5-2.5,0.8c-0.6,0.2-1.2,0-1.8,0.3
			c-0.2,0.2-0.5,0.3-0.7,0.4c-0.3,0.1-0.5,0.2-0.8,0.3c-1,0.3-2,0.6-3,0.8c-1.7,0.6-3.7,0.3-5.5,0.7c-0.5,0.1-1.1,0.2-1.5,0.6
			c-0.1,0.6,0.3,0.9,0.7,1.1c0.4,0.3,0.8,0.9,1.2,1.2c0.4,0.2,0.9,0.4,1.4,0.6c1.1,0.4,2,1,3.2,1.2c0.6,0.1,1.9,0.3,2.5-0.1
			c0.7-0.4,1.4-0.8,2.1-1.2c0.3-0.2,0.5-0.5,0.9-0.7c0.3-0.2,0.7-0.4,1-0.6c0.4-0.4,0.8-0.8,1.3-1.1c0.6-0.1,1.2-0.8,1.8-0.4
			c0.3,0.1,0.2,0.4,0.2,0.7c0,0.3,0.2,0.6,0.2,0.9c0,0.3-0.1,0.6-0.1,0.9v0.5c0.3,6-0.2,11.6-0.7,17.7c-0.2,0.7,0.1,1.4,0.2,2.1
			c0,0.3,0.1,0.6,0.2,0.8c0.3,0.5,0.7,0.9,1.3,1.2c1.1,0.4,2.6,0.5,3.4-0.4c0.9-0.4,1.1-1.2,1.2-2.1c0.1-0.8,0.2-1.6,0.2-2.4
			c0-0.6-0.1-1.2-0.3-1.8c-0.1-0.3-0.1-0.6-0.2-0.9c-0.1-0.5-0.3-1-0.4-1.5c-0.4-2.4-0.5-4.8-0.5-7.2c0.1-1.6-0.4-3.6-0.6-5
			c-0.5-1,0.2-2.1-0.3-3.1c-0.2-0.5-0.1-1.2-0.1-1.7c0-0.5,0.3-0.6,0.7-0.8c0.1-0.1,0.3-0.2,0.4-0.3c0.1-0.1,0.3-0.2,0.5-0.2
			c0.2-0.1,0.3-0.1,0.5-0.1c1.1-0.3,2.4-0.5,3.4,0.2c0.3,0.2,0.6,0.4,0.9,0.4C142.8,106.6,143.5,106.6,144.1,106.4z"/>
		<path class="st5" d="M123.7,129c-0.2-0.2-0.5-0.4-0.8-0.5c-0.3-0.1-0.7-0.1-1-0.3c-0.8-0.3-1.6-0.7-2.3-1.2
			c-0.2-0.1-0.3-0.2-0.5-0.3c-0.2,0-0.3-0.1-0.5-0.1c-0.3-0.1-0.5-0.4-0.8-0.5c-0.1-0.1-0.3-0.1-0.4-0.2c-0.3-0.3-0.6-0.5-1-0.6
			c-0.3-0.2-0.7-0.3-1-0.5c-0.3-0.2-0.5-0.4-0.8-0.6c-0.5-0.5-1-0.9-1.5-1.2c-1.9-0.9-3.3-3.2-4.7-4.7c-0.9-0.9-2.1-2.1-2.1-3.5
			c0.4-0.9,1.5-1.2,2.4-1.7c1-0.8,2.5-1.2,3.1-2.4c0.1-0.2,0.2-0.5,0.1-0.7c0-0.2-0.1-0.5-0.2-0.7c-0.3-0.7-1.2-0.7-1.9-0.9
			c-0.4,0-0.8,0-1.2,0.1c-0.7,0.3-1.3,0.6-1.8,1.1c-0.2,0.2-0.5,0.5-0.7,0.7c-0.3,0.2-0.6,0.3-0.9,0.4c-0.2,0.1-0.3,0.1-0.5,0.1
			c-0.2,0-0.3-0.1-0.5-0.2c-0.3-0.7-0.6-1.3-1.1-1.9c-0.2-0.1-0.3-0.1-0.5-0.1c-0.2,0-0.3-0.2-0.4-0.2c-0.2-0.1-0.5,0.1-0.8,0.1
			c-0.3,0-0.6,0-0.9,0.1c-0.4,0.1-0.7,0.4-0.9,0.7c-0.2,0.4-0.1,0.6-0.2,1c0,0.3-0.1,0.5-0.1,0.8c-0.1,0.3-0.1,0.5-0.1,0.8
			c0,0.2,0.1,0.5,0.2,0.7c0,0.4,0,0.7-0.2,1c-0.2,0.3-0.4,0.6-0.7,0.8c-0.3,0.2-0.5,0.4-0.8,0.6c-0.3,0.2-0.7,0.2-1.1,0.4
			c-0.3,0.2-0.7,0.3-1,0.6c-0.3,0.2-0.6,0.4-0.9,0.6c-0.3,0.2-0.7,0.2-1,0.4c-0.6,0.3-1.3,0.3-1.8,0.6c-0.6,0.1-1.7-0.1-2,0.7
			c0.1,0.7,0.4,1.3,0.9,1.8c0.3,0.8,1.3,1,2,1.5c1,0.3,2-0.2,3-0.1c0.4,1.4,0.3,2.8-0.7,3.8c-0.2,0.5-0.4,1-0.8,1.5
			c-0.2,0.2-0.4,0.4-0.5,0.6c-0.2,0.2-0.2,0.4-0.4,0.6c-0.2,0.2-0.4,0.5-0.7,0.6c-0.4,0.2-0.5-0.1-0.8-0.2c-0.2-0.1-0.4-0.2-0.6-0.2
			c-0.4-0.1-0.8-0.1-1.2,0c-0.3,0.1-0.5,0.4-0.6,0.6c-0.2,0.2-0.4,0.5-0.4,0.8c0,0.2,0.1,0.4,0.1,0.5c0.1,0.4-0.1,0.6,0.2,0.9
			c0.2,0.3,0.1,0.4,0.2,0.7c0,0.1,0.1,0.3,0.2,0.4c0.2,0.2,0.4,0.4,0.6,0.6c0.2,0.1,0.4,0.3,0.6,0.3c0.2,0,0.4,0.1,0.7,0.1
			c0.4,0.2,0.8,0.3,1.3,0.3c0.8,0,1.4-0.4,2.1-0.6c0.3-0.1,0.7-0.2,1-0.4c0.3-0.2,0.6-0.4,0.8-0.7c0.3-0.3,0.7-0.6,1-0.9
			c0.6-0.6,1-1.2,1.5-1.8c0.2-0.3,0.4-0.7,0.6-1c0.2-0.3,0.2-0.6,0.4-1c0.1-0.2,0.2-0.3,0.3-0.5c0.1-0.3,0.3-0.6,0.4-1
			c0.1-0.3,0.2-0.6,0.3-0.9c0.2-0.5,0.3-1.1,0.4-1.6c0-0.2,0.1-0.5,0.2-0.7c0-0.2,0-0.6,0.1-0.9c0.1-0.4,0.3-0.8,0.5-1.2
			c0.6,0.1,1.1,0.5,1.5,1c0.2,0.2,0.4,0.5,0.7,0.7c0.3,0.2,0.5,0.5,0.7,0.8c0.8,0.6,1.4,1.6,1.9,2.4c0.7,1,1.4,2,2.1,3.1
			c0.7,1,1.3,2,2.3,2.7c0.7,0.6,1.4,1.2,2.2,1.7c0.6,0.3,1.3,0.2,1.9,0.2c1.2,0,2.3-0.1,3.5-0.2c0.6-0.1,1.1-0.1,1.7-0.2
			c0.3,0,0.5,0,0.8,0c0.5-0.1,1-0.3,1.5-0.3s1.1-0.2,1.4-0.6c0.1-0.2,0.2-0.3,0.3-0.5c0-0.2,0-0.4,0-0.6
			C124.8,129.6,124.2,129.3,123.7,129z"/>
		<path class="st5" d="M156,124.8c0.2,0,0.4,0,0.7-0.1c0.2,0,0.4-0.1,0.6-0.2l0.1-0.5h-0.1c-0.2,0.1-0.4,0.3-0.6,0.3
			c-0.2,0.1-0.4,0.1-0.6,0.1c-0.2,0-0.4,0-0.6-0.1c-0.2-0.1-0.4-0.2-0.5-0.4c-0.3-0.4-0.4-0.9-0.4-1.4c0-0.5,0.1-0.9,0.4-1.3
			c0.1-0.2,0.3-0.3,0.5-0.4c0.2-0.1,0.4-0.1,0.6-0.1c0.3,0,0.5,0.1,0.7,0.2c0.2,0.1,0.3,0.3,0.4,0.5h0.1c0-0.1,0-0.3,0.1-0.4
			c0-0.1,0.1-0.2,0.1-0.4c-0.2-0.1-0.4-0.2-0.7-0.2c-0.2,0-0.4-0.1-0.7-0.1c-0.6,0-1.2,0.2-1.7,0.6c-0.2,0.2-0.4,0.4-0.5,0.7
			c-0.1,0.3-0.2,0.6-0.1,0.9c0,0.3,0,0.6,0.1,0.9c0.1,0.3,0.3,0.5,0.5,0.7C154.8,124.7,155.4,124.9,156,124.8z"/>
		<path class="st5" d="M160.8,123.3c0-0.2,0-0.4-0.1-0.6c-0.1-0.2-0.2-0.4-0.3-0.5c-0.3-0.3-0.7-0.4-1.1-0.4c-0.4,0-0.8,0.2-1.1,0.5
			c-0.3,0.3-0.4,0.7-0.5,1.1c0,0.4,0.1,0.8,0.4,1.1c0.2,0.1,0.3,0.2,0.5,0.3c0.2,0.1,0.4,0.1,0.6,0.1c0.2,0,0.4,0,0.5-0.1
			c0.2-0.1,0.3-0.1,0.5-0.3c0.1-0.1,0.3-0.3,0.3-0.4c0.1-0.2,0.1-0.3,0.2-0.5C160.8,123.5,160.8,123.4,160.8,123.3L160.8,123.3z
			 M159.8,124.2c0,0.1-0.1,0.2-0.2,0.2c-0.1,0.1-0.2,0.1-0.3,0.1c-0.1,0-0.2,0-0.3-0.1c-0.1-0.1-0.2-0.1-0.2-0.2
			c-0.1-0.3-0.2-0.6-0.1-1c0-0.3,0-0.7,0.1-1c0.1-0.1,0.2-0.2,0.3-0.3c0.1,0,0.3,0,0.4,0c0.1,0.1,0.2,0.1,0.2,0.2
			c0.1,0.3,0.2,0.6,0.1,1C159.9,123.6,159.9,123.9,159.8,124.2z"/>
		<path class="st5" d="M165.9,124.7c0-0.2,0-0.4,0-0.6v-0.9c0-0.3,0-0.6,0-0.8c0-0.1-0.1-0.3-0.2-0.4c-0.1-0.1-0.2-0.2-0.3-0.2
			c-0.2-0.1-0.3-0.1-0.5-0.1c-0.2,0-0.3,0.1-0.5,0.1c-0.2,0.1-0.3,0.3-0.4,0.4c-0.1-0.2-0.2-0.3-0.3-0.4c-0.2-0.1-0.3-0.1-0.5-0.1
			c-0.2,0-0.3,0-0.5,0.1c-0.2,0.1-0.3,0.2-0.4,0.4v-0.4h-0.8c0,0.3,0,0.6,0,0.9c0,0.2,0,0.4,0,0.6v0.6c0,0.2,0,0.5,0,0.9h0.9v-0.1
			c0-0.2,0-0.4,0-0.5v-1c0-0.3,0-0.5,0.1-0.7c0-0.1,0.1-0.1,0.2-0.1c0.1,0,0.1-0.1,0.2-0.1c0.1,0,0.1,0,0.2,0.1
			c0.1,0,0.1,0.1,0.2,0.1c0.1,0.3,0.1,0.7,0.1,1v0.6c0,0.2,0,0.4,0,0.7h0.9v-1.5c0-0.3,0-0.5,0.1-0.7c0-0.1,0.1-0.1,0.2-0.2
			c0.1,0,0.1-0.1,0.2-0.1s0.2,0,0.2,0.1c0.1,0,0.1,0.1,0.2,0.2c0.1,0.3,0.1,0.6,0.1,0.9v0.6c0,0.2,0,0.5,0,0.7H165.9L165.9,124.7z"
			/>
		<path class="st5" d="M168.4,124.7h0.9v-1.5c0-0.3,0-0.5,0.1-0.7c0-0.1,0.1-0.1,0.2-0.2c0.1,0,0.1-0.1,0.2-0.1s0.2,0,0.2,0.1
			c0.1,0,0.1,0.1,0.2,0.2c0.1,0.3,0.1,0.6,0.1,0.9v0.6c0,0.2,0,0.5,0,0.7h0.9c0-0.2,0-0.4,0-0.6v-0.9c0-0.3-0.1-0.5-0.1-0.8
			c0-0.1-0.1-0.3-0.2-0.4c-0.1-0.1-0.2-0.2-0.3-0.2c-0.2-0.1-0.3-0.1-0.5-0.1c-0.2,0-0.3,0.1-0.5,0.1c-0.2,0.1-0.3,0.3-0.4,0.4
			c-0.1-0.2-0.2-0.3-0.3-0.4c-0.2-0.1-0.3-0.1-0.5-0.1c-0.2,0-0.3,0-0.5,0.1c-0.2,0.1-0.3,0.2-0.4,0.4v-0.4h-0.9c0,0.3,0,0.6,0,0.9
			c0,0.2,0,0.4,0,0.6v0.6c0,0.2,0,0.5,0,0.9h0.9v-0.1c0-0.2,0-0.4,0-0.5v-1c0-0.3,0-0.5,0.1-0.7c0-0.1,0.1-0.1,0.1-0.1
			c0.1,0,0.1-0.1,0.2-0.1c0.1,0,0.1,0,0.2,0c0.1,0,0.1,0,0.2,0.1c0,0,0.1,0.1,0.1,0.1c0.1,0.3,0.1,0.7,0.1,1v0.6
			C168.5,124.3,168.4,124.5,168.4,124.7z"/>
		<path class="st5" d="M174.7,123.3c0-0.2,0-0.4-0.1-0.6c-0.1-0.2-0.2-0.4-0.3-0.5c-0.3-0.2-0.7-0.4-1.1-0.3c-0.4,0-0.8,0.2-1,0.5
			s-0.4,0.7-0.5,1c0,0.4,0.1,0.8,0.3,1.1c0.3,0.3,0.7,0.4,1.1,0.4c0.4,0,0.8-0.1,1.1-0.4c0.1-0.2,0.2-0.3,0.3-0.5
			C174.7,123.7,174.8,123.5,174.7,123.3z M173.7,124.2c-0.1,0.1-0.2,0.2-0.3,0.3c-0.1,0-0.3,0-0.4-0.1c-0.1-0.1-0.2-0.1-0.2-0.2
			c-0.1-0.3-0.2-0.6-0.1-1c0-0.3,0-0.7,0.1-1c0-0.1,0.1-0.1,0.1-0.2c0.1,0,0.1-0.1,0.2-0.1c0.1,0,0.1,0,0.2,0c0.1,0,0.1,0,0.2,0.1
			c0.1,0.1,0.2,0.1,0.2,0.2c0.1,0.3,0.2,0.6,0.1,1C173.9,123.6,173.8,123.9,173.7,124.2L173.7,124.2z"/>
		<path class="st5" d="M177,122.5c0.1,0.3,0.1,0.6,0.1,0.9v0.8c0,0.2,0,0.4,0,0.6h0.9c0-0.2,0-0.3,0-0.5c0-0.2,0-0.3,0-0.5v-0.8
			c0-0.2,0-0.4,0-0.6c0-0.1-0.1-0.2-0.1-0.3c-0.1-0.1-0.2-0.2-0.3-0.2c-0.2-0.1-0.3-0.1-0.5-0.1c-0.2,0-0.3,0-0.5,0.1
			c-0.2,0.1-0.3,0.2-0.4,0.4v-0.4h-0.8c0,0.2,0,0.5,0,0.7v1.4c0,0.2,0,0.5,0,0.8h0.9c0-0.3,0-0.6,0-0.8c0-0.2,0-0.4,0-0.6
			c0-0.3,0-0.5,0.1-0.8c0-0.1,0.1-0.1,0.1-0.2c0.1,0,0.1-0.1,0.2-0.1c0.1,0,0.1,0,0.2,0C176.9,122.4,177,122.4,177,122.5z"/>
		<path class="st5" d="M184,120.6h-0.3c-0.1,0.5-0.3,1-0.4,1.5c-0.1,0.5-0.3,1-0.5,1.5c-0.2-0.5-0.4-1-0.5-1.5
			c-0.2-0.5-0.3-1-0.5-1.5h-0.6c-0.2,0.5-0.3,1-0.5,1.5c-0.2,0.5-0.3,1-0.5,1.6c-0.2-0.5-0.3-1-0.4-1.5c-0.1-0.5-0.3-1-0.4-1.5h-1
			c0.2,0.7,0.5,1.4,0.7,2.1c0.2,0.7,0.4,1.4,0.6,2h0.6c0.2-0.5,0.3-1,0.5-1.5c0.2-0.5,0.4-1,0.5-1.4c0.2,0.5,0.4,1,0.5,1.5
			c0.2,0.5,0.3,1,0.5,1.4h0.6c0.2-0.8,0.5-1.5,0.7-2.2c0.2-0.7,0.4-1.3,0.7-2H184z"/>
		<path class="st5" d="M185.9,121.7c-0.2,0-0.4,0-0.6,0.1c-0.2,0.1-0.3,0.2-0.5,0.3c-0.1,0.1-0.2,0.3-0.3,0.5s-0.1,0.4-0.1,0.6
			c0,0.4,0.1,0.8,0.4,1.2c0.1,0.1,0.3,0.2,0.5,0.3c0.2,0.1,0.4,0.1,0.6,0.1c0.2,0,0.4,0,0.6-0.1c0.2,0,0.3-0.1,0.4-0.2l0.1-0.3
			l-0.1,0c-0.1,0.1-0.2,0.2-0.4,0.2c-0.1,0-0.3,0.1-0.4,0.1c-0.1,0-0.3,0-0.4-0.1s-0.2-0.1-0.3-0.2c-0.2-0.2-0.3-0.5-0.3-0.8h1.9
			v-0.2c0-0.2,0-0.4-0.1-0.5c-0.1-0.2-0.1-0.3-0.3-0.5c-0.1-0.1-0.3-0.2-0.4-0.3C186.2,121.7,186.1,121.7,185.9,121.7z M186.3,122.9
			L186.3,122.9l-1,0.1v-0.1c0-0.2,0-0.5,0.1-0.7c0-0.1,0.1-0.1,0.2-0.2c0.1,0,0.2-0.1,0.2-0.1c0.1,0,0.1,0,0.2,0.1s0.1,0.1,0.1,0.2
			C186.3,122.4,186.3,122.6,186.3,122.9C186.3,122.9,186.3,122.9,186.3,122.9z"/>
		<path class="st5" d="M190.1,124.4c-0.1-0.1-0.1-0.3-0.1-0.5v-0.1l0-1.1v0c0-0.1,0-0.3-0.1-0.4c-0.1-0.1-0.1-0.2-0.2-0.3
			c-0.2-0.2-0.5-0.3-0.8-0.3c-0.2,0-0.4,0-0.5,0.1c-0.2,0.1-0.4,0.2-0.5,0.3c0,0.1,0,0.1,0.1,0.2c0,0.1,0,0.2,0.1,0.2
			c0.1-0.1,0.2-0.3,0.3-0.4c0.1-0.1,0.2-0.1,0.4-0.1c0.1,0,0.1,0,0.2,0c0.1,0,0.1,0.1,0.2,0.1c0.1,0.1,0.1,0.1,0.1,0.2
			c0,0.1,0,0.2,0,0.2v0.1c-0.2,0.1-0.4,0.2-0.7,0.3l-0.3,0.1c-0.2,0.1-0.4,0.2-0.5,0.3c-0.1,0.1-0.2,0.3-0.2,0.5c0,0.1,0,0.2,0,0.3
			c0,0.1,0.1,0.2,0.2,0.3c0.1,0.1,0.2,0.1,0.3,0.2c0.1,0,0.2,0.1,0.3,0.1c0.2,0,0.3,0,0.5-0.1c0.1-0.1,0.3-0.2,0.3-0.3
			c0,0.1,0.1,0.2,0.2,0.3c0.1,0.1,0.2,0.1,0.4,0.1c0.1,0,0.2,0,0.3,0c0.1,0,0.2-0.1,0.3-0.1v-0.1h0c-0.1,0-0.1,0-0.2,0
			C190.1,124.5,190.1,124.4,190.1,124.4z M189.2,123.8c0,0.1,0,0.3-0.1,0.4c0,0-0.1,0.1-0.1,0.1c-0.1,0-0.1,0-0.2,0
			c-0.1,0-0.1,0-0.2,0c0,0-0.1-0.1-0.1-0.1c-0.1-0.1-0.1-0.3-0.1-0.4c0-0.1,0-0.2,0-0.3c0-0.1,0.1-0.2,0.1-0.2
			c0.2-0.1,0.4-0.2,0.6-0.3V123.8z"/>
		<path class="st5" d="M191.7,120.2c-0.1,0-0.2,0-0.2,0h-0.4c-0.1,0-0.2,0-0.2,0c0,0.3,0,0.7,0,1.1c0,0.4,0,0.8,0,1.2v1.2
			c0,0.4,0,0.7,0,1.1c0.1,0,0.1,0,0.2,0c0.2,0,0.3,0,0.5,0c0.1,0,0.1,0,0.2,0c0-0.3,0-0.7,0-1.1c0-0.4,0-0.8,0-1.2v-1.2
			C191.7,120.8,191.7,120.5,191.7,120.2z"/>
		<path class="st5" d="M193.7,124.5c-0.1,0-0.1,0-0.2,0c0,0-0.1-0.1-0.1-0.1c-0.1-0.3-0.1-0.6-0.1-0.9v-0.2c0-0.2,0-0.5,0-0.9v-0.1
			h0.6c0,0,0-0.1,0-0.1v-0.2h-0.6v-0.5c0-0.2,0-0.4,0-0.6l-0.1,0c-0.1,0.1-0.3,0.1-0.4,0.2l-0.4,0.2c0,0.1,0,0.2,0,0.3
			c0,0.1,0,0.2,0,0.3v0.2h-0.4v0.1c0,0,0,0.1,0,0.1v0.2h0.4v1.8c0,0.1,0,0.2,0,0.3c0,0.1,0.1,0.2,0.2,0.3c0.1,0.1,0.2,0.1,0.3,0.2
			c0.1,0,0.2,0.1,0.3,0c0.1,0,0.2,0,0.3,0c0.1,0,0.3-0.1,0.4-0.1v-0.2C193.9,124.5,193.8,124.5,193.7,124.5z"/>
		<path class="st5" d="M197.1,124.3v-1.3c0-0.2,0-0.4,0-0.6c0-0.1-0.1-0.2-0.2-0.3c-0.1-0.1-0.2-0.2-0.3-0.2c-0.1,0-0.3-0.1-0.4-0.1
			c-0.2,0-0.4,0-0.5,0.1c-0.2,0.1-0.3,0.2-0.4,0.4v-1.6c0-0.2,0-0.4,0-0.5l-0.2,0h-0.4l-0.2,0c0,0.3,0,0.6,0,0.9c0,0.4,0,0.9,0,1.5
			v1.4c0,0.3,0,0.6,0,0.8h0.9c0-0.3,0-0.5,0-0.8c0-0.2,0-0.4,0-0.7c0-0.3,0-0.5,0.1-0.8c0-0.1,0.1-0.1,0.2-0.2
			c0.1,0,0.1-0.1,0.2-0.1c0.1,0,0.2,0,0.2,0c0.1,0,0.1,0.1,0.2,0.1c0.1,0.3,0.1,0.6,0.1,0.9v0.8c0,0.2,0,0.4,0,0.6h0.9
			C197.1,124.6,197.1,124.4,197.1,124.3z"/>
		<path class="st5" d="M158.7,130.3l-0.3-2.9h-0.6c-0.2,0.5-0.4,1-0.7,1.5c-0.2,0.5-0.5,0.9-0.7,1.4c-0.2-0.5-0.5-0.9-0.7-1.4
			c-0.2-0.5-0.5-1-0.7-1.4h-0.5l-0.4,2.9c0,0.2,0,0.3-0.1,0.5c0,0.2-0.1,0.5-0.1,0.8l0.1,0h0.2l0.1,0c0-0.5,0.1-0.9,0.1-1.4v0
			l0.1-1.3c0.2,0.4,0.4,0.8,0.7,1.3c0.2,0.4,0.5,0.9,0.7,1.4h0.3c0.2-0.5,0.5-1,0.7-1.4c0.2-0.5,0.5-0.9,0.7-1.3l0.2,1.9
			c0,0.1,0,0.4,0,0.8v0.1l0.3,0h0.5l0.3,0c0-0.1-0.1-0.3-0.1-0.5C158.8,130.8,158.8,130.6,158.7,130.3z"/>
		<path class="st5" d="M161.9,131.2c-0.1-0.1-0.1-0.3-0.1-0.5v-0.1l0-1.1v0c0-0.1,0-0.3-0.1-0.4c-0.1-0.1-0.1-0.2-0.2-0.3
			c-0.2-0.2-0.5-0.3-0.8-0.3c-0.2,0-0.4,0-0.5,0.1c-0.2,0.1-0.4,0.2-0.5,0.3c0,0,0,0.1,0.1,0.2c0,0.1,0,0.1,0.1,0.2
			c0.1-0.1,0.2-0.3,0.3-0.4c0.1-0.1,0.2-0.1,0.4-0.1c0.1,0,0.1,0,0.2,0c0.1,0,0.1,0.1,0.2,0.1c0.1,0.1,0.2,0.3,0.2,0.4v0.1
			c-0.2,0.1-0.4,0.2-0.7,0.3L160,130c-0.2,0.1-0.4,0.2-0.5,0.3c-0.1,0.1-0.2,0.3-0.2,0.5c0,0.1,0,0.2,0,0.3c0,0.1,0.1,0.2,0.2,0.3
			c0.1,0.1,0.2,0.1,0.3,0.2c0.1,0,0.2,0.1,0.3,0.1c0.2,0,0.3,0,0.5-0.1c0.1-0.1,0.3-0.2,0.3-0.3c0,0.1,0.1,0.2,0.2,0.3
			c0.1,0.1,0.2,0.1,0.4,0.1c0.1,0,0.2,0,0.3,0c0.1,0,0.2-0.1,0.3-0.1v-0.2h0c-0.1,0-0.1,0-0.2,0
			C161.9,131.3,161.9,131.2,161.9,131.2z M161,130.6c0,0.1,0,0.3-0.1,0.4c0,0-0.1,0.1-0.1,0.1c-0.1,0-0.1,0-0.2,0
			c-0.1,0-0.1,0-0.2,0c0,0-0.1-0.1-0.1-0.1c-0.1-0.1-0.1-0.3-0.1-0.4c0-0.1,0-0.2,0-0.3c0-0.1,0.1-0.2,0.1-0.2
			c0.2-0.1,0.4-0.2,0.6-0.3V130.6z"/>
		<path class="st5" d="M165,131.2c-0.2-0.1-0.5-0.1-0.7-0.1h-0.1c-0.6,0-0.9-0.1-0.9-0.3c0-0.1,0-0.1,0.1-0.2c0-0.1,0.1-0.1,0.2-0.1
			h0.1c0.4,0,0.7-0.1,1-0.3c0.1-0.1,0.2-0.2,0.3-0.3s0.1-0.3,0.1-0.4c0-0.1,0-0.3-0.1-0.4c-0.1-0.1-0.1-0.2-0.2-0.3h0.6v-0.3h-0.5
			c-0.2,0-0.4,0-0.7,0l-0.4,0c-0.3,0-0.7,0.1-0.9,0.3c-0.1,0.1-0.2,0.2-0.3,0.3s-0.1,0.3-0.1,0.4c0,0.1,0,0.2,0,0.3
			c0,0.1,0.1,0.2,0.2,0.3c0.2,0.2,0.4,0.3,0.6,0.3v0.1c-0.2,0.1-0.3,0.2-0.5,0.3c-0.1,0.1-0.1,0.1-0.1,0.2c0,0.1,0,0.1,0,0.2
			c0,0.1,0,0.2,0.1,0.3c0.1,0.1,0.2,0.2,0.3,0.2v0c-0.2,0.1-0.3,0.2-0.5,0.3c-0.1,0.1-0.2,0.3-0.2,0.4c0,0.1,0,0.2,0.1,0.3
			c0.1,0.1,0.1,0.2,0.3,0.2c0.3,0.2,0.6,0.2,1,0.2c0.4,0,0.9-0.1,1.2-0.4c0.1-0.1,0.3-0.2,0.3-0.4c0.1-0.2,0.1-0.3,0.1-0.5
			c0-0.1,0-0.3-0.1-0.4C165.2,131.4,165.1,131.3,165,131.2z M163.4,129c0-0.1,0.1-0.1,0.1-0.1c0.1,0,0.1-0.1,0.2-0.1
			c0.1,0,0.1,0,0.2,0c0.1,0,0.1,0.1,0.2,0.1c0.1,0.2,0.1,0.3,0.1,0.5c0,0.2,0,0.4-0.1,0.6c-0.1,0.1-0.2,0.2-0.3,0.2
			c-0.1,0-0.2,0-0.3-0.1c0,0-0.1-0.1-0.1-0.1c-0.1-0.2-0.1-0.4-0.1-0.5C163.3,129.3,163.3,129.1,163.4,129z M164.4,132.8
			c-0.2,0.1-0.4,0.2-0.7,0.2c-0.2,0-0.4-0.1-0.6-0.2c-0.1-0.1-0.1-0.1-0.2-0.2c0-0.1-0.1-0.2-0.1-0.3c0-0.1,0-0.2,0.1-0.3
			c0.1-0.1,0.1-0.2,0.2-0.2l0.7,0c0.2,0,0.3,0.1,0.5,0.2c0.1,0.1,0.1,0.1,0.1,0.2c0,0.1,0,0.1,0,0.2c0,0.1,0,0.2-0.1,0.3
			C164.5,132.6,164.5,132.7,164.4,132.8z"/>
		<path class="st5" d="M168,131.2c-0.1-0.1-0.1-0.3-0.1-0.5v-1.2c0-0.1,0-0.3-0.1-0.4c-0.1-0.1-0.1-0.2-0.2-0.3
			c-0.2-0.2-0.5-0.3-0.8-0.3c-0.2,0-0.4,0-0.5,0.1c-0.2,0.1-0.4,0.2-0.5,0.3c0,0,0,0.1,0.1,0.2c0,0.1,0,0.1,0.1,0.2
			c0.1-0.1,0.2-0.3,0.3-0.4c0.1-0.1,0.2-0.1,0.4-0.1c0.1,0,0.1,0,0.2,0c0.1,0,0.1,0.1,0.2,0.1c0.1,0.1,0.2,0.3,0.2,0.4v0.1
			c0,0,0,0,0,0c-0.2,0.1-0.4,0.2-0.7,0.3l-0.3,0.1c-0.2,0.1-0.4,0.2-0.5,0.3c-0.1,0.1-0.2,0.3-0.2,0.5c0,0.1,0,0.2,0,0.3
			c0,0.1,0.1,0.2,0.2,0.3c0.1,0.1,0.2,0.1,0.3,0.2c0.1,0,0.2,0.1,0.3,0.1c0.2,0,0.3,0,0.5-0.1c0.1-0.1,0.3-0.2,0.3-0.3
			c0,0.1,0.1,0.2,0.2,0.3c0.1,0.1,0.2,0.1,0.4,0.1c0.1,0,0.2,0,0.3,0c0.1,0,0.2-0.1,0.3-0.1v-0.2c-0.1,0-0.1,0-0.2,0
			S168.1,131.2,168,131.2z M167.2,130.6c0,0.1,0,0.3-0.1,0.4c0,0-0.1,0.1-0.1,0.1c-0.1,0-0.1,0-0.2,0c-0.1,0-0.1,0-0.2,0
			c0,0-0.1-0.1-0.1-0.1c-0.1-0.1-0.1-0.3-0.1-0.4c0-0.1,0-0.2,0-0.3c0-0.1,0.1-0.2,0.1-0.2c0.2-0.1,0.4-0.2,0.6-0.3V130.6z"/>
		<path class="st5" d="M170,128.6h-1.2c0,0,0,0,0,0.1c0,0,0,0.1,0,0.1c0,0,0,0.1,0,0.1v0.1h0.1c0.4,0,0.6,0,0.8,0h0.5l-0.6,0.9
			c-0.5,0.7-0.8,1.3-1.1,1.6v0.1l0.6,0h1.4l0.6,0v-0.4c-0.2,0-0.3,0-0.5,0c-0.2,0-0.4,0-0.5,0h-0.5l1-1.6l0.6-0.9v0h-0.5L170,128.6z
			"/>
		<path class="st5" d="M172.5,128.6h-0.9c0,0.3,0,0.5,0,0.8c0,0.2,0,0.5,0,0.7v0.6c0,0.3,0,0.5,0,0.8l0.2,0h0.4l0.2,0
			c0-0.3,0-0.6,0-0.8c0-0.2,0-0.4,0-0.6v-0.7C172.5,129.1,172.5,128.9,172.5,128.6z"/>
		<path class="st5" d="M172.1,127c-0.1,0-0.2,0-0.3,0.1s-0.1,0.2-0.1,0.3c0,0.1,0,0.1,0,0.2c0,0.1,0.1,0.1,0.1,0.2
			c0,0,0.1,0.1,0.1,0.1c0.1,0,0.1,0,0.2,0c0.1,0,0.1,0,0.2,0c0.1,0,0.1,0,0.2-0.1c0,0,0.1-0.1,0.1-0.1c0-0.1,0-0.1,0.1-0.2
			c0-0.1,0-0.1,0-0.2c0-0.1,0-0.1-0.1-0.2c0,0-0.1-0.1-0.1-0.1C172.3,127.1,172.2,127.1,172.1,127L172.1,127L172.1,127z"/>
		<path class="st5" d="M176,130.5v-0.8c0-0.2,0-0.4,0-0.6c0-0.1-0.1-0.2-0.1-0.3c-0.1-0.1-0.2-0.2-0.3-0.2c-0.1-0.1-0.3-0.1-0.4-0.1
			c-0.2,0-0.4,0-0.5,0.1c-0.2,0.1-0.3,0.2-0.4,0.4v-0.4h-0.9c0,0.2,0,0.5,0,0.7c0,0.2,0,0.5,0,0.7v0.7c0,0.3,0,0.5,0,0.8l0.2,0h0.4
			l0.2,0c0-0.3,0-0.6,0-0.8v-0.6c0-0.3,0-0.5,0.1-0.8c0-0.1,0.1-0.1,0.2-0.2c0.1,0,0.2-0.1,0.2-0.1c0.1,0,0.2,0,0.2,0
			c0.1,0,0.1,0.1,0.2,0.2c0.1,0.3,0.1,0.6,0.1,0.9v0.8c0,0.2,0,0.4,0,0.6l0.2,0h0.4l0.2,0c0-0.2,0-0.3,0-0.5
			C176,130.9,176,130.7,176,130.5z"/>
		<path class="st5" d="M178,128.5c-0.2,0-0.4,0-0.6,0.1c-0.2,0.1-0.3,0.2-0.5,0.3c-0.1,0.1-0.2,0.3-0.3,0.5
			c-0.1,0.2-0.1,0.4-0.1,0.6c0,0.4,0.1,0.8,0.4,1.2c0.1,0.1,0.3,0.2,0.5,0.3c0.2,0.1,0.4,0.1,0.6,0.1c0.2,0,0.4,0,0.6-0.1
			c0.2,0,0.3-0.1,0.4-0.2l0.1-0.3l-0.1,0c-0.1,0.1-0.2,0.2-0.4,0.2c-0.1,0-0.3,0.1-0.4,0.1c-0.1,0-0.3,0-0.4-0.1
			c-0.1-0.1-0.2-0.1-0.3-0.2c-0.2-0.2-0.3-0.5-0.2-0.8h1.9c0,0,0,0,0-0.1c0,0,0-0.1,0-0.1c0-0.4-0.1-0.7-0.3-1
			c-0.1-0.1-0.3-0.2-0.4-0.3C178.4,128.5,178.2,128.5,178,128.5z M178.5,129.7L178.5,129.7l-1,0.1v-0.1c0-0.2,0-0.5,0.1-0.7
			c0-0.1,0.1-0.1,0.2-0.2c0.1,0,0.2-0.1,0.2-0.1c0.1,0,0.1,0,0.2,0.1c0.1,0,0.1,0.1,0.1,0.2C178.5,129.2,178.5,129.4,178.5,129.7
			L178.5,129.7z"/>
		<path class="st5" d="M155.6,107.6c0.3,0.5,0.6,0.9,0.8,1.4l0.8-0.8c-0.4-0.5-0.9-0.9-1.4-1.2c0.2-0.4,0.3-0.8,0.4-1.2l-1.2-0.2
			c-0.2,1.4-0.7,2.8-1.4,4l0.4,0.3C154.7,109.2,155.2,108.4,155.6,107.6z"/>
		<path class="st5" d="M164.6,105.5c-0.4-0.9-0.9-1.7-1.5-2.4l-0.5,0.2c0.3,0.9,0.6,1.7,0.7,2.6L164.6,105.5z"/>
		<path class="st5" d="M160.1,104.8h-2.5l0.6-0.8c-0.7-0.5-1.5-0.8-2.4-1.1l-0.2,0.4c0.6,0.4,1.1,0.9,1.6,1.4h-3.2v0.6h6.2V104.8z"
			/>
		<path class="st5" d="M156.5,112.7v3.7h1.2v-4c0.5,0.6,1,1.2,1.4,1.8l0.8-0.9c-0.7-0.6-1.5-1.1-2.3-1.6v-0.5h2.4v-0.6h-2.4v-1.3
			h-0.2c0.4-0.5,0.7-1,0.9-1.5c0.3,0.4,0.6,0.9,0.8,1.4l0.7-0.6c-0.1,0.4-0.3,0.7-0.4,1.1l0.4,0.3c0.2-0.3,0.4-0.6,0.6-0.9v7.5h1.3
			v-1.1h4.8v-0.7h-2.2v-2.5h1.7v-0.6h-1.7v-2.2h1.6v-0.6h-1.6v-1.9h2v-0.6h-4.7c0.3-0.9,0.4-1.8,0.5-2.7l-1.3-0.3
			c-0.2,2.1-0.4,3.6-0.9,5.1c-0.4-0.4-0.8-0.8-1.3-1.1c0.2-0.4,0.3-0.8,0.4-1.2l-1.2-0.3c-0.1,1.3-0.5,2.5-1,3.7h-0.4v1.3h-2.7v0.6
			h2.4c-0.6,1.4-1.5,2.7-2.7,3.8l0.3,0.4C154.9,114.7,155.8,113.8,156.5,112.7z M161.7,106.8h1.4v1.9h-1.4L161.7,106.8z
			 M161.7,109.3h1.4v2.2h-1.4L161.7,109.3z M161.7,112.2h1.4v2.5h-1.4L161.7,112.2z"/>
		<path class="st5" d="M179.9,110.9c-0.8-0.6-1.6-1.2-2.5-1.6l-0.3,0.4c0.7,0.7,1.3,1.4,2,2.1L179.9,110.9z"/>
		<path class="st5" d="M177.6,108.7H175v0.6h6.7v-0.6h-2.8v-2.5h3v-0.6h-3v-2.4h-1.3v2.4h-2.9v0.6h2.9V108.7z"/>
		<path class="st5" d="M182.4,113.9c-0.5-1-1.1-2-1.9-2.8l-0.4,0.3c0.5,1,0.9,2,1.2,3.1L182.4,113.9z"/>
		<path class="st5" d="M176.3,114.4c0,1.5,0.3,1.7,2.4,1.7c2.2,0,2.1-0.9,1.5-3.3h-0.5c0,1.9,0,2.1-1,2.1c-0.9,0-1-0.2-1-0.8v-3.5
			h-1.3V114.4z"/>
		<path class="st5" d="M174.4,105.5h-2.1l0.7-0.6c-0.6-0.8-1.4-1.4-2.2-2l-0.4,0.4c0.3,0.5,0.9,1.4,1.3,2.2h-2.2v0.6h4.8V105.5z"/>
		<path class="st5" d="M172.8,116.2h1.1v-1.7l1,0.7c0.7-0.9,1-2.1,1.1-3.6l-0.5-0.1c-0.2,1.1-0.7,2.1-1.5,2.9v-2.8h-3.8v4.9h1.1v-1
			h1.6L172.8,116.2z M172.8,114.7h-1.6v-2.6h1.6V114.7z"/>
		<path class="st5" d="M174,109.5h-4v0.6h4V109.5z"/>
		<path class="st5" d="M174,107.5h-4v0.6h4V107.5z"/>
		<path class="st5" d="M148.6,115.6l-0.1-0.1c-0.2-0.1-0.4-0.2-0.6-0.3c-0.3-0.1-0.7,0-1-0.1c-0.5-0.1-0.9-0.2-1.4-0.3
			c-0.6-0.1-1.2-0.1-1.8,0.1c-0.3,0.1-0.5,0.2-0.8,0.4c-0.1,0.2-0.2,0.4-0.2,0.6c0,0.2-0.1,0.4-0.1,0.6c0,0.8,0.3,1.5,0.7,2.2
			c0.2,0.4,0.4,0.7,0.7,1c0.2,0.3,0.5,0.6,0.8,0.9c0.3,0.2,0.5,0.4,0.7,0.7c0.1,0.2,0.1,0.3,0.4,0.4c0.4,0.1,0.9,0.2,1.3,0.2
			c0.6,0,1.2,0,1.8-0.1c0.4-0.1,0.5-0.4,0.9-0.6c0.4-0.2,0.5-0.2,0.7-0.6c0.7-1.6-0.2-3-1.2-4.2C149.1,116,148.9,115.7,148.6,115.6z
			"/>
	</g>
</g>
</svg>
