<svg id="圖層_1" data-name="圖層 1" xmlns="http://www.w3.org/2000/svg" viewBox="0 0 299 110"><defs><style>.cls-1{fill:#d60c18;}.cls-2{fill:#fff;}</style></defs><g id="logo"><rect class="cls-1" x="-0.05" width="299.09" height="110"/><path class="cls-2" d="M32.35,31.26a7.39,7.39,0,0,0,5.51,1c1.81-.44,3.61-.94,5.4-1.45,3.14-.9,6.26-1.87,9.42-2.72,1.57-.42,3.15-.82,4.74-1.17a12.86,12.86,0,0,0,2.12-.52c.71-.28,1.34-.73,2-1.05,1-.47,2-.9,3.07-1.32,3-1.22,9.42-2.73,7.83-7.35-.5-1.49-2-2.15-3.31-2.84a7.94,7.94,0,0,0-4.4-.56,6.71,6.71,0,0,0-4,1.38c-1.56,1.95-4.15,2.54-6.1,4.1-.69.52-1.63.53-2.32,1.06-.34.26-.45.48-.86.6a7.73,7.73,0,0,1-1.08.08c-.68.09-1.35.18-2,.29a21.57,21.57,0,0,0-5.63,1.54,19.24,19.24,0,0,0-2.58,1.53c-.79.53-1.54.32-2.44.38s-1.63.15-2.45.27l-2.44.41-1.23.18c-.26,0-1.05,0-1.23.15A1.72,1.72,0,0,0,30,27.43C30.71,28.91,30.81,30.36,32.35,31.26Z"/><path class="cls-2" d="M154.63,29.12c1.47-.39,2.74-.72,3.52-2.14.24-.44.5-.88.72-1.33a5.38,5.38,0,0,0,.68-2.88,4.39,4.39,0,0,0-1.74-1.88,14.8,14.8,0,0,0-4.52-1.37c-1.82-.39-3.72-.84-5.56-1.08a8.49,8.49,0,0,0-3.25.25,38,38,0,0,0-6.1,2.2c-2.26,1-5,.4-7.11,1.78a8.42,8.42,0,0,1-2.9.77c-1.25.29-2.43.79-3.65,1.19-2.09.67-4.18,1.32-6.3,1.9-1.51.41-3.08,0-4.58.72A13.5,13.5,0,0,1,112,28.37c-.67.23-1.35.54-2,.77-2.4.84-5,1.42-7.46,2.07-4.36,1.5-9.23.85-13.71,1.69-1.3.33-2.66.52-3.63,1.56C84.88,36,86,36.59,87,37.32s1.87,2.16,3.07,2.92a20.93,20.93,0,0,0,3.39,1.5c2.62,1.06,5.08,2.45,7.9,3,1.55.3,4.73.67,6.14-.27,1.66-1.11,3.53-1.88,5.14-3.08.75-.56,1.35-1.29,2.12-1.82A27.54,27.54,0,0,0,117.28,38a18,18,0,0,1,3.31-2.66c1.55-.26,3-2,4.54-.91.74.34.39,1,.43,1.67s.53,1.48.53,2.28a8.83,8.83,0,0,1-.37,2.28v1.24c.77,14.87-.52,29-1.82,44-.6,1.85.13,3.54.55,5.33a7.66,7.66,0,0,0,.46,2.08,7.53,7.53,0,0,0,3.14,3c2.65.88,6.36,1.32,8.45-1,2.13-1,2.79-3.05,3.1-5.19a54.59,54.59,0,0,0,.59-5.86,15.4,15.4,0,0,0-.7-4.57c-.18-.77-.23-1.56-.41-2.33-.3-1.22-.69-2.44-.9-3.68a118.14,118.14,0,0,1-1.36-17.92c.13-4-.91-9-1.43-12.46-1.17-2.6.46-5.2-.78-7.8-.55-1.29-.31-2.87-.32-4.23,0-1.16.8-1.59,1.74-2.09a6.36,6.36,0,0,0,1-.66,3.33,3.33,0,0,1,1.13-.48c.38-.13.76-.24,1.15-.34,2.8-.72,5.95-1.18,8.53.47a6,6,0,0,0,2.25,1.09A9.23,9.23,0,0,0,154.63,29.12Z"/><path class="cls-2" d="M104,85.3A8.78,8.78,0,0,0,102.11,84c-.78-.3-1.64-.35-2.43-.63a28.94,28.94,0,0,1-5.7-3,8.71,8.71,0,0,0-1.2-.81,5.41,5.41,0,0,0-1.27-.18c-.81-.17-1.29-.92-2-1.29-.33-.18-.76-.24-1-.54a10.24,10.24,0,0,0-2.44-1.53c-.8-.54-1.68-.71-2.5-1.18a16.61,16.61,0,0,1-2-1.47,19.65,19.65,0,0,0-3.79-3C72.92,68.12,69.61,62.48,66,58.77c-2.34-2.14-5.32-5.12-5.26-8.83,1-2.33,3.83-3.11,5.91-4.22,2.6-1.94,6.3-3,7.79-6.1a3.85,3.85,0,0,0-.19-3.57c-.85-1.76-3-1.69-4.68-2.34a7.71,7.71,0,0,0-3.09.36,12.75,12.75,0,0,0-4.41,2.82c-.6.54-1.13,1.22-1.76,1.73a7.36,7.36,0,0,1-2.2.91,2,2,0,0,1-2.37-.36,17.45,17.45,0,0,0-2.66-4.81A3,3,0,0,0,51.87,34c-.4-.1-.65-.42-1-.52-.59-.17-1.36.25-2,.25a6.61,6.61,0,0,0-2.35.13,4.79,4.79,0,0,0-2.2,1.78c-.6.89-.34,1.56-.46,2.55-.07.67-.23,1.32-.36,2a9.44,9.44,0,0,0-.27,2A13.31,13.31,0,0,0,43.64,44a5.21,5.21,0,0,1-2.19,4.55A12.47,12.47,0,0,1,39.35,50c-.87.48-1.86.6-2.76,1a17.55,17.55,0,0,0-2.38,1.38c-.77.51-1.53,1-2.34,1.47s-1.78.58-2.58,1c-1.43.71-3.12.84-4.55,1.43-1.56.32-4.28-.26-5,1.68a8.1,8.1,0,0,0,2.34,4.55c.84,1.88,3.31,2.53,5,3.77,2.53.84,5.07-.39,7.47-.2.91,3.38.65,6.88-1.69,9.35a12.51,12.51,0,0,1-1.93,3.69,15.19,15.19,0,0,1-1.36,1.52c-.44.42-.61,1-1.05,1.44s-1,1.22-1.65,1.61c-.9.52-1.22-.14-1.93-.58a4.63,4.63,0,0,0-1.43-.56,6.3,6.3,0,0,0-3,.09A3.53,3.53,0,0,0,18.9,84.2c-.41.55-1,1.13-1,1.88a10.23,10.23,0,0,0,.34,1.32c.19.93-.16,1.5.48,2.36.5.66.36.93.47,1.72a2.46,2.46,0,0,0,.47,1,6.93,6.93,0,0,0,1.51,1.4,6.47,6.47,0,0,0,1.59.87,15.77,15.77,0,0,1,1.64.37,6.06,6.06,0,0,0,3.22.81c1.9-.09,3.52-.89,5.3-1.46a11.39,11.39,0,0,0,2.47-.89,13.31,13.31,0,0,0,2-1.65c.83-.73,1.63-1.49,2.39-2.29a31.94,31.94,0,0,0,3.71-4.57A24.6,24.6,0,0,0,45,82.56c.41-.77.6-1.6.95-2.38.19-.43.48-.81.66-1.24a16.67,16.67,0,0,0,.91-2.44,7.93,7.93,0,0,1,.83-2.14,12.26,12.26,0,0,0,.94-4c.11-.61.34-1.2.45-1.81s.09-1.49.25-2.22a9.09,9.09,0,0,1,1.29-3A5.85,5.85,0,0,1,55,65.7a19.29,19.29,0,0,0,1.63,1.63c.68.58,1.13,1.37,1.81,1.93,2,1.58,3.37,3.93,4.8,6,1.77,2.52,3.45,5.1,5.21,7.63s3.28,4.9,5.63,6.69a54.08,54.08,0,0,0,5.5,4.17c1.43.82,3.28.58,4.86.61a73.41,73.41,0,0,0,8.64-.54c1.42-.15,2.85-.3,4.27-.4.66,0,1.34,0,2-.12,1.2-.13,2.43-.68,3.62-.87s2.64-.43,3.44-1.41a3.29,3.29,0,0,0,.67-2.87C106.59,86.77,105.1,86.08,104,85.3Z"/><path class="cls-2" d="M184.47,74.92a7.48,7.48,0,0,0,1.66-.17,6.77,6.77,0,0,0,1.51-.53L188,73l-.18,0a4.77,4.77,0,0,1-1.41.83,4.22,4.22,0,0,1-1.54.3,3.22,3.22,0,0,1-2.7-1.18,5.39,5.39,0,0,1-.93-3.41,5,5,0,0,1,.92-3.22,3,3,0,0,1,2.54-1.15,3.35,3.35,0,0,1,1.81.45,2.12,2.12,0,0,1,1,1.25l.22,0a8.73,8.73,0,0,1,.16-1,7.54,7.54,0,0,1,.23-.88,9.89,9.89,0,0,0-1.69-.57,8,8,0,0,0-1.68-.18,6.09,6.09,0,0,0-4.27,1.46,5,5,0,0,0-1.6,3.89,5.27,5.27,0,0,0,1.48,4A5.7,5.7,0,0,0,184.47,74.92Z"/><path class="cls-2" d="M196.35,71.1a3.86,3.86,0,0,0-1-2.83,3.83,3.83,0,0,0-6.62,2.83,3.82,3.82,0,0,0,1,2.81,3.76,3.76,0,0,0,2.8,1,3.48,3.48,0,0,0,3.81-3.81Zm-2.59,2.43a1.27,1.27,0,0,1-1.22.71,1.25,1.25,0,0,1-1.2-.71A5.81,5.81,0,0,1,191,71.1a5.89,5.89,0,0,1,.36-2.45,1.38,1.38,0,0,1,2.42,0,5.9,5.9,0,0,1,.36,2.44A5.81,5.81,0,0,1,193.76,73.53Z"/><path class="cls-2" d="M208.94,74.72q0-.75-.06-1.44c0-.45,0-.9,0-1.32V71a11.74,11.74,0,0,0-.12-2.06,2.12,2.12,0,0,0-.44-.93,2,2,0,0,0-.75-.54,2.9,2.9,0,0,0-2.37.16,3,3,0,0,0-1,1.06,2.07,2.07,0,0,0-.8-1,2.3,2.3,0,0,0-1.3-.36,2.71,2.71,0,0,0-1.23.27,3.31,3.31,0,0,0-1,.89v-1l-.48,0-.57,0-.55,0-.51,0c0,.82.05,1.53.07,2.13s0,1.09,0,1.49,0,.89,0,1.5,0,1.33-.07,2.13l.59,0,.52,0,.53,0,.56,0v-.14c0-.58-.06-1-.06-1.23V70.94a4.24,4.24,0,0,1,.29-1.86,1.14,1.14,0,0,1,1.89,0,6.92,6.92,0,0,1,.26,2.5c0,.48,0,1,0,1.51s-.05,1.08-.09,1.64l.6,0,.53,0,.54,0,.59,0v-.14c0-.59,0-1,0-1.23V70.94a4.25,4.25,0,0,1,.28-1.85,1,1,0,0,1,1-.52,1,1,0,0,1,1,.52,5.78,5.78,0,0,1,.27,2.22c0,.49,0,1,0,1.58s-.05,1.17-.1,1.83l.58,0,.53,0,.53,0Z"/><path class="cls-2" d="M215.32,74.72l.59,0,.53,0,.54,0,.6,0s0-.07,0-.14c0-.59,0-1,0-1.23V70.94a4.25,4.25,0,0,1,.28-1.85,1,1,0,0,1,1-.52,1,1,0,0,1,1,.52,5.78,5.78,0,0,1,.27,2.22c0,.49,0,1,0,1.58s-.05,1.17-.1,1.83l.58,0,.53,0,.54,0,.61,0q0-.75-.06-1.44c0-.45,0-.9,0-1.32V71A11.74,11.74,0,0,0,221.9,69a2.12,2.12,0,0,0-.44-.93,2,2,0,0,0-.75-.54,2.9,2.9,0,0,0-2.37.16,3,3,0,0,0-1,1.06,2.07,2.07,0,0,0-.8-1,2.28,2.28,0,0,0-1.3-.36,2.71,2.71,0,0,0-1.23.27,3.17,3.17,0,0,0-1,.89v-1l-.49,0-.57,0-.55,0-.51,0c0,.82.06,1.53.07,2.13s0,1.09,0,1.49,0,.89,0,1.5,0,1.33-.07,2.13l.6,0,.51,0,.54,0,.55,0v-.14c0-.58-.05-1-.05-1.23V70.94a4.27,4.27,0,0,1,.28-1.86,1.15,1.15,0,0,1,1.9,0,7.17,7.17,0,0,1,.26,2.5c0,.48,0,1,0,1.51S215.35,74.16,215.32,74.72Z"/><path class="cls-2" d="M231.12,71.1a3.82,3.82,0,0,0-1-2.83,4.42,4.42,0,0,0-5.61,0,4.44,4.44,0,0,0,0,5.63,4.42,4.42,0,0,0,5.6,0A3.81,3.81,0,0,0,231.12,71.1Zm-2.6,2.43a1.39,1.39,0,0,1-2.42,0,5.81,5.81,0,0,1-.36-2.43,5.89,5.89,0,0,1,.36-2.45,1.38,1.38,0,0,1,2.42,0,5.86,5.86,0,0,1,.37,2.44A5.78,5.78,0,0,1,228.52,73.53Z"/><path class="cls-2" d="M236.81,69.06a5.23,5.23,0,0,1,.27,2.13c0,.73,0,1.39,0,2s0,1.11-.08,1.54l.59,0,.53,0,.53,0,.6,0c0-.39-.06-.8-.08-1.22s0-.87,0-1.34V71.05c0-.43,0-.69,0-.79a7,7,0,0,0-.11-1.48,1.67,1.67,0,0,0-.36-.73,2,2,0,0,0-.77-.56,3,3,0,0,0-2.32.11,3.15,3.15,0,0,0-1,.91v-1l-.47,0-.55,0-.55,0-.49,0q.06.9.09,1.8c0,.61,0,1.22,0,1.84s0,1.12,0,1.71-.05,1.23-.09,1.9l.58,0,.52,0,.54,0,.55,0c0-.79,0-1.49-.06-2.09s0-1.13,0-1.55a4.45,4.45,0,0,1,.3-1.93,1,1,0,0,1,1-.57A1,1,0,0,1,236.81,69.06Z"/><path class="cls-2" d="M254.23,64.42l-.37,0-.33,0q-.47,1.92-1,3.78c-.37,1.24-.77,2.47-1.19,3.69-.46-1.3-.89-2.57-1.3-3.81s-.78-2.46-1.14-3.66l-.37,0-.41,0-.39,0-.36,0c-.4,1.18-.8,2.4-1.23,3.64s-.87,2.55-1.35,3.93c-.39-1.25-.75-2.51-1.09-3.77s-.66-2.53-1-3.8l-.6,0-.68,0-.68,0-.61,0q.93,2.69,1.72,5.28c.53,1.72,1,3.42,1.44,5.08l.41,0,.36,0,.37,0,.4,0c.42-1.29.84-2.54,1.27-3.77s.88-2.41,1.33-3.57c.47,1.28.91,2.54,1.32,3.76s.78,2.41,1.13,3.58l.42,0,.36,0,.39,0,.4,0c.61-1.93,1.21-3.75,1.78-5.48s1.12-3.35,1.66-4.88l-.32,0Z"/><path class="cls-2" d="M258.89,67.27a3.53,3.53,0,0,0-2.64,1,3.66,3.66,0,0,0-1,2.68,4,4,0,0,0,1,2.89,3.65,3.65,0,0,0,2.77,1,5.08,5.08,0,0,0,1.39-.18,3.72,3.72,0,0,0,1.12-.51l.33-.86-.14-.11a3.61,3.61,0,0,1-.94.54,2.87,2.87,0,0,1-1,.18,2.07,2.07,0,0,1-1.68-.77,3.21,3.21,0,0,1-.63-2.08h4.65c0-.06,0-.12,0-.19v-.29a3.41,3.41,0,0,0-.83-2.49A3.18,3.18,0,0,0,258.89,67.27ZM260,70.16c0,.08,0,.15,0,.21h-2.57v-.14a3.24,3.24,0,0,1,.37-1.71,1.14,1.14,0,0,1,1-.6,1,1,0,0,1,.89.53,3.2,3.2,0,0,1,.3,1.55A1.18,1.18,0,0,1,260,70.16Z"/><path class="cls-2" d="M269.27,73.88a2.15,2.15,0,0,1-.21-1.19V72.4l.05-2.64v-.08a2.27,2.27,0,0,0-.73-1.8,3.14,3.14,0,0,0-2.1-.63,3.44,3.44,0,0,0-1.37.29,5.21,5.21,0,0,0-1.33.87,3.73,3.73,0,0,1,.14.4c0,.14.12.33.19.57a3,3,0,0,1,.77-.88,1.63,1.63,0,0,1,.94-.29,1.39,1.39,0,0,1,1,.41,1.5,1.5,0,0,1,.39,1.09v.16s0,.07,0,.1a6.42,6.42,0,0,1-1.63.66l-.77.24a2.55,2.55,0,0,0-1.2.74,1.79,1.79,0,0,0-.39,1.19,2.09,2.09,0,0,0,.55,1.54,2,2,0,0,0,1.5.57,2.36,2.36,0,0,0,1.19-.3,2.24,2.24,0,0,0,.86-.84,1.38,1.38,0,0,0,.47.81,1.36,1.36,0,0,0,.89.28,3.85,3.85,0,0,0,.8-.09,3.9,3.9,0,0,0,.8-.25v-.37h-.05A.94.94,0,0,1,269.27,73.88Zm-2.19-1.39a1.73,1.73,0,0,1-.27,1.05.91.91,0,0,1-.77.36.84.84,0,0,1-.71-.32,1.75,1.75,0,0,1-.23-1,1.59,1.59,0,0,1,.46-1.22,3.17,3.17,0,0,1,1.52-.65Z"/><path class="cls-2" d="M273.4,63.34c-.23,0-.44.06-.62.08a4.7,4.7,0,0,1-.52,0,4.26,4.26,0,0,1-.5,0,5.87,5.87,0,0,1-.62-.08c0,.83.06,1.7.08,2.64s0,2,0,3.08,0,2.06,0,3-.05,1.82-.08,2.67a4.86,4.86,0,0,1,.55-.07,5.72,5.72,0,0,1,1.17,0,4.41,4.41,0,0,1,.54.07c0-.82-.07-1.7-.09-2.63s0-2,0-3.09,0-2,0-3S273.36,64.2,273.4,63.34Z"/><path class="cls-2" d="M278.28,74.09a.64.64,0,0,1-.66-.42,8,8,0,0,1-.17-2.16V70.9c0-.44,0-1.19.05-2.24,0-.16,0-.27,0-.35H279a0,0,0,0,0,0,0,2.61,2.61,0,0,1,0-.34.76.76,0,0,1,0-.15c0-.05,0-.13,0-.25l-.7,0h-.77v-.47c0-.2,0-.5,0-.89s0-.87.07-1.45l-.17-.12c-.32.16-.65.31-1,.46s-.69.29-1,.42c0,.33,0,.61.05.83s0,.43,0,.63v.36c0,.08,0,.16,0,.22h-.17a7.08,7.08,0,0,1-.77,0h-.09s0,.09,0,.15a1.63,1.63,0,0,1,0,.25v.23s0,.1,0,.16h1v.81c0,.81,0,1.64,0,2.48s0,1.27,0,1.29a2,2,0,0,0,.51,1.5,2,2,0,0,0,1.48.52,3.4,3.4,0,0,0,.82-.1,5.44,5.44,0,0,0,.92-.33v-.56h0A4.27,4.27,0,0,1,278.28,74.09Z"/><path class="cls-2" d="M286.8,73.6c0-.4,0-.88,0-1.44,0-.32,0-.69,0-1.11s0-.69,0-.79a7.09,7.09,0,0,0-.11-1.46,1.9,1.9,0,0,0-.38-.75,2,2,0,0,0-.77-.56,2.71,2.71,0,0,0-1-.18,2.79,2.79,0,0,0-1.34.31,2.82,2.82,0,0,0-1,.95V66.21c0-.55,0-1.06,0-1.53s.07-.92.12-1.34l-.57.09a4.89,4.89,0,0,1-.54,0l-.52,0-.59-.09c.05.64.08,1.4.1,2.28s0,2.12,0,3.7,0,2.63,0,3.42-.05,1.45-.1,2l.58,0,.53,0,.53,0,.57,0c0-.72,0-1.39-.07-2s0-1.17,0-1.64a4.45,4.45,0,0,1,.3-1.93,1,1,0,0,1,1-.57,1,1,0,0,1,.94.48,5.29,5.29,0,0,1,.26,2.13c0,.73,0,1.39,0,2s0,1.11-.08,1.54l.59,0,.53,0,.53,0,.59,0C286.84,74.38,286.82,74,286.8,73.6Z"/><path class="cls-2" d="M191.16,88.54l-.87-7.26-.33,0h-.73l-.33,0c-.56,1.25-1.12,2.46-1.7,3.64s-1.16,2.33-1.76,3.46c-.62-1.17-1.23-2.34-1.81-3.51s-1.16-2.38-1.7-3.59l-.32,0h-.7l-.3,0-1,7.17c0,.24-.09.63-.18,1.19s-.2,1.23-.32,2l.32-.06h.59l.33.06a34.18,34.18,0,0,1,.28-3.45v-.12l.37-3.15c.54,1,1.09,2.07,1.66,3.19s1.13,2.3,1.72,3.53l.11,0h.39l.12,0c.59-1.25,1.17-2.46,1.74-3.61s1.13-2.27,1.7-3.36l.49,4.84c0,.26.07.91.11,2,0,.06,0,.12,0,.15l.65-.06h.6c.19,0,.4,0,.6,0l.69.05c-.08-.36-.16-.76-.23-1.22S191.25,89.34,191.16,88.54Z"/><path class="cls-2" d="M199,90.81a2.17,2.17,0,0,1-.21-1.19v-.29l.05-2.64v-.08a2.27,2.27,0,0,0-.73-1.8,3.14,3.14,0,0,0-2.1-.63,3.44,3.44,0,0,0-1.37.29,5.21,5.21,0,0,0-1.33.87c.05.12.1.25.15.4s.11.33.18.57a2.74,2.74,0,0,1,.78-.88,1.55,1.55,0,0,1,.93-.29,1.38,1.38,0,0,1,1,.4,1.54,1.54,0,0,1,.39,1.1v.16s0,.07,0,.1a6.18,6.18,0,0,1-1.62.65l-.77.25a2.58,2.58,0,0,0-1.21.74,1.77,1.77,0,0,0-.39,1.18,2.11,2.11,0,0,0,.55,1.55,2,2,0,0,0,1.5.57,2.43,2.43,0,0,0,1.2-.3,2.31,2.31,0,0,0,.85-.85,1.27,1.27,0,0,0,1.37,1.09,3.71,3.71,0,0,0,.79-.08,4.63,4.63,0,0,0,.8-.25v-.38h-.05A.94.94,0,0,1,199,90.81Zm-2.19-1.39a1.77,1.77,0,0,1-.27,1,.91.91,0,0,1-.77.36.8.8,0,0,1-.7-.33,1.65,1.65,0,0,1-.24-1,1.58,1.58,0,0,1,.46-1.21,3.17,3.17,0,0,1,1.52-.65Z"/><path class="cls-2" d="M206.77,90.81a5.21,5.21,0,0,0-1.78-.29h-.27c-1.44-.05-2.15-.31-2.15-.77a.7.7,0,0,1,.66-.73h.26a4.2,4.2,0,0,0,2.52-.66,2.16,2.16,0,0,0,.9-1.84,2,2,0,0,0-.2-.91,1.64,1.64,0,0,0-.59-.64h.23l1.27,0v-.74l-.72,0h-.64c-.5,0-1,0-1.63-.06l-1-.06a3.54,3.54,0,0,0-2.28.67,2.13,2.13,0,0,0-.85,1.77,2,2,0,0,0,.49,1.42,2.63,2.63,0,0,0,1.47.74V89a3.18,3.18,0,0,0-1.13.75,1.4,1.4,0,0,0-.39,1,1.15,1.15,0,0,0,.25.75,1.4,1.4,0,0,0,.72.45l0,.12a2.62,2.62,0,0,0-1.16.72,1.64,1.64,0,0,0-.38,1.12,1.61,1.61,0,0,0,.85,1.43,4.5,4.5,0,0,0,2.37.52,4.74,4.74,0,0,0,3-.89,2.78,2.78,0,0,0,1.16-2.29,2.17,2.17,0,0,0-.25-1.07A1.76,1.76,0,0,0,206.77,90.81Zm-3.91-5.54a1,1,0,0,1,.86-.47,1,1,0,0,1,.83.4,2.24,2.24,0,0,1,.27,1.23,3.19,3.19,0,0,1-.27,1.52,1.07,1.07,0,0,1-1.73,0,2.69,2.69,0,0,1-.27-1.37A2.36,2.36,0,0,1,202.86,85.27Zm2.45,9.46a2.66,2.66,0,0,1-1.62.43,2,2,0,0,1-1.4-.47,1.59,1.59,0,0,1-.53-1.25,1.52,1.52,0,0,1,.21-.8,1.4,1.4,0,0,1,.58-.55l1.75.09a2,2,0,0,1,1.21.38,1.26,1.26,0,0,1,.38,1A1.35,1.35,0,0,1,205.31,94.73Z"/><path class="cls-2" d="M214.42,90.81a2.17,2.17,0,0,1-.21-1.19v-.29l0-2.64v-.08a2.24,2.24,0,0,0-.73-1.8,3.14,3.14,0,0,0-2.1-.63,3.44,3.44,0,0,0-1.37.29,5.21,5.21,0,0,0-1.33.87c.05.12.1.25.15.4s.11.33.18.57a2.74,2.74,0,0,1,.78-.88,1.55,1.55,0,0,1,.93-.29,1.38,1.38,0,0,1,1,.4,1.55,1.55,0,0,1,.4,1.1c0,.07,0,.12,0,.16a.31.31,0,0,1,0,.1,6.18,6.18,0,0,1-1.62.65l-.77.25a2.58,2.58,0,0,0-1.21.74,1.77,1.77,0,0,0-.39,1.18,2.11,2.11,0,0,0,.55,1.55,2,2,0,0,0,1.5.57,2.43,2.43,0,0,0,1.2-.3,2.31,2.31,0,0,0,.85-.85,1.27,1.27,0,0,0,1.37,1.09,3.71,3.71,0,0,0,.79-.08,4.37,4.37,0,0,0,.8-.25v-.38h0A.94.94,0,0,1,214.42,90.81Zm-2.18-1.39a1.85,1.85,0,0,1-.27,1,.93.93,0,0,1-.78.36.8.8,0,0,1-.7-.33,1.65,1.65,0,0,1-.24-1,1.59,1.59,0,0,1,.47-1.21,3.08,3.08,0,0,1,1.52-.65Z"/><path class="cls-2" d="M219.16,84.45h-1.59l-1.43,0a.7.7,0,0,1,0,.16,1.78,1.78,0,0,1,0,.26,1.63,1.63,0,0,1,0,.25.88.88,0,0,1,0,.16h.17q1.33-.06,1.95-.06h.51l.74,0-1.42,2.17c-1.2,1.84-2.08,3.18-2.65,4v.24l1.54-.06h3.61l1.44.06c0-.13,0-.23,0-.3a1.28,1.28,0,0,1,0-.19,1.21,1.21,0,0,1,0-.18c0-.07,0-.15,0-.25-.42,0-.85.06-1.29.07s-.89,0-1.35,0h-.51l-.82,0,2.56-4,1.48-2.27V84.4l-1.37,0Z"/><path class="cls-2" d="M225.64,84.4l-.54,0h-1.17l-.54,0c0,.65.06,1.28.08,1.87s0,1.18,0,1.76,0,1,0,1.6,0,1.25-.08,2l.58-.06h1.1l.57.06c0-.77-.06-1.44-.08-2s0-1.11,0-1.61,0-1.16,0-1.76S225.6,85.05,225.64,84.4Z"/><path class="cls-2" d="M224.53,80.51a1.15,1.15,0,0,0-.82,2,1.07,1.07,0,0,0,.81.33,1.15,1.15,0,1,0,0-2.29Z"/><path class="cls-2" d="M234.19,89.09c0-.32,0-.7,0-1.12s0-.68,0-.78a7.16,7.16,0,0,0-.11-1.49,1.73,1.73,0,0,0-.36-.73,2.09,2.09,0,0,0-.78-.55,2.71,2.71,0,0,0-1-.19,2.8,2.8,0,0,0-1.3.3,3.15,3.15,0,0,0-1,.91v-1l-.47,0H228l-.49,0q.06.88.09,1.8t0,1.83c0,.55,0,1.12,0,1.72s0,1.23-.09,1.9l.58-.06h1.05l.56.06q0-1.19-.06-2.1c0-.6,0-1.12,0-1.55a4.43,4.43,0,0,1,.3-1.92,1,1,0,0,1,1-.57,1,1,0,0,1,1,.48,5.22,5.22,0,0,1,.26,2.13c0,.73,0,1.39,0,2s0,1.11-.08,1.54l.59-.06h1.06l.6.06c0-.39-.06-.8-.08-1.22S234.19,89.56,234.19,89.09Z"/><path class="cls-2" d="M239.34,84.2a3.55,3.55,0,0,0-2.65,1,3.65,3.65,0,0,0-1,2.68,4,4,0,0,0,1,2.89,3.69,3.69,0,0,0,2.78,1,5.14,5.14,0,0,0,1.39-.18,3.72,3.72,0,0,0,1.12-.51l.33-.86-.15-.11a3.41,3.41,0,0,1-.93.54,2.87,2.87,0,0,1-1,.18,2.06,2.06,0,0,1-1.69-.78,3.22,3.22,0,0,1-.62-2.08h4.64a1,1,0,0,0,0-.18,2.45,2.45,0,0,0,0-.3,3.44,3.44,0,0,0-.84-2.49A3.14,3.14,0,0,0,239.34,84.2Zm1.15,2.89a1.56,1.56,0,0,0,0,.2h-2.57v-.13a3.35,3.35,0,0,1,.36-1.71,1.16,1.16,0,0,1,1-.6,1,1,0,0,1,.88.52,3.22,3.22,0,0,1,.3,1.56Z"/><path class="cls-2" d="M183.46,32a39.91,39.91,0,0,1,2,3.53l2-1.93a18.06,18.06,0,0,0-3.42-2.95,17.52,17.52,0,0,0,1-3l-2.89-.68a31,31,0,0,1-3.56,10l1,.82A25,25,0,0,0,183.46,32Z"/><path class="cls-2" d="M205.87,26.71a23.21,23.21,0,0,0-3.64-6l-1.14.57a49.91,49.91,0,0,1,1.85,6.55Z"/><path class="cls-2" d="M194.57,25.07h-6.34l1.43-2a21.08,21.08,0,0,0-5.92-2.67l-.49,1.1a40.21,40.21,0,0,1,3.91,3.56h-7.94v1.6h15.35Z"/><path class="cls-2" d="M185.67,44.84v9.33h3.06v-10a52.23,52.23,0,0,1,3.56,4.52l2.11-2.35a29.47,29.47,0,0,0-5.67-3.88V41.14h5.91V39.53h-5.91V36.18h-.6a24.59,24.59,0,0,0,2.31-3.84,22.65,22.65,0,0,1,2,3.38l1.67-1.53a27.31,27.31,0,0,1-1.14,2.64l1,.74c.54-.71,1-1.49,1.53-2.28l0,18.67h3.13V51.25h12V49.61h-5.45V43.45h4.13v-1.6h-4.13V36.29h4.1v-1.6h-4.1V29.92h5V28.31H198.49a35.09,35.09,0,0,0,1.28-6.8l-3.24-.64c-.53,5.2-1,9.05-2.21,12.68a15.16,15.16,0,0,0-3.2-2.67,18,18,0,0,0,1-3.1l-2.89-.71a25.22,25.22,0,0,1-2.6,9.11h-.92v3.35H179v1.61h5.88a30.93,30.93,0,0,1-6.66,9.58l.75,1A28.55,28.55,0,0,0,185.67,44.84Zm12.89-14.92H202v4.77h-3.46Zm0,6.37H202v5.56h-3.46Zm0,7.16H202v6.16h-3.46Z"/><path class="cls-2" d="M244,40.32a25,25,0,0,0-6.34-3.92l-.64,1a64.74,64.74,0,0,1,4.88,5.27Z"/><polygon class="cls-2" points="238.25 34.69 231.66 34.69 231.66 36.29 248.47 36.29 248.47 34.69 241.45 34.69 241.45 28.53 248.93 28.53 248.93 26.92 241.45 26.92 241.45 20.94 238.25 20.94 238.25 26.92 230.91 26.92 230.91 28.53 238.25 28.53 238.25 34.69"/><path class="cls-2" d="M250.22,47.83a25.52,25.52,0,0,0-4.81-7l-1,.67a53.84,53.84,0,0,1,3,7.73Z"/><path class="cls-2" d="M235,49c0,3.85.71,4.24,5.92,4.24,5.55,0,5.27-2.28,3.63-8.12h-1.28c0,4.74,0,5.2-2.57,5.2-2.24,0-2.56-.46-2.56-1.89V39.71H235Z"/><path class="cls-2" d="M230.16,26.92H225l1.85-1.42a25.75,25.75,0,0,0-5.48-4.88l-.89.89c.82,1.17,2.14,3.38,3.31,5.41H218.3v1.61h11.86Z"/><path class="cls-2" d="M226.32,53.46H229V49.15l2.39,1.78c1.64-2.17,2.46-5.31,2.67-9.08l-1.25-.25A13.19,13.19,0,0,1,229,48.79v-7h-9.58V54h2.78v-2.6h4.1Zm0-3.67h-4.06V43.31h4.06Z"/><rect class="cls-2" x="219.33" y="36.79" width="10.01" height="1.5"/><rect class="cls-2" x="219.33" y="31.87" width="10.01" height="1.5"/><path class="cls-2" d="M165.83,51.89l-.31-.16h0a6.58,6.58,0,0,0-1.5-.8c-.83-.21-1.71-.11-2.54-.29-1.17-.25-2.33-.54-3.51-.72a10.12,10.12,0,0,0-4.45.15,4.19,4.19,0,0,0-1.9,1,3,3,0,0,0-.51,1.47,7.11,7.11,0,0,0-.18,1.53,10.94,10.94,0,0,0,1.66,5.43,17.76,17.76,0,0,0,1.76,2.46,12.11,12.11,0,0,0,2.08,2.15,5.1,5.1,0,0,1,1.77,1.65c.34.55.37.71,1,1a11.42,11.42,0,0,0,3.34.46A18.25,18.25,0,0,0,167,67c1.09-.19,1.29-1,2.18-1.48s1.24-.56,1.62-1.47c1.72-4.1-.4-7.59-2.91-10.55A7.72,7.72,0,0,0,165.83,51.89Z"/></g></svg>