<svg width="310" height="75" viewBox="0 0 310 75" fill="none" xmlns="http://www.w3.org/2000/svg">
<line x1="1.11572" y1="57" x2="1.11572" y2="49" stroke="#C4C4C4"/>
<line x1="1" y1="56.5" x2="110" y2="56.5" stroke="#C4C4C4"/>
<line x1="109.5" y1="57" x2="109.5" y2="49" stroke="#C4C4C4"/>
<path d="M48.9545 62.0127V72H47.307V63.9678L44.8666 64.7949V63.4346L48.7563 62.0127H48.9545ZM58.7608 66.1895V67.8164C58.7608 68.5957 58.6833 69.2611 58.5284 69.8125C58.378 70.3594 58.1592 70.8037 57.8721 71.1455C57.585 71.4873 57.2409 71.738 56.8399 71.8975C56.4434 72.057 55.9991 72.1367 55.5069 72.1367C55.1149 72.1367 54.7504 72.0866 54.4131 71.9863C54.0804 71.8861 53.7797 71.7288 53.5108 71.5146C53.2419 71.3005 53.0118 71.0247 52.8204 70.6875C52.6335 70.3457 52.4877 69.9378 52.3829 69.4639C52.2826 68.9899 52.2325 68.4408 52.2325 67.8164V66.1895C52.2325 65.4056 52.3099 64.7448 52.4649 64.207C52.6198 63.6647 52.8409 63.2249 53.128 62.8877C53.4151 62.5459 53.7569 62.2975 54.1534 62.1426C54.5544 61.9876 55.001 61.9102 55.4932 61.9102C55.8897 61.9102 56.2543 61.9603 56.587 62.0605C56.9242 62.1562 57.225 62.3089 57.4893 62.5186C57.7582 62.7282 57.986 63.0016 58.1729 63.3389C58.3643 63.6715 58.5101 64.0749 58.6104 64.5488C58.7107 65.0182 58.7608 65.5651 58.7608 66.1895ZM57.1133 68.0488V65.9434C57.1133 65.5469 57.0905 65.1982 57.045 64.8975C56.9994 64.5921 56.931 64.3346 56.8399 64.125C56.7533 63.9108 56.6439 63.7376 56.5118 63.6055C56.3796 63.4688 56.2292 63.3708 56.0606 63.3115C55.892 63.2477 55.7028 63.2158 55.4932 63.2158C55.238 63.2158 55.0101 63.266 54.8096 63.3662C54.6091 63.4619 54.4405 63.6169 54.3038 63.8311C54.167 64.0452 54.0622 64.3278 53.9893 64.6787C53.9209 65.0251 53.8868 65.4466 53.8868 65.9434V68.0488C53.8868 68.4499 53.9095 68.8031 53.9551 69.1084C54.0007 69.4137 54.0691 69.6758 54.1602 69.8945C54.2513 70.1087 54.3607 70.2865 54.4883 70.4277C54.6205 70.5645 54.7709 70.6647 54.9395 70.7285C55.1127 70.7923 55.3018 70.8242 55.5069 70.8242C55.7666 70.8242 55.9968 70.7741 56.1973 70.6738C56.3978 70.5736 56.5664 70.4141 56.7032 70.1953C56.8399 69.972 56.9424 69.6826 57.0108 69.3271C57.0791 68.9717 57.1133 68.5456 57.1133 68.0488ZM61.4167 70.7012H61.5534C62.1823 70.7012 62.7064 70.6191 63.1257 70.4551C63.5495 70.2865 63.8867 70.054 64.1374 69.7578C64.388 69.4616 64.568 69.113 64.6774 68.7119C64.7868 68.3109 64.8415 67.8757 64.8415 67.4062V65.6904C64.8415 65.2848 64.7982 64.9294 64.7116 64.624C64.6296 64.3141 64.5111 64.0566 64.3561 63.8516C64.2057 63.6419 64.0303 63.4847 63.8298 63.3799C63.6338 63.2751 63.4219 63.2227 63.194 63.2227C62.9434 63.2227 62.7178 63.2796 62.5173 63.3936C62.3213 63.5029 62.155 63.6556 62.0182 63.8516C61.8861 64.043 61.7835 64.2686 61.7106 64.5283C61.6423 64.7835 61.6081 65.057 61.6081 65.3486C61.6081 65.6221 61.64 65.8864 61.7038 66.1416C61.7722 66.3923 61.8724 66.6156 62.0046 66.8115C62.1367 67.0075 62.3031 67.1624 62.5036 67.2764C62.7041 67.3903 62.9388 67.4473 63.2077 67.4473C63.4629 67.4473 63.6976 67.3994 63.9118 67.3037C64.126 67.2035 64.3128 67.069 64.4723 66.9004C64.6319 66.7318 64.7572 66.5426 64.8483 66.333C64.9395 66.1234 64.9896 65.9092 64.9987 65.6904L65.6276 65.8818C65.6276 66.2282 65.5547 66.57 65.4089 66.9072C65.2676 67.2399 65.0694 67.5452 64.8141 67.8232C64.5635 68.0967 64.2695 68.3154 63.9323 68.4795C63.5996 68.6436 63.2373 68.7256 62.8454 68.7256C62.3714 68.7256 61.9522 68.6367 61.5876 68.459C61.2276 68.2767 60.9268 68.0306 60.6852 67.7207C60.4483 67.4108 60.2705 67.0553 60.152 66.6543C60.0335 66.2533 59.9743 65.8317 59.9743 65.3896C59.9743 64.9111 60.0472 64.4622 60.193 64.043C60.3389 63.6237 60.5508 63.2546 60.8288 62.9355C61.1068 62.612 61.444 62.3613 61.8405 62.1836C62.2416 62.0013 62.695 61.9102 63.2009 61.9102C63.7386 61.9102 64.2103 62.015 64.6159 62.2246C65.0215 62.4342 65.3633 62.7236 65.6413 63.0928C65.9193 63.4619 66.1289 63.8903 66.2702 64.3779C66.4115 64.8656 66.4821 65.3896 66.4821 65.9502V66.5312C66.4821 67.1191 66.4297 67.6865 66.3249 68.2334C66.2201 68.7757 66.0492 69.2793 65.8122 69.7441C65.5798 70.2044 65.2722 70.61 64.8893 70.9609C64.5111 71.3073 64.0462 71.5785 63.4948 71.7744C62.9479 71.9658 62.3054 72.0615 61.5671 72.0615H61.4167V70.7012Z" fill="#171717"/>
<g clip-path="url(#clip0_737_2644)">
<path d="M109.76 0.845215H1V40.8452H109.76V0.845215Z" fill="#D60C18"/>
<path d="M12.7818 12.2125C13.3764 12.5911 14.0957 12.7217 14.7854 12.5761C15.4436 12.4161 16.0982 12.2343 16.7491 12.0489C17.8909 11.7216 19.0254 11.3689 20.1745 11.0598C20.7454 10.9071 21.32 10.7616 21.8982 10.6343C22.16 10.5933 22.4179 10.53 22.6691 10.4452C22.9272 10.3434 23.1563 10.1798 23.3963 10.0816C23.76 9.91069 24.1236 9.75432 24.5127 9.6016C25.6036 9.15796 27.9382 8.60887 27.36 6.92887C27.1782 6.38705 26.6327 6.14705 26.1563 5.89614C25.6534 5.67686 25.0982 5.6062 24.5563 5.6925C24.0301 5.69878 23.52 5.87479 23.1018 6.19432C22.5345 6.90341 21.5927 7.11796 20.8836 7.68523C20.6327 7.87432 20.2909 7.87796 20.04 8.07069C19.9163 8.16523 19.8763 8.24523 19.7272 8.28887C19.5972 8.30759 19.4659 8.31731 19.3345 8.31796C19.0872 8.35069 18.8436 8.38341 18.6072 8.42341C17.9026 8.51646 17.2139 8.70485 16.56 8.98341C16.2328 9.14335 15.9191 9.32941 15.6218 9.53978C15.3345 9.7325 15.0618 9.65614 14.7345 9.67796C14.4072 9.69978 14.1418 9.7325 13.8436 9.77614L12.9563 9.92523L12.5091 9.99069C12.3579 9.98002 12.206 9.99853 12.0618 10.0452C11.9542 10.1395 11.8821 10.2678 11.8576 10.4087C11.8331 10.5497 11.8577 10.6948 11.9272 10.8198C12.1854 11.358 12.2218 11.8852 12.7818 12.2125Z" fill="white"/>
<path d="M57.2473 11.4343C57.7818 11.2925 58.2436 11.1725 58.5273 10.6561C58.6145 10.4961 58.7091 10.3361 58.7891 10.1725C58.9678 9.85338 59.0534 9.49056 59.0364 9.12522C58.8981 8.83951 58.6778 8.60149 58.4036 8.44158C57.8864 8.18748 57.3313 8.01922 56.76 7.9434C56.0982 7.80158 55.4073 7.63795 54.7382 7.55067C54.3421 7.50436 53.9407 7.53523 53.5563 7.64158C52.7955 7.84456 52.0534 8.1122 51.3382 8.44158C50.5164 8.80522 49.52 8.58704 48.7527 9.08886C48.4209 9.24495 48.0637 9.3398 47.6982 9.36886C47.2436 9.47431 46.8145 9.65613 46.3709 9.80158C45.6109 10.0452 44.8509 10.2816 44.08 10.4925C43.5309 10.6416 42.96 10.4925 42.4145 10.7543C42.2029 10.908 41.9791 11.0442 41.7454 11.1616C41.5018 11.2452 41.2545 11.3579 41.0182 11.4416C40.1454 11.747 39.2 11.9579 38.3054 12.1943C36.72 12.7398 34.9491 12.5034 33.32 12.8089C32.8473 12.9289 32.3527 12.9979 32 13.3761C31.8836 13.9361 32.2909 14.1507 32.6545 14.4161C33.0182 14.6816 33.3345 15.2016 33.7709 15.4779C34.1649 15.6959 34.5774 15.8784 35.0036 16.0234C35.9564 16.4089 36.8509 16.9143 37.8764 17.1143C38.44 17.2234 39.5964 17.3579 40.1091 17.0161C40.7127 16.6125 41.3927 16.3325 41.9782 15.8961C42.2509 15.6925 42.4691 15.427 42.7491 15.2343C43.0647 15.0608 43.3706 14.8702 43.6654 14.6634C44.0271 14.2946 44.4311 13.9699 44.8691 13.6961C45.4327 13.6016 45.96 12.9689 46.52 13.3652C46.7891 13.4889 46.6618 13.7289 46.6764 13.9725C46.6909 14.2161 46.8691 14.5107 46.8691 14.8016C46.8607 15.0826 46.8155 15.3614 46.7345 15.6307V16.0816C47.0145 21.4889 46.5454 26.627 46.0727 32.0816C45.8545 32.7543 46.12 33.3689 46.2727 34.0198C46.2938 34.2783 46.35 34.5328 46.44 34.7761C46.7049 35.2443 47.1021 35.6238 47.5818 35.867C48.5454 36.187 49.8945 36.347 50.6545 35.5034C51.4291 35.1398 51.6691 34.4125 51.7818 33.6161C51.8914 32.9102 51.9631 32.1989 51.9964 31.4852C51.9956 30.9216 51.9098 30.3614 51.7418 29.8234C51.6764 29.5434 51.6582 29.2561 51.5927 28.9761C51.4836 28.5325 51.3418 28.0889 51.2654 27.6379C50.9354 25.4815 50.77 23.3031 50.7709 21.1216C50.8182 19.667 50.44 17.8489 50.2509 16.5907C49.8254 15.6452 50.4182 14.6998 49.9673 13.7543C49.7673 13.2852 49.8545 12.7107 49.8509 12.2161C49.8509 11.7943 50.1418 11.6379 50.4836 11.4561C50.6118 11.3872 50.7335 11.3069 50.8473 11.2161C50.9722 11.133 51.1116 11.0738 51.2582 11.0416C51.3964 10.9943 51.5345 10.9543 51.6763 10.9179C52.6945 10.6561 53.84 10.4889 54.7782 11.0889C55.02 11.277 55.2988 11.412 55.5963 11.4852C56.1424 11.6048 56.7096 11.5873 57.2473 11.4343Z" fill="white"/>
<path d="M38.8363 31.8635C38.6282 31.6775 38.3972 31.5186 38.149 31.3908C37.8654 31.2817 37.5527 31.2635 37.2654 31.1617C36.5354 30.8777 35.8401 30.5117 35.1927 30.0708C35.0548 29.9619 34.9089 29.8634 34.7563 29.7762C34.6055 29.7362 34.4505 29.7142 34.2945 29.7108C34 29.649 33.8254 29.3762 33.5672 29.2417C33.4472 29.1762 33.2909 29.1544 33.2036 29.0453C32.9357 28.8167 32.6371 28.627 32.3163 28.4817C32.0254 28.2853 31.7054 28.2235 31.4072 28.0526C31.152 27.8925 30.9089 27.7139 30.68 27.518C30.2665 27.0999 29.8037 26.7335 29.3018 26.4271C27.5345 25.609 26.3309 23.558 25.0181 22.209C24.1672 21.4308 23.0836 20.3471 23.1054 18.998C23.469 18.1508 24.4981 17.8671 25.2545 17.4635C26.2 16.758 27.5454 16.3726 28.0872 15.2453C28.1822 15.0396 28.2255 14.8139 28.2134 14.5877C28.2014 14.3614 28.1344 14.1416 28.0181 13.9471C27.709 13.3071 26.9272 13.3326 26.3163 13.0962C25.9368 13.0631 25.5544 13.1076 25.1927 13.2271C24.593 13.4544 24.0469 13.8035 23.589 14.2526C23.3709 14.4489 23.1781 14.6962 22.949 14.8817C22.7022 15.0349 22.432 15.1467 22.149 15.2126C22.0105 15.2868 21.8517 15.3142 21.6963 15.2906C21.541 15.267 21.3975 15.1937 21.2872 15.0817C21.0594 14.4511 20.7329 13.8608 20.32 13.3326C20.1837 13.2608 20.0337 13.2186 19.88 13.2089C19.7345 13.1726 19.6436 13.0562 19.5163 13.0199C19.3018 12.958 19.0218 13.1108 18.789 13.1108C18.5036 13.0755 18.2143 13.0915 17.9345 13.158C17.6088 13.2885 17.3301 13.5141 17.1345 13.8053C16.9163 14.1289 17.0109 14.3726 16.9672 14.7326C16.9418 14.9762 16.8836 15.2126 16.8363 15.4599C16.7784 15.6982 16.7455 15.942 16.7381 16.1871C16.7714 16.4099 16.8212 16.6299 16.8872 16.8453C16.9056 17.166 16.8422 17.4861 16.7029 17.7755C16.5636 18.0649 16.353 18.3142 16.0909 18.4999C15.8547 18.7009 15.5989 18.8776 15.3272 19.0271C15.0109 19.2017 14.6509 19.2453 14.3236 19.3908C14.0228 19.536 13.7335 19.7037 13.4581 19.8926C13.1781 20.078 12.9018 20.2562 12.6072 20.4271C12.3127 20.598 11.9599 20.638 11.669 20.7908C11.149 21.049 10.5345 21.0962 10.0145 21.3108C9.44722 21.4271 8.45813 21.2162 8.19631 21.9217C8.29399 22.5506 8.59249 23.131 9.04722 23.5762C9.35268 24.2599 10.2509 24.4962 10.8654 24.9471C11.7854 25.2526 12.709 24.8053 13.5818 24.8744C13.9127 26.1035 13.8181 27.3762 12.9672 28.2744C12.8099 28.7577 12.5727 29.2113 12.2654 29.6162C12.1132 29.8114 11.948 29.9961 11.7709 30.169C11.6109 30.3217 11.549 30.5326 11.389 30.6926C11.2129 30.9108 11.0115 31.1074 10.789 31.278C10.4618 31.4671 10.3454 31.2271 10.0872 31.0671C9.92567 30.9723 9.75018 30.9036 9.56722 30.8635C9.20621 30.7869 8.83209 30.7982 8.47631 30.8962C8.22455 31.0165 8.01897 31.2157 7.89086 31.4635C7.69957 31.6466 7.57211 31.8862 7.52722 32.1471C7.55728 32.3098 7.59859 32.4702 7.65086 32.6271C7.71995 32.9653 7.59268 33.1726 7.8254 33.4853C8.00722 33.7253 7.95631 33.8235 7.99631 34.1108C8.02533 34.2433 8.08374 34.3675 8.16722 34.4744C8.32388 34.6705 8.50895 34.8421 8.71631 34.9835C8.89324 35.1156 9.08788 35.2221 9.29449 35.2999C9.49557 35.3339 9.69465 35.3788 9.89086 35.4344C10.2461 35.6397 10.6517 35.7417 11.0618 35.729C11.7527 35.6962 12.3418 35.4053 12.989 35.198C13.2997 35.1246 13.6011 35.016 13.8872 34.8744C14.1488 34.6988 14.3924 34.4978 14.6145 34.2744C14.9163 34.009 15.2072 33.7326 15.4836 33.4417C15.9826 32.9297 16.4342 32.3735 16.8327 31.7799C17.0337 31.4868 17.2171 31.182 17.3818 30.8671C17.5309 30.5871 17.5999 30.2853 17.7454 30.0017C17.8145 29.8453 17.92 29.7071 17.9854 29.5508C18.1193 29.2643 18.2299 28.9676 18.3163 28.6635C18.3783 28.3907 18.48 28.1285 18.6181 27.8853C18.8132 27.4232 18.9288 26.9314 18.96 26.4308C19 26.209 19.0836 25.9944 19.1236 25.7726C19.1636 25.5508 19.1563 25.2308 19.2145 24.9653C19.3038 24.5764 19.4627 24.2068 19.6836 23.8744C20.2236 23.9771 20.7023 24.2863 21.0181 24.7362C21.2028 24.9463 21.4008 25.1443 21.6109 25.329C21.8581 25.5399 22.0218 25.8271 22.269 26.0308C22.9963 26.6053 23.4945 27.4599 24.0145 28.2126C24.6581 29.129 25.269 30.0671 25.909 30.9871C26.549 31.9071 27.1018 32.769 27.9563 33.4199C28.5893 33.9682 29.2574 34.4748 29.9563 34.9362C30.4763 35.2344 31.149 35.1471 31.7236 35.158C32.7738 35.1544 33.8229 35.0889 34.8654 34.9617C35.3818 34.9071 35.9018 34.8526 36.4181 34.8162C36.6614 34.8235 36.9048 34.8089 37.1454 34.7726C37.5818 34.7253 38.029 34.5253 38.4618 34.4562C38.8945 34.3871 39.4218 34.2999 39.7127 33.9435C39.8311 33.8002 39.9148 33.6314 39.9571 33.4503C39.9993 33.2692 39.9991 33.0808 39.9563 32.8999C39.7781 32.398 39.2363 32.1471 38.8363 31.8635Z" fill="white"/>
<path d="M68.0982 28.0888C68.3011 28.0919 68.5037 28.0711 68.7018 28.027C68.8919 27.9847 69.0762 27.92 69.2509 27.8343L69.3818 27.3907H69.3164C69.1645 27.5206 68.991 27.6228 68.8037 27.6925C68.6259 27.7649 68.4356 27.802 68.2437 27.8016C68.0576 27.814 67.8713 27.7814 67.7004 27.7068C67.5296 27.6321 67.3791 27.5174 67.2618 27.3725C67.014 27.0084 66.8949 26.572 66.9237 26.1325C66.8973 25.7153 67.0154 25.3018 67.2582 24.9616C67.3668 24.8223 67.5076 24.7115 67.6685 24.6387C67.8294 24.5658 68.0055 24.5331 68.1818 24.5434C68.4122 24.5353 68.6402 24.592 68.84 24.707C69.0152 24.8061 69.1455 24.9689 69.2037 25.1616H69.2837C69.2957 25.0393 69.3151 24.9179 69.3418 24.7979C69.3642 24.6899 69.3921 24.5831 69.4255 24.4779C69.2271 24.391 69.0215 24.3216 68.8109 24.2707C68.6102 24.2272 68.4054 24.2052 68.2 24.2052C67.6334 24.1753 67.077 24.3655 66.6473 24.7361C66.4534 24.9155 66.3009 25.1349 66.2004 25.3792C66.0999 25.6235 66.0539 25.8868 66.0655 26.1507C66.0498 26.4171 66.0895 26.684 66.1821 26.9343C66.2747 27.1847 66.4183 27.4131 66.6037 27.6052C67.0189 27.9566 67.5558 28.1304 68.0982 28.0888Z" fill="white"/>
<path d="M72.4182 26.6998C72.4292 26.5127 72.4027 26.3253 72.3402 26.1486C72.2778 25.9719 72.1807 25.8094 72.0546 25.6707C71.7751 25.4419 71.4204 25.3252 71.0596 25.3434C70.6988 25.3616 70.3577 25.5135 70.1027 25.7694C69.8477 26.0253 69.697 26.367 69.6801 26.7278C69.6631 27.0887 69.7811 27.443 70.0109 27.7216C70.147 27.8483 70.3075 27.9459 70.4826 28.0084C70.6576 28.0709 70.8436 28.0971 71.0291 28.0853C71.1946 28.1019 71.3617 28.0857 71.5209 28.0376C71.6802 27.9895 71.8283 27.9106 71.957 27.8052C72.0857 27.6998 72.1923 27.5701 72.2708 27.4235C72.3493 27.2769 72.3982 27.1162 72.4146 26.9507C72.4218 26.8673 72.4218 26.7833 72.4146 26.6998H72.4182ZM71.4764 27.5835C71.4359 27.6653 71.3722 27.7333 71.2934 27.7792C71.2145 27.8251 71.1239 27.8468 71.0327 27.8416C70.9425 27.8473 70.8527 27.8257 70.7748 27.7797C70.697 27.7337 70.6349 27.6653 70.5964 27.5835C70.4922 27.3012 70.45 26.9998 70.4728 26.6998C70.454 26.397 70.4985 26.0936 70.6037 25.8089C70.6674 25.6923 70.7748 25.6058 70.9023 25.5683C71.0298 25.5308 71.1669 25.5454 71.2837 25.6089C71.3673 25.6561 71.4364 25.7253 71.4837 25.8089C71.5883 26.0924 71.6328 26.3946 71.6146 26.6962C71.6325 26.9984 71.5854 27.301 71.4764 27.5835Z" fill="white"/>
<path d="M76.9964 28.016C76.9964 27.8342 76.9891 27.6597 76.9745 27.4924V26.6633C76.9819 26.4128 76.9673 26.1621 76.9309 25.9142C76.9056 25.7902 76.8507 25.6742 76.7709 25.576C76.6972 25.4894 76.6037 25.4221 76.4982 25.3797C76.3586 25.3277 76.2096 25.3061 76.061 25.3161C75.9124 25.3261 75.7677 25.3676 75.6364 25.4378C75.4853 25.5345 75.3604 25.6669 75.2727 25.8233C75.2182 25.6735 75.116 25.5457 74.9818 25.4597C74.8409 25.3698 74.6762 25.3242 74.5091 25.3287C74.3542 25.3243 74.2006 25.358 74.0618 25.4269C73.9204 25.5097 73.7968 25.6197 73.6982 25.7506V25.3869H72.9309C72.9309 25.6851 72.9491 25.9433 72.9564 26.1615C72.9636 26.3797 72.9564 26.5578 72.9564 26.7033V27.2487C72.9564 27.4706 72.9564 27.7324 72.9309 28.0233H73.7455V27.9724C73.7455 27.7615 73.7236 27.6087 73.7236 27.5251V26.6415C73.7094 26.411 73.7453 26.1803 73.8291 25.9651C73.867 25.9089 73.9182 25.8628 73.9781 25.8309C74.0381 25.7991 74.1049 25.7824 74.1727 25.7824C74.2406 25.7824 74.3074 25.7991 74.3673 25.8309C74.4272 25.8628 74.4784 25.9089 74.5164 25.9651C74.6039 26.2597 74.636 26.5679 74.6109 26.8742V27.4233C74.6109 27.6087 74.5927 27.816 74.5782 28.0197H75.4V26.6415C75.3827 26.4124 75.4175 26.1824 75.5018 25.9687C75.5427 25.9102 75.5971 25.8624 75.6604 25.8295C75.7237 25.7965 75.7941 25.7792 75.8655 25.7792C75.9368 25.7792 76.0072 25.7965 76.0705 25.8295C76.1338 25.8624 76.1882 25.9102 76.2291 25.9687C76.3142 26.2289 76.3475 26.5031 76.3273 26.776V27.3506C76.3273 27.5615 76.3091 27.776 76.2909 28.016H77.0182H76.9964Z" fill="white"/>
<path d="M79.3164 28.0162H80.1382V26.6416C80.1208 26.4126 80.1557 26.1826 80.24 25.9689C80.2809 25.9104 80.3353 25.8626 80.3986 25.8296C80.4619 25.7966 80.5322 25.7794 80.6036 25.7794C80.675 25.7794 80.7453 25.7966 80.8087 25.8296C80.872 25.8626 80.9264 25.9104 80.9673 25.9689C81.0523 26.229 81.0857 26.5033 81.0654 26.7762V27.3507C81.0654 27.5616 81.0654 27.7762 81.0291 28.0162H81.8509C81.8509 27.8344 81.8436 27.6598 81.8291 27.4925V26.6634C81.8107 26.4179 81.7705 26.1746 81.7091 25.9362C81.6838 25.8122 81.6289 25.6962 81.5491 25.598C81.4754 25.5114 81.3818 25.444 81.2764 25.4016C81.1368 25.3497 80.9878 25.328 80.8392 25.3381C80.6906 25.3481 80.5459 25.3896 80.4145 25.4598C80.2635 25.5565 80.1386 25.6888 80.0509 25.8453C79.9964 25.6954 79.8942 25.5677 79.76 25.4816C79.619 25.3917 79.4544 25.3461 79.2873 25.3507C79.1324 25.3463 78.9788 25.38 78.84 25.4489C78.6978 25.5305 78.5739 25.6407 78.4764 25.7725V25.4089H77.7054C77.7054 25.7071 77.7273 25.9653 77.7309 26.1834C77.7345 26.4016 77.7309 26.5798 77.7309 26.7253V27.2707C77.7309 27.4925 77.7309 27.7544 77.7054 28.0453H78.5054V27.9944C78.5054 27.7834 78.4873 27.6307 78.4873 27.5471V26.6416C78.4699 26.4114 78.5047 26.1802 78.5891 25.9653C78.6201 25.9199 78.6597 25.881 78.7058 25.8509C78.7518 25.8209 78.8033 25.8002 78.8574 25.7901C78.9114 25.7799 78.9669 25.7805 79.0207 25.7919C79.0745 25.8032 79.1256 25.8251 79.1709 25.8562C79.2142 25.8849 79.2513 25.922 79.28 25.9653C79.364 26.2605 79.396 26.5681 79.3745 26.8744V27.4234C79.3745 27.6089 79.3273 27.8125 79.3164 28.0162Z" fill="white"/>
<path d="M85.0618 26.6997C85.0745 26.5124 85.0488 26.3246 84.9862 26.1476C84.9237 25.9707 84.8257 25.8083 84.6982 25.6706C84.4182 25.449 84.0665 25.3382 83.71 25.3592C83.3536 25.3802 83.0173 25.5316 82.7653 25.7846C82.5132 26.0375 82.363 26.3743 82.3433 26.7308C82.3235 27.0873 82.4356 27.4387 82.6582 27.7179C82.9457 27.9524 83.3054 28.0805 83.6764 28.0805C84.0474 28.0805 84.4071 27.9524 84.6946 27.7179C84.821 27.5815 84.9187 27.4211 84.9818 27.2461C85.0449 27.0712 85.0721 26.8854 85.0618 26.6997ZM84.1164 27.5833C84.0507 27.6999 83.9414 27.7856 83.8126 27.8218C83.6838 27.8579 83.5459 27.8414 83.4291 27.7761C83.3488 27.7302 83.2822 27.6637 83.2364 27.5833C83.1315 27.3012 83.0869 27.0002 83.1055 26.6997C83.0867 26.3969 83.1313 26.0934 83.2364 25.8088C83.2679 25.7496 83.311 25.6974 83.3631 25.6552C83.4152 25.6129 83.4752 25.5816 83.5396 25.5629C83.604 25.5443 83.6715 25.5387 83.7381 25.5466C83.8047 25.5545 83.869 25.5756 83.9273 25.6088C84.0109 25.656 84.0801 25.7252 84.1273 25.8088C84.2352 26.0915 84.2811 26.3941 84.2618 26.6961C84.2811 26.998 84.2352 27.3006 84.1273 27.5833H84.1164Z" fill="white"/>
<path d="M87.1309 25.9579C87.2179 26.2063 87.2513 26.4702 87.2291 26.7324V27.4597C87.2357 27.6469 87.226 27.8343 87.2 28.0197H88.0182C88.0182 27.8779 87.9963 27.7288 87.9891 27.5761C87.9818 27.4233 87.9891 27.2597 87.9891 27.0888V26.3943C87.9958 26.2139 87.9824 26.0334 87.9491 25.8561C87.928 25.7581 87.883 25.667 87.8181 25.5906C87.7432 25.5005 87.6469 25.4305 87.5381 25.387C87.4019 25.3372 87.2572 25.3152 87.1123 25.322C86.9675 25.3289 86.8254 25.3646 86.6945 25.427C86.5506 25.5094 86.4264 25.6223 86.3309 25.7579V25.3943H85.5818C85.5963 25.6124 85.6072 25.8306 85.6145 26.0488V27.3397C85.6145 27.5543 85.6145 27.787 85.5818 28.0306H86.3782C86.3782 27.7433 86.3781 27.4888 86.3563 27.2706C86.3453 27.0829 86.3453 26.8947 86.3563 26.707C86.3412 26.4679 86.3785 26.2284 86.4654 26.0052C86.4972 25.9469 86.5432 25.8975 86.5991 25.8616C86.655 25.8257 86.719 25.8044 86.7852 25.7997C86.8515 25.795 86.9179 25.807 86.9783 25.8347C87.0387 25.8623 87.0911 25.9047 87.1309 25.9579Z" fill="white"/>
<path d="M93.4654 24.2708H93.2109C93.0981 24.7362 92.9745 25.1944 92.8472 25.6453C92.72 26.0962 92.5672 26.5435 92.4145 26.9871C92.2472 26.5144 92.0909 26.0526 91.9418 25.6017C91.7927 25.1508 91.6581 24.7071 91.5272 24.2708H90.9709C90.8254 24.6998 90.68 25.1435 90.5236 25.5944C90.3672 26.0453 90.2072 26.5217 90.0327 27.0235C89.8909 26.5689 89.76 26.1108 89.6363 25.6526C89.5127 25.1944 89.3963 24.7326 89.2727 24.2708H88.3381C88.5636 24.9204 88.7721 25.5604 88.9636 26.1908C89.1563 26.8162 89.3272 27.4344 89.4872 28.038H90.0472C90.2 27.5689 90.3527 27.1144 90.509 26.6671C90.6654 26.2198 90.829 25.7908 90.9927 25.3689C91.1636 25.8344 91.3236 26.2926 91.4727 26.7362C91.6218 27.1798 91.7563 27.6126 91.8836 28.038H92.4545C92.6763 27.3362 92.8945 26.6744 93.1018 26.0453C93.309 25.4162 93.509 24.8271 93.7054 24.2708H93.4654Z" fill="white"/>
<path d="M95.16 25.307C94.9836 25.2978 94.8071 25.3254 94.6419 25.388C94.4766 25.4506 94.3262 25.5468 94.2 25.6706C94.0776 25.8006 93.9824 25.9538 93.92 26.1212C93.8575 26.2885 93.8291 26.4667 93.8364 26.6451C93.8136 27.0298 93.9444 27.4077 94.2 27.696C94.3333 27.8235 94.4918 27.9217 94.6653 27.9843C94.8387 28.0469 95.0233 28.0726 95.2073 28.0597C95.3779 28.0599 95.5478 28.0379 95.7128 27.9942C95.8577 27.955 95.9953 27.8924 96.12 27.8088L96.24 27.496L96.1891 27.456C96.0865 27.5395 95.9711 27.6058 95.8473 27.6524C95.731 27.6958 95.6078 27.718 95.4837 27.7179C95.3671 27.7217 95.2513 27.6984 95.1452 27.6498C95.0392 27.6012 94.9459 27.5287 94.8728 27.4379C94.7097 27.2206 94.6285 26.9527 94.6437 26.6815H96.3346V26.507C96.347 26.3435 96.3267 26.1793 96.2749 26.0238C96.223 25.8684 96.1407 25.7248 96.0328 25.6015C95.9151 25.4954 95.777 25.4145 95.6269 25.3639C95.4768 25.3132 95.3179 25.2939 95.16 25.307ZM95.5637 26.3579V26.4342H94.6291V26.3833C94.6153 26.1676 94.6619 25.9522 94.7637 25.7615C94.7987 25.6955 94.8511 25.6403 94.9152 25.6019C94.9792 25.5634 95.0526 25.5432 95.1273 25.5433C95.1937 25.5428 95.259 25.5605 95.316 25.5945C95.3731 25.6285 95.4197 25.6774 95.451 25.736C95.5352 25.9115 95.574 26.1053 95.5637 26.2997C95.5655 26.319 95.5655 26.3385 95.5637 26.3579Z" fill="white"/>
<path d="M98.9345 27.7107C98.8678 27.5769 98.8413 27.4266 98.8582 27.278V27.1725L98.8763 26.2125V26.1834C98.8833 26.0615 98.8631 25.9395 98.8172 25.8263C98.7713 25.7131 98.7008 25.6116 98.6109 25.5289C98.3926 25.3624 98.1212 25.2809 97.8473 25.2998C97.6757 25.3 97.506 25.3359 97.3491 25.4052C97.1723 25.4847 97.0091 25.5915 96.8654 25.7216C96.8836 25.7689 96.9018 25.8162 96.9163 25.8671C96.9332 25.9381 96.9563 26.0074 96.9854 26.0743C97.0575 25.9508 97.1526 25.8422 97.2654 25.7543C97.3661 25.6855 97.4853 25.6487 97.6073 25.6489C97.6747 25.6482 97.7417 25.661 97.8042 25.6866C97.8666 25.7122 97.9233 25.7501 97.9709 25.798C98.0194 25.8515 98.057 25.914 98.0813 25.982C98.1056 26.05 98.1163 26.1222 98.1127 26.1943V26.2998C97.9271 26.4066 97.7276 26.4874 97.52 26.5398L97.24 26.6271C97.0724 26.6747 96.9214 26.7678 96.8036 26.8962C96.7054 27.0146 96.6525 27.1641 96.6545 27.318C96.6491 27.4199 96.664 27.5219 96.6984 27.618C96.7327 27.7142 96.7858 27.8025 96.8545 27.878C96.9262 27.9483 97.0117 28.003 97.1056 28.0387C97.1994 28.0744 97.2997 28.0902 97.4 28.0852C97.5514 28.088 97.7007 28.0504 97.8327 27.9762C97.9628 27.9047 98.071 27.7991 98.1454 27.6707C98.166 27.7859 98.2265 27.8902 98.3163 27.9652C98.4087 28.0366 98.5234 28.0727 98.64 28.0671C98.7379 28.0672 98.8355 28.0562 98.9309 28.0343C99.0309 28.0146 99.1284 27.9841 99.2218 27.9434V27.8089H99.2C99.1513 27.8124 99.1024 27.8055 99.0566 27.7886C99.0108 27.7716 98.9692 27.7451 98.9345 27.7107ZM98.1382 27.2052C98.1464 27.3397 98.1121 27.4733 98.04 27.5871C98.0073 27.6298 97.9647 27.664 97.916 27.6868C97.8673 27.7096 97.8137 27.7203 97.76 27.718C97.7107 27.7212 97.6614 27.7122 97.6164 27.692C97.5714 27.6717 97.532 27.6406 97.5018 27.6016C97.4396 27.4909 97.4106 27.3647 97.4182 27.238C97.4131 27.1564 97.4254 27.0747 97.4542 26.9982C97.4831 26.9218 97.5278 26.8523 97.5854 26.7943C97.7453 26.6676 97.9361 26.586 98.1382 26.558V27.2052Z" fill="white"/>
<path d="M100.436 23.8779C100.361 23.8829 100.285 23.8926 100.211 23.907H99.8473C99.7709 23.907 99.6982 23.907 99.6218 23.8779C99.6218 24.1797 99.6436 24.4961 99.6509 24.8379C99.6582 25.1797 99.6509 25.5652 99.6509 25.9579V27.0488C99.6509 27.3907 99.6327 27.7107 99.6218 28.0197C99.688 28.0077 99.7547 27.9992 99.8218 27.9943C99.9633 27.9798 100.106 27.9798 100.247 27.9943C100.313 27.9992 100.379 28.0077 100.444 28.0197C100.444 27.7216 100.418 27.4016 100.411 27.0634C100.404 26.7252 100.411 26.3361 100.411 25.9397V24.8452C100.404 24.4816 100.422 24.1907 100.436 23.8779Z" fill="white"/>
<path d="M102.211 27.787C102.16 27.7916 102.108 27.7792 102.065 27.7515C102.021 27.7239 101.988 27.6826 101.971 27.6342C101.916 27.3763 101.895 27.1122 101.909 26.8488V26.627C101.909 26.467 101.909 26.1942 101.927 25.8124V25.6851H102.473C102.469 25.644 102.469 25.6026 102.473 25.5615V25.416H101.938V24.9215C101.936 24.7454 101.944 24.5693 101.964 24.3942L101.902 24.3506C101.785 24.4088 101.665 24.4633 101.538 24.5179L101.175 24.6706C101.17 24.7715 101.176 24.8727 101.193 24.9724C101.202 25.0485 101.202 25.1254 101.193 25.2015V25.4124H100.829V25.467C100.833 25.4971 100.833 25.5277 100.829 25.5579V25.6997H101.193V27.3651C101.185 27.4639 101.197 27.5632 101.229 27.657C101.261 27.7508 101.312 27.8371 101.378 27.9106C101.451 27.9768 101.535 28.0276 101.628 28.0601C101.72 28.0926 101.819 28.1061 101.916 28.0997C102.017 28.1004 102.117 28.0882 102.215 28.0633C102.33 28.0343 102.442 27.9941 102.549 27.9433V27.7542C102.438 27.7786 102.325 27.7896 102.211 27.787Z" fill="white"/>
<path d="M105.309 27.6088V26.3943C105.314 26.2164 105.301 26.0385 105.269 25.8634C105.244 25.7633 105.197 25.6701 105.131 25.5907C105.056 25.5006 104.96 25.4306 104.851 25.387C104.735 25.3436 104.611 25.3214 104.487 25.3216C104.318 25.3182 104.151 25.3569 104 25.4343C103.852 25.5179 103.727 25.6366 103.636 25.7797V24.3652C103.641 24.202 103.656 24.0393 103.68 23.8779L103.473 23.9107H103.087L102.873 23.8779C102.873 24.1107 102.902 24.387 102.909 24.707C102.916 25.027 102.909 25.4779 102.909 26.0525V27.2961C102.909 27.5834 102.891 27.8234 102.873 28.0234H103.676C103.681 27.7807 103.673 27.5379 103.651 27.2961C103.638 27.0975 103.638 26.8983 103.651 26.6997C103.636 26.4607 103.673 26.2212 103.76 25.9979C103.796 25.9375 103.846 25.887 103.906 25.8508C103.966 25.8146 104.034 25.794 104.104 25.7907C104.174 25.7875 104.244 25.8017 104.307 25.8322C104.37 25.8626 104.424 25.9084 104.465 25.9652C104.549 26.2142 104.582 26.4778 104.56 26.7397V27.467C104.567 27.6542 104.557 27.8416 104.531 28.027H105.345C105.326 27.8884 105.313 27.7488 105.309 27.6088Z" fill="white"/>
<path d="M70.5309 33.0416L70.2145 30.4016H69.709C69.5054 30.8562 69.3018 31.2962 69.0909 31.7252C68.88 32.1543 68.669 32.5725 68.4509 32.9834C68.2254 32.558 68.0036 32.1325 67.7927 31.7071C67.5818 31.2816 67.3709 30.8416 67.1745 30.4016H66.6945L66.3309 33.0089C66.3168 33.1542 66.2949 33.2986 66.2654 33.4416C66.2327 33.6452 66.1927 33.8889 66.149 34.1689L66.2654 34.1471H66.4727L66.5927 34.1689C66.5927 33.7507 66.64 33.3289 66.6945 32.9143V32.8707L66.829 31.7252C67.0254 32.0889 67.2254 32.478 67.4327 32.8852C67.64 33.2925 67.8436 33.7216 68.0581 34.1689H68.2909C68.5054 33.7143 68.7163 33.2743 68.9236 32.8562C69.1309 32.438 69.3345 32.0307 69.5418 31.6343L69.72 33.3943C69.72 33.4889 69.7454 33.7252 69.76 34.1216V34.1762L69.9963 34.1543H70.4327L70.6836 34.1725C70.6545 34.0416 70.6254 33.8962 70.6 33.7289C70.5745 33.5616 70.5636 33.3325 70.5309 33.0416Z" fill="white"/>
<path d="M73.3819 33.8669C73.3169 33.7325 73.2904 33.5828 73.3055 33.4342V33.3288L73.3237 32.3688V32.3397C73.3306 32.2177 73.3104 32.0958 73.2645 31.9826C73.2186 31.8694 73.1481 31.7678 73.0582 31.6851C72.8399 31.5186 72.5685 31.4372 72.2946 31.456C72.123 31.4562 71.9534 31.4922 71.7964 31.5615C71.6196 31.641 71.4564 31.7477 71.3128 31.8779C71.331 31.9215 71.3491 31.9688 71.3673 32.0233C71.3855 32.0779 71.4073 32.1433 71.4328 32.2306C71.5021 32.104 71.599 31.9946 71.7164 31.9106C71.8149 31.84 71.9335 31.803 72.0546 31.8051C72.1218 31.8042 72.1885 31.8165 72.251 31.8415C72.3134 31.8665 72.3702 31.9035 72.4182 31.9506C72.5161 32.0602 72.5671 32.2038 72.56 32.3506V32.4451C72.3756 32.5508 72.1773 32.6303 71.971 32.6815L71.691 32.7724C71.5227 32.8208 71.3707 32.9138 71.251 33.0415C71.1525 33.1622 71.102 33.315 71.1091 33.4706C71.103 33.5731 71.1176 33.6759 71.152 33.7727C71.1863 33.8695 71.2398 33.9584 71.3091 34.0342C71.3808 34.1046 71.4663 34.1593 71.5602 34.195C71.654 34.2306 71.7543 34.2465 71.8546 34.2415C72.0071 34.2439 72.1575 34.2063 72.291 34.1324C72.4195 34.0585 72.5261 33.9518 72.6 33.8233C72.6164 33.9407 72.6772 34.0473 72.7699 34.1211C72.8626 34.1948 72.9802 34.2301 73.0982 34.2197C73.1947 34.2192 73.2909 34.2094 73.3855 34.1906C73.485 34.1691 73.5824 34.1387 73.6764 34.0997V33.9615H73.6582C73.608 33.9674 73.5571 33.962 73.5093 33.9456C73.4615 33.9292 73.4179 33.9024 73.3819 33.8669ZM72.5855 33.3615C72.5898 33.4898 72.5556 33.6164 72.4873 33.7251C72.4546 33.7679 72.4121 33.8021 72.3633 33.8249C72.3146 33.8477 72.2611 33.8583 72.2073 33.856C72.1582 33.8589 72.1092 33.8494 72.0648 33.8284C72.0203 33.8074 71.9818 33.7757 71.9528 33.736C71.8862 33.627 71.8556 33.4998 71.8655 33.3724C71.8605 33.2914 71.8728 33.2102 71.9017 33.1344C71.9305 33.0585 71.9752 32.9896 72.0328 32.9324C72.1926 32.8057 72.3834 32.724 72.5855 32.696V33.3615Z" fill="white"/>
<path d="M76.2073 33.867C75.9995 33.7938 75.7804 33.7581 75.5601 33.7616H75.4619C74.9382 33.7616 74.6801 33.6488 74.6801 33.4816C74.6771 33.4146 74.7006 33.3492 74.7455 33.2995C74.7905 33.2499 74.8532 33.2199 74.9201 33.2161H75.0146C75.3377 33.2345 75.6584 33.1505 75.931 32.9761C76.0369 32.9006 76.1223 32.7999 76.1794 32.683C76.2366 32.5662 76.2637 32.437 76.2582 32.307C76.2615 32.1924 76.2366 32.0788 76.1855 31.9761C76.135 31.8815 76.0612 31.8014 75.971 31.7434H76.5164V31.4743H76.0219C75.8241 31.4771 75.6262 31.4698 75.4292 31.4525L75.0655 31.4307C74.7693 31.4133 74.4762 31.4994 74.2364 31.6743C74.1377 31.7495 74.0582 31.8471 74.0045 31.959C73.9508 32.0708 73.9243 32.1939 73.9273 32.3179C73.9215 32.4135 73.9345 32.5092 73.9657 32.5997C73.9969 32.6902 74.0456 32.7736 74.1091 32.8452C74.2533 32.9906 74.441 33.0851 74.6437 33.1143V33.2088C74.4888 33.2692 74.3486 33.3623 74.2328 33.4816C74.1862 33.5298 74.1497 33.5867 74.1254 33.6491C74.101 33.7116 74.0893 33.7782 74.091 33.8452C74.0874 33.9441 74.1197 34.0409 74.1819 34.1179C74.2503 34.1981 74.3417 34.2552 74.4437 34.2816V34.3252C74.2824 34.3737 74.1369 34.464 74.0219 34.587C73.9261 34.7005 73.8768 34.846 73.8837 34.9943C73.883 35.1009 73.9114 35.2057 73.9659 35.2973C74.0203 35.3889 74.0988 35.464 74.1928 35.5143C74.457 35.6559 74.7554 35.7214 75.0546 35.7034C75.4444 35.7221 75.829 35.608 76.1455 35.3798C76.2778 35.2853 76.3853 35.1602 76.4587 35.0152C76.5322 34.8702 76.5694 34.7096 76.5673 34.547C76.5701 34.4118 76.5389 34.278 76.4764 34.1579C76.4206 34.0344 76.3262 33.9323 76.2073 33.867ZM74.7855 31.8525C74.8161 31.7992 74.8597 31.7546 74.9122 31.7227C74.9647 31.6909 75.0244 31.6728 75.0858 31.6703C75.1471 31.6678 75.2081 31.6808 75.2631 31.7082C75.318 31.7356 75.3652 31.7765 75.4001 31.827C75.4757 31.9634 75.5098 32.1188 75.4982 32.2743C75.5113 32.4638 75.4776 32.6536 75.4001 32.827C75.3396 32.9102 75.2487 32.9661 75.1472 32.9825C75.0456 32.9988 74.9418 32.9743 74.8582 32.9143C74.8256 32.889 74.7963 32.8596 74.771 32.827C74.6951 32.6724 74.6613 32.5006 74.6728 32.3288C74.6622 32.1624 74.7015 31.9965 74.7855 31.8525ZM75.6764 35.2925C75.5013 35.4051 75.2952 35.4598 75.0873 35.4488C74.902 35.4589 74.7199 35.3978 74.5782 35.2779C74.5149 35.2208 74.4649 35.1505 74.4316 35.072C74.3983 34.9935 74.3826 34.9086 74.3855 34.8234C74.3832 34.7212 74.4097 34.6204 74.4619 34.5325C74.5113 34.4467 74.5845 34.3772 74.6728 34.3325L75.3092 34.3652C75.4669 34.3623 75.6214 34.4108 75.7492 34.5034C75.7977 34.55 75.8352 34.6068 75.8591 34.6697C75.883 34.7326 75.8926 34.8 75.8873 34.867C75.891 34.95 75.8736 35.0325 75.8367 35.107C75.7999 35.1814 75.7447 35.2452 75.6764 35.2925Z" fill="white"/>
<path d="M78.9891 33.867C78.9241 33.7326 78.8976 33.5828 78.9127 33.4342V32.3433C78.9196 32.2214 78.8994 32.0994 78.8535 31.9862C78.8076 31.8731 78.7372 31.7715 78.6472 31.6888C78.4289 31.5223 78.1575 31.4408 77.8836 31.4597C77.712 31.4599 77.5424 31.4958 77.3854 31.5652C77.2086 31.6446 77.0454 31.7514 76.9018 31.8815C76.9018 31.9252 76.9382 31.9724 76.9563 32.027C76.9745 32.0815 76.9963 32.147 77.0218 32.2342C77.0911 32.1076 77.188 31.9982 77.3054 31.9143C77.4039 31.8437 77.5225 31.8067 77.6436 31.8088C77.7108 31.8078 77.7776 31.8202 77.84 31.8452C77.9024 31.8701 77.9592 31.9072 78.0072 31.9543C78.1061 32.0634 78.1584 32.207 78.1527 32.3542V32.4124C78.1563 32.4243 78.1563 32.4369 78.1527 32.4488C77.9682 32.5545 77.77 32.634 77.5636 32.6852L77.2836 32.7761C77.1154 32.8245 76.9633 32.9174 76.8436 33.0452C76.7451 33.1659 76.6946 33.3186 76.7018 33.4742C76.6957 33.5768 76.7103 33.6795 76.7446 33.7764C76.779 33.8732 76.8324 33.9621 76.9018 34.0379C76.9735 34.1082 77.0589 34.1629 77.1528 34.1986C77.2467 34.2343 77.3469 34.2501 77.4472 34.2452C77.5997 34.2475 77.7502 34.2099 77.8836 34.1361C78.0121 34.0621 78.1187 33.9555 78.1927 33.827C78.209 33.9443 78.2698 34.0509 78.3626 34.1247C78.4553 34.1985 78.5728 34.2338 78.6909 34.2233C78.7873 34.2228 78.8835 34.2131 78.9781 34.1942C79.0777 34.1728 79.175 34.1424 79.2691 34.1033V33.9652C79.2181 33.9694 79.1668 33.9628 79.1186 33.9459C79.0703 33.929 79.0262 33.9021 78.9891 33.867ZM78.1963 33.3615C78.1987 33.4896 78.1646 33.6157 78.0982 33.7252C78.0636 33.7667 78.0202 33.8 77.9711 33.8226C77.922 33.8453 77.8685 33.8567 77.8145 33.8561C77.7654 33.8589 77.7164 33.8494 77.672 33.8284C77.6275 33.8075 77.589 33.7757 77.56 33.7361C77.4934 33.627 77.4628 33.4998 77.4727 33.3724C77.4691 33.2912 77.4824 33.2102 77.5118 33.1344C77.5413 33.0587 77.5861 32.9899 77.6436 32.9324C77.8021 32.8034 77.9936 32.7215 78.1963 32.6961V33.3615Z" fill="white"/>
<path d="M80.7128 31.5543H79.6219C79.6255 31.5735 79.6255 31.5933 79.6219 31.6125C79.6255 31.6439 79.6255 31.6756 79.6219 31.707C79.6257 31.7372 79.6257 31.7678 79.6219 31.798V31.8561H79.6837C80.0061 31.8416 80.2425 31.8343 80.3928 31.8343H80.8473L80.3309 32.6234C79.8946 33.2925 79.5746 33.7798 79.3673 34.0779V34.1652L79.9273 34.1434H81.24L81.7637 34.1652V33.8307C81.6109 33.8307 81.4546 33.8525 81.2946 33.8561C81.1346 33.8598 80.9709 33.8561 80.8037 33.8561H80.32L81.2509 32.4016L81.7891 31.5761V31.5361H81.2909L80.7128 31.5543Z" fill="white"/>
<path d="M83.069 31.5361H82.2509C82.2509 31.7725 82.2727 32.0016 82.2799 32.2161C82.2872 32.4307 82.2799 32.6452 82.2799 32.8561V33.4379C82.2837 33.6807 82.274 33.9235 82.2509 34.1652L82.4618 34.1434H82.8618L83.069 34.1652C83.069 33.8852 83.0472 33.6416 83.0399 33.4379C83.0327 33.2343 83.0399 33.0343 83.0399 32.8525V32.2125C83.0399 31.9943 83.0545 31.7725 83.069 31.5361Z" fill="white"/>
<path d="M82.6654 30.1216C82.5547 30.1176 82.4469 30.1574 82.3653 30.2322C82.2836 30.307 82.2347 30.411 82.229 30.5216C82.2274 30.5829 82.2388 30.6438 82.2627 30.7002C82.2865 30.7567 82.3222 30.8074 82.3672 30.8489C82.4052 30.8883 82.4511 30.9194 82.5018 30.94C82.5525 30.9607 82.607 30.9705 82.6618 30.9689C82.717 30.975 82.7729 30.97 82.8262 30.9543C82.8795 30.9385 82.9291 30.9123 82.9721 30.8771C83.0152 30.842 83.0508 30.7986 83.0768 30.7496C83.1029 30.7005 83.119 30.6467 83.1241 30.5914C83.1291 30.5361 83.1231 30.4803 83.1064 30.4273C83.0897 30.3743 83.0625 30.3252 83.0266 30.2828C82.9907 30.2404 82.9467 30.2056 82.8971 30.1804C82.8476 30.1553 82.7935 30.1402 82.7381 30.1362H82.6618L82.6654 30.1216Z" fill="white"/>
<path d="M86.1782 33.2415V32.5506C86.185 32.3691 86.1715 32.1873 86.1382 32.0088C86.1172 31.9108 86.0722 31.8197 86.0073 31.7433C85.9298 31.6553 85.8327 31.5867 85.7237 31.5433C85.6081 31.497 85.4846 31.4735 85.3601 31.4742C85.196 31.4718 85.0338 31.5093 84.8873 31.5833C84.7434 31.6657 84.6193 31.7787 84.5237 31.9142V31.5506H83.7491C83.7637 31.7664 83.7746 31.9845 83.7819 32.2051C83.7891 32.4257 83.7891 32.6476 83.7819 32.8706V33.496C83.7867 33.7268 83.7758 33.9577 83.7491 34.187L83.9601 34.1651H84.3237L84.5273 34.187C84.5273 33.9009 84.5201 33.6463 84.5055 33.4233V32.8451C84.4906 32.6072 84.5278 32.369 84.6146 32.147C84.6465 32.0792 84.6985 32.0229 84.7636 31.9858C84.8287 31.9487 84.9037 31.9326 84.9782 31.9397C85.0493 31.9296 85.1218 31.9409 85.1865 31.9719C85.2512 32.003 85.3053 32.0525 85.3419 32.1142C85.4259 32.3633 85.458 32.6268 85.4364 32.8888V33.616C85.443 33.8032 85.4333 33.9906 85.4073 34.176L85.6219 34.1542H86.0073L86.2255 34.176C86.2255 34.0342 86.2037 33.8851 86.1964 33.7324C86.1891 33.5797 86.1782 33.4124 86.1782 33.2415Z" fill="white"/>
<path d="M88.0509 31.4634C87.8739 31.4545 87.6969 31.4821 87.5311 31.5447C87.3653 31.6073 87.2142 31.7034 87.0872 31.8271C86.9641 31.9567 86.8685 32.1098 86.806 32.2773C86.7435 32.4447 86.7155 32.6231 86.7236 32.8016C86.7008 33.1863 86.8316 33.5642 87.0872 33.8525C87.2214 33.9799 87.3805 34.078 87.5545 34.1406C87.7285 34.2032 87.9137 34.2289 88.0982 34.2162C88.2688 34.2164 88.4387 34.1944 88.6036 34.1507C88.7486 34.1115 88.8861 34.0489 89.0109 33.9653L89.1309 33.6525L89.0763 33.6125C88.975 33.6959 88.8608 33.7622 88.7382 33.8089C88.6218 33.8523 88.4987 33.8745 88.3745 33.8744C88.2571 33.8781 88.1404 33.8544 88.0337 33.8051C87.9271 33.7559 87.8333 33.6825 87.76 33.5907C87.5998 33.3722 87.5202 33.1049 87.5345 32.8344H89.2218C89.2255 32.8127 89.2255 32.7906 89.2218 32.7689C89.2254 32.7326 89.2254 32.6961 89.2218 32.6598C89.2438 32.3295 89.134 32.0039 88.9163 31.7544C88.8002 31.6484 88.6633 31.5678 88.5143 31.5177C88.3653 31.4676 88.2074 31.4491 88.0509 31.4634ZM88.4691 32.5144V32.5871H87.5345V32.5398C87.5229 32.3246 87.568 32.1102 87.6654 31.918C87.7011 31.8525 87.7536 31.7978 87.8175 31.7594C87.8815 31.721 87.9545 31.7005 88.0291 31.6998C88.0945 31.6996 88.1587 31.7171 88.2151 31.7504C88.2714 31.7837 88.3177 31.8315 88.3491 31.8889C88.4321 32.066 88.4696 32.261 88.4582 32.4562L88.4691 32.5144Z" fill="white"/>
<path d="M67.7309 12.4815C67.9951 12.8967 68.2379 13.3251 68.4581 13.7651L69.1854 13.0633C68.8182 12.6491 68.4003 12.2826 67.9418 11.9724C68.0955 11.6204 68.2172 11.2553 68.3054 10.8815L67.2545 10.6633C67.0353 11.9409 66.5973 13.171 65.96 14.2997L66.3236 14.5979C66.8895 13.9618 67.3632 13.2494 67.7309 12.4815Z" fill="white"/>
<path d="M75.88 10.558C75.5523 9.7677 75.106 9.03197 74.5564 8.37622L74.1418 8.58349C74.4185 9.36169 74.6432 10.1574 74.8146 10.9653L75.88 10.558Z" fill="white"/>
<path d="M71.7709 9.96161H69.4654L69.9854 9.23434C69.3224 8.80139 68.5962 8.47387 67.8327 8.26343L67.6545 8.66343C68.1565 9.06311 68.6315 9.49557 69.0764 9.95797H66.1891V10.5398H71.7709V9.96161Z" fill="white"/>
<path d="M68.5345 17.1507V20.5434H69.6473V16.9071C70.109 17.4304 70.5412 17.9792 70.9418 18.5507L71.7091 17.6961C71.0788 17.1475 70.3869 16.6741 69.6473 16.2852V15.8052H71.7964V15.2198H69.6473V14.0016H69.4291C69.7518 13.5632 70.033 13.0957 70.2691 12.6052C70.5454 12.9939 70.7887 13.405 70.9964 13.8343L71.6036 13.278C71.4871 13.6052 71.3523 13.9257 71.2 14.238L71.5636 14.5071C71.76 14.2489 71.9273 13.9652 72.12 13.678V20.4816H73.2582V19.4816H77.6218V18.8852H75.64V16.6452H77.1418V16.0634H75.64V14.0416H77.1309V13.4598H75.64V11.7252H77.4582V11.1398H73.1964C73.4328 10.3329 73.5887 9.50465 73.6618 8.66705L72.4836 8.43433C72.2909 10.3252 72.12 11.7252 71.68 13.0452C71.3377 12.6705 70.9463 12.3439 70.5163 12.0743C70.6718 11.7105 70.7935 11.3331 70.88 10.9471L69.8291 10.6889C69.7254 11.8428 69.4046 12.9668 68.8836 14.0016H68.5491V15.2198H66.1091V15.8052H68.2473C67.6693 17.1101 66.8473 18.2926 65.8254 19.2889L66.0982 19.6525C67.0463 18.9628 67.8702 18.1168 68.5345 17.1507ZM73.2218 11.7252H74.4727V13.4598H73.2145L73.2218 11.7252ZM73.2218 14.0416H74.4727V16.0634H73.2145L73.2218 14.0416ZM73.2218 16.6452H74.4727V18.8852H73.2145L73.2218 16.6452Z" fill="white"/>
<path d="M89.7454 15.507C89.053 14.9186 88.2758 14.4381 87.44 14.0815L87.2073 14.4452C87.8333 15.0512 88.4257 15.6909 88.9818 16.3615L89.7454 15.507Z" fill="white"/>
<path d="M87.6546 13.4597H85.2582V14.0415H91.3709V13.4597H88.8182V11.2197H91.5382V10.6343H88.8182V8.45972H87.6546V10.6343H84.9855V11.2197H87.6546V13.4597Z" fill="white"/>
<path d="M92.0073 18.2378C91.5705 17.2976 90.9793 16.4372 90.2582 15.6924L89.8945 15.936C90.33 16.8435 90.6948 17.7833 90.9854 18.7469L92.0073 18.2378Z" fill="white"/>
<path d="M86.4728 18.6633C86.4728 20.0633 86.731 20.2052 88.6255 20.2052C90.6437 20.2052 90.5419 19.3761 89.9455 17.2524H89.4801C89.4801 18.9761 89.48 19.1433 88.5455 19.1433C87.731 19.1433 87.6146 18.9761 87.6146 18.4561V15.2852H86.4728V18.6633Z" fill="white"/>
<path d="M84.7128 10.6344H82.8364L83.5091 10.1181C82.933 9.43441 82.262 8.83682 81.5164 8.34351L81.1928 8.66714C81.4909 9.0926 81.9709 9.89623 82.3964 10.6344H80.4V11.2199H84.7128V10.6344Z" fill="white"/>
<path d="M83.3163 20.2851H84.2909V18.7179L85.16 19.3651C85.7563 18.576 86.0545 17.4342 86.1309 16.0633L85.6763 15.9724C85.5021 16.9683 85.0171 17.8835 84.2909 18.587V16.0415H80.8073V20.4815H81.8182V19.5361H83.3091L83.3163 20.2851ZM83.3163 18.9506H81.84V16.5942H83.3163V18.9506Z" fill="white"/>
<path d="M84.4145 14.2234H80.7745V14.7688H84.4145V14.2234Z" fill="white"/>
<path d="M84.4145 12.4343H80.7745V12.9798H84.4145V12.4343Z" fill="white"/>
<path d="M61.32 19.7143L61.2073 19.6561C61.0389 19.5359 60.8555 19.4381 60.6619 19.3652C60.36 19.2888 60.04 19.3252 59.7382 19.2597C59.3128 19.1688 58.8909 19.0634 58.4619 18.9979C57.9251 18.8959 57.3724 18.9145 56.8437 19.0525C56.5858 19.1119 56.3478 19.2372 56.1528 19.4161C56.045 19.5749 55.981 19.7593 55.9673 19.9507C55.9236 20.1329 55.9016 20.3196 55.9019 20.507C55.9268 21.2067 56.1349 21.8876 56.5055 22.4816C56.6923 22.8024 56.9064 23.1066 57.1455 23.3907C57.3643 23.6815 57.6184 23.9442 57.9019 24.1725C58.1608 24.3189 58.3813 24.5245 58.5455 24.7725C58.6691 24.9725 58.68 25.0307 58.9091 25.1361C59.3035 25.2517 59.7128 25.308 60.1237 25.3034C60.6661 25.3393 61.2109 25.3076 61.7455 25.2088C62.1419 25.1398 62.2146 24.8452 62.5382 24.6707C62.8619 24.4961 62.9891 24.467 63.1273 24.1361C63.7528 22.6452 62.9819 21.3761 62.0691 20.2997C61.8539 20.0641 61.6007 19.8663 61.32 19.7143Z" fill="white"/>
</g>
<line x1="118" y1="1.30981" x2="126" y2="1.30981" stroke="#C4C4C4"/>
<path d="M125.5 40.625V1" stroke="#C4C4C4"/>
<line x1="118" y1="40.3452" x2="126" y2="40.3452" stroke="#C4C4C4"/>
<path d="M135.608 21.2214V22.5339H128.431L128.376 21.5427L132.669 14.8162H133.988L132.56 17.2634L130.092 21.2214H135.608ZM134.364 14.8162V24.7693H132.717V14.8162H134.364ZM143.056 18.9587V20.5857C143.056 21.365 142.979 22.0304 142.824 22.5818C142.673 23.1287 142.455 23.573 142.168 23.9148C141.881 24.2566 141.536 24.5072 141.135 24.6667C140.739 24.8263 140.295 24.906 139.802 24.906C139.41 24.906 139.046 24.8559 138.709 24.7556C138.376 24.6554 138.075 24.4981 137.806 24.2839C137.537 24.0697 137.307 23.794 137.116 23.4568C136.929 23.115 136.783 22.7071 136.678 22.2332C136.578 21.7592 136.528 21.21 136.528 20.5857V18.9587C136.528 18.1749 136.605 17.5141 136.76 16.9763C136.915 16.434 137.136 15.9942 137.423 15.657C137.711 15.3152 138.052 15.0668 138.449 14.9119C138.85 14.7569 139.297 14.6794 139.789 14.6794C140.185 14.6794 140.55 14.7296 140.882 14.8298C141.22 14.9255 141.52 15.0782 141.785 15.2878C142.054 15.4975 142.282 15.7709 142.468 16.1082C142.66 16.4408 142.806 16.8442 142.906 17.3181C143.006 17.7875 143.056 18.3344 143.056 18.9587ZM141.409 20.8181V18.7126C141.409 18.3162 141.386 17.9675 141.34 17.6667C141.295 17.3614 141.227 17.1039 141.135 16.8943C141.049 16.6801 140.939 16.5069 140.807 16.3748C140.675 16.238 140.525 16.1401 140.356 16.0808C140.187 16.017 139.998 15.9851 139.789 15.9851C139.534 15.9851 139.306 16.0352 139.105 16.1355C138.905 16.2312 138.736 16.3861 138.599 16.6003C138.463 16.8145 138.358 17.0971 138.285 17.448C138.216 17.7944 138.182 18.2159 138.182 18.7126V20.8181C138.182 21.2192 138.205 21.5723 138.251 21.8777C138.296 22.183 138.365 22.4451 138.456 22.6638C138.547 22.878 138.656 23.0557 138.784 23.197C138.916 23.3337 139.066 23.434 139.235 23.4978C139.408 23.5616 139.597 23.5935 139.802 23.5935C140.062 23.5935 140.292 23.5434 140.493 23.4431C140.693 23.3429 140.862 23.1833 140.999 22.9646C141.135 22.7413 141.238 22.4519 141.306 22.0964C141.375 21.741 141.409 21.3149 141.409 20.8181Z" fill="#171717"/>
<line x1="208.5" y1="42" x2="208.5" y2="34" stroke="#C4C4C4"/>
<line x1="208" y1="41.5" x2="276" y2="41.5" stroke="#C4C4C4"/>
<line x1="275.5" y1="42" x2="275.5" y2="34" stroke="#C4C4C4"/>
<path d="M239.841 46.9854H240.047V48.332H239.93C239.342 48.332 238.834 48.4232 238.406 48.6055C237.982 48.7878 237.633 49.0384 237.36 49.3574C237.087 49.6764 236.882 50.0501 236.745 50.4785C236.613 50.9023 236.547 51.3535 236.547 51.832V53.3975C236.547 53.7939 236.59 54.1449 236.676 54.4502C236.763 54.751 236.884 55.0039 237.039 55.209C237.198 55.4095 237.381 55.5622 237.586 55.667C237.791 55.7718 238.012 55.8242 238.249 55.8242C238.495 55.8242 238.718 55.7741 238.919 55.6738C239.119 55.569 239.29 55.4255 239.431 55.2432C239.573 55.0609 239.68 54.8444 239.753 54.5938C239.826 54.3431 239.862 54.0697 239.862 53.7734C239.862 53.4909 239.826 53.2266 239.753 52.9805C239.684 52.7298 239.582 52.5111 239.445 52.3242C239.308 52.1328 239.137 51.9847 238.932 51.8799C238.732 51.7705 238.499 51.7158 238.235 51.7158C237.907 51.7158 237.608 51.7933 237.34 51.9482C237.075 52.1032 236.861 52.306 236.697 52.5566C236.537 52.8027 236.451 53.0648 236.437 53.3428L235.808 53.1377C235.845 52.7139 235.938 52.3333 236.089 51.9961C236.244 51.6589 236.446 51.3717 236.697 51.1348C236.948 50.8978 237.237 50.7178 237.565 50.5947C237.898 50.4671 238.262 50.4033 238.659 50.4033C239.142 50.4033 239.561 50.4945 239.917 50.6768C240.272 50.859 240.566 51.1074 240.799 51.4219C241.035 51.7318 241.211 52.0872 241.325 52.4883C241.443 52.8848 241.503 53.2995 241.503 53.7324C241.503 54.2109 241.43 54.6576 241.284 55.0723C241.138 55.4824 240.924 55.8424 240.641 56.1523C240.363 56.4622 240.024 56.7038 239.623 56.877C239.226 57.0501 238.775 57.1367 238.269 57.1367C237.736 57.1367 237.26 57.0342 236.841 56.8291C236.426 56.624 236.073 56.3415 235.781 55.9814C235.494 55.6214 235.275 55.2067 235.125 54.7373C234.974 54.2679 234.899 53.7712 234.899 53.2471V52.5635C234.899 51.807 234.995 51.0938 235.186 50.4238C235.378 49.7493 235.672 49.1546 236.068 48.6396C236.469 48.1247 236.982 47.7214 237.606 47.4297C238.23 47.1335 238.976 46.9854 239.841 46.9854ZM249.19 54.2861C249.19 54.9059 249.046 55.4277 248.759 55.8516C248.472 56.2754 248.08 56.5967 247.583 56.8154C247.091 57.0296 246.535 57.1367 245.915 57.1367C245.296 57.1367 244.737 57.0296 244.241 56.8154C243.744 56.5967 243.352 56.2754 243.065 55.8516C242.778 55.4277 242.634 54.9059 242.634 54.2861C242.634 53.876 242.714 53.5046 242.873 53.1719C243.033 52.8346 243.258 52.5452 243.55 52.3037C243.846 52.0576 244.193 51.8685 244.589 51.7363C244.99 51.6042 245.428 51.5381 245.902 51.5381C246.531 51.5381 247.093 51.6543 247.59 51.8867C248.087 52.1191 248.477 52.4404 248.759 52.8506C249.046 53.2607 249.19 53.7393 249.19 54.2861ZM247.535 54.2041C247.535 53.8714 247.467 53.5798 247.33 53.3291C247.194 53.0785 247.002 52.8848 246.756 52.748C246.51 52.6113 246.225 52.543 245.902 52.543C245.574 52.543 245.289 52.6113 245.047 52.748C244.806 52.8848 244.617 53.0785 244.48 53.3291C244.348 53.5798 244.282 53.8714 244.282 54.2041C244.282 54.5413 244.348 54.833 244.48 55.0791C244.612 55.3206 244.801 55.5052 245.047 55.6328C245.293 55.7604 245.583 55.8242 245.915 55.8242C246.248 55.8242 246.535 55.7604 246.777 55.6328C247.018 55.5052 247.205 55.3206 247.337 55.0791C247.469 54.833 247.535 54.5413 247.535 54.2041ZM248.964 49.665C248.964 50.1618 248.832 50.6038 248.568 50.9912C248.308 51.3786 247.948 51.6839 247.488 51.9072C247.027 52.126 246.503 52.2354 245.915 52.2354C245.323 52.2354 244.794 52.126 244.329 51.9072C243.869 51.6839 243.507 51.3786 243.243 50.9912C242.983 50.6038 242.853 50.1618 242.853 49.665C242.853 49.0726 242.983 48.5736 243.243 48.168C243.507 47.7578 243.869 47.4456 244.329 47.2314C244.79 47.0173 245.316 46.9102 245.909 46.9102C246.501 46.9102 247.027 47.0173 247.488 47.2314C247.948 47.4456 248.308 47.7578 248.568 48.168C248.832 48.5736 248.964 49.0726 248.964 49.665ZM247.317 49.7197C247.317 49.4235 247.257 49.1637 247.139 48.9404C247.025 48.7126 246.863 48.5348 246.654 48.4072C246.444 48.2796 246.196 48.2158 245.909 48.2158C245.621 48.2158 245.373 48.2773 245.163 48.4004C244.954 48.5234 244.792 48.6966 244.678 48.9199C244.564 49.1432 244.507 49.4098 244.507 49.7197C244.507 50.0251 244.564 50.2917 244.678 50.5195C244.792 50.7428 244.954 50.9183 245.163 51.0459C245.378 51.1735 245.628 51.2373 245.915 51.2373C246.202 51.2373 246.451 51.1735 246.66 51.0459C246.87 50.9183 247.032 50.7428 247.146 50.5195C247.26 50.2917 247.317 50.0251 247.317 49.7197Z" fill="#171717"/>
<g clip-path="url(#clip1_737_2644)">
<path d="M275.975 0.779541H208V25.8356H275.975V0.779541Z" fill="#D60C18"/>
<path d="M224.424 4.61582C224.784 5.5749 223.345 5.93456 222.746 6.29422C222.506 6.4141 222.266 6.53399 222.027 6.65387C221.787 6.65387 221.667 6.77376 221.547 6.77376C221.427 6.89364 221.187 6.89364 221.068 6.89364C220.708 7.01353 220.348 7.01353 219.989 7.13341C219.269 7.37318 218.55 7.61296 217.831 7.73284C217.471 7.85273 216.991 7.97261 216.632 8.0925C216.152 8.21238 215.793 8.0925 215.433 7.85273C214.953 7.73284 214.953 7.37318 214.834 7.01353C214.714 6.89364 214.714 6.65387 214.953 6.53399H215.193C215.313 6.53399 215.433 6.53399 215.433 6.53399C215.673 6.53399 215.793 6.4141 216.032 6.4141C216.272 6.4141 216.392 6.4141 216.632 6.29422C216.872 6.29422 216.991 6.29422 217.231 6.17433C217.471 6.05445 217.591 5.93456 217.831 5.81467C218.19 5.69479 218.55 5.5749 219.029 5.45502C219.149 5.45502 219.389 5.45502 219.509 5.33513C219.629 5.33513 219.629 5.33513 219.749 5.33513C219.869 5.33513 219.869 5.21525 219.989 5.21525C220.108 5.09536 220.348 5.09536 220.468 4.97548C220.948 4.61582 221.547 4.49594 221.907 4.01639C222.147 3.77662 222.506 3.77662 222.866 3.65674C223.225 3.65674 223.585 3.65674 223.825 3.77662C224.065 4.13628 224.424 4.25617 224.424 4.61582Z" fill="white"/>
<path d="M236.533 10.0108C236.533 9.89093 236.652 9.65116 236.652 9.53128C236.652 9.29151 236.533 9.17162 236.533 9.05174C236.533 8.93185 236.652 8.69208 236.413 8.69208C236.053 8.45231 235.693 8.81197 235.334 8.93185C235.094 9.05174 234.854 9.29151 234.614 9.53128C234.495 9.65116 234.255 9.77105 234.015 9.89093C233.895 10.0108 233.655 10.1307 233.535 10.2506C233.176 10.4904 232.696 10.7301 232.337 10.9699C231.977 11.2097 231.258 11.0898 230.898 11.0898C230.299 10.9699 229.699 10.6102 229.1 10.3705C228.86 10.2506 228.62 10.1307 228.38 10.0108C228.141 9.89093 227.901 9.53128 227.661 9.29151C227.421 9.17162 227.182 8.93185 227.301 8.69208C227.541 8.45231 227.781 8.45231 228.141 8.33242C229.1 8.09265 230.299 8.33242 231.258 7.97277C231.857 7.85288 232.456 7.733 232.936 7.49323C233.056 7.49323 233.176 7.37334 233.416 7.37334C233.535 7.37334 233.655 7.25346 233.895 7.13357C234.255 6.77391 234.614 6.8938 234.974 6.77391C235.454 6.65403 235.933 6.53414 236.413 6.29437C236.652 6.17449 237.012 6.0546 237.252 6.0546C237.492 6.0546 237.731 6.0546 237.971 5.93472C238.331 5.57506 238.93 5.81483 239.41 5.57506C239.889 5.33529 240.369 5.2154 240.848 5.09552C241.088 5.09552 241.328 4.97563 241.568 5.09552C241.927 5.09552 242.407 5.2154 242.887 5.33529C243.246 5.45517 243.606 5.45517 243.965 5.69495C244.085 5.81483 244.325 5.93472 244.325 6.17449C244.325 6.41426 244.325 6.65403 244.205 6.77391C244.085 6.65403 243.965 6.77391 243.965 6.8938C243.846 7.25346 243.486 7.25346 243.126 7.37334C242.767 7.49323 242.407 7.49323 242.047 7.37334C241.808 7.37334 241.688 7.25346 241.568 7.13357C240.968 6.77391 240.249 6.8938 239.65 7.01368C239.53 7.01368 239.53 7.01368 239.41 7.13357C239.29 7.13357 239.29 7.13357 239.17 7.25346C239.05 7.25346 239.05 7.37334 238.93 7.37334C238.691 7.49323 238.571 7.61311 238.571 7.85288C238.571 8.21254 238.571 8.57219 238.691 8.81197C238.93 9.41139 238.571 10.0108 238.81 10.6102C238.93 11.4494 239.17 12.5284 239.17 13.4875C239.17 14.8062 239.29 16.3647 239.53 17.5636C239.53 17.8034 239.65 18.163 239.769 18.4028C239.769 18.5227 239.769 18.7625 239.889 18.8823C240.009 19.242 240.009 19.4818 240.009 19.9613C240.009 20.4408 239.889 20.8005 239.889 21.28C239.769 21.7596 239.65 22.2391 239.17 22.4789C238.691 22.9584 237.851 22.9584 237.252 22.7187C237.012 22.5988 236.652 22.2391 236.533 21.9994C236.413 21.8795 236.413 21.6397 236.413 21.5198C236.293 21.1602 236.173 20.6806 236.293 20.321C236.533 16.9642 236.892 13.7273 236.652 10.3705" fill="white"/>
<path d="M220.109 8.57211C220.348 8.93176 220.588 9.29142 220.708 9.65107C220.828 9.77096 221.068 9.77096 221.188 9.77096C221.307 9.65107 221.547 9.65107 221.667 9.53119C221.787 9.4113 221.907 9.29142 222.027 9.17153C222.267 8.93176 222.626 8.69199 222.986 8.57211C223.226 8.45222 223.465 8.45222 223.705 8.45222C224.065 8.57211 224.544 8.57211 224.784 8.93176C224.904 9.17153 224.904 9.53119 224.784 9.77096C224.425 10.4903 223.585 10.73 222.986 11.2096C222.506 11.4494 221.907 11.6891 221.667 12.1687C221.667 13.0079 222.386 13.7272 222.866 14.2067C223.705 15.0459 224.425 16.3647 225.503 16.8442C225.863 16.9641 226.103 17.3237 226.343 17.5635C226.463 17.6834 226.702 17.8033 226.822 17.9232C227.062 18.043 227.182 18.043 227.422 18.1629C227.542 18.2828 227.781 18.2828 228.021 18.5226C228.021 18.6425 228.141 18.6425 228.261 18.6425C228.381 18.7624 228.501 18.8822 228.74 18.8822C228.86 18.8822 228.98 18.8822 228.98 18.8822C229.1 18.8822 229.22 19.0021 229.22 19.122C229.58 19.3618 230.059 19.6016 230.539 19.8413C230.659 19.9612 230.898 19.9612 231.138 19.9612C231.258 20.0811 231.378 20.201 231.618 20.3209C231.857 20.4408 232.217 20.6805 232.337 20.9203C232.457 21.1601 232.337 21.3998 232.217 21.5197C231.977 21.7595 231.738 21.7595 231.378 21.8794C231.138 21.8794 230.778 21.9993 230.539 22.1191C230.419 22.1191 230.179 22.1191 230.059 22.1191C229.699 22.1191 229.46 22.1191 229.1 22.239C228.501 22.3589 227.781 22.3589 227.182 22.3589C226.822 22.3589 226.343 22.3589 226.103 22.239C225.623 21.9993 225.264 21.6396 224.904 21.2799C224.425 20.9203 224.065 20.3209 223.585 19.7214C223.226 19.122 222.746 18.5226 222.386 18.043C222.027 17.5635 221.787 17.084 221.307 16.7243C221.188 16.6044 221.068 16.3647 220.948 16.2448C220.828 16.1249 220.708 16.005 220.588 15.8851C220.229 15.4056 219.989 15.1658 219.629 15.1658C219.509 15.4056 219.389 15.6453 219.389 15.8851C219.389 16.005 219.389 16.2448 219.389 16.3647C219.389 16.4845 219.269 16.6044 219.269 16.7243C219.269 17.084 219.269 17.3237 219.03 17.6834C218.91 17.8033 218.79 17.9232 218.79 18.1629C218.79 18.4027 218.67 18.5226 218.55 18.7624C218.55 18.8822 218.43 19.0021 218.43 19.0021C218.31 19.122 218.31 19.3618 218.19 19.6016C218.071 19.8413 217.951 19.9612 217.831 20.201C217.591 20.4408 217.351 20.8004 216.992 21.1601C216.872 21.3998 216.632 21.5197 216.392 21.6396C216.272 21.7595 216.152 21.8794 215.913 21.9993C215.793 22.1191 215.553 22.1191 215.313 22.239C214.954 22.3589 214.594 22.5987 214.114 22.5987C213.875 22.5987 213.635 22.5987 213.395 22.3589C213.275 22.3589 213.155 22.3589 213.035 22.239C212.916 22.239 212.796 22.1191 212.676 21.9993C212.556 21.8794 212.436 21.7595 212.316 21.6396C212.316 21.5197 212.196 21.5197 212.196 21.3998C212.196 21.2799 212.196 21.1601 212.076 21.0402C211.956 20.8004 211.956 20.6805 211.956 20.5606C211.956 20.4408 211.837 20.3209 211.837 20.201C211.837 20.0811 211.956 19.8413 212.076 19.7214C212.196 19.6016 212.316 19.4817 212.436 19.3618C212.676 19.2419 212.916 19.3618 213.155 19.3618C213.275 19.3618 213.395 19.4817 213.515 19.4817C213.635 19.6016 213.755 19.7214 213.994 19.6016C214.114 19.4817 214.234 19.3618 214.354 19.2419C214.474 19.122 214.474 19.0021 214.594 18.8822C214.714 18.7624 214.834 18.6425 214.954 18.5226C215.193 18.2828 215.313 18.043 215.433 17.6834C215.913 17.084 216.033 16.3647 215.793 15.5255C215.193 15.5255 214.714 15.7652 214.114 15.5255C213.755 15.2857 213.155 15.0459 213.035 14.6863C212.796 14.6863 212.556 14.3266 212.556 13.9669C212.676 13.4874 213.395 13.6073 213.635 13.6073C213.994 13.4874 214.354 13.4874 214.714 13.2476C214.954 13.1277 215.073 13.1277 215.313 13.0079C215.553 12.888 215.673 12.7681 215.793 12.6482C215.913 12.5283 216.152 12.4084 216.392 12.2886C216.632 12.1687 216.872 12.1687 216.992 12.0488C217.112 11.9289 217.351 11.809 217.471 11.6891C217.711 11.5692 217.951 11.2096 217.951 10.73C217.951 10.6102 217.831 10.4903 217.831 10.2505C217.831 10.1306 217.831 9.89084 217.951 9.77096C217.951 9.65107 218.071 9.53119 218.071 9.29142C218.071 9.05165 218.071 8.93176 218.19 8.69199C218.31 8.57211 218.43 8.33234 218.67 8.33234C218.79 8.21245 219.03 8.33234 219.15 8.33234C219.269 8.33234 219.509 8.21245 219.629 8.33234C219.749 8.33234 219.749 8.45222 219.869 8.45222C219.869 8.57211 219.989 8.57211 220.109 8.57211Z" fill="white"/>
<path d="M259.79 21.0401V21.5197H256.554V22.239H255.714V17.0839C255.594 17.3237 255.475 17.5635 255.235 17.6834L254.995 17.4436C255.115 17.2038 255.235 16.964 255.355 16.7243L254.755 17.2038C254.635 16.8442 254.396 16.6044 254.276 16.2447C254.156 16.6044 253.916 16.964 253.676 17.3237H253.796V18.2828H255.475V18.7623H253.796V19.122C254.396 19.4816 254.995 19.8413 255.355 20.2009L254.755 20.8004C254.516 20.4407 254.036 19.9612 253.796 19.6015V22.3589H252.957V19.8413C252.597 20.4407 251.878 21.16 251.159 21.7595L250.919 21.5197C251.638 20.8004 252.238 19.9612 252.717 18.8822H251.159V18.4027H252.957V17.4436H253.197C253.556 16.7243 253.796 15.8851 253.916 14.926L254.755 15.1658C254.755 15.4055 254.635 15.7652 254.516 16.005C254.875 16.2447 255.115 16.4845 255.355 16.7243C255.714 15.7652 255.834 14.6862 255.954 13.2476L256.793 13.3675C256.793 13.9669 256.673 14.6862 256.434 15.2856H259.551V15.7652H258.232V17.0839H259.311V17.5635H258.232V19.122H259.311V19.6015H258.232V21.2799H259.79V21.0401ZM251.279 17.8032L251.039 17.5635C251.518 16.8442 251.878 15.7652 251.998 14.8061L252.837 15.0459C252.837 15.2856 252.717 15.5254 252.597 15.8851C252.957 16.1248 253.317 16.3646 253.556 16.7243L252.957 17.2038C252.837 16.8442 252.597 16.6044 252.358 16.2447C251.998 16.7243 251.638 17.3237 251.279 17.8032ZM255.355 14.6862H251.159V14.2067H253.317C252.957 13.847 252.597 13.4874 252.238 13.2476L252.358 12.8879C252.957 13.0078 253.556 13.3675 254.036 13.6073L253.676 14.2067H255.475L255.355 14.6862ZM257.393 15.6453H256.434V16.964H257.393V15.6453ZM257.393 17.3237H256.434V18.8822H257.393V17.3237ZM257.393 19.3617H256.434V21.0401H257.393V19.3617ZM257.633 15.0459C257.513 14.6862 257.273 13.847 257.153 13.2476L257.513 13.1277C257.872 13.6073 258.352 14.3266 258.472 14.8061L257.633 15.0459Z" fill="white"/>
<path d="M265.185 15.1657H261.948V14.6862H263.387C263.027 14.0868 262.668 13.4874 262.428 13.2476L262.668 13.0078C263.147 13.3675 263.747 13.847 264.226 14.3266L263.747 14.6862H265.185V15.1657ZM262.188 16.6044V16.2447H264.945V16.6044H262.188ZM264.945 17.9231H262.188V17.5635H264.945V17.9231ZM265.904 18.7623L266.264 18.8822C266.264 19.9612 266.024 20.8004 265.545 21.3998L264.945 20.9202V22.1191H264.226V21.5197H263.147V22.239H262.428V18.8822H265.065V20.8004C265.305 20.3208 265.785 19.7214 265.904 18.7623ZM264.106 19.2419H263.027V21.0401H264.106V19.2419ZM267.343 15.1657H265.305V14.6862H267.343V13.0078H268.182V14.6862H270.34V15.1657H268.302V16.8441H270.22V17.3237H265.545V16.8441H267.343V15.1657ZM269.141 19.7214C269.621 21.2799 269.621 21.9992 268.182 21.9992C266.744 21.9992 266.504 21.8793 266.504 20.8004V18.2828H267.343V20.6805C267.343 21.0401 267.463 21.16 268.062 21.16C268.782 21.16 268.782 21.0401 268.782 19.7214H269.141ZM267.223 17.3237C267.703 17.5635 268.542 18.043 269.021 18.4027L268.422 19.0021C268.062 18.5225 267.463 17.9231 267.103 17.5635L267.223 17.3237ZM270.7 20.5606L269.981 20.9202C269.741 20.081 269.501 19.4816 269.141 18.7623L269.381 18.5225C269.861 19.122 270.34 19.8413 270.7 20.5606Z" fill="white"/>
<path d="M246.124 12.8878C246.004 12.6481 245.764 12.5282 245.644 12.5282C245.644 12.5282 245.644 12.5282 245.524 12.5282C245.404 12.4083 245.284 12.4083 245.164 12.2884C244.925 12.2884 244.805 12.2884 244.565 12.1685C244.325 12.1685 244.086 12.0486 243.726 12.0486C243.366 12.0486 243.007 11.9288 242.767 12.0486C242.647 12.0486 242.407 12.1685 242.287 12.2884C242.167 12.4083 242.167 12.5282 242.167 12.6481C242.167 12.768 242.167 12.8878 242.167 13.0077C242.167 13.4873 242.287 13.8469 242.527 14.2066C242.647 14.4463 242.767 14.5662 242.887 14.806C243.007 14.9259 243.126 15.1657 243.366 15.2855C243.486 15.4054 243.606 15.5253 243.726 15.6452C243.846 15.7651 243.846 15.7651 243.966 15.885C244.205 16.0049 244.445 16.0049 244.685 16.0049C245.045 16.0049 245.404 16.0049 245.644 16.0049C245.884 16.0049 245.884 15.7651 246.124 15.6452C246.363 15.5253 246.363 15.5253 246.483 15.2855C247.203 14.4464 246.723 13.6072 246.124 12.8878Z" fill="white"/>
</g>
<line x1="284" y1="1.34521" x2="292" y2="1.34521" stroke="#C4C4C4"/>
<path d="M292 25.6187V0.845273" stroke="#C4C4C4"/>
<line x1="284" y1="25.3452" x2="292" y2="25.3452" stroke="#C4C4C4"/>
<path d="M301.424 16.603V17.9155H294.752V16.7876L297.992 13.2534C298.348 12.8524 298.628 12.506 298.833 12.2144C299.038 11.9227 299.182 11.6606 299.264 11.4282C299.35 11.1912 299.394 10.9611 299.394 10.7378C299.394 10.4233 299.334 10.1476 299.216 9.91064C299.102 9.66911 298.933 9.47998 298.71 9.34326C298.487 9.20199 298.215 9.13135 297.896 9.13135C297.527 9.13135 297.217 9.2111 296.967 9.37061C296.716 9.53011 296.527 9.75114 296.399 10.0337C296.272 10.3117 296.208 10.6307 296.208 10.9907H294.561C294.561 10.4119 294.693 9.8833 294.957 9.40479C295.221 8.92171 295.604 8.5389 296.105 8.25635C296.607 7.96924 297.211 7.82568 297.917 7.82568C298.582 7.82568 299.147 7.93734 299.612 8.16064C300.077 8.38395 300.43 8.70068 300.672 9.11084C300.918 9.521 301.041 10.0063 301.041 10.5669C301.041 10.8768 300.991 11.1844 300.891 11.4897C300.79 11.7951 300.647 12.1004 300.46 12.4058C300.278 12.7065 300.061 13.0096 299.811 13.3149C299.56 13.6157 299.284 13.9211 298.983 14.231L296.83 16.603H301.424ZM304.298 13.2876L302.986 12.9663L303.526 7.9624H308.892V9.35693H304.893L304.62 11.7974C304.775 11.7062 304.989 11.6174 305.262 11.5308C305.536 11.4396 305.848 11.394 306.199 11.394C306.668 11.394 307.088 11.4715 307.457 11.6265C307.83 11.7769 308.147 11.9979 308.407 12.2896C308.667 12.5767 308.865 12.9276 309.002 13.3423C309.138 13.7524 309.207 14.215 309.207 14.73C309.207 15.1903 309.138 15.6209 309.002 16.022C308.869 16.423 308.669 16.7762 308.4 17.0815C308.131 17.3869 307.792 17.6261 307.381 17.7993C306.976 17.9679 306.495 18.0522 305.939 18.0522C305.524 18.0522 305.126 17.993 304.743 17.8745C304.365 17.7515 304.025 17.5715 303.724 17.3345C303.423 17.0929 303.182 16.7967 303 16.4458C302.817 16.0903 302.713 15.6825 302.685 15.2222H304.298C304.339 15.5457 304.428 15.8215 304.565 16.0493C304.706 16.2726 304.893 16.4435 305.126 16.562C305.358 16.6805 305.627 16.7397 305.932 16.7397C306.21 16.7397 306.45 16.6919 306.65 16.5962C306.851 16.4959 307.017 16.3547 307.149 16.1724C307.286 15.9855 307.386 15.7668 307.45 15.5161C307.518 15.2655 307.552 14.9875 307.552 14.6821C307.552 14.3905 307.514 14.1239 307.436 13.8823C307.363 13.6408 307.252 13.4312 307.101 13.2534C306.955 13.0757 306.771 12.939 306.548 12.8433C306.324 12.743 306.067 12.6929 305.775 12.6929C305.383 12.6929 305.082 12.7498 304.873 12.8638C304.668 12.9777 304.476 13.119 304.298 13.2876Z" fill="#171717"/>
<defs>
<clipPath id="clip0_737_2644">
<rect width="108.76" height="40" fill="white" transform="translate(1 0.845215)"/>
</clipPath>
<clipPath id="clip1_737_2644">
<rect width="67.975" height="25" fill="white" transform="translate(208 0.845215)"/>
</clipPath>
</defs>
</svg>
