<svg width="316" height="93" viewBox="0 0 316 93" fill="none" xmlns="http://www.w3.org/2000/svg">
<line x1="0.5" y1="74.8452" x2="0.5" y2="66.8452" stroke="#C4C4C4"/>
<line y1="74.1904" x2="160" y2="74.1904" stroke="#C4C4C4"/>
<line x1="159.5" y1="74.8452" x2="159.5" y2="66.8452" stroke="#C4C4C4"/>
<path d="M69.0931 84.1235H70.0775C70.4603 84.1235 70.777 84.0575 71.0277 83.9253C71.2829 83.7931 71.472 83.6108 71.5951 83.3784C71.7181 83.146 71.7796 82.8794 71.7796 82.5786C71.7796 82.2642 71.7227 81.9953 71.6088 81.772C71.4994 81.5441 71.3308 81.3687 71.1029 81.2456C70.8796 81.1226 70.5948 81.061 70.2484 81.061C69.9567 81.061 69.6924 81.1203 69.4554 81.2388C69.223 81.3527 69.0384 81.5168 68.9017 81.731C68.765 81.9406 68.6966 82.1912 68.6966 82.4829H67.0423C67.0423 81.9543 67.1813 81.4849 67.4593 81.0747C67.7373 80.6646 68.1156 80.3433 68.5941 80.1108C69.0772 79.8739 69.6195 79.7554 70.2211 79.7554C70.8636 79.7554 71.4242 79.8625 71.9027 80.0767C72.3858 80.2863 72.7617 80.6007 73.0306 81.02C73.2995 81.4393 73.4339 81.9588 73.4339 82.5786C73.4339 82.8612 73.3679 83.1483 73.2357 83.4399C73.1035 83.7316 72.9076 83.9982 72.6478 84.2397C72.388 84.4767 72.0645 84.6704 71.6771 84.8208C71.2897 84.9666 70.8408 85.0396 70.3304 85.0396H69.0931V84.1235ZM69.0931 85.4087V84.5063H70.3304C70.9138 84.5063 71.4105 84.5747 71.8207 84.7114C72.2354 84.8481 72.5726 85.0373 72.8324 85.2788C73.0921 85.5158 73.2813 85.7869 73.3998 86.0923C73.5228 86.3976 73.5843 86.7212 73.5843 87.063C73.5843 87.5278 73.5 87.9425 73.3314 88.3071C73.1673 88.6672 72.9326 88.9725 72.6273 89.2231C72.322 89.4738 71.9642 89.6629 71.5541 89.7905C71.1485 89.9181 70.7064 89.9819 70.2279 89.9819C69.7995 89.9819 69.3893 89.9227 68.9974 89.8042C68.6055 89.6857 68.2546 89.5103 67.9447 89.2778C67.6348 89.0409 67.3887 88.7469 67.2064 88.396C67.0287 88.0405 66.9398 87.6304 66.9398 87.1655H68.5873C68.5873 87.4618 68.6556 87.7238 68.7923 87.9517C68.9336 88.175 69.1296 88.3504 69.3802 88.478C69.6354 88.6056 69.9271 88.6694 70.2552 88.6694C70.6016 88.6694 70.9001 88.6079 71.1507 88.4849C71.4014 88.3618 71.5928 88.1795 71.725 87.938C71.8617 87.6965 71.93 87.4048 71.93 87.063C71.93 86.6756 71.8548 86.3612 71.7045 86.1196C71.5541 85.8781 71.3399 85.7004 71.0619 85.5864C70.7839 85.4679 70.4558 85.4087 70.0775 85.4087H69.0931ZM78.0928 88.6694C78.3617 88.6694 78.6032 88.617 78.8174 88.5122C79.0361 88.4028 79.2116 88.2524 79.3438 88.061C79.4805 87.8696 79.5557 87.6486 79.5693 87.3979H81.1211C81.112 87.8765 80.9707 88.3117 80.6973 88.7036C80.4238 89.0955 80.0615 89.4077 79.6104 89.6401C79.1592 89.868 78.6602 89.9819 78.1133 89.9819C77.5482 89.9819 77.056 89.8862 76.6367 89.6948C76.2174 89.4989 75.8688 89.23 75.5908 88.8882C75.3128 88.5464 75.1032 88.1522 74.9619 87.7056C74.8252 87.259 74.7568 86.7804 74.7568 86.27V86.0308C74.7568 85.5203 74.8252 85.0418 74.9619 84.5952C75.1032 84.144 75.3128 83.7476 75.5908 83.4058C75.8688 83.064 76.2174 82.7974 76.6367 82.606C77.056 82.41 77.5459 82.312 78.1064 82.312C78.6989 82.312 79.2184 82.4305 79.665 82.6675C80.1117 82.8999 80.4626 83.2257 80.7178 83.645C80.9775 84.0597 81.112 84.5428 81.1211 85.0942H79.5693C79.5557 84.8208 79.4873 84.5747 79.3643 84.356C79.2458 84.1326 79.0771 83.9549 78.8584 83.8228C78.6442 83.6906 78.3867 83.6245 78.0859 83.6245C77.7533 83.6245 77.4775 83.6929 77.2588 83.8296C77.04 83.9618 76.8691 84.144 76.7461 84.3765C76.623 84.6043 76.5342 84.8618 76.4795 85.1489C76.4294 85.4315 76.4043 85.7254 76.4043 86.0308V86.27C76.4043 86.5754 76.4294 86.8716 76.4795 87.1587C76.5296 87.4458 76.6162 87.7033 76.7393 87.9312C76.8669 88.1545 77.04 88.3345 77.2588 88.4712C77.4775 88.6034 77.7555 88.6694 78.0928 88.6694ZM83.8932 83.9526V89.8452H82.2457V82.4487H83.7975L83.8932 83.9526ZM83.6266 85.8735L83.0661 85.8667C83.0661 85.3563 83.1299 84.8846 83.2575 84.4517C83.3851 84.0187 83.5719 83.6427 83.818 83.3237C84.0641 83.0002 84.3694 82.7518 84.734 82.5786C85.1032 82.4009 85.5293 82.312 86.0123 82.312C86.3496 82.312 86.6572 82.3621 86.9352 82.4624C87.2177 82.5581 87.4616 82.7108 87.6666 82.9204C87.8763 83.13 88.0358 83.3989 88.1452 83.7271C88.2591 84.0552 88.3161 84.4517 88.3161 84.9165V89.8452H86.6686V85.0601C86.6686 84.7 86.6139 84.4175 86.5045 84.2124C86.3997 84.0073 86.247 83.8615 86.0465 83.7749C85.8506 83.6838 85.6159 83.6382 85.3424 83.6382C85.0325 83.6382 84.7682 83.6974 84.5495 83.8159C84.3353 83.9344 84.1598 84.0962 84.0231 84.3013C83.8864 84.5063 83.7861 84.7433 83.7223 85.0122C83.6585 85.2811 83.6266 85.5682 83.6266 85.8735ZM88.2135 85.436L87.4411 85.6069C87.4411 85.1603 87.5026 84.7388 87.6256 84.3423C87.7532 83.9412 87.9378 83.5903 88.1793 83.2896C88.4254 82.9842 88.7285 82.745 89.0885 82.5718C89.4485 82.3986 89.861 82.312 90.3258 82.312C90.7041 82.312 91.0413 82.3644 91.3375 82.4692C91.6383 82.5695 91.8935 82.729 92.1032 82.9478C92.3128 83.1665 92.4723 83.4513 92.5817 83.8022C92.6911 84.1486 92.7457 84.5679 92.7457 85.0601V89.8452H91.0914V85.0532C91.0914 84.6795 91.0368 84.3901 90.9274 84.1851C90.8226 83.98 90.6722 83.8387 90.4762 83.7612C90.2802 83.6792 90.0455 83.6382 89.7721 83.6382C89.5169 83.6382 89.2913 83.686 89.0954 83.7817C88.9039 83.8729 88.7422 84.0028 88.61 84.1714C88.4778 84.3354 88.3776 84.5246 88.3092 84.7388C88.2454 84.953 88.2135 85.1854 88.2135 85.436Z" fill="#171717"/>
<g clip-path="url(#clip0_737_2623)">
<path d="M160 0H0V58.8452H160V0Z" fill="#D60C18"/>
<path d="M17.3326 16.7227C18.2074 17.2798 19.2655 17.4718 20.2802 17.2577C21.2485 17.0223 22.2114 16.7548 23.169 16.482C24.8488 16.0006 26.5178 15.4817 28.2083 15.0269C29.0482 14.8023 29.8934 14.5883 30.744 14.401C31.1292 14.3406 31.5086 14.2476 31.8781 14.1229C32.2579 13.9731 32.5949 13.7323 32.948 13.5879C33.483 13.3365 34.0179 13.1064 34.5903 12.8818C36.1952 12.2291 39.6296 11.4213 38.779 8.94984C38.5115 8.15275 37.7091 7.79968 37.0083 7.43056C36.2684 7.10797 35.4516 7.00402 34.6545 7.13099C33.8803 7.14022 33.1299 7.39914 32.5147 7.86923C31.6801 8.91239 30.2946 9.22801 29.2514 10.0625C28.8823 10.3407 28.3795 10.3461 28.0104 10.6296C27.8285 10.7687 27.7696 10.8864 27.5503 10.9506C27.3589 10.9781 27.1659 10.9924 26.9725 10.9934C26.6088 11.0415 26.2503 11.0897 25.9026 11.1485C24.866 11.2854 23.8528 11.5625 22.8908 11.9723C22.4095 12.2076 21.9479 12.4813 21.5106 12.7908C21.088 13.0743 20.6868 12.962 20.2053 12.9941C19.7239 13.0262 19.3334 13.0743 18.8947 13.1385L17.5894 13.3579L16.9314 13.4542C16.709 13.4385 16.4856 13.4657 16.2734 13.5344C16.1151 13.6731 16.0091 13.8618 15.973 14.0692C15.937 14.2765 15.9732 14.4899 16.0755 14.6739C16.4553 15.4656 16.5088 16.2413 17.3326 16.7227Z" fill="white"/>
<path d="M82.747 15.5778C83.5334 15.3692 84.2128 15.1926 84.63 14.433C84.7584 14.1976 84.8975 13.9622 85.0152 13.7215C85.2781 13.252 85.4041 12.7183 85.379 12.1808C85.1756 11.7605 84.8515 11.4104 84.4481 11.1751C83.6872 10.8013 82.8706 10.5538 82.0301 10.4422C81.0565 10.2336 80.0401 9.99286 79.0558 9.86447C78.4731 9.79634 77.8826 9.84175 77.3172 9.99821C76.1979 10.2968 75.1062 10.6905 74.054 11.1751C72.845 11.7101 71.3792 11.3891 70.2504 12.1273C69.7623 12.357 69.2368 12.4965 68.699 12.5393C68.0303 12.6944 67.3991 12.9619 66.7465 13.1758C65.6284 13.5343 64.5103 13.882 63.3762 14.1923C62.5684 14.4116 61.7286 14.1923 60.9261 14.5774C60.6148 14.8035 60.2856 15.0039 59.9418 15.1766C59.5834 15.2996 59.2196 15.4655 58.8719 15.5885C57.588 16.0379 56.1971 16.3481 54.8811 16.6959C52.5487 17.4983 49.9435 17.1506 47.5469 17.5999C46.8514 17.7765 46.1239 17.8781 45.605 18.4345C45.4338 19.2583 46.033 19.5739 46.5679 19.9644C47.1029 20.355 47.5683 21.1199 48.2102 21.5265C48.7898 21.8471 49.3967 22.1156 50.0237 22.3289C51.4253 22.896 52.7413 23.6396 54.2499 23.9338C55.0791 24.0943 56.7802 24.2922 57.5345 23.7894C58.4225 23.1956 59.4229 22.7837 60.2842 22.1417C60.6854 21.8421 61.0064 21.4516 61.4183 21.1681C61.8826 20.9129 62.3326 20.6325 62.7664 20.3282C63.2984 19.7857 63.8928 19.308 64.5371 18.9052C65.3663 18.7661 66.142 17.8353 66.9658 18.4184C67.3616 18.6003 67.1744 18.9534 67.1958 19.3118C67.2172 19.6702 67.4793 20.1035 67.4793 20.5315C67.4671 20.945 67.4005 21.355 67.2814 21.7512V22.4145C67.6933 30.3693 67.0032 37.9283 66.3078 45.9526C65.9868 46.9423 66.3773 47.8463 66.602 48.8039C66.633 49.1843 66.7158 49.5587 66.8481 49.9166C67.2377 50.6053 67.8221 51.1636 68.5279 51.5215C69.9455 51.9923 71.9302 52.2276 73.0482 50.9865C74.1877 50.4516 74.5408 49.3817 74.7066 48.2101C74.8679 47.1716 74.9732 46.1251 75.0222 45.0753C75.0211 44.2462 74.8949 43.422 74.6478 42.6305C74.5515 42.2186 74.5247 41.796 74.4284 41.3841C74.2679 40.7314 74.0593 40.0788 73.947 39.4154C73.4614 36.2431 73.2182 33.0383 73.2194 29.829C73.289 27.6892 72.7326 25.0144 72.4544 23.1635C71.8285 21.7726 72.7005 20.3817 72.0372 18.9908C71.7429 18.3007 71.8713 17.4555 71.866 16.728C71.866 16.1074 72.2939 15.8774 72.7968 15.6099C72.9854 15.5085 73.1644 15.3904 73.3318 15.2568C73.5156 15.1345 73.7206 15.0474 73.9363 15C74.1395 14.9305 74.3428 14.8717 74.5515 14.8182C76.0493 14.433 77.7344 14.1869 79.1146 15.0696C79.4705 15.3463 79.8806 15.545 80.3183 15.6527C81.1216 15.8286 81.956 15.8029 82.747 15.5778Z" fill="white"/>
<path d="M55.6621 45.6318C55.3559 45.3581 55.0162 45.1244 54.6511 44.9363C54.2338 44.7758 53.7737 44.7491 53.3511 44.5993C52.2772 44.1815 51.2543 43.6431 50.3019 42.9944C50.099 42.8342 49.8844 42.6894 49.6599 42.5611C49.4381 42.5022 49.21 42.4699 48.9805 42.4648C48.5472 42.3739 48.2904 41.9727 47.9106 41.7747C47.7341 41.6784 47.5041 41.6463 47.3757 41.4859C46.9816 41.1496 46.5422 40.8705 46.0704 40.6567C45.6424 40.3678 45.1716 40.2769 44.733 40.0254C44.3575 39.79 43.9999 39.5271 43.6631 39.239C43.0548 38.6238 42.374 38.0849 41.6356 37.6342C39.0357 36.4305 37.265 33.4134 35.3338 31.4287C34.082 30.2839 32.4878 28.6897 32.5199 26.705C33.0549 25.4586 34.5688 25.0413 35.6815 24.4475C37.0724 23.4097 39.0517 22.8426 39.8488 21.1843C39.9885 20.8817 40.0522 20.5496 40.0345 20.2168C40.0168 19.884 39.9182 19.5605 39.7472 19.2745C39.2925 18.333 38.1423 18.3704 37.2436 18.0227C36.6852 17.9739 36.1228 18.0394 35.5906 18.2153C34.7083 18.5496 33.905 19.0632 33.2314 19.7238C32.9104 20.0127 32.6269 20.3765 32.2899 20.6493C31.9268 20.8747 31.5292 21.0392 31.113 21.1361C30.9092 21.2453 30.6756 21.2856 30.447 21.2508C30.2185 21.2161 30.0073 21.1083 29.8452 20.9435C29.51 20.0159 29.0297 19.1474 28.4222 18.3704C28.2217 18.2648 28.0011 18.2028 27.7749 18.1885C27.5609 18.135 27.4272 17.9638 27.2399 17.9103C26.9243 17.8194 26.5124 18.0441 26.17 18.0441C25.7502 17.9922 25.3244 18.0158 24.9129 18.1136C24.4338 18.3056 24.0237 18.6374 23.736 19.0658C23.415 19.542 23.5541 19.9004 23.4899 20.43C23.4524 20.7884 23.3668 21.1361 23.2973 21.4999C23.2122 21.8506 23.1637 22.2091 23.1529 22.5698C23.2018 22.8976 23.2751 23.2212 23.3722 23.5381C23.3993 24.0098 23.3059 24.4807 23.101 24.9065C22.8961 25.3323 22.5862 25.699 22.2006 25.9721C21.8533 26.2679 21.4769 26.5278 21.0772 26.7478C20.6118 27.0046 20.0822 27.0688 19.6007 27.2828C19.1583 27.4964 18.7327 27.7431 18.3275 28.021C17.9156 28.2938 17.5091 28.556 17.0758 28.8074C16.6424 29.0588 16.1235 29.1177 15.6956 29.3424C14.9306 29.7222 14.0265 29.7917 13.2615 30.1073C12.427 30.2785 10.9719 29.9683 10.5867 31.0061C10.7304 31.9312 11.1696 32.7851 11.8385 33.4401C12.2879 34.4458 13.6092 34.7936 14.5133 35.4569C15.8668 35.9063 17.2255 35.2483 18.5094 35.3499C18.9962 37.1581 18.8572 39.0304 17.6054 40.3517C17.3739 41.0628 17.0249 41.73 16.5729 42.3257C16.349 42.6129 16.106 42.8846 15.8454 43.1389C15.61 43.3636 15.519 43.6738 15.2837 43.9092C15.0246 44.2303 14.7283 44.5194 14.401 44.7705C13.9195 45.0487 13.7483 44.6956 13.3685 44.4602C13.1308 44.3208 12.8727 44.2197 12.6035 44.1606C12.0724 44.048 11.522 44.0645 10.9987 44.2088C10.6283 44.3857 10.3258 44.6787 10.1374 45.0433C9.85597 45.3126 9.66845 45.6652 9.60242 46.049C9.64663 46.2883 9.70741 46.5243 9.7843 46.7552C9.88594 47.2527 9.69871 47.5576 10.0411 48.0177C10.3086 48.3707 10.2337 48.5152 10.2925 48.9378C10.3352 49.1327 10.4211 49.3155 10.5439 49.4728C10.7744 49.7612 11.0467 50.0137 11.3517 50.2217C11.612 50.416 11.8983 50.5726 12.2023 50.6871C12.4981 50.7372 12.791 50.8033 13.0796 50.885C13.6023 51.187 14.1989 51.3371 14.8022 51.3183C15.8186 51.2702 16.6852 50.8422 17.6375 50.5373C18.0945 50.4292 18.5378 50.2695 18.9588 50.0612C19.3436 49.8028 19.7019 49.5072 20.0287 49.1785C20.4727 48.788 20.9007 48.3814 21.3073 47.9535C22.0414 47.2003 22.7057 46.382 23.2919 45.5087C23.5877 45.0776 23.8574 44.6292 24.0997 44.166C24.3191 43.7541 24.4207 43.3101 24.6347 42.8928C24.7363 42.6628 24.8915 42.4595 24.9878 42.2294C25.1847 41.8081 25.3475 41.3716 25.4746 40.9242C25.5658 40.5229 25.7154 40.1372 25.9186 39.7793C26.2056 39.0995 26.3756 38.376 26.4214 37.6395C26.4803 37.3132 26.6033 36.9976 26.6622 36.6713C26.721 36.3449 26.7103 35.8742 26.7959 35.4837C26.9273 34.9115 27.1611 34.3678 27.486 33.8788C28.2804 34.0299 28.9847 34.4847 29.4493 35.1466C29.7209 35.4557 30.0122 35.747 30.3213 36.0186C30.685 36.3289 30.9258 36.7515 31.2895 37.0511C32.3594 37.8963 33.0923 39.1535 33.8573 40.2608C34.8042 41.6089 35.7029 42.9891 36.6444 44.3425C37.586 45.696 38.3991 46.9638 39.6562 47.9214C40.5875 48.7281 41.5703 49.4733 42.5985 50.1521C43.3635 50.5908 44.3532 50.4624 45.1984 50.4785C46.7434 50.4732 48.2868 50.3767 49.8204 50.1896C50.5801 50.1093 51.345 50.0291 52.1047 49.9756C52.4625 49.9862 52.8206 49.9648 53.1746 49.9114C53.8165 49.8419 54.4745 49.5476 55.1111 49.446C55.7477 49.3444 56.5234 49.216 56.9514 48.6917C57.1257 48.4809 57.2487 48.2325 57.3109 47.9661C57.3731 47.6998 57.3727 47.4226 57.3098 47.1564C57.0477 46.4182 56.2506 46.049 55.6621 45.6318Z" fill="white"/>
<path d="M98.7101 40.0789C99.0086 40.0834 99.3066 40.0528 99.5981 39.988C99.8776 39.9257 100.149 39.8306 100.406 39.7045L100.598 39.0518H100.502C100.279 39.243 100.023 39.3933 99.7479 39.4958C99.4863 39.6024 99.2065 39.6569 98.924 39.6563C98.6503 39.6745 98.3762 39.6267 98.1249 39.5168C97.8735 39.407 97.6522 39.2383 97.4797 39.0251C97.115 38.4895 96.9399 37.8474 96.9821 37.2009C96.9433 36.5872 97.1171 35.9788 97.4743 35.4783C97.6341 35.2734 97.8412 35.1104 98.0779 35.0033C98.3146 34.8961 98.5737 34.848 98.8331 34.8631C99.172 34.8512 99.5075 34.9346 99.8014 35.1038C100.059 35.2496 100.251 35.4891 100.336 35.7725H100.454C100.472 35.5926 100.5 35.414 100.54 35.2376C100.572 35.0786 100.613 34.9215 100.663 34.7668C100.371 34.6389 100.068 34.5369 99.7586 34.4619C99.4633 34.3979 99.162 34.3656 98.8598 34.3656C98.0262 34.3216 97.2078 34.6014 96.5756 35.1466C96.2903 35.4105 96.066 35.7333 95.9181 36.0927C95.7703 36.4521 95.7026 36.8394 95.7196 37.2276C95.6965 37.6196 95.755 38.0122 95.8912 38.3805C96.0275 38.7488 96.2387 39.0849 96.5114 39.3674C97.1222 39.8844 97.9121 40.14 98.7101 40.0789Z" fill="white"/>
<path d="M105.065 38.0353C105.082 37.7601 105.043 37.4843 104.951 37.2244C104.859 36.9644 104.716 36.7254 104.53 36.5214C104.119 36.1847 103.597 36.013 103.067 36.0398C102.536 36.0667 102.034 36.2901 101.659 36.6665C101.284 37.043 101.062 37.5456 101.037 38.0765C101.012 38.6074 101.186 39.1285 101.524 39.5385C101.724 39.7248 101.96 39.8684 102.218 39.9604C102.475 40.0523 102.749 40.0908 103.022 40.0735C103.265 40.0979 103.511 40.074 103.745 40.0033C103.98 39.9326 104.198 39.8165 104.387 39.6614C104.576 39.5064 104.733 39.3156 104.849 39.0999C104.964 38.8843 105.036 38.6479 105.06 38.4044C105.071 38.2816 105.071 38.1581 105.06 38.0353H105.065ZM103.68 39.3353C103.62 39.4556 103.527 39.5557 103.411 39.6233C103.295 39.6908 103.161 39.7227 103.027 39.7151C102.894 39.7234 102.762 39.6917 102.648 39.6239C102.533 39.5562 102.442 39.4556 102.385 39.3353C102.232 38.92 102.17 38.4767 102.203 38.0353C102.176 37.5898 102.241 37.1434 102.396 36.7247C102.49 36.5532 102.648 36.4259 102.835 36.3707C103.023 36.3156 103.225 36.337 103.396 36.4304C103.519 36.4999 103.621 36.6016 103.691 36.7247C103.844 37.1417 103.91 37.5862 103.883 38.03C103.91 38.4746 103.84 38.9197 103.68 39.3353Z" fill="white"/>
<path d="M111.801 39.972C111.801 39.7045 111.79 39.4478 111.768 39.2017V37.982C111.779 37.6135 111.758 37.2447 111.704 36.88C111.667 36.6976 111.586 36.5269 111.469 36.3825C111.36 36.2551 111.223 36.156 111.068 36.0936C110.862 36.0172 110.643 35.9853 110.424 36.0001C110.206 36.0148 109.993 36.0759 109.8 36.1792C109.578 36.3213 109.394 36.5161 109.265 36.7462C109.185 36.5258 109.034 36.3379 108.837 36.2113C108.629 36.079 108.387 36.0119 108.141 36.0187C107.914 36.0122 107.688 36.0618 107.483 36.1631C107.275 36.2849 107.094 36.4467 106.948 36.6392V36.1043H105.82C105.82 36.5429 105.846 36.9228 105.857 37.2437C105.868 37.5647 105.857 37.8268 105.857 38.0408V38.8433C105.857 39.1696 105.857 39.5547 105.82 39.9827H107.018V39.9078C107.018 39.5975 106.986 39.3729 106.986 39.2498V37.9499C106.965 37.6109 107.018 37.2714 107.141 36.9549C107.197 36.8721 107.272 36.8043 107.36 36.7575C107.448 36.7106 107.547 36.6861 107.647 36.6861C107.746 36.6861 107.845 36.7106 107.933 36.7575C108.021 36.8043 108.096 36.8721 108.152 36.9549C108.281 37.3882 108.328 37.8417 108.291 38.2923V39.1C108.291 39.3729 108.264 39.6778 108.243 39.9774H109.452V37.9499C109.427 37.6129 109.478 37.2745 109.602 36.9602C109.662 36.8741 109.742 36.8038 109.835 36.7553C109.928 36.7068 110.032 36.6814 110.137 36.6814C110.242 36.6814 110.345 36.7068 110.438 36.7553C110.532 36.8038 110.612 36.8741 110.672 36.9602C110.797 37.3429 110.846 37.7463 110.816 38.1478V38.993C110.816 39.3033 110.789 39.6189 110.763 39.972H111.833H111.801Z" fill="white"/>
<path d="M115.213 39.9719H116.422V37.9498C116.397 37.6128 116.448 37.2744 116.572 36.9601C116.632 36.874 116.712 36.8037 116.806 36.7552C116.899 36.7066 117.002 36.6813 117.107 36.6813C117.212 36.6813 117.316 36.7066 117.409 36.7552C117.502 36.8037 117.582 36.874 117.642 36.9601C117.767 37.3428 117.816 37.7462 117.787 38.1477V38.9929C117.787 39.3032 117.787 39.6188 117.733 39.9719H118.942C118.942 39.7044 118.931 39.4476 118.91 39.2016V37.9819C118.883 37.6207 118.824 37.2627 118.733 36.9119C118.696 36.7296 118.616 36.5589 118.498 36.4144C118.39 36.2871 118.252 36.1879 118.097 36.1256C117.892 36.0492 117.672 36.0173 117.454 36.0321C117.235 36.0468 117.022 36.1079 116.829 36.2112C116.607 36.3533 116.423 36.5481 116.294 36.7782C116.214 36.5578 116.064 36.3698 115.866 36.2433C115.659 36.111 115.417 36.0439 115.171 36.0507C114.943 36.0442 114.717 36.0938 114.513 36.1951C114.303 36.3152 114.121 36.4773 113.978 36.6712V36.1363H112.844C112.844 36.5749 112.876 36.9547 112.881 37.2757C112.886 37.5967 112.881 37.8588 112.881 38.0728V38.8752C112.881 39.2016 112.881 39.5867 112.844 40.0147H114.021V39.9398C114.021 39.6295 113.994 39.4048 113.994 39.2818V37.9498C113.968 37.611 114.019 37.2709 114.144 36.9547C114.189 36.8879 114.248 36.8308 114.315 36.7866C114.383 36.7423 114.459 36.7119 114.538 36.697C114.618 36.6821 114.699 36.683 114.779 36.6997C114.858 36.7164 114.933 36.7485 115 36.7943C115.063 36.8365 115.118 36.8911 115.16 36.9547C115.284 37.3891 115.331 37.8416 115.299 38.2921V39.0999C115.299 39.3727 115.23 39.6723 115.213 39.9719Z" fill="white"/>
<path d="M123.666 38.0353C123.684 37.7598 123.647 37.4835 123.555 37.2231C123.463 36.9628 123.318 36.724 123.131 36.5214C122.719 36.1954 122.202 36.0324 121.677 36.0633C121.153 36.0942 120.658 36.3169 120.287 36.689C119.916 37.0611 119.696 37.5566 119.666 38.0811C119.637 38.6056 119.802 39.1224 120.13 39.5332C120.553 39.8782 121.082 40.0666 121.628 40.0666C122.173 40.0666 122.703 39.8782 123.126 39.5332C123.311 39.3326 123.455 39.0965 123.548 38.8392C123.641 38.5819 123.681 38.3085 123.666 38.0353ZM122.275 39.3353C122.178 39.5067 122.018 39.6328 121.828 39.686C121.638 39.7391 121.436 39.715 121.264 39.6188C121.146 39.5514 121.048 39.4535 120.98 39.3353C120.826 38.9202 120.76 38.4773 120.788 38.0353C120.76 37.5898 120.826 37.1434 120.98 36.7247C121.027 36.6376 121.09 36.5608 121.167 36.4987C121.243 36.4366 121.332 36.3904 121.426 36.363C121.521 36.3356 121.62 36.3274 121.718 36.339C121.816 36.3506 121.911 36.3817 121.997 36.4304C122.12 36.4999 122.222 36.6016 122.291 36.7247C122.45 37.1406 122.517 37.5857 122.489 38.03C122.517 38.4742 122.45 38.9194 122.291 39.3353H122.275Z" fill="white"/>
<path d="M126.71 36.9441C126.838 37.3095 126.887 37.6978 126.854 38.0835V39.1535C126.864 39.4288 126.85 39.7044 126.811 39.9773H128.015C128.015 39.7687 127.983 39.5493 127.972 39.3246C127.961 39.1 127.972 38.8592 127.972 38.6078V37.586C127.982 37.3207 127.962 37.0552 127.913 36.7943C127.882 36.6502 127.816 36.5161 127.721 36.4038C127.61 36.2712 127.469 36.1683 127.309 36.1042C127.108 36.031 126.895 35.9985 126.682 36.0086C126.469 36.0187 126.26 36.0712 126.068 36.163C125.856 36.2843 125.673 36.4504 125.533 36.6499V36.1149H124.431C124.452 36.4359 124.468 36.7568 124.479 37.0778V38.9769C124.479 39.2925 124.479 39.6349 124.431 39.9933H125.602C125.602 39.5707 125.602 39.1962 125.57 38.8753C125.554 38.5991 125.554 38.3222 125.57 38.0461C125.548 37.6944 125.603 37.342 125.731 37.0136C125.778 36.9279 125.845 36.8552 125.927 36.8024C126.01 36.7496 126.104 36.7183 126.201 36.7114C126.299 36.7045 126.396 36.7221 126.485 36.7628C126.574 36.8035 126.651 36.8658 126.71 36.9441Z" fill="white"/>
<path d="M136.029 34.4619H135.654C135.488 35.1467 135.306 35.8207 135.119 36.484C134.932 37.1474 134.707 37.8054 134.483 38.458C134.236 37.7626 134.006 37.0832 133.787 36.4199C133.568 35.7565 133.37 35.1039 133.177 34.4619H132.359C132.145 35.0932 131.931 35.7458 131.701 36.4092C131.471 37.0725 131.235 37.7733 130.979 38.5115C130.77 37.8428 130.577 37.1688 130.396 36.4947C130.214 35.8207 130.042 35.1413 129.861 34.4619H128.486C128.817 35.4177 129.124 36.3592 129.406 37.2865C129.689 38.2066 129.941 39.116 130.176 40.0041H131C131.225 39.314 131.449 38.6453 131.679 37.9873C131.909 37.3293 132.15 36.698 132.391 36.0775C132.642 36.7622 132.878 37.4363 133.097 38.0889C133.316 38.7416 133.514 39.3782 133.702 40.0041H134.541C134.868 38.9716 135.189 37.998 135.494 37.0725C135.799 36.147 136.093 35.2804 136.382 34.4619H136.029Z" fill="white"/>
<path d="M138.522 35.9866C138.262 35.9731 138.002 36.0137 137.759 36.1058C137.516 36.1979 137.295 36.3394 137.109 36.5215C136.929 36.7128 136.789 36.9382 136.697 37.1844C136.605 37.4306 136.564 37.6926 136.574 37.9552C136.541 38.521 136.733 39.0771 137.109 39.5012C137.305 39.6887 137.538 39.8331 137.794 39.9252C138.049 40.0174 138.32 40.0552 138.591 40.0362C138.842 40.0365 139.092 40.0041 139.335 39.9399C139.548 39.8822 139.75 39.79 139.934 39.6671L140.11 39.207L140.035 39.1481C139.884 39.2709 139.715 39.3684 139.533 39.437C139.361 39.5009 139.18 39.5335 138.998 39.5333C138.826 39.539 138.656 39.5047 138.5 39.4332C138.344 39.3617 138.207 39.255 138.099 39.1214C137.859 38.8018 137.74 38.4077 137.762 38.0087H140.249V37.7519C140.268 37.5115 140.238 37.2699 140.162 37.0412C140.085 36.8125 139.964 36.6012 139.805 36.4199C139.632 36.2638 139.429 36.1448 139.208 36.0703C138.988 35.9958 138.754 35.9673 138.522 35.9866ZM139.115 37.5326V37.6449H137.74V37.57C137.72 37.2526 137.789 36.9359 137.938 36.6553C137.99 36.5582 138.067 36.477 138.161 36.4204C138.256 36.3639 138.363 36.3341 138.473 36.3343C138.571 36.3336 138.667 36.3596 138.751 36.4096C138.835 36.4596 138.904 36.5316 138.95 36.6178C139.073 36.8759 139.13 37.1611 139.115 37.447C139.118 37.4755 139.118 37.5041 139.115 37.5326Z" fill="white"/>
<path d="M144.074 39.5226C143.976 39.3257 143.937 39.1046 143.962 38.886V38.7309L143.989 37.3186V37.2758C143.999 37.0964 143.969 36.917 143.902 36.7505C143.834 36.5839 143.731 36.4345 143.598 36.3129C143.277 36.0679 142.878 35.9481 142.475 35.9759C142.222 35.9762 141.973 36.029 141.742 36.131C141.482 36.2479 141.242 36.405 141.03 36.5964C141.057 36.666 141.084 36.7355 141.105 36.8104C141.13 36.9148 141.164 37.0169 141.207 37.1153C141.313 36.9336 141.453 36.7738 141.619 36.6446C141.767 36.5432 141.942 36.4891 142.122 36.4894C142.221 36.4884 142.32 36.5073 142.411 36.545C142.503 36.5826 142.587 36.6383 142.657 36.7087C142.728 36.7874 142.783 36.8795 142.819 36.9795C142.855 37.0796 142.871 37.1857 142.865 37.2918V37.447C142.592 37.6042 142.299 37.723 141.993 37.8001L141.581 37.9284C141.335 37.9985 141.113 38.1355 140.94 38.3243C140.795 38.4985 140.717 38.7185 140.72 38.9449C140.712 39.0948 140.734 39.2449 140.785 39.3863C140.835 39.5277 140.913 39.6577 141.014 39.7687C141.12 39.8722 141.246 39.9527 141.384 40.0052C141.522 40.0576 141.669 40.081 141.817 40.0736C142.04 40.0777 142.259 40.0223 142.453 39.9131C142.645 39.8081 142.804 39.6527 142.914 39.4638C142.944 39.6333 143.033 39.7867 143.165 39.8971C143.301 40.002 143.47 40.0551 143.641 40.0469C143.785 40.047 143.929 40.0309 144.069 39.9987C144.216 39.9696 144.36 39.9248 144.497 39.865V39.6671H144.465C144.393 39.6723 144.321 39.6621 144.254 39.6372C144.187 39.6122 144.125 39.5732 144.074 39.5226ZM142.903 38.779C142.915 38.9768 142.864 39.1734 142.758 39.3407C142.71 39.4036 142.648 39.4539 142.576 39.4874C142.504 39.521 142.426 39.5367 142.346 39.5333C142.274 39.538 142.201 39.5249 142.135 39.495C142.069 39.4652 142.011 39.4196 141.967 39.3621C141.875 39.1993 141.832 39.0136 141.844 38.8272C141.836 38.7072 141.854 38.587 141.897 38.4745C141.939 38.362 142.005 38.2597 142.09 38.1745C142.325 37.9881 142.606 37.868 142.903 37.8268V38.779Z" fill="white"/>
<path d="M146.284 33.884C146.172 33.8914 146.062 33.9057 145.952 33.9268H145.417C145.305 33.9268 145.198 33.9268 145.085 33.884C145.085 34.328 145.118 34.7935 145.128 35.2963C145.139 35.7992 145.128 36.3662 145.128 36.944V38.5488C145.128 39.0517 145.101 39.5225 145.085 39.9772C145.183 39.9594 145.281 39.9469 145.38 39.9397C145.588 39.9183 145.797 39.9183 146.006 39.9397C146.102 39.947 146.199 39.9595 146.294 39.9772C146.294 39.5385 146.257 39.0678 146.246 38.5702C146.236 38.0727 146.246 37.5003 146.246 36.9172V35.307C146.236 34.7721 146.262 34.3441 146.284 33.884Z" fill="white"/>
<path d="M148.894 39.6349C148.819 39.6418 148.743 39.6235 148.679 39.5828C148.616 39.5422 148.567 39.4815 148.541 39.4102C148.46 39.0307 148.43 38.6422 148.45 38.2547V37.9284C148.45 37.693 148.45 37.2918 148.477 36.7301V36.5429H149.279C149.274 36.4824 149.274 36.4215 149.279 36.361V36.147H148.493V35.4195C148.489 35.1604 148.502 34.9013 148.531 34.6438L148.44 34.5796C148.268 34.6652 148.092 34.7454 147.905 34.8257L147.37 35.0503C147.363 35.1989 147.372 35.3477 147.396 35.4944C147.41 35.6063 147.41 35.7194 147.396 35.8314V36.1417H146.861V36.2219C146.867 36.2663 146.867 36.3112 146.861 36.3556V36.5643H147.396V39.0144C147.385 39.1597 147.403 39.3058 147.45 39.4438C147.497 39.5817 147.571 39.7087 147.669 39.8168C147.776 39.9141 147.901 39.989 148.037 40.0368C148.173 40.0846 148.317 40.1044 148.461 40.095C148.609 40.096 148.756 40.078 148.9 40.0415C149.069 39.9989 149.234 39.9397 149.392 39.865V39.5868C149.228 39.6227 149.061 39.6388 148.894 39.6349Z" fill="white"/>
<path d="M153.452 39.3727V37.5859C153.459 37.3243 153.44 37.0625 153.393 36.8049C153.356 36.6577 153.287 36.5206 153.19 36.4037C153.08 36.2712 152.938 36.1682 152.778 36.1041C152.607 36.0402 152.426 36.0076 152.243 36.0078C151.994 36.0029 151.748 36.0598 151.526 36.1736C151.309 36.2967 151.125 36.4712 150.991 36.6819V34.6009C150.998 34.3609 151.02 34.1215 151.056 33.884L150.751 33.9322H150.184L149.868 33.884C149.868 34.2264 149.911 34.633 149.921 35.1037C149.932 35.5745 149.921 36.2378 149.921 37.0831V38.9126C149.921 39.3352 149.895 39.6883 149.868 39.9825H151.05C151.057 39.6255 151.045 39.2683 151.013 38.9126C150.994 38.6205 150.994 38.3274 151.013 38.0353C150.991 37.6836 151.045 37.3312 151.173 37.0028C151.226 36.914 151.299 36.8396 151.388 36.7864C151.476 36.7331 151.576 36.7027 151.679 36.698C151.782 36.6932 151.885 36.7142 151.978 36.759C152.07 36.8038 152.151 36.8711 152.211 36.9547C152.335 37.321 152.382 37.7088 152.35 38.0941V39.164C152.36 39.4394 152.346 39.715 152.307 39.9879H153.506C153.476 39.784 153.459 39.5786 153.452 39.3727Z" fill="white"/>
<path d="M102.289 47.365L101.824 43.4812H101.08C100.78 44.1499 100.481 44.7972 100.171 45.4284C99.8603 46.0597 99.55 46.6749 99.229 47.2794C98.8974 46.6535 98.571 46.0276 98.2608 45.4017C97.9505 44.7758 97.6402 44.1285 97.3513 43.4812H96.6452L96.1103 47.3168C96.0895 47.5306 96.0574 47.7431 96.014 47.9534C95.9658 48.253 95.907 48.6114 95.8428 49.0233L96.014 48.9912H96.3189L96.4954 49.0233C96.4954 48.4081 96.565 47.7876 96.6452 47.1777V47.1136L96.8431 45.4284C97.132 45.9634 97.4262 46.5358 97.7312 47.135C98.0361 47.7341 98.3357 48.3653 98.6513 49.0233H98.9937C99.3093 48.3547 99.6196 47.7074 99.9245 47.0922C100.229 46.477 100.529 45.8778 100.834 45.2947L101.096 47.8839C101.096 48.023 101.133 48.3707 101.155 48.9538V49.034L101.503 49.0019H102.145L102.514 49.0287C102.471 48.8361 102.428 48.6221 102.391 48.376C102.353 48.13 102.337 47.7929 102.289 47.365Z" fill="white"/>
<path d="M106.483 48.5793C106.387 48.3815 106.349 48.1612 106.371 47.9427V47.7875L106.397 46.3752V46.3324C106.408 46.153 106.378 45.9736 106.31 45.8071C106.243 45.6406 106.139 45.4911 106.007 45.3695C105.686 45.1245 105.286 45.0047 104.884 45.0325C104.631 45.0328 104.382 45.0856 104.151 45.1876C103.891 45.3046 103.65 45.4616 103.439 45.653C103.466 45.7172 103.493 45.7868 103.519 45.867C103.546 45.9473 103.578 46.0436 103.616 46.172C103.718 45.9857 103.86 45.8247 104.033 45.7012C104.178 45.5974 104.352 45.543 104.53 45.5461C104.629 45.5446 104.728 45.5628 104.819 45.5995C104.911 45.6363 104.995 45.6908 105.065 45.76C105.209 45.9212 105.284 46.1326 105.274 46.3485V46.4876C105.003 46.643 104.711 46.76 104.407 46.8353L103.995 46.969C103.748 47.0402 103.524 47.177 103.348 47.3649C103.203 47.5425 103.129 47.7672 103.14 47.9962C103.131 48.147 103.152 48.2982 103.203 48.4406C103.253 48.583 103.332 48.7139 103.434 48.8253C103.539 48.9288 103.665 49.0093 103.803 49.0618C103.941 49.1143 104.089 49.1376 104.236 49.1303C104.461 49.1338 104.682 49.0784 104.878 48.9698C105.067 48.861 105.224 48.7041 105.333 48.5151C105.357 48.6877 105.446 48.8445 105.583 48.9531C105.719 49.0616 105.892 49.1136 106.066 49.0982C106.208 49.0974 106.349 49.0831 106.488 49.0554C106.635 49.0238 106.778 48.9791 106.916 48.9216V48.7183H106.89C106.816 48.727 106.741 48.719 106.671 48.695C106.6 48.6709 106.536 48.6313 106.483 48.5793ZM105.311 47.8357C105.318 48.0244 105.267 48.2107 105.167 48.3706C105.119 48.4335 105.056 48.4838 104.985 48.5173C104.913 48.5509 104.834 48.5666 104.755 48.5632C104.683 48.5674 104.611 48.5534 104.545 48.5226C104.48 48.4917 104.423 48.445 104.381 48.3867C104.283 48.2263 104.238 48.0391 104.252 47.8517C104.245 47.7325 104.263 47.6131 104.305 47.5015C104.348 47.3899 104.414 47.2886 104.498 47.2044C104.733 47.018 105.014 46.8979 105.311 46.8567V47.8357Z" fill="white"/>
<path d="M110.64 48.5794C110.334 48.4716 110.012 48.4191 109.687 48.4242H109.543C108.773 48.4242 108.393 48.2584 108.393 48.0123C108.388 47.9139 108.423 47.8177 108.489 47.7445C108.555 47.6714 108.648 47.6273 108.746 47.6218H108.885C109.36 47.6489 109.832 47.5253 110.233 47.2687C110.389 47.1577 110.515 47.0095 110.599 46.8376C110.683 46.6657 110.723 46.4756 110.715 46.2844C110.719 46.1158 110.683 45.9486 110.608 45.7976C110.533 45.6584 110.425 45.5406 110.292 45.4552H111.094V45.0594H110.367C110.076 45.0635 109.785 45.0528 109.495 45.0273L108.96 44.9952C108.524 44.9696 108.093 45.0963 107.74 45.3536C107.595 45.4643 107.478 45.6078 107.399 45.7724C107.32 45.937 107.281 46.1179 107.285 46.3005C107.277 46.441 107.296 46.5819 107.342 46.715C107.388 46.8481 107.46 46.9708 107.553 47.0761C107.765 47.2901 108.041 47.4291 108.339 47.472V47.6111C108.111 47.7 107.905 47.8368 107.735 48.0123C107.666 48.0832 107.613 48.167 107.577 48.2588C107.541 48.3507 107.524 48.4487 107.526 48.5473C107.521 48.6928 107.569 48.8352 107.66 48.9485C107.761 49.0664 107.895 49.1505 108.045 49.1892V49.2534C107.808 49.3247 107.594 49.4576 107.425 49.6386C107.284 49.8056 107.211 50.0195 107.221 50.2377C107.22 50.3946 107.262 50.5487 107.342 50.6835C107.422 50.8183 107.538 50.9287 107.676 51.0027C108.065 51.2111 108.504 51.3074 108.944 51.2809C109.517 51.3085 110.083 51.1406 110.549 50.8048C110.743 50.6658 110.901 50.4818 111.009 50.2685C111.118 50.0552 111.172 49.8189 111.169 49.5797C111.173 49.3808 111.127 49.1839 111.036 49.0073C110.953 48.8255 110.815 48.6754 110.64 48.5794ZM108.548 45.6157C108.593 45.5374 108.657 45.4717 108.734 45.4249C108.812 45.378 108.899 45.3515 108.99 45.3477C109.08 45.344 109.17 45.3632 109.251 45.4035C109.331 45.4438 109.401 45.5039 109.452 45.5783C109.563 45.7788 109.613 46.0075 109.596 46.2363C109.616 46.515 109.566 46.7943 109.452 47.0494C109.363 47.1718 109.229 47.254 109.08 47.2781C108.931 47.3021 108.778 47.2661 108.655 47.1778C108.607 47.1405 108.564 47.0974 108.527 47.0494C108.415 46.822 108.365 46.5692 108.382 46.3165C108.367 46.0716 108.424 45.8277 108.548 45.6157ZM109.859 50.6764C109.601 50.8421 109.298 50.9225 108.992 50.9064C108.719 50.9212 108.451 50.8313 108.243 50.655C108.15 50.5709 108.076 50.4675 108.027 50.352C107.978 50.2365 107.955 50.1117 107.96 49.9863C107.956 49.8359 107.995 49.6877 108.072 49.5583C108.144 49.4322 108.252 49.33 108.382 49.2641L109.318 49.3123C109.55 49.308 109.778 49.3794 109.966 49.5155C110.037 49.5841 110.092 49.6677 110.127 49.7602C110.163 49.8527 110.177 49.9518 110.169 50.0505C110.174 50.1726 110.149 50.294 110.094 50.4035C110.04 50.5129 109.959 50.6068 109.859 50.6764Z" fill="white"/>
<path d="M114.732 48.5793C114.637 48.3815 114.598 48.1612 114.62 47.9427V46.3378C114.63 46.1584 114.6 45.979 114.533 45.8125C114.465 45.646 114.362 45.4965 114.229 45.3749C113.908 45.1299 113.509 45.0101 113.106 45.0379C112.853 45.0382 112.604 45.091 112.373 45.193C112.113 45.3099 111.873 45.467 111.661 45.6584C111.661 45.7226 111.715 45.7922 111.742 45.8724C111.768 45.9526 111.801 46.0489 111.838 46.1773C111.94 45.991 112.083 45.8301 112.255 45.7066C112.4 45.6027 112.575 45.5483 112.753 45.5514C112.852 45.55 112.95 45.5682 113.042 45.6049C113.133 45.6416 113.217 45.6962 113.288 45.7654C113.433 45.9261 113.51 46.1373 113.502 46.3539V46.4395C113.507 46.4569 113.507 46.4755 113.502 46.493C113.23 46.6484 112.939 46.7654 112.635 46.8407L112.223 46.9744C111.976 47.0456 111.752 47.1824 111.576 47.3703C111.431 47.5478 111.357 47.7726 111.367 48.0015C111.358 48.1524 111.38 48.3035 111.43 48.446C111.481 48.5884 111.559 48.7192 111.661 48.8307C111.767 48.9342 111.893 49.0147 112.031 49.0672C112.169 49.1197 112.316 49.143 112.464 49.1356C112.688 49.1391 112.91 49.0838 113.106 48.9751C113.295 48.8664 113.452 48.7095 113.561 48.5204C113.585 48.6931 113.674 48.8499 113.81 48.9584C113.947 49.067 114.12 49.1189 114.293 49.1035C114.435 49.1028 114.577 49.0885 114.716 49.0607C114.862 49.0292 115.006 48.9844 115.144 48.927V48.7237C115.069 48.73 114.994 48.7203 114.923 48.6954C114.852 48.6705 114.787 48.631 114.732 48.5793ZM113.566 47.8357C113.569 48.0241 113.519 48.2096 113.421 48.3706C113.371 48.4317 113.307 48.4807 113.235 48.514C113.162 48.5473 113.084 48.5641 113.004 48.5632C112.932 48.5674 112.86 48.5534 112.795 48.5226C112.729 48.4917 112.672 48.445 112.63 48.3867C112.532 48.2263 112.487 48.0391 112.501 47.8517C112.496 47.7323 112.516 47.6131 112.559 47.5016C112.602 47.3902 112.668 47.289 112.753 47.2044C112.986 47.0147 113.268 46.8942 113.566 46.8567V47.8357Z" fill="white"/>
<path d="M117.268 45.1771H115.663C115.668 45.2054 115.668 45.2345 115.663 45.2627C115.668 45.3089 115.668 45.3556 115.663 45.4018C115.668 45.4462 115.668 45.4912 115.663 45.5356V45.6212H115.754C116.228 45.5998 116.576 45.5891 116.797 45.5891H117.466L116.706 46.7499C116.064 47.7342 115.593 48.4511 115.288 48.8897V49.0181L116.112 48.986H118.043L118.814 49.0181V48.526C118.589 48.526 118.359 48.5581 118.124 48.5634C117.888 48.5688 117.647 48.5634 117.401 48.5634H116.69L118.059 46.4236L118.851 45.2092V45.1504H118.118L117.268 45.1771Z" fill="white"/>
<path d="M120.734 45.1504H119.531C119.531 45.4981 119.563 45.8351 119.573 46.1508C119.584 46.4664 119.573 46.782 119.573 47.0923V47.9482C119.579 48.3054 119.565 48.6626 119.531 49.0181L119.841 48.986H120.429L120.734 49.0181C120.734 48.6062 120.702 48.2478 120.691 47.9482C120.681 47.6486 120.691 47.3544 120.691 47.0869V46.1454C120.691 45.8244 120.713 45.4981 120.734 45.1504Z" fill="white"/>
<path d="M120.14 43.0692C119.978 43.0634 119.819 43.1219 119.699 43.232C119.579 43.3421 119.507 43.495 119.499 43.6577C119.496 43.7478 119.513 43.8374 119.548 43.9205C119.583 44.0035 119.636 44.0781 119.702 44.1392C119.758 44.1972 119.825 44.2428 119.9 44.2733C119.974 44.3037 120.055 44.3181 120.135 44.3157C120.216 44.3247 120.299 44.3173 120.377 44.2942C120.455 44.271 120.528 44.2324 120.592 44.1807C120.655 44.129 120.707 44.0652 120.746 43.9931C120.784 43.9209 120.808 43.8418 120.815 43.7604C120.823 43.679 120.814 43.5969 120.789 43.519C120.765 43.441 120.725 43.3687 120.672 43.3064C120.619 43.244 120.554 43.1928 120.481 43.1558C120.409 43.1188 120.329 43.0966 120.247 43.0906H120.135L120.14 43.0692Z" fill="white"/>
<path d="M125.308 47.6591V46.6427C125.318 46.3757 125.298 46.1083 125.249 45.8456C125.218 45.7016 125.152 45.5674 125.057 45.4551C124.943 45.3256 124.8 45.2248 124.639 45.1609C124.469 45.0927 124.288 45.0582 124.104 45.0592C123.863 45.0557 123.624 45.1108 123.409 45.2197C123.197 45.3409 123.015 45.5071 122.874 45.7065V45.1716H121.735C121.756 45.489 121.772 45.81 121.783 46.1345C121.793 46.459 121.793 46.7854 121.783 47.1135V48.0336C121.79 48.3731 121.774 48.7127 121.735 49.05L122.045 49.0179H122.58L122.879 49.05C122.879 48.6292 122.869 48.2547 122.847 47.9266V47.076C122.825 46.7261 122.88 46.3755 123.008 46.0489C123.055 45.9492 123.131 45.8663 123.227 45.8118C123.323 45.7572 123.433 45.7335 123.543 45.744C123.647 45.7292 123.754 45.7457 123.849 45.7914C123.944 45.8371 124.024 45.9099 124.078 46.0008C124.201 46.3671 124.249 46.7549 124.217 47.1402V48.2101C124.227 48.4855 124.212 48.7611 124.174 49.034L124.49 49.0019H125.057L125.378 49.034C125.378 48.8253 125.346 48.606 125.335 48.3813C125.324 48.1566 125.308 47.9106 125.308 47.6591Z" fill="white"/>
<path d="M128.063 45.0433C127.803 45.0301 127.542 45.0708 127.298 45.1628C127.055 45.2549 126.832 45.3963 126.646 45.5783C126.464 45.7689 126.324 45.9942 126.232 46.2405C126.14 46.4869 126.099 46.7493 126.111 47.0119C126.077 47.5778 126.269 48.1338 126.646 48.558C126.843 48.7453 127.077 48.8896 127.333 48.9817C127.589 49.0738 127.861 49.1117 128.133 49.0929C128.384 49.0932 128.634 49.0608 128.876 48.9966C129.09 48.9389 129.292 48.8468 129.475 48.7238L129.652 48.2637L129.572 48.2049C129.423 48.3275 129.255 48.4251 129.074 48.4938C128.903 48.5577 128.722 48.5903 128.539 48.5901C128.366 48.5955 128.195 48.5606 128.038 48.4882C127.881 48.4158 127.743 48.3078 127.635 48.1728C127.4 47.8513 127.282 47.4581 127.304 47.0601H129.786C129.791 47.0282 129.791 46.9957 129.786 46.9638C129.791 46.9104 129.791 46.8567 129.786 46.8033C129.818 46.3173 129.656 45.8383 129.336 45.4713C129.166 45.3154 128.964 45.1968 128.745 45.1231C128.526 45.0494 128.293 45.0222 128.063 45.0433ZM128.678 46.5893V46.6963H127.304V46.6268C127.286 46.3102 127.353 45.9948 127.496 45.712C127.549 45.6157 127.626 45.5351 127.72 45.4787C127.814 45.4222 127.921 45.392 128.031 45.391C128.127 45.3908 128.222 45.4165 128.305 45.4654C128.388 45.5144 128.456 45.5848 128.502 45.6692C128.624 45.9297 128.679 46.2165 128.662 46.5037L128.678 46.5893Z" fill="white"/>
<path d="M98.1698 17.1186C98.5585 17.7294 98.9156 18.3597 99.2397 19.007L100.31 17.9746C99.7694 17.3651 99.1547 16.826 98.4801 16.3697C98.7062 15.8519 98.8852 15.3147 99.015 14.7648L97.469 14.4438C97.1465 16.3233 96.5022 18.133 95.5646 19.7934L96.0995 20.2321C96.932 19.2963 97.6289 18.2483 98.1698 17.1186Z" fill="white"/>
<path d="M110.158 14.2886C109.676 13.1259 109.019 12.0435 108.211 11.0789L107.601 11.3838C108.008 12.5286 108.339 13.6992 108.591 14.8877L110.158 14.2886Z" fill="white"/>
<path d="M104.113 13.4113H100.722L101.487 12.3414C100.511 11.7045 99.4427 11.2227 98.3196 10.9131L98.0575 11.5015C98.796 12.0895 99.4947 12.7257 100.149 13.406H95.9016V14.2619H104.113V13.4113Z" fill="white"/>
<path d="M99.352 23.9874V28.9786H100.989V23.629C101.668 24.399 102.304 25.2062 102.893 26.047L104.022 24.7899C103.095 23.9828 102.077 23.2863 100.989 22.7143V22.0081H104.151V21.1468H100.989V19.3547H100.668C101.143 18.7098 101.556 18.0221 101.904 17.3005C102.31 17.8722 102.668 18.4771 102.974 19.1086L103.867 18.2902C103.696 18.7716 103.497 19.2431 103.273 19.7024L103.808 20.0983C104.097 19.7185 104.343 19.3012 104.627 18.8786V28.8876H106.301V27.4165H112.721V26.5392H109.805V23.2439H112.014V22.3879H109.805V19.4136H111.998V18.5576H109.805V16.0059H112.48V15.1446H106.21C106.558 13.9576 106.787 12.7391 106.895 11.5069L105.162 11.1646C104.878 13.9463 104.627 16.0059 103.979 17.9478C103.476 17.3966 102.9 16.9161 102.268 16.5195C102.496 15.9842 102.675 15.4291 102.802 14.8611L101.256 14.4813C101.104 16.1789 100.632 17.8324 99.8656 19.3547H99.3734V21.1468H95.7838V22.0081H98.9294C98.0792 23.9278 96.8699 25.6673 95.3666 27.133L95.7678 27.6679C97.1626 26.6532 98.3746 25.4086 99.352 23.9874ZM106.248 16.0059H108.088V18.5576H106.237L106.248 16.0059ZM106.248 19.4136H108.088V22.3879H106.237L106.248 19.4136ZM106.248 23.2439H108.088V26.5392H106.237L106.248 23.2439Z" fill="white"/>
<path d="M130.556 21.5694C129.537 20.7039 128.394 19.9969 127.164 19.4724L126.822 20.0074C127.743 20.8988 128.614 21.84 129.433 22.8266L130.556 21.5694Z" fill="white"/>
<path d="M127.48 18.5576H123.955V19.4135H132.947V18.5576H129.192V15.2622H133.193V14.4009H129.192V11.2019H127.48V14.4009H123.553V15.2622H127.48V18.5576Z" fill="white"/>
<path d="M133.883 25.587C133.241 24.2038 132.371 22.938 131.31 21.8423L130.775 22.2007C131.416 23.5357 131.953 24.9182 132.38 26.3359L133.883 25.587Z" fill="white"/>
<path d="M125.741 26.2129C125.741 28.2725 126.121 28.4811 128.908 28.4811C131.877 28.4811 131.728 27.2614 130.85 24.1373H130.166C130.166 26.673 130.166 26.919 128.791 26.919C127.592 26.919 127.421 26.673 127.421 25.908V21.2432H125.741V26.2129Z" fill="white"/>
<path d="M123.152 14.401H120.392L121.382 13.6413C120.534 12.6356 119.547 11.7565 118.45 11.0308L117.974 11.5069C118.412 12.1328 119.119 13.315 119.745 14.401H116.808V15.2623H123.152V14.401Z" fill="white"/>
<path d="M121.098 28.5987H122.532V26.2931L123.81 27.2453C124.688 26.0844 125.126 24.4047 125.239 22.3879L124.57 22.2542C124.313 23.7193 123.6 25.0657 122.532 26.1005V22.3558H117.407V28.8876H118.894V27.4967H121.087L121.098 28.5987ZM121.098 26.6354H118.926V23.1689H121.098V26.6354Z" fill="white"/>
<path d="M122.714 19.6812H117.359V20.4836H122.714V19.6812Z" fill="white"/>
<path d="M122.714 17.0491H117.359V17.8515H122.714V17.0491Z" fill="white"/>
<path d="M88.7385 27.7588L88.5727 27.6733C88.325 27.4963 88.0552 27.3525 87.7703 27.2453C87.3263 27.133 86.8555 27.1864 86.4115 27.0902C85.7856 26.9564 85.165 26.8013 84.5338 26.705C83.7441 26.5549 82.931 26.5823 82.1532 26.7852C81.7739 26.8727 81.4237 27.057 81.1368 27.3202C80.9783 27.5538 80.8842 27.825 80.864 28.1066C80.7997 28.3746 80.7674 28.6494 80.7677 28.9251C80.8044 29.9544 81.1106 30.956 81.6557 31.8299C81.9305 32.3019 82.2456 32.7494 82.5973 33.1673C82.9192 33.5952 83.2929 33.9815 83.71 34.3174C84.0908 34.5328 84.4153 34.8352 84.6568 35.2001C84.8387 35.4943 84.8548 35.5799 85.1918 35.735C85.7719 35.905 86.3741 35.988 86.9785 35.9811C87.7765 36.034 88.578 35.9873 89.3644 35.842C89.9475 35.7404 90.0545 35.3071 90.5306 35.0503C91.0068 34.7935 91.194 34.7507 91.3973 34.2639C92.3174 32.0706 91.1833 30.2036 89.8406 28.6201C89.5239 28.2735 89.1514 27.9824 88.7385 27.7588Z" fill="white"/>
</g>
<line x1="208.5" y1="74.8452" x2="208.5" y2="66.8452" stroke="#C4C4C4"/>
<line x1="208" y1="74.3452" x2="316" y2="74.3452" stroke="#C4C4C4"/>
<line x1="315.5" y1="74.8452" x2="315.5" y2="66.8452" stroke="#C4C4C4"/>
<path d="M255.83 88.5327V89.8452H249.159V88.7173L252.399 85.1831C252.754 84.7821 253.035 84.4357 253.24 84.144C253.445 83.8524 253.588 83.5903 253.67 83.3579C253.757 83.1209 253.8 82.8908 253.8 82.6675C253.8 82.353 253.741 82.0773 253.622 81.8403C253.508 81.5988 253.34 81.4097 253.117 81.2729C252.893 81.1317 252.622 81.061 252.303 81.061C251.934 81.061 251.624 81.1408 251.373 81.3003C251.123 81.4598 250.934 81.6808 250.806 81.9634C250.678 82.2414 250.615 82.5604 250.615 82.9204H248.967C248.967 82.3416 249.099 81.813 249.364 81.3345C249.628 80.8514 250.011 80.4686 250.512 80.186C251.013 79.8989 251.617 79.7554 252.324 79.7554C252.989 79.7554 253.554 79.867 254.019 80.0903C254.484 80.3136 254.837 80.6304 255.078 81.0405C255.325 81.4507 255.448 81.936 255.448 82.4966C255.448 82.8065 255.397 83.1141 255.297 83.4194C255.197 83.7248 255.053 84.0301 254.867 84.3354C254.684 84.6362 254.468 84.9393 254.217 85.2446C253.966 85.5454 253.691 85.8507 253.39 86.1606L251.237 88.5327H255.83ZM260.093 88.6694C260.362 88.6694 260.603 88.617 260.817 88.5122C261.036 88.4028 261.212 88.2524 261.344 88.061C261.48 87.8696 261.556 87.6486 261.569 87.3979H263.121C263.112 87.8765 262.971 88.3117 262.697 88.7036C262.424 89.0955 262.062 89.4077 261.61 89.6401C261.159 89.868 260.66 89.9819 260.113 89.9819C259.548 89.9819 259.056 89.8862 258.637 89.6948C258.217 89.4989 257.869 89.23 257.591 88.8882C257.313 88.5464 257.103 88.1522 256.962 87.7056C256.825 87.259 256.757 86.7804 256.757 86.27V86.0308C256.757 85.5203 256.825 85.0418 256.962 84.5952C257.103 84.144 257.313 83.7476 257.591 83.4058C257.869 83.064 258.217 82.7974 258.637 82.606C259.056 82.41 259.546 82.312 260.106 82.312C260.699 82.312 261.218 82.4305 261.665 82.6675C262.112 82.8999 262.463 83.2257 262.718 83.645C262.978 84.0597 263.112 84.5428 263.121 85.0942H261.569C261.556 84.8208 261.487 84.5747 261.364 84.356C261.246 84.1326 261.077 83.9549 260.858 83.8228C260.644 83.6906 260.387 83.6245 260.086 83.6245C259.753 83.6245 259.478 83.6929 259.259 83.8296C259.04 83.9618 258.869 84.144 258.746 84.3765C258.623 84.6043 258.534 84.8618 258.479 85.1489C258.429 85.4315 258.404 85.7254 258.404 86.0308V86.27C258.404 86.5754 258.429 86.8716 258.479 87.1587C258.53 87.4458 258.616 87.7033 258.739 87.9312C258.867 88.1545 259.04 88.3345 259.259 88.4712C259.478 88.6034 259.756 88.6694 260.093 88.6694ZM265.893 83.9526V89.8452H264.246V82.4487H265.798L265.893 83.9526ZM265.627 85.8735L265.066 85.8667C265.066 85.3563 265.13 84.8846 265.257 84.4517C265.385 84.0187 265.572 83.6427 265.818 83.3237C266.064 83.0002 266.369 82.7518 266.734 82.5786C267.103 82.4009 267.529 82.312 268.012 82.312C268.35 82.312 268.657 82.3621 268.935 82.4624C269.218 82.5581 269.462 82.7108 269.667 82.9204C269.876 83.13 270.036 83.3989 270.145 83.7271C270.259 84.0552 270.316 84.4517 270.316 84.9165V89.8452H268.669V85.0601C268.669 84.7 268.614 84.4175 268.505 84.2124C268.4 84.0073 268.247 83.8615 268.047 83.7749C267.851 83.6838 267.616 83.6382 267.342 83.6382C267.033 83.6382 266.768 83.6974 266.549 83.8159C266.335 83.9344 266.16 84.0962 266.023 84.3013C265.886 84.5063 265.786 84.7433 265.722 85.0122C265.659 85.2811 265.627 85.5682 265.627 85.8735ZM270.214 85.436L269.441 85.6069C269.441 85.1603 269.503 84.7388 269.626 84.3423C269.753 83.9412 269.938 83.5903 270.179 83.2896C270.425 82.9842 270.728 82.745 271.089 82.5718C271.449 82.3986 271.861 82.312 272.326 82.312C272.704 82.312 273.041 82.3644 273.338 82.4692C273.638 82.5695 273.894 82.729 274.103 82.9478C274.313 83.1665 274.472 83.4513 274.582 83.8022C274.691 84.1486 274.746 84.5679 274.746 85.0601V89.8452H273.091V85.0532C273.091 84.6795 273.037 84.3901 272.927 84.1851C272.823 83.98 272.672 83.8387 272.476 83.7612C272.28 83.6792 272.046 83.6382 271.772 83.6382C271.517 83.6382 271.291 83.686 271.095 83.7817C270.904 83.8729 270.742 84.0028 270.61 84.1714C270.478 84.3354 270.378 84.5246 270.309 84.7388C270.245 84.953 270.214 85.1854 270.214 85.436Z" fill="#171717"/>
<g clip-path="url(#clip1_737_2623)">
<path d="M316 19.0203H208V58.8298H316V19.0203Z" fill="#D60C18"/>
<path d="M234.095 25.1154C234.667 26.6392 232.381 27.2106 231.429 27.782C231.048 27.9725 230.667 28.163 230.286 28.3535C229.905 28.3535 229.714 28.5439 229.524 28.5439C229.333 28.7344 228.952 28.7344 228.762 28.7344C228.191 28.9249 227.619 28.9249 227.048 29.1154C225.905 29.4963 224.762 29.8773 223.619 30.0677C223.048 30.2582 222.286 30.4487 221.714 30.6392C220.952 30.8296 220.381 30.6392 219.81 30.2582C219.048 30.0677 219.048 29.4963 218.857 28.9249C218.667 28.7344 218.667 28.3535 219.048 28.163H219.429C219.619 28.163 219.81 28.163 219.81 28.163C220.191 28.163 220.381 27.9725 220.762 27.9725C221.143 27.9725 221.333 27.9725 221.714 27.782C222.095 27.782 222.286 27.782 222.667 27.5916C223.048 27.4011 223.238 27.2106 223.619 27.0201C224.191 26.8296 224.762 26.6392 225.524 26.4487C225.714 26.4487 226.095 26.4487 226.286 26.2582C226.476 26.2582 226.476 26.2582 226.667 26.2582C226.857 26.2582 226.857 26.0677 227.048 26.0677C227.238 25.8773 227.619 25.8773 227.81 25.6868C228.571 25.1154 229.524 24.9249 230.095 24.163C230.476 23.782 231.048 23.782 231.619 23.5916C232.191 23.5916 232.762 23.5916 233.143 23.782C233.524 24.3535 234.095 24.5439 234.095 25.1154Z" fill="white"/>
<path d="M253.333 33.6869C253.333 33.4964 253.524 33.1155 253.524 32.925C253.524 32.5441 253.333 32.3536 253.333 32.1631C253.333 31.9726 253.524 31.5917 253.143 31.5917C252.571 31.2107 252 31.7821 251.428 31.9726C251.047 32.1631 250.667 32.5441 250.286 32.925C250.095 33.1155 249.714 33.306 249.333 33.4964C249.143 33.6869 248.762 33.8774 248.571 34.0679C248 34.4488 247.238 34.8298 246.667 35.2107C246.095 35.5917 244.952 35.4012 244.381 35.4012C243.428 35.2107 242.476 34.6393 241.524 34.2583C241.143 34.0679 240.762 33.8774 240.381 33.6869C240 33.4964 239.619 32.925 239.238 32.544C238.857 32.3536 238.476 31.9726 238.667 31.5917C239.047 31.2107 239.428 31.2107 240 31.0202C241.524 30.6393 243.428 31.0202 244.952 30.4488C245.905 30.2583 246.857 30.0679 247.619 29.6869C247.809 29.6869 248 29.4964 248.381 29.4964C248.571 29.4964 248.762 29.306 249.143 29.1155C249.714 28.544 250.286 28.7345 250.857 28.544C251.619 28.3536 252.381 28.1631 253.143 27.7821C253.524 27.5917 254.095 27.4012 254.476 27.4012C254.857 27.4012 255.238 27.4012 255.619 27.2107C256.19 26.6393 257.143 27.0202 257.905 26.6393C258.667 26.2583 259.428 26.0679 260.19 25.8774C260.571 25.8774 260.952 25.6869 261.333 25.8774C261.905 25.8774 262.667 26.0679 263.428 26.2583C264 26.4488 264.571 26.4488 265.143 26.8298C265.333 27.0202 265.714 27.2107 265.714 27.5917C265.714 27.9726 265.714 28.3536 265.524 28.544C265.333 28.3536 265.143 28.544 265.143 28.7345C264.952 29.306 264.381 29.306 263.809 29.4964C263.238 29.6869 262.667 29.6869 262.095 29.4964C261.714 29.4964 261.524 29.306 261.333 29.1155C260.381 28.544 259.238 28.7345 258.286 28.925C258.095 28.925 258.095 28.925 257.905 29.1155C257.714 29.1155 257.714 29.1155 257.524 29.306C257.333 29.306 257.333 29.4964 257.143 29.4964C256.762 29.6869 256.571 29.8774 256.571 30.2583C256.571 30.8298 256.571 31.4012 256.762 31.7821C257.143 32.7345 256.571 33.6869 256.952 34.6393C257.143 35.9726 257.524 37.6869 257.524 39.2107C257.524 41.306 257.714 43.7821 258.095 45.6869C258.095 46.0679 258.286 46.6393 258.476 47.0202C258.476 47.2107 258.476 47.5917 258.667 47.7822C258.857 48.3536 258.857 48.7345 258.857 49.4964C258.857 50.2583 258.667 50.8298 258.667 51.5917C258.476 52.3536 258.286 53.1155 257.524 53.4964C256.762 54.2583 255.428 54.2583 254.476 53.8774C254.095 53.6869 253.524 53.1155 253.333 52.7345C253.143 52.5441 253.143 52.1631 253.143 51.9726C252.952 51.4012 252.762 50.6393 252.952 50.0679C253.333 44.7345 253.905 39.5917 253.524 34.2583" fill="white"/>
<path d="M227.238 31.4012C227.619 31.9726 228 32.544 228.191 33.1154C228.381 33.3059 228.762 33.3059 228.953 33.3059C229.143 33.1154 229.524 33.1154 229.715 32.925C229.905 32.7345 230.095 32.544 230.286 32.3535C230.667 31.9726 231.238 31.5916 231.81 31.4012C232.191 31.2107 232.572 31.2107 232.953 31.2107C233.524 31.4012 234.286 31.4012 234.667 31.9726C234.857 32.3535 234.857 32.925 234.667 33.3059C234.095 34.4488 232.762 34.8297 231.81 35.5916C231.048 35.9726 230.095 36.3535 229.715 37.1154C229.715 38.4488 230.857 39.5916 231.619 40.3535C232.953 41.6869 234.095 43.7821 235.81 44.544C236.381 44.7345 236.762 45.3059 237.143 45.6869C237.334 45.8773 237.715 46.0678 237.905 46.2583C238.286 46.4488 238.476 46.4488 238.857 46.6392C239.048 46.8297 239.429 46.8297 239.81 47.2107C239.81 47.4012 240 47.4012 240.191 47.4012C240.381 47.5916 240.572 47.7821 240.953 47.7821C241.143 47.7821 241.334 47.7821 241.334 47.7821C241.524 47.7821 241.715 47.9726 241.715 48.1631C242.286 48.544 243.048 48.925 243.81 49.3059C244 49.4964 244.381 49.4964 244.762 49.4964C244.953 49.6869 245.143 49.8773 245.524 50.0678C245.905 50.2583 246.476 50.6392 246.667 51.0202C246.857 51.4011 246.667 51.7821 246.476 51.9726C246.095 52.3535 245.715 52.3535 245.143 52.544C244.762 52.544 244.191 52.7345 243.81 52.925C243.619 52.925 243.238 52.925 243.048 52.925C242.476 52.925 242.095 52.925 241.524 53.1154C240.572 53.3059 239.429 53.3059 238.476 53.3059C237.905 53.3059 237.143 53.3059 236.762 53.1154C236 52.7345 235.429 52.1631 234.857 51.5916C234.095 51.0202 233.524 50.0678 232.762 49.1154C232.191 48.1631 231.429 47.2107 230.857 46.4488C230.286 45.6869 229.905 44.925 229.143 44.3535C228.953 44.1631 228.762 43.7821 228.572 43.5916C228.381 43.4012 228.191 43.2107 228 43.0202C227.429 42.2583 227.048 41.8773 226.476 41.8773C226.286 42.2583 226.095 42.6392 226.095 43.0202C226.095 43.2107 226.095 43.5916 226.095 43.7821C226.095 43.9726 225.905 44.1631 225.905 44.3535C225.905 44.925 225.905 45.3059 225.524 45.8773C225.334 46.0678 225.143 46.2583 225.143 46.6392C225.143 47.0202 224.953 47.2107 224.762 47.5916C224.762 47.7821 224.572 47.9726 224.572 47.9726C224.381 48.1631 224.381 48.544 224.191 48.925C224 49.3059 223.81 49.4964 223.619 49.8773C223.238 50.2583 222.857 50.8297 222.286 51.4012C222.095 51.7821 221.715 51.9726 221.334 52.1631C221.143 52.3535 220.953 52.544 220.572 52.7345C220.381 52.925 220 52.925 219.619 53.1154C219.048 53.3059 218.476 53.6869 217.715 53.6869C217.334 53.6869 216.953 53.6869 216.572 53.3059C216.381 53.3059 216.191 53.3059 216 53.1154C215.81 53.1154 215.619 52.925 215.429 52.7345C215.238 52.544 215.048 52.3535 214.857 52.1631C214.857 51.9726 214.667 51.9726 214.667 51.7821C214.667 51.5916 214.667 51.4012 214.476 51.2107C214.286 50.8297 214.286 50.6392 214.286 50.4488C214.286 50.2583 214.095 50.0678 214.095 49.8773C214.095 49.6869 214.286 49.3059 214.476 49.1154C214.667 48.925 214.857 48.7345 215.048 48.544C215.429 48.3535 215.81 48.544 216.191 48.544C216.381 48.544 216.572 48.7345 216.762 48.7345C216.953 48.925 217.143 49.1154 217.524 48.925C217.715 48.7345 217.905 48.544 218.095 48.3535C218.286 48.1631 218.286 47.9726 218.476 47.7821C218.667 47.5916 218.857 47.4012 219.048 47.2107C219.429 46.8297 219.619 46.4488 219.81 45.8773C220.572 44.925 220.762 43.7821 220.381 42.4488C219.429 42.4488 218.667 42.8297 217.715 42.4488C217.143 42.0678 216.191 41.6869 216 41.1154C215.619 41.1154 215.238 40.544 215.238 39.9726C215.429 39.2107 216.572 39.4012 216.953 39.4012C217.524 39.2107 218.095 39.2107 218.667 38.8297C219.048 38.6392 219.238 38.6392 219.619 38.4488C220 38.2583 220.191 38.0678 220.381 37.8773C220.572 37.6869 220.953 37.4964 221.334 37.3059C221.715 37.1154 222.095 37.1154 222.286 36.925C222.476 36.7345 222.857 36.544 223.048 36.3535C223.429 36.1631 223.81 35.5916 223.81 34.8297C223.81 34.6393 223.619 34.4488 223.619 34.0678C223.619 33.8773 223.619 33.4964 223.81 33.3059C223.81 33.1154 224 32.925 224 32.544C224 32.1631 224 31.9726 224.191 31.5916C224.381 31.4012 224.572 31.0202 224.953 31.0202C225.143 30.8297 225.524 31.0202 225.715 31.0202C225.905 31.0202 226.286 30.8297 226.476 31.0202C226.667 31.0202 226.667 31.2107 226.857 31.2107C226.857 31.4012 227.048 31.4012 227.238 31.4012Z" fill="white"/>
<path d="M290.286 51.2109V51.9728H285.143V53.1157H283.81V44.9252C283.619 45.3062 283.429 45.6871 283.048 45.8776L282.667 45.4966C282.857 45.1157 283.048 44.7347 283.238 44.3538L282.286 45.1157C282.095 44.5443 281.714 44.1633 281.524 43.5919C281.333 44.1633 280.952 44.7347 280.571 45.3062H280.762V46.83H283.429V47.5919H280.762V48.1633C281.714 48.7347 282.667 49.3062 283.238 49.8776L282.286 50.83C281.905 50.2585 281.143 49.4966 280.762 48.9252V53.3062H279.429V49.3062C278.857 50.2585 277.714 51.4014 276.572 52.3538L276.191 51.9728C277.333 50.83 278.286 49.4966 279.048 47.7824H276.572V47.0204H279.429V45.4966H279.81C280.381 44.3538 280.762 43.0204 280.952 41.4966L282.286 41.8776C282.286 42.2585 282.095 42.83 281.905 43.2109C282.476 43.5919 282.857 43.9728 283.238 44.3538C283.81 42.83 284 41.1157 284.191 38.83L285.524 39.0204C285.524 39.9728 285.333 41.1157 284.952 42.0681H289.905V42.83H287.81V44.9252H289.524V45.6871H287.81V48.1633H289.524V48.9252H287.81V51.5919H290.286V51.2109ZM276.762 46.0681L276.381 45.6871C277.143 44.5443 277.714 42.83 277.905 41.3062L279.238 41.6871C279.238 42.0681 279.048 42.449 278.857 43.0204C279.429 43.4014 280 43.7824 280.381 44.3538L279.429 45.1157C279.238 44.5443 278.857 44.1633 278.476 43.5919C277.905 44.3538 277.333 45.3062 276.762 46.0681ZM283.238 41.1157H276.572V40.3538H280C279.429 39.7824 278.857 39.2109 278.286 38.83L278.476 38.2585C279.429 38.449 280.381 39.0204 281.143 39.4014L280.571 40.3538H283.429L283.238 41.1157ZM286.476 42.6395H284.952V44.7347H286.476V42.6395ZM286.476 45.3062H284.952V47.7824H286.476V45.3062ZM286.476 48.5443H284.952V51.2109H286.476V48.5443ZM286.857 41.6871C286.667 41.1157 286.286 39.7824 286.095 38.83L286.667 38.6395C287.238 39.4014 288 40.5443 288.191 41.3062L286.857 41.6871Z" fill="white"/>
<path d="M298.857 41.8775H293.714V41.1156H296C295.428 40.1633 294.857 39.2109 294.476 38.8299L294.857 38.449C295.619 39.0204 296.571 39.7823 297.333 40.5442L296.571 41.1156H298.857V41.8775ZM294.095 44.1633V43.5918H298.476V44.1633H294.095ZM298.476 46.2585H294.095V45.6871H298.476V46.2585ZM300 47.5918L300.571 47.7823C300.571 49.4966 300.19 50.8299 299.428 51.7823L298.476 51.0204V52.9252H297.333V51.9728H295.619V53.1156H294.476V47.7823H298.666V50.8299C299.047 50.068 299.809 49.1156 300 47.5918ZM297.143 48.3537H295.428V51.2109H297.143V48.3537ZM302.286 41.8775H299.047V41.1156H302.286V38.449H303.619V41.1156H307.047V41.8775H303.809V44.5442H306.857V45.3061H299.428V44.5442H302.286V41.8775ZM305.143 49.1156C305.905 51.5918 305.905 52.7347 303.619 52.7347C301.333 52.7347 300.952 52.5442 300.952 50.8299V46.8299H302.286V50.6395C302.286 51.2109 302.476 51.4014 303.428 51.4014C304.571 51.4014 304.571 51.2109 304.571 49.1156H305.143ZM302.095 45.3061C302.857 45.6871 304.19 46.449 304.952 47.0204L304 47.9728C303.428 47.2109 302.476 46.2585 301.905 45.6871L302.095 45.3061ZM307.619 50.449L306.476 51.0204C306.095 49.6871 305.714 48.7347 305.143 47.5918L305.524 47.2109C306.286 48.1633 307.047 49.3061 307.619 50.449Z" fill="white"/>
<path d="M268.571 38.2583C268.381 37.8774 268 37.6869 267.81 37.6869C267.81 37.6869 267.81 37.6869 267.619 37.6869C267.429 37.4964 267.238 37.4964 267.048 37.3059C266.667 37.3059 266.476 37.3059 266.095 37.1155C265.714 37.1155 265.333 36.925 264.762 36.925C264.191 36.925 263.619 36.7345 263.238 36.925C263.048 36.925 262.667 37.1155 262.476 37.3059C262.286 37.4964 262.286 37.6869 262.286 37.8774C262.286 38.0678 262.286 38.2583 262.286 38.4488C262.286 39.2107 262.476 39.7821 262.857 40.3536C263.048 40.7345 263.238 40.925 263.429 41.3059C263.619 41.4964 263.81 41.8774 264.191 42.0678C264.381 42.2583 264.571 42.4488 264.762 42.6393C264.952 42.8297 264.952 42.8298 265.143 43.0202C265.524 43.2107 265.905 43.2107 266.286 43.2107C266.857 43.2107 267.429 43.2107 267.81 43.2107C268.191 43.2107 268.191 42.8297 268.571 42.6393C268.952 42.4488 268.952 42.4488 269.143 42.0678C270.286 40.7345 269.524 39.4012 268.571 38.2583Z" fill="white"/>
</g>
<defs>
<clipPath id="clip0_737_2623">
<rect width="160" height="58.8452" fill="white"/>
</clipPath>
<clipPath id="clip1_737_2623">
<rect width="108" height="39.7205" fill="white" transform="translate(208 19.1248)"/>
</clipPath>
</defs>
</svg>
