<svg width="160" height="125" viewBox="0 0 160 125" fill="none" xmlns="http://www.w3.org/2000/svg">
<rect width="160" height="58.8452" transform="translate(0 32.8364)" fill="#D60C18"/>
<g clip-path="url(#clip0_737_2803)">
<rect width="160" height="58.8452" transform="translate(0 32.8364)" fill="#D60C18"/>
<path d="M0.3 91.3816V33.1364H159.7V91.3816H0.3Z" fill="#D60C18" stroke="#171717" stroke-width="0.6"/>
<path d="M17.4939 49.3059L17.4938 49.3061C18.301 49.8202 19.2773 49.9979 20.2139 49.8015C21.1746 49.5679 22.1313 49.3022 23.0863 49.03L17.4939 49.3059ZM17.4939 49.3059L17.484 49.3001M17.4939 49.3059L17.484 49.3001M17.484 49.3001C17.1402 49.0992 16.9563 48.8409 16.8097 48.5248C16.7385 48.3714 16.6781 48.209 16.6109 48.0282C16.6064 48.0162 16.602 48.0042 16.5975 47.9921C16.5262 47.8006 16.4475 47.5921 16.346 47.3805L16.3421 47.3724L16.3377 47.3645C16.2687 47.2405 16.2443 47.0967 16.2686 46.9569C16.2895 46.8366 16.3453 46.7257 16.4285 46.6375C16.5851 46.5945 16.748 46.5784 16.9103 46.5898L16.9427 46.5921L16.9748 46.5874L17.6328 46.4911L17.6329 46.4912L17.6391 46.4901L18.9413 46.2713C19.3738 46.2081 19.7553 46.1612 20.2253 46.1299C20.3323 46.1227 20.4369 46.1235 20.5487 46.1251C20.5575 46.1252 20.5664 46.1253 20.5753 46.1254C20.6765 46.1269 20.7867 46.1286 20.896 46.1227C21.1436 46.1095 21.4076 46.0576 21.6778 45.8764L21.6778 45.8764L21.6839 45.8721C22.106 45.5734 22.5513 45.3091 23.0156 45.0817C23.9504 44.6842 24.9348 44.4153 25.9419 44.2823L25.9419 44.2825L25.9527 44.2807C26.2885 44.2239 26.6357 44.177 26.9934 44.1296C27.194 44.1278 27.3944 44.1125 27.593 44.0839L27.6141 44.0809L27.6346 44.0749C27.7928 44.0286 27.8987 43.9592 27.988 43.8837C28.0178 43.8585 28.0484 43.8302 28.0741 43.8065C28.0816 43.7996 28.0886 43.7931 28.0951 43.7871C28.1269 43.7581 28.1573 43.7313 28.1926 43.7043L28.1931 43.7039C28.3306 43.5983 28.499 43.5395 28.7245 43.4655C28.7315 43.4632 28.7385 43.4609 28.7456 43.4586C28.9513 43.3912 29.2087 43.3069 29.432 43.1385L29.4321 43.1386L29.4389 43.1332C29.8392 42.8129 30.2898 42.5753 30.7659 42.3241C30.8772 42.2654 30.99 42.206 31.1038 42.1445C31.6794 41.8339 32.2703 41.4777 32.7248 40.9229C33.2833 40.5054 33.9602 40.2757 34.6581 40.2674L34.68 40.2671L34.7017 40.2637C35.4387 40.1463 36.1938 40.2414 36.8785 40.5377C36.9402 40.5701 37.0014 40.6018 37.0619 40.6332C37.3558 40.7857 37.6341 40.93 37.8796 41.1087C38.1708 41.3206 38.3873 41.5619 38.4946 41.8817L38.4953 41.8839C38.6834 42.4302 38.6293 42.8578 38.4434 43.2121C38.251 43.5788 37.9013 43.8971 37.4471 44.1795C36.9948 44.4607 36.4625 44.6921 35.9335 44.8961C35.7059 44.9839 35.4698 45.0698 35.2429 45.1524C34.9635 45.254 34.6979 45.3506 34.479 45.4396C33.9038 45.6654 33.3654 45.8968 32.8271 46.1496C32.6441 46.2252 32.4673 46.3227 32.3053 46.4121C32.2962 46.4171 32.2872 46.4221 32.2782 46.4271C32.1033 46.5235 31.9419 46.611 31.7749 46.6775C31.4238 46.7955 31.0634 46.8837 30.6975 46.9411L30.6884 46.9425L30.6795 46.9445C29.823 47.133 28.9731 47.3482 28.1308 47.5735L28.1304 47.5736M17.484 49.3001L28.1304 47.5736M28.1304 47.5736C27.0548 47.863 25.9836 48.1794 24.9169 48.4946M28.1304 47.5736L24.9169 48.4946M24.9169 48.4946C24.3054 48.6752 23.6953 48.8555 23.0868 49.0299L24.9169 48.4946Z" fill="white" stroke="#171717" stroke-width="0.6"/>
<path d="M82.67 48.1243L82.6701 48.1244C83.4728 47.9114 84.0196 47.7574 84.3669 47.1255C84.4094 47.0476 84.4513 46.9726 84.4924 46.8991C84.5821 46.7389 84.6676 46.586 84.7457 46.4263L84.7494 46.4188L84.7534 46.4115C84.9788 46.009 85.0919 45.5538 85.0815 45.0934C84.9046 44.7541 84.6361 44.4708 84.306 44.2761C83.5771 43.9193 82.7952 43.6829 81.9907 43.5762L81.9789 43.5746L81.9673 43.5721C81.7917 43.5345 81.6156 43.496 81.4392 43.4575C80.6291 43.2806 79.8139 43.1026 79.019 42.9988C78.4754 42.9354 77.9247 42.9779 77.3972 43.1239L77.3945 43.1246L77.3945 43.1246C76.2917 43.4188 75.2161 43.8067 74.1794 44.2841L74.1754 44.286L74.1753 44.286C73.591 44.5446 72.9524 44.6178 72.3689 44.6848C72.2977 44.693 72.2272 44.7011 72.1578 44.7094C71.4988 44.7883 70.9145 44.888 70.4146 45.2149L70.3971 45.2264L70.3781 45.2353C69.8643 45.4771 69.3115 45.6253 68.7457 45.673C68.3203 45.7733 67.922 45.9162 67.5052 46.0658C67.2905 46.1429 67.0708 46.2218 66.8399 46.2975L66.838 46.2981C65.7187 46.6569 64.5958 47.0062 63.4554 47.3182L63.4548 47.3183C63.0796 47.4202 62.6953 47.4362 62.3499 47.4506C62.2866 47.4532 62.2247 47.4558 62.1643 47.4588C61.7688 47.4788 61.4164 47.5174 61.0793 47.6734C60.7617 47.9022 60.4263 48.1054 60.0765 48.2812L60.0584 48.2903L60.0392 48.2969C59.8685 48.3555 59.6948 48.4249 59.515 48.4973L59.4833 48.5101C59.3158 48.5777 59.1424 48.6475 58.972 48.7079L58.971 48.7082C57.9988 49.0485 56.9618 49.3112 55.9564 49.5659C55.6223 49.6505 55.2918 49.7343 54.9682 49.8197C53.7631 50.2324 52.4966 50.3469 51.2548 50.4164C51.0258 50.4292 50.7979 50.4405 50.5713 50.4517C49.5569 50.502 48.5682 50.5511 47.6114 50.7296C47.5063 50.7562 47.4048 50.7803 47.3061 50.8037C47.0611 50.8618 46.8332 50.9158 46.609 50.9944C46.3313 51.0918 46.0883 51.2187 45.8844 51.4147C45.8476 51.6828 45.924 51.8551 46.0506 52.0047C46.1789 52.1562 46.3492 52.2769 46.5578 52.4248C46.6171 52.4668 46.6794 52.511 46.7448 52.5587C47.012 52.7537 47.2602 53.0294 47.4904 53.2849C47.5176 53.3152 47.5446 53.3451 47.5713 53.3746C47.8339 53.6646 48.0841 53.9263 48.3635 54.105C48.9251 54.415 49.513 54.6749 50.1203 54.8815L50.1284 54.8842L50.1362 54.8874C50.5372 55.0496 50.9457 55.2326 51.3474 55.4127C51.6417 55.5445 51.9323 55.6747 52.2137 55.794C52.8985 56.0842 53.5826 56.3345 54.307 56.4758C54.7099 56.5538 55.3236 56.6405 55.9235 56.6469C56.5418 56.6535 57.0731 56.573 57.3681 56.3763L57.5345 56.6259M82.67 48.1243L60.1047 54.7379C59.6924 55.0451 59.2434 55.2999 58.775 55.5572C58.7218 55.5864 58.6684 55.6156 58.6147 55.645C58.2005 55.8716 57.7729 56.1056 57.3678 56.3765L57.5345 56.6259M82.67 48.1243L82.6649 48.1258M82.67 48.1243L82.6649 48.1258M57.5345 56.6259C56.7802 57.1288 55.0791 56.9308 54.2499 56.7704L60.2842 54.9783C59.8043 55.3359 59.2813 55.6221 58.7586 55.9082C58.3431 56.1356 57.9278 56.3629 57.5345 56.6259ZM82.6649 48.1258C81.9228 48.337 81.14 48.3614 80.3863 48.197C79.9908 48.0992 79.6204 47.9194 79.2988 47.6693L79.2879 47.6608L79.2763 47.6534C77.7788 46.6957 75.9769 46.9784 74.4769 47.3641C74.2677 47.4178 74.0618 47.4771 73.8548 47.5474C73.6091 47.6036 73.3755 47.7039 73.1656 47.8436L73.1548 47.8508L73.1446 47.8589C72.9914 47.9812 72.8275 48.0894 72.6548 48.1822L72.6401 48.19C72.4025 48.3163 72.1343 48.4589 71.9315 48.6601C71.707 48.8828 71.566 49.1713 71.566 49.5645L71.566 49.5667C71.5672 49.7326 71.5612 49.9058 71.5548 50.0897L71.5538 50.1175C71.5471 50.3093 71.5405 50.5116 71.5433 50.7141C71.5488 51.1172 71.5915 51.5469 71.7612 51.945L71.761 51.9451L71.7664 51.9565C72.0586 52.5692 72.0183 53.1858 71.9608 53.8893C71.9595 53.9057 71.9581 53.9222 71.9568 53.9387C71.9026 54.5985 71.8418 55.3393 72.1638 56.0844C72.222 56.4689 72.2909 56.8839 72.3631 57.3188C72.6435 59.0073 72.9736 60.9948 72.9196 62.6558L72.9194 62.6558L72.9194 62.6654C72.9182 65.89 73.1625 69.1099 73.6504 72.2974L73.6504 72.2974L73.6512 72.3021C73.7292 72.7626 73.8551 73.2293 73.9759 73.6773C74.0324 73.8866 74.0878 74.0919 74.1367 74.2905C74.1813 74.4818 74.2103 74.6775 74.2413 74.8876L74.2421 74.8933C74.2723 75.0982 74.3046 75.3172 74.3556 75.5354L74.3581 75.546L74.3614 75.5565C74.5988 76.3168 74.7204 77.1086 74.7222 77.9051C74.6736 78.9418 74.5694 79.9751 74.4101 81.0006L74.4096 81.0046C74.2467 82.1551 73.9143 83.085 72.9207 83.5515L72.8659 83.5773L72.8253 83.6223C72.3371 84.1643 71.6493 84.3977 70.8866 84.4328C70.13 84.4677 69.3266 84.305 68.6438 84.0804C68.0068 83.7526 67.478 83.2477 67.1212 82.6264C67.0031 82.301 66.9291 81.9612 66.901 81.6161L66.8992 81.5938L66.8941 81.5719C66.8485 81.3776 66.796 81.1843 66.7453 80.9981C66.732 80.9489 66.7187 80.9003 66.7058 80.8522C66.643 80.6186 66.5859 80.3948 66.5454 80.173C66.465 79.7323 66.4533 79.313 66.5932 78.8817L66.6037 78.8491L66.6067 78.815C66.6277 78.5725 66.6487 78.3303 66.6697 78.0885C67.3424 70.3388 67.9813 62.9784 67.5814 55.2433V54.6312C67.7001 54.2232 67.7666 53.8018 67.7792 53.3769L67.7793 53.3769V53.368C67.7793 53.0998 67.6978 52.842 67.6305 52.6381C67.6252 52.6221 67.62 52.6065 67.615 52.5912C67.5487 52.391 67.5025 52.2514 67.4953 52.1305C67.4915 52.067 67.4967 51.999 67.5051 51.912C67.5058 51.9048 67.5065 51.8974 67.5073 51.8898C67.5147 51.8143 67.5242 51.718 67.521 51.6251C67.5174 51.5181 67.4969 51.3901 67.4232 51.2669C67.3524 51.1485 67.2475 51.0594 67.1171 50.9948C66.5817 50.6294 66.0592 50.7642 65.6321 50.9532C65.5049 51.0095 65.3653 51.0806 65.2351 51.147C65.1587 51.1859 65.0855 51.2233 65.02 51.2549C64.8246 51.3493 64.6517 51.4184 64.4875 51.4459L64.4286 51.4558L64.3781 51.4874C63.7216 51.8978 63.1154 52.3836 62.5718 52.9348C62.1539 53.2268 61.7206 53.4962 61.2738 53.7417L61.2606 53.749M82.6649 48.1258L61.2606 53.749M61.2606 53.749L61.2482 53.7575M61.2606 53.749L61.2482 53.7575M61.2482 53.7575C61.0214 53.9136 60.8232 54.0967 60.642 54.2666M61.2482 53.7575L60.642 54.2666M60.642 54.2666C60.6296 54.2782 60.6172 54.2898 60.6049 54.3014M60.642 54.2666L60.6049 54.3014M60.6049 54.3014C60.4336 54.4622 60.2767 54.6094 60.1049 54.7377L60.6049 54.3014Z" fill="white" stroke="#171717" stroke-width="0.6"/>
<path d="M27.2399 50.7468C27.0555 50.6936 26.8381 50.7483 26.6209 50.8029C26.4666 50.8417 26.3123 50.8805 26.17 50.8805L27.2399 50.7468ZM27.2399 50.7468C27.3284 50.772 27.4049 50.8235 27.4835 50.8765C27.5714 50.9357 27.662 50.9967 27.7749 51.0249C28.0011 51.0392 28.2217 51.1012 28.4222 51.2068L27.2399 50.7468ZM55.4622 78.6919L55.4748 78.7031L55.4886 78.7129C55.6144 78.8021 55.7497 78.8895 55.8809 78.9742C55.9101 78.993 55.9391 79.0117 55.9677 79.0303C56.1284 79.1345 56.2824 79.2371 56.4246 79.3473C56.7049 79.5644 56.9162 79.7937 57.0216 80.0779C57.0701 80.2941 57.0691 80.5185 57.0187 80.7344C56.9671 80.9556 56.8649 81.1619 56.7201 81.337L56.719 81.3384C56.5542 81.5403 56.3118 81.6789 56.0136 81.7795C55.7141 81.8806 55.3854 81.9348 55.0638 81.9862C54.7519 82.036 54.4371 82.1285 54.1434 82.2149C54.1156 82.2231 54.088 82.2312 54.0606 82.2392C53.7345 82.3347 53.4333 82.418 53.1423 82.4496L53.1422 82.4493L53.1299 82.4512C52.7936 82.5019 52.4535 82.5223 52.1136 82.5122L52.0986 82.5117L52.0836 82.5128C51.3179 82.5667 50.5479 82.6475 49.7889 82.7276L49.7841 82.7282C48.2632 82.9138 46.7328 83.0095 45.2006 83.0149C45.0258 83.0116 44.8444 83.0143 44.6661 83.017C44.6236 83.0177 44.5813 83.0183 44.5392 83.0188C44.3166 83.0217 44.0984 83.0224 43.8849 83.0107C43.4595 82.9872 43.0776 82.9151 42.7556 82.7328C41.7413 82.0625 40.7716 81.3271 39.8527 80.531L39.8455 80.5249L39.838 80.5191C38.7406 79.6832 37.9938 78.6028 37.1545 77.3884C37.0677 77.2629 36.9799 77.1359 36.8907 77.0076C36.4535 76.3791 36.0254 75.7446 35.596 75.1082L35.5016 74.9683C35.0412 74.286 34.5786 73.6021 34.1036 72.9259C33.9735 72.7376 33.8427 72.5421 33.7095 72.3429C33.0807 71.4028 32.3974 70.3813 31.478 69.654C31.3223 69.5254 31.1889 69.3674 31.0361 69.1835L31.0214 69.1658C30.8777 68.9928 30.7151 68.797 30.5177 68.6283C30.2229 68.369 29.9448 68.0913 29.6851 67.7969C29.1756 67.0785 28.4076 66.5851 27.5421 66.4205L27.3464 66.3833L27.2361 66.5492C26.8912 67.0683 26.643 67.6455 26.5035 68.2529L26.5029 68.2558C26.455 68.4743 26.4352 68.7092 26.4198 68.9157C26.4179 68.9414 26.4161 68.9665 26.4143 68.9911C26.4009 69.1743 26.3897 69.3279 26.3669 69.4544C26.3405 69.6007 26.2993 69.7471 26.2532 69.91L26.2514 69.9162C26.2071 70.0726 26.1582 70.245 26.1262 70.4227L26.1231 70.4399L26.122 70.4573C26.0786 71.1544 25.9187 71.8392 25.6488 72.4833C25.437 72.8599 25.2804 73.2649 25.1839 73.686C25.0614 74.1154 24.905 74.5343 24.716 74.9389L24.7157 74.9387L24.711 74.95C24.6718 75.0438 24.619 75.1356 24.5544 75.2458L24.545 75.2619C24.4869 75.3609 24.4193 75.476 24.3639 75.5999C24.2536 75.8163 24.1718 76.0372 24.0968 76.2395L24.0879 76.2635C24.0077 76.48 23.9338 76.6758 23.8349 76.8614L23.8339 76.8634C23.5971 77.316 23.3336 77.7542 23.0445 78.1754L23.0429 78.1779C22.4667 79.0361 21.8139 79.8403 21.0924 80.5805L21.0924 80.5805L21.0898 80.5833C20.6902 81.0038 20.2689 81.4042 19.8306 81.7897L19.823 81.7963L19.816 81.8034C19.5078 82.1134 19.1702 82.3927 18.808 82.6375C18.4127 82.8314 17.9969 82.9804 17.5684 83.0818L17.5571 83.0845L17.546 83.088C17.3018 83.1662 17.0641 83.252 16.8334 83.3356L16.8019 83.347C16.5808 83.4272 16.3664 83.5049 16.1508 83.5754C15.7009 83.7223 15.2597 83.8324 14.7904 83.855C14.2438 83.8715 13.7033 83.7353 13.2297 83.4617L13.1974 83.443L13.1614 83.4328C12.8719 83.3508 12.5783 83.284 12.2818 83.2328C12.014 83.1292 11.7614 82.9895 11.5312 82.8177L11.5313 82.8175L11.5207 82.8102C11.2409 82.6194 10.991 82.3879 10.7794 82.1233C10.6871 82.0047 10.6218 81.8673 10.588 81.7209C10.576 81.6315 10.5704 81.5555 10.5653 81.4811L10.5644 81.4683C10.5595 81.3972 10.5541 81.3178 10.541 81.239C10.5099 81.0513 10.439 80.8827 10.281 80.6739C10.1542 80.5033 10.1288 80.3742 10.1221 80.2236C10.1205 80.1875 10.1205 80.1434 10.1206 80.0932C10.1207 79.9437 10.1208 79.7397 10.0782 79.5315L10.0746 79.5139L10.0689 79.4968C10.0022 79.2966 9.94842 79.0923 9.90777 78.8852C9.97015 78.5845 10.1223 78.3094 10.3448 78.0965L10.3809 78.0619L10.4039 78.0175C10.5583 77.7187 10.8038 77.477 11.1045 77.3273C11.5734 77.2025 12.0652 77.1897 12.5402 77.2903C12.777 77.3423 13.0042 77.4311 13.2135 77.5535C13.2891 77.6007 13.3563 77.6546 13.4345 77.7174L13.4396 77.7215C13.5117 77.7794 13.6021 77.8521 13.7018 77.9071C13.8107 77.9671 13.9417 78.0128 14.0978 78.0088C14.251 78.0048 14.4008 77.9535 14.5511 77.8667L14.568 77.8569L14.5836 77.8449C14.9257 77.5824 15.2359 77.2807 15.5076 76.9458C15.6432 76.8068 15.7373 76.6508 15.812 76.5269L15.8213 76.5115C15.9053 76.3725 15.968 76.2729 16.0525 76.1923L16.0525 76.1923L16.0549 76.19C16.3252 75.9262 16.5773 75.6445 16.8095 75.3466L16.8095 75.3466L16.8119 75.3435C17.2706 74.7389 17.6278 74.0638 17.8695 73.3448C19.1775 71.9217 19.2947 69.9491 18.7991 68.1083L18.7441 67.904L18.5331 67.8873C17.9765 67.8432 17.4023 67.933 16.8632 68.0173C16.7384 68.0368 16.6154 68.056 16.495 68.0732C15.8491 68.1655 15.2438 68.208 14.6508 68.0224C14.4191 67.8567 14.1677 67.7119 13.9215 67.5768C13.8411 67.5327 13.762 67.4899 13.684 67.4478C13.5034 67.3504 13.3288 67.2561 13.1582 67.1551C12.6701 66.8663 12.2973 66.5679 12.1124 66.1541L12.0892 66.1021L12.0484 66.0622C11.4455 65.4718 11.0431 64.7079 10.8968 63.8783C11.0435 63.5675 11.3463 63.4295 11.7979 63.3651C12.023 63.3331 12.2615 63.3229 12.5086 63.3123C12.5252 63.3116 12.5419 63.3109 12.5586 63.3102C12.814 63.2992 13.0857 63.2861 13.3218 63.2376L13.3497 63.2319L13.3759 63.2211C13.6973 63.0885 14.0461 63.0019 14.4239 62.9081C14.466 62.8976 14.5085 62.8871 14.5513 62.8764C14.9681 62.7722 15.4142 62.6534 15.829 62.4475L15.829 62.4475L15.835 62.4444C16.0111 62.352 16.2076 62.2906 16.4384 62.2185C16.4499 62.2149 16.4615 62.2113 16.4732 62.2076C16.7085 62.1341 16.9769 62.048 17.2263 61.9033C17.6673 61.6474 18.0796 61.3815 18.4932 61.1075L18.4932 61.1076L18.4972 61.1048C18.8886 60.8364 19.2996 60.598 19.7268 60.3914C19.9165 60.3076 20.1144 60.249 20.3337 60.1841C20.3656 60.1746 20.398 60.165 20.4309 60.1552C20.6827 60.08 20.9586 59.9923 21.2219 59.847C21.6354 59.6194 22.0251 59.3508 22.3851 59.0455C22.8071 58.7438 23.1463 58.3406 23.3713 57.873C23.5983 57.4014 23.7017 56.8798 23.6717 56.3573L23.6696 56.3212L23.659 56.2866C23.569 55.9926 23.5003 55.6925 23.4536 55.3885C23.4654 55.0577 23.5107 54.7289 23.5888 54.4071L23.5906 54.3999L23.592 54.3926C23.6095 54.3009 23.6289 54.2067 23.6487 54.1108C23.7026 53.8489 23.7592 53.574 23.788 53.3C23.8058 53.1519 23.8092 53.0179 23.8103 52.8994C23.8105 52.8701 23.8106 52.8423 23.8108 52.8158C23.8111 52.7301 23.8114 52.657 23.816 52.5829C23.827 52.4067 23.8611 52.2533 23.9847 52.07L23.985 52.0695C24.235 51.6972 24.5897 51.4075 25.0041 51.2368C25.3741 51.1515 25.7562 51.1317 26.1332 51.1782L26.1515 51.1805H26.17C26.3536 51.1805 26.5528 51.1299 26.7056 51.0911C26.734 51.0839 26.7607 51.0771 26.7855 51.0711C26.9763 51.025 27.0848 51.0143 27.1569 51.035L27.1575 51.0352C27.196 51.0462 27.2341 51.0704 27.33 51.1348L27.3305 51.1351C27.413 51.1906 27.5388 51.2752 27.7021 51.316L27.7287 51.3226L27.756 51.3243C27.9194 51.3346 28.0792 51.3756 28.2271 51.4448C28.7956 52.1831 29.2463 53.0053 29.563 53.8819L29.5853 53.9436L29.6313 53.9904C29.839 54.2014 30.1093 54.3394 30.402 54.3838C30.681 54.4262 30.9659 54.3814 31.2179 54.2559C31.6527 54.1506 32.0679 53.9766 32.4481 53.7406L32.4641 53.7307L32.4787 53.7189C32.664 53.5689 32.831 53.3969 32.9842 53.2357C33.0039 53.2148 33.0235 53.1942 33.0428 53.1739C33.1772 53.032 33.3014 52.9009 33.4321 52.7832L33.4323 52.7834L33.4415 52.7744C34.0839 52.1444 34.8497 51.6542 35.6908 51.3345C36.1696 51.1772 36.6746 51.1161 37.1768 51.1546C37.4084 51.2408 37.6499 51.3034 37.8775 51.3601C37.9068 51.3674 37.9359 51.3746 37.9647 51.3817C38.1786 51.4347 38.3782 51.4842 38.5673 51.547C38.9905 51.6877 39.3008 51.8765 39.477 52.2414L39.4828 52.2534L39.4897 52.2648C39.6356 52.509 39.7198 52.7851 39.7349 53.0691C39.75 53.3524 39.6959 53.6351 39.5774 53.8929C39.216 54.6433 38.5814 55.1617 37.8292 55.6304C37.5485 55.8053 37.2596 55.9686 36.9654 56.1349C36.8637 56.1923 36.7613 56.2502 36.6585 56.309C36.2697 56.5312 35.8788 56.7644 35.5207 57.0296C35.2893 57.1522 35.0399 57.2674 34.7771 57.3889C34.7407 57.4057 34.7041 57.4226 34.6672 57.4397C34.3604 57.5818 34.0396 57.7333 33.7351 57.9075C33.1273 58.2553 32.5492 58.7125 32.2443 59.4231L32.2209 59.4775L32.22 59.5366C32.2026 60.6136 32.6271 61.5696 33.1994 62.3899C33.7688 63.206 34.4985 63.9075 35.1248 64.4805C35.5962 64.9656 36.0603 65.5157 36.536 66.0934C36.6364 66.2153 36.7373 66.3386 36.8389 66.4626C37.2185 66.9258 37.6071 67.4001 38.0082 67.8583C39.0199 69.0141 40.1417 70.1051 41.4937 70.7354C42.2058 71.1717 42.8625 71.6925 43.4497 72.2864L43.4585 72.2953L43.4681 72.3034C43.8161 72.6011 44.1856 72.8727 44.5736 73.116L44.5735 73.1162L44.5838 73.1221C44.7994 73.2457 45.0222 73.334 45.222 73.4133C45.2465 73.423 45.2707 73.4325 45.2944 73.442C45.519 73.5317 45.7174 73.6168 45.9025 73.7417L45.9235 73.7559L45.9466 73.7663C46.3854 73.9652 46.7947 74.2238 47.1626 74.5349C47.2719 74.6591 47.408 74.725 47.509 74.7674C47.5622 74.7897 47.6026 74.8051 47.6366 74.8179C47.6874 74.8372 47.7238 74.851 47.767 74.8745L47.7669 74.8746L47.772 74.8772C47.892 74.9397 47.9926 75.0246 48.1206 75.1325C48.1563 75.1625 48.194 75.1944 48.2349 75.228C48.4068 75.3694 48.6268 75.5335 48.9189 75.5948L48.9461 75.6006L48.9739 75.6012C49.1667 75.6054 49.3584 75.6311 49.5455 75.6778C49.7445 75.7937 49.9352 75.9235 50.1159 76.0663L50.1242 76.0728L50.133 76.0788C51.1042 76.7402 52.1473 77.2893 53.2423 77.7153L53.2423 77.7154L53.2509 77.7185C53.4731 77.7972 53.7024 77.8445 53.9085 77.887L53.9424 77.894C54.1586 77.9387 54.3502 77.9802 54.5285 78.0471C54.8654 78.2222 55.1791 78.4388 55.4622 78.6919Z" fill="white" stroke="#171717" stroke-width="0.6"/>
<path d="M95.6407 68.815C95.4783 69.21 95.4028 69.6352 95.4193 70.0618C95.3962 70.4901 95.461 70.9186 95.6099 71.321C95.7605 71.7282 95.994 72.0998 96.2955 72.4122C96.3025 72.4194 96.3099 72.4263 96.3176 72.4329C96.9852 72.9978 97.8473 73.2786 98.7192 73.2155C99.0366 73.2192 99.3534 73.1862 99.6633 73.1172L99.6633 73.1172C99.966 73.0498 100.26 72.9468 100.538 72.8102C100.613 72.7732 100.67 72.7063 100.694 72.6258L100.886 71.9731C100.913 71.8824 100.895 71.7844 100.839 71.7086C100.782 71.6328 100.693 71.5882 100.598 71.5882H100.502C100.431 71.5882 100.361 71.6138 100.307 71.6603C100.11 71.8285 99.8858 71.9608 99.6432 72.0511L99.6432 72.051L99.6347 72.0544C99.4093 72.1462 99.1681 72.1932 98.9246 72.1927C98.9178 72.1927 98.911 72.1929 98.9041 72.1934C98.6784 72.2084 98.4523 72.169 98.245 72.0784C98.0414 71.9894 97.8617 71.8536 97.7205 71.6822C97.3984 71.204 97.2439 70.6324 97.2815 70.0568C97.2823 70.044 97.2824 70.0312 97.2815 70.0183C97.2472 69.4757 97.4002 68.9377 97.7147 68.4943C97.8441 68.33 98.0111 68.1992 98.2016 68.113C98.3941 68.0258 98.6048 67.9867 98.8157 67.999C98.825 67.9996 98.8343 67.9997 98.8436 67.9993C99.1264 67.9894 99.4064 68.059 99.6517 68.2002L99.6517 68.2003L99.6537 68.2014C99.8442 68.3091 99.9859 68.4862 100.049 68.6957C100.087 68.8223 100.204 68.9089 100.336 68.9089H100.454C100.608 68.9089 100.738 68.7918 100.753 68.6383C100.769 68.4705 100.796 68.3039 100.832 68.1393L100.832 68.1393L100.833 68.1347C100.864 67.9859 100.903 67.8388 100.949 67.6941C100.995 67.5478 100.924 67.3901 100.783 67.3285C100.475 67.1935 100.156 67.0859 99.8292 67.0067L99.8292 67.0066L99.8221 67.0051C99.5085 66.9371 99.1886 66.9026 98.8677 66.902C97.9595 66.8561 97.0684 67.1619 96.3796 67.7559L96.3795 67.7557L96.3719 67.7628C96.0546 68.0563 95.8051 68.4153 95.6407 68.815Z" fill="white" stroke="#171717" stroke-width="0.6" stroke-linejoin="round"/>
<path d="M105.363 70.9064C105.364 70.9008 105.365 70.8951 105.365 70.8894C105.383 70.5742 105.339 70.2586 105.234 69.9609C105.128 69.6633 104.965 69.3896 104.752 69.1561C104.743 69.1452 104.732 69.1351 104.721 69.1258C104.252 68.7418 103.657 68.5461 103.052 68.5767C102.446 68.6073 101.874 68.862 101.446 69.2913C101.019 69.7205 100.766 70.2936 100.738 70.8989C100.709 71.5042 100.907 72.0984 101.293 72.5659C101.301 72.5761 101.31 72.5857 101.32 72.5946C101.55 72.8087 101.821 72.9737 102.117 73.0794C102.405 73.1823 102.711 73.227 103.016 73.2108C103.291 73.2352 103.568 73.2068 103.832 73.127C104.104 73.0449 104.357 72.91 104.577 72.73C104.797 72.55 104.979 72.3285 105.113 72.078C105.247 71.8276 105.331 71.5532 105.359 71.2705L105.359 71.2705L105.359 71.2668C105.369 71.1469 105.371 71.0264 105.363 70.9064ZM102.92 69.495C103.031 69.4625 103.149 69.4749 103.251 69.5294C103.319 69.5683 103.377 69.6235 103.418 69.6899C103.551 70.0608 103.608 70.4548 103.584 70.8483C103.583 70.8603 103.583 70.8723 103.584 70.8842C103.607 71.2809 103.546 71.678 103.405 72.0494C103.372 72.1122 103.321 72.1645 103.26 72.2005C103.195 72.2384 103.12 72.2563 103.044 72.252C103.032 72.2514 103.02 72.2514 103.008 72.2521C102.936 72.2567 102.863 72.2393 102.801 72.2022C102.741 72.1671 102.693 72.1157 102.662 72.0542C102.527 71.6834 102.473 71.288 102.503 70.8945C102.504 70.8807 102.504 70.867 102.503 70.8532C102.478 70.4575 102.535 70.061 102.669 69.688C102.726 69.5949 102.815 69.5259 102.92 69.495Z" fill="white" stroke="#171717" stroke-width="0.6" stroke-linejoin="round"/>
<path d="M112.1 72.6714C112.097 72.4493 112.086 72.2338 112.068 72.0251V70.8226C112.079 70.4381 112.057 70.0534 112.001 69.6728C112 69.6672 111.999 69.6617 111.998 69.6563C111.951 69.4266 111.85 69.2116 111.702 69.0296L111.702 69.0295L111.697 69.0244C111.557 68.86 111.38 68.7321 111.18 68.6516L111.18 68.6515L111.172 68.6487C110.927 68.5575 110.665 68.5195 110.404 68.5371C110.143 68.5547 109.889 68.6276 109.658 68.7509C109.651 68.7546 109.645 68.7586 109.638 68.7628C109.511 68.844 109.395 68.9396 109.291 69.0474C109.207 68.9505 109.108 68.8654 108.999 68.7951L108.998 68.7947C108.743 68.6317 108.445 68.5483 108.142 68.5549C107.867 68.5485 107.596 68.6088 107.35 68.7307C107.344 68.7338 107.338 68.7371 107.332 68.7406C107.294 68.763 107.256 68.7866 107.219 68.8113C107.171 68.7103 107.068 68.6406 106.948 68.6406H105.82C105.654 68.6406 105.52 68.7749 105.52 68.9406C105.52 69.2496 105.533 69.5367 105.544 69.7858C105.55 69.8949 105.554 69.9968 105.557 70.0901C105.564 70.3045 105.562 70.4847 105.559 70.6504C105.558 70.7285 105.557 70.8034 105.557 70.8772V71.6796C105.557 72.0065 105.557 72.3796 105.521 72.7929C105.514 72.8767 105.542 72.9597 105.599 73.0217C105.655 73.0837 105.736 73.119 105.82 73.119H107.018C107.184 73.119 107.318 72.9847 107.318 72.819V72.7442C107.318 72.5786 107.309 72.4368 107.301 72.3232C107.299 72.2922 107.297 72.2647 107.295 72.2402C107.289 72.1679 107.286 72.1213 107.286 72.0862V70.7862C107.286 70.78 107.286 70.7738 107.285 70.7677C107.268 70.4847 107.309 70.2014 107.407 69.9357C107.433 69.9041 107.465 69.8779 107.501 69.8587C107.546 69.8349 107.596 69.8224 107.647 69.8224C107.697 69.8224 107.747 69.8349 107.792 69.8587C107.825 69.8763 107.855 69.8997 107.879 69.9277C107.986 70.3099 108.025 70.7082 107.992 71.1041C107.992 71.1122 107.991 71.1204 107.991 71.1286V71.9364C107.991 72.1509 107.974 72.3862 107.955 72.6357C107.951 72.6873 107.948 72.7395 107.944 72.7923C107.938 72.8754 107.967 72.9572 108.023 73.0181C108.08 73.0791 108.16 73.1137 108.243 73.1137H109.452C109.618 73.1137 109.752 72.9794 109.752 72.8137V70.7862C109.752 70.7787 109.752 70.7711 109.751 70.7636C109.73 70.485 109.77 70.2052 109.867 69.9436C109.896 69.9083 109.933 69.8791 109.974 69.8577C110.024 69.8314 110.08 69.8178 110.137 69.8178C110.194 69.8178 110.249 69.8314 110.3 69.8577C110.339 69.8779 110.373 69.9051 110.402 69.9378C110.504 70.2689 110.543 70.6162 110.517 70.962C110.516 70.9693 110.516 70.9767 110.516 70.9841V71.8294C110.516 72.097 110.495 72.3694 110.471 72.6838C110.469 72.7173 110.466 72.7512 110.464 72.7857C110.457 72.869 110.486 72.9511 110.543 73.0123C110.599 73.0735 110.679 73.1083 110.763 73.1083H111.801H111.833C111.998 73.1083 112.133 72.974 112.133 72.8083C112.133 72.759 112.121 72.7124 112.1 72.6714Z" fill="white" stroke="#171717" stroke-width="0.6" stroke-linejoin="round"/>
<path d="M114.914 72.7923C114.91 72.8745 114.939 72.955 114.996 73.0147C115.052 73.0745 115.131 73.1083 115.213 73.1083H116.422C116.588 73.1083 116.722 72.974 116.722 72.8083V70.7862C116.722 70.7787 116.722 70.7711 116.722 70.7636C116.701 70.485 116.74 70.2052 116.837 69.9436C116.867 69.9083 116.903 69.8791 116.944 69.8577C116.995 69.8314 117.05 69.8177 117.107 69.8177C117.164 69.8177 117.22 69.8314 117.27 69.8577C117.309 69.8779 117.344 69.9051 117.372 69.9377C117.474 70.2689 117.513 70.6162 117.487 70.962C117.487 70.9693 117.487 70.9767 117.487 70.9841V71.8294C117.487 72.1412 117.486 72.4356 117.437 72.7634C117.423 72.8498 117.449 72.9377 117.506 73.0039C117.563 73.0702 117.646 73.1083 117.733 73.1083H118.942C119.108 73.1083 119.242 72.974 119.242 72.8083C119.242 72.5376 119.231 72.2765 119.21 72.0251V70.8183C119.21 70.8108 119.21 70.8034 119.209 70.7959C119.181 70.4194 119.12 70.0462 119.026 69.6805C118.978 69.4538 118.877 69.2416 118.731 69.0617L118.731 69.0616L118.727 69.0565C118.587 68.8921 118.409 68.7642 118.209 68.6837L118.209 68.6836L118.201 68.6808C117.956 68.5896 117.695 68.5516 117.434 68.5692C117.173 68.5868 116.918 68.6597 116.688 68.783C116.681 68.7867 116.674 68.7907 116.667 68.7949C116.541 68.8761 116.424 68.9717 116.321 69.0794C116.236 68.9826 116.138 68.8975 116.028 68.8271L116.027 68.8268C115.772 68.6638 115.474 68.5804 115.171 68.587C114.897 68.5805 114.625 68.6409 114.379 68.7628C114.374 68.7655 114.369 68.7684 114.363 68.7714C114.324 68.7939 114.286 68.8177 114.248 68.8426C114.2 68.7421 114.097 68.6727 113.978 68.6727L112.844 68.6727C112.678 68.6727 112.544 68.807 112.544 68.9727C112.544 69.1991 112.552 69.4092 112.561 69.6003C112.562 69.6366 112.564 69.6719 112.566 69.7065C112.573 69.8565 112.579 69.9914 112.581 70.1172C112.585 70.3351 112.583 70.5218 112.582 70.6892C112.582 70.7663 112.581 70.8392 112.581 70.9092V71.7117C112.581 72.0386 112.581 72.4117 112.545 72.825C112.537 72.9088 112.566 72.9918 112.622 73.0538C112.679 73.1158 112.76 73.1511 112.844 73.1511H114.021C114.186 73.1511 114.321 73.0168 114.321 72.8511V72.7762C114.321 72.6125 114.313 72.472 114.307 72.3589C114.305 72.329 114.303 72.3021 114.302 72.2779C114.297 72.2046 114.294 72.1554 114.294 72.1182V70.7862C114.294 70.7787 114.293 70.7711 114.293 70.7636C114.272 70.4827 114.311 70.2007 114.409 69.9368C114.429 69.9126 114.453 69.8914 114.479 69.8742C114.514 69.8515 114.553 69.8359 114.594 69.8283C114.634 69.8207 114.676 69.8211 114.717 69.8297C114.757 69.8382 114.796 69.8547 114.83 69.8781L114.83 69.8782L114.834 69.8807C114.853 69.8935 114.871 69.9088 114.886 69.926C114.989 70.3107 115.028 70.71 115 71.1076C114.999 71.1146 114.999 71.1216 114.999 71.1286V71.9364C114.999 72.0505 114.984 72.1755 114.965 72.3229C114.963 72.338 114.961 72.3533 114.959 72.3688C114.941 72.4991 114.922 72.6455 114.914 72.7923Z" fill="white" stroke="#171717" stroke-width="0.6" stroke-linejoin="round"/>
<path d="M122.019 69.6912C122.157 70.0603 122.215 70.4542 122.19 70.8474C122.189 70.8601 122.189 70.8728 122.19 70.8855C122.213 71.2589 122.162 71.633 122.039 71.9858C122.03 71.9979 122.021 72.0108 122.014 72.0244C121.956 72.1267 121.86 72.2019 121.747 72.2336C121.634 72.2652 121.514 72.251 121.411 72.1941C121.347 72.157 121.292 72.1047 121.252 72.0419C121.119 71.6735 121.063 71.2816 121.087 70.8904C121.088 70.878 121.088 70.8656 121.087 70.8532C121.063 70.4569 121.119 70.0598 121.254 69.6864C121.281 69.6412 121.315 69.6012 121.356 69.5682C121.401 69.5313 121.454 69.5039 121.51 69.4876C121.566 69.4714 121.625 69.4665 121.683 69.4734C121.741 69.4803 121.798 69.4987 121.848 69.5277L121.849 69.5282C121.919 69.5674 121.977 69.6235 122.019 69.6912ZM123.351 69.1541C123.341 69.1427 123.329 69.1322 123.317 69.1226C122.847 68.751 122.257 68.565 121.659 68.6003C121.062 68.6355 120.498 68.8895 120.075 69.3137C119.652 69.738 119.4 70.303 119.367 70.901C119.334 71.499 119.522 72.0883 119.895 72.5567C119.909 72.5734 119.924 72.5886 119.94 72.6022C120.417 72.9908 121.013 73.2031 121.628 73.2031C122.243 73.2031 122.839 72.9908 123.315 72.6022C123.326 72.5934 123.336 72.5838 123.346 72.5736C123.559 72.3435 123.724 72.0727 123.83 71.7775C123.935 71.488 123.981 71.1809 123.966 70.8736C123.985 70.5635 123.941 70.2527 123.837 69.9597C123.732 69.6608 123.566 69.3867 123.351 69.1541Z" fill="white" stroke="#171717" stroke-width="0.6" stroke-linejoin="round"/>
<path d="M128.272 71.4442V70.4279C128.282 70.1422 128.261 69.8563 128.208 69.5753L128.208 69.5753L128.207 69.5676C128.165 69.3756 128.077 69.1969 127.95 69.0471C127.808 68.8768 127.626 68.7445 127.42 68.6621L127.42 68.662L127.412 68.6588C127.174 68.572 126.921 68.5334 126.668 68.5454C126.415 68.5574 126.167 68.6197 125.939 68.7286C125.932 68.7319 125.925 68.7354 125.919 68.7391C125.878 68.7624 125.838 68.7872 125.799 68.8133C125.749 68.717 125.649 68.6513 125.533 68.6513H124.431C124.348 68.6513 124.268 68.6857 124.212 68.7464C124.155 68.807 124.126 68.8884 124.131 68.9713C124.153 69.2873 124.168 69.6033 124.179 69.9192V71.8133C124.179 72.1311 124.179 72.4542 124.133 72.7898C124.122 72.8756 124.148 72.9621 124.205 73.0272C124.262 73.0924 124.344 73.1297 124.431 73.1297H125.602C125.768 73.1297 125.902 72.9954 125.902 72.8297V72.8187C125.902 72.4074 125.902 72.0227 125.869 71.6882C125.854 71.4257 125.854 71.1625 125.87 70.9C125.87 70.8879 125.87 70.8757 125.87 70.8636C125.851 70.5628 125.896 70.2614 126.002 69.9796C126.024 69.9441 126.054 69.9139 126.09 69.8912C126.129 69.8656 126.175 69.8504 126.222 69.847C126.27 69.8437 126.317 69.8523 126.36 69.872C126.391 69.8863 126.42 69.906 126.444 69.9302C126.545 70.2408 126.583 70.5687 126.555 70.8946C126.554 70.903 126.554 70.9115 126.554 70.9199V71.9899H126.554L126.554 72.0005C126.563 72.2584 126.55 72.5165 126.514 72.7721C126.502 72.858 126.528 72.945 126.585 73.0106C126.642 73.0761 126.725 73.1137 126.811 73.1137H128.015C128.181 73.1137 128.315 72.9794 128.315 72.8137C128.315 72.6955 128.306 72.5774 128.297 72.4677C128.295 72.4474 128.293 72.4274 128.291 72.4077C128.283 72.3175 128.276 72.2329 128.272 72.1468C128.265 72.0071 128.267 71.8677 128.27 71.7134C128.271 71.629 128.272 71.5401 128.272 71.4442Z" fill="white" stroke="#171717" stroke-width="0.6" stroke-linejoin="round"/>
<path d="M135.654 66.9983C135.516 66.9983 135.395 67.0931 135.363 67.2277C135.198 67.9076 135.017 68.5777 134.83 69.2389C134.724 69.6175 134.604 69.9948 134.479 70.3721C134.339 69.9632 134.203 69.5598 134.072 69.1621C133.854 68.503 133.657 67.8538 133.465 67.2121C133.427 67.0852 133.31 66.9983 133.177 66.9983H132.359C132.23 66.9983 132.116 67.0802 132.075 67.202C131.996 67.4347 131.917 67.6689 131.838 67.9049C131.702 68.3134 131.563 68.7272 131.417 69.1473C131.308 69.4612 131.201 69.7761 131.091 70.0981C131.06 70.1884 131.029 70.2792 130.998 70.3708C130.89 69.9991 130.786 69.6262 130.685 69.253C130.588 68.8916 130.496 68.538 130.403 68.1823C130.321 67.8658 130.238 67.5476 130.15 67.2207C130.115 67.0895 129.996 66.9983 129.861 66.9983H128.486C128.389 66.9983 128.298 67.0453 128.241 67.1244C128.185 67.2035 128.17 67.3049 128.202 67.3967C128.533 68.3489 128.838 69.2867 129.119 70.2101L129.119 70.2101L129.119 70.2112C129.401 71.126 129.651 72.0312 129.886 72.9173C129.921 73.0489 130.04 73.1404 130.176 73.1404H131C131.13 73.1404 131.245 73.0568 131.285 72.9333C131.509 72.245 131.733 71.5783 131.963 70.9227C132.099 70.5318 132.24 70.1501 132.382 69.7737C132.532 70.196 132.675 70.6126 132.813 71.0209C133.031 71.6694 133.228 72.3026 133.414 72.9264C133.452 73.0534 133.569 73.1404 133.702 73.1404H134.541C134.672 73.1404 134.788 73.0556 134.827 72.9309C135.149 71.9136 135.465 70.9534 135.767 70.0383L135.779 70.0028C136.083 69.0789 136.377 68.2143 136.665 67.3981C136.697 67.3063 136.683 67.2045 136.627 67.125C136.57 67.0455 136.479 66.9983 136.382 66.9983H136.029H135.654Z" fill="white" stroke="#171717" stroke-width="0.6" stroke-linejoin="round"/>
<path d="M138.998 72.3697C139.18 72.3699 139.361 72.3373 139.533 72.2734C139.602 72.2471 139.67 72.2167 139.736 72.1822L139.83 71.9359L140.01 72.0048C140.019 71.9981 140.027 71.9914 140.035 71.9845L140.11 72.0434L140.102 72.066L140.225 72.2173C140.146 72.281 140.064 72.3389 139.977 72.3906L139.934 72.5034C139.75 72.6264 139.548 72.7186 139.335 72.7762C139.092 72.8405 138.842 72.8728 138.591 72.8725C138.32 72.8915 138.049 72.8537 137.794 72.7616C137.538 72.6695 137.305 72.5251 137.109 72.3376L138.998 72.3697ZM138.998 72.3697C138.826 72.3753 138.656 72.3411 138.5 72.2696C138.344 72.1981 138.207 72.0914 138.099 71.9578L138.998 72.3697ZM138.682 69.5905C138.77 69.7756 138.816 69.9772 138.818 70.1813H138.042C138.058 69.9901 138.112 69.8033 138.203 69.6328L138.203 69.6323C138.229 69.5834 138.268 69.5425 138.316 69.514C138.363 69.4855 138.417 69.4705 138.473 69.4707L138.476 69.4706C138.518 69.4703 138.561 69.4818 138.598 69.5037C138.633 69.5248 138.662 69.5547 138.682 69.5905ZM137.692 73.0438C137.983 73.1489 138.293 73.1927 138.601 73.1725C138.875 73.1719 139.147 73.1362 139.411 73.0663L139.411 73.0663L139.413 73.0658C139.658 72.9996 139.89 72.8938 140.101 72.7526C140.152 72.7182 140.192 72.6687 140.214 72.6109L140.39 72.1508C140.438 72.028 140.399 71.8888 140.296 71.8075L140.221 71.7486C140.111 71.662 139.955 71.6633 139.846 71.7517C139.72 71.854 139.579 71.9353 139.427 71.9925C139.29 72.0437 139.145 72.0698 138.998 72.0697V72.0695L138.988 72.0698C138.863 72.074 138.738 72.049 138.625 71.9969C138.513 71.9454 138.414 71.869 138.336 71.7734C138.197 71.5876 138.108 71.3714 138.074 71.1451H140.249C140.415 71.1451 140.549 71.0107 140.549 70.8451V70.5992C140.569 70.3229 140.534 70.0455 140.446 69.7827C140.357 69.5161 140.216 69.27 140.031 69.0586C140.023 69.0497 140.015 69.0413 140.006 69.0334C139.803 68.8499 139.564 68.7101 139.304 68.6224C139.051 68.537 138.783 68.503 138.517 68.5224C138.223 68.5098 137.929 68.5572 137.653 68.6616C137.371 68.7684 137.114 68.9326 136.899 69.1437L136.899 69.1436L136.891 69.1523C136.683 69.3727 136.522 69.6323 136.416 69.9159C136.312 70.1948 136.264 70.4914 136.274 70.7888C136.24 71.4288 136.459 72.0567 136.885 72.5366C136.89 72.5428 136.896 72.5487 136.902 72.5544C137.128 72.7708 137.397 72.9375 137.692 73.0438Z" fill="white" stroke="#171717" stroke-width="0.6" stroke-linejoin="round"/>
<path d="M141.105 69.6468C141.1 69.6281 141.094 69.6098 141.089 69.5918C141.07 69.6152 141.053 69.639 141.036 69.6632M141.105 69.6468L141.036 69.6632M141.105 69.6468L141.033 69.6674M141.105 69.6468C141.13 69.7512 141.164 69.8532 141.207 69.9517M141.036 69.6632L140.813 69.716C140.814 69.7184 140.815 69.7209 140.815 69.7233C140.816 69.7252 140.816 69.7272 140.817 69.7292L141.033 69.6674M141.036 69.6632C141.035 69.6646 141.034 69.666 141.033 69.6674M141.033 69.6674C141.003 69.7105 140.975 69.7549 140.948 69.8004L141.207 69.9517M141.207 69.9517L141.482 69.832C141.458 69.777 141.438 69.7208 141.42 69.6634C141.339 69.7513 141.268 69.8479 141.207 69.9517ZM140.42 71.7752C140.412 71.9615 140.439 72.1478 140.502 72.3236C140.566 72.5024 140.665 72.6667 140.793 72.8071C140.796 72.8112 140.8 72.8153 140.804 72.8192C140.939 72.9517 141.1 73.0548 141.277 73.122C141.451 73.1879 141.636 73.2179 141.821 73.2101C142.094 73.2133 142.362 73.1449 142.599 73.0117C142.688 72.9628 142.771 72.9052 142.848 72.8401C142.886 72.8845 142.927 72.9258 142.973 72.9636L142.972 72.9638L142.982 72.9709C143.172 73.1178 143.408 73.193 143.648 73.1832C143.811 73.1829 143.973 73.1645 144.132 73.1285C144.298 73.0952 144.461 73.0443 144.617 72.9764C144.726 72.9288 144.797 72.8207 144.797 72.7014V72.5034C144.797 72.3377 144.663 72.2034 144.497 72.2034H144.465C144.458 72.2034 144.45 72.2037 144.443 72.2042C144.414 72.2063 144.385 72.2022 144.358 72.1921C144.344 72.1871 144.331 72.1805 144.319 72.1727C144.264 72.0414 144.244 71.8981 144.26 71.7562C144.261 71.745 144.262 71.7337 144.262 71.7224V71.5701L144.289 70.1606L144.289 70.1606V70.155V70.1202C144.3 69.8995 144.263 69.679 144.18 69.4741C144.096 69.2664 143.966 69.08 143.801 68.9284C143.795 68.9222 143.788 68.9163 143.78 68.9107C143.404 68.6236 142.937 68.4822 142.464 68.5123L140.42 71.7752ZM140.42 71.7752C140.42 71.7785 140.42 71.7818 140.42 71.7852L140.72 71.7812L140.421 71.7654C140.42 71.7686 140.42 71.7719 140.42 71.7752ZM142.259 72.0579C142.243 72.0507 142.228 72.0407 142.216 72.0283C142.161 71.9214 142.136 71.8017 142.143 71.6814C142.144 71.6693 142.144 71.6571 142.143 71.645C142.138 71.5673 142.15 71.4895 142.177 71.4167C142.203 71.349 142.241 71.2871 142.291 71.2344C142.387 71.1604 142.492 71.0996 142.603 71.0534V71.6154C142.603 71.6215 142.603 71.6277 142.603 71.6338C142.611 71.7635 142.58 71.8925 142.513 72.0036C142.495 72.0241 142.473 72.0406 142.449 72.052C142.421 72.0651 142.39 72.0713 142.359 72.07C142.349 72.0695 142.338 72.0696 142.327 72.0703C142.304 72.0718 142.28 72.0676 142.259 72.0579ZM141.581 70.7648L141.499 70.4762C141.498 70.4766 141.497 70.477 141.496 70.4773L141.492 70.4784L141.581 70.7648ZM142.716 70.0234C142.667 70.0517 142.617 70.0786 142.566 70.1041C142.566 70.1072 142.566 70.1102 142.566 70.1133C142.566 70.1183 142.565 70.1232 142.565 70.1282V70.2834H142.865L142.776 70.1282L142.773 70.1236L142.716 70.0234ZM142.435 69.7467C142.436 69.7484 142.438 69.7502 142.439 69.7519C142.441 69.7534 142.442 69.755 142.444 69.7566L142.657 69.5451L142.435 69.7467ZM141.788 69.7285C141.791 69.7269 141.793 69.7252 141.796 69.7236C141.798 69.7216 141.801 69.7196 141.803 69.7176L141.619 69.4809L141.788 69.7285Z" fill="white" stroke="#171717" stroke-width="0.6" stroke-linejoin="round"/>
<path d="M146.583 66.7345C146.587 66.6492 146.555 66.5662 146.494 66.5064C146.433 66.4466 146.349 66.4156 146.264 66.4212C146.15 66.4287 146.037 66.4428 145.924 66.4633H145.417C145.299 66.4633 145.246 66.4606 145.192 66.4402C145.1 66.4051 144.996 66.4175 144.915 66.4735C144.834 66.5295 144.785 66.6219 144.785 66.7206C144.785 66.9785 144.797 67.2562 144.808 67.5376C144.816 67.7382 144.824 67.9406 144.828 68.1392C144.835 68.4677 144.833 68.8207 144.831 69.1909C144.829 69.3832 144.828 69.5801 144.828 69.7805V71.3854C144.828 71.7491 144.814 72.0931 144.8 72.4333C144.795 72.5568 144.79 72.6798 144.786 72.8031C144.782 72.8939 144.821 72.9812 144.889 73.0406C144.958 73.1 145.05 73.1251 145.139 73.1088C145.226 73.093 145.314 73.0819 145.402 73.0755L145.402 73.0756L145.41 73.0747C145.598 73.0554 145.787 73.0554 145.975 73.0747L145.975 73.0748L145.983 73.0754C146.069 73.0818 146.155 73.0929 146.24 73.1087C146.327 73.1249 146.418 73.1014 146.486 73.0444C146.555 72.9874 146.594 72.9028 146.594 72.8137C146.594 72.5669 146.582 72.2921 146.569 72.0155C146.56 71.8078 146.551 71.599 146.546 71.4003C146.539 71.0758 146.541 70.722 146.544 70.3496C146.545 70.1555 146.546 69.9564 146.546 69.7538V68.1435H146.546L146.546 68.1375C146.537 67.6882 146.555 67.3178 146.574 66.9272C146.577 66.8637 146.58 66.7996 146.583 66.7345Z" fill="white" stroke="#171717" stroke-width="0.6" stroke-linejoin="round"/>
<path d="M148.901 72.1714C148.89 72.1711 148.878 72.1715 148.867 72.1725C148.858 72.1734 148.848 72.1711 148.84 72.1661L148.833 72.1775L148.84 72.1661C148.836 72.1631 148.832 72.1591 148.828 72.1545C148.758 71.8102 148.731 71.4582 148.75 71.107C148.75 71.1017 148.75 71.0964 148.75 71.0911V70.7648V70.7647C148.75 70.5449 148.75 70.1823 148.772 69.6793H149.279C149.364 69.6793 149.444 69.6439 149.501 69.5818C149.558 69.5198 149.586 69.4367 149.578 69.3528C149.574 69.3099 149.574 69.2667 149.578 69.2238C149.579 69.215 149.579 69.2062 149.579 69.1974V68.9834C149.579 68.8177 149.445 68.6834 149.279 68.6834H148.793V68.2559H148.793L148.793 68.2513C148.789 68.0049 148.801 67.7585 148.829 67.5136C148.841 67.4049 148.793 67.2982 148.704 67.2351L148.613 67.1709C148.522 67.1072 148.404 67.0982 148.305 67.1476C148.141 67.2298 147.971 67.3074 147.787 67.3859L147.253 67.6101C147.146 67.6551 147.075 67.7579 147.07 67.8739C147.063 68.0407 147.073 68.2077 147.099 68.3723C147.109 68.4587 147.109 68.5458 147.099 68.6321C147.097 68.644 147.096 68.6559 147.096 68.6678V68.678H146.861C146.696 68.678 146.561 68.8124 146.561 68.978V69.0583C146.561 69.0708 146.562 69.0834 146.564 69.0958C146.566 69.1153 146.566 69.135 146.564 69.1545C146.562 69.167 146.561 69.1795 146.561 69.192V69.4007C146.561 69.5664 146.696 69.7007 146.861 69.7007H147.096V71.8396C147.084 72.0214 147.107 72.204 147.166 72.3767C147.226 72.5534 147.322 72.7159 147.447 72.8544C147.453 72.8614 147.46 72.8682 147.467 72.8746C147.603 72.9992 147.763 73.095 147.937 73.1562C148.108 73.2162 148.289 73.2417 148.469 73.2314C148.639 73.2317 148.808 73.2107 148.973 73.1688C149.161 73.1214 149.345 73.0556 149.52 72.9725C149.625 72.9229 149.692 72.8173 149.692 72.7013V72.4232C149.692 72.3323 149.651 72.2463 149.58 72.1894C149.509 72.1324 149.416 72.1107 149.327 72.1302C149.188 72.1609 149.044 72.1747 148.901 72.1714Z" fill="white" stroke="#171717" stroke-width="0.6" stroke-linejoin="round"/>
<path d="M151.378 68.7491C151.349 68.7659 151.32 68.7834 151.291 68.8017V67.4418C151.298 67.2153 151.318 66.9894 151.352 66.7653C151.366 66.6708 151.335 66.5751 151.267 66.5077C151.199 66.4403 151.103 66.4093 151.009 66.4242L150.727 66.4687H150.206L149.913 66.424C149.827 66.4108 149.739 66.436 149.672 66.493C149.606 66.55 149.568 66.6331 149.568 66.7206C149.568 66.9021 149.579 67.0983 149.591 67.3C149.592 67.3079 149.592 67.3159 149.593 67.3238C149.604 67.5209 149.616 67.727 149.621 67.9471C149.628 68.2435 149.626 68.615 149.624 69.0654C149.623 69.3239 149.621 69.6084 149.621 69.9196V71.7491C149.621 72.1588 149.596 72.5018 149.569 72.7919C149.562 72.8758 149.59 72.9591 149.646 73.0213C149.703 73.0836 149.784 73.119 149.868 73.119H151.05C151.213 73.119 151.347 72.9884 151.35 72.8252C151.358 72.4584 151.345 72.0915 151.312 71.7261C151.294 71.4481 151.294 71.1691 151.312 70.8911C151.313 70.8784 151.313 70.8656 151.312 70.8529C151.293 70.5538 151.338 70.2543 151.443 69.9739C151.469 69.9358 151.503 69.9037 151.542 69.8798C151.588 69.8523 151.64 69.8366 151.693 69.8342C151.746 69.8317 151.799 69.8425 151.847 69.8657C151.883 69.8831 151.916 69.9071 151.943 69.9363C152.041 70.2493 152.078 70.5786 152.051 70.906C152.05 70.9142 152.05 70.9224 152.05 70.9307V72.0006H152.05L152.05 72.0112C152.059 72.2691 152.046 72.5272 152.01 72.7828C151.998 72.8688 152.024 72.9557 152.081 73.0213C152.138 73.0868 152.22 73.1244 152.307 73.1244H153.506C153.593 73.1244 153.675 73.0867 153.732 73.021C153.789 72.9553 153.815 72.8681 153.803 72.782C153.775 72.5905 153.758 72.3977 153.752 72.2044V70.4265C153.76 70.1457 153.738 69.8648 153.689 69.5883C153.687 69.5816 153.686 69.575 153.684 69.5684C153.636 69.3777 153.546 69.2001 153.421 69.0488L153.421 69.0483C153.278 68.8775 153.096 68.7447 152.89 68.6621L152.89 68.662L152.883 68.6596C152.679 68.5835 152.463 68.5445 152.246 68.5443C151.948 68.5389 151.654 68.6073 151.389 68.7433L151.389 68.7431L151.378 68.7491Z" fill="white" stroke="#171717" stroke-width="0.6" stroke-linejoin="round"/>
<path d="M102.587 80.1679L102.587 80.1679L102.587 80.1657L102.121 76.282C102.103 76.1312 101.975 76.0177 101.824 76.0177H101.08C100.962 76.0177 100.855 76.0871 100.806 76.195C100.508 76.8616 100.21 77.5055 99.9013 78.1326C99.678 78.587 99.455 79.0323 99.2282 79.4709C98.9892 79.0149 98.755 78.5597 98.5296 78.1049C98.2204 77.4813 97.912 76.8378 97.6253 76.1954C97.5771 76.0873 97.4697 76.0177 97.3513 76.0177H96.6452C96.4955 76.0177 96.3688 76.128 96.3481 76.2762L95.8131 80.1119L95.8129 80.1118L95.8117 80.1244C95.792 80.3275 95.7614 80.5294 95.7202 80.7292L95.7199 80.7292L95.7178 80.7423C95.7052 80.8206 95.6918 80.9031 95.6778 80.9897C95.6384 81.2332 95.5938 81.5091 95.5464 81.8136C95.5314 81.9098 95.564 82.0074 95.6339 82.0752C95.7038 82.143 95.8023 82.1726 95.8981 82.1547L96.0418 82.1277H96.2918L96.4418 82.155C96.5293 82.1709 96.6193 82.1471 96.6876 82.0901C96.7559 82.0331 96.7954 81.9488 96.7954 81.8598C96.7954 81.2654 96.8627 80.6611 96.9426 80.0533C96.9444 80.0404 96.9452 80.0273 96.9452 80.0142V79.9676L97.0285 79.2586C97.1713 79.534 97.3161 79.8173 97.4638 80.1075C97.7258 80.6223 97.9838 81.1609 98.2535 81.724C98.2957 81.8119 98.3381 81.9004 98.3808 81.9895C98.4307 82.0936 98.5359 82.1598 98.6513 82.1598H98.9937C99.1097 82.1598 99.2154 82.0928 99.265 81.9879C99.5801 81.3201 99.8895 80.6747 100.193 80.0618C100.343 79.7608 100.49 79.4641 100.638 79.1715L100.796 80.7367C100.797 80.8061 100.804 80.9075 100.813 81.0289C100.814 81.0548 100.816 81.0815 100.818 81.1091C100.83 81.2837 100.844 81.5111 100.855 81.7958V81.8705C100.855 81.9549 100.89 82.0353 100.953 82.0922C101.015 82.149 101.098 82.177 101.182 82.1692L101.516 82.1384H102.134L102.492 82.1644C102.587 82.1712 102.679 82.133 102.741 82.0612C102.803 81.9894 102.827 81.8926 102.807 81.8001C102.765 81.6123 102.723 81.4052 102.687 81.1674C102.67 81.0554 102.658 80.9193 102.643 80.7491C102.641 80.733 102.64 80.7167 102.638 80.7001C102.625 80.544 102.609 80.3654 102.587 80.1679Z" fill="white" stroke="#171717" stroke-width="0.6" stroke-linejoin="round"/>
<path d="M106.669 80.8094C106.67 80.7994 106.671 80.7893 106.671 80.7792V80.6269L106.697 79.2175L106.697 79.2175V79.2118V79.177C106.709 78.9563 106.671 78.7358 106.588 78.5309C106.504 78.3232 106.375 78.1369 106.21 77.9852C106.203 77.979 106.196 77.9731 106.189 77.9675C105.813 77.6804 105.345 77.539 104.873 77.5691C104.582 77.5708 104.295 77.6323 104.029 77.7498L104.029 77.7498L104.028 77.7506C103.739 77.8804 103.472 78.0547 103.238 78.2672C103.144 78.3525 103.113 78.4878 103.162 78.605C103.187 78.6634 103.211 78.7261 103.235 78.7984C103.261 78.8782 103.292 78.9699 103.328 79.0925C103.362 79.209 103.463 79.2936 103.583 79.3067C103.704 79.3199 103.821 79.259 103.879 79.1525C103.959 79.0058 104.071 78.879 104.207 78.7817L104.208 78.7816C104.3 78.7153 104.412 78.6806 104.525 78.6825L104.525 78.6827L104.535 78.6826C104.594 78.6817 104.653 78.6926 104.708 78.7146C104.76 78.7354 104.808 78.7658 104.848 78.8041C104.93 78.8989 104.975 79.0196 104.975 79.1443C104.771 79.2464 104.557 79.3257 104.335 79.3807C104.328 79.3824 104.322 79.3843 104.315 79.3865L103.907 79.5187C103.61 79.6053 103.341 79.7702 103.129 79.9963C103.125 80.0013 103.12 80.0065 103.116 80.0118C102.928 80.2424 102.829 80.5333 102.839 80.8305C102.83 81.0163 102.858 81.2021 102.92 81.3774C102.984 81.5577 103.083 81.7233 103.213 81.8644C103.216 81.8684 103.22 81.8722 103.224 81.876C103.359 82.0085 103.52 82.1116 103.697 82.1788C103.87 82.2448 104.056 82.2748 104.241 82.2669C104.515 82.2695 104.784 82.2013 105.023 82.0688L105.023 82.0688L105.028 82.0663C105.112 82.0177 105.192 81.9614 105.265 81.8983C105.304 81.944 105.348 81.9862 105.396 82.0244C105.589 82.1781 105.833 82.2531 106.079 82.2346C106.236 82.2331 106.393 82.2168 106.547 82.1861L106.547 82.1861L106.552 82.1852C106.716 82.1498 106.876 82.0996 107.031 82.0352C107.143 81.9887 107.216 81.8794 107.216 81.7582V81.5549C107.216 81.3892 107.082 81.2549 106.916 81.2549H106.89C106.878 81.2549 106.866 81.2556 106.855 81.2569C106.825 81.2604 106.796 81.2572 106.768 81.2476C106.754 81.2429 106.741 81.2367 106.728 81.2292C106.675 81.0964 106.655 80.9524 106.669 80.8094ZM105.011 80.0834V80.6722H105.011L105.012 80.6822C105.016 80.8058 104.984 80.9279 104.921 81.0341C104.904 81.0543 104.882 81.0707 104.858 81.0821C104.83 81.0952 104.799 81.1013 104.768 81.1C104.758 81.0996 104.748 81.0997 104.738 81.1002C104.716 81.1015 104.693 81.0972 104.673 81.0877C104.656 81.0797 104.641 81.0682 104.629 81.0539C104.569 80.9503 104.542 80.8309 104.551 80.7115C104.552 80.6976 104.553 80.6837 104.552 80.6698C104.547 80.5932 104.559 80.5164 104.586 80.4447C104.611 80.3778 104.65 80.3168 104.699 80.265C104.795 80.1907 104.9 80.1298 105.011 80.0834Z" fill="white" stroke="#171717" stroke-width="0.6" stroke-linejoin="round"/>
<path d="M110.739 81.1328C110.755 81.1383 110.77 81.1449 110.784 81.1528C111.013 81.2787 111.196 81.475 111.305 81.7126C111.417 81.9304 111.473 82.1724 111.469 82.4172C111.472 82.7031 111.406 82.9854 111.277 83.2405C111.147 83.4968 110.957 83.7179 110.724 83.8849C110.207 84.257 109.581 84.4446 108.946 84.4177C108.455 84.4442 107.967 84.3356 107.534 84.1036L110.739 81.1328ZM110.739 81.1328C110.401 81.0135 110.044 80.9552 109.685 80.9606H109.543C109.173 80.9606 108.927 80.9199 108.785 80.8663C108.734 80.8471 108.707 80.8311 108.693 80.8209C108.695 80.8066 108.702 80.7931 108.712 80.7822L108.563 80.6476M110.739 81.1328L108.563 80.6476M108.563 80.6476L108.712 80.7822C108.724 80.7689 108.74 80.7604 108.758 80.7582M108.563 80.6476L108.758 80.7582M108.758 80.7582H108.877C109.412 80.7868 109.943 80.6469 110.395 80.3578C110.399 80.3551 110.403 80.3523 110.407 80.3494C110.604 80.2094 110.762 80.0225 110.868 79.8058C110.973 79.5923 111.023 79.3563 111.015 79.1188C111.018 78.938 110.985 78.7586 110.917 78.5916H111.094C111.26 78.5916 111.394 78.4573 111.394 78.2916V77.8958C111.394 77.7301 111.26 77.5958 111.094 77.5958H110.367V77.5957L110.363 77.5958C110.082 77.5998 109.801 77.5895 109.521 77.5648L109.521 77.5647L109.513 77.5642L108.978 77.5321L108.977 77.5321C108.472 77.5025 107.972 77.6494 107.563 77.9476L107.563 77.9476L107.558 77.9514C107.375 78.0908 107.228 78.2716 107.129 78.4789C107.031 78.6824 106.982 78.9057 106.985 79.1313C106.976 79.307 107.001 79.4828 107.058 79.6492C107.117 79.8196 107.209 79.9768 107.329 80.1116C107.332 80.1158 107.336 80.1198 107.34 80.1238C107.463 80.2479 107.604 80.3513 107.757 80.4312C107.673 80.4942 107.593 80.5639 107.52 80.6398L107.519 80.6403C107.423 80.7398 107.348 80.8574 107.297 80.9863C107.248 81.1124 107.224 81.2469 107.226 81.3822C107.221 81.5967 107.292 81.8062 107.427 81.9733L107.426 81.9734L107.432 81.9796C107.447 81.9979 107.464 82.0157 107.48 82.0328C107.381 82.1016 107.289 82.1811 107.205 82.2701C107.202 82.2739 107.199 82.2777 107.195 82.2816C107.007 82.5043 106.91 82.7892 106.921 83.0802C106.921 83.2889 106.978 83.4937 107.084 83.6732L107.342 83.5199L107.084 83.6732C107.192 83.8549 107.348 84.0037 107.534 84.1035L108.758 80.7582ZM109.251 78.2399C109.17 78.1996 109.08 78.1804 108.99 78.1841C108.899 78.1879 108.812 78.2144 108.734 78.2613C108.657 78.3081 108.593 78.3738 108.548 78.4521L108.655 80.0142M109.251 78.2399L109.117 78.5084C109.081 78.4906 109.042 78.4822 109.002 78.4839C108.962 78.4855 108.924 78.4972 108.89 78.5177C108.856 78.5383 108.828 78.5672 108.808 78.6016L108.807 78.6033L108.807 78.6033C108.713 78.7638 108.67 78.9485 108.682 79.1339C108.682 79.1469 108.682 79.16 108.681 79.173C108.669 79.3622 108.703 79.5514 108.782 79.7237M109.251 78.2399L109.117 78.5084C109.148 78.5242 109.176 78.5469 109.198 78.5748M109.251 78.2399C109.331 78.2802 109.401 78.3403 109.452 78.4147M108.782 79.7237C108.775 79.7166 108.769 79.7093 108.764 79.7018L108.527 79.8858L108.796 79.7537C108.791 79.7437 108.786 79.7338 108.782 79.7237ZM108.782 79.7237C108.798 79.7418 108.815 79.7585 108.834 79.7736M108.834 79.7736C108.833 79.7726 108.831 79.7716 108.83 79.7706L108.655 80.0142M108.834 79.7736C108.892 79.8134 108.963 79.8295 109.032 79.8183C109.094 79.8083 109.151 79.7772 109.192 79.7306M108.834 79.7736C108.836 79.7748 108.837 79.7761 108.839 79.7773L108.655 80.0142M108.655 80.0142L109.192 79.7306M109.192 79.7306C109.188 79.7416 109.183 79.7525 109.178 79.7634L109.452 79.8858L109.209 79.7095C109.204 79.7168 109.198 79.7239 109.192 79.7306ZM109.192 79.7306C109.276 79.5293 109.312 79.3111 109.297 79.0932C109.296 79.079 109.296 79.0647 109.297 79.0504C109.31 78.8856 109.275 78.7207 109.198 78.5748M109.192 79.7306L109.452 78.4147M109.198 78.5748C109.2 78.5782 109.203 78.5816 109.205 78.5851L109.452 78.4147M109.198 78.5748C109.195 78.5699 109.192 78.565 109.19 78.5602L109.452 78.4147M108.681 80.8088C108.682 80.8087 108.684 80.8106 108.686 80.8149C108.682 80.8111 108.681 80.8089 108.681 80.8088ZM108.332 82.5445C108.364 82.4893 108.407 82.4418 108.458 82.4048L109.303 82.4483C109.31 82.4486 109.317 82.4488 109.324 82.4486C109.483 82.4457 109.64 82.4925 109.771 82.5821C109.804 82.6171 109.83 82.6582 109.847 82.7032C109.866 82.7542 109.874 82.8088 109.87 82.8632C109.869 82.8756 109.869 82.8879 109.869 82.9003C109.872 82.9717 109.857 83.0426 109.826 83.1066C109.795 83.1692 109.749 83.2231 109.692 83.2635C109.488 83.3931 109.249 83.456 109.008 83.4433C108.997 83.4427 108.986 83.4427 108.976 83.4433C108.781 83.4539 108.59 83.3903 108.441 83.2656C108.382 83.2114 108.335 83.1451 108.304 83.0713C108.272 82.996 108.257 82.9147 108.259 82.833C108.26 82.8273 108.26 82.8216 108.259 82.8159C108.257 82.7218 108.282 82.6289 108.33 82.548L108.33 82.548L108.332 82.5445Z" fill="white" stroke="#171717" stroke-width="0.6" stroke-linejoin="round"/>
<path d="M112.255 78.5431C112.185 78.5937 112.119 78.6505 112.059 78.7128C112.079 78.7742 112.101 78.8454 112.126 78.9298L111.838 79.0138L111.575 78.8698C111.6 78.8246 111.626 78.7805 111.655 78.7378C111.675 78.708 111.696 78.6788 111.718 78.6503C111.713 78.6402 111.708 78.6303 111.703 78.6205C111.682 78.5758 111.661 78.5344 111.661 78.4949C111.873 78.3035 112.113 78.1464 112.373 78.0295L112.255 78.5431ZM112.255 78.5431C112.4 78.4392 112.575 78.3848 112.753 78.3879L112.255 78.5431ZM112.542 79.3918L112.135 79.5241C111.838 79.6106 111.569 79.7756 111.357 80.0016C111.352 80.0066 111.348 80.0118 111.343 80.0171C111.155 80.2478 111.057 80.5387 111.067 80.8359C111.058 81.0216 111.085 81.2074 111.147 81.3828C111.211 81.5631 111.311 81.7287 111.44 81.8698C111.444 81.8737 111.448 81.8776 111.451 81.8813C111.586 82.0138 111.747 82.1169 111.924 82.1841C112.098 82.2501 112.283 82.2801 112.469 82.2722C112.742 82.2748 113.012 82.2066 113.251 82.0741L113.251 82.0742L113.255 82.0717C113.34 82.0231 113.419 81.9668 113.492 81.9036C113.532 81.9493 113.576 81.9916 113.624 82.0297C113.817 82.1834 114.061 82.2584 114.307 82.24C114.464 82.2384 114.621 82.2222 114.775 82.1915L114.775 82.1915L114.779 82.1905C114.943 82.1551 115.104 82.105 115.259 82.0406C115.371 81.9941 115.444 81.8848 115.444 81.7635V81.5602C115.444 81.4763 115.409 81.3963 115.347 81.3395C115.285 81.2827 115.203 81.2543 115.119 81.2613C115.086 81.264 115.053 81.2598 115.022 81.2488C115.006 81.2433 114.991 81.2361 114.977 81.2273C114.924 81.095 114.904 80.9517 114.918 80.8094C114.919 80.7994 114.92 80.7893 114.92 80.7792V79.1824C114.931 78.9617 114.894 78.7411 114.811 78.5362C114.726 78.3286 114.597 78.1422 114.432 77.9906C114.426 77.9843 114.418 77.9784 114.411 77.9729C114.035 77.6858 113.568 77.5443 113.095 77.5744C112.805 77.5761 112.518 77.6376 112.252 77.7551L112.252 77.7551L112.25 77.7559C111.961 77.8857 111.695 78.0601 111.46 78.2726C111.397 78.3295 111.361 78.4102 111.361 78.4949C111.361 78.5994 111.403 78.6866 111.419 78.722C111.42 78.7227 111.42 78.7233 111.42 78.7239C111.429 78.7432 111.436 78.7566 111.441 78.7667C111.45 78.785 111.453 78.7925 111.457 78.8038C111.484 78.8835 111.514 78.9753 111.55 79.0978C111.584 79.2144 111.685 79.2989 111.806 79.3121C111.926 79.3252 112.043 79.2643 112.101 79.1578C112.181 79.0111 112.294 78.8844 112.43 78.7871L112.43 78.7869C112.522 78.7206 112.634 78.6859 112.748 78.6879L112.748 78.688L112.757 78.6879C112.816 78.6871 112.875 78.698 112.93 78.72C112.983 78.7409 113.03 78.7715 113.071 78.8101C113.154 78.9044 113.2 79.0249 113.202 79.1498C112.999 79.2519 112.784 79.3311 112.563 79.386C112.556 79.3877 112.549 79.3897 112.542 79.3918ZM112.955 80.2635C113.05 80.188 113.155 80.1265 113.266 80.0803V80.6722H113.266L113.266 80.6777C113.268 80.801 113.238 80.9225 113.178 81.0298C113.158 81.0499 113.135 81.0663 113.109 81.0781C113.077 81.0928 113.043 81.1002 113.008 81.0998C113.001 81.0997 112.994 81.0998 112.987 81.1002C112.965 81.1015 112.943 81.0972 112.922 81.0877C112.905 81.0797 112.89 81.0682 112.878 81.0539C112.818 80.9503 112.791 80.8309 112.8 80.7115C112.801 80.6993 112.802 80.6871 112.801 80.6749C112.798 80.5971 112.81 80.5194 112.839 80.4468C112.865 80.3786 112.905 80.3164 112.955 80.2635Z" fill="white" stroke="#171717" stroke-width="0.6" stroke-linejoin="round"/>
<path d="M116.797 78.7254H116.911L116.455 79.422L116.455 79.4224C115.812 80.4079 115.344 81.1206 115.042 81.5548C115.007 81.6051 114.988 81.6648 114.988 81.7261V81.8545C114.988 81.936 115.022 82.0141 115.08 82.0707C115.139 82.1272 115.218 82.1574 115.3 82.1542L116.118 82.1224H118.037L118.801 82.1542C118.883 82.1576 118.962 82.1275 119.021 82.071C119.08 82.0144 119.114 81.9362 119.114 81.8545V81.3623C119.114 81.1966 118.979 81.0623 118.814 81.0623C118.689 81.0623 118.564 81.0712 118.45 81.0799C118.442 81.0805 118.433 81.0811 118.425 81.0818C118.317 81.09 118.217 81.0975 118.117 81.0998C117.965 81.1033 117.814 81.1022 117.656 81.101C117.573 81.1004 117.489 81.0997 117.401 81.0997H117.238L118.311 79.4227L119.102 78.2094C119.134 78.1607 119.151 78.1038 119.151 78.0456V77.9867C119.151 77.821 119.017 77.6867 118.851 77.6867H118.118V77.6866L118.109 77.6869L117.263 77.7135H115.663C115.573 77.7135 115.489 77.7533 115.432 77.8221C115.378 77.8875 115.354 77.9726 115.366 78.0563C115.362 78.0819 115.362 78.1079 115.365 78.1336C115.367 78.1569 115.367 78.1804 115.365 78.2036C115.362 78.2276 115.362 78.2518 115.365 78.2757C115.368 78.2952 115.368 78.3149 115.365 78.3344C115.364 78.3468 115.363 78.3594 115.363 78.3719V78.4575C115.363 78.6232 115.497 78.7575 115.663 78.7575H115.754V78.7578L115.767 78.7572C116.241 78.7358 116.583 78.7254 116.797 78.7254Z" fill="white" stroke="#171717" stroke-width="0.6" stroke-linejoin="round"/>
<path d="M121.034 78.0052C121.039 77.9225 121.009 77.8415 120.953 77.7812C120.896 77.7209 120.817 77.6867 120.734 77.6867H119.531C119.365 77.6867 119.231 77.821 119.231 77.9867C119.231 78.2075 119.244 78.4392 119.256 78.652C119.263 78.7754 119.27 78.8925 119.273 78.9973C119.28 79.2016 119.278 79.4004 119.276 79.6053C119.275 79.7109 119.273 79.8181 119.273 79.9286V80.7845H119.273L119.273 80.7892C119.279 81.1353 119.265 81.4813 119.232 81.8258C119.223 81.9153 119.255 82.004 119.319 82.0674C119.383 82.1307 119.472 82.1621 119.561 82.1529L119.856 82.1224H120.414L120.703 82.1528C120.787 82.1617 120.872 82.1343 120.935 82.0774C120.998 82.0205 121.034 81.9395 121.034 81.8545C121.034 81.5752 121.019 81.3083 121.006 81.0795C121 80.9675 120.994 80.8646 120.991 80.7738C120.984 80.5788 120.987 80.3922 120.989 80.2058C120.99 80.1119 120.991 80.0181 120.991 79.9233V78.9817C120.991 78.6893 121.01 78.3913 121.03 78.0638C121.031 78.0443 121.032 78.0248 121.034 78.0052Z" fill="white" stroke="#171717" stroke-width="0.6" stroke-linejoin="round"/>
<path d="M119.272 76.8736C119.322 76.9934 119.397 77.1013 119.492 77.1903C119.576 77.2754 119.676 77.3425 119.787 77.3876C119.893 77.4311 120.008 77.4531 120.123 77.4524C120.237 77.4624 120.352 77.4509 120.462 77.4184C120.579 77.3839 120.687 77.3265 120.781 77.2496C120.876 77.1727 120.954 77.0778 121.011 76.9704C121.068 76.863 121.103 76.7454 121.114 76.6243L120.815 76.5969L121.114 76.6243C121.125 76.5032 121.112 76.3811 121.075 76.2651C121.039 76.1491 120.979 76.0416 120.901 75.9489L120.675 76.1404L120.901 75.9489C120.822 75.8561 120.726 75.78 120.617 75.7249C120.509 75.6698 120.391 75.6368 120.269 75.6279C120.264 75.6275 120.258 75.6273 120.252 75.6272C120.22 75.6145 120.186 75.6072 120.151 75.6059C119.91 75.5973 119.674 75.684 119.496 75.8473C119.318 76.0106 119.211 76.2375 119.199 76.4789L119.199 76.4789L119.199 76.486C119.195 76.6189 119.22 76.7511 119.272 76.8736Z" fill="white" stroke="#171717" stroke-width="0.6" stroke-linejoin="round"/>
<path d="M123.26 77.7959C123.219 77.8192 123.179 77.844 123.141 77.8701C123.091 77.7739 122.99 77.7081 122.874 77.7081H121.735C121.652 77.7081 121.572 77.7426 121.515 77.8032C121.459 77.8639 121.43 77.9454 121.435 78.0283C121.456 78.3422 121.472 78.6597 121.483 78.9809C121.493 79.2988 121.493 79.6186 121.483 79.9402L121.483 79.9402V79.95V80.8701H121.483L121.483 80.8764C121.49 81.2023 121.474 81.5282 121.437 81.8519C121.426 81.9423 121.457 82.0326 121.521 82.0973C121.585 82.1621 121.675 82.1943 121.765 82.185L122.06 82.1544H122.564L122.847 82.1848C122.932 82.1939 123.017 82.1666 123.08 82.1097C123.143 82.0528 123.179 81.9717 123.179 81.8865C123.179 81.465 123.169 81.0871 123.147 80.7534V79.9126C123.147 79.9063 123.147 79.9 123.147 79.8938C123.128 79.5913 123.174 79.2884 123.283 79.0056C123.304 78.9651 123.336 78.9315 123.376 78.9089C123.418 78.885 123.466 78.8746 123.514 78.8792C123.538 78.8814 123.561 78.8809 123.585 78.8776C123.631 78.8711 123.677 78.8783 123.719 78.8984C123.753 78.9147 123.783 78.9388 123.805 78.9686C123.907 79.2857 123.945 79.6199 123.918 79.9521C123.917 79.9603 123.917 79.9685 123.917 79.9768V81.0467H123.917L123.917 81.0573C123.926 81.3152 123.913 81.5733 123.877 81.8289C123.864 81.9201 123.894 82.0122 123.958 82.0786C124.022 82.145 124.113 82.1783 124.204 82.169L124.505 82.1384H125.042L125.348 82.169C125.432 82.1774 125.516 82.1498 125.579 82.0929C125.642 82.0361 125.678 81.9553 125.678 81.8705C125.678 81.7523 125.669 81.6342 125.659 81.5245C125.657 81.5042 125.656 81.4842 125.654 81.4645C125.646 81.3743 125.639 81.2897 125.635 81.2036C125.632 81.1548 125.63 81.1059 125.627 81.0568C125.618 80.8729 125.608 80.6867 125.608 80.4957V79.4847C125.618 79.1974 125.597 78.9098 125.544 78.6271L125.544 78.6271L125.543 78.619C125.501 78.4266 125.413 78.2474 125.285 78.0974L125.285 78.0974L125.282 78.0934C125.137 77.9285 124.955 77.8002 124.751 77.7188C124.546 77.6367 124.327 77.5949 124.106 77.5958C123.817 77.592 123.531 77.6582 123.274 77.7885C123.269 77.7909 123.264 77.7933 123.26 77.7959Z" fill="white" stroke="#171717" stroke-width="0.6" stroke-linejoin="round"/>
<path d="M129.074 81.3302C128.903 81.3941 128.722 81.4267 128.539 81.4265L126.646 81.3944C126.843 81.5817 127.077 81.726 127.333 81.8181C127.589 81.9102 127.861 81.9481 128.133 81.9293C128.384 81.9296 128.634 81.8972 128.876 81.833C129.09 81.7754 129.292 81.6832 129.475 81.5602L129.52 81.4451C129.604 81.3937 129.685 81.3362 129.762 81.273L129.642 81.1266L129.652 81.1002L129.572 81.0413C129.564 81.0477 129.556 81.0541 129.548 81.0603L129.372 80.9927L129.278 81.2376C129.212 81.2726 129.144 81.3036 129.074 81.3302ZM129.074 81.3302L128.967 81.0498C128.968 81.0497 128.968 81.0496 128.968 81.0495M129.074 81.3302L128.969 81.0491C128.969 81.0492 128.969 81.0494 128.968 81.0495M128.968 81.0495C128.831 81.1006 128.686 81.1266 128.54 81.1265L128.54 81.1263L128.53 81.1266C128.404 81.1306 128.278 81.1051 128.164 81.0522L128.038 81.3246L128.164 81.0522C128.051 81.0002 127.952 80.923 127.873 80.8266C127.737 80.6393 127.65 80.4228 127.616 80.1965H129.786C129.932 80.1965 130.057 80.0908 130.081 79.9465C130.09 79.8961 130.092 79.8448 130.087 79.794C130.091 79.7413 130.091 79.6884 130.086 79.6357C130.117 79.0787 129.93 78.5313 129.562 78.1105C129.555 78.1019 129.547 78.0938 129.539 78.0861C129.337 77.9021 129.099 77.7621 128.84 77.6751C128.588 77.5904 128.322 77.5578 128.057 77.5791C127.763 77.567 127.469 77.6144 127.193 77.7186C126.91 77.8252 126.652 77.989 126.436 78.1998L126.436 78.1996L126.428 78.208C126.219 78.428 126.057 78.6878 125.951 78.9721C125.846 79.2513 125.799 79.5485 125.81 79.8463C125.776 80.4861 125.996 81.1137 126.421 81.5934C126.427 81.5998 126.433 81.606 126.439 81.6119C126.666 81.8279 126.936 81.9942 127.231 82.1004C127.523 82.2054 127.833 82.2492 128.143 82.2293C128.416 82.2287 128.689 82.193 128.953 82.1231L128.953 82.1231L128.955 82.1226C129.199 82.0564 129.432 81.9506 129.642 81.8094C129.694 81.775 129.733 81.7255 129.756 81.6677L129.932 81.2076C129.981 81.0813 129.938 80.9382 129.829 80.8582L129.749 80.7994C129.639 80.7183 129.487 80.7225 129.381 80.8096C129.257 80.9114 129.118 80.9924 128.968 81.0495ZM128.235 78.6428C128.32 78.8281 128.364 79.0293 128.365 79.2327H127.607C127.623 79.0438 127.676 78.8591 127.761 78.6885C127.788 78.6406 127.827 78.6006 127.874 78.5723C127.922 78.5436 127.977 78.5281 128.033 78.5274C128.075 78.5275 128.116 78.5388 128.152 78.5601C128.186 78.5803 128.215 78.6087 128.235 78.6428Z" fill="white" stroke="#171717" stroke-width="0.6" stroke-linejoin="round"/>
<path d="M96.3237 53.2679C97.0547 52.4462 97.6834 51.5398 98.1967 50.5686C98.473 51.0281 98.7314 51.4982 98.9715 51.9777C99.0142 52.0631 99.095 52.123 99.1891 52.1391C99.2832 52.1552 99.3794 52.1256 99.448 52.0593L100.518 51.0268C100.634 50.9152 100.641 50.7322 100.534 50.6119C100.032 50.0454 99.4671 49.5377 98.851 49.0985C99.0395 48.6349 99.192 48.1574 99.307 47.6701C99.3256 47.5913 99.3116 47.5083 99.2681 47.44C99.2246 47.3718 99.1553 47.3239 99.076 47.3075L97.53 46.9865C97.4503 46.97 97.3674 46.9865 97.3001 47.0323C97.2329 47.0781 97.1871 47.1493 97.1733 47.2295C96.8566 49.0749 96.224 50.8519 95.3033 52.4823C95.2317 52.6092 95.2616 52.7693 95.3744 52.8618L95.9093 53.3004C96.0338 53.4025 96.2167 53.3882 96.3237 53.2679Z" fill="white" stroke="#171717" stroke-width="0.6" stroke-linejoin="round"/>
<path d="M110.265 47.4053C110.341 47.3764 110.402 47.3181 110.434 47.2437C110.466 47.1692 110.466 47.085 110.435 47.0102C109.941 45.8193 109.269 44.7107 108.441 43.7227C108.352 43.6162 108.201 43.5849 108.077 43.647L107.467 43.952C107.331 44.0197 107.268 44.178 107.318 44.3208C107.721 45.4531 108.048 46.6109 108.297 47.7865C108.315 47.8723 108.37 47.9458 108.447 47.9878C108.524 48.0297 108.616 48.0358 108.698 48.0045L110.265 47.4053Z" fill="white" stroke="#171717" stroke-width="0.6" stroke-linejoin="round"/>
<path d="M104.413 46.2478C104.413 46.0821 104.279 45.9478 104.113 45.9478H101.305L101.731 45.3524C101.778 45.2858 101.796 45.2028 101.781 45.1224C101.766 45.0421 101.719 44.9714 101.651 44.9267C100.649 44.2728 99.5523 43.7781 98.3993 43.4603C98.2563 43.4209 98.1059 43.4919 98.0456 43.6275L97.7834 44.2159C97.7278 44.3408 97.7637 44.4875 97.8706 44.5727C98.4118 45.0036 98.9313 45.4607 99.4274 45.9424H95.9016C95.7359 45.9424 95.6016 46.0767 95.6016 46.2424V47.0984C95.6016 47.264 95.7359 47.3984 95.9016 47.3984H104.113C104.279 47.3984 104.413 47.264 104.413 47.0984V46.2478Z" fill="white" stroke="#171717" stroke-width="0.6" stroke-linejoin="round"/>
<path d="M95.9443 60.747C97.1167 59.894 98.1625 58.8818 99.052 57.7407V61.815C99.052 61.9807 99.1863 62.115 99.352 62.115H100.989C101.155 62.115 101.289 61.9807 101.289 61.815V57.277C101.766 57.851 102.219 58.4443 102.648 59.0556C102.7 59.1305 102.784 59.1774 102.875 59.1829C102.967 59.1884 103.056 59.1519 103.117 59.0839L104.245 57.8267C104.299 57.7669 104.327 57.6881 104.322 57.6079C104.317 57.5276 104.28 57.4528 104.219 57.4C103.32 56.6174 102.337 55.9369 101.289 55.3706V55.1445H104.151C104.216 55.1445 104.277 55.1233 104.327 55.0874V61.7241C104.327 61.8897 104.461 62.0241 104.627 62.0241H106.301C106.467 62.0241 106.601 61.8897 106.601 61.7241V60.5529H112.721C112.886 60.5529 113.021 60.4186 113.021 60.2529V59.3756C113.021 59.2099 112.886 59.0756 112.721 59.0756H110.105V56.3803H112.014C112.18 56.3803 112.314 56.246 112.314 56.0803V55.2243C112.314 55.0587 112.18 54.9243 112.014 54.9243H110.105V52.55H111.998C112.164 52.55 112.298 52.4157 112.298 52.25V51.3941C112.298 51.2284 112.164 51.0941 111.998 51.0941H110.105V49.1423H112.48C112.646 49.1423 112.78 49.008 112.78 48.8423V47.981C112.78 47.8153 112.646 47.681 112.48 47.681H106.606C106.899 46.5969 107.096 45.4887 107.194 44.3694C107.207 44.2168 107.103 44.0787 106.953 44.049L105.22 43.7066C105.137 43.6903 105.051 43.7096 104.983 43.7598C104.915 43.81 104.872 43.8865 104.863 43.9705C104.603 46.5255 104.372 48.4433 103.844 50.2144C103.473 49.8539 103.07 49.5276 102.64 49.2397C102.83 48.7603 102.982 48.2666 103.095 47.7631C103.131 47.6037 103.033 47.4451 102.874 47.4062L101.328 47.0264C101.243 47.0055 101.153 47.0227 101.082 47.0736C101.011 47.1244 100.965 47.2037 100.958 47.2908C100.814 48.8896 100.381 50.4484 99.6793 51.8911H99.3734C99.2077 51.8911 99.0734 52.0255 99.0734 52.1911V53.6832H95.7838C95.6182 53.6832 95.4838 53.8176 95.4838 53.9832V54.8445C95.4838 55.0102 95.6182 55.1445 95.7838 55.1445H98.4611C97.6404 56.8627 96.5222 58.4236 95.1571 59.7546C95.0492 59.8598 95.0361 60.0288 95.1266 60.1494L95.5278 60.6844C95.6262 60.8155 95.8117 60.8434 95.9443 60.747ZM104.151 53.6832H101.289V52.1911C101.289 52.1037 101.252 52.025 101.192 51.9702C101.465 51.5696 101.715 51.1542 101.942 50.7261C102.224 51.1593 102.478 51.6101 102.704 52.0757C102.745 52.161 102.824 52.2219 102.917 52.2397C102.977 52.2512 103.038 52.244 103.093 52.2203C103.064 52.2828 103.034 52.3452 103.004 52.4073C102.94 52.5373 102.979 52.694 103.095 52.78L103.63 53.1759C103.762 53.2735 103.948 53.247 104.047 53.1163C104.143 52.9899 104.236 52.8576 104.327 52.7228V53.7403C104.277 53.7044 104.216 53.6832 104.151 53.6832ZM106.538 51.0941L106.546 49.1423H107.788V51.0941H106.538ZM106.538 54.9243L106.547 52.55H107.788V54.9243H106.538ZM106.538 59.0756L106.547 56.3803H107.788V59.0756H106.538Z" fill="white" stroke="#171717" stroke-width="0.6" stroke-linejoin="round"/>
<path d="M130.78 54.6058C130.834 54.5455 130.861 54.466 130.855 54.3853C130.85 54.3046 130.812 54.2296 130.75 54.1772C129.709 53.2922 128.539 52.5692 127.282 52.0329C127.147 51.9754 126.991 52.0237 126.912 52.1471L126.569 52.6821C126.492 52.8023 126.511 52.9601 126.613 53.0593C127.526 53.9432 128.39 54.8763 129.202 55.8545C129.257 55.9217 129.34 55.9613 129.427 55.963C129.514 55.9646 129.598 55.928 129.656 55.8629L130.78 54.6058Z" fill="white" stroke="#171717" stroke-width="0.6" stroke-linejoin="round"/>
<path d="M132.947 51.0941H129.492V48.3987H133.193C133.359 48.3987 133.493 48.2644 133.493 48.0987V47.2374C133.493 47.0718 133.359 46.9374 133.193 46.9374H129.492V44.0384C129.492 43.8727 129.358 43.7384 129.192 43.7384H127.48C127.314 43.7384 127.18 43.8727 127.18 44.0384V46.9374H123.553C123.388 46.9374 123.253 47.0718 123.253 47.2374V48.0987C123.253 48.2644 123.388 48.3987 123.553 48.3987H127.18V51.0941H123.955C123.789 51.0941 123.655 51.2284 123.655 51.3941V52.25C123.655 52.4157 123.789 52.55 123.955 52.55H132.947C133.113 52.55 133.247 52.4157 133.247 52.25V51.3941C133.247 51.2284 133.113 51.0941 132.947 51.0941Z" fill="white" stroke="#171717" stroke-width="0.6" stroke-linejoin="round"/>
<path d="M134.017 58.6919C134.163 58.6194 134.224 58.4443 134.156 58.297C133.499 56.8834 132.61 55.5898 131.526 54.47C131.425 54.3658 131.264 54.3487 131.143 54.4294L130.608 54.7879C130.484 54.8709 130.44 55.0324 130.505 55.1669C131.139 56.488 131.67 57.8561 132.093 59.2589C132.119 59.3436 132.18 59.4126 132.261 59.4477C132.342 59.4828 132.435 59.4802 132.514 59.4408L134.017 58.6919Z" fill="white" stroke="#171717" stroke-width="0.6" stroke-linejoin="round"/>
<path d="M131.139 56.8925C131.103 56.7631 130.985 56.6736 130.85 56.6736H130.166C130 56.6736 129.866 56.808 129.866 56.9736C129.866 57.6111 129.865 58.0919 129.845 58.4611C129.823 58.8365 129.782 59.0566 129.721 59.1914C129.671 59.3006 129.61 59.3542 129.493 59.392C129.35 59.4383 129.137 59.4554 128.791 59.4554C128.499 59.4554 128.285 59.4402 128.127 59.4103C127.969 59.3804 127.889 59.3396 127.846 59.3043C127.774 59.2452 127.721 59.1329 127.721 58.7443V54.0795C127.721 53.9138 127.587 53.7795 127.421 53.7795H125.741C125.576 53.7795 125.441 53.9138 125.441 54.0795V59.0493C125.441 59.5666 125.464 59.9984 125.554 60.347C125.646 60.7072 125.813 60.996 126.108 61.2017C126.39 61.3985 126.757 61.4967 127.202 61.5505C127.649 61.6047 128.212 61.6175 128.908 61.6175C129.664 61.6175 130.259 61.5411 130.704 61.3548C131.166 61.1612 131.466 60.8483 131.607 60.4091C131.742 59.9921 131.724 59.489 131.631 58.9217C131.536 58.3496 131.358 57.6728 131.139 56.8925Z" fill="white" stroke="#171717" stroke-width="0.6" stroke-linejoin="round"/>
<path d="M123.452 47.2374C123.452 47.0718 123.318 46.9374 123.152 46.9374H121.275L121.564 46.7158C121.629 46.6659 121.671 46.5916 121.68 46.5101C121.689 46.4287 121.664 46.3472 121.611 46.2845C120.745 45.2569 119.736 44.3586 118.615 43.617C118.497 43.5383 118.339 43.5543 118.238 43.6551L117.762 44.1312C117.659 44.2342 117.645 44.3963 117.728 44.5155C118.099 45.0449 118.671 45.9896 119.224 46.9374H116.808C116.642 46.9374 116.508 47.0718 116.508 47.2374V48.0987C116.508 48.2644 116.642 48.3987 116.808 48.3987H123.152C123.318 48.3987 123.452 48.2644 123.452 48.0987V47.2374Z" fill="white" stroke="#171717" stroke-width="0.6" stroke-linejoin="round"/>
<path d="M120.798 61.4381C120.8 61.6026 120.933 61.7352 121.098 61.7352H122.532C122.697 61.7352 122.832 61.6009 122.832 61.4352V59.727L123.631 60.3223C123.763 60.4208 123.95 60.3941 124.05 60.2626C124.979 59.0327 125.424 57.2831 125.538 55.241C125.546 55.0919 125.444 54.9594 125.297 54.9302L124.629 54.7964C124.549 54.7806 124.467 54.7974 124.4 54.843C124.334 54.8886 124.288 54.9593 124.274 55.0389C124.072 56.1943 123.573 57.2727 122.832 58.1707V55.1922C122.832 55.0265 122.697 54.8922 122.532 54.8922H117.407C117.241 54.8922 117.107 55.0265 117.107 55.1922V61.724C117.107 61.8897 117.241 62.024 117.407 62.024H118.894C119.06 62.024 119.194 61.8897 119.194 61.724V60.6332H120.79L120.798 61.4381ZM120.798 59.1719H119.226V56.3054H120.798V59.1719Z" fill="white" stroke="#171717" stroke-width="0.6" stroke-linejoin="round"/>
<path d="M123.014 52.5175C123.014 52.3518 122.879 52.2175 122.714 52.2175H117.359C117.193 52.2175 117.059 52.3518 117.059 52.5175V53.3199C117.059 53.4856 117.193 53.6199 117.359 53.6199H122.714C122.879 53.6199 123.014 53.4856 123.014 53.3199V52.5175Z" fill="white" stroke="#171717" stroke-width="0.6" stroke-linejoin="round"/>
<path d="M123.014 49.8855C123.014 49.7198 122.879 49.5855 122.714 49.5855H117.359C117.193 49.5855 117.059 49.7198 117.059 49.8855V50.6879C117.059 50.8536 117.193 50.9879 117.359 50.9879H122.714C122.879 50.9879 123.014 50.8536 123.014 50.6879V49.8855Z" fill="white" stroke="#171717" stroke-width="0.6" stroke-linejoin="round"/>
<path d="M88.8814 60.3314L88.8814 60.3315C89.3237 60.571 89.7228 60.8829 90.062 61.2542L90.0695 61.2624L90.0694 61.2626C91.4185 62.8536 92.6668 64.8497 91.6739 67.2164C91.5593 67.4909 91.4352 67.6712 91.2518 67.8156C91.1293 67.9119 90.9768 67.9915 90.8169 68.0749C90.7694 68.0997 90.7213 68.1248 90.673 68.1508C90.523 68.2317 90.4272 68.3273 90.3042 68.4501C90.2706 68.4836 90.235 68.5191 90.1957 68.557C90.0155 68.7303 89.7911 68.9083 89.4174 68.9738C89.417 68.9739 89.4165 68.9739 89.416 68.974L89.3644 68.6785C88.578 68.8238 87.7765 68.8705 86.9785 68.8176L88.8814 60.3314ZM88.8814 60.3314L88.8761 60.3287L88.7291 60.2528C88.4651 60.0666 88.1784 59.9147 87.8759 59.801C87.8654 59.797 87.8547 59.7937 87.8439 59.7909C87.59 59.7267 87.3339 59.7112 87.1075 59.6986C87.0988 59.6981 87.0901 59.6977 87.0815 59.6972C86.857 59.6847 86.662 59.6739 86.4751 59.6334L86.4742 59.6332C86.3115 59.5985 86.1468 59.5617 85.9807 59.5246C85.5233 59.4224 85.0547 59.3177 84.5844 59.2457C83.7541 59.0887 82.8994 59.1176 82.0816 59.3303C81.6533 59.4299 81.258 59.6383 80.934 59.9356C80.9169 59.9513 80.9016 59.9689 80.8886 59.9882C80.7051 60.2585 80.5944 60.5713 80.5667 60.8965C80.5006 61.1801 80.4674 61.4705 80.4677 61.7618L80.4675 61.7618L80.4679 61.7722C80.5064 62.8524 80.8274 63.9037 81.3988 64.8212C81.6803 65.3043 82.0028 65.7625 82.3625 66.1906C82.6982 66.6358 83.0875 67.0378 83.5218 67.3875C83.5345 67.3978 83.5481 67.407 83.5623 67.415C83.9006 67.6063 84.189 67.8746 84.4041 68.1983C84.4195 68.2233 84.4349 68.249 84.4505 68.2749C84.5092 68.373 84.57 68.4745 84.6418 68.5554C84.7503 68.6776 84.8813 68.7588 85.0663 68.844C85.0796 68.8501 85.0934 68.8553 85.1074 68.8594C85.7123 69.0366 86.34 69.1236 86.9703 69.1177L88.8814 60.3314Z" fill="white" stroke="#171717" stroke-width="0.6" stroke-linejoin="round"/>
</g>
<path d="M140 2.83643L20 122.836" stroke="#D60C18" stroke-width="3" stroke-linecap="square" stroke-linejoin="round"/>
<defs>
<clipPath id="clip0_737_2803">
<rect width="160" height="58.8452" fill="white" transform="translate(0 32.8364)"/>
</clipPath>
</defs>
</svg>
