<svg width="160" height="125" viewBox="0 0 160 125" fill="none" xmlns="http://www.w3.org/2000/svg">
<g clip-path="url(#clip0_737_2781)">
<path d="M152 35.3096H8V88.2702H152V35.3096Z" fill="#D60C18"/>
<path d="M23.5994 50.36C24.3866 50.8613 25.339 51.0342 26.2522 50.8415C27.1237 50.6296 27.9903 50.3889 28.8521 50.1434C30.3639 49.7101 31.866 49.243 33.3875 48.8338C34.1433 48.6316 34.9041 48.439 35.6696 48.2705C36.0163 48.2161 36.3578 48.1324 36.6903 48.0201C37.0321 47.8853 37.3354 47.6687 37.6532 47.5387C38.1347 47.3124 38.6161 47.1054 39.1313 46.9031C40.5757 46.3158 43.6666 45.5888 42.9011 43.3644C42.6604 42.647 41.9382 42.3293 41.3075 41.9971C40.6416 41.7067 39.9065 41.6132 39.1891 41.7274C38.4923 41.7358 37.8169 41.9688 37.2632 42.3919C36.5121 43.3307 35.2652 43.6148 34.3263 44.3658C33.9941 44.6162 33.5415 44.621 33.2093 44.8762C33.0456 45.0014 32.9927 45.1073 32.7953 45.1651C32.623 45.1899 32.4493 45.2027 32.2753 45.2036C31.9479 45.2469 31.6253 45.2903 31.3124 45.3432C30.3794 45.4664 29.4675 45.7158 28.6017 46.0847C28.1686 46.2964 27.7532 46.5428 27.3596 46.8213C26.9792 47.0765 26.6181 46.9754 26.1848 47.0043C25.7515 47.0331 25.4 47.0765 25.0052 47.1342L23.8305 47.3316L23.2383 47.4183C23.0381 47.4042 22.837 47.4287 22.6461 47.4905C22.5036 47.6153 22.4082 47.7852 22.3757 47.9718C22.3433 48.1584 22.3759 48.3505 22.4679 48.516C22.8098 49.2286 22.8579 49.9267 23.5994 50.36Z" fill="white"/>
<path d="M82.4723 49.3297C83.1801 49.1419 83.7915 48.983 84.167 48.2994C84.2826 48.0875 84.4078 47.8757 84.5137 47.659C84.7503 47.2365 84.8637 46.7561 84.8411 46.2724C84.658 45.8941 84.3664 45.579 84.0034 45.3673C83.3185 45.0308 82.5835 44.8081 81.8272 44.7077C80.9509 44.5199 80.0361 44.3032 79.1502 44.1877C78.6258 44.1264 78.0944 44.1672 77.5855 44.3081C76.5781 44.5768 75.5956 44.9312 74.6486 45.3673C73.5605 45.8487 72.2413 45.5599 71.2254 46.2243C70.7861 46.4309 70.3131 46.5565 69.8292 46.595C69.2273 46.7346 68.6592 46.9753 68.0718 47.1679C67.0656 47.4905 66.0593 47.8035 65.0386 48.0827C64.3116 48.2801 63.5557 48.0827 62.8335 48.4294C62.5533 48.6328 62.2571 48.8131 61.9477 48.9686C61.6251 49.0793 61.2977 49.2286 60.9847 49.3393C59.8292 49.7437 58.5774 50.023 57.393 50.3359C55.2939 51.0581 52.9492 50.7452 50.7922 51.1496C50.1663 51.3085 49.5115 51.4 49.0445 51.9007C48.8904 52.6421 49.4297 52.9262 49.9111 53.2777C50.3926 53.6291 50.8115 54.3176 51.3892 54.6835C51.9108 54.9721 52.457 55.2137 53.0214 55.4057C54.2828 55.9161 55.4672 56.5853 56.8249 56.8501C57.5712 56.9945 59.1022 57.1727 59.7811 56.7201C60.5803 56.1857 61.4806 55.815 62.2558 55.2372C62.6169 54.9676 62.9058 54.6161 63.2765 54.361C63.6944 54.1313 64.0994 53.8789 64.4898 53.6051C64.9686 53.1168 65.5035 52.6869 66.0834 52.3244C66.8297 52.1992 67.5278 51.3615 68.2692 51.8862C68.6255 52.0499 68.457 52.3677 68.4763 52.6903C68.4955 53.0129 68.7314 53.4028 68.7314 53.788C68.7204 54.1601 68.6605 54.5292 68.5533 54.8857V55.4828C68.924 62.6421 68.3029 69.4451 67.677 76.667C67.3882 77.5577 67.7396 78.3714 67.9418 79.2332C67.9697 79.5755 68.0442 79.9125 68.1633 80.2346C68.514 80.8545 69.0399 81.3569 69.6751 81.679C70.951 82.1027 72.7372 82.3145 73.7434 81.1976C74.7689 80.7161 75.0867 79.7532 75.236 78.6988C75.3811 77.7641 75.4759 76.8223 75.52 75.8774C75.519 75.1312 75.4054 74.3894 75.183 73.6771C75.0963 73.3064 75.0723 72.9261 74.9856 72.5553C74.8412 71.968 74.6534 71.3806 74.5523 70.7836C74.1153 67.9284 73.8964 65.0442 73.8975 62.1558C73.9601 60.23 73.4594 57.8227 73.209 56.1568C72.6457 54.905 73.4305 53.6532 72.8335 52.4014C72.5687 51.7803 72.6842 51.0196 72.6794 50.3648C72.6794 49.8063 73.0646 49.5993 73.5171 49.3586C73.6869 49.2674 73.848 49.161 73.9986 49.0408C74.1641 48.9307 74.3486 48.8524 74.5427 48.8097C74.7256 48.7471 74.9086 48.6942 75.0963 48.646C76.4444 48.2994 77.961 48.0779 79.2032 48.8723C79.5234 49.1214 79.8925 49.3002 80.2865 49.3971C81.0095 49.5554 81.7604 49.5323 82.4723 49.3297Z" fill="white"/>
<path d="M58.096 76.3782C57.8203 76.1318 57.5146 75.9215 57.186 75.7523C56.8105 75.6078 56.3964 75.5837 56.016 75.4489C55.0495 75.0729 54.1289 74.5883 53.2717 74.0045C53.0891 73.8603 52.896 73.73 52.694 73.6146C52.4943 73.5615 52.289 73.5324 52.0825 73.5279C51.6925 73.4461 51.4614 73.085 51.1196 72.9068C50.9607 72.8202 50.7537 72.7913 50.6381 72.6468C50.2835 72.3442 49.888 72.093 49.4634 71.9006C49.0782 71.6406 48.6545 71.5587 48.2597 71.3324C47.9218 71.1205 47.5999 70.884 47.2968 70.6247C46.7494 70.071 46.1366 69.586 45.4721 69.1803C43.1322 68.097 41.5385 65.3816 39.8005 63.5954C38.6738 62.565 37.2391 61.1303 37.268 59.3441C37.7494 58.2223 39.112 57.8467 40.1134 57.3123C41.3652 56.3783 43.1466 55.8679 43.864 54.3754C43.9897 54.1031 44.047 53.8042 44.0311 53.5047C44.0152 53.2052 43.9264 52.914 43.7725 52.6566C43.3633 51.8092 42.3281 51.8429 41.5193 51.53C41.0167 51.4861 40.5105 51.545 40.0316 51.7033C39.2375 52.0042 38.5145 52.4665 37.9083 53.061C37.6194 53.321 37.3643 53.6484 37.0609 53.8939C36.7342 54.0968 36.3763 54.2448 36.0017 54.3321C35.8183 54.4303 35.6081 54.4666 35.4024 54.4353C35.1967 54.4041 35.0066 54.307 34.8607 54.1587C34.559 53.3239 34.1267 52.5422 33.58 51.8429C33.3995 51.7478 33.201 51.692 32.9974 51.6792C32.8048 51.6311 32.6845 51.477 32.516 51.4289C32.2319 51.347 31.8612 51.5492 31.553 51.5492C31.1752 51.5026 30.792 51.5238 30.4216 51.6118C29.9904 51.7846 29.6213 52.0832 29.3624 52.4688C29.0735 52.8973 29.1987 53.2199 29.1409 53.6965C29.1072 54.0191 29.0302 54.3321 28.9676 54.6595C28.891 54.9751 28.8474 55.2978 28.8376 55.6224C28.8817 55.9174 28.9476 56.2087 29.035 56.4938C29.0594 56.9184 28.9754 57.3422 28.7909 57.7254C28.6065 58.1086 28.3276 58.4387 27.9806 58.6845C27.668 58.9507 27.3292 59.1846 26.9695 59.3826C26.5507 59.6137 26.074 59.6715 25.6407 59.8641C25.2425 60.0563 24.8595 60.2784 24.4948 60.5285C24.1241 60.774 23.7582 61.0099 23.3682 61.2362C22.9782 61.4625 22.5112 61.5155 22.126 61.7177C21.4376 62.0595 20.6239 62.1221 19.9354 62.4062C19.1843 62.5602 17.8748 62.281 17.5281 63.215C17.6574 64.0477 18.0526 64.8161 18.6547 65.4057C19.0591 66.3108 20.2484 66.6238 21.062 67.2208C22.2801 67.6252 23.503 67.033 24.6585 67.1245C25.0967 68.7518 24.9715 70.4369 23.8449 71.6261C23.6366 72.2661 23.3225 72.8666 22.9156 73.4027C22.7142 73.6612 22.4954 73.9057 22.2609 74.1345C22.049 74.3368 21.9672 74.616 21.7553 74.8278C21.5222 75.1168 21.2555 75.377 20.9609 75.603C20.5276 75.8534 20.3735 75.5356 20.0317 75.3238C19.8178 75.1982 19.5854 75.1073 19.3432 75.0541C18.8652 74.9528 18.3699 74.9676 17.8988 75.0975C17.5655 75.2567 17.2933 75.5204 17.1237 75.8485C16.8704 76.0909 16.7016 76.4082 16.6422 76.7537C16.682 76.9691 16.7367 77.1814 16.8059 77.3892C16.8974 77.837 16.7289 78.1114 17.037 78.5255C17.2777 78.8432 17.2103 78.9732 17.2633 79.3536C17.3017 79.529 17.379 79.6935 17.4896 79.835C17.697 80.0947 17.942 80.3219 18.2166 80.5091C18.4508 80.6839 18.7085 80.8249 18.9821 80.9279C19.2483 80.973 19.5119 81.0325 19.7717 81.1061C20.2421 81.3779 20.779 81.5129 21.322 81.4961C22.2368 81.4527 23.0167 81.0676 23.8737 80.7931C24.2851 80.6959 24.6841 80.5521 25.063 80.3646C25.4092 80.1321 25.7318 79.866 26.0259 79.5702C26.4255 79.2188 26.8107 78.8529 27.1766 78.4677C27.8373 77.7898 28.4351 77.0533 28.9628 76.2674C29.229 75.8794 29.4717 75.4759 29.6898 75.0589C29.8872 74.6882 29.9787 74.2886 30.1712 73.9131C30.2627 73.706 30.4024 73.5231 30.489 73.3161C30.6662 72.9368 30.8127 72.544 30.9271 72.1413C31.0092 71.7802 31.1439 71.433 31.3268 71.111C31.5851 70.4991 31.7381 69.848 31.7793 69.1851C31.8323 68.8914 31.943 68.6074 31.996 68.3137C32.0489 68.02 32.0393 67.5963 32.1163 67.2448C32.2346 66.7299 32.445 66.2405 32.7374 65.8005C33.4524 65.9365 34.0863 66.3458 34.5044 66.9415C34.7489 67.2197 35.011 67.4818 35.2892 67.7263C35.6166 68.0056 35.8332 68.3859 36.1606 68.6555C37.1235 69.4162 37.7831 70.5477 38.4716 71.5443C39.3238 72.7576 40.1327 73.9997 40.98 75.2178C41.8274 76.4359 42.5592 77.577 43.6907 78.4388C44.5288 79.1649 45.4133 79.8355 46.3387 80.4465C47.0272 80.8413 47.9179 80.7257 48.6786 80.7402C50.0691 80.7354 51.4581 80.6486 52.8384 80.4802C53.5221 80.408 54.2106 80.3358 54.8942 80.2876C55.2163 80.2972 55.5386 80.2778 55.8572 80.2298C56.4349 80.1672 57.0271 79.9024 57.6 79.811C58.173 79.7195 58.8711 79.6039 59.2563 79.1321C59.4131 78.9423 59.5239 78.7188 59.5798 78.4791C59.6358 78.2393 59.6355 77.9899 59.5788 77.7503C59.3429 77.0859 58.6256 76.7537 58.096 76.3782Z" fill="white"/>
<path d="M96.8391 71.3806C97.1078 71.3846 97.376 71.3571 97.6383 71.2987C97.8899 71.2427 98.1339 71.1571 98.3653 71.0436L98.5387 70.4562H98.452C98.2509 70.6282 98.0211 70.7635 97.7731 70.8558C97.5377 70.9517 97.2859 71.0008 97.0317 71.0002C96.7853 71.0166 96.5387 70.9736 96.3124 70.8747C96.0862 70.7758 95.8871 70.624 95.7317 70.4321C95.4036 69.9501 95.246 69.3722 95.284 68.7903C95.249 68.238 95.4055 67.6905 95.7269 67.24C95.8707 67.0556 96.0571 66.9089 96.2702 66.8125C96.4832 66.7161 96.7164 66.6728 96.9498 66.6864C97.2549 66.6757 97.5568 66.7507 97.8213 66.903C98.0533 67.0342 98.2257 67.2497 98.3027 67.5048H98.4087C98.4246 67.3429 98.4503 67.1822 98.4857 67.0234C98.5152 66.8803 98.5522 66.7389 98.5964 66.5997C98.3338 66.4846 98.0615 66.3928 97.7828 66.3253C97.517 66.2676 97.2458 66.2386 96.9739 66.2386C96.2236 66.199 95.4871 66.4508 94.9181 66.9415C94.6613 67.179 94.4594 67.4696 94.3264 67.793C94.1934 68.1165 94.1324 68.465 94.1477 68.8144C94.1269 69.1672 94.1795 69.5205 94.3022 69.852C94.4248 70.1835 94.6149 70.4859 94.8603 70.7402C95.4101 71.2055 96.121 71.4356 96.8391 71.3806Z" fill="white"/>
<path d="M102.559 69.5414C102.573 69.2937 102.538 69.0455 102.456 68.8116C102.373 68.5776 102.244 68.3625 102.077 68.1789C101.707 67.8758 101.238 67.7213 100.76 67.7455C100.282 67.7696 99.8307 67.9707 99.493 68.3095C99.1554 68.6483 98.956 69.1007 98.9335 69.5785C98.9111 70.0563 99.0672 70.5253 99.3716 70.8943C99.5518 71.062 99.7642 71.1912 99.996 71.2739C100.228 71.3567 100.474 71.3914 100.72 71.3758C100.939 71.3977 101.16 71.3763 101.371 71.3126C101.582 71.249 101.778 71.1444 101.948 71.0049C102.119 70.8654 102.26 70.6937 102.364 70.4996C102.468 70.3054 102.532 70.0927 102.554 69.8736C102.564 69.7631 102.564 69.6519 102.554 69.5414H102.559ZM101.312 70.7114C101.258 70.8196 101.174 70.9098 101.07 70.9706C100.965 71.0313 100.845 71.0601 100.724 71.0532C100.605 71.0607 100.486 71.0321 100.383 70.9712C100.28 70.9102 100.198 70.8197 100.147 70.7114C100.009 70.3377 99.9529 69.9386 99.983 69.5414C99.9582 69.1404 100.017 68.7387 100.156 68.3618C100.241 68.2075 100.383 68.0929 100.552 68.0433C100.721 67.9936 100.902 68.013 101.057 68.097C101.167 68.1595 101.259 68.2511 101.321 68.3618C101.46 68.7372 101.519 69.1372 101.495 69.5366C101.519 69.9368 101.456 70.3374 101.312 70.7114Z" fill="white"/>
<path d="M108.62 71.2843C108.62 71.0436 108.611 70.8125 108.592 70.591V69.4933C108.601 69.1616 108.582 68.8297 108.534 68.5015C108.5 68.3373 108.428 68.1837 108.322 68.0537C108.224 67.9391 108.1 67.8498 107.961 67.7937C107.776 67.725 107.579 67.6963 107.382 67.7096C107.185 67.7228 106.994 67.7778 106.82 67.8707C106.62 67.9987 106.454 68.174 106.338 68.3811C106.266 68.1827 106.131 68.0136 105.953 67.8996C105.766 67.7806 105.548 67.7202 105.327 67.7263C105.122 67.7204 104.919 67.7651 104.735 67.8563C104.548 67.9659 104.384 68.1115 104.254 68.2848V67.8033H103.238C103.238 68.1981 103.262 68.54 103.271 68.8288C103.281 69.1177 103.271 69.3536 103.271 69.5462V70.2684C103.271 70.5621 103.271 70.9088 103.238 71.2939H104.316V71.2265C104.316 70.9473 104.287 70.7451 104.287 70.6343V69.4644C104.268 69.1593 104.316 68.8537 104.427 68.5689C104.477 68.4944 104.545 68.4334 104.624 68.3912C104.704 68.349 104.792 68.327 104.882 68.327C104.972 68.327 105.06 68.349 105.139 68.3912C105.219 68.4334 105.287 68.4944 105.337 68.5689C105.453 68.9589 105.495 69.367 105.462 69.7725V70.4995C105.462 70.7451 105.438 71.0195 105.419 71.2891H106.507V69.4644C106.484 69.1611 106.53 68.8566 106.642 68.5737C106.696 68.4962 106.768 68.4329 106.852 68.3892C106.935 68.3456 107.029 68.3228 107.123 68.3228C107.218 68.3228 107.311 68.3456 107.395 68.3892C107.478 68.4329 107.55 68.4962 107.605 68.5737C107.717 68.9181 107.761 69.2812 107.735 69.6425V70.4032C107.735 70.6825 107.71 70.9665 107.686 71.2843H108.649H108.62Z" fill="white"/>
<path d="M111.692 71.2843H112.78V69.4644C112.757 69.1611 112.803 68.8566 112.915 68.5737C112.969 68.4962 113.041 68.4329 113.125 68.3892C113.209 68.3456 113.302 68.3228 113.397 68.3228C113.491 68.3228 113.584 68.3456 113.668 68.3892C113.752 68.4329 113.824 68.4962 113.878 68.5737C113.991 68.9181 114.035 69.2812 114.008 69.6425V70.4032C114.008 70.6825 114.008 70.9665 113.96 71.2843H115.048C115.048 71.0436 115.038 70.8125 115.019 70.591V69.4933C114.995 69.1682 114.942 68.846 114.86 68.5303C114.827 68.3662 114.754 68.2126 114.648 68.0826C114.551 67.968 114.427 67.8787 114.287 67.8226C114.102 67.7539 113.905 67.7252 113.708 67.7385C113.512 67.7517 113.32 67.8067 113.146 67.8996C112.946 68.0276 112.781 68.2029 112.665 68.41C112.593 68.2116 112.457 68.0424 112.28 67.9285C112.093 67.8095 111.875 67.7491 111.654 67.7552C111.449 67.7493 111.245 67.794 111.061 67.8852C110.873 67.9933 110.709 68.1392 110.58 68.3137V67.8322H109.559C109.559 68.227 109.588 68.5689 109.593 68.8577C109.598 69.1466 109.593 69.3825 109.593 69.5751V70.2973C109.593 70.591 109.593 70.9376 109.559 71.3228H110.619V71.2554C110.619 70.9762 110.594 70.7739 110.594 70.6632V69.4644C110.571 69.1595 110.618 68.8534 110.729 68.5689C110.77 68.5087 110.823 68.4573 110.884 68.4175C110.945 68.3777 111.013 68.3503 111.084 68.3369C111.156 68.3235 111.23 68.3243 111.301 68.3393C111.372 68.3543 111.44 68.3833 111.5 68.4244C111.557 68.4624 111.606 68.5116 111.644 68.5689C111.755 68.9598 111.798 69.3671 111.769 69.7725V70.4995C111.769 70.7451 111.707 71.0147 111.692 71.2843Z" fill="white"/>
<path d="M119.299 69.5414C119.316 69.2935 119.282 69.0447 119.199 68.8105C119.116 68.5762 118.987 68.3612 118.818 68.1789C118.447 67.8855 117.981 67.7388 117.509 67.7666C117.037 67.7944 116.592 67.9948 116.259 68.3297C115.925 68.6646 115.726 69.1106 115.7 69.5826C115.674 70.0546 115.822 70.5198 116.117 70.8895C116.497 71.2 116.974 71.3696 117.465 71.3696C117.956 71.3696 118.432 71.2 118.813 70.8895C118.98 70.7089 119.11 70.4965 119.193 70.2649C119.277 70.0333 119.313 69.7873 119.299 69.5414ZM118.047 70.7114C117.96 70.8657 117.816 70.9792 117.645 71.027C117.475 71.0749 117.292 71.0531 117.138 70.9665C117.031 70.9059 116.943 70.8177 116.882 70.7114C116.743 70.3378 116.684 69.9392 116.709 69.5414C116.684 69.1404 116.743 68.7387 116.882 68.3618C116.924 68.2835 116.981 68.2143 117.05 68.1584C117.119 68.1025 117.199 68.061 117.284 68.0363C117.369 68.0116 117.458 68.0043 117.547 68.0147C117.635 68.0251 117.72 68.0531 117.797 68.097C117.908 68.1595 117.999 68.2511 118.062 68.3618C118.205 68.7361 118.265 69.1368 118.24 69.5366C118.265 69.9364 118.205 70.337 118.062 70.7114H118.047Z" fill="white"/>
<path d="M122.039 68.5592C122.154 68.8881 122.198 69.2376 122.169 69.5847V70.5477C122.177 70.7955 122.165 71.0436 122.13 71.2891H123.213C123.213 71.1013 123.185 70.9039 123.175 70.7017C123.165 70.4995 123.175 70.2829 123.175 70.0566V69.137C123.184 68.8982 123.166 68.6592 123.122 68.4244C123.094 68.2948 123.035 68.174 122.949 68.073C122.849 67.9537 122.722 67.861 122.578 67.8033C122.398 67.7375 122.206 67.7082 122.014 67.7173C121.822 67.7264 121.634 67.7737 121.461 67.8563C121.27 67.9654 121.106 68.1149 120.979 68.2944V67.813H119.988C120.007 68.1018 120.021 68.3907 120.031 68.6796V70.3888C120.031 70.6728 120.031 70.981 119.988 71.3036H121.042C121.042 70.9232 121.042 70.5862 121.013 70.2973C120.999 70.0488 120.999 69.7996 121.013 69.551C120.993 69.2345 121.042 68.9174 121.158 68.6218C121.2 68.5446 121.261 68.4793 121.335 68.4317C121.409 68.3842 121.493 68.356 121.581 68.3498C121.669 68.3436 121.757 68.3595 121.837 68.3961C121.917 68.4327 121.986 68.4888 122.039 68.5592Z" fill="white"/>
<path d="M130.426 66.3253H130.089C129.94 66.9415 129.776 67.5482 129.607 68.1452C129.439 68.7422 129.237 69.3344 129.034 69.9218C128.813 69.2959 128.606 68.6844 128.408 68.0874C128.211 67.4904 128.033 66.903 127.86 66.3253H127.123C126.93 66.8934 126.738 67.4808 126.531 68.0778C126.324 68.6748 126.112 69.3055 125.881 69.9699C125.693 69.3681 125.52 68.7614 125.356 68.1548C125.192 67.5482 125.038 66.9367 124.875 66.3253H123.637C123.936 67.1855 124.212 68.0328 124.465 68.8674C124.72 69.6955 124.947 70.514 125.159 71.3132H125.9C126.102 70.6921 126.305 70.0903 126.512 69.4981C126.719 68.9059 126.935 68.3378 127.152 67.7793C127.378 68.3955 127.59 69.0022 127.787 69.5896C127.985 70.1769 128.163 70.7499 128.331 71.3132H129.087C129.381 70.384 129.67 69.5077 129.944 68.6748C130.219 67.8419 130.484 67.0619 130.744 66.3253H130.426Z" fill="white"/>
<path d="M132.669 67.6974C132.436 67.6853 132.202 67.7218 131.983 67.8047C131.764 67.8876 131.565 68.015 131.398 68.1789C131.236 68.3511 131.11 68.5539 131.027 68.7755C130.945 68.997 130.907 69.2329 130.917 69.4692C130.887 69.9785 131.06 70.4789 131.398 70.8606C131.575 71.0293 131.785 71.1593 132.014 71.2422C132.244 71.3251 132.488 71.3591 132.732 71.3421C132.958 71.3423 133.183 71.3132 133.401 71.2554C133.593 71.2035 133.775 71.1205 133.94 71.0099L134.099 70.5958L134.032 70.5428C133.896 70.6533 133.743 70.7411 133.579 70.8028C133.425 70.8603 133.262 70.8897 133.098 70.8895C132.944 70.8946 132.79 70.8637 132.65 70.7994C132.509 70.7351 132.386 70.639 132.289 70.5188C132.073 70.2311 131.966 69.8765 131.986 69.5173H134.224V69.2862C134.241 69.0699 134.214 68.8524 134.145 68.6466C134.077 68.4407 133.968 68.2506 133.825 68.0874C133.669 67.9469 133.486 67.8399 133.287 67.7728C133.089 67.7057 132.878 67.6801 132.669 67.6974ZM133.204 69.0888V69.1899H131.966V69.1225C131.948 68.8369 132.01 68.5518 132.145 68.2992C132.191 68.2119 132.26 68.1388 132.345 68.0879C132.43 68.037 132.527 68.0102 132.626 68.0104C132.714 68.0097 132.8 68.0332 132.876 68.0781C132.951 68.1231 133.013 68.1879 133.055 68.2655C133.166 68.4978 133.217 68.7545 133.204 69.0118C133.206 69.0374 133.206 69.0632 133.204 69.0888Z" fill="white"/>
<path d="M137.667 70.8799C137.579 70.7026 137.543 70.5037 137.566 70.3069V70.1673L137.59 68.8962V68.8577C137.599 68.6963 137.572 68.5348 137.512 68.3849C137.451 68.2351 137.357 68.1006 137.238 67.9911C136.949 67.7706 136.59 67.6628 136.227 67.6878C136 67.6881 135.776 67.7356 135.568 67.8274C135.334 67.9326 135.118 68.074 134.927 68.2463C134.951 68.3089 134.976 68.3715 134.995 68.4389C135.017 68.5329 135.048 68.6247 135.086 68.7133C135.182 68.5498 135.308 68.406 135.457 68.2896C135.59 68.1984 135.748 68.1497 135.91 68.15C135.999 68.1491 136.088 68.1661 136.17 68.2C136.253 68.2339 136.328 68.284 136.391 68.3474C136.455 68.4182 136.505 68.501 136.537 68.5911C136.569 68.6811 136.584 68.7766 136.579 68.8722V69.0118C136.333 69.1533 136.069 69.2602 135.794 69.3296L135.423 69.4451C135.201 69.5082 135.001 69.6315 134.846 69.8014C134.715 69.9582 134.645 70.1562 134.648 70.3599C134.641 70.4949 134.661 70.6299 134.706 70.7572C134.752 70.8845 134.822 71.0014 134.913 71.1013C135.008 71.1945 135.121 71.2669 135.245 71.3142C135.37 71.3614 135.502 71.3824 135.635 71.3758C135.836 71.3795 136.033 71.3296 136.208 71.2313C136.38 71.1368 136.524 70.9969 136.622 70.8269C136.649 70.9794 136.73 71.1175 136.848 71.2169C136.971 71.3113 137.123 71.3591 137.277 71.3517C137.407 71.3518 137.536 71.3373 137.662 71.3084C137.794 71.2822 137.924 71.2418 138.047 71.188V71.0099H138.018C137.954 71.0145 137.889 71.0054 137.829 70.9829C137.768 70.9605 137.713 70.9254 137.667 70.8799ZM136.613 70.2106C136.623 70.3886 136.578 70.5655 136.483 70.7162C136.439 70.7727 136.383 70.818 136.318 70.8482C136.254 70.8784 136.183 70.8925 136.112 70.8895C136.047 70.8937 135.981 70.8819 135.922 70.855C135.862 70.8282 135.81 70.7871 135.77 70.7354C135.688 70.5889 135.649 70.4218 135.659 70.254C135.653 70.146 135.669 70.0378 135.707 69.9365C135.745 69.8353 135.804 69.7433 135.881 69.6666C136.092 69.4988 136.345 69.3907 136.613 69.3536V70.2106Z" fill="white"/>
<path d="M139.655 65.8053C139.555 65.8119 139.455 65.8247 139.357 65.8438H138.875C138.774 65.8438 138.678 65.8438 138.577 65.8053C138.577 66.2049 138.606 66.6238 138.615 67.0763C138.625 67.5289 138.615 68.0392 138.615 68.5592V70.0036C138.615 70.4562 138.591 70.8799 138.577 71.2891C138.665 71.2731 138.753 71.2619 138.842 71.2554C139.029 71.2362 139.218 71.2362 139.405 71.2554C139.492 71.2619 139.579 71.2732 139.665 71.2891C139.665 70.8943 139.631 70.4706 139.622 70.0229C139.612 69.5751 139.622 69.0599 139.622 68.5352V67.086C139.612 66.6045 139.636 66.2193 139.655 65.8053Z" fill="white"/>
<path d="M142.005 70.981C141.937 70.9871 141.869 70.9707 141.811 70.9341C141.754 70.8975 141.71 70.8429 141.687 70.7788C141.614 70.4372 141.587 70.0875 141.605 69.7388V69.4451C141.605 69.2333 141.605 68.8722 141.629 68.3666V68.1981H142.352C142.347 68.1437 142.347 68.0889 142.352 68.0344V67.8418H141.644V67.1871C141.64 66.9539 141.651 66.7207 141.677 66.4889L141.596 66.4312C141.442 66.5082 141.283 66.5804 141.114 66.6526L140.633 66.8549C140.627 66.9885 140.635 67.1224 140.657 67.2545C140.669 67.3552 140.669 67.457 140.657 67.5578V67.837H140.175V67.9093C140.18 67.9492 140.18 67.9897 140.175 68.0296V68.2174H140.657V70.4225C140.646 70.5532 140.663 70.6847 140.705 70.8089C140.747 70.9331 140.814 71.0474 140.902 71.1447C140.998 71.2323 141.111 71.2996 141.233 71.3426C141.355 71.3856 141.485 71.4035 141.615 71.395C141.748 71.3959 141.881 71.3798 142.01 71.3469C142.162 71.3085 142.311 71.2553 142.453 71.188V70.9376C142.306 70.9699 142.155 70.9845 142.005 70.981Z" fill="white"/>
<path d="M146.107 70.7451V69.137C146.113 68.9015 146.096 68.6659 146.054 68.4341C146.021 68.3015 145.958 68.1781 145.871 68.073C145.772 67.9537 145.644 67.861 145.5 67.8033C145.346 67.7458 145.183 67.7165 145.019 67.7167C144.795 67.7122 144.573 67.7635 144.374 67.8659C144.178 67.9767 144.013 68.1337 143.892 68.3233V66.4504C143.898 66.2344 143.918 66.019 143.95 65.8053L143.676 65.8486H143.165L142.881 65.8053C142.881 66.1134 142.92 66.4793 142.929 66.903C142.939 67.3267 142.929 67.9237 142.929 68.6844V70.331C142.929 70.7114 142.905 71.0291 142.881 71.2939H143.945C143.952 70.9726 143.94 70.6511 143.911 70.331C143.895 70.0681 143.895 69.8043 143.911 69.5414C143.891 69.2248 143.941 68.9077 144.056 68.6122C144.103 68.5322 144.169 68.4653 144.249 68.4174C144.328 68.3695 144.418 68.3421 144.511 68.3378C144.604 68.3335 144.696 68.3524 144.78 68.3927C144.863 68.4331 144.936 68.4936 144.99 68.5689C145.101 68.8986 145.144 69.2476 145.115 69.5944V70.5573C145.124 70.8051 145.111 71.0532 145.077 71.2987H146.155C146.129 71.1152 146.113 70.9304 146.107 70.7451Z" fill="white"/>
<path d="M100.06 77.9381L99.6411 74.4427H98.9719C98.7023 75.0445 98.4327 75.6271 98.1534 76.1952C97.8742 76.7633 97.5949 77.317 97.3061 77.861C97.0076 77.2977 96.7139 76.7344 96.4346 76.1711C96.1554 75.6078 95.8761 75.0252 95.6161 74.4427H94.9806L94.4992 77.8947C94.4805 78.0871 94.4516 78.2784 94.4125 78.4677C94.3692 78.7373 94.3162 79.0599 94.2584 79.4306L94.4125 79.4017H94.6869L94.8458 79.4306C94.8458 78.8769 94.9084 78.3184 94.9806 77.7696V77.7118L95.1588 76.1952C95.4187 76.6767 95.6835 77.1918 95.958 77.7311C96.2324 78.2703 96.502 78.8384 96.7861 79.4306H97.0942C97.3783 78.8288 97.6575 78.2462 97.932 77.6925C98.2064 77.1389 98.476 76.5996 98.7505 76.0748L98.9864 78.4051C98.9864 78.5303 99.0201 78.8432 99.0393 79.368V79.4402L99.3523 79.4113H99.93L100.262 79.4354C100.224 79.2621 100.185 79.0695 100.152 78.848C100.118 78.6266 100.103 78.3232 100.06 77.9381Z" fill="white"/>
<path d="M103.835 79.031C103.749 78.853 103.714 78.6547 103.734 78.4581V78.3184L103.758 77.0474V77.0089C103.767 76.8474 103.74 76.6859 103.679 76.5361C103.618 76.3862 103.525 76.2517 103.406 76.1422C103.117 75.9217 102.758 75.8139 102.395 75.8389C102.168 75.8392 101.943 75.8867 101.735 75.9785C101.501 76.0838 101.285 76.2251 101.095 76.3974C101.119 76.4552 101.143 76.5178 101.167 76.59C101.191 76.6622 101.22 76.7489 101.254 76.8644C101.346 76.6968 101.474 76.5519 101.63 76.4407C101.76 76.3473 101.917 76.2983 102.077 76.3011C102.166 76.2998 102.255 76.3162 102.337 76.3493C102.42 76.3823 102.495 76.4314 102.559 76.4937C102.688 76.6388 102.756 76.829 102.747 77.0233V77.1485C102.502 77.2884 102.24 77.3937 101.967 77.4614L101.596 77.5818C101.373 77.6459 101.172 77.769 101.013 77.9381C100.883 78.0979 100.816 78.3002 100.826 78.5062C100.817 78.642 100.837 78.778 100.882 78.9062C100.928 79.0344 100.998 79.1521 101.09 79.2525C101.185 79.3456 101.298 79.4181 101.423 79.4653C101.547 79.5125 101.68 79.5335 101.813 79.5269C102.014 79.5301 102.214 79.4803 102.39 79.3825C102.56 79.2846 102.702 79.1434 102.8 78.9732C102.821 79.1286 102.902 79.2697 103.024 79.3674C103.147 79.4651 103.303 79.5119 103.459 79.498C103.587 79.4974 103.714 79.4845 103.839 79.4595C103.971 79.4311 104.1 79.3908 104.225 79.3391V79.1562H104.201C104.134 79.164 104.067 79.1568 104.003 79.1351C103.94 79.1135 103.882 79.0779 103.835 79.031ZM102.78 78.3618C102.786 78.5316 102.741 78.6993 102.65 78.8432C102.607 78.8998 102.551 78.9451 102.486 78.9753C102.422 79.0054 102.351 79.0196 102.28 79.0166C102.215 79.0203 102.15 79.0077 102.091 78.98C102.032 78.9522 101.981 78.9102 101.943 78.8577C101.854 78.7133 101.814 78.5449 101.827 78.3762C101.82 78.2689 101.837 78.1615 101.875 78.061C101.913 77.9606 101.972 77.8694 102.048 77.7936C102.26 77.6258 102.513 77.5178 102.78 77.4807V78.3618Z" fill="white"/>
<path d="M107.576 79.031C107.301 78.934 107.01 78.8867 106.719 78.8914H106.589C105.895 78.8914 105.554 78.7421 105.554 78.5206C105.55 78.432 105.581 78.3454 105.64 78.2796C105.7 78.2139 105.783 78.1742 105.871 78.1692H105.996C106.424 78.1935 106.849 78.0823 107.21 77.8514C107.35 77.7514 107.463 77.6181 107.539 77.4634C107.614 77.3087 107.65 77.1376 107.643 76.9655C107.647 76.8138 107.614 76.6633 107.547 76.5274C107.48 76.4022 107.382 76.2961 107.263 76.2193H107.985V75.863H107.33C107.068 75.8667 106.806 75.8571 106.545 75.8341L106.064 75.8052C105.672 75.7822 105.284 75.8963 104.966 76.1278C104.835 76.2274 104.73 76.3566 104.659 76.5047C104.588 76.6528 104.553 76.8157 104.557 76.98C104.549 77.1065 104.566 77.2332 104.608 77.353C104.649 77.4728 104.714 77.5833 104.798 77.6781C104.989 77.8706 105.237 77.9957 105.505 78.0344V78.1595C105.3 78.2395 105.115 78.3627 104.961 78.5206C104.9 78.5844 104.851 78.6599 104.819 78.7425C104.787 78.8252 104.771 78.9134 104.774 79.0021C104.769 79.133 104.812 79.2613 104.894 79.3632C104.984 79.4693 105.106 79.545 105.241 79.5799V79.6376C105.027 79.7018 104.834 79.8214 104.682 79.9843C104.555 80.1346 104.49 80.3271 104.499 80.5235C104.498 80.6647 104.536 80.8034 104.608 80.9247C104.68 81.046 104.784 81.1454 104.908 81.212C105.258 81.3995 105.653 81.4862 106.049 81.4624C106.566 81.4872 107.075 81.3361 107.494 81.0339C107.669 80.9088 107.811 80.7432 107.909 80.5512C108.006 80.3592 108.055 80.1465 108.052 79.9313C108.056 79.7522 108.015 79.5751 107.932 79.4162C107.858 79.2525 107.733 79.1174 107.576 79.031ZM105.693 76.3637C105.734 76.2932 105.791 76.2341 105.861 76.1919C105.93 76.1497 106.009 76.1259 106.091 76.1225C106.172 76.1191 106.253 76.1364 106.325 76.1727C106.398 76.209 106.461 76.2631 106.507 76.33C106.607 76.5105 106.652 76.7163 106.637 76.9222C106.654 77.1731 106.609 77.4244 106.507 77.654C106.427 77.7642 106.306 77.8382 106.172 77.8598C106.038 77.8815 105.9 77.849 105.789 77.7696C105.746 77.736 105.707 77.6972 105.674 77.654C105.573 77.4493 105.529 77.2219 105.544 76.9944C105.53 76.774 105.582 76.5545 105.693 76.3637ZM106.873 80.9183C106.641 81.0674 106.368 81.1398 106.093 81.1253C105.847 81.1387 105.606 81.0577 105.419 80.8991C105.335 80.8234 105.269 80.7303 105.225 80.6264C105.181 80.5224 105.16 80.4101 105.164 80.2972C105.16 80.1619 105.196 80.0284 105.265 79.9121C105.33 79.7985 105.427 79.7065 105.544 79.6473L106.386 79.6906C106.595 79.6868 106.8 79.751 106.969 79.8735C107.033 79.9353 107.083 80.0105 107.115 80.0937C107.146 80.177 107.159 80.2662 107.152 80.355C107.157 80.4649 107.134 80.5742 107.085 80.6727C107.036 80.7712 106.963 80.8557 106.873 80.9183Z" fill="white"/>
<path d="M111.259 79.031C111.173 78.853 111.138 78.6547 111.158 78.4581V77.0137C111.167 76.8522 111.14 76.6907 111.079 76.5409C111.019 76.391 110.925 76.2565 110.806 76.147C110.517 75.9266 110.158 75.8187 109.795 75.8437C109.568 75.844 109.343 75.8915 109.136 75.9834C108.902 76.0886 108.685 76.2299 108.495 76.4022C108.495 76.46 108.543 76.5226 108.567 76.5948C108.592 76.667 108.62 76.7537 108.654 76.8692C108.746 76.7016 108.874 76.5568 109.03 76.4456C109.16 76.3521 109.317 76.3031 109.477 76.3059C109.566 76.3047 109.655 76.321 109.737 76.3541C109.82 76.3871 109.895 76.4362 109.959 76.4985C110.09 76.6431 110.159 76.8332 110.151 77.0281V77.1052C110.156 77.1208 110.156 77.1376 110.151 77.1533C109.907 77.2932 109.645 77.3985 109.371 77.4662L109.001 77.5866C108.778 77.6507 108.577 77.7738 108.418 77.9429C108.288 78.1027 108.221 78.305 108.23 78.511C108.222 78.6468 108.242 78.7828 108.287 78.911C108.333 79.0392 108.403 79.157 108.495 79.2573C108.59 79.3504 108.703 79.4229 108.828 79.4701C108.952 79.5173 109.085 79.5383 109.217 79.5317C109.419 79.5349 109.619 79.4851 109.795 79.3873C109.965 79.2894 110.107 79.1482 110.204 78.978C110.226 79.1334 110.307 79.2746 110.429 79.3722C110.552 79.4699 110.708 79.5167 110.864 79.5028C110.992 79.5022 111.119 79.4893 111.244 79.4643C111.376 79.4359 111.505 79.3956 111.63 79.3439V79.161C111.562 79.1666 111.494 79.1579 111.43 79.1355C111.366 79.1131 111.308 79.0775 111.259 79.031ZM110.209 78.3618C110.212 78.5313 110.167 78.6983 110.079 78.8432C110.033 78.8982 109.976 78.9423 109.911 78.9723C109.846 79.0023 109.775 79.0174 109.704 79.0165C109.639 79.0203 109.574 79.0077 109.515 78.98C109.456 78.9522 109.405 78.9102 109.367 78.8577C109.278 78.7133 109.238 78.5449 109.251 78.3762C109.246 78.2687 109.264 78.1614 109.303 78.0611C109.342 77.9608 109.401 77.8697 109.477 77.7936C109.687 77.6228 109.941 77.5144 110.209 77.4807V78.3618Z" fill="white"/>
<path d="M113.541 75.9689H112.097C112.101 75.9944 112.101 76.0205 112.097 76.0459C112.101 76.0875 112.101 76.1295 112.097 76.1711C112.102 76.2111 112.102 76.2515 112.097 76.2915V76.3685H112.178C112.605 76.3493 112.918 76.3396 113.117 76.3396H113.719L113.035 77.3844C112.458 78.2703 112.034 78.9154 111.76 79.3102V79.4258L112.501 79.3969H114.239L114.932 79.4258V78.9828C114.73 78.9828 114.523 79.0117 114.311 79.0165C114.099 79.0214 113.883 79.0165 113.661 79.0165H113.021L114.253 77.0907L114.966 75.9978V75.9448H114.306L113.541 75.9689Z" fill="white"/>
<path d="M116.661 75.9448H115.578C115.578 76.2578 115.606 76.5611 115.616 76.8452C115.626 77.1292 115.616 77.4133 115.616 77.6925V78.4629C115.621 78.7843 115.608 79.1058 115.578 79.4258L115.857 79.3969H116.386L116.661 79.4258C116.661 79.0551 116.632 78.7325 116.622 78.4629C116.613 78.1933 116.622 77.9284 116.622 77.6877V76.8404C116.622 76.5515 116.642 76.2578 116.661 75.9448Z" fill="white"/>
<path d="M116.126 74.072C115.98 74.0667 115.837 74.1193 115.729 74.2184C115.621 74.3175 115.556 74.4551 115.549 74.6016C115.546 74.6827 115.562 74.7633 115.593 74.838C115.625 74.9128 115.672 74.9799 115.732 75.0349C115.782 75.0871 115.843 75.1282 115.91 75.1556C115.977 75.1829 116.049 75.1959 116.122 75.1938C116.195 75.2018 116.269 75.1952 116.339 75.1744C116.41 75.1535 116.476 75.1188 116.533 75.0723C116.589 75.0258 116.637 74.9683 116.671 74.9034C116.706 74.8384 116.727 74.7672 116.734 74.694C116.74 74.6207 116.732 74.5468 116.71 74.4767C116.688 74.4065 116.652 74.3415 116.605 74.2854C116.557 74.2293 116.499 74.1832 116.433 74.1499C116.368 74.1165 116.296 74.0966 116.223 74.0912H116.122L116.126 74.072Z" fill="white"/>
<path d="M120.777 78.2029V77.2881C120.786 77.0478 120.768 76.8072 120.724 76.5707C120.696 76.4411 120.637 76.3203 120.551 76.2193C120.448 76.1027 120.32 76.012 120.175 75.9545C120.022 75.8931 119.859 75.8621 119.694 75.863C119.477 75.8598 119.262 75.9094 119.068 76.0074C118.878 76.1165 118.713 76.2661 118.587 76.4456V75.9641H117.561C117.58 76.2498 117.595 76.5386 117.604 76.8307C117.614 77.1228 117.614 77.4165 117.604 77.7118V78.5399C117.611 78.8455 117.596 79.1511 117.561 79.4547L117.84 79.4258H118.322L118.591 79.4547C118.591 79.0759 118.582 78.7389 118.563 78.4436V77.6781C118.543 77.3631 118.592 77.0476 118.707 76.7537C118.749 76.6639 118.818 76.5894 118.904 76.5403C118.991 76.4911 119.09 76.4698 119.188 76.4793C119.283 76.466 119.379 76.4808 119.464 76.5219C119.55 76.5631 119.621 76.6286 119.67 76.7104C119.781 77.0401 119.824 77.3891 119.795 77.7359V78.6988C119.804 78.9466 119.791 79.1947 119.757 79.4402L120.041 79.4113H120.551L120.84 79.4402C120.84 79.2525 120.811 79.0551 120.801 78.8529C120.792 78.6506 120.777 78.4292 120.777 78.2029Z" fill="white"/>
<path d="M123.257 75.8485C123.022 75.8366 122.788 75.8733 122.569 75.9561C122.349 76.0389 122.149 76.1662 121.981 76.33C121.818 76.5016 121.691 76.7043 121.609 76.926C121.526 77.1477 121.489 77.3839 121.499 77.6203C121.469 78.1296 121.642 78.63 121.981 79.0117C122.158 79.1803 122.369 79.3102 122.6 79.3931C122.83 79.476 123.075 79.5101 123.319 79.4932C123.545 79.4934 123.77 79.4643 123.989 79.4065C124.181 79.3546 124.363 79.2717 124.528 79.161L124.687 78.7469L124.615 78.694C124.48 78.8043 124.329 78.8921 124.167 78.954C124.013 79.0114 123.85 79.0408 123.685 79.0406C123.53 79.0455 123.375 79.0141 123.234 78.9489C123.093 78.8838 122.969 78.7866 122.872 78.6651C122.66 78.3757 122.554 78.0219 122.573 77.6636H124.807C124.812 77.635 124.812 77.6057 124.807 77.577C124.812 77.529 124.812 77.4806 124.807 77.4325C124.836 76.9952 124.691 76.564 124.403 76.2337C124.249 76.0934 124.068 75.9867 123.87 75.9203C123.673 75.854 123.464 75.8296 123.257 75.8485ZM123.81 77.24V77.3362H122.573V77.2737C122.558 76.9888 122.617 76.7049 122.746 76.4504C122.794 76.3637 122.863 76.2912 122.948 76.2404C123.032 76.1896 123.129 76.1623 123.228 76.1615C123.315 76.1612 123.4 76.1844 123.474 76.2284C123.549 76.2725 123.61 76.3359 123.652 76.4118C123.762 76.6463 123.811 76.9044 123.796 77.1629L123.81 77.24Z" fill="white"/>
<path d="M96.3528 50.7163C96.7026 51.266 97.024 51.8332 97.3157 52.4159L98.2786 51.4866C97.7924 50.9382 97.2392 50.4529 96.632 50.0423C96.8355 49.5762 96.9967 49.0928 97.1135 48.5979L95.7221 48.309C95.4318 50.0005 94.8519 51.6292 94.0081 53.1236L94.4895 53.5184C95.2387 52.6762 95.866 51.733 96.3528 50.7163Z" fill="white"/>
<path d="M107.142 48.1694C106.708 47.123 106.117 46.1488 105.39 45.2806L104.841 45.555C105.207 46.5854 105.505 47.6389 105.732 48.7086L107.142 48.1694Z" fill="white"/>
<path d="M101.702 47.3798H98.6494L99.3378 46.4169C98.4599 45.8436 97.4984 45.41 96.4876 45.1314L96.2517 45.661C96.9163 46.1902 97.5452 46.7627 98.1342 47.375H94.3114V48.1453H101.702V47.3798Z" fill="white"/>
<path d="M97.4168 56.8983V61.3903H98.8901V56.5757C99.5015 57.2686 100.074 57.9952 100.604 58.7519L101.62 57.6205C100.785 56.8941 99.8694 56.2672 98.8901 55.7524V55.1169H101.736V54.3417H98.8901V52.7288H98.6012C99.0285 52.1483 99.4008 51.5294 99.7134 50.88C100.079 51.3946 100.401 51.9389 100.676 52.5073L101.48 51.7707C101.326 52.204 101.148 52.6284 100.946 53.0418L101.427 53.398C101.687 53.0562 101.909 52.6807 102.164 52.3003V61.3084H103.671V59.9844H109.449V59.1948H106.825V56.229H108.813V55.4587H106.825V52.7818H108.799V52.0114H106.825V49.7149H109.232V48.9397H103.589C103.902 47.8714 104.109 46.7748 104.205 45.6658L102.645 45.3577C102.39 47.8612 102.164 49.7149 101.581 51.4626C101.128 50.9665 100.61 50.534 100.041 50.1771C100.247 49.6953 100.408 49.1957 100.522 48.6845L99.1308 48.3427C98.9936 49.8705 98.5689 51.3587 97.879 52.7288H97.4361V54.3417H94.2055V55.1169H97.0365C96.2713 56.8446 95.1829 58.4101 93.83 59.7292L94.1911 60.2107C95.4464 59.2975 96.5372 58.1773 97.4168 56.8983ZM103.623 49.7149H105.279V52.0114H103.613L103.623 49.7149ZM103.623 52.7818H105.279V55.4587H103.613L103.623 52.7818ZM103.623 56.229H105.279V59.1948H103.613L103.623 56.229Z" fill="white"/>
<path d="M125.5 54.7221C124.584 53.9431 123.555 53.3068 122.448 52.8347L122.14 53.3162C122.969 54.1185 123.753 54.9655 124.489 55.8535L125.5 54.7221Z" fill="white"/>
<path d="M122.732 52.0114H119.559V52.7818H127.653V52.0114H124.273V49.0456H127.874V48.2705H124.273V45.3913H122.732V48.2705H119.198V49.0456H122.732V52.0114Z" fill="white"/>
<path d="M128.495 58.3378C127.917 57.0929 127.134 55.9538 126.179 54.9676L125.698 55.2902C126.274 56.4917 126.757 57.7359 127.142 59.0119L128.495 58.3378Z" fill="white"/>
<path d="M121.167 58.9011C121.167 60.7548 121.509 60.9425 124.017 60.9425C126.69 60.9425 126.555 59.8448 125.765 57.0331H125.149C125.149 59.3152 125.149 59.5367 123.912 59.5367C122.833 59.5367 122.679 59.3152 122.679 58.6267V54.4284H121.167V58.9011Z" fill="white"/>
<path d="M118.837 48.2705H116.353L117.243 47.5868C116.481 46.6817 115.592 45.8904 114.605 45.2373L114.176 45.6658C114.571 46.2291 115.207 47.2931 115.77 48.2705H113.127V49.0456H118.837V48.2705Z" fill="white"/>
<path d="M116.988 61.0484H118.279V58.9733L119.429 59.8303C120.219 58.7856 120.614 57.2738 120.715 55.4587L120.113 55.3383C119.882 56.6569 119.24 57.8687 118.279 58.8V55.4298H113.666V61.3084H115.005V60.0566H116.979L116.988 61.0484ZM116.988 59.2815H115.033V56.1616H116.988V59.2815Z" fill="white"/>
<path d="M118.442 53.0225H113.623V53.7447H118.442V53.0225Z" fill="white"/>
<path d="M118.442 50.6537H113.623V51.3759H118.442V50.6537Z" fill="white"/>
<path d="M87.8647 60.2926L87.7154 60.2155C87.4925 60.0563 87.2497 59.9268 86.9932 59.8304C86.5936 59.7292 86.1699 59.7774 85.7703 59.6907C85.207 59.5704 84.6485 59.4307 84.0804 59.3441C83.3697 59.209 82.6379 59.2336 81.9379 59.4163C81.5965 59.495 81.2813 59.6609 81.0231 59.8978C80.8805 60.108 80.7958 60.3521 80.7776 60.6055C80.7197 60.8468 80.6906 61.094 80.6909 61.3421C80.7239 62.2685 80.9995 63.17 81.4901 63.9565C81.7375 64.3813 82.021 64.784 82.3375 65.1601C82.6272 65.5453 82.9636 65.893 83.339 66.1953C83.6817 66.3891 83.9738 66.6613 84.1911 66.9897C84.3548 67.2545 84.3693 67.3315 84.6726 67.4711C85.1947 67.6241 85.7366 67.6988 86.2807 67.6926C86.9989 67.7402 87.7202 67.6982 88.428 67.5674C88.9528 67.4759 89.0491 67.086 89.4776 66.8549C89.9061 66.6238 90.0746 66.5852 90.2575 66.1471C91.0856 64.1731 90.065 62.4928 88.8565 61.0677C88.5715 60.7558 88.2362 60.4938 87.8647 60.2926Z" fill="white"/>
</g>
<rect x="0.5" y="27.8096" width="159" height="67.9606" stroke="#171717"/>
<path d="M140 2.83643L20 122.836" stroke="#D60C18" stroke-width="3" stroke-linecap="square" stroke-linejoin="round"/>
<defs>
<clipPath id="clip0_737_2781">
<rect width="144" height="52.9606" fill="white" transform="translate(8 35.3096)"/>
</clipPath>
</defs>
</svg>
