<svg width="277" height="147" viewBox="0 0 277 147" fill="none" xmlns="http://www.w3.org/2000/svg">
<path d="M132.602 28.3C131.039 28.3 129.188 27.1629 128.487 25.773L125.343 19.527C124.644 18.1371 122.793 17 121.229 17H85.6867C82.8434 17 80 19.825 80 22.65V25.475C80 27.0288 80 29.5713 80 31.125V111.638C80 113.191 84.1229 117.288 85.6867 117.288H179.518C181.082 117.288 185.205 113.191 185.205 111.638V33.95C185.205 29.7125 183.783 28.3 179.518 28.3H132.602Z" fill="#48545D"/>
<path d="M176.675 57.9625C176.675 61.07 174.116 63.6125 170.988 63.6125H94.2169C91.0892 63.6125 88.5301 61.07 88.5301 57.9625V41.0125C88.5301 37.905 91.0892 35.3625 94.2169 35.3625H170.988C174.116 35.3625 176.675 37.905 176.675 41.0125V57.9625Z" fill="#F5F5F5"/>
<path d="M179.518 50.9H85.6867C82.8434 50.9 80 53.725 80 56.55V111.638C80 114.463 82.8434 117.288 85.6867 117.288H179.518C182.361 117.288 185.205 114.463 185.205 111.638V56.55C185.205 53.725 182.361 50.9 179.518 50.9Z" fill="#D3D5D7"/>
<path d="M173.831 130C160.504 130 149.663 119.228 149.663 105.987C149.663 92.7467 160.504 81.975 173.831 81.975C187.158 81.975 198 92.7467 198 105.987C198 119.228 187.158 130 173.831 130Z" fill="#F7F7F7"/>
<path d="M173.831 124.35C184.039 124.35 192.313 116.129 192.313 105.987C192.313 95.8462 184.039 87.625 173.831 87.625C163.624 87.625 155.349 95.8462 155.349 105.987C155.349 116.129 163.624 124.35 173.831 124.35Z" fill="#D60C18"/>
<path d="M173.831 117.287C173.045 117.287 172.41 116.656 172.41 115.875V96.1C172.41 95.3189 173.045 94.6875 173.831 94.6875C174.617 94.6875 175.253 95.3189 175.253 96.1V115.875C175.253 116.656 174.617 117.287 173.831 117.287Z" fill="#F5F5F5"/>
<path d="M173.831 117.288C173.467 117.288 173.103 117.149 172.826 116.874L165.718 109.811C165.162 109.259 165.162 108.366 165.718 107.814C166.274 107.262 167.172 107.262 167.728 107.814L173.831 113.878L179.935 107.814C180.49 107.262 181.389 107.262 181.945 107.814C182.501 108.366 182.501 109.259 181.945 109.811L174.836 116.874C174.559 117.149 174.195 117.288 173.831 117.288Z" fill="#F5F5F5"/>
</svg>
