<svg width="277" height="147" viewBox="0 0 277 147" fill="none" xmlns="http://www.w3.org/2000/svg">
<rect x="63" y="47" width="150" height="55" fill="#D3D5D7"/>
<path d="M79.2291 62.63C80.049 63.1516 81.0418 63.3312 81.9933 63.13C82.9013 62.91 83.8043 62.66 84.7023 62.405C86.2776 61.955 87.8428 61.47 89.4281 61.045C90.2157 60.835 91.0084 60.635 91.806 60.46C92.1673 60.4035 92.5231 60.3166 92.8696 60.2C93.2257 60.06 93.5418 59.835 93.8729 59.675C94.3746 59.44 94.8762 59.225 95.413 59.015C96.9181 58.405 100.139 57.65 99.3411 55.34C99.0903 54.595 98.3378 54.265 97.6806 53.92C96.9864 53.6196 96.2208 53.5225 95.4732 53.64C94.7472 53.6483 94.0433 53.8903 93.4665 54.33C92.6839 55.305 91.3846 55.6 90.4063 56.38C90.0602 56.64 89.5886 56.645 89.2425 56.91C89.0719 57.04 89.0167 57.15 88.811 57.21C88.6316 57.2359 88.4505 57.2493 88.2692 57.25C87.9281 57.295 87.592 57.34 87.2659 57.395C86.2938 57.5229 85.3436 57.782 84.4415 58.165C83.9907 58.386 83.558 58.6418 83.1472 58.93C82.7508 59.195 82.3746 59.09 81.9231 59.12C81.4716 59.15 81.1053 59.195 80.694 59.255L79.4699 59.46L78.8528 59.55C78.7224 59.55 78.3261 59.55 78.2358 59.625C78.0812 59.756 77.9779 59.937 77.9439 60.1363C77.91 60.3357 77.9476 60.5406 78.0502 60.715C78.4063 61.455 78.4565 62.18 79.2291 62.63Z" fill="white"/>
<path d="M140.574 61.56C141.311 61.365 141.948 61.2 142.339 60.49C142.46 60.27 142.59 60.05 142.701 59.825C142.947 59.3862 143.065 58.8874 143.042 58.385C142.851 57.9921 142.547 57.6649 142.169 57.445C141.455 57.0972 140.689 56.8659 139.901 56.76C138.988 56.565 138.035 56.34 137.112 56.22C136.566 56.1563 136.012 56.1988 135.482 56.345C134.432 56.6241 133.408 56.9921 132.421 57.445C131.288 57.945 129.913 57.645 128.855 58.335C128.397 58.5491 127.904 58.6795 127.4 58.72C126.773 58.865 126.181 59.115 125.569 59.315C124.52 59.65 123.472 59.975 122.408 60.265C121.651 60.47 120.863 60.265 120.11 60.625C119.818 60.8359 119.509 61.0231 119.187 61.185C118.851 61.3 118.51 61.455 118.184 61.57C116.98 61.99 115.676 62.28 114.441 62.605C112.254 63.355 109.811 63.03 107.564 63.45C106.911 63.615 106.229 63.71 105.742 64.23C105.582 65 106.144 65.295 106.645 65.66C107.147 66.025 107.584 66.74 108.186 67.12C108.729 67.4197 109.298 67.6706 109.886 67.87C111.201 68.4 112.435 69.095 113.85 69.37C114.627 69.52 116.222 69.705 116.93 69.235C117.763 68.68 118.701 68.295 119.508 67.695C119.885 67.415 120.186 67.05 120.572 66.785C121.007 66.5462 121.429 66.2841 121.836 66C122.335 65.4929 122.892 65.0465 123.497 64.67C124.274 64.54 125.002 63.67 125.774 64.215C126.145 64.385 125.97 64.715 125.99 65.05C126.01 65.385 126.256 65.79 126.256 66.19C126.244 66.5765 126.182 66.9597 126.07 67.33V67.95C126.457 75.385 125.809 82.45 125.157 89.95C124.856 90.875 125.222 91.72 125.433 92.615C125.461 92.9707 125.539 93.3207 125.664 93.655C126.03 94.2983 126.578 94.82 127.239 95.155C128.569 95.595 130.43 95.815 131.478 94.655C132.547 94.155 132.878 93.13 133.033 92.06C133.185 91.0894 133.284 90.1113 133.329 89.13C133.328 88.3551 133.21 87.5847 132.978 86.845C132.888 86.46 132.863 86.065 132.773 85.68C132.622 85.07 132.426 84.46 132.321 83.84C131.866 80.8749 131.638 77.8796 131.639 74.88C131.704 72.88 131.182 70.38 130.921 68.65C130.334 67.35 131.152 66.05 130.53 64.75C130.254 64.105 130.375 63.315 130.37 62.635C130.37 62.055 130.771 61.84 131.242 61.59C131.42 61.496 131.588 61.3855 131.744 61.26C131.917 61.1457 132.109 61.0643 132.311 61.02C132.502 60.955 132.692 60.9 132.888 60.85C134.293 60.49 135.873 60.26 137.167 61.085C137.501 61.3437 137.886 61.5294 138.296 61.63C139.049 61.7961 139.832 61.7721 140.574 61.56V61.56Z" fill="white"/>
<path d="M115.174 89.65C114.888 89.3929 114.569 89.1744 114.226 89C113.834 88.85 113.403 88.825 113.007 88.685C112 88.2926 111.041 87.7895 110.147 87.185C109.958 87.0336 109.757 86.8981 109.545 86.78C109.337 86.7249 109.123 86.6947 108.908 86.69C108.502 86.605 108.261 86.23 107.905 86.045C107.739 85.955 107.523 85.925 107.403 85.775C107.033 85.4638 106.621 85.2062 106.179 85.01C105.778 84.74 105.336 84.655 104.925 84.42C104.572 84.2003 104.237 83.9546 103.921 83.685C103.352 83.1089 102.713 82.6051 102.02 82.185C99.5819 81.06 97.9214 78.24 96.1104 76.385C94.9365 75.315 93.4415 73.825 93.4716 71.97C93.9732 70.805 95.393 70.415 96.4365 69.86C97.7408 68.89 99.597 68.36 100.344 66.81C100.475 66.5269 100.534 66.2167 100.517 65.9058C100.501 65.5949 100.409 65.2927 100.249 65.025C99.8227 64.145 98.7441 64.18 97.9013 63.855C97.3777 63.8094 96.8503 63.8706 96.3512 64.035C95.5238 64.3474 94.7705 64.8275 94.1388 65.445C93.8378 65.715 93.5719 66.055 93.2559 66.31C92.9152 66.5203 92.5424 66.674 92.1522 66.765C91.9611 66.867 91.742 66.9046 91.5276 66.8722C91.3133 66.8397 91.1153 66.739 90.9632 66.585C90.6487 65.7181 90.1983 64.9064 89.6288 64.18C89.4415 64.0778 89.2346 64.0164 89.0217 64C88.8211 63.95 88.6957 63.79 88.5201 63.74C88.2241 63.655 87.8378 63.865 87.5167 63.865C87.123 63.8162 86.7237 63.8382 86.3378 63.93C85.8884 64.1091 85.5037 64.4193 85.2341 64.82C84.9331 65.265 85.0635 65.6 85.0033 66.095C84.9682 66.43 84.888 66.755 84.8227 67.095C84.7419 67.4225 84.6965 67.7578 84.6873 68.095C84.7346 68.4011 84.8034 68.7035 84.893 69C84.9184 69.4409 84.8309 69.881 84.6387 70.279C84.4465 70.677 84.1559 71.0197 83.7943 71.275C83.4689 71.5519 83.1159 71.7949 82.7408 72C82.3043 72.24 81.8077 72.3 81.3562 72.5C80.9407 72.6985 80.5415 72.9292 80.1622 73.19C79.7759 73.445 79.3947 73.69 78.9883 73.925C78.5819 74.16 78.0953 74.215 77.694 74.425C76.9766 74.78 76.1288 74.845 75.4114 75.14C74.6288 75.3 73.2642 75.01 72.903 75.98C73.0374 76.8448 73.4493 77.643 74.0769 78.255C74.4983 79.195 75.7375 79.52 76.5853 80.14C77.8545 80.56 79.1288 79.945 80.3328 80.04C80.7893 81.73 80.6589 83.48 79.485 84.715C79.2679 85.3796 78.9406 86.0032 78.5167 86.56C78.3066 86.8283 78.0787 87.0822 77.8344 87.32C77.6137 87.53 77.5284 87.82 77.3077 88.04C77.087 88.26 76.806 88.65 76.4799 88.845C76.0284 89.105 75.8679 88.775 75.5117 88.555C75.2899 88.4225 75.0474 88.3279 74.7943 88.275C74.2963 88.1689 73.78 88.1844 73.2893 88.32C72.9422 88.4856 72.6586 88.7594 72.4816 89.1C72.2759 89.375 71.9799 89.665 71.9799 90.04C72.022 90.2635 72.079 90.484 72.1505 90.7C72.2458 91.165 72.0702 91.45 72.3913 91.88C72.6421 92.21 72.5719 92.345 72.6271 92.74C72.6666 92.9223 72.7473 93.0933 72.8629 93.24C73.079 93.5096 73.3343 93.7455 73.6204 93.94C73.8645 94.1216 74.133 94.268 74.4181 94.375C74.6954 94.422 74.9701 94.4838 75.2408 94.56C75.7309 94.8422 76.2904 94.9825 76.8562 94.965C77.8094 94.92 78.6221 94.52 79.5151 94.235C79.9439 94.1347 80.3597 93.9854 80.7542 93.79C81.1148 93.5482 81.4508 93.2719 81.7575 92.965C82.1739 92.6 82.5753 92.22 82.9565 91.82C83.6462 91.117 84.2692 90.3521 84.8177 89.535C85.095 89.132 85.348 88.7129 85.5753 88.28C85.7809 87.895 85.8763 87.48 86.0518 87.09C86.1472 86.875 86.2926 86.685 86.3829 86.47C86.5668 86.0758 86.7194 85.6679 86.8395 85.25C86.9255 84.8751 87.0657 84.5146 87.2559 84.18C87.5248 83.5445 87.6842 82.8683 87.7274 82.18C87.7826 81.875 87.898 81.58 87.9532 81.275C88.0084 80.97 87.9983 80.53 88.0786 80.165C88.2017 79.6301 88.4209 79.1219 88.7258 78.665C89.4791 78.8022 90.1489 79.2274 90.592 79.85C90.848 80.1377 91.1211 80.4098 91.4097 80.665C91.7508 80.955 91.9766 81.35 92.3177 81.63C93.3211 82.42 94.0084 83.595 94.7258 84.63C95.6137 85.89 96.4565 87.18 97.3395 88.445C98.2224 89.71 98.9849 90.895 100.164 91.79C101.038 92.5428 101.96 93.2392 102.923 93.875C103.64 94.285 104.569 94.165 105.361 94.18C106.81 94.175 108.257 94.0849 109.696 93.91C110.408 93.835 111.125 93.76 111.838 93.71C112.169 93.71 112.51 93.71 112.841 93.65C113.443 93.585 114.06 93.31 114.657 93.215C115.254 93.12 115.982 93 116.383 92.51C116.547 92.3133 116.663 92.0812 116.721 91.8321C116.78 91.583 116.779 91.3238 116.719 91.075C116.473 90.385 115.726 90.04 115.174 89.65Z" fill="white"/>
<path d="M155.543 84.46C155.823 84.4627 156.103 84.4342 156.376 84.375C156.638 84.3169 156.893 84.2279 157.134 84.11L157.314 83.5H157.224C157.014 83.6779 156.775 83.8183 156.517 83.915C156.271 84.0127 156.009 84.0636 155.744 84.065C155.488 84.0812 155.231 84.0361 154.995 83.9335C154.76 83.8309 154.552 83.6737 154.39 83.475C154.046 82.9751 153.882 82.3745 153.923 81.77C153.887 81.1964 154.05 80.6279 154.385 80.16C154.534 79.9686 154.729 79.8162 154.951 79.716C155.173 79.6159 155.416 79.5709 155.659 79.585C155.977 79.5729 156.292 79.6509 156.567 79.81C156.81 79.945 156.99 80.1694 157.069 80.435H157.179C157.196 80.267 157.223 80.1 157.259 79.935C157.289 79.7862 157.327 79.6393 157.375 79.495C157.101 79.3748 156.817 79.2794 156.527 79.21C156.25 79.1505 155.967 79.1203 155.684 79.12C154.902 79.081 154.136 79.3423 153.542 79.85C153.274 80.0967 153.064 80.3984 152.925 80.7343C152.787 81.0702 152.723 81.4322 152.739 81.795C152.716 82.1616 152.77 82.5288 152.898 82.8732C153.026 83.2177 153.225 83.5316 153.482 83.795C154.055 84.2777 154.795 84.5166 155.543 84.46V84.46Z" fill="white"/>
<path d="M161.503 82.55C161.519 82.2927 161.482 82.0349 161.396 81.7919C161.31 81.5489 161.176 81.3255 161.002 81.135C160.732 80.848 160.38 80.6506 159.994 80.5698C159.608 80.4889 159.207 80.5284 158.844 80.683C158.481 80.8375 158.175 81.0996 157.967 81.4336C157.759 81.7677 157.659 82.1574 157.681 82.55C157.665 82.8058 157.702 83.0619 157.788 83.3033C157.874 83.5447 158.008 83.7663 158.182 83.955C158.37 84.1291 158.591 84.2633 158.833 84.3493C159.074 84.4352 159.331 84.4712 159.587 84.455C159.844 84.4807 160.104 84.4491 160.348 84.3625C160.592 84.2759 160.813 84.1364 160.996 83.9541C161.179 83.7718 161.319 83.5512 161.406 83.3084C161.492 83.0656 161.524 82.8065 161.498 82.55H161.503ZM160.204 83.765C160.149 83.8779 160.061 83.9719 159.952 84.0351C159.843 84.0983 159.718 84.1278 159.592 84.12C159.468 84.1271 159.344 84.0972 159.237 84.0339C159.129 83.9707 159.044 83.8771 158.99 83.765C158.847 83.3767 158.789 82.9625 158.819 82.55C158.792 82.1335 158.853 81.716 159 81.325C159.06 81.2165 159.148 81.1261 159.254 81.0631C159.361 81 159.483 80.9668 159.607 80.9668C159.731 80.9668 159.853 81 159.96 81.0631C160.067 81.1261 160.154 81.2165 160.214 81.325C160.36 81.7145 160.421 82.1302 160.395 82.545C160.42 82.9606 160.355 83.3767 160.204 83.765V83.765Z" fill="white"/>
<path d="M167.819 84.36C167.819 84.11 167.809 83.87 167.789 83.64C167.789 83.415 167.789 83.19 167.789 82.98V82.5C167.8 82.1556 167.779 81.8109 167.729 81.47C167.695 81.2993 167.619 81.1396 167.508 81.005C167.406 80.887 167.277 80.7945 167.132 80.735C166.939 80.664 166.734 80.6343 166.529 80.6481C166.324 80.6619 166.124 80.7188 165.943 80.815C165.735 80.9479 165.562 81.1299 165.441 81.345C165.364 81.1403 165.224 80.9652 165.04 80.845C164.846 80.7214 164.619 80.6587 164.388 80.665C164.174 80.6611 163.963 80.7074 163.771 80.8C163.575 80.9128 163.404 81.0642 163.269 81.245V80.745H163.028H162.742H162.467H162.211C162.211 81.155 162.236 81.51 162.246 81.81C162.256 82.11 162.246 82.355 162.246 82.555C162.246 82.755 162.246 83 162.246 83.305C162.246 83.61 162.246 83.97 162.211 84.37H162.507H162.768H163.033H163.314V84.3C163.314 84.01 163.284 83.8 163.284 83.685V82.47C163.262 82.1531 163.312 81.8352 163.43 81.54C163.482 81.4627 163.553 81.3993 163.635 81.3555C163.718 81.3117 163.81 81.2888 163.904 81.2888C163.997 81.2888 164.09 81.3117 164.172 81.3555C164.255 81.3993 164.326 81.4627 164.378 81.54C164.498 81.9453 164.542 82.3689 164.508 82.79C164.508 83.03 164.508 83.29 164.508 83.545C164.508 83.8 164.483 84.085 164.463 84.365H164.764H165.03H165.301H165.597V84.295C165.597 84 165.597 83.795 165.597 83.68V82.47C165.574 82.1551 165.622 81.8391 165.737 81.545C165.785 81.4564 165.859 81.3842 165.948 81.3379C166.038 81.2915 166.139 81.2731 166.239 81.285C166.339 81.2731 166.441 81.2915 166.53 81.3379C166.62 81.3842 166.693 81.4564 166.741 81.545C166.858 81.9027 166.904 82.2798 166.876 82.655C166.876 82.9 166.876 83.155 166.876 83.445C166.876 83.735 166.851 84.03 166.826 84.36H167.117H167.383H167.649H167.819Z" fill="white"/>
<path d="M171.02 84.36H171.316H171.582H171.853H172.154C172.154 84.36 172.154 84.325 172.154 84.29C172.154 83.995 172.154 83.79 172.154 83.675V82.47C172.131 82.1551 172.179 81.8391 172.294 81.545C172.342 81.4564 172.415 81.3842 172.505 81.3378C172.594 81.2915 172.696 81.273 172.796 81.285C172.896 81.273 172.998 81.2915 173.087 81.3378C173.177 81.3842 173.25 81.4564 173.298 81.545C173.415 81.9027 173.461 82.2797 173.433 82.655C173.433 82.9 173.433 83.155 173.433 83.445C173.433 83.735 173.408 84.03 173.383 84.36H173.674H173.94H174.211H174.517C174.517 84.11 174.507 83.87 174.487 83.64C174.487 83.415 174.487 83.19 174.487 82.98V82.5C174.46 82.1625 174.405 81.8279 174.321 81.5C174.287 81.3293 174.211 81.1696 174.1 81.035C173.998 80.917 173.869 80.8245 173.724 80.765C173.531 80.6939 173.326 80.6643 173.121 80.6781C172.916 80.6919 172.716 80.7488 172.535 80.845C172.327 80.9779 172.154 81.1599 172.033 81.375C171.956 81.1702 171.816 80.9952 171.632 80.875C171.438 80.7508 171.211 80.6881 170.98 80.695C170.766 80.6911 170.555 80.7373 170.363 80.83C170.166 80.941 169.995 81.0928 169.861 81.275V80.775H169.615H169.329H169.054H168.798C168.798 81.185 168.828 81.54 168.833 81.84C168.838 82.14 168.833 82.385 168.833 82.585C168.833 82.785 168.833 83.03 168.833 83.335C168.833 83.64 168.833 84 168.798 84.4H169.099H169.355H169.625H169.901V84.33C169.901 84.04 169.876 83.83 169.876 83.715V82.47C169.853 82.1534 169.901 81.8357 170.017 81.54C170.07 81.4627 170.141 81.3994 170.224 81.3556C170.307 81.3119 170.399 81.289 170.493 81.289C170.587 81.289 170.68 81.3119 170.763 81.3556C170.846 81.3994 170.917 81.4627 170.97 81.54C171.087 81.9458 171.131 82.3689 171.1 82.79C171.1 83.03 171.1 83.29 171.1 83.545C171.1 83.8 171.035 84.08 171.02 84.36Z" fill="white"/>
<path d="M178.946 82.55C178.963 82.2926 178.927 82.0345 178.841 81.7913C178.755 81.5481 178.62 81.3249 178.445 81.135C178.048 80.8104 177.551 80.6329 177.038 80.6329C176.524 80.6329 176.027 80.8104 175.63 81.135C175.304 81.5319 175.126 82.0293 175.126 82.5425C175.126 83.0557 175.304 83.5531 175.63 83.95C176.027 84.2733 176.523 84.45 177.035 84.45C177.547 84.45 178.044 84.2733 178.44 83.95C178.614 83.7625 178.749 83.5419 178.836 83.3013C178.923 83.0608 178.961 82.8053 178.946 82.55V82.55ZM177.642 83.765C177.581 83.8721 177.493 83.9612 177.387 84.0232C177.28 84.0853 177.159 84.1179 177.035 84.1179C176.912 84.1179 176.79 84.0853 176.684 84.0232C176.577 83.9612 176.489 83.8721 176.428 83.765C176.282 83.3774 176.22 82.9632 176.247 82.55C176.22 82.1335 176.281 81.716 176.428 81.325C176.488 81.2165 176.576 81.1261 176.682 81.063C176.789 81 176.911 80.9668 177.035 80.9668C177.159 80.9668 177.281 81 177.388 81.063C177.495 81.1261 177.582 81.2165 177.642 81.325C177.79 81.7139 177.853 82.1298 177.828 82.545C177.855 82.9602 177.791 83.3764 177.642 83.765V83.765Z" fill="white"/>
<path d="M181.801 81.53C181.92 81.8718 181.966 82.2345 181.936 82.595C181.936 82.96 181.936 83.29 181.936 83.595C181.936 83.9 181.936 84.15 181.896 84.365H182.192H182.458H182.724H183.025C183.025 84.17 182.995 83.965 182.985 83.755C182.975 83.545 182.985 83.32 182.985 83.085V82.525C182.985 82.31 182.985 82.18 182.985 82.13C182.993 81.8821 182.974 81.634 182.93 81.39C182.901 81.2553 182.839 81.1299 182.749 81.025C182.645 80.902 182.512 80.806 182.363 80.745C182.175 80.6766 181.975 80.6462 181.775 80.6557C181.576 80.6651 181.38 80.7142 181.199 80.8C181.001 80.9137 180.83 81.0689 180.697 81.255V80.755H180.462H180.186H179.91H179.664C179.684 81.055 179.699 81.355 179.709 81.655C179.709 81.96 179.709 82.265 179.709 82.575C179.709 82.885 179.709 83.135 179.709 83.43C179.709 83.725 179.684 84.045 179.664 84.38H179.955H180.216H180.487H180.763C180.763 83.985 180.763 83.635 180.732 83.335C180.702 83.035 180.732 82.77 180.732 82.56C180.71 82.2312 180.762 81.9016 180.883 81.595C180.927 81.5018 180.999 81.4244 181.089 81.3733C181.178 81.3223 181.282 81.3002 181.385 81.31C181.467 81.3099 181.548 81.3299 181.62 81.3682C181.693 81.4066 181.755 81.4621 181.801 81.53V81.53Z" fill="white"/>
<path d="M190.54 79.21H190.355H190.189C190.032 79.85 189.865 80.48 189.687 81.1C189.502 81.72 189.301 82.335 189.09 82.945C188.86 82.295 188.644 81.66 188.438 81.04C188.232 80.42 188.047 79.81 187.866 79.21H187.681H187.475H187.279H187.099C186.898 79.8 186.697 80.41 186.482 81.03C186.266 81.65 186.045 82.305 185.804 82.995C185.609 82.37 185.428 81.74 185.258 81.11C185.087 80.48 184.926 79.845 184.756 79.21H184.455H184.114H183.773H183.467C183.778 80.1067 184.065 80.9867 184.329 81.85C184.595 82.71 184.831 83.56 185.052 84.39H185.258H185.438H185.624H185.824C186.035 83.745 186.246 83.12 186.462 82.505C186.677 81.89 186.903 81.3 187.129 80.72C187.365 81.36 187.585 81.99 187.791 82.6C187.997 83.21 188.182 83.805 188.358 84.39H188.569H188.749H188.945H189.145C189.452 83.425 189.753 82.515 190.038 81.65C190.324 80.785 190.6 79.975 190.871 79.21H190.711H190.54Z" fill="white"/>
<path d="M192.878 80.635C192.635 80.6231 192.391 80.6613 192.163 80.7473C191.935 80.8334 191.728 80.9653 191.554 81.135C191.384 81.3134 191.252 81.5239 191.166 81.7542C191.08 81.9844 191.041 82.2295 191.052 82.475C191.02 83.0039 191.201 83.5236 191.554 83.92C191.738 84.095 191.956 84.2298 192.195 84.3159C192.435 84.402 192.689 84.4374 192.943 84.42C193.179 84.4223 193.413 84.392 193.64 84.33C193.841 84.2767 194.031 84.1905 194.202 84.075L194.368 83.645L194.298 83.59C194.155 83.7032 193.996 83.7942 193.826 83.86C193.666 83.9195 193.496 83.95 193.324 83.95C193.164 83.9553 193.004 83.9233 192.858 83.8565C192.711 83.7897 192.583 83.6899 192.482 83.565C192.258 83.2655 192.146 82.8978 192.166 82.525H194.498C194.498 82.495 194.498 82.465 194.498 82.43V82.285C194.515 82.0604 194.487 81.8347 194.415 81.621C194.344 81.4073 194.23 81.2098 194.082 81.04C193.92 80.8939 193.729 80.7826 193.522 80.7129C193.315 80.6432 193.096 80.6167 192.878 80.635V80.635ZM193.435 82.08C193.435 82.12 193.435 82.155 193.435 82.185H192.145V82.115C192.128 81.8184 192.192 81.5227 192.331 81.26C192.38 81.1696 192.452 81.094 192.541 81.0412C192.629 80.9884 192.73 80.9604 192.833 80.96C192.924 80.9594 193.014 80.9837 193.093 81.0304C193.172 81.0771 193.236 81.1444 193.279 81.225C193.394 81.4668 193.445 81.7332 193.43 82C193.433 82.0265 193.435 82.0533 193.435 82.08V82.08Z" fill="white"/>
<path d="M198.085 83.94C197.994 83.7558 197.957 83.5493 197.98 83.345V83.2L198.005 81.88V81.84C198.015 81.6723 197.987 81.5046 197.923 81.349C197.86 81.1933 197.763 81.0536 197.639 80.94C197.337 80.7122 196.963 80.6004 196.585 80.625C196.349 80.6258 196.115 80.6752 195.898 80.77C195.655 80.8801 195.43 81.0268 195.231 81.205C195.258 81.2703 195.281 81.337 195.301 81.405C195.301 81.475 195.361 81.57 195.396 81.69C195.495 81.5195 195.626 81.37 195.783 81.25C195.921 81.1544 196.086 81.1038 196.254 81.105C196.347 81.104 196.44 81.1217 196.526 81.1569C196.612 81.1921 196.69 81.2442 196.756 81.31C196.823 81.3834 196.875 81.4693 196.909 81.5629C196.942 81.6565 196.957 81.7557 196.951 81.855V81.935C196.951 81.935 196.951 81.97 196.951 81.985C196.695 82.1318 196.42 82.2429 196.134 82.315L195.747 82.435C195.516 82.4995 195.307 82.6277 195.145 82.805C195.011 82.9734 194.941 83.1846 194.95 83.4C194.942 83.5402 194.962 83.6807 195.009 83.813C195.056 83.9453 195.13 84.0667 195.226 84.17C195.325 84.2667 195.443 84.3419 195.572 84.391C195.702 84.44 195.84 84.4618 195.978 84.455C196.187 84.4583 196.393 84.4066 196.575 84.305C196.755 84.2068 196.904 84.0615 197.007 83.885C197.035 84.0432 197.119 84.1865 197.242 84.29C197.37 84.3877 197.528 84.4372 197.689 84.43C197.824 84.429 197.958 84.4139 198.09 84.385C198.228 84.3578 198.363 84.3159 198.492 84.26V84.075H198.467C198.397 84.0821 198.327 84.0737 198.261 84.0503C198.195 84.027 198.135 83.9893 198.085 83.94V83.94ZM196.987 83.245C196.999 83.4299 196.952 83.614 196.851 83.77C196.806 83.8291 196.748 83.8763 196.68 83.9077C196.613 83.9391 196.539 83.9536 196.465 83.95C196.397 83.9539 196.329 83.9415 196.267 83.9136C196.205 83.8857 196.151 83.8433 196.109 83.79C196.021 83.6385 195.981 83.4644 195.993 83.29C195.986 83.1778 196.003 83.0655 196.043 82.9603C196.083 82.8552 196.145 82.7596 196.224 82.68C196.445 82.5063 196.708 82.3942 196.987 82.355V83.245Z" fill="white"/>
<path d="M200.157 78.67C200.042 78.67 199.936 78.7 199.846 78.71C199.759 78.7148 199.672 78.7148 199.585 78.71C199.502 78.7149 199.418 78.7149 199.334 78.71C199.23 78.7022 199.126 78.6888 199.023 78.67C199.023 79.085 199.053 79.52 199.064 79.99C199.074 80.46 199.064 80.99 199.064 81.53C199.064 82.07 199.064 82.56 199.064 83.03C199.064 83.5 199.038 83.94 199.023 84.365C199.115 84.3481 199.207 84.3364 199.299 84.33C199.494 84.31 199.691 84.31 199.886 84.33C199.977 84.3361 200.068 84.3478 200.157 84.365C200.157 83.955 200.122 83.515 200.112 83.05C200.102 82.585 200.112 82.05 200.112 81.505C200.112 80.96 200.112 80.505 200.112 80.005C200.112 79.505 200.137 79.1 200.157 78.67Z" fill="white"/>
<path d="M206.88 83.8C206.88 83.6 206.88 83.36 206.88 83.08C206.88 82.92 206.88 82.735 206.88 82.525C206.88 82.315 206.88 82.18 206.88 82.13C206.886 81.8854 206.868 81.6408 206.824 81.4C206.79 81.2624 206.725 81.1342 206.634 81.025C206.529 80.902 206.397 80.806 206.247 80.745C206.087 80.6837 205.917 80.6532 205.746 80.655C205.512 80.6499 205.281 80.7032 205.074 80.81C204.869 80.9245 204.697 81.0877 204.572 81.285V80.105C204.572 79.83 204.572 79.575 204.572 79.34C204.572 79.105 204.607 78.88 204.632 78.67L204.346 78.715C204.256 78.72 204.165 78.72 204.075 78.715H203.814L203.518 78.67C203.543 78.99 203.559 79.37 203.569 79.81C203.579 80.25 203.569 80.87 203.569 81.66C203.569 82.45 203.569 82.975 203.569 83.37C203.569 83.765 203.543 84.095 203.518 84.37H203.809H204.075H204.341H204.627C204.627 84.01 204.627 83.675 204.592 83.37C204.557 83.065 204.592 82.785 204.592 82.55C204.57 82.2212 204.621 81.8916 204.742 81.585C204.786 81.4918 204.858 81.4143 204.948 81.3633C205.038 81.3123 205.141 81.2902 205.244 81.3C205.337 81.2922 205.431 81.3105 205.514 81.3529C205.598 81.3953 205.667 81.4601 205.716 81.54C205.832 81.8824 205.876 82.2448 205.846 82.605C205.846 82.97 205.846 83.3 205.846 83.605C205.846 83.91 205.846 84.16 205.806 84.375H206.102H206.368H206.634H206.93C206.9 84.19 206.89 84 206.88 83.8Z" fill="white"/>
<path d="M158.9 91.27L158.463 87.64H158.298H157.931H157.766C157.485 88.265 157.204 88.87 156.913 89.46C156.622 90.05 156.331 90.625 156.03 91.19C155.719 90.605 155.413 90.02 155.122 89.435C154.831 88.85 154.54 88.245 154.269 87.64H154.109H153.758H153.607L153.105 91.225C153.105 91.345 153.06 91.54 153.015 91.82C152.97 92.1 152.915 92.435 152.855 92.82L153.015 92.79H153.311L153.477 92.82C153.494 92.243 153.541 91.6673 153.617 91.095V91.035L153.803 89.46C154.074 89.96 154.349 90.495 154.635 91.055C154.921 91.615 155.202 92.205 155.498 92.82H155.554H155.749H155.809C156.105 92.195 156.396 91.59 156.682 91.015C156.968 90.44 157.249 89.88 157.535 89.335L157.781 91.755C157.781 91.885 157.816 92.21 157.836 92.755C157.836 92.785 157.836 92.815 157.836 92.83L158.162 92.8H158.463C158.559 92.8 158.664 92.8 158.764 92.8L159.11 92.825C159.07 92.645 159.03 92.445 158.995 92.215C158.96 91.985 158.945 91.67 158.9 91.27Z" fill="white"/>
<path d="M162.833 92.405C162.742 92.2206 162.705 92.0143 162.727 91.81V91.665L162.753 90.345V90.305C162.762 90.1373 162.734 89.9696 162.671 89.814C162.608 89.6584 162.51 89.5187 162.386 89.405C162.084 89.1773 161.711 89.0654 161.333 89.09C161.096 89.0909 160.862 89.1402 160.645 89.235C160.402 89.3451 160.177 89.4918 159.978 89.67C160.003 89.73 160.028 89.795 160.054 89.87C160.079 89.945 160.109 90.035 160.144 90.155C160.241 89.9818 160.374 89.8317 160.535 89.715C160.671 89.618 160.835 89.5671 161.002 89.57C161.094 89.5681 161.187 89.5849 161.273 89.6192C161.359 89.6536 161.437 89.7049 161.503 89.77C161.638 89.9207 161.709 90.1182 161.699 90.32V90.4C161.699 90.4 161.699 90.435 161.699 90.45C161.445 90.5961 161.171 90.7055 160.886 90.775L160.5 90.9C160.267 90.9644 160.057 91.0926 159.893 91.27C159.758 91.4366 159.689 91.6462 159.697 91.86C159.689 92.001 159.709 92.1423 159.756 92.2754C159.804 92.4085 159.878 92.5308 159.973 92.635C160.072 92.7317 160.19 92.807 160.32 92.856C160.449 92.9051 160.587 92.9269 160.726 92.92C160.936 92.9226 161.143 92.8709 161.328 92.77C161.505 92.6683 161.652 92.5217 161.754 92.345C161.777 92.5064 161.861 92.653 161.989 92.7544C162.116 92.8558 162.279 92.9044 162.441 92.89C162.575 92.8908 162.707 92.8774 162.838 92.85C162.975 92.8205 163.109 92.7787 163.239 92.725V92.535H163.214C163.145 92.5428 163.075 92.5351 163.009 92.5126C162.943 92.4902 162.883 92.4534 162.833 92.405V92.405ZM161.734 91.71C161.74 91.8864 161.693 92.0605 161.599 92.21C161.554 92.2691 161.495 92.3163 161.428 92.3477C161.361 92.3791 161.287 92.3936 161.212 92.39C161.145 92.3944 161.077 92.3815 161.015 92.3526C160.954 92.3238 160.901 92.2799 160.861 92.225C160.769 92.0754 160.726 91.9002 160.741 91.725C160.734 91.6136 160.751 91.5021 160.791 91.3979C160.831 91.2936 160.892 91.1989 160.972 91.12C161.192 90.9464 161.456 90.8342 161.734 90.795V91.71Z" fill="white"/>
<path d="M166.731 92.405C166.444 92.3053 166.142 92.2562 165.838 92.26H165.702C164.98 92.235 164.624 92.105 164.624 91.875C164.62 91.783 164.652 91.6931 164.714 91.6247C164.776 91.5564 164.863 91.5152 164.955 91.51H165.085C165.531 91.5363 165.974 91.4208 166.349 91.18C166.495 91.0759 166.613 90.9373 166.692 90.7767C166.77 90.6162 166.808 90.4386 166.801 90.26C166.804 90.1026 166.77 89.9467 166.701 89.805C166.633 89.6737 166.53 89.5632 166.405 89.485H166.52H167.157V89.115H166.796H166.475C166.224 89.115 165.973 89.115 165.657 89.085L165.156 89.055C164.747 89.032 164.343 89.1503 164.012 89.39C163.875 89.4926 163.764 89.6266 163.69 89.7806C163.616 89.9346 163.58 90.1042 163.585 90.275C163.572 90.5345 163.66 90.7892 163.831 90.985C164.031 91.1838 164.289 91.3135 164.569 91.355V91.5C164.355 91.5829 164.161 91.7108 164.002 91.875C163.938 91.9414 163.887 92.0198 163.854 92.1056C163.82 92.1914 163.804 92.2829 163.806 92.375C163.802 92.5109 163.846 92.6437 163.931 92.75C164.026 92.8605 164.152 92.9391 164.293 92.975V93.035C164.07 93.1016 163.869 93.2259 163.711 93.395C163.579 93.5515 163.512 93.7512 163.52 93.955C163.519 94.1016 163.558 94.2456 163.633 94.3717C163.709 94.4977 163.817 94.6008 163.946 94.67C164.311 94.8635 164.723 94.9535 165.135 94.93C165.673 94.9558 166.204 94.7989 166.64 94.485C166.823 94.3548 166.971 94.1828 167.072 93.9835C167.173 93.7841 167.225 93.5634 167.222 93.34C167.227 93.1539 167.184 92.9697 167.097 92.805C167.02 92.6366 166.892 92.4967 166.731 92.405V92.405ZM164.769 89.635C164.815 89.5622 164.879 89.5024 164.954 89.4612C165.03 89.4201 165.115 89.399 165.201 89.4C165.281 89.3976 165.361 89.4146 165.433 89.4494C165.506 89.4842 165.569 89.5358 165.617 89.6C165.72 89.7879 165.767 90.0013 165.753 90.215C165.77 90.4756 165.724 90.7365 165.617 90.975C165.567 91.0432 165.502 91.0987 165.427 91.1369C165.351 91.1752 165.268 91.1951 165.183 91.1951C165.098 91.1951 165.015 91.1752 164.94 91.1369C164.864 91.0987 164.799 91.0432 164.749 90.975C164.644 90.7625 164.598 90.5262 164.614 90.29C164.601 90.0613 164.655 89.8337 164.769 89.635V89.635ZM165.998 94.365C165.758 94.5221 165.473 94.5975 165.186 94.58C164.93 94.5938 164.679 94.5098 164.483 94.345C164.395 94.2669 164.326 94.1703 164.28 94.0622C164.234 93.9542 164.213 93.8373 164.217 93.72C164.215 93.5795 164.251 93.4411 164.323 93.32C164.391 93.2021 164.492 93.1065 164.614 93.045L165.492 93.09C165.709 93.086 165.922 93.1527 166.099 93.28C166.165 93.3443 166.217 93.4224 166.25 93.5088C166.283 93.5953 166.296 93.6878 166.289 93.78C166.294 93.8941 166.27 94.0076 166.22 94.1099C166.169 94.2122 166.093 94.3 165.998 94.365V94.365Z" fill="white"/>
<path d="M170.569 92.405C170.478 92.2206 170.441 92.0143 170.463 91.81V91.665V90.345V90.305C170.474 90.1372 170.446 89.9692 170.383 89.8134C170.32 89.6576 170.222 89.518 170.097 89.405C169.795 89.1773 169.421 89.0654 169.043 89.09C168.807 89.0909 168.573 89.1402 168.356 89.235C168.113 89.3451 167.888 89.4918 167.689 89.67C167.714 89.73 167.739 89.795 167.764 89.87C167.789 89.945 167.819 90.035 167.855 90.155C167.951 89.9818 168.085 89.8317 168.246 89.715C168.382 89.618 168.545 89.5671 168.712 89.57C168.805 89.5681 168.897 89.5849 168.984 89.6192C169.07 89.6536 169.148 89.7049 169.214 89.77C169.35 89.9202 169.423 90.1176 169.415 90.32C169.415 90.355 169.415 90.38 169.415 90.4C169.417 90.4166 169.417 90.4334 169.415 90.45C169.161 90.5961 168.887 90.7055 168.602 90.775L168.216 90.9C167.983 90.9644 167.772 91.0926 167.609 91.27C167.474 91.4366 167.405 91.6462 167.413 91.86C167.405 92.001 167.425 92.1423 167.472 92.2754C167.52 92.4085 167.593 92.5308 167.689 92.635C167.788 92.7317 167.906 92.807 168.035 92.856C168.165 92.9051 168.303 92.9269 168.441 92.92C168.652 92.9226 168.859 92.8709 169.043 92.77C169.221 92.6683 169.368 92.5217 169.47 92.345C169.492 92.5064 169.576 92.653 169.704 92.7544C169.832 92.8558 169.994 92.9044 170.157 92.89C170.29 92.8908 170.423 92.8774 170.554 92.85C170.691 92.8212 170.825 92.7794 170.955 92.725V92.535C170.885 92.5435 170.814 92.5363 170.747 92.5138C170.68 92.4913 170.619 92.4541 170.569 92.405V92.405ZM169.475 91.71C169.478 91.8861 169.431 92.0596 169.339 92.21C169.294 92.2692 169.234 92.3164 169.166 92.3477C169.098 92.3791 169.023 92.3936 168.948 92.39C168.88 92.3944 168.813 92.3815 168.751 92.3526C168.69 92.3238 168.637 92.2799 168.597 92.225C168.504 92.0754 168.462 91.9002 168.477 91.725C168.471 91.6133 168.489 91.5017 168.53 91.3974C168.57 91.2932 168.633 91.1986 168.712 91.12C168.932 90.9444 169.196 90.8321 169.475 90.795V91.71Z" fill="white"/>
<path d="M172.946 89.225H172.149H171.431C171.434 89.2516 171.434 89.2784 171.431 89.305C171.435 89.3483 171.435 89.3917 171.431 89.435C171.435 89.4766 171.435 89.5184 171.431 89.56C171.434 89.5866 171.434 89.6134 171.431 89.64H171.517C171.962 89.62 172.288 89.61 172.495 89.61H172.751H173.122L172.41 90.695C171.808 91.615 171.366 92.285 171.08 92.695V92.815L171.853 92.785H173.664L174.386 92.815C174.386 92.75 174.386 92.7 174.386 92.665C174.384 92.6334 174.384 92.6016 174.386 92.57C174.384 92.5401 174.384 92.51 174.386 92.48C174.386 92.445 174.386 92.405 174.386 92.355C174.176 92.355 173.96 92.385 173.739 92.39C173.518 92.395 173.293 92.39 173.062 92.39H172.806H172.395L173.679 90.39L174.421 89.255V89.2H173.734L172.946 89.225Z" fill="white"/>
<path d="M176.197 89.2H175.926H175.339H175.069C175.069 89.525 175.099 89.84 175.109 90.135C175.119 90.43 175.109 90.725 175.109 91.015C175.109 91.305 175.109 91.515 175.109 91.815C175.109 92.115 175.109 92.44 175.069 92.815L175.36 92.785H175.911L176.197 92.815C176.197 92.43 176.167 92.095 176.157 91.815C176.147 91.535 176.157 91.26 176.157 91.01C176.157 90.76 176.157 90.43 176.157 90.13C176.157 89.83 176.177 89.525 176.197 89.2Z" fill="white"/>
<path d="M175.64 87.255C175.522 87.2502 175.405 87.2819 175.306 87.3456C175.206 87.4094 175.128 87.5022 175.083 87.6114C175.038 87.7206 175.028 87.8409 175.054 87.9561C175.08 88.0712 175.141 88.1756 175.229 88.255C175.281 88.3095 175.345 88.3523 175.415 88.3808C175.485 88.4092 175.56 88.4226 175.635 88.42C175.715 88.4274 175.796 88.4182 175.872 88.3928C175.948 88.3674 176.018 88.3265 176.078 88.2726C176.137 88.2187 176.184 88.1531 176.217 88.0799C176.249 88.0067 176.266 87.9275 176.266 87.8475C176.266 87.7675 176.249 87.6883 176.217 87.6151C176.184 87.5419 176.137 87.4763 176.078 87.4224C176.018 87.3685 175.948 87.3276 175.872 87.3022C175.796 87.2768 175.715 87.2675 175.635 87.275L175.64 87.255Z" fill="white"/>
<path d="M180.487 91.545C180.487 91.385 180.487 91.195 180.487 90.985C180.487 90.775 180.487 90.645 180.487 90.595C180.494 90.3454 180.476 90.0957 180.431 89.85C180.401 89.7157 180.339 89.5906 180.251 89.485C180.143 89.3645 180.01 89.2704 179.86 89.21C179.7 89.147 179.53 89.1148 179.358 89.115C179.132 89.1119 178.908 89.1634 178.706 89.265C178.507 89.3787 178.336 89.5339 178.204 89.72V89.22H177.968H177.381H177.135C177.156 89.5133 177.171 89.8133 177.181 90.12C177.191 90.4267 177.191 90.7317 177.181 91.035C177.181 91.31 177.181 91.595 177.181 91.895C177.181 92.195 177.181 92.51 177.135 92.845L177.426 92.815H177.953L178.234 92.845C178.234 92.4483 178.224 92.0983 178.204 91.795C178.204 91.495 178.204 91.235 178.204 91.02C178.182 90.6928 178.234 90.365 178.355 90.06C178.398 89.9668 178.47 89.8894 178.56 89.8383C178.65 89.7873 178.753 89.7652 178.856 89.775C178.954 89.7612 179.054 89.7766 179.143 89.8193C179.233 89.862 179.307 89.9301 179.358 90.015C179.475 90.3572 179.519 90.7198 179.488 91.08C179.488 91.445 179.488 91.775 179.488 92.08C179.488 92.385 179.488 92.635 179.448 92.85L179.744 92.82H180.276L180.577 92.85C180.577 92.655 180.547 92.45 180.537 92.24C180.527 92.03 180.487 91.78 180.487 91.545Z" fill="white"/>
<path d="M183.07 89.1C182.826 89.0879 182.582 89.1261 182.353 89.2121C182.125 89.2982 181.916 89.4302 181.741 89.6C181.571 89.7782 181.439 89.9887 181.353 90.219C181.267 90.4492 181.228 90.6945 181.239 90.94C181.208 91.4689 181.388 91.9886 181.741 92.385C181.926 92.5596 182.146 92.6941 182.386 92.7802C182.626 92.8662 182.881 92.9019 183.135 92.885C183.371 92.8869 183.606 92.8566 183.833 92.795C184.033 92.7417 184.223 92.6555 184.395 92.54L184.56 92.11L184.485 92.055C184.345 92.169 184.187 92.2602 184.018 92.325C183.858 92.3845 183.688 92.415 183.517 92.415C183.355 92.4209 183.193 92.3886 183.046 92.3209C182.899 92.2531 182.77 92.1518 182.669 92.025C182.448 91.7247 182.338 91.3571 182.358 90.985H184.686C184.688 90.9551 184.688 90.9249 184.686 90.895C184.689 90.845 184.689 90.795 184.686 90.745C184.716 90.2908 184.564 89.8431 184.264 89.5C184.104 89.355 183.915 89.2447 183.709 89.1759C183.504 89.1071 183.286 89.0812 183.07 89.1V89.1ZM183.647 90.545C183.645 90.5783 183.645 90.6117 183.647 90.645H182.358V90.58C182.341 90.2841 182.403 89.9891 182.538 89.725C182.588 89.6353 182.661 89.5603 182.749 89.5076C182.837 89.4549 182.937 89.4264 183.04 89.425C183.13 89.4248 183.219 89.4488 183.297 89.4945C183.374 89.5403 183.438 89.6061 183.482 89.685C183.596 89.9284 183.648 90.1966 183.632 90.465L183.647 90.545Z" fill="white"/>
<path d="M155.037 63C155.401 63.571 155.736 64.1601 156.04 64.765L157.043 63.8C156.536 63.2387 155.959 62.7432 155.328 62.325C155.54 61.8411 155.708 61.339 155.829 60.825L154.38 60.485C154.077 62.2416 153.473 63.9331 152.594 65.485L153.095 65.895C153.875 65.025 154.528 64.0505 155.037 63V63Z" fill="white"/>
<path d="M166.279 60.355C165.827 59.2685 165.211 58.257 164.453 57.355L163.881 57.64C164.265 58.7093 164.575 59.8035 164.809 60.915L166.279 60.355Z" fill="white"/>
<path d="M160.61 59.535H157.43L158.147 58.535C157.232 57.9398 156.23 57.4894 155.177 57.2L154.931 57.75C155.624 58.2998 156.279 58.8944 156.893 59.53H152.91V60.33H160.61V59.535Z" fill="white"/>
<path d="M156.145 69.42V74.085H157.681V69.085C158.317 69.8051 158.913 70.5595 159.467 71.345L160.525 70.17C159.656 69.415 158.701 68.7639 157.681 68.23V67.57H160.645V66.765H157.681V65.09H157.38C157.824 64.4865 158.212 63.8438 158.538 63.17C158.921 63.7033 159.257 64.2688 159.542 64.86L160.38 64.095C160.212 64.5447 160.021 64.9853 159.808 65.415L160.309 65.785C160.58 65.43 160.811 65.04 161.077 64.645V73.98H162.647V72.625H168.667V71.805H165.933V68.725H168.005V67.925H165.933V65.145H167.99V64.345H165.933V61.96H168.441V61.155H162.577C162.903 60.0455 163.118 58.9066 163.219 57.755L161.594 57.435C161.328 60.035 161.092 61.96 160.485 63.775C160.014 63.2585 159.474 62.8092 158.88 62.44C159.093 61.9395 159.261 61.4207 159.381 60.89L157.931 60.535C157.789 62.1218 157.347 63.6674 156.627 65.09H156.166V66.765H152.799V67.57H155.749C154.95 69.3635 153.817 70.989 152.408 72.36L152.784 72.86C154.092 71.9107 155.228 70.7476 156.145 69.42V69.42ZM162.612 61.96H164.338V64.345H162.602L162.612 61.96ZM162.612 65.145H164.338V67.925H162.602L162.612 65.145ZM162.612 68.725H164.338V71.805H162.602L162.612 68.725Z" fill="white"/>
<path d="M185.408 67.16C184.452 66.3519 183.38 65.6913 182.227 65.2L181.906 65.7C182.771 66.5325 183.588 67.4122 184.355 68.335L185.408 67.16Z" fill="white"/>
<path d="M182.523 64.345H179.217V65.145H187.65V64.345H184.129V61.265H187.881V60.46H184.129V57.47H182.523V60.46H178.841V61.265H182.523V64.345Z" fill="white"/>
<path d="M188.528 70.915C187.926 69.6222 187.11 68.4391 186.115 67.415L185.614 67.75C186.214 68.9978 186.717 70.29 187.119 71.615L188.528 70.915Z" fill="white"/>
<path d="M180.893 71.5C180.893 73.425 181.249 73.62 183.863 73.62C186.647 73.62 186.507 72.48 185.684 69.56H185.042C185.042 71.93 185.042 72.16 183.753 72.16C182.629 72.16 182.468 71.93 182.468 71.215V66.855H180.893V71.5Z" fill="white"/>
<path d="M178.465 60.46H175.876L176.804 59.75C176.01 58.81 175.084 57.9884 174.055 57.31L173.609 57.755C174.02 58.34 174.682 59.445 175.269 60.46H172.515V61.265H178.465V60.46Z" fill="white"/>
<path d="M176.538 73.73H177.883V71.575L179.082 72.465C179.905 71.38 180.316 69.81 180.421 67.925L179.794 67.8C179.553 69.1691 178.884 70.4274 177.883 71.395V67.895H173.077V74H174.472V72.7H176.528L176.538 73.73ZM176.538 71.895H174.502V68.655H176.538V71.895Z" fill="white"/>
<path d="M178.054 65.395H173.032V66.145H178.054V65.395Z" fill="white"/>
<path d="M178.054 62.935H173.032V63.685H178.054V62.935Z" fill="white"/>
<path d="M146.192 72.945L146.037 72.865C145.804 72.6998 145.551 72.5653 145.284 72.465C144.868 72.36 144.426 72.41 144.01 72.32C143.423 72.195 142.841 72.05 142.249 71.96C141.509 71.8195 140.746 71.8451 140.017 72.035C139.661 72.1163 139.332 72.2886 139.064 72.535C138.915 72.7533 138.827 73.0068 138.808 73.27C138.75 73.521 138.72 73.7775 138.717 74.035C138.75 74.9973 139.038 75.9338 139.55 76.75C139.809 77.1843 140.104 77.5958 140.433 77.98C140.735 78.3799 141.086 78.741 141.477 79.055C141.835 79.255 142.139 79.538 142.365 79.88C142.535 80.155 142.55 80.235 142.866 80.38C143.41 80.5389 143.975 80.6164 144.542 80.61C145.289 80.6647 146.041 80.6278 146.779 80.5C147.326 80.405 147.426 80 147.873 79.76C148.319 79.52 148.495 79.48 148.686 79.025C149.548 76.975 148.485 75.23 147.226 73.75C146.93 73.425 146.58 73.1528 146.192 72.945V72.945Z" fill="white"/>
<line x1="62.5" y1="17.5" x2="62.5" y2="46.5" stroke="#48545D" stroke-linecap="square" stroke-dasharray="4 4"/>
<line x1="33.5" y1="46.5" x2="62.5" y2="46.5" stroke="#48545D" stroke-linecap="square" stroke-dasharray="4 4"/>
<line x1="33.5" y1="101.5" x2="62.5" y2="101.5" stroke="#48545D" stroke-linecap="square" stroke-dasharray="4 4"/>
<line x1="213.5" y1="46.5" x2="242.5" y2="46.5" stroke="#48545D" stroke-linecap="square" stroke-dasharray="4 4"/>
<line x1="213.5" y1="101.5" x2="242.5" y2="101.5" stroke="#48545D" stroke-linecap="square" stroke-dasharray="4 4"/>
<line x1="62.5" y1="101.5" x2="62.5" y2="130.5" stroke="#48545D" stroke-linecap="square" stroke-dasharray="4 4"/>
<line x1="213.5" y1="17.5" x2="213.5" y2="46.5" stroke="#48545D" stroke-linecap="square" stroke-dasharray="4 4"/>
<line x1="213.5" y1="101.5" x2="213.5" y2="130.5" stroke="#48545D" stroke-linecap="square" stroke-dasharray="4 4"/>
</svg>
