<svg width="591" height="244" viewBox="0 0 591 244" fill="none" xmlns="http://www.w3.org/2000/svg">
<rect x="40" y="40" width="511" height="164" fill="white"/>
<path d="M111.336 82.304V83.232H117.592V82.304H111.336ZM111.336 84.928V85.872H117.592V84.928H111.336ZM111.352 87.568V88.592H118.264V87.568H111.352ZM109.448 76.208V78.944H110.488V77.248H116.824V78.912H117.928V76.208H109.448ZM114.152 80.4V88.112H115.256V80.4H114.152ZM111.768 79.632H111.672L110.632 80.72V89.28H111.768V80.672H117.784V79.632H111.768ZM113.416 74.544C112.568 77.52 111 80 108.776 81.536C109.016 81.776 109.384 82.272 109.512 82.528C111.864 80.8 113.56 78.08 114.552 74.768L113.416 74.544ZM113.672 78.176C114.008 78.832 114.424 79.744 114.6 80.32L115.64 79.856C115.464 79.296 115.048 78.432 114.664 77.776L113.672 78.176ZM103.832 75.68V76.8H109.08V75.68H103.832ZM105.368 80.368V81.424H107.784V86.128H105.368V87.184H108.84V80.368H105.368ZM105.832 76.08C105.432 79.008 104.712 81.792 103.432 83.552C103.656 83.808 104.008 84.368 104.136 84.624C105.608 82.608 106.472 79.536 106.984 76.256L105.832 76.08ZM104.968 80.368V88.496H106.008V80.368H104.968ZM122.376 79.504V80.656H131.704V79.504H122.376ZM126.984 83.28V84.416H132.376V83.28H126.984ZM126.344 80.048V87.984L127.592 88.144V80.048H126.344ZM122.584 81.952C122.232 84.864 121.368 87.152 119.576 88.528C119.864 88.72 120.36 89.12 120.552 89.328C122.36 87.744 123.352 85.312 123.8 82.08L122.584 81.952ZM123.336 84L122.36 84.384C123.736 88.288 126.344 89.024 130.152 89.024H133.896C133.96 88.672 134.168 88.112 134.36 87.808C133.576 87.84 130.808 87.84 130.216 87.84C126.968 87.824 124.472 87.264 123.336 84ZM120.312 76.368V79.872H121.496V77.52H132.456V79.872H133.688V76.368H120.312ZM125.8 74.8C126.184 75.44 126.552 76.288 126.696 76.816L127.944 76.432C127.784 75.888 127.368 75.072 126.984 74.464L125.8 74.8ZM145.608 76.496V85.36H146.68V76.496H145.608ZM148.536 74.864V87.728C148.536 87.984 148.472 88.064 148.232 88.064C147.944 88.08 147.08 88.096 146.184 88.064C146.344 88.4 146.504 88.944 146.552 89.264C147.704 89.264 148.552 89.216 149.016 89.024C149.48 88.832 149.656 88.48 149.656 87.728V74.864H148.536ZM143.176 75.36V87.984C143.176 88.16 143.128 88.208 142.968 88.208C142.84 88.224 142.408 88.224 141.928 88.208C142.088 88.496 142.248 88.992 142.296 89.264C143.016 89.264 143.48 89.232 143.8 89.056C144.136 88.848 144.232 88.528 144.232 88V75.36H143.176ZM136.648 75.36V89.296H137.672V76.432H143.752V75.36H136.648ZM135.624 81.008V82.128H145.224V81.008H135.624ZM138.904 75.808V88.784H139.752V75.808H138.904ZM141.016 75.808V88.704H141.864V75.808H141.016ZM152.232 75.216V89.248H153.304V76.304H155.96V75.216H152.232ZM155.64 75.216V75.536C155.256 76.624 154.632 78.48 154.008 79.92C155.24 81.2 155.544 82.288 155.56 83.168C155.56 83.664 155.464 84.096 155.192 84.272C155.064 84.384 154.872 84.432 154.664 84.432C154.392 84.448 154.04 84.448 153.656 84.416C153.848 84.72 153.944 85.184 153.944 85.472C154.328 85.488 154.776 85.488 155.096 85.456C155.448 85.408 155.736 85.328 155.976 85.152C156.44 84.816 156.632 84.16 156.632 83.28C156.616 82.272 156.328 81.12 155.08 79.792C155.656 78.528 156.296 76.96 156.792 75.632L156.008 75.168L155.832 75.216H155.64ZM158.424 79.472V80.544H164.744V79.472H158.424ZM156.936 82.496V83.6H166.248V82.496H156.936ZM158.568 84.48C158.04 85.616 157.208 86.832 156.376 87.664C156.632 87.808 157.096 88.144 157.288 88.32C158.104 87.424 159.032 86.064 159.64 84.784L158.568 84.48ZM163.208 84.8C164.072 85.824 165.064 87.248 165.512 88.176L166.456 87.616C166.008 86.72 165.016 85.344 164.12 84.336L163.208 84.8ZM161.128 79.728V87.888C161.128 88.096 161.064 88.176 160.824 88.192C160.584 88.192 159.816 88.192 158.92 88.16C159.096 88.48 159.272 88.96 159.336 89.28C160.488 89.28 161.224 89.264 161.672 89.072C162.136 88.88 162.296 88.56 162.296 87.888V79.728H161.128ZM161.576 74.464C160.504 76.384 158.504 78.224 156.504 79.264C156.792 79.488 157.112 79.856 157.304 80.144C159.384 78.944 161.384 76.992 162.6 74.864L161.576 74.464ZM162.104 75.312L161.16 75.712C162.68 77.76 164.2 78.992 165.768 79.984C165.944 79.664 166.296 79.264 166.584 79.04C165.064 78.192 163.512 77.104 162.104 75.312ZM172.408 79.504V80.672H175.48V79.504H172.408ZM171.976 74.576V87.552L173.224 87.392V74.576H171.976ZM169 77.808V88L170.184 87.84V77.808H169ZM167.704 87.792L167.912 89.072C169.928 88.688 172.84 88.16 175.576 87.648L175.48 86.448C172.648 86.96 169.64 87.488 167.704 87.792ZM176.28 74.576V86.544C176.28 88.304 176.712 88.752 178.2 88.752C178.504 88.752 180.296 88.752 180.632 88.752C182.072 88.752 182.392 87.856 182.552 85.264C182.2 85.184 181.704 84.96 181.384 84.72C181.304 86.992 181.192 87.584 180.536 87.584C180.136 87.584 178.664 87.584 178.344 87.584C177.672 87.584 177.56 87.424 177.56 86.576V74.576H176.28ZM177.128 79.504V80.672H181.48V79.504H177.128ZM189.112 79.504V80.496H196.888V79.504H189.112ZM189.112 81.776V82.768H196.888V81.776H189.112ZM189.608 87.664V88.656H196.376V87.664H189.608ZM187.96 77.216V78.224H198.152V77.216H187.96ZM188.904 84.128V89.28H189.944V85.12H195.976V89.232H197.064V84.128H188.904ZM191.656 74.96C192.072 75.648 192.568 76.544 192.776 77.136L193.864 76.656C193.624 76.08 193.144 75.216 192.696 74.56L191.656 74.96ZM187.08 74.624C186.28 77.04 184.936 79.44 183.496 81.008C183.72 81.28 184.056 81.872 184.168 82.144C185.752 80.336 187.224 77.632 188.168 74.944L187.08 74.624ZM185.704 78.8V89.328H186.808V77.712L186.792 77.696L185.704 78.8ZM202.12 75.696V76.848H212.472V75.696H202.12ZM202.12 79.424V80.56H212.456V79.424H202.12ZM202.04 83.248V84.384H212.488V83.248H202.04ZM201.448 75.696V81.488C201.448 83.744 201.272 86.592 199.512 88.576C199.768 88.736 200.248 89.136 200.44 89.376C202.344 87.248 202.632 83.936 202.632 81.504V75.696H201.448ZM211.992 75.696V87.648C211.992 87.952 211.88 88.048 211.576 88.064C211.272 88.064 210.184 88.08 209.048 88.032C209.224 88.352 209.416 88.88 209.464 89.2C210.984 89.216 211.912 89.2 212.456 89.008C212.984 88.8 213.176 88.432 213.176 87.648V75.696H211.992ZM206.472 76.128V89.136H207.688V76.128H206.472ZM215.832 80.464V81.648H230.184V80.464H215.832ZM222.76 76.832V78H228.552V76.832H222.76ZM222.008 74.56V81.024H223.272V74.56H222.008ZM222.056 81.264V89.28H223.304V81.264H222.056ZM223.528 84.288C225.24 84.976 227.608 86.032 228.792 86.672L229.448 85.6C228.216 84.992 225.832 84.016 224.152 83.376L223.528 84.288ZM238.104 84.144H239.416C239 81.744 242.824 81.248 242.824 78.832C242.824 76.992 241.368 75.824 239.112 75.824C237.384 75.824 236.136 76.576 235.08 77.696L235.928 78.48C236.856 77.52 237.864 77.04 238.968 77.04C240.6 77.04 241.384 77.84 241.384 78.944C241.384 80.768 237.624 81.472 238.104 84.144ZM238.792 88.08C239.352 88.08 239.816 87.68 239.816 87.04C239.816 86.4 239.352 85.968 238.792 85.968C238.232 85.968 237.768 86.4 237.768 87.04C237.768 87.68 238.216 88.08 238.792 88.08Z" fill="black"/>
<rect width="140" height="50" transform="translate(226 124)" fill="#003A9F"/>
<path d="M288.336 150.304V151.232H294.592V150.304H288.336ZM288.336 152.928V153.872H294.592V152.928H288.336ZM288.352 155.568V156.592H295.264V155.568H288.352ZM286.448 144.208V146.944H287.488V145.248H293.824V146.912H294.928V144.208H286.448ZM291.152 148.4V156.112H292.256V148.4H291.152ZM288.768 147.632H288.672L287.632 148.72V157.28H288.768V148.672H294.784V147.632H288.768ZM290.416 142.544C289.568 145.52 288 148 285.776 149.536C286.016 149.776 286.384 150.272 286.512 150.528C288.864 148.8 290.56 146.08 291.552 142.768L290.416 142.544ZM290.672 146.176C291.008 146.832 291.424 147.744 291.6 148.32L292.64 147.856C292.464 147.296 292.048 146.432 291.664 145.776L290.672 146.176ZM280.832 143.68V144.8H286.08V143.68H280.832ZM282.368 148.368V149.424H284.784V154.128H282.368V155.184H285.84V148.368H282.368ZM282.832 144.08C282.432 147.008 281.712 149.792 280.432 151.552C280.656 151.808 281.008 152.368 281.136 152.624C282.608 150.608 283.472 147.536 283.984 144.256L282.832 144.08ZM281.968 148.368V156.496H283.008V148.368H281.968ZM299.376 147.504V148.656H308.704V147.504H299.376ZM303.984 151.28V152.416H309.376V151.28H303.984ZM303.344 148.048V155.984L304.592 156.144V148.048H303.344ZM299.584 149.952C299.232 152.864 298.368 155.152 296.576 156.528C296.864 156.72 297.36 157.12 297.552 157.328C299.36 155.744 300.352 153.312 300.8 150.08L299.584 149.952ZM300.336 152L299.36 152.384C300.736 156.288 303.344 157.024 307.152 157.024H310.896C310.96 156.672 311.168 156.112 311.36 155.808C310.576 155.84 307.808 155.84 307.216 155.84C303.968 155.824 301.472 155.264 300.336 152ZM297.312 144.368V147.872H298.496V145.52H309.456V147.872H310.688V144.368H297.312ZM302.8 142.8C303.184 143.44 303.552 144.288 303.696 144.816L304.944 144.432C304.784 143.888 304.368 143.072 303.984 142.464L302.8 142.8Z" fill="white"/>
<g clip-path="url(#clip0_23_286)">
<path d="M510.012 76.0001L520.692 65.2797C520.984 64.9868 520.984 64.511 520.692 64.218C520.4 63.925 519.926 63.925 519.634 64.218L508.955 74.9383L498.275 64.2204C497.983 63.9274 497.511 63.9274 497.22 64.2204C496.928 64.5133 496.928 64.9891 497.22 65.2821L507.897 76.0001L497.22 86.7204C496.928 87.0133 496.928 87.4891 497.22 87.7821C497.364 87.9274 497.556 88.0024 497.747 88.0024C497.939 88.0024 498.13 87.9297 498.275 87.7821L508.955 77.0618L519.634 87.7821C519.779 87.9274 519.971 88.0024 520.162 88.0024C520.354 88.0024 520.545 87.9297 520.69 87.7821C520.982 87.4891 520.982 87.0133 520.69 86.7204L510.012 76.0001Z" fill="black"/>
</g>
<path d="M131.744 143.816V144.984H137.648V143.816H131.744ZM124.32 142.616V143.736H132.144V142.616H124.32ZM126.192 145.864V146.968H130.352V145.864H126.192ZM126.192 149.192V150.28H130.352V149.192H126.192ZM137.296 143.816V144.104C136.608 149.72 134.224 153.48 131.056 155.128C131.328 155.352 131.664 155.8 131.856 156.104C135.28 154.12 137.728 150.36 138.496 143.992L137.728 143.784L137.504 143.816H137.296ZM133.2 145.048L132.048 145.272C133.04 150.296 134.88 154.2 138.352 156.168C138.544 155.848 138.928 155.4 139.2 155.16C135.904 153.464 134.048 149.672 133.2 145.048ZM125.568 143.048V153.432H126.72V143.048H125.568ZM129.856 143.048V156.296H131.008V143.048H129.856ZM124 153.08L124.224 154.28C125.888 154.024 128.192 153.656 130.384 153.304L130.32 152.2C127.984 152.552 125.568 152.888 124 153.08Z" fill="#003A9F"/>
<path d="M146.16 146.184V147.288H153.168V146.184H146.16ZM145.6 146.184V150.616C145.6 152.216 145.52 154.232 144.704 155.704C144.96 155.832 145.44 156.2 145.616 156.392C146.576 154.792 146.72 152.408 146.72 150.616V146.184H145.6ZM146.928 152.104L147.344 153.144C148.976 152.76 151.136 152.216 153.184 151.688L153.072 150.744C150.832 151.256 148.48 151.8 146.928 152.104ZM147.216 149.112C148.64 149.432 150.448 150.056 151.376 150.552L151.856 149.688C150.912 149.192 149.104 148.616 147.696 148.344L147.216 149.112ZM153.36 142.056C152.976 143 152.24 144.296 151.68 145.112L152.688 145.544C153.264 144.744 153.952 143.576 154.528 142.52L153.36 142.056ZM145.184 142.6C145.856 143.544 146.544 144.792 146.8 145.624L147.872 145.096C147.6 144.28 146.88 143.048 146.192 142.152L145.184 142.6ZM152.768 146.184V154.824C152.768 155.048 152.688 155.112 152.448 155.128C152.192 155.144 151.344 155.144 150.432 155.096C150.592 155.432 150.768 155.928 150.816 156.248C152.032 156.248 152.832 156.248 153.328 156.056C153.792 155.864 153.936 155.496 153.936 154.84V146.184H152.768ZM149.216 141.608V146.888H150.416V141.608H149.216ZM141.008 142.664C141.984 143.24 143.28 144.056 143.92 144.568L144.656 143.592C143.984 143.128 142.656 142.36 141.712 141.832L141.008 142.664ZM140.144 147.08C141.12 147.592 142.448 148.36 143.104 148.808L143.776 147.832C143.088 147.368 141.744 146.664 140.8 146.2L140.144 147.08ZM140.688 155.304L141.696 156.12C142.64 154.632 143.76 152.632 144.608 150.936L143.728 150.152C142.8 151.976 141.536 154.088 140.688 155.304Z" fill="#003A9F"/>
<rect x="69.5" y="124.5" width="139.528" height="49" stroke="#003A9F"/>
<rect width="140" height="50" transform="translate(381 124)" fill="#003A9F"/>
<path d="M430.536 152.528L430.52 152.688C430.232 154.736 429.944 155.664 429.544 155.968C429.352 156.096 429.16 156.112 428.76 156.112C428.328 156.112 427.032 156.08 425.848 155.968C426.072 156.288 426.216 156.752 426.248 157.104C427.432 157.168 428.552 157.184 429.096 157.168C429.736 157.136 430.104 157.056 430.488 156.736C431 156.288 431.336 155.28 431.672 153.072C431.704 152.896 431.752 152.528 431.752 152.528H430.536ZM424.408 152.528L424.12 153.536H430.904V152.528H424.408ZM424.904 149.968L424.552 150.944H432.504V149.968H424.904ZM420.12 147.312V148.352H434.024V147.312H420.12ZM421.544 144.464V145.472H430.312V144.464H421.544ZM425.64 142.56V147.824H426.84V142.56H425.64ZM432.36 143.312C429.384 147.056 424.568 150.128 419.624 151.872C419.816 152.128 420.088 152.672 420.184 152.944C425.176 150.992 430.088 147.856 433.304 143.856L432.36 143.312ZM424.696 150.368C424.296 151.392 423.72 152.672 423.24 153.536H424.52C424.92 152.72 425.496 151.456 425.928 150.368H424.696ZM442.76 143.44V144.304H448.84V143.44H442.76ZM437.96 145.216V146.144H449.048V145.216H437.96ZM442.216 142.576V145.84H443.416V142.576H442.216ZM437.208 145.216V149.328C437.208 151.488 437.064 154.464 435.56 156.576C435.848 156.672 436.36 157.008 436.568 157.2C438.136 154.976 438.376 151.68 438.376 149.328V145.216H437.208ZM448.664 145.216V145.392C448.488 146.016 448.2 146.736 447.928 147.232L448.952 147.568C449.288 147.024 449.656 146.192 449.944 145.408L449.08 145.168L448.872 145.216H448.664ZM443.56 149.952V152.992H444.648V149.952H443.56ZM440.84 151.84H447.624V152.672H440.84V151.84ZM440.84 150.368H447.624V151.184H440.84V150.368ZM439.72 149.696V153.36H448.776V149.696H439.72ZM441.176 153.984V155.616C441.176 156.688 441.544 156.96 443.032 156.96C443.352 156.96 445.48 156.96 445.8 156.96C446.888 156.96 447.24 156.64 447.352 155.28C447.048 155.232 446.6 155.088 446.36 154.912C446.312 155.904 446.216 156.016 445.672 156.016C445.224 156.016 443.464 156.016 443.128 156.016C442.392 156.016 442.28 155.968 442.28 155.616V153.984H441.176ZM439.672 154.048C439.368 154.752 438.84 155.68 438.296 156.208L439.208 156.784C439.768 156.16 440.248 155.216 440.584 154.48L439.672 154.048ZM443.048 153.856C443.56 154.304 444.2 154.96 444.52 155.36L445.288 154.768C444.968 154.384 444.28 153.76 443.8 153.344L443.048 153.856ZM447.544 154.256C448.088 154.992 448.792 156.016 449.144 156.608L450.104 156.096C449.736 155.536 449 154.576 448.472 153.856L447.544 154.256ZM439.032 147.056L439.08 147.92L442.968 147.696L442.92 146.864L439.032 147.056ZM442.232 145.856V147.664C442.232 148.608 442.504 149.056 443.72 149.056C444.104 149.056 446.712 149.056 447.256 149.056C447.864 149.056 448.52 149.04 448.824 148.96C448.792 148.736 448.76 148.48 448.712 148.16C448.392 148.24 447.592 148.256 447.16 148.256C446.664 148.256 444.392 148.256 443.928 148.256C443.4 148.256 443.32 148.112 443.32 147.68V145.856H442.232ZM442.824 146.864L442.84 147.6L447.4 147.36L447.384 146.656L442.824 146.864ZM451.704 149.104V150.416H466.344V149.104H451.704ZM467.88 143.744V144.96H482.12V143.744H467.88ZM474.04 144.704V157.264H475.304V144.704H474.04ZM474.744 148.496C476.68 149.488 479.176 151.008 480.408 152L481.256 150.912C479.976 149.952 477.448 148.496 475.528 147.568L474.744 148.496Z" fill="white"/>
<g clip-path="url(#clip1_23_286)">
<path d="M92.9907 82C92.9907 88.4204 87.8057 93.625 81.4096 93.625C75.0136 93.625 69.8286 88.4204 69.8286 82C69.8286 75.5796 75.0136 70.375 81.4096 70.375C87.8057 70.375 92.9907 75.5796 92.9907 82ZM80.07 88.1553L88.6624 79.5303C88.9542 79.2375 88.9542 78.7625 88.6624 78.4697L87.6058 77.409C87.3141 77.1161 86.8409 77.1161 86.5491 77.409L79.5418 84.443L76.2702 81.159C75.9784 80.8661 75.5053 80.8661 75.2135 81.159L74.1569 82.2196C73.8651 82.5125 73.8651 82.9874 74.1569 83.2803L79.0134 88.1553C79.3052 88.4481 79.7783 88.4481 80.0701 88.1553L80.07 88.1553Z" fill="black"/>
</g>
<defs>
<clipPath id="clip0_23_286">
<rect width="23.9092" height="24" fill="white" transform="translate(497 64)"/>
</clipPath>
<clipPath id="clip1_23_286">
<rect width="23.9092" height="24" fill="white" transform="translate(69.4551 70)"/>
</clipPath>
</defs>
</svg>
