<svg width="790" height="244" viewBox="0 0 790 244" fill="none" xmlns="http://www.w3.org/2000/svg">
<rect x="113.569" y="40" width="557.881" height="164" fill="white"/>
<path d="M185.336 82.304V83.232H191.592V82.304H185.336ZM185.336 84.928V85.872H191.592V84.928H185.336ZM185.352 87.568V88.592H192.264V87.568H185.352ZM183.448 76.208V78.944H184.488V77.248H190.824V78.912H191.928V76.208H183.448ZM188.152 80.4V88.112H189.256V80.4H188.152ZM185.768 79.632H185.672L184.632 80.72V89.28H185.768V80.672H191.784V79.632H185.768ZM187.416 74.544C186.568 77.52 185 80 182.776 81.536C183.016 81.776 183.384 82.272 183.512 82.528C185.864 80.8 187.56 78.08 188.552 74.768L187.416 74.544ZM187.672 78.176C188.008 78.832 188.424 79.744 188.6 80.32L189.64 79.856C189.464 79.296 189.048 78.432 188.664 77.776L187.672 78.176ZM177.832 75.68V76.8H183.08V75.68H177.832ZM179.368 80.368V81.424H181.784V86.128H179.368V87.184H182.84V80.368H179.368ZM179.832 76.08C179.432 79.008 178.712 81.792 177.432 83.552C177.656 83.808 178.008 84.368 178.136 84.624C179.608 82.608 180.472 79.536 180.984 76.256L179.832 76.08ZM178.968 80.368V88.496H180.008V80.368H178.968ZM196.376 79.504V80.656H205.704V79.504H196.376ZM200.984 83.28V84.416H206.376V83.28H200.984ZM200.344 80.048V87.984L201.592 88.144V80.048H200.344ZM196.584 81.952C196.232 84.864 195.368 87.152 193.576 88.528C193.864 88.72 194.36 89.12 194.552 89.328C196.36 87.744 197.352 85.312 197.8 82.08L196.584 81.952ZM197.336 84L196.36 84.384C197.736 88.288 200.344 89.024 204.152 89.024H207.896C207.96 88.672 208.168 88.112 208.36 87.808C207.576 87.84 204.808 87.84 204.216 87.84C200.968 87.824 198.472 87.264 197.336 84ZM194.312 76.368V79.872H195.496V77.52H206.456V79.872H207.688V76.368H194.312ZM199.8 74.8C200.184 75.44 200.552 76.288 200.696 76.816L201.944 76.432C201.784 75.888 201.368 75.072 200.984 74.464L199.8 74.8ZM219.608 76.496V85.36H220.68V76.496H219.608ZM222.536 74.864V87.728C222.536 87.984 222.472 88.064 222.232 88.064C221.944 88.08 221.08 88.096 220.184 88.064C220.344 88.4 220.504 88.944 220.552 89.264C221.704 89.264 222.552 89.216 223.016 89.024C223.48 88.832 223.656 88.48 223.656 87.728V74.864H222.536ZM217.176 75.36V87.984C217.176 88.16 217.128 88.208 216.968 88.208C216.84 88.224 216.408 88.224 215.928 88.208C216.088 88.496 216.248 88.992 216.296 89.264C217.016 89.264 217.48 89.232 217.8 89.056C218.136 88.848 218.232 88.528 218.232 88V75.36H217.176ZM210.648 75.36V89.296H211.672V76.432H217.752V75.36H210.648ZM209.624 81.008V82.128H219.224V81.008H209.624ZM212.904 75.808V88.784H213.752V75.808H212.904ZM215.016 75.808V88.704H215.864V75.808H215.016ZM226.232 75.216V89.248H227.304V76.304H229.96V75.216H226.232ZM229.64 75.216V75.536C229.256 76.624 228.632 78.48 228.008 79.92C229.24 81.2 229.544 82.288 229.56 83.168C229.56 83.664 229.464 84.096 229.192 84.272C229.064 84.384 228.872 84.432 228.664 84.432C228.392 84.448 228.04 84.448 227.656 84.416C227.848 84.72 227.944 85.184 227.944 85.472C228.328 85.488 228.776 85.488 229.096 85.456C229.448 85.408 229.736 85.328 229.976 85.152C230.44 84.816 230.632 84.16 230.632 83.28C230.616 82.272 230.328 81.12 229.08 79.792C229.656 78.528 230.296 76.96 230.792 75.632L230.008 75.168L229.832 75.216H229.64ZM232.424 79.472V80.544H238.744V79.472H232.424ZM230.936 82.496V83.6H240.248V82.496H230.936ZM232.568 84.48C232.04 85.616 231.208 86.832 230.376 87.664C230.632 87.808 231.096 88.144 231.288 88.32C232.104 87.424 233.032 86.064 233.64 84.784L232.568 84.48ZM237.208 84.8C238.072 85.824 239.064 87.248 239.512 88.176L240.456 87.616C240.008 86.72 239.016 85.344 238.12 84.336L237.208 84.8ZM235.128 79.728V87.888C235.128 88.096 235.064 88.176 234.824 88.192C234.584 88.192 233.816 88.192 232.92 88.16C233.096 88.48 233.272 88.96 233.336 89.28C234.488 89.28 235.224 89.264 235.672 89.072C236.136 88.88 236.296 88.56 236.296 87.888V79.728H235.128ZM235.576 74.464C234.504 76.384 232.504 78.224 230.504 79.264C230.792 79.488 231.112 79.856 231.304 80.144C233.384 78.944 235.384 76.992 236.6 74.864L235.576 74.464ZM236.104 75.312L235.16 75.712C236.68 77.76 238.2 78.992 239.768 79.984C239.944 79.664 240.296 79.264 240.584 79.04C239.064 78.192 237.512 77.104 236.104 75.312ZM246.408 79.504V80.672H249.48V79.504H246.408ZM245.976 74.576V87.552L247.224 87.392V74.576H245.976ZM243 77.808V88L244.184 87.84V77.808H243ZM241.704 87.792L241.912 89.072C243.928 88.688 246.84 88.16 249.576 87.648L249.48 86.448C246.648 86.96 243.64 87.488 241.704 87.792ZM250.28 74.576V86.544C250.28 88.304 250.712 88.752 252.2 88.752C252.504 88.752 254.296 88.752 254.632 88.752C256.072 88.752 256.392 87.856 256.552 85.264C256.2 85.184 255.704 84.96 255.384 84.72C255.304 86.992 255.192 87.584 254.536 87.584C254.136 87.584 252.664 87.584 252.344 87.584C251.672 87.584 251.56 87.424 251.56 86.576V74.576H250.28ZM251.128 79.504V80.672H255.48V79.504H251.128ZM263.112 79.504V80.496H270.888V79.504H263.112ZM263.112 81.776V82.768H270.888V81.776H263.112ZM263.608 87.664V88.656H270.376V87.664H263.608ZM261.96 77.216V78.224H272.152V77.216H261.96ZM262.904 84.128V89.28H263.944V85.12H269.976V89.232H271.064V84.128H262.904ZM265.656 74.96C266.072 75.648 266.568 76.544 266.776 77.136L267.864 76.656C267.624 76.08 267.144 75.216 266.696 74.56L265.656 74.96ZM261.08 74.624C260.28 77.04 258.936 79.44 257.496 81.008C257.72 81.28 258.056 81.872 258.168 82.144C259.752 80.336 261.224 77.632 262.168 74.944L261.08 74.624ZM259.704 78.8V89.328H260.808V77.712L260.792 77.696L259.704 78.8ZM276.12 75.696V76.848H286.472V75.696H276.12ZM276.12 79.424V80.56H286.456V79.424H276.12ZM276.04 83.248V84.384H286.488V83.248H276.04ZM275.448 75.696V81.488C275.448 83.744 275.272 86.592 273.512 88.576C273.768 88.736 274.248 89.136 274.44 89.376C276.344 87.248 276.632 83.936 276.632 81.504V75.696H275.448ZM285.992 75.696V87.648C285.992 87.952 285.88 88.048 285.576 88.064C285.272 88.064 284.184 88.08 283.048 88.032C283.224 88.352 283.416 88.88 283.464 89.2C284.984 89.216 285.912 89.2 286.456 89.008C286.984 88.8 287.176 88.432 287.176 87.648V75.696H285.992ZM280.472 76.128V89.136H281.688V76.128H280.472ZM289.832 80.464V81.648H304.184V80.464H289.832ZM296.76 76.832V78H302.552V76.832H296.76ZM296.008 74.56V81.024H297.272V74.56H296.008ZM296.056 81.264V89.28H297.304V81.264H296.056ZM297.528 84.288C299.24 84.976 301.608 86.032 302.792 86.672L303.448 85.6C302.216 84.992 299.832 84.016 298.152 83.376L297.528 84.288ZM312.104 84.144H313.416C313 81.744 316.824 81.248 316.824 78.832C316.824 76.992 315.368 75.824 313.112 75.824C311.384 75.824 310.136 76.576 309.08 77.696L309.928 78.48C310.856 77.52 311.864 77.04 312.968 77.04C314.6 77.04 315.384 77.84 315.384 78.944C315.384 80.768 311.624 81.472 312.104 84.144ZM312.792 88.08C313.352 88.08 313.816 87.68 313.816 87.04C313.816 86.4 313.352 85.968 312.792 85.968C312.232 85.968 311.768 86.4 311.768 87.04C311.768 87.68 312.216 88.08 312.792 88.08Z" fill="black"/>
<rect width="139.47" height="50" transform="translate(343.695 124)" fill="#003A9F"/>
<path d="M405.766 150.304V151.232H412.022V150.304H405.766ZM405.766 152.928V153.872H412.022V152.928H405.766ZM405.782 155.568V156.592H412.694V155.568H405.782ZM403.878 144.208V146.944H404.918V145.248H411.254V146.912H412.358V144.208H403.878ZM408.582 148.4V156.112H409.686V148.4H408.582ZM406.198 147.632H406.102L405.062 148.72V157.28H406.198V148.672H412.214V147.632H406.198ZM407.846 142.544C406.998 145.52 405.43 148 403.206 149.536C403.446 149.776 403.814 150.272 403.942 150.528C406.294 148.8 407.99 146.08 408.982 142.768L407.846 142.544ZM408.102 146.176C408.438 146.832 408.854 147.744 409.03 148.32L410.07 147.856C409.894 147.296 409.478 146.432 409.094 145.776L408.102 146.176ZM398.262 143.68V144.8H403.51V143.68H398.262ZM399.798 148.368V149.424H402.214V154.128H399.798V155.184H403.27V148.368H399.798ZM400.262 144.08C399.862 147.008 399.142 149.792 397.862 151.552C398.086 151.808 398.438 152.368 398.566 152.624C400.038 150.608 400.902 147.536 401.414 144.256L400.262 144.08ZM399.398 148.368V156.496H400.438V148.368H399.398ZM416.806 147.504V148.656H426.134V147.504H416.806ZM421.414 151.28V152.416H426.806V151.28H421.414ZM420.774 148.048V155.984L422.022 156.144V148.048H420.774ZM417.014 149.952C416.662 152.864 415.798 155.152 414.006 156.528C414.294 156.72 414.79 157.12 414.982 157.328C416.79 155.744 417.782 153.312 418.23 150.08L417.014 149.952ZM417.766 152L416.79 152.384C418.166 156.288 420.774 157.024 424.582 157.024H428.326C428.39 156.672 428.598 156.112 428.79 155.808C428.006 155.84 425.238 155.84 424.646 155.84C421.398 155.824 418.902 155.264 417.766 152ZM414.742 144.368V147.872H415.926V145.52H426.886V147.872H428.118V144.368H414.742ZM420.23 142.8C420.614 143.44 420.982 144.288 421.126 144.816L422.374 144.432C422.214 143.888 421.798 143.072 421.414 142.464L420.23 142.8Z" fill="white"/>
<g clip-path="url(#clip0_23_248)">
<path d="M630.667 76.0001L641.347 65.2797C641.639 64.9868 641.639 64.511 641.347 64.218C641.055 63.925 640.581 63.925 640.289 64.218L629.609 74.9383L618.93 64.2204C618.638 63.9274 618.166 63.9274 617.874 64.2204C617.582 64.5133 617.582 64.9891 617.874 65.2821L628.552 76.0001L617.874 86.7204C617.582 87.0133 617.582 87.4891 617.874 87.7821C618.019 87.9274 618.211 88.0024 618.402 88.0024C618.593 88.0024 618.785 87.9297 618.93 87.7821L629.609 77.0618L640.289 87.7821C640.434 87.9274 640.625 88.0024 640.817 88.0024C641.008 88.0024 641.2 87.9297 641.345 87.7821C641.636 87.4891 641.636 87.0133 641.345 86.7204L630.667 76.0001Z" fill="black"/>
</g>
<path d="M250.48 143.816V144.984H256.384V143.816H250.48ZM243.056 142.616V143.736H250.88V142.616H243.056ZM244.928 145.864V146.968H249.088V145.864H244.928ZM244.928 149.192V150.28H249.088V149.192H244.928ZM256.032 143.816V144.104C255.344 149.72 252.96 153.48 249.792 155.128C250.064 155.352 250.4 155.8 250.592 156.104C254.016 154.12 256.464 150.36 257.232 143.992L256.464 143.784L256.24 143.816H256.032ZM251.936 145.048L250.784 145.272C251.776 150.296 253.616 154.2 257.088 156.168C257.28 155.848 257.664 155.4 257.936 155.16C254.64 153.464 252.784 149.672 251.936 145.048ZM244.304 143.048V153.432H245.456V143.048H244.304ZM248.592 143.048V156.296H249.744V143.048H248.592ZM242.736 153.08L242.96 154.28C244.624 154.024 246.928 153.656 249.12 153.304L249.056 152.2C246.72 152.552 244.304 152.888 242.736 153.08Z" fill="#003A9F"/>
<path d="M264.896 146.184V147.288H271.904V146.184H264.896ZM264.336 146.184V150.616C264.336 152.216 264.256 154.232 263.44 155.704C263.696 155.832 264.176 156.2 264.352 156.392C265.312 154.792 265.456 152.408 265.456 150.616V146.184H264.336ZM265.664 152.104L266.08 153.144C267.712 152.76 269.872 152.216 271.92 151.688L271.808 150.744C269.568 151.256 267.216 151.8 265.664 152.104ZM265.952 149.112C267.376 149.432 269.184 150.056 270.112 150.552L270.592 149.688C269.648 149.192 267.84 148.616 266.432 148.344L265.952 149.112ZM272.096 142.056C271.712 143 270.976 144.296 270.416 145.112L271.424 145.544C272 144.744 272.688 143.576 273.264 142.52L272.096 142.056ZM263.92 142.6C264.592 143.544 265.28 144.792 265.536 145.624L266.608 145.096C266.336 144.28 265.616 143.048 264.928 142.152L263.92 142.6ZM271.504 146.184V154.824C271.504 155.048 271.424 155.112 271.184 155.128C270.928 155.144 270.08 155.144 269.168 155.096C269.328 155.432 269.504 155.928 269.552 156.248C270.768 156.248 271.568 156.248 272.064 156.056C272.528 155.864 272.672 155.496 272.672 154.84V146.184H271.504ZM267.952 141.608V146.888H269.152V141.608H267.952ZM259.744 142.664C260.72 143.24 262.016 144.056 262.656 144.568L263.392 143.592C262.72 143.128 261.392 142.36 260.448 141.832L259.744 142.664ZM258.88 147.08C259.856 147.592 261.184 148.36 261.84 148.808L262.512 147.832C261.824 147.368 260.48 146.664 259.536 146.2L258.88 147.08ZM259.424 155.304L260.432 156.12C261.376 154.632 262.496 152.632 263.344 150.936L262.464 150.152C261.536 151.976 260.272 154.088 259.424 155.304Z" fill="#003A9F"/>
<rect x="187.5" y="124.5" width="141" height="49" stroke="#003A9F"/>
<rect width="139.47" height="50" transform="translate(500.102 124)" fill="#003A9F"/>
<path d="M549.373 152.528L549.357 152.688C549.069 154.736 548.781 155.664 548.381 155.968C548.189 156.096 547.997 156.112 547.597 156.112C547.165 156.112 545.869 156.08 544.685 155.968C544.909 156.288 545.053 156.752 545.085 157.104C546.269 157.168 547.389 157.184 547.933 157.168C548.573 157.136 548.941 157.056 549.325 156.736C549.837 156.288 550.173 155.28 550.509 153.072C550.541 152.896 550.589 152.528 550.589 152.528H549.373ZM543.245 152.528L542.957 153.536H549.741V152.528H543.245ZM543.741 149.968L543.389 150.944H551.341V149.968H543.741ZM538.957 147.312V148.352H552.861V147.312H538.957ZM540.381 144.464V145.472H549.149V144.464H540.381ZM544.477 142.56V147.824H545.677V142.56H544.477ZM551.197 143.312C548.221 147.056 543.405 150.128 538.461 151.872C538.653 152.128 538.925 152.672 539.021 152.944C544.013 150.992 548.925 147.856 552.141 143.856L551.197 143.312ZM543.533 150.368C543.133 151.392 542.557 152.672 542.077 153.536H543.357C543.757 152.72 544.333 151.456 544.765 150.368H543.533ZM561.597 143.44V144.304H567.677V143.44H561.597ZM556.797 145.216V146.144H567.885V145.216H556.797ZM561.053 142.576V145.84H562.253V142.576H561.053ZM556.045 145.216V149.328C556.045 151.488 555.901 154.464 554.397 156.576C554.685 156.672 555.197 157.008 555.405 157.2C556.973 154.976 557.213 151.68 557.213 149.328V145.216H556.045ZM567.501 145.216V145.392C567.325 146.016 567.037 146.736 566.765 147.232L567.789 147.568C568.125 147.024 568.493 146.192 568.781 145.408L567.917 145.168L567.709 145.216H567.501ZM562.397 149.952V152.992H563.485V149.952H562.397ZM559.677 151.84H566.461V152.672H559.677V151.84ZM559.677 150.368H566.461V151.184H559.677V150.368ZM558.557 149.696V153.36H567.613V149.696H558.557ZM560.013 153.984V155.616C560.013 156.688 560.381 156.96 561.869 156.96C562.189 156.96 564.317 156.96 564.637 156.96C565.725 156.96 566.077 156.64 566.189 155.28C565.885 155.232 565.437 155.088 565.197 154.912C565.149 155.904 565.053 156.016 564.509 156.016C564.061 156.016 562.301 156.016 561.965 156.016C561.229 156.016 561.117 155.968 561.117 155.616V153.984H560.013ZM558.509 154.048C558.205 154.752 557.677 155.68 557.133 156.208L558.045 156.784C558.605 156.16 559.085 155.216 559.421 154.48L558.509 154.048ZM561.885 153.856C562.397 154.304 563.037 154.96 563.357 155.36L564.125 154.768C563.805 154.384 563.117 153.76 562.637 153.344L561.885 153.856ZM566.381 154.256C566.925 154.992 567.629 156.016 567.981 156.608L568.941 156.096C568.573 155.536 567.837 154.576 567.309 153.856L566.381 154.256ZM557.869 147.056L557.917 147.92L561.805 147.696L561.757 146.864L557.869 147.056ZM561.069 145.856V147.664C561.069 148.608 561.341 149.056 562.557 149.056C562.941 149.056 565.549 149.056 566.093 149.056C566.701 149.056 567.357 149.04 567.661 148.96C567.629 148.736 567.597 148.48 567.549 148.16C567.229 148.24 566.429 148.256 565.997 148.256C565.501 148.256 563.229 148.256 562.765 148.256C562.237 148.256 562.157 148.112 562.157 147.68V145.856H561.069ZM561.661 146.864L561.677 147.6L566.237 147.36L566.221 146.656L561.661 146.864ZM570.541 149.104V150.416H585.181V149.104H570.541ZM586.717 143.744V144.96H600.957V143.744H586.717ZM592.877 144.704V157.264H594.141V144.704H592.877ZM593.581 148.496C595.517 149.488 598.013 151.008 599.245 152L600.093 150.912C598.813 149.952 596.285 148.496 594.365 147.568L593.581 148.496Z" fill="white"/>
<g clip-path="url(#clip1_23_248)">
<path d="M166.991 82C166.991 88.4204 161.806 93.625 155.41 93.625C149.014 93.625 143.829 88.4204 143.829 82C143.829 75.5796 149.014 70.375 155.41 70.375C161.806 70.375 166.991 75.5796 166.991 82ZM154.07 88.1553L162.662 79.5303C162.954 79.2375 162.954 78.7625 162.662 78.4697L161.606 77.409C161.314 77.1161 160.841 77.1161 160.549 77.409L153.542 84.443L150.27 81.159C149.978 80.8661 149.505 80.8661 149.213 81.159L148.157 82.2196C147.865 82.5125 147.865 82.9874 148.157 83.2803L153.013 88.1553C153.305 88.4481 153.778 88.4481 154.07 88.1553L154.07 88.1553Z" fill="black"/>
</g>
<defs>
<clipPath id="clip0_23_248">
<rect width="23.9092" height="24" fill="white" transform="translate(617.655 64)"/>
</clipPath>
<clipPath id="clip1_23_248">
<rect width="23.9092" height="24" fill="white" transform="translate(143.455 70)"/>
</clipPath>
</defs>
</svg>
