<svg width="494" height="326" viewBox="0 0 494 326" fill="none" xmlns="http://www.w3.org/2000/svg">
<rect x="40" y="80" width="414" height="164" fill="white"/>
<path d="M183.957 152.168C185.529 152.168 186.789 151.22 186.789 149.66C186.789 148.448 185.949 147.668 184.917 147.416V147.368C185.853 147.032 186.477 146.324 186.477 145.256C186.477 143.852 185.397 143.048 183.921 143.048C182.913 143.048 182.133 143.492 181.473 144.092L182.061 144.8C182.553 144.296 183.177 143.936 183.885 143.936C184.797 143.936 185.361 144.488 185.361 145.328C185.361 146.288 184.749 147.008 182.937 147.008V147.86C184.965 147.86 185.673 148.556 185.673 149.612C185.673 150.62 184.929 151.256 183.885 151.256C182.877 151.256 182.217 150.776 181.701 150.236L181.149 150.956C181.725 151.592 182.577 152.168 183.957 152.168ZM190.793 152.168C192.449 152.168 193.517 150.644 193.517 147.572C193.517 144.524 192.449 143.048 190.793 143.048C189.113 143.048 188.045 144.524 188.045 147.572C188.045 150.644 189.113 152.168 190.793 152.168ZM190.793 151.28C189.785 151.28 189.101 150.164 189.101 147.572C189.101 145.016 189.785 143.924 190.793 143.924C191.789 143.924 192.461 145.016 192.461 147.572C192.461 150.164 191.789 151.28 190.793 151.28Z" fill="#D60C18"/>
<path d="M270.52 228H275.344V227.088H273.568V219.204H272.728C272.26 219.492 271.696 219.696 270.904 219.828V220.536H272.476V227.088H270.52V228ZM279.252 228.168C280.728 228.168 282.132 227.064 282.132 225.144C282.132 223.2 280.944 222.336 279.48 222.336C278.952 222.336 278.556 222.468 278.16 222.684L278.388 220.14H281.712V219.204H277.428L277.152 223.32L277.74 223.692C278.244 223.356 278.616 223.164 279.204 223.164C280.296 223.164 281.016 223.92 281.016 225.18C281.016 226.452 280.188 227.256 279.144 227.256C278.136 227.256 277.488 226.788 276.996 226.272L276.444 226.992C277.044 227.592 277.884 228.168 279.252 228.168Z" fill="#D60C18"/>
<path d="M81.0124 100.168C82.5844 100.168 83.8444 99.22 83.8444 97.66C83.8444 96.448 83.0044 95.668 81.9724 95.416V95.368C82.9084 95.032 83.5324 94.324 83.5324 93.256C83.5324 91.852 82.4524 91.048 80.9764 91.048C79.9684 91.048 79.1884 91.492 78.5284 92.092L79.1164 92.8C79.6084 92.296 80.2324 91.936 80.9404 91.936C81.8524 91.936 82.4164 92.488 82.4164 93.328C82.4164 94.288 81.8044 95.008 79.9924 95.008V95.86C82.0204 95.86 82.7284 96.556 82.7284 97.612C82.7284 98.62 81.9844 99.256 80.9404 99.256C79.9324 99.256 79.2724 98.776 78.7564 98.236L78.2044 98.956C78.7804 99.592 79.6324 100.168 81.0124 100.168ZM87.8487 100.168C89.5047 100.168 90.5727 98.644 90.5727 95.572C90.5727 92.524 89.5047 91.048 87.8487 91.048C86.1687 91.048 85.1007 92.524 85.1007 95.572C85.1007 98.644 86.1687 100.168 87.8487 100.168ZM87.8487 99.28C86.8407 99.28 86.1567 98.164 86.1567 95.572C86.1567 93.016 86.8407 91.924 87.8487 91.924C88.8447 91.924 89.5167 93.016 89.5167 95.572C89.5167 98.164 88.8447 99.28 87.8487 99.28Z" fill="#D60C18"/>
<path d="M52.1223 126.168C53.6943 126.168 54.9543 125.22 54.9543 123.66C54.9543 122.448 54.1143 121.668 53.0823 121.416V121.368C54.0183 121.032 54.6423 120.324 54.6423 119.256C54.6423 117.852 53.5623 117.048 52.0863 117.048C51.0783 117.048 50.2983 117.492 49.6383 118.092L50.2263 118.8C50.7183 118.296 51.3423 117.936 52.0503 117.936C52.9623 117.936 53.5263 118.488 53.5263 119.328C53.5263 120.288 52.9143 121.008 51.1023 121.008V121.86C53.1303 121.86 53.8383 122.556 53.8383 123.612C53.8383 124.62 53.0943 125.256 52.0503 125.256C51.0423 125.256 50.3823 124.776 49.8663 124.236L49.3143 124.956C49.8903 125.592 50.7423 126.168 52.1223 126.168ZM58.9586 126.168C60.6146 126.168 61.6826 124.644 61.6826 121.572C61.6826 118.524 60.6146 117.048 58.9586 117.048C57.2786 117.048 56.2106 118.524 56.2106 121.572C56.2106 124.644 57.2786 126.168 58.9586 126.168ZM58.9586 125.28C57.9506 125.28 57.2666 124.164 57.2666 121.572C57.2666 119.016 57.9506 117.924 58.9586 117.924C59.9546 117.924 60.6266 119.016 60.6266 121.572C60.6266 124.164 59.9546 125.28 58.9586 125.28Z" fill="#D60C18"/>
<line x1="40.5" y1="113.5" x2="40.5" y2="130.5" stroke="#939EA7" stroke-linecap="square" stroke-dasharray="2 2"/>
<line x1="267.971" y1="214.5" x2="267.971" y2="231.5" stroke="#939EA7" stroke-linecap="square" stroke-dasharray="2 2"/>
<line x1="284.907" y1="214.5" x2="284.907" y2="231.5" stroke="#939EA7" stroke-linecap="square" stroke-dasharray="2 2"/>
<line x1="199.239" y1="133.5" x2="182.307" y2="133.5" stroke="#939EA7" stroke-linecap="square" stroke-dasharray="2 2"/>
<line x1="196.239" y1="163.5" x2="179.307" y2="163.5" stroke="#939EA7" stroke-linecap="square" stroke-dasharray="2 2"/>
<line x1="69.3901" y1="113.5" x2="69.3901" y2="130.5" stroke="#939EA7" stroke-linecap="square" stroke-dasharray="2 2"/>
<line x1="93.2964" y1="80.5" x2="76.3645" y2="80.5" stroke="#939EA7" stroke-linecap="square" stroke-dasharray="2 2"/>
<path d="M77.8355 123.304V124.232H84.0915V123.304H77.8355ZM77.8355 125.928V126.872H84.0915V125.928H77.8355ZM77.8515 128.568V129.592H84.7635V128.568H77.8515ZM75.9475 117.208V119.944H76.9875V118.248H83.3235V119.912H84.4275V117.208H75.9475ZM80.6515 121.4V129.112H81.7555V121.4H80.6515ZM78.2675 120.632H78.1715L77.1315 121.72V130.28H78.2675V121.672H84.2835V120.632H78.2675ZM79.9155 115.544C79.0675 118.52 77.4995 121 75.2755 122.536C75.5155 122.776 75.8835 123.272 76.0115 123.528C78.3635 121.8 80.0595 119.08 81.0515 115.768L79.9155 115.544ZM80.1715 119.176C80.5075 119.832 80.9235 120.744 81.0995 121.32L82.1395 120.856C81.9635 120.296 81.5475 119.432 81.1635 118.776L80.1715 119.176ZM70.3315 116.68V117.8H75.5795V116.68H70.3315ZM71.8675 121.368V122.424H74.2835V127.128H71.8675V128.184H75.3395V121.368H71.8675ZM72.3315 117.08C71.9315 120.008 71.2115 122.792 69.9315 124.552C70.1555 124.808 70.5075 125.368 70.6355 125.624C72.1075 123.608 72.9715 120.536 73.4835 117.256L72.3315 117.08ZM71.4675 121.368V129.496H72.5075V121.368H71.4675ZM88.8755 120.504V121.656H98.2035V120.504H88.8755ZM93.4835 124.28V125.416H98.8755V124.28H93.4835ZM92.8435 121.048V128.984L94.0915 129.144V121.048H92.8435ZM89.0835 122.952C88.7315 125.864 87.8675 128.152 86.0755 129.528C86.3635 129.72 86.8595 130.12 87.0515 130.328C88.8595 128.744 89.8515 126.312 90.2995 123.08L89.0835 122.952ZM89.8355 125L88.8595 125.384C90.2355 129.288 92.8435 130.024 96.6515 130.024H100.396C100.46 129.672 100.668 129.112 100.86 128.808C100.076 128.84 97.3075 128.84 96.7155 128.84C93.4675 128.824 90.9715 128.264 89.8355 125ZM86.8115 117.368V120.872H87.9955V118.52H98.9555V120.872H100.188V117.368H86.8115ZM92.2995 115.8C92.6835 116.44 93.0515 117.288 93.1955 117.816L94.4435 117.432C94.2835 116.888 93.8675 116.072 93.4835 115.464L92.2995 115.8ZM112.108 117.496V126.36H113.18V117.496H112.108ZM115.036 115.864V128.728C115.036 128.984 114.972 129.064 114.732 129.064C114.444 129.08 113.58 129.096 112.684 129.064C112.844 129.4 113.004 129.944 113.052 130.264C114.204 130.264 115.052 130.216 115.516 130.024C115.98 129.832 116.156 129.48 116.156 128.728V115.864H115.036ZM109.676 116.36V128.984C109.676 129.16 109.628 129.208 109.468 129.208C109.34 129.224 108.908 129.224 108.428 129.208C108.588 129.496 108.748 129.992 108.796 130.264C109.516 130.264 109.98 130.232 110.3 130.056C110.636 129.848 110.732 129.528 110.732 129V116.36H109.676ZM103.148 116.36V130.296H104.172V117.432H110.252V116.36H103.148ZM102.124 122.008V123.128H111.724V122.008H102.124ZM105.404 116.808V129.784H106.252V116.808H105.404ZM107.516 116.808V129.704H108.364V116.808H107.516ZM118.732 116.216V130.248H119.804V117.304H122.46V116.216H118.732ZM122.14 116.216V116.536C121.756 117.624 121.132 119.48 120.508 120.92C121.74 122.2 122.044 123.288 122.06 124.168C122.06 124.664 121.964 125.096 121.692 125.272C121.564 125.384 121.372 125.432 121.164 125.432C120.892 125.448 120.54 125.448 120.156 125.416C120.348 125.72 120.444 126.184 120.444 126.472C120.828 126.488 121.276 126.488 121.596 126.456C121.948 126.408 122.236 126.328 122.476 126.152C122.94 125.816 123.132 125.16 123.132 124.28C123.116 123.272 122.828 122.12 121.58 120.792C122.156 119.528 122.796 117.96 123.292 116.632L122.508 116.168L122.332 116.216H122.14ZM124.924 120.472V121.544H131.244V120.472H124.924ZM123.436 123.496V124.6H132.748V123.496H123.436ZM125.068 125.48C124.54 126.616 123.708 127.832 122.876 128.664C123.132 128.808 123.596 129.144 123.788 129.32C124.604 128.424 125.532 127.064 126.14 125.784L125.068 125.48ZM129.708 125.8C130.572 126.824 131.564 128.248 132.012 129.176L132.956 128.616C132.508 127.72 131.516 126.344 130.62 125.336L129.708 125.8ZM127.628 120.728V128.888C127.628 129.096 127.564 129.176 127.324 129.192C127.084 129.192 126.316 129.192 125.42 129.16C125.596 129.48 125.772 129.96 125.836 130.28C126.988 130.28 127.724 130.264 128.172 130.072C128.636 129.88 128.796 129.56 128.796 128.888V120.728H127.628ZM128.076 115.464C127.004 117.384 125.004 119.224 123.004 120.264C123.292 120.488 123.612 120.856 123.804 121.144C125.884 119.944 127.884 117.992 129.1 115.864L128.076 115.464ZM128.604 116.312L127.66 116.712C129.18 118.76 130.7 119.992 132.268 120.984C132.444 120.664 132.796 120.264 133.084 120.04C131.564 119.192 130.012 118.104 128.604 116.312ZM138.908 120.504V121.672H141.98V120.504H138.908ZM138.476 115.576V128.552L139.724 128.392V115.576H138.476ZM135.5 118.808V129L136.684 128.84V118.808H135.5ZM134.204 128.792L134.412 130.072C136.428 129.688 139.34 129.16 142.076 128.648L141.98 127.448C139.148 127.96 136.14 128.488 134.204 128.792ZM142.78 115.576V127.544C142.78 129.304 143.212 129.752 144.7 129.752C145.004 129.752 146.796 129.752 147.132 129.752C148.572 129.752 148.892 128.856 149.052 126.264C148.7 126.184 148.204 125.96 147.884 125.72C147.804 127.992 147.692 128.584 147.036 128.584C146.636 128.584 145.164 128.584 144.844 128.584C144.172 128.584 144.06 128.424 144.06 127.576V115.576H142.78ZM143.628 120.504V121.672H147.98V120.504H143.628ZM155.612 120.504V121.496H163.388V120.504H155.612ZM155.612 122.776V123.768H163.388V122.776H155.612ZM156.108 128.664V129.656H162.876V128.664H156.108ZM154.46 118.216V119.224H164.652V118.216H154.46ZM155.404 125.128V130.28H156.444V126.12H162.476V130.232H163.564V125.128H155.404ZM158.156 115.96C158.572 116.648 159.068 117.544 159.276 118.136L160.364 117.656C160.124 117.08 159.644 116.216 159.196 115.56L158.156 115.96ZM153.58 115.624C152.78 118.04 151.436 120.44 149.996 122.008C150.22 122.28 150.556 122.872 150.668 123.144C152.252 121.336 153.724 118.632 154.668 115.944L153.58 115.624ZM152.204 119.8V130.328H153.308V118.712L153.292 118.696L152.204 119.8ZM168.62 116.696V117.848H178.972V116.696H168.62ZM168.62 120.424V121.56H178.956V120.424H168.62ZM168.54 124.248V125.384H178.988V124.248H168.54ZM167.948 116.696V122.488C167.948 124.744 167.772 127.592 166.012 129.576C166.268 129.736 166.748 130.136 166.94 130.376C168.844 128.248 169.132 124.936 169.132 122.504V116.696H167.948ZM178.492 116.696V128.648C178.492 128.952 178.38 129.048 178.076 129.064C177.772 129.064 176.684 129.08 175.548 129.032C175.724 129.352 175.916 129.88 175.964 130.2C177.484 130.216 178.412 130.2 178.956 130.008C179.484 129.8 179.676 129.432 179.676 128.648V116.696H178.492ZM172.972 117.128V130.136H174.188V117.128H172.972ZM182.332 121.464V122.648H196.684V121.464H182.332ZM189.26 117.832V119H195.052V117.832H189.26ZM188.508 115.56V122.024H189.772V115.56H188.508ZM188.556 122.264V130.28H189.804V122.264H188.556ZM190.028 125.288C191.74 125.976 194.108 127.032 195.292 127.672L195.948 126.6C194.716 125.992 192.332 125.016 190.652 124.376L190.028 125.288ZM204.604 125.144H205.916C205.5 122.744 209.324 122.248 209.324 119.832C209.324 117.992 207.868 116.824 205.612 116.824C203.884 116.824 202.636 117.576 201.58 118.696L202.428 119.48C203.356 118.52 204.364 118.04 205.468 118.04C207.1 118.04 207.884 118.84 207.884 119.944C207.884 121.768 204.124 122.472 204.604 125.144ZM205.292 129.08C205.852 129.08 206.316 128.68 206.316 128.04C206.316 127.4 205.852 126.968 205.292 126.968C204.732 126.968 204.268 127.4 204.268 128.04C204.268 128.68 204.716 129.08 205.292 129.08Z" fill="black"/>
<rect width="140" height="50" transform="translate(284 164)" fill="#003A9F"/>
<path d="M346.336 190.304V191.232H352.592V190.304H346.336ZM346.336 192.928V193.872H352.592V192.928H346.336ZM346.352 195.568V196.592H353.264V195.568H346.352ZM344.448 184.208V186.944H345.488V185.248H351.824V186.912H352.928V184.208H344.448ZM349.152 188.4V196.112H350.256V188.4H349.152ZM346.768 187.632H346.672L345.632 188.72V197.28H346.768V188.672H352.784V187.632H346.768ZM348.416 182.544C347.568 185.52 346 188 343.776 189.536C344.016 189.776 344.384 190.272 344.512 190.528C346.864 188.8 348.56 186.08 349.552 182.768L348.416 182.544ZM348.672 186.176C349.008 186.832 349.424 187.744 349.6 188.32L350.64 187.856C350.464 187.296 350.048 186.432 349.664 185.776L348.672 186.176ZM338.832 183.68V184.8H344.08V183.68H338.832ZM340.368 188.368V189.424H342.784V194.128H340.368V195.184H343.84V188.368H340.368ZM340.832 184.08C340.432 187.008 339.712 189.792 338.432 191.552C338.656 191.808 339.008 192.368 339.136 192.624C340.608 190.608 341.472 187.536 341.984 184.256L340.832 184.08ZM339.968 188.368V196.496H341.008V188.368H339.968ZM357.376 187.504V188.656H366.704V187.504H357.376ZM361.984 191.28V192.416H367.376V191.28H361.984ZM361.344 188.048V195.984L362.592 196.144V188.048H361.344ZM357.584 189.952C357.232 192.864 356.368 195.152 354.576 196.528C354.864 196.72 355.36 197.12 355.552 197.328C357.36 195.744 358.352 193.312 358.8 190.08L357.584 189.952ZM358.336 192L357.36 192.384C358.736 196.288 361.344 197.024 365.152 197.024H368.896C368.96 196.672 369.168 196.112 369.36 195.808C368.576 195.84 365.808 195.84 365.216 195.84C361.968 195.824 359.472 195.264 358.336 192ZM355.312 184.368V187.872H356.496V185.52H367.456V187.872H368.688V184.368H355.312ZM360.8 182.8C361.184 183.44 361.552 184.288 361.696 184.816L362.944 184.432C362.784 183.888 362.368 183.072 361.984 182.464L360.8 182.8Z" fill="white"/>
<path d="M189.744 183.816V184.984H195.648V183.816H189.744ZM182.32 182.616V183.736H190.144V182.616H182.32ZM184.192 185.864V186.968H188.352V185.864H184.192ZM184.192 189.192V190.28H188.352V189.192H184.192ZM195.296 183.816V184.104C194.608 189.72 192.224 193.48 189.056 195.128C189.328 195.352 189.664 195.8 189.856 196.104C193.28 194.12 195.728 190.36 196.496 183.992L195.728 183.784L195.504 183.816H195.296ZM191.2 185.048L190.048 185.272C191.04 190.296 192.88 194.2 196.352 196.168C196.544 195.848 196.928 195.4 197.2 195.16C193.904 193.464 192.048 189.672 191.2 185.048ZM183.568 183.048V193.432H184.72V183.048H183.568ZM187.856 183.048V196.296H189.008V183.048H187.856ZM182 193.08L182.224 194.28C183.888 194.024 186.192 193.656 188.384 193.304L188.32 192.2C185.984 192.552 183.568 192.888 182 193.08Z" fill="#003A9F"/>
<path d="M204.16 186.184V187.288H211.168V186.184H204.16ZM203.6 186.184V190.616C203.6 192.216 203.52 194.232 202.704 195.704C202.96 195.832 203.44 196.2 203.616 196.392C204.576 194.792 204.72 192.408 204.72 190.616V186.184H203.6ZM204.928 192.104L205.344 193.144C206.976 192.76 209.136 192.216 211.184 191.688L211.072 190.744C208.832 191.256 206.48 191.8 204.928 192.104ZM205.216 189.112C206.64 189.432 208.448 190.056 209.376 190.552L209.856 189.688C208.912 189.192 207.104 188.616 205.696 188.344L205.216 189.112ZM211.36 182.056C210.976 183 210.24 184.296 209.68 185.112L210.688 185.544C211.264 184.744 211.952 183.576 212.528 182.52L211.36 182.056ZM203.184 182.6C203.856 183.544 204.544 184.792 204.8 185.624L205.872 185.096C205.6 184.28 204.88 183.048 204.192 182.152L203.184 182.6ZM210.768 186.184V194.824C210.768 195.048 210.688 195.112 210.448 195.128C210.192 195.144 209.344 195.144 208.432 195.096C208.592 195.432 208.768 195.928 208.816 196.248C210.032 196.248 210.832 196.248 211.328 196.056C211.792 195.864 211.936 195.496 211.936 194.84V186.184H210.768ZM207.216 181.608V186.888H208.416V181.608H207.216ZM199.008 182.664C199.984 183.24 201.28 184.056 201.92 184.568L202.656 183.592C201.984 183.128 200.656 182.36 199.712 181.832L199.008 182.664ZM198.144 187.08C199.12 187.592 200.448 188.36 201.104 188.808L201.776 187.832C201.088 187.368 199.744 186.664 198.8 186.2L198.144 187.08ZM198.688 195.304L199.696 196.12C200.64 194.632 201.76 192.632 202.608 190.936L201.728 190.152C200.8 191.976 199.536 194.088 198.688 195.304Z" fill="#003A9F"/>
<rect x="127.5" y="164.5" width="139.528" height="49" stroke="#003A9F"/>
<line x1="93.2964" y1="110.5" x2="76.3645" y2="110.5" stroke="#939EA7" stroke-linecap="square" stroke-dasharray="2 2"/>
<path d="M74.1335 283.166C73.3215 284.188 72.0055 285.168 70.7315 285.798C70.9555 285.994 71.3195 286.4 71.4735 286.61C72.7615 285.868 74.1895 284.706 75.1275 283.488L74.1335 283.166ZM77.7035 283.768C79.0055 284.58 80.5735 285.77 81.3295 286.582L82.0855 285.868C81.3015 285.084 79.6915 283.922 78.4035 283.166L77.7035 283.768ZM72.5795 288.43V293.134H73.5875V289.368H79.3695V293.078H80.4335V288.43H72.5795ZM73.1255 291.72V292.658H79.8875V291.72H73.1255ZM70.6475 281.542V284.09H71.6835V282.494H81.2735V284.09H82.3375V281.542H70.6475ZM75.5615 280.394C75.8695 280.94 76.2055 281.654 76.3315 282.102L77.4515 281.822C77.3115 281.36 76.9615 280.66 76.6255 280.142L75.5615 280.394ZM76.4295 284.384C75.0855 286.456 72.6075 288.22 70.0175 289.186C70.2555 289.396 70.5355 289.76 70.6895 290.026C73.3775 288.92 75.8695 287.058 77.3395 284.79L76.4295 284.384ZM76.8355 284.874L75.9815 285.266C77.7595 287.464 79.8035 288.752 82.2395 289.858C82.3935 289.55 82.6735 289.186 82.9255 288.976C80.5315 288.024 78.4595 286.848 76.8355 284.874ZM86.1875 281.738H88.6935V283.866H86.1875V281.738ZM85.2495 280.87V284.734H89.6595V280.87H85.2495ZM92.1795 281.738H94.7835V283.866H92.1795V281.738ZM91.2415 280.87V284.734H95.7635V280.87H91.2415ZM84.2135 286.064V286.974H96.7855V286.064H84.2135ZM86.0055 291.79V292.658H89.4075V291.79H86.0055ZM91.5775 291.79V292.658H95.1055V291.79H91.5775ZM85.5295 288.752V293.106H86.4675V289.606H88.8615V293.036H89.8275V288.752H85.5295ZM91.1295 288.752V293.106H92.0535V289.606H94.5595V293.036H95.5395V288.752H91.1295ZM89.5755 284.482C88.8055 286.19 86.9295 288.052 83.8915 289.158C84.1015 289.326 84.3675 289.69 84.4795 289.928C87.6575 288.682 89.6175 286.708 90.6115 284.678L89.5755 284.482ZM92.1095 285.21C92.8095 285.476 93.6775 285.938 94.1115 286.288L94.6575 285.7C94.2095 285.35 93.3275 284.916 92.6275 284.678L92.1095 285.21ZM91.3115 286.792C93.2295 287.66 95.0915 288.836 96.1695 289.83L96.8975 289.2C95.7775 288.192 93.8035 287.03 91.8715 286.176L91.3115 286.792Z" fill="black"/>
<path d="M343.344 285.938V286.904H351.842V285.938H343.344ZM349.336 284.776C348.958 289.368 347.376 291.3 343.036 292.168C343.218 292.42 343.484 292.896 343.554 293.134C348.16 292.042 349.938 289.9 350.47 284.818L349.336 284.776ZM344.212 289.074C346.536 290.194 349.518 291.916 350.96 293.078L351.66 292.238C350.148 291.076 347.138 289.424 344.856 288.36L344.212 289.074ZM346.676 280.394C346.914 281.08 347.208 281.976 347.32 282.564L348.384 282.34C348.272 281.766 347.978 280.87 347.698 280.198L346.676 280.394ZM344.212 289.074L345.29 289.27C346.06 287.884 347.096 285.574 347.656 283.684L346.578 283.53C346.074 285.336 345.038 287.66 344.212 289.074ZM343.736 282.046V284.776H344.73V282.97H350.582V284.748H351.604V282.046H343.736ZM338.794 288.122L339.046 289.144C340.348 288.752 342.042 288.206 343.652 287.688L343.498 286.736C341.776 287.268 339.998 287.8 338.794 288.122ZM338.948 283.068V284.048H343.372V283.068H338.948ZM340.838 280.254V291.916C340.838 292.112 340.754 292.182 340.586 292.182C340.404 292.182 339.816 292.182 339.186 292.168C339.312 292.448 339.466 292.868 339.494 293.12C340.432 293.134 340.992 293.106 341.356 292.938C341.72 292.784 341.86 292.49 341.86 291.916V280.254H340.838ZM359.122 281.066V282.074H364.302V281.066H359.122ZM358.688 286.204V287.198H365.814V286.204H358.688ZM358.086 291.706V292.714H365.814V291.706H358.086ZM360.83 281.388C360.634 284.734 360.186 289.522 359.808 292.182H360.802C361.152 289.592 361.586 284.846 361.824 281.458L360.83 281.388ZM363.728 281.066C363.7 284.538 363.49 289.438 363.238 292.196H364.274C364.47 289.494 364.652 284.608 364.722 281.066H363.728ZM353.942 283.81V284.72H357.638V283.81H353.942ZM353.172 286.26V287.17H358.072V286.26H353.172ZM353.438 288.094C353.676 288.934 353.9 289.998 353.956 290.712L354.684 290.502C354.6 289.802 354.376 288.738 354.124 287.912L353.438 288.094ZM353.018 291.706L353.242 292.644C354.572 292.35 356.392 291.916 358.114 291.51L358.058 290.656C356.182 291.062 354.25 291.468 353.018 291.706ZM357.162 287.744C357.022 288.514 356.756 289.634 356.532 290.32L357.148 290.544C357.386 289.886 357.68 288.864 357.932 287.996L357.162 287.744ZM355.258 284.216V291.832L356.14 291.692V284.216H355.258ZM355.664 280.17C355.02 281.542 353.9 282.844 352.808 283.656C352.948 283.922 353.186 284.482 353.256 284.72C354.46 283.712 355.72 282.13 356.49 280.534L355.664 280.17ZM355.328 281.612C356.308 282.27 357.4 283.194 358.044 283.866L358.548 283.026C357.89 282.368 356.798 281.5 355.762 280.856L355.328 281.612Z" fill="black"/>
<line x1="84.2495" y1="271.845" x2="84.2495" y2="231" stroke="#D60C18" stroke-width="0.5"/>
<line x1="352.624" y1="231" x2="352.624" y2="271.845" stroke="#D60C18" stroke-width="0.5"/>
<path d="M127.636 37.194C126.04 41.968 122.988 44.67 118.004 46.112C118.214 46.35 118.536 46.84 118.662 47.092C123.744 45.468 126.936 42.598 128.728 37.502L127.636 37.194ZM121.28 37.25L120.3 37.558C122.078 42.29 125.284 45.65 130.31 47.036C130.478 46.742 130.786 46.294 131.038 46.056C126.138 44.838 122.862 41.59 121.28 37.25ZM118.2 36.718V37.74H130.856V36.718H118.2ZM123.422 34.478C123.842 35.178 124.276 36.102 124.458 36.676L125.606 36.312C125.41 35.724 124.934 34.814 124.514 34.156L123.422 34.478ZM134.762 38.3V39.28H141.482V38.3H134.762ZM132.452 41.814V42.808H144.506V41.814H132.452ZM137.94 40.932V45.818C137.94 46.014 137.856 46.07 137.604 46.084C137.352 46.098 136.456 46.098 135.504 46.07C135.686 46.35 135.896 46.812 135.966 47.106C137.142 47.106 137.884 47.106 138.374 46.938C138.878 46.77 139.046 46.462 139.046 45.832V40.932H137.94ZM141.16 38.3V38.51C140.474 39.308 139.13 40.358 137.94 40.932C138.108 41.072 138.388 41.366 138.528 41.548C139.914 40.904 141.398 39.812 142.406 38.79L141.692 38.244L141.44 38.3H141.16ZM132.62 35.71V38.594H133.656V36.718H143.288V38.594H144.366V35.71H132.62ZM137.422 34.478C137.828 35.01 138.206 35.752 138.36 36.242L139.438 35.864C139.27 35.374 138.864 34.66 138.444 34.142L137.422 34.478Z" fill="black"/>
<line x1="131.75" y1="53" x2="131.75" y2="93.8449" stroke="#D60C18" stroke-width="0.5"/>
</svg>
