<svg width="790" height="244" viewBox="0 0 790 244" fill="none" xmlns="http://www.w3.org/2000/svg">
<rect x="131.5" y="40" width="557.881" height="164" fill="white"/>
<path d="M417.583 112.168C419.155 112.168 420.415 111.22 420.415 109.66C420.415 108.448 419.575 107.668 418.543 107.416V107.368C419.479 107.032 420.103 106.324 420.103 105.256C420.103 103.852 419.023 103.048 417.547 103.048C416.539 103.048 415.759 103.492 415.099 104.092L415.687 104.8C416.179 104.296 416.803 103.936 417.511 103.936C418.423 103.936 418.987 104.488 418.987 105.328C418.987 106.288 418.375 107.008 416.563 107.008V107.86C418.591 107.86 419.299 108.556 419.299 109.612C419.299 110.62 418.555 111.256 417.511 111.256C416.503 111.256 415.843 110.776 415.327 110.236L414.775 110.956C415.351 111.592 416.203 112.168 417.583 112.168ZM424.419 112.168C426.075 112.168 427.143 110.644 427.143 107.572C427.143 104.524 426.075 103.048 424.419 103.048C422.739 103.048 421.671 104.524 421.671 107.572C421.671 110.644 422.739 112.168 424.419 112.168ZM424.419 111.28C423.411 111.28 422.727 110.164 422.727 107.572C422.727 105.016 423.411 103.924 424.419 103.924C425.415 103.924 426.087 105.016 426.087 107.572C426.087 110.164 425.415 111.28 424.419 111.28Z" fill="#D60C18"/>
<path d="M504.146 188H508.97V187.088H507.194V179.204H506.354C505.886 179.492 505.322 179.696 504.53 179.828V180.536H506.102V187.088H504.146V188ZM512.878 188.168C514.354 188.168 515.758 187.064 515.758 185.144C515.758 183.2 514.57 182.336 513.106 182.336C512.578 182.336 512.182 182.468 511.786 182.684L512.014 180.14H515.338V179.204H511.054L510.778 183.32L511.366 183.692C511.87 183.356 512.242 183.164 512.83 183.164C513.922 183.164 514.642 183.92 514.642 185.18C514.642 186.452 513.814 187.256 512.77 187.256C511.762 187.256 511.114 186.788 510.622 186.272L510.07 186.992C510.67 187.592 511.51 188.168 512.878 188.168Z" fill="#D60C18"/>
<path d="M172.513 60.168C174.085 60.168 175.345 59.22 175.345 57.66C175.345 56.448 174.505 55.668 173.473 55.416V55.368C174.409 55.032 175.033 54.324 175.033 53.256C175.033 51.852 173.953 51.048 172.477 51.048C171.469 51.048 170.689 51.492 170.029 52.092L170.617 52.8C171.109 52.296 171.733 51.936 172.441 51.936C173.353 51.936 173.917 52.488 173.917 53.328C173.917 54.288 173.305 55.008 171.493 55.008V55.86C173.521 55.86 174.229 56.556 174.229 57.612C174.229 58.62 173.485 59.256 172.441 59.256C171.433 59.256 170.773 58.776 170.257 58.236L169.705 58.956C170.281 59.592 171.133 60.168 172.513 60.168ZM179.349 60.168C181.005 60.168 182.073 58.644 182.073 55.572C182.073 52.524 181.005 51.048 179.349 51.048C177.669 51.048 176.601 52.524 176.601 55.572C176.601 58.644 177.669 60.168 179.349 60.168ZM179.349 59.28C178.341 59.28 177.657 58.164 177.657 55.572C177.657 53.016 178.341 51.924 179.349 51.924C180.345 51.924 181.017 53.016 181.017 55.572C181.017 58.164 180.345 59.28 179.349 59.28Z" fill="#D60C18"/>
<path d="M143.623 86.168C145.195 86.168 146.455 85.22 146.455 83.66C146.455 82.448 145.615 81.668 144.583 81.416V81.368C145.519 81.032 146.143 80.324 146.143 79.256C146.143 77.852 145.063 77.048 143.587 77.048C142.579 77.048 141.799 77.492 141.139 78.092L141.727 78.8C142.219 78.296 142.843 77.936 143.551 77.936C144.463 77.936 145.027 78.488 145.027 79.328C145.027 80.288 144.415 81.008 142.603 81.008V81.86C144.631 81.86 145.339 82.556 145.339 83.612C145.339 84.62 144.595 85.256 143.551 85.256C142.543 85.256 141.883 84.776 141.367 84.236L140.815 84.956C141.391 85.592 142.243 86.168 143.623 86.168ZM150.459 86.168C152.115 86.168 153.183 84.644 153.183 81.572C153.183 78.524 152.115 77.048 150.459 77.048C148.779 77.048 147.711 78.524 147.711 81.572C147.711 84.644 148.779 86.168 150.459 86.168ZM150.459 85.28C149.451 85.28 148.767 84.164 148.767 81.572C148.767 79.016 149.451 77.924 150.459 77.924C151.455 77.924 152.127 79.016 152.127 81.572C152.127 84.164 151.455 85.28 150.459 85.28Z" fill="#D60C18"/>
<line x1="132" y1="73.5" x2="132" y2="90.5" stroke="#939EA7" stroke-linecap="square" stroke-dasharray="2 2"/>
<line x1="501.597" y1="174.5" x2="501.597" y2="191.5" stroke="#939EA7" stroke-linecap="square" stroke-dasharray="2 2"/>
<line x1="518.533" y1="174.5" x2="518.533" y2="191.5" stroke="#939EA7" stroke-linecap="square" stroke-dasharray="2 2"/>
<line x1="429.865" y1="93.5" x2="412.933" y2="93.5" stroke="#939EA7" stroke-linecap="square" stroke-dasharray="2 2"/>
<line x1="429.865" y1="123.5" x2="412.933" y2="123.5" stroke="#939EA7" stroke-linecap="square" stroke-dasharray="2 2"/>
<line x1="160.891" y1="73.5" x2="160.891" y2="90.5" stroke="#939EA7" stroke-linecap="square" stroke-dasharray="2 2"/>
<line x1="184.797" y1="40.5" x2="167.865" y2="40.5" stroke="#939EA7" stroke-linecap="square" stroke-dasharray="2 2"/>
<path d="M169.336 83.304V84.232H175.592V83.304H169.336ZM169.336 85.928V86.872H175.592V85.928H169.336ZM169.352 88.568V89.592H176.264V88.568H169.352ZM167.448 77.208V79.944H168.488V78.248H174.824V79.912H175.928V77.208H167.448ZM172.152 81.4V89.112H173.256V81.4H172.152ZM169.768 80.632H169.672L168.632 81.72V90.28H169.768V81.672H175.784V80.632H169.768ZM171.416 75.544C170.568 78.52 169 81 166.776 82.536C167.016 82.776 167.384 83.272 167.512 83.528C169.864 81.8 171.56 79.08 172.552 75.768L171.416 75.544ZM171.672 79.176C172.008 79.832 172.424 80.744 172.6 81.32L173.64 80.856C173.464 80.296 173.048 79.432 172.664 78.776L171.672 79.176ZM161.832 76.68V77.8H167.08V76.68H161.832ZM163.368 81.368V82.424H165.784V87.128H163.368V88.184H166.84V81.368H163.368ZM163.832 77.08C163.432 80.008 162.712 82.792 161.432 84.552C161.656 84.808 162.008 85.368 162.136 85.624C163.608 83.608 164.472 80.536 164.984 77.256L163.832 77.08ZM162.968 81.368V89.496H164.008V81.368H162.968ZM180.376 80.504V81.656H189.704V80.504H180.376ZM184.984 84.28V85.416H190.376V84.28H184.984ZM184.344 81.048V88.984L185.592 89.144V81.048H184.344ZM180.584 82.952C180.232 85.864 179.368 88.152 177.576 89.528C177.864 89.72 178.36 90.12 178.552 90.328C180.36 88.744 181.352 86.312 181.8 83.08L180.584 82.952ZM181.336 85L180.36 85.384C181.736 89.288 184.344 90.024 188.152 90.024H191.896C191.96 89.672 192.168 89.112 192.36 88.808C191.576 88.84 188.808 88.84 188.216 88.84C184.968 88.824 182.472 88.264 181.336 85ZM178.312 77.368V80.872H179.496V78.52H190.456V80.872H191.688V77.368H178.312ZM183.8 75.8C184.184 76.44 184.552 77.288 184.696 77.816L185.944 77.432C185.784 76.888 185.368 76.072 184.984 75.464L183.8 75.8ZM203.608 77.496V86.36H204.68V77.496H203.608ZM206.536 75.864V88.728C206.536 88.984 206.472 89.064 206.232 89.064C205.944 89.08 205.08 89.096 204.184 89.064C204.344 89.4 204.504 89.944 204.552 90.264C205.704 90.264 206.552 90.216 207.016 90.024C207.48 89.832 207.656 89.48 207.656 88.728V75.864H206.536ZM201.176 76.36V88.984C201.176 89.16 201.128 89.208 200.968 89.208C200.84 89.224 200.408 89.224 199.928 89.208C200.088 89.496 200.248 89.992 200.296 90.264C201.016 90.264 201.48 90.232 201.8 90.056C202.136 89.848 202.232 89.528 202.232 89V76.36H201.176ZM194.648 76.36V90.296H195.672V77.432H201.752V76.36H194.648ZM193.624 82.008V83.128H203.224V82.008H193.624ZM196.904 76.808V89.784H197.752V76.808H196.904ZM199.016 76.808V89.704H199.864V76.808H199.016ZM210.232 76.216V90.248H211.304V77.304H213.96V76.216H210.232ZM213.64 76.216V76.536C213.256 77.624 212.632 79.48 212.008 80.92C213.24 82.2 213.544 83.288 213.56 84.168C213.56 84.664 213.464 85.096 213.192 85.272C213.064 85.384 212.872 85.432 212.664 85.432C212.392 85.448 212.04 85.448 211.656 85.416C211.848 85.72 211.944 86.184 211.944 86.472C212.328 86.488 212.776 86.488 213.096 86.456C213.448 86.408 213.736 86.328 213.976 86.152C214.44 85.816 214.632 85.16 214.632 84.28C214.616 83.272 214.328 82.12 213.08 80.792C213.656 79.528 214.296 77.96 214.792 76.632L214.008 76.168L213.832 76.216H213.64ZM216.424 80.472V81.544H222.744V80.472H216.424ZM214.936 83.496V84.6H224.248V83.496H214.936ZM216.568 85.48C216.04 86.616 215.208 87.832 214.376 88.664C214.632 88.808 215.096 89.144 215.288 89.32C216.104 88.424 217.032 87.064 217.64 85.784L216.568 85.48ZM221.208 85.8C222.072 86.824 223.064 88.248 223.512 89.176L224.456 88.616C224.008 87.72 223.016 86.344 222.12 85.336L221.208 85.8ZM219.128 80.728V88.888C219.128 89.096 219.064 89.176 218.824 89.192C218.584 89.192 217.816 89.192 216.92 89.16C217.096 89.48 217.272 89.96 217.336 90.28C218.488 90.28 219.224 90.264 219.672 90.072C220.136 89.88 220.296 89.56 220.296 88.888V80.728H219.128ZM219.576 75.464C218.504 77.384 216.504 79.224 214.504 80.264C214.792 80.488 215.112 80.856 215.304 81.144C217.384 79.944 219.384 77.992 220.6 75.864L219.576 75.464ZM220.104 76.312L219.16 76.712C220.68 78.76 222.2 79.992 223.768 80.984C223.944 80.664 224.296 80.264 224.584 80.04C223.064 79.192 221.512 78.104 220.104 76.312ZM230.408 80.504V81.672H233.48V80.504H230.408ZM229.976 75.576V88.552L231.224 88.392V75.576H229.976ZM227 78.808V89L228.184 88.84V78.808H227ZM225.704 88.792L225.912 90.072C227.928 89.688 230.84 89.16 233.576 88.648L233.48 87.448C230.648 87.96 227.64 88.488 225.704 88.792ZM234.28 75.576V87.544C234.28 89.304 234.712 89.752 236.2 89.752C236.504 89.752 238.296 89.752 238.632 89.752C240.072 89.752 240.392 88.856 240.552 86.264C240.2 86.184 239.704 85.96 239.384 85.72C239.304 87.992 239.192 88.584 238.536 88.584C238.136 88.584 236.664 88.584 236.344 88.584C235.672 88.584 235.56 88.424 235.56 87.576V75.576H234.28ZM235.128 80.504V81.672H239.48V80.504H235.128ZM247.112 80.504V81.496H254.888V80.504H247.112ZM247.112 82.776V83.768H254.888V82.776H247.112ZM247.608 88.664V89.656H254.376V88.664H247.608ZM245.96 78.216V79.224H256.152V78.216H245.96ZM246.904 85.128V90.28H247.944V86.12H253.976V90.232H255.064V85.128H246.904ZM249.656 75.96C250.072 76.648 250.568 77.544 250.776 78.136L251.864 77.656C251.624 77.08 251.144 76.216 250.696 75.56L249.656 75.96ZM245.08 75.624C244.28 78.04 242.936 80.44 241.496 82.008C241.72 82.28 242.056 82.872 242.168 83.144C243.752 81.336 245.224 78.632 246.168 75.944L245.08 75.624ZM243.704 79.8V90.328H244.808V78.712L244.792 78.696L243.704 79.8ZM260.12 76.696V77.848H270.472V76.696H260.12ZM260.12 80.424V81.56H270.456V80.424H260.12ZM260.04 84.248V85.384H270.488V84.248H260.04ZM259.448 76.696V82.488C259.448 84.744 259.272 87.592 257.512 89.576C257.768 89.736 258.248 90.136 258.44 90.376C260.344 88.248 260.632 84.936 260.632 82.504V76.696H259.448ZM269.992 76.696V88.648C269.992 88.952 269.88 89.048 269.576 89.064C269.272 89.064 268.184 89.08 267.048 89.032C267.224 89.352 267.416 89.88 267.464 90.2C268.984 90.216 269.912 90.2 270.456 90.008C270.984 89.8 271.176 89.432 271.176 88.648V76.696H269.992ZM264.472 77.128V90.136H265.688V77.128H264.472ZM273.832 81.464V82.648H288.184V81.464H273.832ZM280.76 77.832V79H286.552V77.832H280.76ZM280.008 75.56V82.024H281.272V75.56H280.008ZM280.056 82.264V90.28H281.304V82.264H280.056ZM281.528 85.288C283.24 85.976 285.608 87.032 286.792 87.672L287.448 86.6C286.216 85.992 283.832 85.016 282.152 84.376L281.528 85.288ZM296.104 85.144H297.416C297 82.744 300.824 82.248 300.824 79.832C300.824 77.992 299.368 76.824 297.112 76.824C295.384 76.824 294.136 77.576 293.08 78.696L293.928 79.48C294.856 78.52 295.864 78.04 296.968 78.04C298.6 78.04 299.384 78.84 299.384 79.944C299.384 81.768 295.624 82.472 296.104 85.144ZM296.792 89.08C297.352 89.08 297.816 88.68 297.816 88.04C297.816 87.4 297.352 86.968 296.792 86.968C296.232 86.968 295.768 87.4 295.768 88.04C295.768 88.68 296.216 89.08 296.792 89.08Z" fill="black"/>
<rect width="140" height="50" transform="translate(518 124)" fill="#003A9F"/>
<path d="M580.336 150.304V151.232H586.592V150.304H580.336ZM580.336 152.928V153.872H586.592V152.928H580.336ZM580.352 155.568V156.592H587.264V155.568H580.352ZM578.448 144.208V146.944H579.488V145.248H585.824V146.912H586.928V144.208H578.448ZM583.152 148.4V156.112H584.256V148.4H583.152ZM580.768 147.632H580.672L579.632 148.72V157.28H580.768V148.672H586.784V147.632H580.768ZM582.416 142.544C581.568 145.52 580 148 577.776 149.536C578.016 149.776 578.384 150.272 578.512 150.528C580.864 148.8 582.56 146.08 583.552 142.768L582.416 142.544ZM582.672 146.176C583.008 146.832 583.424 147.744 583.6 148.32L584.64 147.856C584.464 147.296 584.048 146.432 583.664 145.776L582.672 146.176ZM572.832 143.68V144.8H578.08V143.68H572.832ZM574.368 148.368V149.424H576.784V154.128H574.368V155.184H577.84V148.368H574.368ZM574.832 144.08C574.432 147.008 573.712 149.792 572.432 151.552C572.656 151.808 573.008 152.368 573.136 152.624C574.608 150.608 575.472 147.536 575.984 144.256L574.832 144.08ZM573.968 148.368V156.496H575.008V148.368H573.968ZM591.376 147.504V148.656H600.704V147.504H591.376ZM595.984 151.28V152.416H601.376V151.28H595.984ZM595.344 148.048V155.984L596.592 156.144V148.048H595.344ZM591.584 149.952C591.232 152.864 590.368 155.152 588.576 156.528C588.864 156.72 589.36 157.12 589.552 157.328C591.36 155.744 592.352 153.312 592.8 150.08L591.584 149.952ZM592.336 152L591.36 152.384C592.736 156.288 595.344 157.024 599.152 157.024H602.896C602.96 156.672 603.168 156.112 603.36 155.808C602.576 155.84 599.808 155.84 599.216 155.84C595.968 155.824 593.472 155.264 592.336 152ZM589.312 144.368V147.872H590.496V145.52H601.456V147.872H602.688V144.368H589.312ZM594.8 142.8C595.184 143.44 595.552 144.288 595.696 144.816L596.944 144.432C596.784 143.888 596.368 143.072 595.984 142.464L594.8 142.8Z" fill="white"/>
<path d="M423.744 143.816V144.984H429.648V143.816H423.744ZM416.32 142.616V143.736H424.144V142.616H416.32ZM418.192 145.864V146.968H422.352V145.864H418.192ZM418.192 149.192V150.28H422.352V149.192H418.192ZM429.296 143.816V144.104C428.608 149.72 426.224 153.48 423.056 155.128C423.328 155.352 423.664 155.8 423.856 156.104C427.28 154.12 429.728 150.36 430.496 143.992L429.728 143.784L429.504 143.816H429.296ZM425.2 145.048L424.048 145.272C425.04 150.296 426.88 154.2 430.352 156.168C430.544 155.848 430.928 155.4 431.2 155.16C427.904 153.464 426.048 149.672 425.2 145.048ZM417.568 143.048V153.432H418.72V143.048H417.568ZM421.856 143.048V156.296H423.008V143.048H421.856ZM416 153.08L416.224 154.28C417.888 154.024 420.192 153.656 422.384 153.304L422.32 152.2C419.984 152.552 417.568 152.888 416 153.08Z" fill="#003A9F"/>
<path d="M438.16 146.184V147.288H445.168V146.184H438.16ZM437.6 146.184V150.616C437.6 152.216 437.52 154.232 436.704 155.704C436.96 155.832 437.44 156.2 437.616 156.392C438.576 154.792 438.72 152.408 438.72 150.616V146.184H437.6ZM438.928 152.104L439.344 153.144C440.976 152.76 443.136 152.216 445.184 151.688L445.072 150.744C442.832 151.256 440.48 151.8 438.928 152.104ZM439.216 149.112C440.64 149.432 442.448 150.056 443.376 150.552L443.856 149.688C442.912 149.192 441.104 148.616 439.696 148.344L439.216 149.112ZM445.36 142.056C444.976 143 444.24 144.296 443.68 145.112L444.688 145.544C445.264 144.744 445.952 143.576 446.528 142.52L445.36 142.056ZM437.184 142.6C437.856 143.544 438.544 144.792 438.8 145.624L439.872 145.096C439.6 144.28 438.88 143.048 438.192 142.152L437.184 142.6ZM444.768 146.184V154.824C444.768 155.048 444.688 155.112 444.448 155.128C444.192 155.144 443.344 155.144 442.432 155.096C442.592 155.432 442.768 155.928 442.816 156.248C444.032 156.248 444.832 156.248 445.328 156.056C445.792 155.864 445.936 155.496 445.936 154.84V146.184H444.768ZM441.216 141.608V146.888H442.416V141.608H441.216ZM433.008 142.664C433.984 143.24 435.28 144.056 435.92 144.568L436.656 143.592C435.984 143.128 434.656 142.36 433.712 141.832L433.008 142.664ZM432.144 147.08C433.12 147.592 434.448 148.36 435.104 148.808L435.776 147.832C435.088 147.368 433.744 146.664 432.8 146.2L432.144 147.08ZM432.688 155.304L433.696 156.12C434.64 154.632 435.76 152.632 436.608 150.936L435.728 150.152C434.8 151.976 433.536 154.088 432.688 155.304Z" fill="#003A9F"/>
<rect x="361.5" y="124.5" width="139.528" height="49" stroke="#003A9F"/>
<line x1="184.797" y1="70.5" x2="167.865" y2="70.5" stroke="#939EA7" stroke-linecap="square" stroke-dasharray="2 2"/>
<path d="M64.634 175.166C63.822 176.188 62.506 177.168 61.232 177.798C61.456 177.994 61.82 178.4 61.974 178.61C63.262 177.868 64.69 176.706 65.628 175.488L64.634 175.166ZM68.204 175.768C69.506 176.58 71.074 177.77 71.83 178.582L72.586 177.868C71.802 177.084 70.192 175.922 68.904 175.166L68.204 175.768ZM63.08 180.43V185.134H64.088V181.368H69.87V185.078H70.934V180.43H63.08ZM63.626 183.72V184.658H70.388V183.72H63.626ZM61.148 173.542V176.09H62.184V174.494H71.774V176.09H72.838V173.542H61.148ZM66.062 172.394C66.37 172.94 66.706 173.654 66.832 174.102L67.952 173.822C67.812 173.36 67.462 172.66 67.126 172.142L66.062 172.394ZM66.93 176.384C65.586 178.456 63.108 180.22 60.518 181.186C60.756 181.396 61.036 181.76 61.19 182.026C63.878 180.92 66.37 179.058 67.84 176.79L66.93 176.384ZM67.336 176.874L66.482 177.266C68.26 179.464 70.304 180.752 72.74 181.858C72.894 181.55 73.174 181.186 73.426 180.976C71.032 180.024 68.96 178.848 67.336 176.874ZM76.688 173.738H79.194V175.866H76.688V173.738ZM75.75 172.87V176.734H80.16V172.87H75.75ZM82.68 173.738H85.284V175.866H82.68V173.738ZM81.742 172.87V176.734H86.264V172.87H81.742ZM74.714 178.064V178.974H87.286V178.064H74.714ZM76.506 183.79V184.658H79.908V183.79H76.506ZM82.078 183.79V184.658H85.606V183.79H82.078ZM76.03 180.752V185.106H76.968V181.606H79.362V185.036H80.328V180.752H76.03ZM81.63 180.752V185.106H82.554V181.606H85.06V185.036H86.04V180.752H81.63ZM80.076 176.482C79.306 178.19 77.43 180.052 74.392 181.158C74.602 181.326 74.868 181.69 74.98 181.928C78.158 180.682 80.118 178.708 81.112 176.678L80.076 176.482ZM82.61 177.21C83.31 177.476 84.178 177.938 84.612 178.288L85.158 177.7C84.71 177.35 83.828 176.916 83.128 176.678L82.61 177.21ZM81.812 178.792C83.73 179.66 85.592 180.836 86.67 181.83L87.398 181.2C86.278 180.192 84.304 179.03 82.372 178.176L81.812 178.792Z" fill="black"/>
<path d="M704.97 146.938V147.904H713.468V146.938H704.97ZM710.962 145.776C710.584 150.368 709.002 152.3 704.662 153.168C704.844 153.42 705.11 153.896 705.18 154.134C709.786 153.042 711.564 150.9 712.096 145.818L710.962 145.776ZM705.838 150.074C708.162 151.194 711.144 152.916 712.586 154.078L713.286 153.238C711.774 152.076 708.764 150.424 706.482 149.36L705.838 150.074ZM708.302 141.394C708.54 142.08 708.834 142.976 708.946 143.564L710.01 143.34C709.898 142.766 709.604 141.87 709.324 141.198L708.302 141.394ZM705.838 150.074L706.916 150.27C707.686 148.884 708.722 146.574 709.282 144.684L708.204 144.53C707.7 146.336 706.664 148.66 705.838 150.074ZM705.362 143.046V145.776H706.356V143.97H712.208V145.748H713.23V143.046H705.362ZM700.42 149.122L700.672 150.144C701.974 149.752 703.668 149.206 705.278 148.688L705.124 147.736C703.402 148.268 701.624 148.8 700.42 149.122ZM700.574 144.068V145.048H704.998V144.068H700.574ZM702.464 141.254V152.916C702.464 153.112 702.38 153.182 702.212 153.182C702.03 153.182 701.442 153.182 700.812 153.168C700.938 153.448 701.092 153.868 701.12 154.12C702.058 154.134 702.618 154.106 702.982 153.938C703.346 153.784 703.486 153.49 703.486 152.916V141.254H702.464ZM720.748 142.066V143.074H725.928V142.066H720.748ZM720.314 147.204V148.198H727.44V147.204H720.314ZM719.712 152.706V153.714H727.44V152.706H719.712ZM722.456 142.388C722.26 145.734 721.812 150.522 721.434 153.182H722.428C722.778 150.592 723.212 145.846 723.45 142.458L722.456 142.388ZM725.354 142.066C725.326 145.538 725.116 150.438 724.864 153.196H725.9C726.096 150.494 726.278 145.608 726.348 142.066H725.354ZM715.568 144.81V145.72H719.264V144.81H715.568ZM714.798 147.26V148.17H719.698V147.26H714.798ZM715.064 149.094C715.302 149.934 715.526 150.998 715.582 151.712L716.31 151.502C716.226 150.802 716.002 149.738 715.75 148.912L715.064 149.094ZM714.644 152.706L714.868 153.644C716.198 153.35 718.018 152.916 719.74 152.51L719.684 151.656C717.808 152.062 715.876 152.468 714.644 152.706ZM718.788 148.744C718.648 149.514 718.382 150.634 718.158 151.32L718.774 151.544C719.012 150.886 719.306 149.864 719.558 148.996L718.788 148.744ZM716.884 145.216V152.832L717.766 152.692V145.216H716.884ZM717.29 141.17C716.646 142.542 715.526 143.844 714.434 144.656C714.574 144.922 714.812 145.482 714.882 145.72C716.086 144.712 717.346 143.13 718.116 141.534L717.29 141.17ZM716.954 142.612C717.934 143.27 719.026 144.194 719.67 144.866L720.174 144.026C719.516 143.368 718.424 142.5 717.388 141.856L716.954 142.612Z" fill="black"/>
<line x1="90.6558" y1="179.75" x2="131.501" y2="179.75" stroke="#D60C18" stroke-width="0.5"/>
<line x1="661" y1="148.75" x2="697" y2="148.75" stroke="#D60C18" stroke-width="0.5"/>
<path d="M70.136 77.194C68.54 81.968 65.488 84.67 60.504 86.112C60.714 86.35 61.036 86.84 61.162 87.092C66.244 85.468 69.436 82.598 71.228 77.502L70.136 77.194ZM63.78 77.25L62.8 77.558C64.578 82.29 67.784 85.65 72.81 87.036C72.978 86.742 73.286 86.294 73.538 86.056C68.638 84.838 65.362 81.59 63.78 77.25ZM60.7 76.718V77.74H73.356V76.718H60.7ZM65.922 74.478C66.342 75.178 66.776 76.102 66.958 76.676L68.106 76.312C67.91 75.724 67.434 74.814 67.014 74.156L65.922 74.478ZM77.262 78.3V79.28H83.982V78.3H77.262ZM74.952 81.814V82.808H87.006V81.814H74.952ZM80.44 80.932V85.818C80.44 86.014 80.356 86.07 80.104 86.084C79.852 86.098 78.956 86.098 78.004 86.07C78.186 86.35 78.396 86.812 78.466 87.106C79.642 87.106 80.384 87.106 80.874 86.938C81.378 86.77 81.546 86.462 81.546 85.832V80.932H80.44ZM83.66 78.3V78.51C82.974 79.308 81.63 80.358 80.44 80.932C80.608 81.072 80.888 81.366 81.028 81.548C82.414 80.904 83.898 79.812 84.906 78.79L84.192 78.244L83.94 78.3H83.66ZM75.12 75.71V78.594H76.156V76.718H85.788V78.594H86.866V75.71H75.12ZM79.922 74.478C80.328 75.01 80.706 75.752 80.86 76.242L81.938 75.864C81.77 75.374 81.364 74.66 80.944 74.142L79.922 74.478Z" fill="black"/>
<line x1="90.6558" y1="81.75" x2="131.501" y2="81.75" stroke="#D60C18" stroke-width="0.5"/>
</svg>
