<svg width="146" height="136" viewBox="0 0 146 136" fill="none" xmlns="http://www.w3.org/2000/svg">
<rect x="27" y="49" width="18" height="18" stroke="#48545D" stroke-width="2"/>
<circle cx="104" cy="58" r="18" fill="#FEEBEC"/>
<rect x="94" y="48" width="20" height="20" fill="#D60C18"/>
<path d="M108.442 54.1551L101.879 60.718L99.5585 58.3978C99.4486 58.288 99.2706 58.288 99.1607 58.3978L98.8956 58.6629C98.7857 58.7728 98.7857 58.9508 98.8956 59.0607L101.68 61.8449C101.79 61.9548 101.968 61.9548 102.078 61.8449L109.104 54.8181C109.214 54.7082 109.214 54.5301 109.104 54.4203L108.839 54.1551C108.729 54.0453 108.551 54.0453 108.442 54.1551Z" fill="white"/>
<path d="M29.528 87H35.048V86.064H32.612C32.168 86.064 31.64 86.1 31.172 86.148C33.248 84.192 34.628 82.404 34.628 80.64C34.628 79.068 33.644 78.048 32.072 78.048C30.956 78.048 30.188 78.564 29.468 79.344L30.104 79.956C30.596 79.38 31.22 78.936 31.94 78.936C33.032 78.936 33.548 79.68 33.548 80.688C33.548 82.188 32.288 83.952 29.528 86.364V87ZM38.9923 87.168C40.6483 87.168 41.7162 85.644 41.7162 82.572C41.7162 79.524 40.6483 78.048 38.9923 78.048C37.3123 78.048 36.2443 79.524 36.2443 82.572C36.2443 85.644 37.3123 87.168 38.9923 87.168ZM38.9923 86.28C37.9843 86.28 37.3003 85.164 37.3003 82.572C37.3003 80.016 37.9843 78.924 38.9923 78.924C39.9883 78.924 40.6603 80.016 40.6603 82.572C40.6603 85.164 39.9883 86.28 38.9923 86.28Z" fill="#D60C18"/>
<line x1="25.5" y1="90.5" x2="25.5" y2="73.5" stroke="#939EA7" stroke-linecap="square" stroke-dasharray="2 2"/>
<line x1="45.5" y1="90.5" x2="45.5" y2="73.5" stroke="#939EA7" stroke-linecap="square" stroke-dasharray="2 2"/>
<path d="M4.528 62H10.048V61.064H7.612C7.168 61.064 6.64 61.1 6.172 61.148C8.248 59.192 9.628 57.404 9.628 55.64C9.628 54.068 8.644 53.048 7.072 53.048C5.956 53.048 5.188 53.564 4.468 54.344L5.104 54.956C5.596 54.38 6.22 53.936 6.94 53.936C8.032 53.936 8.548 54.68 8.548 55.688C8.548 57.188 7.288 58.952 4.528 61.364V62ZM13.9923 62.168C15.6483 62.168 16.7162 60.644 16.7162 57.572C16.7162 54.524 15.6483 53.048 13.9923 53.048C12.3123 53.048 11.2443 54.524 11.2443 57.572C11.2443 60.644 12.3123 62.168 13.9923 62.168ZM13.9923 61.28C12.9843 61.28 12.3003 60.164 12.3003 57.572C12.3003 55.016 12.9843 53.924 13.9923 53.924C14.9883 53.924 15.6603 55.016 15.6603 57.572C15.6603 60.164 14.9883 61.28 13.9923 61.28Z" fill="#D60C18"/>
<line x1="2.5" y1="47.5" x2="19.5" y2="47.5" stroke="#939EA7" stroke-linecap="square" stroke-dasharray="2 2"/>
<line x1="2.5" y1="67.5" x2="19.5" y2="67.5" stroke="#939EA7" stroke-linecap="square" stroke-dasharray="2 2"/>
<path d="M133.156 64.168C134.728 64.168 135.988 63.22 135.988 61.66C135.988 60.448 135.148 59.668 134.116 59.416V59.368C135.052 59.032 135.676 58.324 135.676 57.256C135.676 55.852 134.596 55.048 133.12 55.048C132.112 55.048 131.332 55.492 130.672 56.092L131.26 56.8C131.752 56.296 132.376 55.936 133.084 55.936C133.996 55.936 134.56 56.488 134.56 57.328C134.56 58.288 133.948 59.008 132.136 59.008V59.86C134.164 59.86 134.872 60.556 134.872 61.612C134.872 62.62 134.128 63.256 133.084 63.256C132.076 63.256 131.416 62.776 130.9 62.236L130.348 62.956C130.924 63.592 131.776 64.168 133.156 64.168ZM140.268 64.168C141.624 64.168 142.788 63.016 142.788 61.312C142.788 59.464 141.828 58.552 140.34 58.552C139.632 58.552 138.816 58.984 138.276 59.692L138.312 60.568C138.9 59.692 139.608 59.356 140.172 59.356C141.228 59.356 141.756 60.112 141.756 61.312C141.756 62.5 141.108 63.304 140.268 63.304C139.032 63.304 138.348 62.068 138.348 59.812C138.348 56.932 139.38 55.96 140.616 55.96C141.144 55.96 141.684 56.212 142.02 56.62L142.632 55.948C142.152 55.432 141.48 55.048 140.568 55.048C138.864 55.048 137.316 56.368 137.316 59.812C137.316 62.716 138.576 64.168 140.268 64.168Z" fill="#D60C18"/>
<path d="M101.156 91.168C102.728 91.168 103.988 90.22 103.988 88.66C103.988 87.448 103.148 86.668 102.116 86.416V86.368C103.052 86.032 103.676 85.324 103.676 84.256C103.676 82.852 102.596 82.048 101.12 82.048C100.112 82.048 99.332 82.492 98.672 83.092L99.26 83.8C99.752 83.296 100.376 82.936 101.084 82.936C101.996 82.936 102.56 83.488 102.56 84.328C102.56 85.288 101.948 86.008 100.136 86.008V86.86C102.164 86.86 102.872 87.556 102.872 88.612C102.872 89.62 102.128 90.256 101.084 90.256C100.076 90.256 99.416 89.776 98.9 89.236L98.348 89.956C98.924 90.592 99.776 91.168 101.156 91.168ZM108.268 91.168C109.624 91.168 110.788 90.016 110.788 88.312C110.788 86.464 109.828 85.552 108.34 85.552C107.632 85.552 106.816 85.984 106.276 86.692L106.312 87.568C106.9 86.692 107.608 86.356 108.172 86.356C109.228 86.356 109.756 87.112 109.756 88.312C109.756 89.5 109.108 90.304 108.268 90.304C107.032 90.304 106.348 89.068 106.348 86.812C106.348 83.932 107.38 82.96 108.616 82.96C109.144 82.96 109.684 83.212 110.02 83.62L110.632 82.948C110.152 82.432 109.48 82.048 108.568 82.048C106.864 82.048 105.316 83.368 105.316 86.812C105.316 89.716 106.576 91.168 108.268 91.168Z" fill="#D60C18"/>
<line x1="128.5" y1="41.5" x2="145.5" y2="41.5" stroke="#939EA7" stroke-linecap="square" stroke-dasharray="2 2"/>
<line x1="128.5" y1="75.5" x2="145.5" y2="75.5" stroke="#939EA7" stroke-linecap="square" stroke-dasharray="2 2"/>
<line x1="122.5" y1="78.5" x2="122.5" y2="95.5" stroke="#939EA7" stroke-linecap="square" stroke-dasharray="2 2"/>
<line x1="86.5" y1="78.5" x2="86.5" y2="95.5" stroke="#939EA7" stroke-linecap="square" stroke-dasharray="2 2"/>
</svg>
