<svg width="387" height="328" viewBox="0 0 387 328" fill="none" xmlns="http://www.w3.org/2000/svg">
<rect x="40.5" y="40.5" width="306" height="247" fill="#EEEEEE" stroke="#D3D5D7"/>
<path d="M93.625 98C93.625 104.42 88.4204 109.625 82 109.625C75.5796 109.625 70.375 104.42 70.375 98C70.375 91.5796 75.5796 86.375 82 86.375C88.4204 86.375 93.625 91.5796 93.625 98ZM80.6553 104.155L89.2803 95.5303C89.5732 95.2375 89.5732 94.7625 89.2803 94.4697L88.2197 93.409C87.9269 93.1161 87.4519 93.1161 87.159 93.409L80.125 100.443L76.841 97.159C76.5482 96.8661 76.0732 96.8661 75.7803 97.159L74.7197 98.2196C74.4268 98.5125 74.4268 98.9874 74.7197 99.2803L79.5947 104.155C79.8876 104.448 80.3625 104.448 80.6554 104.155L80.6553 104.155Z" fill="black"/>
<path d="M129.154 240.172V241.194H134.32V240.172H129.154ZM122.658 239.122V240.102H129.504V239.122H122.658ZM124.296 241.964V242.93H127.936V241.964H124.296ZM124.296 244.876V245.828H127.936V244.876H124.296ZM134.012 240.172V240.424C133.41 245.338 131.324 248.628 128.552 250.07C128.79 250.266 129.084 250.658 129.252 250.924C132.248 249.188 134.39 245.898 135.062 240.326L134.39 240.144L134.194 240.172H134.012ZM130.428 241.25L129.42 241.446C130.288 245.842 131.898 249.258 134.936 250.98C135.104 250.7 135.44 250.308 135.678 250.098C132.794 248.614 131.17 245.296 130.428 241.25ZM123.75 239.5V248.586H124.758V239.5H123.75ZM127.502 239.5V251.092H128.51V239.5H127.502ZM122.378 248.278L122.574 249.328C124.03 249.104 126.046 248.782 127.964 248.474L127.908 247.508C125.864 247.816 123.75 248.11 122.378 248.278ZM141.768 242.244V243.21H147.9V242.244H141.768ZM141.278 242.244V246.122C141.278 247.522 141.208 249.286 140.494 250.574C140.718 250.686 141.138 251.008 141.292 251.176C142.132 249.776 142.258 247.69 142.258 246.122V242.244H141.278ZM142.44 247.424L142.804 248.334C144.232 247.998 146.122 247.522 147.914 247.06L147.816 246.234C145.856 246.682 143.798 247.158 142.44 247.424ZM142.692 244.806C143.938 245.086 145.52 245.632 146.332 246.066L146.752 245.31C145.926 244.876 144.344 244.372 143.112 244.134L142.692 244.806ZM148.068 238.632C147.732 239.458 147.088 240.592 146.598 241.306L147.48 241.684C147.984 240.984 148.586 239.962 149.09 239.038L148.068 238.632ZM140.914 239.108C141.502 239.934 142.104 241.026 142.328 241.754L143.266 241.292C143.028 240.578 142.398 239.5 141.796 238.716L140.914 239.108ZM147.55 242.244V249.804C147.55 250 147.48 250.056 147.27 250.07C147.046 250.084 146.304 250.084 145.506 250.042C145.646 250.336 145.8 250.77 145.842 251.05C146.906 251.05 147.606 251.05 148.04 250.882C148.446 250.714 148.572 250.392 148.572 249.818V242.244H147.55ZM144.442 238.24V242.86H145.492V238.24H144.442ZM137.26 239.164C138.114 239.668 139.248 240.382 139.808 240.83L140.452 239.976C139.864 239.57 138.702 238.898 137.876 238.436L137.26 239.164ZM136.504 243.028C137.358 243.476 138.52 244.148 139.094 244.54L139.682 243.686C139.08 243.28 137.904 242.664 137.078 242.258L136.504 243.028ZM136.98 250.224L137.862 250.938C138.688 249.636 139.668 247.886 140.41 246.402L139.64 245.716C138.828 247.312 137.722 249.16 136.98 250.224Z" fill="#003A9F"/>
<rect x="100.5" y="226.5" width="71" height="35" stroke="#003A9F"/>
<rect width="88" height="36" transform="translate(187 226)" fill="#003A9F"/>
<path d="M212.842 239.164C213.668 239.892 214.62 240.9 215.04 241.572L215.908 240.956C215.446 240.312 214.466 239.318 213.64 238.618L212.842 239.164ZM203.77 242.384V243.392H216.244V242.384H203.77ZM203.56 246.5L203.868 247.55C205.632 247.158 208.11 246.584 210.406 246.052L210.322 245.1C207.858 245.632 205.226 246.192 203.56 246.5ZM206.78 239.668V249.762C206.78 250.014 206.696 250.084 206.444 250.084C206.192 250.098 205.366 250.112 204.47 250.07C204.624 250.378 204.806 250.854 204.862 251.134C206.024 251.148 206.766 251.106 207.214 250.938C207.662 250.77 207.83 250.462 207.83 249.776V239.668H206.78ZM209.44 238.408C208.096 238.912 205.828 239.388 203.854 239.696C203.994 239.934 204.12 240.326 204.176 240.564C206.178 240.284 208.558 239.85 210.182 239.29L209.44 238.408ZM210.84 238.366C210.896 245.03 212.142 251.176 214.886 251.176C215.936 251.176 216.314 250.49 216.51 248.166C216.216 248.054 215.838 247.816 215.614 247.578C215.53 249.384 215.362 250.112 214.984 250.112C213.276 250.112 211.904 244.792 211.932 238.366H210.84ZM214.634 244.036C213.388 246.402 211.078 248.558 208.586 249.762C208.852 250 209.146 250.336 209.314 250.602C211.89 249.244 214.2 246.99 215.572 244.428L214.634 244.036ZM225.092 248.614V249.608H229.236V248.614H225.092ZM224.658 239.458V250.728H225.666V240.452H228.648V250.574H229.698V239.458H224.658ZM220.514 240.606V243.406C220.514 245.576 220.192 248.362 217.462 250.308C217.686 250.462 218.064 250.868 218.204 251.092C221.102 249.02 221.578 245.8 221.578 243.42V240.606H220.514ZM219.072 240.13V241.11H223.79V240.13H219.072ZM217.616 243.896V244.904H224.21V243.896H217.616ZM221.242 245.744L220.598 246.346C221.242 247.032 222.852 248.95 223.44 249.804L224.154 248.922C223.706 248.39 221.788 246.234 221.242 245.744ZM219.198 238.24C218.862 239.948 218.288 241.628 217.448 242.706C217.686 242.846 218.134 243.14 218.316 243.308C219.142 242.118 219.814 240.312 220.22 238.436L219.198 238.24ZM235.354 240.102V240.984H244.258V240.102H235.354ZM239.176 240.466C239.064 241.04 238.826 241.866 238.616 242.44L239.498 242.58C239.764 242.062 240.114 241.292 240.366 240.578L239.176 240.466ZM241.626 238.254C241.36 238.842 240.87 239.71 240.45 240.256L241.29 240.522C241.71 240.018 242.2 239.248 242.662 238.548L241.626 238.254ZM236.782 238.632C237.174 239.122 237.594 239.794 237.748 240.228L238.616 239.822C238.448 239.402 238.014 238.744 237.622 238.282L236.782 238.632ZM237.496 244.792H242.032V245.968H237.496V244.792ZM237.496 246.71H242.032V247.886H237.496V246.71ZM237.496 242.888H242.032V244.05H237.496V242.888ZM236.502 242.09V248.698H243.068V242.09H236.502ZM232.162 238.73C232.778 239.416 233.548 240.396 233.926 240.984L234.738 240.41C234.36 239.836 233.59 238.94 232.946 238.268L232.162 238.73ZM231.658 241.474V242.356H234.724V241.474H231.658ZM234.15 247.9L233.45 248.222C234.5 250.532 236.334 250.924 239.61 250.924C241.15 250.924 242.914 250.882 244.23 250.812C244.286 250.518 244.426 250.028 244.58 249.804C243.152 249.916 241.094 249.986 239.624 249.986C236.838 249.986 235.018 249.734 234.15 247.9ZM234.346 244.974V245.156C233.954 247.718 232.876 249.496 231.392 250.434C231.588 250.588 231.938 250.938 232.078 251.162C233.646 250.112 234.808 248.138 235.298 245.142L234.766 244.946L234.584 244.974H234.346ZM231.854 246.024C231.952 245.912 232.316 245.828 232.68 245.828H234.682L234.696 244.974H232.358L231.854 245.226V246.024ZM231.854 246.024C231.854 245.758 232.638 245.366 232.638 245.366C233.464 244.47 234.766 242.692 235.452 241.74L234.752 241.404L234.43 241.544V241.586C233.954 242.328 232.582 244.218 232.134 244.652C231.896 244.932 231.672 245.016 231.462 245.072C231.574 245.296 231.784 245.786 231.854 246.024ZM251.496 243.14V249.748C251.496 250 251.398 250.07 251.104 250.084C250.782 250.098 249.704 250.112 248.528 250.07C248.696 250.364 248.892 250.826 248.948 251.12C250.376 251.134 251.314 251.12 251.86 250.952C252.406 250.784 252.588 250.476 252.588 249.762V243.14H251.496ZM246.344 239.346V240.368H256.466V239.346H246.344ZM256.144 239.346V239.598C255.206 240.732 253.204 242.286 251.496 243.14C251.706 243.308 252.028 243.644 252.196 243.868C254.044 242.944 256.158 241.348 257.488 239.878L256.676 239.276L256.438 239.346H256.144Z" fill="white"/>
<path d="M106.94 97.702V98.626H116.474V97.702H106.94ZM105.134 92.648V93.614H114.29V92.648H105.134ZM109.082 95.168V96.106H115.494V95.168H109.082ZM116.026 97.702V97.87C115.802 100.656 115.536 101.762 115.214 102.084C115.088 102.196 114.948 102.224 114.682 102.224C114.416 102.224 113.744 102.224 113.044 102.14C113.212 102.42 113.324 102.826 113.338 103.12C114.066 103.148 114.766 103.162 115.116 103.134C115.536 103.106 115.802 103.008 116.068 102.742C116.516 102.28 116.782 101.118 117.034 98.164C117.062 98.01 117.076 97.702 117.076 97.702H116.026ZM112.918 99.382C113.338 99.97 113.772 100.782 113.954 101.286L114.724 100.964C114.542 100.46 114.108 99.676 113.66 99.102L112.918 99.382ZM106.87 90.66C107.416 91.248 108.004 92.074 108.242 92.62L109.222 92.172C108.942 91.64 108.326 90.842 107.78 90.282L106.87 90.66ZM108.774 99.732C109.012 100.642 109.166 101.79 109.138 102.546L110.062 102.42C110.062 101.664 109.908 100.502 109.628 99.62L108.774 99.732ZM110.832 99.606C111.182 100.376 111.518 101.398 111.616 102.07L112.484 101.832C112.372 101.174 112.022 100.18 111.658 99.41L110.832 99.606ZM106.982 99.41C106.702 100.488 106.17 101.734 105.386 102.476L106.198 103.05C107.052 102.196 107.542 100.866 107.864 99.704L106.982 99.41ZM111.112 90.24C110.048 93.866 107.892 97.45 104.42 99.424C104.602 99.648 104.868 100.068 104.994 100.32C108.704 98.122 110.902 94.426 112.176 90.506L111.112 90.24ZM114.052 92.648C113.898 93.544 113.66 94.664 113.464 95.406L114.388 95.532C114.598 94.776 114.85 93.614 115.046 92.648H114.052ZM115.102 95.168C114.962 96.064 114.724 97.198 114.514 97.954L115.466 98.066C115.662 97.31 115.9 96.134 116.096 95.168H115.102ZM124.692 93.362H129.368V94.482H124.692V93.362ZM124.692 91.5H129.368V92.62H124.692V91.5ZM123.726 90.702V95.294H130.376V90.702H123.726ZM123.082 96.302V97.184H131.146V96.302H123.082ZM126.526 96.736V102.056L127.506 102.462V96.736H126.526ZM124.65 99.312L124.006 99.55C124.86 102.406 126.47 102.91 128.808 102.91H131.272C131.3 102.644 131.44 102.196 131.58 101.972C131.09 101.986 129.2 101.986 128.85 101.986C126.904 101.986 125.364 101.636 124.65 99.312ZM127.198 98.822V99.69H130.446V98.822H127.198ZM124.006 97.842C123.782 99.914 123.152 101.496 121.906 102.49C122.116 102.644 122.522 102.952 122.69 103.12C123.95 102 124.678 100.264 124.958 97.954L124.006 97.842ZM118.392 97.688L118.658 98.71C119.848 98.332 121.374 97.828 122.83 97.352L122.676 96.386C121.108 96.89 119.484 97.394 118.392 97.688ZM118.546 93.068V94.048H122.816V93.068H118.546ZM120.282 90.254V101.804C120.282 102.014 120.226 102.07 120.044 102.07C119.876 102.07 119.344 102.07 118.728 102.056C118.868 102.35 118.994 102.784 119.036 103.036C119.918 103.036 120.464 103.008 120.786 102.84C121.136 102.672 121.262 102.392 121.262 101.818V90.254H120.282ZM135.752 90.282C134.968 92.41 133.652 94.51 132.28 95.868C132.476 96.106 132.77 96.666 132.882 96.904C134.394 95.336 135.836 92.956 136.746 90.59L135.752 90.282ZM134.268 93.908V103.106H135.304V92.9L135.29 92.886L134.268 93.908ZM136.676 93.236V94.244H145.272V93.236H136.676ZM136.326 97.702V98.738H145.44V97.702H136.326ZM138.482 90.394V98.262H139.518V90.394H138.482ZM142.248 90.38V98.276H143.27V90.38H142.248ZM138.776 99.522C138.174 100.6 137.208 101.706 136.242 102.434C136.48 102.574 136.886 102.91 137.082 103.092C138.02 102.294 139.084 101.048 139.77 99.83L138.776 99.522ZM141.954 100.026C142.892 100.964 143.928 102.266 144.404 103.134L145.286 102.574C144.782 101.72 143.746 100.474 142.78 99.55L141.954 100.026ZM152.552 90.268C152.076 91.598 151.25 92.872 150.298 93.712C150.536 93.852 150.928 94.188 151.082 94.37C152.062 93.432 152.972 92.004 153.518 90.506L152.552 90.268ZM152.524 94.118C152.146 95.098 151.502 96.064 150.76 96.722C150.984 96.876 151.39 97.17 151.544 97.338C152.286 96.61 153.042 95.49 153.504 94.384L152.524 94.118ZM152.384 91.57L152.02 92.48H158.46V91.57H152.384ZM156.416 94.482C157.088 95.364 157.83 96.568 158.138 97.352L159.034 96.876C158.712 96.106 157.97 94.944 157.256 94.09L156.416 94.482ZM158.152 91.57V91.71C157.9 92.424 157.494 93.306 157.172 93.852L158.082 94.048C158.418 93.474 158.866 92.522 159.216 91.71L158.502 91.528L158.32 91.57H158.152ZM149.836 90.212C149.052 91.766 147.778 93.32 146.476 94.3C146.686 94.496 147.036 94.916 147.176 95.126C148.506 94.006 149.892 92.27 150.788 90.52L149.836 90.212ZM148.534 92.872V98.248H149.542V91.892L149.528 91.878L148.534 92.872ZM149.668 98.99V101.426C149.668 102.574 150.102 102.868 151.768 102.868C152.118 102.868 154.764 102.868 155.128 102.868C156.514 102.868 156.864 102.434 157.004 100.656C156.71 100.6 156.276 100.446 156.038 100.264C155.954 101.692 155.828 101.888 155.058 101.888C154.47 101.888 152.258 101.888 151.81 101.888C150.886 101.888 150.718 101.818 150.718 101.412V98.99H149.668ZM151.796 98.374C152.552 99.116 153.42 100.166 153.784 100.852L154.652 100.334C154.26 99.634 153.378 98.626 152.594 97.912L151.796 98.374ZM156.738 99.186C157.382 100.18 158.012 101.538 158.222 102.392L159.23 101.986C158.992 101.118 158.334 99.816 157.676 98.822L156.738 99.186ZM148.086 99.06C147.764 99.998 147.232 101.272 146.658 102.098L147.652 102.56C148.17 101.706 148.674 100.376 149.024 99.452L148.086 99.06ZM154.61 93.012V98.206H155.618V93.012H154.61ZM160.896 90.996V91.948H173.09V90.996H160.896ZM166.538 91.402V96.82C166.538 99.144 166.104 101.202 160.644 102.21C160.868 102.462 161.162 102.91 161.274 103.134C166.888 101.944 167.63 99.536 167.63 96.834V91.402H166.538ZM163.178 96.246H171.158V97.674H163.178V96.246ZM163.178 94.006H171.158V95.406H163.178V94.006ZM162.184 93.124V98.556H172.222V93.124H162.184ZM163.528 98.668L162.632 99.032C164.508 102.21 167.952 102.868 173.104 103.078C173.16 102.742 173.37 102.294 173.552 102.042C168.498 101.916 165.306 101.44 163.528 98.668ZM177.514 93.334C178.564 93.852 179.838 94.678 180.44 95.266L181.182 94.58C180.552 93.992 179.264 93.208 178.214 92.718L177.514 93.334ZM183.982 91.43V91.598C182.456 94.356 178.424 96.246 174.896 96.904C175.092 97.128 175.302 97.562 175.4 97.828C179.096 97.016 183.24 95.056 185.06 91.794L184.374 91.374L184.192 91.43H183.982ZM179.306 91.43V92.312H184.248V91.43H179.306ZM180.342 90.226C179.376 91.402 177.528 92.718 175.008 93.6C175.246 93.782 175.568 94.132 175.722 94.384C178.326 93.348 180.23 91.962 181.518 90.478L180.342 90.226ZM179.306 98.472C180.412 99.074 181.742 100.012 182.372 100.67L183.198 99.998C182.526 99.326 181.182 98.444 180.076 97.87L179.306 98.472ZM186.026 96.33V96.484C184.514 100.012 180.286 101.678 175.96 102.196C176.128 102.434 176.338 102.868 176.408 103.162C180.986 102.49 185.354 100.74 187.118 96.652L186.432 96.274L186.236 96.33H186.026ZM181.476 96.33V97.226H186.306V96.33H181.476ZM182.61 95.014C181.518 96.344 179.39 97.8 176.422 98.724C176.646 98.92 176.954 99.298 177.08 99.536C180.146 98.458 182.358 96.932 183.772 95.28L182.61 95.014ZM192.452 90.87V91.682H201.202V90.87H192.452ZM194.034 93.614V94.16H199.606V93.614H194.034ZM194.034 94.776V95.322H199.606V94.776H194.034ZM193.474 92.41V96.288H194.44V93.026H199.13V96.288H200.11V92.41H193.474ZM192.088 95.938V97.828H193.012V96.61H200.474V97.828H201.426V95.938H192.088ZM194.006 97.03C193.684 97.548 193.152 98.136 192.578 98.458L193.194 98.962C193.824 98.584 194.328 97.94 194.678 97.394L194.006 97.03ZM194.734 97.03V97.884C194.734 98.654 195.014 98.822 196.078 98.822C196.302 98.822 197.786 98.822 198.024 98.822C198.738 98.822 198.976 98.612 199.06 97.8C198.836 97.758 198.514 97.66 198.346 97.562C198.29 98.108 198.22 98.178 197.898 98.178C197.59 98.178 196.386 98.178 196.162 98.178C195.686 98.178 195.602 98.136 195.602 97.884V97.03H194.734ZM195.896 96.918C196.386 97.198 196.96 97.632 197.254 97.94L197.856 97.506C197.548 97.212 196.96 96.792 196.484 96.54L195.896 96.918ZM198.724 97.366C199.326 97.856 200.012 98.556 200.334 99.018L200.95 98.612C200.614 98.136 199.914 97.464 199.326 96.988L198.724 97.366ZM195.448 98.528C194.762 99.354 193.558 100.278 191.948 100.936C192.144 101.076 192.424 101.356 192.564 101.566C194.272 100.768 195.532 99.774 196.4 98.724L195.448 98.528ZM199.074 99.424V99.592C198.136 100.922 195.532 101.958 191.766 102.364C191.962 102.588 192.186 102.924 192.284 103.148C196.232 102.644 198.934 101.51 200.138 99.746L199.48 99.382L199.284 99.424H199.074ZM193.642 99.298L192.844 99.592C194.384 101.636 197.366 102.742 200.81 103.134C200.936 102.882 201.174 102.518 201.356 102.308C197.982 102 195 101.034 193.642 99.298ZM194.916 99.424L194.216 100.124H199.368V99.424H194.916ZM196.176 91.248C196.12 91.654 195.966 92.228 195.84 92.676L196.75 92.816C196.918 92.438 197.114 91.906 197.324 91.374L196.176 91.248ZM191.206 90.324C190.576 92.48 189.554 94.622 188.392 96.036C188.574 96.302 188.854 96.862 188.952 97.114C190.268 95.476 191.43 92.998 192.186 90.59L191.206 90.324ZM190.17 93.754V103.12H191.164V92.816L191.136 92.788L190.17 93.754ZM207.922 90.296C206.984 90.59 205.248 90.814 203.792 90.926C203.89 91.122 204.002 91.416 204.044 91.612C205.57 91.528 207.39 91.318 208.58 90.94L207.922 90.296ZM213.872 90.296C212.892 90.604 211.044 90.8 209.49 90.898C209.602 91.094 209.714 91.402 209.756 91.598C211.38 91.514 213.326 91.318 214.586 90.926L213.872 90.296ZM204.198 92.34V93.152H208.818V92.34H204.198ZM209.924 92.34V93.152H215.258V92.34H209.924ZM206.298 92.578V94.846H207.25V92.578H206.298ZM212.122 92.592V94.902H213.074V92.592H212.122ZM205.612 97.506H212.332V98.5H205.612V97.506ZM205.612 99.172H212.332V100.194H205.612V99.172ZM205.612 95.84H212.332V96.82H205.612V95.84ZM204.59 95.14V100.908H213.396V95.14H204.59ZM210.372 101.65C211.954 102.112 213.592 102.7 214.6 103.148L215.104 102.392C214.054 101.958 212.374 101.384 210.792 100.964L210.372 101.65ZM206.914 100.978C205.878 101.496 204.156 102 202.798 102.294C202.966 102.504 203.246 102.994 203.316 103.19C204.73 102.784 206.564 102.084 207.726 101.426L206.914 100.978ZM203.792 90.926V92.06C203.792 92.858 203.638 93.824 202.644 94.594C202.84 94.72 203.204 95.084 203.344 95.28C204.464 94.37 204.716 93.096 204.716 92.074V90.926H203.792ZM209.49 90.898V91.934C209.49 92.704 209.35 93.712 208.524 94.51C208.734 94.608 209.126 94.888 209.294 95.056C210.204 94.174 210.4 92.9 210.4 91.948V90.898H209.49ZM217.834 92.494V93.432H221.11V100.698H217.834V101.65H222.09V92.494H217.834ZM217.204 92.494V102.77H218.184V92.494H217.204ZM217.764 96.386V97.324H221.628V96.386H217.764ZM219.346 90.212C219.234 90.94 218.968 92.004 218.73 92.676L219.57 92.886C219.85 92.256 220.2 91.29 220.48 90.422L219.346 90.212ZM224.078 92.452V93.432H228.376V92.452H224.078ZM228.012 92.452V92.676C227.816 98.85 227.592 101.174 227.13 101.678C226.976 101.86 226.808 101.902 226.528 101.902C226.206 101.902 225.366 101.888 224.456 101.818C224.652 102.098 224.778 102.532 224.806 102.84C225.59 102.882 226.416 102.91 226.892 102.854C227.382 102.812 227.704 102.686 228.012 102.28C228.572 101.594 228.768 99.424 228.992 92.998C228.992 92.844 228.992 92.452 228.992 92.452H228.012ZM224.372 90.184C223.924 92.13 223.154 94.062 222.202 95.294C222.454 95.434 222.888 95.728 223.07 95.896C224.036 94.566 224.862 92.508 225.38 90.422L224.372 90.184ZM223.728 96.092C224.498 97.114 225.436 98.5 225.856 99.354L226.752 98.794C226.304 97.968 225.338 96.61 224.54 95.616L223.728 96.092ZM231.526 93.376V103.134H232.59V94.412H241.998V93.376H231.526ZM241.48 93.376V101.748C241.48 101.972 241.41 102.042 241.158 102.056C240.892 102.07 239.996 102.07 239.086 102.042C239.24 102.336 239.408 102.812 239.45 103.12C240.626 103.12 241.452 103.106 241.928 102.938C242.404 102.756 242.544 102.42 242.544 101.762V93.376H241.48ZM233.976 90.87V91.808H236.972V90.87H233.976ZM236.258 90.87V91.388H236.482C236.692 95.462 237.77 98.416 240.584 99.816C240.752 99.536 241.102 99.13 241.326 98.906C238.582 97.73 237.588 94.902 237.42 90.87H236.258ZM236.37 93.656C236.006 96.288 234.83 98.038 232.716 99.074C232.94 99.242 233.276 99.648 233.43 99.886C235.684 98.724 236.888 96.708 237.364 93.824L236.37 93.656ZM248.634 93.166C247.822 94.188 246.506 95.168 245.232 95.798C245.456 95.994 245.82 96.4 245.974 96.61C247.262 95.868 248.69 94.706 249.628 93.488L248.634 93.166ZM252.204 93.768C253.506 94.58 255.074 95.77 255.83 96.582L256.586 95.868C255.802 95.084 254.192 93.922 252.904 93.166L252.204 93.768ZM247.08 98.43V103.134H248.088V99.368H253.87V103.078H254.934V98.43H247.08ZM247.626 101.72V102.658H254.388V101.72H247.626ZM245.148 91.542V94.09H246.184V92.494H255.774V94.09H256.838V91.542H245.148ZM250.062 90.394C250.37 90.94 250.706 91.654 250.832 92.102L251.952 91.822C251.812 91.36 251.462 90.66 251.126 90.142L250.062 90.394ZM250.93 94.384C249.586 96.456 247.108 98.22 244.518 99.186C244.756 99.396 245.036 99.76 245.19 100.026C247.878 98.92 250.37 97.058 251.84 94.79L250.93 94.384ZM251.336 94.874L250.482 95.266C252.26 97.464 254.304 98.752 256.74 99.858C256.894 99.55 257.174 99.186 257.426 98.976C255.032 98.024 252.96 96.848 251.336 94.874ZM263.852 99.368C265.322 98.864 266.274 97.716 266.274 96.204C266.274 95.224 265.854 94.58 265.07 94.58C264.51 94.58 264.006 94.93 264.006 95.588C264.006 96.246 264.482 96.596 265.056 96.596C265.322 96.596 265.602 96.526 265.798 96.274L265.042 95.21L265.308 96.386C265.308 97.45 264.678 98.164 263.53 98.626L263.852 99.368ZM272.896 93.194V94.258H285.118V93.194H272.896ZM275.164 99.438V100.502H282.808V99.438H275.164ZM278.426 90.254V103.12H279.532V90.254H278.426ZM277.418 93.544C276.452 96.19 274.562 98.794 272.518 100.054C272.77 100.264 273.106 100.642 273.288 100.908C275.402 99.438 277.306 96.764 278.37 93.838L277.418 93.544ZM280.512 93.586L279.574 93.866C280.624 96.778 282.514 99.466 284.684 100.866C284.866 100.572 285.23 100.166 285.51 99.956C283.368 98.752 281.464 96.218 280.512 93.586ZM296.57 92.27C296.43 92.998 296.108 94.09 295.856 94.762L296.486 94.972C296.766 94.342 297.088 93.334 297.368 92.494L296.57 92.27ZM293.714 92.466C294.036 93.096 294.344 93.936 294.442 94.496L295.128 94.244C295.016 93.698 294.708 92.858 294.372 92.242L293.714 92.466ZM291.922 90.912V103.148H292.874V91.85H298.488V90.912H291.922ZM298.152 90.912V101.944C298.152 102.14 298.096 102.196 297.914 102.21C297.732 102.21 297.158 102.224 296.556 102.196C296.696 102.448 296.822 102.882 296.85 103.12C297.718 103.134 298.292 103.106 298.642 102.952C298.992 102.784 299.104 102.518 299.104 101.944V90.912H298.152ZM293.224 94.608V95.434H297.844V94.608H293.224ZM293.378 96.918V97.758H297.662V96.918H293.378ZM294.722 95.686C294.96 96.092 295.212 96.666 295.324 97.03L296.094 96.708C295.982 96.358 295.702 95.812 295.464 95.406L294.722 95.686ZM290.032 95.854C290.396 96.736 290.802 97.898 290.942 98.598L291.74 98.276C291.558 97.618 291.166 96.47 290.774 95.602L290.032 95.854ZM288.646 99.354C288.814 100.306 288.968 101.552 288.982 102.364L289.78 102.182C289.738 101.356 289.57 100.138 289.388 99.2L288.646 99.354ZM287.176 99.256C287.05 100.39 286.84 101.65 286.518 102.504C286.728 102.56 287.12 102.7 287.302 102.798C287.582 101.93 287.848 100.614 287.988 99.396L287.176 99.256ZM286.854 95.49C286.854 95.28 287.456 94.972 287.456 94.972V94.958C288.366 93.838 289.29 92.2 289.99 90.646L289.108 90.254C288.548 91.78 287.596 93.39 287.302 93.81C287.022 94.23 286.77 94.524 286.546 94.58C286.658 94.832 286.812 95.294 286.854 95.49ZM286.854 95.49C287.064 95.378 287.428 95.308 289.612 95.056C289.626 94.86 289.654 94.51 289.696 94.258L287.302 94.468L286.84 94.762L286.854 95.49ZM286.938 98.64C286.938 98.444 287.554 98.15 287.554 98.15V98.122C288.842 96.722 290.172 94.748 291.208 92.816L290.382 92.326C289.5 94.244 288.086 96.26 287.652 96.778C287.232 97.31 286.924 97.674 286.644 97.73C286.756 97.982 286.91 98.444 286.938 98.64ZM286.938 98.64C287.204 98.5 287.652 98.388 291.096 97.856C291.082 97.66 291.082 97.31 291.11 97.072L287.386 97.59L286.91 97.912L286.938 98.64ZM290.172 99.074C290.466 99.928 290.816 101.062 290.956 101.818L291.698 101.552C291.544 100.824 291.194 99.704 290.872 98.836L290.172 99.074ZM293.896 97.324V99.13C293.896 100.054 294.106 100.39 295.03 100.39C295.24 100.39 296.556 100.39 296.85 100.39C297.186 100.39 297.564 100.39 297.746 100.334C297.718 100.124 297.69 99.788 297.676 99.55C297.452 99.606 297.06 99.606 296.822 99.606C296.57 99.606 295.352 99.606 295.1 99.606C294.82 99.606 294.764 99.494 294.764 99.144V97.324H293.896ZM300.812 92.886V93.852H306.258V92.886H300.812ZM300.644 100.684L300.896 101.734C302.366 101.356 304.34 100.866 306.188 100.376L306.09 99.41C304.102 99.9 302.016 100.404 300.644 100.684ZM301.372 94.664C301.68 96.246 301.974 98.304 302.044 99.676L302.926 99.508C302.842 98.122 302.548 96.092 302.198 94.496L301.372 94.664ZM304.606 94.328C304.424 96.064 304.046 98.598 303.682 100.068L304.452 100.264C304.844 98.794 305.306 96.358 305.6 94.51L304.606 94.328ZM302.45 90.604C302.828 91.262 303.234 92.158 303.388 92.732L304.34 92.41C304.172 91.836 303.752 90.968 303.346 90.324L302.45 90.604ZM309.422 93.152V94.146H313.44V93.152H309.422ZM307.014 101.454V102.448H312.306V101.454H307.014ZM308.806 90.24V97.38H309.87V90.24H308.806ZM306.524 96.946V103.106H307.546V97.926H311.774V103.05H312.838V96.946H306.524ZM108.48 111.794V112.774H117.468V111.794H108.48ZM109.866 115.028H115.984V117.128H109.866V115.028ZM108.9 114.132V118.024H117.006V114.132H108.9ZM109.768 118.304L108.9 118.598C110.384 121.16 113.254 122.616 116.964 123.148C117.104 122.854 117.37 122.434 117.594 122.21C113.954 121.804 111.084 120.502 109.768 118.304ZM112.372 110.296V116.484C112.372 118.85 112.134 121.244 107.976 122.294C108.186 122.518 108.48 122.938 108.606 123.176C112.946 121.888 113.408 119.2 113.408 116.498V110.296H112.372ZM107.878 110.212C107.066 112.34 105.694 114.426 104.28 115.756C104.476 116.008 104.77 116.554 104.868 116.792C106.422 115.238 107.92 112.886 108.872 110.52L107.878 110.212ZM106.408 113.88V123.19H107.416V112.9L107.402 112.886L106.408 113.88ZM120.73 111.234V112.242H129.788V111.234H120.73ZM120.73 114.496V115.49H129.774V114.496H120.73ZM120.66 117.842V118.836H129.802V117.842H120.66ZM120.142 111.234V116.302C120.142 118.276 119.988 120.768 118.448 122.504C118.672 122.644 119.092 122.994 119.26 123.204C120.926 121.342 121.178 118.444 121.178 116.316V111.234H120.142ZM129.368 111.234V121.692C129.368 121.958 129.27 122.042 129.004 122.056C128.738 122.056 127.786 122.07 126.792 122.028C126.946 122.308 127.114 122.77 127.156 123.05C128.486 123.064 129.298 123.05 129.774 122.882C130.236 122.7 130.404 122.378 130.404 121.692V111.234H129.368ZM124.538 111.612V122.994H125.602V111.612H124.538ZM139.401 122.196C140.311 122.196 141.193 121.832 141.865 121.23L141.319 120.376C140.843 120.796 140.213 121.132 139.527 121.132C138.127 121.132 137.161 119.956 137.161 118.22C137.161 116.456 138.169 115.28 139.569 115.28C140.157 115.28 140.633 115.546 141.081 115.952L141.725 115.112C141.193 114.622 140.493 114.216 139.499 114.216C137.553 114.216 135.845 115.672 135.845 118.22C135.845 120.726 137.385 122.196 139.401 122.196ZM146.14 122.196C148.002 122.196 149.654 120.726 149.654 118.22C149.654 115.672 148.002 114.216 146.14 114.216C144.264 114.216 142.612 115.672 142.612 118.22C142.612 120.726 144.264 122.196 146.14 122.196ZM146.14 121.132C144.81 121.132 143.928 119.956 143.928 118.22C143.928 116.456 144.81 115.28 146.14 115.28C147.456 115.28 148.338 116.456 148.338 118.22C148.338 119.956 147.456 121.132 146.14 121.132ZM154.631 122.196C156.493 122.196 158.145 120.726 158.145 118.22C158.145 115.672 156.493 114.216 154.631 114.216C152.755 114.216 151.103 115.672 151.103 118.22C151.103 120.726 152.755 122.196 154.631 122.196ZM154.631 121.132C153.301 121.132 152.419 119.956 152.419 118.22C152.419 116.456 153.301 115.28 154.631 115.28C155.947 115.28 156.829 116.456 156.829 118.22C156.829 119.956 155.947 121.132 154.631 121.132ZM160.167 122H161.427V119.998L162.841 118.332L165.067 122H166.453L163.597 117.464L166.131 114.398H164.703L161.469 118.416H161.427V110.87H160.167V122ZM167.892 122H169.166V114.398H167.892V122ZM168.536 112.83C169.026 112.83 169.39 112.508 169.39 111.976C169.39 111.486 169.026 111.164 168.536 111.164C168.032 111.164 167.682 111.486 167.682 111.976C167.682 112.508 168.032 112.83 168.536 112.83ZM174.813 122.196C175.849 122.196 176.647 121.846 177.319 121.412L176.857 120.558C176.297 120.936 175.695 121.174 174.967 121.174C173.511 121.174 172.531 120.124 172.433 118.514H177.557C177.599 118.318 177.613 118.052 177.613 117.786C177.613 115.602 176.521 114.216 174.589 114.216C172.839 114.216 171.173 115.742 171.173 118.22C171.173 120.712 172.783 122.196 174.813 122.196ZM172.419 117.59C172.587 116.092 173.539 115.238 174.603 115.238C175.807 115.238 176.493 116.064 176.493 117.59H172.419ZM181.487 122.196C183.279 122.196 184.245 121.174 184.245 119.928C184.245 118.486 183.041 118.038 181.935 117.618C181.067 117.31 180.297 117.03 180.297 116.302C180.297 115.714 180.731 115.21 181.697 115.21C182.369 115.21 182.915 115.504 183.433 115.882L184.049 115.07C183.461 114.594 182.621 114.216 181.683 114.216C180.031 114.216 179.065 115.154 179.065 116.358C179.065 117.66 180.227 118.164 181.277 118.57C182.117 118.878 183.027 119.228 183.027 119.998C183.027 120.67 182.523 121.202 181.515 121.202C180.605 121.202 179.933 120.824 179.275 120.292L178.645 121.146C179.359 121.734 180.409 122.196 181.487 122.196ZM190.509 115.546V116.568H198.517V115.546H190.509ZM198.167 115.546V115.742C197.985 119.9 197.775 121.496 197.397 121.874C197.257 122.028 197.089 122.056 196.809 122.056C196.473 122.056 195.605 122.042 194.681 121.958C194.877 122.266 195.017 122.7 195.031 123.022C195.913 123.064 196.795 123.078 197.257 123.036C197.747 122.994 198.055 122.896 198.335 122.546C198.839 122.014 199.035 120.39 199.231 116.05C199.245 115.91 199.259 115.546 199.259 115.546H198.167ZM193.463 115.826C193.183 118.472 192.623 121.062 188.955 122.28C189.193 122.504 189.501 122.924 189.627 123.19C193.533 121.79 194.261 118.892 194.583 115.826H193.463ZM192.007 110.702C191.335 112.9 190.047 114.776 188.381 115.938C188.633 116.12 189.081 116.498 189.263 116.708C190.915 115.406 192.315 113.39 193.099 110.968L192.007 110.702ZM194.205 110.492V111.472H197.271V110.492H194.205ZM196.263 110.492V111.08H196.557C197.327 113.334 198.853 115.49 200.715 116.68C200.897 116.4 201.247 115.966 201.471 115.742C199.679 114.734 198.167 112.69 197.453 110.492H196.263ZM209.129 115.042V116.036H215.275V115.042H209.129ZM213.567 110.408C212.419 110.926 210.403 111.444 208.625 111.794C208.765 112.004 208.919 112.396 208.975 112.648C210.837 112.326 212.993 111.836 214.463 111.22L213.567 110.408ZM212.195 115.364V123.12H213.231V115.364H212.195ZM202.717 113.25V114.258H207.897V113.25H202.717ZM204.817 110.24V123.106H205.825V110.24H204.817ZM204.789 113.866C204.369 115.882 203.347 118.304 202.325 119.564C202.507 119.802 202.773 120.222 202.885 120.502C203.963 119.102 204.985 116.358 205.461 114.104L204.789 113.866ZM205.713 114.832L205.167 115.322C205.615 115.924 206.735 117.66 207.099 118.402L207.771 117.562C207.463 117.114 206.077 115.252 205.713 114.832ZM208.625 111.794V116.106C208.625 118.066 208.499 120.698 207.225 122.56C207.477 122.658 207.911 122.938 208.093 123.092C209.423 121.146 209.633 118.206 209.633 116.106V111.794H208.625ZM221.169 112.452V113.432H228.883V112.452H221.169ZM221.463 115.532V116.498H227.637V115.532H221.463ZM224.473 110.24V116.078H225.509V110.24H224.473ZM222.821 116.246L221.869 116.526C223.087 119.816 225.355 122.14 228.715 123.134C228.869 122.868 229.163 122.448 229.401 122.238C226.125 121.37 223.871 119.186 222.821 116.246ZM227.553 115.532V115.714C226.531 119.172 223.577 121.342 220.371 122.168C220.567 122.392 220.833 122.84 220.931 123.12C224.361 122.084 227.413 119.802 228.603 115.784L227.945 115.49L227.749 115.532H227.553ZM216.395 117.66L216.703 118.668C217.949 118.304 219.573 117.828 221.099 117.366L220.973 116.414C219.307 116.89 217.571 117.366 216.395 117.66ZM216.577 113.068V114.062H220.973V113.068H216.577ZM218.383 110.254V121.86C218.383 122.056 218.299 122.126 218.117 122.126C217.935 122.14 217.319 122.14 216.661 122.126C216.801 122.406 216.955 122.826 216.983 123.092C217.949 123.092 218.537 123.064 218.901 122.896C219.279 122.742 219.419 122.448 219.419 121.86V110.254H218.383ZM234.119 113.656V114.636H239.467V113.656H234.119ZM236.205 110.366V123.092H237.129V110.366H236.205ZM239.775 111.36V112.312H243.121V111.36H239.775ZM239.439 114.636V115.602H243.317V114.636H239.439ZM237.633 111.402C238.123 111.976 238.655 112.774 238.879 113.278L239.579 112.858C239.341 112.34 238.809 111.584 238.305 111.024L237.633 111.402ZM241.063 115.126V121.734C241.063 121.916 241.007 121.958 240.797 121.972C240.601 121.972 239.943 121.972 239.229 121.958C239.369 122.252 239.495 122.686 239.537 122.98C240.517 122.98 241.161 122.966 241.553 122.798C241.945 122.616 242.057 122.322 242.057 121.734V115.126H241.063ZM232.845 110.254C232.341 111.206 231.333 112.368 230.395 113.082C230.563 113.278 230.843 113.656 230.969 113.866C232.019 113.04 233.139 111.752 233.825 110.59L232.845 110.254ZM231.977 115.826V123.134H232.957V115.028L232.831 114.986L231.977 115.826ZM233.209 113.068C232.509 114.622 231.333 116.12 230.129 117.114C230.339 117.324 230.647 117.814 230.759 118.024C232.047 116.89 233.335 115.126 234.161 113.376L233.209 113.068ZM234.651 115.546C234.623 118.024 234.511 119.62 233.615 120.572C233.811 120.712 234.063 121.006 234.175 121.202C235.267 120.096 235.421 118.276 235.449 115.546H234.651ZM237.941 115.546V119.48C237.941 120.432 238.081 120.74 238.893 120.74C239.005 120.74 239.285 120.74 239.397 120.74C239.607 120.74 239.803 120.726 239.943 120.684C239.915 120.488 239.873 120.124 239.859 119.914C239.719 119.942 239.537 119.956 239.411 119.956C239.299 119.956 238.991 119.956 238.879 119.956C238.753 119.956 238.739 119.872 238.739 119.508V115.546H237.941ZM250.933 114.566C249.757 114.566 248.791 115.518 248.791 116.694C248.791 117.884 249.757 118.836 250.933 118.836C252.109 118.836 253.061 117.884 253.061 116.694C253.061 115.518 252.109 114.566 250.933 114.566ZM250.933 118.122C250.149 118.122 249.505 117.492 249.505 116.694C249.505 115.924 250.149 115.28 250.933 115.28C251.717 115.28 252.347 115.924 252.347 116.694C252.347 117.492 251.717 118.122 250.933 118.122ZM262.021 121.482V122.434H269.245V121.482H262.021ZM263.841 113.39C262.861 116.512 260.999 118.864 258.325 120.264C258.563 120.46 258.969 120.88 259.123 121.09C261.811 119.536 263.771 117.03 264.905 113.642L263.841 113.39ZM261.531 117.898V123.12H262.581V118.85H268.923V123.092H270.015V117.898H261.531ZM258.647 115.028V116.008H271.149V115.028H258.647ZM258.731 111.514V112.466H264.583V111.514H258.731ZM261.237 110.24V113.88H262.287V110.24H261.237ZM267.411 110.24V113.894H268.461V110.24H267.411ZM265.171 111.514V112.466H271.135V111.514H265.171ZM277.715 115.644V116.442H284.995V115.644H277.715ZM277.211 110.758V122.602H285.359V121.748H278.135V110.758H277.211ZM275.293 115.784C275.615 116.778 275.937 118.08 276.021 118.85L276.777 118.626C276.679 117.884 276.343 116.61 276.007 115.63L275.293 115.784ZM274.313 119.34C274.481 120.39 274.635 121.748 274.663 122.672L275.391 122.532C275.349 121.636 275.195 120.278 275.013 119.228L274.313 119.34ZM273.053 119.256C272.913 120.474 272.717 121.79 272.367 122.714C272.591 122.77 272.969 122.896 273.137 122.98C273.445 122.084 273.697 120.67 273.865 119.382L273.053 119.256ZM272.717 115.49C272.717 115.28 273.319 114.972 273.319 114.972V114.958C274.131 113.81 274.957 112.144 275.559 110.576L274.691 110.226C274.215 111.766 273.361 113.404 273.109 113.824C272.857 114.258 272.633 114.566 272.409 114.608C272.507 114.846 272.661 115.294 272.717 115.49ZM272.717 115.49C272.913 115.392 273.277 115.308 275.237 115.084C275.223 114.888 275.251 114.538 275.307 114.286L273.165 114.468L272.689 114.762L272.717 115.49ZM272.801 118.64C272.801 118.444 273.417 118.164 273.417 118.164V118.136C274.607 116.722 275.797 114.734 276.735 112.802L275.909 112.354C275.125 114.258 273.837 116.302 273.445 116.806C273.053 117.338 272.773 117.702 272.507 117.772C272.605 118.01 272.759 118.458 272.801 118.64ZM272.801 118.64C273.039 118.514 273.459 118.416 276.217 118.01C276.217 117.814 276.231 117.436 276.259 117.212L273.249 117.59L272.773 117.898L272.801 118.64ZM275.475 119.088C275.755 119.956 276.063 121.104 276.189 121.86L276.875 121.65C276.749 120.908 276.427 119.774 276.119 118.906L275.475 119.088ZM278.625 113.362C278.625 113.194 279.143 112.956 279.143 112.956V112.928C279.605 112.354 280.137 111.486 280.515 110.604L279.787 110.31C279.521 111.15 278.975 112.032 278.835 112.256C278.681 112.466 278.541 112.606 278.373 112.634C278.471 112.83 278.583 113.208 278.625 113.362ZM278.653 115.196C278.653 115.014 279.171 114.79 279.171 114.79V114.776C279.899 114.076 280.669 113.04 281.299 111.976L280.613 111.654C280.109 112.69 279.297 113.74 279.045 114.006C278.807 114.286 278.625 114.454 278.415 114.496C278.499 114.664 278.611 115.028 278.653 115.196ZM278.653 115.196C278.835 115.098 279.171 115.014 281.075 114.734C281.061 114.594 281.061 114.314 281.089 114.132L279.003 114.384L278.639 114.622L278.653 115.196ZM278.625 113.362C278.779 113.292 279.087 113.208 280.487 112.998C280.487 112.844 280.487 112.578 280.515 112.396L278.989 112.564L278.611 112.802L278.625 113.362ZM280.487 113.642C280.683 114.216 280.851 114.972 280.907 115.434L281.509 115.238C281.453 114.804 281.271 114.062 281.061 113.502L280.487 113.642ZM281.649 113.404C281.649 113.222 282.167 112.97 282.167 112.97V112.956C282.643 112.368 283.161 111.472 283.539 110.576L282.797 110.282C282.545 111.136 282.013 112.046 281.845 112.27C281.705 112.48 281.565 112.634 281.397 112.662C281.481 112.858 281.593 113.236 281.649 113.404ZM281.789 115.224C281.789 115.042 282.307 114.818 282.307 114.818V114.79C283.063 114.076 283.875 113.04 284.547 111.948L283.861 111.626C283.329 112.676 282.461 113.754 282.195 114.02C281.971 114.3 281.761 114.482 281.551 114.524C281.635 114.692 281.747 115.056 281.789 115.224ZM281.789 115.224C281.971 115.126 282.293 115.042 284.295 114.748C284.281 114.594 284.295 114.328 284.309 114.146L282.153 114.412L281.775 114.65L281.789 115.224ZM281.649 113.404C281.803 113.32 282.125 113.236 283.595 113.012C283.581 112.858 283.595 112.592 283.609 112.41L282.013 112.592L281.621 112.83L281.649 113.404ZM283.735 113.544C283.959 114.132 284.169 114.944 284.239 115.434L284.897 115.238C284.813 114.762 284.589 113.992 284.351 113.404L283.735 113.544ZM278.639 119.368C278.639 119.186 279.129 118.948 279.129 118.948V118.934C279.577 118.416 280.095 117.618 280.459 116.806L279.759 116.512C279.493 117.296 278.975 118.094 278.835 118.304C278.695 118.5 278.555 118.626 278.387 118.654C278.485 118.836 278.597 119.2 278.639 119.368ZM278.667 121.328C278.667 121.146 279.185 120.922 279.185 120.922V120.908C279.941 120.194 280.725 119.144 281.383 118.066L280.683 117.744C280.179 118.794 279.325 119.872 279.073 120.124C278.835 120.404 278.639 120.586 278.429 120.628C278.513 120.796 278.625 121.16 278.667 121.328ZM278.667 121.328C278.849 121.23 279.185 121.146 281.089 120.866C281.075 120.726 281.089 120.446 281.103 120.264L279.031 120.516L278.653 120.754L278.667 121.328ZM278.639 119.368C278.807 119.284 279.101 119.2 280.585 118.976C280.571 118.822 280.585 118.57 280.599 118.374L278.989 118.57L278.625 118.794L278.639 119.368ZM280.501 119.774C280.697 120.348 280.865 121.104 280.921 121.566L281.523 121.384C281.481 120.936 281.285 120.194 281.075 119.634L280.501 119.774ZM281.733 119.396C281.733 119.214 282.237 118.976 282.237 118.976V118.948C282.685 118.416 283.175 117.59 283.539 116.764L282.825 116.47C282.587 117.268 282.069 118.108 281.929 118.318C281.789 118.514 281.649 118.654 281.481 118.682C281.579 118.864 281.691 119.228 281.733 119.396ZM281.859 121.356C281.859 121.174 282.377 120.95 282.377 120.95V120.936C283.147 120.208 283.959 119.13 284.631 118.038L283.945 117.702C283.413 118.766 282.545 119.872 282.279 120.138C282.041 120.432 281.831 120.614 281.635 120.656C281.719 120.824 281.831 121.188 281.859 121.356ZM281.859 121.356C282.055 121.258 282.377 121.174 284.365 120.88C284.365 120.726 284.365 120.46 284.393 120.278L282.223 120.544L281.845 120.782L281.859 121.356ZM281.733 119.396C281.901 119.312 282.209 119.228 283.679 119.004C283.665 118.85 283.679 118.598 283.707 118.402L282.097 118.598L281.719 118.822L281.733 119.396ZM283.819 119.592C284.043 120.194 284.253 120.992 284.323 121.482L284.967 121.286C284.897 120.81 284.659 120.04 284.435 119.452L283.819 119.592ZM291.043 111.01V111.752H299.093V111.01H291.043ZM291.631 112.494V113.208H298.533V112.494H291.631ZM294.627 110.254V112.914H295.649V110.254H294.627ZM292.023 114.496H298.057V115.672H292.023V114.496ZM291.127 113.796V116.372H298.981V113.796H291.127ZM292.513 118.738H297.539V119.34H292.513V118.738ZM292.513 119.844H297.539V120.488H292.513V119.844ZM292.513 117.632H297.539V118.22H292.513V117.632ZM291.575 116.988V121.118H298.519V116.988H291.575ZM295.845 121.748C296.909 122.182 298.071 122.714 298.813 123.092L299.261 122.336C298.519 121.972 297.329 121.468 296.251 121.062L295.845 121.748ZM293.787 121.104C293.031 121.524 291.673 122.084 290.749 122.434C290.889 122.644 291.085 122.966 291.169 123.176C292.149 122.798 293.479 122.252 294.543 121.762L293.787 121.104ZM293.605 114.006V116.12H294.431V114.006H293.605ZM295.873 114.02V116.106H296.713V114.02H295.873ZM289.615 115.798C289.937 116.778 290.259 118.066 290.357 118.836L291.169 118.598C291.057 117.856 290.707 116.596 290.357 115.616L289.615 115.798ZM288.383 119.34C288.551 120.362 288.705 121.706 288.719 122.588L289.517 122.448C289.489 121.566 289.335 120.236 289.153 119.2L288.383 119.34ZM287.053 119.256C286.913 120.474 286.703 121.818 286.353 122.742C286.577 122.812 286.997 122.938 287.179 123.036C287.473 122.126 287.753 120.698 287.907 119.396L287.053 119.256ZM286.717 115.49C286.717 115.28 287.333 114.972 287.333 114.972V114.944C288.187 113.824 289.083 112.172 289.727 110.604L288.831 110.226C288.313 111.766 287.417 113.39 287.123 113.81C286.857 114.244 286.633 114.538 286.409 114.594C286.507 114.832 286.661 115.294 286.717 115.49ZM286.717 115.49C286.941 115.378 287.319 115.308 289.503 115.056C289.503 114.846 289.531 114.468 289.573 114.216L287.179 114.426L286.689 114.72L286.717 115.49ZM286.801 118.64C286.801 118.444 287.431 118.15 287.431 118.15V118.122C288.691 116.722 289.965 114.762 290.945 112.83L290.105 112.354C289.251 114.258 287.893 116.274 287.473 116.778C287.067 117.31 286.773 117.674 286.493 117.73C286.605 117.982 286.759 118.444 286.801 118.64ZM286.801 118.64C287.067 118.5 287.501 118.402 290.553 117.954C290.539 117.744 290.553 117.38 290.581 117.114L287.263 117.548L286.773 117.87L286.801 118.64ZM289.643 119.074C289.923 119.914 290.245 121.006 290.371 121.706L291.113 121.468C290.973 120.782 290.651 119.69 290.343 118.878L289.643 119.074ZM305.043 117.716H308.501V119.032H305.043V117.716ZM304.189 117.03V119.718H309.397V117.03H304.189ZM307.213 119.382V121.328C307.213 122.182 307.437 122.42 308.333 122.42C308.515 122.42 309.369 122.42 309.551 122.42C310.223 122.42 310.475 122.126 310.559 120.936C310.307 120.88 309.943 120.754 309.775 120.614C309.747 121.524 309.677 121.636 309.425 121.636C309.257 121.636 308.585 121.636 308.445 121.636C308.151 121.636 308.123 121.594 308.123 121.328V119.382H307.213ZM305.197 119.578C305.029 120.782 304.483 121.496 302.789 121.902C302.971 122.056 303.223 122.406 303.321 122.63C305.225 122.07 305.869 121.132 306.079 119.578H305.197ZM305.365 115.084C304.833 115.854 303.671 116.68 302.621 117.17C302.803 117.31 303.097 117.562 303.251 117.73C304.343 117.184 305.533 116.274 306.233 115.364L305.365 115.084ZM301.627 112.41V113.096H305.561V112.41H301.627ZM308.039 112.438V113.124H312.071V112.438H308.039ZM311.721 110.8V121.776C311.721 121.958 311.665 122.014 311.483 122.028C311.315 122.028 310.741 122.028 310.153 122.014C310.293 122.28 310.419 122.714 310.461 122.98C311.301 122.98 311.903 122.952 312.253 122.798C312.617 122.616 312.729 122.336 312.729 121.776V110.8H311.721ZM301.711 110.786V111.528H305.225V114.02H301.711V114.762H306.219V110.786H301.711ZM312.211 110.8H307.465V114.762H312.211V114.02H308.459V111.542H312.211V110.8ZM301.081 110.786V123.12H302.075V110.786H301.081ZM307.311 115.546C308.361 116.19 309.621 117.142 310.237 117.786L310.853 117.282C310.209 116.638 308.935 115.714 307.899 115.098L307.311 115.546ZM107.696 138.164H114.248V138.836H107.696V138.164ZM107.696 139.452H114.248V140.138H107.696V139.452ZM107.696 136.89H114.248V137.548H107.696V136.89ZM106.702 136.246V140.768H115.284V136.246H106.702ZM111.826 140.39V141.762C111.826 142.714 112.176 142.952 113.534 142.952C113.8 142.952 115.648 142.952 115.942 142.952C116.978 142.952 117.286 142.602 117.398 141.16C117.118 141.104 116.726 140.964 116.502 140.824C116.46 141.972 116.362 142.112 115.844 142.112C115.424 142.112 113.912 142.112 113.618 142.112C112.974 142.112 112.862 142.07 112.862 141.762V140.39H111.826ZM108.844 140.432C108.508 141.622 107.556 142.084 104.574 142.308C104.742 142.504 104.98 142.896 105.05 143.12C108.326 142.784 109.474 142.098 109.88 140.432H108.844ZM112.358 132.34V133.012H116.53V132.34H112.358ZM112.232 131.066V131.794H117.23V131.066H112.232ZM107.626 131.01V132.326H108.48V131.01H107.626ZM107.626 133.824V135.168H108.48V133.824H107.626ZM105.792 132.088V132.746H109.53V133.53H105.792V134.174H110.44V132.088H105.792ZM115.326 134.146H116.222V135.168H115.326V134.146ZM113.814 134.146H114.71V135.168H113.814V134.146ZM112.344 134.146H113.198V135.168H112.344V134.146ZM111.588 133.558V135.756H117.006V133.558H111.588ZM112.302 130.254C112.022 131.038 111.49 131.934 110.622 132.62C110.846 132.732 111.168 133.012 111.336 133.222C112.302 132.396 112.876 131.388 113.24 130.394L112.302 130.254ZM110.832 130.716H105.232V135.658H110.944V134.986H106.156V131.402H110.832V130.716ZM118.896 133.194V134.258H131.118V133.194H118.896ZM121.164 139.438V140.502H128.808V139.438H121.164ZM124.426 130.254V143.12H125.532V130.254H124.426ZM123.418 133.544C122.452 136.19 120.562 138.794 118.518 140.054C118.77 140.264 119.106 140.642 119.288 140.908C121.402 139.438 123.306 136.764 124.37 133.838L123.418 133.544ZM126.512 133.586L125.574 133.866C126.624 136.778 128.514 139.466 130.684 140.866C130.866 140.572 131.23 140.166 131.51 139.956C129.368 138.752 127.464 136.218 126.512 133.586ZM142.57 132.27C142.43 132.998 142.108 134.09 141.856 134.762L142.486 134.972C142.766 134.342 143.088 133.334 143.368 132.494L142.57 132.27ZM139.714 132.466C140.036 133.096 140.344 133.936 140.442 134.496L141.128 134.244C141.016 133.698 140.708 132.858 140.372 132.242L139.714 132.466ZM137.922 130.912V143.148H138.874V131.85H144.488V130.912H137.922ZM144.152 130.912V141.944C144.152 142.14 144.096 142.196 143.914 142.21C143.732 142.21 143.158 142.224 142.556 142.196C142.696 142.448 142.822 142.882 142.85 143.12C143.718 143.134 144.292 143.106 144.642 142.952C144.992 142.784 145.104 142.518 145.104 141.944V130.912H144.152ZM139.224 134.608V135.434H143.844V134.608H139.224ZM139.378 136.918V137.758H143.662V136.918H139.378ZM140.722 135.686C140.96 136.092 141.212 136.666 141.324 137.03L142.094 136.708C141.982 136.358 141.702 135.812 141.464 135.406L140.722 135.686ZM136.032 135.854C136.396 136.736 136.802 137.898 136.942 138.598L137.74 138.276C137.558 137.618 137.166 136.47 136.774 135.602L136.032 135.854ZM134.646 139.354C134.814 140.306 134.968 141.552 134.982 142.364L135.78 142.182C135.738 141.356 135.57 140.138 135.388 139.2L134.646 139.354ZM133.176 139.256C133.05 140.39 132.84 141.65 132.518 142.504C132.728 142.56 133.12 142.7 133.302 142.798C133.582 141.93 133.848 140.614 133.988 139.396L133.176 139.256ZM132.854 135.49C132.854 135.28 133.456 134.972 133.456 134.972V134.958C134.366 133.838 135.29 132.2 135.99 130.646L135.108 130.254C134.548 131.78 133.596 133.39 133.302 133.81C133.022 134.23 132.77 134.524 132.546 134.58C132.658 134.832 132.812 135.294 132.854 135.49ZM132.854 135.49C133.064 135.378 133.428 135.308 135.612 135.056C135.626 134.86 135.654 134.51 135.696 134.258L133.302 134.468L132.84 134.762L132.854 135.49ZM132.938 138.64C132.938 138.444 133.554 138.15 133.554 138.15V138.122C134.842 136.722 136.172 134.748 137.208 132.816L136.382 132.326C135.5 134.244 134.086 136.26 133.652 136.778C133.232 137.31 132.924 137.674 132.644 137.73C132.756 137.982 132.91 138.444 132.938 138.64ZM132.938 138.64C133.204 138.5 133.652 138.388 137.096 137.856C137.082 137.66 137.082 137.31 137.11 137.072L133.386 137.59L132.91 137.912L132.938 138.64ZM136.172 139.074C136.466 139.928 136.816 141.062 136.956 141.818L137.698 141.552C137.544 140.824 137.194 139.704 136.872 138.836L136.172 139.074ZM139.896 137.324V139.13C139.896 140.054 140.106 140.39 141.03 140.39C141.24 140.39 142.556 140.39 142.85 140.39C143.186 140.39 143.564 140.39 143.746 140.334C143.718 140.124 143.69 139.788 143.676 139.55C143.452 139.606 143.06 139.606 142.822 139.606C142.57 139.606 141.352 139.606 141.1 139.606C140.82 139.606 140.764 139.494 140.764 139.144V137.324H139.896ZM146.812 132.886V133.852H152.258V132.886H146.812ZM146.644 140.684L146.896 141.734C148.366 141.356 150.34 140.866 152.188 140.376L152.09 139.41C150.102 139.9 148.016 140.404 146.644 140.684ZM147.372 134.664C147.68 136.246 147.974 138.304 148.044 139.676L148.926 139.508C148.842 138.122 148.548 136.092 148.198 134.496L147.372 134.664ZM150.606 134.328C150.424 136.064 150.046 138.598 149.682 140.068L150.452 140.264C150.844 138.794 151.306 136.358 151.6 134.51L150.606 134.328ZM148.45 130.604C148.828 131.262 149.234 132.158 149.388 132.732L150.34 132.41C150.172 131.836 149.752 130.968 149.346 130.324L148.45 130.604ZM155.422 133.152V134.146H159.44V133.152H155.422ZM153.014 141.454V142.448H158.306V141.454H153.014ZM154.806 130.24V137.38H155.87V130.24H154.806ZM152.524 136.946V143.106H153.546V137.926H157.774V143.05H158.838V136.946H152.524ZM161.526 133.376V143.134H162.59V134.412H171.998V133.376H161.526ZM171.48 133.376V141.748C171.48 141.972 171.41 142.042 171.158 142.056C170.892 142.07 169.996 142.07 169.086 142.042C169.24 142.336 169.408 142.812 169.45 143.12C170.626 143.12 171.452 143.106 171.928 142.938C172.404 142.756 172.544 142.42 172.544 141.762V133.376H171.48ZM163.976 130.87V131.808H166.972V130.87H163.976ZM166.258 130.87V131.388H166.482C166.692 135.462 167.77 138.416 170.584 139.816C170.752 139.536 171.102 139.13 171.326 138.906C168.582 137.73 167.588 134.902 167.42 130.87H166.258ZM166.37 133.656C166.006 136.288 164.83 138.038 162.716 139.074C162.94 139.242 163.276 139.648 163.43 139.886C165.684 138.724 166.888 136.708 167.364 133.824L166.37 133.656ZM178.634 133.166C177.822 134.188 176.506 135.168 175.232 135.798C175.456 135.994 175.82 136.4 175.974 136.61C177.262 135.868 178.69 134.706 179.628 133.488L178.634 133.166ZM182.204 133.768C183.506 134.58 185.074 135.77 185.83 136.582L186.586 135.868C185.802 135.084 184.192 133.922 182.904 133.166L182.204 133.768ZM177.08 138.43V143.134H178.088V139.368H183.87V143.078H184.934V138.43H177.08ZM177.626 141.72V142.658H184.388V141.72H177.626ZM175.148 131.542V134.09H176.184V132.494H185.774V134.09H186.838V131.542H175.148ZM180.062 130.394C180.37 130.94 180.706 131.654 180.832 132.102L181.952 131.822C181.812 131.36 181.462 130.66 181.126 130.142L180.062 130.394ZM180.93 134.384C179.586 136.456 177.108 138.22 174.518 139.186C174.756 139.396 175.036 139.76 175.19 140.026C177.878 138.92 180.37 137.058 181.84 134.79L180.93 134.384ZM181.336 134.874L180.482 135.266C182.26 137.464 184.304 138.752 186.74 139.858C186.894 139.55 187.174 139.186 187.426 138.976C185.032 138.024 182.96 136.848 181.336 134.874ZM193.852 139.368C195.322 138.864 196.274 137.716 196.274 136.204C196.274 135.224 195.854 134.58 195.07 134.58C194.51 134.58 194.006 134.93 194.006 135.588C194.006 136.246 194.482 136.596 195.056 136.596C195.322 136.596 195.602 136.526 195.798 136.274L195.042 135.21L195.308 136.386C195.308 137.45 194.678 138.164 193.53 138.626L193.852 139.368ZM203.876 133.754V134.706H208.258V133.754H203.876ZM203.862 130.982V131.934H207.838V136.652H203.862V137.604H208.888V130.982H203.862ZM203.344 142.7C203.652 142.462 204.156 142.266 208.09 140.88C208.006 140.656 207.88 140.278 207.81 139.984L203.722 141.314L203.26 141.748L203.344 142.7ZM206.396 138.752C207.11 139.914 207.95 141.496 208.314 142.434L209.266 141.916C208.874 140.978 208.02 139.452 207.292 138.318L206.396 138.752ZM203.344 142.7C203.344 142.28 204.562 141.762 204.562 141.762V130.982H203.498V140.74C203.498 141.272 203.148 141.524 202.896 141.636C203.078 141.902 203.274 142.406 203.344 142.7ZM213.746 131.08V139.144C213.746 139.326 213.69 139.382 213.494 139.396C213.298 139.41 212.654 139.41 211.926 139.382C212.08 139.662 212.206 140.096 212.248 140.39C213.256 140.39 213.9 140.376 214.278 140.208C214.67 140.026 214.782 139.718 214.782 139.144V131.08H213.746ZM210.162 131.08V143.134H211.212V132.046H214.32V131.08H210.162ZM217.47 131.486V132.41H228.628V131.486H217.47ZM218.17 133.586V134.454H227.998V133.586H218.17ZM216.91 135.714V136.624H229.062V135.714H216.91ZM222.426 130.24V136.456H223.49V130.24H222.426ZM222.216 135.938C220.984 137.38 218.562 138.794 216.49 139.452C216.728 139.662 217.036 140.04 217.19 140.306C219.276 139.536 221.726 138.01 223.112 136.372L222.216 135.938ZM223.756 136.19L222.818 136.442C223.882 139.466 225.87 141.664 228.824 142.658C228.978 142.364 229.286 141.972 229.524 141.748C226.682 140.922 224.694 138.878 223.756 136.19ZM227.844 137.156C227.116 137.884 225.856 138.836 224.932 139.41L225.604 139.97C226.556 139.41 227.76 138.57 228.712 137.772L227.844 137.156ZM219.528 143.12C219.836 142.896 220.354 142.728 224.274 141.482C224.204 141.258 224.12 140.838 224.106 140.558L219.934 141.804L219.43 142.21L219.528 143.12ZM219.528 143.12C219.528 142.756 220.69 142.14 220.69 142.14V138.22H219.598V141.23C219.598 141.79 219.29 142.042 219.066 142.154C219.234 142.392 219.444 142.854 219.528 143.12ZM233.178 137.156C232.604 138.738 231.596 140.292 230.49 141.286C230.77 141.426 231.246 141.748 231.47 141.93C232.548 140.852 233.612 139.172 234.284 137.45L233.178 137.156ZM239.828 137.534C240.85 138.878 241.914 140.698 242.292 141.86L243.356 141.384C242.936 140.194 241.83 138.43 240.794 137.114L239.828 137.534ZM232.1 131.248V132.284H241.956V131.248H232.1ZM230.84 134.594V135.644H243.174V134.594H230.84ZM236.384 134.986V143.064H237.49V134.986H236.384ZM250.552 130.268C250.076 131.598 249.25 132.872 248.298 133.712C248.536 133.852 248.928 134.188 249.082 134.37C250.062 133.432 250.972 132.004 251.518 130.506L250.552 130.268ZM250.524 134.118C250.146 135.098 249.502 136.064 248.76 136.722C248.984 136.876 249.39 137.17 249.544 137.338C250.286 136.61 251.042 135.49 251.504 134.384L250.524 134.118ZM250.384 131.57L250.02 132.48H256.46V131.57H250.384ZM254.416 134.482C255.088 135.364 255.83 136.568 256.138 137.352L257.034 136.876C256.712 136.106 255.97 134.944 255.256 134.09L254.416 134.482ZM256.152 131.57V131.71C255.9 132.424 255.494 133.306 255.172 133.852L256.082 134.048C256.418 133.474 256.866 132.522 257.216 131.71L256.502 131.528L256.32 131.57H256.152ZM247.836 130.212C247.052 131.766 245.778 133.32 244.476 134.3C244.686 134.496 245.036 134.916 245.176 135.126C246.506 134.006 247.892 132.27 248.788 130.52L247.836 130.212ZM246.534 132.872V138.248H247.542V131.892L247.528 131.878L246.534 132.872ZM247.668 138.99V141.426C247.668 142.574 248.102 142.868 249.768 142.868C250.118 142.868 252.764 142.868 253.128 142.868C254.514 142.868 254.864 142.434 255.004 140.656C254.71 140.6 254.276 140.446 254.038 140.264C253.954 141.692 253.828 141.888 253.058 141.888C252.47 141.888 250.258 141.888 249.81 141.888C248.886 141.888 248.718 141.818 248.718 141.412V138.99H247.668ZM249.796 138.374C250.552 139.116 251.42 140.166 251.784 140.852L252.652 140.334C252.26 139.634 251.378 138.626 250.594 137.912L249.796 138.374ZM254.738 139.186C255.382 140.18 256.012 141.538 256.222 142.392L257.23 141.986C256.992 141.118 256.334 139.816 255.676 138.822L254.738 139.186ZM246.086 139.06C245.764 139.998 245.232 141.272 244.658 142.098L245.652 142.56C246.17 141.706 246.674 140.376 247.024 139.452L246.086 139.06ZM252.61 133.012V138.206H253.618V133.012H252.61ZM261.458 133.432V134.356H268.584V133.432H261.458ZM262.172 135.826V141.3H263.152V135.826H262.172ZM262.704 135.826V136.708H266.848V139.368H262.704V140.278H267.828V135.826H262.704ZM259.218 130.968V143.148H260.24V131.976H270.404V130.968H259.218ZM269.76 130.968V141.79C269.76 142.028 269.676 142.112 269.424 142.126C269.186 142.14 268.36 142.14 267.478 142.112C267.646 142.392 267.814 142.854 267.856 143.134C269.074 143.148 269.774 143.12 270.194 142.938C270.628 142.77 270.796 142.448 270.796 141.79V130.968H269.76ZM276.158 139.928V141.734C276.158 142.742 276.522 143.008 277.964 143.008C278.258 143.008 280.302 143.008 280.61 143.008C281.744 143.008 282.066 142.63 282.178 141.062C281.912 140.992 281.492 140.852 281.268 140.712C281.198 141.958 281.114 142.126 280.512 142.126C280.064 142.126 278.37 142.126 278.034 142.126C277.306 142.126 277.18 142.056 277.18 141.734V139.928H276.158ZM277.698 139.648C278.482 140.082 279.434 140.754 279.882 141.216L280.554 140.572C280.064 140.11 279.098 139.466 278.314 139.074L277.698 139.648ZM282.36 140.054C283.074 140.81 283.844 141.846 284.152 142.532L285.048 142.098C284.712 141.398 283.914 140.39 283.2 139.662L282.36 140.054ZM274.534 139.816C274.17 140.628 273.554 141.636 272.854 142.252L273.722 142.756C274.436 142.098 274.996 141.048 275.402 140.194L274.534 139.816ZM273.638 131.276V132.13H284.32V131.276H273.638ZM273.008 133.544V134.398H285.048V133.544H273.008ZM275.752 132.34C276.018 132.788 276.256 133.404 276.34 133.81L277.348 133.544C277.25 133.152 276.984 132.55 276.718 132.116L275.752 132.34ZM281.268 132.074C281.1 132.55 280.764 133.264 280.498 133.726L281.422 133.978C281.716 133.53 282.024 132.928 282.332 132.312L281.268 132.074ZM275.654 137.492H282.388V138.458H275.654V137.492ZM275.654 135.826H282.388V136.792H275.654V135.826ZM274.646 135.098V139.186H283.424V135.098H274.646ZM278.188 130.352C278.482 130.828 278.79 131.472 278.902 131.892L279.966 131.626C279.84 131.206 279.518 130.576 279.196 130.128L278.188 130.352ZM295.842 131.164C296.668 131.892 297.62 132.9 298.04 133.572L298.908 132.956C298.446 132.312 297.466 131.318 296.64 130.618L295.842 131.164ZM286.77 134.384V135.392H299.244V134.384H286.77ZM286.56 138.5L286.868 139.55C288.632 139.158 291.11 138.584 293.406 138.052L293.322 137.1C290.858 137.632 288.226 138.192 286.56 138.5ZM289.78 131.668V141.762C289.78 142.014 289.696 142.084 289.444 142.084C289.192 142.098 288.366 142.112 287.47 142.07C287.624 142.378 287.806 142.854 287.862 143.134C289.024 143.148 289.766 143.106 290.214 142.938C290.662 142.77 290.83 142.462 290.83 141.776V131.668H289.78ZM292.44 130.408C291.096 130.912 288.828 131.388 286.854 131.696C286.994 131.934 287.12 132.326 287.176 132.564C289.178 132.284 291.558 131.85 293.182 131.29L292.44 130.408ZM293.84 130.366C293.896 137.03 295.142 143.176 297.886 143.176C298.936 143.176 299.314 142.49 299.51 140.166C299.216 140.054 298.838 139.816 298.614 139.578C298.53 141.384 298.362 142.112 297.984 142.112C296.276 142.112 294.904 136.792 294.932 130.366H293.84ZM297.634 136.036C296.388 138.402 294.078 140.558 291.586 141.762C291.852 142 292.146 142.336 292.314 142.602C294.89 141.244 297.2 138.99 298.572 136.428L297.634 136.036ZM305.026 133.166V133.964H307.854V133.166H305.026ZM309.464 133.166V133.964H312.32V133.166H309.464ZM311.984 131.052V141.748C311.984 142.014 311.886 142.098 311.62 142.112C311.34 142.126 310.36 142.126 309.366 142.098C309.506 142.378 309.674 142.84 309.73 143.12C311.06 143.12 311.886 143.106 312.348 142.924C312.824 142.756 312.992 142.434 312.992 141.748V131.052H311.984ZM304.438 131.052V143.092H305.418V131.052H304.438ZM305.082 131.052V131.892H307.378V135.322H305.082V136.162H308.204V131.052H305.082ZM312.488 131.052H309.044V136.162H312.488V135.322H309.912V131.892H312.488V131.052ZM303.248 130.324C302.576 132.48 301.47 134.636 300.238 136.036C300.42 136.302 300.7 136.862 300.798 137.114C302.184 135.476 303.43 133.012 304.228 130.59L303.248 130.324ZM302.128 133.754V143.12H303.122V132.816L303.094 132.788L302.128 133.754ZM108.48 151.794V152.774H117.468V151.794H108.48ZM109.866 155.028H115.984V157.128H109.866V155.028ZM108.9 154.132V158.024H117.006V154.132H108.9ZM109.768 158.304L108.9 158.598C110.384 161.16 113.254 162.616 116.964 163.148C117.104 162.854 117.37 162.434 117.594 162.21C113.954 161.804 111.084 160.502 109.768 158.304ZM112.372 150.296V156.484C112.372 158.85 112.134 161.244 107.976 162.294C108.186 162.518 108.48 162.938 108.606 163.176C112.946 161.888 113.408 159.2 113.408 156.498V150.296H112.372ZM107.878 150.212C107.066 152.34 105.694 154.426 104.28 155.756C104.476 156.008 104.77 156.554 104.868 156.792C106.422 155.238 107.92 152.886 108.872 150.52L107.878 150.212ZM106.408 153.88V163.19H107.416V152.9L107.402 152.886L106.408 153.88ZM120.73 151.234V152.242H129.788V151.234H120.73ZM120.73 154.496V155.49H129.774V154.496H120.73ZM120.66 157.842V158.836H129.802V157.842H120.66ZM120.142 151.234V156.302C120.142 158.276 119.988 160.768 118.448 162.504C118.672 162.644 119.092 162.994 119.26 163.204C120.926 161.342 121.178 158.444 121.178 156.316V151.234H120.142ZM129.368 151.234V161.692C129.368 161.958 129.27 162.042 129.004 162.056C128.738 162.056 127.786 162.07 126.792 162.028C126.946 162.308 127.114 162.77 127.156 163.05C128.486 163.064 129.298 163.05 129.774 162.882C130.236 162.7 130.404 162.378 130.404 161.692V151.234H129.368ZM124.538 151.612V162.994H125.602V151.612H124.538ZM139.401 162.196C140.311 162.196 141.193 161.832 141.865 161.23L141.319 160.376C140.843 160.796 140.213 161.132 139.527 161.132C138.127 161.132 137.161 159.956 137.161 158.22C137.161 156.456 138.169 155.28 139.569 155.28C140.157 155.28 140.633 155.546 141.081 155.952L141.725 155.112C141.193 154.622 140.493 154.216 139.499 154.216C137.553 154.216 135.845 155.672 135.845 158.22C135.845 160.726 137.385 162.196 139.401 162.196ZM146.14 162.196C148.002 162.196 149.654 160.726 149.654 158.22C149.654 155.672 148.002 154.216 146.14 154.216C144.264 154.216 142.612 155.672 142.612 158.22C142.612 160.726 144.264 162.196 146.14 162.196ZM146.14 161.132C144.81 161.132 143.928 159.956 143.928 158.22C143.928 156.456 144.81 155.28 146.14 155.28C147.456 155.28 148.338 156.456 148.338 158.22C148.338 159.956 147.456 161.132 146.14 161.132ZM154.631 162.196C156.493 162.196 158.145 160.726 158.145 158.22C158.145 155.672 156.493 154.216 154.631 154.216C152.755 154.216 151.103 155.672 151.103 158.22C151.103 160.726 152.755 162.196 154.631 162.196ZM154.631 161.132C153.301 161.132 152.419 159.956 152.419 158.22C152.419 156.456 153.301 155.28 154.631 155.28C155.947 155.28 156.829 156.456 156.829 158.22C156.829 159.956 155.947 161.132 154.631 161.132ZM160.167 162H161.427V159.998L162.841 158.332L165.067 162H166.453L163.597 157.464L166.131 154.398H164.703L161.469 158.416H161.427V150.87H160.167V162ZM167.892 162H169.166V154.398H167.892V162ZM168.536 152.83C169.026 152.83 169.39 152.508 169.39 151.976C169.39 151.486 169.026 151.164 168.536 151.164C168.032 151.164 167.682 151.486 167.682 151.976C167.682 152.508 168.032 152.83 168.536 152.83ZM174.813 162.196C175.849 162.196 176.647 161.846 177.319 161.412L176.857 160.558C176.297 160.936 175.695 161.174 174.967 161.174C173.511 161.174 172.531 160.124 172.433 158.514H177.557C177.599 158.318 177.613 158.052 177.613 157.786C177.613 155.602 176.521 154.216 174.589 154.216C172.839 154.216 171.173 155.742 171.173 158.22C171.173 160.712 172.783 162.196 174.813 162.196ZM172.419 157.59C172.587 156.092 173.539 155.238 174.603 155.238C175.807 155.238 176.493 156.064 176.493 157.59H172.419ZM181.487 162.196C183.279 162.196 184.245 161.174 184.245 159.928C184.245 158.486 183.041 158.038 181.935 157.618C181.067 157.31 180.297 157.03 180.297 156.302C180.297 155.714 180.731 155.21 181.697 155.21C182.369 155.21 182.915 155.504 183.433 155.882L184.049 155.07C183.461 154.594 182.621 154.216 181.683 154.216C180.031 154.216 179.065 155.154 179.065 156.358C179.065 157.66 180.227 158.164 181.277 158.57C182.117 158.878 183.027 159.228 183.027 159.998C183.027 160.67 182.523 161.202 181.515 161.202C180.605 161.202 179.933 160.824 179.275 160.292L178.645 161.146C179.359 161.734 180.409 162.196 181.487 162.196ZM190.612 159.368C192.082 158.864 193.034 157.716 193.034 156.204C193.034 155.224 192.614 154.58 191.83 154.58C191.27 154.58 190.766 154.93 190.766 155.588C190.766 156.246 191.242 156.596 191.816 156.596C192.082 156.596 192.362 156.526 192.558 156.274L191.802 155.21L192.068 156.386C192.068 157.45 191.438 158.164 190.29 158.626L190.612 159.368ZM204.29 157.576C204.57 158.08 204.892 158.766 205.046 159.172L205.634 158.934C205.48 158.556 205.144 157.898 204.864 157.408L204.29 157.576ZM206.166 159.144V162.924H206.964V159.144H206.166ZM202.442 159.354V161.328H204.864V160.67H203.156V159.354H202.442ZM204.486 159.144V160.39C204.486 161.16 204.29 161.944 202.736 162.42C202.918 162.56 203.156 162.854 203.254 163.036C205.004 162.42 205.256 161.454 205.256 160.404V159.144H204.486ZM200.524 152.662V153.376H204.458V152.662H200.524ZM206.964 152.662V153.376H210.996V152.662H206.964ZM210.604 150.842V161.804C210.604 161.986 210.548 162.056 210.366 162.056C210.17 162.07 209.582 162.07 208.966 162.042C209.106 162.322 209.246 162.812 209.288 163.092C210.156 163.092 210.758 163.078 211.136 162.896C211.514 162.714 211.626 162.392 211.626 161.804V150.842H210.604ZM200.608 150.842V151.612H204.122V154.384H200.608V155.154H205.116V150.842H200.608ZM211.108 150.842H206.362V155.154H211.108V154.384H207.356V151.612H211.108V150.842ZM199.978 150.842V163.134H200.986V150.842H199.978ZM202.176 157.408C202.176 157.226 202.68 156.988 202.68 156.988V156.974C203.142 156.61 203.674 156.036 204.122 155.406L203.436 155.056C203.114 155.672 202.54 156.288 202.386 156.442C202.232 156.582 202.078 156.652 201.924 156.68C202.022 156.876 202.134 157.24 202.176 157.408ZM202.176 157.408C202.33 157.338 202.638 157.282 204.248 157.184C204.276 157.044 204.36 156.792 204.43 156.624L202.554 156.694L202.162 156.904L202.176 157.408ZM202.092 159.06C202.092 158.878 202.596 158.682 202.596 158.682V158.668C203.506 158.094 204.444 157.24 205.298 156.33L204.696 155.924C203.982 156.834 202.932 157.744 202.624 157.968C202.33 158.192 202.092 158.346 201.868 158.36C201.952 158.556 202.064 158.906 202.092 159.06ZM202.092 159.06C202.288 158.976 202.652 158.906 205.088 158.668C205.046 158.528 205.004 158.29 204.99 158.108L202.456 158.318L202.092 158.542V159.06ZM208.112 157.59C208.392 158.094 208.728 158.78 208.896 159.186L209.484 158.92C209.316 158.542 208.966 157.898 208.658 157.394L208.112 157.59ZM206.012 157.408C206.012 157.24 206.502 157.002 206.502 157.002V156.988C206.992 156.624 207.524 156.05 207.958 155.406L207.272 155.056C206.95 155.686 206.376 156.302 206.222 156.442C206.068 156.582 205.928 156.666 205.76 156.694C205.858 156.89 205.956 157.254 206.012 157.408ZM206.012 157.408C206.166 157.338 206.474 157.282 208.084 157.184C208.112 157.044 208.196 156.792 208.266 156.624L206.376 156.708L205.998 156.904L206.012 157.408ZM205.942 159.074C205.942 158.892 206.432 158.696 206.432 158.696V158.668C207.356 158.094 208.294 157.24 209.148 156.316L208.532 155.91C207.832 156.834 206.782 157.758 206.474 157.968C206.18 158.206 205.928 158.346 205.718 158.374C205.802 158.556 205.914 158.906 205.942 159.074ZM205.942 159.074C206.152 158.976 206.502 158.92 208.924 158.682C208.896 158.542 208.854 158.29 208.84 158.122L206.306 158.318L205.928 158.542L205.942 159.074ZM206.726 160.67V161.328H208.714V160.67H206.726ZM208.308 159.368V161.762H209.05V159.368H208.308ZM213.46 152.55V153.53H219.144V152.55H213.46ZM215.56 155.476V156.442H218.024V155.476H215.56ZM214.86 153.068C214.818 157.1 214.748 160.432 213.18 162.308C213.446 162.476 213.81 162.826 213.978 163.078C215.7 160.964 215.84 157.394 215.896 153.068H214.86ZM217.646 155.476V155.686C217.478 159.914 217.31 161.398 217.044 161.762C216.932 161.902 216.82 161.944 216.638 161.93C216.442 161.93 216.022 161.93 215.56 161.888C215.7 162.154 215.798 162.574 215.812 162.854C216.316 162.882 216.806 162.882 217.1 162.84C217.464 162.812 217.688 162.714 217.912 162.392C218.304 161.902 218.458 160.376 218.626 155.952C218.64 155.812 218.64 155.476 218.64 155.476H217.646ZM220.964 156.344C221.818 156.918 222.882 157.758 223.4 158.29L224.114 157.506C223.582 156.974 222.504 156.19 221.65 155.658L220.964 156.344ZM220.11 160.32C221.44 161.006 223.12 162.07 223.932 162.812L224.646 161.902C223.806 161.188 222.084 160.166 220.782 159.536L220.11 160.32ZM215.126 150.548C215.602 151.178 216.106 152.004 216.288 152.55L217.268 152.144C217.058 151.612 216.54 150.786 216.05 150.198L215.126 150.548ZM222.826 151.052L222.014 151.346C222.784 153.124 224.184 155.014 225.584 155.924C225.766 155.644 226.116 155.266 226.368 155.07C224.996 154.314 223.54 152.606 222.826 151.052ZM222.196 150.17C221.58 152.326 220.32 154.174 218.682 155.196C218.948 155.406 219.256 155.756 219.41 156.022C221.188 154.79 222.462 152.816 223.176 150.464L222.196 150.17ZM227.656 150.996V151.948H239.85V150.996H227.656ZM233.298 151.402V156.82C233.298 159.144 232.864 161.202 227.404 162.21C227.628 162.462 227.922 162.91 228.034 163.134C233.648 161.944 234.39 159.536 234.39 156.834V151.402H233.298ZM229.938 156.246H237.918V157.674H229.938V156.246ZM229.938 154.006H237.918V155.406H229.938V154.006ZM228.944 153.124V158.556H238.982V153.124H228.944ZM230.288 158.668L229.392 159.032C231.268 162.21 234.712 162.868 239.864 163.078C239.92 162.742 240.13 162.294 240.312 162.042C235.258 161.916 232.066 161.44 230.288 158.668ZM244.274 153.334C245.324 153.852 246.598 154.678 247.2 155.266L247.942 154.58C247.312 153.992 246.024 153.208 244.974 152.718L244.274 153.334ZM250.742 151.43V151.598C249.216 154.356 245.184 156.246 241.656 156.904C241.852 157.128 242.062 157.562 242.16 157.828C245.856 157.016 250 155.056 251.82 151.794L251.134 151.374L250.952 151.43H250.742ZM246.066 151.43V152.312H251.008V151.43H246.066ZM247.102 150.226C246.136 151.402 244.288 152.718 241.768 153.6C242.006 153.782 242.328 154.132 242.482 154.384C245.086 153.348 246.99 151.962 248.278 150.478L247.102 150.226ZM246.066 158.472C247.172 159.074 248.502 160.012 249.132 160.67L249.958 159.998C249.286 159.326 247.942 158.444 246.836 157.87L246.066 158.472ZM252.786 156.33V156.484C251.274 160.012 247.046 161.678 242.72 162.196C242.888 162.434 243.098 162.868 243.168 163.162C247.746 162.49 252.114 160.74 253.878 156.652L253.192 156.274L252.996 156.33H252.786ZM248.236 156.33V157.226H253.066V156.33H248.236ZM249.37 155.014C248.278 156.344 246.15 157.8 243.182 158.724C243.406 158.92 243.714 159.298 243.84 159.536C246.906 158.458 249.118 156.932 250.532 155.28L249.37 155.014ZM262.161 162.196C263.071 162.196 263.953 161.832 264.625 161.23L264.079 160.376C263.603 160.796 262.973 161.132 262.287 161.132C260.887 161.132 259.921 159.956 259.921 158.22C259.921 156.456 260.929 155.28 262.329 155.28C262.917 155.28 263.393 155.546 263.841 155.952L264.485 155.112C263.953 154.622 263.253 154.216 262.259 154.216C260.313 154.216 258.605 155.672 258.605 158.22C258.605 160.726 260.145 162.196 262.161 162.196ZM268.9 162.196C270.762 162.196 272.414 160.726 272.414 158.22C272.414 155.672 270.762 154.216 268.9 154.216C267.024 154.216 265.372 155.672 265.372 158.22C265.372 160.726 267.024 162.196 268.9 162.196ZM268.9 161.132C267.57 161.132 266.688 159.956 266.688 158.22C266.688 156.456 267.57 155.28 268.9 155.28C270.216 155.28 271.098 156.456 271.098 158.22C271.098 159.956 270.216 161.132 268.9 161.132ZM277.39 162.196C279.252 162.196 280.904 160.726 280.904 158.22C280.904 155.672 279.252 154.216 277.39 154.216C275.514 154.216 273.862 155.672 273.862 158.22C273.862 160.726 275.514 162.196 277.39 162.196ZM277.39 161.132C276.06 161.132 275.178 159.956 275.178 158.22C275.178 156.456 276.06 155.28 277.39 155.28C278.706 155.28 279.588 156.456 279.588 158.22C279.588 159.956 278.706 161.132 277.39 161.132ZM282.927 162H284.187V159.998L285.601 158.332L287.827 162H289.213L286.357 157.464L288.891 154.398H287.463L284.229 158.416H284.187V150.87H282.927V162ZM290.651 162H291.925V154.398H290.651V162ZM291.295 152.83C291.785 152.83 292.149 152.508 292.149 151.976C292.149 151.486 291.785 151.164 291.295 151.164C290.791 151.164 290.441 151.486 290.441 151.976C290.441 152.508 290.791 152.83 291.295 152.83ZM297.573 162.196C298.609 162.196 299.407 161.846 300.079 161.412L299.617 160.558C299.057 160.936 298.455 161.174 297.727 161.174C296.271 161.174 295.291 160.124 295.193 158.514H300.317C300.359 158.318 300.373 158.052 300.373 157.786C300.373 155.602 299.281 154.216 297.349 154.216C295.599 154.216 293.933 155.742 293.933 158.22C293.933 160.712 295.543 162.196 297.573 162.196ZM295.179 157.59C295.347 156.092 296.299 155.238 297.363 155.238C298.567 155.238 299.253 156.064 299.253 157.59H295.179ZM304.247 162.196C306.039 162.196 307.005 161.174 307.005 159.928C307.005 158.486 305.801 158.038 304.695 157.618C303.827 157.31 303.057 157.03 303.057 156.302C303.057 155.714 303.491 155.21 304.457 155.21C305.129 155.21 305.675 155.504 306.193 155.882L306.809 155.07C306.221 154.594 305.381 154.216 304.443 154.216C302.791 154.216 301.825 155.154 301.825 156.358C301.825 157.66 302.987 158.164 304.037 158.57C304.877 158.878 305.787 159.228 305.787 159.998C305.787 160.67 305.283 161.202 304.275 161.202C303.365 161.202 302.693 160.824 302.035 160.292L301.405 161.146C302.119 161.734 303.169 162.196 304.247 162.196ZM109.096 172.452C109.992 173.488 110.902 174.93 111.266 175.896L112.274 175.35C111.868 174.398 110.972 173.012 110.034 171.99L109.096 172.452ZM104.49 180.516L104.868 181.608C106.422 180.936 108.55 179.998 110.496 179.102L110.258 178.08C108.158 179.004 105.918 179.956 104.49 180.516ZM112.89 178.668C114.234 180.04 115.914 181.93 116.698 183.092L117.594 182.266C116.768 181.118 115.032 179.298 113.702 177.982L112.89 178.668ZM114.836 170.968C114.206 177.058 112.722 180.488 107.878 182.252C108.144 182.476 108.564 182.938 108.718 183.162C113.618 181.118 115.256 177.548 115.97 171.08L114.836 170.968ZM106.198 171.01L106.436 180.264L107.514 180.222L107.276 170.968L106.198 171.01ZM119.246 170.898V171.92H127.086V170.898H119.246ZM129.634 174.916V175.126C128.584 179.2 125.378 181.44 121.724 182.266C121.948 182.49 122.2 182.938 122.326 183.232C126.246 182.182 129.564 179.872 130.782 175.196L130.054 174.874L129.844 174.916H129.634ZM121.724 171.318V173.208C121.724 175.7 121.5 179.214 118.49 181.986C118.728 182.182 119.106 182.602 119.26 182.882C122.522 179.83 122.802 176.008 122.802 173.208V171.318H121.724ZM126.806 170.898C126.512 172.326 126.05 174.216 125.672 175.392H126.82C127.156 174.258 127.59 172.382 127.912 170.898H126.806ZM122.34 174.916L122.144 175.924H129.9V174.916H122.34ZM124.034 175.518L123.124 175.77C124.426 179.508 126.876 182.084 130.768 183.12C130.922 182.826 131.244 182.378 131.496 182.14C127.702 181.258 125.21 178.836 124.034 175.518ZM139.14 174.412V175.378H144.432V174.412H139.14ZM139.154 177.8V178.766H144.446V177.8H139.154ZM139.14 181.202V182.168H144.446V181.202H139.14ZM138.622 171.066V183.036H139.63V172.074H143.9V182.994H144.95V171.066H138.622ZM132.714 173.25V174.258H138.006V173.25H132.714ZM134.996 170.24V183.106H136.004V170.24H134.996ZM134.94 173.866C134.506 175.896 133.442 178.304 132.392 179.564C132.574 179.802 132.84 180.222 132.952 180.516C134.058 179.102 135.136 176.372 135.64 174.104L134.94 173.866ZM135.906 175.406L135.374 175.91C135.864 176.484 137.04 178.052 137.432 178.738L138.09 177.87C137.754 177.478 136.312 175.798 135.906 175.406ZM151.53 177.576C151.81 178.08 152.132 178.766 152.286 179.172L152.874 178.934C152.72 178.556 152.384 177.898 152.104 177.408L151.53 177.576ZM153.406 179.144V182.924H154.204V179.144H153.406ZM149.682 179.354V181.328H152.104V180.67H150.396V179.354H149.682ZM151.726 179.144V180.39C151.726 181.16 151.53 181.944 149.976 182.42C150.158 182.56 150.396 182.854 150.494 183.036C152.244 182.42 152.496 181.454 152.496 180.404V179.144H151.726ZM147.764 172.662V173.376H151.698V172.662H147.764ZM154.204 172.662V173.376H158.236V172.662H154.204ZM157.844 170.842V181.804C157.844 181.986 157.788 182.056 157.606 182.056C157.41 182.07 156.822 182.07 156.206 182.042C156.346 182.322 156.486 182.812 156.528 183.092C157.396 183.092 157.998 183.078 158.376 182.896C158.754 182.714 158.866 182.392 158.866 181.804V170.842H157.844ZM147.848 170.842V171.612H151.362V174.384H147.848V175.154H152.356V170.842H147.848ZM158.348 170.842H153.602V175.154H158.348V174.384H154.596V171.612H158.348V170.842ZM147.218 170.842V183.134H148.226V170.842H147.218ZM149.416 177.408C149.416 177.226 149.92 176.988 149.92 176.988V176.974C150.382 176.61 150.914 176.036 151.362 175.406L150.676 175.056C150.354 175.672 149.78 176.288 149.626 176.442C149.472 176.582 149.318 176.652 149.164 176.68C149.262 176.876 149.374 177.24 149.416 177.408ZM149.416 177.408C149.57 177.338 149.878 177.282 151.488 177.184C151.516 177.044 151.6 176.792 151.67 176.624L149.794 176.694L149.402 176.904L149.416 177.408ZM149.332 179.06C149.332 178.878 149.836 178.682 149.836 178.682V178.668C150.746 178.094 151.684 177.24 152.538 176.33L151.936 175.924C151.222 176.834 150.172 177.744 149.864 177.968C149.57 178.192 149.332 178.346 149.108 178.36C149.192 178.556 149.304 178.906 149.332 179.06ZM149.332 179.06C149.528 178.976 149.892 178.906 152.328 178.668C152.286 178.528 152.244 178.29 152.23 178.108L149.696 178.318L149.332 178.542V179.06ZM155.352 177.59C155.632 178.094 155.968 178.78 156.136 179.186L156.724 178.92C156.556 178.542 156.206 177.898 155.898 177.394L155.352 177.59ZM153.252 177.408C153.252 177.24 153.742 177.002 153.742 177.002V176.988C154.232 176.624 154.764 176.05 155.198 175.406L154.512 175.056C154.19 175.686 153.616 176.302 153.462 176.442C153.308 176.582 153.168 176.666 153 176.694C153.098 176.89 153.196 177.254 153.252 177.408ZM153.252 177.408C153.406 177.338 153.714 177.282 155.324 177.184C155.352 177.044 155.436 176.792 155.506 176.624L153.616 176.708L153.238 176.904L153.252 177.408ZM153.182 179.074C153.182 178.892 153.672 178.696 153.672 178.696V178.668C154.596 178.094 155.534 177.24 156.388 176.316L155.772 175.91C155.072 176.834 154.022 177.758 153.714 177.968C153.42 178.206 153.168 178.346 152.958 178.374C153.042 178.556 153.154 178.906 153.182 179.074ZM153.182 179.074C153.392 178.976 153.742 178.92 156.164 178.682C156.136 178.542 156.094 178.29 156.08 178.122L153.546 178.318L153.168 178.542L153.182 179.074ZM153.966 180.67V181.328H155.954V180.67H153.966ZM155.548 179.368V181.762H156.29V179.368H155.548ZM160.7 171.234V172.242H167.14V171.234H160.7ZM164.158 175.322V176.33H166.622V175.322H164.158ZM163.682 171.78V180.628H164.704V171.78H163.682ZM161.302 174.37V181.02H162.254V174.37H161.302ZM160.462 180.782L160.658 181.832C162.408 181.44 164.886 180.866 167.224 180.306L167.126 179.34C164.69 179.886 162.1 180.474 160.462 180.782ZM168.092 172.858V173.838H173.426V172.858H168.092ZM168.568 170.24C168.134 172.634 167.364 174.944 166.202 176.4C166.454 176.554 166.874 176.904 167.056 177.1C168.232 175.49 169.1 173.04 169.618 170.422L168.568 170.24ZM171.48 173.362C170.878 177.8 169.506 180.642 166.202 182.238C166.398 182.462 166.72 182.91 166.818 183.162C170.318 181.314 171.816 178.304 172.53 173.474L171.48 173.362ZM168.54 173.754L167.616 173.922C168.386 178.206 169.856 181.566 172.824 183.134C172.992 182.854 173.314 182.448 173.552 182.238C170.71 180.908 169.226 177.66 168.54 173.754ZM174.938 174.314V175.238H186.992V174.314H174.938ZM180.51 173.432V183.12H181.616V173.432H180.51ZM175.946 176.33V179.956H177.052V177.24H185.648V176.33H175.946ZM185.13 176.33V178.948C185.13 179.074 185.088 179.13 184.92 179.13C184.766 179.144 184.234 179.144 183.66 179.116C183.772 179.354 183.94 179.676 184.01 179.956C184.808 179.956 185.368 179.956 185.732 179.802C186.11 179.662 186.208 179.424 186.208 178.948V176.33H185.13ZM180.608 178.318C179.404 179.914 176.982 181.244 174.588 181.79C174.826 182.014 175.12 182.406 175.26 182.672C177.668 181.986 180.09 180.516 181.42 178.654L180.608 178.318ZM181.364 178.276L180.804 178.878C181.868 180.236 184.122 181.888 186.866 182.616C187.02 182.336 187.328 181.93 187.538 181.692C184.766 181.09 182.386 179.606 181.364 178.276ZM176.422 171.234V172.088H180.902V171.234H176.422ZM182.246 171.248V172.088H187.37V171.248H182.246ZM176.744 170.142C176.282 171.304 175.484 172.452 174.63 173.222C174.854 173.39 175.218 173.74 175.372 173.922C176.24 173.054 177.136 171.738 177.682 170.408L176.744 170.142ZM182.512 170.142C182.148 171.15 181.504 172.116 180.734 172.76C180.972 172.9 181.364 173.222 181.546 173.39C182.316 172.676 183.058 171.542 183.478 170.38L182.512 170.142ZM177.472 172.494C177.948 172.942 178.536 173.544 178.83 173.95L179.516 173.348C179.222 172.97 178.606 172.382 178.13 171.976L177.472 172.494ZM183.576 172.578C184.08 172.998 184.71 173.572 185.018 173.964L185.732 173.348C185.41 172.97 184.766 172.424 184.262 172.018L183.576 172.578ZM188.896 170.996V171.948H201.09V170.996H188.896ZM194.538 171.402V176.82C194.538 179.144 194.104 181.202 188.644 182.21C188.868 182.462 189.162 182.91 189.274 183.134C194.888 181.944 195.63 179.536 195.63 176.834V171.402H194.538ZM191.178 176.246H199.158V177.674H191.178V176.246ZM191.178 174.006H199.158V175.406H191.178V174.006ZM190.184 173.124V178.556H200.222V173.124H190.184ZM191.528 178.668L190.632 179.032C192.508 182.21 195.952 182.868 201.104 183.078C201.16 182.742 201.37 182.294 201.552 182.042C196.498 181.916 193.306 181.44 191.528 178.668ZM210.358 174.972V175.952H215.412V174.972H210.358ZM202.854 171.71V172.606H209.028V171.71H202.854ZM202.7 177.268V178.178H209.098V177.268H202.7ZM202.63 174.916V175.812H209.252V174.916H202.63ZM212.85 175.392V183.064H213.872V175.392H212.85ZM203.764 172.886C204.016 173.502 204.226 174.328 204.296 174.86L205.192 174.608C205.122 174.09 204.884 173.292 204.618 172.69L203.764 172.886ZM207.278 172.676C207.082 173.376 206.732 174.426 206.438 175.07L207.306 175.28C207.6 174.664 207.95 173.712 208.244 172.886L207.278 172.676ZM214.32 170.492C213.312 170.926 211.52 171.332 209.938 171.598C210.064 171.822 210.218 172.172 210.274 172.396C211.926 172.158 213.844 171.766 215.174 171.276L214.32 170.492ZM204.996 170.436C205.318 171.024 205.668 171.808 205.822 172.298L206.9 171.976C206.746 171.5 206.368 170.73 206.032 170.17L204.996 170.436ZM209.938 171.598V176.442C209.938 178.318 209.84 180.726 208.65 182.42C208.874 182.546 209.28 182.868 209.448 183.064C210.736 181.23 210.918 178.458 210.918 176.442V171.598H209.938ZM207.18 179.214C207.6 179.914 208.104 180.88 208.328 181.482L209.07 181.048C208.86 180.446 208.356 179.536 207.894 178.836L207.18 179.214ZM203.946 178.92C203.638 179.844 203.162 180.81 202.616 181.468C202.826 181.58 203.19 181.846 203.344 181.986C203.89 181.272 204.464 180.166 204.8 179.158L203.946 178.92ZM205.514 175.378V183.064H206.536V175.378H205.514ZM219.542 177.562H226.598V178.514H219.542V177.562ZM219.542 179.2H226.598V180.18H219.542V179.2ZM219.542 175.924H226.598V176.876H219.542V175.924ZM218.52 175.224V180.88H227.648V175.224H218.52ZM224.33 181.538C225.842 182.028 227.354 182.63 228.25 183.078L229.188 182.476C228.194 182.028 226.556 181.412 225.03 180.95L224.33 181.538ZM220.872 180.964C219.864 181.524 218.184 182.014 216.742 182.322C216.98 182.504 217.344 182.91 217.512 183.106C218.912 182.728 220.69 182.084 221.824 181.412L220.872 180.964ZM222.482 171.192V172.018H228.25V171.192H222.482ZM222.706 170.212C222.384 171.22 221.796 172.214 221.068 172.886C221.306 173.012 221.698 173.264 221.866 173.418C222.594 172.704 223.266 171.57 223.644 170.422L222.706 170.212ZM224.372 171.71V172.158C224.372 172.872 224.022 173.838 220.382 174.314C220.564 174.51 220.844 174.874 220.942 175.126C224.89 174.51 225.338 173.25 225.338 172.186V171.71H224.372ZM225.198 172.536L224.456 172.718C225.226 173.964 226.836 174.762 228.852 175.056C228.978 174.79 229.244 174.412 229.454 174.202C227.508 174.034 225.912 173.446 225.198 172.536ZM216.98 171.08V171.906H220.354V171.08H216.98ZM216.672 173.264V174.118H220.704V173.264H216.672ZM227.9 171.192V171.346C227.648 171.948 227.256 172.662 226.934 173.124L227.76 173.418C228.152 172.914 228.6 172.102 228.95 171.388L228.236 171.15L228.082 171.192H227.9ZM231.218 174.482V175.322H235.194V174.482H231.218ZM231.218 176.316V177.156H235.208V176.316H231.218ZM230.658 172.62V173.502H235.726V172.62H230.658ZM231.638 178.192V179.074H234.34V181.398H231.638V182.28H235.194V178.192H231.638ZM231.218 178.192V182.938H232.058V178.192H231.218ZM232.142 170.604C232.506 171.178 232.94 171.976 233.122 172.494L233.934 171.99C233.71 171.5 233.29 170.758 232.898 170.184L232.142 170.604ZM235.712 176.204V177.198H240.458V176.204H235.712ZM240.948 171.038C240.948 177.296 240.808 182.406 242.264 182.868C242.922 183.134 243.384 182.686 243.538 180.712C243.384 180.558 243.09 180.194 242.922 179.942C242.866 180.95 242.768 181.846 242.684 181.818C241.886 181.622 241.928 176.736 241.998 171.038H240.948ZM237.616 171.682V183.12H238.596V171.682H237.616ZM235.866 171.038V172.046H241.424V171.038H235.866ZM249.768 171.388V172.186H257.3V171.388H249.768ZM250.118 173.054V173.824H257.034V173.054H250.118ZM249.614 174.776V175.588H257.44V174.776H249.614ZM252.946 170.24V175.21H253.968V170.24H252.946ZM255.634 176.428V182.028C255.634 182.182 255.592 182.238 255.41 182.238C255.228 182.252 254.654 182.252 254.024 182.224C254.15 182.476 254.29 182.84 254.332 183.092C255.2 183.106 255.788 183.092 256.152 182.952C256.516 182.798 256.628 182.532 256.628 182.028V176.428H255.634ZM250.958 178.276V179.046H256.138V178.276H250.958ZM250.958 180.082V180.838H256.138V180.082H250.958ZM250.44 176.428V179.004C250.44 180.124 250.342 181.538 249.516 182.602C249.712 182.728 250.104 183.092 250.244 183.288C251.224 182.098 251.406 180.334 251.406 179.018V176.428H250.44ZM251 176.428V177.254H255.984V176.428H251ZM244.952 174.384V175.224H249.04V174.384H244.952ZM245.526 178.22V179.088H248.088V181.426H245.526V182.308H249.012V178.22H245.526ZM245.022 178.22V182.952H245.932V178.22H245.022ZM244.966 176.288V177.142H249.054V176.288H244.966ZM244.616 172.592V173.474H249.46V172.592H244.616ZM246.282 170.548C246.548 171.15 246.856 171.948 246.982 172.452L247.906 172.116C247.766 171.626 247.458 170.856 247.164 170.268L246.282 170.548ZM263.152 177.716H266.61V179.032H263.152V177.716ZM262.298 177.03V179.718H267.506V177.03H262.298ZM265.322 179.382V181.328C265.322 182.182 265.546 182.42 266.442 182.42C266.624 182.42 267.478 182.42 267.66 182.42C268.332 182.42 268.584 182.126 268.668 180.936C268.416 180.88 268.052 180.754 267.884 180.614C267.856 181.524 267.786 181.636 267.534 181.636C267.366 181.636 266.694 181.636 266.554 181.636C266.26 181.636 266.232 181.594 266.232 181.328V179.382H265.322ZM263.306 179.578C263.138 180.782 262.592 181.496 260.898 181.902C261.08 182.056 261.332 182.406 261.43 182.63C263.334 182.07 263.978 181.132 264.188 179.578H263.306ZM263.474 175.084C262.942 175.854 261.78 176.68 260.73 177.17C260.912 177.31 261.206 177.562 261.36 177.73C262.452 177.184 263.642 176.274 264.342 175.364L263.474 175.084ZM259.736 172.41V173.096H263.67V172.41H259.736ZM266.148 172.438V173.124H270.18V172.438H266.148ZM269.83 170.8V181.776C269.83 181.958 269.774 182.014 269.592 182.028C269.424 182.028 268.85 182.028 268.262 182.014C268.402 182.28 268.528 182.714 268.57 182.98C269.41 182.98 270.012 182.952 270.362 182.798C270.726 182.616 270.838 182.336 270.838 181.776V170.8H269.83ZM259.82 170.786V171.528H263.334V174.02H259.82V174.762H264.328V170.786H259.82ZM270.32 170.8H265.574V174.762H270.32V174.02H266.568V171.542H270.32V170.8ZM259.19 170.786V183.12H260.184V170.786H259.19ZM265.42 175.546C266.47 176.19 267.73 177.142 268.346 177.786L268.962 177.282C268.318 176.638 267.044 175.714 266.008 175.098L265.42 175.546ZM277.474 171.024V171.752H285.216V171.024H277.474ZM277.964 172.424V173.124H284.824V172.424H277.964ZM280.736 170.254V172.802H281.758V170.254H280.736ZM278.44 174.3H284.222V175.868H278.44V174.3ZM277.572 173.684V176.47H285.118V173.684H277.572ZM278.944 178.738H283.76V179.34H278.944V178.738ZM278.944 179.844H283.76V180.488H278.944V179.844ZM278.944 177.632H283.76V178.22H278.944V177.632ZM277.992 176.988V181.118H284.74V176.988H277.992ZM282.01 181.72C283.06 182.196 284.208 182.77 284.908 183.162L285.51 182.476C284.768 182.084 283.578 181.524 282.5 181.09L282.01 181.72ZM279.742 181.104C279.126 181.608 277.852 182.168 276.76 182.476C276.984 182.644 277.278 182.952 277.446 183.134C278.496 182.812 279.798 182.21 280.61 181.622L279.742 181.104ZM273.106 174.482V175.322H276.704V174.482H273.106ZM272.994 176.358V177.198H276.774V176.358H272.994ZM272.532 172.578V173.446H277.054V172.578H272.532ZM273.596 178.248V179.116H275.808V181.454H273.596V182.322H276.69V178.248H273.596ZM273.078 178.248V182.98H273.946V178.248H273.078ZM273.708 170.688C274.184 171.248 274.702 172.032 274.926 172.536L275.85 172.116C275.612 171.626 275.08 170.884 274.59 170.338L273.708 170.688ZM279.798 173.782V176.33H280.512V173.782H279.798ZM282.08 173.782V176.33H282.808V173.782H282.08ZM295.842 171.164C296.668 171.892 297.62 172.9 298.04 173.572L298.908 172.956C298.446 172.312 297.466 171.318 296.64 170.618L295.842 171.164ZM286.77 174.384V175.392H299.244V174.384H286.77ZM286.56 178.5L286.868 179.55C288.632 179.158 291.11 178.584 293.406 178.052L293.322 177.1C290.858 177.632 288.226 178.192 286.56 178.5ZM289.78 171.668V181.762C289.78 182.014 289.696 182.084 289.444 182.084C289.192 182.098 288.366 182.112 287.47 182.07C287.624 182.378 287.806 182.854 287.862 183.134C289.024 183.148 289.766 183.106 290.214 182.938C290.662 182.77 290.83 182.462 290.83 181.776V171.668H289.78ZM292.44 170.408C291.096 170.912 288.828 171.388 286.854 171.696C286.994 171.934 287.12 172.326 287.176 172.564C289.178 172.284 291.558 171.85 293.182 171.29L292.44 170.408ZM293.84 170.366C293.896 177.03 295.142 183.176 297.886 183.176C298.936 183.176 299.314 182.49 299.51 180.166C299.216 180.054 298.838 179.816 298.614 179.578C298.53 181.384 298.362 182.112 297.984 182.112C296.276 182.112 294.904 176.792 294.932 170.366H293.84ZM297.634 176.036C296.388 178.402 294.078 180.558 291.586 181.762C291.852 182 292.146 182.336 292.314 182.602C294.89 181.244 297.2 178.99 298.572 176.428L297.634 176.036ZM305.026 173.166V173.964H307.854V173.166H305.026ZM309.464 173.166V173.964H312.32V173.166H309.464ZM311.984 171.052V181.748C311.984 182.014 311.886 182.098 311.62 182.112C311.34 182.126 310.36 182.126 309.366 182.098C309.506 182.378 309.674 182.84 309.73 183.12C311.06 183.12 311.886 183.106 312.348 182.924C312.824 182.756 312.992 182.434 312.992 181.748V171.052H311.984ZM304.438 171.052V183.092H305.418V171.052H304.438ZM305.082 171.052V171.892H307.378V175.322H305.082V176.162H308.204V171.052H305.082ZM312.488 171.052H309.044V176.162H312.488V175.322H309.912V171.892H312.488V171.052ZM303.248 170.324C302.576 172.48 301.47 174.636 300.238 176.036C300.42 176.302 300.7 176.862 300.798 177.114C302.184 175.476 303.43 173.012 304.228 170.59L303.248 170.324ZM302.128 173.754V183.12H303.122V172.816L303.094 172.788L302.128 173.754ZM105.834 192.494V193.432H109.11V200.698H105.834V201.65H110.09V192.494H105.834ZM105.204 192.494V202.77H106.184V192.494H105.204ZM105.764 196.386V197.324H109.628V196.386H105.764ZM107.346 190.212C107.234 190.94 106.968 192.004 106.73 192.676L107.57 192.886C107.85 192.256 108.2 191.29 108.48 190.422L107.346 190.212ZM112.078 192.452V193.432H116.376V192.452H112.078ZM116.012 192.452V192.676C115.816 198.85 115.592 201.174 115.13 201.678C114.976 201.86 114.808 201.902 114.528 201.902C114.206 201.902 113.366 201.888 112.456 201.818C112.652 202.098 112.778 202.532 112.806 202.84C113.59 202.882 114.416 202.91 114.892 202.854C115.382 202.812 115.704 202.686 116.012 202.28C116.572 201.594 116.768 199.424 116.992 192.998C116.992 192.844 116.992 192.452 116.992 192.452H116.012ZM112.372 190.184C111.924 192.13 111.154 194.062 110.202 195.294C110.454 195.434 110.888 195.728 111.07 195.896C112.036 194.566 112.862 192.508 113.38 190.422L112.372 190.184ZM111.728 196.092C112.498 197.114 113.436 198.5 113.856 199.354L114.752 198.794C114.304 197.968 113.338 196.61 112.54 195.616L111.728 196.092ZM195.042 194.566C193.866 194.566 192.9 195.518 192.9 196.694C192.9 197.884 193.866 198.836 195.042 198.836C196.218 198.836 197.17 197.884 197.17 196.694C197.17 195.518 196.218 194.566 195.042 194.566ZM195.042 198.122C194.258 198.122 193.614 197.492 193.614 196.694C193.614 195.924 194.258 195.28 195.042 195.28C195.826 195.28 196.456 195.924 196.456 196.694C196.456 197.492 195.826 198.122 195.042 198.122Z" fill="black"/>
<path d="M119.078 190.814V203.092H119.988V191.766H122.27V190.814H119.078ZM122.004 190.814V191.094C121.71 192.046 121.206 193.656 120.702 194.93C121.696 196.05 121.948 197.016 121.948 197.786C121.948 198.206 121.864 198.598 121.654 198.752C121.542 198.836 121.388 198.878 121.22 198.878C121.01 198.906 120.73 198.892 120.422 198.864C120.576 199.13 120.66 199.536 120.674 199.788C120.982 199.802 121.318 199.802 121.598 199.774C121.878 199.732 122.116 199.662 122.312 199.522C122.69 199.228 122.844 198.626 122.844 197.87C122.844 197.002 122.606 195.98 121.612 194.818C122.074 193.698 122.578 192.326 122.984 191.178L122.326 190.772L122.172 190.814H122.004ZM126.708 193.502V195.07H127.688V193.502H126.708ZM123.796 193.194V193.908H130.768V193.194H123.796ZM123.11 197.506V198.15H131.356V197.506H123.11ZM123.334 194.734V195.448H131.3V194.734H123.334ZM123.6 196.092V196.778H129.718V198.92H123.544V199.606H130.67V196.092H123.6ZM124.804 200.166V201.874C124.804 202.798 125.084 203.022 126.274 203.022C126.498 203.022 128.094 203.022 128.346 203.022C129.2 203.022 129.466 202.756 129.564 201.692C129.312 201.636 128.934 201.51 128.738 201.37C128.696 202.112 128.612 202.21 128.234 202.21C127.898 202.21 126.596 202.21 126.358 202.21C125.812 202.21 125.742 202.154 125.742 201.874V200.166H124.804ZM123.642 200.208C123.404 200.95 122.998 201.944 122.508 202.546L123.348 202.938C123.81 202.308 124.188 201.314 124.44 200.544L123.642 200.208ZM126.008 199.928C126.554 200.39 127.31 201.09 127.702 201.524L128.318 200.964C127.926 200.572 127.184 199.914 126.61 199.452L126.008 199.928ZM129.228 200.488C129.704 201.202 130.306 202.196 130.586 202.798L131.426 202.406C131.132 201.818 130.544 200.894 130.026 200.18L129.228 200.488ZM129.676 191.444C129.382 192.06 128.99 192.746 128.556 193.278C128.78 193.362 129.144 193.544 129.326 193.656C129.69 193.152 130.152 192.354 130.488 191.682L129.676 191.444ZM130.516 190.268C128.878 190.66 125.882 190.94 123.39 191.052C123.488 191.248 123.6 191.57 123.628 191.794C126.162 191.696 129.228 191.444 131.16 190.954L130.516 190.268ZM126.358 191.892C126.596 192.298 126.862 192.858 126.988 193.208L127.814 192.872C127.674 192.55 127.394 192.004 127.142 191.612L126.358 191.892ZM124.02 192.102C124.258 192.438 124.538 192.9 124.678 193.194L125.49 192.83C125.336 192.564 125.042 192.116 124.804 191.794L124.02 192.102ZM142.038 196.386C142.962 198.43 143.97 201.104 144.362 202.7L145.426 202.266C145.02 200.684 143.956 198.052 143.004 196.036L142.038 196.386ZM138.09 202.28C138.104 202.042 139.084 201.622 139.084 201.622V201.608C140.26 198.682 141.38 194.566 142.052 190.814L140.946 190.618C140.372 194.174 139.154 198.192 138.762 199.242C138.37 200.362 138.062 201.132 137.74 201.23C137.852 201.538 138.034 202.056 138.09 202.28ZM138.09 202.28C138.51 202.07 139.112 201.958 144.432 201.132C144.376 200.908 144.292 200.474 144.278 200.18L138.678 200.978L138.062 201.356L138.09 202.28ZM135.29 191.402V203.092H136.312V191.402H135.29ZM132.812 194.188V195.182H138.608V194.188H132.812ZM135.346 194.566C134.758 196.33 133.484 198.486 132.35 199.606C132.532 199.858 132.798 200.292 132.91 200.586C134.1 199.312 135.36 196.876 136.018 194.874L135.346 194.566ZM137.866 190.436C136.648 190.94 134.562 191.388 132.784 191.668C132.91 191.892 133.05 192.242 133.092 192.48C134.898 192.242 137.054 191.836 138.468 191.29L137.866 190.436ZM136.27 195.294L135.78 195.742C136.256 196.302 137.502 197.968 137.894 198.64L138.538 197.786C138.202 197.366 136.69 195.686 136.27 195.294ZM151.04 191.36V192.172H153.868V191.36H151.04ZM156.332 191.36V192.172H159.44V191.36H156.332ZM153.504 190.24V192.886H154.428V190.24H153.504ZM155.898 190.24V192.844H156.836V190.24H155.898ZM156.36 193.88H157.97V195.168H156.36V193.88ZM155.548 193.166V195.896H158.81V193.166H155.548ZM152.37 193.88H153.952V195.168H152.37V193.88ZM151.572 193.166V195.896H154.792V193.166H151.572ZM152.454 198.64V199.396H158.488V198.64H152.454ZM152.454 200.222V200.964H158.488V200.222H152.454ZM152.454 201.818V202.616H159.342V201.818H152.454ZM154.974 197.478V202.364H155.898V197.478H154.974ZM152.902 197.086H152.426L151.95 197.59V203.134H152.902V197.814H159.104V197.086H152.902ZM152.818 195.784C152.3 196.932 151.418 198.038 150.508 198.78C150.676 198.976 150.97 199.424 151.068 199.606C152.062 198.752 153.056 197.422 153.686 196.064L152.818 195.784ZM154.666 196.274C154.862 196.736 155.1 197.394 155.198 197.8L156.122 197.492C156.024 197.1 155.786 196.484 155.562 196.008L154.666 196.274ZM146.784 192.956V193.922H151.194V192.956H146.784ZM148.744 190.24V203.106H149.668V190.24H148.744ZM148.674 193.586C148.268 195.504 147.358 197.94 146.448 199.186C146.616 199.438 146.868 199.9 146.98 200.208C147.918 198.78 148.842 196.022 149.276 193.824L148.674 193.586ZM149.626 194.608L149.136 195C149.472 195.504 150.34 197.058 150.634 197.688L151.236 196.932C150.998 196.54 149.92 194.958 149.626 194.608ZM160.7 191.234V192.242H167.14V191.234H160.7ZM164.158 195.322V196.33H166.622V195.322H164.158ZM163.682 191.78V200.628H164.704V191.78H163.682ZM161.302 194.37V201.02H162.254V194.37H161.302ZM160.462 200.782L160.658 201.832C162.408 201.44 164.886 200.866 167.224 200.306L167.126 199.34C164.69 199.886 162.1 200.474 160.462 200.782ZM168.092 192.858V193.838H173.426V192.858H168.092ZM168.568 190.24C168.134 192.634 167.364 194.944 166.202 196.4C166.454 196.554 166.874 196.904 167.056 197.1C168.232 195.49 169.1 193.04 169.618 190.422L168.568 190.24ZM171.48 193.362C170.878 197.8 169.506 200.642 166.202 202.238C166.398 202.462 166.72 202.91 166.818 203.162C170.318 201.314 171.816 198.304 172.53 193.474L171.48 193.362ZM168.54 193.754L167.616 193.922C168.386 198.206 169.856 201.566 172.824 203.134C172.992 202.854 173.314 202.448 173.552 202.238C170.71 200.908 169.226 197.66 168.54 193.754ZM174.938 194.314V195.238H186.992V194.314H174.938ZM180.51 193.432V203.12H181.616V193.432H180.51ZM175.946 196.33V199.956H177.052V197.24H185.648V196.33H175.946ZM185.13 196.33V198.948C185.13 199.074 185.088 199.13 184.92 199.13C184.766 199.144 184.234 199.144 183.66 199.116C183.772 199.354 183.94 199.676 184.01 199.956C184.808 199.956 185.368 199.956 185.732 199.802C186.11 199.662 186.208 199.424 186.208 198.948V196.33H185.13ZM180.608 198.318C179.404 199.914 176.982 201.244 174.588 201.79C174.826 202.014 175.12 202.406 175.26 202.672C177.668 201.986 180.09 200.516 181.42 198.654L180.608 198.318ZM181.364 198.276L180.804 198.878C181.868 200.236 184.122 201.888 186.866 202.616C187.02 202.336 187.328 201.93 187.538 201.692C184.766 201.09 182.386 199.606 181.364 198.276ZM176.422 191.234V192.088H180.902V191.234H176.422ZM182.246 191.248V192.088H187.37V191.248H182.246ZM176.744 190.142C176.282 191.304 175.484 192.452 174.63 193.222C174.854 193.39 175.218 193.74 175.372 193.922C176.24 193.054 177.136 191.738 177.682 190.408L176.744 190.142ZM182.512 190.142C182.148 191.15 181.504 192.116 180.734 192.76C180.972 192.9 181.364 193.222 181.546 193.39C182.316 192.676 183.058 191.542 183.478 190.38L182.512 190.142ZM177.472 192.494C177.948 192.942 178.536 193.544 178.83 193.95L179.516 193.348C179.222 192.97 178.606 192.382 178.13 191.976L177.472 192.494ZM183.576 192.578C184.08 192.998 184.71 193.572 185.018 193.964L185.732 193.348C185.41 192.97 184.766 192.424 184.262 192.018L183.576 192.578Z" fill="#003A9F"/>
<path d="M118 204.1H188V204.8H118V204.1Z" fill="#003A9F"/>
<g clip-path="url(#clip0_29_136)">
<path d="M309.708 68L316.855 60.8531C317.05 60.6578 317.05 60.3406 316.855 60.1453C316.659 59.95 316.342 59.95 316.147 60.1453L309 67.2921L301.853 60.1468C301.658 59.9515 301.342 59.9515 301.147 60.1468C300.952 60.3421 300.952 60.6593 301.147 60.8546L308.292 68L301.147 75.1468C300.952 75.3421 300.952 75.6593 301.147 75.8546C301.244 75.9515 301.372 76.0015 301.5 76.0015C301.628 76.0015 301.756 75.9531 301.853 75.8546L309 68.7078L316.147 75.8546C316.244 75.9515 316.372 76.0015 316.5 76.0015C316.628 76.0015 316.756 75.9531 316.853 75.8546C317.049 75.6593 317.049 75.3421 316.853 75.1468L309.708 68Z" fill="black"/>
</g>
<defs>
<clipPath id="clip0_29_136">
<rect width="16" height="16" fill="white" transform="translate(301 60)"/>
</clipPath>
</defs>
</svg>
