<svg width="479" height="684" viewBox="0 0 479 684" fill="none" xmlns="http://www.w3.org/2000/svg">
<rect x="39.5" y="40.5" width="299" height="603" fill="white" stroke="#EEEEEE"/>
<rect x="339" y="40" width="100" height="604" fill="black" fill-opacity="0.4"/>
<path d="M69.984 64H73.872V67.68H69.984V64ZM68.848 62.928V68.736H75.072V62.928H68.848ZM65.312 59.216V73.264H66.544V60.432H77.408V73.264H78.688V59.216H65.312ZM66 71.28V72.416H78.144V71.28H66ZM83.616 66.032V67.008H92.416V66.032H83.616ZM83.616 68.656V69.616H92.416V68.656H83.616ZM83.616 71.296V72.368H92.464V71.296H83.616ZM80.848 60.784V61.904H95.168V60.784H80.848ZM82.672 63.392V73.28H83.872V64.448H92.08V73.28H93.312V63.392H82.672ZM87.408 61.36C87.28 62.112 87.008 63.2 86.736 63.92L87.904 64.096C88.192 63.408 88.576 62.4 88.88 61.456L87.408 61.36ZM91.216 58.544C90.848 59.264 90.192 60.272 89.648 60.928L90.688 61.264C91.264 60.656 91.968 59.76 92.544 58.896L91.216 58.544ZM83.632 58.976C84.192 59.584 84.832 60.432 85.104 60.992L86.224 60.416C85.904 59.872 85.28 59.072 84.688 58.512L83.632 58.976ZM100.064 65.296H108.144V66.768H100.064V65.296ZM100.064 67.696H108.144V69.168H100.064V67.696ZM100.064 62.928H108.144V64.368H100.064V62.928ZM98.816 61.968V70.128H109.424V61.968H98.816ZM105.184 71.184C107.056 71.824 108.96 72.672 110.096 73.296L111.216 72.48C109.968 71.856 107.92 71.024 106.032 70.4L105.184 71.184ZM97.296 59.392V60.496H110.656V59.392H97.296ZM103.392 59.856C103.296 60.592 103.056 61.664 102.832 62.368L103.968 62.576C104.224 61.92 104.528 60.944 104.8 60.032L103.392 59.856ZM101.744 70.32C100.64 71.056 98.448 71.888 96.72 72.352C96.992 72.608 97.36 73.024 97.552 73.28C99.264 72.8 101.44 71.952 102.832 71.104L101.744 70.32Z" fill="black"/>
<path d="M71.52 192.384V193.504H79.376V192.384H71.52ZM76.128 188.624V201.776C76.128 202.048 76.048 202.128 75.776 202.128C75.536 202.144 74.736 202.144 73.84 202.128C74.032 202.448 74.208 202.976 74.272 203.296C75.488 203.296 76.224 203.264 76.688 203.056C77.136 202.848 77.328 202.496 77.328 201.776V188.624H76.128ZM75.936 192.848C74.976 195.616 73.104 198.48 71.152 199.856C71.424 200.064 71.776 200.464 71.984 200.736C73.968 199.152 75.84 196.192 76.896 193.136L75.936 192.848ZM66.48 199.6C66.08 200.72 65.36 201.856 64.528 202.592C64.8 202.752 65.296 203.104 65.504 203.312C66.336 202.48 67.152 201.184 67.632 199.888L66.48 199.6ZM68.768 200.048C69.408 200.848 70.128 201.968 70.448 202.688L71.472 202.16C71.152 201.44 70.4 200.384 69.728 199.584L68.768 200.048ZM66.528 193.168H69.824V195.232H66.528V193.168ZM66.528 196.16H69.824V198.256H66.528V196.16ZM66.528 190.176H69.824V192.224H66.528V190.176ZM65.376 189.184V199.248H71.008V189.184H65.376ZM86.608 189.36V190.448H95.12V189.36H86.608ZM86.96 197.664V198.736H94.624V197.664H86.96ZM86.08 201.808V202.912H95.28V201.808H86.08ZM90.176 198.176V202.48H91.376V198.176H90.176ZM88.144 190.976C87.776 191.744 87.072 192.944 86.432 193.92C87.28 195.04 88.032 196.272 88.368 197.104L89.376 196.688C89.024 195.968 88.304 194.832 87.6 193.904C88.144 193.088 88.768 192.064 89.184 191.248L88.144 190.976ZM90.912 190.992C90.544 191.744 89.84 192.944 89.168 193.904C90.048 195.008 90.832 196.24 91.184 197.072L92.176 196.64C91.824 195.92 91.072 194.8 90.352 193.888C90.896 193.088 91.52 192.08 91.968 191.264L90.912 190.992ZM93.68 190.976C93.296 191.744 92.576 192.96 91.888 193.92C92.8 195.024 93.648 196.272 94.048 197.104L95.024 196.64C94.64 195.92 93.84 194.816 93.088 193.904C93.632 193.088 94.272 192.08 94.752 191.264L93.68 190.976ZM84.448 194.88C84.88 195.968 85.296 197.408 85.456 198.256L86.432 197.936C86.272 197.088 85.808 195.68 85.376 194.624L84.448 194.88ZM82.992 199.008C83.184 200.08 83.36 201.488 83.392 202.416L84.368 202.224C84.32 201.296 84.112 199.92 83.92 198.832L82.992 199.008ZM81.328 198.864C81.184 200.192 80.944 201.648 80.56 202.64C80.816 202.736 81.312 202.896 81.536 203.008C81.872 202 82.192 200.448 82.368 199.04L81.328 198.864ZM80.944 194.56C80.944 194.32 81.664 193.952 81.664 193.952V193.936C82.736 192.656 83.824 190.784 84.656 188.992L83.568 188.544C82.928 190.288 81.808 192.128 81.456 192.592C81.12 193.088 80.848 193.424 80.56 193.488C80.704 193.776 80.88 194.32 80.944 194.56ZM80.944 194.56C81.2 194.432 81.648 194.336 84.224 194.048C84.224 193.808 84.256 193.376 84.32 193.088L81.488 193.328L80.912 193.68L80.944 194.56ZM81.04 198.16C81.04 197.92 81.792 197.568 81.792 197.568V197.536C83.312 195.984 84.832 193.76 86.048 191.6L85.024 191.008C83.984 193.152 82.336 195.424 81.84 196C81.36 196.576 81.008 196.992 80.656 197.056C80.8 197.376 80.976 197.92 81.04 198.16ZM81.04 198.16C81.36 198 81.856 197.888 85.472 197.36C85.456 197.12 85.472 196.688 85.52 196.4L81.584 196.912L81.008 197.28L81.04 198.16ZM84.544 198.688C84.864 199.552 85.2 200.688 85.328 201.424L86.24 201.12C86.096 200.4 85.728 199.28 85.408 198.416L84.544 198.688Z" fill="black"/>
<path d="M66.576 244.08V245.088H79.104V244.08H66.576ZM66.048 240.048V241.024H78.608V240.048H66.048ZM68.96 246.752V247.728H78.208V246.752H68.96ZM68.928 249.152V250.128H77.84V249.152H68.928ZM67.408 251.76V252.768H79.36V251.76H67.408ZM72.688 245.376V252.432H73.856V245.376H72.688ZM65.952 244.08V247.456C65.952 249.072 65.808 251.168 64.496 252.672C64.752 252.816 65.232 253.216 65.408 253.44C66.864 251.792 67.136 249.296 67.136 247.472V244.08H65.952ZM69.296 245.36C68.816 246.64 68.048 247.872 67.152 248.72C67.36 248.944 67.696 249.504 67.792 249.728C68.832 248.736 69.76 247.2 70.32 245.664L69.296 245.36ZM67.92 241.616C70.88 242.272 74.608 243.424 76.656 244.208L77.424 243.488C75.312 242.736 71.584 241.632 68.72 240.96L67.92 241.616ZM75.952 240.896C74.032 241.968 70.272 242.96 67.408 243.488C67.6 243.664 67.92 244 68.08 244.208C70.912 243.632 74.544 242.624 76.8 241.424L75.952 240.896ZM71.12 238.848C71.616 239.44 72.16 240.256 72.416 240.784L73.312 240.288C73.056 239.76 72.48 238.976 71.968 238.416L71.12 238.848ZM81.008 248.448V249.456H95.024V248.448H81.008ZM81.072 241.424V242.416H94.96V241.424H81.072ZM81.712 244.192V245.168H94.384V244.192H81.712ZM82.528 246.336V247.264H93.6V246.336H82.528ZM87.376 244.624V253.296H88.56V244.624H87.376ZM85.92 238.56V241.904H87.04V238.56H85.92ZM88.944 238.56V241.856H90.096V238.56H88.944ZM92.656 238.752C92.384 239.488 91.856 240.544 91.424 241.216L92.4 241.536C92.848 240.912 93.408 239.968 93.888 239.088L92.656 238.752ZM90.592 242.368C90.368 242.832 89.936 243.552 89.616 244.032L90.608 244.336C90.976 243.904 91.424 243.312 91.824 242.704L90.592 242.368ZM82.368 239.088C82.896 239.84 83.472 240.864 83.696 241.504L84.768 241.104C84.544 240.448 83.952 239.44 83.392 238.72L82.368 239.088ZM84.368 242.624C84.736 243.152 85.104 243.872 85.232 244.32L86.384 244.016C86.224 243.552 85.856 242.864 85.488 242.352L84.368 242.624ZM85.696 250.272C84.64 250.96 82.592 251.6 80.928 251.872C81.168 252.096 81.504 252.48 81.664 252.768C83.328 252.4 85.44 251.568 86.592 250.704L85.696 250.272ZM89.6 250.848C91.136 251.392 93.184 252.224 94.24 252.736L94.992 251.984C93.904 251.472 91.84 250.704 90.336 250.192L89.6 250.848Z" fill="black"/>
<path d="M93.328 292.512V293.424H102.704V292.512H93.328ZM100 291.2C100.608 291.504 101.344 291.968 101.728 292.352L102.304 291.712C101.92 291.344 101.184 290.896 100.56 290.624L100 291.2ZM101.056 294.16C100.368 296.928 98.896 299.008 96.72 300.272C96.928 300.448 97.28 300.848 97.424 301.04C99.632 299.616 101.232 297.376 102.032 294.352L101.056 294.16ZM93.168 299.056L93.328 299.968C94.656 299.728 96.368 299.376 98.032 299.056L98 298.208C96.192 298.544 94.4 298.848 93.168 299.056ZM94.752 295.184H96.576V296.8H94.752V295.184ZM93.888 294.432V297.536H97.456V294.432H93.888ZM98.064 290.8C98.352 295.744 99.008 300.288 101.216 300.768C102.064 301.072 102.624 300.432 102.832 298.672C102.608 298.576 102.24 298.32 102.048 298.128C101.936 299.168 101.776 299.84 101.552 299.792C100 299.552 99.296 295.328 99.088 290.8H98.064ZM91.312 289.312V303.344H92.448V290.4H103.488V303.344H104.688V289.312H91.312ZM92.016 301.504V302.592H104.16V301.504H92.016ZM107.232 289.216V303.248H108.288V290.304H110.944V289.216H107.232ZM110.576 289.216V289.52C110.256 290.624 109.696 292.464 109.12 293.92C110.24 295.216 110.512 296.304 110.512 297.184C110.512 297.68 110.416 298.144 110.176 298.32C110.064 298.416 109.888 298.448 109.696 298.464C109.44 298.48 109.152 298.464 108.784 298.448C108.96 298.736 109.056 299.184 109.072 299.456C109.424 299.488 109.824 299.488 110.128 299.456C110.448 299.408 110.72 299.328 110.944 299.152C111.376 298.832 111.552 298.144 111.552 297.296C111.552 296.288 111.296 295.136 110.16 293.792C110.688 292.512 111.264 290.928 111.696 289.6L110.96 289.168L110.784 289.216H110.576ZM113.936 294.976V295.968H118.896V294.976H113.936ZM112.368 297.456V298.48H120.528V297.456H112.368ZM113.296 289.792V290.656H115.872V289.792H113.296ZM112.656 291.536C113.344 292.048 114.176 292.784 114.576 293.264L115.152 292.608C114.736 292.144 113.888 291.44 113.216 290.96L112.656 291.536ZM118.224 299.696C119.008 300.576 120.032 301.792 120.528 302.496L121.456 301.872C120.928 301.184 119.904 300 119.104 299.152L118.224 299.696ZM115.584 289.792V290C114.976 292.672 113.344 294.928 111.568 295.984C111.792 296.16 112.08 296.512 112.208 296.736C114.144 295.488 115.856 293.168 116.56 290L115.92 289.744L115.744 289.792H115.584ZM117.248 289.44V290.304H120.416V289.44H117.248ZM113.504 288.56C112.992 290.112 112.096 291.552 110.992 292.496C111.216 292.64 111.616 292.944 111.792 293.104C112.88 292.08 113.856 290.496 114.464 288.784L113.504 288.56ZM120.048 289.44V289.632C119.68 290.704 118.96 292.112 118.176 292.944C118.384 293.104 118.704 293.408 118.864 293.616C119.744 292.672 120.64 291.184 121.152 289.76L120.48 289.376L120.272 289.44H120.048ZM113.52 299.264C112.96 300.192 112.144 301.232 111.392 301.952C111.664 302.096 112.128 302.416 112.352 302.592C113.056 301.824 113.968 300.64 114.592 299.632L113.52 299.264ZM117.488 290.096L116.56 290.336C117.36 293.04 118.832 295.52 120.72 296.784C120.88 296.512 121.2 296.128 121.44 295.936C119.648 294.864 118.208 292.544 117.488 290.096ZM115.888 297.904V303.264H117.024V297.904H115.888ZM111.28 293.552L111.424 294.384C112.176 294.272 112.912 294.16 113.76 294.016L113.728 293.28C112.768 293.392 111.984 293.488 111.28 293.552Z" fill="black"/>
<path d="M68.272 351.824V352.752H76.72V351.824H68.272ZM65.616 343.056V345.712H66.768V344.016H77.424V345.712H78.64V343.056H65.616ZM68.192 345.008V345.92H75.504V347.296H68.192V348.224H76.672V345.008H68.192ZM68.256 349.328V350.272H76.32V353.264H77.52V349.328H68.256ZM67.376 345.008V353.296H68.576V345.008H67.376ZM71.04 342.048C71.312 342.528 71.6 343.168 71.712 343.584L72.832 343.328C72.736 342.912 72.416 342.272 72.112 341.824L71.04 342.048ZM66.816 339.712V340.672H71.904V339.712H66.816ZM73.424 339.728V340.688H79.28V339.728H73.424ZM67.136 338.448C66.592 339.776 65.68 341.088 64.672 341.968C64.928 342.16 65.344 342.56 65.52 342.768C66.528 341.776 67.584 340.272 68.208 338.752L67.136 338.448ZM73.728 338.448C73.312 339.552 72.576 340.592 71.712 341.296C72 341.44 72.432 341.824 72.64 342.016C73.504 341.232 74.352 340 74.832 338.72L73.728 338.448ZM67.968 341.168C68.48 341.648 69.136 342.32 69.456 342.752L70.256 342.08C69.92 341.664 69.248 341.008 68.72 340.56L67.968 341.168ZM74.944 341.248C75.552 341.744 76.288 342.432 76.656 342.896L77.472 342.176C77.088 341.728 76.32 341.072 75.728 340.624L74.944 341.248ZM87.6 343.376H93.552V345.44H87.6V343.376ZM87.6 340.352H93.552V342.384H87.6V340.352ZM86.512 339.312V346.48H94.704V339.312H86.512ZM86.304 348.352V349.456H94.928V348.352H86.304ZM85.072 351.664V352.752H95.456V351.664H85.072ZM80.72 339.648V340.784H85.712V339.648H80.72ZM80.896 344.272V345.408H85.488V344.272H80.896ZM80.56 350.4L80.848 351.632C82.272 351.152 84.096 350.544 85.84 349.952L85.632 348.8C83.776 349.424 81.856 350.048 80.56 350.4ZM82.72 340.096V350.24L83.872 350.016V340.096H82.72ZM90.048 339.808V345.968H89.968V352.16H91.184V345.968H91.104V339.808H90.048Z" fill="black"/>
<path d="M72.5469 118.773V120H66.5234V118.773H72.5469ZM66.8281 108.625V120H65.3203V108.625H66.8281ZM71.75 113.516V114.742H66.5234V113.516H71.75ZM72.4688 108.625V109.859H66.5234V108.625H72.4688ZM75.6406 113.352V120H74.1953V111.547H75.5625L75.6406 113.352ZM75.2969 115.453L74.6953 115.43C74.7005 114.852 74.7865 114.318 74.9531 113.828C75.1198 113.333 75.3542 112.904 75.6562 112.539C75.9583 112.174 76.3177 111.893 76.7344 111.695C77.1562 111.492 77.6224 111.391 78.1328 111.391C78.5495 111.391 78.9245 111.448 79.2578 111.562C79.5911 111.672 79.875 111.849 80.1094 112.094C80.349 112.339 80.5312 112.656 80.6562 113.047C80.7812 113.432 80.8438 113.904 80.8438 114.461V120H79.3906V114.445C79.3906 114.003 79.3255 113.648 79.1953 113.383C79.0651 113.112 78.875 112.917 78.625 112.797C78.375 112.672 78.0677 112.609 77.7031 112.609C77.3438 112.609 77.0156 112.685 76.7188 112.836C76.4271 112.987 76.1745 113.195 75.9609 113.461C75.7526 113.727 75.5885 114.031 75.4688 114.375C75.3542 114.714 75.2969 115.073 75.2969 115.453ZM88.5156 111.547H89.8281V119.82C89.8281 120.565 89.6771 121.201 89.375 121.727C89.0729 122.253 88.651 122.651 88.1094 122.922C87.5729 123.198 86.9531 123.336 86.25 123.336C85.9583 123.336 85.6146 123.289 85.2188 123.195C84.8281 123.107 84.4427 122.953 84.0625 122.734C83.6875 122.521 83.3724 122.232 83.1172 121.867L83.875 121.008C84.2292 121.435 84.599 121.732 84.9844 121.898C85.375 122.065 85.7604 122.148 86.1406 122.148C86.599 122.148 86.9948 122.062 87.3281 121.891C87.6615 121.719 87.9193 121.464 88.1016 121.125C88.2891 120.792 88.3828 120.38 88.3828 119.891V113.406L88.5156 111.547ZM82.6953 115.867V115.703C82.6953 115.057 82.7708 114.471 82.9219 113.945C83.0781 113.414 83.2995 112.958 83.5859 112.578C83.8776 112.198 84.2292 111.906 84.6406 111.703C85.0521 111.495 85.5156 111.391 86.0312 111.391C86.5625 111.391 87.026 111.484 87.4219 111.672C87.8229 111.854 88.1615 112.122 88.4375 112.477C88.7188 112.826 88.9401 113.247 89.1016 113.742C89.263 114.237 89.375 114.797 89.4375 115.422V116.141C89.3802 116.76 89.2682 117.318 89.1016 117.812C88.9401 118.307 88.7188 118.729 88.4375 119.078C88.1615 119.427 87.8229 119.695 87.4219 119.883C87.0208 120.065 86.5521 120.156 86.0156 120.156C85.5104 120.156 85.0521 120.049 84.6406 119.836C84.2344 119.622 83.8854 119.323 83.5938 118.938C83.3021 118.552 83.0781 118.099 82.9219 117.578C82.7708 117.052 82.6953 116.482 82.6953 115.867ZM84.1406 115.703V115.867C84.1406 116.289 84.1823 116.685 84.2656 117.055C84.3542 117.424 84.487 117.75 84.6641 118.031C84.8464 118.312 85.0781 118.534 85.3594 118.695C85.6406 118.852 85.9766 118.93 86.3672 118.93C86.8464 118.93 87.2422 118.828 87.5547 118.625C87.8672 118.422 88.1146 118.154 88.2969 117.82C88.4844 117.487 88.6302 117.125 88.7344 116.734V114.852C88.6771 114.565 88.5885 114.289 88.4688 114.023C88.3542 113.753 88.2031 113.513 88.0156 113.305C87.8333 113.091 87.6068 112.922 87.3359 112.797C87.0651 112.672 86.7474 112.609 86.3828 112.609C85.987 112.609 85.6458 112.693 85.3594 112.859C85.0781 113.021 84.8464 113.245 84.6641 113.531C84.487 113.812 84.3542 114.141 84.2656 114.516C84.1823 114.885 84.1406 115.281 84.1406 115.703ZM93.5938 108V120H92.1406V108H93.5938ZM97.4844 111.547V120H96.0312V111.547H97.4844ZM95.9219 109.305C95.9219 109.07 95.9922 108.872 96.1328 108.711C96.2786 108.549 96.4922 108.469 96.7734 108.469C97.0495 108.469 97.2604 108.549 97.4062 108.711C97.5573 108.872 97.6328 109.07 97.6328 109.305C97.6328 109.529 97.5573 109.721 97.4062 109.883C97.2604 110.039 97.0495 110.117 96.7734 110.117C96.4922 110.117 96.2786 110.039 96.1328 109.883C95.9922 109.721 95.9219 109.529 95.9219 109.305ZM104.727 117.758C104.727 117.549 104.68 117.357 104.586 117.18C104.497 116.997 104.312 116.833 104.031 116.688C103.755 116.536 103.339 116.406 102.781 116.297C102.312 116.198 101.888 116.081 101.508 115.945C101.133 115.81 100.812 115.646 100.547 115.453C100.286 115.26 100.086 115.034 99.9453 114.773C99.8047 114.513 99.7344 114.208 99.7344 113.859C99.7344 113.526 99.8073 113.211 99.9531 112.914C100.104 112.617 100.315 112.354 100.586 112.125C100.862 111.896 101.193 111.716 101.578 111.586C101.964 111.456 102.393 111.391 102.867 111.391C103.544 111.391 104.122 111.51 104.602 111.75C105.081 111.99 105.448 112.31 105.703 112.711C105.958 113.107 106.086 113.547 106.086 114.031H104.641C104.641 113.797 104.57 113.57 104.43 113.352C104.294 113.128 104.094 112.943 103.828 112.797C103.568 112.651 103.247 112.578 102.867 112.578C102.466 112.578 102.141 112.641 101.891 112.766C101.646 112.885 101.466 113.039 101.352 113.227C101.242 113.414 101.188 113.612 101.188 113.82C101.188 113.977 101.214 114.117 101.266 114.242C101.323 114.362 101.422 114.474 101.562 114.578C101.703 114.677 101.901 114.771 102.156 114.859C102.411 114.948 102.737 115.036 103.133 115.125C103.826 115.281 104.396 115.469 104.844 115.688C105.292 115.906 105.625 116.174 105.844 116.492C106.062 116.81 106.172 117.195 106.172 117.648C106.172 118.018 106.094 118.357 105.938 118.664C105.786 118.971 105.565 119.237 105.273 119.461C104.987 119.68 104.643 119.852 104.242 119.977C103.846 120.096 103.401 120.156 102.906 120.156C102.161 120.156 101.531 120.023 101.016 119.758C100.5 119.492 100.109 119.148 99.8438 118.727C99.5781 118.305 99.4453 117.859 99.4453 117.391H100.898C100.919 117.786 101.034 118.102 101.242 118.336C101.451 118.565 101.706 118.729 102.008 118.828C102.31 118.922 102.609 118.969 102.906 118.969C103.302 118.969 103.633 118.917 103.898 118.812C104.169 118.708 104.375 118.565 104.516 118.383C104.656 118.201 104.727 117.992 104.727 117.758ZM109.516 108V120H108.07V108H109.516ZM109.172 115.453L108.57 115.43C108.576 114.852 108.661 114.318 108.828 113.828C108.995 113.333 109.229 112.904 109.531 112.539C109.833 112.174 110.193 111.893 110.609 111.695C111.031 111.492 111.497 111.391 112.008 111.391C112.424 111.391 112.799 111.448 113.133 111.562C113.466 111.672 113.75 111.849 113.984 112.094C114.224 112.339 114.406 112.656 114.531 113.047C114.656 113.432 114.719 113.904 114.719 114.461V120H113.266V114.445C113.266 114.003 113.201 113.648 113.07 113.383C112.94 113.112 112.75 112.917 112.5 112.797C112.25 112.672 111.943 112.609 111.578 112.609C111.219 112.609 110.891 112.685 110.594 112.836C110.302 112.987 110.049 113.195 109.836 113.461C109.628 113.727 109.464 114.031 109.344 114.375C109.229 114.714 109.172 115.073 109.172 115.453Z" fill="black"/>
<rect x="40" y="370" width="298" height="250" fill="#EEEEEE"/>
<path d="M94.272 401.824V402.752H102.72V401.824H94.272ZM91.616 393.056V395.712H92.768V394.016H103.424V395.712H104.64V393.056H91.616ZM94.192 395.008V395.92H101.504V397.296H94.192V398.224H102.672V395.008H94.192ZM94.256 399.328V400.272H102.32V403.264H103.52V399.328H94.256ZM93.376 395.008V403.296H94.576V395.008H93.376ZM97.04 392.048C97.312 392.528 97.6 393.168 97.712 393.584L98.832 393.328C98.736 392.912 98.416 392.272 98.112 391.824L97.04 392.048ZM92.816 389.712V390.672H97.904V389.712H92.816ZM99.424 389.728V390.688H105.28V389.728H99.424ZM93.136 388.448C92.592 389.776 91.68 391.088 90.672 391.968C90.928 392.16 91.344 392.56 91.52 392.768C92.528 391.776 93.584 390.272 94.208 388.752L93.136 388.448ZM99.728 388.448C99.312 389.552 98.576 390.592 97.712 391.296C98 391.44 98.432 391.824 98.64 392.016C99.504 391.232 100.352 390 100.832 388.72L99.728 388.448ZM93.968 391.168C94.48 391.648 95.136 392.32 95.456 392.752L96.256 392.08C95.92 391.664 95.248 391.008 94.72 390.56L93.968 391.168ZM100.944 391.248C101.552 391.744 102.288 392.432 102.656 392.896L103.472 392.176C103.088 391.728 102.32 391.072 101.728 390.624L100.944 391.248ZM113.6 393.376H119.552V395.44H113.6V393.376ZM113.6 390.352H119.552V392.384H113.6V390.352ZM112.512 389.312V396.48H120.704V389.312H112.512ZM112.304 398.352V399.456H120.928V398.352H112.304ZM111.072 401.664V402.752H121.456V401.664H111.072ZM106.72 389.648V390.784H111.712V389.648H106.72ZM106.896 394.272V395.408H111.488V394.272H106.896ZM106.56 400.4L106.848 401.632C108.272 401.152 110.096 400.544 111.84 399.952L111.632 398.8C109.776 399.424 107.856 400.048 106.56 400.4ZM108.72 390.096V400.24L109.872 400.016V390.096H108.72ZM116.048 389.808V395.968H115.968V402.16H117.184V395.968H117.104V389.808H116.048Z" fill="black"/>
<path d="M100.538 439.536V440.688H108.394V439.536H100.538ZM105.21 444.304V451.728C105.21 452 105.114 452.064 104.794 452.08C104.506 452.096 103.434 452.096 102.298 452.064C102.474 452.416 102.634 452.912 102.682 453.248C104.25 453.248 105.162 453.232 105.706 453.056C106.25 452.864 106.426 452.496 106.426 451.744V444.304H105.21ZM99.8341 443.952V445.088H108.858V443.952H99.8341ZM96.6341 445.184V453.328H97.8341V444.208L97.6901 444.144L96.6341 445.184ZM98.4901 441.984C97.3861 443.824 95.6261 445.68 93.9621 446.864C94.2181 447.088 94.6341 447.616 94.8101 447.856C96.4901 446.512 98.3781 444.448 99.6261 442.416L98.4901 441.984ZM97.8341 438.56C97.0181 439.712 95.4661 441.152 94.1381 442.048C94.3461 442.288 94.6661 442.752 94.8421 443.008C96.2661 441.984 97.9141 440.432 98.9861 439.024L97.8341 438.56ZM123.61 439.008C123.226 439.952 122.506 441.248 121.946 442.064L122.938 442.48C123.498 441.68 124.186 440.512 124.73 439.456L123.61 439.008ZM116.554 439.552C117.226 440.496 117.882 441.744 118.122 442.576L119.162 442.048C118.906 441.232 118.202 440 117.53 439.088L116.554 439.552ZM123.082 443.136V451.776C123.082 451.984 123.018 452.064 122.762 452.064C122.506 452.08 121.69 452.08 120.778 452.048C120.938 452.368 121.098 452.864 121.146 453.184C122.362 453.184 123.146 453.184 123.61 452.992C124.09 452.8 124.218 452.432 124.218 451.792V443.136H123.082ZM119.994 438.576V443.84H121.146V438.576H119.994ZM117.402 443.136V444.192H123.37V443.136H117.402ZM116.954 443.136V447.568C116.954 449.152 116.874 451.168 116.042 452.64C116.314 452.768 116.778 453.136 116.97 453.344C117.93 451.744 118.074 449.344 118.074 447.568V443.136H116.954ZM118.09 449.056L118.49 450.096C119.978 449.728 121.914 449.264 123.754 448.768L123.642 447.808C121.61 448.288 119.498 448.768 118.09 449.056ZM118.362 446.064C119.658 446.352 121.258 446.912 122.106 447.36L122.602 446.496C121.738 446.048 120.106 445.536 118.842 445.296L118.362 446.064ZM111.338 442.624V443.664H115.386V442.624H111.338ZM110.362 445.408V446.464H115.946V445.408H110.362ZM110.506 447.504C110.762 448.448 111.05 449.68 111.162 450.496L112.042 450.256C111.93 449.456 111.642 448.24 111.354 447.296L110.506 447.504ZM110.17 451.632L110.458 452.72C112.01 452.384 114.106 451.904 116.106 451.456L116.058 450.528C113.85 450.96 111.594 451.392 110.17 451.632ZM115.162 447.104C115.002 447.984 114.65 449.264 114.378 450.048L115.146 450.304C115.45 449.552 115.818 448.384 116.122 447.392L115.162 447.104ZM112.826 443.072V451.728L113.882 451.552V443.072H112.826ZM113.13 438.56C112.426 440.096 111.242 441.568 110.026 442.512C110.234 442.8 110.554 443.44 110.634 443.696C111.994 442.528 113.354 440.72 114.202 438.912L113.13 438.56ZM112.89 440C113.866 440.848 115.194 442.064 115.834 442.784L116.522 441.856C115.866 441.184 114.538 440.032 113.546 439.2L112.89 440Z" fill="black"/>
<path d="M100.368 478.336V487.184H101.488V478.336H100.368ZM103.392 476.64V489.696C103.392 489.968 103.28 490.048 103.008 490.064C102.752 490.08 101.888 490.08 100.912 490.048C101.072 490.4 101.248 490.928 101.312 491.248C102.624 491.248 103.424 491.216 103.888 491.024C104.352 490.816 104.544 490.448 104.544 489.696V476.64H103.392ZM92.656 483.44V484.24H98.016V483.44H92.656ZM93.392 489.568V490.512H98.336V489.568H93.392ZM91.968 481.52V483.68C91.968 485.504 91.808 488.144 90.528 490.096C90.832 490.208 91.328 490.432 91.552 490.624C92.848 488.592 93.088 485.68 93.088 483.68V481.52H91.968ZM92.64 481.52V482.416H97.424V485.344H92.576V486.24H98.528V481.52H92.64ZM92.928 486.976V491.184H93.968V487.872H97.84V491.152H98.912V486.976H92.928ZM95.088 476.688C94.112 478.288 92.336 479.664 90.56 480.512C90.768 480.768 91.104 481.36 91.232 481.616C93.12 480.592 95.056 478.976 96.192 477.088L95.088 476.688ZM94.72 478C96.08 478.832 97.92 480.048 98.832 480.816L99.472 479.824C98.56 479.088 96.672 477.936 95.344 477.152L94.72 478ZM93.712 479.92V480.72H97.088V479.92H93.712ZM115.552 481.968V483.088H121.328V481.968H115.552ZM106.976 478.24V479.264H114.032V478.24H106.976ZM106.8 484.592V485.632H114.112V484.592H106.8ZM106.72 481.904V482.928H114.288V481.904H106.72ZM118.4 482.448V491.216H119.568V482.448H118.4ZM108.016 479.584C108.304 480.288 108.544 481.232 108.624 481.84L109.648 481.552C109.568 480.96 109.296 480.048 108.992 479.36L108.016 479.584ZM112.032 479.344C111.808 480.144 111.408 481.344 111.072 482.08L112.064 482.32C112.4 481.616 112.8 480.528 113.136 479.584L112.032 479.344ZM120.08 476.848C118.928 477.344 116.88 477.808 115.072 478.112C115.216 478.368 115.392 478.768 115.456 479.024C117.344 478.752 119.536 478.304 121.056 477.744L120.08 476.848ZM109.424 476.784C109.792 477.456 110.192 478.352 110.368 478.912L111.6 478.544C111.424 478 110.992 477.12 110.608 476.48L109.424 476.784ZM115.072 478.112V483.648C115.072 485.792 114.96 488.544 113.6 490.48C113.856 490.624 114.32 490.992 114.512 491.216C115.984 489.12 116.192 485.952 116.192 483.648V478.112H115.072ZM111.92 486.816C112.4 487.616 112.976 488.72 113.232 489.408L114.08 488.912C113.84 488.224 113.264 487.184 112.736 486.384L111.92 486.816ZM108.224 486.48C107.872 487.536 107.328 488.64 106.704 489.392C106.944 489.52 107.36 489.824 107.536 489.984C108.16 489.168 108.816 487.904 109.2 486.752L108.224 486.48ZM110.016 482.432V491.216H111.184V482.432H110.016ZM132.368 478.336V487.184H133.488V478.336H132.368ZM135.392 476.64V489.696C135.392 489.968 135.28 490.048 135.008 490.064C134.752 490.08 133.888 490.08 132.912 490.048C133.072 490.4 133.248 490.928 133.312 491.248C134.624 491.248 135.424 491.216 135.888 491.024C136.352 490.816 136.544 490.448 136.544 489.696V476.64H135.392ZM124.656 483.44V484.24H130.016V483.44H124.656ZM125.392 489.568V490.512H130.336V489.568H125.392ZM123.968 481.52V483.68C123.968 485.504 123.808 488.144 122.528 490.096C122.832 490.208 123.328 490.432 123.552 490.624C124.848 488.592 125.088 485.68 125.088 483.68V481.52H123.968ZM124.64 481.52V482.416H129.424V485.344H124.576V486.24H130.528V481.52H124.64ZM124.928 486.976V491.184H125.968V487.872H129.84V491.152H130.912V486.976H124.928ZM127.088 476.688C126.112 478.288 124.336 479.664 122.56 480.512C122.768 480.768 123.104 481.36 123.232 481.616C125.12 480.592 127.056 478.976 128.192 477.088L127.088 476.688ZM126.72 478C128.08 478.832 129.92 480.048 130.832 480.816L131.472 479.824C130.56 479.088 128.672 477.936 127.344 477.152L126.72 478ZM125.712 479.92V480.72H129.088V479.92H125.712ZM139.008 486.448V487.456H153.024V486.448H139.008ZM139.072 479.424V480.416H152.96V479.424H139.072ZM139.712 482.192V483.168H152.384V482.192H139.712ZM140.528 484.336V485.264H151.6V484.336H140.528ZM145.376 482.624V491.296H146.56V482.624H145.376ZM143.92 476.56V479.904H145.04V476.56H143.92ZM146.944 476.56V479.856H148.096V476.56H146.944ZM150.656 476.752C150.384 477.488 149.856 478.544 149.424 479.216L150.4 479.536C150.848 478.912 151.408 477.968 151.888 477.088L150.656 476.752ZM148.592 480.368C148.368 480.832 147.936 481.552 147.616 482.032L148.608 482.336C148.976 481.904 149.424 481.312 149.824 480.704L148.592 480.368ZM140.368 477.088C140.896 477.84 141.472 478.864 141.696 479.504L142.768 479.104C142.544 478.448 141.952 477.44 141.392 476.72L140.368 477.088ZM142.368 480.624C142.736 481.152 143.104 481.872 143.232 482.32L144.384 482.016C144.224 481.552 143.856 480.864 143.488 480.352L142.368 480.624ZM143.696 488.272C142.64 488.96 140.592 489.6 138.928 489.872C139.168 490.096 139.504 490.48 139.664 490.768C141.328 490.4 143.44 489.568 144.592 488.704L143.696 488.272ZM147.6 488.848C149.136 489.392 151.184 490.224 152.24 490.736L152.992 489.984C151.904 489.472 149.84 488.704 148.336 488.192L147.6 488.848ZM164.368 478.336V487.184H165.488V478.336H164.368ZM167.392 476.64V489.696C167.392 489.968 167.28 490.048 167.008 490.064C166.752 490.08 165.888 490.08 164.912 490.048C165.072 490.4 165.248 490.928 165.312 491.248C166.624 491.248 167.424 491.216 167.888 491.024C168.352 490.816 168.544 490.448 168.544 489.696V476.64H167.392ZM156.656 483.44V484.24H162.016V483.44H156.656ZM157.392 489.568V490.512H162.336V489.568H157.392ZM155.968 481.52V483.68C155.968 485.504 155.808 488.144 154.528 490.096C154.832 490.208 155.328 490.432 155.552 490.624C156.848 488.592 157.088 485.68 157.088 483.68V481.52H155.968ZM156.64 481.52V482.416H161.424V485.344H156.576V486.24H162.528V481.52H156.64ZM156.928 486.976V491.184H157.968V487.872H161.84V491.152H162.912V486.976H156.928ZM159.088 476.688C158.112 478.288 156.336 479.664 154.56 480.512C154.768 480.768 155.104 481.36 155.232 481.616C157.12 480.592 159.056 478.976 160.192 477.088L159.088 476.688ZM158.72 478C160.08 478.832 161.92 480.048 162.832 480.816L163.472 479.824C162.56 479.088 160.672 477.936 159.344 477.152L158.72 478ZM157.712 479.92V480.72H161.088V479.92H157.712ZM179.552 481.968V483.088H185.328V481.968H179.552ZM170.976 478.24V479.264H178.032V478.24H170.976ZM170.8 484.592V485.632H178.112V484.592H170.8ZM170.72 481.904V482.928H178.288V481.904H170.72ZM182.4 482.448V491.216H183.568V482.448H182.4ZM172.016 479.584C172.304 480.288 172.544 481.232 172.624 481.84L173.648 481.552C173.568 480.96 173.296 480.048 172.992 479.36L172.016 479.584ZM176.032 479.344C175.808 480.144 175.408 481.344 175.072 482.08L176.064 482.32C176.4 481.616 176.8 480.528 177.136 479.584L176.032 479.344ZM184.08 476.848C182.928 477.344 180.88 477.808 179.072 478.112C179.216 478.368 179.392 478.768 179.456 479.024C181.344 478.752 183.536 478.304 185.056 477.744L184.08 476.848ZM173.424 476.784C173.792 477.456 174.192 478.352 174.368 478.912L175.6 478.544C175.424 478 174.992 477.12 174.608 476.48L173.424 476.784ZM179.072 478.112V483.648C179.072 485.792 178.96 488.544 177.6 490.48C177.856 490.624 178.32 490.992 178.512 491.216C179.984 489.12 180.192 485.952 180.192 483.648V478.112H179.072ZM175.92 486.816C176.4 487.616 176.976 488.72 177.232 489.408L178.08 488.912C177.84 488.224 177.264 487.184 176.736 486.384L175.92 486.816ZM172.224 486.48C171.872 487.536 171.328 488.64 170.704 489.392C170.944 489.52 171.36 489.824 171.536 489.984C172.16 489.168 172.816 487.904 173.2 486.752L172.224 486.48ZM174.016 482.432V491.216H175.184V482.432H174.016ZM196.368 478.336V487.184H197.488V478.336H196.368ZM199.392 476.64V489.696C199.392 489.968 199.28 490.048 199.008 490.064C198.752 490.08 197.888 490.08 196.912 490.048C197.072 490.4 197.248 490.928 197.312 491.248C198.624 491.248 199.424 491.216 199.888 491.024C200.352 490.816 200.544 490.448 200.544 489.696V476.64H199.392ZM188.656 483.44V484.24H194.016V483.44H188.656ZM189.392 489.568V490.512H194.336V489.568H189.392ZM187.968 481.52V483.68C187.968 485.504 187.808 488.144 186.528 490.096C186.832 490.208 187.328 490.432 187.552 490.624C188.848 488.592 189.088 485.68 189.088 483.68V481.52H187.968ZM188.64 481.52V482.416H193.424V485.344H188.576V486.24H194.528V481.52H188.64ZM188.928 486.976V491.184H189.968V487.872H193.84V491.152H194.912V486.976H188.928ZM191.088 476.688C190.112 478.288 188.336 479.664 186.56 480.512C186.768 480.768 187.104 481.36 187.232 481.616C189.12 480.592 191.056 478.976 192.192 477.088L191.088 476.688ZM190.72 478C192.08 478.832 193.92 480.048 194.832 480.816L195.472 479.824C194.56 479.088 192.672 477.936 191.344 477.152L190.72 478ZM189.712 479.92V480.72H193.088V479.92H189.712ZM203.008 486.448V487.456H217.024V486.448H203.008ZM203.072 479.424V480.416H216.96V479.424H203.072ZM203.712 482.192V483.168H216.384V482.192H203.712ZM204.528 484.336V485.264H215.6V484.336H204.528ZM209.376 482.624V491.296H210.56V482.624H209.376ZM207.92 476.56V479.904H209.04V476.56H207.92ZM210.944 476.56V479.856H212.096V476.56H210.944ZM214.656 476.752C214.384 477.488 213.856 478.544 213.424 479.216L214.4 479.536C214.848 478.912 215.408 477.968 215.888 477.088L214.656 476.752ZM212.592 480.368C212.368 480.832 211.936 481.552 211.616 482.032L212.608 482.336C212.976 481.904 213.424 481.312 213.824 480.704L212.592 480.368ZM204.368 477.088C204.896 477.84 205.472 478.864 205.696 479.504L206.768 479.104C206.544 478.448 205.952 477.44 205.392 476.72L204.368 477.088ZM206.368 480.624C206.736 481.152 207.104 481.872 207.232 482.32L208.384 482.016C208.224 481.552 207.856 480.864 207.488 480.352L206.368 480.624ZM207.696 488.272C206.64 488.96 204.592 489.6 202.928 489.872C203.168 490.096 203.504 490.48 203.664 490.768C205.328 490.4 207.44 489.568 208.592 488.704L207.696 488.272ZM211.6 488.848C213.136 489.392 215.184 490.224 216.24 490.736L216.992 489.984C215.904 489.472 213.84 488.704 212.336 488.192L211.6 488.848ZM228.368 478.336V487.184H229.488V478.336H228.368ZM231.392 476.64V489.696C231.392 489.968 231.28 490.048 231.008 490.064C230.752 490.08 229.888 490.08 228.912 490.048C229.072 490.4 229.248 490.928 229.312 491.248C230.624 491.248 231.424 491.216 231.888 491.024C232.352 490.816 232.544 490.448 232.544 489.696V476.64H231.392ZM220.656 483.44V484.24H226.016V483.44H220.656ZM221.392 489.568V490.512H226.336V489.568H221.392ZM219.968 481.52V483.68C219.968 485.504 219.808 488.144 218.528 490.096C218.832 490.208 219.328 490.432 219.552 490.624C220.848 488.592 221.088 485.68 221.088 483.68V481.52H219.968ZM220.64 481.52V482.416H225.424V485.344H220.576V486.24H226.528V481.52H220.64ZM220.928 486.976V491.184H221.968V487.872H225.84V491.152H226.912V486.976H220.928ZM223.088 476.688C222.112 478.288 220.336 479.664 218.56 480.512C218.768 480.768 219.104 481.36 219.232 481.616C221.12 480.592 223.056 478.976 224.192 477.088L223.088 476.688ZM222.72 478C224.08 478.832 225.92 480.048 226.832 480.816L227.472 479.824C226.56 479.088 224.672 477.936 223.344 477.152L222.72 478ZM221.712 479.92V480.72H225.088V479.92H221.712ZM243.552 481.968V483.088H249.328V481.968H243.552ZM234.976 478.24V479.264H242.032V478.24H234.976ZM234.8 484.592V485.632H242.112V484.592H234.8ZM234.72 481.904V482.928H242.288V481.904H234.72ZM246.4 482.448V491.216H247.568V482.448H246.4ZM236.016 479.584C236.304 480.288 236.544 481.232 236.624 481.84L237.648 481.552C237.568 480.96 237.296 480.048 236.992 479.36L236.016 479.584ZM240.032 479.344C239.808 480.144 239.408 481.344 239.072 482.08L240.064 482.32C240.4 481.616 240.8 480.528 241.136 479.584L240.032 479.344ZM248.08 476.848C246.928 477.344 244.88 477.808 243.072 478.112C243.216 478.368 243.392 478.768 243.456 479.024C245.344 478.752 247.536 478.304 249.056 477.744L248.08 476.848ZM237.424 476.784C237.792 477.456 238.192 478.352 238.368 478.912L239.6 478.544C239.424 478 238.992 477.12 238.608 476.48L237.424 476.784ZM243.072 478.112V483.648C243.072 485.792 242.96 488.544 241.6 490.48C241.856 490.624 242.32 490.992 242.512 491.216C243.984 489.12 244.192 485.952 244.192 483.648V478.112H243.072ZM239.92 486.816C240.4 487.616 240.976 488.72 241.232 489.408L242.08 488.912C241.84 488.224 241.264 487.184 240.736 486.384L239.92 486.816ZM236.224 486.48C235.872 487.536 235.328 488.64 234.704 489.392C234.944 489.52 235.36 489.824 235.536 489.984C236.16 489.168 236.816 487.904 237.2 486.752L236.224 486.48ZM238.016 482.432V491.216H239.184V482.432H238.016ZM260.368 478.336V487.184H261.488V478.336H260.368ZM263.392 476.64V489.696C263.392 489.968 263.28 490.048 263.008 490.064C262.752 490.08 261.888 490.08 260.912 490.048C261.072 490.4 261.248 490.928 261.312 491.248C262.624 491.248 263.424 491.216 263.888 491.024C264.352 490.816 264.544 490.448 264.544 489.696V476.64H263.392ZM252.656 483.44V484.24H258.016V483.44H252.656ZM253.392 489.568V490.512H258.336V489.568H253.392ZM251.968 481.52V483.68C251.968 485.504 251.808 488.144 250.528 490.096C250.832 490.208 251.328 490.432 251.552 490.624C252.848 488.592 253.088 485.68 253.088 483.68V481.52H251.968ZM252.64 481.52V482.416H257.424V485.344H252.576V486.24H258.528V481.52H252.64ZM252.928 486.976V491.184H253.968V487.872H257.84V491.152H258.912V486.976H252.928ZM255.088 476.688C254.112 478.288 252.336 479.664 250.56 480.512C250.768 480.768 251.104 481.36 251.232 481.616C253.12 480.592 255.056 478.976 256.192 477.088L255.088 476.688ZM254.72 478C256.08 478.832 257.92 480.048 258.832 480.816L259.472 479.824C258.56 479.088 256.672 477.936 255.344 477.152L254.72 478ZM253.712 479.92V480.72H257.088V479.92H253.712ZM267.008 486.448V487.456H281.024V486.448H267.008ZM267.072 479.424V480.416H280.96V479.424H267.072ZM267.712 482.192V483.168H280.384V482.192H267.712ZM268.528 484.336V485.264H279.6V484.336H268.528ZM273.376 482.624V491.296H274.56V482.624H273.376ZM271.92 476.56V479.904H273.04V476.56H271.92ZM274.944 476.56V479.856H276.096V476.56H274.944ZM278.656 476.752C278.384 477.488 277.856 478.544 277.424 479.216L278.4 479.536C278.848 478.912 279.408 477.968 279.888 477.088L278.656 476.752ZM276.592 480.368C276.368 480.832 275.936 481.552 275.616 482.032L276.608 482.336C276.976 481.904 277.424 481.312 277.824 480.704L276.592 480.368ZM268.368 477.088C268.896 477.84 269.472 478.864 269.696 479.504L270.768 479.104C270.544 478.448 269.952 477.44 269.392 476.72L268.368 477.088ZM270.368 480.624C270.736 481.152 271.104 481.872 271.232 482.32L272.384 482.016C272.224 481.552 271.856 480.864 271.488 480.352L270.368 480.624ZM271.696 488.272C270.64 488.96 268.592 489.6 266.928 489.872C267.168 490.096 267.504 490.48 267.664 490.768C269.328 490.4 271.44 489.568 272.592 488.704L271.696 488.272ZM275.6 488.848C277.136 489.392 279.184 490.224 280.24 490.736L280.992 489.984C279.904 489.472 277.84 488.704 276.336 488.192L275.6 488.848ZM292.368 478.336V487.184H293.488V478.336H292.368ZM295.392 476.64V489.696C295.392 489.968 295.28 490.048 295.008 490.064C294.752 490.08 293.888 490.08 292.912 490.048C293.072 490.4 293.248 490.928 293.312 491.248C294.624 491.248 295.424 491.216 295.888 491.024C296.352 490.816 296.544 490.448 296.544 489.696V476.64H295.392ZM284.656 483.44V484.24H290.016V483.44H284.656ZM285.392 489.568V490.512H290.336V489.568H285.392ZM283.968 481.52V483.68C283.968 485.504 283.808 488.144 282.528 490.096C282.832 490.208 283.328 490.432 283.552 490.624C284.848 488.592 285.088 485.68 285.088 483.68V481.52H283.968ZM284.64 481.52V482.416H289.424V485.344H284.576V486.24H290.528V481.52H284.64ZM284.928 486.976V491.184H285.968V487.872H289.84V491.152H290.912V486.976H284.928ZM287.088 476.688C286.112 478.288 284.336 479.664 282.56 480.512C282.768 480.768 283.104 481.36 283.232 481.616C285.12 480.592 287.056 478.976 288.192 477.088L287.088 476.688ZM286.72 478C288.08 478.832 289.92 480.048 290.832 480.816L291.472 479.824C290.56 479.088 288.672 477.936 287.344 477.152L286.72 478ZM285.712 479.92V480.72H289.088V479.92H285.712ZM307.552 481.968V483.088H313.328V481.968H307.552ZM298.976 478.24V479.264H306.032V478.24H298.976ZM298.8 484.592V485.632H306.112V484.592H298.8ZM298.72 481.904V482.928H306.288V481.904H298.72ZM310.4 482.448V491.216H311.568V482.448H310.4ZM300.016 479.584C300.304 480.288 300.544 481.232 300.624 481.84L301.648 481.552C301.568 480.96 301.296 480.048 300.992 479.36L300.016 479.584ZM304.032 479.344C303.808 480.144 303.408 481.344 303.072 482.08L304.064 482.32C304.4 481.616 304.8 480.528 305.136 479.584L304.032 479.344ZM312.08 476.848C310.928 477.344 308.88 477.808 307.072 478.112C307.216 478.368 307.392 478.768 307.456 479.024C309.344 478.752 311.536 478.304 313.056 477.744L312.08 476.848ZM301.424 476.784C301.792 477.456 302.192 478.352 302.368 478.912L303.6 478.544C303.424 478 302.992 477.12 302.608 476.48L301.424 476.784ZM307.072 478.112V483.648C307.072 485.792 306.96 488.544 305.6 490.48C305.856 490.624 306.32 490.992 306.512 491.216C307.984 489.12 308.192 485.952 308.192 483.648V478.112H307.072ZM303.92 486.816C304.4 487.616 304.976 488.72 305.232 489.408L306.08 488.912C305.84 488.224 305.264 487.184 304.736 486.384L303.92 486.816ZM300.224 486.48C299.872 487.536 299.328 488.64 298.704 489.392C298.944 489.52 299.36 489.824 299.536 489.984C300.16 489.168 300.816 487.904 301.2 486.752L300.224 486.48ZM302.016 482.432V491.216H303.184V482.432H302.016ZM324.368 478.336V487.184H325.488V478.336H324.368ZM327.392 476.64V489.696C327.392 489.968 327.28 490.048 327.008 490.064C326.752 490.08 325.888 490.08 324.912 490.048C325.072 490.4 325.248 490.928 325.312 491.248C326.624 491.248 327.424 491.216 327.888 491.024C328.352 490.816 328.544 490.448 328.544 489.696V476.64H327.392ZM316.656 483.44V484.24H322.016V483.44H316.656ZM317.392 489.568V490.512H322.336V489.568H317.392ZM315.968 481.52V483.68C315.968 485.504 315.808 488.144 314.528 490.096C314.832 490.208 315.328 490.432 315.552 490.624C316.848 488.592 317.088 485.68 317.088 483.68V481.52H315.968ZM316.64 481.52V482.416H321.424V485.344H316.576V486.24H322.528V481.52H316.64ZM316.928 486.976V491.184H317.968V487.872H321.84V491.152H322.912V486.976H316.928ZM319.088 476.688C318.112 478.288 316.336 479.664 314.56 480.512C314.768 480.768 315.104 481.36 315.232 481.616C317.12 480.592 319.056 478.976 320.192 477.088L319.088 476.688ZM318.72 478C320.08 478.832 321.92 480.048 322.832 480.816L323.472 479.824C322.56 479.088 320.672 477.936 319.344 477.152L318.72 478ZM317.712 479.92V480.72H321.088V479.92H317.712ZM91.008 510.448V511.456H105.024V510.448H91.008ZM91.072 503.424V504.416H104.96V503.424H91.072ZM91.712 506.192V507.168H104.384V506.192H91.712ZM92.528 508.336V509.264H103.6V508.336H92.528ZM97.376 506.624V515.296H98.56V506.624H97.376ZM95.92 500.56V503.904H97.04V500.56H95.92ZM98.944 500.56V503.856H100.096V500.56H98.944ZM102.656 500.752C102.384 501.488 101.856 502.544 101.424 503.216L102.4 503.536C102.848 502.912 103.408 501.968 103.888 501.088L102.656 500.752ZM100.592 504.368C100.368 504.832 99.936 505.552 99.616 506.032L100.608 506.336C100.976 505.904 101.424 505.312 101.824 504.704L100.592 504.368ZM92.368 501.088C92.896 501.84 93.472 502.864 93.696 503.504L94.768 503.104C94.544 502.448 93.952 501.44 93.392 500.72L92.368 501.088ZM94.368 504.624C94.736 505.152 95.104 505.872 95.232 506.32L96.384 506.016C96.224 505.552 95.856 504.864 95.488 504.352L94.368 504.624ZM95.696 512.272C94.64 512.96 92.592 513.6 90.928 513.872C91.168 514.096 91.504 514.48 91.664 514.768C93.328 514.4 95.44 513.568 96.592 512.704L95.696 512.272ZM99.6 512.848C101.136 513.392 103.184 514.224 104.24 514.736L104.992 513.984C103.904 513.472 101.84 512.704 100.336 512.192L99.6 512.848ZM116.368 502.336V511.184H117.488V502.336H116.368ZM119.392 500.64V513.696C119.392 513.968 119.28 514.048 119.008 514.064C118.752 514.08 117.888 514.08 116.912 514.048C117.072 514.4 117.248 514.928 117.312 515.248C118.624 515.248 119.424 515.216 119.888 515.024C120.352 514.816 120.544 514.448 120.544 513.696V500.64H119.392ZM108.656 507.44V508.24H114.016V507.44H108.656ZM109.392 513.568V514.512H114.336V513.568H109.392ZM107.968 505.52V507.68C107.968 509.504 107.808 512.144 106.528 514.096C106.832 514.208 107.328 514.432 107.552 514.624C108.848 512.592 109.088 509.68 109.088 507.68V505.52H107.968ZM108.64 505.52V506.416H113.424V509.344H108.576V510.24H114.528V505.52H108.64ZM108.928 510.976V515.184H109.968V511.872H113.84V515.152H114.912V510.976H108.928ZM111.088 500.688C110.112 502.288 108.336 503.664 106.56 504.512C106.768 504.768 107.104 505.36 107.232 505.616C109.12 504.592 111.056 502.976 112.192 501.088L111.088 500.688ZM110.72 502C112.08 502.832 113.92 504.048 114.832 504.816L115.472 503.824C114.56 503.088 112.672 501.936 111.344 501.152L110.72 502ZM109.712 503.92V504.72H113.088V503.92H109.712ZM131.552 505.968V507.088H137.328V505.968H131.552ZM122.976 502.24V503.264H130.032V502.24H122.976ZM122.8 508.592V509.632H130.112V508.592H122.8ZM122.72 505.904V506.928H130.288V505.904H122.72ZM134.4 506.448V515.216H135.568V506.448H134.4ZM124.016 503.584C124.304 504.288 124.544 505.232 124.624 505.84L125.648 505.552C125.568 504.96 125.296 504.048 124.992 503.36L124.016 503.584ZM128.032 503.344C127.808 504.144 127.408 505.344 127.072 506.08L128.064 506.32C128.4 505.616 128.8 504.528 129.136 503.584L128.032 503.344ZM136.08 500.848C134.928 501.344 132.88 501.808 131.072 502.112C131.216 502.368 131.392 502.768 131.456 503.024C133.344 502.752 135.536 502.304 137.056 501.744L136.08 500.848ZM125.424 500.784C125.792 501.456 126.192 502.352 126.368 502.912L127.6 502.544C127.424 502 126.992 501.12 126.608 500.48L125.424 500.784ZM131.072 502.112V507.648C131.072 509.792 130.96 512.544 129.6 514.48C129.856 514.624 130.32 514.992 130.512 515.216C131.984 513.12 132.192 509.952 132.192 507.648V502.112H131.072ZM127.92 510.816C128.4 511.616 128.976 512.72 129.232 513.408L130.08 512.912C129.84 512.224 129.264 511.184 128.736 510.384L127.92 510.816ZM124.224 510.48C123.872 511.536 123.328 512.64 122.704 513.392C122.944 513.52 123.36 513.824 123.536 513.984C124.16 513.168 124.816 511.904 125.2 510.752L124.224 510.48ZM126.016 506.432V515.216H127.184V506.432H126.016ZM148.368 502.336V511.184H149.488V502.336H148.368ZM151.392 500.64V513.696C151.392 513.968 151.28 514.048 151.008 514.064C150.752 514.08 149.888 514.08 148.912 514.048C149.072 514.4 149.248 514.928 149.312 515.248C150.624 515.248 151.424 515.216 151.888 515.024C152.352 514.816 152.544 514.448 152.544 513.696V500.64H151.392ZM140.656 507.44V508.24H146.016V507.44H140.656ZM141.392 513.568V514.512H146.336V513.568H141.392ZM139.968 505.52V507.68C139.968 509.504 139.808 512.144 138.528 514.096C138.832 514.208 139.328 514.432 139.552 514.624C140.848 512.592 141.088 509.68 141.088 507.68V505.52H139.968ZM140.64 505.52V506.416H145.424V509.344H140.576V510.24H146.528V505.52H140.64ZM140.928 510.976V515.184H141.968V511.872H145.84V515.152H146.912V510.976H140.928ZM143.088 500.688C142.112 502.288 140.336 503.664 138.56 504.512C138.768 504.768 139.104 505.36 139.232 505.616C141.12 504.592 143.056 502.976 144.192 501.088L143.088 500.688ZM142.72 502C144.08 502.832 145.92 504.048 146.832 504.816L147.472 503.824C146.56 503.088 144.672 501.936 143.344 501.152L142.72 502ZM141.712 503.92V504.72H145.088V503.92H141.712ZM155.008 510.448V511.456H169.024V510.448H155.008ZM155.072 503.424V504.416H168.96V503.424H155.072ZM155.712 506.192V507.168H168.384V506.192H155.712ZM156.528 508.336V509.264H167.6V508.336H156.528ZM161.376 506.624V515.296H162.56V506.624H161.376ZM159.92 500.56V503.904H161.04V500.56H159.92ZM162.944 500.56V503.856H164.096V500.56H162.944ZM166.656 500.752C166.384 501.488 165.856 502.544 165.424 503.216L166.4 503.536C166.848 502.912 167.408 501.968 167.888 501.088L166.656 500.752ZM164.592 504.368C164.368 504.832 163.936 505.552 163.616 506.032L164.608 506.336C164.976 505.904 165.424 505.312 165.824 504.704L164.592 504.368ZM156.368 501.088C156.896 501.84 157.472 502.864 157.696 503.504L158.768 503.104C158.544 502.448 157.952 501.44 157.392 500.72L156.368 501.088ZM158.368 504.624C158.736 505.152 159.104 505.872 159.232 506.32L160.384 506.016C160.224 505.552 159.856 504.864 159.488 504.352L158.368 504.624ZM159.696 512.272C158.64 512.96 156.592 513.6 154.928 513.872C155.168 514.096 155.504 514.48 155.664 514.768C157.328 514.4 159.44 513.568 160.592 512.704L159.696 512.272ZM163.6 512.848C165.136 513.392 167.184 514.224 168.24 514.736L168.992 513.984C167.904 513.472 165.84 512.704 164.336 512.192L163.6 512.848Z" fill="black"/>
<path d="M97.312 542.624C97.248 545.088 97.344 552.912 90.672 556.288C91.04 556.544 91.44 556.912 91.648 557.232C98.448 553.584 98.576 545.456 98.64 542.624H97.312ZM98.496 544.592L97.344 544.72C97.568 546.112 98.224 554.208 104.56 557.168C104.736 556.832 105.088 556.416 105.44 556.144C99.296 553.408 98.64 545.744 98.496 544.592ZM107.072 545.824V547.056H120.992V545.824H107.072ZM115.408 542.56V555.408C115.408 555.728 115.28 555.824 114.96 555.84C114.656 555.856 113.536 555.856 112.4 555.808C112.576 556.176 112.784 556.72 112.832 557.072C114.432 557.088 115.36 557.056 115.92 556.848C116.48 556.64 116.72 556.272 116.72 555.408V542.56H115.408ZM114.8 546.032C113.152 549.2 109.792 552.656 106.56 554.288C106.896 554.56 107.28 555.008 107.488 555.36C110.704 553.52 114.064 549.984 115.856 546.704L114.8 546.032Z" fill="black"/>
<path d="M94.236 593.544V594.324H101.472V593.544H94.236ZM94.428 591.216V591.948H98.064V591.216H94.428ZM99.528 590.916C99.912 591.576 100.296 592.452 100.44 593.004L101.16 592.716C101.004 592.176 100.596 591.312 100.2 590.676L99.528 590.916ZM96.984 592.044C96.9 592.524 96.72 593.232 96.576 593.688L97.2 593.82C97.368 593.4 97.536 592.752 97.716 592.176L96.984 592.044ZM94.764 592.152C94.908 592.68 95.052 593.364 95.076 593.808L95.772 593.676C95.724 593.244 95.592 592.56 95.424 592.056L94.764 592.152ZM100.62 594.984C99.9 597.336 98.436 599.244 96.78 600.36C96.96 600.48 97.188 600.708 97.308 600.852C99 599.688 100.524 597.732 101.328 595.344L100.62 594.984ZM98.4 589.932C98.508 596.064 98.868 600.9 100.524 600.936C100.92 600.936 101.328 600.456 101.556 598.644C101.424 598.572 101.1 598.368 100.968 598.188C100.884 599.28 100.74 599.94 100.536 599.94C99.672 599.904 99.216 595.32 99.18 589.932H98.4ZM95.508 590.148C95.712 590.628 95.952 591.252 96.048 591.648L96.84 591.444C96.732 591.072 96.48 590.46 96.252 590.004L95.508 590.148ZM95.04 596.772V597.432H97.512V596.772H95.04ZM94.692 595.008V600.072H95.412V595.008H94.692ZM94.992 595.008V595.68H97.128V599.544H97.836V595.008H94.992ZM95.028 598.572V599.22H97.5V598.572H95.028ZM90.504 590.436V591.252H94.404V590.436H90.504ZM91.536 592.956V593.724H93.492V592.956H91.536ZM91.536 595.428V596.196H93.492V595.428H91.536ZM91.14 590.856V598.536H91.836V590.856H91.14ZM93.096 590.844V600.972H93.816V590.844H93.096ZM90.384 598.392L90.564 599.172C91.428 598.968 92.508 598.716 93.552 598.476L93.504 597.744C92.328 597.996 91.2 598.248 90.384 598.392ZM105.96 594.852V595.644H113.52V594.852H105.96ZM107.316 596.484V597.216H112.548V596.484H107.316ZM107.904 595.152C107.352 596.34 106.356 597.384 105.252 598.044C105.432 598.176 105.744 598.452 105.864 598.608C106.98 597.864 108.072 596.688 108.684 595.356L107.904 595.152ZM112.38 596.484V596.616C112.212 598.968 112.02 599.868 111.792 600.096C111.696 600.216 111.6 600.228 111.42 600.228C111.252 600.228 110.856 600.216 110.4 600.18C110.52 600.372 110.604 600.696 110.604 600.924C111.084 600.948 111.54 600.936 111.804 600.924C112.092 600.9 112.308 600.828 112.5 600.624C112.824 600.276 113.016 599.328 113.196 596.844C113.22 596.712 113.232 596.484 113.232 596.484H112.38ZM107.964 592.548H111.828V593.508H107.964V592.548ZM107.964 590.952H111.828V591.9H107.964V590.952ZM107.148 590.28V594.18H112.668V590.28H107.148ZM102.624 592.524V593.388H106.188V592.524H102.624ZM104.028 590.016V597.396H104.88V590.016H104.028ZM102.396 597.876L102.744 598.776C103.764 598.284 105.072 597.636 106.296 597.012L106.104 596.22C104.736 596.856 103.32 597.492 102.396 597.876ZM110.844 596.616C110.412 598.104 109.404 599.736 108.276 600.492C108.504 600.624 108.78 600.828 108.936 601.008C110.028 600.18 111.024 598.476 111.48 596.952L110.844 596.616ZM108.972 596.652C108.384 597.912 107.124 599.292 105.936 599.94C106.152 600.072 106.404 600.3 106.548 600.492C107.712 599.748 108.972 598.32 109.584 597.012L108.972 596.652ZM120.144 590.844V591.564H124.98V590.844H120.144ZM120.024 593.148V593.88H125.256V593.148H120.024ZM120.768 592.068C120.972 592.536 121.188 593.148 121.272 593.556L122.04 593.34C121.932 592.968 121.704 592.368 121.5 591.912L120.768 592.068ZM123.456 591.864C123.348 592.296 123.12 592.944 122.94 593.364L123.612 593.544C123.816 593.148 124.044 592.572 124.26 592.032L123.456 591.864ZM121.26 596.868C121.128 598.488 120.744 599.712 119.088 600.372C119.268 600.516 119.508 600.816 119.604 601.008C121.416 600.204 121.896 598.788 122.064 596.868H121.26ZM122.808 596.868V599.58C122.808 600.264 122.868 600.456 123.06 600.6C123.228 600.756 123.54 600.804 123.78 600.804C123.912 600.804 124.296 600.804 124.452 600.804C124.656 600.804 124.944 600.78 125.088 600.708C125.268 600.636 125.4 600.504 125.472 600.312C125.544 600.132 125.58 599.604 125.604 599.124C125.388 599.052 125.1 598.92 124.932 598.788C124.92 599.268 124.92 599.64 124.884 599.808C124.848 599.964 124.8 600.036 124.728 600.06C124.668 600.108 124.524 600.12 124.404 600.12C124.272 600.12 124.056 600.12 123.96 600.12C123.84 600.12 123.756 600.096 123.696 600.06C123.636 600.012 123.612 599.892 123.612 599.676V596.868H122.808ZM121.74 590.064C121.908 590.436 122.112 590.952 122.196 591.276L123.012 591.06C122.916 590.76 122.712 590.268 122.52 589.896L121.74 590.064ZM114.9 590.844V591.564H119.676V590.844H114.9ZM114.708 593.184V593.916H119.736V593.184H114.708ZM115.5 592.08C115.728 592.56 115.968 593.184 116.076 593.592L116.844 593.376C116.724 592.98 116.46 592.38 116.232 591.912L115.5 592.08ZM118.236 591.864C118.14 592.32 117.912 592.98 117.744 593.412L118.428 593.592C118.62 593.184 118.836 592.608 119.052 592.056L118.236 591.864ZM116.112 596.892C116.016 598.38 115.752 599.628 114.552 600.324C114.732 600.456 114.984 600.756 115.08 600.96C116.448 600.108 116.796 598.68 116.928 596.892H116.112ZM116.52 590.052C116.688 590.424 116.904 590.94 116.988 591.264L117.816 591.048C117.708 590.736 117.504 590.244 117.3 589.884L116.52 590.052ZM117.768 600.456C117.912 600.288 118.2 600.108 120.036 599.076C119.976 598.92 119.88 598.608 119.856 598.392L117.912 599.388L117.66 599.724L117.768 600.456ZM116.028 595.164H118.548V596.412H116.028V595.164ZM115.272 594.528V597.048H119.352V594.528H115.272ZM117.768 600.456C117.768 600.192 118.572 599.748 118.572 599.748V596.868H117.78V598.896C117.78 599.352 117.588 599.52 117.432 599.604C117.564 599.82 117.708 600.24 117.768 600.456ZM121.14 595.164H123.924V596.4H121.14V595.164ZM120.372 594.528V597.036H124.728V594.528H120.372ZM131.496 593.616V599.808C131.496 600.012 131.412 600.072 131.184 600.084C130.944 600.096 130.104 600.096 129.216 600.072C129.36 600.312 129.516 600.696 129.576 600.948C130.68 600.948 131.4 600.936 131.832 600.804C132.264 600.66 132.408 600.396 132.408 599.82V593.616H131.496ZM127.872 593.412V594.168H135.132V598.212H136.032V593.412H127.872ZM126.468 595.416V596.172H137.544V595.416H126.468ZM127.668 597.48V598.212H135.516V597.48H127.668ZM135.912 589.884C133.872 590.28 130.224 590.544 127.2 590.652C127.296 590.844 127.428 591.156 127.44 591.372C130.512 591.288 134.196 591.036 136.536 590.58L135.912 589.884ZM128.244 591.732C128.58 592.188 128.904 592.8 129.024 593.22L129.9 592.896C129.768 592.5 129.432 591.9 129.084 591.456L128.244 591.732ZM131.136 591.552C131.4 592.056 131.664 592.728 131.748 593.184L132.624 592.92C132.528 592.488 132.24 591.828 131.952 591.324L131.136 591.552ZM135.324 591.036C134.976 591.672 134.364 592.596 133.872 593.148L134.652 593.436C135.144 592.884 135.768 592.08 136.26 591.348L135.324 591.036ZM138.984 592.548V593.46H148.296V592.548H138.984ZM147.948 592.548V592.74C147.708 597.504 147.444 599.376 146.988 599.82C146.832 599.964 146.688 600 146.424 600C146.124 600 145.356 599.988 144.54 599.916C144.708 600.18 144.828 600.576 144.84 600.84C145.584 600.888 146.352 600.912 146.772 600.864C147.228 600.828 147.516 600.732 147.804 600.384C148.332 599.784 148.584 597.996 148.86 593.028C148.872 592.884 148.884 592.548 148.884 592.548H147.948ZM142.908 589.944V592.032C142.908 594.516 142.62 597.924 138.636 600.3C138.852 600.456 139.188 600.792 139.32 601.008C143.52 598.476 143.856 594.768 143.856 592.032V589.944H142.908ZM154.236 593.544V594.324H161.472V593.544H154.236ZM154.428 591.216V591.948H158.064V591.216H154.428ZM159.528 590.916C159.912 591.576 160.296 592.452 160.44 593.004L161.16 592.716C161.004 592.176 160.596 591.312 160.2 590.676L159.528 590.916ZM156.984 592.044C156.9 592.524 156.72 593.232 156.576 593.688L157.2 593.82C157.368 593.4 157.536 592.752 157.716 592.176L156.984 592.044ZM154.764 592.152C154.908 592.68 155.052 593.364 155.076 593.808L155.772 593.676C155.724 593.244 155.592 592.56 155.424 592.056L154.764 592.152ZM160.62 594.984C159.9 597.336 158.436 599.244 156.78 600.36C156.96 600.48 157.188 600.708 157.308 600.852C159 599.688 160.524 597.732 161.328 595.344L160.62 594.984ZM158.4 589.932C158.508 596.064 158.868 600.9 160.524 600.936C160.92 600.936 161.328 600.456 161.556 598.644C161.424 598.572 161.1 598.368 160.968 598.188C160.884 599.28 160.74 599.94 160.536 599.94C159.672 599.904 159.216 595.32 159.18 589.932H158.4ZM155.508 590.148C155.712 590.628 155.952 591.252 156.048 591.648L156.84 591.444C156.732 591.072 156.48 590.46 156.252 590.004L155.508 590.148ZM155.04 596.772V597.432H157.512V596.772H155.04ZM154.692 595.008V600.072H155.412V595.008H154.692ZM154.992 595.008V595.68H157.128V599.544H157.836V595.008H154.992ZM155.028 598.572V599.22H157.5V598.572H155.028ZM150.504 590.436V591.252H154.404V590.436H150.504ZM151.536 592.956V593.724H153.492V592.956H151.536ZM151.536 595.428V596.196H153.492V595.428H151.536ZM151.14 590.856V598.536H151.836V590.856H151.14ZM153.096 590.844V600.972H153.816V590.844H153.096ZM150.384 598.392L150.564 599.172C151.428 598.968 152.508 598.716 153.552 598.476L153.504 597.744C152.328 597.996 151.2 598.248 150.384 598.392ZM165.96 594.852V595.644H173.52V594.852H165.96ZM167.316 596.484V597.216H172.548V596.484H167.316ZM167.904 595.152C167.352 596.34 166.356 597.384 165.252 598.044C165.432 598.176 165.744 598.452 165.864 598.608C166.98 597.864 168.072 596.688 168.684 595.356L167.904 595.152ZM172.38 596.484V596.616C172.212 598.968 172.02 599.868 171.792 600.096C171.696 600.216 171.6 600.228 171.42 600.228C171.252 600.228 170.856 600.216 170.4 600.18C170.52 600.372 170.604 600.696 170.604 600.924C171.084 600.948 171.54 600.936 171.804 600.924C172.092 600.9 172.308 600.828 172.5 600.624C172.824 600.276 173.016 599.328 173.196 596.844C173.22 596.712 173.232 596.484 173.232 596.484H172.38ZM167.964 592.548H171.828V593.508H167.964V592.548ZM167.964 590.952H171.828V591.9H167.964V590.952ZM167.148 590.28V594.18H172.668V590.28H167.148ZM162.624 592.524V593.388H166.188V592.524H162.624ZM164.028 590.016V597.396H164.88V590.016H164.028ZM162.396 597.876L162.744 598.776C163.764 598.284 165.072 597.636 166.296 597.012L166.104 596.22C164.736 596.856 163.32 597.492 162.396 597.876ZM170.844 596.616C170.412 598.104 169.404 599.736 168.276 600.492C168.504 600.624 168.78 600.828 168.936 601.008C170.028 600.18 171.024 598.476 171.48 596.952L170.844 596.616ZM168.972 596.652C168.384 597.912 167.124 599.292 165.936 599.94C166.152 600.072 166.404 600.3 166.548 600.492C167.712 599.748 168.972 598.32 169.584 597.012L168.972 596.652ZM180.144 590.844V591.564H184.98V590.844H180.144ZM180.024 593.148V593.88H185.256V593.148H180.024ZM180.768 592.068C180.972 592.536 181.188 593.148 181.272 593.556L182.04 593.34C181.932 592.968 181.704 592.368 181.5 591.912L180.768 592.068ZM183.456 591.864C183.348 592.296 183.12 592.944 182.94 593.364L183.612 593.544C183.816 593.148 184.044 592.572 184.26 592.032L183.456 591.864ZM181.26 596.868C181.128 598.488 180.744 599.712 179.088 600.372C179.268 600.516 179.508 600.816 179.604 601.008C181.416 600.204 181.896 598.788 182.064 596.868H181.26ZM182.808 596.868V599.58C182.808 600.264 182.868 600.456 183.06 600.6C183.228 600.756 183.54 600.804 183.78 600.804C183.912 600.804 184.296 600.804 184.452 600.804C184.656 600.804 184.944 600.78 185.088 600.708C185.268 600.636 185.4 600.504 185.472 600.312C185.544 600.132 185.58 599.604 185.604 599.124C185.388 599.052 185.1 598.92 184.932 598.788C184.92 599.268 184.92 599.64 184.884 599.808C184.848 599.964 184.8 600.036 184.728 600.06C184.668 600.108 184.524 600.12 184.404 600.12C184.272 600.12 184.056 600.12 183.96 600.12C183.84 600.12 183.756 600.096 183.696 600.06C183.636 600.012 183.612 599.892 183.612 599.676V596.868H182.808ZM181.74 590.064C181.908 590.436 182.112 590.952 182.196 591.276L183.012 591.06C182.916 590.76 182.712 590.268 182.52 589.896L181.74 590.064ZM174.9 590.844V591.564H179.676V590.844H174.9ZM174.708 593.184V593.916H179.736V593.184H174.708ZM175.5 592.08C175.728 592.56 175.968 593.184 176.076 593.592L176.844 593.376C176.724 592.98 176.46 592.38 176.232 591.912L175.5 592.08ZM178.236 591.864C178.14 592.32 177.912 592.98 177.744 593.412L178.428 593.592C178.62 593.184 178.836 592.608 179.052 592.056L178.236 591.864ZM176.112 596.892C176.016 598.38 175.752 599.628 174.552 600.324C174.732 600.456 174.984 600.756 175.08 600.96C176.448 600.108 176.796 598.68 176.928 596.892H176.112ZM176.52 590.052C176.688 590.424 176.904 590.94 176.988 591.264L177.816 591.048C177.708 590.736 177.504 590.244 177.3 589.884L176.52 590.052ZM177.768 600.456C177.912 600.288 178.2 600.108 180.036 599.076C179.976 598.92 179.88 598.608 179.856 598.392L177.912 599.388L177.66 599.724L177.768 600.456ZM176.028 595.164H178.548V596.412H176.028V595.164ZM175.272 594.528V597.048H179.352V594.528H175.272ZM177.768 600.456C177.768 600.192 178.572 599.748 178.572 599.748V596.868H177.78V598.896C177.78 599.352 177.588 599.52 177.432 599.604C177.564 599.82 177.708 600.24 177.768 600.456ZM181.14 595.164H183.924V596.4H181.14V595.164ZM180.372 594.528V597.036H184.728V594.528H180.372ZM191.496 593.616V599.808C191.496 600.012 191.412 600.072 191.184 600.084C190.944 600.096 190.104 600.096 189.216 600.072C189.36 600.312 189.516 600.696 189.576 600.948C190.68 600.948 191.4 600.936 191.832 600.804C192.264 600.66 192.408 600.396 192.408 599.82V593.616H191.496ZM187.872 593.412V594.168H195.132V598.212H196.032V593.412H187.872ZM186.468 595.416V596.172H197.544V595.416H186.468ZM187.668 597.48V598.212H195.516V597.48H187.668ZM195.912 589.884C193.872 590.28 190.224 590.544 187.2 590.652C187.296 590.844 187.428 591.156 187.44 591.372C190.512 591.288 194.196 591.036 196.536 590.58L195.912 589.884ZM188.244 591.732C188.58 592.188 188.904 592.8 189.024 593.22L189.9 592.896C189.768 592.5 189.432 591.9 189.084 591.456L188.244 591.732ZM191.136 591.552C191.4 592.056 191.664 592.728 191.748 593.184L192.624 592.92C192.528 592.488 192.24 591.828 191.952 591.324L191.136 591.552ZM195.324 591.036C194.976 591.672 194.364 592.596 193.872 593.148L194.652 593.436C195.144 592.884 195.768 592.08 196.26 591.348L195.324 591.036ZM198.984 592.548V593.46H208.296V592.548H198.984ZM207.948 592.548V592.74C207.708 597.504 207.444 599.376 206.988 599.82C206.832 599.964 206.688 600 206.424 600C206.124 600 205.356 599.988 204.54 599.916C204.708 600.18 204.828 600.576 204.84 600.84C205.584 600.888 206.352 600.912 206.772 600.864C207.228 600.828 207.516 600.732 207.804 600.384C208.332 599.784 208.584 597.996 208.86 593.028C208.872 592.884 208.884 592.548 208.884 592.548H207.948ZM202.908 589.944V592.032C202.908 594.516 202.62 597.924 198.636 600.3C198.852 600.456 199.188 600.792 199.32 601.008C203.52 598.476 203.856 594.768 203.856 592.032V589.944H202.908ZM214.236 593.544V594.324H221.472V593.544H214.236ZM214.428 591.216V591.948H218.064V591.216H214.428ZM219.528 590.916C219.912 591.576 220.296 592.452 220.44 593.004L221.16 592.716C221.004 592.176 220.596 591.312 220.2 590.676L219.528 590.916ZM216.984 592.044C216.9 592.524 216.72 593.232 216.576 593.688L217.2 593.82C217.368 593.4 217.536 592.752 217.716 592.176L216.984 592.044ZM214.764 592.152C214.908 592.68 215.052 593.364 215.076 593.808L215.772 593.676C215.724 593.244 215.592 592.56 215.424 592.056L214.764 592.152ZM220.62 594.984C219.9 597.336 218.436 599.244 216.78 600.36C216.96 600.48 217.188 600.708 217.308 600.852C219 599.688 220.524 597.732 221.328 595.344L220.62 594.984ZM218.4 589.932C218.508 596.064 218.868 600.9 220.524 600.936C220.92 600.936 221.328 600.456 221.556 598.644C221.424 598.572 221.1 598.368 220.968 598.188C220.884 599.28 220.74 599.94 220.536 599.94C219.672 599.904 219.216 595.32 219.18 589.932H218.4ZM215.508 590.148C215.712 590.628 215.952 591.252 216.048 591.648L216.84 591.444C216.732 591.072 216.48 590.46 216.252 590.004L215.508 590.148ZM215.04 596.772V597.432H217.512V596.772H215.04ZM214.692 595.008V600.072H215.412V595.008H214.692ZM214.992 595.008V595.68H217.128V599.544H217.836V595.008H214.992ZM215.028 598.572V599.22H217.5V598.572H215.028ZM210.504 590.436V591.252H214.404V590.436H210.504ZM211.536 592.956V593.724H213.492V592.956H211.536ZM211.536 595.428V596.196H213.492V595.428H211.536ZM211.14 590.856V598.536H211.836V590.856H211.14ZM213.096 590.844V600.972H213.816V590.844H213.096ZM210.384 598.392L210.564 599.172C211.428 598.968 212.508 598.716 213.552 598.476L213.504 597.744C212.328 597.996 211.2 598.248 210.384 598.392ZM225.96 594.852V595.644H233.52V594.852H225.96ZM227.316 596.484V597.216H232.548V596.484H227.316ZM227.904 595.152C227.352 596.34 226.356 597.384 225.252 598.044C225.432 598.176 225.744 598.452 225.864 598.608C226.98 597.864 228.072 596.688 228.684 595.356L227.904 595.152ZM232.38 596.484V596.616C232.212 598.968 232.02 599.868 231.792 600.096C231.696 600.216 231.6 600.228 231.42 600.228C231.252 600.228 230.856 600.216 230.4 600.18C230.52 600.372 230.604 600.696 230.604 600.924C231.084 600.948 231.54 600.936 231.804 600.924C232.092 600.9 232.308 600.828 232.5 600.624C232.824 600.276 233.016 599.328 233.196 596.844C233.22 596.712 233.232 596.484 233.232 596.484H232.38ZM227.964 592.548H231.828V593.508H227.964V592.548ZM227.964 590.952H231.828V591.9H227.964V590.952ZM227.148 590.28V594.18H232.668V590.28H227.148ZM222.624 592.524V593.388H226.188V592.524H222.624ZM224.028 590.016V597.396H224.88V590.016H224.028ZM222.396 597.876L222.744 598.776C223.764 598.284 225.072 597.636 226.296 597.012L226.104 596.22C224.736 596.856 223.32 597.492 222.396 597.876ZM230.844 596.616C230.412 598.104 229.404 599.736 228.276 600.492C228.504 600.624 228.78 600.828 228.936 601.008C230.028 600.18 231.024 598.476 231.48 596.952L230.844 596.616ZM228.972 596.652C228.384 597.912 227.124 599.292 225.936 599.94C226.152 600.072 226.404 600.3 226.548 600.492C227.712 599.748 228.972 598.32 229.584 597.012L228.972 596.652ZM240.144 590.844V591.564H244.98V590.844H240.144ZM240.024 593.148V593.88H245.256V593.148H240.024ZM240.768 592.068C240.972 592.536 241.188 593.148 241.272 593.556L242.04 593.34C241.932 592.968 241.704 592.368 241.5 591.912L240.768 592.068ZM243.456 591.864C243.348 592.296 243.12 592.944 242.94 593.364L243.612 593.544C243.816 593.148 244.044 592.572 244.26 592.032L243.456 591.864ZM241.26 596.868C241.128 598.488 240.744 599.712 239.088 600.372C239.268 600.516 239.508 600.816 239.604 601.008C241.416 600.204 241.896 598.788 242.064 596.868H241.26ZM242.808 596.868V599.58C242.808 600.264 242.868 600.456 243.06 600.6C243.228 600.756 243.54 600.804 243.78 600.804C243.912 600.804 244.296 600.804 244.452 600.804C244.656 600.804 244.944 600.78 245.088 600.708C245.268 600.636 245.4 600.504 245.472 600.312C245.544 600.132 245.58 599.604 245.604 599.124C245.388 599.052 245.1 598.92 244.932 598.788C244.92 599.268 244.92 599.64 244.884 599.808C244.848 599.964 244.8 600.036 244.728 600.06C244.668 600.108 244.524 600.12 244.404 600.12C244.272 600.12 244.056 600.12 243.96 600.12C243.84 600.12 243.756 600.096 243.696 600.06C243.636 600.012 243.612 599.892 243.612 599.676V596.868H242.808ZM241.74 590.064C241.908 590.436 242.112 590.952 242.196 591.276L243.012 591.06C242.916 590.76 242.712 590.268 242.52 589.896L241.74 590.064ZM234.9 590.844V591.564H239.676V590.844H234.9ZM234.708 593.184V593.916H239.736V593.184H234.708ZM235.5 592.08C235.728 592.56 235.968 593.184 236.076 593.592L236.844 593.376C236.724 592.98 236.46 592.38 236.232 591.912L235.5 592.08ZM238.236 591.864C238.14 592.32 237.912 592.98 237.744 593.412L238.428 593.592C238.62 593.184 238.836 592.608 239.052 592.056L238.236 591.864ZM236.112 596.892C236.016 598.38 235.752 599.628 234.552 600.324C234.732 600.456 234.984 600.756 235.08 600.96C236.448 600.108 236.796 598.68 236.928 596.892H236.112ZM236.52 590.052C236.688 590.424 236.904 590.94 236.988 591.264L237.816 591.048C237.708 590.736 237.504 590.244 237.3 589.884L236.52 590.052ZM237.768 600.456C237.912 600.288 238.2 600.108 240.036 599.076C239.976 598.92 239.88 598.608 239.856 598.392L237.912 599.388L237.66 599.724L237.768 600.456ZM236.028 595.164H238.548V596.412H236.028V595.164ZM235.272 594.528V597.048H239.352V594.528H235.272ZM237.768 600.456C237.768 600.192 238.572 599.748 238.572 599.748V596.868H237.78V598.896C237.78 599.352 237.588 599.52 237.432 599.604C237.564 599.82 237.708 600.24 237.768 600.456ZM241.14 595.164H243.924V596.4H241.14V595.164ZM240.372 594.528V597.036H244.728V594.528H240.372ZM251.496 593.616V599.808C251.496 600.012 251.412 600.072 251.184 600.084C250.944 600.096 250.104 600.096 249.216 600.072C249.36 600.312 249.516 600.696 249.576 600.948C250.68 600.948 251.4 600.936 251.832 600.804C252.264 600.66 252.408 600.396 252.408 599.82V593.616H251.496ZM247.872 593.412V594.168H255.132V598.212H256.032V593.412H247.872ZM246.468 595.416V596.172H257.544V595.416H246.468ZM247.668 597.48V598.212H255.516V597.48H247.668ZM255.912 589.884C253.872 590.28 250.224 590.544 247.2 590.652C247.296 590.844 247.428 591.156 247.44 591.372C250.512 591.288 254.196 591.036 256.536 590.58L255.912 589.884ZM248.244 591.732C248.58 592.188 248.904 592.8 249.024 593.22L249.9 592.896C249.768 592.5 249.432 591.9 249.084 591.456L248.244 591.732ZM251.136 591.552C251.4 592.056 251.664 592.728 251.748 593.184L252.624 592.92C252.528 592.488 252.24 591.828 251.952 591.324L251.136 591.552ZM255.324 591.036C254.976 591.672 254.364 592.596 253.872 593.148L254.652 593.436C255.144 592.884 255.768 592.08 256.26 591.348L255.324 591.036ZM258.984 592.548V593.46H268.296V592.548H258.984ZM267.948 592.548V592.74C267.708 597.504 267.444 599.376 266.988 599.82C266.832 599.964 266.688 600 266.424 600C266.124 600 265.356 599.988 264.54 599.916C264.708 600.18 264.828 600.576 264.84 600.84C265.584 600.888 266.352 600.912 266.772 600.864C267.228 600.828 267.516 600.732 267.804 600.384C268.332 599.784 268.584 597.996 268.86 593.028C268.872 592.884 268.884 592.548 268.884 592.548H267.948ZM262.908 589.944V592.032C262.908 594.516 262.62 597.924 258.636 600.3C258.852 600.456 259.188 600.792 259.32 601.008C263.52 598.476 263.856 594.768 263.856 592.032V589.944H262.908Z" fill="black"/>
<rect x="40" y="140" width="298" height="30" fill="#FAFAFA"/>
<path d="M54.088 149.598V150.998H56.748V149.598H54.088ZM50.448 152.062V153.546H57.084V152.062H50.448ZM53.29 148.254V152.818H54.76V148.254H53.29ZM51.232 149.29V153.14H52.548V149.29H51.232ZM55.474 156.052C54.662 158.152 52.94 159.328 50.532 159.93C50.896 160.28 51.288 160.854 51.442 161.302C54.13 160.434 55.964 158.992 56.888 156.472L55.474 156.052ZM55.124 154.274C55.488 154.988 55.838 155.94 55.95 156.528L57.28 156.038C57.14 155.45 56.748 154.54 56.37 153.854L55.124 154.274ZM53.29 153.238V156.528C53.29 156.654 53.248 156.682 53.122 156.682C52.996 156.696 52.59 156.696 52.212 156.682C52.38 157.074 52.548 157.634 52.576 158.04C53.304 158.04 53.836 158.026 54.242 157.816C54.676 157.592 54.76 157.214 54.76 156.556V153.238H53.29ZM51.428 153.896C51.218 154.862 50.826 155.898 50.322 156.556C50.672 156.71 51.316 157.046 51.624 157.27C52.128 156.528 52.618 155.338 52.87 154.218L51.428 153.896ZM57.028 148.66V150.074H63.398V148.66H57.028ZM58.806 154.33H61.634V155.184H58.806V154.33ZM58.806 156.36H61.634V157.228H58.806V156.36ZM58.806 152.286H61.634V153.154H58.806V152.286ZM57.364 151.04V158.474H63.132V151.04H57.364ZM59.436 149.43C59.394 150.102 59.24 151.04 59.114 151.684L60.458 151.936C60.682 151.348 60.962 150.48 61.2 149.626L59.436 149.43ZM58.568 158.46C58.022 159.062 56.916 159.846 55.964 160.238C56.328 160.532 56.818 160.98 57.084 161.288C58.036 160.854 59.226 160.056 59.926 159.342L58.568 158.46ZM60.458 159.356C61.158 159.93 62.068 160.756 62.488 161.274L63.79 160.378C63.328 159.846 62.39 159.076 61.69 158.558L60.458 159.356ZM68.368 149.64V150.998H77.342V149.64H68.368ZM71.868 150.298C71.812 150.844 71.658 151.628 71.518 152.188L72.876 152.426C73.142 151.922 73.52 151.166 73.8 150.41L71.868 150.298ZM74.234 148.1C74.066 148.576 73.716 149.262 73.45 149.724L74.85 150.074C75.158 149.668 75.536 149.08 75.928 148.464L74.234 148.1ZM69.67 148.618C70.034 149.066 70.398 149.71 70.524 150.116L71.91 149.57C71.77 149.15 71.378 148.548 70.986 148.128L69.67 148.618ZM67.878 153.574H64.602V155.128H66.24V158.726H67.878V153.574ZM67.878 157.998H66.338C65.694 158.502 64.938 158.992 64.308 159.384L65.134 161.134C65.89 160.518 66.52 159.986 67.136 159.44C68.046 160.532 69.208 160.938 70.93 161.008C72.61 161.078 75.438 161.05 77.132 160.966C77.202 160.462 77.482 159.65 77.664 159.258C75.774 159.412 72.596 159.454 70.958 159.384C69.502 159.328 68.438 158.922 67.878 157.998ZM64.63 149.444C65.456 150.074 66.464 151.012 66.884 151.67L68.228 150.564C67.738 149.906 66.716 149.024 65.876 148.436L64.63 149.444ZM70.902 154.806H74.724V155.534H70.902V154.806ZM70.902 156.654H74.724V157.396H70.902V156.654ZM70.902 152.958H74.724V153.686H70.902V152.958ZM69.32 151.74V158.614H76.376V151.74H69.32ZM80.716 153.252V154.89H88.29V153.252H80.716ZM87.744 153.252V153.56C87.618 157.452 87.464 159.02 87.128 159.384C86.974 159.538 86.82 159.58 86.568 159.58C86.218 159.58 85.49 159.566 84.706 159.496C85.014 159.972 85.238 160.7 85.266 161.19C86.092 161.218 86.904 161.232 87.394 161.162C87.926 161.078 88.318 160.952 88.668 160.476C89.158 159.902 89.326 158.236 89.48 153.98C89.494 153.77 89.508 153.252 89.508 153.252H87.744ZM82.298 148.296C81.458 150.424 79.904 152.384 78.14 153.546C78.546 153.868 79.274 154.54 79.596 154.904C81.36 153.518 83.068 151.264 84.118 148.828L82.298 148.296ZM87.632 148.268L85.98 148.926C87.086 151.068 88.808 153.336 90.39 154.792C90.712 154.316 91.356 153.63 91.818 153.266C90.278 152.09 88.514 150.046 87.632 148.268ZM83.222 153.728C82.998 156.22 82.662 158.586 78.91 159.818C79.302 160.182 79.792 160.896 80.002 161.358C84.174 159.804 84.776 156.878 85.042 153.728H83.222ZM92.63 155.8V157.242H98.692V155.8H92.63ZM92.63 150.508V151.81H98.58V150.508H92.63ZM97.264 148.352C97.124 148.856 96.858 149.584 96.62 150.074L97.698 150.424C97.964 149.99 98.3 149.36 98.65 148.716L97.264 148.352ZM94.87 148.282V154.54H96.326V148.282H94.87ZM92.742 148.828C93.05 149.346 93.33 150.032 93.4 150.48L94.59 150.018C94.492 149.57 94.184 148.912 93.862 148.408L92.742 148.828ZM95.024 158.362C95.878 158.95 97.054 159.832 97.6 160.378L98.636 159.244C98.048 158.712 96.858 157.886 96.004 157.354L95.024 158.362ZM96.256 151.768L95.43 152.482C96.06 152.902 97.348 153.896 97.894 154.414L98.762 153.238C98.384 152.972 96.76 152.006 96.256 151.768ZM94.772 151.25C94.254 152.174 93.26 153.168 92.322 153.686C92.63 153.938 93.078 154.442 93.288 154.764C94.282 154.092 95.29 152.832 95.85 151.642L94.772 151.25ZM98.748 148.66V150.102H105.426V148.66H98.748ZM100.652 154.26H103.466V155.114H100.652V154.26ZM100.652 156.276H103.466V157.158H100.652V156.276ZM100.652 152.244H103.466V153.098H100.652V152.244ZM99.14 150.984V158.404H105.048V150.984H99.14ZM101.212 149.43C101.114 150.102 100.904 151.04 100.694 151.684L102.094 151.964C102.374 151.376 102.738 150.508 103.06 149.64L101.212 149.43ZM100.344 158.418C99.798 159.02 98.692 159.79 97.726 160.196C98.09 160.476 98.552 160.952 98.818 161.274C99.826 160.826 101.002 160.028 101.716 159.3L100.344 158.418ZM102.234 159.342C103.004 159.902 104.026 160.728 104.488 161.246L105.776 160.35C105.244 159.818 104.194 159.034 103.424 158.516L102.234 159.342ZM94.828 154.834V156.318C94.828 157.466 94.548 158.894 92.266 159.832C92.56 160.112 92.994 160.714 93.162 161.078C95.934 159.888 96.34 157.956 96.34 156.36V154.834H94.828Z" fill="black"/>
<path d="M299.078 241.95L305.648 248.646C305.806 248.804 306.09 248.804 306.248 248.646L312.818 241.95C313.007 241.76 313.007 241.476 312.818 241.286C312.628 241.128 312.376 241.128 312.218 241.286L305.964 247.667L299.71 241.286C299.615 241.192 299.489 241.16 299.394 241.16C299.268 241.16 299.173 241.192 299.078 241.286C298.92 241.476 298.92 241.76 299.078 241.95V241.95Z" fill="black"/>
<path d="M299.078 191.95L305.648 198.646C305.806 198.804 306.09 198.804 306.248 198.646L312.818 191.95C313.007 191.76 313.007 191.476 312.818 191.286C312.628 191.128 312.376 191.128 312.218 191.286L305.964 197.667L299.71 191.286C299.615 191.192 299.489 191.16 299.394 191.16C299.268 191.16 299.173 191.192 299.078 191.286C298.92 191.476 298.92 191.76 299.078 191.95V191.95Z" fill="black"/>
<path d="M312.818 347.963L306.26 341.278C306.102 341.121 305.818 341.121 305.66 341.278L299.102 347.963C298.913 348.152 298.913 348.436 299.102 348.625C299.291 348.783 299.543 348.783 299.701 348.625L305.976 342.256L312.219 348.625C312.314 348.72 312.408 348.751 312.534 348.751C312.661 348.751 312.755 348.72 312.818 348.625C313.007 348.436 313.007 348.152 312.818 347.963V347.963Z" fill="black"/>
<line x1="39" y1="139.5" x2="339" y2="139.5" stroke="#D3D5D7"/>
<line x1="39" y1="89.5" x2="339" y2="89.5" stroke="#D3D5D7"/>
<line x1="39" y1="219.5" x2="339" y2="219.5" stroke="#D3D5D7"/>
<line x1="39" y1="269.5" x2="339" y2="269.5" stroke="#D3D5D7"/>
<line x1="39" y1="319.5" x2="339" y2="319.5" stroke="#D3D5D7"/>
<path d="M299.078 295.95L305.648 302.646C305.806 302.804 306.09 302.804 306.248 302.646L312.818 295.95C313.007 295.76 313.007 295.476 312.818 295.286C312.628 295.128 312.376 295.128 312.218 295.286L305.964 301.667L299.71 295.286C299.615 295.192 299.489 295.16 299.394 295.16C299.268 295.16 299.173 295.192 299.078 295.286C298.92 295.476 298.92 295.76 299.078 295.95V295.95Z" fill="black"/>
<path d="M83.6875 297C83.6875 302.35 79.3503 306.688 74 306.688C68.6497 306.688 64.3125 302.35 64.3125 297C64.3125 291.65 68.6497 287.312 74 287.312C79.3503 287.312 83.6875 291.65 83.6875 297ZM72.8794 302.129L80.067 294.942C80.311 294.698 80.311 294.302 80.067 294.058L79.1831 293.174C78.939 292.93 78.5433 292.93 78.2992 293.174L72.4375 299.036L69.7008 296.299C69.4568 296.055 69.061 296.055 68.8169 296.299L67.9331 297.183C67.689 297.427 67.689 297.823 67.9331 298.067L71.9956 302.129C72.2396 302.373 72.6354 302.373 72.8795 302.129L72.8794 302.129Z" fill="black"/>
</svg>
