<svg width="545" height="728" viewBox="0 0 545 728" fill="none" xmlns="http://www.w3.org/2000/svg">
<rect width="545" height="728" fill="#F7F7F7"/>
<path d="M91.132 115.168C92.608 115.168 94.012 114.064 94.012 112.144C94.012 110.2 92.824 109.336 91.36 109.336C90.832 109.336 90.436 109.468 90.04 109.684L90.268 107.14H93.592V106.204H89.308L89.032 110.32L89.62 110.692C90.124 110.356 90.496 110.164 91.084 110.164C92.176 110.164 92.896 110.92 92.896 112.18C92.896 113.452 92.068 114.256 91.024 114.256C90.016 114.256 89.368 113.788 88.876 113.272L88.324 113.992C88.924 114.592 89.764 115.168 91.132 115.168ZM97.9923 115.168C99.6483 115.168 100.716 113.644 100.716 110.572C100.716 107.524 99.6483 106.048 97.9923 106.048C96.3123 106.048 95.2443 107.524 95.2443 110.572C95.2443 113.644 96.3123 115.168 97.9923 115.168ZM97.9923 114.28C96.9843 114.28 96.3003 113.164 96.3003 110.572C96.3003 108.016 96.9843 106.924 97.9923 106.924C98.9883 106.924 99.6603 108.016 99.6603 110.572C99.6603 113.164 98.9883 114.28 97.9923 114.28Z" fill="#D60C18"/>
<path d="M91.156 203.168C92.728 203.168 93.988 202.22 93.988 200.66C93.988 199.448 93.148 198.668 92.116 198.416V198.368C93.052 198.032 93.676 197.324 93.676 196.256C93.676 194.852 92.596 194.048 91.12 194.048C90.112 194.048 89.332 194.492 88.672 195.092L89.26 195.8C89.752 195.296 90.376 194.936 91.084 194.936C91.996 194.936 92.56 195.488 92.56 196.328C92.56 197.288 91.948 198.008 90.136 198.008V198.86C92.164 198.86 92.872 199.556 92.872 200.612C92.872 201.62 92.128 202.256 91.084 202.256C90.076 202.256 89.416 201.776 88.9 201.236L88.348 201.956C88.924 202.592 89.776 203.168 91.156 203.168ZM97.9923 203.168C99.6483 203.168 100.716 201.644 100.716 198.572C100.716 195.524 99.6483 194.048 97.9923 194.048C96.3123 194.048 95.2443 195.524 95.2443 198.572C95.2443 201.644 96.3123 203.168 97.9923 203.168ZM97.9923 202.28C96.9843 202.28 96.3003 201.164 96.3003 198.572C96.3003 196.016 96.9843 194.924 97.9923 194.924C98.9883 194.924 99.6603 196.016 99.6603 198.572C99.6603 201.164 98.9883 202.28 97.9923 202.28Z" fill="#D60C18"/>
<line x1="103.5" y1="87.5" x2="86.5" y2="87.5" stroke="#939EA7" stroke-linecap="square" stroke-dasharray="2 2"/>
<path d="M248.156 79.168C249.728 79.168 250.988 78.22 250.988 76.66C250.988 75.448 250.148 74.668 249.116 74.416V74.368C250.052 74.032 250.676 73.324 250.676 72.256C250.676 70.852 249.596 70.048 248.12 70.048C247.112 70.048 246.332 70.492 245.672 71.092L246.26 71.8C246.752 71.296 247.376 70.936 248.084 70.936C248.996 70.936 249.56 71.488 249.56 72.328C249.56 73.288 248.948 74.008 247.136 74.008V74.86C249.164 74.86 249.872 75.556 249.872 76.612C249.872 77.62 249.128 78.256 248.084 78.256C247.076 78.256 246.416 77.776 245.9 77.236L245.348 77.956C245.924 78.592 246.776 79.168 248.156 79.168ZM254.992 79.168C256.648 79.168 257.716 77.644 257.716 74.572C257.716 71.524 256.648 70.048 254.992 70.048C253.312 70.048 252.244 71.524 252.244 74.572C252.244 77.644 253.312 79.168 254.992 79.168ZM254.992 78.28C253.984 78.28 253.3 77.164 253.3 74.572C253.3 72.016 253.984 70.924 254.992 70.924C255.988 70.924 256.66 72.016 256.66 74.572C256.66 77.164 255.988 78.28 254.992 78.28ZM261.649 79.168C263.305 79.168 264.372 77.644 264.372 74.572C264.372 71.524 263.305 70.048 261.649 70.048C259.969 70.048 258.901 71.524 258.901 74.572C258.901 77.644 259.969 79.168 261.649 79.168ZM261.649 78.28C260.641 78.28 259.957 77.164 259.957 74.572C259.957 72.016 260.641 70.924 261.649 70.924C262.645 70.924 263.317 72.016 263.317 74.572C263.317 77.164 262.645 78.28 261.649 78.28Z" fill="#D60C18"/>
<line x1="103.5" y1="184.5" x2="86.5" y2="184.5" stroke="#939EA7" stroke-linecap="square" stroke-dasharray="2 2"/>
<line x1="103.5" y1="134.5" x2="86.5" y2="134.5" stroke="#939EA7" stroke-linecap="square" stroke-dasharray="2 2"/>
<line x1="105.5" y1="81.5" x2="105.5" y2="64.5" stroke="#939EA7" stroke-linecap="square" stroke-dasharray="2 2"/>
<line x1="404.5" y1="81.5" x2="404.5" y2="64.5" stroke="#939EA7" stroke-linecap="square" stroke-dasharray="2 2"/>
<line x1="103.5" y1="213.5" x2="86.5" y2="213.5" stroke="#939EA7" stroke-linecap="square" stroke-dasharray="2 2"/>
<rect x="105.5" y="84.5" width="299" height="603" fill="white" stroke="#EEEEEE"/>
<rect x="405" y="84" width="100" height="604" fill="black" fill-opacity="0.4"/>
<path d="M105.056 243H109.88V242.088H108.104V234.204H107.264C106.796 234.492 106.232 234.696 105.44 234.828V235.536H107.012V242.088H105.056V243ZM113.992 243.168C115.648 243.168 116.716 241.644 116.716 238.572C116.716 235.524 115.648 234.048 113.992 234.048C112.312 234.048 111.244 235.524 111.244 238.572C111.244 241.644 112.312 243.168 113.992 243.168ZM113.992 242.28C112.984 242.28 112.3 241.164 112.3 238.572C112.3 236.016 112.984 234.924 113.992 234.924C114.988 234.924 115.66 236.016 115.66 238.572C115.66 241.164 114.988 242.28 113.992 242.28Z" fill="#D60C18"/>
<path d="M111.528 295H117.048V294.064H114.612C114.168 294.064 113.64 294.1 113.172 294.148C115.248 292.192 116.628 290.404 116.628 288.64C116.628 287.068 115.644 286.048 114.072 286.048C112.956 286.048 112.188 286.564 111.468 287.344L112.104 287.956C112.596 287.38 113.22 286.936 113.94 286.936C115.032 286.936 115.548 287.68 115.548 288.688C115.548 290.188 114.288 291.952 111.528 294.364V295ZM120.788 295.168C122.264 295.168 123.668 294.064 123.668 292.144C123.668 290.2 122.48 289.336 121.016 289.336C120.488 289.336 120.092 289.468 119.696 289.684L119.924 287.14H123.248V286.204H118.964L118.688 290.32L119.276 290.692C119.78 290.356 120.152 290.164 120.74 290.164C121.832 290.164 122.552 290.92 122.552 292.18C122.552 293.452 121.724 294.256 120.68 294.256C119.672 294.256 119.024 293.788 118.532 293.272L117.98 293.992C118.58 294.592 119.42 295.168 120.788 295.168Z" fill="#D60C18"/>
<path d="M385.528 295H391.048V294.064H388.612C388.168 294.064 387.64 294.1 387.172 294.148C389.248 292.192 390.628 290.404 390.628 288.64C390.628 287.068 389.644 286.048 388.072 286.048C386.956 286.048 386.188 286.564 385.468 287.344L386.104 287.956C386.596 287.38 387.22 286.936 387.94 286.936C389.032 286.936 389.548 287.68 389.548 288.688C389.548 290.188 388.288 291.952 385.528 294.364V295ZM394.788 295.168C396.264 295.168 397.668 294.064 397.668 292.144C397.668 290.2 396.48 289.336 395.016 289.336C394.488 289.336 394.092 289.468 393.696 289.684L393.924 287.14H397.248V286.204H392.964L392.688 290.32L393.276 290.692C393.78 290.356 394.152 290.164 394.74 290.164C395.832 290.164 396.552 290.92 396.552 292.18C396.552 293.452 395.724 294.256 394.68 294.256C393.672 294.256 393.024 293.788 392.532 293.272L391.98 293.992C392.58 294.592 393.42 295.168 394.788 295.168Z" fill="#D60C18"/>
<line x1="105.5" y1="299.5" x2="105.5" y2="282.5" stroke="#939EA7" stroke-linecap="square" stroke-dasharray="2 2"/>
<line x1="129.5" y1="299.5" x2="129.5" y2="282.5" stroke="#939EA7" stroke-linecap="square" stroke-dasharray="2 2"/>
<line x1="105.5" y1="230.5" x2="105.5" y2="213.5" stroke="#939EA7" stroke-linecap="square" stroke-dasharray="2 2"/>
<path d="M135.984 108H139.872V111.68H135.984V108ZM134.848 106.928V112.736H141.072V106.928H134.848ZM131.312 103.216V117.264H132.544V104.432H143.408V117.264H144.688V103.216H131.312ZM132 115.28V116.416H144.144V115.28H132ZM149.616 110.032V111.008H158.416V110.032H149.616ZM149.616 112.656V113.616H158.416V112.656H149.616ZM149.616 115.296V116.368H158.464V115.296H149.616ZM146.848 104.784V105.904H161.168V104.784H146.848ZM148.672 107.392V117.28H149.872V108.448H158.08V117.28H159.312V107.392H148.672ZM153.408 105.36C153.28 106.112 153.008 107.2 152.736 107.92L153.904 108.096C154.192 107.408 154.576 106.4 154.88 105.456L153.408 105.36ZM157.216 102.544C156.848 103.264 156.192 104.272 155.648 104.928L156.688 105.264C157.264 104.656 157.968 103.76 158.544 102.896L157.216 102.544ZM149.632 102.976C150.192 103.584 150.832 104.432 151.104 104.992L152.224 104.416C151.904 103.872 151.28 103.072 150.688 102.512L149.632 102.976ZM166.064 109.296H174.144V110.768H166.064V109.296ZM166.064 111.696H174.144V113.168H166.064V111.696ZM166.064 106.928H174.144V108.368H166.064V106.928ZM164.816 105.968V114.128H175.424V105.968H164.816ZM171.184 115.184C173.056 115.824 174.96 116.672 176.096 117.296L177.216 116.48C175.968 115.856 173.92 115.024 172.032 114.4L171.184 115.184ZM163.296 103.392V104.496H176.656V103.392H163.296ZM169.392 103.856C169.296 104.592 169.056 105.664 168.832 106.368L169.968 106.576C170.224 105.92 170.528 104.944 170.8 104.032L169.392 103.856ZM167.744 114.32C166.64 115.056 164.448 115.888 162.72 116.352C162.992 116.608 163.36 117.024 163.552 117.28C165.264 116.8 167.44 115.952 168.832 115.104L167.744 114.32Z" fill="black"/>
<path d="M137.52 236.384V237.504H145.376V236.384H137.52ZM142.128 232.624V245.776C142.128 246.048 142.048 246.128 141.776 246.128C141.536 246.144 140.736 246.144 139.84 246.128C140.032 246.448 140.208 246.976 140.272 247.296C141.488 247.296 142.224 247.264 142.688 247.056C143.136 246.848 143.328 246.496 143.328 245.776V232.624H142.128ZM141.936 236.848C140.976 239.616 139.104 242.48 137.152 243.856C137.424 244.064 137.776 244.464 137.984 244.736C139.968 243.152 141.84 240.192 142.896 237.136L141.936 236.848ZM132.48 243.6C132.08 244.72 131.36 245.856 130.528 246.592C130.8 246.752 131.296 247.104 131.504 247.312C132.336 246.48 133.152 245.184 133.632 243.888L132.48 243.6ZM134.768 244.048C135.408 244.848 136.128 245.968 136.448 246.688L137.472 246.16C137.152 245.44 136.4 244.384 135.728 243.584L134.768 244.048ZM132.528 237.168H135.824V239.232H132.528V237.168ZM132.528 240.16H135.824V242.256H132.528V240.16ZM132.528 234.176H135.824V236.224H132.528V234.176ZM131.376 233.184V243.248H137.008V233.184H131.376ZM152.608 233.36V234.448H161.12V233.36H152.608ZM152.96 241.664V242.736H160.624V241.664H152.96ZM152.08 245.808V246.912H161.28V245.808H152.08ZM156.176 242.176V246.48H157.376V242.176H156.176ZM154.144 234.976C153.776 235.744 153.072 236.944 152.432 237.92C153.28 239.04 154.032 240.272 154.368 241.104L155.376 240.688C155.024 239.968 154.304 238.832 153.6 237.904C154.144 237.088 154.768 236.064 155.184 235.248L154.144 234.976ZM156.912 234.992C156.544 235.744 155.84 236.944 155.168 237.904C156.048 239.008 156.832 240.24 157.184 241.072L158.176 240.64C157.824 239.92 157.072 238.8 156.352 237.888C156.896 237.088 157.52 236.08 157.968 235.264L156.912 234.992ZM159.68 234.976C159.296 235.744 158.576 236.96 157.888 237.92C158.8 239.024 159.648 240.272 160.048 241.104L161.024 240.64C160.64 239.92 159.84 238.816 159.088 237.904C159.632 237.088 160.272 236.08 160.752 235.264L159.68 234.976ZM150.448 238.88C150.88 239.968 151.296 241.408 151.456 242.256L152.432 241.936C152.272 241.088 151.808 239.68 151.376 238.624L150.448 238.88ZM148.992 243.008C149.184 244.08 149.36 245.488 149.392 246.416L150.368 246.224C150.32 245.296 150.112 243.92 149.92 242.832L148.992 243.008ZM147.328 242.864C147.184 244.192 146.944 245.648 146.56 246.64C146.816 246.736 147.312 246.896 147.536 247.008C147.872 246 148.192 244.448 148.368 243.04L147.328 242.864ZM146.944 238.56C146.944 238.32 147.664 237.952 147.664 237.952V237.936C148.736 236.656 149.824 234.784 150.656 232.992L149.568 232.544C148.928 234.288 147.808 236.128 147.456 236.592C147.12 237.088 146.848 237.424 146.56 237.488C146.704 237.776 146.88 238.32 146.944 238.56ZM146.944 238.56C147.2 238.432 147.648 238.336 150.224 238.048C150.224 237.808 150.256 237.376 150.32 237.088L147.488 237.328L146.912 237.68L146.944 238.56ZM147.04 242.16C147.04 241.92 147.792 241.568 147.792 241.568V241.536C149.312 239.984 150.832 237.76 152.048 235.6L151.024 235.008C149.984 237.152 148.336 239.424 147.84 240C147.36 240.576 147.008 240.992 146.656 241.056C146.8 241.376 146.976 241.92 147.04 242.16ZM147.04 242.16C147.36 242 147.856 241.888 151.472 241.36C151.456 241.12 151.472 240.688 151.52 240.4L147.584 240.912L147.008 241.28L147.04 242.16ZM150.544 242.688C150.864 243.552 151.2 244.688 151.328 245.424L152.24 245.12C152.096 244.4 151.728 243.28 151.408 242.416L150.544 242.688Z" fill="black"/>
<path d="M132.576 288.08V289.088H145.104V288.08H132.576ZM132.048 284.048V285.024H144.608V284.048H132.048ZM134.96 290.752V291.728H144.208V290.752H134.96ZM134.928 293.152V294.128H143.84V293.152H134.928ZM133.408 295.76V296.768H145.36V295.76H133.408ZM138.688 289.376V296.432H139.856V289.376H138.688ZM131.952 288.08V291.456C131.952 293.072 131.808 295.168 130.496 296.672C130.752 296.816 131.232 297.216 131.408 297.44C132.864 295.792 133.136 293.296 133.136 291.472V288.08H131.952ZM135.296 289.36C134.816 290.64 134.048 291.872 133.152 292.72C133.36 292.944 133.696 293.504 133.792 293.728C134.832 292.736 135.76 291.2 136.32 289.664L135.296 289.36ZM133.92 285.616C136.88 286.272 140.608 287.424 142.656 288.208L143.424 287.488C141.312 286.736 137.584 285.632 134.72 284.96L133.92 285.616ZM141.952 284.896C140.032 285.968 136.272 286.96 133.408 287.488C133.6 287.664 133.92 288 134.08 288.208C136.912 287.632 140.544 286.624 142.8 285.424L141.952 284.896ZM137.12 282.848C137.616 283.44 138.16 284.256 138.416 284.784L139.312 284.288C139.056 283.76 138.48 282.976 137.968 282.416L137.12 282.848ZM147.008 292.448V293.456H161.024V292.448H147.008ZM147.072 285.424V286.416H160.96V285.424H147.072ZM147.712 288.192V289.168H160.384V288.192H147.712ZM148.528 290.336V291.264H159.6V290.336H148.528ZM153.376 288.624V297.296H154.56V288.624H153.376ZM151.92 282.56V285.904H153.04V282.56H151.92ZM154.944 282.56V285.856H156.096V282.56H154.944ZM158.656 282.752C158.384 283.488 157.856 284.544 157.424 285.216L158.4 285.536C158.848 284.912 159.408 283.968 159.888 283.088L158.656 282.752ZM156.592 286.368C156.368 286.832 155.936 287.552 155.616 288.032L156.608 288.336C156.976 287.904 157.424 287.312 157.824 286.704L156.592 286.368ZM148.368 283.088C148.896 283.84 149.472 284.864 149.696 285.504L150.768 285.104C150.544 284.448 149.952 283.44 149.392 282.72L148.368 283.088ZM150.368 286.624C150.736 287.152 151.104 287.872 151.232 288.32L152.384 288.016C152.224 287.552 151.856 286.864 151.488 286.352L150.368 286.624ZM151.696 294.272C150.64 294.96 148.592 295.6 146.928 295.872C147.168 296.096 147.504 296.48 147.664 296.768C149.328 296.4 151.44 295.568 152.592 294.704L151.696 294.272ZM155.6 294.848C157.136 295.392 159.184 296.224 160.24 296.736L160.992 295.984C159.904 295.472 157.84 294.704 156.336 294.192L155.6 294.848Z" fill="black"/>
<path d="M133.328 336.512V337.424H142.704V336.512H133.328ZM140 335.2C140.608 335.504 141.344 335.968 141.728 336.352L142.304 335.712C141.92 335.344 141.184 334.896 140.56 334.624L140 335.2ZM141.056 338.16C140.368 340.928 138.896 343.008 136.72 344.272C136.928 344.448 137.28 344.848 137.424 345.04C139.632 343.616 141.232 341.376 142.032 338.352L141.056 338.16ZM133.168 343.056L133.328 343.968C134.656 343.728 136.368 343.376 138.032 343.056L138 342.208C136.192 342.544 134.4 342.848 133.168 343.056ZM134.752 339.184H136.576V340.8H134.752V339.184ZM133.888 338.432V341.536H137.456V338.432H133.888ZM138.064 334.8C138.352 339.744 139.008 344.288 141.216 344.768C142.064 345.072 142.624 344.432 142.832 342.672C142.608 342.576 142.24 342.32 142.048 342.128C141.936 343.168 141.776 343.84 141.552 343.792C140 343.552 139.296 339.328 139.088 334.8H138.064ZM131.312 333.312V347.344H132.448V334.4H143.488V347.344H144.688V333.312H131.312ZM132.016 345.504V346.592H144.16V345.504H132.016ZM147.232 333.216V347.248H148.288V334.304H150.944V333.216H147.232ZM150.576 333.216V333.52C150.256 334.624 149.696 336.464 149.12 337.92C150.24 339.216 150.512 340.304 150.512 341.184C150.512 341.68 150.416 342.144 150.176 342.32C150.064 342.416 149.888 342.448 149.696 342.464C149.44 342.48 149.152 342.464 148.784 342.448C148.96 342.736 149.056 343.184 149.072 343.456C149.424 343.488 149.824 343.488 150.128 343.456C150.448 343.408 150.72 343.328 150.944 343.152C151.376 342.832 151.552 342.144 151.552 341.296C151.552 340.288 151.296 339.136 150.16 337.792C150.688 336.512 151.264 334.928 151.696 333.6L150.96 333.168L150.784 333.216H150.576ZM153.936 338.976V339.968H158.896V338.976H153.936ZM152.368 341.456V342.48H160.528V341.456H152.368ZM153.296 333.792V334.656H155.872V333.792H153.296ZM152.656 335.536C153.344 336.048 154.176 336.784 154.576 337.264L155.152 336.608C154.736 336.144 153.888 335.44 153.216 334.96L152.656 335.536ZM158.224 343.696C159.008 344.576 160.032 345.792 160.528 346.496L161.456 345.872C160.928 345.184 159.904 344 159.104 343.152L158.224 343.696ZM155.584 333.792V334C154.976 336.672 153.344 338.928 151.568 339.984C151.792 340.16 152.08 340.512 152.208 340.736C154.144 339.488 155.856 337.168 156.56 334L155.92 333.744L155.744 333.792H155.584ZM157.248 333.44V334.304H160.416V333.44H157.248ZM153.504 332.56C152.992 334.112 152.096 335.552 150.992 336.496C151.216 336.64 151.616 336.944 151.792 337.104C152.88 336.08 153.856 334.496 154.464 332.784L153.504 332.56ZM160.048 333.44V333.632C159.68 334.704 158.96 336.112 158.176 336.944C158.384 337.104 158.704 337.408 158.864 337.616C159.744 336.672 160.64 335.184 161.152 333.76L160.48 333.376L160.272 333.44H160.048ZM153.52 343.264C152.96 344.192 152.144 345.232 151.392 345.952C151.664 346.096 152.128 346.416 152.352 346.592C153.056 345.824 153.968 344.64 154.592 343.632L153.52 343.264ZM157.488 334.096L156.56 334.336C157.36 337.04 158.832 339.52 160.72 340.784C160.88 340.512 161.2 340.128 161.44 339.936C159.648 338.864 158.208 336.544 157.488 334.096ZM155.888 341.904V347.264H157.024V341.904H155.888ZM151.28 337.552L151.424 338.384C152.176 338.272 152.912 338.16 153.76 338.016L153.728 337.28C152.768 337.392 151.984 337.488 151.28 337.552Z" fill="black"/>
<path d="M134.272 395.824V396.752H142.72V395.824H134.272ZM131.616 387.056V389.712H132.768V388.016H143.424V389.712H144.64V387.056H131.616ZM134.192 389.008V389.92H141.504V391.296H134.192V392.224H142.672V389.008H134.192ZM134.256 393.328V394.272H142.32V397.264H143.52V393.328H134.256ZM133.376 389.008V397.296H134.576V389.008H133.376ZM137.04 386.048C137.312 386.528 137.6 387.168 137.712 387.584L138.832 387.328C138.736 386.912 138.416 386.272 138.112 385.824L137.04 386.048ZM132.816 383.712V384.672H137.904V383.712H132.816ZM139.424 383.728V384.688H145.28V383.728H139.424ZM133.136 382.448C132.592 383.776 131.68 385.088 130.672 385.968C130.928 386.16 131.344 386.56 131.52 386.768C132.528 385.776 133.584 384.272 134.208 382.752L133.136 382.448ZM139.728 382.448C139.312 383.552 138.576 384.592 137.712 385.296C138 385.44 138.432 385.824 138.64 386.016C139.504 385.232 140.352 384 140.832 382.72L139.728 382.448ZM133.968 385.168C134.48 385.648 135.136 386.32 135.456 386.752L136.256 386.08C135.92 385.664 135.248 385.008 134.72 384.56L133.968 385.168ZM140.944 385.248C141.552 385.744 142.288 386.432 142.656 386.896L143.472 386.176C143.088 385.728 142.32 385.072 141.728 384.624L140.944 385.248ZM153.6 387.376H159.552V389.44H153.6V387.376ZM153.6 384.352H159.552V386.384H153.6V384.352ZM152.512 383.312V390.48H160.704V383.312H152.512ZM152.304 392.352V393.456H160.928V392.352H152.304ZM151.072 395.664V396.752H161.456V395.664H151.072ZM146.72 383.648V384.784H151.712V383.648H146.72ZM146.896 388.272V389.408H151.488V388.272H146.896ZM146.56 394.4L146.848 395.632C148.272 395.152 150.096 394.544 151.84 393.952L151.632 392.8C149.776 393.424 147.856 394.048 146.56 394.4ZM148.72 384.096V394.24L149.872 394.016V384.096H148.72ZM156.048 383.808V389.968H155.968V396.16H157.184V389.968H157.104V383.808H156.048Z" fill="black"/>
<path d="M138.547 162.773V164H132.523V162.773H138.547ZM132.828 152.625V164H131.32V152.625H132.828ZM137.75 157.516V158.742H132.523V157.516H137.75ZM138.469 152.625V153.859H132.523V152.625H138.469ZM141.641 157.352V164H140.195V155.547H141.562L141.641 157.352ZM141.297 159.453L140.695 159.43C140.701 158.852 140.786 158.318 140.953 157.828C141.12 157.333 141.354 156.904 141.656 156.539C141.958 156.174 142.318 155.893 142.734 155.695C143.156 155.492 143.622 155.391 144.133 155.391C144.549 155.391 144.924 155.448 145.258 155.562C145.591 155.672 145.875 155.849 146.109 156.094C146.349 156.339 146.531 156.656 146.656 157.047C146.781 157.432 146.844 157.904 146.844 158.461V164H145.391V158.445C145.391 158.003 145.326 157.648 145.195 157.383C145.065 157.112 144.875 156.917 144.625 156.797C144.375 156.672 144.068 156.609 143.703 156.609C143.344 156.609 143.016 156.685 142.719 156.836C142.427 156.987 142.174 157.195 141.961 157.461C141.753 157.727 141.589 158.031 141.469 158.375C141.354 158.714 141.297 159.073 141.297 159.453ZM154.516 155.547H155.828V163.82C155.828 164.565 155.677 165.201 155.375 165.727C155.073 166.253 154.651 166.651 154.109 166.922C153.573 167.198 152.953 167.336 152.25 167.336C151.958 167.336 151.615 167.289 151.219 167.195C150.828 167.107 150.443 166.953 150.062 166.734C149.688 166.521 149.372 166.232 149.117 165.867L149.875 165.008C150.229 165.435 150.599 165.732 150.984 165.898C151.375 166.065 151.76 166.148 152.141 166.148C152.599 166.148 152.995 166.062 153.328 165.891C153.661 165.719 153.919 165.464 154.102 165.125C154.289 164.792 154.383 164.38 154.383 163.891V157.406L154.516 155.547ZM148.695 159.867V159.703C148.695 159.057 148.771 158.471 148.922 157.945C149.078 157.414 149.299 156.958 149.586 156.578C149.878 156.198 150.229 155.906 150.641 155.703C151.052 155.495 151.516 155.391 152.031 155.391C152.562 155.391 153.026 155.484 153.422 155.672C153.823 155.854 154.161 156.122 154.438 156.477C154.719 156.826 154.94 157.247 155.102 157.742C155.263 158.237 155.375 158.797 155.438 159.422V160.141C155.38 160.76 155.268 161.318 155.102 161.812C154.94 162.307 154.719 162.729 154.438 163.078C154.161 163.427 153.823 163.695 153.422 163.883C153.021 164.065 152.552 164.156 152.016 164.156C151.51 164.156 151.052 164.049 150.641 163.836C150.234 163.622 149.885 163.323 149.594 162.938C149.302 162.552 149.078 162.099 148.922 161.578C148.771 161.052 148.695 160.482 148.695 159.867ZM150.141 159.703V159.867C150.141 160.289 150.182 160.685 150.266 161.055C150.354 161.424 150.487 161.75 150.664 162.031C150.846 162.312 151.078 162.534 151.359 162.695C151.641 162.852 151.977 162.93 152.367 162.93C152.846 162.93 153.242 162.828 153.555 162.625C153.867 162.422 154.115 162.154 154.297 161.82C154.484 161.487 154.63 161.125 154.734 160.734V158.852C154.677 158.565 154.589 158.289 154.469 158.023C154.354 157.753 154.203 157.513 154.016 157.305C153.833 157.091 153.607 156.922 153.336 156.797C153.065 156.672 152.747 156.609 152.383 156.609C151.987 156.609 151.646 156.693 151.359 156.859C151.078 157.021 150.846 157.245 150.664 157.531C150.487 157.812 150.354 158.141 150.266 158.516C150.182 158.885 150.141 159.281 150.141 159.703ZM159.594 152V164H158.141V152H159.594ZM163.484 155.547V164H162.031V155.547H163.484ZM161.922 153.305C161.922 153.07 161.992 152.872 162.133 152.711C162.279 152.549 162.492 152.469 162.773 152.469C163.049 152.469 163.26 152.549 163.406 152.711C163.557 152.872 163.633 153.07 163.633 153.305C163.633 153.529 163.557 153.721 163.406 153.883C163.26 154.039 163.049 154.117 162.773 154.117C162.492 154.117 162.279 154.039 162.133 153.883C161.992 153.721 161.922 153.529 161.922 153.305ZM170.727 161.758C170.727 161.549 170.68 161.357 170.586 161.18C170.497 160.997 170.312 160.833 170.031 160.688C169.755 160.536 169.339 160.406 168.781 160.297C168.312 160.198 167.888 160.081 167.508 159.945C167.133 159.81 166.812 159.646 166.547 159.453C166.286 159.26 166.086 159.034 165.945 158.773C165.805 158.513 165.734 158.208 165.734 157.859C165.734 157.526 165.807 157.211 165.953 156.914C166.104 156.617 166.315 156.354 166.586 156.125C166.862 155.896 167.193 155.716 167.578 155.586C167.964 155.456 168.393 155.391 168.867 155.391C169.544 155.391 170.122 155.51 170.602 155.75C171.081 155.99 171.448 156.31 171.703 156.711C171.958 157.107 172.086 157.547 172.086 158.031H170.641C170.641 157.797 170.57 157.57 170.43 157.352C170.294 157.128 170.094 156.943 169.828 156.797C169.568 156.651 169.247 156.578 168.867 156.578C168.466 156.578 168.141 156.641 167.891 156.766C167.646 156.885 167.466 157.039 167.352 157.227C167.242 157.414 167.188 157.612 167.188 157.82C167.188 157.977 167.214 158.117 167.266 158.242C167.323 158.362 167.422 158.474 167.562 158.578C167.703 158.677 167.901 158.771 168.156 158.859C168.411 158.948 168.737 159.036 169.133 159.125C169.826 159.281 170.396 159.469 170.844 159.688C171.292 159.906 171.625 160.174 171.844 160.492C172.062 160.81 172.172 161.195 172.172 161.648C172.172 162.018 172.094 162.357 171.938 162.664C171.786 162.971 171.565 163.237 171.273 163.461C170.987 163.68 170.643 163.852 170.242 163.977C169.846 164.096 169.401 164.156 168.906 164.156C168.161 164.156 167.531 164.023 167.016 163.758C166.5 163.492 166.109 163.148 165.844 162.727C165.578 162.305 165.445 161.859 165.445 161.391H166.898C166.919 161.786 167.034 162.102 167.242 162.336C167.451 162.565 167.706 162.729 168.008 162.828C168.31 162.922 168.609 162.969 168.906 162.969C169.302 162.969 169.633 162.917 169.898 162.812C170.169 162.708 170.375 162.565 170.516 162.383C170.656 162.201 170.727 161.992 170.727 161.758ZM175.516 152V164H174.07V152H175.516ZM175.172 159.453L174.57 159.43C174.576 158.852 174.661 158.318 174.828 157.828C174.995 157.333 175.229 156.904 175.531 156.539C175.833 156.174 176.193 155.893 176.609 155.695C177.031 155.492 177.497 155.391 178.008 155.391C178.424 155.391 178.799 155.448 179.133 155.562C179.466 155.672 179.75 155.849 179.984 156.094C180.224 156.339 180.406 156.656 180.531 157.047C180.656 157.432 180.719 157.904 180.719 158.461V164H179.266V158.445C179.266 158.003 179.201 157.648 179.07 157.383C178.94 157.112 178.75 156.917 178.5 156.797C178.25 156.672 177.943 156.609 177.578 156.609C177.219 156.609 176.891 156.685 176.594 156.836C176.302 156.987 176.049 157.195 175.836 157.461C175.628 157.727 175.464 158.031 175.344 158.375C175.229 158.714 175.172 159.073 175.172 159.453Z" fill="black"/>
<rect x="106" y="414" width="298" height="250" fill="#EEEEEE"/>
<line x1="379.5" y1="299.5" x2="379.5" y2="282.5" stroke="#939EA7" stroke-linecap="square" stroke-dasharray="2 2"/>
<line x1="403.5" y1="299.5" x2="403.5" y2="282.5" stroke="#939EA7" stroke-linecap="square" stroke-dasharray="2 2"/>
<line x1="115.5" y1="230.5" x2="115.5" y2="213.5" stroke="#939EA7" stroke-linecap="square" stroke-dasharray="2 2"/>
<path d="M160.272 445.824V446.752H168.72V445.824H160.272ZM157.616 437.056V439.712H158.768V438.016H169.424V439.712H170.64V437.056H157.616ZM160.192 439.008V439.92H167.504V441.296H160.192V442.224H168.672V439.008H160.192ZM160.256 443.328V444.272H168.32V447.264H169.52V443.328H160.256ZM159.376 439.008V447.296H160.576V439.008H159.376ZM163.04 436.048C163.312 436.528 163.6 437.168 163.712 437.584L164.832 437.328C164.736 436.912 164.416 436.272 164.112 435.824L163.04 436.048ZM158.816 433.712V434.672H163.904V433.712H158.816ZM165.424 433.728V434.688H171.28V433.728H165.424ZM159.136 432.448C158.592 433.776 157.68 435.088 156.672 435.968C156.928 436.16 157.344 436.56 157.52 436.768C158.528 435.776 159.584 434.272 160.208 432.752L159.136 432.448ZM165.728 432.448C165.312 433.552 164.576 434.592 163.712 435.296C164 435.44 164.432 435.824 164.64 436.016C165.504 435.232 166.352 434 166.832 432.72L165.728 432.448ZM159.968 435.168C160.48 435.648 161.136 436.32 161.456 436.752L162.256 436.08C161.92 435.664 161.248 435.008 160.72 434.56L159.968 435.168ZM166.944 435.248C167.552 435.744 168.288 436.432 168.656 436.896L169.472 436.176C169.088 435.728 168.32 435.072 167.728 434.624L166.944 435.248ZM179.6 437.376H185.552V439.44H179.6V437.376ZM179.6 434.352H185.552V436.384H179.6V434.352ZM178.512 433.312V440.48H186.704V433.312H178.512ZM178.304 442.352V443.456H186.928V442.352H178.304ZM177.072 445.664V446.752H187.456V445.664H177.072ZM172.72 433.648V434.784H177.712V433.648H172.72ZM172.896 438.272V439.408H177.488V438.272H172.896ZM172.56 444.4L172.848 445.632C174.272 445.152 176.096 444.544 177.84 443.952L177.632 442.8C175.776 443.424 173.856 444.048 172.56 444.4ZM174.72 434.096V444.24L175.872 444.016V434.096H174.72ZM182.048 433.808V439.968H181.968V446.16H183.184V439.968H183.104V433.808H182.048Z" fill="black"/>
<path d="M166.538 483.536V484.688H174.394V483.536H166.538ZM171.21 488.304V495.728C171.21 496 171.114 496.064 170.794 496.08C170.506 496.096 169.434 496.096 168.298 496.064C168.474 496.416 168.634 496.912 168.682 497.248C170.25 497.248 171.162 497.232 171.706 497.056C172.25 496.864 172.426 496.496 172.426 495.744V488.304H171.21ZM165.834 487.952V489.088H174.858V487.952H165.834ZM162.634 489.184V497.328H163.834V488.208L163.69 488.144L162.634 489.184ZM164.49 485.984C163.386 487.824 161.626 489.68 159.962 490.864C160.218 491.088 160.634 491.616 160.81 491.856C162.49 490.512 164.378 488.448 165.626 486.416L164.49 485.984ZM163.834 482.56C163.018 483.712 161.466 485.152 160.138 486.048C160.346 486.288 160.666 486.752 160.842 487.008C162.266 485.984 163.914 484.432 164.986 483.024L163.834 482.56ZM189.61 483.008C189.226 483.952 188.506 485.248 187.946 486.064L188.938 486.48C189.498 485.68 190.186 484.512 190.73 483.456L189.61 483.008ZM182.554 483.552C183.226 484.496 183.882 485.744 184.122 486.576L185.162 486.048C184.906 485.232 184.202 484 183.53 483.088L182.554 483.552ZM189.082 487.136V495.776C189.082 495.984 189.018 496.064 188.762 496.064C188.506 496.08 187.69 496.08 186.778 496.048C186.938 496.368 187.098 496.864 187.146 497.184C188.362 497.184 189.146 497.184 189.61 496.992C190.09 496.8 190.218 496.432 190.218 495.792V487.136H189.082ZM185.994 482.576V487.84H187.146V482.576H185.994ZM183.402 487.136V488.192H189.37V487.136H183.402ZM182.954 487.136V491.568C182.954 493.152 182.874 495.168 182.042 496.64C182.314 496.768 182.778 497.136 182.97 497.344C183.93 495.744 184.074 493.344 184.074 491.568V487.136H182.954ZM184.09 493.056L184.49 494.096C185.978 493.728 187.914 493.264 189.754 492.768L189.642 491.808C187.61 492.288 185.498 492.768 184.09 493.056ZM184.362 490.064C185.658 490.352 187.258 490.912 188.106 491.36L188.602 490.496C187.738 490.048 186.106 489.536 184.842 489.296L184.362 490.064ZM177.338 486.624V487.664H181.386V486.624H177.338ZM176.362 489.408V490.464H181.946V489.408H176.362ZM176.506 491.504C176.762 492.448 177.05 493.68 177.162 494.496L178.042 494.256C177.93 493.456 177.642 492.24 177.354 491.296L176.506 491.504ZM176.17 495.632L176.458 496.72C178.01 496.384 180.106 495.904 182.106 495.456L182.058 494.528C179.85 494.96 177.594 495.392 176.17 495.632ZM181.162 491.104C181.002 491.984 180.65 493.264 180.378 494.048L181.146 494.304C181.45 493.552 181.818 492.384 182.122 491.392L181.162 491.104ZM178.826 487.072V495.728L179.882 495.552V487.072H178.826ZM179.13 482.56C178.426 484.096 177.242 485.568 176.026 486.512C176.234 486.8 176.554 487.44 176.634 487.696C177.994 486.528 179.354 484.72 180.202 482.912L179.13 482.56ZM178.89 484C179.866 484.848 181.194 486.064 181.834 486.784L182.522 485.856C181.866 485.184 180.538 484.032 179.546 483.2L178.89 484Z" fill="black"/>
<path d="M166.368 534.336V543.184H167.488V534.336H166.368ZM169.392 532.64V545.696C169.392 545.968 169.28 546.048 169.008 546.064C168.752 546.08 167.888 546.08 166.912 546.048C167.072 546.4 167.248 546.928 167.312 547.248C168.624 547.248 169.424 547.216 169.888 547.024C170.352 546.816 170.544 546.448 170.544 545.696V532.64H169.392ZM158.656 539.44V540.24H164.016V539.44H158.656ZM159.392 545.568V546.512H164.336V545.568H159.392ZM157.968 537.52V539.68C157.968 541.504 157.808 544.144 156.528 546.096C156.832 546.208 157.328 546.432 157.552 546.624C158.848 544.592 159.088 541.68 159.088 539.68V537.52H157.968ZM158.64 537.52V538.416H163.424V541.344H158.576V542.24H164.528V537.52H158.64ZM158.928 542.976V547.184H159.968V543.872H163.84V547.152H164.912V542.976H158.928ZM161.088 532.688C160.112 534.288 158.336 535.664 156.56 536.512C156.768 536.768 157.104 537.36 157.232 537.616C159.12 536.592 161.056 534.976 162.192 533.088L161.088 532.688ZM160.72 534C162.08 534.832 163.92 536.048 164.832 536.816L165.472 535.824C164.56 535.088 162.672 533.936 161.344 533.152L160.72 534ZM159.712 535.92V536.72H163.088V535.92H159.712ZM181.552 537.968V539.088H187.328V537.968H181.552ZM172.976 534.24V535.264H180.032V534.24H172.976ZM172.8 540.592V541.632H180.112V540.592H172.8ZM172.72 537.904V538.928H180.288V537.904H172.72ZM184.4 538.448V547.216H185.568V538.448H184.4ZM174.016 535.584C174.304 536.288 174.544 537.232 174.624 537.84L175.648 537.552C175.568 536.96 175.296 536.048 174.992 535.36L174.016 535.584ZM178.032 535.344C177.808 536.144 177.408 537.344 177.072 538.08L178.064 538.32C178.4 537.616 178.8 536.528 179.136 535.584L178.032 535.344ZM186.08 532.848C184.928 533.344 182.88 533.808 181.072 534.112C181.216 534.368 181.392 534.768 181.456 535.024C183.344 534.752 185.536 534.304 187.056 533.744L186.08 532.848ZM175.424 532.784C175.792 533.456 176.192 534.352 176.368 534.912L177.6 534.544C177.424 534 176.992 533.12 176.608 532.48L175.424 532.784ZM181.072 534.112V539.648C181.072 541.792 180.96 544.544 179.6 546.48C179.856 546.624 180.32 546.992 180.512 547.216C181.984 545.12 182.192 541.952 182.192 539.648V534.112H181.072ZM177.92 542.816C178.4 543.616 178.976 544.72 179.232 545.408L180.08 544.912C179.84 544.224 179.264 543.184 178.736 542.384L177.92 542.816ZM174.224 542.48C173.872 543.536 173.328 544.64 172.704 545.392C172.944 545.52 173.36 545.824 173.536 545.984C174.16 545.168 174.816 543.904 175.2 542.752L174.224 542.48ZM176.016 538.432V547.216H177.184V538.432H176.016ZM198.368 534.336V543.184H199.488V534.336H198.368ZM201.392 532.64V545.696C201.392 545.968 201.28 546.048 201.008 546.064C200.752 546.08 199.888 546.08 198.912 546.048C199.072 546.4 199.248 546.928 199.312 547.248C200.624 547.248 201.424 547.216 201.888 547.024C202.352 546.816 202.544 546.448 202.544 545.696V532.64H201.392ZM190.656 539.44V540.24H196.016V539.44H190.656ZM191.392 545.568V546.512H196.336V545.568H191.392ZM189.968 537.52V539.68C189.968 541.504 189.808 544.144 188.528 546.096C188.832 546.208 189.328 546.432 189.552 546.624C190.848 544.592 191.088 541.68 191.088 539.68V537.52H189.968ZM190.64 537.52V538.416H195.424V541.344H190.576V542.24H196.528V537.52H190.64ZM190.928 542.976V547.184H191.968V543.872H195.84V547.152H196.912V542.976H190.928ZM193.088 532.688C192.112 534.288 190.336 535.664 188.56 536.512C188.768 536.768 189.104 537.36 189.232 537.616C191.12 536.592 193.056 534.976 194.192 533.088L193.088 532.688ZM192.72 534C194.08 534.832 195.92 536.048 196.832 536.816L197.472 535.824C196.56 535.088 194.672 533.936 193.344 533.152L192.72 534ZM191.712 535.92V536.72H195.088V535.92H191.712ZM205.008 542.448V543.456H219.024V542.448H205.008ZM205.072 535.424V536.416H218.96V535.424H205.072ZM205.712 538.192V539.168H218.384V538.192H205.712ZM206.528 540.336V541.264H217.6V540.336H206.528ZM211.376 538.624V547.296H212.56V538.624H211.376ZM209.92 532.56V535.904H211.04V532.56H209.92ZM212.944 532.56V535.856H214.096V532.56H212.944ZM216.656 532.752C216.384 533.488 215.856 534.544 215.424 535.216L216.4 535.536C216.848 534.912 217.408 533.968 217.888 533.088L216.656 532.752ZM214.592 536.368C214.368 536.832 213.936 537.552 213.616 538.032L214.608 538.336C214.976 537.904 215.424 537.312 215.824 536.704L214.592 536.368ZM206.368 533.088C206.896 533.84 207.472 534.864 207.696 535.504L208.768 535.104C208.544 534.448 207.952 533.44 207.392 532.72L206.368 533.088ZM208.368 536.624C208.736 537.152 209.104 537.872 209.232 538.32L210.384 538.016C210.224 537.552 209.856 536.864 209.488 536.352L208.368 536.624ZM209.696 544.272C208.64 544.96 206.592 545.6 204.928 545.872C205.168 546.096 205.504 546.48 205.664 546.768C207.328 546.4 209.44 545.568 210.592 544.704L209.696 544.272ZM213.6 544.848C215.136 545.392 217.184 546.224 218.24 546.736L218.992 545.984C217.904 545.472 215.84 544.704 214.336 544.192L213.6 544.848Z" fill="black"/>
<path d="M163.312 582.624C163.248 585.088 163.344 592.912 156.672 596.288C157.04 596.544 157.44 596.912 157.648 597.232C164.448 593.584 164.576 585.456 164.64 582.624H163.312ZM164.496 584.592L163.344 584.72C163.568 586.112 164.224 594.208 170.56 597.168C170.736 596.832 171.088 596.416 171.44 596.144C165.296 593.408 164.64 585.744 164.496 584.592ZM173.072 585.824V587.056H186.992V585.824H173.072ZM181.408 582.56V595.408C181.408 595.728 181.28 595.824 180.96 595.84C180.656 595.856 179.536 595.856 178.4 595.808C178.576 596.176 178.784 596.72 178.832 597.072C180.432 597.088 181.36 597.056 181.92 596.848C182.48 596.64 182.72 596.272 182.72 595.408V582.56H181.408ZM180.8 586.032C179.152 589.2 175.792 592.656 172.56 594.288C172.896 594.56 173.28 595.008 173.488 595.36C176.704 593.52 180.064 589.984 181.856 586.704L180.8 586.032Z" fill="black"/>
<path d="M161.648 637.392V638.432H171.296V637.392H161.648ZM161.904 634.288V635.264H166.752V634.288H161.904ZM168.704 633.888C169.216 634.768 169.728 635.936 169.92 636.672L170.88 636.288C170.672 635.568 170.128 634.416 169.6 633.568L168.704 633.888ZM165.312 635.392C165.2 636.032 164.96 636.976 164.768 637.584L165.6 637.76C165.824 637.2 166.048 636.336 166.288 635.568L165.312 635.392ZM162.352 635.536C162.544 636.24 162.736 637.152 162.768 637.744L163.696 637.568C163.632 636.992 163.456 636.08 163.232 635.408L162.352 635.536ZM170.16 639.312C169.2 642.448 167.248 644.992 165.04 646.48C165.28 646.64 165.584 646.944 165.744 647.136C168 645.584 170.032 642.976 171.104 639.792L170.16 639.312ZM167.2 632.576C167.344 640.752 167.824 647.2 170.032 647.248C170.56 647.248 171.104 646.608 171.408 644.192C171.232 644.096 170.8 643.824 170.624 643.584C170.512 645.04 170.32 645.92 170.048 645.92C168.896 645.872 168.288 639.76 168.24 632.576H167.2ZM163.344 632.864C163.616 633.504 163.936 634.336 164.064 634.864L165.12 634.592C164.976 634.096 164.64 633.28 164.336 632.672L163.344 632.864ZM162.72 641.696V642.576H166.016V641.696H162.72ZM162.256 639.344V646.096H163.216V639.344H162.256ZM162.656 639.344V640.24H165.504V645.392H166.448V639.344H162.656ZM162.704 644.096V644.96H166V644.096H162.704ZM156.672 633.248V634.336H161.872V633.248H156.672ZM158.048 636.608V637.632H160.656V636.608H158.048ZM158.048 639.904V640.928H160.656V639.904H158.048ZM157.52 633.808V644.048H158.448V633.808H157.52ZM160.128 633.792V647.296H161.088V633.792H160.128ZM156.512 643.856L156.752 644.896C157.904 644.624 159.344 644.288 160.736 643.968L160.672 642.992C159.104 643.328 157.6 643.664 156.512 643.856ZM177.28 639.136V640.192H187.36V639.136H177.28ZM179.088 641.312V642.288H186.064V641.312H179.088ZM179.872 639.536C179.136 641.12 177.808 642.512 176.336 643.392C176.576 643.568 176.992 643.936 177.152 644.144C178.64 643.152 180.096 641.584 180.912 639.808L179.872 639.536ZM185.84 641.312V641.488C185.616 644.624 185.36 645.824 185.056 646.128C184.928 646.288 184.8 646.304 184.56 646.304C184.336 646.304 183.808 646.288 183.2 646.24C183.36 646.496 183.472 646.928 183.472 647.232C184.112 647.264 184.72 647.248 185.072 647.232C185.456 647.2 185.744 647.104 186 646.832C186.432 646.368 186.688 645.104 186.928 641.792C186.96 641.616 186.976 641.312 186.976 641.312H185.84ZM179.952 636.064H185.104V637.344H179.952V636.064ZM179.952 633.936H185.104V635.2H179.952V633.936ZM178.864 633.04V638.24H186.224V633.04H178.864ZM172.832 636.032V637.184H177.584V636.032H172.832ZM174.704 632.688V642.528H175.84V632.688H174.704ZM172.528 643.168L172.992 644.368C174.352 643.712 176.096 642.848 177.728 642.016L177.472 640.96C175.648 641.808 173.76 642.656 172.528 643.168ZM183.792 641.488C183.216 643.472 181.872 645.648 180.368 646.656C180.672 646.832 181.04 647.104 181.248 647.344C182.704 646.24 184.032 643.968 184.64 641.936L183.792 641.488ZM181.296 641.536C180.512 643.216 178.832 645.056 177.248 645.92C177.536 646.096 177.872 646.4 178.064 646.656C179.616 645.664 181.296 643.76 182.112 642.016L181.296 641.536ZM196.192 633.792V634.752H202.64V633.792H196.192ZM196.032 636.864V637.84H203.008V636.864H196.032ZM197.024 635.424C197.296 636.048 197.584 636.864 197.696 637.408L198.72 637.12C198.576 636.624 198.272 635.824 198 635.216L197.024 635.424ZM200.608 635.152C200.464 635.728 200.16 636.592 199.92 637.152L200.816 637.392C201.088 636.864 201.392 636.096 201.68 635.376L200.608 635.152ZM197.68 641.824C197.504 643.984 196.992 645.616 194.784 646.496C195.024 646.688 195.344 647.088 195.472 647.344C197.888 646.272 198.528 644.384 198.752 641.824H197.68ZM199.744 641.824V645.44C199.744 646.352 199.824 646.608 200.08 646.8C200.304 647.008 200.72 647.072 201.04 647.072C201.216 647.072 201.728 647.072 201.936 647.072C202.208 647.072 202.592 647.04 202.784 646.944C203.024 646.848 203.2 646.672 203.296 646.416C203.392 646.176 203.44 645.472 203.472 644.832C203.184 644.736 202.8 644.56 202.576 644.384C202.56 645.024 202.56 645.52 202.512 645.744C202.464 645.952 202.4 646.048 202.304 646.08C202.224 646.144 202.032 646.16 201.872 646.16C201.696 646.16 201.408 646.16 201.28 646.16C201.12 646.16 201.008 646.128 200.928 646.08C200.848 646.016 200.816 645.856 200.816 645.568V641.824H199.744ZM198.32 632.752C198.544 633.248 198.816 633.936 198.928 634.368L200.016 634.08C199.888 633.68 199.616 633.024 199.36 632.528L198.32 632.752ZM189.2 633.792V634.752H195.568V633.792H189.2ZM188.944 636.912V637.888H195.648V636.912H188.944ZM190 635.44C190.304 636.08 190.624 636.912 190.768 637.456L191.792 637.168C191.632 636.64 191.28 635.84 190.976 635.216L190 635.44ZM193.648 635.152C193.52 635.76 193.216 636.64 192.992 637.216L193.904 637.456C194.16 636.912 194.448 636.144 194.736 635.408L193.648 635.152ZM190.816 641.856C190.688 643.84 190.336 645.504 188.736 646.432C188.976 646.608 189.312 647.008 189.44 647.28C191.264 646.144 191.728 644.24 191.904 641.856H190.816ZM191.36 632.736C191.584 633.232 191.872 633.92 191.984 634.352L193.088 634.064C192.944 633.648 192.672 632.992 192.4 632.512L191.36 632.736ZM193.024 646.608C193.216 646.384 193.6 646.144 196.048 644.768C195.968 644.56 195.84 644.144 195.808 643.856L193.216 645.184L192.88 645.632L193.024 646.608ZM190.704 639.552H194.064V641.216H190.704V639.552ZM189.696 638.704V642.064H195.136V638.704H189.696ZM193.024 646.608C193.024 646.256 194.096 645.664 194.096 645.664V641.824H193.04V644.528C193.04 645.136 192.784 645.36 192.576 645.472C192.752 645.76 192.944 646.32 193.024 646.608ZM197.52 639.552H201.232V641.2H197.52V639.552ZM196.496 638.704V642.048H202.304V638.704H196.496ZM211.328 637.488V645.744C211.328 646.016 211.216 646.096 210.912 646.112C210.592 646.128 209.472 646.128 208.288 646.096C208.48 646.416 208.688 646.928 208.768 647.264C210.24 647.264 211.2 647.248 211.776 647.072C212.352 646.88 212.544 646.528 212.544 645.76V637.488H211.328ZM206.496 637.216V638.224H216.176V643.616H217.376V637.216H206.496ZM204.624 639.888V640.896H219.392V639.888H204.624ZM206.224 642.64V643.616H216.688V642.64H206.224ZM217.216 632.512C214.496 633.04 209.632 633.392 205.6 633.536C205.728 633.792 205.904 634.208 205.92 634.496C210.016 634.384 214.928 634.048 218.048 633.44L217.216 632.512ZM206.992 634.976C207.44 635.584 207.872 636.4 208.032 636.96L209.2 636.528C209.024 636 208.576 635.2 208.112 634.608L206.992 634.976ZM210.848 634.736C211.2 635.408 211.552 636.304 211.664 636.912L212.832 636.56C212.704 635.984 212.32 635.104 211.936 634.432L210.848 634.736ZM216.432 634.048C215.968 634.896 215.152 636.128 214.496 636.864L215.536 637.248C216.192 636.512 217.024 635.44 217.68 634.464L216.432 634.048ZM221.312 636.064V637.28H233.728V636.064H221.312ZM233.264 636.064V636.32C232.944 642.672 232.592 645.168 231.984 645.76C231.776 645.952 231.584 646 231.232 646C230.832 646 229.808 645.984 228.72 645.888C228.944 646.24 229.104 646.768 229.12 647.12C230.112 647.184 231.136 647.216 231.696 647.152C232.304 647.104 232.688 646.976 233.072 646.512C233.776 645.712 234.112 643.328 234.48 636.704C234.496 636.512 234.512 636.064 234.512 636.064H233.264ZM226.544 632.592V635.376C226.544 638.688 226.16 643.232 220.848 646.4C221.136 646.608 221.584 647.056 221.76 647.344C227.36 643.968 227.808 639.024 227.808 635.376V632.592H226.544Z" fill="black"/>
<rect x="106" y="184" width="298" height="30" fill="#FAFAFA"/>
<path d="M120.088 193.598V194.998H122.748V193.598H120.088ZM116.448 196.062V197.546H123.084V196.062H116.448ZM119.29 192.254V196.818H120.76V192.254H119.29ZM117.232 193.29V197.14H118.548V193.29H117.232ZM121.474 200.052C120.662 202.152 118.94 203.328 116.532 203.93C116.896 204.28 117.288 204.854 117.442 205.302C120.13 204.434 121.964 202.992 122.888 200.472L121.474 200.052ZM121.124 198.274C121.488 198.988 121.838 199.94 121.95 200.528L123.28 200.038C123.14 199.45 122.748 198.54 122.37 197.854L121.124 198.274ZM119.29 197.238V200.528C119.29 200.654 119.248 200.682 119.122 200.682C118.996 200.696 118.59 200.696 118.212 200.682C118.38 201.074 118.548 201.634 118.576 202.04C119.304 202.04 119.836 202.026 120.242 201.816C120.676 201.592 120.76 201.214 120.76 200.556V197.238H119.29ZM117.428 197.896C117.218 198.862 116.826 199.898 116.322 200.556C116.672 200.71 117.316 201.046 117.624 201.27C118.128 200.528 118.618 199.338 118.87 198.218L117.428 197.896ZM123.028 192.66V194.074H129.398V192.66H123.028ZM124.806 198.33H127.634V199.184H124.806V198.33ZM124.806 200.36H127.634V201.228H124.806V200.36ZM124.806 196.286H127.634V197.154H124.806V196.286ZM123.364 195.04V202.474H129.132V195.04H123.364ZM125.436 193.43C125.394 194.102 125.24 195.04 125.114 195.684L126.458 195.936C126.682 195.348 126.962 194.48 127.2 193.626L125.436 193.43ZM124.568 202.46C124.022 203.062 122.916 203.846 121.964 204.238C122.328 204.532 122.818 204.98 123.084 205.288C124.036 204.854 125.226 204.056 125.926 203.342L124.568 202.46ZM126.458 203.356C127.158 203.93 128.068 204.756 128.488 205.274L129.79 204.378C129.328 203.846 128.39 203.076 127.69 202.558L126.458 203.356ZM134.368 193.64V194.998H143.342V193.64H134.368ZM137.868 194.298C137.812 194.844 137.658 195.628 137.518 196.188L138.876 196.426C139.142 195.922 139.52 195.166 139.8 194.41L137.868 194.298ZM140.234 192.1C140.066 192.576 139.716 193.262 139.45 193.724L140.85 194.074C141.158 193.668 141.536 193.08 141.928 192.464L140.234 192.1ZM135.67 192.618C136.034 193.066 136.398 193.71 136.524 194.116L137.91 193.57C137.77 193.15 137.378 192.548 136.986 192.128L135.67 192.618ZM133.878 197.574H130.602V199.128H132.24V202.726H133.878V197.574ZM133.878 201.998H132.338C131.694 202.502 130.938 202.992 130.308 203.384L131.134 205.134C131.89 204.518 132.52 203.986 133.136 203.44C134.046 204.532 135.208 204.938 136.93 205.008C138.61 205.078 141.438 205.05 143.132 204.966C143.202 204.462 143.482 203.65 143.664 203.258C141.774 203.412 138.596 203.454 136.958 203.384C135.502 203.328 134.438 202.922 133.878 201.998ZM130.63 193.444C131.456 194.074 132.464 195.012 132.884 195.67L134.228 194.564C133.738 193.906 132.716 193.024 131.876 192.436L130.63 193.444ZM136.902 198.806H140.724V199.534H136.902V198.806ZM136.902 200.654H140.724V201.396H136.902V200.654ZM136.902 196.958H140.724V197.686H136.902V196.958ZM135.32 195.74V202.614H142.376V195.74H135.32ZM146.716 197.252V198.89H154.29V197.252H146.716ZM153.744 197.252V197.56C153.618 201.452 153.464 203.02 153.128 203.384C152.974 203.538 152.82 203.58 152.568 203.58C152.218 203.58 151.49 203.566 150.706 203.496C151.014 203.972 151.238 204.7 151.266 205.19C152.092 205.218 152.904 205.232 153.394 205.162C153.926 205.078 154.318 204.952 154.668 204.476C155.158 203.902 155.326 202.236 155.48 197.98C155.494 197.77 155.508 197.252 155.508 197.252H153.744ZM148.298 192.296C147.458 194.424 145.904 196.384 144.14 197.546C144.546 197.868 145.274 198.54 145.596 198.904C147.36 197.518 149.068 195.264 150.118 192.828L148.298 192.296ZM153.632 192.268L151.98 192.926C153.086 195.068 154.808 197.336 156.39 198.792C156.712 198.316 157.356 197.63 157.818 197.266C156.278 196.09 154.514 194.046 153.632 192.268ZM149.222 197.728C148.998 200.22 148.662 202.586 144.91 203.818C145.302 204.182 145.792 204.896 146.002 205.358C150.174 203.804 150.776 200.878 151.042 197.728H149.222ZM158.63 199.8V201.242H164.692V199.8H158.63ZM158.63 194.508V195.81H164.58V194.508H158.63ZM163.264 192.352C163.124 192.856 162.858 193.584 162.62 194.074L163.698 194.424C163.964 193.99 164.3 193.36 164.65 192.716L163.264 192.352ZM160.87 192.282V198.54H162.326V192.282H160.87ZM158.742 192.828C159.05 193.346 159.33 194.032 159.4 194.48L160.59 194.018C160.492 193.57 160.184 192.912 159.862 192.408L158.742 192.828ZM161.024 202.362C161.878 202.95 163.054 203.832 163.6 204.378L164.636 203.244C164.048 202.712 162.858 201.886 162.004 201.354L161.024 202.362ZM162.256 195.768L161.43 196.482C162.06 196.902 163.348 197.896 163.894 198.414L164.762 197.238C164.384 196.972 162.76 196.006 162.256 195.768ZM160.772 195.25C160.254 196.174 159.26 197.168 158.322 197.686C158.63 197.938 159.078 198.442 159.288 198.764C160.282 198.092 161.29 196.832 161.85 195.642L160.772 195.25ZM164.748 192.66V194.102H171.426V192.66H164.748ZM166.652 198.26H169.466V199.114H166.652V198.26ZM166.652 200.276H169.466V201.158H166.652V200.276ZM166.652 196.244H169.466V197.098H166.652V196.244ZM165.14 194.984V202.404H171.048V194.984H165.14ZM167.212 193.43C167.114 194.102 166.904 195.04 166.694 195.684L168.094 195.964C168.374 195.376 168.738 194.508 169.06 193.64L167.212 193.43ZM166.344 202.418C165.798 203.02 164.692 203.79 163.726 204.196C164.09 204.476 164.552 204.952 164.818 205.274C165.826 204.826 167.002 204.028 167.716 203.3L166.344 202.418ZM168.234 203.342C169.004 203.902 170.026 204.728 170.488 205.246L171.776 204.35C171.244 203.818 170.194 203.034 169.424 202.516L168.234 203.342ZM160.828 198.834V200.318C160.828 201.466 160.548 202.894 158.266 203.832C158.56 204.112 158.994 204.714 159.162 205.078C161.934 203.888 162.34 201.956 162.34 200.36V198.834H160.828Z" fill="black"/>
<path d="M365.078 285.95L371.648 292.646C371.806 292.804 372.09 292.804 372.248 292.646L378.818 285.95C379.007 285.76 379.007 285.476 378.818 285.286C378.628 285.128 378.376 285.128 378.218 285.286L371.964 291.667L365.71 285.286C365.615 285.192 365.489 285.16 365.394 285.16C365.268 285.16 365.173 285.192 365.078 285.286C364.92 285.476 364.92 285.76 365.078 285.95V285.95Z" fill="black"/>
<path d="M365.078 235.95L371.648 242.646C371.806 242.804 372.09 242.804 372.248 242.646L378.818 235.95C379.007 235.76 379.007 235.476 378.818 235.286C378.628 235.128 378.376 235.128 378.218 235.286L371.964 241.667L365.71 235.286C365.615 235.192 365.489 235.16 365.394 235.16C365.268 235.16 365.173 235.192 365.078 235.286C364.92 235.476 364.92 235.76 365.078 235.95V235.95Z" fill="black"/>
<path d="M378.818 391.963L372.26 385.278C372.102 385.121 371.818 385.121 371.66 385.278L365.102 391.963C364.913 392.152 364.913 392.436 365.102 392.625C365.291 392.783 365.543 392.783 365.701 392.625L371.976 386.256L378.219 392.625C378.314 392.72 378.408 392.751 378.534 392.751C378.661 392.751 378.755 392.72 378.818 392.625C379.007 392.436 379.007 392.152 378.818 391.963V391.963Z" fill="black"/>
<line x1="105" y1="183.5" x2="405" y2="183.5" stroke="#D3D5D7"/>
<path d="M365.078 335.95L371.648 342.646C371.806 342.804 372.09 342.804 372.248 342.646L378.818 335.95C379.007 335.76 379.007 335.476 378.818 335.286C378.628 335.128 378.376 335.128 378.218 335.286L371.964 341.667L365.71 335.286C365.615 335.192 365.489 335.16 365.394 335.16C365.268 335.16 365.173 335.192 365.078 335.286C364.92 335.476 364.92 335.76 365.078 335.95V335.95Z" fill="black"/>
<path d="M127.132 494.168C128.608 494.168 130.012 493.064 130.012 491.144C130.012 489.2 128.824 488.336 127.36 488.336C126.832 488.336 126.436 488.468 126.04 488.684L126.268 486.14H129.592V485.204H125.308L125.032 489.32L125.62 489.692C126.124 489.356 126.496 489.164 127.084 489.164C128.176 489.164 128.896 489.92 128.896 491.18C128.896 492.452 128.068 493.256 127.024 493.256C126.016 493.256 125.368 492.788 124.876 492.272L124.324 492.992C124.924 493.592 125.764 494.168 127.132 494.168ZM133.992 494.168C135.648 494.168 136.716 492.644 136.716 489.572C136.716 486.524 135.648 485.048 133.992 485.048C132.312 485.048 131.244 486.524 131.244 489.572C131.244 492.644 132.312 494.168 133.992 494.168ZM133.992 493.28C132.984 493.28 132.3 492.164 132.3 489.572C132.3 487.016 132.984 485.924 133.992 485.924C134.988 485.924 135.66 487.016 135.66 489.572C135.66 492.164 134.988 493.28 133.992 493.28Z" fill="#D60C18"/>
<line x1="105.5" y1="498.5" x2="105.5" y2="481.5" stroke="#939EA7" stroke-linecap="square" stroke-dasharray="2 2"/>
<line x1="155.5" y1="498.5" x2="155.5" y2="481.5" stroke="#939EA7" stroke-linecap="square" stroke-dasharray="2 2"/>
<path d="M443.728 194.878V195.858H448.488V194.878H443.728ZM445.576 195.396V202.144H446.626V195.396H445.576ZM443.434 202.452L443.854 203.46C445.226 202.97 447.088 202.312 448.824 201.668L448.656 200.744C446.738 201.402 444.722 202.074 443.434 202.452ZM448.558 193.912V194.822H456.468V193.912H448.558ZM450.224 199.162H454.9V200.52H450.224V199.162ZM450.224 201.304H454.9V202.676H450.224V201.304ZM450.224 197.034H454.9V198.378H450.224V197.034ZM449.244 196.208V203.502H455.936V196.208H449.244ZM451.946 194.36C451.848 195.046 451.624 196.012 451.428 196.656L452.38 196.838C452.618 196.25 452.898 195.34 453.15 194.528L451.946 194.36ZM450.756 203.712C450.056 204.314 448.614 205.014 447.41 205.392C447.62 205.602 447.928 205.924 448.082 206.134C449.314 205.728 450.756 205.014 451.666 204.3L450.756 203.712ZM453.08 204.342C454.046 204.846 455.278 205.63 455.866 206.148L456.706 205.518C456.048 204.986 454.816 204.244 453.878 203.768L453.08 204.342ZM459.926 197.426V198.42H468.032V197.426H459.926ZM459.926 200.744V201.738H468.032V200.744H459.926ZM459.926 204.076V205.098H468.032V204.076H459.926ZM459.198 194.108V206.05H460.248V195.144H467.612V206.05H468.704V194.108H459.198ZM473.618 198.546V199.568H481.626V198.546H473.618ZM481.276 198.546V198.742C481.094 202.9 480.884 204.496 480.506 204.874C480.366 205.028 480.198 205.056 479.918 205.056C479.582 205.056 478.714 205.042 477.79 204.958C477.986 205.266 478.126 205.7 478.14 206.022C479.022 206.064 479.904 206.078 480.366 206.036C480.856 205.994 481.164 205.896 481.444 205.546C481.948 205.014 482.144 203.39 482.34 199.05C482.354 198.91 482.368 198.546 482.368 198.546H481.276ZM476.572 198.826C476.292 201.472 475.732 204.062 472.064 205.28C472.302 205.504 472.61 205.924 472.736 206.19C476.642 204.79 477.37 201.892 477.692 198.826H476.572ZM475.116 193.702C474.444 195.9 473.156 197.776 471.49 198.938C471.742 199.12 472.19 199.498 472.372 199.708C474.024 198.406 475.424 196.39 476.208 193.968L475.116 193.702ZM477.314 193.492V194.472H480.38V193.492H477.314ZM479.372 193.492V194.08H479.666C480.436 196.334 481.962 198.49 483.824 199.68C484.006 199.4 484.356 198.966 484.58 198.742C482.788 197.734 481.276 195.69 480.562 193.492H479.372ZM489.746 200.366C490.11 200.73 490.516 201.234 490.712 201.57L491.328 201.136C491.146 200.828 490.712 200.324 490.362 200.002L489.746 200.366ZM485.672 201.444V202.34H491.804V201.444H485.672ZM485.686 196.348V197.216H491.664V196.348H485.686ZM490.6 193.758C490.418 194.276 490.068 195.046 489.802 195.536L490.502 195.788C490.81 195.34 491.16 194.668 491.482 194.038L490.6 193.758ZM488.276 193.31V199.862H489.2V193.31H488.276ZM485.994 194.038C486.358 194.57 486.68 195.27 486.806 195.732L487.59 195.41C487.464 194.948 487.114 194.262 486.75 193.758L485.994 194.038ZM488.262 203.502C489.158 204.09 490.32 204.944 490.894 205.462L491.482 204.734C490.894 204.23 489.704 203.418 488.836 202.844L488.262 203.502ZM489.984 197.692L489.438 198.098C489.858 198.462 490.894 199.484 491.244 199.918L491.832 199.218C491.552 198.938 490.348 197.93 489.984 197.692ZM487.24 197.636C486.876 198.42 486.148 199.302 485.448 199.708C485.644 199.862 485.938 200.17 486.078 200.394C486.806 199.848 487.534 198.826 487.912 197.888L487.24 197.636ZM491.846 193.912V194.836H498.384V193.912H491.846ZM493.372 199.12H496.83V200.464H493.372V199.12ZM493.372 201.248H496.83V202.634H493.372V201.248ZM493.372 196.992H496.83V198.322H493.372V196.992ZM492.406 196.166V203.46H497.838V196.166H492.406ZM494.464 194.36C494.366 195.018 494.142 195.97 493.946 196.586L494.842 196.768C495.08 196.194 495.36 195.326 495.598 194.514L494.464 194.36ZM493.862 203.754C493.372 204.342 492.336 205.07 491.412 205.462C491.636 205.658 491.944 205.966 492.112 206.162C493.05 205.742 494.128 204.986 494.772 204.286L493.862 203.754ZM495.43 204.3C496.242 204.846 497.292 205.63 497.782 206.148L498.608 205.56C498.048 205.028 497.012 204.286 496.186 203.782L495.43 204.3ZM488.206 200.17V201.556C488.206 202.788 487.954 204.23 485.49 205.266C485.672 205.462 485.938 205.812 486.036 206.036C488.794 204.832 489.13 203.11 489.13 201.584V200.17H488.206Z" fill="black"/>
<path d="M433.542 36.196C434.48 36.196 435.334 35.706 436.048 35.104H436.104L436.216 36H437.266V31.338C437.266 29.448 436.482 28.216 434.62 28.216C433.402 28.216 432.338 28.748 431.638 29.196L432.142 30.092C432.73 29.686 433.528 29.266 434.424 29.266C435.67 29.266 435.978 30.204 435.978 31.184C432.744 31.548 431.316 32.374 431.316 34.026C431.316 35.398 432.268 36.196 433.542 36.196ZM433.892 35.16C433.15 35.16 432.562 34.81 432.562 33.942C432.562 32.962 433.416 32.332 435.978 32.038V34.152C435.25 34.81 434.634 35.16 433.892 35.16ZM441.025 36.196C441.375 36.196 441.571 36.14 441.753 36.084L441.585 35.104C441.431 35.132 441.375 35.132 441.319 35.132C441.123 35.132 440.955 34.978 440.955 34.572V24.87H439.681V34.488C439.681 35.58 440.059 36.196 441.025 36.196ZM443.659 39.206H444.933V36.644L444.905 35.314C445.591 35.874 446.305 36.196 446.991 36.196C448.741 36.196 450.295 34.684 450.295 32.094C450.295 29.742 449.245 28.216 447.271 28.216C446.389 28.216 445.549 28.706 444.863 29.28H444.821L444.695 28.398H443.659V39.206ZM446.795 35.118C446.291 35.118 445.619 34.908 444.933 34.334V30.33C445.675 29.644 446.319 29.28 446.963 29.28C448.405 29.28 448.979 30.414 448.979 32.108C448.979 33.984 448.041 35.118 446.795 35.118ZM452.341 36H453.615V30.484C454.371 29.728 454.917 29.322 455.687 29.322C456.695 29.322 457.129 29.924 457.129 31.352V36H458.417V31.184C458.417 29.252 457.689 28.216 456.093 28.216C455.043 28.216 454.273 28.79 453.573 29.476L453.615 27.908V24.87H452.341V36ZM462.595 36.196C463.533 36.196 464.387 35.706 465.101 35.104H465.157L465.269 36H466.319V31.338C466.319 29.448 465.535 28.216 463.673 28.216C462.455 28.216 461.391 28.748 460.691 29.196L461.195 30.092C461.783 29.686 462.581 29.266 463.477 29.266C464.723 29.266 465.031 30.204 465.031 31.184C461.797 31.548 460.369 32.374 460.369 34.026C460.369 35.398 461.321 36.196 462.595 36.196ZM462.945 35.16C462.203 35.16 461.615 34.81 461.615 33.942C461.615 32.962 462.469 32.332 465.031 32.038V34.152C464.303 34.81 463.687 35.16 462.945 35.16ZM475.322 36H476.526V26.032H475.112L470.842 32.402V33.242H477.898V32.234H472.186L474.524 28.804C474.804 28.314 475.084 27.866 475.336 27.404H475.406C475.364 27.922 475.322 28.79 475.322 29.308V36ZM482.234 36.196C484.208 36.196 485.412 34.334 485.412 30.988C485.412 27.642 484.208 25.85 482.234 25.85C480.232 25.85 479.028 27.642 479.028 30.988C479.028 34.334 480.232 36.196 482.234 36.196ZM482.234 35.16C481.058 35.16 480.26 33.914 480.26 30.988C480.26 28.048 481.058 26.872 482.234 26.872C483.396 26.872 484.18 28.048 484.18 30.988C484.18 33.914 483.396 35.16 482.234 35.16ZM488.977 32.024C490.391 32.024 491.315 30.848 491.315 28.776C491.315 26.718 490.391 25.556 488.977 25.556C487.563 25.556 486.639 26.718 486.639 28.776C486.639 30.848 487.563 32.024 488.977 32.024ZM488.977 31.24C488.165 31.24 487.605 30.4 487.605 28.776C487.605 27.138 488.165 26.34 488.977 26.34C489.789 26.34 490.335 27.138 490.335 28.776C490.335 30.4 489.789 31.24 488.977 31.24ZM489.271 36.196H490.139L495.795 25.556H494.927L489.271 36.196ZM496.131 36.196C497.517 36.196 498.455 35.02 498.455 32.934C498.455 30.89 497.517 29.714 496.131 29.714C494.717 29.714 493.793 30.89 493.793 32.934C493.793 35.02 494.717 36.196 496.131 36.196ZM496.131 35.412C495.319 35.412 494.759 34.572 494.759 32.934C494.759 31.296 495.319 30.512 496.131 30.512C496.929 30.512 497.489 31.296 497.489 32.934C497.489 34.572 496.929 35.412 496.131 35.412ZM394.392 50.904V57.12H395.358V51.87H398.886V57.064H399.894V50.904H394.392ZM396.422 44.268V51.212H397.458V44.268H396.422ZM397.024 47.306V48.286H400.454V47.306H397.024ZM394.896 55.496V56.462H399.376V55.496H394.896ZM388.904 45.528H392.754V48.916H388.904V45.528ZM388.078 44.758V49.686H393.608V44.758H388.078ZM389.1 46.214C389.338 46.9 389.52 47.782 389.548 48.37L390.094 48.202C390.052 47.642 389.87 46.76 389.632 46.074L389.1 46.214ZM389.618 54.306C389.772 55.076 389.842 56.098 389.8 56.742L390.542 56.658C390.556 56 390.486 54.992 390.318 54.236L389.618 54.306ZM391.06 54.292C391.34 55.02 391.592 55.958 391.662 56.574L392.376 56.42C392.292 55.804 392.026 54.88 391.732 54.166L391.06 54.292ZM392.488 54.278C392.88 54.964 393.258 55.888 393.398 56.49L394.112 56.224C393.972 55.608 393.58 54.712 393.174 54.04L392.488 54.278ZM388.372 54.04C388.218 54.894 387.91 55.972 387.462 56.63L388.232 56.966C388.666 56.294 388.932 55.174 389.1 54.292L388.372 54.04ZM391.97 46.032C391.844 46.676 391.564 47.67 391.354 48.272L391.816 48.454C392.054 47.894 392.334 46.984 392.586 46.27L391.97 46.032ZM387.98 50.638V51.492H393.706V50.638H387.98ZM390.43 45.122V49.322H390.318V52.934H391.256V49.322H391.144V45.122H390.43ZM387.728 52.598V53.438H393.874V52.598H387.728ZM411.626 44.688V46.13C411.626 47.012 411.808 47.334 412.662 47.334C412.844 47.334 413.488 47.334 413.684 47.334C413.936 47.334 414.23 47.334 414.398 47.264C414.356 47.054 414.328 46.718 414.314 46.48C414.132 46.522 413.838 46.536 413.656 46.536C413.502 46.536 412.914 46.536 412.774 46.536C412.578 46.536 412.55 46.438 412.55 46.144V44.688H411.626ZM402.722 52.878V53.606H413.04V52.878H402.722ZM401.532 54.334V55.076H414.468V54.334H401.532ZM407.468 51.632V56.07C407.468 56.266 407.398 56.322 407.174 56.336C406.95 56.35 406.138 56.35 405.312 56.322C405.438 56.56 405.592 56.896 405.648 57.134C406.796 57.134 407.496 57.134 407.93 57.008C408.364 56.868 408.518 56.644 408.518 56.098V51.632H407.468ZM412.55 51.1C410.296 51.45 405.802 51.59 402.232 51.548C402.302 51.716 402.386 52.024 402.4 52.206C406.054 52.276 410.576 52.122 413.292 51.674L412.55 51.1ZM401.868 44.94V45.57H407.902V44.94H401.868ZM401.644 48.916V49.518H408V48.916H401.644ZM403.072 47.474H406.684V47.978H403.072V47.474ZM403.072 46.522H406.684V46.998H403.072V46.522ZM402.316 46.032V48.468H407.454V46.032H402.316ZM404.416 44.254V50.778H405.27V44.254H404.416ZM408.574 47.698V48.426H412.746V47.698H408.574ZM409.484 44.688V45.444H412.116V44.688H409.484ZM412.494 47.698V47.81C411.794 49.434 409.792 50.246 407.622 50.554C407.762 50.722 407.93 51.058 408.014 51.268C410.408 50.848 412.508 49.91 413.376 47.852L412.858 47.656L412.676 47.698H412.494ZM409.568 48.356L408.784 48.608C409.75 50.078 411.682 51.002 413.992 51.366C414.104 51.128 414.342 50.778 414.538 50.596C412.312 50.344 410.408 49.574 409.568 48.356ZM408.924 44.688V45.486C408.924 46.06 408.7 46.592 407.356 47.026C407.524 47.166 407.846 47.516 407.972 47.712C409.47 47.166 409.834 46.34 409.834 45.514V44.688H408.924ZM402.344 49.686V51.072H407.468V49.686H406.67V50.456H403.114V49.686H402.344ZM419.732 48.566V49.588H422.42V48.566H419.732ZM419.354 44.254V55.608L420.446 55.468V44.254H419.354ZM416.75 47.082V56L417.786 55.86V47.082H416.75ZM415.616 55.818L415.798 56.938C417.562 56.602 420.11 56.14 422.504 55.692L422.42 54.642C419.942 55.09 417.31 55.552 415.616 55.818ZM423.12 44.254V54.726C423.12 56.266 423.498 56.658 424.8 56.658C425.066 56.658 426.634 56.658 426.928 56.658C428.188 56.658 428.468 55.874 428.608 53.606C428.3 53.536 427.866 53.34 427.586 53.13C427.516 55.118 427.418 55.636 426.844 55.636C426.494 55.636 425.206 55.636 424.926 55.636C424.338 55.636 424.24 55.496 424.24 54.754V44.254H423.12ZM423.862 48.566V49.588H427.67V48.566H423.862ZM435.048 47.502H438.268V49.112H435.048V47.502ZM434.068 46.746V49.868H439.304V46.746H434.068ZM433.424 51.59H435.286V53.662H433.424V51.59ZM432.528 50.82V54.432H436.21V50.82H432.528ZM438.058 51.59H440.018V53.662H438.058V51.59ZM437.162 50.82V54.432H440.942V50.82H437.162ZM429.812 44.898V45.836H441.628V44.898H429.812ZM430.4 44.968V53.718C430.4 55.776 431.436 56.476 433.592 56.476C434.11 56.476 438.8 56.476 439.794 56.476C440.886 56.476 441.95 56.448 442.328 56.35C442.272 56.112 442.202 55.622 442.16 55.342C441.656 55.44 440.578 55.496 439.822 55.496C438.828 55.496 434.39 55.496 433.48 55.496C431.968 55.496 431.422 54.992 431.422 53.802V44.968H430.4ZM443.588 47.67V48.664H447.34V47.67H443.588ZM445.072 44.408V53.788H446.052V44.408H445.072ZM443.49 54.194L443.896 55.244C445.002 54.698 446.36 53.998 447.648 53.34L447.368 52.402C445.94 53.102 444.47 53.788 443.49 54.194ZM447.564 46.326V47.278H456.272V46.326H447.564ZM447.102 54.572L447.382 55.566C448.726 55.188 450.49 54.684 452.184 54.194L452.072 53.298C450.252 53.788 448.348 54.292 447.102 54.572ZM452.254 44.254C452.31 51.1 452.898 57.12 455.11 57.12C455.992 57.12 456.286 56.518 456.44 54.656C456.216 54.544 455.894 54.334 455.684 54.096C455.642 55.552 455.502 56.112 455.236 56.112C454.032 56.112 453.22 50.876 453.276 44.254H452.254ZM453.822 44.8C454.438 45.248 455.152 45.892 455.516 46.326L456.146 45.724C455.796 45.304 455.04 44.688 454.438 44.282L453.822 44.8ZM455.054 48.608C454.2 52.024 452.576 54.712 450.056 56.308C450.28 56.476 450.672 56.826 450.826 57.008C453.346 55.23 455.04 52.444 456.02 48.79L455.054 48.608ZM448.81 49.462H450.63V51.814H448.81V49.462ZM447.984 48.608V52.682H451.484V48.608H447.984ZM467.444 45.556V55.594C467.444 55.888 467.346 55.986 467.038 56C466.702 56.014 465.568 56.028 464.434 55.972C464.602 56.28 464.812 56.798 464.882 57.106C466.268 57.106 467.248 57.092 467.808 56.91C468.354 56.742 468.536 56.378 468.536 55.622V45.556H467.444ZM459.212 48.356V54.698H460.234V48.356H459.212ZM459.646 48.356V49.35H463.902V52.57H459.646V53.578H464.952V48.356H459.646ZM457.77 45.234V46.298H470.258V45.234H457.77ZM478.686 46.97V47.964H484.37V46.97H478.686ZM479.078 44.24C478.672 46.69 477.93 48.972 476.726 50.4C476.95 50.596 477.328 51.058 477.482 51.282C478.798 49.63 479.666 47.138 480.142 44.422L479.078 44.24ZM482.354 47.474C481.696 51.842 480.226 54.698 476.964 56.28C477.188 56.49 477.51 56.924 477.636 57.148C481.024 55.314 482.606 52.304 483.39 47.614L482.354 47.474ZM479.078 47.852L478.21 48.048C479.148 52.094 480.87 55.482 483.754 57.064C483.922 56.798 484.258 56.42 484.496 56.21C481.682 54.824 479.932 51.576 479.078 47.852ZM475.522 44.45V57.134H476.572V44.45H475.522ZM472.288 54.6C472.582 54.376 473.03 54.138 476.264 52.99C476.18 52.766 476.054 52.36 476.012 52.08L472.652 53.172L472.176 53.606L472.288 54.6ZM472.288 54.6C472.288 54.222 473.366 53.634 473.366 53.634V45.808H472.344V52.696C472.344 53.242 472.05 53.522 471.854 53.648C472.008 53.872 472.204 54.348 472.288 54.6ZM488.472 48.818V49.798H495.542V48.818H488.472ZM488.22 55.328V56.322H495.724V55.328H488.22ZM487.744 51.478V57.092H488.794V52.43H495.332V57.05H496.438V51.478H487.744ZM492.224 44.212C490.796 46.382 488.22 48.244 485.546 49.294C485.84 49.546 486.134 49.938 486.316 50.218C489.018 49.028 491.594 47.012 493.148 44.674L492.224 44.212ZM492.434 45.024L491.538 45.486C493.4 47.614 495.43 48.944 497.824 50.092C497.978 49.77 498.286 49.378 498.552 49.14C496.2 48.146 494.142 46.914 492.434 45.024Z" fill="black"/>
<path d="M426.372 233.662V244.12H427.408V234.698H437.026V233.662H426.372ZM436.634 233.662V242.72C436.634 242.986 436.564 243.056 436.284 243.07C435.99 243.084 435.024 243.084 434.002 243.042C434.17 243.336 434.324 243.826 434.38 244.134C435.654 244.134 436.536 244.106 437.04 243.938C437.53 243.77 437.684 243.42 437.684 242.734V233.662H436.634ZM431.132 231.212C430.894 232.066 430.432 233.284 430.04 234.068L431.048 234.306C431.468 233.564 432 232.43 432.434 231.436L431.132 231.212ZM429.256 236.546V242.188H430.222V236.546H429.256ZM429.704 236.546V237.498H433.764V240.242H429.704V241.18H434.744V236.546H429.704ZM439.77 232.276V233.34H452.23V232.276H439.77ZM445.16 233.116V244.106H446.266V233.116H445.16ZM445.776 236.434C447.47 237.302 449.654 238.632 450.732 239.5L451.474 238.548C450.354 237.708 448.142 236.434 446.462 235.622L445.776 236.434ZM456.486 236.602V237.512H465.74V236.602H456.486ZM456.094 238.982V239.892H466.3V238.982H456.094ZM458.586 235.314V239.5H459.566V235.314H458.586ZM462.38 235.314V239.458H463.374V235.314H462.38ZM454.96 231.926V236.028C454.96 238.268 454.834 241.39 453.434 243.602C453.686 243.7 454.162 243.98 454.358 244.134C455.814 241.852 456.024 238.408 456.024 236.028V231.926H454.96ZM455.59 231.926V232.836H464.396V234.264H455.59V235.188H465.446V231.926H455.59ZM461.288 239.332L460.406 239.542C461.33 241.908 463.164 243.476 465.81 244.134C465.95 243.868 466.23 243.476 466.454 243.266C463.906 242.762 462.086 241.362 461.288 239.332ZM464.76 239.976C464.144 240.48 463.066 241.18 462.296 241.6L462.968 242.118C463.766 241.712 464.788 241.124 465.544 240.522L464.76 239.976ZM457.368 244.134C457.648 243.966 458.068 243.84 461.596 242.972C461.582 242.762 461.61 242.37 461.638 242.09L457.788 242.944L457.326 243.322L457.368 244.134ZM457.368 244.134C457.368 243.742 458.628 243 458.628 243V239.444L457.634 239.416V242.174C457.634 242.79 457.2 243.112 456.948 243.252C457.102 243.462 457.312 243.896 457.368 244.134ZM470.514 237.442V238.31H477.458V237.442H470.514ZM470.248 239.836V240.732H477.752V239.836H470.248ZM474.91 237.722V243.868H475.862V237.722H474.91ZM472.04 237.764V240.312C472.04 241.082 471.746 242.566 470.332 243.434C470.57 243.574 470.892 243.868 471.032 244.064C472.614 243 472.95 241.166 472.95 240.312V237.764H472.04ZM468.778 233.788V234.544H472.712V233.788H468.778ZM475.232 233.788V234.544H479.194V233.788H475.232ZM478.788 231.842V242.762C478.788 242.972 478.718 243.056 478.494 243.056C478.27 243.07 477.514 243.07 476.744 243.042C476.898 243.336 477.038 243.826 477.08 244.106C478.144 244.106 478.844 244.092 479.264 243.91C479.684 243.728 479.824 243.392 479.824 242.762V231.842H478.788ZM468.862 231.842V232.654H472.362V235.762H468.862V236.56H473.356V231.842H468.862ZM479.292 231.842H474.588V236.574H479.292V235.776H475.596V232.654H479.292V231.842ZM468.232 231.842V244.134H469.268V231.842H468.232Z" fill="black"/>
<path d="M426.372 385.662V396.12H427.408V386.698H437.026V385.662H426.372ZM436.634 385.662V394.72C436.634 394.986 436.564 395.056 436.284 395.07C435.99 395.084 435.024 395.084 434.002 395.042C434.17 395.336 434.324 395.826 434.38 396.134C435.654 396.134 436.536 396.106 437.04 395.938C437.53 395.77 437.684 395.42 437.684 394.734V385.662H436.634ZM431.132 383.212C430.894 384.066 430.432 385.284 430.04 386.068L431.048 386.306C431.468 385.564 432 384.43 432.434 383.436L431.132 383.212ZM429.256 388.546V394.188H430.222V388.546H429.256ZM429.704 388.546V389.498H433.764V392.242H429.704V393.18H434.744V388.546H429.704ZM445.58 387.776V388.826H451.334V387.776H445.58ZM439.714 394.412V395.462H452.286V394.412H439.714ZM444.978 383.45V394.972H446.084V383.45H444.978ZM460.686 385.97V386.964H466.37V385.97H460.686ZM461.078 383.24C460.672 385.69 459.93 387.972 458.726 389.4C458.95 389.596 459.328 390.058 459.482 390.282C460.798 388.63 461.666 386.138 462.142 383.422L461.078 383.24ZM464.354 386.474C463.696 390.842 462.226 393.698 458.964 395.28C459.188 395.49 459.51 395.924 459.636 396.148C463.024 394.314 464.606 391.304 465.39 386.614L464.354 386.474ZM461.078 386.852L460.21 387.048C461.148 391.094 462.87 394.482 465.754 396.064C465.922 395.798 466.258 395.42 466.496 395.21C463.682 393.824 461.932 390.576 461.078 386.852ZM457.522 383.45V396.134H458.572V383.45H457.522ZM454.288 393.6C454.582 393.376 455.03 393.138 458.264 391.99C458.18 391.766 458.054 391.36 458.012 391.08L454.652 392.172L454.176 392.606L454.288 393.6ZM454.288 393.6C454.288 393.222 455.366 392.634 455.366 392.634V384.808H454.344V391.696C454.344 392.242 454.05 392.522 453.854 392.648C454.008 392.872 454.204 393.348 454.288 393.6ZM470.472 387.818V388.798H477.542V387.818H470.472ZM470.22 394.328V395.322H477.724V394.328H470.22ZM469.744 390.478V396.092H470.794V391.43H477.332V396.05H478.438V390.478H469.744ZM474.224 383.212C472.796 385.382 470.22 387.244 467.546 388.294C467.84 388.546 468.134 388.938 468.316 389.218C471.018 388.028 473.594 386.012 475.148 383.674L474.224 383.212ZM474.434 384.024L473.538 384.486C475.4 386.614 477.43 387.944 479.824 389.092C479.978 388.77 480.286 388.378 480.552 388.14C478.2 387.146 476.142 385.914 474.434 384.024Z" fill="black"/>
<line x1="405" y1="199.75" x2="440" y2="199.75" stroke="#D60C18" stroke-width="0.5"/>
<line x1="484.75" y1="97.5" x2="484.75" y2="62.5" stroke="#D60C18" stroke-width="0.5"/>
<line x1="386" y1="238.75" x2="421" y2="238.75" stroke="#D60C18" stroke-width="0.5"/>
<line x1="386" y1="389.75" x2="421" y2="389.75" stroke="#D60C18" stroke-width="0.5"/>
<path d="M43.71 385.926V386.892H51.158V385.926H43.71ZM42.422 394.844V395.824H52.81V394.844H42.422ZM40.798 390.322V391.302H53.202V390.322H40.798ZM50.822 385.926V386.192C50.542 393.528 50.206 396.328 49.646 396.93C49.478 397.154 49.31 397.196 49.03 397.196C48.666 397.196 47.91 397.182 47.028 397.112C47.182 397.378 47.294 397.784 47.322 398.064C48.106 398.106 48.946 398.134 49.436 398.092C49.954 398.036 50.276 397.896 50.612 397.434C51.256 396.664 51.55 394.13 51.872 386.528C51.872 386.374 51.872 385.926 51.872 385.926H50.822ZM43.164 385.926C42.828 389.02 42.17 393.332 41.652 395.824H42.772C43.234 393.402 43.864 389.104 44.256 385.926H43.164ZM45.516 388.082C46.496 388.586 47.686 389.342 48.26 389.916L48.904 389.202C48.302 388.642 47.112 387.9 46.132 387.438L45.516 388.082ZM44.97 392.464C46.062 393.024 47.336 393.906 47.938 394.564L48.638 393.864C48.008 393.192 46.72 392.352 45.642 391.834L44.97 392.464ZM54.728 386.878V387.858H59.488V386.878H54.728ZM56.576 387.396V394.144H57.626V387.396H56.576ZM54.434 394.452L54.854 395.46C56.226 394.97 58.088 394.312 59.824 393.668L59.656 392.744C57.738 393.402 55.722 394.074 54.434 394.452ZM59.558 385.912V386.822H67.468V385.912H59.558ZM61.224 391.162H65.9V392.52H61.224V391.162ZM61.224 393.304H65.9V394.676H61.224V393.304ZM61.224 389.034H65.9V390.378H61.224V389.034ZM60.244 388.208V395.502H66.936V388.208H60.244ZM62.946 386.36C62.848 387.046 62.624 388.012 62.428 388.656L63.38 388.838C63.618 388.25 63.898 387.34 64.15 386.528L62.946 386.36ZM61.756 395.712C61.056 396.314 59.614 397.014 58.41 397.392C58.62 397.602 58.928 397.924 59.082 398.134C60.314 397.728 61.756 397.014 62.666 396.3L61.756 395.712ZM64.08 396.342C65.046 396.846 66.278 397.63 66.866 398.148L67.706 397.518C67.048 396.986 65.816 396.244 64.878 395.768L64.08 396.342ZM70.926 389.426V390.42H79.032V389.426H70.926ZM70.926 392.744V393.738H79.032V392.744H70.926ZM70.926 396.076V397.098H79.032V396.076H70.926ZM70.198 386.108V398.05H71.248V387.144H78.612V398.05H79.704V386.108H70.198Z" fill="black"/>
<line x1="86" y1="391.75" x2="128" y2="391.75" stroke="#D60C18" stroke-width="0.5"/>
<path d="M40.7 541.47V542.52H53.342V541.47H40.7ZM42.1 536.192V537.228H51.242V536.192H42.1ZM50.906 536.192V536.43C49.996 537.41 48.064 538.726 46.496 539.44C46.706 539.622 47.042 539.958 47.196 540.196C48.876 539.384 50.906 538.012 52.208 536.738L51.424 536.136L51.172 536.192H50.906ZM46.496 539.44V546.734C46.496 546.972 46.412 547.042 46.118 547.056C45.81 547.07 44.774 547.084 43.64 547.042C43.822 547.35 44.018 547.812 44.088 548.12C45.446 548.12 46.342 548.106 46.874 547.924C47.42 547.77 47.588 547.448 47.588 546.748V539.44H46.496ZM54.728 536.878V537.858H59.488V536.878H54.728ZM56.576 537.396V544.144H57.626V537.396H56.576ZM54.434 544.452L54.854 545.46C56.226 544.97 58.088 544.312 59.824 543.668L59.656 542.744C57.738 543.402 55.722 544.074 54.434 544.452ZM59.558 535.912V536.822H67.468V535.912H59.558ZM61.224 541.162H65.9V542.52H61.224V541.162ZM61.224 543.304H65.9V544.676H61.224V543.304ZM61.224 539.034H65.9V540.378H61.224V539.034ZM60.244 538.208V545.502H66.936V538.208H60.244ZM62.946 536.36C62.848 537.046 62.624 538.012 62.428 538.656L63.38 538.838C63.618 538.25 63.898 537.34 64.15 536.528L62.946 536.36ZM61.756 545.712C61.056 546.314 59.614 547.014 58.41 547.392C58.62 547.602 58.928 547.924 59.082 548.134C60.314 547.728 61.756 547.014 62.666 546.3L61.756 545.712ZM64.08 546.342C65.046 546.846 66.278 547.63 66.866 548.148L67.706 547.518C67.048 546.986 65.816 546.244 64.878 545.768L64.08 546.342ZM70.926 539.426V540.42H79.032V539.426H70.926ZM70.926 542.744V543.738H79.032V542.744H70.926ZM70.926 546.076V547.098H79.032V546.076H70.926ZM70.198 536.108V548.05H71.248V537.144H78.612V548.05H79.704V536.108H70.198Z" fill="black"/>
<line x1="86" y1="541.75" x2="128" y2="541.75" stroke="#D60C18" stroke-width="0.5"/>
</svg>
