<svg width="790" height="684" viewBox="0 0 790 684" fill="none" xmlns="http://www.w3.org/2000/svg">
<rect x="149.5" y="40.5" width="299" height="603" fill="white" stroke="#EEEEEE"/>
<rect x="449" y="40" width="200" height="604" fill="black" fill-opacity="0.4"/>
<path d="M179.984 64H183.872V67.68H179.984V64ZM178.848 62.928V68.736H185.072V62.928H178.848ZM175.312 59.216V73.264H176.544V60.432H187.408V73.264H188.688V59.216H175.312ZM176 71.28V72.416H188.144V71.28H176ZM193.616 66.032V67.008H202.416V66.032H193.616ZM193.616 68.656V69.616H202.416V68.656H193.616ZM193.616 71.296V72.368H202.464V71.296H193.616ZM190.848 60.784V61.904H205.168V60.784H190.848ZM192.672 63.392V73.28H193.872V64.448H202.08V73.28H203.312V63.392H192.672ZM197.408 61.36C197.28 62.112 197.008 63.2 196.736 63.92L197.904 64.096C198.192 63.408 198.576 62.4 198.88 61.456L197.408 61.36ZM201.216 58.544C200.848 59.264 200.192 60.272 199.648 60.928L200.688 61.264C201.264 60.656 201.968 59.76 202.544 58.896L201.216 58.544ZM193.632 58.976C194.192 59.584 194.832 60.432 195.104 60.992L196.224 60.416C195.904 59.872 195.28 59.072 194.688 58.512L193.632 58.976ZM210.064 65.296H218.144V66.768H210.064V65.296ZM210.064 67.696H218.144V69.168H210.064V67.696ZM210.064 62.928H218.144V64.368H210.064V62.928ZM208.816 61.968V70.128H219.424V61.968H208.816ZM215.184 71.184C217.056 71.824 218.96 72.672 220.096 73.296L221.216 72.48C219.968 71.856 217.92 71.024 216.032 70.4L215.184 71.184ZM207.296 59.392V60.496H220.656V59.392H207.296ZM213.392 59.856C213.296 60.592 213.056 61.664 212.832 62.368L213.968 62.576C214.224 61.92 214.528 60.944 214.8 60.032L213.392 59.856ZM211.744 70.32C210.64 71.056 208.448 71.888 206.72 72.352C206.992 72.608 207.36 73.024 207.552 73.28C209.264 72.8 211.44 71.952 212.832 71.104L211.744 70.32Z" fill="black"/>
<path d="M181.52 192.384V193.504H189.376V192.384H181.52ZM186.128 188.624V201.776C186.128 202.048 186.048 202.128 185.776 202.128C185.536 202.144 184.736 202.144 183.84 202.128C184.032 202.448 184.208 202.976 184.272 203.296C185.488 203.296 186.224 203.264 186.688 203.056C187.136 202.848 187.328 202.496 187.328 201.776V188.624H186.128ZM185.936 192.848C184.976 195.616 183.104 198.48 181.152 199.856C181.424 200.064 181.776 200.464 181.984 200.736C183.968 199.152 185.84 196.192 186.896 193.136L185.936 192.848ZM176.48 199.6C176.08 200.72 175.36 201.856 174.528 202.592C174.8 202.752 175.296 203.104 175.504 203.312C176.336 202.48 177.152 201.184 177.632 199.888L176.48 199.6ZM178.768 200.048C179.408 200.848 180.128 201.968 180.448 202.688L181.472 202.16C181.152 201.44 180.4 200.384 179.728 199.584L178.768 200.048ZM176.528 193.168H179.824V195.232H176.528V193.168ZM176.528 196.16H179.824V198.256H176.528V196.16ZM176.528 190.176H179.824V192.224H176.528V190.176ZM175.376 189.184V199.248H181.008V189.184H175.376ZM196.608 189.36V190.448H205.12V189.36H196.608ZM196.96 197.664V198.736H204.624V197.664H196.96ZM196.08 201.808V202.912H205.28V201.808H196.08ZM200.176 198.176V202.48H201.376V198.176H200.176ZM198.144 190.976C197.776 191.744 197.072 192.944 196.432 193.92C197.28 195.04 198.032 196.272 198.368 197.104L199.376 196.688C199.024 195.968 198.304 194.832 197.6 193.904C198.144 193.088 198.768 192.064 199.184 191.248L198.144 190.976ZM200.912 190.992C200.544 191.744 199.84 192.944 199.168 193.904C200.048 195.008 200.832 196.24 201.184 197.072L202.176 196.64C201.824 195.92 201.072 194.8 200.352 193.888C200.896 193.088 201.52 192.08 201.968 191.264L200.912 190.992ZM203.68 190.976C203.296 191.744 202.576 192.96 201.888 193.92C202.8 195.024 203.648 196.272 204.048 197.104L205.024 196.64C204.64 195.92 203.84 194.816 203.088 193.904C203.632 193.088 204.272 192.08 204.752 191.264L203.68 190.976ZM194.448 194.88C194.88 195.968 195.296 197.408 195.456 198.256L196.432 197.936C196.272 197.088 195.808 195.68 195.376 194.624L194.448 194.88ZM192.992 199.008C193.184 200.08 193.36 201.488 193.392 202.416L194.368 202.224C194.32 201.296 194.112 199.92 193.92 198.832L192.992 199.008ZM191.328 198.864C191.184 200.192 190.944 201.648 190.56 202.64C190.816 202.736 191.312 202.896 191.536 203.008C191.872 202 192.192 200.448 192.368 199.04L191.328 198.864ZM190.944 194.56C190.944 194.32 191.664 193.952 191.664 193.952V193.936C192.736 192.656 193.824 190.784 194.656 188.992L193.568 188.544C192.928 190.288 191.808 192.128 191.456 192.592C191.12 193.088 190.848 193.424 190.56 193.488C190.704 193.776 190.88 194.32 190.944 194.56ZM190.944 194.56C191.2 194.432 191.648 194.336 194.224 194.048C194.224 193.808 194.256 193.376 194.32 193.088L191.488 193.328L190.912 193.68L190.944 194.56ZM191.04 198.16C191.04 197.92 191.792 197.568 191.792 197.568V197.536C193.312 195.984 194.832 193.76 196.048 191.6L195.024 191.008C193.984 193.152 192.336 195.424 191.84 196C191.36 196.576 191.008 196.992 190.656 197.056C190.8 197.376 190.976 197.92 191.04 198.16ZM191.04 198.16C191.36 198 191.856 197.888 195.472 197.36C195.456 197.12 195.472 196.688 195.52 196.4L191.584 196.912L191.008 197.28L191.04 198.16ZM194.544 198.688C194.864 199.552 195.2 200.688 195.328 201.424L196.24 201.12C196.096 200.4 195.728 199.28 195.408 198.416L194.544 198.688Z" fill="black"/>
<path d="M176.576 244.08V245.088H189.104V244.08H176.576ZM176.048 240.048V241.024H188.608V240.048H176.048ZM178.96 246.752V247.728H188.208V246.752H178.96ZM178.928 249.152V250.128H187.84V249.152H178.928ZM177.408 251.76V252.768H189.36V251.76H177.408ZM182.688 245.376V252.432H183.856V245.376H182.688ZM175.952 244.08V247.456C175.952 249.072 175.808 251.168 174.496 252.672C174.752 252.816 175.232 253.216 175.408 253.44C176.864 251.792 177.136 249.296 177.136 247.472V244.08H175.952ZM179.296 245.36C178.816 246.64 178.048 247.872 177.152 248.72C177.36 248.944 177.696 249.504 177.792 249.728C178.832 248.736 179.76 247.2 180.32 245.664L179.296 245.36ZM177.92 241.616C180.88 242.272 184.608 243.424 186.656 244.208L187.424 243.488C185.312 242.736 181.584 241.632 178.72 240.96L177.92 241.616ZM185.952 240.896C184.032 241.968 180.272 242.96 177.408 243.488C177.6 243.664 177.92 244 178.08 244.208C180.912 243.632 184.544 242.624 186.8 241.424L185.952 240.896ZM181.12 238.848C181.616 239.44 182.16 240.256 182.416 240.784L183.312 240.288C183.056 239.76 182.48 238.976 181.968 238.416L181.12 238.848ZM191.008 248.448V249.456H205.024V248.448H191.008ZM191.072 241.424V242.416H204.96V241.424H191.072ZM191.712 244.192V245.168H204.384V244.192H191.712ZM192.528 246.336V247.264H203.6V246.336H192.528ZM197.376 244.624V253.296H198.56V244.624H197.376ZM195.92 238.56V241.904H197.04V238.56H195.92ZM198.944 238.56V241.856H200.096V238.56H198.944ZM202.656 238.752C202.384 239.488 201.856 240.544 201.424 241.216L202.4 241.536C202.848 240.912 203.408 239.968 203.888 239.088L202.656 238.752ZM200.592 242.368C200.368 242.832 199.936 243.552 199.616 244.032L200.608 244.336C200.976 243.904 201.424 243.312 201.824 242.704L200.592 242.368ZM192.368 239.088C192.896 239.84 193.472 240.864 193.696 241.504L194.768 241.104C194.544 240.448 193.952 239.44 193.392 238.72L192.368 239.088ZM194.368 242.624C194.736 243.152 195.104 243.872 195.232 244.32L196.384 244.016C196.224 243.552 195.856 242.864 195.488 242.352L194.368 242.624ZM195.696 250.272C194.64 250.96 192.592 251.6 190.928 251.872C191.168 252.096 191.504 252.48 191.664 252.768C193.328 252.4 195.44 251.568 196.592 250.704L195.696 250.272ZM199.6 250.848C201.136 251.392 203.184 252.224 204.24 252.736L204.992 251.984C203.904 251.472 201.84 250.704 200.336 250.192L199.6 250.848Z" fill="black"/>
<path d="M203.328 292.512V293.424H212.704V292.512H203.328ZM210 291.2C210.608 291.504 211.344 291.968 211.728 292.352L212.304 291.712C211.92 291.344 211.184 290.896 210.56 290.624L210 291.2ZM211.056 294.16C210.368 296.928 208.896 299.008 206.72 300.272C206.928 300.448 207.28 300.848 207.424 301.04C209.632 299.616 211.232 297.376 212.032 294.352L211.056 294.16ZM203.168 299.056L203.328 299.968C204.656 299.728 206.368 299.376 208.032 299.056L208 298.208C206.192 298.544 204.4 298.848 203.168 299.056ZM204.752 295.184H206.576V296.8H204.752V295.184ZM203.888 294.432V297.536H207.456V294.432H203.888ZM208.064 290.8C208.352 295.744 209.008 300.288 211.216 300.768C212.064 301.072 212.624 300.432 212.832 298.672C212.608 298.576 212.24 298.32 212.048 298.128C211.936 299.168 211.776 299.84 211.552 299.792C210 299.552 209.296 295.328 209.088 290.8H208.064ZM201.312 289.312V303.344H202.448V290.4H213.488V303.344H214.688V289.312H201.312ZM202.016 301.504V302.592H214.16V301.504H202.016ZM217.232 289.216V303.248H218.288V290.304H220.944V289.216H217.232ZM220.576 289.216V289.52C220.256 290.624 219.696 292.464 219.12 293.92C220.24 295.216 220.512 296.304 220.512 297.184C220.512 297.68 220.416 298.144 220.176 298.32C220.064 298.416 219.888 298.448 219.696 298.464C219.44 298.48 219.152 298.464 218.784 298.448C218.96 298.736 219.056 299.184 219.072 299.456C219.424 299.488 219.824 299.488 220.128 299.456C220.448 299.408 220.72 299.328 220.944 299.152C221.376 298.832 221.552 298.144 221.552 297.296C221.552 296.288 221.296 295.136 220.16 293.792C220.688 292.512 221.264 290.928 221.696 289.6L220.96 289.168L220.784 289.216H220.576ZM223.936 294.976V295.968H228.896V294.976H223.936ZM222.368 297.456V298.48H230.528V297.456H222.368ZM223.296 289.792V290.656H225.872V289.792H223.296ZM222.656 291.536C223.344 292.048 224.176 292.784 224.576 293.264L225.152 292.608C224.736 292.144 223.888 291.44 223.216 290.96L222.656 291.536ZM228.224 299.696C229.008 300.576 230.032 301.792 230.528 302.496L231.456 301.872C230.928 301.184 229.904 300 229.104 299.152L228.224 299.696ZM225.584 289.792V290C224.976 292.672 223.344 294.928 221.568 295.984C221.792 296.16 222.08 296.512 222.208 296.736C224.144 295.488 225.856 293.168 226.56 290L225.92 289.744L225.744 289.792H225.584ZM227.248 289.44V290.304H230.416V289.44H227.248ZM223.504 288.56C222.992 290.112 222.096 291.552 220.992 292.496C221.216 292.64 221.616 292.944 221.792 293.104C222.88 292.08 223.856 290.496 224.464 288.784L223.504 288.56ZM230.048 289.44V289.632C229.68 290.704 228.96 292.112 228.176 292.944C228.384 293.104 228.704 293.408 228.864 293.616C229.744 292.672 230.64 291.184 231.152 289.76L230.48 289.376L230.272 289.44H230.048ZM223.52 299.264C222.96 300.192 222.144 301.232 221.392 301.952C221.664 302.096 222.128 302.416 222.352 302.592C223.056 301.824 223.968 300.64 224.592 299.632L223.52 299.264ZM227.488 290.096L226.56 290.336C227.36 293.04 228.832 295.52 230.72 296.784C230.88 296.512 231.2 296.128 231.44 295.936C229.648 294.864 228.208 292.544 227.488 290.096ZM225.888 297.904V303.264H227.024V297.904H225.888ZM221.28 293.552L221.424 294.384C222.176 294.272 222.912 294.16 223.76 294.016L223.728 293.28C222.768 293.392 221.984 293.488 221.28 293.552Z" fill="black"/>
<path d="M178.272 351.824V352.752H186.72V351.824H178.272ZM175.616 343.056V345.712H176.768V344.016H187.424V345.712H188.64V343.056H175.616ZM178.192 345.008V345.92H185.504V347.296H178.192V348.224H186.672V345.008H178.192ZM178.256 349.328V350.272H186.32V353.264H187.52V349.328H178.256ZM177.376 345.008V353.296H178.576V345.008H177.376ZM181.04 342.048C181.312 342.528 181.6 343.168 181.712 343.584L182.832 343.328C182.736 342.912 182.416 342.272 182.112 341.824L181.04 342.048ZM176.816 339.712V340.672H181.904V339.712H176.816ZM183.424 339.728V340.688H189.28V339.728H183.424ZM177.136 338.448C176.592 339.776 175.68 341.088 174.672 341.968C174.928 342.16 175.344 342.56 175.52 342.768C176.528 341.776 177.584 340.272 178.208 338.752L177.136 338.448ZM183.728 338.448C183.312 339.552 182.576 340.592 181.712 341.296C182 341.44 182.432 341.824 182.64 342.016C183.504 341.232 184.352 340 184.832 338.72L183.728 338.448ZM177.968 341.168C178.48 341.648 179.136 342.32 179.456 342.752L180.256 342.08C179.92 341.664 179.248 341.008 178.72 340.56L177.968 341.168ZM184.944 341.248C185.552 341.744 186.288 342.432 186.656 342.896L187.472 342.176C187.088 341.728 186.32 341.072 185.728 340.624L184.944 341.248ZM197.6 343.376H203.552V345.44H197.6V343.376ZM197.6 340.352H203.552V342.384H197.6V340.352ZM196.512 339.312V346.48H204.704V339.312H196.512ZM196.304 348.352V349.456H204.928V348.352H196.304ZM195.072 351.664V352.752H205.456V351.664H195.072ZM190.72 339.648V340.784H195.712V339.648H190.72ZM190.896 344.272V345.408H195.488V344.272H190.896ZM190.56 350.4L190.848 351.632C192.272 351.152 194.096 350.544 195.84 349.952L195.632 348.8C193.776 349.424 191.856 350.048 190.56 350.4ZM192.72 340.096V350.24L193.872 350.016V340.096H192.72ZM200.048 339.808V345.968H199.968V352.16H201.184V345.968H201.104V339.808H200.048Z" fill="black"/>
<path d="M182.547 118.773V120H176.523V118.773H182.547ZM176.828 108.625V120H175.32V108.625H176.828ZM181.75 113.516V114.742H176.523V113.516H181.75ZM182.469 108.625V109.859H176.523V108.625H182.469ZM185.641 113.352V120H184.195V111.547H185.562L185.641 113.352ZM185.297 115.453L184.695 115.43C184.701 114.852 184.786 114.318 184.953 113.828C185.12 113.333 185.354 112.904 185.656 112.539C185.958 112.174 186.318 111.893 186.734 111.695C187.156 111.492 187.622 111.391 188.133 111.391C188.549 111.391 188.924 111.448 189.258 111.562C189.591 111.672 189.875 111.849 190.109 112.094C190.349 112.339 190.531 112.656 190.656 113.047C190.781 113.432 190.844 113.904 190.844 114.461V120H189.391V114.445C189.391 114.003 189.326 113.648 189.195 113.383C189.065 113.112 188.875 112.917 188.625 112.797C188.375 112.672 188.068 112.609 187.703 112.609C187.344 112.609 187.016 112.685 186.719 112.836C186.427 112.987 186.174 113.195 185.961 113.461C185.753 113.727 185.589 114.031 185.469 114.375C185.354 114.714 185.297 115.073 185.297 115.453ZM198.516 111.547H199.828V119.82C199.828 120.565 199.677 121.201 199.375 121.727C199.073 122.253 198.651 122.651 198.109 122.922C197.573 123.198 196.953 123.336 196.25 123.336C195.958 123.336 195.615 123.289 195.219 123.195C194.828 123.107 194.443 122.953 194.062 122.734C193.688 122.521 193.372 122.232 193.117 121.867L193.875 121.008C194.229 121.435 194.599 121.732 194.984 121.898C195.375 122.065 195.76 122.148 196.141 122.148C196.599 122.148 196.995 122.062 197.328 121.891C197.661 121.719 197.919 121.464 198.102 121.125C198.289 120.792 198.383 120.38 198.383 119.891V113.406L198.516 111.547ZM192.695 115.867V115.703C192.695 115.057 192.771 114.471 192.922 113.945C193.078 113.414 193.299 112.958 193.586 112.578C193.878 112.198 194.229 111.906 194.641 111.703C195.052 111.495 195.516 111.391 196.031 111.391C196.562 111.391 197.026 111.484 197.422 111.672C197.823 111.854 198.161 112.122 198.438 112.477C198.719 112.826 198.94 113.247 199.102 113.742C199.263 114.237 199.375 114.797 199.438 115.422V116.141C199.38 116.76 199.268 117.318 199.102 117.812C198.94 118.307 198.719 118.729 198.438 119.078C198.161 119.427 197.823 119.695 197.422 119.883C197.021 120.065 196.552 120.156 196.016 120.156C195.51 120.156 195.052 120.049 194.641 119.836C194.234 119.622 193.885 119.323 193.594 118.938C193.302 118.552 193.078 118.099 192.922 117.578C192.771 117.052 192.695 116.482 192.695 115.867ZM194.141 115.703V115.867C194.141 116.289 194.182 116.685 194.266 117.055C194.354 117.424 194.487 117.75 194.664 118.031C194.846 118.312 195.078 118.534 195.359 118.695C195.641 118.852 195.977 118.93 196.367 118.93C196.846 118.93 197.242 118.828 197.555 118.625C197.867 118.422 198.115 118.154 198.297 117.82C198.484 117.487 198.63 117.125 198.734 116.734V114.852C198.677 114.565 198.589 114.289 198.469 114.023C198.354 113.753 198.203 113.513 198.016 113.305C197.833 113.091 197.607 112.922 197.336 112.797C197.065 112.672 196.747 112.609 196.383 112.609C195.987 112.609 195.646 112.693 195.359 112.859C195.078 113.021 194.846 113.245 194.664 113.531C194.487 113.812 194.354 114.141 194.266 114.516C194.182 114.885 194.141 115.281 194.141 115.703ZM203.594 108V120H202.141V108H203.594ZM207.484 111.547V120H206.031V111.547H207.484ZM205.922 109.305C205.922 109.07 205.992 108.872 206.133 108.711C206.279 108.549 206.492 108.469 206.773 108.469C207.049 108.469 207.26 108.549 207.406 108.711C207.557 108.872 207.633 109.07 207.633 109.305C207.633 109.529 207.557 109.721 207.406 109.883C207.26 110.039 207.049 110.117 206.773 110.117C206.492 110.117 206.279 110.039 206.133 109.883C205.992 109.721 205.922 109.529 205.922 109.305ZM214.727 117.758C214.727 117.549 214.68 117.357 214.586 117.18C214.497 116.997 214.312 116.833 214.031 116.688C213.755 116.536 213.339 116.406 212.781 116.297C212.312 116.198 211.888 116.081 211.508 115.945C211.133 115.81 210.812 115.646 210.547 115.453C210.286 115.26 210.086 115.034 209.945 114.773C209.805 114.513 209.734 114.208 209.734 113.859C209.734 113.526 209.807 113.211 209.953 112.914C210.104 112.617 210.315 112.354 210.586 112.125C210.862 111.896 211.193 111.716 211.578 111.586C211.964 111.456 212.393 111.391 212.867 111.391C213.544 111.391 214.122 111.51 214.602 111.75C215.081 111.99 215.448 112.31 215.703 112.711C215.958 113.107 216.086 113.547 216.086 114.031H214.641C214.641 113.797 214.57 113.57 214.43 113.352C214.294 113.128 214.094 112.943 213.828 112.797C213.568 112.651 213.247 112.578 212.867 112.578C212.466 112.578 212.141 112.641 211.891 112.766C211.646 112.885 211.466 113.039 211.352 113.227C211.242 113.414 211.188 113.612 211.188 113.82C211.188 113.977 211.214 114.117 211.266 114.242C211.323 114.362 211.422 114.474 211.562 114.578C211.703 114.677 211.901 114.771 212.156 114.859C212.411 114.948 212.737 115.036 213.133 115.125C213.826 115.281 214.396 115.469 214.844 115.688C215.292 115.906 215.625 116.174 215.844 116.492C216.062 116.81 216.172 117.195 216.172 117.648C216.172 118.018 216.094 118.357 215.938 118.664C215.786 118.971 215.565 119.237 215.273 119.461C214.987 119.68 214.643 119.852 214.242 119.977C213.846 120.096 213.401 120.156 212.906 120.156C212.161 120.156 211.531 120.023 211.016 119.758C210.5 119.492 210.109 119.148 209.844 118.727C209.578 118.305 209.445 117.859 209.445 117.391H210.898C210.919 117.786 211.034 118.102 211.242 118.336C211.451 118.565 211.706 118.729 212.008 118.828C212.31 118.922 212.609 118.969 212.906 118.969C213.302 118.969 213.633 118.917 213.898 118.812C214.169 118.708 214.375 118.565 214.516 118.383C214.656 118.201 214.727 117.992 214.727 117.758ZM219.516 108V120H218.07V108H219.516ZM219.172 115.453L218.57 115.43C218.576 114.852 218.661 114.318 218.828 113.828C218.995 113.333 219.229 112.904 219.531 112.539C219.833 112.174 220.193 111.893 220.609 111.695C221.031 111.492 221.497 111.391 222.008 111.391C222.424 111.391 222.799 111.448 223.133 111.562C223.466 111.672 223.75 111.849 223.984 112.094C224.224 112.339 224.406 112.656 224.531 113.047C224.656 113.432 224.719 113.904 224.719 114.461V120H223.266V114.445C223.266 114.003 223.201 113.648 223.07 113.383C222.94 113.112 222.75 112.917 222.5 112.797C222.25 112.672 221.943 112.609 221.578 112.609C221.219 112.609 220.891 112.685 220.594 112.836C220.302 112.987 220.049 113.195 219.836 113.461C219.628 113.727 219.464 114.031 219.344 114.375C219.229 114.714 219.172 115.073 219.172 115.453Z" fill="black"/>
<rect x="150" y="370" width="298" height="250" fill="#EEEEEE"/>
<path d="M204.272 401.824V402.752H212.72V401.824H204.272ZM201.616 393.056V395.712H202.768V394.016H213.424V395.712H214.64V393.056H201.616ZM204.192 395.008V395.92H211.504V397.296H204.192V398.224H212.672V395.008H204.192ZM204.256 399.328V400.272H212.32V403.264H213.52V399.328H204.256ZM203.376 395.008V403.296H204.576V395.008H203.376ZM207.04 392.048C207.312 392.528 207.6 393.168 207.712 393.584L208.832 393.328C208.736 392.912 208.416 392.272 208.112 391.824L207.04 392.048ZM202.816 389.712V390.672H207.904V389.712H202.816ZM209.424 389.728V390.688H215.28V389.728H209.424ZM203.136 388.448C202.592 389.776 201.68 391.088 200.672 391.968C200.928 392.16 201.344 392.56 201.52 392.768C202.528 391.776 203.584 390.272 204.208 388.752L203.136 388.448ZM209.728 388.448C209.312 389.552 208.576 390.592 207.712 391.296C208 391.44 208.432 391.824 208.64 392.016C209.504 391.232 210.352 390 210.832 388.72L209.728 388.448ZM203.968 391.168C204.48 391.648 205.136 392.32 205.456 392.752L206.256 392.08C205.92 391.664 205.248 391.008 204.72 390.56L203.968 391.168ZM210.944 391.248C211.552 391.744 212.288 392.432 212.656 392.896L213.472 392.176C213.088 391.728 212.32 391.072 211.728 390.624L210.944 391.248ZM223.6 393.376H229.552V395.44H223.6V393.376ZM223.6 390.352H229.552V392.384H223.6V390.352ZM222.512 389.312V396.48H230.704V389.312H222.512ZM222.304 398.352V399.456H230.928V398.352H222.304ZM221.072 401.664V402.752H231.456V401.664H221.072ZM216.72 389.648V390.784H221.712V389.648H216.72ZM216.896 394.272V395.408H221.488V394.272H216.896ZM216.56 400.4L216.848 401.632C218.272 401.152 220.096 400.544 221.84 399.952L221.632 398.8C219.776 399.424 217.856 400.048 216.56 400.4ZM218.72 390.096V400.24L219.872 400.016V390.096H218.72ZM226.048 389.808V395.968H225.968V402.16H227.184V395.968H227.104V389.808H226.048Z" fill="black"/>
<path d="M210.538 439.536V440.688H218.394V439.536H210.538ZM215.21 444.304V451.728C215.21 452 215.114 452.064 214.794 452.08C214.506 452.096 213.434 452.096 212.298 452.064C212.474 452.416 212.634 452.912 212.682 453.248C214.25 453.248 215.162 453.232 215.706 453.056C216.25 452.864 216.426 452.496 216.426 451.744V444.304H215.21ZM209.834 443.952V445.088H218.858V443.952H209.834ZM206.634 445.184V453.328H207.834V444.208L207.69 444.144L206.634 445.184ZM208.49 441.984C207.386 443.824 205.626 445.68 203.962 446.864C204.218 447.088 204.634 447.616 204.81 447.856C206.49 446.512 208.378 444.448 209.626 442.416L208.49 441.984ZM207.834 438.56C207.018 439.712 205.466 441.152 204.138 442.048C204.346 442.288 204.666 442.752 204.842 443.008C206.266 441.984 207.914 440.432 208.986 439.024L207.834 438.56ZM233.61 439.008C233.226 439.952 232.506 441.248 231.946 442.064L232.938 442.48C233.498 441.68 234.186 440.512 234.73 439.456L233.61 439.008ZM226.554 439.552C227.226 440.496 227.882 441.744 228.122 442.576L229.162 442.048C228.906 441.232 228.202 440 227.53 439.088L226.554 439.552ZM233.082 443.136V451.776C233.082 451.984 233.018 452.064 232.762 452.064C232.506 452.08 231.69 452.08 230.778 452.048C230.938 452.368 231.098 452.864 231.146 453.184C232.362 453.184 233.146 453.184 233.61 452.992C234.09 452.8 234.218 452.432 234.218 451.792V443.136H233.082ZM229.994 438.576V443.84H231.146V438.576H229.994ZM227.402 443.136V444.192H233.37V443.136H227.402ZM226.954 443.136V447.568C226.954 449.152 226.874 451.168 226.042 452.64C226.314 452.768 226.778 453.136 226.97 453.344C227.93 451.744 228.074 449.344 228.074 447.568V443.136H226.954ZM228.09 449.056L228.49 450.096C229.978 449.728 231.914 449.264 233.754 448.768L233.642 447.808C231.61 448.288 229.498 448.768 228.09 449.056ZM228.362 446.064C229.658 446.352 231.258 446.912 232.106 447.36L232.602 446.496C231.738 446.048 230.106 445.536 228.842 445.296L228.362 446.064ZM221.338 442.624V443.664H225.386V442.624H221.338ZM220.362 445.408V446.464H225.946V445.408H220.362ZM220.506 447.504C220.762 448.448 221.05 449.68 221.162 450.496L222.042 450.256C221.93 449.456 221.642 448.24 221.354 447.296L220.506 447.504ZM220.17 451.632L220.458 452.72C222.01 452.384 224.106 451.904 226.106 451.456L226.058 450.528C223.85 450.96 221.594 451.392 220.17 451.632ZM225.162 447.104C225.002 447.984 224.65 449.264 224.378 450.048L225.146 450.304C225.45 449.552 225.818 448.384 226.122 447.392L225.162 447.104ZM222.826 443.072V451.728L223.882 451.552V443.072H222.826ZM223.13 438.56C222.426 440.096 221.242 441.568 220.026 442.512C220.234 442.8 220.554 443.44 220.634 443.696C221.994 442.528 223.354 440.72 224.202 438.912L223.13 438.56ZM222.89 440C223.866 440.848 225.194 442.064 225.834 442.784L226.522 441.856C225.866 441.184 224.538 440.032 223.546 439.2L222.89 440Z" fill="black"/>
<path d="M210.368 478.336V487.184H211.488V478.336H210.368ZM213.392 476.64V489.696C213.392 489.968 213.28 490.048 213.008 490.064C212.752 490.08 211.888 490.08 210.912 490.048C211.072 490.4 211.248 490.928 211.312 491.248C212.624 491.248 213.424 491.216 213.888 491.024C214.352 490.816 214.544 490.448 214.544 489.696V476.64H213.392ZM202.656 483.44V484.24H208.016V483.44H202.656ZM203.392 489.568V490.512H208.336V489.568H203.392ZM201.968 481.52V483.68C201.968 485.504 201.808 488.144 200.528 490.096C200.832 490.208 201.328 490.432 201.552 490.624C202.848 488.592 203.088 485.68 203.088 483.68V481.52H201.968ZM202.64 481.52V482.416H207.424V485.344H202.576V486.24H208.528V481.52H202.64ZM202.928 486.976V491.184H203.968V487.872H207.84V491.152H208.912V486.976H202.928ZM205.088 476.688C204.112 478.288 202.336 479.664 200.56 480.512C200.768 480.768 201.104 481.36 201.232 481.616C203.12 480.592 205.056 478.976 206.192 477.088L205.088 476.688ZM204.72 478C206.08 478.832 207.92 480.048 208.832 480.816L209.472 479.824C208.56 479.088 206.672 477.936 205.344 477.152L204.72 478ZM203.712 479.92V480.72H207.088V479.92H203.712ZM225.552 481.968V483.088H231.328V481.968H225.552ZM216.976 478.24V479.264H224.032V478.24H216.976ZM216.8 484.592V485.632H224.112V484.592H216.8ZM216.72 481.904V482.928H224.288V481.904H216.72ZM228.4 482.448V491.216H229.568V482.448H228.4ZM218.016 479.584C218.304 480.288 218.544 481.232 218.624 481.84L219.648 481.552C219.568 480.96 219.296 480.048 218.992 479.36L218.016 479.584ZM222.032 479.344C221.808 480.144 221.408 481.344 221.072 482.08L222.064 482.32C222.4 481.616 222.8 480.528 223.136 479.584L222.032 479.344ZM230.08 476.848C228.928 477.344 226.88 477.808 225.072 478.112C225.216 478.368 225.392 478.768 225.456 479.024C227.344 478.752 229.536 478.304 231.056 477.744L230.08 476.848ZM219.424 476.784C219.792 477.456 220.192 478.352 220.368 478.912L221.6 478.544C221.424 478 220.992 477.12 220.608 476.48L219.424 476.784ZM225.072 478.112V483.648C225.072 485.792 224.96 488.544 223.6 490.48C223.856 490.624 224.32 490.992 224.512 491.216C225.984 489.12 226.192 485.952 226.192 483.648V478.112H225.072ZM221.92 486.816C222.4 487.616 222.976 488.72 223.232 489.408L224.08 488.912C223.84 488.224 223.264 487.184 222.736 486.384L221.92 486.816ZM218.224 486.48C217.872 487.536 217.328 488.64 216.704 489.392C216.944 489.52 217.36 489.824 217.536 489.984C218.16 489.168 218.816 487.904 219.2 486.752L218.224 486.48ZM220.016 482.432V491.216H221.184V482.432H220.016ZM242.368 478.336V487.184H243.488V478.336H242.368ZM245.392 476.64V489.696C245.392 489.968 245.28 490.048 245.008 490.064C244.752 490.08 243.888 490.08 242.912 490.048C243.072 490.4 243.248 490.928 243.312 491.248C244.624 491.248 245.424 491.216 245.888 491.024C246.352 490.816 246.544 490.448 246.544 489.696V476.64H245.392ZM234.656 483.44V484.24H240.016V483.44H234.656ZM235.392 489.568V490.512H240.336V489.568H235.392ZM233.968 481.52V483.68C233.968 485.504 233.808 488.144 232.528 490.096C232.832 490.208 233.328 490.432 233.552 490.624C234.848 488.592 235.088 485.68 235.088 483.68V481.52H233.968ZM234.64 481.52V482.416H239.424V485.344H234.576V486.24H240.528V481.52H234.64ZM234.928 486.976V491.184H235.968V487.872H239.84V491.152H240.912V486.976H234.928ZM237.088 476.688C236.112 478.288 234.336 479.664 232.56 480.512C232.768 480.768 233.104 481.36 233.232 481.616C235.12 480.592 237.056 478.976 238.192 477.088L237.088 476.688ZM236.72 478C238.08 478.832 239.92 480.048 240.832 480.816L241.472 479.824C240.56 479.088 238.672 477.936 237.344 477.152L236.72 478ZM235.712 479.92V480.72H239.088V479.92H235.712ZM249.008 486.448V487.456H263.024V486.448H249.008ZM249.072 479.424V480.416H262.96V479.424H249.072ZM249.712 482.192V483.168H262.384V482.192H249.712ZM250.528 484.336V485.264H261.6V484.336H250.528ZM255.376 482.624V491.296H256.56V482.624H255.376ZM253.92 476.56V479.904H255.04V476.56H253.92ZM256.944 476.56V479.856H258.096V476.56H256.944ZM260.656 476.752C260.384 477.488 259.856 478.544 259.424 479.216L260.4 479.536C260.848 478.912 261.408 477.968 261.888 477.088L260.656 476.752ZM258.592 480.368C258.368 480.832 257.936 481.552 257.616 482.032L258.608 482.336C258.976 481.904 259.424 481.312 259.824 480.704L258.592 480.368ZM250.368 477.088C250.896 477.84 251.472 478.864 251.696 479.504L252.768 479.104C252.544 478.448 251.952 477.44 251.392 476.72L250.368 477.088ZM252.368 480.624C252.736 481.152 253.104 481.872 253.232 482.32L254.384 482.016C254.224 481.552 253.856 480.864 253.488 480.352L252.368 480.624ZM253.696 488.272C252.64 488.96 250.592 489.6 248.928 489.872C249.168 490.096 249.504 490.48 249.664 490.768C251.328 490.4 253.44 489.568 254.592 488.704L253.696 488.272ZM257.6 488.848C259.136 489.392 261.184 490.224 262.24 490.736L262.992 489.984C261.904 489.472 259.84 488.704 258.336 488.192L257.6 488.848ZM274.368 478.336V487.184H275.488V478.336H274.368ZM277.392 476.64V489.696C277.392 489.968 277.28 490.048 277.008 490.064C276.752 490.08 275.888 490.08 274.912 490.048C275.072 490.4 275.248 490.928 275.312 491.248C276.624 491.248 277.424 491.216 277.888 491.024C278.352 490.816 278.544 490.448 278.544 489.696V476.64H277.392ZM266.656 483.44V484.24H272.016V483.44H266.656ZM267.392 489.568V490.512H272.336V489.568H267.392ZM265.968 481.52V483.68C265.968 485.504 265.808 488.144 264.528 490.096C264.832 490.208 265.328 490.432 265.552 490.624C266.848 488.592 267.088 485.68 267.088 483.68V481.52H265.968ZM266.64 481.52V482.416H271.424V485.344H266.576V486.24H272.528V481.52H266.64ZM266.928 486.976V491.184H267.968V487.872H271.84V491.152H272.912V486.976H266.928ZM269.088 476.688C268.112 478.288 266.336 479.664 264.56 480.512C264.768 480.768 265.104 481.36 265.232 481.616C267.12 480.592 269.056 478.976 270.192 477.088L269.088 476.688ZM268.72 478C270.08 478.832 271.92 480.048 272.832 480.816L273.472 479.824C272.56 479.088 270.672 477.936 269.344 477.152L268.72 478ZM267.712 479.92V480.72H271.088V479.92H267.712ZM289.552 481.968V483.088H295.328V481.968H289.552ZM280.976 478.24V479.264H288.032V478.24H280.976ZM280.8 484.592V485.632H288.112V484.592H280.8ZM280.72 481.904V482.928H288.288V481.904H280.72ZM292.4 482.448V491.216H293.568V482.448H292.4ZM282.016 479.584C282.304 480.288 282.544 481.232 282.624 481.84L283.648 481.552C283.568 480.96 283.296 480.048 282.992 479.36L282.016 479.584ZM286.032 479.344C285.808 480.144 285.408 481.344 285.072 482.08L286.064 482.32C286.4 481.616 286.8 480.528 287.136 479.584L286.032 479.344ZM294.08 476.848C292.928 477.344 290.88 477.808 289.072 478.112C289.216 478.368 289.392 478.768 289.456 479.024C291.344 478.752 293.536 478.304 295.056 477.744L294.08 476.848ZM283.424 476.784C283.792 477.456 284.192 478.352 284.368 478.912L285.6 478.544C285.424 478 284.992 477.12 284.608 476.48L283.424 476.784ZM289.072 478.112V483.648C289.072 485.792 288.96 488.544 287.6 490.48C287.856 490.624 288.32 490.992 288.512 491.216C289.984 489.12 290.192 485.952 290.192 483.648V478.112H289.072ZM285.92 486.816C286.4 487.616 286.976 488.72 287.232 489.408L288.08 488.912C287.84 488.224 287.264 487.184 286.736 486.384L285.92 486.816ZM282.224 486.48C281.872 487.536 281.328 488.64 280.704 489.392C280.944 489.52 281.36 489.824 281.536 489.984C282.16 489.168 282.816 487.904 283.2 486.752L282.224 486.48ZM284.016 482.432V491.216H285.184V482.432H284.016ZM306.368 478.336V487.184H307.488V478.336H306.368ZM309.392 476.64V489.696C309.392 489.968 309.28 490.048 309.008 490.064C308.752 490.08 307.888 490.08 306.912 490.048C307.072 490.4 307.248 490.928 307.312 491.248C308.624 491.248 309.424 491.216 309.888 491.024C310.352 490.816 310.544 490.448 310.544 489.696V476.64H309.392ZM298.656 483.44V484.24H304.016V483.44H298.656ZM299.392 489.568V490.512H304.336V489.568H299.392ZM297.968 481.52V483.68C297.968 485.504 297.808 488.144 296.528 490.096C296.832 490.208 297.328 490.432 297.552 490.624C298.848 488.592 299.088 485.68 299.088 483.68V481.52H297.968ZM298.64 481.52V482.416H303.424V485.344H298.576V486.24H304.528V481.52H298.64ZM298.928 486.976V491.184H299.968V487.872H303.84V491.152H304.912V486.976H298.928ZM301.088 476.688C300.112 478.288 298.336 479.664 296.56 480.512C296.768 480.768 297.104 481.36 297.232 481.616C299.12 480.592 301.056 478.976 302.192 477.088L301.088 476.688ZM300.72 478C302.08 478.832 303.92 480.048 304.832 480.816L305.472 479.824C304.56 479.088 302.672 477.936 301.344 477.152L300.72 478ZM299.712 479.92V480.72H303.088V479.92H299.712ZM313.008 486.448V487.456H327.024V486.448H313.008ZM313.072 479.424V480.416H326.96V479.424H313.072ZM313.712 482.192V483.168H326.384V482.192H313.712ZM314.528 484.336V485.264H325.6V484.336H314.528ZM319.376 482.624V491.296H320.56V482.624H319.376ZM317.92 476.56V479.904H319.04V476.56H317.92ZM320.944 476.56V479.856H322.096V476.56H320.944ZM324.656 476.752C324.384 477.488 323.856 478.544 323.424 479.216L324.4 479.536C324.848 478.912 325.408 477.968 325.888 477.088L324.656 476.752ZM322.592 480.368C322.368 480.832 321.936 481.552 321.616 482.032L322.608 482.336C322.976 481.904 323.424 481.312 323.824 480.704L322.592 480.368ZM314.368 477.088C314.896 477.84 315.472 478.864 315.696 479.504L316.768 479.104C316.544 478.448 315.952 477.44 315.392 476.72L314.368 477.088ZM316.368 480.624C316.736 481.152 317.104 481.872 317.232 482.32L318.384 482.016C318.224 481.552 317.856 480.864 317.488 480.352L316.368 480.624ZM317.696 488.272C316.64 488.96 314.592 489.6 312.928 489.872C313.168 490.096 313.504 490.48 313.664 490.768C315.328 490.4 317.44 489.568 318.592 488.704L317.696 488.272ZM321.6 488.848C323.136 489.392 325.184 490.224 326.24 490.736L326.992 489.984C325.904 489.472 323.84 488.704 322.336 488.192L321.6 488.848ZM338.368 478.336V487.184H339.488V478.336H338.368ZM341.392 476.64V489.696C341.392 489.968 341.28 490.048 341.008 490.064C340.752 490.08 339.888 490.08 338.912 490.048C339.072 490.4 339.248 490.928 339.312 491.248C340.624 491.248 341.424 491.216 341.888 491.024C342.352 490.816 342.544 490.448 342.544 489.696V476.64H341.392ZM330.656 483.44V484.24H336.016V483.44H330.656ZM331.392 489.568V490.512H336.336V489.568H331.392ZM329.968 481.52V483.68C329.968 485.504 329.808 488.144 328.528 490.096C328.832 490.208 329.328 490.432 329.552 490.624C330.848 488.592 331.088 485.68 331.088 483.68V481.52H329.968ZM330.64 481.52V482.416H335.424V485.344H330.576V486.24H336.528V481.52H330.64ZM330.928 486.976V491.184H331.968V487.872H335.84V491.152H336.912V486.976H330.928ZM333.088 476.688C332.112 478.288 330.336 479.664 328.56 480.512C328.768 480.768 329.104 481.36 329.232 481.616C331.12 480.592 333.056 478.976 334.192 477.088L333.088 476.688ZM332.72 478C334.08 478.832 335.92 480.048 336.832 480.816L337.472 479.824C336.56 479.088 334.672 477.936 333.344 477.152L332.72 478ZM331.712 479.92V480.72H335.088V479.92H331.712ZM353.552 481.968V483.088H359.328V481.968H353.552ZM344.976 478.24V479.264H352.032V478.24H344.976ZM344.8 484.592V485.632H352.112V484.592H344.8ZM344.72 481.904V482.928H352.288V481.904H344.72ZM356.4 482.448V491.216H357.568V482.448H356.4ZM346.016 479.584C346.304 480.288 346.544 481.232 346.624 481.84L347.648 481.552C347.568 480.96 347.296 480.048 346.992 479.36L346.016 479.584ZM350.032 479.344C349.808 480.144 349.408 481.344 349.072 482.08L350.064 482.32C350.4 481.616 350.8 480.528 351.136 479.584L350.032 479.344ZM358.08 476.848C356.928 477.344 354.88 477.808 353.072 478.112C353.216 478.368 353.392 478.768 353.456 479.024C355.344 478.752 357.536 478.304 359.056 477.744L358.08 476.848ZM347.424 476.784C347.792 477.456 348.192 478.352 348.368 478.912L349.6 478.544C349.424 478 348.992 477.12 348.608 476.48L347.424 476.784ZM353.072 478.112V483.648C353.072 485.792 352.96 488.544 351.6 490.48C351.856 490.624 352.32 490.992 352.512 491.216C353.984 489.12 354.192 485.952 354.192 483.648V478.112H353.072ZM349.92 486.816C350.4 487.616 350.976 488.72 351.232 489.408L352.08 488.912C351.84 488.224 351.264 487.184 350.736 486.384L349.92 486.816ZM346.224 486.48C345.872 487.536 345.328 488.64 344.704 489.392C344.944 489.52 345.36 489.824 345.536 489.984C346.16 489.168 346.816 487.904 347.2 486.752L346.224 486.48ZM348.016 482.432V491.216H349.184V482.432H348.016ZM370.368 478.336V487.184H371.488V478.336H370.368ZM373.392 476.64V489.696C373.392 489.968 373.28 490.048 373.008 490.064C372.752 490.08 371.888 490.08 370.912 490.048C371.072 490.4 371.248 490.928 371.312 491.248C372.624 491.248 373.424 491.216 373.888 491.024C374.352 490.816 374.544 490.448 374.544 489.696V476.64H373.392ZM362.656 483.44V484.24H368.016V483.44H362.656ZM363.392 489.568V490.512H368.336V489.568H363.392ZM361.968 481.52V483.68C361.968 485.504 361.808 488.144 360.528 490.096C360.832 490.208 361.328 490.432 361.552 490.624C362.848 488.592 363.088 485.68 363.088 483.68V481.52H361.968ZM362.64 481.52V482.416H367.424V485.344H362.576V486.24H368.528V481.52H362.64ZM362.928 486.976V491.184H363.968V487.872H367.84V491.152H368.912V486.976H362.928ZM365.088 476.688C364.112 478.288 362.336 479.664 360.56 480.512C360.768 480.768 361.104 481.36 361.232 481.616C363.12 480.592 365.056 478.976 366.192 477.088L365.088 476.688ZM364.72 478C366.08 478.832 367.92 480.048 368.832 480.816L369.472 479.824C368.56 479.088 366.672 477.936 365.344 477.152L364.72 478ZM363.712 479.92V480.72H367.088V479.92H363.712ZM377.008 486.448V487.456H391.024V486.448H377.008ZM377.072 479.424V480.416H390.96V479.424H377.072ZM377.712 482.192V483.168H390.384V482.192H377.712ZM378.528 484.336V485.264H389.6V484.336H378.528ZM383.376 482.624V491.296H384.56V482.624H383.376ZM381.92 476.56V479.904H383.04V476.56H381.92ZM384.944 476.56V479.856H386.096V476.56H384.944ZM388.656 476.752C388.384 477.488 387.856 478.544 387.424 479.216L388.4 479.536C388.848 478.912 389.408 477.968 389.888 477.088L388.656 476.752ZM386.592 480.368C386.368 480.832 385.936 481.552 385.616 482.032L386.608 482.336C386.976 481.904 387.424 481.312 387.824 480.704L386.592 480.368ZM378.368 477.088C378.896 477.84 379.472 478.864 379.696 479.504L380.768 479.104C380.544 478.448 379.952 477.44 379.392 476.72L378.368 477.088ZM380.368 480.624C380.736 481.152 381.104 481.872 381.232 482.32L382.384 482.016C382.224 481.552 381.856 480.864 381.488 480.352L380.368 480.624ZM381.696 488.272C380.64 488.96 378.592 489.6 376.928 489.872C377.168 490.096 377.504 490.48 377.664 490.768C379.328 490.4 381.44 489.568 382.592 488.704L381.696 488.272ZM385.6 488.848C387.136 489.392 389.184 490.224 390.24 490.736L390.992 489.984C389.904 489.472 387.84 488.704 386.336 488.192L385.6 488.848ZM402.368 478.336V487.184H403.488V478.336H402.368ZM405.392 476.64V489.696C405.392 489.968 405.28 490.048 405.008 490.064C404.752 490.08 403.888 490.08 402.912 490.048C403.072 490.4 403.248 490.928 403.312 491.248C404.624 491.248 405.424 491.216 405.888 491.024C406.352 490.816 406.544 490.448 406.544 489.696V476.64H405.392ZM394.656 483.44V484.24H400.016V483.44H394.656ZM395.392 489.568V490.512H400.336V489.568H395.392ZM393.968 481.52V483.68C393.968 485.504 393.808 488.144 392.528 490.096C392.832 490.208 393.328 490.432 393.552 490.624C394.848 488.592 395.088 485.68 395.088 483.68V481.52H393.968ZM394.64 481.52V482.416H399.424V485.344H394.576V486.24H400.528V481.52H394.64ZM394.928 486.976V491.184H395.968V487.872H399.84V491.152H400.912V486.976H394.928ZM397.088 476.688C396.112 478.288 394.336 479.664 392.56 480.512C392.768 480.768 393.104 481.36 393.232 481.616C395.12 480.592 397.056 478.976 398.192 477.088L397.088 476.688ZM396.72 478C398.08 478.832 399.92 480.048 400.832 480.816L401.472 479.824C400.56 479.088 398.672 477.936 397.344 477.152L396.72 478ZM395.712 479.92V480.72H399.088V479.92H395.712ZM417.552 481.968V483.088H423.328V481.968H417.552ZM408.976 478.24V479.264H416.032V478.24H408.976ZM408.8 484.592V485.632H416.112V484.592H408.8ZM408.72 481.904V482.928H416.288V481.904H408.72ZM420.4 482.448V491.216H421.568V482.448H420.4ZM410.016 479.584C410.304 480.288 410.544 481.232 410.624 481.84L411.648 481.552C411.568 480.96 411.296 480.048 410.992 479.36L410.016 479.584ZM414.032 479.344C413.808 480.144 413.408 481.344 413.072 482.08L414.064 482.32C414.4 481.616 414.8 480.528 415.136 479.584L414.032 479.344ZM422.08 476.848C420.928 477.344 418.88 477.808 417.072 478.112C417.216 478.368 417.392 478.768 417.456 479.024C419.344 478.752 421.536 478.304 423.056 477.744L422.08 476.848ZM411.424 476.784C411.792 477.456 412.192 478.352 412.368 478.912L413.6 478.544C413.424 478 412.992 477.12 412.608 476.48L411.424 476.784ZM417.072 478.112V483.648C417.072 485.792 416.96 488.544 415.6 490.48C415.856 490.624 416.32 490.992 416.512 491.216C417.984 489.12 418.192 485.952 418.192 483.648V478.112H417.072ZM413.92 486.816C414.4 487.616 414.976 488.72 415.232 489.408L416.08 488.912C415.84 488.224 415.264 487.184 414.736 486.384L413.92 486.816ZM410.224 486.48C409.872 487.536 409.328 488.64 408.704 489.392C408.944 489.52 409.36 489.824 409.536 489.984C410.16 489.168 410.816 487.904 411.2 486.752L410.224 486.48ZM412.016 482.432V491.216H413.184V482.432H412.016ZM434.368 478.336V487.184H435.488V478.336H434.368ZM437.392 476.64V489.696C437.392 489.968 437.28 490.048 437.008 490.064C436.752 490.08 435.888 490.08 434.912 490.048C435.072 490.4 435.248 490.928 435.312 491.248C436.624 491.248 437.424 491.216 437.888 491.024C438.352 490.816 438.544 490.448 438.544 489.696V476.64H437.392ZM426.656 483.44V484.24H432.016V483.44H426.656ZM427.392 489.568V490.512H432.336V489.568H427.392ZM425.968 481.52V483.68C425.968 485.504 425.808 488.144 424.528 490.096C424.832 490.208 425.328 490.432 425.552 490.624C426.848 488.592 427.088 485.68 427.088 483.68V481.52H425.968ZM426.64 481.52V482.416H431.424V485.344H426.576V486.24H432.528V481.52H426.64ZM426.928 486.976V491.184H427.968V487.872H431.84V491.152H432.912V486.976H426.928ZM429.088 476.688C428.112 478.288 426.336 479.664 424.56 480.512C424.768 480.768 425.104 481.36 425.232 481.616C427.12 480.592 429.056 478.976 430.192 477.088L429.088 476.688ZM428.72 478C430.08 478.832 431.92 480.048 432.832 480.816L433.472 479.824C432.56 479.088 430.672 477.936 429.344 477.152L428.72 478ZM427.712 479.92V480.72H431.088V479.92H427.712ZM201.008 510.448V511.456H215.024V510.448H201.008ZM201.072 503.424V504.416H214.96V503.424H201.072ZM201.712 506.192V507.168H214.384V506.192H201.712ZM202.528 508.336V509.264H213.6V508.336H202.528ZM207.376 506.624V515.296H208.56V506.624H207.376ZM205.92 500.56V503.904H207.04V500.56H205.92ZM208.944 500.56V503.856H210.096V500.56H208.944ZM212.656 500.752C212.384 501.488 211.856 502.544 211.424 503.216L212.4 503.536C212.848 502.912 213.408 501.968 213.888 501.088L212.656 500.752ZM210.592 504.368C210.368 504.832 209.936 505.552 209.616 506.032L210.608 506.336C210.976 505.904 211.424 505.312 211.824 504.704L210.592 504.368ZM202.368 501.088C202.896 501.84 203.472 502.864 203.696 503.504L204.768 503.104C204.544 502.448 203.952 501.44 203.392 500.72L202.368 501.088ZM204.368 504.624C204.736 505.152 205.104 505.872 205.232 506.32L206.384 506.016C206.224 505.552 205.856 504.864 205.488 504.352L204.368 504.624ZM205.696 512.272C204.64 512.96 202.592 513.6 200.928 513.872C201.168 514.096 201.504 514.48 201.664 514.768C203.328 514.4 205.44 513.568 206.592 512.704L205.696 512.272ZM209.6 512.848C211.136 513.392 213.184 514.224 214.24 514.736L214.992 513.984C213.904 513.472 211.84 512.704 210.336 512.192L209.6 512.848ZM226.368 502.336V511.184H227.488V502.336H226.368ZM229.392 500.64V513.696C229.392 513.968 229.28 514.048 229.008 514.064C228.752 514.08 227.888 514.08 226.912 514.048C227.072 514.4 227.248 514.928 227.312 515.248C228.624 515.248 229.424 515.216 229.888 515.024C230.352 514.816 230.544 514.448 230.544 513.696V500.64H229.392ZM218.656 507.44V508.24H224.016V507.44H218.656ZM219.392 513.568V514.512H224.336V513.568H219.392ZM217.968 505.52V507.68C217.968 509.504 217.808 512.144 216.528 514.096C216.832 514.208 217.328 514.432 217.552 514.624C218.848 512.592 219.088 509.68 219.088 507.68V505.52H217.968ZM218.64 505.52V506.416H223.424V509.344H218.576V510.24H224.528V505.52H218.64ZM218.928 510.976V515.184H219.968V511.872H223.84V515.152H224.912V510.976H218.928ZM221.088 500.688C220.112 502.288 218.336 503.664 216.56 504.512C216.768 504.768 217.104 505.36 217.232 505.616C219.12 504.592 221.056 502.976 222.192 501.088L221.088 500.688ZM220.72 502C222.08 502.832 223.92 504.048 224.832 504.816L225.472 503.824C224.56 503.088 222.672 501.936 221.344 501.152L220.72 502ZM219.712 503.92V504.72H223.088V503.92H219.712ZM241.552 505.968V507.088H247.328V505.968H241.552ZM232.976 502.24V503.264H240.032V502.24H232.976ZM232.8 508.592V509.632H240.112V508.592H232.8ZM232.72 505.904V506.928H240.288V505.904H232.72ZM244.4 506.448V515.216H245.568V506.448H244.4ZM234.016 503.584C234.304 504.288 234.544 505.232 234.624 505.84L235.648 505.552C235.568 504.96 235.296 504.048 234.992 503.36L234.016 503.584ZM238.032 503.344C237.808 504.144 237.408 505.344 237.072 506.08L238.064 506.32C238.4 505.616 238.8 504.528 239.136 503.584L238.032 503.344ZM246.08 500.848C244.928 501.344 242.88 501.808 241.072 502.112C241.216 502.368 241.392 502.768 241.456 503.024C243.344 502.752 245.536 502.304 247.056 501.744L246.08 500.848ZM235.424 500.784C235.792 501.456 236.192 502.352 236.368 502.912L237.6 502.544C237.424 502 236.992 501.12 236.608 500.48L235.424 500.784ZM241.072 502.112V507.648C241.072 509.792 240.96 512.544 239.6 514.48C239.856 514.624 240.32 514.992 240.512 515.216C241.984 513.12 242.192 509.952 242.192 507.648V502.112H241.072ZM237.92 510.816C238.4 511.616 238.976 512.72 239.232 513.408L240.08 512.912C239.84 512.224 239.264 511.184 238.736 510.384L237.92 510.816ZM234.224 510.48C233.872 511.536 233.328 512.64 232.704 513.392C232.944 513.52 233.36 513.824 233.536 513.984C234.16 513.168 234.816 511.904 235.2 510.752L234.224 510.48ZM236.016 506.432V515.216H237.184V506.432H236.016ZM258.368 502.336V511.184H259.488V502.336H258.368ZM261.392 500.64V513.696C261.392 513.968 261.28 514.048 261.008 514.064C260.752 514.08 259.888 514.08 258.912 514.048C259.072 514.4 259.248 514.928 259.312 515.248C260.624 515.248 261.424 515.216 261.888 515.024C262.352 514.816 262.544 514.448 262.544 513.696V500.64H261.392ZM250.656 507.44V508.24H256.016V507.44H250.656ZM251.392 513.568V514.512H256.336V513.568H251.392ZM249.968 505.52V507.68C249.968 509.504 249.808 512.144 248.528 514.096C248.832 514.208 249.328 514.432 249.552 514.624C250.848 512.592 251.088 509.68 251.088 507.68V505.52H249.968ZM250.64 505.52V506.416H255.424V509.344H250.576V510.24H256.528V505.52H250.64ZM250.928 510.976V515.184H251.968V511.872H255.84V515.152H256.912V510.976H250.928ZM253.088 500.688C252.112 502.288 250.336 503.664 248.56 504.512C248.768 504.768 249.104 505.36 249.232 505.616C251.12 504.592 253.056 502.976 254.192 501.088L253.088 500.688ZM252.72 502C254.08 502.832 255.92 504.048 256.832 504.816L257.472 503.824C256.56 503.088 254.672 501.936 253.344 501.152L252.72 502ZM251.712 503.92V504.72H255.088V503.92H251.712ZM265.008 510.448V511.456H279.024V510.448H265.008ZM265.072 503.424V504.416H278.96V503.424H265.072ZM265.712 506.192V507.168H278.384V506.192H265.712ZM266.528 508.336V509.264H277.6V508.336H266.528ZM271.376 506.624V515.296H272.56V506.624H271.376ZM269.92 500.56V503.904H271.04V500.56H269.92ZM272.944 500.56V503.856H274.096V500.56H272.944ZM276.656 500.752C276.384 501.488 275.856 502.544 275.424 503.216L276.4 503.536C276.848 502.912 277.408 501.968 277.888 501.088L276.656 500.752ZM274.592 504.368C274.368 504.832 273.936 505.552 273.616 506.032L274.608 506.336C274.976 505.904 275.424 505.312 275.824 504.704L274.592 504.368ZM266.368 501.088C266.896 501.84 267.472 502.864 267.696 503.504L268.768 503.104C268.544 502.448 267.952 501.44 267.392 500.72L266.368 501.088ZM268.368 504.624C268.736 505.152 269.104 505.872 269.232 506.32L270.384 506.016C270.224 505.552 269.856 504.864 269.488 504.352L268.368 504.624ZM269.696 512.272C268.64 512.96 266.592 513.6 264.928 513.872C265.168 514.096 265.504 514.48 265.664 514.768C267.328 514.4 269.44 513.568 270.592 512.704L269.696 512.272ZM273.6 512.848C275.136 513.392 277.184 514.224 278.24 514.736L278.992 513.984C277.904 513.472 275.84 512.704 274.336 512.192L273.6 512.848Z" fill="black"/>
<path d="M207.312 542.624C207.248 545.088 207.344 552.912 200.672 556.288C201.04 556.544 201.44 556.912 201.648 557.232C208.448 553.584 208.576 545.456 208.64 542.624H207.312ZM208.496 544.592L207.344 544.72C207.568 546.112 208.224 554.208 214.56 557.168C214.736 556.832 215.088 556.416 215.44 556.144C209.296 553.408 208.64 545.744 208.496 544.592ZM217.072 545.824V547.056H230.992V545.824H217.072ZM225.408 542.56V555.408C225.408 555.728 225.28 555.824 224.96 555.84C224.656 555.856 223.536 555.856 222.4 555.808C222.576 556.176 222.784 556.72 222.832 557.072C224.432 557.088 225.36 557.056 225.92 556.848C226.48 556.64 226.72 556.272 226.72 555.408V542.56H225.408ZM224.8 546.032C223.152 549.2 219.792 552.656 216.56 554.288C216.896 554.56 217.28 555.008 217.488 555.36C220.704 553.52 224.064 549.984 225.856 546.704L224.8 546.032Z" fill="black"/>
<path d="M204.236 593.544V594.324H211.472V593.544H204.236ZM204.428 591.216V591.948H208.064V591.216H204.428ZM209.528 590.916C209.912 591.576 210.296 592.452 210.44 593.004L211.16 592.716C211.004 592.176 210.596 591.312 210.2 590.676L209.528 590.916ZM206.984 592.044C206.9 592.524 206.72 593.232 206.576 593.688L207.2 593.82C207.368 593.4 207.536 592.752 207.716 592.176L206.984 592.044ZM204.764 592.152C204.908 592.68 205.052 593.364 205.076 593.808L205.772 593.676C205.724 593.244 205.592 592.56 205.424 592.056L204.764 592.152ZM210.62 594.984C209.9 597.336 208.436 599.244 206.78 600.36C206.96 600.48 207.188 600.708 207.308 600.852C209 599.688 210.524 597.732 211.328 595.344L210.62 594.984ZM208.4 589.932C208.508 596.064 208.868 600.9 210.524 600.936C210.92 600.936 211.328 600.456 211.556 598.644C211.424 598.572 211.1 598.368 210.968 598.188C210.884 599.28 210.74 599.94 210.536 599.94C209.672 599.904 209.216 595.32 209.18 589.932H208.4ZM205.508 590.148C205.712 590.628 205.952 591.252 206.048 591.648L206.84 591.444C206.732 591.072 206.48 590.46 206.252 590.004L205.508 590.148ZM205.04 596.772V597.432H207.512V596.772H205.04ZM204.692 595.008V600.072H205.412V595.008H204.692ZM204.992 595.008V595.68H207.128V599.544H207.836V595.008H204.992ZM205.028 598.572V599.22H207.5V598.572H205.028ZM200.504 590.436V591.252H204.404V590.436H200.504ZM201.536 592.956V593.724H203.492V592.956H201.536ZM201.536 595.428V596.196H203.492V595.428H201.536ZM201.14 590.856V598.536H201.836V590.856H201.14ZM203.096 590.844V600.972H203.816V590.844H203.096ZM200.384 598.392L200.564 599.172C201.428 598.968 202.508 598.716 203.552 598.476L203.504 597.744C202.328 597.996 201.2 598.248 200.384 598.392ZM215.96 594.852V595.644H223.52V594.852H215.96ZM217.316 596.484V597.216H222.548V596.484H217.316ZM217.904 595.152C217.352 596.34 216.356 597.384 215.252 598.044C215.432 598.176 215.744 598.452 215.864 598.608C216.98 597.864 218.072 596.688 218.684 595.356L217.904 595.152ZM222.38 596.484V596.616C222.212 598.968 222.02 599.868 221.792 600.096C221.696 600.216 221.6 600.228 221.42 600.228C221.252 600.228 220.856 600.216 220.4 600.18C220.52 600.372 220.604 600.696 220.604 600.924C221.084 600.948 221.54 600.936 221.804 600.924C222.092 600.9 222.308 600.828 222.5 600.624C222.824 600.276 223.016 599.328 223.196 596.844C223.22 596.712 223.232 596.484 223.232 596.484H222.38ZM217.964 592.548H221.828V593.508H217.964V592.548ZM217.964 590.952H221.828V591.9H217.964V590.952ZM217.148 590.28V594.18H222.668V590.28H217.148ZM212.624 592.524V593.388H216.188V592.524H212.624ZM214.028 590.016V597.396H214.88V590.016H214.028ZM212.396 597.876L212.744 598.776C213.764 598.284 215.072 597.636 216.296 597.012L216.104 596.22C214.736 596.856 213.32 597.492 212.396 597.876ZM220.844 596.616C220.412 598.104 219.404 599.736 218.276 600.492C218.504 600.624 218.78 600.828 218.936 601.008C220.028 600.18 221.024 598.476 221.48 596.952L220.844 596.616ZM218.972 596.652C218.384 597.912 217.124 599.292 215.936 599.94C216.152 600.072 216.404 600.3 216.548 600.492C217.712 599.748 218.972 598.32 219.584 597.012L218.972 596.652ZM230.144 590.844V591.564H234.98V590.844H230.144ZM230.024 593.148V593.88H235.256V593.148H230.024ZM230.768 592.068C230.972 592.536 231.188 593.148 231.272 593.556L232.04 593.34C231.932 592.968 231.704 592.368 231.5 591.912L230.768 592.068ZM233.456 591.864C233.348 592.296 233.12 592.944 232.94 593.364L233.612 593.544C233.816 593.148 234.044 592.572 234.26 592.032L233.456 591.864ZM231.26 596.868C231.128 598.488 230.744 599.712 229.088 600.372C229.268 600.516 229.508 600.816 229.604 601.008C231.416 600.204 231.896 598.788 232.064 596.868H231.26ZM232.808 596.868V599.58C232.808 600.264 232.868 600.456 233.06 600.6C233.228 600.756 233.54 600.804 233.78 600.804C233.912 600.804 234.296 600.804 234.452 600.804C234.656 600.804 234.944 600.78 235.088 600.708C235.268 600.636 235.4 600.504 235.472 600.312C235.544 600.132 235.58 599.604 235.604 599.124C235.388 599.052 235.1 598.92 234.932 598.788C234.92 599.268 234.92 599.64 234.884 599.808C234.848 599.964 234.8 600.036 234.728 600.06C234.668 600.108 234.524 600.12 234.404 600.12C234.272 600.12 234.056 600.12 233.96 600.12C233.84 600.12 233.756 600.096 233.696 600.06C233.636 600.012 233.612 599.892 233.612 599.676V596.868H232.808ZM231.74 590.064C231.908 590.436 232.112 590.952 232.196 591.276L233.012 591.06C232.916 590.76 232.712 590.268 232.52 589.896L231.74 590.064ZM224.9 590.844V591.564H229.676V590.844H224.9ZM224.708 593.184V593.916H229.736V593.184H224.708ZM225.5 592.08C225.728 592.56 225.968 593.184 226.076 593.592L226.844 593.376C226.724 592.98 226.46 592.38 226.232 591.912L225.5 592.08ZM228.236 591.864C228.14 592.32 227.912 592.98 227.744 593.412L228.428 593.592C228.62 593.184 228.836 592.608 229.052 592.056L228.236 591.864ZM226.112 596.892C226.016 598.38 225.752 599.628 224.552 600.324C224.732 600.456 224.984 600.756 225.08 600.96C226.448 600.108 226.796 598.68 226.928 596.892H226.112ZM226.52 590.052C226.688 590.424 226.904 590.94 226.988 591.264L227.816 591.048C227.708 590.736 227.504 590.244 227.3 589.884L226.52 590.052ZM227.768 600.456C227.912 600.288 228.2 600.108 230.036 599.076C229.976 598.92 229.88 598.608 229.856 598.392L227.912 599.388L227.66 599.724L227.768 600.456ZM226.028 595.164H228.548V596.412H226.028V595.164ZM225.272 594.528V597.048H229.352V594.528H225.272ZM227.768 600.456C227.768 600.192 228.572 599.748 228.572 599.748V596.868H227.78V598.896C227.78 599.352 227.588 599.52 227.432 599.604C227.564 599.82 227.708 600.24 227.768 600.456ZM231.14 595.164H233.924V596.4H231.14V595.164ZM230.372 594.528V597.036H234.728V594.528H230.372ZM241.496 593.616V599.808C241.496 600.012 241.412 600.072 241.184 600.084C240.944 600.096 240.104 600.096 239.216 600.072C239.36 600.312 239.516 600.696 239.576 600.948C240.68 600.948 241.4 600.936 241.832 600.804C242.264 600.66 242.408 600.396 242.408 599.82V593.616H241.496ZM237.872 593.412V594.168H245.132V598.212H246.032V593.412H237.872ZM236.468 595.416V596.172H247.544V595.416H236.468ZM237.668 597.48V598.212H245.516V597.48H237.668ZM245.912 589.884C243.872 590.28 240.224 590.544 237.2 590.652C237.296 590.844 237.428 591.156 237.44 591.372C240.512 591.288 244.196 591.036 246.536 590.58L245.912 589.884ZM238.244 591.732C238.58 592.188 238.904 592.8 239.024 593.22L239.9 592.896C239.768 592.5 239.432 591.9 239.084 591.456L238.244 591.732ZM241.136 591.552C241.4 592.056 241.664 592.728 241.748 593.184L242.624 592.92C242.528 592.488 242.24 591.828 241.952 591.324L241.136 591.552ZM245.324 591.036C244.976 591.672 244.364 592.596 243.872 593.148L244.652 593.436C245.144 592.884 245.768 592.08 246.26 591.348L245.324 591.036ZM248.984 592.548V593.46H258.296V592.548H248.984ZM257.948 592.548V592.74C257.708 597.504 257.444 599.376 256.988 599.82C256.832 599.964 256.688 600 256.424 600C256.124 600 255.356 599.988 254.54 599.916C254.708 600.18 254.828 600.576 254.84 600.84C255.584 600.888 256.352 600.912 256.772 600.864C257.228 600.828 257.516 600.732 257.804 600.384C258.332 599.784 258.584 597.996 258.86 593.028C258.872 592.884 258.884 592.548 258.884 592.548H257.948ZM252.908 589.944V592.032C252.908 594.516 252.62 597.924 248.636 600.3C248.852 600.456 249.188 600.792 249.32 601.008C253.52 598.476 253.856 594.768 253.856 592.032V589.944H252.908ZM264.236 593.544V594.324H271.472V593.544H264.236ZM264.428 591.216V591.948H268.064V591.216H264.428ZM269.528 590.916C269.912 591.576 270.296 592.452 270.44 593.004L271.16 592.716C271.004 592.176 270.596 591.312 270.2 590.676L269.528 590.916ZM266.984 592.044C266.9 592.524 266.72 593.232 266.576 593.688L267.2 593.82C267.368 593.4 267.536 592.752 267.716 592.176L266.984 592.044ZM264.764 592.152C264.908 592.68 265.052 593.364 265.076 593.808L265.772 593.676C265.724 593.244 265.592 592.56 265.424 592.056L264.764 592.152ZM270.62 594.984C269.9 597.336 268.436 599.244 266.78 600.36C266.96 600.48 267.188 600.708 267.308 600.852C269 599.688 270.524 597.732 271.328 595.344L270.62 594.984ZM268.4 589.932C268.508 596.064 268.868 600.9 270.524 600.936C270.92 600.936 271.328 600.456 271.556 598.644C271.424 598.572 271.1 598.368 270.968 598.188C270.884 599.28 270.74 599.94 270.536 599.94C269.672 599.904 269.216 595.32 269.18 589.932H268.4ZM265.508 590.148C265.712 590.628 265.952 591.252 266.048 591.648L266.84 591.444C266.732 591.072 266.48 590.46 266.252 590.004L265.508 590.148ZM265.04 596.772V597.432H267.512V596.772H265.04ZM264.692 595.008V600.072H265.412V595.008H264.692ZM264.992 595.008V595.68H267.128V599.544H267.836V595.008H264.992ZM265.028 598.572V599.22H267.5V598.572H265.028ZM260.504 590.436V591.252H264.404V590.436H260.504ZM261.536 592.956V593.724H263.492V592.956H261.536ZM261.536 595.428V596.196H263.492V595.428H261.536ZM261.14 590.856V598.536H261.836V590.856H261.14ZM263.096 590.844V600.972H263.816V590.844H263.096ZM260.384 598.392L260.564 599.172C261.428 598.968 262.508 598.716 263.552 598.476L263.504 597.744C262.328 597.996 261.2 598.248 260.384 598.392ZM275.96 594.852V595.644H283.52V594.852H275.96ZM277.316 596.484V597.216H282.548V596.484H277.316ZM277.904 595.152C277.352 596.34 276.356 597.384 275.252 598.044C275.432 598.176 275.744 598.452 275.864 598.608C276.98 597.864 278.072 596.688 278.684 595.356L277.904 595.152ZM282.38 596.484V596.616C282.212 598.968 282.02 599.868 281.792 600.096C281.696 600.216 281.6 600.228 281.42 600.228C281.252 600.228 280.856 600.216 280.4 600.18C280.52 600.372 280.604 600.696 280.604 600.924C281.084 600.948 281.54 600.936 281.804 600.924C282.092 600.9 282.308 600.828 282.5 600.624C282.824 600.276 283.016 599.328 283.196 596.844C283.22 596.712 283.232 596.484 283.232 596.484H282.38ZM277.964 592.548H281.828V593.508H277.964V592.548ZM277.964 590.952H281.828V591.9H277.964V590.952ZM277.148 590.28V594.18H282.668V590.28H277.148ZM272.624 592.524V593.388H276.188V592.524H272.624ZM274.028 590.016V597.396H274.88V590.016H274.028ZM272.396 597.876L272.744 598.776C273.764 598.284 275.072 597.636 276.296 597.012L276.104 596.22C274.736 596.856 273.32 597.492 272.396 597.876ZM280.844 596.616C280.412 598.104 279.404 599.736 278.276 600.492C278.504 600.624 278.78 600.828 278.936 601.008C280.028 600.18 281.024 598.476 281.48 596.952L280.844 596.616ZM278.972 596.652C278.384 597.912 277.124 599.292 275.936 599.94C276.152 600.072 276.404 600.3 276.548 600.492C277.712 599.748 278.972 598.32 279.584 597.012L278.972 596.652ZM290.144 590.844V591.564H294.98V590.844H290.144ZM290.024 593.148V593.88H295.256V593.148H290.024ZM290.768 592.068C290.972 592.536 291.188 593.148 291.272 593.556L292.04 593.34C291.932 592.968 291.704 592.368 291.5 591.912L290.768 592.068ZM293.456 591.864C293.348 592.296 293.12 592.944 292.94 593.364L293.612 593.544C293.816 593.148 294.044 592.572 294.26 592.032L293.456 591.864ZM291.26 596.868C291.128 598.488 290.744 599.712 289.088 600.372C289.268 600.516 289.508 600.816 289.604 601.008C291.416 600.204 291.896 598.788 292.064 596.868H291.26ZM292.808 596.868V599.58C292.808 600.264 292.868 600.456 293.06 600.6C293.228 600.756 293.54 600.804 293.78 600.804C293.912 600.804 294.296 600.804 294.452 600.804C294.656 600.804 294.944 600.78 295.088 600.708C295.268 600.636 295.4 600.504 295.472 600.312C295.544 600.132 295.58 599.604 295.604 599.124C295.388 599.052 295.1 598.92 294.932 598.788C294.92 599.268 294.92 599.64 294.884 599.808C294.848 599.964 294.8 600.036 294.728 600.06C294.668 600.108 294.524 600.12 294.404 600.12C294.272 600.12 294.056 600.12 293.96 600.12C293.84 600.12 293.756 600.096 293.696 600.06C293.636 600.012 293.612 599.892 293.612 599.676V596.868H292.808ZM291.74 590.064C291.908 590.436 292.112 590.952 292.196 591.276L293.012 591.06C292.916 590.76 292.712 590.268 292.52 589.896L291.74 590.064ZM284.9 590.844V591.564H289.676V590.844H284.9ZM284.708 593.184V593.916H289.736V593.184H284.708ZM285.5 592.08C285.728 592.56 285.968 593.184 286.076 593.592L286.844 593.376C286.724 592.98 286.46 592.38 286.232 591.912L285.5 592.08ZM288.236 591.864C288.14 592.32 287.912 592.98 287.744 593.412L288.428 593.592C288.62 593.184 288.836 592.608 289.052 592.056L288.236 591.864ZM286.112 596.892C286.016 598.38 285.752 599.628 284.552 600.324C284.732 600.456 284.984 600.756 285.08 600.96C286.448 600.108 286.796 598.68 286.928 596.892H286.112ZM286.52 590.052C286.688 590.424 286.904 590.94 286.988 591.264L287.816 591.048C287.708 590.736 287.504 590.244 287.3 589.884L286.52 590.052ZM287.768 600.456C287.912 600.288 288.2 600.108 290.036 599.076C289.976 598.92 289.88 598.608 289.856 598.392L287.912 599.388L287.66 599.724L287.768 600.456ZM286.028 595.164H288.548V596.412H286.028V595.164ZM285.272 594.528V597.048H289.352V594.528H285.272ZM287.768 600.456C287.768 600.192 288.572 599.748 288.572 599.748V596.868H287.78V598.896C287.78 599.352 287.588 599.52 287.432 599.604C287.564 599.82 287.708 600.24 287.768 600.456ZM291.14 595.164H293.924V596.4H291.14V595.164ZM290.372 594.528V597.036H294.728V594.528H290.372ZM301.496 593.616V599.808C301.496 600.012 301.412 600.072 301.184 600.084C300.944 600.096 300.104 600.096 299.216 600.072C299.36 600.312 299.516 600.696 299.576 600.948C300.68 600.948 301.4 600.936 301.832 600.804C302.264 600.66 302.408 600.396 302.408 599.82V593.616H301.496ZM297.872 593.412V594.168H305.132V598.212H306.032V593.412H297.872ZM296.468 595.416V596.172H307.544V595.416H296.468ZM297.668 597.48V598.212H305.516V597.48H297.668ZM305.912 589.884C303.872 590.28 300.224 590.544 297.2 590.652C297.296 590.844 297.428 591.156 297.44 591.372C300.512 591.288 304.196 591.036 306.536 590.58L305.912 589.884ZM298.244 591.732C298.58 592.188 298.904 592.8 299.024 593.22L299.9 592.896C299.768 592.5 299.432 591.9 299.084 591.456L298.244 591.732ZM301.136 591.552C301.4 592.056 301.664 592.728 301.748 593.184L302.624 592.92C302.528 592.488 302.24 591.828 301.952 591.324L301.136 591.552ZM305.324 591.036C304.976 591.672 304.364 592.596 303.872 593.148L304.652 593.436C305.144 592.884 305.768 592.08 306.26 591.348L305.324 591.036ZM308.984 592.548V593.46H318.296V592.548H308.984ZM317.948 592.548V592.74C317.708 597.504 317.444 599.376 316.988 599.82C316.832 599.964 316.688 600 316.424 600C316.124 600 315.356 599.988 314.54 599.916C314.708 600.18 314.828 600.576 314.84 600.84C315.584 600.888 316.352 600.912 316.772 600.864C317.228 600.828 317.516 600.732 317.804 600.384C318.332 599.784 318.584 597.996 318.86 593.028C318.872 592.884 318.884 592.548 318.884 592.548H317.948ZM312.908 589.944V592.032C312.908 594.516 312.62 597.924 308.636 600.3C308.852 600.456 309.188 600.792 309.32 601.008C313.52 598.476 313.856 594.768 313.856 592.032V589.944H312.908ZM324.236 593.544V594.324H331.472V593.544H324.236ZM324.428 591.216V591.948H328.064V591.216H324.428ZM329.528 590.916C329.912 591.576 330.296 592.452 330.44 593.004L331.16 592.716C331.004 592.176 330.596 591.312 330.2 590.676L329.528 590.916ZM326.984 592.044C326.9 592.524 326.72 593.232 326.576 593.688L327.2 593.82C327.368 593.4 327.536 592.752 327.716 592.176L326.984 592.044ZM324.764 592.152C324.908 592.68 325.052 593.364 325.076 593.808L325.772 593.676C325.724 593.244 325.592 592.56 325.424 592.056L324.764 592.152ZM330.62 594.984C329.9 597.336 328.436 599.244 326.78 600.36C326.96 600.48 327.188 600.708 327.308 600.852C329 599.688 330.524 597.732 331.328 595.344L330.62 594.984ZM328.4 589.932C328.508 596.064 328.868 600.9 330.524 600.936C330.92 600.936 331.328 600.456 331.556 598.644C331.424 598.572 331.1 598.368 330.968 598.188C330.884 599.28 330.74 599.94 330.536 599.94C329.672 599.904 329.216 595.32 329.18 589.932H328.4ZM325.508 590.148C325.712 590.628 325.952 591.252 326.048 591.648L326.84 591.444C326.732 591.072 326.48 590.46 326.252 590.004L325.508 590.148ZM325.04 596.772V597.432H327.512V596.772H325.04ZM324.692 595.008V600.072H325.412V595.008H324.692ZM324.992 595.008V595.68H327.128V599.544H327.836V595.008H324.992ZM325.028 598.572V599.22H327.5V598.572H325.028ZM320.504 590.436V591.252H324.404V590.436H320.504ZM321.536 592.956V593.724H323.492V592.956H321.536ZM321.536 595.428V596.196H323.492V595.428H321.536ZM321.14 590.856V598.536H321.836V590.856H321.14ZM323.096 590.844V600.972H323.816V590.844H323.096ZM320.384 598.392L320.564 599.172C321.428 598.968 322.508 598.716 323.552 598.476L323.504 597.744C322.328 597.996 321.2 598.248 320.384 598.392ZM335.96 594.852V595.644H343.52V594.852H335.96ZM337.316 596.484V597.216H342.548V596.484H337.316ZM337.904 595.152C337.352 596.34 336.356 597.384 335.252 598.044C335.432 598.176 335.744 598.452 335.864 598.608C336.98 597.864 338.072 596.688 338.684 595.356L337.904 595.152ZM342.38 596.484V596.616C342.212 598.968 342.02 599.868 341.792 600.096C341.696 600.216 341.6 600.228 341.42 600.228C341.252 600.228 340.856 600.216 340.4 600.18C340.52 600.372 340.604 600.696 340.604 600.924C341.084 600.948 341.54 600.936 341.804 600.924C342.092 600.9 342.308 600.828 342.5 600.624C342.824 600.276 343.016 599.328 343.196 596.844C343.22 596.712 343.232 596.484 343.232 596.484H342.38ZM337.964 592.548H341.828V593.508H337.964V592.548ZM337.964 590.952H341.828V591.9H337.964V590.952ZM337.148 590.28V594.18H342.668V590.28H337.148ZM332.624 592.524V593.388H336.188V592.524H332.624ZM334.028 590.016V597.396H334.88V590.016H334.028ZM332.396 597.876L332.744 598.776C333.764 598.284 335.072 597.636 336.296 597.012L336.104 596.22C334.736 596.856 333.32 597.492 332.396 597.876ZM340.844 596.616C340.412 598.104 339.404 599.736 338.276 600.492C338.504 600.624 338.78 600.828 338.936 601.008C340.028 600.18 341.024 598.476 341.48 596.952L340.844 596.616ZM338.972 596.652C338.384 597.912 337.124 599.292 335.936 599.94C336.152 600.072 336.404 600.3 336.548 600.492C337.712 599.748 338.972 598.32 339.584 597.012L338.972 596.652ZM350.144 590.844V591.564H354.98V590.844H350.144ZM350.024 593.148V593.88H355.256V593.148H350.024ZM350.768 592.068C350.972 592.536 351.188 593.148 351.272 593.556L352.04 593.34C351.932 592.968 351.704 592.368 351.5 591.912L350.768 592.068ZM353.456 591.864C353.348 592.296 353.12 592.944 352.94 593.364L353.612 593.544C353.816 593.148 354.044 592.572 354.26 592.032L353.456 591.864ZM351.26 596.868C351.128 598.488 350.744 599.712 349.088 600.372C349.268 600.516 349.508 600.816 349.604 601.008C351.416 600.204 351.896 598.788 352.064 596.868H351.26ZM352.808 596.868V599.58C352.808 600.264 352.868 600.456 353.06 600.6C353.228 600.756 353.54 600.804 353.78 600.804C353.912 600.804 354.296 600.804 354.452 600.804C354.656 600.804 354.944 600.78 355.088 600.708C355.268 600.636 355.4 600.504 355.472 600.312C355.544 600.132 355.58 599.604 355.604 599.124C355.388 599.052 355.1 598.92 354.932 598.788C354.92 599.268 354.92 599.64 354.884 599.808C354.848 599.964 354.8 600.036 354.728 600.06C354.668 600.108 354.524 600.12 354.404 600.12C354.272 600.12 354.056 600.12 353.96 600.12C353.84 600.12 353.756 600.096 353.696 600.06C353.636 600.012 353.612 599.892 353.612 599.676V596.868H352.808ZM351.74 590.064C351.908 590.436 352.112 590.952 352.196 591.276L353.012 591.06C352.916 590.76 352.712 590.268 352.52 589.896L351.74 590.064ZM344.9 590.844V591.564H349.676V590.844H344.9ZM344.708 593.184V593.916H349.736V593.184H344.708ZM345.5 592.08C345.728 592.56 345.968 593.184 346.076 593.592L346.844 593.376C346.724 592.98 346.46 592.38 346.232 591.912L345.5 592.08ZM348.236 591.864C348.14 592.32 347.912 592.98 347.744 593.412L348.428 593.592C348.62 593.184 348.836 592.608 349.052 592.056L348.236 591.864ZM346.112 596.892C346.016 598.38 345.752 599.628 344.552 600.324C344.732 600.456 344.984 600.756 345.08 600.96C346.448 600.108 346.796 598.68 346.928 596.892H346.112ZM346.52 590.052C346.688 590.424 346.904 590.94 346.988 591.264L347.816 591.048C347.708 590.736 347.504 590.244 347.3 589.884L346.52 590.052ZM347.768 600.456C347.912 600.288 348.2 600.108 350.036 599.076C349.976 598.92 349.88 598.608 349.856 598.392L347.912 599.388L347.66 599.724L347.768 600.456ZM346.028 595.164H348.548V596.412H346.028V595.164ZM345.272 594.528V597.048H349.352V594.528H345.272ZM347.768 600.456C347.768 600.192 348.572 599.748 348.572 599.748V596.868H347.78V598.896C347.78 599.352 347.588 599.52 347.432 599.604C347.564 599.82 347.708 600.24 347.768 600.456ZM351.14 595.164H353.924V596.4H351.14V595.164ZM350.372 594.528V597.036H354.728V594.528H350.372ZM361.496 593.616V599.808C361.496 600.012 361.412 600.072 361.184 600.084C360.944 600.096 360.104 600.096 359.216 600.072C359.36 600.312 359.516 600.696 359.576 600.948C360.68 600.948 361.4 600.936 361.832 600.804C362.264 600.66 362.408 600.396 362.408 599.82V593.616H361.496ZM357.872 593.412V594.168H365.132V598.212H366.032V593.412H357.872ZM356.468 595.416V596.172H367.544V595.416H356.468ZM357.668 597.48V598.212H365.516V597.48H357.668ZM365.912 589.884C363.872 590.28 360.224 590.544 357.2 590.652C357.296 590.844 357.428 591.156 357.44 591.372C360.512 591.288 364.196 591.036 366.536 590.58L365.912 589.884ZM358.244 591.732C358.58 592.188 358.904 592.8 359.024 593.22L359.9 592.896C359.768 592.5 359.432 591.9 359.084 591.456L358.244 591.732ZM361.136 591.552C361.4 592.056 361.664 592.728 361.748 593.184L362.624 592.92C362.528 592.488 362.24 591.828 361.952 591.324L361.136 591.552ZM365.324 591.036C364.976 591.672 364.364 592.596 363.872 593.148L364.652 593.436C365.144 592.884 365.768 592.08 366.26 591.348L365.324 591.036ZM368.984 592.548V593.46H378.296V592.548H368.984ZM377.948 592.548V592.74C377.708 597.504 377.444 599.376 376.988 599.82C376.832 599.964 376.688 600 376.424 600C376.124 600 375.356 599.988 374.54 599.916C374.708 600.18 374.828 600.576 374.84 600.84C375.584 600.888 376.352 600.912 376.772 600.864C377.228 600.828 377.516 600.732 377.804 600.384C378.332 599.784 378.584 597.996 378.86 593.028C378.872 592.884 378.884 592.548 378.884 592.548H377.948ZM372.908 589.944V592.032C372.908 594.516 372.62 597.924 368.636 600.3C368.852 600.456 369.188 600.792 369.32 601.008C373.52 598.476 373.856 594.768 373.856 592.032V589.944H372.908Z" fill="black"/>
<rect x="150" y="140" width="298" height="30" fill="#FAFAFA"/>
<path d="M164.088 149.598V150.998H166.748V149.598H164.088ZM160.448 152.062V153.546H167.084V152.062H160.448ZM163.29 148.254V152.818H164.76V148.254H163.29ZM161.232 149.29V153.14H162.548V149.29H161.232ZM165.474 156.052C164.662 158.152 162.94 159.328 160.532 159.93C160.896 160.28 161.288 160.854 161.442 161.302C164.13 160.434 165.964 158.992 166.888 156.472L165.474 156.052ZM165.124 154.274C165.488 154.988 165.838 155.94 165.95 156.528L167.28 156.038C167.14 155.45 166.748 154.54 166.37 153.854L165.124 154.274ZM163.29 153.238V156.528C163.29 156.654 163.248 156.682 163.122 156.682C162.996 156.696 162.59 156.696 162.212 156.682C162.38 157.074 162.548 157.634 162.576 158.04C163.304 158.04 163.836 158.026 164.242 157.816C164.676 157.592 164.76 157.214 164.76 156.556V153.238H163.29ZM161.428 153.896C161.218 154.862 160.826 155.898 160.322 156.556C160.672 156.71 161.316 157.046 161.624 157.27C162.128 156.528 162.618 155.338 162.87 154.218L161.428 153.896ZM167.028 148.66V150.074H173.398V148.66H167.028ZM168.806 154.33H171.634V155.184H168.806V154.33ZM168.806 156.36H171.634V157.228H168.806V156.36ZM168.806 152.286H171.634V153.154H168.806V152.286ZM167.364 151.04V158.474H173.132V151.04H167.364ZM169.436 149.43C169.394 150.102 169.24 151.04 169.114 151.684L170.458 151.936C170.682 151.348 170.962 150.48 171.2 149.626L169.436 149.43ZM168.568 158.46C168.022 159.062 166.916 159.846 165.964 160.238C166.328 160.532 166.818 160.98 167.084 161.288C168.036 160.854 169.226 160.056 169.926 159.342L168.568 158.46ZM170.458 159.356C171.158 159.93 172.068 160.756 172.488 161.274L173.79 160.378C173.328 159.846 172.39 159.076 171.69 158.558L170.458 159.356ZM178.368 149.64V150.998H187.342V149.64H178.368ZM181.868 150.298C181.812 150.844 181.658 151.628 181.518 152.188L182.876 152.426C183.142 151.922 183.52 151.166 183.8 150.41L181.868 150.298ZM184.234 148.1C184.066 148.576 183.716 149.262 183.45 149.724L184.85 150.074C185.158 149.668 185.536 149.08 185.928 148.464L184.234 148.1ZM179.67 148.618C180.034 149.066 180.398 149.71 180.524 150.116L181.91 149.57C181.77 149.15 181.378 148.548 180.986 148.128L179.67 148.618ZM177.878 153.574H174.602V155.128H176.24V158.726H177.878V153.574ZM177.878 157.998H176.338C175.694 158.502 174.938 158.992 174.308 159.384L175.134 161.134C175.89 160.518 176.52 159.986 177.136 159.44C178.046 160.532 179.208 160.938 180.93 161.008C182.61 161.078 185.438 161.05 187.132 160.966C187.202 160.462 187.482 159.65 187.664 159.258C185.774 159.412 182.596 159.454 180.958 159.384C179.502 159.328 178.438 158.922 177.878 157.998ZM174.63 149.444C175.456 150.074 176.464 151.012 176.884 151.67L178.228 150.564C177.738 149.906 176.716 149.024 175.876 148.436L174.63 149.444ZM180.902 154.806H184.724V155.534H180.902V154.806ZM180.902 156.654H184.724V157.396H180.902V156.654ZM180.902 152.958H184.724V153.686H180.902V152.958ZM179.32 151.74V158.614H186.376V151.74H179.32ZM190.716 153.252V154.89H198.29V153.252H190.716ZM197.744 153.252V153.56C197.618 157.452 197.464 159.02 197.128 159.384C196.974 159.538 196.82 159.58 196.568 159.58C196.218 159.58 195.49 159.566 194.706 159.496C195.014 159.972 195.238 160.7 195.266 161.19C196.092 161.218 196.904 161.232 197.394 161.162C197.926 161.078 198.318 160.952 198.668 160.476C199.158 159.902 199.326 158.236 199.48 153.98C199.494 153.77 199.508 153.252 199.508 153.252H197.744ZM192.298 148.296C191.458 150.424 189.904 152.384 188.14 153.546C188.546 153.868 189.274 154.54 189.596 154.904C191.36 153.518 193.068 151.264 194.118 148.828L192.298 148.296ZM197.632 148.268L195.98 148.926C197.086 151.068 198.808 153.336 200.39 154.792C200.712 154.316 201.356 153.63 201.818 153.266C200.278 152.09 198.514 150.046 197.632 148.268ZM193.222 153.728C192.998 156.22 192.662 158.586 188.91 159.818C189.302 160.182 189.792 160.896 190.002 161.358C194.174 159.804 194.776 156.878 195.042 153.728H193.222ZM202.63 155.8V157.242H208.692V155.8H202.63ZM202.63 150.508V151.81H208.58V150.508H202.63ZM207.264 148.352C207.124 148.856 206.858 149.584 206.62 150.074L207.698 150.424C207.964 149.99 208.3 149.36 208.65 148.716L207.264 148.352ZM204.87 148.282V154.54H206.326V148.282H204.87ZM202.742 148.828C203.05 149.346 203.33 150.032 203.4 150.48L204.59 150.018C204.492 149.57 204.184 148.912 203.862 148.408L202.742 148.828ZM205.024 158.362C205.878 158.95 207.054 159.832 207.6 160.378L208.636 159.244C208.048 158.712 206.858 157.886 206.004 157.354L205.024 158.362ZM206.256 151.768L205.43 152.482C206.06 152.902 207.348 153.896 207.894 154.414L208.762 153.238C208.384 152.972 206.76 152.006 206.256 151.768ZM204.772 151.25C204.254 152.174 203.26 153.168 202.322 153.686C202.63 153.938 203.078 154.442 203.288 154.764C204.282 154.092 205.29 152.832 205.85 151.642L204.772 151.25ZM208.748 148.66V150.102H215.426V148.66H208.748ZM210.652 154.26H213.466V155.114H210.652V154.26ZM210.652 156.276H213.466V157.158H210.652V156.276ZM210.652 152.244H213.466V153.098H210.652V152.244ZM209.14 150.984V158.404H215.048V150.984H209.14ZM211.212 149.43C211.114 150.102 210.904 151.04 210.694 151.684L212.094 151.964C212.374 151.376 212.738 150.508 213.06 149.64L211.212 149.43ZM210.344 158.418C209.798 159.02 208.692 159.79 207.726 160.196C208.09 160.476 208.552 160.952 208.818 161.274C209.826 160.826 211.002 160.028 211.716 159.3L210.344 158.418ZM212.234 159.342C213.004 159.902 214.026 160.728 214.488 161.246L215.776 160.35C215.244 159.818 214.194 159.034 213.424 158.516L212.234 159.342ZM204.828 154.834V156.318C204.828 157.466 204.548 158.894 202.266 159.832C202.56 160.112 202.994 160.714 203.162 161.078C205.934 159.888 206.34 157.956 206.34 156.36V154.834H204.828Z" fill="black"/>
<path d="M409.078 241.95L415.648 248.646C415.806 248.804 416.09 248.804 416.248 248.646L422.818 241.95C423.007 241.76 423.007 241.476 422.818 241.286C422.628 241.128 422.376 241.128 422.218 241.286L415.964 247.667L409.71 241.286C409.615 241.192 409.489 241.16 409.394 241.16C409.268 241.16 409.173 241.192 409.078 241.286C408.92 241.476 408.92 241.76 409.078 241.95V241.95Z" fill="black"/>
<path d="M409.078 191.95L415.648 198.646C415.806 198.804 416.09 198.804 416.248 198.646L422.818 191.95C423.007 191.76 423.007 191.476 422.818 191.286C422.628 191.128 422.376 191.128 422.218 191.286L415.964 197.667L409.71 191.286C409.615 191.192 409.489 191.16 409.394 191.16C409.268 191.16 409.173 191.192 409.078 191.286C408.92 191.476 408.92 191.76 409.078 191.95V191.95Z" fill="black"/>
<path d="M422.818 347.963L416.26 341.278C416.102 341.121 415.818 341.121 415.66 341.278L409.102 347.963C408.913 348.152 408.913 348.436 409.102 348.625C409.291 348.783 409.543 348.783 409.701 348.625L415.976 342.256L422.219 348.625C422.314 348.72 422.408 348.751 422.534 348.751C422.661 348.751 422.755 348.72 422.818 348.625C423.007 348.436 423.007 348.152 422.818 347.963V347.963Z" fill="black"/>
<line x1="149" y1="139.5" x2="449" y2="139.5" stroke="#D3D5D7"/>
<line x1="149" y1="89.5" x2="449" y2="89.5" stroke="#D3D5D7"/>
<line x1="149" y1="219.5" x2="449" y2="219.5" stroke="#D3D5D7"/>
<line x1="149" y1="269.5" x2="449" y2="269.5" stroke="#D3D5D7"/>
<line x1="149" y1="319.5" x2="449" y2="319.5" stroke="#D3D5D7"/>
<path d="M409.078 295.95L415.648 302.646C415.806 302.804 416.09 302.804 416.248 302.646L422.818 295.95C423.007 295.76 423.007 295.476 422.818 295.286C422.628 295.128 422.376 295.128 422.218 295.286L415.964 301.667L409.71 295.286C409.615 295.192 409.489 295.16 409.394 295.16C409.268 295.16 409.173 295.192 409.078 295.286C408.92 295.476 408.92 295.76 409.078 295.95V295.95Z" fill="black"/>
<path d="M193.688 297C193.688 302.35 189.35 306.688 184 306.688C178.65 306.688 174.312 302.35 174.312 297C174.312 291.65 178.65 287.312 184 287.312C189.35 287.312 193.688 291.65 193.688 297ZM182.879 302.129L190.067 294.942C190.311 294.698 190.311 294.302 190.067 294.058L189.183 293.174C188.939 292.93 188.543 292.93 188.299 293.174L182.438 299.036L179.701 296.299C179.457 296.055 179.061 296.055 178.817 296.299L177.933 297.183C177.689 297.427 177.689 297.823 177.933 298.067L181.996 302.129C182.24 302.373 182.635 302.373 182.879 302.129L182.879 302.129Z" fill="black"/>
</svg>
