<svg width="288" height="227" viewBox="0 0 288 227" fill="none" xmlns="http://www.w3.org/2000/svg">
<rect x="40" y="69" width="208" height="84" fill="#4A545C"/>
<path d="M77.488 104.592C76.944 106.112 76 107.568 74.912 108.528C75.184 108.688 75.632 109.072 75.808 109.28C76.928 108.208 77.968 106.576 78.592 104.864L77.488 104.592ZM77.456 108.992C77.024 110.112 76.288 111.216 75.44 111.968C75.696 112.144 76.16 112.48 76.336 112.672C77.184 111.84 78.048 110.56 78.576 109.296L77.456 108.992ZM77.296 106.08L76.88 107.12H84.24V106.08H77.296ZM81.904 109.408C82.672 110.416 83.52 111.792 83.872 112.688L84.896 112.144C84.528 111.264 83.68 109.936 82.864 108.96L81.904 109.408ZM83.888 106.08V106.24C83.6 107.056 83.136 108.064 82.768 108.688L83.808 108.912C84.192 108.256 84.704 107.168 85.104 106.24L84.288 106.032L84.08 106.08H83.888ZM74.384 104.528C73.488 106.304 72.032 108.08 70.544 109.2C70.784 109.424 71.184 109.904 71.344 110.144C72.864 108.864 74.448 106.88 75.472 104.88L74.384 104.528ZM72.896 107.568V113.712H74.048V106.448L74.032 106.432L72.896 107.568ZM74.192 114.56V117.344C74.192 118.656 74.688 118.992 76.592 118.992C76.992 118.992 80.016 118.992 80.432 118.992C82.016 118.992 82.416 118.496 82.576 116.464C82.24 116.4 81.744 116.224 81.472 116.016C81.376 117.648 81.232 117.872 80.352 117.872C79.68 117.872 77.152 117.872 76.64 117.872C75.584 117.872 75.392 117.792 75.392 117.328V114.56H74.192ZM76.624 113.856C77.488 114.704 78.48 115.904 78.896 116.688L79.888 116.096C79.44 115.296 78.432 114.144 77.536 113.328L76.624 113.856ZM82.272 114.784C83.008 115.92 83.728 117.472 83.968 118.448L85.12 117.984C84.848 116.992 84.096 115.504 83.344 114.368L82.272 114.784ZM72.384 114.64C72.016 115.712 71.408 117.168 70.752 118.112L71.888 118.64C72.48 117.664 73.056 116.144 73.456 115.088L72.384 114.64ZM79.84 107.728V113.664H80.992V107.728H79.84ZM88.32 108.336V116.368C88.32 118.368 89.136 118.832 91.744 118.832C92.336 118.832 97.104 118.832 97.76 118.832C100.4 118.832 100.912 117.968 101.232 115.008C100.864 114.944 100.336 114.736 100 114.512C99.792 117.104 99.52 117.648 97.76 117.648C96.688 117.648 92.512 117.648 91.664 117.648C89.904 117.648 89.552 117.408 89.552 116.4V108.336H88.32ZM88.992 110.96V112.16H98.432V110.96H88.992ZM87.488 105.568V106.752H97.952V112.944H99.184V105.568H87.488ZM103.456 109.408V110.368H108.368V109.408H103.456ZM103.456 111.504V112.464H108.352V111.504H103.456ZM102.752 107.28V108.288H108.864V107.28H102.752ZM104 113.648V114.656H107.232V117.312H104V118.32H108.304V113.648H104ZM103.456 113.648V119.072H104.512V113.648H103.456ZM104.544 104.976C104.976 105.632 105.504 106.544 105.744 107.136L106.72 106.56C106.464 106 105.952 105.152 105.488 104.496L104.544 104.976ZM109.184 105.92V107.088H117.376V105.92H109.184ZM113.696 106.256V117.472C113.696 117.776 113.584 117.872 113.264 117.888C112.912 117.92 111.712 117.92 110.48 117.872C110.688 118.208 110.896 118.784 110.976 119.12C112.528 119.12 113.536 119.104 114.128 118.896C114.704 118.704 114.896 118.304 114.896 117.488V106.256H113.696ZM123.888 113.104H127.84V114.608H123.888V113.104ZM122.912 112.32V115.392H128.864V112.32H122.912ZM126.368 115.008V117.232C126.368 118.208 126.624 118.48 127.648 118.48C127.856 118.48 128.832 118.48 129.04 118.48C129.808 118.48 130.096 118.144 130.192 116.784C129.904 116.72 129.488 116.576 129.296 116.416C129.264 117.456 129.184 117.584 128.896 117.584C128.704 117.584 127.936 117.584 127.776 117.584C127.44 117.584 127.408 117.536 127.408 117.232V115.008H126.368ZM124.064 115.232C123.872 116.608 123.248 117.424 121.312 117.888C121.52 118.064 121.808 118.464 121.92 118.72C124.096 118.08 124.832 117.008 125.072 115.232H124.064ZM124.256 110.096C123.648 110.976 122.32 111.92 121.12 112.48C121.328 112.64 121.664 112.928 121.84 113.12C123.088 112.496 124.448 111.456 125.248 110.416L124.256 110.096ZM119.984 107.04V107.824H124.48V107.04H119.984ZM127.312 107.072V107.856H131.92V107.072H127.312ZM131.52 105.2V117.744C131.52 117.952 131.456 118.016 131.248 118.032C131.056 118.032 130.4 118.032 129.728 118.016C129.888 118.32 130.032 118.816 130.08 119.12C131.04 119.12 131.728 119.088 132.128 118.912C132.544 118.704 132.672 118.384 132.672 117.744V105.2H131.52ZM120.08 105.184V106.032H124.096V108.88H120.08V109.728H125.232V105.184H120.08ZM132.08 105.2H126.656V109.728H132.08V108.88H127.792V106.048H132.08V105.2ZM119.36 105.184V119.28H120.496V105.184H119.36ZM126.48 110.624C127.68 111.36 129.12 112.448 129.824 113.184L130.528 112.608C129.792 111.872 128.336 110.816 127.152 110.112L126.48 110.624ZM146.234 111.328L145.13 111.616C146.346 115.392 148.618 118.048 152.218 119.248C152.394 118.912 152.746 118.416 153.034 118.16C149.562 117.168 147.29 114.688 146.234 111.328ZM139.194 105.808V107.024H151.882V105.808H139.194ZM138.634 110.72V111.952H152.57V110.72H138.634ZM144.842 106.224V108.912C144.842 111.84 144.298 115.792 138.234 118.256C138.49 118.496 138.858 118.96 139.018 119.264C145.45 116.592 146.09 112.24 146.09 108.928V106.224H144.842ZM154.458 105.744V106.96H168.698V105.744H154.458ZM160.618 106.704V119.264H161.882V106.704H160.618ZM161.322 110.496C163.258 111.488 165.754 113.008 166.986 114L167.834 112.912C166.554 111.952 164.026 110.496 162.106 109.568L161.322 110.496ZM172.762 114.16V114.976H182.346V114.16H172.762ZM172.794 112.192V113.056H181.85V116.08H172.794V116.96H183.034V112.192H172.794ZM176.89 112.624V117.44C176.89 118.752 177.402 119.072 179.194 119.072C179.594 119.072 182.49 119.072 182.906 119.072C184.426 119.072 184.794 118.56 184.97 116.624C184.634 116.56 184.186 116.4 183.914 116.208C183.834 117.824 183.69 118.096 182.826 118.096C182.202 118.096 179.738 118.096 179.258 118.096C178.234 118.096 178.042 118 178.042 117.44V112.624H176.89ZM172.17 112.192V117.792H173.322V112.192H172.17ZM171.482 105.2V106.064H183.626V105.2H171.482ZM176.922 105.424V111.584H178.106V105.424H176.922ZM170.778 107.088V110.528H171.93V107.936H183.178V110.528H184.378V107.088H170.778ZM172.218 110.72L172.586 111.648C173.626 111.44 174.842 111.2 176.074 110.944L176.042 110.176C174.618 110.4 173.242 110.608 172.218 110.72ZM172.634 108.896C173.674 109.104 175.018 109.52 175.738 109.824L176.09 109.104C175.37 108.784 174.01 108.432 172.986 108.256L172.634 108.896ZM182.026 108.176C181.242 108.464 179.898 108.944 178.97 109.152L179.402 109.776C180.33 109.584 181.642 109.248 182.554 108.864L182.026 108.176ZM178.778 110.832C180.026 111.008 181.658 111.392 182.538 111.696L182.81 110.88C181.914 110.576 180.298 110.224 179.066 110.096L178.778 110.832ZM186.378 111.68V112.88H200.826V111.68H186.378ZM187.978 105.648V106.832H198.426V105.648H187.978ZM198.042 105.648V105.92C197.002 107.04 194.794 108.544 193.002 109.36C193.242 109.568 193.626 109.952 193.802 110.224C195.722 109.296 198.042 107.728 199.53 106.272L198.634 105.584L198.346 105.648H198.042ZM193.002 109.36V117.696C193.002 117.968 192.906 118.048 192.57 118.064C192.218 118.08 191.034 118.096 189.738 118.048C189.946 118.4 190.17 118.928 190.25 119.28C191.802 119.28 192.826 119.264 193.434 119.056C194.058 118.88 194.25 118.512 194.25 117.712V109.36H193.002ZM210.474 110.752V111.744H215.706V110.752H210.474ZM209.898 105.312V119.264H211.002V106.384H215.594V105.312H209.898ZM215.018 105.312V108.384C215.018 108.56 214.954 108.624 214.698 108.64C214.442 108.656 213.61 108.656 212.618 108.624C212.778 108.928 212.938 109.36 212.986 109.68C214.218 109.68 215.018 109.664 215.514 109.488C216.01 109.312 216.138 108.992 216.138 108.4V105.312H215.018ZM212.026 111.296L211.082 111.552C212.026 114.864 213.802 117.792 216.282 119.184C216.474 118.88 216.842 118.432 217.114 118.208C214.698 117.024 212.89 114.304 212.026 111.296ZM215.338 110.752V111.008C214.826 113.952 213.226 116.944 210.73 118.496C211.002 118.704 211.354 119.04 211.53 119.312C214.202 117.584 215.866 114.432 216.506 110.96L215.77 110.688L215.562 110.752H215.338ZM202.81 106.208V107.248H208.89V106.208H202.81ZM202.314 114.976V116.016H209.306V114.976H202.314ZM202.33 108.848V109.904H209.274V108.848H202.33ZM202.666 112.176V113.216H209.002V112.176H202.666ZM205.322 104.592V109.216H206.442V104.592H205.322ZM205.322 112.592V119.232H206.442V112.592H205.322ZM207.418 109.904C207.146 110.672 206.586 111.776 206.122 112.464L207.018 112.736C207.482 112.08 208.01 111.072 208.474 110.176L207.418 109.904ZM203.402 110.224C203.738 110.848 204.074 111.68 204.17 112.208L205.114 111.888C205.002 111.376 204.65 110.56 204.298 109.952L203.402 110.224Z" fill="white"/>
<path d="M82.156 89.168C83.728 89.168 84.988 88.22 84.988 86.66C84.988 85.448 84.148 84.668 83.116 84.416V84.368C84.052 84.032 84.676 83.324 84.676 82.256C84.676 80.852 83.596 80.048 82.12 80.048C81.112 80.048 80.332 80.492 79.672 81.092L80.26 81.8C80.752 81.296 81.376 80.936 82.084 80.936C82.996 80.936 83.56 81.488 83.56 82.328C83.56 83.288 82.948 84.008 81.136 84.008V84.86C83.164 84.86 83.872 85.556 83.872 86.612C83.872 87.62 83.128 88.256 82.084 88.256C81.076 88.256 80.416 87.776 79.9 87.236L79.348 87.956C79.924 88.592 80.776 89.168 82.156 89.168ZM88.9923 89.168C90.6483 89.168 91.7162 87.644 91.7162 84.572C91.7162 81.524 90.6483 80.048 88.9923 80.048C87.3123 80.048 86.2443 81.524 86.2443 84.572C86.2443 87.644 87.3123 89.168 88.9923 89.168ZM88.9923 88.28C87.9843 88.28 87.3003 87.164 87.3003 84.572C87.3003 82.016 87.9843 80.924 88.9923 80.924C89.9883 80.924 90.6603 82.016 90.6603 84.572C90.6603 87.164 89.9883 88.28 88.9923 88.28Z" fill="#D60C18"/>
<line x1="94.5" y1="69.5" x2="77.5" y2="69.5" stroke="#939EA7" stroke-linecap="square" stroke-dasharray="2 2"/>
<line x1="94.5" y1="99.5" x2="77.5" y2="99.5" stroke="#939EA7" stroke-linecap="square" stroke-dasharray="2 2"/>
<path d="M52.156 117.168C53.728 117.168 54.988 116.22 54.988 114.66C54.988 113.448 54.148 112.668 53.116 112.416V112.368C54.052 112.032 54.676 111.324 54.676 110.256C54.676 108.852 53.596 108.048 52.12 108.048C51.112 108.048 50.332 108.492 49.672 109.092L50.26 109.8C50.752 109.296 51.376 108.936 52.084 108.936C52.996 108.936 53.56 109.488 53.56 110.328C53.56 111.288 52.948 112.008 51.136 112.008V112.86C53.164 112.86 53.872 113.556 53.872 114.612C53.872 115.62 53.128 116.256 52.084 116.256C51.076 116.256 50.416 115.776 49.9 115.236L49.348 115.956C49.924 116.592 50.776 117.168 52.156 117.168ZM58.9923 117.168C60.6483 117.168 61.7162 115.644 61.7162 112.572C61.7162 109.524 60.6483 108.048 58.9923 108.048C57.3123 108.048 56.2443 109.524 56.2443 112.572C56.2443 115.644 57.3123 117.168 58.9923 117.168ZM58.9923 116.28C57.9843 116.28 57.3003 115.164 57.3003 112.572C57.3003 110.016 57.9843 108.924 58.9923 108.924C59.9883 108.924 60.6603 110.016 60.6603 112.572C60.6603 115.164 59.9883 116.28 58.9923 116.28Z" fill="#D60C18"/>
<line x1="69.5" y1="120.5" x2="69.5" y2="103.5" stroke="#939EA7" stroke-linecap="square" stroke-dasharray="2 2"/>
<line x1="40.5" y1="120.5" x2="40.5" y2="103.5" stroke="#939EA7" stroke-linecap="square" stroke-dasharray="2 2"/>
<line x1="58.25" y1="41" x2="58.25" y2="69" stroke="#D60C18" stroke-width="0.5"/>
<path d="M48.634 27.166C47.822 28.188 46.506 29.168 45.232 29.798C45.456 29.994 45.82 30.4 45.974 30.61C47.262 29.868 48.69 28.706 49.628 27.488L48.634 27.166ZM52.204 27.768C53.506 28.58 55.074 29.77 55.83 30.582L56.586 29.868C55.802 29.084 54.192 27.922 52.904 27.166L52.204 27.768ZM47.08 32.43V37.134H48.088V33.368H53.87V37.078H54.934V32.43H47.08ZM47.626 35.72V36.658H54.388V35.72H47.626ZM45.148 25.542V28.09H46.184V26.494H55.774V28.09H56.838V25.542H45.148ZM50.062 24.394C50.37 24.94 50.706 25.654 50.832 26.102L51.952 25.822C51.812 25.36 51.462 24.66 51.126 24.142L50.062 24.394ZM50.93 28.384C49.586 30.456 47.108 32.22 44.518 33.186C44.756 33.396 45.036 33.76 45.19 34.026C47.878 32.92 50.37 31.058 51.84 28.79L50.93 28.384ZM51.336 28.874L50.482 29.266C52.26 31.464 54.304 32.752 56.74 33.858C56.894 33.55 57.174 33.186 57.426 32.976C55.032 32.024 52.96 30.848 51.336 28.874ZM60.688 25.738H63.194V27.866H60.688V25.738ZM59.75 24.87V28.734H64.16V24.87H59.75ZM66.68 25.738H69.284V27.866H66.68V25.738ZM65.742 24.87V28.734H70.264V24.87H65.742ZM58.714 30.064V30.974H71.286V30.064H58.714ZM60.506 35.79V36.658H63.908V35.79H60.506ZM66.078 35.79V36.658H69.606V35.79H66.078ZM60.03 32.752V37.106H60.968V33.606H63.362V37.036H64.328V32.752H60.03ZM65.63 32.752V37.106H66.554V33.606H69.06V37.036H70.04V32.752H65.63ZM64.076 28.482C63.306 30.19 61.43 32.052 58.392 33.158C58.602 33.326 58.868 33.69 58.98 33.928C62.158 32.682 64.118 30.708 65.112 28.678L64.076 28.482ZM66.61 29.21C67.31 29.476 68.178 29.938 68.612 30.288L69.158 29.7C68.71 29.35 67.828 28.916 67.128 28.678L66.61 29.21ZM65.812 30.792C67.73 31.66 69.592 32.836 70.67 33.83L71.398 33.2C70.278 32.192 68.304 31.03 66.372 30.176L65.812 30.792Z" fill="black"/>
<line x1="192.25" y1="123" x2="192.25" y2="187" stroke="#D60C18" stroke-width="0.5"/>
<path d="M188.136 194.194C186.54 198.968 183.488 201.67 178.504 203.112C178.714 203.35 179.036 203.84 179.162 204.092C184.244 202.468 187.436 199.598 189.228 194.502L188.136 194.194ZM181.78 194.25L180.8 194.558C182.578 199.29 185.784 202.65 190.81 204.036C190.978 203.742 191.286 203.294 191.538 203.056C186.638 201.838 183.362 198.59 181.78 194.25ZM178.7 193.718V194.74H191.356V193.718H178.7ZM183.922 191.478C184.342 192.178 184.776 193.102 184.958 193.676L186.106 193.312C185.91 192.724 185.434 191.814 185.014 191.156L183.922 191.478ZM195.262 195.3V196.28H201.982V195.3H195.262ZM192.952 198.814V199.808H205.006V198.814H192.952ZM198.44 197.932V202.818C198.44 203.014 198.356 203.07 198.104 203.084C197.852 203.098 196.956 203.098 196.004 203.07C196.186 203.35 196.396 203.812 196.466 204.106C197.642 204.106 198.384 204.106 198.874 203.938C199.378 203.77 199.546 203.462 199.546 202.832V197.932H198.44ZM201.66 195.3V195.51C200.974 196.308 199.63 197.358 198.44 197.932C198.608 198.072 198.888 198.366 199.028 198.548C200.414 197.904 201.898 196.812 202.906 195.79L202.192 195.244L201.94 195.3H201.66ZM193.12 192.71V195.594H194.156V193.718H203.788V195.594H204.866V192.71H193.12ZM197.922 191.478C198.328 192.01 198.706 192.752 198.86 193.242L199.938 192.864C199.77 192.374 199.364 191.66 198.944 191.142L197.922 191.478Z" fill="black"/>
</svg>
