<svg width="280" height="130" viewBox="0 0 280 130" fill="none" xmlns="http://www.w3.org/2000/svg">
<rect x="105.5" y="50.5" width="29" height="29" fill="white" stroke="#EEEEEE"/>
<path d="M119.055 64.6016H120.086C120.591 64.6016 121.008 64.5182 121.336 64.3516C121.669 64.1797 121.917 63.9479 122.078 63.6562C122.245 63.3594 122.328 63.026 122.328 62.6562C122.328 62.2188 122.255 61.8516 122.109 61.5547C121.964 61.2578 121.745 61.0339 121.453 60.8828C121.161 60.7318 120.792 60.6562 120.344 60.6562C119.938 60.6562 119.578 60.737 119.266 60.8984C118.958 61.0547 118.716 61.2786 118.539 61.5703C118.367 61.862 118.281 62.2057 118.281 62.6016H116.836C116.836 62.0234 116.982 61.4974 117.273 61.0234C117.565 60.5495 117.974 60.1719 118.5 59.8906C119.031 59.6094 119.646 59.4688 120.344 59.4688C121.031 59.4688 121.633 59.5911 122.148 59.8359C122.664 60.0755 123.065 60.4349 123.352 60.9141C123.638 61.388 123.781 61.9792 123.781 62.6875C123.781 62.974 123.714 63.2812 123.578 63.6094C123.448 63.9323 123.242 64.2344 122.961 64.5156C122.685 64.7969 122.326 65.0286 121.883 65.2109C121.44 65.388 120.909 65.4766 120.289 65.4766H119.055V64.6016ZM119.055 65.7891V64.9219H120.289C121.013 64.9219 121.612 65.0078 122.086 65.1797C122.56 65.3516 122.932 65.5807 123.203 65.8672C123.479 66.1536 123.672 66.4688 123.781 66.8125C123.896 67.151 123.953 67.4896 123.953 67.8281C123.953 68.3594 123.862 68.8307 123.68 69.2422C123.503 69.6536 123.25 70.0026 122.922 70.2891C122.599 70.5755 122.219 70.7917 121.781 70.9375C121.344 71.0833 120.867 71.1562 120.352 71.1562C119.857 71.1562 119.391 71.0859 118.953 70.9453C118.521 70.8047 118.138 70.6016 117.805 70.3359C117.471 70.0651 117.211 69.7344 117.023 69.3438C116.836 68.9479 116.742 68.4974 116.742 67.9922H118.188C118.188 68.388 118.273 68.7344 118.445 69.0312C118.622 69.3281 118.872 69.5599 119.195 69.7266C119.523 69.888 119.909 69.9688 120.352 69.9688C120.794 69.9688 121.174 69.8932 121.492 69.7422C121.815 69.5859 122.062 69.3516 122.234 69.0391C122.411 68.7266 122.5 68.3333 122.5 67.8594C122.5 67.3854 122.401 66.9974 122.203 66.6953C122.005 66.388 121.724 66.1615 121.359 66.0156C121 65.8646 120.576 65.7891 120.086 65.7891H119.055Z" fill="black"/>
<rect x="65.5" y="50.5" width="29" height="29" fill="white" stroke="#EEEEEE"/>
<path d="M84.3984 69.8125V71H76.9531V69.9609L80.6797 65.8125C81.138 65.3021 81.4922 64.8698 81.7422 64.5156C81.9974 64.1562 82.1745 63.8359 82.2734 63.5547C82.3776 63.2682 82.4297 62.9766 82.4297 62.6797C82.4297 62.3047 82.3516 61.9661 82.1953 61.6641C82.0443 61.3568 81.8203 61.112 81.5234 60.9297C81.2266 60.7474 80.8672 60.6562 80.4453 60.6562C79.9401 60.6562 79.5182 60.7552 79.1797 60.9531C78.8464 61.1458 78.5964 61.4167 78.4297 61.7656C78.263 62.1146 78.1797 62.5156 78.1797 62.9688H76.7344C76.7344 62.3281 76.875 61.7422 77.1562 61.2109C77.4375 60.6797 77.8542 60.2578 78.4062 59.9453C78.9583 59.6276 79.638 59.4688 80.4453 59.4688C81.1641 59.4688 81.7786 59.5964 82.2891 59.8516C82.7995 60.1016 83.1901 60.4557 83.4609 60.9141C83.737 61.3672 83.875 61.8984 83.875 62.5078C83.875 62.8411 83.8177 63.1797 83.7031 63.5234C83.5938 63.862 83.4401 64.2005 83.2422 64.5391C83.0495 64.8776 82.8229 65.2109 82.5625 65.5391C82.3073 65.8672 82.0339 66.1901 81.7422 66.5078L78.6953 69.8125H84.3984Z" fill="black"/>
<rect x="25" y="50" width="30" height="30" fill="#D60C18"/>
<path d="M41.6953 59.5625V71H40.25V61.3672L37.3359 62.4297V61.125L41.4688 59.5625H41.6953Z" fill="white"/>
<rect x="145.5" y="50.5" width="29" height="29" fill="white" stroke="#EEEEEE"/>
<path d="M164.633 67.1719V68.3594H156.414V67.5078L161.508 59.625H162.688L161.422 61.9062L158.055 67.1719H164.633ZM163.047 59.625V71H161.602V59.625H163.047Z" fill="black"/>
<rect x="225.5" y="50.5" width="29" height="29" fill="white" stroke="#EEEEEE"/>
<path d="M242.492 59.6094H242.617V60.8359H242.492C241.727 60.8359 241.086 60.9609 240.57 61.2109C240.055 61.4557 239.646 61.7865 239.344 62.2031C239.042 62.6146 238.823 63.0781 238.688 63.5938C238.557 64.1094 238.492 64.6328 238.492 65.1641V66.8359C238.492 67.3411 238.552 67.7891 238.672 68.1797C238.792 68.5651 238.956 68.8906 239.164 69.1562C239.372 69.4219 239.607 69.6224 239.867 69.7578C240.133 69.8932 240.409 69.9609 240.695 69.9609C241.029 69.9609 241.326 69.8984 241.586 69.7734C241.846 69.6432 242.065 69.4635 242.242 69.2344C242.424 69 242.562 68.724 242.656 68.4062C242.75 68.0885 242.797 67.7396 242.797 67.3594C242.797 67.0208 242.755 66.6953 242.672 66.3828C242.589 66.0651 242.461 65.7839 242.289 65.5391C242.117 65.2891 241.901 65.0938 241.641 64.9531C241.385 64.8073 241.081 64.7344 240.727 64.7344C240.326 64.7344 239.951 64.8333 239.602 65.0312C239.258 65.224 238.974 65.4792 238.75 65.7969C238.531 66.1094 238.406 66.4505 238.375 66.8203L237.609 66.8125C237.682 66.2292 237.818 65.7318 238.016 65.3203C238.219 64.9036 238.469 64.5651 238.766 64.3047C239.068 64.0391 239.404 63.8464 239.773 63.7266C240.148 63.6016 240.544 63.5391 240.961 63.5391C241.529 63.5391 242.018 63.6458 242.43 63.8594C242.841 64.0729 243.18 64.3594 243.445 64.7188C243.711 65.0729 243.906 65.474 244.031 65.9219C244.161 66.3646 244.227 66.8203 244.227 67.2891C244.227 67.8255 244.151 68.3281 244 68.7969C243.849 69.2656 243.622 69.6771 243.32 70.0312C243.023 70.3854 242.656 70.6615 242.219 70.8594C241.781 71.0573 241.273 71.1562 240.695 71.1562C240.081 71.1562 239.544 71.0312 239.086 70.7812C238.628 70.526 238.247 70.1875 237.945 69.7656C237.643 69.3438 237.417 68.875 237.266 68.3594C237.115 67.8438 237.039 67.3203 237.039 66.7891V66.1094C237.039 65.3073 237.12 64.5208 237.281 63.75C237.443 62.9792 237.721 62.2812 238.117 61.6562C238.518 61.0312 239.073 60.5339 239.781 60.1641C240.49 59.7943 241.393 59.6094 242.492 59.6094Z" fill="black"/>
<path d="M195.125 65.2344C195.125 64.9896 195.201 64.7839 195.352 64.6172C195.508 64.4453 195.732 64.3594 196.023 64.3594C196.315 64.3594 196.536 64.4453 196.688 64.6172C196.844 64.7839 196.922 64.9896 196.922 65.2344C196.922 65.474 196.844 65.6771 196.688 65.8438C196.536 66.0104 196.315 66.0938 196.023 66.0938C195.732 66.0938 195.508 66.0104 195.352 65.8438C195.201 65.6771 195.125 65.474 195.125 65.2344ZM199.344 65.2344C199.344 64.9896 199.419 64.7839 199.57 64.6172C199.727 64.4453 199.951 64.3594 200.242 64.3594C200.534 64.3594 200.755 64.4453 200.906 64.6172C201.062 64.7839 201.141 64.9896 201.141 65.2344C201.141 65.474 201.062 65.6771 200.906 65.8438C200.755 66.0104 200.534 66.0938 200.242 66.0938C199.951 66.0938 199.727 66.0104 199.57 65.8438C199.419 65.6771 199.344 65.474 199.344 65.2344ZM203.562 65.2344C203.562 64.9896 203.638 64.7839 203.789 64.6172C203.945 64.4453 204.169 64.3594 204.461 64.3594C204.753 64.3594 204.974 64.4453 205.125 64.6172C205.281 64.7839 205.359 64.9896 205.359 65.2344C205.359 65.474 205.281 65.6771 205.125 65.8438C204.974 66.0104 204.753 66.0938 204.461 66.0938C204.169 66.0938 203.945 66.0104 203.789 65.8438C203.638 65.6771 203.562 65.474 203.562 65.2344Z" fill="black"/>
<path d="M7.156 70.168C8.728 70.168 9.988 69.22 9.988 67.66C9.988 66.448 9.148 65.668 8.116 65.416V65.368C9.052 65.032 9.676 64.324 9.676 63.256C9.676 61.852 8.596 61.048 7.12 61.048C6.112 61.048 5.332 61.492 4.672 62.092L5.26 62.8C5.752 62.296 6.376 61.936 7.084 61.936C7.996 61.936 8.56 62.488 8.56 63.328C8.56 64.288 7.948 65.008 6.136 65.008V65.86C8.164 65.86 8.872 66.556 8.872 67.612C8.872 68.62 8.128 69.256 7.084 69.256C6.076 69.256 5.416 68.776 4.9 68.236L4.348 68.956C4.924 69.592 5.776 70.168 7.156 70.168ZM13.9923 70.168C15.6483 70.168 16.7162 68.644 16.7162 65.572C16.7162 62.524 15.6483 61.048 13.9923 61.048C12.3123 61.048 11.2443 62.524 11.2443 65.572C11.2443 68.644 12.3123 70.168 13.9923 70.168ZM13.9923 69.28C12.9843 69.28 12.3003 68.164 12.3003 65.572C12.3003 63.016 12.9843 61.924 13.9923 61.924C14.9883 61.924 15.6603 63.016 15.6603 65.572C15.6603 68.164 14.9883 69.28 13.9923 69.28Z" fill="#D60C18"/>
<line x1="2.5" y1="50.5" x2="19.5" y2="50.5" stroke="#939EA7" stroke-linecap="square" stroke-dasharray="2 2"/>
<line x1="2.5" y1="79.5" x2="19.5" y2="79.5" stroke="#939EA7" stroke-linecap="square" stroke-dasharray="2 2"/>
<path d="M35.656 96.168C37.228 96.168 38.488 95.22 38.488 93.66C38.488 92.448 37.648 91.668 36.616 91.416V91.368C37.552 91.032 38.176 90.324 38.176 89.256C38.176 87.852 37.096 87.048 35.62 87.048C34.612 87.048 33.832 87.492 33.172 88.092L33.76 88.8C34.252 88.296 34.876 87.936 35.584 87.936C36.496 87.936 37.06 88.488 37.06 89.328C37.06 90.288 36.448 91.008 34.636 91.008V91.86C36.664 91.86 37.372 92.556 37.372 93.612C37.372 94.62 36.628 95.256 35.584 95.256C34.576 95.256 33.916 94.776 33.4 94.236L32.848 94.956C33.424 95.592 34.276 96.168 35.656 96.168ZM42.4923 96.168C44.1483 96.168 45.2162 94.644 45.2162 91.572C45.2162 88.524 44.1483 87.048 42.4923 87.048C40.8123 87.048 39.7443 88.524 39.7443 91.572C39.7443 94.644 40.8123 96.168 42.4923 96.168ZM42.4923 95.28C41.4843 95.28 40.8003 94.164 40.8003 91.572C40.8003 89.016 41.4843 87.924 42.4923 87.924C43.4883 87.924 44.1603 89.016 44.1603 91.572C44.1603 94.164 43.4883 95.28 42.4923 95.28Z" fill="#D60C18"/>
<line x1="54.5" y1="83" x2="54.5" y2="100" stroke="#939EA7" stroke-linecap="square" stroke-dasharray="2 2"/>
<line x1="25.5" y1="83" x2="25.5" y2="100" stroke="#939EA7" stroke-linecap="square" stroke-dasharray="2 2"/>
<path d="M93.056 115H97.88V114.088H96.104V106.204H95.264C94.796 106.492 94.232 106.696 93.44 106.828V107.536H95.012V114.088H93.056V115ZM101.992 115.168C103.648 115.168 104.716 113.644 104.716 110.572C104.716 107.524 103.648 106.048 101.992 106.048C100.312 106.048 99.2443 107.524 99.2443 110.572C99.2443 113.644 100.312 115.168 101.992 115.168ZM101.992 114.28C100.984 114.28 100.3 113.164 100.3 110.572C100.3 108.016 100.984 106.924 101.992 106.924C102.988 106.924 103.66 108.016 103.66 110.572C103.66 113.164 102.988 114.28 101.992 114.28Z" fill="#D60C18"/>
<line x1="105.5" y1="83" x2="105.5" y2="100" stroke="#939EA7" stroke-linecap="square" stroke-dasharray="2 2"/>
<line x1="94.5" y1="83" x2="94.5" y2="100" stroke="#939EA7" stroke-linecap="square" stroke-dasharray="2 2"/>
</svg>
