<svg width="320" height="143" viewBox="0 0 320 143" fill="none" xmlns="http://www.w3.org/2000/svg">
<rect x="0.5" y="0.5" width="319" height="142" fill="white" stroke="#EBEBEB"/>
<path d="M31.656 22.184V27.096H32.824V23.096H41.16V27.096H42.376V22.184H31.656ZM33.528 24.056V24.856H40.44V24.056H33.528ZM33.528 25.832V26.68H40.424V25.832H33.528ZM29.896 27.736V28.728H44.024V27.736H29.896ZM36.856 29.736V30.712H42.616V29.736H36.856ZM31.944 29.784V30.68H35.88V29.784H31.944ZM31.944 31.752V32.648H35.88V31.752H31.944ZM38.632 30.632L37.672 30.92C38.728 33.544 40.792 35.448 43.608 36.28C43.768 35.992 44.088 35.56 44.328 35.336C41.624 34.664 39.576 32.92 38.632 30.632ZM42.328 29.736V29.928C41.464 32.648 39.016 34.536 36.44 35.304C36.68 35.528 36.968 35.976 37.112 36.248C39.88 35.288 42.44 33.272 43.496 29.992L42.76 29.688L42.552 29.736H42.328ZM29.704 34.216L29.832 35.272C31.464 35.096 33.72 34.84 35.912 34.568L35.88 33.592C33.592 33.848 31.256 34.088 29.704 34.216ZM35.256 28.056V36.28H36.408V28.056H35.256ZM31.24 28.056V34.488H32.36V28.056H31.24ZM46.584 22.728V23.608H52.408V22.728H46.584ZM53.24 23.848V24.92H58.184V23.848H53.24ZM45.976 24.808V25.72H52.936V24.808H45.976ZM48.936 21.64V25.24H50.024V21.64H48.936ZM48.936 27.608V31.608H50.024V27.608H48.936ZM46.376 28.76V29.688H52.52V28.76H46.376ZM45.816 31.416L45.928 32.44C47.768 32.264 50.392 31.976 52.92 31.704V30.76C50.296 31.032 47.592 31.288 45.816 31.416ZM55.08 21.56C55.032 26.504 54.936 29.944 52.392 31.864C52.664 32.024 53 32.392 53.176 32.648C55.928 30.536 56.104 26.824 56.168 21.56H55.08ZM53.112 27.128C54.36 28.008 56.04 29.272 56.872 30.024L57.432 29.016C56.584 28.296 54.872 27.112 53.64 26.264L53.112 27.128ZM57.624 23.848V30.504C57.624 31.608 57.688 31.864 57.896 32.072C58.12 32.28 58.44 32.36 58.712 32.36C58.872 32.36 59.16 32.36 59.336 32.36C59.608 32.36 59.864 32.296 60.04 32.168C60.232 32.04 60.36 31.816 60.424 31.448C60.488 31.112 60.552 30.104 60.568 29.272C60.28 29.192 59.944 29.032 59.736 28.824C59.736 29.752 59.72 30.44 59.688 30.776C59.656 31.064 59.624 31.224 59.56 31.288C59.512 31.368 59.416 31.384 59.304 31.384C59.208 31.384 59.064 31.384 58.984 31.384C58.904 31.384 58.84 31.368 58.792 31.32C58.728 31.24 58.728 30.984 58.728 30.584V23.848H57.624ZM50.472 33.432C50.648 34.312 50.76 35.448 50.76 36.152L51.96 35.992C51.944 35.32 51.784 34.216 51.576 33.336L50.472 33.432ZM53.752 33.4C54.136 34.28 54.504 35.416 54.632 36.136L55.816 35.88C55.672 35.192 55.272 34.056 54.872 33.208L53.752 33.4ZM57.064 33.352C57.816 34.264 58.68 35.512 59.064 36.312L60.248 35.88C59.848 35.08 58.952 33.864 58.2 32.984L57.064 33.352ZM47.752 33.032C47.32 34.088 46.568 35.192 45.784 35.832L46.888 36.296C47.704 35.592 48.44 34.408 48.888 33.336L47.752 33.032ZM47.88 25.432C47.752 26.6 47.272 27.224 45.688 27.592C45.88 27.752 46.136 28.104 46.232 28.328C48.088 27.848 48.68 26.968 48.856 25.432H47.88ZM50.072 25.336V26.52C50.072 27.416 50.248 27.768 51.096 27.768C51.304 27.768 52.024 27.768 52.232 27.768C52.504 27.768 52.824 27.752 53 27.688C52.952 27.464 52.936 27.144 52.904 26.92C52.728 26.968 52.392 26.984 52.216 26.984C52.04 26.984 51.4 26.984 51.224 26.984C51.032 26.984 51 26.888 51 26.536V25.336H50.072ZM63.032 24.744V25.656H67.48V24.744H63.032ZM70.392 24.744V25.656H74.92V24.744H70.392ZM74.408 22.328V34.648C74.408 34.952 74.312 35.032 73.992 35.048C73.672 35.064 72.568 35.08 71.464 35.016C71.64 35.368 71.848 35.928 71.912 36.264C73.368 36.264 74.312 36.248 74.872 36.04C75.416 35.848 75.608 35.464 75.608 34.648V22.328H74.408ZM63.128 22.328V23.336H67.048V27.192H63.128V28.2H68.184V22.328H63.128ZM75.032 22.328H69.688V28.216H75.032V27.208H70.84V23.336H75.032V22.328ZM62.456 22.328V36.28H63.64V22.328H62.456Z" fill="#D60C18"/>
<path d="M145.656 22.184V27.096H146.824V23.096H155.16V27.096H156.376V22.184H145.656ZM147.528 24.056V24.856H154.44V24.056H147.528ZM147.528 25.832V26.68H154.424V25.832H147.528ZM143.896 27.736V28.728H158.024V27.736H143.896ZM150.856 29.736V30.712H156.616V29.736H150.856ZM145.944 29.784V30.68H149.88V29.784H145.944ZM145.944 31.752V32.648H149.88V31.752H145.944ZM152.632 30.632L151.672 30.92C152.728 33.544 154.792 35.448 157.608 36.28C157.768 35.992 158.088 35.56 158.328 35.336C155.624 34.664 153.576 32.92 152.632 30.632ZM156.328 29.736V29.928C155.464 32.648 153.016 34.536 150.44 35.304C150.68 35.528 150.968 35.976 151.112 36.248C153.88 35.288 156.44 33.272 157.496 29.992L156.76 29.688L156.552 29.736H156.328ZM143.704 34.216L143.832 35.272C145.464 35.096 147.72 34.84 149.912 34.568L149.88 33.592C147.592 33.848 145.256 34.088 143.704 34.216ZM149.256 28.056V36.28H150.408V28.056H149.256ZM145.24 28.056V34.488H146.36V28.056H145.24ZM168.552 26.968V28.088H174.328V26.968H168.552ZM159.976 23.24V24.264H167.032V23.24H159.976ZM159.8 29.592V30.632H167.112V29.592H159.8ZM159.72 26.904V27.928H167.288V26.904H159.72ZM171.4 27.448V36.216H172.568V27.448H171.4ZM161.016 24.584C161.304 25.288 161.544 26.232 161.624 26.84L162.648 26.552C162.568 25.96 162.296 25.048 161.992 24.36L161.016 24.584ZM165.032 24.344C164.808 25.144 164.408 26.344 164.072 27.08L165.064 27.32C165.4 26.616 165.8 25.528 166.136 24.584L165.032 24.344ZM173.08 21.848C171.928 22.344 169.88 22.808 168.072 23.112C168.216 23.368 168.392 23.768 168.456 24.024C170.344 23.752 172.536 23.304 174.056 22.744L173.08 21.848ZM162.424 21.784C162.792 22.456 163.192 23.352 163.368 23.912L164.6 23.544C164.424 23 163.992 22.12 163.608 21.48L162.424 21.784ZM168.072 23.112V28.648C168.072 30.792 167.96 33.544 166.6 35.48C166.856 35.624 167.32 35.992 167.512 36.216C168.984 34.12 169.192 30.952 169.192 28.648V23.112H168.072ZM164.92 31.816C165.4 32.616 165.976 33.72 166.232 34.408L167.08 33.912C166.84 33.224 166.264 32.184 165.736 31.384L164.92 31.816ZM161.224 31.48C160.872 32.536 160.328 33.64 159.704 34.392C159.944 34.52 160.36 34.824 160.536 34.984C161.16 34.168 161.816 32.904 162.2 31.752L161.224 31.48ZM163.016 27.432V36.216H164.184V27.432H163.016Z" fill="black"/>
<path d="M237.656 22.184V27.096H238.824V23.096H247.16V27.096H248.376V22.184H237.656ZM239.528 24.056V24.856H246.44V24.056H239.528ZM239.528 25.832V26.68H246.424V25.832H239.528ZM235.896 27.736V28.728H250.024V27.736H235.896ZM242.856 29.736V30.712H248.616V29.736H242.856ZM237.944 29.784V30.68H241.88V29.784H237.944ZM237.944 31.752V32.648H241.88V31.752H237.944ZM244.632 30.632L243.672 30.92C244.728 33.544 246.792 35.448 249.608 36.28C249.768 35.992 250.088 35.56 250.328 35.336C247.624 34.664 245.576 32.92 244.632 30.632ZM248.328 29.736V29.928C247.464 32.648 245.016 34.536 242.44 35.304C242.68 35.528 242.968 35.976 243.112 36.248C245.88 35.288 248.44 33.272 249.496 29.992L248.76 29.688L248.552 29.736H248.328ZM235.704 34.216L235.832 35.272C237.464 35.096 239.72 34.84 241.912 34.568L241.88 33.592C239.592 33.848 237.256 34.088 235.704 34.216ZM241.256 28.056V36.28H242.408V28.056H241.256ZM237.24 28.056V34.488H238.36V28.056H237.24ZM263 21.944C263.592 22.344 264.376 22.92 264.776 23.288L265.512 22.68C265.096 22.328 264.312 21.784 263.72 21.416L263 21.944ZM253.48 23.24V24.264H266.136V23.24H253.48ZM254.792 25.4V26.28H260.728V25.4H254.792ZM264.536 25.192C263.624 27.608 262.024 29.704 260.072 31.016C260.312 31.192 260.744 31.608 260.92 31.8C262.84 30.36 264.552 28.12 265.576 25.48L264.536 25.192ZM261.48 21.56C261.608 28.904 262.952 36.216 265.064 36.216C266.072 36.216 266.456 35.448 266.616 32.888C266.328 32.76 265.928 32.52 265.688 32.264C265.64 34.2 265.464 35.096 265.208 35.096C264.184 35.08 262.616 28.792 262.632 21.56H261.48ZM252.904 23.24V26.616C252.904 29.16 252.776 32.936 251.496 35.656C251.752 35.768 252.248 36.104 252.456 36.296C253.8 33.448 254.008 29.304 254.008 26.616V23.24H252.904ZM255.784 31.896V34.792C255.784 35.816 256.088 36.088 257.256 36.088C257.48 36.088 258.904 36.088 259.16 36.088C260.136 36.088 260.408 35.624 260.504 33.736C260.232 33.672 259.848 33.528 259.624 33.368C259.592 34.984 259.496 35.208 259.048 35.208C258.744 35.208 257.576 35.208 257.368 35.208C256.872 35.208 256.792 35.144 256.792 34.792V31.896H255.784ZM257.064 31.32C257.56 32.072 258.184 33.112 258.472 33.72L259.288 33.304C258.984 32.696 258.344 31.704 257.832 30.968L257.064 31.32ZM260.28 32.312C260.792 33.368 261.4 34.776 261.688 35.608L262.6 35.224C262.296 34.424 261.656 33.032 261.112 32.008L260.28 32.312ZM254.536 32.104C254.36 33.112 254.024 34.456 253.608 35.272L254.44 35.688C254.856 34.824 255.176 33.416 255.336 32.376L254.536 32.104ZM256.12 28.216H259.432V30.056H256.12V28.216ZM255.128 27.368V30.92H260.408V27.368H255.128ZM267.752 31.352V32.472H282.216V31.352H267.752ZM273.56 24.456V25.288H276.312V24.456H273.56ZM278.216 22.28V23.288H280.792V22.28H278.216ZM278.296 25.432V26.424H280.664V25.432H278.296ZM278.2 28.424V29.416H280.52V28.424H278.2ZM269.352 25.384V26.376H271.72V25.384H269.352ZM269.432 28.376V29.368H271.8V28.376H269.432ZM272.216 22.392V31.944H273.128V23.336H276.824V31.944H277.752V22.392H272.216ZM274.392 27.144H275.576V29.288H274.392V27.144ZM273.768 26.36V30.072H276.216V26.36H273.768ZM280.168 22.28C280.168 25.336 280.04 29.624 279.848 32.072H280.904C281.08 29.688 281.192 25.4 281.224 22.28H280.168ZM271.528 21.752C270.808 22.104 269.688 22.488 268.792 22.76C268.904 23.032 269.048 23.416 269.08 23.672C270.024 23.464 271.176 23.128 272.104 22.792L271.528 21.752ZM268.792 22.76L269.048 31.672H270.104L269.832 23.08L268.792 22.76ZM276.536 33.48C278.216 34.312 279.992 35.384 281.08 36.168L281.88 35.24C280.76 34.472 278.904 33.464 277.192 32.648L276.536 33.48ZM272.36 32.776C271.336 33.64 269.4 34.728 267.864 35.352C268.104 35.608 268.408 36.008 268.568 36.264C270.136 35.576 272.088 34.504 273.384 33.496L272.36 32.776ZM289.288 22.216V23.256H294.712V22.216H289.288ZM294.296 23.496V24.504H297.256V23.496H294.296ZM290.552 25.16V26.104H293.304V25.16H290.552ZM290.552 28.088V29.064H293.304V28.088H290.552ZM292.856 22.632V34.264H293.848V22.632H292.856ZM290.152 22.568V32.024L291.128 31.848V22.568H290.152ZM289.24 31.752L289.48 32.776C290.696 32.472 292.232 32.072 293.72 31.672L293.608 30.76C291.976 31.16 290.376 31.528 289.24 31.752ZM296.936 23.496V23.752C296.536 27.832 295.4 31.192 293.768 33.016C294.008 33.176 294.392 33.576 294.552 33.832C296.232 31.864 297.48 28.264 297.976 23.672L297.336 23.464L297.128 23.496H296.936ZM284.184 23.464V24.52H289.192V23.464H284.184ZM283.768 26.408V27.496H289.48V26.408H283.768ZM287.112 29.608V30.68H289.448V29.608H287.112ZM286.344 21.56V27.08H287.432V21.56H286.344ZM286.696 27.16V34.392H287.768V27.16H286.696ZM285.48 30.68L284.6 30.984C285.704 35.016 287.688 35.864 291.992 35.864H297.944C298.024 35.512 298.232 34.968 298.44 34.68C297.464 34.728 292.728 34.712 291.992 34.712C288.28 34.712 286.392 34.04 285.48 30.68ZM284.568 28.808C284.616 30.936 284.504 33.624 283.368 35.56C283.624 35.672 284.008 36.024 284.184 36.264C285.464 34.136 285.608 31.256 285.576 28.856L284.568 28.808ZM294.088 25.912C295.432 28.28 296.856 31.432 297.4 33.304L298.36 32.904C297.8 31.032 296.328 27.96 294.952 25.608L294.088 25.912Z" fill="black"/>
<line y1="54.5" x2="320" y2="54.5" stroke="#EEEEEE"/>
<rect y="52" width="106" height="3" fill="#D60C18"/>
<path d="M28.656 87.328L27.552 87.616C28.768 91.392 31.04 94.048 34.64 95.248C34.816 94.912 35.168 94.416 35.456 94.16C31.984 93.168 29.712 90.688 28.656 87.328ZM21.616 81.808V83.024H34.304V81.808H21.616ZM21.056 86.72V87.952H34.992V86.72H21.056ZM27.264 82.224V84.912C27.264 87.84 26.72 91.792 20.656 94.256C20.912 94.496 21.28 94.96 21.44 95.264C27.872 92.592 28.512 88.24 28.512 84.928V82.224H27.264ZM36.88 81.744V82.96H51.12V81.744H36.88ZM43.04 82.704V95.264H44.304V82.704H43.04ZM43.744 86.496C45.68 87.488 48.176 89.008 49.408 90L50.256 88.912C48.976 87.952 46.448 86.496 44.528 85.568L43.744 86.496ZM55.792 83.904H64.304V84.912H55.792V83.904ZM55.792 82.08H64.304V83.072H55.792V82.08ZM54.64 81.216V85.776H65.504V81.216H54.64ZM54.592 86.672V87.6H66.848V86.672H54.592ZM54.576 90.096V91.024H67.104V90.096H54.576ZM54.72 88.432V89.248H65.68V88.432H54.72ZM53.984 86.672V88.896C53.984 90.576 53.84 92.928 52.64 94.688C52.928 94.816 53.456 95.136 53.68 95.344C54.944 93.488 55.2 90.784 55.2 88.912V86.672H53.984ZM60.832 90.368L59.872 90.608C61.104 92.96 63.536 94.464 66.736 95.04C66.896 94.72 67.184 94.272 67.44 94.032C64.352 93.616 61.904 92.32 60.832 90.368ZM65.44 91.152C64.688 91.648 63.392 92.336 62.48 92.72L63.184 93.28C64.112 92.912 65.36 92.336 66.256 91.712L65.44 91.152ZM56.496 95.296C56.768 95.104 57.264 94.976 61.04 94.032C61.04 93.792 61.056 93.36 61.104 93.056L56.96 93.968L56.464 94.384L56.496 95.296ZM56.496 95.296C56.496 94.864 57.92 94.048 57.92 94.048V90.48L56.784 90.432V93.056C56.784 93.744 56.272 94.112 55.968 94.272C56.16 94.512 56.416 95.008 56.496 95.296ZM73.552 90.368V91.296H78.4V90.368H73.552ZM73.504 87.952V88.896H77.824V92.864H73.504V93.792H78.96V87.952H73.504ZM72.976 87.952V94.608H74.08V87.952H72.976ZM70.032 83.52V84.4H74.48V83.52H70.032ZM77.408 83.52V84.4H81.936V83.52H77.408ZM81.44 81.248V93.696C81.44 93.968 81.344 94.064 81.056 94.064C80.768 94.08 79.792 94.096 78.816 94.048C78.992 94.384 79.184 94.944 79.232 95.28C80.576 95.28 81.44 95.264 81.952 95.072C82.464 94.864 82.64 94.464 82.64 93.696V81.248H81.44ZM70.128 81.248V82.176H74.112V85.824H70.128V86.752H75.248V81.248H70.128ZM82.032 81.248H76.688V86.768H82.032V85.856H77.84V82.176H82.032V81.248ZM69.44 81.248V95.296H70.624V81.248H69.44ZM93.552 85.968V87.088H99.328V85.968H93.552ZM84.976 82.24V83.264H92.032V82.24H84.976ZM84.8 88.592V89.632H92.112V88.592H84.8ZM84.72 85.904V86.928H92.288V85.904H84.72ZM96.4 86.448V95.216H97.568V86.448H96.4ZM86.016 83.584C86.304 84.288 86.544 85.232 86.624 85.84L87.648 85.552C87.568 84.96 87.296 84.048 86.992 83.36L86.016 83.584ZM90.032 83.344C89.808 84.144 89.408 85.344 89.072 86.08L90.064 86.32C90.4 85.616 90.8 84.528 91.136 83.584L90.032 83.344ZM98.08 80.848C96.928 81.344 94.88 81.808 93.072 82.112C93.216 82.368 93.392 82.768 93.456 83.024C95.344 82.752 97.536 82.304 99.056 81.744L98.08 80.848ZM87.424 80.784C87.792 81.456 88.192 82.352 88.368 82.912L89.6 82.544C89.424 82 88.992 81.12 88.608 80.48L87.424 80.784ZM93.072 82.112V87.648C93.072 89.792 92.96 92.544 91.6 94.48C91.856 94.624 92.32 94.992 92.512 95.216C93.984 93.12 94.192 89.952 94.192 87.648V82.112H93.072ZM89.92 90.816C90.4 91.616 90.976 92.72 91.232 93.408L92.08 92.912C91.84 92.224 91.264 91.184 90.736 90.384L89.92 90.816ZM86.224 90.48C85.872 91.536 85.328 92.64 84.704 93.392C84.944 93.52 85.36 93.824 85.536 93.984C86.16 93.168 86.816 91.904 87.2 90.752L86.224 90.48ZM88.016 86.432V95.216H89.184V86.432H88.016ZM103.952 87.072V87.968H111.968V87.072H103.952ZM105.872 88.832V89.616H110.112V88.832H105.872ZM105.872 90.496V91.248H110.096V90.496H105.872ZM109.68 87.536V94.8H110.784V87.536H109.68ZM105.152 87.536V92.608H106.224V87.536H105.152ZM102.032 83.264V84.112H106.528V83.264H102.032ZM109.408 83.264V84.112H113.936V83.264H109.408ZM113.472 81.184V93.872C113.472 94.096 113.392 94.176 113.184 94.176C112.976 94.192 112.272 94.192 111.536 94.176C111.696 94.48 111.856 94.96 111.904 95.264C112.944 95.264 113.664 95.248 114.08 95.056C114.512 94.864 114.656 94.544 114.656 93.872V81.184H113.472ZM102.128 81.184V82.048H106.128V85.328H102.128V86.208H107.264V81.184H102.128ZM114.048 81.184H108.672V86.208H114.048V85.328H109.824V82.048H114.048V81.184ZM101.408 81.184V95.28H102.592V81.184H101.408ZM103.568 92.16V93.04H112.24V92.16H103.568ZM133.472 82.8V83.888H146.512V82.8H133.472ZM134.352 85.184V86.224H145.728V85.184H134.352ZM133.248 89.888V90.944H146.928V89.888H133.248ZM132.896 87.584V88.656H147.2V87.584H132.896ZM139.344 83.408V88.368H140.576V83.408H139.344ZM135.616 80.944C136.16 81.584 136.736 82.448 136.96 83.056L138.064 82.544C137.824 81.968 137.248 81.12 136.672 80.512L135.616 80.944ZM143.12 80.512C142.752 81.248 142.096 82.304 141.6 82.976L142.64 83.344C143.152 82.72 143.824 81.76 144.368 80.896L143.12 80.512ZM139.264 88.32C138.912 91.552 138.032 93.376 132.64 94.16C132.864 94.432 133.168 94.944 133.264 95.232C138.992 94.288 140.112 92.112 140.512 88.32H139.264ZM140.064 92C142.304 92.896 145.184 94.336 146.608 95.344L147.168 94.304C145.712 93.328 142.816 91.952 140.608 91.12L140.064 92ZM151.328 84.512V85.424H160.704V84.512H151.328ZM158 83.2C158.608 83.504 159.344 83.968 159.728 84.352L160.304 83.712C159.92 83.344 159.184 82.896 158.56 82.624L158 83.2ZM159.056 86.16C158.368 88.928 156.896 91.008 154.72 92.272C154.928 92.448 155.28 92.848 155.424 93.04C157.632 91.616 159.232 89.376 160.032 86.352L159.056 86.16ZM151.168 91.056L151.328 91.968C152.656 91.728 154.368 91.376 156.032 91.056L156 90.208C154.192 90.544 152.4 90.848 151.168 91.056ZM152.752 87.184H154.576V88.8H152.752V87.184ZM151.888 86.432V89.536H155.456V86.432H151.888ZM156.064 82.8C156.352 87.744 157.008 92.288 159.216 92.768C160.064 93.072 160.624 92.432 160.832 90.672C160.608 90.576 160.24 90.32 160.048 90.128C159.936 91.168 159.776 91.84 159.552 91.792C158 91.552 157.296 87.328 157.088 82.8H156.064ZM149.312 81.312V95.344H150.448V82.4H161.488V95.344H162.688V81.312H149.312ZM150.016 93.504V94.592H162.16V93.504H150.016ZM171.328 83.248C172.88 83.84 174.896 84.768 175.904 85.392L176.704 84.624C175.632 83.984 173.616 83.12 172.08 82.576L171.328 83.248ZM169.792 84.592V92.832H170.864V85.52H177.984V84.592H169.792ZM177.552 84.592V91.696C177.552 91.888 177.488 91.952 177.28 91.968C177.072 91.968 176.4 91.968 175.632 91.952C175.76 92.208 175.92 92.608 175.968 92.896C177.024 92.896 177.712 92.88 178.096 92.72C178.512 92.544 178.64 92.272 178.64 91.696V84.592H177.552ZM169.808 81.232V82.176H177.792V81.232H169.808ZM170.432 86.928V87.824H177.968V86.928H170.432ZM170.432 89.28V90.208H177.968V89.28H170.432ZM173.616 84.976V92.816H174.672V84.976H173.616ZM177.392 81.232V81.456C176.672 82.208 175.184 83.136 173.872 83.648C174.048 83.824 174.352 84.144 174.512 84.352C175.968 83.744 177.584 82.752 178.656 81.744L177.92 81.168L177.664 81.232H177.392ZM165.328 81.12C166.032 81.904 166.928 83.024 167.36 83.696L168.288 83.04C167.84 82.384 166.96 81.36 166.224 80.592L165.328 81.12ZM164.752 84.256V85.264H168.256V84.256H164.752ZM167.6 91.6L166.8 91.968C168 94.608 170.096 95.056 173.84 95.056C175.6 95.056 177.616 95.008 179.12 94.928C179.184 94.592 179.344 94.032 179.52 93.776C177.888 93.904 175.536 93.984 173.856 93.984C170.672 93.984 168.592 93.696 167.6 91.6ZM167.824 88.256V88.464C167.376 91.392 166.144 93.424 164.448 94.496C164.672 94.672 165.072 95.072 165.232 95.328C167.024 94.128 168.352 91.872 168.912 88.448L168.304 88.224L168.096 88.256H167.824ZM164.976 89.456C165.088 89.328 165.504 89.232 165.92 89.232H168.208L168.224 88.256H165.552L164.976 88.544V89.456ZM164.976 89.456C164.976 89.152 165.872 88.704 165.872 88.704C166.816 87.68 168.304 85.648 169.088 84.56L168.288 84.176L167.92 84.336V84.384C167.376 85.232 165.808 87.392 165.296 87.888C165.024 88.208 164.768 88.304 164.528 88.368C164.656 88.624 164.896 89.184 164.976 89.456ZM181.856 81.152V82.256H184.576V81.152H181.856ZM181.408 81.152V86.848C181.408 89.168 181.344 92.336 180.496 94.624C180.704 94.752 181.104 95.12 181.248 95.344C182.224 92.848 182.352 89.28 182.352 86.848V81.152H181.408ZM184.048 81.152V93.936C184.048 94.128 183.984 94.192 183.808 94.192C183.632 94.208 183.088 94.208 182.448 94.192C182.592 94.464 182.736 94.928 182.768 95.184C183.648 95.184 184.192 95.168 184.528 94.992C184.88 94.816 184.992 94.496 184.992 93.952V81.152H184.048ZM182.144 89.536L182.624 90.512C183.328 89.888 184.032 89.264 184.752 88.624L184.4 87.904C183.552 88.56 182.72 89.168 182.144 89.536ZM182.08 84.88C182.56 85.408 183.136 86.16 183.408 86.624L184.112 86.144C183.84 85.68 183.264 84.992 182.768 84.448L182.08 84.88ZM185.632 93.328L185.92 94.384C187.408 94.064 189.424 93.632 191.36 93.2L191.264 92.24C189.168 92.656 187.024 93.088 185.632 93.328ZM186.4 90.352C186.736 91.056 187.056 92 187.168 92.624L188.08 92.288C187.968 91.68 187.632 90.752 187.264 90.064L186.4 90.352ZM185.664 82.08V83.072H191.248V82.08H185.664ZM186.016 84.4V85.376H191.136V84.4H186.016ZM188 80.576V84.912H189.088V80.576H188ZM187.184 87.232H189.872V88.816H187.184V87.232ZM186.16 86.352V89.696H190.912V86.352H186.16ZM193.888 80.88C193.296 82.192 192.192 83.616 191.184 84.464C191.472 84.656 191.808 84.96 192.016 85.216C193.136 84.24 194.24 82.72 194.928 81.232L193.888 80.88ZM193.968 85.312C193.392 86.704 192.256 88.16 191.152 89.008C191.456 89.216 191.776 89.536 191.984 89.792C193.2 88.8 194.336 87.248 195.04 85.664L193.968 85.312ZM194.192 89.952C193.52 91.824 192.176 93.552 190.528 94.512C190.8 94.736 191.136 95.088 191.312 95.36C193.104 94.224 194.496 92.368 195.248 90.272L194.192 89.952ZM189.6 89.984C189.376 90.896 188.912 92.24 188.544 93.056L189.36 93.344C189.76 92.56 190.256 91.312 190.688 90.288L189.6 89.984ZM199.152 94H200.672C200.864 89.424 201.36 86.688 204.112 83.152V82.272H196.784V83.52H202.464C200.16 86.72 199.36 89.568 199.152 94ZM207.083 94.224C207.675 94.224 208.155 93.76 208.155 93.104C208.155 92.432 207.675 91.984 207.083 91.984C206.507 91.984 206.043 92.432 206.043 93.104C206.043 93.76 206.507 94.224 207.083 94.224ZM213.072 94.224C215.28 94.224 217.328 92.4 217.328 87.632C217.328 83.904 215.648 82.064 213.392 82.064C211.568 82.064 210.032 83.6 210.032 85.872C210.032 88.304 211.296 89.552 213.264 89.552C214.272 89.552 215.312 88.944 216.048 88.016L215.968 86.848C215.2 88.016 214.288 88.48 213.504 88.48C212.112 88.48 211.408 87.44 211.408 85.872C211.408 84.256 212.272 83.2 213.392 83.2C215.04 83.2 215.952 84.752 215.952 87.632C215.952 91.648 214.592 93.008 213.024 93.008C212.272 93.008 211.552 92.672 211.056 92.096L210.24 93.024C210.896 93.712 211.792 94.224 213.072 94.224ZM221.483 89.456C223.099 89.456 224.155 88.112 224.155 85.744C224.155 83.392 223.099 82.064 221.483 82.064C219.867 82.064 218.811 83.392 218.811 85.744C218.811 88.112 219.867 89.456 221.483 89.456ZM221.483 88.56C220.555 88.56 219.915 87.6 219.915 85.744C219.915 83.872 220.555 82.96 221.483 82.96C222.411 82.96 223.035 83.872 223.035 85.744C223.035 87.6 222.411 88.56 221.483 88.56ZM221.819 94.224H222.811L229.275 82.064H228.283L221.819 94.224ZM229.659 94.224C231.243 94.224 232.315 92.88 232.315 90.496C232.315 88.16 231.243 86.816 229.659 86.816C228.043 86.816 226.987 88.16 226.987 90.496C226.987 92.88 228.043 94.224 229.659 94.224ZM229.659 93.328C228.731 93.328 228.091 92.368 228.091 90.496C228.091 88.624 228.731 87.728 229.659 87.728C230.571 87.728 231.211 88.624 231.211 90.496C231.211 92.368 230.571 93.328 229.659 93.328ZM233.562 90.288V91.408H248.33V90.288H233.562ZM234.154 81.536V82.656H247.738V81.536H234.154ZM236.25 87.248V88.304H245.658V87.248H236.25ZM245.194 84.224V93.808C245.194 94.08 245.098 94.16 244.81 94.16C244.522 94.176 243.498 94.192 242.442 94.16C242.618 94.464 242.81 94.992 242.874 95.312C244.266 95.312 245.162 95.296 245.674 95.104C246.218 94.912 246.378 94.544 246.378 93.808V84.224H245.194ZM235.466 84.224V95.312H236.65V85.328H245.69V84.224H235.466ZM240.266 81.888V90.704H241.466V81.888H240.266ZM259.306 82.336V91.184H260.426V82.336H259.306ZM262.33 80.64V93.696C262.33 93.968 262.218 94.048 261.946 94.064C261.69 94.08 260.826 94.08 259.85 94.048C260.01 94.4 260.186 94.928 260.25 95.248C261.562 95.248 262.362 95.216 262.826 95.024C263.29 94.816 263.482 94.448 263.482 93.696V80.64H262.33ZM251.594 87.44V88.24H256.954V87.44H251.594ZM252.33 93.568V94.512H257.274V93.568H252.33ZM250.906 85.52V87.68C250.906 89.504 250.746 92.144 249.465 94.096C249.77 94.208 250.266 94.432 250.49 94.624C251.786 92.592 252.026 89.68 252.026 87.68V85.52H250.906ZM251.578 85.52V86.416H256.362V89.344H251.514V90.24H257.466V85.52H251.578ZM251.866 90.976V95.184H252.906V91.872H256.778V95.152H257.85V90.976H251.866ZM254.026 80.688C253.049 82.288 251.274 83.664 249.498 84.512C249.706 84.768 250.042 85.36 250.17 85.616C252.058 84.592 253.994 82.976 255.13 81.088L254.026 80.688ZM253.658 82C255.018 82.832 256.858 84.048 257.77 84.816L258.41 83.824C257.498 83.088 255.61 81.936 254.282 81.152L253.658 82ZM252.65 83.92V84.72H256.026V83.92H252.65ZM270.362 94H271.738V82.272H270.122L265.242 89.808V90.768H273.306V89.616H266.778L269.45 85.616C269.77 85.04 270.09 84.448 270.378 83.872H270.458C270.41 84.48 270.362 85.424 270.362 86.016V94ZM278.261 94.224C280.469 94.224 281.892 92.192 281.892 88.096C281.892 84.032 280.469 82.064 278.261 82.064C276.021 82.064 274.597 84.032 274.597 88.096C274.597 92.192 276.021 94.224 278.261 94.224ZM278.261 93.04C276.917 93.04 276.005 91.552 276.005 88.096C276.005 84.688 276.917 83.232 278.261 83.232C279.589 83.232 280.485 84.688 280.485 88.096C280.485 91.552 279.589 93.04 278.261 93.04ZM287.12 80.512C286.336 82.672 285.008 84.752 283.488 86.08C283.792 86.24 284.288 86.64 284.528 86.848C286.016 85.408 287.44 83.184 288.32 80.816L287.12 80.512ZM286.864 82.496L286.288 83.664H297.184V82.496H286.864ZM286.08 86.128V91.04H287.28V87.248H296.832V86.128H286.08ZM283.44 90.432V91.6H297.936V90.432H283.44ZM290.88 83.104V95.296H292.112V83.104H290.88ZM29.552 109.968V111.088H35.328V109.968H29.552ZM20.976 106.24V107.264H28.032V106.24H20.976ZM20.8 112.592V113.632H28.112V112.592H20.8ZM20.72 109.904V110.928H28.288V109.904H20.72ZM32.4 110.448V119.216H33.568V110.448H32.4ZM22.016 107.584C22.304 108.288 22.544 109.232 22.624 109.84L23.648 109.552C23.568 108.96 23.296 108.048 22.992 107.36L22.016 107.584ZM26.032 107.344C25.808 108.144 25.408 109.344 25.072 110.08L26.064 110.32C26.4 109.616 26.8 108.528 27.136 107.584L26.032 107.344ZM34.08 104.848C32.928 105.344 30.88 105.808 29.072 106.112C29.216 106.368 29.392 106.768 29.456 107.024C31.344 106.752 33.536 106.304 35.056 105.744L34.08 104.848ZM23.424 104.784C23.792 105.456 24.192 106.352 24.368 106.912L25.6 106.544C25.424 106 24.992 105.12 24.608 104.48L23.424 104.784ZM29.072 106.112V111.648C29.072 113.792 28.96 116.544 27.6 118.48C27.856 118.624 28.32 118.992 28.512 119.216C29.984 117.12 30.192 113.952 30.192 111.648V106.112H29.072ZM25.92 114.816C26.4 115.616 26.976 116.72 27.232 117.408L28.08 116.912C27.84 116.224 27.264 115.184 26.736 114.384L25.92 114.816ZM22.224 114.48C21.872 115.536 21.328 116.64 20.704 117.392C20.944 117.52 21.36 117.824 21.536 117.984C22.16 117.168 22.816 115.904 23.2 114.752L22.224 114.48ZM24.016 110.432V119.216H25.184V110.432H24.016ZM36.944 106.24V107.28H50.992V106.24H36.944ZM40.56 109.072H47.488V110.512H40.56V109.072ZM39.36 108.176V111.392H48.736V108.176H39.36ZM37.52 112.288V119.28H38.688V113.312H50.096V112.288H37.52ZM49.28 112.288V118.016C49.28 118.208 49.2 118.256 48.992 118.272C48.8 118.272 48.064 118.288 47.36 118.256C47.52 118.496 47.68 118.88 47.744 119.152C48.768 119.168 49.472 119.152 49.888 119.008C50.336 118.848 50.48 118.592 50.48 118.016V112.288H49.28ZM43.04 104.784C43.28 105.488 43.6 106.416 43.728 106.976L44.944 106.624C44.816 106.096 44.48 105.2 44.208 104.512L43.04 104.784ZM41.12 114.256V115.152H46.208V116.656H41.12V117.552H47.28V114.256H41.12ZM40.496 114.256V118.352H41.616V114.256H40.496ZM58.688 114.992C60.368 114.416 61.456 113.104 61.456 111.376C61.456 110.256 60.976 109.52 60.08 109.52C59.44 109.52 58.864 109.92 58.864 110.672C58.864 111.424 59.408 111.824 60.064 111.824C60.368 111.824 60.688 111.744 60.912 111.456L60.048 110.24L60.352 111.584C60.352 112.8 59.632 113.616 58.32 114.144L58.688 114.992ZM72.912 117.52V118.64H83.456V117.52H72.912ZM75.504 111.104H80.816V114.32H75.504V111.104ZM75.504 106.832H80.816V109.984H75.504V106.832ZM74.272 105.712V115.44H82.096V105.712H74.272ZM72.448 104.624C71.536 107.056 70.016 109.456 68.416 111.008C68.64 111.296 68.992 111.936 69.12 112.224C70.88 110.432 72.544 107.712 73.6 104.992L72.448 104.624ZM70.736 108.752V119.264H71.936V107.6L71.92 107.584L70.736 108.752ZM89.392 111.088V112.192H99.088V111.088H89.392ZM88.16 109.216C87.328 110.96 86 112.688 84.656 113.84C84.912 114.064 85.328 114.576 85.488 114.816C86.896 113.536 88.352 111.552 89.296 109.584L88.16 109.216ZM95.728 109.344V117.744C95.728 118.016 95.648 118.096 95.328 118.096C95.024 118.112 93.968 118.128 92.816 118.096C92.992 118.416 93.184 118.928 93.232 119.248C94.688 119.248 95.632 119.232 96.176 119.056C96.72 118.864 96.896 118.512 96.896 117.76V109.344H95.728ZM90.32 113.584C91.024 114.608 91.92 115.984 92.336 116.784L93.344 116.176C92.896 115.392 91.984 114.064 91.28 113.072L90.32 113.584ZM87.04 111.856V119.28H88.192V110.736V110.72L87.04 111.856ZM86.864 105.84V106.912H91.952V105.84H86.864ZM93.248 105.84V106.912H99.216V105.84H93.248ZM87.12 104.48C86.592 105.92 85.648 107.312 84.624 108.224C84.864 108.464 85.264 108.992 85.424 109.248C86.544 108.176 87.648 106.512 88.288 104.816L87.12 104.48ZM93.408 104.496C93.024 106.032 92.304 107.504 91.392 108.464C91.664 108.672 92.144 109.088 92.336 109.312C93.296 108.224 94.128 106.528 94.624 104.8L93.408 104.496ZM87.728 107.664C88.224 108.16 88.848 108.864 89.104 109.328L89.968 108.56C89.68 108.112 89.056 107.472 88.544 106.992L87.728 107.664ZM94.464 107.6C95.024 108.096 95.696 108.816 96 109.28L96.848 108.528C96.512 108.064 95.84 107.392 95.264 106.944L94.464 107.6ZM103.968 109.792V110.912H112.048V109.792H103.968ZM103.68 117.232V118.368H112.256V117.232H103.68ZM103.136 112.832V119.248H104.336V113.92H111.808V119.2H113.072V112.832H103.136ZM108.256 104.528C106.624 107.008 103.68 109.136 100.624 110.336C100.96 110.624 101.296 111.072 101.504 111.392C104.592 110.032 107.536 107.728 109.312 105.056L108.256 104.528ZM108.496 105.456L107.472 105.984C109.6 108.416 111.92 109.936 114.656 111.248C114.832 110.88 115.184 110.432 115.488 110.16C112.8 109.024 110.448 107.616 108.496 105.456ZM116.944 105.344V106.4H122.144V105.344H116.944ZM116.592 110.416V111.504H122.704V110.416H116.592ZM119.232 110.944V117.856C119.232 118.048 119.168 118.112 118.944 118.112C118.72 118.128 117.968 118.128 117.152 118.112C117.312 118.432 117.488 118.928 117.536 119.248C118.64 119.248 119.344 119.232 119.792 119.04C120.256 118.864 120.384 118.512 120.384 117.872V110.944H119.232ZM121.776 105.344V105.584C121.28 106.496 120.272 107.792 119.392 108.544C119.6 108.72 119.92 109.04 120.096 109.248C121.104 108.4 122.256 107.024 123.024 105.792L122.256 105.28L122.032 105.344H121.776ZM122.368 110.416V110.592C122.048 111.696 121.584 113.04 121.2 113.856L122.128 114.096C122.544 113.216 123.056 111.824 123.472 110.576L122.72 110.368L122.544 110.416H122.368ZM117.392 108.144C118.736 108.864 120.32 109.984 121.088 110.816L121.776 109.936C120.992 109.12 119.376 108.048 118.032 107.344L117.392 108.144ZM123.136 105.312V106.352H131.264V105.312H123.136ZM124.864 111.264H129.552V112.832H124.864V111.264ZM124.864 113.712H129.552V115.296H124.864V113.712ZM124.864 108.816H129.552V110.368H124.864V108.816ZM123.744 107.888V116.24H130.72V107.888H123.744ZM126.576 105.824C126.48 106.56 126.256 107.664 126.064 108.384L127.12 108.592C127.376 107.92 127.664 106.912 127.936 105.984L126.576 105.824ZM125.344 116.528C124.656 117.232 123.216 118.064 121.936 118.528C122.176 118.736 122.56 119.104 122.736 119.344C124.016 118.864 125.52 118 126.4 117.152L125.344 116.528ZM127.824 117.216C128.816 117.824 130.048 118.736 130.64 119.328L131.6 118.64C130.944 118.032 129.712 117.168 128.736 116.608L127.824 117.216ZM141.76 105.36V106.464H146.208V105.36H141.76ZM141.76 109.04V110.112H146.208V109.04H141.76ZM141.744 112.768V113.856H146.24V112.768H141.744ZM145.664 105.36V117.744C145.664 117.984 145.584 118.064 145.344 118.064C145.104 118.08 144.304 118.08 143.456 118.064C143.616 118.368 143.792 118.896 143.824 119.232C145.008 119.232 145.76 119.2 146.208 119.008C146.672 118.816 146.832 118.448 146.832 117.76V105.36H145.664ZM141.264 105.36V111.168C141.264 113.488 141.152 116.528 139.808 118.672C140.08 118.784 140.56 119.136 140.768 119.36C142.208 117.088 142.4 113.632 142.4 111.168V105.36H141.264ZM132.816 106.704V107.76H140.48V106.704H132.816ZM134.704 109.184V110.16H138.752V109.184H134.704ZM134.704 111.728V112.688H138.768V111.728H134.704ZM132.608 114.304V115.376H140.48V114.304H132.608ZM134.176 104.752V114.736H135.28V104.752H134.176ZM138.192 104.752V114.736H139.296V104.752H138.192ZM134.832 115.728C134.352 116.8 133.52 117.872 132.624 118.592C132.912 118.752 133.376 119.104 133.6 119.296C134.464 118.496 135.392 117.264 135.984 116.048L134.832 115.728ZM137.136 116.224C137.76 116.976 138.48 118.032 138.784 118.672L139.76 118.096C139.44 117.44 138.688 116.448 138.064 115.728L137.136 116.224Z" fill="black"/>
</svg>
