<svg width="320" height="143" viewBox="0 0 320 143" fill="none" xmlns="http://www.w3.org/2000/svg">
<rect x="0.5" y="0.5" width="319" height="142" fill="white" stroke="#EBEBEB"/>
<path d="M74.256 23.864V25.144H85.744V23.864H74.256ZM72.896 33.352V34.696H87.104V33.352H72.896ZM88.768 22.264V23.352H94.08V22.264H88.768ZM90.24 25.608V26.632H93.04V25.608H90.24ZM90.24 28.904V29.928H93.04V28.904H90.24ZM89.568 22.808V33.048H90.56V22.808H89.568ZM92.4 22.792V36.296H93.44V22.792H92.4ZM88.592 32.856L88.832 33.944C90.064 33.72 91.616 33.448 93.168 33.16L93.104 32.152C91.424 32.44 89.76 32.696 88.592 32.856ZM96.992 26.696C97.296 27.56 97.632 28.712 97.792 29.4L98.576 29.128C98.432 28.488 98.08 27.352 97.744 26.52L96.992 26.696ZM94.224 26.04C94.224 25.784 94.864 25.432 94.864 25.432V25.4C95.584 24.616 96.368 23.352 96.976 22.088L96.064 21.688C95.632 22.888 94.816 24.072 94.592 24.376C94.352 24.696 94.144 24.888 93.936 24.936C94.048 25.24 94.192 25.8 94.224 26.04ZM94.224 26.04C94.432 25.944 94.816 25.864 96.72 25.736C96.752 25.544 96.848 25.176 96.944 24.92L94.688 25.032L94.224 25.32V26.04ZM94.112 29.112C94.112 28.856 94.736 28.52 94.736 28.52V28.488C95.888 27.368 97.072 25.704 98.096 24.008L97.248 23.56C96.4 25.16 95.136 26.824 94.752 27.24C94.4 27.672 94.08 27.96 93.824 28.024C93.936 28.328 94.064 28.872 94.112 29.112ZM94.112 29.112C94.352 28.984 94.816 28.888 98.064 28.504C98.016 28.296 97.952 27.944 97.952 27.704L94.56 28.024L94.096 28.36L94.112 29.112ZM101.696 26.536C102.064 27.416 102.496 28.6 102.704 29.288L103.472 28.984C103.264 28.312 102.816 27.16 102.432 26.296L101.696 26.536ZM98.8 25.96C98.8 25.704 99.44 25.368 99.44 25.368V25.336C100.112 24.584 100.848 23.384 101.424 22.168L100.592 21.752C100.16 22.904 99.376 24.088 99.152 24.376C98.944 24.696 98.72 24.872 98.512 24.92C98.64 25.192 98.752 25.736 98.8 25.96ZM98.8 25.96C98.992 25.864 99.36 25.8 101.184 25.656C101.216 25.464 101.312 25.096 101.424 24.856L99.248 24.952L98.8 25.24V25.96ZM98.912 29.032C98.912 28.776 99.616 28.424 99.616 28.424V28.408C100.624 27.304 101.68 25.672 102.544 24.008L101.712 23.544C101.008 25.144 99.84 26.792 99.504 27.192C99.184 27.64 98.896 27.928 98.624 27.976C98.752 28.264 98.864 28.792 98.912 29.032ZM98.912 29.032C99.184 28.888 99.632 28.792 102.864 28.344C102.816 28.168 102.784 27.816 102.768 27.56L99.376 27.96L98.912 28.264V29.032ZM97.056 29.496V31.944C97.056 33.224 96.736 34.6 94.624 35.576C94.816 35.752 95.168 36.168 95.296 36.424C97.616 35.304 98.08 33.512 98.08 31.96V29.496H97.056ZM94.96 31.992V33.048H97.664V31.992H94.96ZM99.168 29.48V36.312H100.224V29.48H99.168ZM94.688 29.496V33.048H95.68V29.496H94.688ZM101.584 29.624V33.624H102.592V29.624H101.584ZM99.76 31.976V33.032H102.112V31.976H99.76ZM107.184 31.16V31.976H116.768V31.16H107.184ZM107.216 29.192V30.056H116.272V33.08H107.216V33.96H117.456V29.192H107.216ZM111.312 29.624V34.44C111.312 35.752 111.824 36.072 113.616 36.072C114.016 36.072 116.912 36.072 117.328 36.072C118.848 36.072 119.216 35.56 119.392 33.624C119.056 33.56 118.608 33.4 118.336 33.208C118.256 34.824 118.112 35.096 117.248 35.096C116.624 35.096 114.16 35.096 113.68 35.096C112.656 35.096 112.464 35 112.464 34.44V29.624H111.312ZM106.592 29.192V34.792H107.744V29.192H106.592ZM105.904 22.2V23.064H118.048V22.2H105.904ZM111.344 22.424V28.584H112.528V22.424H111.344ZM105.2 24.088V27.528H106.352V24.936H117.6V27.528H118.8V24.088H105.2ZM106.64 27.72L107.008 28.648C108.048 28.44 109.264 28.2 110.496 27.944L110.464 27.176C109.04 27.4 107.664 27.608 106.64 27.72ZM107.056 25.896C108.096 26.104 109.44 26.52 110.16 26.824L110.512 26.104C109.792 25.784 108.432 25.432 107.408 25.256L107.056 25.896ZM116.448 25.176C115.664 25.464 114.32 25.944 113.392 26.152L113.824 26.776C114.752 26.584 116.064 26.248 116.976 25.864L116.448 25.176ZM113.2 27.832C114.448 28.008 116.08 28.392 116.96 28.696L117.232 27.88C116.336 27.576 114.72 27.224 113.488 27.096L113.2 27.832ZM120.8 28.68V29.88H135.248V28.68H120.8ZM122.4 22.648V23.832H132.848V22.648H122.4ZM132.464 22.648V22.92C131.424 24.04 129.216 25.544 127.424 26.36C127.664 26.568 128.048 26.952 128.224 27.224C130.144 26.296 132.464 24.728 133.952 23.272L133.056 22.584L132.768 22.648H132.464ZM127.424 26.36V34.696C127.424 34.968 127.328 35.048 126.992 35.064C126.64 35.08 125.456 35.096 124.16 35.048C124.368 35.4 124.592 35.928 124.672 36.28C126.224 36.28 127.248 36.264 127.856 36.056C128.48 35.88 128.672 35.512 128.672 34.712V26.36H127.424ZM144.592 26.376V27.32H147.92V26.376H144.592ZM143.408 31.016V31.88H148.944V31.016H143.408ZM138.208 22.248V23.224H142.688V22.248H138.208ZM142.352 22.248V22.44C141.376 24.616 138.832 26.328 136.432 27.048C136.656 27.256 136.944 27.672 137.088 27.944C139.68 27.048 142.32 25.256 143.52 22.568L142.768 22.2L142.56 22.248H142.352ZM144.88 21.592L143.904 21.896C145.2 24.696 147.648 26.808 150.704 27.752C150.88 27.464 151.184 27.048 151.44 26.808C148.464 26.024 146.032 24.072 144.88 21.592ZM148.144 21.672C147.568 22.328 146.512 23.224 145.776 23.768L146.48 24.328C147.248 23.8 148.256 23.032 149.04 22.296L148.144 21.672ZM150.064 23.288C149.472 23.912 148.384 24.808 147.616 25.336L148.352 25.896C149.136 25.4 150.176 24.632 150.944 23.896L150.064 23.288ZM138.88 26.424V27.384H141.552V30.008H142.64V26.424H138.88ZM138.352 29.064C138.224 30.2 138 31.656 137.792 32.6H138.832C139.008 31.688 139.216 30.248 139.36 29.064H138.352ZM141.552 31.672V31.832C141.392 33.912 141.216 34.76 140.928 35C140.8 35.128 140.64 35.144 140.336 35.144C140.032 35.144 139.168 35.128 138.288 35.048C138.464 35.336 138.608 35.768 138.64 36.088C139.504 36.136 140.352 36.152 140.768 36.12C141.248 36.088 141.552 35.992 141.84 35.72C142.224 35.336 142.416 34.376 142.624 32.152C142.64 31.992 142.656 31.672 142.656 31.672H141.552ZM144.16 26.376V27.624C144.16 28.392 143.952 29.272 142.672 29.96C142.896 30.104 143.28 30.488 143.44 30.712C144.864 29.88 145.2 28.68 145.2 27.64V26.376H144.16ZM148.688 31.016V31.176C147.76 33.464 145.296 34.856 142.656 35.416C142.848 35.64 143.088 36.04 143.2 36.296C146.096 35.576 148.672 34.072 149.776 31.24L149.088 30.968L148.896 31.016H148.688ZM138.816 29.064L138.656 30.008H141.952V29.064H138.816ZM138.336 31.672L138.16 32.6H141.856V31.672H138.336ZM137.776 24.152C138.528 24.616 139.408 25.304 139.824 25.8L140.56 25.064C140.128 24.6 139.216 23.928 138.48 23.496L137.776 24.152ZM147.376 26.376V28.888C147.376 29.864 147.584 30.232 148.544 30.232C148.752 30.232 149.664 30.232 149.888 30.232C150.208 30.232 150.528 30.232 150.704 30.168C150.672 29.928 150.64 29.576 150.64 29.32C150.448 29.368 150.08 29.384 149.856 29.384C149.664 29.384 148.864 29.384 148.672 29.384C148.448 29.384 148.4 29.272 148.4 28.904V26.376H147.376ZM143.408 32.68C145.36 33.784 147.952 35.384 149.248 36.328L149.872 35.544C148.528 34.6 145.92 33.064 144 32.024L143.408 32.68ZM162.32 33.304C163.664 34.056 165.344 35.176 166.144 35.896L167.072 35.192C166.192 34.44 164.496 33.384 163.184 32.68L162.32 33.304ZM154.8 29.176V30.136H165.232V29.176H154.8ZM152.848 31.24V32.232H167.168V31.24H152.848ZM153.024 22.216V23.192H166.864V22.216H153.024ZM156.336 32.632C155.488 33.624 154.064 34.552 152.704 35.16C152.976 35.336 153.44 35.752 153.632 35.96C154.96 35.272 156.48 34.168 157.44 33.016L156.336 32.632ZM155.104 25.352H164.896V27.192H155.104V25.352ZM153.984 24.424V28.136H166.08V24.424H153.984ZM157.536 22.584V27.704H158.656V22.584H157.536ZM161.2 22.584V27.704H162.32V22.584H161.2ZM159.392 31.496V36.312H160.592V31.496H159.392Z" fill="#D60C18"/>
<path d="M221.76 30.632C223.024 32.344 224.576 34.712 225.312 36.184L226.512 35.528C225.744 34.104 224.208 31.832 222.896 30.12L221.76 30.632ZM217.056 22.04C216.064 24.472 214.384 26.84 212.576 28.328C212.896 28.552 213.424 29.048 213.648 29.304C215.44 27.656 217.216 25.08 218.368 22.44L217.056 22.04ZM214.592 35.512C214.592 35.208 215.568 34.808 215.568 34.808V34.776C217.504 32.776 219.44 29.912 221.04 27.048L219.696 26.472C218.352 29.208 216.272 32.088 215.616 32.824C215.008 33.576 214.544 34.104 214.112 34.216C214.288 34.568 214.512 35.24 214.592 35.512ZM214.592 35.512C215.216 35.256 216.128 35.208 225.152 34.6C225.072 34.328 224.944 33.816 224.88 33.464L215.44 34.008L214.56 34.488L214.592 35.512ZM221.824 21.96V22.68H222.144C222.992 25.288 224.64 27.848 226.576 29.304C226.8 28.936 227.232 28.424 227.52 28.184C225.632 26.936 224.016 24.52 223.248 21.96H221.824ZM219.344 21.96V23.192H222.848V21.96H219.344ZM229.408 22.6V23.752H241.472V22.6H229.408ZM229.504 25.432V26.504H239.152V25.432H229.504ZM240.992 22.6V34.488C240.992 34.792 240.896 34.872 240.592 34.888C240.256 34.904 239.168 34.904 238.048 34.872C238.24 35.224 238.416 35.816 238.48 36.184C239.904 36.184 240.912 36.168 241.472 35.96C242.032 35.736 242.192 35.32 242.192 34.488V22.6H240.992ZM230.528 28.232V34.536H231.696V28.232H230.528ZM231.488 28.232V29.304H236.864V32.296H231.488V33.352H238.048V28.232H231.488ZM247.184 31.16V31.976H256.768V31.16H247.184ZM247.216 29.192V30.056H256.272V33.08H247.216V33.96H257.456V29.192H247.216ZM251.312 29.624V34.44C251.312 35.752 251.824 36.072 253.616 36.072C254.016 36.072 256.912 36.072 257.328 36.072C258.848 36.072 259.216 35.56 259.392 33.624C259.056 33.56 258.608 33.4 258.336 33.208C258.256 34.824 258.112 35.096 257.248 35.096C256.624 35.096 254.16 35.096 253.68 35.096C252.656 35.096 252.464 35 252.464 34.44V29.624H251.312ZM246.592 29.192V34.792H247.744V29.192H246.592ZM245.904 22.2V23.064H258.048V22.2H245.904ZM251.344 22.424V28.584H252.528V22.424H251.344ZM245.2 24.088V27.528H246.352V24.936H257.6V27.528H258.8V24.088H245.2ZM246.64 27.72L247.008 28.648C248.048 28.44 249.264 28.2 250.496 27.944L250.464 27.176C249.04 27.4 247.664 27.608 246.64 27.72ZM247.056 25.896C248.096 26.104 249.44 26.52 250.16 26.824L250.512 26.104C249.792 25.784 248.432 25.432 247.408 25.256L247.056 25.896ZM256.448 25.176C255.664 25.464 254.32 25.944 253.392 26.152L253.824 26.776C254.752 26.584 256.064 26.248 256.976 25.864L256.448 25.176ZM253.2 27.832C254.448 28.008 256.08 28.392 256.96 28.696L257.232 27.88C256.336 27.576 254.72 27.224 253.488 27.096L253.2 27.832ZM260.8 28.68V29.88H275.248V28.68H260.8ZM262.4 22.648V23.832H272.848V22.648H262.4ZM272.464 22.648V22.92C271.424 24.04 269.216 25.544 267.424 26.36C267.664 26.568 268.048 26.952 268.224 27.224C270.144 26.296 272.464 24.728 273.952 23.272L273.056 22.584L272.768 22.648H272.464ZM267.424 26.36V34.696C267.424 34.968 267.328 35.048 266.992 35.064C266.64 35.08 265.456 35.096 264.16 35.048C264.368 35.4 264.592 35.928 264.672 36.28C266.224 36.28 267.248 36.264 267.856 36.056C268.48 35.88 268.672 35.512 268.672 34.712V26.36H267.424ZM284.592 26.376V27.32H287.92V26.376H284.592ZM283.408 31.016V31.88H288.944V31.016H283.408ZM278.208 22.248V23.224H282.688V22.248H278.208ZM282.352 22.248V22.44C281.376 24.616 278.832 26.328 276.432 27.048C276.656 27.256 276.944 27.672 277.088 27.944C279.68 27.048 282.32 25.256 283.52 22.568L282.768 22.2L282.56 22.248H282.352ZM284.88 21.592L283.904 21.896C285.2 24.696 287.648 26.808 290.704 27.752C290.88 27.464 291.184 27.048 291.44 26.808C288.464 26.024 286.032 24.072 284.88 21.592ZM288.144 21.672C287.568 22.328 286.512 23.224 285.776 23.768L286.48 24.328C287.248 23.8 288.256 23.032 289.04 22.296L288.144 21.672ZM290.064 23.288C289.472 23.912 288.384 24.808 287.616 25.336L288.352 25.896C289.136 25.4 290.176 24.632 290.944 23.896L290.064 23.288ZM278.88 26.424V27.384H281.552V30.008H282.64V26.424H278.88ZM278.352 29.064C278.224 30.2 278 31.656 277.792 32.6H278.832C279.008 31.688 279.216 30.248 279.36 29.064H278.352ZM281.552 31.672V31.832C281.392 33.912 281.216 34.76 280.928 35C280.8 35.128 280.64 35.144 280.336 35.144C280.032 35.144 279.168 35.128 278.288 35.048C278.464 35.336 278.608 35.768 278.64 36.088C279.504 36.136 280.352 36.152 280.768 36.12C281.248 36.088 281.552 35.992 281.84 35.72C282.224 35.336 282.416 34.376 282.624 32.152C282.64 31.992 282.656 31.672 282.656 31.672H281.552ZM284.16 26.376V27.624C284.16 28.392 283.952 29.272 282.672 29.96C282.896 30.104 283.28 30.488 283.44 30.712C284.864 29.88 285.2 28.68 285.2 27.64V26.376H284.16ZM288.688 31.016V31.176C287.76 33.464 285.296 34.856 282.656 35.416C282.848 35.64 283.088 36.04 283.2 36.296C286.096 35.576 288.672 34.072 289.776 31.24L289.088 30.968L288.896 31.016H288.688ZM278.816 29.064L278.656 30.008H281.952V29.064H278.816ZM278.336 31.672L278.16 32.6H281.856V31.672H278.336ZM277.776 24.152C278.528 24.616 279.408 25.304 279.824 25.8L280.56 25.064C280.128 24.6 279.216 23.928 278.48 23.496L277.776 24.152ZM287.376 26.376V28.888C287.376 29.864 287.584 30.232 288.544 30.232C288.752 30.232 289.664 30.232 289.888 30.232C290.208 30.232 290.528 30.232 290.704 30.168C290.672 29.928 290.64 29.576 290.64 29.32C290.448 29.368 290.08 29.384 289.856 29.384C289.664 29.384 288.864 29.384 288.672 29.384C288.448 29.384 288.4 29.272 288.4 28.904V26.376H287.376ZM283.408 32.68C285.36 33.784 287.952 35.384 289.248 36.328L289.872 35.544C288.528 34.6 285.92 33.064 284 32.024L283.408 32.68ZM302.32 33.304C303.664 34.056 305.344 35.176 306.144 35.896L307.072 35.192C306.192 34.44 304.496 33.384 303.184 32.68L302.32 33.304ZM294.8 29.176V30.136H305.232V29.176H294.8ZM292.848 31.24V32.232H307.168V31.24H292.848ZM293.024 22.216V23.192H306.864V22.216H293.024ZM296.336 32.632C295.488 33.624 294.064 34.552 292.704 35.16C292.976 35.336 293.44 35.752 293.632 35.96C294.96 35.272 296.48 34.168 297.44 33.016L296.336 32.632ZM295.104 25.352H304.896V27.192H295.104V25.352ZM293.984 24.424V28.136H306.08V24.424H293.984ZM297.536 22.584V27.704H298.656V22.584H297.536ZM301.2 22.584V27.704H302.32V22.584H301.2ZM299.392 31.496V36.312H300.592V31.496H299.392Z" fill="black"/>
<line y1="54.5" x2="320" y2="54.5" stroke="#EEEEEE"/>
<rect x="50" y="52" width="140" height="3" fill="#D60C18"/>
<path d="M53.632 85.984H62.304V88.4H53.632V85.984ZM52.608 85.168V89.216H63.392V85.168H52.608ZM55.232 83.488V84.336H60.816V83.488H55.232ZM57.44 85.456V88.8H58.448V85.456H57.44ZM54.608 86.464C55.008 87.04 55.376 87.824 55.504 88.336L56.432 88C56.272 87.488 55.888 86.736 55.472 86.176L54.608 86.464ZM60.368 86.112C60.176 86.656 59.776 87.504 59.472 88.048L60.304 88.336C60.624 87.856 61.04 87.12 61.392 86.432L60.368 86.112ZM53.552 89.984V95.28H54.736V90.832H61.376V95.216H62.592V89.984H53.552ZM54.256 91.904V92.784H61.904V91.904H54.256ZM54.256 93.872V94.736H61.904V93.872H54.256ZM57.872 80.496C56.384 82.448 53.52 83.856 50.592 84.656C50.816 84.864 51.152 85.36 51.28 85.6C54.24 84.64 57.248 83.104 58.944 80.896L57.872 80.496ZM58.576 81.056L57.648 81.456C59.264 83.232 62.176 84.768 64.768 85.472C64.944 85.184 65.28 84.752 65.536 84.544C62.944 83.936 60.048 82.592 58.576 81.056ZM70.224 82.16H77.824V83.808H70.224V82.16ZM69.024 81.184V84.8H79.088V81.184H69.024ZM69.536 88.592H78.496V89.728H69.536V88.592ZM69.536 90.576H78.496V91.728H69.536V90.576ZM69.536 86.624H78.496V87.744H69.536V86.624ZM68.336 85.728V92.608H79.728V85.728H68.336ZM71.392 92.592C70.384 93.248 68.288 94.016 66.608 94.416C66.896 94.656 67.296 95.04 67.504 95.296C69.152 94.88 71.232 94.112 72.512 93.328L71.392 92.592ZM75.296 93.424C76.992 93.92 79.168 94.752 80.352 95.312L81.392 94.448C80.144 93.92 78 93.136 76.336 92.64L75.296 93.424ZM93.68 81.376C94.496 82.032 95.44 82.992 95.872 83.632L96.784 82.976C96.32 82.32 95.36 81.424 94.528 80.768L93.68 81.376ZM82.848 84.112V85.12H97.2V84.112H82.848ZM83.568 81.856V82.816H90.528V81.856H83.568ZM83.296 86.192V87.088H90.816V86.192H83.296ZM83.04 92.768V93.696H90.88V92.768H83.04ZM86.48 80.56V84.96H87.632V80.56H86.48ZM84.576 90.256H89.536V91.168H84.576V90.256ZM84.576 88.672H89.536V89.568H84.576V88.672ZM83.664 87.968V91.872H90.464V87.968H83.664ZM86.56 88.384V91.616H86.496V95.296H87.568V91.616H87.488V88.384H86.56ZM86.48 85.168V88.208H87.584V85.168H86.48ZM91.408 80.592C91.456 88.544 92.48 95.28 95.616 95.28C96.8 95.28 97.216 94.528 97.408 91.984C97.104 91.872 96.688 91.632 96.432 91.376C96.336 93.344 96.16 94.112 95.728 94.112C93.744 94.112 92.544 88.224 92.624 80.592H91.408ZM95.408 86C94.32 89.52 92.272 92.64 89.44 94.4C89.744 94.64 90.112 95.008 90.288 95.296C93.216 93.328 95.296 90.064 96.48 86.336L95.408 86ZM107.68 92.656C109.44 93.488 111.312 94.528 112.416 95.312L113.376 94.4C112.192 93.648 110.24 92.624 108.448 91.808L107.68 92.656ZM98.816 90.656V91.76H113.2V90.656H98.816ZM101.824 83.712V84.624H110.16V83.712H101.824ZM101.824 85.984V86.896H110.16V85.984H101.824ZM101.824 88.288V89.2H110.16V88.288H101.824ZM103.232 91.872C102.24 92.752 100.256 93.808 98.64 94.416C98.912 94.656 99.312 95.056 99.52 95.296C101.136 94.656 103.104 93.6 104.368 92.608L103.232 91.872ZM101.376 81.344V91.184H102.528V82.336H109.616V91.184H110.816V81.344H101.376Z" fill="black"/>
<path d="M52.786 116.64V117.354H61.172V116.64H52.786ZM52.814 114.918V115.674H60.738V118.32H52.814V119.09H61.774V114.918H52.814ZM56.398 115.296V119.51C56.398 120.658 56.846 120.938 58.414 120.938C58.764 120.938 61.298 120.938 61.662 120.938C62.992 120.938 63.314 120.49 63.468 118.796C63.174 118.74 62.782 118.6 62.544 118.432C62.474 119.846 62.348 120.084 61.592 120.084C61.046 120.084 58.89 120.084 58.47 120.084C57.574 120.084 57.406 120 57.406 119.51V115.296H56.398ZM52.268 114.918V119.818H53.276V114.918H52.268ZM51.666 108.8V109.556H62.292V108.8H51.666ZM56.426 108.996V114.386H57.462V108.996H56.426ZM51.05 110.452V113.462H52.058V111.194H61.9V113.462H62.95V110.452H51.05ZM52.31 113.63L52.632 114.442C53.542 114.26 54.606 114.05 55.684 113.826L55.656 113.154C54.41 113.35 53.206 113.532 52.31 113.63ZM52.674 112.034C53.584 112.216 54.76 112.58 55.39 112.846L55.698 112.216C55.068 111.936 53.878 111.628 52.982 111.474L52.674 112.034ZM60.892 111.404C60.206 111.656 59.03 112.076 58.218 112.258L58.596 112.804C59.408 112.636 60.556 112.342 61.354 112.006L60.892 111.404ZM58.05 113.728C59.142 113.882 60.57 114.218 61.34 114.484L61.578 113.77C60.794 113.504 59.38 113.196 58.302 113.084L58.05 113.728ZM64.7 114.47V115.52H77.342V114.47H64.7ZM66.1 109.192V110.228H75.242V109.192H66.1ZM74.906 109.192V109.43C73.996 110.41 72.064 111.726 70.496 112.44C70.706 112.622 71.042 112.958 71.196 113.196C72.876 112.384 74.906 111.012 76.208 109.738L75.424 109.136L75.172 109.192H74.906ZM70.496 112.44V119.734C70.496 119.972 70.412 120.042 70.118 120.056C69.81 120.07 68.774 120.084 67.64 120.042C67.822 120.35 68.018 120.812 68.088 121.12C69.446 121.12 70.342 121.106 70.874 120.924C71.42 120.77 71.588 120.448 71.588 119.748V112.44H70.496ZM85.518 112.454V113.28H88.43V112.454H85.518ZM84.482 116.514V117.27H89.326V116.514H84.482ZM79.932 108.842V109.696H83.852V108.842H79.932ZM83.558 108.842V109.01C82.704 110.914 80.478 112.412 78.378 113.042C78.574 113.224 78.826 113.588 78.952 113.826C81.22 113.042 83.53 111.474 84.58 109.122L83.922 108.8L83.74 108.842H83.558ZM85.77 108.268L84.916 108.534C86.05 110.984 88.192 112.832 90.866 113.658C91.02 113.406 91.286 113.042 91.51 112.832C88.906 112.146 86.778 110.438 85.77 108.268ZM88.626 108.338C88.122 108.912 87.198 109.696 86.554 110.172L87.17 110.662C87.842 110.2 88.724 109.528 89.41 108.884L88.626 108.338ZM90.306 109.752C89.788 110.298 88.836 111.082 88.164 111.544L88.808 112.034C89.494 111.6 90.404 110.928 91.076 110.284L90.306 109.752ZM80.52 112.496V113.336H82.858V115.632H83.81V112.496H80.52ZM80.058 114.806C79.946 115.8 79.75 117.074 79.568 117.9H80.478C80.632 117.102 80.814 115.842 80.94 114.806H80.058ZM82.858 117.088V117.228C82.718 119.048 82.564 119.79 82.312 120C82.2 120.112 82.06 120.126 81.794 120.126C81.528 120.126 80.772 120.112 80.002 120.042C80.156 120.294 80.282 120.672 80.31 120.952C81.066 120.994 81.808 121.008 82.172 120.98C82.592 120.952 82.858 120.868 83.11 120.63C83.446 120.294 83.614 119.454 83.796 117.508C83.81 117.368 83.824 117.088 83.824 117.088H82.858ZM85.14 112.454V113.546C85.14 114.218 84.958 114.988 83.838 115.59C84.034 115.716 84.37 116.052 84.51 116.248C85.756 115.52 86.05 114.47 86.05 113.56V112.454H85.14ZM89.102 116.514V116.654C88.29 118.656 86.134 119.874 83.824 120.364C83.992 120.56 84.202 120.91 84.3 121.134C86.834 120.504 89.088 119.188 90.054 116.71L89.452 116.472L89.284 116.514H89.102ZM80.464 114.806L80.324 115.632H83.208V114.806H80.464ZM80.044 117.088L79.89 117.9H83.124V117.088H80.044ZM79.554 110.508C80.212 110.914 80.982 111.516 81.346 111.95L81.99 111.306C81.612 110.9 80.814 110.312 80.17 109.934L79.554 110.508ZM87.954 112.454V114.652C87.954 115.506 88.136 115.828 88.976 115.828C89.158 115.828 89.956 115.828 90.152 115.828C90.432 115.828 90.712 115.828 90.866 115.772C90.838 115.562 90.81 115.254 90.81 115.03C90.642 115.072 90.32 115.086 90.124 115.086C89.956 115.086 89.256 115.086 89.088 115.086C88.892 115.086 88.85 114.988 88.85 114.666V112.454H87.954ZM84.482 117.97C86.19 118.936 88.458 120.336 89.592 121.162L90.138 120.476C88.962 119.65 86.68 118.306 85 117.396L84.482 117.97ZM101.03 118.516C102.206 119.174 103.676 120.154 104.376 120.784L105.188 120.168C104.418 119.51 102.934 118.586 101.786 117.97L101.03 118.516ZM94.45 114.904V115.744H103.578V114.904H94.45ZM92.742 116.71V117.578H105.272V116.71H92.742ZM92.896 108.814V109.668H105.006V108.814H92.896ZM95.794 117.928C95.052 118.796 93.806 119.608 92.616 120.14C92.854 120.294 93.26 120.658 93.428 120.84C94.59 120.238 95.92 119.272 96.76 118.264L95.794 117.928ZM94.716 111.558H103.284V113.168H94.716V111.558ZM93.736 110.746V113.994H104.32V110.746H93.736ZM96.844 109.136V113.616H97.824V109.136H96.844ZM100.05 109.136V113.616H101.03V109.136H100.05ZM98.468 116.934V121.148H99.518V116.934H98.468ZM110.13 119.482V120.434H117.354V119.482H110.13ZM111.95 111.39C110.97 114.512 109.108 116.864 106.434 118.264C106.672 118.46 107.078 118.88 107.232 119.09C109.92 117.536 111.88 115.03 113.014 111.642L111.95 111.39ZM109.64 115.898V121.12H110.69V116.85H117.032V121.092H118.124V115.898H109.64ZM106.756 113.028V114.008H119.258V113.028H106.756ZM106.84 109.514V110.466H112.692V109.514H106.84ZM109.346 108.24V111.88H110.396V108.24H109.346ZM115.52 108.24V111.894H116.57V108.24H115.52ZM113.28 109.514V110.466H119.244V109.514H113.28ZM121.344 110.746V117.41H122.394V111.782H131.536V117.34H132.628V110.746H121.344ZM121.904 115.506V116.528H132.166V115.506H121.904ZM126.412 108.24V121.106H127.504V108.24H126.412ZM134.63 117.2V118.096H147.412V117.2H134.63ZM143.17 116.29C143.646 116.626 144.248 117.116 144.542 117.438L145.074 116.892C144.78 116.584 144.164 116.122 143.688 115.814L143.17 116.29ZM139.306 112.748V113.504H147.174V112.748H139.306ZM144.402 111.712V114.904C144.402 115.044 144.346 115.086 144.178 115.1C143.996 115.114 143.45 115.114 142.792 115.086C142.918 115.338 143.058 115.646 143.1 115.898C143.982 115.898 144.556 115.912 144.934 115.772C145.298 115.632 145.396 115.408 145.396 114.932V111.712H144.402ZM134.7 112.552V113.42H138.396V112.552H134.7ZM137.78 108.282V116.206H138.76V108.282H137.78ZM135.358 108.576V111.474H138.34V110.62H136.254V108.576H135.358ZM140.384 113.966C140.958 114.33 141.616 114.904 141.924 115.31L142.61 114.736C142.288 114.344 141.602 113.798 141.028 113.448L140.384 113.966ZM141.602 109.668C142.302 110.172 143.072 110.914 143.408 111.432L144.15 111.152C143.758 110.62 142.974 109.878 142.288 109.402L141.602 109.668ZM145.788 108.968V109.108C144.71 110.886 141.952 111.754 139.236 112.062C139.39 112.244 139.572 112.524 139.67 112.72C142.596 112.328 145.452 111.39 146.712 109.234L146.152 108.926L145.97 108.968H145.788ZM143.156 108.212C142.4 108.842 141.07 109.472 139.362 109.906C139.544 110.046 139.81 110.326 139.922 110.508C141.756 109.962 143.114 109.276 144.08 108.408L143.156 108.212ZM142.596 108.968L141.77 109.626H146.054V108.968H142.596ZM135.708 112.874V113.532C135.708 114.134 135.54 115.184 134.644 115.87C134.882 115.968 135.274 116.178 135.456 116.346C136.436 115.562 136.646 114.288 136.646 113.56V112.874H135.708ZM140.412 115.8V116.668C140.412 117.76 139.768 119.44 134.518 120.308C134.742 120.546 134.994 120.924 135.12 121.162C140.748 120.21 141.448 118.166 141.448 116.696V115.8H140.412ZM141.392 118.726C143.226 119.426 145.704 120.476 146.95 121.106L147.468 120.28C146.152 119.65 143.66 118.67 141.882 118.012L141.392 118.726ZM139.642 110.774L139.754 111.404C140.468 111.348 141.252 111.292 142.092 111.222V110.634C141.154 110.69 140.328 110.746 139.642 110.774ZM153.236 115.436V116.374H161.398V115.436H153.236ZM156.428 109.43L155.952 110.2H160.054L160.306 109.43H156.428ZM158.57 113.462V119.748C158.57 119.93 158.514 119.986 158.29 119.986C158.052 120 157.296 120.014 156.47 119.986C156.61 120.28 156.75 120.7 156.792 120.994C157.912 120.994 158.612 120.98 159.018 120.812C159.452 120.644 159.578 120.336 159.578 119.748V113.462H158.57ZM157.058 108.226C156.246 109.374 154.692 110.55 153.012 111.222C153.208 111.39 153.516 111.698 153.67 111.88C155.392 111.096 157.072 109.864 158.08 108.534L157.058 108.226ZM154.258 117.186C154.958 117.886 155.742 118.866 156.078 119.51L156.932 118.964C156.582 118.334 155.77 117.396 155.07 116.724L154.258 117.186ZM155.49 110.494C156.344 111.18 157.268 112.16 157.674 112.832L158.388 112.314C157.954 111.628 157.002 110.676 156.162 110.032L155.49 110.494ZM149.596 112.286V113.21H152.284V112.286H149.596ZM148.56 115.282V116.206H152.242V115.282H148.56ZM151.794 108.254V121.12H152.774V108.254H151.794ZM149.162 108.8V113.21H150.1V108.8H149.162ZM149.33 115.632V116.514C149.33 117.606 149.204 119.356 148.434 120.644C148.686 120.742 149.064 120.98 149.246 121.148C150.114 119.748 150.254 117.76 150.254 116.542V115.632H149.33ZM159.928 109.43V109.612C158.878 112.202 156.036 113.896 153.278 114.54C153.46 114.75 153.698 115.1 153.796 115.338C156.764 114.512 159.704 112.762 160.95 109.71L160.306 109.388L160.124 109.43H159.928ZM153.306 112.426L153.474 113.21C154.328 113.098 155.308 112.958 156.33 112.804L156.274 112.062C155.14 112.216 154.09 112.356 153.306 112.426ZM163.022 109.374V111.852H164.002V110.284H173.956V111.852H174.964V109.374H163.022ZM164.548 111.418V112.272H173.438V111.418H164.548ZM168.594 110.634C168.342 112.678 167.516 113.63 164.044 114.092C164.212 114.288 164.436 114.652 164.52 114.89C168.286 114.316 169.28 113.112 169.588 110.634H168.594ZM168.132 113.07C169.798 113.518 171.912 114.288 172.99 114.904L173.522 114.148C172.402 113.546 170.274 112.804 168.65 112.412L168.132 113.07ZM162.798 114.778V115.716H175.202V114.778H162.798ZM172.178 115.38V119.916C172.178 120.112 172.108 120.154 171.884 120.182C171.646 120.182 170.876 120.182 170.022 120.154C170.148 120.448 170.302 120.84 170.358 121.12C171.45 121.12 172.192 121.12 172.626 120.966C173.074 120.812 173.2 120.532 173.2 119.944V115.38H172.178ZM164.492 116.584V120.392H165.472V116.584H164.492ZM165.136 116.584V117.41H169.182V118.852H165.136V119.678H170.176V116.584H165.136ZM168.244 108.394C168.454 108.856 168.664 109.472 168.706 109.878L169.784 109.626C169.714 109.22 169.518 108.604 169.266 108.17L168.244 108.394ZM180.634 113.868V114.848H189.174V113.868H180.634ZM181.068 110.872V111.838H188.824V110.872H181.068ZM184.302 111.348V113.266C184.302 114.778 184.078 116.962 180.494 118.488C180.746 118.684 181.068 119.02 181.208 119.244C184.918 117.508 185.338 115.058 185.338 113.28V111.348H184.302ZM186.878 108.24C186.542 109.108 185.926 110.354 185.436 111.11L186.276 111.418C186.794 110.69 187.424 109.556 187.942 108.59L186.878 108.24ZM181.782 108.604C182.216 109.304 182.748 110.256 183.014 110.816L183.938 110.41C183.672 109.864 183.098 108.954 182.664 108.282L181.782 108.604ZM184.134 115.604C185.576 116.724 187.48 118.306 188.404 119.244L189.16 118.502C188.18 117.578 186.248 116.052 184.848 114.974L184.134 115.604ZM177.162 108.702C177.736 109.402 178.464 110.382 178.8 110.97L179.64 110.424C179.29 109.85 178.562 108.94 177.96 108.254L177.162 108.702ZM176.644 111.474V112.356H179.668V111.474H176.644ZM179.136 117.9L178.436 118.222C179.5 120.532 181.334 120.896 184.624 120.896C186.164 120.896 187.928 120.868 189.258 120.784C189.314 120.504 189.44 120.028 189.594 119.804C188.152 119.93 186.108 119.986 184.624 119.986C181.824 119.986 180.004 119.734 179.136 117.9ZM179.136 114.974V115.156C178.786 117.676 177.806 119.468 176.42 120.42C176.63 120.574 176.98 120.938 177.12 121.148C178.576 120.07 179.654 118.082 180.102 115.142L179.626 114.946L179.444 114.974H179.136ZM176.854 116.024C176.952 115.912 177.316 115.828 177.68 115.828H179.57V114.974H177.358L176.854 115.226V116.024ZM176.854 116.024C176.854 115.758 177.638 115.366 177.638 115.366C178.436 114.47 179.696 112.678 180.354 111.726L179.654 111.404L179.346 111.544V111.586C178.884 112.328 177.554 114.232 177.134 114.652C176.896 114.932 176.672 115.016 176.462 115.072C176.574 115.296 176.784 115.786 176.854 116.024ZM191.064 109.024V110.018H202.824V109.024H191.064ZM191.988 116.01V117.004H202.096V116.01H191.988ZM190.756 119.594V120.574H203.272V119.594H190.756ZM196.426 114.204V120.238H197.518V114.204H196.426ZM198.302 111.18C199.59 112.16 201.13 113.588 201.83 114.526L202.74 113.882C201.97 112.93 200.402 111.572 199.128 110.62L198.302 111.18ZM192.044 114.092C192.044 113.854 192.856 113.532 192.856 113.532V113.518C194.032 112.566 195.306 111.166 196.454 109.64L195.292 109.304C194.382 110.69 193.08 112.034 192.674 112.398C192.296 112.762 191.974 113 191.694 113.042C191.806 113.322 191.988 113.854 192.044 114.092ZM192.044 114.092C192.562 113.91 193.346 113.882 201.27 113.504C201.214 113.294 201.116 112.888 201.088 112.608L192.786 112.944L192.03 113.322L192.044 114.092ZM211.686 110.97V111.964H217.37V110.97H211.686ZM212.078 108.24C211.672 110.69 210.93 112.972 209.726 114.4C209.95 114.596 210.328 115.058 210.482 115.282C211.798 113.63 212.666 111.138 213.142 108.422L212.078 108.24ZM215.354 111.474C214.696 115.842 213.226 118.698 209.964 120.28C210.188 120.49 210.51 120.924 210.636 121.148C214.024 119.314 215.606 116.304 216.39 111.614L215.354 111.474ZM212.078 111.852L211.21 112.048C212.148 116.094 213.87 119.482 216.754 121.064C216.922 120.798 217.258 120.42 217.496 120.21C214.682 118.824 212.932 115.576 212.078 111.852ZM208.522 108.45V121.134H209.572V108.45H208.522ZM205.288 118.6C205.582 118.376 206.03 118.138 209.264 116.99C209.18 116.766 209.054 116.36 209.012 116.08L205.652 117.172L205.176 117.606L205.288 118.6ZM205.288 118.6C205.288 118.222 206.366 117.634 206.366 117.634V109.808H205.344V116.696C205.344 117.242 205.05 117.522 204.854 117.648C205.008 117.872 205.204 118.348 205.288 118.6ZM226.456 108.422V121.12H227.506V108.422H226.456ZM224.034 108.954C223.712 110.774 223.124 112.58 222.312 113.756C222.578 113.868 223.012 114.12 223.222 114.274C224.02 113.028 224.664 111.11 225.042 109.15L224.034 108.954ZM224.174 111.11L223.908 112.146H230.712V111.11H224.174ZM222.424 115.226V116.262H231.328V115.226H222.424ZM221.738 108.296C220.996 110.424 219.75 112.524 218.434 113.882C218.63 114.134 218.938 114.68 219.036 114.918C220.492 113.336 221.85 110.97 222.732 108.604L221.738 108.296ZM220.324 111.908V121.106H221.332V110.928L221.318 110.914L220.324 111.908ZM232.728 111.614V112.608H236.928V111.614H232.728ZM234.408 108.408V117.494H235.402V108.408H234.408ZM232.462 117.732L232.882 118.782C234.114 118.236 235.682 117.522 237.166 116.836L236.942 115.898C235.29 116.598 233.582 117.312 232.462 117.732ZM240.89 108.24V117.998H241.884V108.24H240.89ZM236.48 114.022L236.886 114.946L244.418 111.74L244.026 110.844L236.48 114.022ZM237.992 109.556V118.908C237.992 120.434 238.468 120.812 240.078 120.812C240.428 120.812 243.144 120.812 243.522 120.812C244.992 120.812 245.328 120.196 245.496 118.264C245.202 118.208 244.796 118.04 244.544 117.872C244.446 119.482 244.306 119.86 243.48 119.86C242.92 119.86 240.568 119.86 240.106 119.86C239.168 119.86 239 119.692 239 118.922V109.556H237.992ZM243.746 111.18C243.662 113.126 243.452 115.702 243.172 117.2L244.04 117.452C244.404 115.856 244.642 113.266 244.768 111.278L244.824 111.096L244.026 110.844L243.592 111.18H243.746ZM255.534 113.098V114.106H259.258V113.098H255.534ZM250.354 119.622V120.616H259.468V119.622H250.354ZM255.17 108.338V120.126H256.234V108.338H255.17ZM252.076 111.306V120.07H253.098V111.306H252.076ZM246.616 111.614V112.608H251.362V111.614H246.616ZM248.534 108.422V117.382H249.528V108.422H248.534ZM246.476 117.732L246.868 118.768C248.17 118.236 249.906 117.508 251.502 116.808L251.306 115.884C249.542 116.57 247.694 117.312 246.476 117.732Z" fill="#939EA7"/>
<rect x="284" y="1" width="35" height="53" fill="white"/>
<g clip-path="url(#clip0_44_131)">
<path d="M298.708 34.8682C298.532 35.0439 298.268 35.0439 298.093 34.8682C298.005 34.8097 297.976 34.6926 297.976 34.6047C297.976 34.4876 298.005 34.3998 298.093 34.312L304.007 28.4854L298.093 22.7173C298.034 22.6295 297.976 22.5417 297.976 22.4246C297.976 22.3074 298.005 22.2196 298.093 22.1318C298.268 21.9561 298.532 21.9561 298.708 22.1318L304.915 28.2218C305.061 28.3682 305.061 28.6318 304.915 28.7782L298.708 34.8683V34.8682Z" fill="black"/>
</g>
<circle cx="30" cy="87" r="9.5" stroke="#48545D"/>
<defs>
<clipPath id="clip0_44_131">
<rect width="13" height="13" fill="white" transform="translate(295 22)"/>
</clipPath>
</defs>
</svg>
