<svg width="407" height="445" viewBox="0 0 407 445" fill="none" xmlns="http://www.w3.org/2000/svg">
<rect x="47.5" y="272.5" width="319" height="142" fill="white" stroke="#EBEBEB"/>
<path d="M121.256 295.864V297.144H132.744V295.864H121.256ZM119.896 305.352V306.696H134.104V305.352H119.896ZM135.768 294.264V295.352H141.08V294.264H135.768ZM137.24 297.608V298.632H140.04V297.608H137.24ZM137.24 300.904V301.928H140.04V300.904H137.24ZM136.568 294.808V305.048H137.56V294.808H136.568ZM139.4 294.792V308.296H140.44V294.792H139.4ZM135.592 304.856L135.832 305.944C137.064 305.72 138.616 305.448 140.168 305.16L140.104 304.152C138.424 304.44 136.76 304.696 135.592 304.856ZM143.992 298.696C144.296 299.56 144.632 300.712 144.792 301.4L145.576 301.128C145.432 300.488 145.08 299.352 144.744 298.52L143.992 298.696ZM141.224 298.04C141.224 297.784 141.864 297.432 141.864 297.432V297.4C142.584 296.616 143.368 295.352 143.976 294.088L143.064 293.688C142.632 294.888 141.816 296.072 141.592 296.376C141.352 296.696 141.144 296.888 140.936 296.936C141.048 297.24 141.192 297.8 141.224 298.04ZM141.224 298.04C141.432 297.944 141.816 297.864 143.72 297.736C143.752 297.544 143.848 297.176 143.944 296.92L141.688 297.032L141.224 297.32V298.04ZM141.112 301.112C141.112 300.856 141.736 300.52 141.736 300.52V300.488C142.888 299.368 144.072 297.704 145.096 296.008L144.248 295.56C143.4 297.16 142.136 298.824 141.752 299.24C141.4 299.672 141.08 299.96 140.824 300.024C140.936 300.328 141.064 300.872 141.112 301.112ZM141.112 301.112C141.352 300.984 141.816 300.888 145.064 300.504C145.016 300.296 144.952 299.944 144.952 299.704L141.56 300.024L141.096 300.36L141.112 301.112ZM148.696 298.536C149.064 299.416 149.496 300.6 149.704 301.288L150.472 300.984C150.264 300.312 149.816 299.16 149.432 298.296L148.696 298.536ZM145.8 297.96C145.8 297.704 146.44 297.368 146.44 297.368V297.336C147.112 296.584 147.848 295.384 148.424 294.168L147.592 293.752C147.16 294.904 146.376 296.088 146.152 296.376C145.944 296.696 145.72 296.872 145.512 296.92C145.64 297.192 145.752 297.736 145.8 297.96ZM145.8 297.96C145.992 297.864 146.36 297.8 148.184 297.656C148.216 297.464 148.312 297.096 148.424 296.856L146.248 296.952L145.8 297.24V297.96ZM145.912 301.032C145.912 300.776 146.616 300.424 146.616 300.424V300.408C147.624 299.304 148.68 297.672 149.544 296.008L148.712 295.544C148.008 297.144 146.84 298.792 146.504 299.192C146.184 299.64 145.896 299.928 145.624 299.976C145.752 300.264 145.864 300.792 145.912 301.032ZM145.912 301.032C146.184 300.888 146.632 300.792 149.864 300.344C149.816 300.168 149.784 299.816 149.768 299.56L146.376 299.96L145.912 300.264V301.032ZM144.056 301.496V303.944C144.056 305.224 143.736 306.6 141.624 307.576C141.816 307.752 142.168 308.168 142.296 308.424C144.616 307.304 145.08 305.512 145.08 303.96V301.496H144.056ZM141.96 303.992V305.048H144.664V303.992H141.96ZM146.168 301.48V308.312H147.224V301.48H146.168ZM141.688 301.496V305.048H142.68V301.496H141.688ZM148.584 301.624V305.624H149.592V301.624H148.584ZM146.76 303.976V305.032H149.112V303.976H146.76ZM154.184 303.16V303.976H163.768V303.16H154.184ZM154.216 301.192V302.056H163.272V305.08H154.216V305.96H164.456V301.192H154.216ZM158.312 301.624V306.44C158.312 307.752 158.824 308.072 160.616 308.072C161.016 308.072 163.912 308.072 164.328 308.072C165.848 308.072 166.216 307.56 166.392 305.624C166.056 305.56 165.608 305.4 165.336 305.208C165.256 306.824 165.112 307.096 164.248 307.096C163.624 307.096 161.16 307.096 160.68 307.096C159.656 307.096 159.464 307 159.464 306.44V301.624H158.312ZM153.592 301.192V306.792H154.744V301.192H153.592ZM152.904 294.2V295.064H165.048V294.2H152.904ZM158.344 294.424V300.584H159.528V294.424H158.344ZM152.2 296.088V299.528H153.352V296.936H164.6V299.528H165.8V296.088H152.2ZM153.64 299.72L154.008 300.648C155.048 300.44 156.264 300.2 157.496 299.944L157.464 299.176C156.04 299.4 154.664 299.608 153.64 299.72ZM154.056 297.896C155.096 298.104 156.44 298.52 157.16 298.824L157.512 298.104C156.792 297.784 155.432 297.432 154.408 297.256L154.056 297.896ZM163.448 297.176C162.664 297.464 161.32 297.944 160.392 298.152L160.824 298.776C161.752 298.584 163.064 298.248 163.976 297.864L163.448 297.176ZM160.2 299.832C161.448 300.008 163.08 300.392 163.96 300.696L164.232 299.88C163.336 299.576 161.72 299.224 160.488 299.096L160.2 299.832ZM167.8 300.68V301.88H182.248V300.68H167.8ZM169.4 294.648V295.832H179.848V294.648H169.4ZM179.464 294.648V294.92C178.424 296.04 176.216 297.544 174.424 298.36C174.664 298.568 175.048 298.952 175.224 299.224C177.144 298.296 179.464 296.728 180.952 295.272L180.056 294.584L179.768 294.648H179.464ZM174.424 298.36V306.696C174.424 306.968 174.328 307.048 173.992 307.064C173.64 307.08 172.456 307.096 171.16 307.048C171.368 307.4 171.592 307.928 171.672 308.28C173.224 308.28 174.248 308.264 174.856 308.056C175.48 307.88 175.672 307.512 175.672 306.712V298.36H174.424ZM191.592 298.376V299.32H194.92V298.376H191.592ZM190.408 303.016V303.88H195.944V303.016H190.408ZM185.208 294.248V295.224H189.688V294.248H185.208ZM189.352 294.248V294.44C188.376 296.616 185.832 298.328 183.432 299.048C183.656 299.256 183.944 299.672 184.088 299.944C186.68 299.048 189.32 297.256 190.52 294.568L189.768 294.2L189.56 294.248H189.352ZM191.88 293.592L190.904 293.896C192.2 296.696 194.648 298.808 197.704 299.752C197.88 299.464 198.184 299.048 198.44 298.808C195.464 298.024 193.032 296.072 191.88 293.592ZM195.144 293.672C194.568 294.328 193.512 295.224 192.776 295.768L193.48 296.328C194.248 295.8 195.256 295.032 196.04 294.296L195.144 293.672ZM197.064 295.288C196.472 295.912 195.384 296.808 194.616 297.336L195.352 297.896C196.136 297.4 197.176 296.632 197.944 295.896L197.064 295.288ZM185.88 298.424V299.384H188.552V302.008H189.64V298.424H185.88ZM185.352 301.064C185.224 302.2 185 303.656 184.792 304.6H185.832C186.008 303.688 186.216 302.248 186.36 301.064H185.352ZM188.552 303.672V303.832C188.392 305.912 188.216 306.76 187.928 307C187.8 307.128 187.64 307.144 187.336 307.144C187.032 307.144 186.168 307.128 185.288 307.048C185.464 307.336 185.608 307.768 185.64 308.088C186.504 308.136 187.352 308.152 187.768 308.12C188.248 308.088 188.552 307.992 188.84 307.72C189.224 307.336 189.416 306.376 189.624 304.152C189.64 303.992 189.656 303.672 189.656 303.672H188.552ZM191.16 298.376V299.624C191.16 300.392 190.952 301.272 189.672 301.96C189.896 302.104 190.28 302.488 190.44 302.712C191.864 301.88 192.2 300.68 192.2 299.64V298.376H191.16ZM195.688 303.016V303.176C194.76 305.464 192.296 306.856 189.656 307.416C189.848 307.64 190.088 308.04 190.2 308.296C193.096 307.576 195.672 306.072 196.776 303.24L196.088 302.968L195.896 303.016H195.688ZM185.816 301.064L185.656 302.008H188.952V301.064H185.816ZM185.336 303.672L185.16 304.6H188.856V303.672H185.336ZM184.776 296.152C185.528 296.616 186.408 297.304 186.824 297.8L187.56 297.064C187.128 296.6 186.216 295.928 185.48 295.496L184.776 296.152ZM194.376 298.376V300.888C194.376 301.864 194.584 302.232 195.544 302.232C195.752 302.232 196.664 302.232 196.888 302.232C197.208 302.232 197.528 302.232 197.704 302.168C197.672 301.928 197.64 301.576 197.64 301.32C197.448 301.368 197.08 301.384 196.856 301.384C196.664 301.384 195.864 301.384 195.672 301.384C195.448 301.384 195.4 301.272 195.4 300.904V298.376H194.376ZM190.408 304.68C192.36 305.784 194.952 307.384 196.248 308.328L196.872 307.544C195.528 306.6 192.92 305.064 191 304.024L190.408 304.68ZM209.32 305.304C210.664 306.056 212.344 307.176 213.144 307.896L214.072 307.192C213.192 306.44 211.496 305.384 210.184 304.68L209.32 305.304ZM201.8 301.176V302.136H212.232V301.176H201.8ZM199.848 303.24V304.232H214.168V303.24H199.848ZM200.024 294.216V295.192H213.864V294.216H200.024ZM203.336 304.632C202.488 305.624 201.064 306.552 199.704 307.16C199.976 307.336 200.44 307.752 200.632 307.96C201.96 307.272 203.48 306.168 204.44 305.016L203.336 304.632ZM202.104 297.352H211.896V299.192H202.104V297.352ZM200.984 296.424V300.136H213.08V296.424H200.984ZM204.536 294.584V299.704H205.656V294.584H204.536ZM208.2 294.584V299.704H209.32V294.584H208.2ZM206.392 303.496V308.312H207.592V303.496H206.392Z" fill="#D60C18"/>
<path d="M100.632 357.984H109.304V360.4H100.632V357.984ZM99.608 357.168V361.216H110.392V357.168H99.608ZM102.232 355.488V356.336H107.816V355.488H102.232ZM104.44 357.456V360.8H105.448V357.456H104.44ZM101.608 358.464C102.008 359.04 102.376 359.824 102.504 360.336L103.432 360C103.272 359.488 102.888 358.736 102.472 358.176L101.608 358.464ZM107.368 358.112C107.176 358.656 106.776 359.504 106.472 360.048L107.304 360.336C107.624 359.856 108.04 359.12 108.392 358.432L107.368 358.112ZM100.552 361.984V367.28H101.736V362.832H108.376V367.216H109.592V361.984H100.552ZM101.256 363.904V364.784H108.904V363.904H101.256ZM101.256 365.872V366.736H108.904V365.872H101.256ZM104.872 352.496C103.384 354.448 100.52 355.856 97.592 356.656C97.816 356.864 98.152 357.36 98.28 357.6C101.24 356.64 104.248 355.104 105.944 352.896L104.872 352.496ZM105.576 353.056L104.648 353.456C106.264 355.232 109.176 356.768 111.768 357.472C111.944 357.184 112.28 356.752 112.536 356.544C109.944 355.936 107.048 354.592 105.576 353.056ZM117.224 354.16H124.824V355.808H117.224V354.16ZM116.024 353.184V356.8H126.088V353.184H116.024ZM116.536 360.592H125.496V361.728H116.536V360.592ZM116.536 362.576H125.496V363.728H116.536V362.576ZM116.536 358.624H125.496V359.744H116.536V358.624ZM115.336 357.728V364.608H126.728V357.728H115.336ZM118.392 364.592C117.384 365.248 115.288 366.016 113.608 366.416C113.896 366.656 114.296 367.04 114.504 367.296C116.152 366.88 118.232 366.112 119.512 365.328L118.392 364.592ZM122.296 365.424C123.992 365.92 126.168 366.752 127.352 367.312L128.392 366.448C127.144 365.92 125 365.136 123.336 364.64L122.296 365.424ZM140.68 353.376C141.496 354.032 142.44 354.992 142.872 355.632L143.784 354.976C143.32 354.32 142.36 353.424 141.528 352.768L140.68 353.376ZM129.848 356.112V357.12H144.2V356.112H129.848ZM130.568 353.856V354.816H137.528V353.856H130.568ZM130.296 358.192V359.088H137.816V358.192H130.296ZM130.04 364.768V365.696H137.88V364.768H130.04ZM133.48 352.56V356.96H134.632V352.56H133.48ZM131.576 362.256H136.536V363.168H131.576V362.256ZM131.576 360.672H136.536V361.568H131.576V360.672ZM130.664 359.968V363.872H137.464V359.968H130.664ZM133.56 360.384V363.616H133.496V367.296H134.568V363.616H134.488V360.384H133.56ZM133.48 357.168V360.208H134.584V357.168H133.48ZM138.408 352.592C138.456 360.544 139.48 367.28 142.616 367.28C143.8 367.28 144.216 366.528 144.408 363.984C144.104 363.872 143.688 363.632 143.432 363.376C143.336 365.344 143.16 366.112 142.728 366.112C140.744 366.112 139.544 360.224 139.624 352.592H138.408ZM142.408 358C141.32 361.52 139.272 364.64 136.44 366.4C136.744 366.64 137.112 367.008 137.288 367.296C140.216 365.328 142.296 362.064 143.48 358.336L142.408 358ZM154.68 364.656C156.44 365.488 158.312 366.528 159.416 367.312L160.376 366.4C159.192 365.648 157.24 364.624 155.448 363.808L154.68 364.656ZM145.816 362.656V363.76H160.2V362.656H145.816ZM148.824 355.712V356.624H157.16V355.712H148.824ZM148.824 357.984V358.896H157.16V357.984H148.824ZM148.824 360.288V361.2H157.16V360.288H148.824ZM150.232 363.872C149.24 364.752 147.256 365.808 145.64 366.416C145.912 366.656 146.312 367.056 146.52 367.296C148.136 366.656 150.104 365.6 151.368 364.608L150.232 363.872ZM148.376 353.344V363.184H149.528V354.336H156.616V363.184H157.816V353.344H148.376Z" fill="black"/>
<path d="M99.786 388.64V389.354H108.172V388.64H99.786ZM99.814 386.918V387.674H107.738V390.32H99.814V391.09H108.774V386.918H99.814ZM103.398 387.296V391.51C103.398 392.658 103.846 392.938 105.414 392.938C105.764 392.938 108.298 392.938 108.662 392.938C109.992 392.938 110.314 392.49 110.468 390.796C110.174 390.74 109.782 390.6 109.544 390.432C109.474 391.846 109.348 392.084 108.592 392.084C108.046 392.084 105.89 392.084 105.47 392.084C104.574 392.084 104.406 392 104.406 391.51V387.296H103.398ZM99.268 386.918V391.818H100.276V386.918H99.268ZM98.666 380.8V381.556H109.292V380.8H98.666ZM103.426 380.996V386.386H104.462V380.996H103.426ZM98.05 382.452V385.462H99.058V383.194H108.9V385.462H109.95V382.452H98.05ZM99.31 385.63L99.632 386.442C100.542 386.26 101.606 386.05 102.684 385.826L102.656 385.154C101.41 385.35 100.206 385.532 99.31 385.63ZM99.674 384.034C100.584 384.216 101.76 384.58 102.39 384.846L102.698 384.216C102.068 383.936 100.878 383.628 99.982 383.474L99.674 384.034ZM107.892 383.404C107.206 383.656 106.03 384.076 105.218 384.258L105.596 384.804C106.408 384.636 107.556 384.342 108.354 384.006L107.892 383.404ZM105.05 385.728C106.142 385.882 107.57 386.218 108.34 386.484L108.578 385.77C107.794 385.504 106.38 385.196 105.302 385.084L105.05 385.728ZM111.7 386.47V387.52H124.342V386.47H111.7ZM113.1 381.192V382.228H122.242V381.192H113.1ZM121.906 381.192V381.43C120.996 382.41 119.064 383.726 117.496 384.44C117.706 384.622 118.042 384.958 118.196 385.196C119.876 384.384 121.906 383.012 123.208 381.738L122.424 381.136L122.172 381.192H121.906ZM117.496 384.44V391.734C117.496 391.972 117.412 392.042 117.118 392.056C116.81 392.07 115.774 392.084 114.64 392.042C114.822 392.35 115.018 392.812 115.088 393.12C116.446 393.12 117.342 393.106 117.874 392.924C118.42 392.77 118.588 392.448 118.588 391.748V384.44H117.496ZM132.518 384.454V385.28H135.43V384.454H132.518ZM131.482 388.514V389.27H136.326V388.514H131.482ZM126.932 380.842V381.696H130.852V380.842H126.932ZM130.558 380.842V381.01C129.704 382.914 127.478 384.412 125.378 385.042C125.574 385.224 125.826 385.588 125.952 385.826C128.22 385.042 130.53 383.474 131.58 381.122L130.922 380.8L130.74 380.842H130.558ZM132.77 380.268L131.916 380.534C133.05 382.984 135.192 384.832 137.866 385.658C138.02 385.406 138.286 385.042 138.51 384.832C135.906 384.146 133.778 382.438 132.77 380.268ZM135.626 380.338C135.122 380.912 134.198 381.696 133.554 382.172L134.17 382.662C134.842 382.2 135.724 381.528 136.41 380.884L135.626 380.338ZM137.306 381.752C136.788 382.298 135.836 383.082 135.164 383.544L135.808 384.034C136.494 383.6 137.404 382.928 138.076 382.284L137.306 381.752ZM127.52 384.496V385.336H129.858V387.632H130.81V384.496H127.52ZM127.058 386.806C126.946 387.8 126.75 389.074 126.568 389.9H127.478C127.632 389.102 127.814 387.842 127.94 386.806H127.058ZM129.858 389.088V389.228C129.718 391.048 129.564 391.79 129.312 392C129.2 392.112 129.06 392.126 128.794 392.126C128.528 392.126 127.772 392.112 127.002 392.042C127.156 392.294 127.282 392.672 127.31 392.952C128.066 392.994 128.808 393.008 129.172 392.98C129.592 392.952 129.858 392.868 130.11 392.63C130.446 392.294 130.614 391.454 130.796 389.508C130.81 389.368 130.824 389.088 130.824 389.088H129.858ZM132.14 384.454V385.546C132.14 386.218 131.958 386.988 130.838 387.59C131.034 387.716 131.37 388.052 131.51 388.248C132.756 387.52 133.05 386.47 133.05 385.56V384.454H132.14ZM136.102 388.514V388.654C135.29 390.656 133.134 391.874 130.824 392.364C130.992 392.56 131.202 392.91 131.3 393.134C133.834 392.504 136.088 391.188 137.054 388.71L136.452 388.472L136.284 388.514H136.102ZM127.464 386.806L127.324 387.632H130.208V386.806H127.464ZM127.044 389.088L126.89 389.9H130.124V389.088H127.044ZM126.554 382.508C127.212 382.914 127.982 383.516 128.346 383.95L128.99 383.306C128.612 382.9 127.814 382.312 127.17 381.934L126.554 382.508ZM134.954 384.454V386.652C134.954 387.506 135.136 387.828 135.976 387.828C136.158 387.828 136.956 387.828 137.152 387.828C137.432 387.828 137.712 387.828 137.866 387.772C137.838 387.562 137.81 387.254 137.81 387.03C137.642 387.072 137.32 387.086 137.124 387.086C136.956 387.086 136.256 387.086 136.088 387.086C135.892 387.086 135.85 386.988 135.85 386.666V384.454H134.954ZM131.482 389.97C133.19 390.936 135.458 392.336 136.592 393.162L137.138 392.476C135.962 391.65 133.68 390.306 132 389.396L131.482 389.97ZM148.03 390.516C149.206 391.174 150.676 392.154 151.376 392.784L152.188 392.168C151.418 391.51 149.934 390.586 148.786 389.97L148.03 390.516ZM141.45 386.904V387.744H150.578V386.904H141.45ZM139.742 388.71V389.578H152.272V388.71H139.742ZM139.896 380.814V381.668H152.006V380.814H139.896ZM142.794 389.928C142.052 390.796 140.806 391.608 139.616 392.14C139.854 392.294 140.26 392.658 140.428 392.84C141.59 392.238 142.92 391.272 143.76 390.264L142.794 389.928ZM141.716 383.558H150.284V385.168H141.716V383.558ZM140.736 382.746V385.994H151.32V382.746H140.736ZM143.844 381.136V385.616H144.824V381.136H143.844ZM147.05 381.136V385.616H148.03V381.136H147.05ZM145.468 388.934V393.148H146.518V388.934H145.468ZM157.13 391.482V392.434H164.354V391.482H157.13ZM158.95 383.39C157.97 386.512 156.108 388.864 153.434 390.264C153.672 390.46 154.078 390.88 154.232 391.09C156.92 389.536 158.88 387.03 160.014 383.642L158.95 383.39ZM156.64 387.898V393.12H157.69V388.85H164.032V393.092H165.124V387.898H156.64ZM153.756 385.028V386.008H166.258V385.028H153.756ZM153.84 381.514V382.466H159.692V381.514H153.84ZM156.346 380.24V383.88H157.396V380.24H156.346ZM162.52 380.24V383.894H163.57V380.24H162.52ZM160.28 381.514V382.466H166.244V381.514H160.28ZM168.344 382.746V389.41H169.394V383.782H178.536V389.34H179.628V382.746H168.344ZM168.904 387.506V388.528H179.166V387.506H168.904ZM173.412 380.24V393.106H174.504V380.24H173.412ZM181.63 389.2V390.096H194.412V389.2H181.63ZM190.17 388.29C190.646 388.626 191.248 389.116 191.542 389.438L192.074 388.892C191.78 388.584 191.164 388.122 190.688 387.814L190.17 388.29ZM186.306 384.748V385.504H194.174V384.748H186.306ZM191.402 383.712V386.904C191.402 387.044 191.346 387.086 191.178 387.1C190.996 387.114 190.45 387.114 189.792 387.086C189.918 387.338 190.058 387.646 190.1 387.898C190.982 387.898 191.556 387.912 191.934 387.772C192.298 387.632 192.396 387.408 192.396 386.932V383.712H191.402ZM181.7 384.552V385.42H185.396V384.552H181.7ZM184.78 380.282V388.206H185.76V380.282H184.78ZM182.358 380.576V383.474H185.34V382.62H183.254V380.576H182.358ZM187.384 385.966C187.958 386.33 188.616 386.904 188.924 387.31L189.61 386.736C189.288 386.344 188.602 385.798 188.028 385.448L187.384 385.966ZM188.602 381.668C189.302 382.172 190.072 382.914 190.408 383.432L191.15 383.152C190.758 382.62 189.974 381.878 189.288 381.402L188.602 381.668ZM192.788 380.968V381.108C191.71 382.886 188.952 383.754 186.236 384.062C186.39 384.244 186.572 384.524 186.67 384.72C189.596 384.328 192.452 383.39 193.712 381.234L193.152 380.926L192.97 380.968H192.788ZM190.156 380.212C189.4 380.842 188.07 381.472 186.362 381.906C186.544 382.046 186.81 382.326 186.922 382.508C188.756 381.962 190.114 381.276 191.08 380.408L190.156 380.212ZM189.596 380.968L188.77 381.626H193.054V380.968H189.596ZM182.708 384.874V385.532C182.708 386.134 182.54 387.184 181.644 387.87C181.882 387.968 182.274 388.178 182.456 388.346C183.436 387.562 183.646 386.288 183.646 385.56V384.874H182.708ZM187.412 387.8V388.668C187.412 389.76 186.768 391.44 181.518 392.308C181.742 392.546 181.994 392.924 182.12 393.162C187.748 392.21 188.448 390.166 188.448 388.696V387.8H187.412ZM188.392 390.726C190.226 391.426 192.704 392.476 193.95 393.106L194.468 392.28C193.152 391.65 190.66 390.67 188.882 390.012L188.392 390.726ZM186.642 382.774L186.754 383.404C187.468 383.348 188.252 383.292 189.092 383.222V382.634C188.154 382.69 187.328 382.746 186.642 382.774ZM200.236 387.436V388.374H208.398V387.436H200.236ZM203.428 381.43L202.952 382.2H207.054L207.306 381.43H203.428ZM205.57 385.462V391.748C205.57 391.93 205.514 391.986 205.29 391.986C205.052 392 204.296 392.014 203.47 391.986C203.61 392.28 203.75 392.7 203.792 392.994C204.912 392.994 205.612 392.98 206.018 392.812C206.452 392.644 206.578 392.336 206.578 391.748V385.462H205.57ZM204.058 380.226C203.246 381.374 201.692 382.55 200.012 383.222C200.208 383.39 200.516 383.698 200.67 383.88C202.392 383.096 204.072 381.864 205.08 380.534L204.058 380.226ZM201.258 389.186C201.958 389.886 202.742 390.866 203.078 391.51L203.932 390.964C203.582 390.334 202.77 389.396 202.07 388.724L201.258 389.186ZM202.49 382.494C203.344 383.18 204.268 384.16 204.674 384.832L205.388 384.314C204.954 383.628 204.002 382.676 203.162 382.032L202.49 382.494ZM196.596 384.286V385.21H199.284V384.286H196.596ZM195.56 387.282V388.206H199.242V387.282H195.56ZM198.794 380.254V393.12H199.774V380.254H198.794ZM196.162 380.8V385.21H197.1V380.8H196.162ZM196.33 387.632V388.514C196.33 389.606 196.204 391.356 195.434 392.644C195.686 392.742 196.064 392.98 196.246 393.148C197.114 391.748 197.254 389.76 197.254 388.542V387.632H196.33ZM206.928 381.43V381.612C205.878 384.202 203.036 385.896 200.278 386.54C200.46 386.75 200.698 387.1 200.796 387.338C203.764 386.512 206.704 384.762 207.95 381.71L207.306 381.388L207.124 381.43H206.928ZM200.306 384.426L200.474 385.21C201.328 385.098 202.308 384.958 203.33 384.804L203.274 384.062C202.14 384.216 201.09 384.356 200.306 384.426ZM210.022 381.374V383.852H211.002V382.284H220.956V383.852H221.964V381.374H210.022ZM211.548 383.418V384.272H220.438V383.418H211.548ZM215.594 382.634C215.342 384.678 214.516 385.63 211.044 386.092C211.212 386.288 211.436 386.652 211.52 386.89C215.286 386.316 216.28 385.112 216.588 382.634H215.594ZM215.132 385.07C216.798 385.518 218.912 386.288 219.99 386.904L220.522 386.148C219.402 385.546 217.274 384.804 215.65 384.412L215.132 385.07ZM209.798 386.778V387.716H222.202V386.778H209.798ZM219.178 387.38V391.916C219.178 392.112 219.108 392.154 218.884 392.182C218.646 392.182 217.876 392.182 217.022 392.154C217.148 392.448 217.302 392.84 217.358 393.12C218.45 393.12 219.192 393.12 219.626 392.966C220.074 392.812 220.2 392.532 220.2 391.944V387.38H219.178ZM211.492 388.584V392.392H212.472V388.584H211.492ZM212.136 388.584V389.41H216.182V390.852H212.136V391.678H217.176V388.584H212.136ZM215.244 380.394C215.454 380.856 215.664 381.472 215.706 381.878L216.784 381.626C216.714 381.22 216.518 380.604 216.266 380.17L215.244 380.394ZM227.634 385.868V386.848H236.174V385.868H227.634ZM228.068 382.872V383.838H235.824V382.872H228.068ZM231.302 383.348V385.266C231.302 386.778 231.078 388.962 227.494 390.488C227.746 390.684 228.068 391.02 228.208 391.244C231.918 389.508 232.338 387.058 232.338 385.28V383.348H231.302ZM233.878 380.24C233.542 381.108 232.926 382.354 232.436 383.11L233.276 383.418C233.794 382.69 234.424 381.556 234.942 380.59L233.878 380.24ZM228.782 380.604C229.216 381.304 229.748 382.256 230.014 382.816L230.938 382.41C230.672 381.864 230.098 380.954 229.664 380.282L228.782 380.604ZM231.134 387.604C232.576 388.724 234.48 390.306 235.404 391.244L236.16 390.502C235.18 389.578 233.248 388.052 231.848 386.974L231.134 387.604ZM224.162 380.702C224.736 381.402 225.464 382.382 225.8 382.97L226.64 382.424C226.29 381.85 225.562 380.94 224.96 380.254L224.162 380.702ZM223.644 383.474V384.356H226.668V383.474H223.644ZM226.136 389.9L225.436 390.222C226.5 392.532 228.334 392.896 231.624 392.896C233.164 392.896 234.928 392.868 236.258 392.784C236.314 392.504 236.44 392.028 236.594 391.804C235.152 391.93 233.108 391.986 231.624 391.986C228.824 391.986 227.004 391.734 226.136 389.9ZM226.136 386.974V387.156C225.786 389.676 224.806 391.468 223.42 392.42C223.63 392.574 223.98 392.938 224.12 393.148C225.576 392.07 226.654 390.082 227.102 387.142L226.626 386.946L226.444 386.974H226.136ZM223.854 388.024C223.952 387.912 224.316 387.828 224.68 387.828H226.57V386.974H224.358L223.854 387.226V388.024ZM223.854 388.024C223.854 387.758 224.638 387.366 224.638 387.366C225.436 386.47 226.696 384.678 227.354 383.726L226.654 383.404L226.346 383.544V383.586C225.884 384.328 224.554 386.232 224.134 386.652C223.896 386.932 223.672 387.016 223.462 387.072C223.574 387.296 223.784 387.786 223.854 388.024ZM238.064 381.024V382.018H249.824V381.024H238.064ZM238.988 388.01V389.004H249.096V388.01H238.988ZM237.756 391.594V392.574H250.272V391.594H237.756ZM243.426 386.204V392.238H244.518V386.204H243.426ZM245.302 383.18C246.59 384.16 248.13 385.588 248.83 386.526L249.74 385.882C248.97 384.93 247.402 383.572 246.128 382.62L245.302 383.18ZM239.044 386.092C239.044 385.854 239.856 385.532 239.856 385.532V385.518C241.032 384.566 242.306 383.166 243.454 381.64L242.292 381.304C241.382 382.69 240.08 384.034 239.674 384.398C239.296 384.762 238.974 385 238.694 385.042C238.806 385.322 238.988 385.854 239.044 386.092ZM239.044 386.092C239.562 385.91 240.346 385.882 248.27 385.504C248.214 385.294 248.116 384.888 248.088 384.608L239.786 384.944L239.03 385.322L239.044 386.092ZM258.686 382.97V383.964H264.37V382.97H258.686ZM259.078 380.24C258.672 382.69 257.93 384.972 256.726 386.4C256.95 386.596 257.328 387.058 257.482 387.282C258.798 385.63 259.666 383.138 260.142 380.422L259.078 380.24ZM262.354 383.474C261.696 387.842 260.226 390.698 256.964 392.28C257.188 392.49 257.51 392.924 257.636 393.148C261.024 391.314 262.606 388.304 263.39 383.614L262.354 383.474ZM259.078 383.852L258.21 384.048C259.148 388.094 260.87 391.482 263.754 393.064C263.922 392.798 264.258 392.42 264.496 392.21C261.682 390.824 259.932 387.576 259.078 383.852ZM255.522 380.45V393.134H256.572V380.45H255.522ZM252.288 390.6C252.582 390.376 253.03 390.138 256.264 388.99C256.18 388.766 256.054 388.36 256.012 388.08L252.652 389.172L252.176 389.606L252.288 390.6ZM252.288 390.6C252.288 390.222 253.366 389.634 253.366 389.634V381.808H252.344V388.696C252.344 389.242 252.05 389.522 251.854 389.648C252.008 389.872 252.204 390.348 252.288 390.6ZM273.456 380.422V393.12H274.506V380.422H273.456ZM271.034 380.954C270.712 382.774 270.124 384.58 269.312 385.756C269.578 385.868 270.012 386.12 270.222 386.274C271.02 385.028 271.664 383.11 272.042 381.15L271.034 380.954ZM271.174 383.11L270.908 384.146H277.712V383.11H271.174ZM269.424 387.226V388.262H278.328V387.226H269.424ZM268.738 380.296C267.996 382.424 266.75 384.524 265.434 385.882C265.63 386.134 265.938 386.68 266.036 386.918C267.492 385.336 268.85 382.97 269.732 380.604L268.738 380.296ZM267.324 383.908V393.106H268.332V382.928L268.318 382.914L267.324 383.908ZM279.728 383.614V384.608H283.928V383.614H279.728ZM281.408 380.408V389.494H282.402V380.408H281.408ZM279.462 389.732L279.882 390.782C281.114 390.236 282.682 389.522 284.166 388.836L283.942 387.898C282.29 388.598 280.582 389.312 279.462 389.732ZM287.89 380.24V389.998H288.884V380.24H287.89ZM283.48 386.022L283.886 386.946L291.418 383.74L291.026 382.844L283.48 386.022ZM284.992 381.556V390.908C284.992 392.434 285.468 392.812 287.078 392.812C287.428 392.812 290.144 392.812 290.522 392.812C291.992 392.812 292.328 392.196 292.496 390.264C292.202 390.208 291.796 390.04 291.544 389.872C291.446 391.482 291.306 391.86 290.48 391.86C289.92 391.86 287.568 391.86 287.106 391.86C286.168 391.86 286 391.692 286 390.922V381.556H284.992ZM290.746 383.18C290.662 385.126 290.452 387.702 290.172 389.2L291.04 389.452C291.404 387.856 291.642 385.266 291.768 383.278L291.824 383.096L291.026 382.844L290.592 383.18H290.746ZM302.534 385.098V386.106H306.258V385.098H302.534ZM297.354 391.622V392.616H306.468V391.622H297.354ZM302.17 380.338V392.126H303.234V380.338H302.17ZM299.076 383.306V392.07H300.098V383.306H299.076ZM293.616 383.614V384.608H298.362V383.614H293.616ZM295.534 380.422V389.382H296.528V380.422H295.534ZM293.476 389.732L293.868 390.768C295.17 390.236 296.906 389.508 298.502 388.808L298.306 387.884C296.542 388.57 294.694 389.312 293.476 389.732Z" fill="#939EA7"/>
<path d="M268.76 302.632C270.024 304.344 271.576 306.712 272.312 308.184L273.512 307.528C272.744 306.104 271.208 303.832 269.896 302.12L268.76 302.632ZM264.056 294.04C263.064 296.472 261.384 298.84 259.576 300.328C259.896 300.552 260.424 301.048 260.648 301.304C262.44 299.656 264.216 297.08 265.368 294.44L264.056 294.04ZM261.592 307.512C261.592 307.208 262.568 306.808 262.568 306.808V306.776C264.504 304.776 266.44 301.912 268.04 299.048L266.696 298.472C265.352 301.208 263.272 304.088 262.616 304.824C262.008 305.576 261.544 306.104 261.112 306.216C261.288 306.568 261.512 307.24 261.592 307.512ZM261.592 307.512C262.216 307.256 263.128 307.208 272.152 306.6C272.072 306.328 271.944 305.816 271.88 305.464L262.44 306.008L261.56 306.488L261.592 307.512ZM268.824 293.96V294.68H269.144C269.992 297.288 271.64 299.848 273.576 301.304C273.8 300.936 274.232 300.424 274.52 300.184C272.632 298.936 271.016 296.52 270.248 293.96H268.824ZM266.344 293.96V295.192H269.848V293.96H266.344ZM276.408 294.6V295.752H288.472V294.6H276.408ZM276.504 297.432V298.504H286.152V297.432H276.504ZM287.992 294.6V306.488C287.992 306.792 287.896 306.872 287.592 306.888C287.256 306.904 286.168 306.904 285.048 306.872C285.24 307.224 285.416 307.816 285.48 308.184C286.904 308.184 287.912 308.168 288.472 307.96C289.032 307.736 289.192 307.32 289.192 306.488V294.6H287.992ZM277.528 300.232V306.536H278.696V300.232H277.528ZM278.488 300.232V301.304H283.864V304.296H278.488V305.352H285.048V300.232H278.488ZM294.184 303.16V303.976H303.768V303.16H294.184ZM294.216 301.192V302.056H303.272V305.08H294.216V305.96H304.456V301.192H294.216ZM298.312 301.624V306.44C298.312 307.752 298.824 308.072 300.616 308.072C301.016 308.072 303.912 308.072 304.328 308.072C305.848 308.072 306.216 307.56 306.392 305.624C306.056 305.56 305.608 305.4 305.336 305.208C305.256 306.824 305.112 307.096 304.248 307.096C303.624 307.096 301.16 307.096 300.68 307.096C299.656 307.096 299.464 307 299.464 306.44V301.624H298.312ZM293.592 301.192V306.792H294.744V301.192H293.592ZM292.904 294.2V295.064H305.048V294.2H292.904ZM298.344 294.424V300.584H299.528V294.424H298.344ZM292.2 296.088V299.528H293.352V296.936H304.6V299.528H305.8V296.088H292.2ZM293.64 299.72L294.008 300.648C295.048 300.44 296.264 300.2 297.496 299.944L297.464 299.176C296.04 299.4 294.664 299.608 293.64 299.72ZM294.056 297.896C295.096 298.104 296.44 298.52 297.16 298.824L297.512 298.104C296.792 297.784 295.432 297.432 294.408 297.256L294.056 297.896ZM303.448 297.176C302.664 297.464 301.32 297.944 300.392 298.152L300.824 298.776C301.752 298.584 303.064 298.248 303.976 297.864L303.448 297.176ZM300.2 299.832C301.448 300.008 303.08 300.392 303.96 300.696L304.232 299.88C303.336 299.576 301.72 299.224 300.488 299.096L300.2 299.832ZM307.8 300.68V301.88H322.248V300.68H307.8ZM309.4 294.648V295.832H319.848V294.648H309.4ZM319.464 294.648V294.92C318.424 296.04 316.216 297.544 314.424 298.36C314.664 298.568 315.048 298.952 315.224 299.224C317.144 298.296 319.464 296.728 320.952 295.272L320.056 294.584L319.768 294.648H319.464ZM314.424 298.36V306.696C314.424 306.968 314.328 307.048 313.992 307.064C313.64 307.08 312.456 307.096 311.16 307.048C311.368 307.4 311.592 307.928 311.672 308.28C313.224 308.28 314.248 308.264 314.856 308.056C315.48 307.88 315.672 307.512 315.672 306.712V298.36H314.424ZM331.592 298.376V299.32H334.92V298.376H331.592ZM330.408 303.016V303.88H335.944V303.016H330.408ZM325.208 294.248V295.224H329.688V294.248H325.208ZM329.352 294.248V294.44C328.376 296.616 325.832 298.328 323.432 299.048C323.656 299.256 323.944 299.672 324.088 299.944C326.68 299.048 329.32 297.256 330.52 294.568L329.768 294.2L329.56 294.248H329.352ZM331.88 293.592L330.904 293.896C332.2 296.696 334.648 298.808 337.704 299.752C337.88 299.464 338.184 299.048 338.44 298.808C335.464 298.024 333.032 296.072 331.88 293.592ZM335.144 293.672C334.568 294.328 333.512 295.224 332.776 295.768L333.48 296.328C334.248 295.8 335.256 295.032 336.04 294.296L335.144 293.672ZM337.064 295.288C336.472 295.912 335.384 296.808 334.616 297.336L335.352 297.896C336.136 297.4 337.176 296.632 337.944 295.896L337.064 295.288ZM325.88 298.424V299.384H328.552V302.008H329.64V298.424H325.88ZM325.352 301.064C325.224 302.2 325 303.656 324.792 304.6H325.832C326.008 303.688 326.216 302.248 326.36 301.064H325.352ZM328.552 303.672V303.832C328.392 305.912 328.216 306.76 327.928 307C327.8 307.128 327.64 307.144 327.336 307.144C327.032 307.144 326.168 307.128 325.288 307.048C325.464 307.336 325.608 307.768 325.64 308.088C326.504 308.136 327.352 308.152 327.768 308.12C328.248 308.088 328.552 307.992 328.84 307.72C329.224 307.336 329.416 306.376 329.624 304.152C329.64 303.992 329.656 303.672 329.656 303.672H328.552ZM331.16 298.376V299.624C331.16 300.392 330.952 301.272 329.672 301.96C329.896 302.104 330.28 302.488 330.44 302.712C331.864 301.88 332.2 300.68 332.2 299.64V298.376H331.16ZM335.688 303.016V303.176C334.76 305.464 332.296 306.856 329.656 307.416C329.848 307.64 330.088 308.04 330.2 308.296C333.096 307.576 335.672 306.072 336.776 303.24L336.088 302.968L335.896 303.016H335.688ZM325.816 301.064L325.656 302.008H328.952V301.064H325.816ZM325.336 303.672L325.16 304.6H328.856V303.672H325.336ZM324.776 296.152C325.528 296.616 326.408 297.304 326.824 297.8L327.56 297.064C327.128 296.6 326.216 295.928 325.48 295.496L324.776 296.152ZM334.376 298.376V300.888C334.376 301.864 334.584 302.232 335.544 302.232C335.752 302.232 336.664 302.232 336.888 302.232C337.208 302.232 337.528 302.232 337.704 302.168C337.672 301.928 337.64 301.576 337.64 301.32C337.448 301.368 337.08 301.384 336.856 301.384C336.664 301.384 335.864 301.384 335.672 301.384C335.448 301.384 335.4 301.272 335.4 300.904V298.376H334.376ZM330.408 304.68C332.36 305.784 334.952 307.384 336.248 308.328L336.872 307.544C335.528 306.6 332.92 305.064 331 304.024L330.408 304.68ZM349.32 305.304C350.664 306.056 352.344 307.176 353.144 307.896L354.072 307.192C353.192 306.44 351.496 305.384 350.184 304.68L349.32 305.304ZM341.8 301.176V302.136H352.232V301.176H341.8ZM339.848 303.24V304.232H354.168V303.24H339.848ZM340.024 294.216V295.192H353.864V294.216H340.024ZM343.336 304.632C342.488 305.624 341.064 306.552 339.704 307.16C339.976 307.336 340.44 307.752 340.632 307.96C341.96 307.272 343.48 306.168 344.44 305.016L343.336 304.632ZM342.104 297.352H351.896V299.192H342.104V297.352ZM340.984 296.424V300.136H353.08V296.424H340.984ZM344.536 294.584V299.704H345.656V294.584H344.536ZM348.2 294.584V299.704H349.32V294.584H348.2ZM346.392 303.496V308.312H347.592V303.496H346.392Z" fill="black"/>
<line x1="47" y1="326.5" x2="367" y2="326.5" stroke="#EEEEEE"/>
<rect x="97" y="324" width="140" height="3" fill="#D60C18"/>
<rect x="331" y="273" width="35" height="53" fill="white"/>
<g clip-path="url(#clip0_45_235)">
<path d="M345.708 306.868C345.532 307.044 345.268 307.044 345.093 306.868C345.005 306.81 344.976 306.693 344.976 306.605C344.976 306.488 345.005 306.4 345.093 306.312L351.007 300.485L345.093 294.717C345.034 294.63 344.976 294.542 344.976 294.425C344.976 294.307 345.005 294.22 345.093 294.132C345.268 293.956 345.532 293.956 345.708 294.132L351.915 300.222C352.061 300.368 352.061 300.632 351.915 300.778L345.708 306.868V306.868Z" fill="black"/>
</g>
<circle cx="77" cy="359" r="9.5" stroke="#48545D"/>
<line x1="349.25" y1="261" x2="349.25" y2="288" stroke="#D60C18" stroke-width="0.5"/>
<path d="M322.372 244.662V255.12H323.408V245.698H333.026V244.662H322.372ZM332.634 244.662V253.72C332.634 253.986 332.564 254.056 332.284 254.07C331.99 254.084 331.024 254.084 330.002 254.042C330.17 254.336 330.324 254.826 330.38 255.134C331.654 255.134 332.536 255.106 333.04 254.938C333.53 254.77 333.684 254.42 333.684 253.734V244.662H332.634ZM327.132 242.212C326.894 243.066 326.432 244.284 326.04 245.068L327.048 245.306C327.468 244.564 328 243.43 328.434 242.436L327.132 242.212ZM325.256 247.546V253.188H326.222V247.546H325.256ZM325.704 247.546V248.498H329.764V251.242H325.704V252.18H330.744V247.546H325.704ZM335.896 244.858V245.88H348.132V244.858H335.896ZM339.382 253.328V254.35H346.424V253.328H339.382ZM338.752 248.596V255.148H339.788V249.618H346.018V255.078H347.124V248.596H338.752ZM340.754 242.24C340.012 245.782 338.486 249.45 335.434 251.536C335.658 251.746 335.98 252.124 336.134 252.362C339.34 250.094 340.95 246.272 341.86 242.45L340.754 242.24ZM350.288 254H351.562V246.398H350.288V254ZM350.932 244.83C351.422 244.83 351.786 244.508 351.786 243.976C351.786 243.486 351.422 243.164 350.932 243.164C350.428 243.164 350.078 243.486 350.078 243.976C350.078 244.508 350.428 244.83 350.932 244.83ZM357.125 254.196C358.035 254.196 358.917 253.832 359.589 253.23L359.043 252.376C358.567 252.796 357.937 253.132 357.251 253.132C355.851 253.132 354.885 251.956 354.885 250.22C354.885 248.456 355.893 247.28 357.293 247.28C357.881 247.28 358.357 247.546 358.805 247.952L359.449 247.112C358.917 246.622 358.217 246.216 357.223 246.216C355.277 246.216 353.569 247.672 353.569 250.22C353.569 252.726 355.109 254.196 357.125 254.196ZM363.865 254.196C365.727 254.196 367.379 252.726 367.379 250.22C367.379 247.672 365.727 246.216 363.865 246.216C361.989 246.216 360.337 247.672 360.337 250.22C360.337 252.726 361.989 254.196 363.865 254.196ZM363.865 253.132C362.535 253.132 361.653 251.956 361.653 250.22C361.653 248.456 362.535 247.28 363.865 247.28C365.181 247.28 366.063 248.456 366.063 250.22C366.063 251.956 365.181 253.132 363.865 253.132ZM369.401 254H370.675V248.484C371.431 247.728 371.977 247.322 372.747 247.322C373.755 247.322 374.189 247.924 374.189 249.352V254H375.477V249.184C375.477 247.252 374.749 246.216 373.153 246.216C372.103 246.216 371.319 246.79 370.605 247.504H370.563L370.437 246.398H369.401V254Z" fill="black"/>
<path d="M69.132 323.168C70.608 323.168 72.012 322.064 72.012 320.144C72.012 318.2 70.824 317.336 69.36 317.336C68.832 317.336 68.436 317.468 68.04 317.684L68.268 315.14H71.592V314.204H67.308L67.032 318.32L67.62 318.692C68.124 318.356 68.496 318.164 69.084 318.164C70.176 318.164 70.896 318.92 70.896 320.18C70.896 321.452 70.068 322.256 69.024 322.256C68.016 322.256 67.368 321.788 66.876 321.272L66.324 321.992C66.924 322.592 67.764 323.168 69.132 323.168ZM75.9923 323.168C77.6483 323.168 78.7162 321.644 78.7162 318.572C78.7162 315.524 77.6483 314.048 75.9923 314.048C74.3123 314.048 73.2443 315.524 73.2443 318.572C73.2443 321.644 74.3123 323.168 75.9923 323.168ZM75.9923 322.28C74.9843 322.28 74.3003 321.164 74.3003 318.572C74.3003 316.016 74.9843 314.924 75.9923 314.924C76.9883 314.924 77.6603 316.016 77.6603 318.572C77.6603 321.164 76.9883 322.28 75.9923 322.28Z" fill="#D60C18"/>
<line x1="96.5" y1="326.5" x2="96.5" y2="309.5" stroke="#939EA7" stroke-linecap="square" stroke-dasharray="2 2"/>
<line x1="47.5" y1="326.5" x2="47.5" y2="309.5" stroke="#939EA7" stroke-linecap="square" stroke-dasharray="2 2"/>
<path d="M345.156 340.168C346.728 340.168 347.988 339.22 347.988 337.66C347.988 336.448 347.148 335.668 346.116 335.416V335.368C347.052 335.032 347.676 334.324 347.676 333.256C347.676 331.852 346.596 331.048 345.12 331.048C344.112 331.048 343.332 331.492 342.672 332.092L343.26 332.8C343.752 332.296 344.376 331.936 345.084 331.936C345.996 331.936 346.56 332.488 346.56 333.328C346.56 334.288 345.948 335.008 344.136 335.008V335.86C346.164 335.86 346.872 336.556 346.872 337.612C346.872 338.62 346.128 339.256 345.084 339.256C344.076 339.256 343.416 338.776 342.9 338.236L342.348 338.956C342.924 339.592 343.776 340.168 345.156 340.168ZM351.788 340.168C353.264 340.168 354.668 339.064 354.668 337.144C354.668 335.2 353.48 334.336 352.016 334.336C351.488 334.336 351.092 334.468 350.696 334.684L350.924 332.14H354.248V331.204H349.964L349.688 335.32L350.276 335.692C350.78 335.356 351.152 335.164 351.74 335.164C352.832 335.164 353.552 335.92 353.552 337.18C353.552 338.452 352.724 339.256 351.68 339.256C350.672 339.256 350.024 338.788 349.532 338.272L348.98 338.992C349.58 339.592 350.42 340.168 351.788 340.168Z" fill="#D60C18"/>
<line x1="366.5" y1="343.5" x2="366.5" y2="326.5" stroke="#939EA7" stroke-linecap="square" stroke-dasharray="2 2"/>
<line x1="331.5" y1="343.5" x2="331.5" y2="326.5" stroke="#939EA7" stroke-linecap="square" stroke-dasharray="2 2"/>
<rect x="47.5" y="65.5" width="319" height="142" fill="white" stroke="#EBEBEB"/>
<path d="M78.656 87.184V92.096H79.824V88.096H88.16V92.096H89.376V87.184H78.656ZM80.528 89.056V89.856H87.44V89.056H80.528ZM80.528 90.832V91.68H87.424V90.832H80.528ZM76.896 92.736V93.728H91.024V92.736H76.896ZM83.856 94.736V95.712H89.616V94.736H83.856ZM78.944 94.784V95.68H82.88V94.784H78.944ZM78.944 96.752V97.648H82.88V96.752H78.944ZM85.632 95.632L84.672 95.92C85.728 98.544 87.792 100.448 90.608 101.28C90.768 100.992 91.088 100.56 91.328 100.336C88.624 99.664 86.576 97.92 85.632 95.632ZM89.328 94.736V94.928C88.464 97.648 86.016 99.536 83.44 100.304C83.68 100.528 83.968 100.976 84.112 101.248C86.88 100.288 89.44 98.272 90.496 94.992L89.76 94.688L89.552 94.736H89.328ZM76.704 99.216L76.832 100.272C78.464 100.096 80.72 99.84 82.912 99.568L82.88 98.592C80.592 98.848 78.256 99.088 76.704 99.216ZM82.256 93.056V101.28H83.408V93.056H82.256ZM78.24 93.056V99.488H79.36V93.056H78.24ZM93.584 87.728V88.608H99.408V87.728H93.584ZM100.24 88.848V89.92H105.184V88.848H100.24ZM92.976 89.808V90.72H99.936V89.808H92.976ZM95.936 86.64V90.24H97.024V86.64H95.936ZM95.936 92.608V96.608H97.024V92.608H95.936ZM93.376 93.76V94.688H99.52V93.76H93.376ZM92.816 96.416L92.928 97.44C94.768 97.264 97.392 96.976 99.92 96.704V95.76C97.296 96.032 94.592 96.288 92.816 96.416ZM102.08 86.56C102.032 91.504 101.936 94.944 99.392 96.864C99.664 97.024 100 97.392 100.176 97.648C102.928 95.536 103.104 91.824 103.168 86.56H102.08ZM100.112 92.128C101.36 93.008 103.04 94.272 103.872 95.024L104.432 94.016C103.584 93.296 101.872 92.112 100.64 91.264L100.112 92.128ZM104.624 88.848V95.504C104.624 96.608 104.688 96.864 104.896 97.072C105.12 97.28 105.44 97.36 105.712 97.36C105.872 97.36 106.16 97.36 106.336 97.36C106.608 97.36 106.864 97.296 107.04 97.168C107.232 97.04 107.36 96.816 107.424 96.448C107.488 96.112 107.552 95.104 107.568 94.272C107.28 94.192 106.944 94.032 106.736 93.824C106.736 94.752 106.72 95.44 106.688 95.776C106.656 96.064 106.624 96.224 106.56 96.288C106.512 96.368 106.416 96.384 106.304 96.384C106.208 96.384 106.064 96.384 105.984 96.384C105.904 96.384 105.84 96.368 105.792 96.32C105.728 96.24 105.728 95.984 105.728 95.584V88.848H104.624ZM97.472 98.432C97.648 99.312 97.76 100.448 97.76 101.152L98.96 100.992C98.944 100.32 98.784 99.216 98.576 98.336L97.472 98.432ZM100.752 98.4C101.136 99.28 101.504 100.416 101.632 101.136L102.816 100.88C102.672 100.192 102.272 99.056 101.872 98.208L100.752 98.4ZM104.064 98.352C104.816 99.264 105.68 100.512 106.064 101.312L107.248 100.88C106.848 100.08 105.952 98.864 105.2 97.984L104.064 98.352ZM94.752 98.032C94.32 99.088 93.568 100.192 92.784 100.832L93.888 101.296C94.704 100.592 95.44 99.408 95.888 98.336L94.752 98.032ZM94.88 90.432C94.752 91.6 94.272 92.224 92.688 92.592C92.88 92.752 93.136 93.104 93.232 93.328C95.088 92.848 95.68 91.968 95.856 90.432H94.88ZM97.072 90.336V91.52C97.072 92.416 97.248 92.768 98.096 92.768C98.304 92.768 99.024 92.768 99.232 92.768C99.504 92.768 99.824 92.752 100 92.688C99.952 92.464 99.936 92.144 99.904 91.92C99.728 91.968 99.392 91.984 99.216 91.984C99.04 91.984 98.4 91.984 98.224 91.984C98.032 91.984 98 91.888 98 91.536V90.336H97.072ZM110.032 89.744V90.656H114.48V89.744H110.032ZM117.392 89.744V90.656H121.92V89.744H117.392ZM121.408 87.328V99.648C121.408 99.952 121.312 100.032 120.992 100.048C120.672 100.064 119.568 100.08 118.464 100.016C118.64 100.368 118.848 100.928 118.912 101.264C120.368 101.264 121.312 101.248 121.872 101.04C122.416 100.848 122.608 100.464 122.608 99.648V87.328H121.408ZM110.128 87.328V88.336H114.048V92.192H110.128V93.2H115.184V87.328H110.128ZM122.032 87.328H116.688V93.216H122.032V92.208H117.84V88.336H122.032V87.328ZM109.456 87.328V101.28H110.64V87.328H109.456Z" fill="#D60C18"/>
<path d="M192.656 87.184V92.096H193.824V88.096H202.16V92.096H203.376V87.184H192.656ZM194.528 89.056V89.856H201.44V89.056H194.528ZM194.528 90.832V91.68H201.424V90.832H194.528ZM190.896 92.736V93.728H205.024V92.736H190.896ZM197.856 94.736V95.712H203.616V94.736H197.856ZM192.944 94.784V95.68H196.88V94.784H192.944ZM192.944 96.752V97.648H196.88V96.752H192.944ZM199.632 95.632L198.672 95.92C199.728 98.544 201.792 100.448 204.608 101.28C204.768 100.992 205.088 100.56 205.328 100.336C202.624 99.664 200.576 97.92 199.632 95.632ZM203.328 94.736V94.928C202.464 97.648 200.016 99.536 197.44 100.304C197.68 100.528 197.968 100.976 198.112 101.248C200.88 100.288 203.44 98.272 204.496 94.992L203.76 94.688L203.552 94.736H203.328ZM190.704 99.216L190.832 100.272C192.464 100.096 194.72 99.84 196.912 99.568L196.88 98.592C194.592 98.848 192.256 99.088 190.704 99.216ZM196.256 93.056V101.28H197.408V93.056H196.256ZM192.24 93.056V99.488H193.36V93.056H192.24ZM215.552 91.968V93.088H221.328V91.968H215.552ZM206.976 88.24V89.264H214.032V88.24H206.976ZM206.8 94.592V95.632H214.112V94.592H206.8ZM206.72 91.904V92.928H214.288V91.904H206.72ZM218.4 92.448V101.216H219.568V92.448H218.4ZM208.016 89.584C208.304 90.288 208.544 91.232 208.624 91.84L209.648 91.552C209.568 90.96 209.296 90.048 208.992 89.36L208.016 89.584ZM212.032 89.344C211.808 90.144 211.408 91.344 211.072 92.08L212.064 92.32C212.4 91.616 212.8 90.528 213.136 89.584L212.032 89.344ZM220.08 86.848C218.928 87.344 216.88 87.808 215.072 88.112C215.216 88.368 215.392 88.768 215.456 89.024C217.344 88.752 219.536 88.304 221.056 87.744L220.08 86.848ZM209.424 86.784C209.792 87.456 210.192 88.352 210.368 88.912L211.6 88.544C211.424 88 210.992 87.12 210.608 86.48L209.424 86.784ZM215.072 88.112V93.648C215.072 95.792 214.96 98.544 213.6 100.48C213.856 100.624 214.32 100.992 214.512 101.216C215.984 99.12 216.192 95.952 216.192 93.648V88.112H215.072ZM211.92 96.816C212.4 97.616 212.976 98.72 213.232 99.408L214.08 98.912C213.84 98.224 213.264 97.184 212.736 96.384L211.92 96.816ZM208.224 96.48C207.872 97.536 207.328 98.64 206.704 99.392C206.944 99.52 207.36 99.824 207.536 99.984C208.16 99.168 208.816 97.904 209.2 96.752L208.224 96.48ZM210.016 92.432V101.216H211.184V92.432H210.016Z" fill="black"/>
<path d="M75.656 152.328L74.552 152.616C75.768 156.392 78.04 159.048 81.64 160.248C81.816 159.912 82.168 159.416 82.456 159.16C78.984 158.168 76.712 155.688 75.656 152.328ZM68.616 146.808V148.024H81.304V146.808H68.616ZM68.056 151.72V152.952H81.992V151.72H68.056ZM74.264 147.224V149.912C74.264 152.84 73.72 156.792 67.656 159.256C67.912 159.496 68.28 159.96 68.44 160.264C74.872 157.592 75.512 153.24 75.512 149.928V147.224H74.264ZM83.88 146.744V147.96H98.12V146.744H83.88ZM90.04 147.704V160.264H91.304V147.704H90.04ZM90.744 151.496C92.68 152.488 95.176 154.008 96.408 155L97.256 153.912C95.976 152.952 93.448 151.496 91.528 150.568L90.744 151.496ZM102.792 148.904H111.304V149.912H102.792V148.904ZM102.792 147.08H111.304V148.072H102.792V147.08ZM101.64 146.216V150.776H112.504V146.216H101.64ZM101.592 151.672V152.6H113.848V151.672H101.592ZM101.576 155.096V156.024H114.104V155.096H101.576ZM101.72 153.432V154.248H112.68V153.432H101.72ZM100.984 151.672V153.896C100.984 155.576 100.84 157.928 99.64 159.688C99.928 159.816 100.456 160.136 100.68 160.344C101.944 158.488 102.2 155.784 102.2 153.912V151.672H100.984ZM107.832 155.368L106.872 155.608C108.104 157.96 110.536 159.464 113.736 160.04C113.896 159.72 114.184 159.272 114.44 159.032C111.352 158.616 108.904 157.32 107.832 155.368ZM112.44 156.152C111.688 156.648 110.392 157.336 109.48 157.72L110.184 158.28C111.112 157.912 112.36 157.336 113.256 156.712L112.44 156.152ZM103.496 160.296C103.768 160.104 104.264 159.976 108.04 159.032C108.04 158.792 108.056 158.36 108.104 158.056L103.96 158.968L103.464 159.384L103.496 160.296ZM103.496 160.296C103.496 159.864 104.92 159.048 104.92 159.048V155.48L103.784 155.432V158.056C103.784 158.744 103.272 159.112 102.968 159.272C103.16 159.512 103.416 160.008 103.496 160.296ZM120.552 155.368V156.296H125.4V155.368H120.552ZM120.504 152.952V153.896H124.824V157.864H120.504V158.792H125.96V152.952H120.504ZM119.976 152.952V159.608H121.08V152.952H119.976ZM117.032 148.52V149.4H121.48V148.52H117.032ZM124.408 148.52V149.4H128.936V148.52H124.408ZM128.44 146.248V158.696C128.44 158.968 128.344 159.064 128.056 159.064C127.768 159.08 126.792 159.096 125.816 159.048C125.992 159.384 126.184 159.944 126.232 160.28C127.576 160.28 128.44 160.264 128.952 160.072C129.464 159.864 129.64 159.464 129.64 158.696V146.248H128.44ZM117.128 146.248V147.176H121.112V150.824H117.128V151.752H122.248V146.248H117.128ZM129.032 146.248H123.688V151.768H129.032V150.856H124.84V147.176H129.032V146.248ZM116.44 146.248V160.296H117.624V146.248H116.44ZM140.552 150.968V152.088H146.328V150.968H140.552ZM131.976 147.24V148.264H139.032V147.24H131.976ZM131.8 153.592V154.632H139.112V153.592H131.8ZM131.72 150.904V151.928H139.288V150.904H131.72ZM143.4 151.448V160.216H144.568V151.448H143.4ZM133.016 148.584C133.304 149.288 133.544 150.232 133.624 150.84L134.648 150.552C134.568 149.96 134.296 149.048 133.992 148.36L133.016 148.584ZM137.032 148.344C136.808 149.144 136.408 150.344 136.072 151.08L137.064 151.32C137.4 150.616 137.8 149.528 138.136 148.584L137.032 148.344ZM145.08 145.848C143.928 146.344 141.88 146.808 140.072 147.112C140.216 147.368 140.392 147.768 140.456 148.024C142.344 147.752 144.536 147.304 146.056 146.744L145.08 145.848ZM134.424 145.784C134.792 146.456 135.192 147.352 135.368 147.912L136.6 147.544C136.424 147 135.992 146.12 135.608 145.48L134.424 145.784ZM140.072 147.112V152.648C140.072 154.792 139.96 157.544 138.6 159.48C138.856 159.624 139.32 159.992 139.512 160.216C140.984 158.12 141.192 154.952 141.192 152.648V147.112H140.072ZM136.92 155.816C137.4 156.616 137.976 157.72 138.232 158.408L139.08 157.912C138.84 157.224 138.264 156.184 137.736 155.384L136.92 155.816ZM133.224 155.48C132.872 156.536 132.328 157.64 131.704 158.392C131.944 158.52 132.36 158.824 132.536 158.984C133.16 158.168 133.816 156.904 134.2 155.752L133.224 155.48ZM135.016 151.432V160.216H136.184V151.432H135.016ZM150.952 152.072V152.968H158.968V152.072H150.952ZM152.872 153.832V154.616H157.112V153.832H152.872ZM152.872 155.496V156.248H157.096V155.496H152.872ZM156.68 152.536V159.8H157.784V152.536H156.68ZM152.152 152.536V157.608H153.224V152.536H152.152ZM149.032 148.264V149.112H153.528V148.264H149.032ZM156.408 148.264V149.112H160.936V148.264H156.408ZM160.472 146.184V158.872C160.472 159.096 160.392 159.176 160.184 159.176C159.976 159.192 159.272 159.192 158.536 159.176C158.696 159.48 158.856 159.96 158.904 160.264C159.944 160.264 160.664 160.248 161.08 160.056C161.512 159.864 161.656 159.544 161.656 158.872V146.184H160.472ZM149.128 146.184V147.048H153.128V150.328H149.128V151.208H154.264V146.184H149.128ZM161.048 146.184H155.672V151.208H161.048V150.328H156.824V147.048H161.048V146.184ZM148.408 146.184V160.28H149.592V146.184H148.408ZM150.568 157.16V158.04H159.24V157.16H150.568ZM180.472 147.8V148.888H193.512V147.8H180.472ZM181.352 150.184V151.224H192.728V150.184H181.352ZM180.248 154.888V155.944H193.928V154.888H180.248ZM179.896 152.584V153.656H194.2V152.584H179.896ZM186.344 148.408V153.368H187.576V148.408H186.344ZM182.616 145.944C183.16 146.584 183.736 147.448 183.96 148.056L185.064 147.544C184.824 146.968 184.248 146.12 183.672 145.512L182.616 145.944ZM190.12 145.512C189.752 146.248 189.096 147.304 188.6 147.976L189.64 148.344C190.152 147.72 190.824 146.76 191.368 145.896L190.12 145.512ZM186.264 153.32C185.912 156.552 185.032 158.376 179.64 159.16C179.864 159.432 180.168 159.944 180.264 160.232C185.992 159.288 187.112 157.112 187.512 153.32H186.264ZM187.064 157C189.304 157.896 192.184 159.336 193.608 160.344L194.168 159.304C192.712 158.328 189.816 156.952 187.608 156.12L187.064 157ZM198.328 149.512V150.424H207.704V149.512H198.328ZM205 148.2C205.608 148.504 206.344 148.968 206.728 149.352L207.304 148.712C206.92 148.344 206.184 147.896 205.56 147.624L205 148.2ZM206.056 151.16C205.368 153.928 203.896 156.008 201.72 157.272C201.928 157.448 202.28 157.848 202.424 158.04C204.632 156.616 206.232 154.376 207.032 151.352L206.056 151.16ZM198.168 156.056L198.328 156.968C199.656 156.728 201.368 156.376 203.032 156.056L203 155.208C201.192 155.544 199.4 155.848 198.168 156.056ZM199.752 152.184H201.576V153.8H199.752V152.184ZM198.888 151.432V154.536H202.456V151.432H198.888ZM203.064 147.8C203.352 152.744 204.008 157.288 206.216 157.768C207.064 158.072 207.624 157.432 207.832 155.672C207.608 155.576 207.24 155.32 207.048 155.128C206.936 156.168 206.776 156.84 206.552 156.792C205 156.552 204.296 152.328 204.088 147.8H203.064ZM196.312 146.312V160.344H197.448V147.4H208.488V160.344H209.688V146.312H196.312ZM197.016 158.504V159.592H209.16V158.504H197.016ZM218.328 148.248C219.88 148.84 221.896 149.768 222.904 150.392L223.704 149.624C222.632 148.984 220.616 148.12 219.08 147.576L218.328 148.248ZM216.792 149.592V157.832H217.864V150.52H224.984V149.592H216.792ZM224.552 149.592V156.696C224.552 156.888 224.488 156.952 224.28 156.968C224.072 156.968 223.4 156.968 222.632 156.952C222.76 157.208 222.92 157.608 222.968 157.896C224.024 157.896 224.712 157.88 225.096 157.72C225.512 157.544 225.64 157.272 225.64 156.696V149.592H224.552ZM216.808 146.232V147.176H224.792V146.232H216.808ZM217.432 151.928V152.824H224.968V151.928H217.432ZM217.432 154.28V155.208H224.968V154.28H217.432ZM220.616 149.976V157.816H221.672V149.976H220.616ZM224.392 146.232V146.456C223.672 147.208 222.184 148.136 220.872 148.648C221.048 148.824 221.352 149.144 221.512 149.352C222.968 148.744 224.584 147.752 225.656 146.744L224.92 146.168L224.664 146.232H224.392ZM212.328 146.12C213.032 146.904 213.928 148.024 214.36 148.696L215.288 148.04C214.84 147.384 213.96 146.36 213.224 145.592L212.328 146.12ZM211.752 149.256V150.264H215.256V149.256H211.752ZM214.6 156.6L213.8 156.968C215 159.608 217.096 160.056 220.84 160.056C222.6 160.056 224.616 160.008 226.12 159.928C226.184 159.592 226.344 159.032 226.52 158.776C224.888 158.904 222.536 158.984 220.856 158.984C217.672 158.984 215.592 158.696 214.6 156.6ZM214.824 153.256V153.464C214.376 156.392 213.144 158.424 211.448 159.496C211.672 159.672 212.072 160.072 212.232 160.328C214.024 159.128 215.352 156.872 215.912 153.448L215.304 153.224L215.096 153.256H214.824ZM211.976 154.456C212.088 154.328 212.504 154.232 212.92 154.232H215.208L215.224 153.256H212.552L211.976 153.544V154.456ZM211.976 154.456C211.976 154.152 212.872 153.704 212.872 153.704C213.816 152.68 215.304 150.648 216.088 149.56L215.288 149.176L214.92 149.336V149.384C214.376 150.232 212.808 152.392 212.296 152.888C212.024 153.208 211.768 153.304 211.528 153.368C211.656 153.624 211.896 154.184 211.976 154.456ZM228.856 146.152V147.256H231.576V146.152H228.856ZM228.408 146.152V151.848C228.408 154.168 228.344 157.336 227.496 159.624C227.704 159.752 228.104 160.12 228.248 160.344C229.224 157.848 229.352 154.28 229.352 151.848V146.152H228.408ZM231.048 146.152V158.936C231.048 159.128 230.984 159.192 230.808 159.192C230.632 159.208 230.088 159.208 229.448 159.192C229.592 159.464 229.736 159.928 229.768 160.184C230.648 160.184 231.192 160.168 231.528 159.992C231.88 159.816 231.992 159.496 231.992 158.952V146.152H231.048ZM229.144 154.536L229.624 155.512C230.328 154.888 231.032 154.264 231.752 153.624L231.4 152.904C230.552 153.56 229.72 154.168 229.144 154.536ZM229.08 149.88C229.56 150.408 230.136 151.16 230.408 151.624L231.112 151.144C230.84 150.68 230.264 149.992 229.768 149.448L229.08 149.88ZM232.632 158.328L232.92 159.384C234.408 159.064 236.424 158.632 238.36 158.2L238.264 157.24C236.168 157.656 234.024 158.088 232.632 158.328ZM233.4 155.352C233.736 156.056 234.056 157 234.168 157.624L235.08 157.288C234.968 156.68 234.632 155.752 234.264 155.064L233.4 155.352ZM232.664 147.08V148.072H238.248V147.08H232.664ZM233.016 149.4V150.376H238.136V149.4H233.016ZM235 145.576V149.912H236.088V145.576H235ZM234.184 152.232H236.872V153.816H234.184V152.232ZM233.16 151.352V154.696H237.912V151.352H233.16ZM240.888 145.88C240.296 147.192 239.192 148.616 238.184 149.464C238.472 149.656 238.808 149.96 239.016 150.216C240.136 149.24 241.24 147.72 241.928 146.232L240.888 145.88ZM240.968 150.312C240.392 151.704 239.256 153.16 238.152 154.008C238.456 154.216 238.776 154.536 238.984 154.792C240.2 153.8 241.336 152.248 242.04 150.664L240.968 150.312ZM241.192 154.952C240.52 156.824 239.176 158.552 237.528 159.512C237.8 159.736 238.136 160.088 238.312 160.36C240.104 159.224 241.496 157.368 242.248 155.272L241.192 154.952ZM236.6 154.984C236.376 155.896 235.912 157.24 235.544 158.056L236.36 158.344C236.76 157.56 237.256 156.312 237.688 155.288L236.6 154.984ZM246.152 159H247.672C247.864 154.424 248.36 151.688 251.112 148.152V147.272H243.784V148.52H249.464C247.16 151.72 246.36 154.568 246.152 159ZM254.083 159.224C254.675 159.224 255.155 158.76 255.155 158.104C255.155 157.432 254.675 156.984 254.083 156.984C253.507 156.984 253.043 157.432 253.043 158.104C253.043 158.76 253.507 159.224 254.083 159.224ZM260.072 159.224C262.28 159.224 264.328 157.4 264.328 152.632C264.328 148.904 262.648 147.064 260.392 147.064C258.568 147.064 257.032 148.6 257.032 150.872C257.032 153.304 258.296 154.552 260.264 154.552C261.272 154.552 262.312 153.944 263.048 153.016L262.968 151.848C262.2 153.016 261.288 153.48 260.504 153.48C259.112 153.48 258.408 152.44 258.408 150.872C258.408 149.256 259.272 148.2 260.392 148.2C262.04 148.2 262.952 149.752 262.952 152.632C262.952 156.648 261.592 158.008 260.024 158.008C259.272 158.008 258.552 157.672 258.056 157.096L257.24 158.024C257.896 158.712 258.792 159.224 260.072 159.224ZM268.483 154.456C270.099 154.456 271.155 153.112 271.155 150.744C271.155 148.392 270.099 147.064 268.483 147.064C266.867 147.064 265.811 148.392 265.811 150.744C265.811 153.112 266.867 154.456 268.483 154.456ZM268.483 153.56C267.555 153.56 266.915 152.6 266.915 150.744C266.915 148.872 267.555 147.96 268.483 147.96C269.411 147.96 270.035 148.872 270.035 150.744C270.035 152.6 269.411 153.56 268.483 153.56ZM268.819 159.224H269.811L276.275 147.064H275.283L268.819 159.224ZM276.659 159.224C278.243 159.224 279.315 157.88 279.315 155.496C279.315 153.16 278.243 151.816 276.659 151.816C275.043 151.816 273.987 153.16 273.987 155.496C273.987 157.88 275.043 159.224 276.659 159.224ZM276.659 158.328C275.731 158.328 275.091 157.368 275.091 155.496C275.091 153.624 275.731 152.728 276.659 152.728C277.571 152.728 278.211 153.624 278.211 155.496C278.211 157.368 277.571 158.328 276.659 158.328ZM280.562 155.288V156.408H295.33V155.288H280.562ZM281.154 146.536V147.656H294.738V146.536H281.154ZM283.25 152.248V153.304H292.658V152.248H283.25ZM292.194 149.224V158.808C292.194 159.08 292.098 159.16 291.81 159.16C291.522 159.176 290.498 159.192 289.442 159.16C289.618 159.464 289.81 159.992 289.874 160.312C291.266 160.312 292.162 160.296 292.674 160.104C293.218 159.912 293.378 159.544 293.378 158.808V149.224H292.194ZM282.466 149.224V160.312H283.65V150.328H292.69V149.224H282.466ZM287.266 146.888V155.704H288.466V146.888H287.266ZM306.306 147.336V156.184H307.426V147.336H306.306ZM309.33 145.64V158.696C309.33 158.968 309.218 159.048 308.946 159.064C308.69 159.08 307.826 159.08 306.85 159.048C307.01 159.4 307.186 159.928 307.25 160.248C308.562 160.248 309.362 160.216 309.826 160.024C310.29 159.816 310.482 159.448 310.482 158.696V145.64H309.33ZM298.594 152.44V153.24H303.954V152.44H298.594ZM299.33 158.568V159.512H304.274V158.568H299.33ZM297.906 150.52V152.68C297.906 154.504 297.746 157.144 296.465 159.096C296.77 159.208 297.266 159.432 297.49 159.624C298.786 157.592 299.026 154.68 299.026 152.68V150.52H297.906ZM298.578 150.52V151.416H303.362V154.344H298.514V155.24H304.466V150.52H298.578ZM298.866 155.976V160.184H299.906V156.872H303.778V160.152H304.85V155.976H298.866ZM301.026 145.688C300.049 147.288 298.274 148.664 296.498 149.512C296.706 149.768 297.042 150.36 297.17 150.616C299.058 149.592 300.994 147.976 302.13 146.088L301.026 145.688ZM300.658 147C302.018 147.832 303.858 149.048 304.77 149.816L305.41 148.824C304.498 148.088 302.61 146.936 301.282 146.152L300.658 147ZM299.65 148.92V149.72H303.026V148.92H299.65ZM317.362 159H318.738V147.272H317.122L312.242 154.808V155.768H320.306V154.616H313.778L316.45 150.616C316.77 150.04 317.09 149.448 317.378 148.872H317.458C317.41 149.48 317.362 150.424 317.362 151.016V159ZM325.261 159.224C327.469 159.224 328.892 157.192 328.892 153.096C328.892 149.032 327.469 147.064 325.261 147.064C323.021 147.064 321.597 149.032 321.597 153.096C321.597 157.192 323.021 159.224 325.261 159.224ZM325.261 158.04C323.917 158.04 323.005 156.552 323.005 153.096C323.005 149.688 323.917 148.232 325.261 148.232C326.589 148.232 327.485 149.688 327.485 153.096C327.485 156.552 326.589 158.04 325.261 158.04ZM334.12 145.512C333.336 147.672 332.008 149.752 330.488 151.08C330.792 151.24 331.288 151.64 331.528 151.848C333.016 150.408 334.44 148.184 335.32 145.816L334.12 145.512ZM333.864 147.496L333.288 148.664H344.184V147.496H333.864ZM333.08 151.128V156.04H334.28V152.248H343.832V151.128H333.08ZM330.44 155.432V156.6H344.936V155.432H330.44ZM337.88 148.104V160.296H339.112V148.104H337.88ZM76.552 174.968V176.088H82.328V174.968H76.552ZM67.976 171.24V172.264H75.032V171.24H67.976ZM67.8 177.592V178.632H75.112V177.592H67.8ZM67.72 174.904V175.928H75.288V174.904H67.72ZM79.4 175.448V184.216H80.568V175.448H79.4ZM69.016 172.584C69.304 173.288 69.544 174.232 69.624 174.84L70.648 174.552C70.568 173.96 70.296 173.048 69.992 172.36L69.016 172.584ZM73.032 172.344C72.808 173.144 72.408 174.344 72.072 175.08L73.064 175.32C73.4 174.616 73.8 173.528 74.136 172.584L73.032 172.344ZM81.08 169.848C79.928 170.344 77.88 170.808 76.072 171.112C76.216 171.368 76.392 171.768 76.456 172.024C78.344 171.752 80.536 171.304 82.056 170.744L81.08 169.848ZM70.424 169.784C70.792 170.456 71.192 171.352 71.368 171.912L72.6 171.544C72.424 171 71.992 170.12 71.608 169.48L70.424 169.784ZM76.072 171.112V176.648C76.072 178.792 75.96 181.544 74.6 183.48C74.856 183.624 75.32 183.992 75.512 184.216C76.984 182.12 77.192 178.952 77.192 176.648V171.112H76.072ZM72.92 179.816C73.4 180.616 73.976 181.72 74.232 182.408L75.08 181.912C74.84 181.224 74.264 180.184 73.736 179.384L72.92 179.816ZM69.224 179.48C68.872 180.536 68.328 181.64 67.704 182.392C67.944 182.52 68.36 182.824 68.536 182.984C69.16 182.168 69.816 180.904 70.2 179.752L69.224 179.48ZM71.016 175.432V184.216H72.184V175.432H71.016ZM83.944 171.24V172.28H97.992V171.24H83.944ZM87.56 174.072H94.488V175.512H87.56V174.072ZM86.36 173.176V176.392H95.736V173.176H86.36ZM84.52 177.288V184.28H85.688V178.312H97.096V177.288H84.52ZM96.28 177.288V183.016C96.28 183.208 96.2 183.256 95.992 183.272C95.8 183.272 95.064 183.288 94.36 183.256C94.52 183.496 94.68 183.88 94.744 184.152C95.768 184.168 96.472 184.152 96.888 184.008C97.336 183.848 97.48 183.592 97.48 183.016V177.288H96.28ZM90.04 169.784C90.28 170.488 90.6 171.416 90.728 171.976L91.944 171.624C91.816 171.096 91.48 170.2 91.208 169.512L90.04 169.784ZM88.12 179.256V180.152H93.208V181.656H88.12V182.552H94.28V179.256H88.12ZM87.496 179.256V183.352H88.616V179.256H87.496ZM105.688 179.992C107.368 179.416 108.456 178.104 108.456 176.376C108.456 175.256 107.976 174.52 107.08 174.52C106.44 174.52 105.864 174.92 105.864 175.672C105.864 176.424 106.408 176.824 107.064 176.824C107.368 176.824 107.688 176.744 107.912 176.456L107.048 175.24L107.352 176.584C107.352 177.8 106.632 178.616 105.32 179.144L105.688 179.992ZM119.912 182.52V183.64H130.456V182.52H119.912ZM122.504 176.104H127.816V179.32H122.504V176.104ZM122.504 171.832H127.816V174.984H122.504V171.832ZM121.272 170.712V180.44H129.096V170.712H121.272ZM119.448 169.624C118.536 172.056 117.016 174.456 115.416 176.008C115.64 176.296 115.992 176.936 116.12 177.224C117.88 175.432 119.544 172.712 120.6 169.992L119.448 169.624ZM117.736 173.752V184.264H118.936V172.6L118.92 172.584L117.736 173.752ZM136.392 176.088V177.192H146.088V176.088H136.392ZM135.16 174.216C134.328 175.96 133 177.688 131.656 178.84C131.912 179.064 132.328 179.576 132.488 179.816C133.896 178.536 135.352 176.552 136.296 174.584L135.16 174.216ZM142.728 174.344V182.744C142.728 183.016 142.648 183.096 142.328 183.096C142.024 183.112 140.968 183.128 139.816 183.096C139.992 183.416 140.184 183.928 140.232 184.248C141.688 184.248 142.632 184.232 143.176 184.056C143.72 183.864 143.896 183.512 143.896 182.76V174.344H142.728ZM137.32 178.584C138.024 179.608 138.92 180.984 139.336 181.784L140.344 181.176C139.896 180.392 138.984 179.064 138.28 178.072L137.32 178.584ZM134.04 176.856V184.28H135.192V175.736V175.72L134.04 176.856ZM133.864 170.84V171.912H138.952V170.84H133.864ZM140.248 170.84V171.912H146.216V170.84H140.248ZM134.12 169.48C133.592 170.92 132.648 172.312 131.624 173.224C131.864 173.464 132.264 173.992 132.424 174.248C133.544 173.176 134.648 171.512 135.288 169.816L134.12 169.48ZM140.408 169.496C140.024 171.032 139.304 172.504 138.392 173.464C138.664 173.672 139.144 174.088 139.336 174.312C140.296 173.224 141.128 171.528 141.624 169.8L140.408 169.496ZM134.728 172.664C135.224 173.16 135.848 173.864 136.104 174.328L136.968 173.56C136.68 173.112 136.056 172.472 135.544 171.992L134.728 172.664ZM141.464 172.6C142.024 173.096 142.696 173.816 143 174.28L143.848 173.528C143.512 173.064 142.84 172.392 142.264 171.944L141.464 172.6ZM150.968 174.792V175.912H159.048V174.792H150.968ZM150.68 182.232V183.368H159.256V182.232H150.68ZM150.136 177.832V184.248H151.336V178.92H158.808V184.2H160.072V177.832H150.136ZM155.256 169.528C153.624 172.008 150.68 174.136 147.624 175.336C147.96 175.624 148.296 176.072 148.504 176.392C151.592 175.032 154.536 172.728 156.312 170.056L155.256 169.528ZM155.496 170.456L154.472 170.984C156.6 173.416 158.92 174.936 161.656 176.248C161.832 175.88 162.184 175.432 162.488 175.16C159.8 174.024 157.448 172.616 155.496 170.456ZM163.944 170.344V171.4H169.144V170.344H163.944ZM163.592 175.416V176.504H169.704V175.416H163.592ZM166.232 175.944V182.856C166.232 183.048 166.168 183.112 165.944 183.112C165.72 183.128 164.968 183.128 164.152 183.112C164.312 183.432 164.488 183.928 164.536 184.248C165.64 184.248 166.344 184.232 166.792 184.04C167.256 183.864 167.384 183.512 167.384 182.872V175.944H166.232ZM168.776 170.344V170.584C168.28 171.496 167.272 172.792 166.392 173.544C166.6 173.72 166.92 174.04 167.096 174.248C168.104 173.4 169.256 172.024 170.024 170.792L169.256 170.28L169.032 170.344H168.776ZM169.368 175.416V175.592C169.048 176.696 168.584 178.04 168.2 178.856L169.128 179.096C169.544 178.216 170.056 176.824 170.472 175.576L169.72 175.368L169.544 175.416H169.368ZM164.392 173.144C165.736 173.864 167.32 174.984 168.088 175.816L168.776 174.936C167.992 174.12 166.376 173.048 165.032 172.344L164.392 173.144ZM170.136 170.312V171.352H178.264V170.312H170.136ZM171.864 176.264H176.552V177.832H171.864V176.264ZM171.864 178.712H176.552V180.296H171.864V178.712ZM171.864 173.816H176.552V175.368H171.864V173.816ZM170.744 172.888V181.24H177.72V172.888H170.744ZM173.576 170.824C173.48 171.56 173.256 172.664 173.064 173.384L174.12 173.592C174.376 172.92 174.664 171.912 174.936 170.984L173.576 170.824ZM172.344 181.528C171.656 182.232 170.216 183.064 168.936 183.528C169.176 183.736 169.56 184.104 169.736 184.344C171.016 183.864 172.52 183 173.4 182.152L172.344 181.528ZM174.824 182.216C175.816 182.824 177.048 183.736 177.64 184.328L178.6 183.64C177.944 183.032 176.712 182.168 175.736 181.608L174.824 182.216ZM188.76 170.36V171.464H193.208V170.36H188.76ZM188.76 174.04V175.112H193.208V174.04H188.76ZM188.744 177.768V178.856H193.24V177.768H188.744ZM192.664 170.36V182.744C192.664 182.984 192.584 183.064 192.344 183.064C192.104 183.08 191.304 183.08 190.456 183.064C190.616 183.368 190.792 183.896 190.824 184.232C192.008 184.232 192.76 184.2 193.208 184.008C193.672 183.816 193.832 183.448 193.832 182.76V170.36H192.664ZM188.264 170.36V176.168C188.264 178.488 188.152 181.528 186.808 183.672C187.08 183.784 187.56 184.136 187.768 184.36C189.208 182.088 189.4 178.632 189.4 176.168V170.36H188.264ZM179.816 171.704V172.76H187.48V171.704H179.816ZM181.704 174.184V175.16H185.752V174.184H181.704ZM181.704 176.728V177.688H185.768V176.728H181.704ZM179.608 179.304V180.376H187.48V179.304H179.608ZM181.176 169.752V179.736H182.28V169.752H181.176ZM185.192 169.752V179.736H186.296V169.752H185.192ZM181.832 180.728C181.352 181.8 180.52 182.872 179.624 183.592C179.912 183.752 180.376 184.104 180.6 184.296C181.464 183.496 182.392 182.264 182.984 181.048L181.832 180.728ZM184.136 181.224C184.76 181.976 185.48 183.032 185.784 183.672L186.76 183.096C186.44 182.44 185.688 181.448 185.064 180.728L184.136 181.224Z" fill="black"/>
<path d="M284.656 87.184V92.096H285.824V88.096H294.16V92.096H295.376V87.184H284.656ZM286.528 89.056V89.856H293.44V89.056H286.528ZM286.528 90.832V91.68H293.424V90.832H286.528ZM282.896 92.736V93.728H297.024V92.736H282.896ZM289.856 94.736V95.712H295.616V94.736H289.856ZM284.944 94.784V95.68H288.88V94.784H284.944ZM284.944 96.752V97.648H288.88V96.752H284.944ZM291.632 95.632L290.672 95.92C291.728 98.544 293.792 100.448 296.608 101.28C296.768 100.992 297.088 100.56 297.328 100.336C294.624 99.664 292.576 97.92 291.632 95.632ZM295.328 94.736V94.928C294.464 97.648 292.016 99.536 289.44 100.304C289.68 100.528 289.968 100.976 290.112 101.248C292.88 100.288 295.44 98.272 296.496 94.992L295.76 94.688L295.552 94.736H295.328ZM282.704 99.216L282.832 100.272C284.464 100.096 286.72 99.84 288.912 99.568L288.88 98.592C286.592 98.848 284.256 99.088 282.704 99.216ZM288.256 93.056V101.28H289.408V93.056H288.256ZM284.24 93.056V99.488H285.36V93.056H284.24ZM310 86.944C310.592 87.344 311.376 87.92 311.776 88.288L312.512 87.68C312.096 87.328 311.312 86.784 310.72 86.416L310 86.944ZM300.48 88.24V89.264H313.136V88.24H300.48ZM301.792 90.4V91.28H307.728V90.4H301.792ZM311.536 90.192C310.624 92.608 309.024 94.704 307.072 96.016C307.312 96.192 307.744 96.608 307.92 96.8C309.84 95.36 311.552 93.12 312.576 90.48L311.536 90.192ZM308.48 86.56C308.608 93.904 309.952 101.216 312.064 101.216C313.072 101.216 313.456 100.448 313.616 97.888C313.328 97.76 312.928 97.52 312.688 97.264C312.64 99.2 312.464 100.096 312.208 100.096C311.184 100.08 309.616 93.792 309.632 86.56H308.48ZM299.904 88.24V91.616C299.904 94.16 299.776 97.936 298.496 100.656C298.752 100.768 299.248 101.104 299.456 101.296C300.8 98.448 301.008 94.304 301.008 91.616V88.24H299.904ZM302.784 96.896V99.792C302.784 100.816 303.088 101.088 304.256 101.088C304.48 101.088 305.904 101.088 306.16 101.088C307.136 101.088 307.408 100.624 307.504 98.736C307.232 98.672 306.848 98.528 306.624 98.368C306.592 99.984 306.496 100.208 306.048 100.208C305.744 100.208 304.576 100.208 304.368 100.208C303.872 100.208 303.792 100.144 303.792 99.792V96.896H302.784ZM304.064 96.32C304.56 97.072 305.184 98.112 305.472 98.72L306.288 98.304C305.984 97.696 305.344 96.704 304.832 95.968L304.064 96.32ZM307.28 97.312C307.792 98.368 308.4 99.776 308.688 100.608L309.6 100.224C309.296 99.424 308.656 98.032 308.112 97.008L307.28 97.312ZM301.536 97.104C301.36 98.112 301.024 99.456 300.608 100.272L301.44 100.688C301.856 99.824 302.176 98.416 302.336 97.376L301.536 97.104ZM303.12 93.216H306.432V95.056H303.12V93.216ZM302.128 92.368V95.92H307.408V92.368H302.128ZM314.752 96.352V97.472H329.216V96.352H314.752ZM320.56 89.456V90.288H323.312V89.456H320.56ZM325.216 87.28V88.288H327.792V87.28H325.216ZM325.296 90.432V91.424H327.664V90.432H325.296ZM325.2 93.424V94.416H327.52V93.424H325.2ZM316.352 90.384V91.376H318.72V90.384H316.352ZM316.432 93.376V94.368H318.8V93.376H316.432ZM319.216 87.392V96.944H320.128V88.336H323.824V96.944H324.752V87.392H319.216ZM321.392 92.144H322.576V94.288H321.392V92.144ZM320.768 91.36V95.072H323.216V91.36H320.768ZM327.168 87.28C327.168 90.336 327.04 94.624 326.848 97.072H327.904C328.08 94.688 328.192 90.4 328.224 87.28H327.168ZM318.528 86.752C317.808 87.104 316.688 87.488 315.792 87.76C315.904 88.032 316.048 88.416 316.08 88.672C317.024 88.464 318.176 88.128 319.104 87.792L318.528 86.752ZM315.792 87.76L316.048 96.672H317.104L316.832 88.08L315.792 87.76ZM323.536 98.48C325.216 99.312 326.992 100.384 328.08 101.168L328.88 100.24C327.76 99.472 325.904 98.464 324.192 97.648L323.536 98.48ZM319.36 97.776C318.336 98.64 316.4 99.728 314.864 100.352C315.104 100.608 315.408 101.008 315.568 101.264C317.136 100.576 319.088 99.504 320.384 98.496L319.36 97.776ZM336.288 87.216V88.256H341.712V87.216H336.288ZM341.296 88.496V89.504H344.256V88.496H341.296ZM337.552 90.16V91.104H340.304V90.16H337.552ZM337.552 93.088V94.064H340.304V93.088H337.552ZM339.856 87.632V99.264H340.848V87.632H339.856ZM337.152 87.568V97.024L338.128 96.848V87.568H337.152ZM336.24 96.752L336.48 97.776C337.696 97.472 339.232 97.072 340.72 96.672L340.608 95.76C338.976 96.16 337.376 96.528 336.24 96.752ZM343.936 88.496V88.752C343.536 92.832 342.4 96.192 340.768 98.016C341.008 98.176 341.392 98.576 341.552 98.832C343.232 96.864 344.48 93.264 344.976 88.672L344.336 88.464L344.128 88.496H343.936ZM331.184 88.464V89.52H336.192V88.464H331.184ZM330.768 91.408V92.496H336.48V91.408H330.768ZM334.112 94.608V95.68H336.448V94.608H334.112ZM333.344 86.56V92.08H334.432V86.56H333.344ZM333.696 92.16V99.392H334.768V92.16H333.696ZM332.48 95.68L331.6 95.984C332.704 100.016 334.688 100.864 338.992 100.864H344.944C345.024 100.512 345.232 99.968 345.44 99.68C344.464 99.728 339.728 99.712 338.992 99.712C335.28 99.712 333.392 99.04 332.48 95.68ZM331.568 93.808C331.616 95.936 331.504 98.624 330.368 100.56C330.624 100.672 331.008 101.024 331.184 101.264C332.464 99.136 332.608 96.256 332.576 93.856L331.568 93.808ZM341.088 90.912C342.432 93.28 343.856 96.432 344.4 98.304L345.36 97.904C344.8 96.032 343.328 92.96 341.952 90.608L341.088 90.912Z" fill="black"/>
<line x1="47" y1="119.5" x2="367" y2="119.5" stroke="#EEEEEE"/>
<rect x="47" y="117" width="106" height="3" fill="#D60C18"/>
<line x1="206.25" y1="201" x2="206.25" y2="217" stroke="#D60C18" stroke-width="0.5"/>
<line x1="99.75" y1="80" x2="99.75" y2="54" stroke="#D60C18" stroke-width="0.5"/>
<line x1="313.75" y1="80" x2="313.75" y2="54" stroke="#D60C18" stroke-width="0.5"/>
<path d="M196.634 224.166C195.822 225.188 194.506 226.168 193.232 226.798C193.456 226.994 193.82 227.4 193.974 227.61C195.262 226.868 196.69 225.706 197.628 224.488L196.634 224.166ZM200.204 224.768C201.506 225.58 203.074 226.77 203.83 227.582L204.586 226.868C203.802 226.084 202.192 224.922 200.904 224.166L200.204 224.768ZM195.08 229.43V234.134H196.088V230.368H201.87V234.078H202.934V229.43H195.08ZM195.626 232.72V233.658H202.388V232.72H195.626ZM193.148 222.542V225.09H194.184V223.494H203.774V225.09H204.838V222.542H193.148ZM198.062 221.394C198.37 221.94 198.706 222.654 198.832 223.102L199.952 222.822C199.812 222.36 199.462 221.66 199.126 221.142L198.062 221.394ZM198.93 225.384C197.586 227.456 195.108 229.22 192.518 230.186C192.756 230.396 193.036 230.76 193.19 231.026C195.878 229.92 198.37 228.058 199.84 225.79L198.93 225.384ZM199.336 225.874L198.482 226.266C200.26 228.464 202.304 229.752 204.74 230.858C204.894 230.55 205.174 230.186 205.426 229.976C203.032 229.024 200.96 227.848 199.336 225.874ZM208.688 222.738H211.194V224.866H208.688V222.738ZM207.75 221.87V225.734H212.16V221.87H207.75ZM214.68 222.738H217.284V224.866H214.68V222.738ZM213.742 221.87V225.734H218.264V221.87H213.742ZM206.714 227.064V227.974H219.286V227.064H206.714ZM208.506 232.79V233.658H211.908V232.79H208.506ZM214.078 232.79V233.658H217.606V232.79H214.078ZM208.03 229.752V234.106H208.968V230.606H211.362V234.036H212.328V229.752H208.03ZM213.63 229.752V234.106H214.554V230.606H217.06V234.036H218.04V229.752H213.63ZM212.076 225.482C211.306 227.19 209.43 229.052 206.392 230.158C206.602 230.326 206.868 230.69 206.98 230.928C210.158 229.682 212.118 227.708 213.112 225.678L212.076 225.482ZM214.61 226.21C215.31 226.476 216.178 226.938 216.612 227.288L217.158 226.7C216.71 226.35 215.828 225.916 215.128 225.678L214.61 226.21ZM213.812 227.792C215.73 228.66 217.592 229.836 218.67 230.83L219.398 230.2C218.278 229.192 216.304 228.03 214.372 227.176L213.812 227.792Z" fill="black"/>
<path d="M79.924 38.986V40.008H85.398V38.986H79.924ZM82.724 39.672V47.078H83.76V39.672H82.724ZM73.372 35.626V40.526C73.372 42.36 73.288 44.768 72.392 46.49C72.63 46.602 73.064 46.966 73.246 47.148C74.268 45.314 74.394 42.514 74.394 40.526V35.626H73.372ZM84.432 34.422C83.284 34.954 81.226 35.402 79.476 35.654C79.602 35.892 79.742 36.284 79.798 36.536C81.59 36.298 83.76 35.892 85.146 35.304L84.432 34.422ZM73.946 37.768V38.72H77.166V40.96H73.946V41.912H78.188V37.768H73.946ZM78.16 34.534C77.068 35.052 75.052 35.43 73.372 35.626C73.498 35.878 73.638 36.242 73.68 36.494C75.402 36.326 77.516 35.99 78.846 35.416L78.16 34.534ZM79.476 35.654V40.316C79.476 42.262 79.308 44.726 77.642 46.448C77.88 46.588 78.3 46.952 78.468 47.148C80.274 45.328 80.54 42.444 80.54 40.33V35.654H79.476ZM86.868 36.41V37.432H99.132V36.41H86.868ZM91.208 40.848V41.828H98.586V40.848H91.208ZM90.662 45.804V46.798H99.132V45.804H90.662ZM94.372 38.146V46.336H95.422V38.146H94.372ZM91.474 34.24C90.69 37.124 89.052 40.232 86.532 42.01C86.7 42.248 86.966 42.696 87.078 42.976C89.864 40.974 91.572 37.712 92.552 34.506L91.474 34.24ZM88.702 40.008V47.078H89.752V40.008H88.702ZM105.152 36.788V37.81H112.782V36.788H105.152ZM106.076 38.874C106.51 40.834 106.916 43.41 107.028 44.88L108.078 44.586C107.924 43.158 107.49 40.624 107.028 38.664L106.076 38.874ZM110.836 38.552C110.556 40.722 109.968 43.83 109.436 45.706L110.36 45.93C110.906 44.054 111.536 41.058 111.942 38.734L110.836 38.552ZM104.564 45.538V46.546H113.356V45.538H104.564ZM107.966 34.408C108.232 35.108 108.526 36.046 108.638 36.634L109.674 36.34C109.534 35.738 109.226 34.842 108.96 34.142L107.966 34.408ZM104.004 34.296C103.206 36.424 101.904 38.524 100.518 39.882C100.714 40.12 101.022 40.68 101.12 40.918C102.646 39.35 104.074 36.984 104.984 34.604L104.004 34.296ZM102.506 37.908V47.106H103.556V36.872V36.858L102.506 37.908ZM123.114 35.542H125.466V36.802H123.114V35.542ZM119.838 35.542H122.148V36.802H119.838V35.542ZM116.632 35.542H118.872V36.802H116.632V35.542ZM115.624 34.772V37.558H126.516V34.772H115.624ZM114.938 38.384V39.196H126.908V38.384H114.938ZM120.384 37.306C120.272 38.272 120.048 39.518 119.852 40.33H120.846C121.056 39.546 121.294 38.356 121.462 37.362L120.384 37.306ZM114.798 45.916V46.714H127.23V45.916H114.798ZM117.164 41.534V42.164H124.794V41.534H117.164ZM117.22 42.962V43.592H124.766V42.962H117.22ZM117.262 44.432V45.062H124.822V44.432H117.262ZM116.66 40.036V46.35H117.654V40.75H124.262V46.35H125.298V40.036H116.66Z" fill="black"/>
<path d="M300.728 35.878V36.858H305.488V35.878H300.728ZM302.576 36.396V43.144H303.626V36.396H302.576ZM300.434 43.452L300.854 44.46C302.226 43.97 304.088 43.312 305.824 42.668L305.656 41.744C303.738 42.402 301.722 43.074 300.434 43.452ZM305.558 34.912V35.822H313.468V34.912H305.558ZM307.224 40.162H311.9V41.52H307.224V40.162ZM307.224 42.304H311.9V43.676H307.224V42.304ZM307.224 38.034H311.9V39.378H307.224V38.034ZM306.244 37.208V44.502H312.936V37.208H306.244ZM308.946 35.36C308.848 36.046 308.624 37.012 308.428 37.656L309.38 37.838C309.618 37.25 309.898 36.34 310.15 35.528L308.946 35.36ZM307.756 44.712C307.056 45.314 305.614 46.014 304.41 46.392C304.62 46.602 304.928 46.924 305.082 47.134C306.314 46.728 307.756 46.014 308.666 45.3L307.756 44.712ZM310.08 45.342C311.046 45.846 312.278 46.63 312.866 47.148L313.706 46.518C313.048 45.986 311.816 45.244 310.878 44.768L310.08 45.342ZM316.926 38.426V39.42H325.032V38.426H316.926ZM316.926 41.744V42.738H325.032V41.744H316.926ZM316.926 45.076V46.098H325.032V45.076H316.926ZM316.198 35.108V47.05H317.248V36.144H324.612V47.05H325.704V35.108H316.198Z" fill="black"/>
<line x1="67.5" y1="163.5" x2="67.5" y2="143.5" stroke="#939EA7" stroke-linecap="square" stroke-dasharray="2 2"/>
<line x1="47.5" y1="163.5" x2="47.5" y2="143.5" stroke="#939EA7" stroke-linecap="square" stroke-dasharray="2 2"/>
<line x1="26.5" y1="142" x2="46.5" y2="142" stroke="#939EA7" stroke-linecap="square" stroke-dasharray="2 2"/>
<path d="M51.528 157H57.048V156.064H54.612C54.168 156.064 53.64 156.1 53.172 156.148C55.248 154.192 56.628 152.404 56.628 150.64C56.628 149.068 55.644 148.048 54.072 148.048C52.956 148.048 52.188 148.564 51.468 149.344L52.104 149.956C52.596 149.38 53.22 148.936 53.94 148.936C55.032 148.936 55.548 149.68 55.548 150.688C55.548 152.188 54.288 153.952 51.528 156.364V157ZM60.9923 157.168C62.6483 157.168 63.7162 155.644 63.7162 152.572C63.7162 149.524 62.6483 148.048 60.9923 148.048C59.3123 148.048 58.2443 149.524 58.2443 152.572C58.2443 155.644 59.3123 157.168 60.9923 157.168ZM60.9923 156.28C59.9843 156.28 59.3003 155.164 59.3003 152.572C59.3003 150.016 59.9843 148.924 60.9923 148.924C61.9883 148.924 62.6603 150.016 62.6603 152.572C62.6603 155.164 61.9883 156.28 60.9923 156.28Z" fill="#D60C18"/>
<path d="M33.132 95.168C34.608 95.168 36.012 94.064 36.012 92.144C36.012 90.2 34.824 89.336 33.36 89.336C32.832 89.336 32.436 89.468 32.04 89.684L32.268 87.14H35.592V86.204H31.308L31.032 90.32L31.62 90.692C32.124 90.356 32.496 90.164 33.084 90.164C34.176 90.164 34.896 90.92 34.896 92.18C34.896 93.452 34.068 94.256 33.024 94.256C32.016 94.256 31.368 93.788 30.876 93.272L30.324 93.992C30.924 94.592 31.764 95.168 33.132 95.168ZM39.7883 95.168C41.2643 95.168 42.6683 94.064 42.6683 92.144C42.6683 90.2 41.4803 89.336 40.0163 89.336C39.4883 89.336 39.0923 89.468 38.6963 89.684L38.9243 87.14H42.2483V86.204H37.9643L37.6883 90.32L38.2763 90.692C38.7803 90.356 39.1523 90.164 39.7402 90.164C40.8323 90.164 41.5523 90.92 41.5523 92.18C41.5523 93.452 40.7243 94.256 39.6803 94.256C38.6723 94.256 38.0243 93.788 37.5323 93.272L36.9803 93.992C37.5803 94.592 38.4202 95.168 39.7883 95.168Z" fill="#D60C18"/>
<path d="M30.028 136H35.548V135.064H33.112C32.668 135.064 32.14 135.1 31.672 135.148C33.748 133.192 35.128 131.404 35.128 129.64C35.128 128.068 34.144 127.048 32.572 127.048C31.456 127.048 30.688 127.564 29.968 128.344L30.604 128.956C31.096 128.38 31.72 127.936 32.44 127.936C33.532 127.936 34.048 128.68 34.048 129.688C34.048 131.188 32.788 132.952 30.028 135.364V136ZM39.4923 136.168C41.1483 136.168 42.2162 134.644 42.2162 131.572C42.2162 128.524 41.1483 127.048 39.4923 127.048C37.8123 127.048 36.7443 128.524 36.7443 131.572C36.7443 134.644 37.8123 136.168 39.4923 136.168ZM39.4923 135.28C38.4843 135.28 37.8003 134.164 37.8003 131.572C37.8003 129.016 38.4843 127.924 39.4923 127.924C40.4883 127.924 41.1603 129.016 41.1603 131.572C41.1603 134.164 40.4883 135.28 39.4923 135.28Z" fill="#D60C18"/>
<path d="M23.156 123.168C24.728 123.168 25.988 122.22 25.988 120.66C25.988 119.448 25.148 118.668 24.116 118.416V118.368C25.052 118.032 25.676 117.324 25.676 116.256C25.676 114.852 24.596 114.048 23.12 114.048C22.112 114.048 21.332 114.492 20.672 115.092L21.26 115.8C21.752 115.296 22.376 114.936 23.084 114.936C23.996 114.936 24.56 115.488 24.56 116.328C24.56 117.288 23.948 118.008 22.136 118.008V118.86C24.164 118.86 24.872 119.556 24.872 120.612C24.872 121.62 24.128 122.256 23.084 122.256C22.076 122.256 21.416 121.776 20.9 121.236L20.348 121.956C20.924 122.592 21.776 123.168 23.156 123.168Z" fill="#D60C18"/>
<line x1="29" y1="115" x2="46" y2="115" stroke="#939EA7" stroke-linecap="square" stroke-dasharray="2 2"/>
<line x1="29" y1="121.5" x2="46" y2="121.5" stroke="#939EA7" stroke-linecap="square" stroke-dasharray="2 2"/>
<line x1="29" y1="66" x2="46" y2="66" stroke="#939EA7" stroke-linecap="square" stroke-dasharray="2 2"/>
<defs>
<clipPath id="clip0_45_235">
<rect width="13" height="13" fill="white" transform="translate(342 294)"/>
</clipPath>
</defs>
</svg>
