<svg width="467" height="119" viewBox="0 0 467 119" fill="none" xmlns="http://www.w3.org/2000/svg">
<rect x="0.5" y="0.5" width="466" height="118" fill="white" stroke="#EBEBEB"/>
<path d="M48.656 22.184V27.096H49.824V23.096H58.16V27.096H59.376V22.184H48.656ZM50.528 24.056V24.856H57.44V24.056H50.528ZM50.528 25.832V26.68H57.424V25.832H50.528ZM46.896 27.736V28.728H61.024V27.736H46.896ZM53.856 29.736V30.712H59.616V29.736H53.856ZM48.944 29.784V30.68H52.88V29.784H48.944ZM48.944 31.752V32.648H52.88V31.752H48.944ZM55.632 30.632L54.672 30.92C55.728 33.544 57.792 35.448 60.608 36.28C60.768 35.992 61.088 35.56 61.328 35.336C58.624 34.664 56.576 32.92 55.632 30.632ZM59.328 29.736V29.928C58.464 32.648 56.016 34.536 53.44 35.304C53.68 35.528 53.968 35.976 54.112 36.248C56.88 35.288 59.44 33.272 60.496 29.992L59.76 29.688L59.552 29.736H59.328ZM46.704 34.216L46.832 35.272C48.464 35.096 50.72 34.84 52.912 34.568L52.88 33.592C50.592 33.848 48.256 34.088 46.704 34.216ZM52.256 28.056V36.28H53.408V28.056H52.256ZM48.24 28.056V34.488H49.36V28.056H48.24ZM63.584 22.728V23.608H69.408V22.728H63.584ZM70.24 23.848V24.92H75.184V23.848H70.24ZM62.976 24.808V25.72H69.936V24.808H62.976ZM65.936 21.64V25.24H67.024V21.64H65.936ZM65.936 27.608V31.608H67.024V27.608H65.936ZM63.376 28.76V29.688H69.52V28.76H63.376ZM62.816 31.416L62.928 32.44C64.768 32.264 67.392 31.976 69.92 31.704V30.76C67.296 31.032 64.592 31.288 62.816 31.416ZM72.08 21.56C72.032 26.504 71.936 29.944 69.392 31.864C69.664 32.024 70 32.392 70.176 32.648C72.928 30.536 73.104 26.824 73.168 21.56H72.08ZM70.112 27.128C71.36 28.008 73.04 29.272 73.872 30.024L74.432 29.016C73.584 28.296 71.872 27.112 70.64 26.264L70.112 27.128ZM74.624 23.848V30.504C74.624 31.608 74.688 31.864 74.896 32.072C75.12 32.28 75.44 32.36 75.712 32.36C75.872 32.36 76.16 32.36 76.336 32.36C76.608 32.36 76.864 32.296 77.04 32.168C77.232 32.04 77.36 31.816 77.424 31.448C77.488 31.112 77.552 30.104 77.568 29.272C77.28 29.192 76.944 29.032 76.736 28.824C76.736 29.752 76.72 30.44 76.688 30.776C76.656 31.064 76.624 31.224 76.56 31.288C76.512 31.368 76.416 31.384 76.304 31.384C76.208 31.384 76.064 31.384 75.984 31.384C75.904 31.384 75.84 31.368 75.792 31.32C75.728 31.24 75.728 30.984 75.728 30.584V23.848H74.624ZM67.472 33.432C67.648 34.312 67.76 35.448 67.76 36.152L68.96 35.992C68.944 35.32 68.784 34.216 68.576 33.336L67.472 33.432ZM70.752 33.4C71.136 34.28 71.504 35.416 71.632 36.136L72.816 35.88C72.672 35.192 72.272 34.056 71.872 33.208L70.752 33.4ZM74.064 33.352C74.816 34.264 75.68 35.512 76.064 36.312L77.248 35.88C76.848 35.08 75.952 33.864 75.2 32.984L74.064 33.352ZM64.752 33.032C64.32 34.088 63.568 35.192 62.784 35.832L63.888 36.296C64.704 35.592 65.44 34.408 65.888 33.336L64.752 33.032ZM64.88 25.432C64.752 26.6 64.272 27.224 62.688 27.592C62.88 27.752 63.136 28.104 63.232 28.328C65.088 27.848 65.68 26.968 65.856 25.432H64.88ZM67.072 25.336V26.52C67.072 27.416 67.248 27.768 68.096 27.768C68.304 27.768 69.024 27.768 69.232 27.768C69.504 27.768 69.824 27.752 70 27.688C69.952 27.464 69.936 27.144 69.904 26.92C69.728 26.968 69.392 26.984 69.216 26.984C69.04 26.984 68.4 26.984 68.224 26.984C68.032 26.984 68 26.888 68 26.536V25.336H67.072ZM80.032 24.744V25.656H84.48V24.744H80.032ZM87.392 24.744V25.656H91.92V24.744H87.392ZM91.408 22.328V34.648C91.408 34.952 91.312 35.032 90.992 35.048C90.672 35.064 89.568 35.08 88.464 35.016C88.64 35.368 88.848 35.928 88.912 36.264C90.368 36.264 91.312 36.248 91.872 36.04C92.416 35.848 92.608 35.464 92.608 34.648V22.328H91.408ZM80.128 22.328V23.336H84.048V27.192H80.128V28.2H85.184V22.328H80.128ZM92.032 22.328H86.688V28.216H92.032V27.208H87.84V23.336H92.032V22.328ZM79.456 22.328V36.28H80.64V22.328H79.456Z" fill="black"/>
<path d="M162.656 22.184V27.096H163.824V23.096H172.16V27.096H173.376V22.184H162.656ZM164.528 24.056V24.856H171.44V24.056H164.528ZM164.528 25.832V26.68H171.424V25.832H164.528ZM160.896 27.736V28.728H175.024V27.736H160.896ZM167.856 29.736V30.712H173.616V29.736H167.856ZM162.944 29.784V30.68H166.88V29.784H162.944ZM162.944 31.752V32.648H166.88V31.752H162.944ZM169.632 30.632L168.672 30.92C169.728 33.544 171.792 35.448 174.608 36.28C174.768 35.992 175.088 35.56 175.328 35.336C172.624 34.664 170.576 32.92 169.632 30.632ZM173.328 29.736V29.928C172.464 32.648 170.016 34.536 167.44 35.304C167.68 35.528 167.968 35.976 168.112 36.248C170.88 35.288 173.44 33.272 174.496 29.992L173.76 29.688L173.552 29.736H173.328ZM160.704 34.216L160.832 35.272C162.464 35.096 164.72 34.84 166.912 34.568L166.88 33.592C164.592 33.848 162.256 34.088 160.704 34.216ZM166.256 28.056V36.28H167.408V28.056H166.256ZM162.24 28.056V34.488H163.36V28.056H162.24ZM185.552 26.968V28.088H191.328V26.968H185.552ZM176.976 23.24V24.264H184.032V23.24H176.976ZM176.8 29.592V30.632H184.112V29.592H176.8ZM176.72 26.904V27.928H184.288V26.904H176.72ZM188.4 27.448V36.216H189.568V27.448H188.4ZM178.016 24.584C178.304 25.288 178.544 26.232 178.624 26.84L179.648 26.552C179.568 25.96 179.296 25.048 178.992 24.36L178.016 24.584ZM182.032 24.344C181.808 25.144 181.408 26.344 181.072 27.08L182.064 27.32C182.4 26.616 182.8 25.528 183.136 24.584L182.032 24.344ZM190.08 21.848C188.928 22.344 186.88 22.808 185.072 23.112C185.216 23.368 185.392 23.768 185.456 24.024C187.344 23.752 189.536 23.304 191.056 22.744L190.08 21.848ZM179.424 21.784C179.792 22.456 180.192 23.352 180.368 23.912L181.6 23.544C181.424 23 180.992 22.12 180.608 21.48L179.424 21.784ZM185.072 23.112V28.648C185.072 30.792 184.96 33.544 183.6 35.48C183.856 35.624 184.32 35.992 184.512 36.216C185.984 34.12 186.192 30.952 186.192 28.648V23.112H185.072ZM181.92 31.816C182.4 32.616 182.976 33.72 183.232 34.408L184.08 33.912C183.84 33.224 183.264 32.184 182.736 31.384L181.92 31.816ZM178.224 31.48C177.872 32.536 177.328 33.64 176.704 34.392C176.944 34.52 177.36 34.824 177.536 34.984C178.16 34.168 178.816 32.904 179.2 31.752L178.224 31.48ZM180.016 27.432V36.216H181.184V27.432H180.016Z" fill="#D60C18"/>
<path d="M252.992 26.168V27.384H267.056V26.168H252.992ZM260.784 26.648L259.584 26.936C260.784 31.24 262.96 34.616 266.416 36.248C266.624 35.912 267.024 35.4 267.328 35.128C264 33.752 261.824 30.52 260.784 26.648ZM259.376 21.576C259.344 25.416 259.472 32.312 252.672 35.272C253.008 35.512 253.392 35.944 253.584 36.264C260.576 33.064 260.608 25.768 260.672 21.576H259.376ZM269.328 23V26.296H270.512V24.104H281.536V26.296H282.752V23H269.328ZM271.344 25.64V26.696H280.624V25.64H271.344ZM274.288 27.8C277.008 30.232 276.848 34.088 275.84 34.84C275.552 35.128 275.248 35.176 274.832 35.176C274.496 35.176 273.952 35.144 273.36 35.096C273.568 35.416 273.68 35.896 273.696 36.232C274.192 36.248 274.704 36.264 275.056 36.248C275.776 36.248 276.208 36.136 276.704 35.688C278.16 34.616 278.272 29.96 275.184 27.288L274.288 27.8ZM275.936 25.944C274.48 27.336 271.728 28.408 269.28 29.016C269.488 29.24 269.808 29.736 269.936 29.976C272.432 29.224 275.28 27.992 276.928 26.376L275.936 25.944ZM275.456 28.936C274.08 29.992 271.296 31.192 269.232 31.704C269.456 31.96 269.712 32.36 269.856 32.648C271.936 31.976 274.72 30.68 276.24 29.512L275.456 28.936ZM276.352 30.856C274.784 32.344 271.568 33.88 268.976 34.504C269.2 34.776 269.456 35.208 269.6 35.512C272.224 34.728 275.456 33.08 277.2 31.48L276.352 30.856ZM279.12 29.816L278.064 30.072C278.88 32.584 280.464 34.632 282.656 35.608C282.816 35.304 283.184 34.856 283.44 34.632C281.392 33.832 279.84 31.976 279.12 29.816ZM280.64 27.304C279.536 28.344 277.664 29.704 276.272 30.504L277.056 31.192C278.448 30.424 280.272 29.176 281.616 28.088L280.64 27.304ZM274.768 21.816C275.12 22.408 275.472 23.208 275.616 23.72L276.912 23.304C276.768 22.792 276.352 22.024 276 21.464L274.768 21.816ZM285.408 23.432V24.488H291.008V23.432H285.408ZM287.104 34.248V35.272H291.584V34.248H287.104ZM287.088 31.592V32.552H291.6V31.592H287.088ZM284.688 26.408V27.48H292.96V26.408H284.688ZM287.888 21.704V27.096H289.008V21.704H287.888ZM292.128 22.12C290.544 25.832 287.808 28.744 284.336 30.472C284.56 30.712 284.944 31.192 285.088 31.448C288.608 29.512 291.456 26.44 293.216 22.44L292.128 22.12ZM287.472 29.032H287.04L286.368 29.736V36.216H287.472V30.04H291.552V29.032H287.472ZM291.072 29.032V35.992H292.24V29.032H291.072ZM293.632 22.488V36.28H294.832V23.608H298.416V22.488H293.632ZM298.112 22.488V22.856C297.6 24.152 296.704 26.328 295.84 27.992C297.536 29.384 298.048 30.6 298.048 31.608C298.048 32.2 297.936 32.664 297.552 32.872C297.36 32.984 297.088 33.048 296.8 33.064C296.448 33.096 295.968 33.08 295.456 33.032C295.648 33.352 295.792 33.88 295.808 34.2C296.304 34.232 296.88 34.232 297.312 34.184C297.728 34.136 298.096 34.024 298.384 33.832C298.976 33.448 299.216 32.712 299.2 31.72C299.2 30.568 298.768 29.304 297.088 27.816C297.872 26.344 298.736 24.488 299.408 22.984L298.544 22.424L298.352 22.488H298.112ZM300.992 24.04V25.208H315.008V24.04H300.992ZM305.952 29.112V30.232H314.384V29.112H305.952ZM305.328 34.776V35.912H315.008V34.776H305.328ZM309.568 26.024V35.384H310.768V26.024H309.568ZM306.256 21.56C305.36 24.856 303.488 28.408 300.608 30.44C300.8 30.712 301.104 31.224 301.232 31.544C304.416 29.256 306.368 25.528 307.488 21.864L306.256 21.56ZM303.088 28.152V36.232H304.288V28.152H303.088ZM320.144 28.68V36.328H321.296V29.64H328.272V36.328H329.472V28.68H320.144ZM316.928 26.568V27.56H331.056V26.568H316.928ZM318.096 24.424V25.384H330.128V24.424H318.096ZM320.928 30.728V31.576H328.784V30.728H320.928ZM320.928 32.712V33.544H328.784V32.712H320.928ZM320.816 34.728V35.688H328.784V34.728H320.816ZM329.2 21.688C326.656 22.216 321.776 22.44 317.872 22.472C317.984 22.728 318.096 23.144 318.128 23.416C322.08 23.4 326.992 23.16 329.968 22.568L329.2 21.688ZM322.64 22.792C321.792 26.328 319.92 29.832 316.528 31.784C316.768 32.008 317.12 32.456 317.28 32.712C320.864 30.584 322.816 26.92 323.888 23.048L322.64 22.792ZM334.656 22.184V27.096H335.824V23.096H344.16V27.096H345.376V22.184H334.656ZM336.528 24.056V24.856H343.44V24.056H336.528ZM336.528 25.832V26.68H343.424V25.832H336.528ZM332.896 27.736V28.728H347.024V27.736H332.896ZM339.856 29.736V30.712H345.616V29.736H339.856ZM334.944 29.784V30.68H338.88V29.784H334.944ZM334.944 31.752V32.648H338.88V31.752H334.944ZM341.632 30.632L340.672 30.92C341.728 33.544 343.792 35.448 346.608 36.28C346.768 35.992 347.088 35.56 347.328 35.336C344.624 34.664 342.576 32.92 341.632 30.632ZM345.328 29.736V29.928C344.464 32.648 342.016 34.536 339.44 35.304C339.68 35.528 339.968 35.976 340.112 36.248C342.88 35.288 345.44 33.272 346.496 29.992L345.76 29.688L345.552 29.736H345.328ZM332.704 34.216L332.832 35.272C334.464 35.096 336.72 34.84 338.912 34.568L338.88 33.592C336.592 33.848 334.256 34.088 332.704 34.216ZM338.256 28.056V36.28H339.408V28.056H338.256ZM334.24 28.056V34.488H335.36V28.056H334.24ZM360 21.944C360.592 22.344 361.376 22.92 361.776 23.288L362.512 22.68C362.096 22.328 361.312 21.784 360.72 21.416L360 21.944ZM350.48 23.24V24.264H363.136V23.24H350.48ZM351.792 25.4V26.28H357.728V25.4H351.792ZM361.536 25.192C360.624 27.608 359.024 29.704 357.072 31.016C357.312 31.192 357.744 31.608 357.92 31.8C359.84 30.36 361.552 28.12 362.576 25.48L361.536 25.192ZM358.48 21.56C358.608 28.904 359.952 36.216 362.064 36.216C363.072 36.216 363.456 35.448 363.616 32.888C363.328 32.76 362.928 32.52 362.688 32.264C362.64 34.2 362.464 35.096 362.208 35.096C361.184 35.08 359.616 28.792 359.632 21.56H358.48ZM349.904 23.24V26.616C349.904 29.16 349.776 32.936 348.496 35.656C348.752 35.768 349.248 36.104 349.456 36.296C350.8 33.448 351.008 29.304 351.008 26.616V23.24H349.904ZM352.784 31.896V34.792C352.784 35.816 353.088 36.088 354.256 36.088C354.48 36.088 355.904 36.088 356.16 36.088C357.136 36.088 357.408 35.624 357.504 33.736C357.232 33.672 356.848 33.528 356.624 33.368C356.592 34.984 356.496 35.208 356.048 35.208C355.744 35.208 354.576 35.208 354.368 35.208C353.872 35.208 353.792 35.144 353.792 34.792V31.896H352.784ZM354.064 31.32C354.56 32.072 355.184 33.112 355.472 33.72L356.288 33.304C355.984 32.696 355.344 31.704 354.832 30.968L354.064 31.32ZM357.28 32.312C357.792 33.368 358.4 34.776 358.688 35.608L359.6 35.224C359.296 34.424 358.656 33.032 358.112 32.008L357.28 32.312ZM351.536 32.104C351.36 33.112 351.024 34.456 350.608 35.272L351.44 35.688C351.856 34.824 352.176 33.416 352.336 32.376L351.536 32.104ZM353.12 28.216H356.432V30.056H353.12V28.216ZM352.128 27.368V30.92H357.408V27.368H352.128ZM364.752 31.352V32.472H379.216V31.352H364.752ZM370.56 24.456V25.288H373.312V24.456H370.56ZM375.216 22.28V23.288H377.792V22.28H375.216ZM375.296 25.432V26.424H377.664V25.432H375.296ZM375.2 28.424V29.416H377.52V28.424H375.2ZM366.352 25.384V26.376H368.72V25.384H366.352ZM366.432 28.376V29.368H368.8V28.376H366.432ZM369.216 22.392V31.944H370.128V23.336H373.824V31.944H374.752V22.392H369.216ZM371.392 27.144H372.576V29.288H371.392V27.144ZM370.768 26.36V30.072H373.216V26.36H370.768ZM377.168 22.28C377.168 25.336 377.04 29.624 376.848 32.072H377.904C378.08 29.688 378.192 25.4 378.224 22.28H377.168ZM368.528 21.752C367.808 22.104 366.688 22.488 365.792 22.76C365.904 23.032 366.048 23.416 366.08 23.672C367.024 23.464 368.176 23.128 369.104 22.792L368.528 21.752ZM365.792 22.76L366.048 31.672H367.104L366.832 23.08L365.792 22.76ZM373.536 33.48C375.216 34.312 376.992 35.384 378.08 36.168L378.88 35.24C377.76 34.472 375.904 33.464 374.192 32.648L373.536 33.48ZM369.36 32.776C368.336 33.64 366.4 34.728 364.864 35.352C365.104 35.608 365.408 36.008 365.568 36.264C367.136 35.576 369.088 34.504 370.384 33.496L369.36 32.776ZM386.288 22.216V23.256H391.712V22.216H386.288ZM391.296 23.496V24.504H394.256V23.496H391.296ZM387.552 25.16V26.104H390.304V25.16H387.552ZM387.552 28.088V29.064H390.304V28.088H387.552ZM389.856 22.632V34.264H390.848V22.632H389.856ZM387.152 22.568V32.024L388.128 31.848V22.568H387.152ZM386.24 31.752L386.48 32.776C387.696 32.472 389.232 32.072 390.72 31.672L390.608 30.76C388.976 31.16 387.376 31.528 386.24 31.752ZM393.936 23.496V23.752C393.536 27.832 392.4 31.192 390.768 33.016C391.008 33.176 391.392 33.576 391.552 33.832C393.232 31.864 394.48 28.264 394.976 23.672L394.336 23.464L394.128 23.496H393.936ZM381.184 23.464V24.52H386.192V23.464H381.184ZM380.768 26.408V27.496H386.48V26.408H380.768ZM384.112 29.608V30.68H386.448V29.608H384.112ZM383.344 21.56V27.08H384.432V21.56H383.344ZM383.696 27.16V34.392H384.768V27.16H383.696ZM382.48 30.68L381.6 30.984C382.704 35.016 384.688 35.864 388.992 35.864H394.944C395.024 35.512 395.232 34.968 395.44 34.68C394.464 34.728 389.728 34.712 388.992 34.712C385.28 34.712 383.392 34.04 382.48 30.68ZM381.568 28.808C381.616 30.936 381.504 33.624 380.368 35.56C380.624 35.672 381.008 36.024 381.184 36.264C382.464 34.136 382.608 31.256 382.576 28.856L381.568 28.808ZM391.088 25.912C392.432 28.28 393.856 31.432 394.4 33.304L395.36 32.904C394.8 31.032 393.328 27.96 391.952 25.608L391.088 25.912ZM398.096 24.136V25.208H401.84V33.512H398.096V34.6H402.96V24.136H398.096ZM397.376 24.136V35.88H398.496V24.136H397.376ZM398.016 28.584V29.656H402.432V28.584H398.016ZM399.824 21.528C399.696 22.36 399.392 23.576 399.12 24.344L400.08 24.584C400.4 23.864 400.8 22.76 401.12 21.768L399.824 21.528ZM405.232 24.088V25.208H410.144V24.088H405.232ZM409.728 24.088V24.344C409.504 31.4 409.248 34.056 408.72 34.632C408.544 34.84 408.352 34.888 408.032 34.888C407.664 34.888 406.704 34.872 405.664 34.792C405.888 35.112 406.032 35.608 406.064 35.96C406.96 36.008 407.904 36.04 408.448 35.976C409.008 35.928 409.376 35.784 409.728 35.32C410.368 34.536 410.592 32.056 410.848 24.712C410.848 24.536 410.848 24.088 410.848 24.088H409.728ZM405.568 21.496C405.056 23.72 404.176 25.928 403.088 27.336C403.376 27.496 403.872 27.832 404.08 28.024C405.184 26.504 406.128 24.152 406.72 21.768L405.568 21.496ZM404.832 28.248C405.712 29.416 406.784 31 407.264 31.976L408.288 31.336C407.776 30.392 406.672 28.84 405.76 27.704L404.832 28.248ZM423.584 24.936C421.76 30.392 418.272 33.48 412.576 35.128C412.816 35.4 413.184 35.96 413.328 36.248C419.136 34.392 422.784 31.112 424.832 25.288L423.584 24.936ZM416.32 25L415.2 25.352C417.232 30.76 420.896 34.6 426.64 36.184C426.832 35.848 427.184 35.336 427.472 35.064C421.872 33.672 418.128 29.96 416.32 25ZM412.8 24.392V25.56H427.264V24.392H412.8ZM418.768 21.832C419.248 22.632 419.744 23.688 419.952 24.344L421.264 23.928C421.04 23.256 420.496 22.216 420.016 21.464L418.768 21.832ZM428.736 33.336V34.328H443.184V33.336H428.736ZM435.344 31.832V36.28H436.592V31.832H435.344ZM431.792 30.184H440.176V31.336H431.792V30.184ZM431.792 28.216H440.176V29.352H431.792V28.216ZM430.624 27.352V32.216H441.376V27.352H430.624ZM429.84 22.872V23.848H442.192V22.872H429.84ZM428.768 25.496V26.488H443.216V25.496H428.768ZM438.592 23.848C438.384 24.408 437.92 25.24 437.6 25.768L438.704 26.024C439.056 25.528 439.472 24.824 439.856 24.136L438.592 23.848ZM432.208 24.168C432.56 24.728 432.928 25.496 433.072 25.992L434.256 25.672C434.096 25.176 433.728 24.44 433.344 23.896L432.208 24.168ZM434.928 21.624C435.264 22.2 435.648 22.984 435.808 23.512L437.024 23.176C436.848 22.664 436.464 21.896 436.08 21.336L434.928 21.624Z" fill="black"/>
<line x1="-4.37114e-08" y1="54.5" x2="467" y2="54.5" stroke="#EEEEEE"/>
<rect x="123" y="52" width="106" height="3" fill="#D60C18"/>
<path d="M45.656 87.328L44.552 87.616C45.768 91.392 48.04 94.048 51.64 95.248C51.816 94.912 52.168 94.416 52.456 94.16C48.984 93.168 46.712 90.688 45.656 87.328ZM38.616 81.808V83.024H51.304V81.808H38.616ZM38.056 86.72V87.952H51.992V86.72H38.056ZM44.264 82.224V84.912C44.264 87.84 43.72 91.792 37.656 94.256C37.912 94.496 38.28 94.96 38.44 95.264C44.872 92.592 45.512 88.24 45.512 84.928V82.224H44.264ZM53.88 81.744V82.96H68.12V81.744H53.88ZM60.04 82.704V95.264H61.304V82.704H60.04ZM60.744 86.496C62.68 87.488 65.176 89.008 66.408 90L67.256 88.912C65.976 87.952 63.448 86.496 61.528 85.568L60.744 86.496ZM72.792 83.904H81.304V84.912H72.792V83.904ZM72.792 82.08H81.304V83.072H72.792V82.08ZM71.64 81.216V85.776H82.504V81.216H71.64ZM71.592 86.672V87.6H83.848V86.672H71.592ZM71.576 90.096V91.024H84.104V90.096H71.576ZM71.72 88.432V89.248H82.68V88.432H71.72ZM70.984 86.672V88.896C70.984 90.576 70.84 92.928 69.64 94.688C69.928 94.816 70.456 95.136 70.68 95.344C71.944 93.488 72.2 90.784 72.2 88.912V86.672H70.984ZM77.832 90.368L76.872 90.608C78.104 92.96 80.536 94.464 83.736 95.04C83.896 94.72 84.184 94.272 84.44 94.032C81.352 93.616 78.904 92.32 77.832 90.368ZM82.44 91.152C81.688 91.648 80.392 92.336 79.48 92.72L80.184 93.28C81.112 92.912 82.36 92.336 83.256 91.712L82.44 91.152ZM73.496 95.296C73.768 95.104 74.264 94.976 78.04 94.032C78.04 93.792 78.056 93.36 78.104 93.056L73.96 93.968L73.464 94.384L73.496 95.296ZM73.496 95.296C73.496 94.864 74.92 94.048 74.92 94.048V90.48L73.784 90.432V93.056C73.784 93.744 73.272 94.112 72.968 94.272C73.16 94.512 73.416 95.008 73.496 95.296ZM90.552 90.368V91.296H95.4V90.368H90.552ZM90.504 87.952V88.896H94.824V92.864H90.504V93.792H95.96V87.952H90.504ZM89.976 87.952V94.608H91.08V87.952H89.976ZM87.032 83.52V84.4H91.48V83.52H87.032ZM94.408 83.52V84.4H98.936V83.52H94.408ZM98.44 81.248V93.696C98.44 93.968 98.344 94.064 98.056 94.064C97.768 94.08 96.792 94.096 95.816 94.048C95.992 94.384 96.184 94.944 96.232 95.28C97.576 95.28 98.44 95.264 98.952 95.072C99.464 94.864 99.64 94.464 99.64 93.696V81.248H98.44ZM87.128 81.248V82.176H91.112V85.824H87.128V86.752H92.248V81.248H87.128ZM99.032 81.248H93.688V86.768H99.032V85.856H94.84V82.176H99.032V81.248ZM86.44 81.248V95.296H87.624V81.248H86.44ZM110.552 85.968V87.088H116.328V85.968H110.552ZM101.976 82.24V83.264H109.032V82.24H101.976ZM101.8 88.592V89.632H109.112V88.592H101.8ZM101.72 85.904V86.928H109.288V85.904H101.72ZM113.4 86.448V95.216H114.568V86.448H113.4ZM103.016 83.584C103.304 84.288 103.544 85.232 103.624 85.84L104.648 85.552C104.568 84.96 104.296 84.048 103.992 83.36L103.016 83.584ZM107.032 83.344C106.808 84.144 106.408 85.344 106.072 86.08L107.064 86.32C107.4 85.616 107.8 84.528 108.136 83.584L107.032 83.344ZM115.08 80.848C113.928 81.344 111.88 81.808 110.072 82.112C110.216 82.368 110.392 82.768 110.456 83.024C112.344 82.752 114.536 82.304 116.056 81.744L115.08 80.848ZM104.424 80.784C104.792 81.456 105.192 82.352 105.368 82.912L106.6 82.544C106.424 82 105.992 81.12 105.608 80.48L104.424 80.784ZM110.072 82.112V87.648C110.072 89.792 109.96 92.544 108.6 94.48C108.856 94.624 109.32 94.992 109.512 95.216C110.984 93.12 111.192 89.952 111.192 87.648V82.112H110.072ZM106.92 90.816C107.4 91.616 107.976 92.72 108.232 93.408L109.08 92.912C108.84 92.224 108.264 91.184 107.736 90.384L106.92 90.816ZM103.224 90.48C102.872 91.536 102.328 92.64 101.704 93.392C101.944 93.52 102.36 93.824 102.536 93.984C103.16 93.168 103.816 91.904 104.2 90.752L103.224 90.48ZM105.016 86.432V95.216H106.184V86.432H105.016ZM120.952 87.072V87.968H128.968V87.072H120.952ZM122.872 88.832V89.616H127.112V88.832H122.872ZM122.872 90.496V91.248H127.096V90.496H122.872ZM126.68 87.536V94.8H127.784V87.536H126.68ZM122.152 87.536V92.608H123.224V87.536H122.152ZM119.032 83.264V84.112H123.528V83.264H119.032ZM126.408 83.264V84.112H130.936V83.264H126.408ZM130.472 81.184V93.872C130.472 94.096 130.392 94.176 130.184 94.176C129.976 94.192 129.272 94.192 128.536 94.176C128.696 94.48 128.856 94.96 128.904 95.264C129.944 95.264 130.664 95.248 131.08 95.056C131.512 94.864 131.656 94.544 131.656 93.872V81.184H130.472ZM119.128 81.184V82.048H123.128V85.328H119.128V86.208H124.264V81.184H119.128ZM131.048 81.184H125.672V86.208H131.048V85.328H126.824V82.048H131.048V81.184ZM118.408 81.184V95.28H119.592V81.184H118.408ZM120.568 92.16V93.04H129.24V92.16H120.568ZM150.472 82.8V83.888H163.512V82.8H150.472ZM151.352 85.184V86.224H162.728V85.184H151.352ZM150.248 89.888V90.944H163.928V89.888H150.248ZM149.896 87.584V88.656H164.2V87.584H149.896ZM156.344 83.408V88.368H157.576V83.408H156.344ZM152.616 80.944C153.16 81.584 153.736 82.448 153.96 83.056L155.064 82.544C154.824 81.968 154.248 81.12 153.672 80.512L152.616 80.944ZM160.12 80.512C159.752 81.248 159.096 82.304 158.6 82.976L159.64 83.344C160.152 82.72 160.824 81.76 161.368 80.896L160.12 80.512ZM156.264 88.32C155.912 91.552 155.032 93.376 149.64 94.16C149.864 94.432 150.168 94.944 150.264 95.232C155.992 94.288 157.112 92.112 157.512 88.32H156.264ZM157.064 92C159.304 92.896 162.184 94.336 163.608 95.344L164.168 94.304C162.712 93.328 159.816 91.952 157.608 91.12L157.064 92ZM168.328 84.512V85.424H177.704V84.512H168.328ZM175 83.2C175.608 83.504 176.344 83.968 176.728 84.352L177.304 83.712C176.92 83.344 176.184 82.896 175.56 82.624L175 83.2ZM176.056 86.16C175.368 88.928 173.896 91.008 171.72 92.272C171.928 92.448 172.28 92.848 172.424 93.04C174.632 91.616 176.232 89.376 177.032 86.352L176.056 86.16ZM168.168 91.056L168.328 91.968C169.656 91.728 171.368 91.376 173.032 91.056L173 90.208C171.192 90.544 169.4 90.848 168.168 91.056ZM169.752 87.184H171.576V88.8H169.752V87.184ZM168.888 86.432V89.536H172.456V86.432H168.888ZM173.064 82.8C173.352 87.744 174.008 92.288 176.216 92.768C177.064 93.072 177.624 92.432 177.832 90.672C177.608 90.576 177.24 90.32 177.048 90.128C176.936 91.168 176.776 91.84 176.552 91.792C175 91.552 174.296 87.328 174.088 82.8H173.064ZM166.312 81.312V95.344H167.448V82.4H178.488V95.344H179.688V81.312H166.312ZM167.016 93.504V94.592H179.16V93.504H167.016ZM188.328 83.248C189.88 83.84 191.896 84.768 192.904 85.392L193.704 84.624C192.632 83.984 190.616 83.12 189.08 82.576L188.328 83.248ZM186.792 84.592V92.832H187.864V85.52H194.984V84.592H186.792ZM194.552 84.592V91.696C194.552 91.888 194.488 91.952 194.28 91.968C194.072 91.968 193.4 91.968 192.632 91.952C192.76 92.208 192.92 92.608 192.968 92.896C194.024 92.896 194.712 92.88 195.096 92.72C195.512 92.544 195.64 92.272 195.64 91.696V84.592H194.552ZM186.808 81.232V82.176H194.792V81.232H186.808ZM187.432 86.928V87.824H194.968V86.928H187.432ZM187.432 89.28V90.208H194.968V89.28H187.432ZM190.616 84.976V92.816H191.672V84.976H190.616ZM194.392 81.232V81.456C193.672 82.208 192.184 83.136 190.872 83.648C191.048 83.824 191.352 84.144 191.512 84.352C192.968 83.744 194.584 82.752 195.656 81.744L194.92 81.168L194.664 81.232H194.392ZM182.328 81.12C183.032 81.904 183.928 83.024 184.36 83.696L185.288 83.04C184.84 82.384 183.96 81.36 183.224 80.592L182.328 81.12ZM181.752 84.256V85.264H185.256V84.256H181.752ZM184.6 91.6L183.8 91.968C185 94.608 187.096 95.056 190.84 95.056C192.6 95.056 194.616 95.008 196.12 94.928C196.184 94.592 196.344 94.032 196.52 93.776C194.888 93.904 192.536 93.984 190.856 93.984C187.672 93.984 185.592 93.696 184.6 91.6ZM184.824 88.256V88.464C184.376 91.392 183.144 93.424 181.448 94.496C181.672 94.672 182.072 95.072 182.232 95.328C184.024 94.128 185.352 91.872 185.912 88.448L185.304 88.224L185.096 88.256H184.824ZM181.976 89.456C182.088 89.328 182.504 89.232 182.92 89.232H185.208L185.224 88.256H182.552L181.976 88.544V89.456ZM181.976 89.456C181.976 89.152 182.872 88.704 182.872 88.704C183.816 87.68 185.304 85.648 186.088 84.56L185.288 84.176L184.92 84.336V84.384C184.376 85.232 182.808 87.392 182.296 87.888C182.024 88.208 181.768 88.304 181.528 88.368C181.656 88.624 181.896 89.184 181.976 89.456ZM198.856 81.152V82.256H201.576V81.152H198.856ZM198.408 81.152V86.848C198.408 89.168 198.344 92.336 197.496 94.624C197.704 94.752 198.104 95.12 198.248 95.344C199.224 92.848 199.352 89.28 199.352 86.848V81.152H198.408ZM201.048 81.152V93.936C201.048 94.128 200.984 94.192 200.808 94.192C200.632 94.208 200.088 94.208 199.448 94.192C199.592 94.464 199.736 94.928 199.768 95.184C200.648 95.184 201.192 95.168 201.528 94.992C201.88 94.816 201.992 94.496 201.992 93.952V81.152H201.048ZM199.144 89.536L199.624 90.512C200.328 89.888 201.032 89.264 201.752 88.624L201.4 87.904C200.552 88.56 199.72 89.168 199.144 89.536ZM199.08 84.88C199.56 85.408 200.136 86.16 200.408 86.624L201.112 86.144C200.84 85.68 200.264 84.992 199.768 84.448L199.08 84.88ZM202.632 93.328L202.92 94.384C204.408 94.064 206.424 93.632 208.36 93.2L208.264 92.24C206.168 92.656 204.024 93.088 202.632 93.328ZM203.4 90.352C203.736 91.056 204.056 92 204.168 92.624L205.08 92.288C204.968 91.68 204.632 90.752 204.264 90.064L203.4 90.352ZM202.664 82.08V83.072H208.248V82.08H202.664ZM203.016 84.4V85.376H208.136V84.4H203.016ZM205 80.576V84.912H206.088V80.576H205ZM204.184 87.232H206.872V88.816H204.184V87.232ZM203.16 86.352V89.696H207.912V86.352H203.16ZM210.888 80.88C210.296 82.192 209.192 83.616 208.184 84.464C208.472 84.656 208.808 84.96 209.016 85.216C210.136 84.24 211.24 82.72 211.928 81.232L210.888 80.88ZM210.968 85.312C210.392 86.704 209.256 88.16 208.152 89.008C208.456 89.216 208.776 89.536 208.984 89.792C210.2 88.8 211.336 87.248 212.04 85.664L210.968 85.312ZM211.192 89.952C210.52 91.824 209.176 93.552 207.528 94.512C207.8 94.736 208.136 95.088 208.312 95.36C210.104 94.224 211.496 92.368 212.248 90.272L211.192 89.952ZM206.6 89.984C206.376 90.896 205.912 92.24 205.544 93.056L206.36 93.344C206.76 92.56 207.256 91.312 207.688 90.288L206.6 89.984ZM216.152 94H217.672C217.864 89.424 218.36 86.688 221.112 83.152V82.272H213.784V83.52H219.464C217.16 86.72 216.36 89.568 216.152 94ZM224.083 94.224C224.675 94.224 225.155 93.76 225.155 93.104C225.155 92.432 224.675 91.984 224.083 91.984C223.507 91.984 223.043 92.432 223.043 93.104C223.043 93.76 223.507 94.224 224.083 94.224ZM230.072 94.224C232.28 94.224 234.328 92.4 234.328 87.632C234.328 83.904 232.648 82.064 230.392 82.064C228.568 82.064 227.032 83.6 227.032 85.872C227.032 88.304 228.296 89.552 230.264 89.552C231.272 89.552 232.312 88.944 233.048 88.016L232.968 86.848C232.2 88.016 231.288 88.48 230.504 88.48C229.112 88.48 228.408 87.44 228.408 85.872C228.408 84.256 229.272 83.2 230.392 83.2C232.04 83.2 232.952 84.752 232.952 87.632C232.952 91.648 231.592 93.008 230.024 93.008C229.272 93.008 228.552 92.672 228.056 92.096L227.24 93.024C227.896 93.712 228.792 94.224 230.072 94.224ZM238.483 89.456C240.099 89.456 241.155 88.112 241.155 85.744C241.155 83.392 240.099 82.064 238.483 82.064C236.867 82.064 235.811 83.392 235.811 85.744C235.811 88.112 236.867 89.456 238.483 89.456ZM238.483 88.56C237.555 88.56 236.915 87.6 236.915 85.744C236.915 83.872 237.555 82.96 238.483 82.96C239.411 82.96 240.035 83.872 240.035 85.744C240.035 87.6 239.411 88.56 238.483 88.56ZM238.819 94.224H239.811L246.275 82.064H245.283L238.819 94.224ZM246.659 94.224C248.243 94.224 249.315 92.88 249.315 90.496C249.315 88.16 248.243 86.816 246.659 86.816C245.043 86.816 243.987 88.16 243.987 90.496C243.987 92.88 245.043 94.224 246.659 94.224ZM246.659 93.328C245.731 93.328 245.091 92.368 245.091 90.496C245.091 88.624 245.731 87.728 246.659 87.728C247.571 87.728 248.211 88.624 248.211 90.496C248.211 92.368 247.571 93.328 246.659 93.328ZM250.562 90.288V91.408H265.33V90.288H250.562ZM251.154 81.536V82.656H264.738V81.536H251.154ZM253.25 87.248V88.304H262.658V87.248H253.25ZM262.194 84.224V93.808C262.194 94.08 262.098 94.16 261.81 94.16C261.522 94.176 260.498 94.192 259.442 94.16C259.618 94.464 259.81 94.992 259.874 95.312C261.266 95.312 262.162 95.296 262.674 95.104C263.218 94.912 263.378 94.544 263.378 93.808V84.224H262.194ZM252.466 84.224V95.312H253.65V85.328H262.69V84.224H252.466ZM257.266 81.888V90.704H258.466V81.888H257.266ZM276.306 82.336V91.184H277.426V82.336H276.306ZM279.33 80.64V93.696C279.33 93.968 279.218 94.048 278.946 94.064C278.69 94.08 277.826 94.08 276.85 94.048C277.01 94.4 277.186 94.928 277.25 95.248C278.562 95.248 279.362 95.216 279.826 95.024C280.29 94.816 280.482 94.448 280.482 93.696V80.64H279.33ZM268.594 87.44V88.24H273.954V87.44H268.594ZM269.33 93.568V94.512H274.274V93.568H269.33ZM267.906 85.52V87.68C267.906 89.504 267.746 92.144 266.465 94.096C266.77 94.208 267.266 94.432 267.49 94.624C268.786 92.592 269.026 89.68 269.026 87.68V85.52H267.906ZM268.578 85.52V86.416H273.362V89.344H268.514V90.24H274.466V85.52H268.578ZM268.866 90.976V95.184H269.906V91.872H273.778V95.152H274.85V90.976H268.866ZM271.026 80.688C270.049 82.288 268.274 83.664 266.498 84.512C266.706 84.768 267.042 85.36 267.17 85.616C269.058 84.592 270.994 82.976 272.13 81.088L271.026 80.688ZM270.658 82C272.018 82.832 273.858 84.048 274.77 84.816L275.41 83.824C274.498 83.088 272.61 81.936 271.282 81.152L270.658 82ZM269.65 83.92V84.72H273.026V83.92H269.65ZM287.362 94H288.738V82.272H287.122L282.242 89.808V90.768H290.306V89.616H283.778L286.45 85.616C286.77 85.04 287.09 84.448 287.378 83.872H287.458C287.41 84.48 287.362 85.424 287.362 86.016V94ZM295.261 94.224C297.469 94.224 298.892 92.192 298.892 88.096C298.892 84.032 297.469 82.064 295.261 82.064C293.021 82.064 291.597 84.032 291.597 88.096C291.597 92.192 293.021 94.224 295.261 94.224ZM295.261 93.04C293.917 93.04 293.005 91.552 293.005 88.096C293.005 84.688 293.917 83.232 295.261 83.232C296.589 83.232 297.485 84.688 297.485 88.096C297.485 91.552 296.589 93.04 295.261 93.04ZM304.12 80.512C303.336 82.672 302.008 84.752 300.488 86.08C300.792 86.24 301.288 86.64 301.528 86.848C303.016 85.408 304.44 83.184 305.32 80.816L304.12 80.512ZM303.864 82.496L303.288 83.664H314.184V82.496H303.864ZM303.08 86.128V91.04H304.28V87.248H313.832V86.128H303.08ZM300.44 90.432V91.6H314.936V90.432H300.44ZM307.88 83.104V95.296H309.112V83.104H307.88ZM325.24 85.968V87.088H331.016V85.968H325.24ZM316.664 82.24V83.264H323.72V82.24H316.664ZM316.488 88.592V89.632H323.8V88.592H316.488ZM316.408 85.904V86.928H323.976V85.904H316.408ZM328.088 86.448V95.216H329.256V86.448H328.088ZM317.704 83.584C317.992 84.288 318.232 85.232 318.312 85.84L319.336 85.552C319.256 84.96 318.984 84.048 318.68 83.36L317.704 83.584ZM321.72 83.344C321.496 84.144 321.096 85.344 320.76 86.08L321.752 86.32C322.088 85.616 322.488 84.528 322.824 83.584L321.72 83.344ZM329.768 80.848C328.616 81.344 326.568 81.808 324.76 82.112C324.904 82.368 325.08 82.768 325.144 83.024C327.032 82.752 329.224 82.304 330.744 81.744L329.768 80.848ZM319.112 80.784C319.48 81.456 319.88 82.352 320.056 82.912L321.288 82.544C321.112 82 320.68 81.12 320.296 80.48L319.112 80.784ZM324.76 82.112V87.648C324.76 89.792 324.648 92.544 323.288 94.48C323.544 94.624 324.008 94.992 324.2 95.216C325.672 93.12 325.88 89.952 325.88 87.648V82.112H324.76ZM321.608 90.816C322.088 91.616 322.664 92.72 322.92 93.408L323.767 92.912C323.528 92.224 322.952 91.184 322.424 90.384L321.608 90.816ZM317.912 90.48C317.56 91.536 317.016 92.64 316.392 93.392C316.632 93.52 317.048 93.824 317.224 93.984C317.848 93.168 318.504 91.904 318.888 90.752L317.912 90.48ZM319.704 86.432V95.216H320.872V86.432H319.704ZM332.632 82.24V83.28H346.68V82.24H332.632ZM336.248 85.072H343.176V86.512H336.248V85.072ZM335.048 84.176V87.392H344.424V84.176H335.048ZM333.208 88.288V95.28H334.376V89.312H345.784V88.288H333.208ZM344.968 88.288V94.016C344.968 94.208 344.888 94.256 344.68 94.272C344.488 94.272 343.752 94.288 343.048 94.256C343.208 94.496 343.368 94.88 343.432 95.152C344.456 95.168 345.16 95.152 345.576 95.008C346.024 94.848 346.168 94.592 346.168 94.016V88.288H344.968ZM338.728 80.784C338.968 81.488 339.288 82.416 339.416 82.976L340.632 82.624C340.503 82.096 340.168 81.2 339.896 80.512L338.728 80.784ZM336.808 90.256V91.152H341.896V92.656H336.808V93.552H342.968V90.256H336.808ZM336.184 90.256V94.352H337.304V90.256H336.184ZM354.376 90.992C356.056 90.416 357.144 89.104 357.144 87.376C357.144 86.256 356.664 85.52 355.767 85.52C355.128 85.52 354.552 85.92 354.552 86.672C354.552 87.424 355.096 87.824 355.752 87.824C356.056 87.824 356.376 87.744 356.6 87.456L355.736 86.24L356.04 87.584C356.04 88.8 355.32 89.616 354.008 90.144L354.376 90.992ZM368.6 93.52V94.64H379.144V93.52H368.6ZM371.192 87.104H376.504V90.32H371.192V87.104ZM371.192 82.832H376.504V85.984H371.192V82.832ZM369.96 81.712V91.44H377.784V81.712H369.96ZM368.136 80.624C367.224 83.056 365.704 85.456 364.104 87.008C364.328 87.296 364.68 87.936 364.808 88.224C366.568 86.432 368.232 83.712 369.288 80.992L368.136 80.624ZM366.424 84.752V95.264H367.624V83.6L367.608 83.584L366.424 84.752ZM385.08 87.088V88.192H394.776V87.088H385.08ZM383.848 85.216C383.016 86.96 381.688 88.688 380.344 89.84C380.6 90.064 381.016 90.576 381.176 90.816C382.584 89.536 384.04 87.552 384.984 85.584L383.848 85.216ZM391.416 85.344V93.744C391.416 94.016 391.336 94.096 391.016 94.096C390.712 94.112 389.656 94.128 388.503 94.096C388.68 94.416 388.872 94.928 388.92 95.248C390.376 95.248 391.32 95.232 391.864 95.056C392.408 94.864 392.584 94.512 392.584 93.76V85.344H391.416ZM386.008 89.584C386.712 90.608 387.608 91.984 388.024 92.784L389.032 92.176C388.584 91.392 387.672 90.064 386.968 89.072L386.008 89.584ZM382.728 87.856V95.28H383.88V86.736V86.72L382.728 87.856ZM382.552 81.84V82.912H387.64V81.84H382.552ZM388.936 81.84V82.912H394.904V81.84H388.936ZM382.808 80.48C382.28 81.92 381.336 83.312 380.312 84.224C380.552 84.464 380.952 84.992 381.112 85.248C382.232 84.176 383.336 82.512 383.976 80.816L382.808 80.48ZM389.095 80.496C388.712 82.032 387.992 83.504 387.08 84.464C387.352 84.672 387.832 85.088 388.024 85.312C388.984 84.224 389.816 82.528 390.312 80.8L389.095 80.496ZM383.416 83.664C383.911 84.16 384.536 84.864 384.792 85.328L385.656 84.56C385.368 84.112 384.744 83.472 384.232 82.992L383.416 83.664ZM390.152 83.6C390.712 84.096 391.384 84.816 391.688 85.28L392.536 84.528C392.2 84.064 391.528 83.392 390.952 82.944L390.152 83.6ZM399.656 85.792V86.912H407.736V85.792H399.656ZM399.368 93.232V94.368H407.944V93.232H399.368ZM398.824 88.832V95.248H400.024V89.92H407.496V95.2H408.76V88.832H398.824ZM403.944 80.528C402.312 83.008 399.368 85.136 396.312 86.336C396.648 86.624 396.984 87.072 397.192 87.392C400.28 86.032 403.224 83.728 405 81.056L403.944 80.528ZM404.184 81.456L403.16 81.984C405.288 84.416 407.608 85.936 410.344 87.248C410.52 86.88 410.872 86.432 411.176 86.16C408.488 85.024 406.136 83.616 404.184 81.456ZM412.632 81.344V82.4H417.832V81.344H412.632ZM412.28 86.416V87.504H418.392V86.416H412.28ZM414.92 86.944V93.856C414.92 94.048 414.856 94.112 414.632 94.112C414.408 94.128 413.656 94.128 412.84 94.112C413 94.432 413.176 94.928 413.224 95.248C414.328 95.248 415.032 95.232 415.48 95.04C415.944 94.864 416.072 94.512 416.072 93.872V86.944H414.92ZM417.464 81.344V81.584C416.968 82.496 415.96 83.792 415.08 84.544C415.288 84.72 415.608 85.04 415.784 85.248C416.792 84.4 417.944 83.024 418.712 81.792L417.944 81.28L417.72 81.344H417.464ZM418.056 86.416V86.592C417.736 87.696 417.272 89.04 416.888 89.856L417.816 90.096C418.232 89.216 418.744 87.824 419.16 86.576L418.408 86.368L418.232 86.416H418.056ZM413.08 84.144C414.424 84.864 416.008 85.984 416.776 86.816L417.464 85.936C416.68 85.12 415.064 84.048 413.72 83.344L413.08 84.144ZM418.824 81.312V82.352H426.952V81.312H418.824ZM420.552 87.264H425.24V88.832H420.552V87.264ZM420.552 89.712H425.24V91.296H420.552V89.712ZM420.552 84.816H425.24V86.368H420.552V84.816ZM419.432 83.888V92.24H426.408V83.888H419.432ZM422.264 81.824C422.168 82.56 421.944 83.664 421.752 84.384L422.808 84.592C423.064 83.92 423.352 82.912 423.624 81.984L422.264 81.824ZM421.032 92.528C420.344 93.232 418.904 94.064 417.624 94.528C417.864 94.736 418.248 95.104 418.424 95.344C419.704 94.864 421.208 94 422.088 93.152L421.032 92.528ZM423.512 93.216C424.504 93.824 425.736 94.736 426.328 95.328L427.288 94.64C426.632 94.032 425.4 93.168 424.424 92.608L423.512 93.216ZM437.448 81.36V82.464H441.896V81.36H437.448ZM437.448 85.04V86.112H441.896V85.04H437.448ZM437.432 88.768V89.856H441.928V88.768H437.432ZM441.352 81.36V93.744C441.352 93.984 441.272 94.064 441.032 94.064C440.792 94.08 439.992 94.08 439.144 94.064C439.304 94.368 439.48 94.896 439.512 95.232C440.696 95.232 441.448 95.2 441.896 95.008C442.36 94.816 442.52 94.448 442.52 93.76V81.36H441.352ZM436.952 81.36V87.168C436.952 89.488 436.84 92.528 435.496 94.672C435.767 94.784 436.248 95.136 436.456 95.36C437.896 93.088 438.088 89.632 438.088 87.168V81.36H436.952ZM428.504 82.704V83.76H436.168V82.704H428.504ZM430.392 85.184V86.16H434.44V85.184H430.392ZM430.392 87.728V88.688H434.456V87.728H430.392ZM428.296 90.304V91.376H436.168V90.304H428.296ZM429.864 80.752V90.736H430.968V80.752H429.864ZM433.88 80.752V90.736H434.984V80.752H433.88ZM430.52 91.728C430.039 92.8 429.208 93.872 428.312 94.592C428.6 94.752 429.064 95.104 429.288 95.296C430.152 94.496 431.08 93.264 431.672 92.048L430.52 91.728ZM432.824 92.224C433.448 92.976 434.168 94.032 434.472 94.672L435.448 94.096C435.128 93.44 434.376 92.448 433.752 91.728L432.824 92.224Z" fill="black"/>
<path d="M28.6797 36V23.3125C28.6797 22.5876 29.2673 22 29.9922 22H37.8672C38.5921 22 39.1797 22.5876 39.1797 23.3125V36L33.9297 32.9375L28.6797 36Z" fill="black"/>
</svg>
