<svg width="790" height="205" viewBox="0 0 790 205" fill="none" xmlns="http://www.w3.org/2000/svg">
<rect x="456.5" y="80.5" width="229" height="49" fill="white" stroke="#003A9F"/>
<path d="M660.96 107C662.065 107 662.96 106.105 662.96 105C662.96 103.895 662.065 103 660.96 103C660.929 103 660.901 103.007 660.871 103.009C660.927 103.16 660.96 103.334 660.96 103.516C660.96 104.336 660.295 105 659.476 105C659.294 105 659.12 104.967 658.959 104.908L658.969 104.911C658.969 104.942 658.96 104.97 658.96 105C658.96 106.105 659.855 107 660.96 107ZM669.851 105.544C668.157 102.237 664.802 100 660.96 100C657.118 100 653.762 102.239 652.069 105.544C652 105.677 651.96 105.834 651.96 106C651.96 106.167 652 106.324 652.071 106.462L652.069 106.456C653.763 109.763 657.118 112 660.96 112C664.802 112 668.157 109.761 669.851 106.456C669.92 106.323 669.96 106.166 669.96 106C669.96 105.833 669.92 105.676 669.849 105.538L669.851 105.544V105.544ZM660.96 101C663.169 101 664.96 102.791 664.96 105C664.96 107.209 663.169 109 660.96 109C658.751 109 656.96 107.209 656.96 105C656.962 102.792 658.752 101.002 660.96 101H660.96ZM660.96 111C657.605 111 654.539 109.084 652.96 106C653.865 104.249 655.26 102.858 656.964 101.983L657.016 101.958C656.363 102.803 655.96 103.849 655.96 105C655.96 107.761 658.199 110 660.96 110C663.721 110 665.96 107.761 665.96 105C665.96 103.849 665.557 102.803 664.904 101.958C666.66 102.858 668.055 104.249 668.936 105.949L668.96 106C667.381 109.084 664.315 111 660.96 111Z" fill="black"/>
<rect x="470" y="80" width="80" height="1" fill="white"/>
<path d="M472.484 86H473.31V81.688H475.186C477.454 81.688 478.854 80.722 478.854 78.678C478.854 76.55 477.426 75.794 475.13 75.794H472.484V86ZM473.31 80.988V76.508H474.948C476.992 76.508 477.986 77.012 477.986 78.678C477.986 80.302 477.02 80.988 475.004 80.988H473.31ZM481.952 86.196C482.218 86.196 482.358 86.154 482.512 86.112L482.386 85.454C482.232 85.482 482.176 85.482 482.106 85.482C481.91 85.482 481.784 85.328 481.784 84.978V74.884H480.958V84.894C480.958 85.762 481.28 86.196 481.952 86.196ZM486.329 86.196C487.295 86.196 488.191 85.664 488.933 85.062H488.975L489.059 86H489.745V81.268C489.745 79.616 489.101 78.356 487.323 78.356C486.105 78.356 485.069 78.93 484.509 79.322L484.859 79.924C485.391 79.532 486.231 79.056 487.225 79.056C488.639 79.056 488.947 80.204 488.919 81.31C485.629 81.688 484.159 82.472 484.159 84.124C484.159 85.51 485.139 86.196 486.329 86.196ZM486.497 85.496C485.671 85.496 484.985 85.104 484.985 84.082C484.985 82.948 485.979 82.248 488.919 81.926V84.348C488.051 85.104 487.323 85.496 486.497 85.496ZM495.133 86.196C496.071 86.196 496.883 85.79 497.527 85.216L497.135 84.656C496.631 85.118 495.945 85.482 495.189 85.482C493.621 85.482 492.571 84.194 492.571 82.29C492.571 80.372 493.705 79.056 495.203 79.056C495.889 79.056 496.435 79.392 496.911 79.826L497.359 79.266C496.855 78.79 496.183 78.356 495.175 78.356C493.327 78.356 491.717 79.784 491.717 82.29C491.717 84.754 493.201 86.196 495.133 86.196ZM501.889 86.196C502.953 86.196 503.667 85.832 504.269 85.454L503.947 84.852C503.387 85.244 502.771 85.496 501.973 85.496C500.349 85.496 499.271 84.222 499.243 82.416H504.535C504.563 82.22 504.577 82.024 504.577 81.828C504.577 79.644 503.485 78.356 501.679 78.356C499.999 78.356 498.403 79.854 498.403 82.29C498.403 84.74 499.957 86.196 501.889 86.196ZM499.229 81.772C499.397 80.05 500.475 79.042 501.693 79.042C502.995 79.042 503.821 79.966 503.821 81.772H499.229ZM506.552 86H507.378V80.414C508.246 79.532 508.862 79.084 509.716 79.084C510.878 79.084 511.354 79.798 511.354 81.338V86H512.18V81.226C512.18 79.308 511.452 78.356 509.912 78.356C508.876 78.356 508.106 78.93 507.35 79.686L507.378 78.062V74.884H506.552V86ZM517.554 86.196C519.36 86.196 520.928 84.754 520.928 82.29C520.928 79.784 519.36 78.356 517.554 78.356C515.748 78.356 514.166 79.784 514.166 82.29C514.166 84.754 515.748 86.196 517.554 86.196ZM517.554 85.482C516.084 85.482 515.02 84.194 515.02 82.29C515.02 80.372 516.084 79.056 517.554 79.056C519.01 79.056 520.088 80.372 520.088 82.29C520.088 84.194 519.01 85.482 517.554 85.482ZM524.089 86.196C524.355 86.196 524.495 86.154 524.649 86.112L524.523 85.454C524.369 85.482 524.313 85.482 524.243 85.482C524.047 85.482 523.921 85.328 523.921 84.978V74.884H523.095V84.894C523.095 85.762 523.417 86.196 524.089 86.196ZM529.292 86.196C530.272 86.196 531.098 85.664 531.7 85.062H531.728L531.826 86H532.498V74.884H531.672V77.908L531.728 79.266C531.014 78.678 530.412 78.356 529.516 78.356C527.738 78.356 526.212 79.868 526.212 82.29C526.212 84.796 527.43 86.196 529.292 86.196ZM529.432 85.482C527.92 85.482 527.066 84.222 527.066 82.29C527.066 80.442 528.172 79.07 529.586 79.07C530.3 79.07 530.93 79.322 531.672 79.98V84.292C530.944 85.062 530.23 85.482 529.432 85.482ZM538.16 86.196C539.224 86.196 539.938 85.832 540.54 85.454L540.218 84.852C539.658 85.244 539.042 85.496 538.244 85.496C536.62 85.496 535.542 84.222 535.514 82.416H540.806C540.834 82.22 540.848 82.024 540.848 81.828C540.848 79.644 539.756 78.356 537.95 78.356C536.27 78.356 534.674 79.854 534.674 82.29C534.674 84.74 536.228 86.196 538.16 86.196ZM535.5 81.772C535.668 80.05 536.746 79.042 537.964 79.042C539.266 79.042 540.092 79.966 540.092 81.772H535.5ZM542.824 86H543.65V81.002C544.196 79.602 544.994 79.112 545.638 79.112C545.946 79.112 546.086 79.14 546.338 79.238L546.506 78.51C546.254 78.384 546.044 78.356 545.75 78.356C544.882 78.356 544.14 79 543.636 79.924H543.608L543.51 78.538H542.824V86Z" fill="#003A9F"/>
<path d="M474.617 98.625V110H473.656V98.625H474.617ZM478.422 103.352V110H477.492V101.547H478.383L478.422 103.352ZM478.211 105.25L477.797 105.016C477.828 104.516 477.93 104.047 478.102 103.609C478.273 103.172 478.505 102.786 478.797 102.453C479.094 102.12 479.44 101.859 479.836 101.672C480.237 101.484 480.68 101.391 481.164 101.391C481.586 101.391 481.964 101.448 482.297 101.562C482.63 101.677 482.914 101.859 483.148 102.109C483.383 102.359 483.56 102.68 483.68 103.07C483.805 103.461 483.867 103.938 483.867 104.5V110H482.93V104.492C482.93 103.909 482.849 103.453 482.688 103.125C482.526 102.792 482.297 102.555 482 102.414C481.703 102.273 481.352 102.203 480.945 102.203C480.497 102.203 480.104 102.302 479.766 102.5C479.432 102.693 479.151 102.945 478.922 103.258C478.698 103.565 478.526 103.896 478.406 104.25C478.286 104.599 478.221 104.932 478.211 105.25ZM487.211 103.172V113.25H486.273V101.547H487.148L487.211 103.172ZM493.086 105.695V105.859C493.086 106.49 493.013 107.068 492.867 107.594C492.721 108.12 492.51 108.576 492.234 108.961C491.964 109.341 491.628 109.635 491.227 109.844C490.826 110.052 490.37 110.156 489.859 110.156C489.354 110.156 488.904 110.078 488.508 109.922C488.112 109.766 487.771 109.544 487.484 109.258C487.203 108.966 486.977 108.628 486.805 108.242C486.638 107.852 486.521 107.424 486.453 106.961V104.797C486.531 104.286 486.659 103.823 486.836 103.406C487.013 102.99 487.24 102.63 487.516 102.328C487.797 102.026 488.13 101.794 488.516 101.633C488.901 101.471 489.341 101.391 489.836 101.391C490.352 101.391 490.81 101.492 491.211 101.695C491.617 101.893 491.958 102.182 492.234 102.562C492.516 102.938 492.727 103.391 492.867 103.922C493.013 104.448 493.086 105.039 493.086 105.695ZM492.148 105.859V105.695C492.148 105.201 492.096 104.742 491.992 104.32C491.893 103.898 491.74 103.531 491.531 103.219C491.328 102.901 491.068 102.654 490.75 102.477C490.438 102.299 490.065 102.211 489.633 102.211C489.185 102.211 488.802 102.286 488.484 102.438C488.172 102.583 487.911 102.779 487.703 103.023C487.495 103.263 487.331 103.526 487.211 103.812C487.091 104.099 487.003 104.38 486.945 104.656V107.148C487.044 107.544 487.203 107.911 487.422 108.25C487.641 108.583 487.932 108.852 488.297 109.055C488.667 109.253 489.117 109.352 489.648 109.352C490.076 109.352 490.445 109.263 490.758 109.086C491.07 108.909 491.328 108.661 491.531 108.344C491.74 108.026 491.893 107.656 491.992 107.234C492.096 106.812 492.148 106.354 492.148 105.859ZM500.578 108.047V101.547H501.516V110H500.617L500.578 108.047ZM500.75 106.484L501.234 106.469C501.234 107 501.172 107.49 501.047 107.938C500.922 108.385 500.727 108.776 500.461 109.109C500.195 109.443 499.852 109.701 499.43 109.883C499.008 110.065 498.5 110.156 497.906 110.156C497.495 110.156 497.117 110.099 496.773 109.984C496.435 109.865 496.143 109.677 495.898 109.422C495.654 109.167 495.464 108.836 495.328 108.43C495.198 108.023 495.133 107.531 495.133 106.953V101.547H496.062V106.969C496.062 107.422 496.112 107.799 496.211 108.102C496.315 108.404 496.456 108.646 496.633 108.828C496.815 109.01 497.023 109.141 497.258 109.219C497.492 109.297 497.745 109.336 498.016 109.336C498.703 109.336 499.245 109.203 499.641 108.938C500.042 108.672 500.326 108.323 500.492 107.891C500.664 107.453 500.75 106.984 500.75 106.484ZM507.156 101.547V102.312H502.922V101.547H507.156ZM504.477 99.375H505.406V107.945C505.406 108.336 505.458 108.63 505.562 108.828C505.667 109.026 505.802 109.159 505.969 109.227C506.135 109.294 506.315 109.328 506.508 109.328C506.648 109.328 506.784 109.32 506.914 109.305C507.044 109.284 507.161 109.263 507.266 109.242L507.305 110.031C507.19 110.068 507.042 110.096 506.859 110.117C506.677 110.143 506.495 110.156 506.312 110.156C505.953 110.156 505.635 110.091 505.359 109.961C505.083 109.826 504.867 109.596 504.711 109.273C504.555 108.945 504.477 108.5 504.477 107.938V99.375Z" fill="black"/>
<path d="M646.752 147.196C648.586 147.196 649.748 145.46 649.748 141.876C649.748 138.32 648.586 136.612 646.752 136.612C644.876 136.612 643.728 138.32 643.728 141.876C643.728 145.46 644.876 147.196 646.752 147.196ZM646.752 146.496C645.422 146.496 644.54 144.956 644.54 141.876C644.54 138.824 645.422 137.298 646.752 137.298C648.068 137.298 648.936 138.824 648.936 141.876C648.936 144.956 648.068 146.496 646.752 146.496ZM650.618 149.492H651.29L655.896 135.996H655.238L650.618 149.492ZM659.6 147.196C661.336 147.196 662.694 146.09 662.694 144.312C662.694 142.87 661.672 141.932 660.454 141.666V141.61C661.532 141.246 662.33 140.406 662.33 139.076C662.33 137.536 661.126 136.612 659.558 136.612C658.396 136.612 657.542 137.158 656.842 137.816L657.318 138.362C657.878 137.76 658.662 137.312 659.544 137.312C660.72 137.312 661.476 138.054 661.476 139.132C661.476 140.35 660.706 141.316 658.452 141.316V142.016C660.902 142.016 661.84 142.94 661.84 144.298C661.84 145.628 660.902 146.482 659.572 146.482C658.27 146.482 657.486 145.866 656.884 145.236L656.436 145.796C657.08 146.482 658.018 147.196 659.6 147.196ZM667.246 147.196C669.08 147.196 670.242 145.46 670.242 141.876C670.242 138.32 669.08 136.612 667.246 136.612C665.37 136.612 664.222 138.32 664.222 141.876C664.222 145.46 665.37 147.196 667.246 147.196ZM667.246 146.496C665.916 146.496 665.034 144.956 665.034 141.876C665.034 138.824 665.916 137.298 667.246 137.298C668.562 137.298 669.43 138.824 669.43 141.876C669.43 144.956 668.562 146.496 667.246 146.496Z" fill="#48545D"/>
<path d="M472.484 147H473.31V141.96H478.616V147H479.456V136.794H478.616V141.218H473.31V136.794H472.484V147ZM485.195 147.196C486.259 147.196 486.973 146.832 487.575 146.454L487.253 145.852C486.693 146.244 486.077 146.496 485.279 146.496C483.655 146.496 482.577 145.222 482.549 143.416H487.841C487.869 143.22 487.883 143.024 487.883 142.828C487.883 140.644 486.791 139.356 484.985 139.356C483.305 139.356 481.709 140.854 481.709 143.29C481.709 145.74 483.263 147.196 485.195 147.196ZM482.535 142.772C482.703 141.05 483.781 140.042 484.999 140.042C486.301 140.042 487.127 140.966 487.127 142.772H482.535ZM490.853 147.196C491.119 147.196 491.259 147.154 491.413 147.112L491.287 146.454C491.133 146.482 491.077 146.482 491.007 146.482C490.811 146.482 490.685 146.328 490.685 145.978V135.884H489.859V145.894C489.859 146.762 490.181 147.196 490.853 147.196ZM493.577 150.332H494.403V147.644L494.389 146.286C495.131 146.86 495.887 147.196 496.573 147.196C498.337 147.196 499.863 145.712 499.863 143.164C499.863 140.854 498.855 139.356 496.881 139.356C495.971 139.356 495.103 139.888 494.389 140.462H494.361L494.263 139.538H493.577V150.332ZM496.517 146.482C495.971 146.482 495.187 146.23 494.403 145.572V141.246C495.257 140.49 496.013 140.07 496.727 140.07C498.379 140.07 499.009 141.372 499.009 143.164C499.009 145.152 497.959 146.482 496.517 146.482ZM507.244 147.196C507.594 147.196 508.07 147.056 508.504 146.902L508.294 146.272C508.042 146.384 507.664 146.496 507.398 146.496C506.39 146.496 506.152 145.88 506.152 144.942V140.238H508.28V139.538H506.152V137.382H505.452L505.368 139.538L504.178 139.608V140.238H505.34V144.886C505.34 146.272 505.774 147.196 507.244 147.196ZM512.744 147.196C513.808 147.196 514.522 146.832 515.124 146.454L514.802 145.852C514.242 146.244 513.626 146.496 512.828 146.496C511.204 146.496 510.126 145.222 510.098 143.416H515.39C515.418 143.22 515.432 143.024 515.432 142.828C515.432 140.644 514.34 139.356 512.534 139.356C510.854 139.356 509.258 140.854 509.258 143.29C509.258 145.74 510.812 147.196 512.744 147.196ZM510.084 142.772C510.252 141.05 511.33 140.042 512.548 140.042C513.85 140.042 514.676 140.966 514.676 142.772H510.084ZM516.177 147H517.045L518.249 145.026C518.529 144.564 518.795 144.102 519.089 143.668H519.159C519.453 144.102 519.747 144.564 520.013 145.026L521.287 147H522.197L519.677 143.178L521.987 139.538H521.119L520.013 141.372C519.761 141.792 519.523 142.198 519.285 142.618H519.215C518.949 142.198 518.683 141.792 518.431 141.372L517.283 139.538H516.387L518.697 143.108L516.177 147ZM525.537 147.196C525.887 147.196 526.363 147.056 526.797 146.902L526.587 146.272C526.335 146.384 525.957 146.496 525.691 146.496C524.683 146.496 524.445 145.88 524.445 144.942V140.238H526.573V139.538H524.445V137.382H523.745L523.661 139.538L522.471 139.608V140.238H523.633V144.886C523.633 146.272 524.067 147.196 525.537 147.196Z" fill="#48545D"/>
<path d="M458.056 162H462.88V161.088H461.104V153.204H460.264C459.796 153.492 459.232 153.696 458.44 153.828V154.536H460.012V161.088H458.056V162ZM466.788 162.168C468.264 162.168 469.668 161.064 469.668 159.144C469.668 157.2 468.48 156.336 467.016 156.336C466.488 156.336 466.092 156.468 465.696 156.684L465.924 154.14H469.248V153.204H464.964L464.688 157.32L465.276 157.692C465.78 157.356 466.152 157.164 466.74 157.164C467.832 157.164 468.552 157.92 468.552 159.18C468.552 160.452 467.724 161.256 466.68 161.256C465.672 161.256 465.024 160.788 464.532 160.272L463.98 160.992C464.58 161.592 465.42 162.168 466.788 162.168Z" fill="#D60C18"/>
<path d="M469.056 54H473.88V53.088H472.104V45.204H471.264C470.796 45.492 470.232 45.696 469.44 45.828V46.536H471.012V53.088H469.056V54Z" fill="#D60C18"/>
<path d="M654.528 91H660.048V90.064H657.612C657.168 90.064 656.64 90.1 656.172 90.148C658.248 88.192 659.628 86.404 659.628 84.64C659.628 83.068 658.644 82.048 657.072 82.048C655.956 82.048 655.188 82.564 654.468 83.344L655.104 83.956C655.596 83.38 656.22 82.936 656.94 82.936C658.032 82.936 658.548 83.68 658.548 84.688C658.548 86.188 657.288 87.952 654.528 90.364V91ZM663.992 91.168C665.648 91.168 666.716 89.644 666.716 86.572C666.716 83.524 665.648 82.048 663.992 82.048C662.312 82.048 661.244 83.524 661.244 86.572C661.244 89.644 662.312 91.168 663.992 91.168ZM663.992 90.28C662.984 90.28 662.3 89.164 662.3 86.572C662.3 84.016 662.984 82.924 663.992 82.924C664.988 82.924 665.66 84.016 665.66 86.572C665.66 89.164 664.988 90.28 663.992 90.28Z" fill="#D60C18"/>
<path d="M546.056 54H550.88V53.088H549.104V45.204H548.264C547.796 45.492 547.232 45.696 546.44 45.828V46.536H548.012V53.088H546.056V54Z" fill="#D60C18"/>
<path d="M672.056 162H676.88V161.088H675.104V153.204H674.264C673.796 153.492 673.232 153.696 672.44 153.828V154.536H674.012V161.088H672.056V162ZM680.788 162.168C682.264 162.168 683.668 161.064 683.668 159.144C683.668 157.2 682.48 156.336 681.016 156.336C680.488 156.336 680.092 156.468 679.696 156.684L679.924 154.14H683.248V153.204H678.964L678.688 157.32L679.276 157.692C679.78 157.356 680.152 157.164 680.74 157.164C681.832 157.164 682.552 157.92 682.552 159.18C682.552 160.452 681.724 161.256 680.68 161.256C679.672 161.256 679.024 160.788 678.532 160.272L677.98 160.992C678.58 161.592 679.42 162.168 680.788 162.168Z" fill="#D60C18"/>
<line x1="456.5" y1="130.5" x2="456.5" y2="147.5" stroke="#939EA7" stroke-linecap="square" stroke-dasharray="2 2"/>
<line x1="471.5" y1="130.5" x2="471.5" y2="147.5" stroke="#939EA7" stroke-linecap="square" stroke-dasharray="2 2"/>
<line x1="470.5" y1="57.5" x2="470.5" y2="74.5" stroke="#939EA7" stroke-linecap="square" stroke-dasharray="2 2"/>
<line x1="650.5" y1="78.5" x2="650.5" y2="95.5" stroke="#939EA7" stroke-linecap="square" stroke-dasharray="2 2"/>
<line x1="670.5" y1="78.5" x2="670.5" y2="95.5" stroke="#939EA7" stroke-linecap="square" stroke-dasharray="2 2"/>
<path d="M675.528 111H681.048V110.064H678.612C678.168 110.064 677.64 110.1 677.172 110.148C679.248 108.192 680.628 106.404 680.628 104.64C680.628 103.068 679.644 102.048 678.072 102.048C676.956 102.048 676.188 102.564 675.468 103.344L676.104 103.956C676.596 103.38 677.22 102.936 677.94 102.936C679.032 102.936 679.548 103.68 679.548 104.688C679.548 106.188 678.288 107.952 675.528 110.364V111ZM684.992 111.168C686.648 111.168 687.716 109.644 687.716 106.572C687.716 103.524 686.648 102.048 684.992 102.048C683.312 102.048 682.244 103.524 682.244 106.572C682.244 109.644 683.312 111.168 684.992 111.168ZM684.992 110.28C683.984 110.28 683.3 109.164 683.3 106.572C683.3 104.016 683.984 102.924 684.992 102.924C685.988 102.924 686.66 104.016 686.66 106.572C686.66 109.164 685.988 110.28 684.992 110.28Z" fill="#D60C18"/>
<line x1="689.5" y1="96.5" x2="672.5" y2="96.5" stroke="#939EA7" stroke-linecap="square" stroke-dasharray="2 2"/>
<line x1="689.5" y1="116.5" x2="672.5" y2="116.5" stroke="#939EA7" stroke-linecap="square" stroke-dasharray="2 2"/>
<line x1="472.5" y1="57.5" x2="472.5" y2="74.5" stroke="#939EA7" stroke-linecap="square" stroke-dasharray="2 2"/>
<line x1="547.5" y1="57.5" x2="547.5" y2="74.5" stroke="#939EA7" stroke-linecap="square" stroke-dasharray="2 2"/>
<line x1="549.5" y1="57.5" x2="549.5" y2="74.5" stroke="#939EA7" stroke-linecap="square" stroke-dasharray="2 2"/>
<line x1="670.5" y1="130.5" x2="670.5" y2="147.5" stroke="#939EA7" stroke-linecap="square" stroke-dasharray="2 2"/>
<line x1="685.5" y1="130.5" x2="685.5" y2="147.5" stroke="#939EA7" stroke-linecap="square" stroke-dasharray="2 2"/>
<path d="M101.632 110.168C103.108 110.168 104.512 109.064 104.512 107.144C104.512 105.2 103.324 104.336 101.86 104.336C101.332 104.336 100.936 104.468 100.54 104.684L100.768 102.14H104.092V101.204H99.808L99.532 105.32L100.12 105.692C100.624 105.356 100.996 105.164 101.584 105.164C102.676 105.164 103.396 105.92 103.396 107.18C103.396 108.452 102.568 109.256 101.524 109.256C100.516 109.256 99.868 108.788 99.376 108.272L98.824 108.992C99.424 109.592 100.264 110.168 101.632 110.168ZM108.492 110.168C110.148 110.168 111.216 108.644 111.216 105.572C111.216 102.524 110.148 101.048 108.492 101.048C106.812 101.048 105.744 102.524 105.744 105.572C105.744 108.644 106.812 110.168 108.492 110.168ZM108.492 109.28C107.484 109.28 106.8 108.164 106.8 105.572C106.8 103.016 107.484 101.924 108.492 101.924C109.488 101.924 110.16 103.016 110.16 105.572C110.16 108.164 109.488 109.28 108.492 109.28Z" fill="#D60C18"/>
<path d="M119.056 61H123.88V60.088H122.104V52.204H121.264C120.796 52.492 120.232 52.696 119.44 52.828V53.536H121.012V60.088H119.056V61ZM127.788 61.168C129.264 61.168 130.668 60.064 130.668 58.144C130.668 56.2 129.48 55.336 128.016 55.336C127.488 55.336 127.092 55.468 126.696 55.684L126.924 53.14H130.248V52.204H125.964L125.688 56.32L126.276 56.692C126.78 56.356 127.152 56.164 127.74 56.164C128.832 56.164 129.552 56.92 129.552 58.18C129.552 59.452 128.724 60.256 127.68 60.256C126.672 60.256 126.024 59.788 125.532 59.272L124.98 59.992C125.58 60.592 126.42 61.168 127.788 61.168Z" fill="#D60C18"/>
<path d="M350.056 134H354.88V133.088H353.104V125.204H352.264C351.796 125.492 351.232 125.696 350.44 125.828V126.536H352.012V133.088H350.056V134Z" fill="#D60C18"/>
<line x1="97.5" y1="129.5" x2="114.5" y2="129.5" stroke="#939EA7" stroke-linecap="square" stroke-dasharray="2 2"/>
<line x1="117.5" y1="63.5" x2="117.5" y2="80.5" stroke="#939EA7" stroke-linecap="square" stroke-dasharray="2 2"/>
<line x1="132.5" y1="63.5" x2="132.5" y2="80.5" stroke="#939EA7" stroke-linecap="square" stroke-dasharray="2 2"/>
<line x1="97.5" y1="80.5" x2="114.5" y2="80.5" stroke="#939EA7" stroke-linecap="square" stroke-dasharray="2 2"/>
<rect x="117.5" y="80.5" width="229" height="49" fill="white" stroke="#939EA7"/>
<path d="M137.312 105.367H134.07V104.547H137.312C137.99 104.547 138.539 104.438 138.961 104.219C139.388 103.995 139.698 103.693 139.891 103.312C140.089 102.932 140.188 102.505 140.188 102.031C140.188 101.568 140.089 101.141 139.891 100.75C139.698 100.359 139.388 100.047 138.961 99.8125C138.539 99.5729 137.99 99.4531 137.312 99.4531H134.406V110H133.445V98.625H137.312C138.146 98.625 138.846 98.7682 139.414 99.0547C139.987 99.3411 140.419 99.7396 140.711 100.25C141.003 100.76 141.148 101.349 141.148 102.016C141.148 102.714 141.003 103.315 140.711 103.82C140.419 104.32 139.99 104.703 139.422 104.969C138.854 105.234 138.151 105.367 137.312 105.367ZM144.125 98V110H143.195V98H144.125ZM151.82 108.484V104.125C151.82 103.724 151.737 103.378 151.57 103.086C151.404 102.794 151.159 102.57 150.836 102.414C150.513 102.258 150.115 102.18 149.641 102.18C149.203 102.18 148.812 102.258 148.469 102.414C148.13 102.565 147.862 102.771 147.664 103.031C147.471 103.286 147.375 103.57 147.375 103.883L146.438 103.875C146.438 103.557 146.516 103.25 146.672 102.953C146.828 102.656 147.049 102.391 147.336 102.156C147.622 101.922 147.964 101.737 148.359 101.602C148.76 101.461 149.201 101.391 149.68 101.391C150.284 101.391 150.815 101.492 151.273 101.695C151.737 101.898 152.099 102.203 152.359 102.609C152.62 103.016 152.75 103.526 152.75 104.141V108.227C152.75 108.518 152.771 108.82 152.812 109.133C152.859 109.445 152.924 109.703 153.008 109.906V110H152.016C151.953 109.812 151.904 109.578 151.867 109.297C151.836 109.01 151.82 108.74 151.82 108.484ZM152.039 105.078L152.055 105.797H150.219C149.74 105.797 149.31 105.841 148.93 105.93C148.555 106.013 148.237 106.138 147.977 106.305C147.716 106.466 147.516 106.661 147.375 106.891C147.24 107.12 147.172 107.38 147.172 107.672C147.172 107.974 147.247 108.25 147.398 108.5C147.555 108.75 147.773 108.951 148.055 109.102C148.341 109.247 148.68 109.32 149.07 109.32C149.591 109.32 150.049 109.224 150.445 109.031C150.846 108.839 151.177 108.586 151.438 108.273C151.698 107.961 151.872 107.62 151.961 107.25L152.367 107.789C152.299 108.049 152.174 108.318 151.992 108.594C151.815 108.865 151.583 109.12 151.297 109.359C151.01 109.594 150.672 109.786 150.281 109.938C149.896 110.083 149.458 110.156 148.969 110.156C148.417 110.156 147.935 110.052 147.523 109.844C147.117 109.635 146.799 109.352 146.57 108.992C146.346 108.628 146.234 108.216 146.234 107.758C146.234 107.341 146.323 106.969 146.5 106.641C146.677 106.307 146.932 106.026 147.266 105.797C147.604 105.562 148.01 105.385 148.484 105.266C148.964 105.141 149.5 105.078 150.094 105.078H152.039ZM158.375 109.352C158.771 109.352 159.141 109.279 159.484 109.133C159.833 108.982 160.12 108.76 160.344 108.469C160.573 108.172 160.703 107.81 160.734 107.383H161.625C161.599 107.919 161.435 108.398 161.133 108.82C160.836 109.237 160.445 109.565 159.961 109.805C159.482 110.039 158.953 110.156 158.375 110.156C157.786 110.156 157.266 110.049 156.812 109.836C156.365 109.622 155.99 109.326 155.688 108.945C155.385 108.56 155.156 108.112 155 107.602C154.849 107.086 154.773 106.531 154.773 105.938V105.609C154.773 105.016 154.849 104.464 155 103.953C155.156 103.438 155.385 102.99 155.688 102.609C155.99 102.224 156.365 101.924 156.812 101.711C157.26 101.497 157.779 101.391 158.367 101.391C158.971 101.391 159.513 101.513 159.992 101.758C160.477 102.003 160.862 102.349 161.148 102.797C161.44 103.245 161.599 103.776 161.625 104.391H160.734C160.708 103.938 160.589 103.547 160.375 103.219C160.161 102.891 159.88 102.638 159.531 102.461C159.182 102.284 158.794 102.195 158.367 102.195C157.888 102.195 157.479 102.289 157.141 102.477C156.802 102.659 156.526 102.911 156.312 103.234C156.104 103.552 155.951 103.917 155.852 104.328C155.753 104.734 155.703 105.161 155.703 105.609V105.938C155.703 106.391 155.75 106.823 155.844 107.234C155.943 107.641 156.096 108.003 156.305 108.32C156.518 108.638 156.794 108.891 157.133 109.078C157.477 109.26 157.891 109.352 158.375 109.352ZM166.773 110.156C166.221 110.156 165.714 110.055 165.25 109.852C164.792 109.648 164.391 109.362 164.047 108.992C163.708 108.622 163.445 108.185 163.258 107.68C163.076 107.169 162.984 106.612 162.984 106.008V105.672C162.984 105.021 163.081 104.432 163.273 103.906C163.466 103.38 163.732 102.93 164.07 102.555C164.409 102.18 164.794 101.893 165.227 101.695C165.664 101.492 166.122 101.391 166.602 101.391C167.138 101.391 167.615 101.487 168.031 101.68C168.448 101.867 168.797 102.135 169.078 102.484C169.365 102.828 169.581 103.237 169.727 103.711C169.872 104.18 169.945 104.698 169.945 105.266V105.836H163.547V105.039H169.016V104.93C169.005 104.456 168.909 104.013 168.727 103.602C168.549 103.185 168.284 102.846 167.93 102.586C167.576 102.326 167.133 102.195 166.602 102.195C166.206 102.195 165.841 102.279 165.508 102.445C165.18 102.612 164.896 102.852 164.656 103.164C164.422 103.471 164.24 103.839 164.109 104.266C163.984 104.688 163.922 105.156 163.922 105.672V106.008C163.922 106.477 163.99 106.914 164.125 107.32C164.266 107.721 164.464 108.076 164.719 108.383C164.979 108.69 165.286 108.93 165.641 109.102C165.995 109.273 166.385 109.359 166.812 109.359C167.312 109.359 167.755 109.268 168.141 109.086C168.526 108.898 168.872 108.604 169.18 108.203L169.766 108.656C169.583 108.927 169.354 109.177 169.078 109.406C168.807 109.635 168.482 109.818 168.102 109.953C167.721 110.089 167.279 110.156 166.773 110.156ZM172.719 98V110H171.789V98H172.719ZM172.508 105.25L172.094 105.016C172.125 104.516 172.227 104.047 172.398 103.609C172.57 103.172 172.802 102.786 173.094 102.453C173.391 102.12 173.737 101.859 174.133 101.672C174.534 101.484 174.977 101.391 175.461 101.391C175.883 101.391 176.26 101.448 176.594 101.562C176.927 101.677 177.211 101.859 177.445 102.109C177.68 102.359 177.857 102.68 177.977 103.07C178.102 103.461 178.164 103.938 178.164 104.5V110H177.227V104.492C177.227 103.909 177.146 103.453 176.984 103.125C176.823 102.792 176.594 102.555 176.297 102.414C176 102.273 175.648 102.203 175.242 102.203C174.794 102.203 174.401 102.302 174.062 102.5C173.729 102.693 173.448 102.945 173.219 103.258C172.995 103.565 172.823 103.896 172.703 104.25C172.583 104.599 172.518 104.932 172.508 105.25ZM180.055 105.906V105.648C180.055 105.034 180.143 104.466 180.32 103.945C180.497 103.424 180.75 102.974 181.078 102.594C181.411 102.214 181.81 101.919 182.273 101.711C182.737 101.497 183.253 101.391 183.82 101.391C184.393 101.391 184.911 101.497 185.375 101.711C185.839 101.919 186.237 102.214 186.57 102.594C186.904 102.974 187.159 103.424 187.336 103.945C187.513 104.466 187.602 105.034 187.602 105.648V105.906C187.602 106.521 187.513 107.089 187.336 107.609C187.159 108.125 186.904 108.573 186.57 108.953C186.242 109.333 185.846 109.63 185.383 109.844C184.919 110.052 184.404 110.156 183.836 110.156C183.263 110.156 182.745 110.052 182.281 109.844C181.818 109.63 181.419 109.333 181.086 108.953C180.753 108.573 180.497 108.125 180.32 107.609C180.143 107.089 180.055 106.521 180.055 105.906ZM180.984 105.648V105.906C180.984 106.37 181.047 106.81 181.172 107.227C181.297 107.638 181.479 108.005 181.719 108.328C181.958 108.646 182.255 108.896 182.609 109.078C182.964 109.26 183.372 109.352 183.836 109.352C184.294 109.352 184.698 109.26 185.047 109.078C185.401 108.896 185.698 108.646 185.938 108.328C186.177 108.005 186.357 107.638 186.477 107.227C186.602 106.81 186.664 106.37 186.664 105.906V105.648C186.664 105.19 186.602 104.755 186.477 104.344C186.357 103.932 186.174 103.565 185.93 103.242C185.69 102.919 185.393 102.664 185.039 102.477C184.685 102.289 184.279 102.195 183.82 102.195C183.362 102.195 182.956 102.289 182.602 102.477C182.253 102.664 181.956 102.919 181.711 103.242C181.471 103.565 181.289 103.932 181.164 104.344C181.044 104.755 180.984 105.19 180.984 105.648ZM190.578 98V110H189.648V98H190.578ZM198.625 108.359V98H199.562V110H198.688L198.625 108.359ZM192.758 105.859V105.695C192.758 105.039 192.833 104.448 192.984 103.922C193.135 103.391 193.352 102.938 193.633 102.562C193.919 102.182 194.263 101.893 194.664 101.695C195.065 101.492 195.518 101.391 196.023 101.391C196.518 101.391 196.956 101.471 197.336 101.633C197.716 101.794 198.042 102.026 198.312 102.328C198.589 102.63 198.81 102.99 198.977 103.406C199.148 103.823 199.273 104.286 199.352 104.797V106.883C199.289 107.362 199.174 107.802 199.008 108.203C198.841 108.599 198.62 108.945 198.344 109.242C198.068 109.534 197.734 109.76 197.344 109.922C196.958 110.078 196.513 110.156 196.008 110.156C195.508 110.156 195.057 110.052 194.656 109.844C194.255 109.635 193.914 109.341 193.633 108.961C193.352 108.576 193.135 108.12 192.984 107.594C192.833 107.068 192.758 106.49 192.758 105.859ZM193.695 105.695V105.859C193.695 106.354 193.745 106.812 193.844 107.234C193.943 107.656 194.094 108.023 194.297 108.336C194.5 108.648 194.758 108.893 195.07 109.07C195.383 109.247 195.753 109.336 196.18 109.336C196.716 109.336 197.167 109.234 197.531 109.031C197.896 108.823 198.188 108.549 198.406 108.211C198.625 107.867 198.784 107.492 198.883 107.086V104.656C198.82 104.38 198.729 104.099 198.609 103.812C198.49 103.526 198.326 103.263 198.117 103.023C197.914 102.779 197.654 102.583 197.336 102.438C197.023 102.286 196.643 102.211 196.195 102.211C195.763 102.211 195.391 102.299 195.078 102.477C194.766 102.654 194.505 102.901 194.297 103.219C194.094 103.531 193.943 103.898 193.844 104.32C193.745 104.742 193.695 105.201 193.695 105.695ZM205.289 110.156C204.737 110.156 204.229 110.055 203.766 109.852C203.307 109.648 202.906 109.362 202.562 108.992C202.224 108.622 201.961 108.185 201.773 107.68C201.591 107.169 201.5 106.612 201.5 106.008V105.672C201.5 105.021 201.596 104.432 201.789 103.906C201.982 103.38 202.247 102.93 202.586 102.555C202.924 102.18 203.31 101.893 203.742 101.695C204.18 101.492 204.638 101.391 205.117 101.391C205.654 101.391 206.13 101.487 206.547 101.68C206.964 101.867 207.312 102.135 207.594 102.484C207.88 102.828 208.096 103.237 208.242 103.711C208.388 104.18 208.461 104.698 208.461 105.266V105.836H202.062V105.039H207.531V104.93C207.521 104.456 207.424 104.013 207.242 103.602C207.065 103.185 206.799 102.846 206.445 102.586C206.091 102.326 205.648 102.195 205.117 102.195C204.721 102.195 204.357 102.279 204.023 102.445C203.695 102.612 203.411 102.852 203.172 103.164C202.938 103.471 202.755 103.839 202.625 104.266C202.5 104.688 202.438 105.156 202.438 105.672V106.008C202.438 106.477 202.505 106.914 202.641 107.32C202.781 107.721 202.979 108.076 203.234 108.383C203.495 108.69 203.802 108.93 204.156 109.102C204.51 109.273 204.901 109.359 205.328 109.359C205.828 109.359 206.271 109.268 206.656 109.086C207.042 108.898 207.388 108.604 207.695 108.203L208.281 108.656C208.099 108.927 207.87 109.177 207.594 109.406C207.323 109.635 206.997 109.818 206.617 109.953C206.237 110.089 205.794 110.156 205.289 110.156ZM211.234 102.945V110H210.305V101.547H211.211L211.234 102.945ZM214.227 101.484L214.203 102.344C214.099 102.328 213.997 102.315 213.898 102.305C213.799 102.294 213.693 102.289 213.578 102.289C213.172 102.289 212.815 102.365 212.508 102.516C212.206 102.661 211.951 102.867 211.742 103.133C211.534 103.393 211.375 103.701 211.266 104.055C211.156 104.404 211.094 104.779 211.078 105.18L210.734 105.312C210.734 104.76 210.792 104.247 210.906 103.773C211.021 103.299 211.195 102.885 211.43 102.531C211.669 102.172 211.969 101.893 212.328 101.695C212.693 101.492 213.12 101.391 213.609 101.391C213.729 101.391 213.846 101.401 213.961 101.422C214.081 101.438 214.169 101.458 214.227 101.484Z" fill="#48545D"/>
<line x1="329.5" y1="129.5" x2="346.5" y2="129.5" stroke="#D60C18" stroke-linecap="square" stroke-dasharray="2 2"/>
<path d="M193.104 146H194.196V141.272C194.784 140.612 195.336 140.276 195.828 140.276C196.668 140.276 197.052 140.792 197.052 142.016V146H198.144V141.272C198.756 140.612 199.272 140.276 199.776 140.276C200.616 140.276 201 140.792 201 142.016V146H202.092V141.872C202.092 140.216 201.444 139.328 200.112 139.328C199.32 139.328 198.636 139.844 197.952 140.564C197.7 139.796 197.16 139.328 196.164 139.328C195.384 139.328 194.7 139.82 194.136 140.432H194.1L193.992 139.484H193.104V146ZM204.213 146H205.305V139.484H204.213V146ZM204.765 138.14C205.185 138.14 205.497 137.864 205.497 137.408C205.497 136.988 205.185 136.712 204.765 136.712C204.333 136.712 204.033 136.988 204.033 137.408C204.033 137.864 204.333 138.14 204.765 138.14ZM207.518 146H208.61V141.272C209.258 140.624 209.726 140.276 210.386 140.276C211.25 140.276 211.622 140.792 211.622 142.016V146H212.726V141.872C212.726 140.216 212.102 139.328 210.734 139.328C209.834 139.328 209.162 139.82 208.55 140.432H208.514L208.406 139.484H207.518V146ZM214.29 143.072H217.362V142.232H214.29V143.072ZM220.034 146H221.306L222.218 142.508C222.398 141.884 222.53 141.284 222.662 140.612H222.722C222.878 141.284 222.998 141.872 223.166 142.496L224.114 146H225.446L227.198 139.484H226.154L225.206 143.264C225.05 143.888 224.93 144.464 224.798 145.076H224.75C224.594 144.464 224.45 143.888 224.294 143.264L223.262 139.484H222.194L221.186 143.264C221.018 143.876 220.886 144.464 220.742 145.076H220.682C220.562 144.464 220.442 143.888 220.31 143.264L219.326 139.484H218.21L220.034 146ZM228.624 146H229.716V139.484H228.624V146ZM229.176 138.14C229.596 138.14 229.908 137.864 229.908 137.408C229.908 136.988 229.596 136.712 229.176 136.712C228.744 136.712 228.444 136.988 228.444 137.408C228.444 137.864 228.744 138.14 229.176 138.14ZM234.136 146.168C234.928 146.168 235.612 145.748 236.128 145.232H236.152L236.248 146H237.148V136.46H236.056V138.956L236.104 140.084C235.54 139.604 235.036 139.328 234.28 139.328C232.792 139.328 231.448 140.636 231.448 142.76C231.448 144.932 232.504 146.168 234.136 146.168ZM234.376 145.244C233.236 145.244 232.588 144.308 232.588 142.748C232.588 141.26 233.416 140.24 234.46 140.24C235 140.24 235.504 140.432 236.056 140.936V144.356C235.516 144.944 234.988 145.244 234.376 145.244ZM241.41 146.168C241.818 146.168 242.25 146.048 242.61 145.916L242.394 145.1C242.19 145.184 241.89 145.28 241.662 145.28C240.906 145.28 240.654 144.812 240.654 144.02V140.372H242.418V139.484H240.654V137.648H239.73L239.61 139.484L238.59 139.556V140.372H239.562V143.996C239.562 145.292 240.018 146.168 241.41 146.168ZM243.893 146H244.985V141.272C245.633 140.624 246.101 140.276 246.761 140.276C247.625 140.276 247.997 140.792 247.997 142.016V146H249.101V141.872C249.101 140.216 248.477 139.328 247.109 139.328C246.209 139.328 245.549 139.82 244.949 140.408L244.985 139.064V136.46H243.893V146ZM253.29 146H258.81V145.064H256.326C255.882 145.064 255.342 145.1 254.886 145.148C256.914 143.012 258.39 141.416 258.39 139.808C258.39 138.284 257.406 137.3 255.834 137.3C254.718 137.3 253.95 137.804 253.23 138.584L253.866 139.208C254.358 138.632 254.982 138.176 255.702 138.176C256.794 138.176 257.31 138.872 257.31 139.844C257.31 141.248 255.87 142.796 253.29 145.364V146ZM262.574 146.168C264.146 146.168 265.406 145.244 265.406 143.72C265.406 142.556 264.566 141.788 263.534 141.548V141.5C264.47 141.152 265.094 140.492 265.094 139.46C265.094 138.08 264.014 137.3 262.538 137.3C261.53 137.3 260.75 137.744 260.09 138.356L260.678 139.052C261.17 138.548 261.794 138.176 262.502 138.176C263.414 138.176 263.978 138.704 263.978 139.532C263.978 140.432 263.366 141.14 261.554 141.14V141.98C263.582 141.98 264.29 142.664 264.29 143.684C264.29 144.644 263.546 145.256 262.502 145.256C261.494 145.256 260.834 144.776 260.318 144.236L259.766 144.956C260.342 145.592 261.194 146.168 262.574 146.168ZM269.41 146.168C271.102 146.168 272.134 144.572 272.134 141.704C272.134 138.836 271.102 137.3 269.41 137.3C267.694 137.3 266.662 138.836 266.662 141.704C266.662 144.572 267.694 146.168 269.41 146.168ZM269.41 145.28C268.402 145.28 267.718 144.212 267.718 141.704C267.718 139.184 268.402 138.176 269.41 138.176C270.406 138.176 271.078 139.184 271.078 141.704C271.078 144.212 270.406 145.28 269.41 145.28Z" fill="#D60C18"/>
<line x1="117.5" y1="149.5" x2="117.5" y2="132.5" stroke="#939EA7" stroke-linecap="square" stroke-dasharray="2 2"/>
<line x1="346.5" y1="149.5" x2="346.5" y2="132.5" stroke="#939EA7" stroke-linecap="square" stroke-dasharray="2 2"/>
</svg>
