<svg width="790" height="310" viewBox="0 0 790 310" fill="none" xmlns="http://www.w3.org/2000/svg">
<rect x="70" y="40" width="230" height="50" fill="#EEEEEE"/>
<path d="M90.768 46.528V47.102H98.272V46.528H90.768ZM91.118 48.166V48.712H98.006V48.166H91.118ZM90.642 49.86V50.448H98.384V49.86H90.642ZM94.114 45.324V50.168H94.758V45.324H94.114ZM96.83 51.442V57.21C96.83 57.364 96.788 57.42 96.606 57.42C96.424 57.434 95.864 57.434 95.15 57.406C95.262 57.588 95.346 57.84 95.388 58.008C96.242 58.008 96.788 58.008 97.096 57.91C97.39 57.798 97.474 57.602 97.474 57.196V51.442H96.83ZM91.888 53.276V53.836H97.222V53.276H91.888ZM91.888 55.11V55.656H97.222V55.11H91.888ZM91.566 51.442V54.06C91.566 55.208 91.468 56.664 90.628 57.784C90.782 57.854 91.02 58.092 91.104 58.232C92.042 57.042 92.21 55.334 92.21 54.06V51.442H91.566ZM91.93 51.442V52.016H97.11V51.442H91.93ZM85.994 49.412V50H89.998V49.412H85.994ZM86.428 53.206V53.808H89.34V56.594H86.428V57.196H89.956V53.206H86.428ZM86.106 53.206V57.882H86.722V53.206H86.106ZM86.008 51.316V51.904H90.026V51.316H86.008ZM85.686 47.704V48.306H90.446V47.704H85.686ZM87.464 45.534C87.73 46.122 88.038 46.906 88.164 47.41L88.766 47.172C88.626 46.682 88.318 45.912 88.024 45.338L87.464 45.534ZM99.924 47.62V48.292H112.062V47.62H99.924ZM104.138 52.002V52.646H111.544V52.002H104.138ZM103.578 57.07V57.728H112.09V57.07H103.578ZM107.47 49.076V57.434H108.142V49.076H107.47ZM104.642 45.324C103.83 48.25 102.178 51.33 99.644 53.178C99.77 53.318 99.966 53.598 100.036 53.752C102.71 51.778 104.39 48.614 105.342 45.506L104.642 45.324ZM101.884 51.036V57.98H102.556V51.036H101.884ZM117.382 47.046V47.634H126.202V47.046H117.382ZM118.53 50.714V51.288H124.984V50.714H118.53ZM118.53 48.852V49.426H124.984V48.852H118.53ZM119.034 53.15H124.34V55.236H119.034V53.15ZM118.376 52.576V55.81H125.012V52.576H118.376ZM120.588 45.464C121.036 45.94 121.554 46.598 121.778 47.018L122.422 46.71C122.17 46.29 121.652 45.632 121.218 45.184L120.588 45.464ZM114.288 45.646C114.904 46.332 115.66 47.298 116.038 47.872L116.57 47.522C116.206 46.948 115.436 46.052 114.806 45.352L114.288 45.646ZM113.7 48.544V49.146H116.822V48.544H113.7ZM115.996 55.152L115.534 55.404C116.598 57.49 118.488 57.854 121.778 57.854C123.262 57.854 125.012 57.826 126.23 57.742C126.272 57.56 126.356 57.224 126.482 57.056C125.138 57.168 123.234 57.224 121.778 57.224C118.852 57.224 116.906 56.958 115.996 55.152ZM116.486 52.086V52.226C116.066 54.844 114.96 56.636 113.476 57.602C113.616 57.7 113.854 57.938 113.952 58.092C115.478 57.042 116.654 55.138 117.13 52.198L116.78 52.072L116.654 52.086H116.486ZM113.854 52.856C113.952 52.758 114.288 52.674 114.666 52.674H116.766V52.086H114.288L113.854 52.296V52.856ZM113.854 52.856C113.854 52.66 114.442 52.366 114.442 52.366C115.282 51.47 116.64 49.664 117.326 48.712L116.836 48.474L116.57 48.586V48.614C116.094 49.342 114.666 51.302 114.204 51.75C113.966 52.016 113.742 52.1 113.546 52.156C113.63 52.324 113.798 52.674 113.854 52.856ZM131.802 46.248V58.036H132.446V46.878H139.194V57.938H139.852V46.248H131.802ZM133.146 49.104V49.678H138.62V49.104H133.146ZM132.18 56.566V57.196H139.614V56.566H132.18ZM135.568 47.41V51.82H136.17V47.41H135.568ZM134.448 51.974H137.36V54.578H134.448V51.974ZM133.86 51.414V55.152H137.948V51.414H133.86ZM130.5 45.408C129.772 47.606 128.596 49.762 127.294 51.19C127.42 51.344 127.63 51.68 127.7 51.834C129.072 50.252 130.332 47.942 131.13 45.576L130.5 45.408ZM129.324 48.586V58.064H129.968V47.97L129.954 47.956L129.324 48.586ZM146.208 47.984V48.642H153.712V47.984H146.208ZM147.188 49.874C147.65 51.862 148.098 54.508 148.21 55.992L148.896 55.796C148.742 54.354 148.294 51.764 147.818 49.734L147.188 49.874ZM151.976 49.594C151.668 51.764 151.038 54.998 150.478 56.916L151.08 57.07C151.64 55.138 152.284 52.016 152.69 49.72L151.976 49.594ZM145.564 56.79V57.448H154.342V56.79H145.564ZM149.106 45.464C149.386 46.178 149.666 47.102 149.792 47.704L150.45 47.494C150.324 46.906 150.002 45.996 149.736 45.282L149.106 45.464ZM145.228 45.38C144.388 47.578 143.03 49.748 141.574 51.148C141.714 51.288 141.938 51.624 142.008 51.778C143.52 50.224 144.948 47.942 145.872 45.562L145.228 45.38ZM143.688 48.824V58.022H144.36V48.18L144.346 48.166L143.688 48.824ZM164.016 46.416H166.788V47.942H164.016V46.416ZM160.642 46.416H163.372V47.942H160.642V46.416ZM157.366 46.416H160.012V47.942H157.366V46.416ZM156.722 45.87V48.502H167.46V45.87H156.722ZM155.966 49.468V50.028H167.908V49.468H155.966ZM161.566 48.278C161.412 49.216 161.146 50.462 160.936 51.26H161.58C161.804 50.49 162.084 49.3 162.252 48.334L161.566 48.278ZM155.854 57.042V57.616H168.174V57.042H155.854ZM158.122 52.52V53.024H165.808V52.52H158.122ZM158.178 53.99V54.494H165.766V53.99H158.178ZM158.22 55.488V55.992H165.794V55.488H158.22ZM157.842 51.036V57.35H158.486V51.568H165.444V57.35H166.116V51.036H157.842ZM176.686 48.81V49.37H180.578V48.81H176.686ZM175.874 52.534V53.108H178.142V52.534H175.874ZM175.818 54.606V55.18H178.1V54.606H175.818ZM179.57 50.784V55.81H180.116V50.784H179.57ZM177.932 50.532V57.196C177.932 57.336 177.89 57.364 177.75 57.378C177.624 57.378 177.176 57.392 176.644 57.378C176.742 57.532 176.826 57.784 176.854 57.938C177.526 57.938 177.932 57.938 178.184 57.826C178.436 57.728 178.506 57.546 178.506 57.196V50.532H177.932ZM181.264 50.322V57.126C181.264 57.294 181.208 57.336 181.054 57.35C180.872 57.35 180.326 57.35 179.64 57.336C179.738 57.504 179.822 57.742 179.85 57.896C180.69 57.896 181.18 57.896 181.474 57.798C181.754 57.686 181.838 57.504 181.838 57.126V50.322H181.264ZM178.562 45.226C177.792 46.696 176.364 48.138 174.88 48.936C175.034 49.048 175.23 49.258 175.342 49.398C176.868 48.516 178.324 47.018 179.15 45.436L178.562 45.226ZM178.786 45.73L178.254 45.926C179.262 47.466 180.508 48.502 181.964 49.384C182.076 49.188 182.272 48.992 182.426 48.866C181.012 48.082 179.752 47.144 178.786 45.73ZM175.804 50.532V51.106H178.086V50.532H175.804ZM175.538 50.532V53.472C175.538 54.732 175.44 56.384 174.684 57.616C174.824 57.7 175.034 57.91 175.132 58.022C175.972 56.678 176.112 54.844 176.112 53.486V50.532H175.538ZM169.812 46.906V47.536H174.796V46.906H169.812ZM169.672 54.928V55.544H174.838V54.928H169.672ZM172.052 45.324V49.104H172.654V45.324H172.052ZM172.08 49.034V53.206H172.038V58.022H172.668V53.206H172.626V49.034H172.08ZM170.722 51.484H173.942V53.108H170.722V51.484ZM170.722 49.328H173.942V50.938H170.722V49.328ZM170.134 48.754V53.682H174.516V48.754H170.134ZM186.164 46.22V46.892H190.126V46.22H186.164ZM189.776 46.22C189.776 48.712 190.14 54.508 195.894 57.994C196.02 57.84 196.3 57.574 196.454 57.462C190.728 54.032 190.448 48.614 190.448 46.22H189.776ZM189.496 48.768C188.572 52.884 186.794 55.768 183.574 57.476C183.756 57.616 184.064 57.882 184.19 58.022C187.382 56.16 189.216 53.248 190.238 48.908L189.496 48.768ZM198.736 57.196C199.128 57.196 199.464 56.888 199.464 56.44C199.464 55.964 199.128 55.656 198.736 55.656C198.372 55.656 198.036 55.964 198.036 56.44C198.036 56.888 198.372 57.196 198.736 57.196ZM202.236 57.196C202.628 57.196 202.964 56.888 202.964 56.44C202.964 55.964 202.628 55.656 202.236 55.656C201.872 55.656 201.536 55.964 201.536 56.44C201.536 56.888 201.872 57.196 202.236 57.196ZM205.736 57.196C206.128 57.196 206.464 56.888 206.464 56.44C206.464 55.964 206.128 55.656 205.736 55.656C205.372 55.656 205.036 55.964 205.036 56.44C205.036 56.888 205.372 57.196 205.736 57.196Z" fill="#003A9F"/>
<rect x="70" y="89" width="230" height="1" fill="#003A9F"/>
<rect x="70" y="130" width="230" height="50" fill="#EEEEEE"/>
<path d="M90.768 132.528V133.102H98.272V132.528H90.768ZM91.118 134.166V134.712H98.006V134.166H91.118ZM90.642 135.86V136.448H98.384V135.86H90.642ZM94.114 131.324V136.168H94.758V131.324H94.114ZM96.83 137.442V143.21C96.83 143.364 96.788 143.42 96.606 143.42C96.424 143.434 95.864 143.434 95.15 143.406C95.262 143.588 95.346 143.84 95.388 144.008C96.242 144.008 96.788 144.008 97.096 143.91C97.39 143.798 97.474 143.602 97.474 143.196V137.442H96.83ZM91.888 139.276V139.836H97.222V139.276H91.888ZM91.888 141.11V141.656H97.222V141.11H91.888ZM91.566 137.442V140.06C91.566 141.208 91.468 142.664 90.628 143.784C90.782 143.854 91.02 144.092 91.104 144.232C92.042 143.042 92.21 141.334 92.21 140.06V137.442H91.566ZM91.93 137.442V138.016H97.11V137.442H91.93ZM85.994 135.412V136H89.998V135.412H85.994ZM86.428 139.206V139.808H89.34V142.594H86.428V143.196H89.956V139.206H86.428ZM86.106 139.206V143.882H86.722V139.206H86.106ZM86.008 137.316V137.904H90.026V137.316H86.008ZM85.686 133.704V134.306H90.446V133.704H85.686ZM87.464 131.534C87.73 132.122 88.038 132.906 88.164 133.41L88.766 133.172C88.626 132.682 88.318 131.912 88.024 131.338L87.464 131.534ZM99.924 133.62V134.292H112.062V133.62H99.924ZM104.138 138.002V138.646H111.544V138.002H104.138ZM103.578 143.07V143.728H112.09V143.07H103.578ZM107.47 135.076V143.434H108.142V135.076H107.47ZM104.642 131.324C103.83 134.25 102.178 137.33 99.644 139.178C99.77 139.318 99.966 139.598 100.036 139.752C102.71 137.778 104.39 134.614 105.342 131.506L104.642 131.324ZM101.884 137.036V143.98H102.556V137.036H101.884ZM117.382 133.046V133.634H126.202V133.046H117.382ZM118.53 136.714V137.288H124.984V136.714H118.53ZM118.53 134.852V135.426H124.984V134.852H118.53ZM119.034 139.15H124.34V141.236H119.034V139.15ZM118.376 138.576V141.81H125.012V138.576H118.376ZM120.588 131.464C121.036 131.94 121.554 132.598 121.778 133.018L122.422 132.71C122.17 132.29 121.652 131.632 121.218 131.184L120.588 131.464ZM114.288 131.646C114.904 132.332 115.66 133.298 116.038 133.872L116.57 133.522C116.206 132.948 115.436 132.052 114.806 131.352L114.288 131.646ZM113.7 134.544V135.146H116.822V134.544H113.7ZM115.996 141.152L115.534 141.404C116.598 143.49 118.488 143.854 121.778 143.854C123.262 143.854 125.012 143.826 126.23 143.742C126.272 143.56 126.356 143.224 126.482 143.056C125.138 143.168 123.234 143.224 121.778 143.224C118.852 143.224 116.906 142.958 115.996 141.152ZM116.486 138.086V138.226C116.066 140.844 114.96 142.636 113.476 143.602C113.616 143.7 113.854 143.938 113.952 144.092C115.478 143.042 116.654 141.138 117.13 138.198L116.78 138.072L116.654 138.086H116.486ZM113.854 138.856C113.952 138.758 114.288 138.674 114.666 138.674H116.766V138.086H114.288L113.854 138.296V138.856ZM113.854 138.856C113.854 138.66 114.442 138.366 114.442 138.366C115.282 137.47 116.64 135.664 117.326 134.712L116.836 134.474L116.57 134.586V134.614C116.094 135.342 114.666 137.302 114.204 137.75C113.966 138.016 113.742 138.1 113.546 138.156C113.63 138.324 113.798 138.674 113.854 138.856ZM131.802 132.248V144.036H132.446V132.878H139.194V143.938H139.852V132.248H131.802ZM133.146 135.104V135.678H138.62V135.104H133.146ZM132.18 142.566V143.196H139.614V142.566H132.18ZM135.568 133.41V137.82H136.17V133.41H135.568ZM134.448 137.974H137.36V140.578H134.448V137.974ZM133.86 137.414V141.152H137.948V137.414H133.86ZM130.5 131.408C129.772 133.606 128.596 135.762 127.294 137.19C127.42 137.344 127.63 137.68 127.7 137.834C129.072 136.252 130.332 133.942 131.13 131.576L130.5 131.408ZM129.324 134.586V144.064H129.968V133.97L129.954 133.956L129.324 134.586ZM146.208 133.984V134.642H153.712V133.984H146.208ZM147.188 135.874C147.65 137.862 148.098 140.508 148.21 141.992L148.896 141.796C148.742 140.354 148.294 137.764 147.818 135.734L147.188 135.874ZM151.976 135.594C151.668 137.764 151.038 140.998 150.478 142.916L151.08 143.07C151.64 141.138 152.284 138.016 152.69 135.72L151.976 135.594ZM145.564 142.79V143.448H154.342V142.79H145.564ZM149.106 131.464C149.386 132.178 149.666 133.102 149.792 133.704L150.45 133.494C150.324 132.906 150.002 131.996 149.736 131.282L149.106 131.464ZM145.228 131.38C144.388 133.578 143.03 135.748 141.574 137.148C141.714 137.288 141.938 137.624 142.008 137.778C143.52 136.224 144.948 133.942 145.872 131.562L145.228 131.38ZM143.688 134.824V144.022H144.36V134.18L144.346 134.166L143.688 134.824ZM164.016 132.416H166.788V133.942H164.016V132.416ZM160.642 132.416H163.372V133.942H160.642V132.416ZM157.366 132.416H160.012V133.942H157.366V132.416ZM156.722 131.87V134.502H167.46V131.87H156.722ZM155.966 135.468V136.028H167.908V135.468H155.966ZM161.566 134.278C161.412 135.216 161.146 136.462 160.936 137.26H161.58C161.804 136.49 162.084 135.3 162.252 134.334L161.566 134.278ZM155.854 143.042V143.616H168.174V143.042H155.854ZM158.122 138.52V139.024H165.808V138.52H158.122ZM158.178 139.99V140.494H165.766V139.99H158.178ZM158.22 141.488V141.992H165.794V141.488H158.22ZM157.842 137.036V143.35H158.486V137.568H165.444V143.35H166.116V137.036H157.842ZM92.686 148.81V149.37H96.578V148.81H92.686ZM91.874 152.534V153.108H94.142V152.534H91.874ZM91.818 154.606V155.18H94.1V154.606H91.818ZM95.57 150.784V155.81H96.116V150.784H95.57ZM93.932 150.532V157.196C93.932 157.336 93.89 157.364 93.75 157.378C93.624 157.378 93.176 157.392 92.644 157.378C92.742 157.532 92.826 157.784 92.854 157.938C93.526 157.938 93.932 157.938 94.184 157.826C94.436 157.728 94.506 157.546 94.506 157.196V150.532H93.932ZM97.264 150.322V157.126C97.264 157.294 97.208 157.336 97.054 157.35C96.872 157.35 96.326 157.35 95.64 157.336C95.738 157.504 95.822 157.742 95.85 157.896C96.69 157.896 97.18 157.896 97.474 157.798C97.754 157.686 97.838 157.504 97.838 157.126V150.322H97.264ZM94.562 145.226C93.792 146.696 92.364 148.138 90.88 148.936C91.034 149.048 91.23 149.258 91.342 149.398C92.868 148.516 94.324 147.018 95.15 145.436L94.562 145.226ZM94.786 145.73L94.254 145.926C95.262 147.466 96.508 148.502 97.964 149.384C98.076 149.188 98.272 148.992 98.426 148.866C97.012 148.082 95.752 147.144 94.786 145.73ZM91.804 150.532V151.106H94.086V150.532H91.804ZM91.538 150.532V153.472C91.538 154.732 91.44 156.384 90.684 157.616C90.824 157.7 91.034 157.91 91.132 158.022C91.972 156.678 92.112 154.844 92.112 153.486V150.532H91.538ZM85.812 146.906V147.536H90.796V146.906H85.812ZM85.672 154.928V155.544H90.838V154.928H85.672ZM88.052 145.324V149.104H88.654V145.324H88.052ZM88.08 149.034V153.206H88.038V158.022H88.668V153.206H88.626V149.034H88.08ZM86.722 151.484H89.942V153.108H86.722V151.484ZM86.722 149.328H89.942V150.938H86.722V149.328ZM86.134 148.754V153.682H90.516V148.754H86.134ZM102.164 146.22V146.892H106.126V146.22H102.164ZM105.776 146.22C105.776 148.712 106.14 154.508 111.894 157.994C112.02 157.84 112.3 157.574 112.454 157.462C106.728 154.032 106.448 148.614 106.448 146.22H105.776ZM105.496 148.768C104.572 152.884 102.794 155.768 99.574 157.476C99.756 157.616 100.064 157.882 100.19 158.022C103.382 156.16 105.216 153.248 106.238 148.908L105.496 148.768ZM120.346 157.196C121.41 157.196 122.124 156.832 122.726 156.454L122.404 155.852C121.844 156.244 121.228 156.496 120.43 156.496C118.806 156.496 117.728 155.222 117.7 153.416H122.992C123.02 153.22 123.034 153.024 123.034 152.828C123.034 150.644 121.942 149.356 120.136 149.356C118.456 149.356 116.86 150.854 116.86 153.29C116.86 155.74 118.414 157.196 120.346 157.196ZM117.686 152.772C117.854 151.05 118.932 150.042 120.15 150.042C121.452 150.042 122.278 150.966 122.278 152.772H117.686ZM124.376 153.486H127.82V152.8H124.376V153.486ZM129.808 157H130.634V151.414C131.418 150.532 132.132 150.084 132.79 150.084C133.882 150.084 134.4 150.798 134.4 152.338V157H135.198V151.414C136.01 150.532 136.696 150.084 137.354 150.084C138.46 150.084 138.978 150.798 138.978 152.338V157H139.79V152.226C139.79 150.308 139.034 149.356 137.55 149.356C136.682 149.356 135.87 149.944 135.03 150.854C134.764 149.944 134.162 149.356 132.972 149.356C132.118 149.356 131.292 149.93 130.62 150.686H130.592L130.494 149.538H129.808V157ZM144.12 157.196C145.086 157.196 145.982 156.664 146.724 156.062H146.766L146.85 157H147.536V152.268C147.536 150.616 146.892 149.356 145.114 149.356C143.896 149.356 142.86 149.93 142.3 150.322L142.65 150.924C143.182 150.532 144.022 150.056 145.016 150.056C146.43 150.056 146.738 151.204 146.71 152.31C143.42 152.688 141.95 153.472 141.95 155.124C141.95 156.51 142.93 157.196 144.12 157.196ZM144.288 156.496C143.462 156.496 142.776 156.104 142.776 155.082C142.776 153.948 143.77 153.248 146.71 152.926V155.348C145.842 156.104 145.114 156.496 144.288 156.496ZM150.124 157H150.95V149.538H150.124V157ZM150.544 147.788C150.922 147.788 151.188 147.536 151.188 147.102C151.188 146.724 150.922 146.458 150.544 146.458C150.166 146.458 149.9 146.724 149.9 147.102C149.9 147.536 150.166 147.788 150.544 147.788ZM154.714 157.196C154.98 157.196 155.12 157.154 155.274 157.112L155.148 156.454C154.994 156.482 154.938 156.482 154.868 156.482C154.672 156.482 154.546 156.328 154.546 155.978V145.884H153.72V155.894C153.72 156.762 154.042 157.196 154.714 157.196Z" fill="#003A9F"/>
<rect x="70" y="179" width="230" height="1" fill="#003A9F"/>
<rect x="70" y="220" width="230" height="50" fill="#EEEEEE"/>
<path d="M99.6875 245C99.6875 250.35 95.3503 254.688 90 254.688C84.6497 254.688 80.3125 250.35 80.3125 245C80.3125 239.65 84.6497 235.312 90 235.312C95.3503 235.312 99.6875 239.65 99.6875 245ZM88.8794 250.129L96.067 242.942C96.311 242.698 96.311 242.302 96.067 242.058L95.1831 241.174C94.939 240.93 94.5433 240.93 94.2992 241.174L88.4375 247.036L85.7008 244.299C85.4568 244.055 85.061 244.055 84.8169 244.299L83.9331 245.183C83.689 245.427 83.689 245.823 83.9331 246.067L87.9956 250.129C88.2396 250.373 88.6354 250.373 88.8795 250.129L88.8794 250.129Z" fill="black"/>
<path d="M113.768 226.528V227.102H121.272V226.528H113.768ZM114.118 228.166V228.712H121.006V228.166H114.118ZM113.642 229.86V230.448H121.384V229.86H113.642ZM117.114 225.324V230.168H117.758V225.324H117.114ZM119.83 231.442V237.21C119.83 237.364 119.788 237.42 119.606 237.42C119.424 237.434 118.864 237.434 118.15 237.406C118.262 237.588 118.346 237.84 118.388 238.008C119.242 238.008 119.788 238.008 120.096 237.91C120.39 237.798 120.474 237.602 120.474 237.196V231.442H119.83ZM114.888 233.276V233.836H120.222V233.276H114.888ZM114.888 235.11V235.656H120.222V235.11H114.888ZM114.566 231.442V234.06C114.566 235.208 114.468 236.664 113.628 237.784C113.782 237.854 114.02 238.092 114.104 238.232C115.042 237.042 115.21 235.334 115.21 234.06V231.442H114.566ZM114.93 231.442V232.016H120.11V231.442H114.93ZM108.994 229.412V230H112.998V229.412H108.994ZM109.428 233.206V233.808H112.34V236.594H109.428V237.196H112.956V233.206H109.428ZM109.106 233.206V237.882H109.722V233.206H109.106ZM109.008 231.316V231.904H113.026V231.316H109.008ZM108.686 227.704V228.306H113.446V227.704H108.686ZM110.464 225.534C110.73 226.122 111.038 226.906 111.164 227.41L111.766 227.172C111.626 226.682 111.318 225.912 111.024 225.338L110.464 225.534ZM129.686 228.81V229.37H133.578V228.81H129.686ZM128.874 232.534V233.108H131.142V232.534H128.874ZM128.818 234.606V235.18H131.1V234.606H128.818ZM132.57 230.784V235.81H133.116V230.784H132.57ZM130.932 230.532V237.196C130.932 237.336 130.89 237.364 130.75 237.378C130.624 237.378 130.176 237.392 129.644 237.378C129.742 237.532 129.826 237.784 129.854 237.938C130.526 237.938 130.932 237.938 131.184 237.826C131.436 237.728 131.506 237.546 131.506 237.196V230.532H130.932ZM134.264 230.322V237.126C134.264 237.294 134.208 237.336 134.054 237.35C133.872 237.35 133.326 237.35 132.64 237.336C132.738 237.504 132.822 237.742 132.85 237.896C133.69 237.896 134.18 237.896 134.474 237.798C134.754 237.686 134.838 237.504 134.838 237.126V230.322H134.264ZM131.562 225.226C130.792 226.696 129.364 228.138 127.88 228.936C128.034 229.048 128.23 229.258 128.342 229.398C129.868 228.516 131.324 227.018 132.15 225.436L131.562 225.226ZM131.786 225.73L131.254 225.926C132.262 227.466 133.508 228.502 134.964 229.384C135.076 229.188 135.272 228.992 135.426 228.866C134.012 228.082 132.752 227.144 131.786 225.73ZM128.804 230.532V231.106H131.086V230.532H128.804ZM128.538 230.532V233.472C128.538 234.732 128.44 236.384 127.684 237.616C127.824 237.7 128.034 237.91 128.132 238.022C128.972 236.678 129.112 234.844 129.112 233.486V230.532H128.538ZM122.812 226.906V227.536H127.796V226.906H122.812ZM122.672 234.928V235.544H127.838V234.928H122.672ZM125.052 225.324V229.104H125.654V225.324H125.052ZM125.08 229.034V233.206H125.038V238.022H125.668V233.206H125.626V229.034H125.08ZM123.722 231.484H126.942V233.108H123.722V231.484ZM123.722 229.328H126.942V230.938H123.722V229.328ZM123.134 228.754V233.682H127.516V228.754H123.134ZM139.164 226.22V226.892H143.126V226.22H139.164ZM142.776 226.22C142.776 228.712 143.14 234.508 148.894 237.994C149.02 237.84 149.3 237.574 149.454 237.462C143.728 234.032 143.448 228.614 143.448 226.22H142.776ZM142.496 228.768C141.572 232.884 139.794 235.768 136.574 237.476C136.756 237.616 137.064 237.882 137.19 238.022C140.382 236.16 142.216 233.248 143.238 228.908L142.496 228.768ZM157.346 237.196C158.41 237.196 159.124 236.832 159.726 236.454L159.404 235.852C158.844 236.244 158.228 236.496 157.43 236.496C155.806 236.496 154.728 235.222 154.7 233.416H159.992C160.02 233.22 160.034 233.024 160.034 232.828C160.034 230.644 158.942 229.356 157.136 229.356C155.456 229.356 153.86 230.854 153.86 233.29C153.86 235.74 155.414 237.196 157.346 237.196ZM154.686 232.772C154.854 231.05 155.932 230.042 157.15 230.042C158.452 230.042 159.278 230.966 159.278 232.772H154.686ZM161.376 233.486H164.82V232.8H161.376V233.486ZM166.808 237H167.634V231.414C168.418 230.532 169.132 230.084 169.79 230.084C170.882 230.084 171.4 230.798 171.4 232.338V237H172.198V231.414C173.01 230.532 173.696 230.084 174.354 230.084C175.46 230.084 175.978 230.798 175.978 232.338V237H176.79V232.226C176.79 230.308 176.034 229.356 174.55 229.356C173.682 229.356 172.87 229.944 172.03 230.854C171.764 229.944 171.162 229.356 169.972 229.356C169.118 229.356 168.292 229.93 167.62 230.686H167.592L167.494 229.538H166.808V237ZM181.12 237.196C182.086 237.196 182.982 236.664 183.724 236.062H183.766L183.85 237H184.536V232.268C184.536 230.616 183.892 229.356 182.114 229.356C180.896 229.356 179.86 229.93 179.3 230.322L179.65 230.924C180.182 230.532 181.022 230.056 182.016 230.056C183.43 230.056 183.738 231.204 183.71 232.31C180.42 232.688 178.95 233.472 178.95 235.124C178.95 236.51 179.93 237.196 181.12 237.196ZM181.288 236.496C180.462 236.496 179.776 236.104 179.776 235.082C179.776 233.948 180.77 233.248 183.71 232.926V235.348C182.842 236.104 182.114 236.496 181.288 236.496ZM187.124 237H187.95V229.538H187.124V237ZM187.544 227.788C187.922 227.788 188.188 227.536 188.188 227.102C188.188 226.724 187.922 226.458 187.544 226.458C187.166 226.458 186.9 226.724 186.9 227.102C186.9 227.536 187.166 227.788 187.544 227.788ZM191.714 237.196C191.98 237.196 192.12 237.154 192.274 237.112L192.148 236.454C191.994 236.482 191.938 236.482 191.868 236.482C191.672 236.482 191.546 236.328 191.546 235.978V225.884H190.72V235.894C190.72 236.762 191.042 237.196 191.714 237.196Z" fill="#003A9F"/>
<rect x="70" y="269" width="230" height="1" fill="#48545D"/>
<path d="M113.18 248.305L109.242 259H108.242L112.539 247.625H113.234L113.18 248.305ZM116.758 259L112.812 248.305L112.758 247.625H113.453L117.758 259H116.758ZM116.055 254.984V255.812H110.016V254.984H116.055ZM123.359 253.531H120.156L120.141 252.719H122.898C123.461 252.719 123.94 252.638 124.336 252.477C124.732 252.315 125.031 252.076 125.234 251.758C125.443 251.435 125.547 251.039 125.547 250.57C125.547 250.091 125.445 249.695 125.242 249.383C125.039 249.065 124.734 248.831 124.328 248.68C123.922 248.529 123.411 248.453 122.797 248.453H120.406V259H119.445V247.625H122.797C123.375 247.625 123.893 247.682 124.352 247.797C124.81 247.911 125.201 248.091 125.523 248.336C125.846 248.581 126.091 248.891 126.258 249.266C126.43 249.635 126.516 250.078 126.516 250.594C126.516 251.062 126.411 251.487 126.203 251.867C125.995 252.242 125.701 252.549 125.32 252.789C124.945 253.023 124.495 253.169 123.969 253.227L123.359 253.531ZM123.289 259H119.852L120.344 258.18H123.289C123.852 258.18 124.331 258.086 124.727 257.898C125.128 257.706 125.435 257.432 125.648 257.078C125.862 256.724 125.969 256.302 125.969 255.812C125.969 255.38 125.875 254.992 125.688 254.648C125.5 254.305 125.214 254.034 124.828 253.836C124.443 253.633 123.953 253.531 123.359 253.531H121.367L121.383 252.719H124.203L124.375 253.008C124.885 253.06 125.331 253.219 125.711 253.484C126.096 253.745 126.393 254.076 126.602 254.477C126.815 254.878 126.922 255.318 126.922 255.797C126.922 256.484 126.768 257.068 126.461 257.547C126.159 258.021 125.734 258.383 125.188 258.633C124.646 258.878 124.013 259 123.289 259ZM136.344 255.453H137.305C137.227 256.219 137.016 256.88 136.672 257.438C136.328 257.99 135.859 258.414 135.266 258.711C134.672 259.008 133.956 259.156 133.117 259.156C132.471 259.156 131.885 259.034 131.359 258.789C130.839 258.544 130.391 258.198 130.016 257.75C129.641 257.297 129.352 256.755 129.148 256.125C128.945 255.495 128.844 254.794 128.844 254.023V252.602C128.844 251.831 128.945 251.133 129.148 250.508C129.352 249.878 129.643 249.336 130.023 248.883C130.404 248.43 130.859 248.081 131.391 247.836C131.922 247.591 132.521 247.469 133.188 247.469C133.995 247.469 134.693 247.617 135.281 247.914C135.87 248.206 136.333 248.628 136.672 249.18C137.016 249.732 137.227 250.398 137.305 251.18H136.344C136.271 250.565 136.109 250.044 135.859 249.617C135.609 249.19 135.263 248.865 134.82 248.641C134.383 248.411 133.839 248.297 133.188 248.297C132.656 248.297 132.182 248.398 131.766 248.602C131.349 248.805 130.995 249.096 130.703 249.477C130.411 249.852 130.188 250.302 130.031 250.828C129.88 251.354 129.805 251.94 129.805 252.586V254.023C129.805 254.648 129.878 255.224 130.023 255.75C130.169 256.276 130.383 256.732 130.664 257.117C130.951 257.503 131.299 257.802 131.711 258.016C132.122 258.229 132.591 258.336 133.117 258.336C133.789 258.336 134.349 258.229 134.797 258.016C135.25 257.797 135.602 257.474 135.852 257.047C136.102 256.62 136.266 256.089 136.344 255.453ZM142.758 259H140.18L140.195 258.18H142.758C143.576 258.18 144.279 257.997 144.867 257.633C145.461 257.263 145.919 256.753 146.242 256.102C146.565 255.451 146.727 254.695 146.727 253.836V252.773C146.727 252.117 146.633 251.523 146.445 250.992C146.263 250.461 146 250.008 145.656 249.633C145.312 249.253 144.901 248.961 144.422 248.758C143.948 248.555 143.417 248.453 142.828 248.453H140.133V247.625H142.828C143.536 247.625 144.185 247.747 144.773 247.992C145.367 248.232 145.88 248.581 146.312 249.039C146.75 249.492 147.086 250.036 147.32 250.672C147.56 251.307 147.68 252.016 147.68 252.797V253.836C147.68 254.617 147.56 255.326 147.32 255.961C147.086 256.596 146.75 257.141 146.312 257.594C145.875 258.047 145.357 258.396 144.758 258.641C144.159 258.88 143.492 259 142.758 259ZM140.609 247.625V259H139.648V247.625H140.609ZM157.203 258.18V259H150.805V258.18H157.203ZM151.094 247.625V259H150.133V247.625H151.094ZM156.406 252.727V253.547H150.805V252.727H156.406ZM157.164 247.625V248.453H150.805V247.625H157.164ZM160.203 247.625V259H159.242V247.625H160.203ZM165.5 252.859V253.688H159.883V252.859H165.5ZM166.289 247.625V248.453H159.883V247.625H166.289ZM176.445 253.594V257.641C176.315 257.833 176.091 258.047 175.773 258.281C175.456 258.516 175.029 258.721 174.492 258.898C173.956 259.07 173.289 259.156 172.492 259.156C171.826 259.156 171.214 259.036 170.656 258.797C170.099 258.557 169.615 258.211 169.203 257.758C168.797 257.299 168.482 256.75 168.258 256.109C168.039 255.469 167.93 254.75 167.93 253.953V252.578C167.93 251.797 168.031 251.094 168.234 250.469C168.438 249.839 168.732 249.299 169.117 248.852C169.503 248.404 169.966 248.062 170.508 247.828C171.055 247.589 171.667 247.469 172.344 247.469C173.188 247.469 173.898 247.615 174.477 247.906C175.055 248.198 175.505 248.599 175.828 249.109C176.156 249.615 176.359 250.188 176.438 250.828H175.477C175.404 250.375 175.253 249.958 175.023 249.578C174.794 249.193 174.461 248.883 174.023 248.648C173.591 248.414 173.031 248.297 172.344 248.297C171.792 248.297 171.299 248.398 170.867 248.602C170.44 248.805 170.081 249.094 169.789 249.469C169.497 249.844 169.276 250.294 169.125 250.82C168.974 251.341 168.898 251.922 168.898 252.562V253.953C168.898 254.62 168.982 255.221 169.148 255.758C169.32 256.294 169.565 256.755 169.883 257.141C170.201 257.526 170.581 257.823 171.023 258.031C171.466 258.234 171.958 258.336 172.5 258.336C173.078 258.336 173.57 258.281 173.977 258.172C174.383 258.062 174.708 257.932 174.953 257.781C175.203 257.625 175.383 257.479 175.492 257.344V254.414H172.438V253.594H176.445ZM191.438 254.992C191.417 255.482 191.344 255.971 191.219 256.461C191.099 256.951 190.917 257.401 190.672 257.812C190.432 258.219 190.122 258.544 189.742 258.789C189.367 259.034 188.917 259.156 188.391 259.156C188.057 259.156 187.763 259.096 187.508 258.977C187.258 258.857 187.049 258.685 186.883 258.461C186.716 258.237 186.599 257.966 186.531 257.648C186.464 257.326 186.445 256.966 186.477 256.57L186.867 252.117H187.656L187.266 256.57C187.229 256.987 187.247 257.323 187.32 257.578C187.393 257.828 187.497 258.021 187.633 258.156C187.768 258.286 187.911 258.375 188.062 258.422C188.219 258.464 188.359 258.484 188.484 258.484C188.833 258.484 189.141 258.396 189.406 258.219C189.672 258.042 189.898 257.794 190.086 257.477C190.273 257.159 190.419 256.789 190.523 256.367C190.628 255.945 190.69 255.487 190.711 254.992C190.747 254.206 190.711 253.482 190.602 252.82C190.497 252.159 190.312 251.57 190.047 251.055C189.781 250.534 189.435 250.094 189.008 249.734C188.581 249.375 188.068 249.102 187.469 248.914C186.875 248.727 186.19 248.633 185.414 248.633C184.742 248.633 184.112 248.734 183.523 248.938C182.94 249.135 182.409 249.427 181.93 249.812C181.451 250.193 181.034 250.654 180.68 251.195C180.331 251.737 180.052 252.352 179.844 253.039C179.641 253.721 179.521 254.464 179.484 255.266C179.448 256.042 179.495 256.766 179.625 257.438C179.755 258.109 179.964 258.716 180.25 259.258C180.536 259.799 180.898 260.263 181.336 260.648C181.773 261.034 182.281 261.328 182.859 261.531C183.443 261.734 184.094 261.836 184.812 261.836C185.271 261.836 185.734 261.779 186.203 261.664C186.677 261.555 187.073 261.406 187.391 261.219L187.625 261.844C187.281 262.073 186.839 262.245 186.297 262.359C185.755 262.479 185.25 262.539 184.781 262.539C183.99 262.539 183.266 262.43 182.609 262.211C181.958 261.997 181.38 261.682 180.875 261.266C180.375 260.854 179.958 260.352 179.625 259.758C179.292 259.169 179.047 258.497 178.891 257.742C178.734 256.987 178.674 256.161 178.711 255.266C178.747 254.391 178.878 253.576 179.102 252.82C179.331 252.065 179.641 251.388 180.031 250.789C180.422 250.185 180.888 249.667 181.43 249.234C181.971 248.802 182.578 248.471 183.25 248.242C183.927 248.013 184.659 247.898 185.445 247.898C186.279 247.898 187.023 248.005 187.68 248.219C188.341 248.432 188.914 248.742 189.398 249.148C189.888 249.549 190.289 250.039 190.602 250.617C190.914 251.195 191.141 251.852 191.281 252.586C191.422 253.32 191.474 254.122 191.438 254.992ZM182.984 255.664C182.943 256.065 182.94 256.432 182.977 256.766C183.018 257.099 183.096 257.388 183.211 257.633C183.326 257.872 183.479 258.06 183.672 258.195C183.865 258.326 184.094 258.391 184.359 258.391C184.557 258.391 184.763 258.354 184.977 258.281C185.19 258.203 185.396 258.076 185.594 257.898C185.797 257.721 185.987 257.479 186.164 257.172C186.341 256.859 186.492 256.466 186.617 255.992L187 256.469C186.875 256.911 186.716 257.299 186.523 257.633C186.336 257.966 186.12 258.247 185.875 258.477C185.635 258.701 185.372 258.87 185.086 258.984C184.805 259.099 184.505 259.156 184.188 259.156C183.823 259.156 183.503 259.073 183.227 258.906C182.951 258.74 182.724 258.503 182.547 258.195C182.375 257.888 182.255 257.521 182.188 257.094C182.12 256.667 182.109 256.19 182.156 255.664C182.203 255.128 182.297 254.633 182.438 254.18C182.583 253.721 182.76 253.315 182.969 252.961C183.182 252.602 183.424 252.297 183.695 252.047C183.971 251.797 184.266 251.607 184.578 251.477C184.891 251.341 185.216 251.273 185.555 251.273C186.081 251.273 186.495 251.359 186.797 251.531C187.099 251.698 187.385 251.893 187.656 252.117L187.125 252.633C186.969 252.456 186.763 252.305 186.508 252.18C186.258 252.055 185.958 251.992 185.609 251.992C185.292 251.992 184.99 252.068 184.703 252.219C184.417 252.365 184.154 252.591 183.914 252.898C183.68 253.201 183.482 253.581 183.32 254.039C183.159 254.497 183.047 255.039 182.984 255.664ZM199.164 250.547H200.031V258.852C200.031 259.586 199.891 260.216 199.609 260.742C199.333 261.268 198.94 261.672 198.43 261.953C197.924 262.234 197.328 262.375 196.641 262.375C196.292 262.375 195.932 262.32 195.562 262.211C195.198 262.107 194.852 261.945 194.523 261.727C194.201 261.513 193.924 261.247 193.695 260.93L194.219 260.359C194.562 260.776 194.93 261.081 195.32 261.273C195.711 261.471 196.133 261.57 196.586 261.57C197.122 261.57 197.576 261.464 197.945 261.25C198.32 261.036 198.604 260.729 198.797 260.328C198.995 259.927 199.094 259.445 199.094 258.883V252.406L199.164 250.547ZM193.227 254.859V254.695C193.227 254.039 193.299 253.448 193.445 252.922C193.596 252.391 193.812 251.938 194.094 251.562C194.375 251.182 194.716 250.893 195.117 250.695C195.523 250.492 195.982 250.391 196.492 250.391C196.982 250.391 197.417 250.471 197.797 250.633C198.177 250.794 198.505 251.026 198.781 251.328C199.057 251.63 199.279 251.99 199.445 252.406C199.617 252.823 199.742 253.286 199.82 253.797V255.883C199.758 256.362 199.643 256.802 199.477 257.203C199.31 257.599 199.089 257.945 198.812 258.242C198.536 258.534 198.203 258.76 197.812 258.922C197.427 259.078 196.982 259.156 196.477 259.156C195.971 259.156 195.518 259.052 195.117 258.844C194.716 258.635 194.375 258.341 194.094 257.961C193.812 257.576 193.596 257.12 193.445 256.594C193.299 256.068 193.227 255.49 193.227 254.859ZM194.164 254.695V254.859C194.164 255.354 194.214 255.812 194.312 256.234C194.411 256.656 194.562 257.023 194.766 257.336C194.969 257.648 195.227 257.893 195.539 258.07C195.852 258.247 196.219 258.336 196.641 258.336C197.177 258.336 197.628 258.234 197.992 258.031C198.357 257.823 198.646 257.549 198.859 257.211C199.073 256.867 199.229 256.492 199.328 256.086V253.656C199.271 253.38 199.182 253.099 199.062 252.812C198.948 252.526 198.786 252.263 198.578 252.023C198.375 251.779 198.115 251.583 197.797 251.438C197.484 251.286 197.104 251.211 196.656 251.211C196.229 251.211 195.857 251.299 195.539 251.477C195.227 251.654 194.969 251.901 194.766 252.219C194.562 252.531 194.411 252.898 194.312 253.32C194.214 253.742 194.164 254.201 194.164 254.695ZM203.359 252.297V259H202.422V250.547H203.32L203.359 252.297ZM203.188 254.25L202.734 254.016C202.766 253.516 202.859 253.047 203.016 252.609C203.177 252.172 203.401 251.786 203.688 251.453C203.974 251.12 204.318 250.859 204.719 250.672C205.12 250.484 205.576 250.391 206.086 250.391C206.497 250.391 206.87 250.448 207.203 250.562C207.542 250.672 207.828 250.846 208.062 251.086C208.302 251.32 208.487 251.628 208.617 252.008C208.747 252.388 208.812 252.844 208.812 253.375V259H207.883V253.406C207.883 252.844 207.794 252.404 207.617 252.086C207.445 251.768 207.203 251.542 206.891 251.406C206.583 251.271 206.227 251.203 205.82 251.203C205.341 251.203 204.935 251.302 204.602 251.5C204.273 251.693 204.005 251.945 203.797 252.258C203.594 252.565 203.443 252.896 203.344 253.25C203.245 253.599 203.193 253.932 203.188 254.25ZM208.805 253.516L208.18 253.531C208.206 253.12 208.299 252.727 208.461 252.352C208.628 251.977 208.854 251.643 209.141 251.352C209.427 251.055 209.768 250.82 210.164 250.648C210.565 250.477 211.016 250.391 211.516 250.391C211.953 250.391 212.344 250.451 212.688 250.57C213.031 250.685 213.32 250.87 213.555 251.125C213.794 251.375 213.977 251.695 214.102 252.086C214.227 252.477 214.289 252.945 214.289 253.492V259H213.352V253.484C213.352 252.885 213.263 252.422 213.086 252.094C212.914 251.76 212.674 251.529 212.367 251.398C212.06 251.268 211.701 251.203 211.289 251.203C210.883 251.208 210.526 251.284 210.219 251.43C209.911 251.57 209.654 251.758 209.445 251.992C209.242 252.221 209.086 252.469 208.977 252.734C208.872 253 208.815 253.26 208.805 253.516ZM221.805 257.484V253.125C221.805 252.724 221.721 252.378 221.555 252.086C221.388 251.794 221.143 251.57 220.82 251.414C220.497 251.258 220.099 251.18 219.625 251.18C219.188 251.18 218.797 251.258 218.453 251.414C218.115 251.565 217.846 251.771 217.648 252.031C217.456 252.286 217.359 252.57 217.359 252.883L216.422 252.875C216.422 252.557 216.5 252.25 216.656 251.953C216.812 251.656 217.034 251.391 217.32 251.156C217.607 250.922 217.948 250.737 218.344 250.602C218.745 250.461 219.185 250.391 219.664 250.391C220.268 250.391 220.799 250.492 221.258 250.695C221.721 250.898 222.083 251.203 222.344 251.609C222.604 252.016 222.734 252.526 222.734 253.141V257.227C222.734 257.518 222.755 257.82 222.797 258.133C222.844 258.445 222.909 258.703 222.992 258.906V259H222C221.938 258.812 221.888 258.578 221.852 258.297C221.82 258.01 221.805 257.74 221.805 257.484ZM222.023 254.078L222.039 254.797H220.203C219.724 254.797 219.294 254.841 218.914 254.93C218.539 255.013 218.221 255.138 217.961 255.305C217.701 255.466 217.5 255.661 217.359 255.891C217.224 256.12 217.156 256.38 217.156 256.672C217.156 256.974 217.232 257.25 217.383 257.5C217.539 257.75 217.758 257.951 218.039 258.102C218.326 258.247 218.664 258.32 219.055 258.32C219.576 258.32 220.034 258.224 220.43 258.031C220.831 257.839 221.161 257.586 221.422 257.273C221.682 256.961 221.857 256.62 221.945 256.25L222.352 256.789C222.284 257.049 222.159 257.318 221.977 257.594C221.799 257.865 221.568 258.12 221.281 258.359C220.995 258.594 220.656 258.786 220.266 258.938C219.88 259.083 219.443 259.156 218.953 259.156C218.401 259.156 217.919 259.052 217.508 258.844C217.102 258.635 216.784 258.352 216.555 257.992C216.331 257.628 216.219 257.216 216.219 256.758C216.219 256.341 216.307 255.969 216.484 255.641C216.661 255.307 216.917 255.026 217.25 254.797C217.589 254.562 217.995 254.385 218.469 254.266C218.948 254.141 219.484 254.078 220.078 254.078H222.023ZM226.281 250.547V259H225.352V250.547H226.281ZM225.188 248.102C225.188 247.924 225.242 247.776 225.352 247.656C225.466 247.531 225.622 247.469 225.82 247.469C226.018 247.469 226.174 247.531 226.289 247.656C226.409 247.776 226.469 247.924 226.469 248.102C226.469 248.273 226.409 248.422 226.289 248.547C226.174 248.667 226.018 248.727 225.82 248.727C225.622 248.727 225.466 248.667 225.352 248.547C225.242 248.422 225.188 248.273 225.188 248.102ZM229.875 247V259H228.945V247H229.875ZM232.344 258.43C232.344 258.247 232.401 258.094 232.516 257.969C232.635 257.839 232.797 257.773 233 257.773C233.208 257.773 233.372 257.836 233.492 257.961C233.612 258.086 233.672 258.242 233.672 258.43C233.672 258.607 233.612 258.758 233.492 258.883C233.372 259.008 233.208 259.07 233 259.07C232.797 259.07 232.635 259.008 232.516 258.883C232.401 258.758 232.344 258.607 232.344 258.43ZM239.375 258.352C239.771 258.352 240.141 258.279 240.484 258.133C240.833 257.982 241.12 257.76 241.344 257.469C241.573 257.172 241.703 256.81 241.734 256.383H242.625C242.599 256.919 242.435 257.398 242.133 257.82C241.836 258.237 241.445 258.565 240.961 258.805C240.482 259.039 239.953 259.156 239.375 259.156C238.786 259.156 238.266 259.049 237.812 258.836C237.365 258.622 236.99 258.326 236.688 257.945C236.385 257.56 236.156 257.112 236 256.602C235.849 256.086 235.773 255.531 235.773 254.938V254.609C235.773 254.016 235.849 253.464 236 252.953C236.156 252.438 236.385 251.99 236.688 251.609C236.99 251.224 237.365 250.924 237.812 250.711C238.26 250.497 238.779 250.391 239.367 250.391C239.971 250.391 240.513 250.513 240.992 250.758C241.477 251.003 241.862 251.349 242.148 251.797C242.44 252.245 242.599 252.776 242.625 253.391H241.734C241.708 252.938 241.589 252.547 241.375 252.219C241.161 251.891 240.88 251.638 240.531 251.461C240.182 251.284 239.794 251.195 239.367 251.195C238.888 251.195 238.479 251.289 238.141 251.477C237.802 251.659 237.526 251.911 237.312 252.234C237.104 252.552 236.951 252.917 236.852 253.328C236.753 253.734 236.703 254.161 236.703 254.609V254.938C236.703 255.391 236.75 255.823 236.844 256.234C236.943 256.641 237.096 257.003 237.305 257.32C237.518 257.638 237.794 257.891 238.133 258.078C238.477 258.26 238.891 258.352 239.375 258.352ZM243.992 254.906V254.648C243.992 254.034 244.081 253.466 244.258 252.945C244.435 252.424 244.688 251.974 245.016 251.594C245.349 251.214 245.747 250.919 246.211 250.711C246.674 250.497 247.19 250.391 247.758 250.391C248.331 250.391 248.849 250.497 249.312 250.711C249.776 250.919 250.174 251.214 250.508 251.594C250.841 251.974 251.096 252.424 251.273 252.945C251.451 253.466 251.539 254.034 251.539 254.648V254.906C251.539 255.521 251.451 256.089 251.273 256.609C251.096 257.125 250.841 257.573 250.508 257.953C250.18 258.333 249.784 258.63 249.32 258.844C248.857 259.052 248.341 259.156 247.773 259.156C247.201 259.156 246.682 259.052 246.219 258.844C245.755 258.63 245.357 258.333 245.023 257.953C244.69 257.573 244.435 257.125 244.258 256.609C244.081 256.089 243.992 255.521 243.992 254.906ZM244.922 254.648V254.906C244.922 255.37 244.984 255.81 245.109 256.227C245.234 256.638 245.417 257.005 245.656 257.328C245.896 257.646 246.193 257.896 246.547 258.078C246.901 258.26 247.31 258.352 247.773 258.352C248.232 258.352 248.635 258.26 248.984 258.078C249.339 257.896 249.635 257.646 249.875 257.328C250.115 257.005 250.294 256.638 250.414 256.227C250.539 255.81 250.602 255.37 250.602 254.906V254.648C250.602 254.19 250.539 253.755 250.414 253.344C250.294 252.932 250.112 252.565 249.867 252.242C249.628 251.919 249.331 251.664 248.977 251.477C248.622 251.289 248.216 251.195 247.758 251.195C247.299 251.195 246.893 251.289 246.539 251.477C246.19 251.664 245.893 251.919 245.648 252.242C245.409 252.565 245.227 252.932 245.102 253.344C244.982 253.755 244.922 254.19 244.922 254.648ZM254.359 252.297V259H253.422V250.547H254.32L254.359 252.297ZM254.188 254.25L253.734 254.016C253.766 253.516 253.859 253.047 254.016 252.609C254.177 252.172 254.401 251.786 254.688 251.453C254.974 251.12 255.318 250.859 255.719 250.672C256.12 250.484 256.576 250.391 257.086 250.391C257.497 250.391 257.87 250.448 258.203 250.562C258.542 250.672 258.828 250.846 259.062 251.086C259.302 251.32 259.487 251.628 259.617 252.008C259.747 252.388 259.812 252.844 259.812 253.375V259H258.883V253.406C258.883 252.844 258.794 252.404 258.617 252.086C258.445 251.768 258.203 251.542 257.891 251.406C257.583 251.271 257.227 251.203 256.82 251.203C256.341 251.203 255.935 251.302 255.602 251.5C255.273 251.693 255.005 251.945 254.797 252.258C254.594 252.565 254.443 252.896 254.344 253.25C254.245 253.599 254.193 253.932 254.188 254.25ZM259.805 253.516L259.18 253.531C259.206 253.12 259.299 252.727 259.461 252.352C259.628 251.977 259.854 251.643 260.141 251.352C260.427 251.055 260.768 250.82 261.164 250.648C261.565 250.477 262.016 250.391 262.516 250.391C262.953 250.391 263.344 250.451 263.688 250.57C264.031 250.685 264.32 250.87 264.555 251.125C264.794 251.375 264.977 251.695 265.102 252.086C265.227 252.477 265.289 252.945 265.289 253.492V259H264.352V253.484C264.352 252.885 264.263 252.422 264.086 252.094C263.914 251.76 263.674 251.529 263.367 251.398C263.06 251.268 262.701 251.203 262.289 251.203C261.883 251.208 261.526 251.284 261.219 251.43C260.911 251.57 260.654 251.758 260.445 251.992C260.242 252.221 260.086 252.469 259.977 252.734C259.872 253 259.815 253.26 259.805 253.516Z" fill="black"/>
<rect x="380" y="40" width="350" height="230" fill="white"/>
<rect x="400.5" y="60.5" width="309" height="49" stroke="#939EA7"/>
<path d="M421.592 80.032V80.688H430.168V80.032H421.592ZM421.992 81.904V82.528H429.864V81.904H421.992ZM421.448 83.84V84.512H430.296V83.84H421.448ZM425.416 78.656V84.192H426.152V78.656H425.416ZM428.52 85.648V92.24C428.52 92.416 428.472 92.48 428.264 92.48C428.056 92.496 427.416 92.496 426.6 92.464C426.728 92.672 426.824 92.96 426.872 93.152C427.848 93.152 428.472 93.152 428.824 93.04C429.16 92.912 429.256 92.688 429.256 92.224V85.648H428.52ZM422.872 87.744V88.384H428.968V87.744H422.872ZM422.872 89.84V90.464H428.968V89.84H422.872ZM422.504 85.648V88.64C422.504 89.952 422.392 91.616 421.432 92.896C421.608 92.976 421.88 93.248 421.976 93.408C423.048 92.048 423.24 90.096 423.24 88.64V85.648H422.504ZM422.92 85.648V86.304H428.84V85.648H422.92ZM416.136 83.328V84H420.712V83.328H416.136ZM416.632 87.664V88.352H419.96V91.536H416.632V92.224H420.664V87.664H416.632ZM416.264 87.664V93.008H416.968V87.664H416.264ZM416.152 85.504V86.176H420.744V85.504H416.152ZM415.784 81.376V82.064H421.224V81.376H415.784ZM417.816 78.896C418.12 79.568 418.472 80.464 418.616 81.04L419.304 80.768C419.144 80.208 418.792 79.328 418.456 78.672L417.816 78.896ZM439.784 82.64V83.28H444.232V82.64H439.784ZM438.856 86.896V87.552H441.448V86.896H438.856ZM438.792 89.264V89.92H441.4V89.264H438.792ZM443.08 84.896V90.64H443.704V84.896H443.08ZM441.208 84.608V92.224C441.208 92.384 441.16 92.416 441 92.432C440.856 92.432 440.344 92.448 439.736 92.432C439.848 92.608 439.944 92.896 439.976 93.072C440.744 93.072 441.208 93.072 441.496 92.944C441.784 92.832 441.864 92.624 441.864 92.224V84.608H441.208ZM445.016 84.368V92.144C445.016 92.336 444.952 92.384 444.776 92.4C444.568 92.4 443.944 92.4 443.16 92.384C443.272 92.576 443.368 92.848 443.4 93.024C444.36 93.024 444.92 93.024 445.256 92.912C445.576 92.784 445.672 92.576 445.672 92.144V84.368H445.016ZM441.928 78.544C441.048 80.224 439.416 81.872 437.72 82.784C437.896 82.912 438.12 83.152 438.248 83.312C439.992 82.304 441.656 80.592 442.6 78.784L441.928 78.544ZM442.184 79.12L441.576 79.344C442.728 81.104 444.152 82.288 445.816 83.296C445.944 83.072 446.168 82.848 446.344 82.704C444.728 81.808 443.288 80.736 442.184 79.12ZM438.776 84.608V85.264H441.384V84.608H438.776ZM438.472 84.608V87.968C438.472 89.408 438.36 91.296 437.496 92.704C437.656 92.8 437.896 93.04 438.008 93.168C438.968 91.632 439.128 89.536 439.128 87.984V84.608H438.472ZM431.928 80.464V81.184H437.624V80.464H431.928ZM431.768 89.632V90.336H437.672V89.632H431.768ZM434.488 78.656V82.976H435.176V78.656H434.488ZM434.52 82.896V87.664H434.472V93.168H435.192V87.664H435.144V82.896H434.52ZM432.968 85.696H436.648V87.552H432.968V85.696ZM432.968 83.232H436.648V85.072H432.968V83.232ZM432.296 82.576V88.208H437.304V82.576H432.296ZM450.616 79.68V80.448H455.144V79.68H450.616ZM454.744 79.68C454.744 82.528 455.16 89.152 461.736 93.136C461.88 92.96 462.2 92.656 462.376 92.528C455.832 88.608 455.512 82.416 455.512 79.68H454.744ZM454.424 82.592C453.368 87.296 451.336 90.592 447.656 92.544C447.864 92.704 448.216 93.008 448.36 93.168C452.008 91.04 454.104 87.712 455.272 82.752L454.424 82.592ZM471.395 92.224C472.611 92.224 473.427 91.808 474.115 91.376L473.747 90.688C473.107 91.136 472.403 91.424 471.491 91.424C469.635 91.424 468.403 89.968 468.371 87.904H474.419C474.451 87.68 474.467 87.456 474.467 87.232C474.467 84.736 473.219 83.264 471.155 83.264C469.235 83.264 467.411 84.976 467.411 87.76C467.411 90.56 469.187 92.224 471.395 92.224ZM468.355 87.168C468.547 85.2 469.779 84.048 471.171 84.048C472.659 84.048 473.603 85.104 473.603 87.168H468.355ZM476.001 87.984H479.937V87.2H476.001V87.984ZM482.209 92H483.153V85.616C484.049 84.608 484.865 84.096 485.617 84.096C486.865 84.096 487.457 84.912 487.457 86.672V92H488.369V85.616C489.297 84.608 490.081 84.096 490.833 84.096C492.097 84.096 492.689 84.912 492.689 86.672V92H493.617V86.544C493.617 84.352 492.753 83.264 491.057 83.264C490.065 83.264 489.137 83.936 488.177 84.976C487.873 83.936 487.185 83.264 485.825 83.264C484.849 83.264 483.905 83.92 483.137 84.784H483.105L482.993 83.472H482.209V92ZM498.566 92.224C499.67 92.224 500.694 91.616 501.542 90.928H501.59L501.686 92H502.47V86.592C502.47 84.704 501.734 83.264 499.702 83.264C498.31 83.264 497.126 83.92 496.486 84.368L496.886 85.056C497.494 84.608 498.454 84.064 499.59 84.064C501.206 84.064 501.558 85.376 501.526 86.64C497.766 87.072 496.086 87.968 496.086 89.856C496.086 91.44 497.206 92.224 498.566 92.224ZM498.758 91.424C497.814 91.424 497.03 90.976 497.03 89.808C497.03 88.512 498.166 87.712 501.526 87.344V90.112C500.534 90.976 499.702 91.424 498.758 91.424ZM505.428 92H506.372V83.472H505.428V92ZM505.908 81.472C506.34 81.472 506.644 81.184 506.644 80.688C506.644 80.256 506.34 79.952 505.908 79.952C505.476 79.952 505.172 80.256 505.172 80.688C505.172 81.184 505.476 81.472 505.908 81.472ZM510.673 92.224C510.977 92.224 511.137 92.176 511.313 92.128L511.169 91.376C510.993 91.408 510.929 91.408 510.849 91.408C510.625 91.408 510.481 91.232 510.481 90.832V79.296H509.537V90.736C509.537 91.728 509.905 92.224 510.673 92.224Z" fill="#48545D"/>
<rect x="400.5" y="200.5" width="159" height="49" stroke="#939EA7"/>
<path d="M421.592 220.032V220.688H430.168V220.032H421.592ZM421.992 221.904V222.528H429.864V221.904H421.992ZM421.448 223.84V224.512H430.296V223.84H421.448ZM425.416 218.656V224.192H426.152V218.656H425.416ZM428.52 225.648V232.24C428.52 232.416 428.472 232.48 428.264 232.48C428.056 232.496 427.416 232.496 426.6 232.464C426.728 232.672 426.824 232.96 426.872 233.152C427.848 233.152 428.472 233.152 428.824 233.04C429.16 232.912 429.256 232.688 429.256 232.224V225.648H428.52ZM422.872 227.744V228.384H428.968V227.744H422.872ZM422.872 229.84V230.464H428.968V229.84H422.872ZM422.504 225.648V228.64C422.504 229.952 422.392 231.616 421.432 232.896C421.608 232.976 421.88 233.248 421.976 233.408C423.048 232.048 423.24 230.096 423.24 228.64V225.648H422.504ZM422.92 225.648V226.304H428.84V225.648H422.92ZM416.136 223.328V224H420.712V223.328H416.136ZM416.632 227.664V228.352H419.96V231.536H416.632V232.224H420.664V227.664H416.632ZM416.264 227.664V233.008H416.968V227.664H416.264ZM416.152 225.504V226.176H420.744V225.504H416.152ZM415.784 221.376V222.064H421.224V221.376H415.784ZM417.816 218.896C418.12 219.568 418.472 220.464 418.616 221.04L419.304 220.768C419.144 220.208 418.792 219.328 418.456 218.672L417.816 218.896ZM439.784 222.64V223.28H444.232V222.64H439.784ZM438.856 226.896V227.552H441.448V226.896H438.856ZM438.792 229.264V229.92H441.4V229.264H438.792ZM443.08 224.896V230.64H443.704V224.896H443.08ZM441.208 224.608V232.224C441.208 232.384 441.16 232.416 441 232.432C440.856 232.432 440.344 232.448 439.736 232.432C439.848 232.608 439.944 232.896 439.976 233.072C440.744 233.072 441.208 233.072 441.496 232.944C441.784 232.832 441.864 232.624 441.864 232.224V224.608H441.208ZM445.016 224.368V232.144C445.016 232.336 444.952 232.384 444.776 232.4C444.568 232.4 443.944 232.4 443.16 232.384C443.272 232.576 443.368 232.848 443.4 233.024C444.36 233.024 444.92 233.024 445.256 232.912C445.576 232.784 445.672 232.576 445.672 232.144V224.368H445.016ZM441.928 218.544C441.048 220.224 439.416 221.872 437.72 222.784C437.896 222.912 438.12 223.152 438.248 223.312C439.992 222.304 441.656 220.592 442.6 218.784L441.928 218.544ZM442.184 219.12L441.576 219.344C442.728 221.104 444.152 222.288 445.816 223.296C445.944 223.072 446.168 222.848 446.344 222.704C444.728 221.808 443.288 220.736 442.184 219.12ZM438.776 224.608V225.264H441.384V224.608H438.776ZM438.472 224.608V227.968C438.472 229.408 438.36 231.296 437.496 232.704C437.656 232.8 437.896 233.04 438.008 233.168C438.968 231.632 439.128 229.536 439.128 227.984V224.608H438.472ZM431.928 220.464V221.184H437.624V220.464H431.928ZM431.768 229.632V230.336H437.672V229.632H431.768ZM434.488 218.656V222.976H435.176V218.656H434.488ZM434.52 222.896V227.664H434.472V233.168H435.192V227.664H435.144V222.896H434.52ZM432.968 225.696H436.648V227.552H432.968V225.696ZM432.968 223.232H436.648V225.072H432.968V223.232ZM432.296 222.576V228.208H437.304V222.576H432.296ZM450.616 219.68V220.448H455.144V219.68H450.616ZM454.744 219.68C454.744 222.528 455.16 229.152 461.736 233.136C461.88 232.96 462.2 232.656 462.376 232.528C455.832 228.608 455.512 222.416 455.512 219.68H454.744ZM454.424 222.592C453.368 227.296 451.336 230.592 447.656 232.544C447.864 232.704 448.216 233.008 448.36 233.168C452.008 231.04 454.104 227.712 455.272 222.752L454.424 222.592ZM466.072 228.32V228.928H475.96V228.32H466.072ZM466.12 226.352V226.992H475.656V230.272H466.12V230.912H476.408V226.352H466.12ZM470.536 226.624V231.648C470.536 232.752 471 232.976 472.552 232.976C472.904 232.976 476.104 232.976 476.472 232.976C477.848 232.976 478.12 232.48 478.248 230.528C478.024 230.496 477.72 230.368 477.544 230.24C477.464 232.016 477.32 232.304 476.44 232.304C475.768 232.304 473.048 232.304 472.536 232.304C471.496 232.304 471.304 232.176 471.304 231.664V226.624H470.536ZM465.704 226.352V231.808H466.44V226.352H465.704ZM465.064 219.328V219.952H476.92V219.328H465.064ZM470.552 219.504V225.664H471.32V219.504H470.552ZM464.36 221.2V224.544H465.128V221.824H476.856V224.544H477.64V221.2H464.36ZM465.64 224.928L465.928 225.616C466.984 225.424 468.216 225.2 469.48 224.96L469.464 224.384C468.04 224.608 466.664 224.816 465.64 224.928ZM465.976 222.816C467.112 223.04 468.536 223.472 469.288 223.824L469.544 223.28C468.792 222.928 467.368 222.544 466.248 222.336L465.976 222.816ZM475.624 222.288C474.808 222.608 473.368 223.104 472.392 223.344L472.712 223.792C473.704 223.584 475.08 223.216 476.024 222.816L475.624 222.288ZM472.216 224.864C473.496 225.04 475.112 225.408 476.008 225.728L476.216 225.12C475.32 224.8 473.72 224.464 472.456 224.32L472.216 224.864ZM492.76 218.784C491.256 219.408 488.408 219.952 486.056 220.304C486.136 220.48 486.248 220.752 486.28 220.928C488.68 220.608 491.56 220.08 493.32 219.392L492.76 218.784ZM486.088 223.648V224.4H494.216V223.648H486.088ZM486.632 227.344V233.184H487.384V228.08H492.6V233.12H493.336V227.344H486.632ZM487.048 231.776V232.496H492.984V231.776H487.048ZM489.64 219.936V227.824H490.376V219.936H489.64ZM480.376 223.472V224.128H484.92V223.472H480.376ZM480.376 225.536V226.192H484.92V225.536H480.376ZM479.736 221.408V222.096H485.448V221.408H479.736ZM480.728 227.616V228.32H484.296V231.488H480.728V232.176H485.032V227.616H480.728ZM480.392 227.616V232.976H481.096V227.616H480.392ZM481.592 218.928C482.04 219.568 482.568 220.448 482.824 221.008L483.464 220.608C483.208 220.064 482.68 219.232 482.184 218.592L481.592 218.928Z" fill="#48545D"/>
<rect x="580" y="200" width="130" height="50" fill="#EEEEEE"/>
<path d="M601.592 220.032V220.688H610.168V220.032H601.592ZM601.992 221.904V222.528H609.864V221.904H601.992ZM601.448 223.84V224.512H610.296V223.84H601.448ZM605.416 218.656V224.192H606.152V218.656H605.416ZM608.52 225.648V232.24C608.52 232.416 608.472 232.48 608.264 232.48C608.056 232.496 607.416 232.496 606.6 232.464C606.728 232.672 606.824 232.96 606.872 233.152C607.848 233.152 608.472 233.152 608.824 233.04C609.16 232.912 609.256 232.688 609.256 232.224V225.648H608.52ZM602.872 227.744V228.384H608.968V227.744H602.872ZM602.872 229.84V230.464H608.968V229.84H602.872ZM602.504 225.648V228.64C602.504 229.952 602.392 231.616 601.432 232.896C601.608 232.976 601.88 233.248 601.976 233.408C603.048 232.048 603.24 230.096 603.24 228.64V225.648H602.504ZM602.92 225.648V226.304H608.84V225.648H602.92ZM596.136 223.328V224H600.712V223.328H596.136ZM596.632 227.664V228.352H599.96V231.536H596.632V232.224H600.664V227.664H596.632ZM596.264 227.664V233.008H596.968V227.664H596.264ZM596.152 225.504V226.176H600.744V225.504H596.152ZM595.784 221.376V222.064H601.224V221.376H595.784ZM597.816 218.896C598.12 219.568 598.472 220.464 598.616 221.04L599.304 220.768C599.144 220.208 598.792 219.328 598.456 218.672L597.816 218.896ZM616.28 225.584V226.224H625.64V225.584H616.28ZM615.56 228.016V228.672H626.12V228.016H615.56ZM618.68 224.24V228.368H619.416V224.24H618.68ZM622.36 224.24V228.368H623.08V224.24H622.36ZM621.848 229.344C623.16 229.952 624.456 230.736 625.208 231.408L625.88 230.992C625.064 230.336 623.672 229.568 622.392 228.976L621.848 229.344ZM619.192 228.96C618.392 229.696 617.112 230.432 615.96 230.928C616.168 231.04 616.456 231.296 616.6 231.44C617.704 230.896 619.032 230.032 619.912 229.2L619.192 228.96ZM616.536 219.344V219.952H619.688V221.232H616.536V221.856H620.376V219.344H616.536ZM621.672 219.36V219.968H624.856V221.248H621.672V221.872H625.576V219.36H621.672ZM621.352 219.36V222.688C621.352 223.6 621.576 223.904 622.472 223.904C622.696 223.904 624.6 223.904 624.984 223.904C625.416 223.904 625.832 223.888 626.04 223.84C626.008 223.68 625.976 223.424 625.96 223.232C625.704 223.28 625.24 223.296 624.952 223.296C624.616 223.296 622.84 223.296 622.488 223.296C622.104 223.296 622.024 223.168 622.024 222.704V219.36H621.352ZM616.2 224.288C616.44 224.144 616.872 224.032 620.616 223.328C620.6 223.184 620.584 222.944 620.6 222.752L616.584 223.424L616.184 223.712L616.2 224.288ZM616.2 224.288C616.2 224 616.904 223.584 616.904 223.584V219.344H616.232V222.752C616.232 223.344 616.024 223.504 615.864 223.584C615.976 223.776 616.136 224.096 616.2 224.288ZM612.2 219.136C612.904 219.92 613.768 221.024 614.184 221.68L614.808 221.264C614.376 220.624 613.512 219.584 612.792 218.8L612.2 219.136ZM611.8 222.336V223.024H614.696V222.336H611.8ZM614.28 229.888L613.768 230.176C614.984 232.576 617.176 232.976 621 232.976C622.696 232.976 624.728 232.944 626.152 232.848C626.2 232.64 626.28 232.256 626.424 232.064C624.872 232.192 622.68 232.256 620.984 232.256C617.592 232.256 615.352 231.952 614.28 229.888ZM614.648 226.384V226.544C614.232 229.488 613.096 231.568 611.56 232.688C611.736 232.8 611.976 233.072 612.104 233.248C613.688 232.016 614.904 229.808 615.4 226.512L614.984 226.368L614.84 226.384H614.648ZM611.992 227.264C612.104 227.168 612.504 227.056 612.888 227.056H614.856V226.384H612.504L611.992 226.624V227.264ZM611.992 227.264C611.992 227.024 612.68 226.688 612.68 226.688C613.432 225.696 614.68 223.552 615.304 222.48L614.728 222.256L614.456 222.368V222.416C614.04 223.232 612.744 225.552 612.328 226.032C612.12 226.32 611.864 226.416 611.656 226.48C611.752 226.656 611.944 227.056 611.992 227.264ZM639.048 219.904H641.048V221.968H639.048V219.904ZM636.408 219.904H638.392V221.968H636.408V219.904ZM633.864 219.904H635.736V221.968H633.864V219.904ZM633.176 219.28V222.608H641.736V219.28H633.176ZM633.352 223.728V224.4H641.368V223.728H633.352ZM632.616 225.76V226.432H641.928V225.76H632.616ZM632.936 228.144V228.816H641.608V228.144H632.936ZM632.44 230.208V230.864H642.152V230.208H632.44ZM636.952 222.368V226H637.704V222.368H636.952ZM636.952 228.384V233.184H637.704V228.384H636.952ZM634.6 226.64C634.904 227.136 635.208 227.824 635.32 228.272L636.008 228.032C635.896 227.6 635.56 226.944 635.272 226.464L634.6 226.64ZM639.4 226.432C639.208 226.976 638.792 227.808 638.488 228.336L639.08 228.544C639.432 228.064 639.816 227.328 640.168 226.656L639.4 226.432ZM627.672 227.072L627.912 227.824C629.16 227.392 630.776 226.8 632.328 226.208L632.232 225.488C630.536 226.096 628.808 226.688 627.672 227.072ZM627.8 222V222.736H632.392V222H627.8ZM629.896 218.672V232.08C629.896 232.288 629.816 232.352 629.624 232.368C629.432 232.368 628.776 232.384 628.008 232.352C628.12 232.576 628.232 232.896 628.264 233.104C629.272 233.104 629.832 233.088 630.152 232.944C630.504 232.832 630.648 232.576 630.648 232.064V218.672H629.896Z" fill="#48545D"/>
<path d="M679.982 222.8H690.032C690.728 222.8 691.075 223.64 690.583 224.132L685.56 229.159C685.255 229.464 684.759 229.464 684.454 229.159L679.431 224.132C678.939 223.64 679.286 222.8 679.982 222.8V222.8Z" fill="black"/>
<rect x="400" y="130" width="310" height="50" fill="#EEEEEE"/>
<path d="M421.592 150.032V150.688H430.168V150.032H421.592ZM421.992 151.904V152.528H429.864V151.904H421.992ZM421.448 153.84V154.512H430.296V153.84H421.448ZM425.416 148.656V154.192H426.152V148.656H425.416ZM428.52 155.648V162.24C428.52 162.416 428.472 162.48 428.264 162.48C428.056 162.496 427.416 162.496 426.6 162.464C426.728 162.672 426.824 162.96 426.872 163.152C427.848 163.152 428.472 163.152 428.824 163.04C429.16 162.912 429.256 162.688 429.256 162.224V155.648H428.52ZM422.872 157.744V158.384H428.968V157.744H422.872ZM422.872 159.84V160.464H428.968V159.84H422.872ZM422.504 155.648V158.64C422.504 159.952 422.392 161.616 421.432 162.896C421.608 162.976 421.88 163.248 421.976 163.408C423.048 162.048 423.24 160.096 423.24 158.64V155.648H422.504ZM422.92 155.648V156.304H428.84V155.648H422.92ZM416.136 153.328V154H420.712V153.328H416.136ZM416.632 157.664V158.352H419.96V161.536H416.632V162.224H420.664V157.664H416.632ZM416.264 157.664V163.008H416.968V157.664H416.264ZM416.152 155.504V156.176H420.744V155.504H416.152ZM415.784 151.376V152.064H421.224V151.376H415.784ZM417.816 148.896C418.12 149.568 418.472 150.464 418.616 151.04L419.304 150.768C419.144 150.208 418.792 149.328 418.456 148.672L417.816 148.896ZM439.784 152.64V153.28H444.232V152.64H439.784ZM438.856 156.896V157.552H441.448V156.896H438.856ZM438.792 159.264V159.92H441.4V159.264H438.792ZM443.08 154.896V160.64H443.704V154.896H443.08ZM441.208 154.608V162.224C441.208 162.384 441.16 162.416 441 162.432C440.856 162.432 440.344 162.448 439.736 162.432C439.848 162.608 439.944 162.896 439.976 163.072C440.744 163.072 441.208 163.072 441.496 162.944C441.784 162.832 441.864 162.624 441.864 162.224V154.608H441.208ZM445.016 154.368V162.144C445.016 162.336 444.952 162.384 444.776 162.4C444.568 162.4 443.944 162.4 443.16 162.384C443.272 162.576 443.368 162.848 443.4 163.024C444.36 163.024 444.92 163.024 445.256 162.912C445.576 162.784 445.672 162.576 445.672 162.144V154.368H445.016ZM441.928 148.544C441.048 150.224 439.416 151.872 437.72 152.784C437.896 152.912 438.12 153.152 438.248 153.312C439.992 152.304 441.656 150.592 442.6 148.784L441.928 148.544ZM442.184 149.12L441.576 149.344C442.728 151.104 444.152 152.288 445.816 153.296C445.944 153.072 446.168 152.848 446.344 152.704C444.728 151.808 443.288 150.736 442.184 149.12ZM438.776 154.608V155.264H441.384V154.608H438.776ZM438.472 154.608V157.968C438.472 159.408 438.36 161.296 437.496 162.704C437.656 162.8 437.896 163.04 438.008 163.168C438.968 161.632 439.128 159.536 439.128 157.984V154.608H438.472ZM431.928 150.464V151.184H437.624V150.464H431.928ZM431.768 159.632V160.336H437.672V159.632H431.768ZM434.488 148.656V152.976H435.176V148.656H434.488ZM434.52 152.896V157.664H434.472V163.168H435.192V157.664H435.144V152.896H434.52ZM432.968 155.696H436.648V157.552H432.968V155.696ZM432.968 153.232H436.648V155.072H432.968V153.232ZM432.296 152.576V158.208H437.304V152.576H432.296ZM450.616 149.68V150.448H455.144V149.68H450.616ZM454.744 149.68C454.744 152.528 455.16 159.152 461.736 163.136C461.88 162.96 462.2 162.656 462.376 162.528C455.832 158.608 455.512 152.416 455.512 149.68H454.744ZM454.424 152.592C453.368 157.296 451.336 160.592 447.656 162.544C447.864 162.704 448.216 163.008 448.36 163.168C452.008 161.04 454.104 157.712 455.272 152.752L454.424 152.592ZM463.896 152.592V153.328H468.584V152.592H463.896ZM465.96 148.816V159.072H466.712V148.816H465.96ZM463.64 159.664L463.944 160.416C465.32 159.84 467.112 159.056 468.824 158.288L468.664 157.584C466.808 158.368 464.904 159.184 463.64 159.664ZM473.32 148.656V159.712H474.056V148.656H473.32ZM468.12 155.36L468.424 156.048L477.24 152.32L476.936 151.648L468.12 155.36ZM469.928 150.112V161.008C469.928 162.464 470.424 162.816 472.056 162.816C472.408 162.816 475.928 162.816 476.312 162.816C477.864 162.816 478.136 162.128 478.296 159.968C478.072 159.936 477.768 159.808 477.576 159.664C477.464 161.616 477.304 162.096 476.328 162.096C475.592 162.096 472.584 162.096 472.024 162.096C470.904 162.096 470.68 161.872 470.68 161.024V150.112H469.928ZM476.712 152.016C476.568 154.208 476.264 157.136 475.912 158.848L476.552 159.04C476.984 157.28 477.288 154.304 477.48 152.016L477.528 151.856L476.936 151.648L476.536 152.016H476.712ZM489.928 154.32V155.088H494.104V154.32H489.928ZM483.976 161.888V162.624H494.296V161.888H483.976ZM489.64 148.768V162.24H490.424V148.768H489.64ZM486.104 152.144V162.192H486.856V152.144H486.104ZM479.8 152.592V153.328H485.112V152.592H479.8ZM482.136 148.848V158.96H482.872V148.848H482.136ZM479.64 159.664L479.944 160.416C481.416 159.808 483.432 158.944 485.304 158.128L485.16 157.44C483.144 158.272 481.032 159.136 479.64 159.664Z" fill="#48545D"/>
<rect x="400" y="179" width="310" height="1" fill="#939EA7"/>
</svg>
