<svg width="790" height="200" viewBox="0 0 790 200" fill="none" xmlns="http://www.w3.org/2000/svg">
<rect x="457" y="75" width="230" height="50" fill="#EEEEEE"/>
<path d="M661.96 101C663.065 101 663.96 100.105 663.96 99C663.96 97.8954 663.065 97 661.96 97C661.929 97 661.901 97.0075 661.871 97.0091C661.927 97.1598 661.96 97.3339 661.96 97.5157C661.96 98.3355 661.295 99.0001 660.476 99.0001C660.294 99.0001 660.12 98.9674 659.959 98.9076L659.969 98.9109C659.969 98.9422 659.96 98.9697 659.96 99C659.96 100.105 660.855 101 661.96 101ZM670.851 99.5437C669.157 96.2372 665.802 94 661.96 94C658.118 94 654.762 96.2388 653.069 99.5441C653 99.6768 652.96 99.8338 652.96 100C652.96 100.167 653 100.324 653.071 100.462L653.069 100.456C654.763 103.763 658.118 106 661.96 106C665.802 106 669.157 103.761 670.851 100.456C670.92 100.323 670.96 100.166 670.96 99.9998C670.96 99.8335 670.92 99.6765 670.849 99.5381L670.851 99.5437V99.5437ZM661.96 95C664.169 95 665.96 96.7909 665.96 99C665.96 101.209 664.169 103 661.96 103C659.751 103 657.96 101.209 657.96 99C657.962 96.7919 659.752 95.0025 661.96 95H661.96ZM661.96 105C658.605 105 655.539 103.084 653.96 100C654.865 98.2486 656.26 96.858 657.964 95.9826L658.016 95.9584C657.363 96.8028 656.96 97.8491 656.96 99C656.96 101.761 659.199 104 661.96 104C664.721 104 666.96 101.761 666.96 99C666.96 97.8491 666.557 96.8028 665.904 95.9584C667.66 96.858 669.055 98.2486 669.936 99.9487L669.96 100C668.381 103.084 665.315 105 661.96 105Z" fill="black"/>
<path d="M647.752 142.196C649.586 142.196 650.748 140.46 650.748 136.876C650.748 133.32 649.586 131.612 647.752 131.612C645.876 131.612 644.728 133.32 644.728 136.876C644.728 140.46 645.876 142.196 647.752 142.196ZM647.752 141.496C646.422 141.496 645.54 139.956 645.54 136.876C645.54 133.824 646.422 132.298 647.752 132.298C649.068 132.298 649.936 133.824 649.936 136.876C649.936 139.956 649.068 141.496 647.752 141.496ZM651.618 144.492H652.29L656.896 130.996H656.238L651.618 144.492ZM660.6 142.196C662.336 142.196 663.694 141.09 663.694 139.312C663.694 137.87 662.672 136.932 661.454 136.666V136.61C662.532 136.246 663.33 135.406 663.33 134.076C663.33 132.536 662.126 131.612 660.558 131.612C659.396 131.612 658.542 132.158 657.842 132.816L658.318 133.362C658.878 132.76 659.662 132.312 660.544 132.312C661.72 132.312 662.476 133.054 662.476 134.132C662.476 135.35 661.706 136.316 659.452 136.316V137.016C661.902 137.016 662.84 137.94 662.84 139.298C662.84 140.628 661.902 141.482 660.572 141.482C659.27 141.482 658.486 140.866 657.884 140.236L657.436 140.796C658.08 141.482 659.018 142.196 660.6 142.196ZM668.246 142.196C670.08 142.196 671.242 140.46 671.242 136.876C671.242 133.32 670.08 131.612 668.246 131.612C666.37 131.612 665.222 133.32 665.222 136.876C665.222 140.46 666.37 142.196 668.246 142.196ZM668.246 141.496C666.916 141.496 666.034 139.956 666.034 136.876C666.034 133.824 666.916 132.298 668.246 132.298C669.562 132.298 670.43 133.824 670.43 136.876C670.43 139.956 669.562 141.496 668.246 141.496Z" fill="#48545D"/>
<path d="M473.484 142H474.31V136.96H479.616V142H480.456V131.794H479.616V136.218H474.31V131.794H473.484V142ZM486.195 142.196C487.259 142.196 487.973 141.832 488.575 141.454L488.253 140.852C487.693 141.244 487.077 141.496 486.279 141.496C484.655 141.496 483.577 140.222 483.549 138.416H488.841C488.869 138.22 488.883 138.024 488.883 137.828C488.883 135.644 487.791 134.356 485.985 134.356C484.305 134.356 482.709 135.854 482.709 138.29C482.709 140.74 484.263 142.196 486.195 142.196ZM483.535 137.772C483.703 136.05 484.781 135.042 485.999 135.042C487.301 135.042 488.127 135.966 488.127 137.772H483.535ZM491.853 142.196C492.119 142.196 492.259 142.154 492.413 142.112L492.287 141.454C492.133 141.482 492.077 141.482 492.007 141.482C491.811 141.482 491.685 141.328 491.685 140.978V130.884H490.859V140.894C490.859 141.762 491.181 142.196 491.853 142.196ZM494.577 145.332H495.403V142.644L495.389 141.286C496.131 141.86 496.887 142.196 497.573 142.196C499.337 142.196 500.863 140.712 500.863 138.164C500.863 135.854 499.855 134.356 497.881 134.356C496.971 134.356 496.103 134.888 495.389 135.462H495.361L495.263 134.538H494.577V145.332ZM497.517 141.482C496.971 141.482 496.187 141.23 495.403 140.572V136.246C496.257 135.49 497.013 135.07 497.727 135.07C499.379 135.07 500.009 136.372 500.009 138.164C500.009 140.152 498.959 141.482 497.517 141.482ZM508.244 142.196C508.594 142.196 509.07 142.056 509.504 141.902L509.294 141.272C509.042 141.384 508.664 141.496 508.398 141.496C507.39 141.496 507.152 140.88 507.152 139.942V135.238H509.28V134.538H507.152V132.382H506.452L506.368 134.538L505.178 134.608V135.238H506.34V139.886C506.34 141.272 506.774 142.196 508.244 142.196ZM513.744 142.196C514.808 142.196 515.522 141.832 516.124 141.454L515.802 140.852C515.242 141.244 514.626 141.496 513.828 141.496C512.204 141.496 511.126 140.222 511.098 138.416H516.39C516.418 138.22 516.432 138.024 516.432 137.828C516.432 135.644 515.34 134.356 513.534 134.356C511.854 134.356 510.258 135.854 510.258 138.29C510.258 140.74 511.812 142.196 513.744 142.196ZM511.084 137.772C511.252 136.05 512.33 135.042 513.548 135.042C514.85 135.042 515.676 135.966 515.676 137.772H511.084ZM517.177 142H518.045L519.249 140.026C519.529 139.564 519.795 139.102 520.089 138.668H520.159C520.453 139.102 520.747 139.564 521.013 140.026L522.287 142H523.197L520.677 138.178L522.987 134.538H522.119L521.013 136.372C520.761 136.792 520.523 137.198 520.285 137.618H520.215C519.949 137.198 519.683 136.792 519.431 136.372L518.283 134.538H517.387L519.697 138.108L517.177 142ZM526.537 142.196C526.887 142.196 527.363 142.056 527.797 141.902L527.587 141.272C527.335 141.384 526.957 141.496 526.691 141.496C525.683 141.496 525.445 140.88 525.445 139.942V135.238H527.573V134.538H525.445V132.382H524.745L524.661 134.538L523.471 134.608V135.238H524.633V139.886C524.633 141.272 525.067 142.196 526.537 142.196Z" fill="#48545D"/>
<rect x="457" y="124" width="230" height="1" fill="#003A9F"/>
<path d="M473.484 92H474.31V87.688H476.186C478.454 87.688 479.854 86.722 479.854 84.678C479.854 82.55 478.426 81.794 476.13 81.794H473.484V92ZM474.31 86.988V82.508H475.948C477.992 82.508 478.986 83.012 478.986 84.678C478.986 86.302 478.02 86.988 476.004 86.988H474.31ZM482.952 92.196C483.218 92.196 483.358 92.154 483.512 92.112L483.386 91.454C483.232 91.482 483.176 91.482 483.106 91.482C482.91 91.482 482.784 91.328 482.784 90.978V80.884H481.958V90.894C481.958 91.762 482.28 92.196 482.952 92.196ZM487.329 92.196C488.295 92.196 489.191 91.664 489.933 91.062H489.975L490.059 92H490.745V87.268C490.745 85.616 490.101 84.356 488.323 84.356C487.105 84.356 486.069 84.93 485.509 85.322L485.859 85.924C486.391 85.532 487.231 85.056 488.225 85.056C489.639 85.056 489.947 86.204 489.919 87.31C486.629 87.688 485.159 88.472 485.159 90.124C485.159 91.51 486.139 92.196 487.329 92.196ZM487.497 91.496C486.671 91.496 485.985 91.104 485.985 90.082C485.985 88.948 486.979 88.248 489.919 87.926V90.348C489.051 91.104 488.323 91.496 487.497 91.496ZM496.133 92.196C497.071 92.196 497.883 91.79 498.527 91.216L498.135 90.656C497.631 91.118 496.945 91.482 496.189 91.482C494.621 91.482 493.571 90.194 493.571 88.29C493.571 86.372 494.705 85.056 496.203 85.056C496.889 85.056 497.435 85.392 497.911 85.826L498.359 85.266C497.855 84.79 497.183 84.356 496.175 84.356C494.327 84.356 492.717 85.784 492.717 88.29C492.717 90.754 494.201 92.196 496.133 92.196ZM502.889 92.196C503.953 92.196 504.667 91.832 505.269 91.454L504.947 90.852C504.387 91.244 503.771 91.496 502.973 91.496C501.349 91.496 500.271 90.222 500.243 88.416H505.535C505.563 88.22 505.577 88.024 505.577 87.828C505.577 85.644 504.485 84.356 502.679 84.356C500.999 84.356 499.403 85.854 499.403 88.29C499.403 90.74 500.957 92.196 502.889 92.196ZM500.229 87.772C500.397 86.05 501.475 85.042 502.693 85.042C503.995 85.042 504.821 85.966 504.821 87.772H500.229ZM507.552 92H508.378V86.414C509.246 85.532 509.862 85.084 510.716 85.084C511.878 85.084 512.354 85.798 512.354 87.338V92H513.18V87.226C513.18 85.308 512.452 84.356 510.912 84.356C509.876 84.356 509.106 84.93 508.35 85.686L508.378 84.062V80.884H507.552V92ZM518.554 92.196C520.36 92.196 521.928 90.754 521.928 88.29C521.928 85.784 520.36 84.356 518.554 84.356C516.748 84.356 515.166 85.784 515.166 88.29C515.166 90.754 516.748 92.196 518.554 92.196ZM518.554 91.482C517.084 91.482 516.02 90.194 516.02 88.29C516.02 86.372 517.084 85.056 518.554 85.056C520.01 85.056 521.088 86.372 521.088 88.29C521.088 90.194 520.01 91.482 518.554 91.482ZM525.089 92.196C525.355 92.196 525.495 92.154 525.649 92.112L525.523 91.454C525.369 91.482 525.313 91.482 525.243 91.482C525.047 91.482 524.921 91.328 524.921 90.978V80.884H524.095V90.894C524.095 91.762 524.417 92.196 525.089 92.196ZM530.292 92.196C531.272 92.196 532.098 91.664 532.7 91.062H532.728L532.826 92H533.498V80.884H532.672V83.908L532.728 85.266C532.014 84.678 531.412 84.356 530.516 84.356C528.738 84.356 527.212 85.868 527.212 88.29C527.212 90.796 528.43 92.196 530.292 92.196ZM530.432 91.482C528.92 91.482 528.066 90.222 528.066 88.29C528.066 86.442 529.172 85.07 530.586 85.07C531.3 85.07 531.93 85.322 532.672 85.98V90.292C531.944 91.062 531.23 91.482 530.432 91.482ZM539.16 92.196C540.224 92.196 540.938 91.832 541.54 91.454L541.218 90.852C540.658 91.244 540.042 91.496 539.244 91.496C537.62 91.496 536.542 90.222 536.514 88.416H541.806C541.834 88.22 541.848 88.024 541.848 87.828C541.848 85.644 540.756 84.356 538.95 84.356C537.27 84.356 535.674 85.854 535.674 88.29C535.674 90.74 537.228 92.196 539.16 92.196ZM536.5 87.772C536.668 86.05 537.746 85.042 538.964 85.042C540.266 85.042 541.092 85.966 541.092 87.772H536.5ZM543.824 92H544.65V87.002C545.196 85.602 545.994 85.112 546.638 85.112C546.946 85.112 547.086 85.14 547.338 85.238L547.506 84.51C547.254 84.384 547.044 84.356 546.75 84.356C545.882 84.356 545.14 85 544.636 85.924H544.608L544.51 84.538H543.824V92Z" fill="#003A9F"/>
<path d="M474.617 101.625V113H473.656V101.625H474.617ZM478.422 106.352V113H477.492V104.547H478.383L478.422 106.352ZM478.211 108.25L477.797 108.016C477.828 107.516 477.93 107.047 478.102 106.609C478.273 106.172 478.505 105.786 478.797 105.453C479.094 105.12 479.44 104.859 479.836 104.672C480.237 104.484 480.68 104.391 481.164 104.391C481.586 104.391 481.964 104.448 482.297 104.562C482.63 104.677 482.914 104.859 483.148 105.109C483.383 105.359 483.56 105.68 483.68 106.07C483.805 106.461 483.867 106.938 483.867 107.5V113H482.93V107.492C482.93 106.909 482.849 106.453 482.688 106.125C482.526 105.792 482.297 105.555 482 105.414C481.703 105.273 481.352 105.203 480.945 105.203C480.497 105.203 480.104 105.302 479.766 105.5C479.432 105.693 479.151 105.945 478.922 106.258C478.698 106.565 478.526 106.896 478.406 107.25C478.286 107.599 478.221 107.932 478.211 108.25ZM487.211 106.172V116.25H486.273V104.547H487.148L487.211 106.172ZM493.086 108.695V108.859C493.086 109.49 493.013 110.068 492.867 110.594C492.721 111.12 492.51 111.576 492.234 111.961C491.964 112.341 491.628 112.635 491.227 112.844C490.826 113.052 490.37 113.156 489.859 113.156C489.354 113.156 488.904 113.078 488.508 112.922C488.112 112.766 487.771 112.544 487.484 112.258C487.203 111.966 486.977 111.628 486.805 111.242C486.638 110.852 486.521 110.424 486.453 109.961V107.797C486.531 107.286 486.659 106.823 486.836 106.406C487.013 105.99 487.24 105.63 487.516 105.328C487.797 105.026 488.13 104.794 488.516 104.633C488.901 104.471 489.341 104.391 489.836 104.391C490.352 104.391 490.81 104.492 491.211 104.695C491.617 104.893 491.958 105.182 492.234 105.562C492.516 105.938 492.727 106.391 492.867 106.922C493.013 107.448 493.086 108.039 493.086 108.695ZM492.148 108.859V108.695C492.148 108.201 492.096 107.742 491.992 107.32C491.893 106.898 491.74 106.531 491.531 106.219C491.328 105.901 491.068 105.654 490.75 105.477C490.438 105.299 490.065 105.211 489.633 105.211C489.185 105.211 488.802 105.286 488.484 105.438C488.172 105.583 487.911 105.779 487.703 106.023C487.495 106.263 487.331 106.526 487.211 106.812C487.091 107.099 487.003 107.38 486.945 107.656V110.148C487.044 110.544 487.203 110.911 487.422 111.25C487.641 111.583 487.932 111.852 488.297 112.055C488.667 112.253 489.117 112.352 489.648 112.352C490.076 112.352 490.445 112.263 490.758 112.086C491.07 111.909 491.328 111.661 491.531 111.344C491.74 111.026 491.893 110.656 491.992 110.234C492.096 109.812 492.148 109.354 492.148 108.859ZM500.578 111.047V104.547H501.516V113H500.617L500.578 111.047ZM500.75 109.484L501.234 109.469C501.234 110 501.172 110.49 501.047 110.938C500.922 111.385 500.727 111.776 500.461 112.109C500.195 112.443 499.852 112.701 499.43 112.883C499.008 113.065 498.5 113.156 497.906 113.156C497.495 113.156 497.117 113.099 496.773 112.984C496.435 112.865 496.143 112.677 495.898 112.422C495.654 112.167 495.464 111.836 495.328 111.43C495.198 111.023 495.133 110.531 495.133 109.953V104.547H496.062V109.969C496.062 110.422 496.112 110.799 496.211 111.102C496.315 111.404 496.456 111.646 496.633 111.828C496.815 112.01 497.023 112.141 497.258 112.219C497.492 112.297 497.745 112.336 498.016 112.336C498.703 112.336 499.245 112.203 499.641 111.938C500.042 111.672 500.326 111.323 500.492 110.891C500.664 110.453 500.75 109.984 500.75 109.484ZM507.156 104.547V105.312H502.922V104.547H507.156ZM504.477 102.375H505.406V110.945C505.406 111.336 505.458 111.63 505.562 111.828C505.667 112.026 505.802 112.159 505.969 112.227C506.135 112.294 506.315 112.328 506.508 112.328C506.648 112.328 506.784 112.32 506.914 112.305C507.044 112.284 507.161 112.263 507.266 112.242L507.305 113.031C507.19 113.068 507.042 113.096 506.859 113.117C506.677 113.143 506.495 113.156 506.312 113.156C505.953 113.156 505.635 113.091 505.359 112.961C505.083 112.826 504.867 112.596 504.711 112.273C504.555 111.945 504.477 111.5 504.477 110.938V102.375Z" fill="black"/>
<path d="M459.056 157H463.88V156.088H462.104V148.204H461.264C460.796 148.492 460.232 148.696 459.44 148.828V149.536H461.012V156.088H459.056V157ZM467.788 157.168C469.264 157.168 470.668 156.064 470.668 154.144C470.668 152.2 469.48 151.336 468.016 151.336C467.488 151.336 467.092 151.468 466.696 151.684L466.924 149.14H470.248V148.204H465.964L465.688 152.32L466.276 152.692C466.78 152.356 467.152 152.164 467.74 152.164C468.832 152.164 469.552 152.92 469.552 154.18C469.552 155.452 468.724 156.256 467.68 156.256C466.672 156.256 466.024 155.788 465.532 155.272L464.98 155.992C465.58 156.592 466.42 157.168 467.788 157.168Z" fill="#D60C18"/>
<path d="M673.056 157H677.88V156.088H676.104V148.204H675.264C674.796 148.492 674.232 148.696 673.44 148.828V149.536H675.012V156.088H673.056V157ZM681.788 157.168C683.264 157.168 684.668 156.064 684.668 154.144C684.668 152.2 683.48 151.336 682.016 151.336C681.488 151.336 681.092 151.468 680.696 151.684L680.924 149.14H684.248V148.204H679.964L679.688 152.32L680.276 152.692C680.78 152.356 681.152 152.164 681.74 152.164C682.832 152.164 683.552 152.92 683.552 154.18C683.552 155.452 682.724 156.256 681.68 156.256C680.672 156.256 680.024 155.788 679.532 155.272L678.98 155.992C679.58 156.592 680.42 157.168 681.788 157.168Z" fill="#D60C18"/>
<path d="M655.528 85H661.048V84.064H658.612C658.168 84.064 657.64 84.1 657.172 84.148C659.248 82.192 660.628 80.404 660.628 78.64C660.628 77.068 659.644 76.048 658.072 76.048C656.956 76.048 656.188 76.564 655.468 77.344L656.104 77.956C656.596 77.38 657.22 76.936 657.94 76.936C659.032 76.936 659.548 77.68 659.548 78.688C659.548 80.188 658.288 81.952 655.528 84.364V85ZM664.992 85.168C666.648 85.168 667.716 83.644 667.716 80.572C667.716 77.524 666.648 76.048 664.992 76.048C663.312 76.048 662.244 77.524 662.244 80.572C662.244 83.644 663.312 85.168 664.992 85.168ZM664.992 84.28C663.984 84.28 663.3 83.164 663.3 80.572C663.3 78.016 663.984 76.924 664.992 76.924C665.988 76.924 666.66 78.016 666.66 80.572C666.66 83.164 665.988 84.28 664.992 84.28Z" fill="#D60C18"/>
<line x1="457.5" y1="125.5" x2="457.5" y2="142.5" stroke="#939EA7" stroke-linecap="square" stroke-dasharray="2 2"/>
<line x1="472.5" y1="125.5" x2="472.5" y2="142.5" stroke="#939EA7" stroke-linecap="square" stroke-dasharray="2 2"/>
<line x1="671.5" y1="125.5" x2="671.5" y2="142.5" stroke="#939EA7" stroke-linecap="square" stroke-dasharray="2 2"/>
<line x1="686.5" y1="125.5" x2="686.5" y2="142.5" stroke="#939EA7" stroke-linecap="square" stroke-dasharray="2 2"/>
<line x1="651.5" y1="72.5" x2="651.5" y2="89.5" stroke="#939EA7" stroke-linecap="square" stroke-dasharray="2 2"/>
<line x1="671.5" y1="72.5" x2="671.5" y2="89.5" stroke="#939EA7" stroke-linecap="square" stroke-dasharray="2 2"/>
<path d="M676.528 105H682.048V104.064H679.612C679.168 104.064 678.64 104.1 678.172 104.148C680.248 102.192 681.628 100.404 681.628 98.64C681.628 97.068 680.644 96.048 679.072 96.048C677.956 96.048 677.188 96.564 676.468 97.344L677.104 97.956C677.596 97.38 678.22 96.936 678.94 96.936C680.032 96.936 680.548 97.68 680.548 98.688C680.548 100.188 679.288 101.952 676.528 104.364V105ZM685.992 105.168C687.648 105.168 688.716 103.644 688.716 100.572C688.716 97.524 687.648 96.048 685.992 96.048C684.312 96.048 683.244 97.524 683.244 100.572C683.244 103.644 684.312 105.168 685.992 105.168ZM685.992 104.28C684.984 104.28 684.3 103.164 684.3 100.572C684.3 98.016 684.984 96.924 685.992 96.924C686.988 96.924 687.66 98.016 687.66 100.572C687.66 103.164 686.988 104.28 685.992 104.28Z" fill="#D60C18"/>
<line x1="690.5" y1="90.5" x2="673.5" y2="90.5" stroke="#939EA7" stroke-linecap="square" stroke-dasharray="2 2"/>
<line x1="690.5" y1="110.5" x2="673.5" y2="110.5" stroke="#939EA7" stroke-linecap="square" stroke-dasharray="2 2"/>
<path d="M102.632 105.168C104.108 105.168 105.512 104.064 105.512 102.144C105.512 100.2 104.324 99.336 102.86 99.336C102.332 99.336 101.936 99.468 101.54 99.684L101.768 97.14H105.092V96.204H100.808L100.532 100.32L101.12 100.692C101.624 100.356 101.996 100.164 102.584 100.164C103.676 100.164 104.396 100.92 104.396 102.18C104.396 103.452 103.568 104.256 102.524 104.256C101.516 104.256 100.868 103.788 100.376 103.272L99.824 103.992C100.424 104.592 101.264 105.168 102.632 105.168ZM109.492 105.168C111.148 105.168 112.216 103.644 112.216 100.572C112.216 97.524 111.148 96.048 109.492 96.048C107.812 96.048 106.744 97.524 106.744 100.572C106.744 103.644 107.812 105.168 109.492 105.168ZM109.492 104.28C108.484 104.28 107.8 103.164 107.8 100.572C107.8 98.016 108.484 96.924 109.492 96.924C110.488 96.924 111.16 98.016 111.16 100.572C111.16 103.164 110.488 104.28 109.492 104.28Z" fill="#D60C18"/>
<path d="M120.056 54H124.88V53.088H123.104V45.204H122.264C121.796 45.492 121.232 45.696 120.44 45.828V46.536H122.012V53.088H120.056V54ZM128.788 54.168C130.264 54.168 131.668 53.064 131.668 51.144C131.668 49.2 130.48 48.336 129.016 48.336C128.488 48.336 128.092 48.468 127.696 48.684L127.924 46.14H131.248V45.204H126.964L126.688 49.32L127.276 49.692C127.78 49.356 128.152 49.164 128.74 49.164C129.832 49.164 130.552 49.92 130.552 51.18C130.552 52.452 129.724 53.256 128.68 53.256C127.672 53.256 127.024 52.788 126.532 52.272L125.98 52.992C126.58 53.592 127.42 54.168 128.788 54.168Z" fill="#D60C18"/>
<line x1="98.5" y1="124.5" x2="115.5" y2="124.5" stroke="#939EA7" stroke-linecap="square" stroke-dasharray="2 2"/>
<path d="M351.056 129H355.88V128.088H354.104V120.204H353.264C352.796 120.492 352.232 120.696 351.44 120.828V121.536H353.012V128.088H351.056V129Z" fill="#D60C18"/>
<line x1="118.5" y1="56.5" x2="118.5" y2="73.5" stroke="#939EA7" stroke-linecap="square" stroke-dasharray="2 2"/>
<line x1="133.5" y1="56.5" x2="133.5" y2="73.5" stroke="#939EA7" stroke-linecap="square" stroke-dasharray="2 2"/>
<line x1="98.5" y1="75.5" x2="115.5" y2="75.5" stroke="#939EA7" stroke-linecap="square" stroke-dasharray="2 2"/>
<line x1="330.5" y1="124.5" x2="347.5" y2="124.5" stroke="#D60C18" stroke-linecap="square" stroke-dasharray="2 2"/>
<rect x="118" y="75" width="230" height="50" fill="#EEEEEE"/>
<path d="M138.312 100.367H135.07V99.5469H138.312C138.99 99.5469 139.539 99.4375 139.961 99.2188C140.388 98.9948 140.698 98.6927 140.891 98.3125C141.089 97.9323 141.188 97.5052 141.188 97.0312C141.188 96.5677 141.089 96.1406 140.891 95.75C140.698 95.3594 140.388 95.0469 139.961 94.8125C139.539 94.5729 138.99 94.4531 138.312 94.4531H135.406V105H134.445V93.625H138.312C139.146 93.625 139.846 93.7682 140.414 94.0547C140.987 94.3411 141.419 94.7396 141.711 95.25C142.003 95.7604 142.148 96.349 142.148 97.0156C142.148 97.7135 142.003 98.3151 141.711 98.8203C141.419 99.3203 140.99 99.7031 140.422 99.9688C139.854 100.234 139.151 100.367 138.312 100.367ZM145.125 93V105H144.195V93H145.125ZM152.82 103.484V99.125C152.82 98.724 152.737 98.3776 152.57 98.0859C152.404 97.7943 152.159 97.5703 151.836 97.4141C151.513 97.2578 151.115 97.1797 150.641 97.1797C150.203 97.1797 149.812 97.2578 149.469 97.4141C149.13 97.5651 148.862 97.7708 148.664 98.0312C148.471 98.2865 148.375 98.5703 148.375 98.8828L147.438 98.875C147.438 98.5573 147.516 98.25 147.672 97.9531C147.828 97.6562 148.049 97.3906 148.336 97.1562C148.622 96.9219 148.964 96.737 149.359 96.6016C149.76 96.4609 150.201 96.3906 150.68 96.3906C151.284 96.3906 151.815 96.4922 152.273 96.6953C152.737 96.8984 153.099 97.2031 153.359 97.6094C153.62 98.0156 153.75 98.526 153.75 99.1406V103.227C153.75 103.518 153.771 103.82 153.812 104.133C153.859 104.445 153.924 104.703 154.008 104.906V105H153.016C152.953 104.812 152.904 104.578 152.867 104.297C152.836 104.01 152.82 103.74 152.82 103.484ZM153.039 100.078L153.055 100.797H151.219C150.74 100.797 150.31 100.841 149.93 100.93C149.555 101.013 149.237 101.138 148.977 101.305C148.716 101.466 148.516 101.661 148.375 101.891C148.24 102.12 148.172 102.38 148.172 102.672C148.172 102.974 148.247 103.25 148.398 103.5C148.555 103.75 148.773 103.951 149.055 104.102C149.341 104.247 149.68 104.32 150.07 104.32C150.591 104.32 151.049 104.224 151.445 104.031C151.846 103.839 152.177 103.586 152.438 103.273C152.698 102.961 152.872 102.62 152.961 102.25L153.367 102.789C153.299 103.049 153.174 103.318 152.992 103.594C152.815 103.865 152.583 104.12 152.297 104.359C152.01 104.594 151.672 104.786 151.281 104.938C150.896 105.083 150.458 105.156 149.969 105.156C149.417 105.156 148.935 105.052 148.523 104.844C148.117 104.635 147.799 104.352 147.57 103.992C147.346 103.628 147.234 103.216 147.234 102.758C147.234 102.341 147.323 101.969 147.5 101.641C147.677 101.307 147.932 101.026 148.266 100.797C148.604 100.562 149.01 100.385 149.484 100.266C149.964 100.141 150.5 100.078 151.094 100.078H153.039ZM159.375 104.352C159.771 104.352 160.141 104.279 160.484 104.133C160.833 103.982 161.12 103.76 161.344 103.469C161.573 103.172 161.703 102.81 161.734 102.383H162.625C162.599 102.919 162.435 103.398 162.133 103.82C161.836 104.237 161.445 104.565 160.961 104.805C160.482 105.039 159.953 105.156 159.375 105.156C158.786 105.156 158.266 105.049 157.812 104.836C157.365 104.622 156.99 104.326 156.688 103.945C156.385 103.56 156.156 103.112 156 102.602C155.849 102.086 155.773 101.531 155.773 100.938V100.609C155.773 100.016 155.849 99.4635 156 98.9531C156.156 98.4375 156.385 97.9896 156.688 97.6094C156.99 97.224 157.365 96.9245 157.812 96.7109C158.26 96.4974 158.779 96.3906 159.367 96.3906C159.971 96.3906 160.513 96.513 160.992 96.7578C161.477 97.0026 161.862 97.349 162.148 97.7969C162.44 98.2448 162.599 98.776 162.625 99.3906H161.734C161.708 98.9375 161.589 98.5469 161.375 98.2188C161.161 97.8906 160.88 97.638 160.531 97.4609C160.182 97.2839 159.794 97.1953 159.367 97.1953C158.888 97.1953 158.479 97.2891 158.141 97.4766C157.802 97.6589 157.526 97.9115 157.312 98.2344C157.104 98.5521 156.951 98.9167 156.852 99.3281C156.753 99.7344 156.703 100.161 156.703 100.609V100.938C156.703 101.391 156.75 101.823 156.844 102.234C156.943 102.641 157.096 103.003 157.305 103.32C157.518 103.638 157.794 103.891 158.133 104.078C158.477 104.26 158.891 104.352 159.375 104.352ZM167.773 105.156C167.221 105.156 166.714 105.055 166.25 104.852C165.792 104.648 165.391 104.362 165.047 103.992C164.708 103.622 164.445 103.185 164.258 102.68C164.076 102.169 163.984 101.612 163.984 101.008V100.672C163.984 100.021 164.081 99.4323 164.273 98.9062C164.466 98.3802 164.732 97.9297 165.07 97.5547C165.409 97.1797 165.794 96.8932 166.227 96.6953C166.664 96.4922 167.122 96.3906 167.602 96.3906C168.138 96.3906 168.615 96.487 169.031 96.6797C169.448 96.8672 169.797 97.1354 170.078 97.4844C170.365 97.8281 170.581 98.237 170.727 98.7109C170.872 99.1797 170.945 99.6979 170.945 100.266V100.836H164.547V100.039H170.016V99.9297C170.005 99.4557 169.909 99.013 169.727 98.6016C169.549 98.1849 169.284 97.8464 168.93 97.5859C168.576 97.3255 168.133 97.1953 167.602 97.1953C167.206 97.1953 166.841 97.2786 166.508 97.4453C166.18 97.612 165.896 97.8516 165.656 98.1641C165.422 98.4714 165.24 98.8385 165.109 99.2656C164.984 99.6875 164.922 100.156 164.922 100.672V101.008C164.922 101.477 164.99 101.914 165.125 102.32C165.266 102.721 165.464 103.076 165.719 103.383C165.979 103.69 166.286 103.93 166.641 104.102C166.995 104.273 167.385 104.359 167.812 104.359C168.312 104.359 168.755 104.268 169.141 104.086C169.526 103.898 169.872 103.604 170.18 103.203L170.766 103.656C170.583 103.927 170.354 104.177 170.078 104.406C169.807 104.635 169.482 104.818 169.102 104.953C168.721 105.089 168.279 105.156 167.773 105.156ZM173.719 93V105H172.789V93H173.719ZM173.508 100.25L173.094 100.016C173.125 99.5156 173.227 99.0469 173.398 98.6094C173.57 98.1719 173.802 97.7865 174.094 97.4531C174.391 97.1198 174.737 96.8594 175.133 96.6719C175.534 96.4844 175.977 96.3906 176.461 96.3906C176.883 96.3906 177.26 96.4479 177.594 96.5625C177.927 96.6771 178.211 96.8594 178.445 97.1094C178.68 97.3594 178.857 97.6797 178.977 98.0703C179.102 98.4609 179.164 98.9375 179.164 99.5V105H178.227V99.4922C178.227 98.9089 178.146 98.4531 177.984 98.125C177.823 97.7917 177.594 97.5547 177.297 97.4141C177 97.2734 176.648 97.2031 176.242 97.2031C175.794 97.2031 175.401 97.3021 175.062 97.5C174.729 97.6927 174.448 97.9453 174.219 98.2578C173.995 98.5651 173.823 98.8958 173.703 99.25C173.583 99.599 173.518 99.9323 173.508 100.25ZM181.055 100.906V100.648C181.055 100.034 181.143 99.4661 181.32 98.9453C181.497 98.4245 181.75 97.974 182.078 97.5938C182.411 97.2135 182.81 96.9193 183.273 96.7109C183.737 96.4974 184.253 96.3906 184.82 96.3906C185.393 96.3906 185.911 96.4974 186.375 96.7109C186.839 96.9193 187.237 97.2135 187.57 97.5938C187.904 97.974 188.159 98.4245 188.336 98.9453C188.513 99.4661 188.602 100.034 188.602 100.648V100.906C188.602 101.521 188.513 102.089 188.336 102.609C188.159 103.125 187.904 103.573 187.57 103.953C187.242 104.333 186.846 104.63 186.383 104.844C185.919 105.052 185.404 105.156 184.836 105.156C184.263 105.156 183.745 105.052 183.281 104.844C182.818 104.63 182.419 104.333 182.086 103.953C181.753 103.573 181.497 103.125 181.32 102.609C181.143 102.089 181.055 101.521 181.055 100.906ZM181.984 100.648V100.906C181.984 101.37 182.047 101.81 182.172 102.227C182.297 102.638 182.479 103.005 182.719 103.328C182.958 103.646 183.255 103.896 183.609 104.078C183.964 104.26 184.372 104.352 184.836 104.352C185.294 104.352 185.698 104.26 186.047 104.078C186.401 103.896 186.698 103.646 186.938 103.328C187.177 103.005 187.357 102.638 187.477 102.227C187.602 101.81 187.664 101.37 187.664 100.906V100.648C187.664 100.19 187.602 99.7552 187.477 99.3438C187.357 98.9323 187.174 98.5651 186.93 98.2422C186.69 97.9193 186.393 97.6641 186.039 97.4766C185.685 97.2891 185.279 97.1953 184.82 97.1953C184.362 97.1953 183.956 97.2891 183.602 97.4766C183.253 97.6641 182.956 97.9193 182.711 98.2422C182.471 98.5651 182.289 98.9323 182.164 99.3438C182.044 99.7552 181.984 100.19 181.984 100.648ZM191.578 93V105H190.648V93H191.578ZM199.625 103.359V93H200.562V105H199.688L199.625 103.359ZM193.758 100.859V100.695C193.758 100.039 193.833 99.4479 193.984 98.9219C194.135 98.3906 194.352 97.9375 194.633 97.5625C194.919 97.1823 195.263 96.8932 195.664 96.6953C196.065 96.4922 196.518 96.3906 197.023 96.3906C197.518 96.3906 197.956 96.4714 198.336 96.6328C198.716 96.7943 199.042 97.026 199.312 97.3281C199.589 97.6302 199.81 97.9896 199.977 98.4062C200.148 98.8229 200.273 99.2865 200.352 99.7969V101.883C200.289 102.362 200.174 102.802 200.008 103.203C199.841 103.599 199.62 103.945 199.344 104.242C199.068 104.534 198.734 104.76 198.344 104.922C197.958 105.078 197.513 105.156 197.008 105.156C196.508 105.156 196.057 105.052 195.656 104.844C195.255 104.635 194.914 104.341 194.633 103.961C194.352 103.576 194.135 103.12 193.984 102.594C193.833 102.068 193.758 101.49 193.758 100.859ZM194.695 100.695V100.859C194.695 101.354 194.745 101.812 194.844 102.234C194.943 102.656 195.094 103.023 195.297 103.336C195.5 103.648 195.758 103.893 196.07 104.07C196.383 104.247 196.753 104.336 197.18 104.336C197.716 104.336 198.167 104.234 198.531 104.031C198.896 103.823 199.188 103.549 199.406 103.211C199.625 102.867 199.784 102.492 199.883 102.086V99.6562C199.82 99.3802 199.729 99.099 199.609 98.8125C199.49 98.526 199.326 98.263 199.117 98.0234C198.914 97.7786 198.654 97.5833 198.336 97.4375C198.023 97.2865 197.643 97.2109 197.195 97.2109C196.763 97.2109 196.391 97.2995 196.078 97.4766C195.766 97.6536 195.505 97.901 195.297 98.2188C195.094 98.5312 194.943 98.8984 194.844 99.3203C194.745 99.7422 194.695 100.201 194.695 100.695ZM206.289 105.156C205.737 105.156 205.229 105.055 204.766 104.852C204.307 104.648 203.906 104.362 203.562 103.992C203.224 103.622 202.961 103.185 202.773 102.68C202.591 102.169 202.5 101.612 202.5 101.008V100.672C202.5 100.021 202.596 99.4323 202.789 98.9062C202.982 98.3802 203.247 97.9297 203.586 97.5547C203.924 97.1797 204.31 96.8932 204.742 96.6953C205.18 96.4922 205.638 96.3906 206.117 96.3906C206.654 96.3906 207.13 96.487 207.547 96.6797C207.964 96.8672 208.312 97.1354 208.594 97.4844C208.88 97.8281 209.096 98.237 209.242 98.7109C209.388 99.1797 209.461 99.6979 209.461 100.266V100.836H203.062V100.039H208.531V99.9297C208.521 99.4557 208.424 99.013 208.242 98.6016C208.065 98.1849 207.799 97.8464 207.445 97.5859C207.091 97.3255 206.648 97.1953 206.117 97.1953C205.721 97.1953 205.357 97.2786 205.023 97.4453C204.695 97.612 204.411 97.8516 204.172 98.1641C203.938 98.4714 203.755 98.8385 203.625 99.2656C203.5 99.6875 203.438 100.156 203.438 100.672V101.008C203.438 101.477 203.505 101.914 203.641 102.32C203.781 102.721 203.979 103.076 204.234 103.383C204.495 103.69 204.802 103.93 205.156 104.102C205.51 104.273 205.901 104.359 206.328 104.359C206.828 104.359 207.271 104.268 207.656 104.086C208.042 103.898 208.388 103.604 208.695 103.203L209.281 103.656C209.099 103.927 208.87 104.177 208.594 104.406C208.323 104.635 207.997 104.818 207.617 104.953C207.237 105.089 206.794 105.156 206.289 105.156ZM212.234 97.9453V105H211.305V96.5469H212.211L212.234 97.9453ZM215.227 96.4844L215.203 97.3438C215.099 97.3281 214.997 97.3151 214.898 97.3047C214.799 97.2943 214.693 97.2891 214.578 97.2891C214.172 97.2891 213.815 97.3646 213.508 97.5156C213.206 97.6615 212.951 97.8672 212.742 98.1328C212.534 98.3932 212.375 98.7005 212.266 99.0547C212.156 99.4036 212.094 99.7786 212.078 100.18L211.734 100.312C211.734 99.7604 211.792 99.2474 211.906 98.7734C212.021 98.2995 212.195 97.8854 212.43 97.5312C212.669 97.1719 212.969 96.8932 213.328 96.6953C213.693 96.4922 214.12 96.3906 214.609 96.3906C214.729 96.3906 214.846 96.401 214.961 96.4219C215.081 96.4375 215.169 96.4583 215.227 96.4844Z" fill="#48545D"/>
<rect x="118" y="124" width="230" height="1" fill="#939EA7"/>
<path d="M194.104 141H195.196V136.272C195.784 135.612 196.336 135.276 196.828 135.276C197.668 135.276 198.052 135.792 198.052 137.016V141H199.144V136.272C199.756 135.612 200.272 135.276 200.776 135.276C201.616 135.276 202 135.792 202 137.016V141H203.092V136.872C203.092 135.216 202.444 134.328 201.112 134.328C200.32 134.328 199.636 134.844 198.952 135.564C198.7 134.796 198.16 134.328 197.164 134.328C196.384 134.328 195.7 134.82 195.136 135.432H195.1L194.992 134.484H194.104V141ZM205.213 141H206.305V134.484H205.213V141ZM205.765 133.14C206.185 133.14 206.497 132.864 206.497 132.408C206.497 131.988 206.185 131.712 205.765 131.712C205.333 131.712 205.033 131.988 205.033 132.408C205.033 132.864 205.333 133.14 205.765 133.14ZM208.518 141H209.61V136.272C210.258 135.624 210.726 135.276 211.386 135.276C212.25 135.276 212.622 135.792 212.622 137.016V141H213.726V136.872C213.726 135.216 213.102 134.328 211.734 134.328C210.834 134.328 210.162 134.82 209.55 135.432H209.514L209.406 134.484H208.518V141ZM215.29 138.072H218.362V137.232H215.29V138.072ZM221.034 141H222.306L223.218 137.508C223.398 136.884 223.53 136.284 223.662 135.612H223.722C223.878 136.284 223.998 136.872 224.166 137.496L225.114 141H226.446L228.198 134.484H227.154L226.206 138.264C226.05 138.888 225.93 139.464 225.798 140.076H225.75C225.594 139.464 225.45 138.888 225.294 138.264L224.262 134.484H223.194L222.186 138.264C222.018 138.876 221.886 139.464 221.742 140.076H221.682C221.562 139.464 221.442 138.888 221.31 138.264L220.326 134.484H219.21L221.034 141ZM229.624 141H230.716V134.484H229.624V141ZM230.176 133.14C230.596 133.14 230.908 132.864 230.908 132.408C230.908 131.988 230.596 131.712 230.176 131.712C229.744 131.712 229.444 131.988 229.444 132.408C229.444 132.864 229.744 133.14 230.176 133.14ZM235.136 141.168C235.928 141.168 236.612 140.748 237.128 140.232H237.152L237.248 141H238.148V131.46H237.056V133.956L237.104 135.084C236.54 134.604 236.036 134.328 235.28 134.328C233.792 134.328 232.448 135.636 232.448 137.76C232.448 139.932 233.504 141.168 235.136 141.168ZM235.376 140.244C234.236 140.244 233.588 139.308 233.588 137.748C233.588 136.26 234.416 135.24 235.46 135.24C236 135.24 236.504 135.432 237.056 135.936V139.356C236.516 139.944 235.988 140.244 235.376 140.244ZM242.41 141.168C242.818 141.168 243.25 141.048 243.61 140.916L243.394 140.1C243.19 140.184 242.89 140.28 242.662 140.28C241.906 140.28 241.654 139.812 241.654 139.02V135.372H243.418V134.484H241.654V132.648H240.73L240.61 134.484L239.59 134.556V135.372H240.562V138.996C240.562 140.292 241.018 141.168 242.41 141.168ZM244.893 141H245.985V136.272C246.633 135.624 247.101 135.276 247.761 135.276C248.625 135.276 248.997 135.792 248.997 137.016V141H250.101V136.872C250.101 135.216 249.477 134.328 248.109 134.328C247.209 134.328 246.549 134.82 245.949 135.408L245.985 134.064V131.46H244.893V141ZM254.29 141H259.81V140.064H257.326C256.882 140.064 256.342 140.1 255.886 140.148C257.914 138.012 259.39 136.416 259.39 134.808C259.39 133.284 258.406 132.3 256.834 132.3C255.718 132.3 254.95 132.804 254.23 133.584L254.866 134.208C255.358 133.632 255.982 133.176 256.702 133.176C257.794 133.176 258.31 133.872 258.31 134.844C258.31 136.248 256.87 137.796 254.29 140.364V141ZM263.574 141.168C265.146 141.168 266.406 140.244 266.406 138.72C266.406 137.556 265.566 136.788 264.534 136.548V136.5C265.47 136.152 266.094 135.492 266.094 134.46C266.094 133.08 265.014 132.3 263.538 132.3C262.53 132.3 261.75 132.744 261.09 133.356L261.678 134.052C262.17 133.548 262.794 133.176 263.502 133.176C264.414 133.176 264.978 133.704 264.978 134.532C264.978 135.432 264.366 136.14 262.554 136.14V136.98C264.582 136.98 265.29 137.664 265.29 138.684C265.29 139.644 264.546 140.256 263.502 140.256C262.494 140.256 261.834 139.776 261.318 139.236L260.766 139.956C261.342 140.592 262.194 141.168 263.574 141.168ZM270.41 141.168C272.102 141.168 273.134 139.572 273.134 136.704C273.134 133.836 272.102 132.3 270.41 132.3C268.694 132.3 267.662 133.836 267.662 136.704C267.662 139.572 268.694 141.168 270.41 141.168ZM270.41 140.28C269.402 140.28 268.718 139.212 268.718 136.704C268.718 134.184 269.402 133.176 270.41 133.176C271.406 133.176 272.078 134.184 272.078 136.704C272.078 139.212 271.406 140.28 270.41 140.28Z" fill="#D60C18"/>
<line x1="118.5" y1="144.5" x2="118.5" y2="127.5" stroke="#939EA7" stroke-linecap="square" stroke-dasharray="2 2"/>
<line x1="347.5" y1="144.5" x2="347.5" y2="127.5" stroke="#939EA7" stroke-linecap="square" stroke-dasharray="2 2"/>
</svg>
