<svg width="336" height="331" viewBox="0 0 336 331" fill="none" xmlns="http://www.w3.org/2000/svg">
<rect x="50.5" y="213.5" width="229" height="49" fill="white" stroke="#003A9F"/>
<path d="M254.96 240C256.065 240 256.96 239.105 256.96 238C256.96 236.895 256.065 236 254.96 236C254.929 236 254.901 236.007 254.871 236.009C254.927 236.16 254.96 236.334 254.96 236.516C254.96 237.336 254.295 238 253.476 238C253.294 238 253.12 237.967 252.959 237.908L252.969 237.911C252.969 237.942 252.96 237.97 252.96 238C252.96 239.105 253.855 240 254.96 240ZM263.851 238.544C262.157 235.237 258.802 233 254.96 233C251.118 233 247.762 235.239 246.069 238.544C246 238.677 245.96 238.834 245.96 239C245.96 239.167 246 239.324 246.071 239.462L246.069 239.456C247.763 242.763 251.118 245 254.96 245C258.802 245 262.157 242.761 263.851 239.456C263.92 239.323 263.96 239.166 263.96 239C263.96 238.833 263.92 238.676 263.849 238.538L263.851 238.544V238.544ZM254.96 234C257.169 234 258.96 235.791 258.96 238C258.96 240.209 257.169 242 254.96 242C252.751 242 250.96 240.209 250.96 238C250.962 235.792 252.752 234.002 254.96 234H254.96ZM254.96 244C251.605 244 248.539 242.084 246.96 239C247.865 237.249 249.26 235.858 250.964 234.983L251.016 234.958C250.363 235.803 249.96 236.849 249.96 238C249.96 240.761 252.199 243 254.96 243C257.721 243 259.96 240.761 259.96 238C259.96 236.849 259.557 235.803 258.904 234.958C260.66 235.858 262.055 237.249 262.936 238.949L262.96 239C261.381 242.084 258.315 244 254.96 244Z" fill="black"/>
<rect x="64" y="213" width="80" height="1" fill="white"/>
<path d="M66.484 219H67.31V214.688H69.186C71.454 214.688 72.854 213.722 72.854 211.678C72.854 209.55 71.426 208.794 69.13 208.794H66.484V219ZM67.31 213.988V209.508H68.948C70.992 209.508 71.986 210.012 71.986 211.678C71.986 213.302 71.02 213.988 69.004 213.988H67.31ZM75.9523 219.196C76.2183 219.196 76.3583 219.154 76.5123 219.112L76.3863 218.454C76.2323 218.482 76.1763 218.482 76.1063 218.482C75.9103 218.482 75.7843 218.328 75.7843 217.978V207.884H74.9583V217.894C74.9583 218.762 75.2803 219.196 75.9523 219.196ZM80.329 219.196C81.295 219.196 82.191 218.664 82.933 218.062H82.975L83.059 219H83.745V214.268C83.745 212.616 83.101 211.356 81.323 211.356C80.105 211.356 79.069 211.93 78.509 212.322L78.859 212.924C79.391 212.532 80.231 212.056 81.225 212.056C82.639 212.056 82.947 213.204 82.919 214.31C79.629 214.688 78.159 215.472 78.159 217.124C78.159 218.51 79.139 219.196 80.329 219.196ZM80.497 218.496C79.671 218.496 78.985 218.104 78.985 217.082C78.985 215.948 79.979 215.248 82.919 214.926V217.348C82.051 218.104 81.323 218.496 80.497 218.496ZM89.1333 219.196C90.0713 219.196 90.8833 218.79 91.5273 218.216L91.1353 217.656C90.6313 218.118 89.9453 218.482 89.1893 218.482C87.6213 218.482 86.5713 217.194 86.5713 215.29C86.5713 213.372 87.7053 212.056 89.2033 212.056C89.8893 212.056 90.4353 212.392 90.9113 212.826L91.3593 212.266C90.8553 211.79 90.1833 211.356 89.1753 211.356C87.3273 211.356 85.7173 212.784 85.7173 215.29C85.7173 217.754 87.2013 219.196 89.1333 219.196ZM95.8888 219.196C96.9528 219.196 97.6668 218.832 98.2688 218.454L97.9468 217.852C97.3868 218.244 96.7708 218.496 95.9728 218.496C94.3488 218.496 93.2708 217.222 93.2428 215.416H98.5348C98.5628 215.22 98.5768 215.024 98.5768 214.828C98.5768 212.644 97.4848 211.356 95.6788 211.356C93.9988 211.356 92.4028 212.854 92.4028 215.29C92.4028 217.74 93.9568 219.196 95.8888 219.196ZM93.2288 214.772C93.3968 213.05 94.4748 212.042 95.6928 212.042C96.9948 212.042 97.8208 212.966 97.8208 214.772H93.2288ZM100.552 219H101.378V213.414C102.246 212.532 102.862 212.084 103.716 212.084C104.878 212.084 105.354 212.798 105.354 214.338V219H106.18V214.226C106.18 212.308 105.452 211.356 103.912 211.356C102.876 211.356 102.106 211.93 101.35 212.686L101.378 211.062V207.884H100.552V219ZM111.554 219.196C113.36 219.196 114.928 217.754 114.928 215.29C114.928 212.784 113.36 211.356 111.554 211.356C109.748 211.356 108.166 212.784 108.166 215.29C108.166 217.754 109.748 219.196 111.554 219.196ZM111.554 218.482C110.084 218.482 109.02 217.194 109.02 215.29C109.02 213.372 110.084 212.056 111.554 212.056C113.01 212.056 114.088 213.372 114.088 215.29C114.088 217.194 113.01 218.482 111.554 218.482ZM118.089 219.196C118.355 219.196 118.495 219.154 118.649 219.112L118.523 218.454C118.369 218.482 118.313 218.482 118.243 218.482C118.047 218.482 117.921 218.328 117.921 217.978V207.884H117.095V217.894C117.095 218.762 117.417 219.196 118.089 219.196ZM123.292 219.196C124.272 219.196 125.098 218.664 125.7 218.062H125.728L125.826 219H126.498V207.884H125.672V210.908L125.728 212.266C125.014 211.678 124.412 211.356 123.516 211.356C121.738 211.356 120.212 212.868 120.212 215.29C120.212 217.796 121.43 219.196 123.292 219.196ZM123.432 218.482C121.92 218.482 121.066 217.222 121.066 215.29C121.066 213.442 122.172 212.07 123.586 212.07C124.3 212.07 124.93 212.322 125.672 212.98V217.292C124.944 218.062 124.23 218.482 123.432 218.482ZM132.16 219.196C133.224 219.196 133.938 218.832 134.54 218.454L134.218 217.852C133.658 218.244 133.042 218.496 132.244 218.496C130.62 218.496 129.542 217.222 129.514 215.416H134.806C134.834 215.22 134.848 215.024 134.848 214.828C134.848 212.644 133.756 211.356 131.95 211.356C130.27 211.356 128.674 212.854 128.674 215.29C128.674 217.74 130.228 219.196 132.16 219.196ZM129.5 214.772C129.668 213.05 130.746 212.042 131.964 212.042C133.266 212.042 134.092 212.966 134.092 214.772H129.5ZM136.824 219H137.65V214.002C138.196 212.602 138.994 212.112 139.638 212.112C139.946 212.112 140.086 212.14 140.338 212.238L140.506 211.51C140.254 211.384 140.044 211.356 139.75 211.356C138.882 211.356 138.14 212 137.636 212.924H137.608L137.51 211.538H136.824V219Z" fill="#003A9F"/>
<path d="M68.6172 231.625V243H67.6562V231.625H68.6172ZM72.4219 236.352V243H71.4922V234.547H72.3828L72.4219 236.352ZM72.2109 238.25L71.7969 238.016C71.8281 237.516 71.9297 237.047 72.1016 236.609C72.2734 236.172 72.5052 235.786 72.7969 235.453C73.0938 235.12 73.4401 234.859 73.8359 234.672C74.237 234.484 74.6797 234.391 75.1641 234.391C75.5859 234.391 75.9635 234.448 76.2969 234.562C76.6302 234.677 76.9141 234.859 77.1484 235.109C77.3828 235.359 77.5599 235.68 77.6797 236.07C77.8047 236.461 77.8672 236.938 77.8672 237.5V243H76.9297V237.492C76.9297 236.909 76.849 236.453 76.6875 236.125C76.526 235.792 76.2969 235.555 76 235.414C75.7031 235.273 75.3516 235.203 74.9453 235.203C74.4974 235.203 74.1042 235.302 73.7656 235.5C73.4323 235.693 73.151 235.945 72.9219 236.258C72.6979 236.565 72.526 236.896 72.4062 237.25C72.2865 237.599 72.2214 237.932 72.2109 238.25ZM81.2109 236.172V246.25H80.2734V234.547H81.1484L81.2109 236.172ZM87.0859 238.695V238.859C87.0859 239.49 87.013 240.068 86.8672 240.594C86.7214 241.12 86.5104 241.576 86.2344 241.961C85.9635 242.341 85.6276 242.635 85.2266 242.844C84.8255 243.052 84.3698 243.156 83.8594 243.156C83.3542 243.156 82.9036 243.078 82.5078 242.922C82.112 242.766 81.7708 242.544 81.4844 242.258C81.2031 241.966 80.9766 241.628 80.8047 241.242C80.638 240.852 80.5208 240.424 80.4531 239.961V237.797C80.5312 237.286 80.6589 236.823 80.8359 236.406C81.013 235.99 81.2396 235.63 81.5156 235.328C81.7969 235.026 82.1302 234.794 82.5156 234.633C82.901 234.471 83.3411 234.391 83.8359 234.391C84.3516 234.391 84.8099 234.492 85.2109 234.695C85.6172 234.893 85.9583 235.182 86.2344 235.562C86.5156 235.938 86.7266 236.391 86.8672 236.922C87.013 237.448 87.0859 238.039 87.0859 238.695ZM86.1484 238.859V238.695C86.1484 238.201 86.0964 237.742 85.9922 237.32C85.8932 236.898 85.7396 236.531 85.5312 236.219C85.3281 235.901 85.0677 235.654 84.75 235.477C84.4375 235.299 84.0651 235.211 83.6328 235.211C83.1849 235.211 82.8021 235.286 82.4844 235.438C82.1719 235.583 81.9115 235.779 81.7031 236.023C81.4948 236.263 81.3307 236.526 81.2109 236.812C81.0911 237.099 81.0026 237.38 80.9453 237.656V240.148C81.0443 240.544 81.2031 240.911 81.4219 241.25C81.6406 241.583 81.9323 241.852 82.2969 242.055C82.6667 242.253 83.1172 242.352 83.6484 242.352C84.0755 242.352 84.4453 242.263 84.7578 242.086C85.0703 241.909 85.3281 241.661 85.5312 241.344C85.7396 241.026 85.8932 240.656 85.9922 240.234C86.0964 239.812 86.1484 239.354 86.1484 238.859ZM94.5781 241.047V234.547H95.5156V243H94.6172L94.5781 241.047ZM94.75 239.484L95.2344 239.469C95.2344 240 95.1719 240.49 95.0469 240.938C94.9219 241.385 94.7266 241.776 94.4609 242.109C94.1953 242.443 93.8516 242.701 93.4297 242.883C93.0078 243.065 92.5 243.156 91.9062 243.156C91.4948 243.156 91.1172 243.099 90.7734 242.984C90.4349 242.865 90.1432 242.677 89.8984 242.422C89.6536 242.167 89.4635 241.836 89.3281 241.43C89.1979 241.023 89.1328 240.531 89.1328 239.953V234.547H90.0625V239.969C90.0625 240.422 90.112 240.799 90.2109 241.102C90.3151 241.404 90.4557 241.646 90.6328 241.828C90.8151 242.01 91.0234 242.141 91.2578 242.219C91.4922 242.297 91.7448 242.336 92.0156 242.336C92.7031 242.336 93.2448 242.203 93.6406 241.938C94.0417 241.672 94.3255 241.323 94.4922 240.891C94.6641 240.453 94.75 239.984 94.75 239.484ZM101.156 234.547V235.312H96.9219V234.547H101.156ZM98.4766 232.375H99.4062V240.945C99.4062 241.336 99.4583 241.63 99.5625 241.828C99.6667 242.026 99.8021 242.159 99.9688 242.227C100.135 242.294 100.315 242.328 100.508 242.328C100.648 242.328 100.784 242.32 100.914 242.305C101.044 242.284 101.161 242.263 101.266 242.242L101.305 243.031C101.19 243.068 101.042 243.096 100.859 243.117C100.677 243.143 100.495 243.156 100.312 243.156C99.9531 243.156 99.6354 243.091 99.3594 242.961C99.0833 242.826 98.8672 242.596 98.7109 242.273C98.5547 241.945 98.4766 241.5 98.4766 240.938V232.375Z" fill="black"/>
<path d="M240.752 280.196C242.586 280.196 243.748 278.46 243.748 274.876C243.748 271.32 242.586 269.612 240.752 269.612C238.876 269.612 237.728 271.32 237.728 274.876C237.728 278.46 238.876 280.196 240.752 280.196ZM240.752 279.496C239.422 279.496 238.54 277.956 238.54 274.876C238.54 271.824 239.422 270.298 240.752 270.298C242.068 270.298 242.936 271.824 242.936 274.876C242.936 277.956 242.068 279.496 240.752 279.496ZM244.618 282.492H245.29L249.896 268.996H249.238L244.618 282.492ZM253.6 280.196C255.336 280.196 256.694 279.09 256.694 277.312C256.694 275.87 255.672 274.932 254.454 274.666V274.61C255.532 274.246 256.33 273.406 256.33 272.076C256.33 270.536 255.126 269.612 253.558 269.612C252.396 269.612 251.542 270.158 250.842 270.816L251.318 271.362C251.878 270.76 252.662 270.312 253.544 270.312C254.72 270.312 255.476 271.054 255.476 272.132C255.476 273.35 254.706 274.316 252.452 274.316V275.016C254.902 275.016 255.84 275.94 255.84 277.298C255.84 278.628 254.902 279.482 253.572 279.482C252.27 279.482 251.486 278.866 250.884 278.236L250.436 278.796C251.08 279.482 252.018 280.196 253.6 280.196ZM261.246 280.196C263.08 280.196 264.242 278.46 264.242 274.876C264.242 271.32 263.08 269.612 261.246 269.612C259.37 269.612 258.222 271.32 258.222 274.876C258.222 278.46 259.37 280.196 261.246 280.196ZM261.246 279.496C259.916 279.496 259.034 277.956 259.034 274.876C259.034 271.824 259.916 270.298 261.246 270.298C262.562 270.298 263.43 271.824 263.43 274.876C263.43 277.956 262.562 279.496 261.246 279.496Z" fill="#48545D"/>
<path d="M66.484 280H67.31V274.96H72.616V280H73.456V269.794H72.616V274.218H67.31V269.794H66.484V280ZM79.1955 280.196C80.2595 280.196 80.9735 279.832 81.5755 279.454L81.2535 278.852C80.6935 279.244 80.0775 279.496 79.2795 279.496C77.6555 279.496 76.5775 278.222 76.5495 276.416H81.8415C81.8695 276.22 81.8835 276.024 81.8835 275.828C81.8835 273.644 80.7915 272.356 78.9855 272.356C77.3055 272.356 75.7095 273.854 75.7095 276.29C75.7095 278.74 77.2635 280.196 79.1955 280.196ZM76.5355 275.772C76.7035 274.05 77.7815 273.042 78.9995 273.042C80.3015 273.042 81.1275 273.966 81.1275 275.772H76.5355ZM84.8527 280.196C85.1187 280.196 85.2587 280.154 85.4127 280.112L85.2867 279.454C85.1327 279.482 85.0767 279.482 85.0067 279.482C84.8107 279.482 84.6847 279.328 84.6847 278.978V268.884H83.8587V278.894C83.8587 279.762 84.1807 280.196 84.8527 280.196ZM87.5774 283.332H88.4034V280.644L88.3894 279.286C89.1314 279.86 89.8874 280.196 90.5734 280.196C92.3374 280.196 93.8634 278.712 93.8634 276.164C93.8634 273.854 92.8554 272.356 90.8814 272.356C89.9714 272.356 89.1034 272.888 88.3894 273.462H88.3614L88.2634 272.538H87.5774V283.332ZM90.5174 279.482C89.9714 279.482 89.1874 279.23 88.4034 278.572V274.246C89.2574 273.49 90.0134 273.07 90.7274 273.07C92.3794 273.07 93.0094 274.372 93.0094 276.164C93.0094 278.152 91.9594 279.482 90.5174 279.482ZM101.244 280.196C101.594 280.196 102.07 280.056 102.504 279.902L102.294 279.272C102.042 279.384 101.664 279.496 101.398 279.496C100.39 279.496 100.152 278.88 100.152 277.942V273.238H102.28V272.538H100.152V270.382H99.4518L99.3678 272.538L98.1778 272.608V273.238H99.3398V277.886C99.3398 279.272 99.7738 280.196 101.244 280.196ZM106.744 280.196C107.808 280.196 108.522 279.832 109.124 279.454L108.802 278.852C108.242 279.244 107.626 279.496 106.828 279.496C105.204 279.496 104.126 278.222 104.098 276.416H109.39C109.418 276.22 109.432 276.024 109.432 275.828C109.432 273.644 108.34 272.356 106.534 272.356C104.854 272.356 103.258 273.854 103.258 276.29C103.258 278.74 104.812 280.196 106.744 280.196ZM104.084 275.772C104.252 274.05 105.33 273.042 106.548 273.042C107.85 273.042 108.676 273.966 108.676 275.772H104.084ZM110.177 280H111.045L112.249 278.026C112.529 277.564 112.795 277.102 113.089 276.668H113.159C113.453 277.102 113.747 277.564 114.013 278.026L115.287 280H116.197L113.677 276.178L115.987 272.538H115.119L114.013 274.372C113.761 274.792 113.523 275.198 113.285 275.618H113.215C112.949 275.198 112.683 274.792 112.431 274.372L111.283 272.538H110.387L112.697 276.108L110.177 280ZM119.537 280.196C119.887 280.196 120.363 280.056 120.797 279.902L120.587 279.272C120.335 279.384 119.957 279.496 119.691 279.496C118.683 279.496 118.445 278.88 118.445 277.942V273.238H120.573V272.538H118.445V270.382H117.745L117.661 272.538L116.471 272.608V273.238H117.633V277.886C117.633 279.272 118.067 280.196 119.537 280.196Z" fill="#48545D"/>
<path d="M52.056 295H56.88V294.088H55.104V286.204H54.264C53.796 286.492 53.232 286.696 52.44 286.828V287.536H54.012V294.088H52.056V295ZM60.7883 295.168C62.2643 295.168 63.6683 294.064 63.6683 292.144C63.6683 290.2 62.4803 289.336 61.0163 289.336C60.4883 289.336 60.0923 289.468 59.6963 289.684L59.9243 287.14H63.2483V286.204H58.9643L58.6883 290.32L59.2763 290.692C59.7803 290.356 60.1523 290.164 60.7402 290.164C61.8323 290.164 62.5523 290.92 62.5523 292.18C62.5523 293.452 61.7243 294.256 60.6803 294.256C59.6723 294.256 59.0243 293.788 58.5323 293.272L57.9803 293.992C58.5803 294.592 59.4202 295.168 60.7883 295.168Z" fill="#D60C18"/>
<path d="M63.056 187H67.88V186.088H66.104V178.204H65.264C64.796 178.492 64.232 178.696 63.44 178.828V179.536H65.012V186.088H63.056V187Z" fill="#D60C18"/>
<path d="M248.528 224H254.048V223.064H251.612C251.168 223.064 250.64 223.1 250.172 223.148C252.248 221.192 253.628 219.404 253.628 217.64C253.628 216.068 252.644 215.048 251.072 215.048C249.956 215.048 249.188 215.564 248.468 216.344L249.104 216.956C249.596 216.38 250.22 215.936 250.94 215.936C252.032 215.936 252.548 216.68 252.548 217.688C252.548 219.188 251.288 220.952 248.528 223.364V224ZM257.992 224.168C259.648 224.168 260.716 222.644 260.716 219.572C260.716 216.524 259.648 215.048 257.992 215.048C256.312 215.048 255.244 216.524 255.244 219.572C255.244 222.644 256.312 224.168 257.992 224.168ZM257.992 223.28C256.984 223.28 256.3 222.164 256.3 219.572C256.3 217.016 256.984 215.924 257.992 215.924C258.988 215.924 259.66 217.016 259.66 219.572C259.66 222.164 258.988 223.28 257.992 223.28Z" fill="#D60C18"/>
<path d="M140.056 187H144.88V186.088H143.104V178.204H142.264C141.796 178.492 141.232 178.696 140.44 178.828V179.536H142.012V186.088H140.056V187Z" fill="#D60C18"/>
<path d="M266.056 295H270.88V294.088H269.104V286.204H268.264C267.796 286.492 267.232 286.696 266.44 286.828V287.536H268.012V294.088H266.056V295ZM274.788 295.168C276.264 295.168 277.668 294.064 277.668 292.144C277.668 290.2 276.48 289.336 275.016 289.336C274.488 289.336 274.092 289.468 273.696 289.684L273.924 287.14H277.248V286.204H272.964L272.688 290.32L273.276 290.692C273.78 290.356 274.152 290.164 274.74 290.164C275.832 290.164 276.552 290.92 276.552 292.18C276.552 293.452 275.724 294.256 274.68 294.256C273.672 294.256 273.024 293.788 272.532 293.272L271.98 293.992C272.58 294.592 273.42 295.168 274.788 295.168Z" fill="#D60C18"/>
<line x1="50.5" y1="263.5" x2="50.5" y2="280.5" stroke="#939EA7" stroke-linecap="square" stroke-dasharray="2 2"/>
<line x1="65.5" y1="263.5" x2="65.5" y2="280.5" stroke="#939EA7" stroke-linecap="square" stroke-dasharray="2 2"/>
<line x1="64.5" y1="190.5" x2="64.5" y2="207.5" stroke="#939EA7" stroke-linecap="square" stroke-dasharray="2 2"/>
<line x1="244.5" y1="211.5" x2="244.5" y2="228.5" stroke="#939EA7" stroke-linecap="square" stroke-dasharray="2 2"/>
<line x1="264.5" y1="211.5" x2="264.5" y2="228.5" stroke="#939EA7" stroke-linecap="square" stroke-dasharray="2 2"/>
<path d="M269.528 244H275.048V243.064H272.612C272.168 243.064 271.64 243.1 271.172 243.148C273.248 241.192 274.628 239.404 274.628 237.64C274.628 236.068 273.644 235.048 272.072 235.048C270.956 235.048 270.188 235.564 269.468 236.344L270.104 236.956C270.596 236.38 271.22 235.936 271.94 235.936C273.032 235.936 273.548 236.68 273.548 237.688C273.548 239.188 272.288 240.952 269.528 243.364V244ZM278.992 244.168C280.648 244.168 281.716 242.644 281.716 239.572C281.716 236.524 280.648 235.048 278.992 235.048C277.312 235.048 276.244 236.524 276.244 239.572C276.244 242.644 277.312 244.168 278.992 244.168ZM278.992 243.28C277.984 243.28 277.3 242.164 277.3 239.572C277.3 237.016 277.984 235.924 278.992 235.924C279.988 235.924 280.66 237.016 280.66 239.572C280.66 242.164 279.988 243.28 278.992 243.28Z" fill="#D60C18"/>
<line x1="283.5" y1="229.5" x2="266.5" y2="229.5" stroke="#939EA7" stroke-linecap="square" stroke-dasharray="2 2"/>
<line x1="283.5" y1="249.5" x2="266.5" y2="249.5" stroke="#939EA7" stroke-linecap="square" stroke-dasharray="2 2"/>
<line x1="66.5" y1="190.5" x2="66.5" y2="207.5" stroke="#939EA7" stroke-linecap="square" stroke-dasharray="2 2"/>
<line x1="141.5" y1="190.5" x2="141.5" y2="207.5" stroke="#939EA7" stroke-linecap="square" stroke-dasharray="2 2"/>
<line x1="143.5" y1="190.5" x2="143.5" y2="207.5" stroke="#939EA7" stroke-linecap="square" stroke-dasharray="2 2"/>
<line x1="264.5" y1="263.5" x2="264.5" y2="280.5" stroke="#939EA7" stroke-linecap="square" stroke-dasharray="2 2"/>
<line x1="279.5" y1="263.5" x2="279.5" y2="280.5" stroke="#939EA7" stroke-linecap="square" stroke-dasharray="2 2"/>
<path d="M34.632 93.168C36.108 93.168 37.512 92.064 37.512 90.144C37.512 88.2 36.324 87.336 34.86 87.336C34.332 87.336 33.936 87.468 33.54 87.684L33.768 85.14H37.092V84.204H32.808L32.532 88.32L33.12 88.692C33.624 88.356 33.996 88.164 34.584 88.164C35.676 88.164 36.396 88.92 36.396 90.18C36.396 91.452 35.568 92.256 34.524 92.256C33.516 92.256 32.868 91.788 32.376 91.272L31.824 91.992C32.424 92.592 33.264 93.168 34.632 93.168ZM41.4923 93.168C43.1483 93.168 44.2162 91.644 44.2162 88.572C44.2162 85.524 43.1483 84.048 41.4923 84.048C39.8123 84.048 38.7443 85.524 38.7443 88.572C38.7443 91.644 39.8123 93.168 41.4923 93.168ZM41.4923 92.28C40.4843 92.28 39.8003 91.164 39.8003 88.572C39.8003 86.016 40.4843 84.924 41.4923 84.924C42.4883 84.924 43.1603 86.016 43.1603 88.572C43.1603 91.164 42.4883 92.28 41.4923 92.28Z" fill="#D60C18"/>
<path d="M52.056 44H56.88V43.088H55.104V35.204H54.264C53.796 35.492 53.232 35.696 52.44 35.828V36.536H54.012V43.088H52.056V44ZM60.7883 44.168C62.2643 44.168 63.6683 43.064 63.6683 41.144C63.6683 39.2 62.4803 38.336 61.0163 38.336C60.4883 38.336 60.0923 38.468 59.6963 38.684L59.9243 36.14H63.2483V35.204H58.9643L58.6883 39.32L59.2763 39.692C59.7803 39.356 60.1523 39.164 60.7402 39.164C61.8323 39.164 62.5523 39.92 62.5523 41.18C62.5523 42.452 61.7243 43.256 60.6803 43.256C59.6723 43.256 59.0243 42.788 58.5323 42.272L57.9803 42.992C58.5803 43.592 59.4202 44.168 60.7883 44.168Z" fill="#D60C18"/>
<path d="M283.056 117H287.88V116.088H286.104V108.204H285.264C284.796 108.492 284.232 108.696 283.44 108.828V109.536H285.012V116.088H283.056V117Z" fill="#D60C18"/>
<line x1="30.5" y1="112.5" x2="47.5" y2="112.5" stroke="#939EA7" stroke-linecap="square" stroke-dasharray="2 2"/>
<line x1="50.5" y1="46.5" x2="50.5" y2="63.5" stroke="#939EA7" stroke-linecap="square" stroke-dasharray="2 2"/>
<line x1="65.5" y1="46.5" x2="65.5" y2="63.5" stroke="#939EA7" stroke-linecap="square" stroke-dasharray="2 2"/>
<line x1="30.5" y1="63.5" x2="47.5" y2="63.5" stroke="#939EA7" stroke-linecap="square" stroke-dasharray="2 2"/>
<rect x="50.5" y="63.5" width="229" height="49" fill="white" stroke="#939EA7"/>
<path d="M70.3125 88.3672H67.0703V87.5469H70.3125C70.9896 87.5469 71.5391 87.4375 71.9609 87.2188C72.388 86.9948 72.6979 86.6927 72.8906 86.3125C73.0885 85.9323 73.1875 85.5052 73.1875 85.0312C73.1875 84.5677 73.0885 84.1406 72.8906 83.75C72.6979 83.3594 72.388 83.0469 71.9609 82.8125C71.5391 82.5729 70.9896 82.4531 70.3125 82.4531H67.4062V93H66.4453V81.625H70.3125C71.1458 81.625 71.8464 81.7682 72.4141 82.0547C72.987 82.3411 73.4193 82.7396 73.7109 83.25C74.0026 83.7604 74.1484 84.349 74.1484 85.0156C74.1484 85.7135 74.0026 86.3151 73.7109 86.8203C73.4193 87.3203 72.9896 87.7031 72.4219 87.9688C71.8542 88.2344 71.151 88.3672 70.3125 88.3672ZM77.125 81V93H76.1953V81H77.125ZM84.8203 91.4844V87.125C84.8203 86.724 84.737 86.3776 84.5703 86.0859C84.4036 85.7943 84.1589 85.5703 83.8359 85.4141C83.513 85.2578 83.1146 85.1797 82.6406 85.1797C82.2031 85.1797 81.8125 85.2578 81.4688 85.4141C81.1302 85.5651 80.862 85.7708 80.6641 86.0312C80.4714 86.2865 80.375 86.5703 80.375 86.8828L79.4375 86.875C79.4375 86.5573 79.5156 86.25 79.6719 85.9531C79.8281 85.6562 80.0495 85.3906 80.3359 85.1562C80.6224 84.9219 80.9635 84.737 81.3594 84.6016C81.7604 84.4609 82.2005 84.3906 82.6797 84.3906C83.2839 84.3906 83.8151 84.4922 84.2734 84.6953C84.737 84.8984 85.099 85.2031 85.3594 85.6094C85.6198 86.0156 85.75 86.526 85.75 87.1406V91.2266C85.75 91.5182 85.7708 91.8203 85.8125 92.1328C85.8594 92.4453 85.9245 92.7031 86.0078 92.9062V93H85.0156C84.9531 92.8125 84.9036 92.5781 84.8672 92.2969C84.8359 92.0104 84.8203 91.7396 84.8203 91.4844ZM85.0391 88.0781L85.0547 88.7969H83.2188C82.7396 88.7969 82.3099 88.8411 81.9297 88.9297C81.5547 89.013 81.237 89.138 80.9766 89.3047C80.7161 89.4661 80.5156 89.6615 80.375 89.8906C80.2396 90.1198 80.1719 90.3802 80.1719 90.6719C80.1719 90.974 80.2474 91.25 80.3984 91.5C80.5547 91.75 80.7734 91.9505 81.0547 92.1016C81.3411 92.2474 81.6797 92.3203 82.0703 92.3203C82.5911 92.3203 83.0495 92.224 83.4453 92.0312C83.8464 91.8385 84.1771 91.5859 84.4375 91.2734C84.6979 90.9609 84.8724 90.6198 84.9609 90.25L85.3672 90.7891C85.2995 91.0495 85.1745 91.3177 84.9922 91.5938C84.8151 91.8646 84.5833 92.1198 84.2969 92.3594C84.0104 92.5938 83.6719 92.7865 83.2812 92.9375C82.8958 93.0833 82.4583 93.1562 81.9688 93.1562C81.4167 93.1562 80.9349 93.0521 80.5234 92.8438C80.1172 92.6354 79.7995 92.3516 79.5703 91.9922C79.3464 91.6276 79.2344 91.2161 79.2344 90.7578C79.2344 90.3411 79.3229 89.9688 79.5 89.6406C79.6771 89.3073 79.9323 89.026 80.2656 88.7969C80.6042 88.5625 81.0104 88.3854 81.4844 88.2656C81.9635 88.1406 82.5 88.0781 83.0938 88.0781H85.0391ZM91.375 92.3516C91.7708 92.3516 92.1406 92.2786 92.4844 92.1328C92.8333 91.9818 93.1198 91.7604 93.3438 91.4688C93.5729 91.1719 93.7031 90.8099 93.7344 90.3828H94.625C94.599 90.9193 94.4349 91.3984 94.1328 91.8203C93.8359 92.237 93.4453 92.5651 92.9609 92.8047C92.4818 93.0391 91.9531 93.1562 91.375 93.1562C90.7865 93.1562 90.2656 93.0495 89.8125 92.8359C89.3646 92.6224 88.9896 92.3255 88.6875 91.9453C88.3854 91.5599 88.1562 91.112 88 90.6016C87.849 90.0859 87.7734 89.5312 87.7734 88.9375V88.6094C87.7734 88.0156 87.849 87.4635 88 86.9531C88.1562 86.4375 88.3854 85.9896 88.6875 85.6094C88.9896 85.224 89.3646 84.9245 89.8125 84.7109C90.2604 84.4974 90.7786 84.3906 91.3672 84.3906C91.9714 84.3906 92.513 84.513 92.9922 84.7578C93.4766 85.0026 93.862 85.349 94.1484 85.7969C94.4401 86.2448 94.599 86.776 94.625 87.3906H93.7344C93.7083 86.9375 93.5885 86.5469 93.375 86.2188C93.1615 85.8906 92.8802 85.638 92.5312 85.4609C92.1823 85.2839 91.7943 85.1953 91.3672 85.1953C90.888 85.1953 90.4792 85.2891 90.1406 85.4766C89.8021 85.6589 89.526 85.9115 89.3125 86.2344C89.1042 86.5521 88.9505 86.9167 88.8516 87.3281C88.7526 87.7344 88.7031 88.1615 88.7031 88.6094V88.9375C88.7031 89.3906 88.75 89.8229 88.8438 90.2344C88.9427 90.6406 89.0964 91.0026 89.3047 91.3203C89.5182 91.638 89.7943 91.8906 90.1328 92.0781C90.4766 92.2604 90.8906 92.3516 91.375 92.3516ZM99.7734 93.1562C99.2214 93.1562 98.7135 93.0547 98.25 92.8516C97.7917 92.6484 97.3906 92.362 97.0469 91.9922C96.7083 91.6224 96.4453 91.1849 96.2578 90.6797C96.0755 90.1693 95.9844 89.612 95.9844 89.0078V88.6719C95.9844 88.0208 96.0807 87.4323 96.2734 86.9062C96.4661 86.3802 96.7318 85.9297 97.0703 85.5547C97.4089 85.1797 97.7943 84.8932 98.2266 84.6953C98.6641 84.4922 99.1224 84.3906 99.6016 84.3906C100.138 84.3906 100.615 84.487 101.031 84.6797C101.448 84.8672 101.797 85.1354 102.078 85.4844C102.365 85.8281 102.581 86.237 102.727 86.7109C102.872 87.1797 102.945 87.6979 102.945 88.2656V88.8359H96.5469V88.0391H102.016V87.9297C102.005 87.4557 101.909 87.013 101.727 86.6016C101.549 86.1849 101.284 85.8464 100.93 85.5859C100.576 85.3255 100.133 85.1953 99.6016 85.1953C99.2057 85.1953 98.8411 85.2786 98.5078 85.4453C98.1797 85.612 97.8958 85.8516 97.6562 86.1641C97.4219 86.4714 97.2396 86.8385 97.1094 87.2656C96.9844 87.6875 96.9219 88.1562 96.9219 88.6719V89.0078C96.9219 89.4766 96.9896 89.9141 97.125 90.3203C97.2656 90.7214 97.4635 91.0755 97.7188 91.3828C97.9792 91.6901 98.2865 91.9297 98.6406 92.1016C98.9948 92.2734 99.3854 92.3594 99.8125 92.3594C100.312 92.3594 100.755 92.2682 101.141 92.0859C101.526 91.8984 101.872 91.6042 102.18 91.2031L102.766 91.6562C102.583 91.9271 102.354 92.1771 102.078 92.4062C101.807 92.6354 101.482 92.8177 101.102 92.9531C100.721 93.0885 100.279 93.1562 99.7734 93.1562ZM105.719 81V93H104.789V81H105.719ZM105.508 88.25L105.094 88.0156C105.125 87.5156 105.227 87.0469 105.398 86.6094C105.57 86.1719 105.802 85.7865 106.094 85.4531C106.391 85.1198 106.737 84.8594 107.133 84.6719C107.534 84.4844 107.977 84.3906 108.461 84.3906C108.883 84.3906 109.26 84.4479 109.594 84.5625C109.927 84.6771 110.211 84.8594 110.445 85.1094C110.68 85.3594 110.857 85.6797 110.977 86.0703C111.102 86.4609 111.164 86.9375 111.164 87.5V93H110.227V87.4922C110.227 86.9089 110.146 86.4531 109.984 86.125C109.823 85.7917 109.594 85.5547 109.297 85.4141C109 85.2734 108.648 85.2031 108.242 85.2031C107.794 85.2031 107.401 85.3021 107.062 85.5C106.729 85.6927 106.448 85.9453 106.219 86.2578C105.995 86.5651 105.823 86.8958 105.703 87.25C105.583 87.599 105.518 87.9323 105.508 88.25ZM113.055 88.9062V88.6484C113.055 88.0339 113.143 87.4661 113.32 86.9453C113.497 86.4245 113.75 85.974 114.078 85.5938C114.411 85.2135 114.81 84.9193 115.273 84.7109C115.737 84.4974 116.253 84.3906 116.82 84.3906C117.393 84.3906 117.911 84.4974 118.375 84.7109C118.839 84.9193 119.237 85.2135 119.57 85.5938C119.904 85.974 120.159 86.4245 120.336 86.9453C120.513 87.4661 120.602 88.0339 120.602 88.6484V88.9062C120.602 89.5208 120.513 90.0885 120.336 90.6094C120.159 91.125 119.904 91.5729 119.57 91.9531C119.242 92.3333 118.846 92.6302 118.383 92.8438C117.919 93.0521 117.404 93.1562 116.836 93.1562C116.263 93.1562 115.745 93.0521 115.281 92.8438C114.818 92.6302 114.419 92.3333 114.086 91.9531C113.753 91.5729 113.497 91.125 113.32 90.6094C113.143 90.0885 113.055 89.5208 113.055 88.9062ZM113.984 88.6484V88.9062C113.984 89.3698 114.047 89.8099 114.172 90.2266C114.297 90.638 114.479 91.0052 114.719 91.3281C114.958 91.6458 115.255 91.8958 115.609 92.0781C115.964 92.2604 116.372 92.3516 116.836 92.3516C117.294 92.3516 117.698 92.2604 118.047 92.0781C118.401 91.8958 118.698 91.6458 118.938 91.3281C119.177 91.0052 119.357 90.638 119.477 90.2266C119.602 89.8099 119.664 89.3698 119.664 88.9062V88.6484C119.664 88.1901 119.602 87.7552 119.477 87.3438C119.357 86.9323 119.174 86.5651 118.93 86.2422C118.69 85.9193 118.393 85.6641 118.039 85.4766C117.685 85.2891 117.279 85.1953 116.82 85.1953C116.362 85.1953 115.956 85.2891 115.602 85.4766C115.253 85.6641 114.956 85.9193 114.711 86.2422C114.471 86.5651 114.289 86.9323 114.164 87.3438C114.044 87.7552 113.984 88.1901 113.984 88.6484ZM123.578 81V93H122.648V81H123.578ZM131.625 91.3594V81H132.562V93H131.688L131.625 91.3594ZM125.758 88.8594V88.6953C125.758 88.0391 125.833 87.4479 125.984 86.9219C126.135 86.3906 126.352 85.9375 126.633 85.5625C126.919 85.1823 127.263 84.8932 127.664 84.6953C128.065 84.4922 128.518 84.3906 129.023 84.3906C129.518 84.3906 129.956 84.4714 130.336 84.6328C130.716 84.7943 131.042 85.026 131.312 85.3281C131.589 85.6302 131.81 85.9896 131.977 86.4062C132.148 86.8229 132.273 87.2865 132.352 87.7969V89.8828C132.289 90.362 132.174 90.8021 132.008 91.2031C131.841 91.599 131.62 91.9453 131.344 92.2422C131.068 92.5339 130.734 92.7604 130.344 92.9219C129.958 93.0781 129.513 93.1562 129.008 93.1562C128.508 93.1562 128.057 93.0521 127.656 92.8438C127.255 92.6354 126.914 92.3411 126.633 91.9609C126.352 91.5755 126.135 91.1198 125.984 90.5938C125.833 90.0677 125.758 89.4896 125.758 88.8594ZM126.695 88.6953V88.8594C126.695 89.3542 126.745 89.8125 126.844 90.2344C126.943 90.6562 127.094 91.0234 127.297 91.3359C127.5 91.6484 127.758 91.8932 128.07 92.0703C128.383 92.2474 128.753 92.3359 129.18 92.3359C129.716 92.3359 130.167 92.2344 130.531 92.0312C130.896 91.8229 131.188 91.5495 131.406 91.2109C131.625 90.8672 131.784 90.4922 131.883 90.0859V87.6562C131.82 87.3802 131.729 87.099 131.609 86.8125C131.49 86.526 131.326 86.263 131.117 86.0234C130.914 85.7786 130.654 85.5833 130.336 85.4375C130.023 85.2865 129.643 85.2109 129.195 85.2109C128.763 85.2109 128.391 85.2995 128.078 85.4766C127.766 85.6536 127.505 85.901 127.297 86.2188C127.094 86.5312 126.943 86.8984 126.844 87.3203C126.745 87.7422 126.695 88.2005 126.695 88.6953ZM138.289 93.1562C137.737 93.1562 137.229 93.0547 136.766 92.8516C136.307 92.6484 135.906 92.362 135.562 91.9922C135.224 91.6224 134.961 91.1849 134.773 90.6797C134.591 90.1693 134.5 89.612 134.5 89.0078V88.6719C134.5 88.0208 134.596 87.4323 134.789 86.9062C134.982 86.3802 135.247 85.9297 135.586 85.5547C135.924 85.1797 136.31 84.8932 136.742 84.6953C137.18 84.4922 137.638 84.3906 138.117 84.3906C138.654 84.3906 139.13 84.487 139.547 84.6797C139.964 84.8672 140.312 85.1354 140.594 85.4844C140.88 85.8281 141.096 86.237 141.242 86.7109C141.388 87.1797 141.461 87.6979 141.461 88.2656V88.8359H135.062V88.0391H140.531V87.9297C140.521 87.4557 140.424 87.013 140.242 86.6016C140.065 86.1849 139.799 85.8464 139.445 85.5859C139.091 85.3255 138.648 85.1953 138.117 85.1953C137.721 85.1953 137.357 85.2786 137.023 85.4453C136.695 85.612 136.411 85.8516 136.172 86.1641C135.938 86.4714 135.755 86.8385 135.625 87.2656C135.5 87.6875 135.438 88.1562 135.438 88.6719V89.0078C135.438 89.4766 135.505 89.9141 135.641 90.3203C135.781 90.7214 135.979 91.0755 136.234 91.3828C136.495 91.6901 136.802 91.9297 137.156 92.1016C137.51 92.2734 137.901 92.3594 138.328 92.3594C138.828 92.3594 139.271 92.2682 139.656 92.0859C140.042 91.8984 140.388 91.6042 140.695 91.2031L141.281 91.6562C141.099 91.9271 140.87 92.1771 140.594 92.4062C140.323 92.6354 139.997 92.8177 139.617 92.9531C139.237 93.0885 138.794 93.1562 138.289 93.1562ZM144.234 85.9453V93H143.305V84.5469H144.211L144.234 85.9453ZM147.227 84.4844L147.203 85.3438C147.099 85.3281 146.997 85.3151 146.898 85.3047C146.799 85.2943 146.693 85.2891 146.578 85.2891C146.172 85.2891 145.815 85.3646 145.508 85.5156C145.206 85.6615 144.951 85.8672 144.742 86.1328C144.534 86.3932 144.375 86.7005 144.266 87.0547C144.156 87.4036 144.094 87.7786 144.078 88.1797L143.734 88.3125C143.734 87.7604 143.792 87.2474 143.906 86.7734C144.021 86.2995 144.195 85.8854 144.43 85.5312C144.669 85.1719 144.969 84.8932 145.328 84.6953C145.693 84.4922 146.12 84.3906 146.609 84.3906C146.729 84.3906 146.846 84.401 146.961 84.4219C147.081 84.4375 147.169 84.4583 147.227 84.4844Z" fill="#48545D"/>
<line x1="262.5" y1="112.5" x2="279.5" y2="112.5" stroke="#D60C18" stroke-linecap="square" stroke-dasharray="2 2"/>
<path d="M126.104 129H127.196V124.272C127.784 123.612 128.336 123.276 128.828 123.276C129.668 123.276 130.052 123.792 130.052 125.016V129H131.144V124.272C131.756 123.612 132.272 123.276 132.776 123.276C133.616 123.276 134 123.792 134 125.016V129H135.092V124.872C135.092 123.216 134.444 122.328 133.112 122.328C132.32 122.328 131.636 122.844 130.952 123.564C130.7 122.796 130.16 122.328 129.164 122.328C128.384 122.328 127.7 122.82 127.136 123.432H127.1L126.992 122.484H126.104V129ZM137.213 129H138.305V122.484H137.213V129ZM137.765 121.14C138.185 121.14 138.497 120.864 138.497 120.408C138.497 119.988 138.185 119.712 137.765 119.712C137.333 119.712 137.033 119.988 137.033 120.408C137.033 120.864 137.333 121.14 137.765 121.14ZM140.518 129H141.61V124.272C142.258 123.624 142.726 123.276 143.386 123.276C144.25 123.276 144.622 123.792 144.622 125.016V129H145.726V124.872C145.726 123.216 145.102 122.328 143.734 122.328C142.834 122.328 142.162 122.82 141.55 123.432H141.514L141.406 122.484H140.518V129ZM147.29 126.072H150.362V125.232H147.29V126.072ZM153.034 129H154.306L155.218 125.508C155.398 124.884 155.53 124.284 155.662 123.612H155.722C155.878 124.284 155.998 124.872 156.166 125.496L157.114 129H158.446L160.198 122.484H159.154L158.206 126.264C158.05 126.888 157.93 127.464 157.798 128.076H157.75C157.594 127.464 157.45 126.888 157.294 126.264L156.262 122.484H155.194L154.186 126.264C154.018 126.876 153.886 127.464 153.742 128.076H153.682C153.562 127.464 153.442 126.888 153.31 126.264L152.326 122.484H151.21L153.034 129ZM161.624 129H162.716V122.484H161.624V129ZM162.176 121.14C162.596 121.14 162.908 120.864 162.908 120.408C162.908 119.988 162.596 119.712 162.176 119.712C161.744 119.712 161.444 119.988 161.444 120.408C161.444 120.864 161.744 121.14 162.176 121.14ZM167.136 129.168C167.928 129.168 168.612 128.748 169.128 128.232H169.152L169.248 129H170.148V119.46H169.056V121.956L169.104 123.084C168.54 122.604 168.036 122.328 167.28 122.328C165.792 122.328 164.448 123.636 164.448 125.76C164.448 127.932 165.504 129.168 167.136 129.168ZM167.376 128.244C166.236 128.244 165.588 127.308 165.588 125.748C165.588 124.26 166.416 123.24 167.46 123.24C168 123.24 168.504 123.432 169.056 123.936V127.356C168.516 127.944 167.988 128.244 167.376 128.244ZM174.41 129.168C174.818 129.168 175.25 129.048 175.61 128.916L175.394 128.1C175.19 128.184 174.89 128.28 174.662 128.28C173.906 128.28 173.654 127.812 173.654 127.02V123.372H175.418V122.484H173.654V120.648H172.73L172.61 122.484L171.59 122.556V123.372H172.562V126.996C172.562 128.292 173.018 129.168 174.41 129.168ZM176.893 129H177.985V124.272C178.633 123.624 179.101 123.276 179.761 123.276C180.625 123.276 180.997 123.792 180.997 125.016V129H182.101V124.872C182.101 123.216 181.477 122.328 180.109 122.328C179.209 122.328 178.549 122.82 177.949 123.408L177.985 122.064V119.46H176.893V129ZM186.29 129H191.81V128.064H189.326C188.882 128.064 188.342 128.1 187.886 128.148C189.914 126.012 191.39 124.416 191.39 122.808C191.39 121.284 190.406 120.3 188.834 120.3C187.718 120.3 186.95 120.804 186.23 121.584L186.866 122.208C187.358 121.632 187.982 121.176 188.702 121.176C189.794 121.176 190.31 121.872 190.31 122.844C190.31 124.248 188.87 125.796 186.29 128.364V129ZM195.574 129.168C197.146 129.168 198.406 128.244 198.406 126.72C198.406 125.556 197.566 124.788 196.534 124.548V124.5C197.47 124.152 198.094 123.492 198.094 122.46C198.094 121.08 197.014 120.3 195.538 120.3C194.53 120.3 193.75 120.744 193.09 121.356L193.678 122.052C194.17 121.548 194.794 121.176 195.502 121.176C196.414 121.176 196.978 121.704 196.978 122.532C196.978 123.432 196.366 124.14 194.554 124.14V124.98C196.582 124.98 197.29 125.664 197.29 126.684C197.29 127.644 196.546 128.256 195.502 128.256C194.494 128.256 193.834 127.776 193.318 127.236L192.766 127.956C193.342 128.592 194.194 129.168 195.574 129.168ZM202.41 129.168C204.102 129.168 205.134 127.572 205.134 124.704C205.134 121.836 204.102 120.3 202.41 120.3C200.694 120.3 199.662 121.836 199.662 124.704C199.662 127.572 200.694 129.168 202.41 129.168ZM202.41 128.28C201.402 128.28 200.718 127.212 200.718 124.704C200.718 122.184 201.402 121.176 202.41 121.176C203.406 121.176 204.078 122.184 204.078 124.704C204.078 127.212 203.406 128.28 202.41 128.28Z" fill="#D60C18"/>
<line x1="50.5" y1="132.5" x2="50.5" y2="115.5" stroke="#939EA7" stroke-linecap="square" stroke-dasharray="2 2"/>
<line x1="279.5" y1="132.5" x2="279.5" y2="115.5" stroke="#939EA7" stroke-linecap="square" stroke-dasharray="2 2"/>
</svg>
