<svg width="180" height="180" viewBox="0 0 180 180" fill="none" xmlns="http://www.w3.org/2000/svg">
<rect x="42" y="31" width="96" height="30" fill="#48545D"/>
<path d="M54.618 45.546V46.568H62.626V45.546H54.618ZM62.276 45.546V45.742C62.094 49.9 61.884 51.496 61.506 51.874C61.366 52.028 61.198 52.056 60.918 52.056C60.582 52.056 59.714 52.042 58.79 51.958C58.986 52.266 59.126 52.7 59.14 53.022C60.022 53.064 60.904 53.078 61.366 53.036C61.856 52.994 62.164 52.896 62.444 52.546C62.948 52.014 63.144 50.39 63.34 46.05C63.354 45.91 63.368 45.546 63.368 45.546H62.276ZM57.572 45.826C57.292 48.472 56.732 51.062 53.064 52.28C53.302 52.504 53.61 52.924 53.736 53.19C57.642 51.79 58.37 48.892 58.692 45.826H57.572ZM56.116 40.702C55.444 42.9 54.156 44.776 52.49 45.938C52.742 46.12 53.19 46.498 53.372 46.708C55.024 45.406 56.424 43.39 57.208 40.968L56.116 40.702ZM58.314 40.492V41.472H61.38V40.492H58.314ZM60.372 40.492V41.08H60.666C61.436 43.334 62.962 45.49 64.824 46.68C65.006 46.4 65.356 45.966 65.58 45.742C63.788 44.734 62.276 42.69 61.562 40.492H60.372ZM66.756 49.508V50.432H79.258V49.508H66.756ZM68.072 46.96V47.814H76.906V46.96H68.072ZM72.426 48.668V52.028C72.426 52.224 72.342 52.28 72.09 52.294C71.852 52.308 70.886 52.308 69.934 52.28C70.074 52.532 70.242 52.882 70.298 53.148C71.558 53.148 72.37 53.162 72.86 53.022C73.35 52.882 73.518 52.63 73.518 52.056V48.668H72.426ZM76.668 46.96V47.17C75.744 47.73 73.952 48.332 72.426 48.668C72.58 48.822 72.832 49.088 72.958 49.284C74.68 48.906 76.556 48.262 77.9 47.506L77.186 46.904L76.962 46.96H76.668ZM69.696 44.062H76.318V45.322H69.696V44.062ZM68.66 43.278V46.106H77.41V43.278H68.66ZM66.882 41.472V42.382H79.076V41.472H66.882ZM72.034 40.352C72.314 40.898 72.608 41.626 72.734 42.088L73.826 41.85C73.714 41.388 73.392 40.674 73.084 40.142L72.034 40.352ZM81.064 41.024V42.018H92.824V41.024H81.064ZM81.988 48.01V49.004H92.096V48.01H81.988ZM80.756 51.594V52.574H93.272V51.594H80.756ZM86.426 46.204V52.238H87.518V46.204H86.426ZM88.302 43.18C89.59 44.16 91.13 45.588 91.83 46.526L92.74 45.882C91.97 44.93 90.402 43.572 89.128 42.62L88.302 43.18ZM82.044 46.092C82.044 45.854 82.856 45.532 82.856 45.532V45.518C84.032 44.566 85.306 43.166 86.454 41.64L85.292 41.304C84.382 42.69 83.08 44.034 82.674 44.398C82.296 44.762 81.974 45 81.694 45.042C81.806 45.322 81.988 45.854 82.044 46.092ZM82.044 46.092C82.562 45.91 83.346 45.882 91.27 45.504C91.214 45.294 91.116 44.888 91.088 44.608L82.786 44.944L82.03 45.322L82.044 46.092ZM98.5309 52H104.313V50.908H99.8329V41.738H98.5309V52ZM106.132 52H107.434V41.738H106.132V52ZM110.234 52H111.466V46.624C111.466 45.532 111.368 44.454 111.298 43.418H111.368L112.474 45.532L116.198 52H117.542V41.738H116.296V47.072C116.296 48.136 116.394 49.298 116.478 50.334H116.408L115.302 48.206L111.564 41.738H110.234V52ZM120.351 52H126.413V50.908H121.653V47.156H125.531V46.05H121.653V42.83H126.259V41.738H120.351V52Z" fill="white"/>
<circle cx="90" cy="90" r="23.5" fill="white" stroke="#EEEEEE"/>
<path d="M98.9944 88.2698C98.7784 84.419 94.8197 81.36 89.9972 81.36C85.0307 81.36 81 84.599 81 88.6297C81 92.3006 84.4189 95.3596 88.8096 95.8275C89.0975 95.8635 89.2774 96.1154 89.2414 96.3673L89.0615 98.0948C89.0255 98.3467 89.2054 98.5986 89.4933 98.6346C89.6013 98.6346 89.6733 98.6346 89.7813 98.5986C93.4881 96.7632 95.7194 94.8918 97.051 93.2723C97.3029 92.9844 98.0947 91.8687 98.2386 91.5448C98.5985 90.933 98.8144 90.2492 98.9224 89.5295C98.9584 89.3495 98.9944 89.1696 98.9944 88.9896C98.9944 88.7737 98.9944 88.5218 98.9944 88.2698V88.2698ZM86.4703 91.041H84.5989C84.347 91.041 84.131 90.825 84.131 90.5731V87.0462C84.131 86.7943 84.347 86.5784 84.5989 86.5784C84.8508 86.5784 85.0667 86.7943 85.0667 87.0462V90.1053H86.4703C86.7222 90.1053 86.9381 90.3212 86.9381 90.5731C86.9381 90.825 86.7222 91.041 86.4703 91.041V91.041ZM88.2697 86.9383V90.6811C88.2697 90.897 88.0898 91.041 87.9098 91.041H87.6939C87.478 91.041 87.334 90.861 87.334 90.6811V86.9383C87.334 86.7223 87.514 86.5784 87.6939 86.5784H87.9098C88.0898 86.5784 88.2697 86.7223 88.2697 86.9383V86.9383ZM92.5524 90.5371C92.5524 90.789 92.3364 91.005 92.0845 91.041C91.9766 91.041 91.8686 91.005 91.7606 90.897C91.7246 90.861 89.8532 88.4138 89.8532 88.4138V90.5371C89.8532 90.7891 89.6373 91.005 89.3854 91.005C89.1335 91.005 88.9175 90.7891 88.9175 90.5371V87.0462C88.9175 86.7943 89.0975 86.5784 89.3494 86.5424C89.4933 86.5424 89.6373 86.5784 89.7093 86.6863C89.7453 86.7223 91.6167 89.1336 91.6167 89.1336V86.9743C91.6167 86.7223 91.8326 86.5064 92.0845 86.5064C92.3364 86.5064 92.5524 86.7223 92.5524 86.9743V90.5371V90.5371ZM95.5034 88.3418C95.7554 88.3418 95.9713 88.5578 95.9713 88.8097C95.9713 89.0616 95.7554 89.2775 95.5034 89.2775H94.0999V90.1053H95.5034C95.7554 90.1053 95.9713 90.3212 95.9713 90.5731C95.9713 90.825 95.7554 91.041 95.5034 91.041H93.632C93.3801 91.041 93.1642 90.825 93.1642 90.5731V87.0462C93.1642 86.7943 93.3801 86.5784 93.632 86.5784H95.5034C95.7554 86.5784 95.9713 86.7943 95.9713 87.0462C95.9713 87.2981 95.7554 87.5141 95.5034 87.5141H94.0999V88.3418H95.5034V88.3418Z" fill="#6B7780"/>
</svg>
