<svg width="180" height="180" viewBox="0 0 180 180" fill="none" xmlns="http://www.w3.org/2000/svg">
<rect x="19" y="75" width="89" height="30" fill="#48545D"/>
<path d="M30.4 96H36.462V94.908H31.702V91.156H35.58V90.05H31.702V86.83H36.308V85.738H30.4V96ZM38.5321 96H39.8061V90.484C40.4921 89.714 41.1361 89.322 41.7101 89.322C42.6901 89.322 43.1381 89.924 43.1381 91.352V96H44.4121V90.484C45.1261 89.714 45.7281 89.322 46.3161 89.322C47.2961 89.322 47.7441 89.924 47.7441 91.352V96H49.0181V91.184C49.0181 89.252 48.2621 88.216 46.7081 88.216C45.7841 88.216 44.9861 88.818 44.1881 89.658C43.8941 88.762 43.2641 88.216 42.1021 88.216C41.1921 88.216 40.3941 88.79 39.7361 89.504H39.6941L39.5681 88.398H38.5321V96ZM53.2431 96.196C54.1811 96.196 55.0351 95.706 55.7491 95.104H55.8051L55.9171 96H56.9671V91.338C56.9671 89.448 56.1831 88.216 54.3211 88.216C53.1031 88.216 52.0391 88.748 51.3391 89.196L51.8431 90.092C52.4311 89.686 53.2291 89.266 54.1251 89.266C55.3711 89.266 55.6791 90.204 55.6791 91.184C52.4451 91.548 51.0171 92.374 51.0171 94.026C51.0171 95.398 51.9691 96.196 53.2431 96.196ZM53.5931 95.16C52.8511 95.16 52.2631 94.81 52.2631 93.942C52.2631 92.962 53.1171 92.332 55.6791 92.038V94.152C54.9511 94.81 54.3351 95.16 53.5931 95.16ZM59.3818 96H60.6558V88.398H59.3818V96ZM60.0258 86.83C60.5158 86.83 60.8798 86.508 60.8798 85.976C60.8798 85.486 60.5158 85.164 60.0258 85.164C59.5218 85.164 59.1718 85.486 59.1718 85.976C59.1718 86.508 59.5218 86.83 60.0258 86.83ZM64.5812 96.196C64.9312 96.196 65.1272 96.14 65.3092 96.084L65.1412 95.104C64.9872 95.132 64.9312 95.132 64.8752 95.132C64.6792 95.132 64.5112 94.978 64.5112 94.572V84.87H63.2372V94.488C63.2372 95.58 63.6152 96.196 64.5812 96.196ZM71.6766 89.546V90.568H79.6846V89.546H71.6766ZM79.3346 89.546V89.742C79.1526 93.9 78.9426 95.496 78.5646 95.874C78.4246 96.028 78.2566 96.056 77.9766 96.056C77.6406 96.056 76.7726 96.042 75.8486 95.958C76.0446 96.266 76.1846 96.7 76.1986 97.022C77.0806 97.064 77.9626 97.078 78.4246 97.036C78.9146 96.994 79.2226 96.896 79.5026 96.546C80.0066 96.014 80.2026 94.39 80.3986 90.05C80.4126 89.91 80.4266 89.546 80.4266 89.546H79.3346ZM74.6306 89.826C74.3506 92.472 73.7906 95.062 70.1226 96.28C70.3606 96.504 70.6686 96.924 70.7946 97.19C74.7006 95.79 75.4286 92.892 75.7506 89.826H74.6306ZM73.1746 84.702C72.5026 86.9 71.2146 88.776 69.5486 89.938C69.8006 90.12 70.2486 90.498 70.4306 90.708C72.0826 89.406 73.4826 87.39 74.2666 84.968L73.1746 84.702ZM75.3726 84.492V85.472H78.4386V84.492H75.3726ZM77.4306 84.492V85.08H77.7246C78.4946 87.334 80.0206 89.49 81.8826 90.68C82.0646 90.4 82.4146 89.966 82.6386 89.742C80.8466 88.734 79.3346 86.69 78.6206 84.492H77.4306ZM83.8146 93.508V94.432H96.3166V93.508H83.8146ZM85.1306 90.96V91.814H93.9646V90.96H85.1306ZM89.4846 92.668V96.028C89.4846 96.224 89.4006 96.28 89.1486 96.294C88.9106 96.308 87.9446 96.308 86.9926 96.28C87.1326 96.532 87.3006 96.882 87.3566 97.148C88.6166 97.148 89.4286 97.162 89.9186 97.022C90.4086 96.882 90.5766 96.63 90.5766 96.056V92.668H89.4846ZM93.7266 90.96V91.17C92.8026 91.73 91.0106 92.332 89.4846 92.668C89.6386 92.822 89.8906 93.088 90.0166 93.284C91.7386 92.906 93.6146 92.262 94.9586 91.506L94.2446 90.904L94.0206 90.96H93.7266ZM86.7546 88.062H93.3766V89.322H86.7546V88.062ZM85.7186 87.278V90.106H94.4686V87.278H85.7186ZM83.9406 85.472V86.382H96.1346V85.472H83.9406ZM89.0926 84.352C89.3726 84.898 89.6666 85.626 89.7926 86.088L90.8846 85.85C90.7726 85.388 90.4506 84.674 90.1426 84.142L89.0926 84.352Z" fill="white"/>
<circle cx="137" cy="90" r="23.5" fill="white" stroke="#EEEEEE"/>
<g clip-path="url(#clip0_41_615)">
<path d="M145.459 84.1182H128.542C128.23 84.1182 127.979 84.3695 127.979 84.6807V97.3475C127.979 97.6586 128.23 97.91 128.542 97.91H145.459C145.77 97.91 146.021 97.6586 146.021 97.3475V84.6807C146.021 84.3695 145.77 84.1182 145.459 84.1182ZM137.002 92.3465L135.281 90.6256L129.899 85.2432H144.102L137.002 92.3465V92.3465ZM134.087 91.0211L129.104 95.9904V86.0395L134.087 91.0211ZM134.882 91.8174L136.603 93.5383C136.708 93.6438 136.851 93.7035 137 93.7035C137.15 93.7035 137.292 93.6438 137.397 93.5383L139.117 91.8174L144.098 96.7832H129.9L134.882 91.8174V91.8174ZM139.915 91.0229L144.896 86.0395V95.9922L139.915 91.0229Z" fill="#6B7780"/>
</g>
<defs>
<clipPath id="clip0_41_615">
<rect width="18" height="18" fill="white" transform="translate(128 82)"/>
</clipPath>
</defs>
</svg>
