<svg width="230" height="128" viewBox="0 0 230 128" fill="none" xmlns="http://www.w3.org/2000/svg">
<path d="M51.056 110H55.88V109.088H54.104V101.204H53.264C52.796 101.492 52.232 101.696 51.44 101.828V102.536H53.012V109.088H51.056V110ZM59.9923 110.168C61.6483 110.168 62.7162 108.644 62.7162 105.572C62.7162 102.524 61.6483 101.048 59.9923 101.048C58.3123 101.048 57.2443 102.524 57.2443 105.572C57.2443 108.644 58.3123 110.168 59.9923 110.168ZM59.9923 109.28C58.9843 109.28 58.3003 108.164 58.3003 105.572C58.3003 103.016 58.9843 101.924 59.9923 101.924C60.9883 101.924 61.6603 103.016 61.6603 105.572C61.6603 108.164 60.9883 109.28 59.9923 109.28Z" fill="#D60C18"/>
<line x1="62.5" y1="96.5" x2="62.5" y2="79.5" stroke="#939EA7" stroke-linecap="square" stroke-dasharray="2 2"/>
<line x1="51.5" y1="96.5" x2="51.5" y2="79.5" stroke="#939EA7" stroke-linecap="square" stroke-dasharray="2 2"/>
<path d="M26.132 58.168C27.608 58.168 29.012 57.064 29.012 55.144C29.012 53.2 27.824 52.336 26.36 52.336C25.832 52.336 25.436 52.468 25.04 52.684L25.268 50.14H28.592V49.204H24.308L24.032 53.32L24.62 53.692C25.124 53.356 25.496 53.164 26.084 53.164C27.176 53.164 27.896 53.92 27.896 55.18C27.896 56.452 27.068 57.256 26.024 57.256C25.016 57.256 24.368 56.788 23.876 56.272L23.324 56.992C23.924 57.592 24.764 58.168 26.132 58.168Z" fill="#D60C18"/>
<line x1="49.5" y1="49.5" x2="32.5" y2="49.5" stroke="#939EA7" stroke-linecap="square" stroke-dasharray="2 2"/>
<line x1="49.5" y1="57.5" x2="32.5" y2="57.5" stroke="#939EA7" stroke-linecap="square" stroke-dasharray="2 2"/>
<rect x="51" y="49" width="129" height="30" fill="#48545D"/>
<path d="M63.618 63.546V64.568H71.626V63.546H63.618ZM71.276 63.546V63.742C71.094 67.9 70.884 69.496 70.506 69.874C70.366 70.028 70.198 70.056 69.918 70.056C69.582 70.056 68.714 70.042 67.79 69.958C67.986 70.266 68.126 70.7 68.14 71.022C69.022 71.064 69.904 71.078 70.366 71.036C70.856 70.994 71.164 70.896 71.444 70.546C71.948 70.014 72.144 68.39 72.34 64.05C72.354 63.91 72.368 63.546 72.368 63.546H71.276ZM66.572 63.826C66.292 66.472 65.732 69.062 62.064 70.28C62.302 70.504 62.61 70.924 62.736 71.19C66.642 69.79 67.37 66.892 67.692 63.826H66.572ZM65.116 58.702C64.444 60.9 63.156 62.776 61.49 63.938C61.742 64.12 62.19 64.498 62.372 64.708C64.024 63.406 65.424 61.39 66.208 58.968L65.116 58.702ZM67.314 58.492V59.472H70.38V58.492H67.314ZM69.372 58.492V59.08H69.666C70.436 61.334 71.962 63.49 73.824 64.68C74.006 64.4 74.356 63.966 74.58 63.742C72.788 62.734 71.276 60.69 70.562 58.492H69.372ZM75.756 67.508V68.432H88.258V67.508H75.756ZM77.072 64.96V65.814H85.906V64.96H77.072ZM81.426 66.668V70.028C81.426 70.224 81.342 70.28 81.09 70.294C80.852 70.308 79.886 70.308 78.934 70.28C79.074 70.532 79.242 70.882 79.298 71.148C80.558 71.148 81.37 71.162 81.86 71.022C82.35 70.882 82.518 70.63 82.518 70.056V66.668H81.426ZM85.668 64.96V65.17C84.744 65.73 82.952 66.332 81.426 66.668C81.58 66.822 81.832 67.088 81.958 67.284C83.68 66.906 85.556 66.262 86.9 65.506L86.186 64.904L85.962 64.96H85.668ZM78.696 62.062H85.318V63.322H78.696V62.062ZM77.66 61.278V64.106H86.41V61.278H77.66ZM75.882 59.472V60.382H88.076V59.472H75.882ZM81.034 58.352C81.314 58.898 81.608 59.626 81.734 60.088L82.826 59.85C82.714 59.388 82.392 58.674 82.084 58.142L81.034 58.352ZM90.064 59.024V60.018H101.824V59.024H90.064ZM90.988 66.01V67.004H101.096V66.01H90.988ZM89.756 69.594V70.574H102.272V69.594H89.756ZM95.426 64.204V70.238H96.518V64.204H95.426ZM97.302 61.18C98.59 62.16 100.13 63.588 100.83 64.526L101.74 63.882C100.97 62.93 99.402 61.572 98.128 60.62L97.302 61.18ZM91.044 64.092C91.044 63.854 91.856 63.532 91.856 63.532V63.518C93.032 62.566 94.306 61.166 95.454 59.64L94.292 59.304C93.382 60.69 92.08 62.034 91.674 62.398C91.296 62.762 90.974 63 90.694 63.042C90.806 63.322 90.988 63.854 91.044 64.092ZM91.044 64.092C91.562 63.91 92.346 63.882 100.27 63.504C100.214 63.294 100.116 62.888 100.088 62.608L91.786 62.944L91.03 63.322L91.044 64.092ZM107.531 70H108.833V65.394H112.739V64.316H108.833V60.83H113.439V59.738H107.531V70ZM116.333 70.196C117.271 70.196 118.125 69.706 118.839 69.104H118.895L119.007 70H120.057V65.338C120.057 63.448 119.273 62.216 117.411 62.216C116.193 62.216 115.129 62.748 114.429 63.196L114.933 64.092C115.521 63.686 116.319 63.266 117.215 63.266C118.461 63.266 118.769 64.204 118.769 65.184C115.535 65.548 114.107 66.374 114.107 68.026C114.107 69.398 115.059 70.196 116.333 70.196ZM116.683 69.16C115.941 69.16 115.353 68.81 115.353 67.942C115.353 66.962 116.207 66.332 118.769 66.038V68.152C118.041 68.81 117.425 69.16 116.683 69.16ZM125.454 70.196C126.364 70.196 127.246 69.832 127.918 69.23L127.372 68.376C126.896 68.796 126.266 69.132 125.58 69.132C124.18 69.132 123.214 67.956 123.214 66.22C123.214 64.456 124.222 63.28 125.622 63.28C126.21 63.28 126.686 63.546 127.134 63.952L127.778 63.112C127.246 62.622 126.546 62.216 125.552 62.216C123.606 62.216 121.898 63.672 121.898 66.22C121.898 68.726 123.438 70.196 125.454 70.196ZM132.305 70.196C133.341 70.196 134.139 69.846 134.811 69.412L134.349 68.558C133.789 68.936 133.187 69.174 132.459 69.174C131.003 69.174 130.023 68.124 129.925 66.514H135.049C135.091 66.318 135.105 66.052 135.105 65.786C135.105 63.602 134.013 62.216 132.081 62.216C130.331 62.216 128.665 63.742 128.665 66.22C128.665 68.712 130.275 70.196 132.305 70.196ZM129.911 65.59C130.079 64.092 131.031 63.238 132.095 63.238C133.299 63.238 133.985 64.064 133.985 65.59H129.911ZM140.323 70.196C142.073 70.196 143.627 68.684 143.627 66.08C143.627 63.742 142.563 62.216 140.603 62.216C139.749 62.216 138.909 62.678 138.209 63.28L138.265 61.908V58.87H136.991V70H137.999L138.125 69.216H138.167C138.825 69.832 139.623 70.196 140.323 70.196ZM140.127 69.118C139.623 69.118 138.923 68.908 138.265 68.334V64.33C138.979 63.644 139.651 63.28 140.295 63.28C141.737 63.28 142.311 64.414 142.311 66.108C142.311 67.984 141.373 69.118 140.127 69.118ZM148.599 70.196C150.461 70.196 152.113 68.726 152.113 66.22C152.113 63.672 150.461 62.216 148.599 62.216C146.723 62.216 145.071 63.672 145.071 66.22C145.071 68.726 146.723 70.196 148.599 70.196ZM148.599 69.132C147.269 69.132 146.387 67.956 146.387 66.22C146.387 64.456 147.269 63.28 148.599 63.28C149.915 63.28 150.797 64.456 150.797 66.22C150.797 67.956 149.915 69.132 148.599 69.132ZM157.09 70.196C158.952 70.196 160.604 68.726 160.604 66.22C160.604 63.672 158.952 62.216 157.09 62.216C155.214 62.216 153.562 63.672 153.562 66.22C153.562 68.726 155.214 70.196 157.09 70.196ZM157.09 69.132C155.76 69.132 154.878 67.956 154.878 66.22C154.878 64.456 155.76 63.28 157.09 63.28C158.406 63.28 159.288 64.456 159.288 66.22C159.288 67.956 158.406 69.132 157.09 69.132ZM162.626 70H163.886V67.998L165.3 66.332L167.526 70H168.912L166.056 65.464L168.59 62.398H167.162L163.928 66.416H163.886V58.87H162.626V70Z" fill="white"/>
</svg>
