<svg width="480" height="332" viewBox="0 0 480 332" fill="none" xmlns="http://www.w3.org/2000/svg">
<rect width="480" height="332" fill="#F7F7F7"/>
<path d="M40 86H440V250H40V86Z" fill="white"/>
<path d="M326.082 158.168C327.654 158.168 328.914 157.22 328.914 155.66C328.914 154.448 328.074 153.668 327.042 153.416V153.368C327.978 153.032 328.602 152.324 328.602 151.256C328.602 149.852 327.522 149.048 326.046 149.048C325.038 149.048 324.258 149.492 323.598 150.092L324.186 150.8C324.678 150.296 325.302 149.936 326.01 149.936C326.922 149.936 327.486 150.488 327.486 151.328C327.486 152.288 326.874 153.008 325.062 153.008V153.86C327.09 153.86 327.798 154.556 327.798 155.612C327.798 156.62 327.054 157.256 326.01 157.256C325.002 157.256 324.342 156.776 323.826 156.236L323.274 156.956C323.85 157.592 324.702 158.168 326.082 158.168Z" fill="#D60C18"/>
<path d="M332.919 158.168C334.575 158.168 335.643 156.644 335.643 153.572C335.643 150.524 334.575 149.048 332.919 149.048C331.239 149.048 330.171 150.524 330.171 153.572C330.171 156.644 331.239 158.168 332.919 158.168ZM332.919 157.28C331.911 157.28 331.227 156.164 331.227 153.572C331.227 151.016 331.911 149.924 332.919 149.924C333.915 149.924 334.587 151.016 334.587 153.572C334.587 156.164 333.915 157.28 332.919 157.28Z" fill="#D60C18"/>
<path d="M256.146 234H260.97V233.088H259.194V225.204H258.354C257.886 225.492 257.322 225.696 256.53 225.828V226.536H258.102V233.088H256.146V234Z" fill="#D60C18"/>
<path d="M264.878 234.168C266.354 234.168 267.758 233.064 267.758 231.144C267.758 229.2 266.57 228.336 265.106 228.336C264.578 228.336 264.182 228.468 263.786 228.684L264.014 226.14H267.338V225.204H263.054L262.778 229.32L263.366 229.692C263.87 229.356 264.242 229.164 264.83 229.164C265.922 229.164 266.642 229.92 266.642 231.18C266.642 232.452 265.814 233.256 264.77 233.256C263.762 233.256 263.114 232.788 262.622 232.272L262.07 232.992C262.67 233.592 263.51 234.168 264.878 234.168Z" fill="#D60C18"/>
<path d="M81.0125 106.168C82.5845 106.168 83.8445 105.22 83.8445 103.66C83.8445 102.448 83.0045 101.668 81.9725 101.416V101.368C82.9085 101.032 83.5325 100.324 83.5325 99.256C83.5325 97.852 82.4525 97.048 80.9765 97.048C79.9685 97.048 79.1885 97.492 78.5285 98.092L79.1165 98.8C79.6085 98.296 80.2325 97.936 80.9405 97.936C81.8525 97.936 82.4165 98.488 82.4165 99.328C82.4165 100.288 81.8045 101.008 79.9925 101.008V101.86C82.0205 101.86 82.7285 102.556 82.7285 103.612C82.7285 104.62 81.9845 105.256 80.9405 105.256C79.9325 105.256 79.2725 104.776 78.7565 104.236L78.2045 104.956C78.7805 105.592 79.6325 106.168 81.0125 106.168Z" fill="#D60C18"/>
<path d="M87.8487 106.168C89.5047 106.168 90.5727 104.644 90.5727 101.572C90.5727 98.524 89.5047 97.048 87.8487 97.048C86.1687 97.048 85.1007 98.524 85.1007 101.572C85.1007 104.644 86.1687 106.168 87.8487 106.168ZM87.8487 105.28C86.8407 105.28 86.1567 104.164 86.1567 101.572C86.1567 99.016 86.8407 97.924 87.8487 97.924C88.8447 97.924 89.5167 99.016 89.5167 101.572C89.5167 104.164 88.8447 105.28 87.8487 105.28Z" fill="#D60C18"/>
<path d="M52.1223 132.168C53.6943 132.168 54.9543 131.22 54.9543 129.66C54.9543 128.448 54.1143 127.668 53.0823 127.416V127.368C54.0183 127.032 54.6423 126.324 54.6423 125.256C54.6423 123.852 53.5623 123.048 52.0863 123.048C51.0783 123.048 50.2983 123.492 49.6383 124.092L50.2263 124.8C50.7183 124.296 51.3423 123.936 52.0503 123.936C52.9623 123.936 53.5263 124.488 53.5263 125.328C53.5263 126.288 52.9143 127.008 51.1023 127.008V127.86C53.1303 127.86 53.8383 128.556 53.8383 129.612C53.8383 130.62 53.0943 131.256 52.0503 131.256C51.0423 131.256 50.3823 130.776 49.8663 130.236L49.3143 130.956C49.8903 131.592 50.7423 132.168 52.1223 132.168Z" fill="#D60C18"/>
<path d="M58.9586 132.168C60.6146 132.168 61.6826 130.644 61.6826 127.572C61.6826 124.524 60.6146 123.048 58.9586 123.048C57.2786 123.048 56.2106 124.524 56.2106 127.572C56.2106 130.644 57.2786 132.168 58.9586 132.168ZM58.9586 131.28C57.9506 131.28 57.2666 130.164 57.2666 127.572C57.2666 125.016 57.9506 123.924 58.9586 123.924C59.9546 123.924 60.6266 125.016 60.6266 127.572C60.6266 130.164 59.9546 131.28 58.9586 131.28Z" fill="#D60C18"/>
<path fill-rule="evenodd" clip-rule="evenodd" d="M41 119L41 121.062L40 121.062L40 119L41 119ZM41 122.188L41 125.312L40 125.312L40 122.187L41 122.188ZM41 126.438L41 129.562L40 129.562L40 126.437L41 126.438ZM41 130.688L41 133.812L40 133.812L40 130.687L41 130.688ZM41 134.938L41 137L40 137L40 134.937L41 134.938Z" fill="#939EA7"/>
<path fill-rule="evenodd" clip-rule="evenodd" d="M254.097 220L254.097 222.062L253.097 222.062L253.097 220L254.097 220ZM254.097 223.188L254.097 226.312L253.097 226.312L253.097 223.187L254.097 223.188ZM254.097 227.438L254.097 230.562L253.097 230.562L253.097 227.437L254.097 227.438ZM254.097 231.688L254.097 234.812L253.097 234.812L253.097 231.687L254.097 231.688ZM254.097 235.938L254.097 238L253.097 238L253.097 235.937L254.097 235.938Z" fill="#939EA7"/>
<path fill-rule="evenodd" clip-rule="evenodd" d="M271.033 220L271.033 222.062L270.033 222.062L270.033 220L271.033 220ZM271.033 223.188L271.033 226.312L270.033 226.312L270.033 223.187L271.033 223.188ZM271.033 227.438L271.033 230.562L270.033 230.562L270.033 227.437L271.033 227.438ZM271.033 231.688L271.033 234.812L270.033 234.812L270.033 231.687L271.033 231.688ZM271.033 235.938L271.033 238L270.033 238L270.033 235.937L271.033 235.938Z" fill="#939EA7"/>
<path fill-rule="evenodd" clip-rule="evenodd" d="M338.865 140L336.807 140L336.807 139L338.865 139L338.865 140ZM335.69 140L332.574 140L332.574 139L335.69 139L335.69 140ZM331.457 140L328.341 140L328.341 139L331.457 139L331.457 140ZM327.224 140L324.108 140L324.108 139L327.224 139L327.224 140ZM322.991 140L320.933 140L320.933 139L322.991 139L322.991 140Z" fill="#939EA7"/>
<path fill-rule="evenodd" clip-rule="evenodd" d="M338.865 170L336.807 170L336.807 169L338.865 169L338.865 170ZM335.69 170L332.574 170L332.574 169L335.69 169L335.69 170ZM331.457 170L328.341 170L328.341 169L331.457 169L331.457 170ZM327.224 170L324.108 170L324.108 169L327.224 169L327.224 170ZM322.991 170L320.933 170L320.933 169L322.991 169L322.991 170Z" fill="#939EA7"/>
<path fill-rule="evenodd" clip-rule="evenodd" d="M69.8901 119L69.8901 121.062L68.8901 121.062L68.8901 119L69.8901 119ZM69.8901 122.188L69.8901 125.312L68.8901 125.312L68.8901 122.187L69.8901 122.188ZM69.8901 126.438L69.8901 129.562L68.8901 129.562L68.8901 126.437L69.8901 126.438ZM69.8901 130.688L69.8901 133.812L68.8901 133.812L68.8901 130.687L69.8901 130.688ZM69.8901 134.938L69.8901 137L68.8901 137L68.8901 134.937L69.8901 134.938Z" fill="#939EA7"/>
<path fill-rule="evenodd" clip-rule="evenodd" d="M93.4314 87L91.3732 87L91.3732 86L93.4314 86L93.4314 87ZM90.2567 87L87.1402 87L87.1402 86L90.2567 86L90.2567 87ZM86.0237 87L82.9072 87L82.9072 86L86.0237 86L86.0237 87ZM81.7907 87L78.6742 87L78.6742 86L81.7907 86L81.7907 87ZM77.5577 87L75.4995 87L75.4995 86L77.5577 86L77.5577 87Z" fill="#939EA7"/>
<path d="M77.8355 129.304V130.232H84.0915V129.304H77.8355ZM77.8355 131.928V132.872H84.0915V131.928H77.8355ZM77.8515 134.568V135.592H84.7635V134.568H77.8515ZM75.9475 123.208V125.944H76.9875V124.248H83.3235V125.912H84.4275V123.208H75.9475ZM80.6515 127.4V135.112H81.7555V127.4H80.6515ZM78.2675 126.632H78.1715L77.1315 127.72V136.28H78.2675V127.672H84.2835V126.632H78.2675ZM79.9155 121.544C79.0675 124.52 77.4995 127 75.2755 128.536C75.5155 128.776 75.8835 129.272 76.0115 129.528C78.3635 127.8 80.0595 125.08 81.0515 121.768L79.9155 121.544ZM80.1715 125.176C80.5075 125.832 80.9235 126.744 81.0995 127.32L82.1395 126.856C81.9635 126.296 81.5475 125.432 81.1635 124.776L80.1715 125.176ZM70.3315 122.68V123.8H75.5795V122.68H70.3315ZM71.8675 127.368V128.424H74.2835V133.128H71.8675V134.184H75.3395V127.368H71.8675ZM72.3315 123.08C71.9315 126.008 71.2115 128.792 69.9315 130.552C70.1555 130.808 70.5075 131.368 70.6355 131.624C72.1075 129.608 72.9715 126.536 73.4835 123.256L72.3315 123.08ZM71.4675 127.368V135.496H72.5075V127.368H71.4675Z" fill="black"/>
<path d="M88.8755 126.504V127.656H98.2035V126.504H88.8755ZM93.4835 130.28V131.416H98.8755V130.28H93.4835ZM92.8435 127.048V134.984L94.0915 135.144V127.048H92.8435ZM89.0835 128.952C88.7315 131.864 87.8675 134.152 86.0755 135.528C86.3635 135.72 86.8595 136.12 87.0515 136.328C88.8595 134.744 89.8515 132.312 90.2995 129.08L89.0835 128.952ZM89.8355 131L88.8595 131.384C90.2355 135.288 92.8435 136.024 96.6515 136.024H100.396C100.46 135.672 100.668 135.112 100.86 134.808C100.076 134.84 97.3075 134.84 96.7155 134.84C93.4675 134.824 90.9715 134.264 89.8355 131ZM86.8115 123.368V126.872H87.9955V124.52H98.9555V126.872H100.188V123.368H86.8115ZM92.2995 121.8C92.6835 122.44 93.0515 123.288 93.1955 123.816L94.4435 123.432C94.2835 122.888 93.8675 122.072 93.4835 121.464L92.2995 121.8Z" fill="black"/>
<path d="M112.108 123.496V132.36H113.18V123.496H112.108ZM115.036 121.864V134.728C115.036 134.984 114.972 135.064 114.732 135.064C114.444 135.08 113.58 135.096 112.684 135.064C112.844 135.4 113.004 135.944 113.052 136.264C114.204 136.264 115.052 136.216 115.516 136.024C115.98 135.832 116.156 135.48 116.156 134.728V121.864H115.036ZM109.676 122.36V134.984C109.676 135.16 109.628 135.208 109.468 135.208C109.34 135.224 108.908 135.224 108.428 135.208C108.588 135.496 108.748 135.992 108.796 136.264C109.516 136.264 109.98 136.232 110.3 136.056C110.636 135.848 110.732 135.528 110.732 135V122.36H109.676ZM103.148 122.36V136.296H104.172V123.432H110.252V122.36H103.148ZM102.124 128.008V129.128H111.724V128.008H102.124ZM105.404 122.808V135.784H106.252V122.808H105.404ZM107.516 122.808V135.704H108.364V122.808H107.516Z" fill="black"/>
<path d="M118.732 122.216V136.248H119.804V123.304H122.46V122.216H118.732ZM122.14 122.216V122.536C121.756 123.624 121.132 125.48 120.508 126.92C121.74 128.2 122.044 129.288 122.06 130.168C122.06 130.664 121.964 131.096 121.692 131.272C121.564 131.384 121.372 131.432 121.164 131.432C120.892 131.448 120.54 131.448 120.156 131.416C120.348 131.72 120.444 132.184 120.444 132.472C120.828 132.488 121.276 132.488 121.596 132.456C121.948 132.408 122.236 132.328 122.476 132.152C122.94 131.816 123.132 131.16 123.132 130.28C123.116 129.272 122.828 128.12 121.58 126.792C122.156 125.528 122.796 123.96 123.292 122.632L122.508 122.168L122.332 122.216H122.14ZM124.924 126.472V127.544H131.244V126.472H124.924ZM123.436 129.496V130.6H132.748V129.496H123.436ZM125.068 131.48C124.54 132.616 123.708 133.832 122.876 134.664C123.132 134.808 123.596 135.144 123.788 135.32C124.604 134.424 125.532 133.064 126.14 131.784L125.068 131.48ZM129.708 131.8C130.572 132.824 131.564 134.248 132.012 135.176L132.956 134.616C132.508 133.72 131.516 132.344 130.62 131.336L129.708 131.8ZM127.628 126.728V134.888C127.628 135.096 127.564 135.176 127.324 135.192C127.084 135.192 126.316 135.192 125.42 135.16C125.596 135.48 125.772 135.96 125.836 136.28C126.988 136.28 127.724 136.264 128.172 136.072C128.636 135.88 128.796 135.56 128.796 134.888V126.728H127.628ZM128.076 121.464C127.004 123.384 125.004 125.224 123.004 126.264C123.292 126.488 123.612 126.856 123.804 127.144C125.884 125.944 127.884 123.992 129.1 121.864L128.076 121.464ZM128.604 122.312L127.66 122.712C129.18 124.76 130.7 125.992 132.268 126.984C132.444 126.664 132.796 126.264 133.084 126.04C131.564 125.192 130.012 124.104 128.604 122.312Z" fill="black"/>
<path d="M138.908 126.504V127.672H141.98V126.504H138.908ZM138.476 121.576V134.552L139.724 134.392V121.576H138.476ZM135.5 124.808V135L136.684 134.84V124.808H135.5ZM134.204 134.792L134.412 136.072C136.428 135.688 139.34 135.16 142.076 134.648L141.98 133.448C139.148 133.96 136.14 134.488 134.204 134.792ZM142.78 121.576V133.544C142.78 135.304 143.212 135.752 144.7 135.752C145.004 135.752 146.796 135.752 147.132 135.752C148.572 135.752 148.892 134.856 149.052 132.264C148.7 132.184 148.204 131.96 147.884 131.72C147.804 133.992 147.692 134.584 147.036 134.584C146.636 134.584 145.164 134.584 144.844 134.584C144.172 134.584 144.06 134.424 144.06 133.576V121.576H142.78ZM143.628 126.504V127.672H147.98V126.504H143.628Z" fill="black"/>
<path d="M155.612 126.504V127.496H163.388V126.504H155.612ZM155.612 128.776V129.768H163.388V128.776H155.612ZM156.108 134.664V135.656H162.876V134.664H156.108ZM154.46 124.216V125.224H164.652V124.216H154.46ZM155.404 131.128V136.28H156.444V132.12H162.476V136.232H163.564V131.128H155.404ZM158.156 121.96C158.572 122.648 159.068 123.544 159.276 124.136L160.364 123.656C160.124 123.08 159.644 122.216 159.196 121.56L158.156 121.96ZM153.58 121.624C152.78 124.04 151.436 126.44 149.996 128.008C150.22 128.28 150.556 128.872 150.668 129.144C152.252 127.336 153.724 124.632 154.668 121.944L153.58 121.624ZM152.204 125.8V136.328H153.308V124.712L153.292 124.696L152.204 125.8Z" fill="black"/>
<path d="M168.62 122.696V123.848H178.972V122.696H168.62ZM168.62 126.424V127.56H178.956V126.424H168.62ZM168.54 130.248V131.384H178.988V130.248H168.54ZM167.948 122.696V128.488C167.948 130.744 167.772 133.592 166.012 135.576C166.268 135.736 166.748 136.136 166.94 136.376C168.844 134.248 169.132 130.936 169.132 128.504V122.696H167.948ZM178.492 122.696V134.648C178.492 134.952 178.38 135.048 178.076 135.064C177.772 135.064 176.684 135.08 175.548 135.032C175.724 135.352 175.916 135.88 175.964 136.2C177.484 136.216 178.412 136.2 178.956 136.008C179.484 135.8 179.676 135.432 179.676 134.648V122.696H178.492ZM172.972 123.128V136.136H174.188V123.128H172.972Z" fill="black"/>
<path d="M182.332 127.464V128.648H196.684V127.464H182.332ZM189.26 123.832V125H195.052V123.832H189.26ZM188.508 121.56V128.024H189.772V121.56H188.508ZM188.556 128.264V136.28H189.804V128.264H188.556ZM190.028 131.288C191.74 131.976 194.108 133.032 195.292 133.672L195.948 132.6C194.716 131.992 192.332 131.016 190.652 130.376L190.028 131.288Z" fill="black"/>
<path d="M204.604 131.144H205.916C205.5 128.744 209.324 128.248 209.324 125.832C209.324 123.992 207.868 122.824 205.612 122.824C203.884 122.824 202.636 123.576 201.58 124.696L202.428 125.48C203.356 124.52 204.364 124.04 205.468 124.04C207.1 124.04 207.884 124.84 207.884 125.944C207.884 127.768 204.124 128.472 204.604 131.144ZM205.292 135.08C205.852 135.08 206.316 134.68 206.316 134.04C206.316 133.4 205.852 132.968 205.292 132.968C204.732 132.968 204.268 133.4 204.268 134.04C204.268 134.68 204.716 135.08 205.292 135.08Z" fill="black"/>
<rect width="139.47" height="50" transform="translate(270.033 170)" fill="#003A9F"/>
<path d="M332.208 195.408V196.336H338.464V195.408H332.208ZM332.208 198.032V198.976H338.464V198.032H332.208ZM332.224 200.672V201.696H339.136V200.672H332.224ZM330.32 189.312V192.048H331.36V190.352H337.696V192.016H338.8V189.312H330.32ZM335.024 193.504V201.216H336.128V193.504H335.024ZM332.64 192.736H332.544L331.504 193.824V202.384H332.64V193.776H338.656V192.736H332.64ZM334.288 187.648C333.44 190.624 331.872 193.104 329.648 194.64C329.888 194.88 330.256 195.376 330.384 195.632C332.736 193.904 334.432 191.184 335.424 187.872L334.288 187.648ZM334.544 191.28C334.88 191.936 335.296 192.848 335.472 193.424L336.512 192.96C336.336 192.4 335.92 191.536 335.536 190.88L334.544 191.28ZM324.704 188.784V189.904H329.952V188.784H324.704ZM326.24 193.472V194.528H328.656V199.232H326.24V200.288H329.712V193.472H326.24ZM326.704 189.184C326.304 192.112 325.584 194.896 324.304 196.656C324.528 196.912 324.88 197.472 325.008 197.728C326.48 195.712 327.344 192.64 327.856 189.36L326.704 189.184ZM325.84 193.472V201.6H326.88V193.472H325.84Z" fill="white"/>
<path d="M343.248 192.608V193.76H352.576V192.608H343.248ZM347.856 196.384V197.52H353.248V196.384H347.856ZM347.216 193.152V201.088L348.464 201.248V193.152H347.216ZM343.456 195.056C343.104 197.968 342.24 200.256 340.448 201.632C340.736 201.824 341.232 202.224 341.424 202.432C343.232 200.848 344.224 198.416 344.672 195.184L343.456 195.056ZM344.208 197.104L343.232 197.488C344.608 201.392 347.216 202.128 351.024 202.128H354.768C354.832 201.776 355.04 201.216 355.232 200.912C354.448 200.944 351.68 200.944 351.088 200.944C347.84 200.928 345.344 200.368 344.208 197.104ZM341.184 189.472V192.976H342.368V190.624H353.328V192.976H354.56V189.472H341.184ZM346.672 187.904C347.056 188.544 347.424 189.392 347.568 189.92L348.816 189.536C348.656 188.992 348.24 188.176 347.856 187.568L346.672 187.904Z" fill="white"/>
<path d="M176.98 189.816V190.984H182.884V189.816H176.98ZM169.556 188.616V189.736H177.38V188.616H169.556ZM171.428 191.864V192.968H175.588V191.864H171.428ZM171.428 195.192V196.28H175.588V195.192H171.428ZM182.532 189.816V190.104C181.844 195.72 179.46 199.48 176.292 201.128C176.564 201.352 176.9 201.8 177.092 202.104C180.516 200.12 182.964 196.36 183.732 189.992L182.964 189.784L182.74 189.816H182.532ZM178.436 191.048L177.284 191.272C178.276 196.296 180.116 200.2 183.588 202.168C183.78 201.848 184.164 201.4 184.436 201.16C181.14 199.464 179.284 195.672 178.436 191.048ZM170.804 189.048V199.432H171.956V189.048H170.804ZM175.092 189.048V202.296H176.244V189.048H175.092ZM169.236 199.08L169.46 200.28C171.124 200.024 173.428 199.656 175.62 199.304L175.556 198.2C173.22 198.552 170.804 198.888 169.236 199.08Z" fill="#003A9F"/>
<path d="M191.396 192.184V193.288H198.404V192.184H191.396ZM190.836 192.184V196.616C190.836 198.216 190.756 200.232 189.94 201.704C190.196 201.832 190.676 202.2 190.852 202.392C191.812 200.792 191.956 198.408 191.956 196.616V192.184H190.836ZM192.164 198.104L192.58 199.144C194.212 198.76 196.372 198.216 198.42 197.688L198.308 196.744C196.068 197.256 193.716 197.8 192.164 198.104ZM192.452 195.112C193.876 195.432 195.684 196.056 196.612 196.552L197.092 195.688C196.148 195.192 194.34 194.616 192.932 194.344L192.452 195.112ZM198.596 188.056C198.212 189 197.476 190.296 196.916 191.112L197.924 191.544C198.5 190.744 199.188 189.576 199.764 188.52L198.596 188.056ZM190.42 188.6C191.092 189.544 191.78 190.792 192.036 191.624L193.108 191.096C192.836 190.28 192.116 189.048 191.428 188.152L190.42 188.6ZM198.004 192.184V200.824C198.004 201.048 197.924 201.112 197.684 201.128C197.428 201.144 196.58 201.144 195.668 201.096C195.828 201.432 196.004 201.928 196.052 202.248C197.268 202.248 198.068 202.248 198.564 202.056C199.028 201.864 199.172 201.496 199.172 200.84V192.184H198.004ZM194.452 187.608V192.888H195.652V187.608H194.452ZM186.244 188.664C187.22 189.24 188.516 190.056 189.156 190.568L189.892 189.592C189.22 189.128 187.892 188.36 186.948 187.832L186.244 188.664ZM185.38 193.08C186.356 193.592 187.684 194.36 188.34 194.808L189.012 193.832C188.324 193.368 186.98 192.664 186.036 192.2L185.38 193.08ZM185.924 201.304L186.932 202.12C187.876 200.632 188.996 198.632 189.844 196.936L188.964 196.152C188.036 197.976 186.772 200.088 185.924 201.304Z" fill="#003A9F"/>
<rect x="114.5" y="170.5" width="140" height="49" stroke="#003A9F"/>
<path fill-rule="evenodd" clip-rule="evenodd" d="M93.7964 117L91.7381 117L91.7381 116L93.7964 116L93.7964 117ZM90.6217 117L87.5052 117L87.5052 116L90.6217 116L90.6217 117ZM86.3887 117L83.2722 117L83.2722 116L86.3887 116L86.3887 117ZM82.1557 117L79.0392 117L79.0392 116L82.1557 116L82.1557 117ZM77.9227 117L75.8645 117L75.8645 116L77.9227 116L77.9227 117Z" fill="#939EA7"/>
<path d="M387.116 43.024C386.304 44.046 384.988 45.026 383.714 45.656C383.938 45.852 384.302 46.258 384.456 46.468C385.744 45.726 387.172 44.564 388.11 43.346L387.116 43.024ZM390.686 43.626C391.988 44.438 393.556 45.628 394.312 46.44L395.068 45.726C394.284 44.942 392.674 43.78 391.386 43.024L390.686 43.626ZM385.562 48.288V52.992H386.57V49.226H392.352V52.936H393.416V48.288H385.562ZM386.108 51.578V52.516H392.87V51.578H386.108ZM383.63 41.4V43.948H384.666V42.352H394.256V43.948H395.32V41.4H383.63ZM388.544 40.252C388.852 40.798 389.188 41.512 389.314 41.96L390.434 41.68C390.294 41.218 389.944 40.518 389.608 40L388.544 40.252ZM389.412 44.242C388.068 46.314 385.59 48.078 383 49.044C383.238 49.254 383.518 49.618 383.672 49.884C386.36 48.778 388.852 46.916 390.322 44.648L389.412 44.242ZM389.818 44.732L388.964 45.124C390.742 47.322 392.786 48.61 395.222 49.716C395.376 49.408 395.656 49.044 395.908 48.834C393.514 47.882 391.442 46.706 389.818 44.732Z" fill="black"/>
<path d="M399.17 41.596H401.676V43.724H399.17V41.596ZM398.232 40.728V44.592H402.642V40.728H398.232ZM405.162 41.596H407.766V43.724H405.162V41.596ZM404.224 40.728V44.592H408.746V40.728H404.224ZM397.196 45.922V46.832H409.768V45.922H397.196ZM398.988 51.648V52.516H402.39V51.648H398.988ZM404.56 51.648V52.516H408.088V51.648H404.56ZM398.512 48.61V52.964H399.45V49.464H401.844V52.894H402.81V48.61H398.512ZM404.112 48.61V52.964H405.036V49.464H407.542V52.894H408.522V48.61H404.112ZM402.558 44.34C401.788 46.048 399.912 47.91 396.874 49.016C397.084 49.184 397.35 49.548 397.462 49.786C400.64 48.54 402.6 46.566 403.594 44.536L402.558 44.34ZM405.092 45.068C405.792 45.334 406.66 45.796 407.094 46.146L407.64 45.558C407.192 45.208 406.31 44.774 405.61 44.536L405.092 45.068ZM404.294 46.65C406.212 47.518 408.074 48.694 409.152 49.688L409.88 49.058C408.76 48.05 406.786 46.888 404.854 46.034L404.294 46.65Z" fill="black"/>
<path d="M320.55 284.44V285.406H329.048V284.44H320.55ZM326.542 283.278C326.164 287.87 324.582 289.802 320.242 290.67C320.424 290.922 320.69 291.398 320.76 291.636C325.366 290.544 327.144 288.402 327.676 283.32L326.542 283.278ZM321.418 287.576C323.742 288.696 326.724 290.418 328.166 291.58L328.866 290.74C327.354 289.578 324.344 287.926 322.062 286.862L321.418 287.576ZM323.882 278.896C324.12 279.582 324.414 280.478 324.526 281.066L325.59 280.842C325.478 280.268 325.184 279.372 324.904 278.7L323.882 278.896ZM321.418 287.576L322.496 287.772C323.266 286.386 324.302 284.076 324.862 282.186L323.784 282.032C323.28 283.838 322.244 286.162 321.418 287.576ZM320.942 280.548V283.278H321.936V281.472H327.788V283.25H328.81V280.548H320.942ZM316 286.624L316.252 287.646C317.554 287.254 319.248 286.708 320.858 286.19L320.704 285.238C318.982 285.77 317.204 286.302 316 286.624ZM316.154 281.57V282.55H320.578V281.57H316.154ZM318.044 278.756V290.418C318.044 290.614 317.96 290.684 317.792 290.684C317.61 290.684 317.022 290.684 316.392 290.67C316.518 290.95 316.672 291.37 316.7 291.622C317.638 291.636 318.198 291.608 318.562 291.44C318.926 291.286 319.066 290.992 319.066 290.418V278.756H318.044Z" fill="black"/>
<path d="M336.328 279.568V280.576H341.508V279.568H336.328ZM335.894 284.706V285.7H343.02V284.706H335.894ZM335.292 290.208V291.216H343.02V290.208H335.292ZM338.036 279.89C337.84 283.236 337.392 288.024 337.014 290.684H338.008C338.358 288.094 338.792 283.348 339.03 279.96L338.036 279.89ZM340.934 279.568C340.906 283.04 340.696 287.94 340.444 290.698H341.48C341.676 287.996 341.858 283.11 341.928 279.568H340.934ZM331.148 282.312V283.222H334.844V282.312H331.148ZM330.378 284.762V285.672H335.278V284.762H330.378ZM330.644 286.596C330.882 287.436 331.106 288.5 331.162 289.214L331.89 289.004C331.806 288.304 331.582 287.24 331.33 286.414L330.644 286.596ZM330.224 290.208L330.448 291.146C331.778 290.852 333.598 290.418 335.32 290.012L335.264 289.158C333.388 289.564 331.456 289.97 330.224 290.208ZM334.368 286.246C334.228 287.016 333.962 288.136 333.738 288.822L334.354 289.046C334.592 288.388 334.886 287.366 335.138 286.498L334.368 286.246ZM332.464 282.718V290.334L333.346 290.194V282.718H332.464ZM332.87 278.672C332.226 280.044 331.106 281.346 330.014 282.158C330.154 282.424 330.392 282.984 330.462 283.222C331.666 282.214 332.926 280.632 333.696 279.036L332.87 278.672ZM332.534 280.114C333.514 280.772 334.606 281.696 335.25 282.368L335.754 281.528C335.096 280.87 334.004 280.002 332.968 279.358L332.534 280.114Z" fill="black"/>
<path fill-rule="evenodd" clip-rule="evenodd" d="M395.986 97.1724L395.986 56.3275L396.486 56.3275L396.486 97.1724L395.986 97.1724Z" fill="#D60C18"/>
<path fill-rule="evenodd" clip-rule="evenodd" d="M329.167 274.845L329.167 234L329.667 234L329.667 274.845L329.167 274.845Z" fill="#D60C18"/>
<path d="M152.632 43.052C151.036 47.826 147.984 50.528 143 51.97C143.21 52.208 143.532 52.698 143.658 52.95C148.74 51.326 151.932 48.456 153.724 43.36L152.632 43.052ZM146.276 43.108L145.296 43.416C147.074 48.148 150.28 51.508 155.306 52.894C155.474 52.6 155.782 52.152 156.034 51.914C151.134 50.696 147.858 47.448 146.276 43.108ZM143.196 42.576V43.598H155.852V42.576H143.196ZM148.418 40.336C148.838 41.036 149.272 41.96 149.454 42.534L150.602 42.17C150.406 41.582 149.93 40.672 149.51 40.014L148.418 40.336Z" fill="black"/>
<path d="M159.758 44.158V45.138H166.478V44.158H159.758ZM157.448 47.672V48.666H169.502V47.672H157.448ZM162.936 46.79V51.676C162.936 51.872 162.852 51.928 162.6 51.942C162.348 51.956 161.452 51.956 160.5 51.928C160.682 52.208 160.892 52.67 160.962 52.964C162.138 52.964 162.88 52.964 163.37 52.796C163.874 52.628 164.042 52.32 164.042 51.69V46.79H162.936ZM166.156 44.158V44.368C165.47 45.166 164.126 46.216 162.936 46.79C163.104 46.93 163.384 47.224 163.524 47.406C164.91 46.762 166.394 45.67 167.402 44.648L166.688 44.102L166.436 44.158H166.156ZM157.616 41.568V44.452H158.652V42.576H168.284V44.452H169.362V41.568H157.616ZM162.418 40.336C162.824 40.868 163.202 41.61 163.356 42.1L164.434 41.722C164.266 41.232 163.86 40.518 163.44 40L162.418 40.336Z" fill="black"/>
<path fill-rule="evenodd" clip-rule="evenodd" d="M155.324 97.1724L155.324 56.3275L155.824 56.3275L155.824 97.1724L155.324 97.1724Z" fill="#D60C18"/>
</svg>
