<svg width="790" height="157" viewBox="0 0 790 157" fill="none" xmlns="http://www.w3.org/2000/svg">
<path d="M0 0H790V157H0V0Z" fill="#fafafa"/>
<rect width="70" height="36" transform="translate(601 64)" fill="#003A9F"/>
<path d="M626.97 81.938V82.904H635.468V81.938H626.97ZM632.962 80.776C632.584 85.368 631.002 87.3 626.662 88.168C626.844 88.42 627.11 88.896 627.18 89.134C631.786 88.042 633.564 85.9 634.096 80.818L632.962 80.776ZM627.838 85.074C630.162 86.194 633.144 87.916 634.586 89.078L635.286 88.238C633.774 87.076 630.764 85.424 628.482 84.36L627.838 85.074ZM630.302 76.394C630.54 77.08 630.834 77.976 630.946 78.564L632.01 78.34C631.898 77.766 631.604 76.87 631.324 76.198L630.302 76.394ZM627.838 85.074L628.916 85.27C629.686 83.884 630.722 81.574 631.282 79.684L630.204 79.53C629.7 81.336 628.664 83.66 627.838 85.074ZM627.362 78.046V80.776H628.356V78.97H634.208V80.748H635.23V78.046H627.362ZM622.42 84.122L622.672 85.144C623.974 84.752 625.668 84.206 627.278 83.688L627.124 82.736C625.402 83.268 623.624 83.8 622.42 84.122ZM622.574 79.068V80.048H626.998V79.068H622.574ZM624.464 76.254V87.916C624.464 88.112 624.38 88.182 624.212 88.182C624.03 88.182 623.442 88.182 622.812 88.168C622.938 88.448 623.092 88.868 623.12 89.12C624.058 89.134 624.618 89.106 624.982 88.938C625.346 88.784 625.486 88.49 625.486 87.916V76.254H624.464ZM642.748 77.066V78.074H647.928V77.066H642.748ZM642.314 82.204V83.198H649.44V82.204H642.314ZM641.712 87.706V88.714H649.44V87.706H641.712ZM644.456 77.388C644.26 80.734 643.812 85.522 643.434 88.182H644.428C644.778 85.592 645.212 80.846 645.45 77.458L644.456 77.388ZM647.354 77.066C647.326 80.538 647.116 85.438 646.864 88.196H647.9C648.096 85.494 648.278 80.608 648.348 77.066H647.354ZM637.568 79.81V80.72H641.264V79.81H637.568ZM636.798 82.26V83.17H641.698V82.26H636.798ZM637.064 84.094C637.302 84.934 637.526 85.998 637.582 86.712L638.31 86.502C638.226 85.802 638.002 84.738 637.75 83.912L637.064 84.094ZM636.644 87.706L636.868 88.644C638.198 88.35 640.018 87.916 641.74 87.51L641.684 86.656C639.808 87.062 637.876 87.468 636.644 87.706ZM640.788 83.744C640.648 84.514 640.382 85.634 640.158 86.32L640.774 86.544C641.012 85.886 641.306 84.864 641.558 83.996L640.788 83.744ZM638.884 80.216V87.832L639.766 87.692V80.216H638.884ZM639.29 76.17C638.646 77.542 637.526 78.844 636.434 79.656C636.574 79.922 636.812 80.482 636.882 80.72C638.086 79.712 639.346 78.13 640.116 76.534L639.29 76.17ZM638.954 77.612C639.934 78.27 641.026 79.194 641.67 79.866L642.174 79.026C641.516 78.368 640.424 77.5 639.388 76.856L638.954 77.612Z" fill="white"/>
<rect width="140" height="50" transform="translate(367 50)" fill="#003A9F"/>
<path d="M394.68 75.072V76.176H404.392V75.072H394.68ZM401.528 73.744C401.096 78.992 399.288 81.2 394.328 82.192C394.536 82.48 394.84 83.024 394.92 83.296C400.184 82.048 402.216 79.6 402.824 73.792L401.528 73.744ZM395.672 78.656C398.328 79.936 401.736 81.904 403.384 83.232L404.184 82.272C402.456 80.944 399.016 79.056 396.408 77.84L395.672 78.656ZM398.488 68.736C398.76 69.52 399.096 70.544 399.224 71.216L400.44 70.96C400.312 70.304 399.976 69.28 399.656 68.512L398.488 68.736ZM395.672 78.656L396.904 78.88C397.784 77.296 398.968 74.656 399.608 72.496L398.376 72.32C397.8 74.384 396.616 77.04 395.672 78.656ZM395.128 70.624V73.744H396.264V71.68H402.952V73.712H404.12V70.624H395.128ZM389.48 77.568L389.768 78.736C391.256 78.288 393.192 77.664 395.032 77.072L394.856 75.984C392.888 76.592 390.856 77.2 389.48 77.568ZM389.656 71.792V72.912H394.712V71.792H389.656ZM391.816 68.576V81.904C391.816 82.128 391.72 82.208 391.528 82.208C391.32 82.208 390.648 82.208 389.928 82.192C390.072 82.512 390.248 82.992 390.28 83.28C391.352 83.296 391.992 83.264 392.408 83.072C392.824 82.896 392.984 82.56 392.984 81.904V68.576H391.816ZM412.712 69.504V70.656H418.632V69.504H412.712ZM412.216 75.376V76.512H420.36V75.376H412.216ZM411.528 81.664V82.816H420.36V81.664H411.528ZM414.664 69.872C414.44 73.696 413.928 79.168 413.496 82.208H414.632C415.032 79.248 415.528 73.824 415.8 69.952L414.664 69.872ZM417.976 69.504C417.944 73.472 417.704 79.072 417.416 82.224H418.6C418.824 79.136 419.032 73.552 419.112 69.504H417.976ZM406.792 72.64V73.68H411.016V72.64H406.792ZM405.912 75.44V76.48H411.512V75.44H405.912ZM406.216 77.536C406.488 78.496 406.744 79.712 406.808 80.528L407.64 80.288C407.544 79.488 407.288 78.272 407 77.328L406.216 77.536ZM405.736 81.664L405.992 82.736C407.512 82.4 409.592 81.904 411.56 81.44L411.496 80.464C409.352 80.928 407.144 81.392 405.736 81.664ZM410.472 77.136C410.312 78.016 410.008 79.296 409.752 80.08L410.456 80.336C410.728 79.584 411.064 78.416 411.352 77.424L410.472 77.136ZM408.296 73.104V81.808L409.304 81.648V73.104H408.296ZM408.76 68.48C408.024 70.048 406.744 71.536 405.496 72.464C405.656 72.768 405.928 73.408 406.008 73.68C407.384 72.528 408.824 70.72 409.704 68.896L408.76 68.48ZM408.376 70.128C409.496 70.88 410.744 71.936 411.48 72.704L412.056 71.744C411.304 70.992 410.056 70 408.872 69.264L408.376 70.128ZM426.68 75.072V76.176H436.392V75.072H426.68ZM433.528 73.744C433.096 78.992 431.288 81.2 426.328 82.192C426.536 82.48 426.84 83.024 426.92 83.296C432.184 82.048 434.216 79.6 434.824 73.792L433.528 73.744ZM427.672 78.656C430.328 79.936 433.736 81.904 435.384 83.232L436.184 82.272C434.456 80.944 431.016 79.056 428.408 77.84L427.672 78.656ZM430.488 68.736C430.76 69.52 431.096 70.544 431.224 71.216L432.44 70.96C432.312 70.304 431.976 69.28 431.656 68.512L430.488 68.736ZM427.672 78.656L428.904 78.88C429.784 77.296 430.968 74.656 431.608 72.496L430.376 72.32C429.8 74.384 428.616 77.04 427.672 78.656ZM427.128 70.624V73.744H428.264V71.68H434.952V73.712H436.12V70.624H427.128ZM421.48 77.568L421.768 78.736C423.256 78.288 425.192 77.664 427.032 77.072L426.856 75.984C424.888 76.592 422.856 77.2 421.48 77.568ZM421.656 71.792V72.912H426.712V71.792H421.656ZM423.816 68.576V81.904C423.816 82.128 423.72 82.208 423.528 82.208C423.32 82.208 422.648 82.208 421.928 82.192C422.072 82.512 422.248 82.992 422.28 83.28C423.352 83.296 423.992 83.264 424.408 83.072C424.824 82.896 424.984 82.56 424.984 81.904V68.576H423.816ZM444.712 69.504V70.656H450.632V69.504H444.712ZM444.216 75.376V76.512H452.36V75.376H444.216ZM443.528 81.664V82.816H452.36V81.664H443.528ZM446.664 69.872C446.44 73.696 445.928 79.168 445.496 82.208H446.632C447.032 79.248 447.528 73.824 447.8 69.952L446.664 69.872ZM449.976 69.504C449.944 73.472 449.704 79.072 449.416 82.224H450.6C450.824 79.136 451.032 73.552 451.112 69.504H449.976ZM438.792 72.64V73.68H443.016V72.64H438.792ZM437.912 75.44V76.48H443.512V75.44H437.912ZM438.216 77.536C438.488 78.496 438.744 79.712 438.808 80.528L439.64 80.288C439.544 79.488 439.288 78.272 439 77.328L438.216 77.536ZM437.736 81.664L437.992 82.736C439.512 82.4 441.592 81.904 443.56 81.44L443.496 80.464C441.352 80.928 439.144 81.392 437.736 81.664ZM442.472 77.136C442.312 78.016 442.008 79.296 441.752 80.08L442.456 80.336C442.728 79.584 443.064 78.416 443.352 77.424L442.472 77.136ZM440.296 73.104V81.808L441.304 81.648V73.104H440.296ZM440.76 68.48C440.024 70.048 438.744 71.536 437.496 72.464C437.656 72.768 437.928 73.408 438.008 73.68C439.384 72.528 440.824 70.72 441.704 68.896L440.76 68.48ZM440.376 70.128C441.496 70.88 442.744 71.936 443.48 72.704L444.056 71.744C443.304 70.992 442.056 70 440.872 69.264L440.376 70.128ZM458.68 75.072V76.176H468.392V75.072H458.68ZM465.528 73.744C465.096 78.992 463.288 81.2 458.328 82.192C458.536 82.48 458.84 83.024 458.92 83.296C464.184 82.048 466.216 79.6 466.824 73.792L465.528 73.744ZM459.672 78.656C462.328 79.936 465.736 81.904 467.384 83.232L468.184 82.272C466.456 80.944 463.016 79.056 460.408 77.84L459.672 78.656ZM462.488 68.736C462.76 69.52 463.096 70.544 463.224 71.216L464.44 70.96C464.312 70.304 463.976 69.28 463.656 68.512L462.488 68.736ZM459.672 78.656L460.904 78.88C461.784 77.296 462.968 74.656 463.608 72.496L462.376 72.32C461.8 74.384 460.616 77.04 459.672 78.656ZM459.128 70.624V73.744H460.264V71.68H466.952V73.712H468.12V70.624H459.128ZM453.48 77.568L453.768 78.736C455.256 78.288 457.192 77.664 459.032 77.072L458.856 75.984C456.888 76.592 454.856 77.2 453.48 77.568ZM453.656 71.792V72.912H458.712V71.792H453.656ZM455.816 68.576V81.904C455.816 82.128 455.72 82.208 455.528 82.208C455.32 82.208 454.648 82.208 453.928 82.192C454.072 82.512 454.248 82.992 454.28 83.28C455.352 83.296 455.992 83.264 456.408 83.072C456.824 82.896 456.984 82.56 456.984 81.904V68.576H455.816ZM476.712 69.504V70.656H482.632V69.504H476.712ZM476.216 75.376V76.512H484.36V75.376H476.216ZM475.528 81.664V82.816H484.36V81.664H475.528ZM478.664 69.872C478.44 73.696 477.928 79.168 477.496 82.208H478.632C479.032 79.248 479.528 73.824 479.8 69.952L478.664 69.872ZM481.976 69.504C481.944 73.472 481.704 79.072 481.416 82.224H482.6C482.824 79.136 483.032 73.552 483.112 69.504H481.976ZM470.792 72.64V73.68H475.016V72.64H470.792ZM469.912 75.44V76.48H475.512V75.44H469.912ZM470.216 77.536C470.488 78.496 470.744 79.712 470.808 80.528L471.64 80.288C471.544 79.488 471.288 78.272 471 77.328L470.216 77.536ZM469.736 81.664L469.992 82.736C471.512 82.4 473.592 81.904 475.56 81.44L475.496 80.464C473.352 80.928 471.144 81.392 469.736 81.664ZM474.472 77.136C474.312 78.016 474.008 79.296 473.752 80.08L474.456 80.336C474.728 79.584 475.064 78.416 475.352 77.424L474.472 77.136ZM472.296 73.104V81.808L473.304 81.648V73.104H472.296ZM472.76 68.48C472.024 70.048 470.744 71.536 469.496 72.464C469.656 72.768 469.928 73.408 470.008 73.68C471.384 72.528 472.824 70.72 473.704 68.896L472.76 68.48ZM472.376 70.128C473.496 70.88 474.744 71.936 475.48 72.704L476.056 71.744C475.304 70.992 474.056 70 472.872 69.264L472.376 70.128Z" fill="white"/>
<rect width="180" height="60" transform="translate(95 40)" fill="#003A9F"/>
<path d="M173.39 70.206V71.448H184.316V70.206H173.39ZM181.094 68.712C180.608 74.616 178.574 77.1 172.994 78.216C173.228 78.54 173.57 79.152 173.66 79.458C179.582 78.054 181.868 75.3 182.552 68.766L181.094 68.712ZM174.506 74.238C177.494 75.678 181.328 77.892 183.182 79.386L184.082 78.306C182.138 76.812 178.268 74.688 175.334 73.32L174.506 74.238ZM177.674 63.078C177.98 63.96 178.358 65.112 178.502 65.868L179.87 65.58C179.726 64.842 179.348 63.69 178.988 62.826L177.674 63.078ZM174.506 74.238L175.892 74.49C176.882 72.708 178.214 69.738 178.934 67.308L177.548 67.11C176.9 69.432 175.568 72.42 174.506 74.238ZM173.894 65.202V68.712H175.172V66.39H182.696V68.676H184.01V65.202H173.894ZM167.54 73.014L167.864 74.328C169.538 73.824 171.716 73.122 173.786 72.456L173.588 71.232C171.374 71.916 169.088 72.6 167.54 73.014ZM167.738 66.516V67.776H173.426V66.516H167.738ZM170.168 62.898V77.892C170.168 78.144 170.06 78.234 169.844 78.234C169.61 78.234 168.854 78.234 168.044 78.216C168.206 78.576 168.404 79.116 168.44 79.44C169.646 79.458 170.366 79.422 170.834 79.206C171.302 79.008 171.482 78.63 171.482 77.892V62.898H170.168ZM193.676 63.942V65.238H200.336V63.942H193.676ZM193.118 70.548V71.826H202.28V70.548H193.118ZM192.344 77.622V78.918H202.28V77.622H192.344ZM195.872 64.356C195.62 68.658 195.044 74.814 194.558 78.234H195.836C196.286 74.904 196.844 68.802 197.15 64.446L195.872 64.356ZM199.598 63.942C199.562 68.406 199.292 74.706 198.968 78.252H200.3C200.552 74.778 200.786 68.496 200.876 63.942H199.598ZM187.016 67.47V68.64H191.768V67.47H187.016ZM186.026 70.62V71.79H192.326V70.62H186.026ZM186.368 72.978C186.674 74.058 186.962 75.426 187.034 76.344L187.97 76.074C187.862 75.174 187.574 73.806 187.25 72.744L186.368 72.978ZM185.828 77.622L186.116 78.828C187.826 78.45 190.166 77.892 192.38 77.37L192.308 76.272C189.896 76.794 187.412 77.316 185.828 77.622ZM191.156 72.528C190.976 73.518 190.634 74.958 190.346 75.84L191.138 76.128C191.444 75.282 191.822 73.968 192.146 72.852L191.156 72.528ZM188.708 67.992V77.784L189.842 77.604V67.992H188.708ZM189.23 62.79C188.402 64.554 186.962 66.228 185.558 67.272C185.738 67.614 186.044 68.334 186.134 68.64C187.682 67.344 189.302 65.31 190.292 63.258L189.23 62.79ZM188.798 64.644C190.058 65.49 191.462 66.678 192.29 67.542L192.938 66.462C192.092 65.616 190.688 64.5 189.356 63.672L188.798 64.644Z" fill="white"/>
<path d="M80.612 74.168C81.968 74.168 83.132 73.016 83.132 71.312C83.132 69.464 82.172 68.552 80.684 68.552C79.976 68.552 79.16 68.984 78.62 69.692L78.656 70.568C79.244 69.692 79.952 69.356 80.516 69.356C81.572 69.356 82.1 70.112 82.1 71.312C82.1 72.5 81.452 73.304 80.612 73.304C79.376 73.304 78.692 72.068 78.692 69.812C78.692 66.932 79.724 65.96 80.96 65.96C81.488 65.96 82.028 66.212 82.364 66.62L82.976 65.948C82.496 65.432 81.824 65.048 80.912 65.048C79.208 65.048 77.66 66.368 77.66 69.812C77.66 72.716 78.92 74.168 80.612 74.168Z" fill="#D60C18"/>
<path d="M86.9923 74.168C88.6483 74.168 89.7163 72.644 89.7163 69.572C89.7163 66.524 88.6483 65.048 86.9923 65.048C85.3123 65.048 84.2443 66.524 84.2443 69.572C84.2443 72.644 85.3123 74.168 86.9923 74.168ZM86.9923 73.28C85.9843 73.28 85.3003 72.164 85.3003 69.572C85.3003 67.016 85.9843 65.924 86.9923 65.924C87.9883 65.924 88.6603 67.016 88.6603 69.572C88.6603 72.164 87.9883 73.28 86.9923 73.28Z" fill="#D60C18"/>
<path fill-rule="evenodd" clip-rule="evenodd" d="M77 40L79.0625 40L79.0625 41L77 41L77 40ZM80.1875 40L83.3125 40L83.3125 41L80.1875 41L80.1875 40ZM84.4375 40L87.5625 40L87.5625 41L84.4375 41L84.4375 40ZM88.6875 40L91.8125 40L91.8125 41L88.6875 41L88.6875 40ZM92.9375 40L95 40L95 41L92.9375 41L92.9375 40Z" fill="#939EA7"/>
<path fill-rule="evenodd" clip-rule="evenodd" d="M77 99L79.0625 99L79.0625 100L77 100L77 99ZM80.1875 99L83.3125 99L83.3125 100L80.1875 100L80.1875 99ZM84.4375 99L87.5625 99L87.5625 100L84.4375 100L84.4375 99ZM88.6875 99L91.8125 99L91.8125 100L88.6875 100L88.6875 99ZM92.9375 99L95 99L95 100L92.9375 100L92.9375 99Z" fill="#939EA7"/>
<path d="M354.132 80.168C355.608 80.168 357.012 79.064 357.012 77.144C357.012 75.2 355.824 74.336 354.36 74.336C353.832 74.336 353.436 74.468 353.04 74.684L353.268 72.14H356.592V71.204H352.308L352.032 75.32L352.62 75.692C353.124 75.356 353.496 75.164 354.084 75.164C355.176 75.164 355.896 75.92 355.896 77.18C355.896 78.452 355.068 79.256 354.024 79.256C353.016 79.256 352.368 78.788 351.876 78.272L351.324 78.992C351.924 79.592 352.764 80.168 354.132 80.168Z" fill="#D60C18"/>
<path d="M360.992 80.168C362.648 80.168 363.716 78.644 363.716 75.572C363.716 72.524 362.648 71.048 360.992 71.048C359.312 71.048 358.244 72.524 358.244 75.572C358.244 78.644 359.312 80.168 360.992 80.168ZM360.992 79.28C359.984 79.28 359.3 78.164 359.3 75.572C359.3 73.016 359.984 71.924 360.992 71.924C361.988 71.924 362.66 73.016 362.66 75.572C362.66 78.164 361.988 79.28 360.992 79.28Z" fill="#D60C18"/>
<path d="M371.528 45H377.048V44.064H374.612C374.168 44.064 373.64 44.1 373.172 44.148C375.248 42.192 376.628 40.404 376.628 38.64C376.628 37.068 375.644 36.048 374.072 36.048C372.956 36.048 372.188 36.564 371.468 37.344L372.104 37.956C372.596 37.38 373.22 36.936 373.94 36.936C375.032 36.936 375.548 37.68 375.548 38.688C375.548 40.188 374.288 41.952 371.528 44.364V45Z" fill="#D60C18"/>
<path d="M380.992 45.168C382.648 45.168 383.716 43.644 383.716 40.572C383.716 37.524 382.648 36.048 380.992 36.048C379.312 36.048 378.244 37.524 378.244 40.572C378.244 43.644 379.312 45.168 380.992 45.168ZM380.992 44.28C379.984 44.28 379.3 43.164 379.3 40.572C379.3 38.016 379.984 36.924 380.992 36.924C381.988 36.924 382.66 38.016 382.66 40.572C382.66 43.164 381.988 44.28 380.992 44.28Z" fill="#D60C18"/>
<path fill-rule="evenodd" clip-rule="evenodd" d="M349 50L351.062 50L351.062 51L349 51L349 50ZM352.188 50L355.312 50L355.312 51L352.187 51L352.188 50ZM356.438 50L359.562 50L359.562 51L356.437 51L356.438 50ZM360.688 50L363.812 50L363.812 51L360.687 51L360.688 50ZM364.938 50L367 50L367 51L364.937 51L364.938 50Z" fill="#939EA7"/>
<path fill-rule="evenodd" clip-rule="evenodd" d="M349 99L351.062 99L351.062 100L349 100L349 99ZM352.188 99L355.312 99L355.312 100L352.187 100L352.188 99ZM356.438 99L359.562 99L359.562 100L356.437 100L356.438 99ZM360.688 99L363.812 99L363.812 100L360.687 100L360.688 99ZM364.938 99L367 99L367 100L364.937 100L364.938 99Z" fill="#939EA7"/>
<path d="M588.156 87.168C589.728 87.168 590.988 86.22 590.988 84.66C590.988 83.448 590.148 82.668 589.116 82.416V82.368C590.052 82.032 590.676 81.324 590.676 80.256C590.676 78.852 589.596 78.048 588.12 78.048C587.112 78.048 586.332 78.492 585.672 79.092L586.26 79.8C586.752 79.296 587.376 78.936 588.084 78.936C588.996 78.936 589.56 79.488 589.56 80.328C589.56 81.288 588.948 82.008 587.136 82.008V82.86C589.164 82.86 589.872 83.556 589.872 84.612C589.872 85.62 589.128 86.256 588.084 86.256C587.076 86.256 586.416 85.776 585.9 85.236L585.348 85.956C585.924 86.592 586.776 87.168 588.156 87.168Z" fill="#D60C18"/>
<path d="M595.268 87.168C596.624 87.168 597.788 86.016 597.788 84.312C597.788 82.464 596.828 81.552 595.34 81.552C594.632 81.552 593.816 81.984 593.276 82.692L593.312 83.568C593.9 82.692 594.608 82.356 595.172 82.356C596.228 82.356 596.756 83.112 596.756 84.312C596.756 85.5 596.108 86.304 595.268 86.304C594.032 86.304 593.348 85.068 593.348 82.812C593.348 79.932 594.38 78.96 595.616 78.96C596.144 78.96 596.684 79.212 597.02 79.62L597.632 78.948C597.152 78.432 596.48 78.048 595.568 78.048C593.864 78.048 592.316 79.368 592.316 82.812C592.316 85.716 593.576 87.168 595.268 87.168Z" fill="#D60C18"/>
<path fill-rule="evenodd" clip-rule="evenodd" d="M583 64L585.062 64L585.062 65L583 65L583 64ZM586.188 64L589.312 64L589.312 65L586.187 65L586.188 64ZM590.438 64L593.562 64L593.562 65L590.437 65L590.438 64ZM594.688 64L597.812 64L597.812 65L594.687 65L594.688 64ZM598.938 64L601 64L601 65L598.937 65L598.938 64Z" fill="#939EA7"/>
<path fill-rule="evenodd" clip-rule="evenodd" d="M583 99L585.062 99L585.062 100L583 100L583 99ZM586.188 99L589.312 99L589.312 100L586.187 100L586.188 99ZM590.438 99L593.562 99L593.562 100L590.437 100L590.438 99ZM594.688 99L597.812 99L597.812 100L594.687 100L594.688 99ZM598.938 99L601 99L601 100L598.937 100L598.938 99Z" fill="#939EA7"/>
<path d="M146.104 114H147.196V109.272C147.784 108.612 148.336 108.276 148.828 108.276C149.668 108.276 150.052 108.792 150.052 110.016V114H151.144V109.272C151.756 108.612 152.272 108.276 152.776 108.276C153.616 108.276 154 108.792 154 110.016V114H155.092V109.872C155.092 108.216 154.444 107.328 153.112 107.328C152.32 107.328 151.636 107.844 150.952 108.564C150.7 107.796 150.16 107.328 149.164 107.328C148.384 107.328 147.7 107.82 147.136 108.432H147.1L146.992 107.484H146.104V114Z" fill="#D60C18"/>
<path d="M157.213 114H158.305V107.484H157.213V114ZM157.765 106.14C158.185 106.14 158.497 105.864 158.497 105.408C158.497 104.988 158.185 104.712 157.765 104.712C157.333 104.712 157.033 104.988 157.033 105.408C157.033 105.864 157.333 106.14 157.765 106.14Z" fill="#D60C18"/>
<path d="M160.518 114H161.61V109.272C162.258 108.624 162.726 108.276 163.386 108.276C164.25 108.276 164.622 108.792 164.622 110.016V114H165.726V109.872C165.726 108.216 165.102 107.328 163.734 107.328C162.834 107.328 162.162 107.82 161.55 108.432H161.514L161.406 107.484H160.518V114Z" fill="#D60C18"/>
<path d="M167.29 111.072H170.362V110.232H167.29V111.072Z" fill="#D60C18"/>
<path d="M173.034 114H174.306L175.218 110.508C175.398 109.884 175.53 109.284 175.662 108.612H175.722C175.878 109.284 175.998 109.872 176.166 110.496L177.114 114H178.446L180.198 107.484H179.154L178.206 111.264C178.05 111.888 177.93 112.464 177.798 113.076H177.75C177.594 112.464 177.45 111.888 177.294 111.264L176.262 107.484H175.194L174.186 111.264C174.018 111.876 173.886 112.464 173.742 113.076H173.682C173.562 112.464 173.442 111.888 173.31 111.264L172.326 107.484H171.21L173.034 114Z" fill="#D60C18"/>
<path d="M181.624 114H182.716V107.484H181.624V114ZM182.176 106.14C182.596 106.14 182.908 105.864 182.908 105.408C182.908 104.988 182.596 104.712 182.176 104.712C181.744 104.712 181.444 104.988 181.444 105.408C181.444 105.864 181.744 106.14 182.176 106.14Z" fill="#D60C18"/>
<path d="M187.136 114.168C187.928 114.168 188.612 113.748 189.128 113.232H189.152L189.248 114H190.148V104.46H189.056V106.956L189.104 108.084C188.54 107.604 188.036 107.328 187.28 107.328C185.792 107.328 184.448 108.636 184.448 110.76C184.448 112.932 185.504 114.168 187.136 114.168ZM187.376 113.244C186.236 113.244 185.588 112.308 185.588 110.748C185.588 109.26 186.416 108.24 187.46 108.24C188 108.24 188.504 108.432 189.056 108.936V112.356C188.516 112.944 187.988 113.244 187.376 113.244Z" fill="#D60C18"/>
<path d="M194.41 114.168C194.818 114.168 195.25 114.048 195.61 113.916L195.394 113.1C195.19 113.184 194.89 113.28 194.662 113.28C193.906 113.28 193.654 112.812 193.654 112.02V108.372H195.418V107.484H193.654V105.648H192.73L192.61 107.484L191.59 107.556V108.372H192.562V111.996C192.562 113.292 193.018 114.168 194.41 114.168Z" fill="#D60C18"/>
<path d="M196.893 114H197.985V109.272C198.633 108.624 199.101 108.276 199.761 108.276C200.625 108.276 200.997 108.792 200.997 110.016V114H202.101V109.872C202.101 108.216 201.477 107.328 200.109 107.328C199.209 107.328 198.549 107.82 197.949 108.408L197.985 107.064V104.46H196.893V114Z" fill="#D60C18"/>
<path d="M206.818 114H211.642V113.088H209.866V105.456H209.026C208.558 105.732 207.994 105.936 207.202 106.08V106.788H208.774V113.088H206.818V114Z" fill="#D60C18"/>
<path d="M215.766 114.168C217.41 114.168 218.526 113.172 218.526 111.888C218.526 110.736 217.794 110.136 217.038 109.68V109.62C217.554 109.224 218.214 108.468 218.214 107.568C218.214 106.236 217.302 105.3 215.802 105.3C214.422 105.3 213.378 106.164 213.378 107.484C213.378 108.384 213.942 109.02 214.578 109.464V109.512C213.774 109.932 212.958 110.7 212.958 111.828C212.958 113.184 214.146 114.168 215.766 114.168ZM216.366 109.344C215.334 108.936 214.386 108.504 214.386 107.484C214.386 106.656 214.974 106.104 215.778 106.104C216.726 106.104 217.278 106.776 217.278 107.616C217.278 108.252 216.954 108.816 216.366 109.344ZM215.79 113.34C214.734 113.34 213.942 112.656 213.942 111.72C213.942 110.928 214.446 110.304 215.154 109.848C216.39 110.352 217.47 110.736 217.47 111.852C217.47 112.728 216.798 113.34 215.79 113.34Z" fill="#D60C18"/>
<path d="M222.41 114.168C224.102 114.168 225.134 112.572 225.134 109.704C225.134 106.836 224.102 105.3 222.41 105.3C220.694 105.3 219.662 106.836 219.662 109.704C219.662 112.572 220.694 114.168 222.41 114.168ZM222.41 113.28C221.402 113.28 220.718 112.212 220.718 109.704C220.718 107.184 221.402 106.176 222.41 106.176C223.406 106.176 224.078 107.184 224.078 109.704C224.078 112.212 223.406 113.28 222.41 113.28Z" fill="#D60C18"/>
<path fill-rule="evenodd" clip-rule="evenodd" d="M95 118L95 115.938L96 115.938L96 118L95 118ZM95 114.812L95 111.688L96 111.688L96 114.813L95 114.812ZM95 110.562L95 107.438L96 107.438L96 110.563L95 110.562ZM95 106.312L95 103.188L96 103.188L96 106.313L95 106.312ZM95 102.062L95 100L96 100L96 102.063L95 102.062Z" fill="#939EA7"/>
<path fill-rule="evenodd" clip-rule="evenodd" d="M274 118L274 115.938L275 115.938L275 118L274 118ZM274 114.812L274 111.688L275 111.688L275 114.813L274 114.812ZM274 110.562L274 107.438L275 107.438L275 110.563L274 110.562ZM274 106.312L274 103.188L275 103.188L275 106.313L274 106.312ZM274 102.062L274 100L275 100L275 102.063L274 102.062Z" fill="#939EA7"/>
<path d="M399.104 114H400.196V109.272C400.784 108.612 401.336 108.276 401.828 108.276C402.668 108.276 403.052 108.792 403.052 110.016V114H404.144V109.272C404.756 108.612 405.272 108.276 405.776 108.276C406.616 108.276 407 108.792 407 110.016V114H408.092V109.872C408.092 108.216 407.444 107.328 406.112 107.328C405.32 107.328 404.636 107.844 403.952 108.564C403.7 107.796 403.16 107.328 402.164 107.328C401.384 107.328 400.7 107.82 400.136 108.432H400.1L399.992 107.484H399.104V114Z" fill="#D60C18"/>
<path d="M410.213 114H411.305V107.484H410.213V114ZM410.765 106.14C411.185 106.14 411.497 105.864 411.497 105.408C411.497 104.988 411.185 104.712 410.765 104.712C410.333 104.712 410.033 104.988 410.033 105.408C410.033 105.864 410.333 106.14 410.765 106.14Z" fill="#D60C18"/>
<path d="M413.518 114H414.61V109.272C415.258 108.624 415.726 108.276 416.386 108.276C417.25 108.276 417.622 108.792 417.622 110.016V114H418.726V109.872C418.726 108.216 418.102 107.328 416.734 107.328C415.834 107.328 415.162 107.82 414.55 108.432H414.514L414.406 107.484H413.518V114Z" fill="#D60C18"/>
<path d="M420.29 111.072H423.362V110.232H420.29V111.072Z" fill="#D60C18"/>
<path d="M426.034 114H427.306L428.218 110.508C428.398 109.884 428.53 109.284 428.662 108.612H428.722C428.878 109.284 428.998 109.872 429.166 110.496L430.114 114H431.446L433.198 107.484H432.154L431.206 111.264C431.05 111.888 430.93 112.464 430.798 113.076H430.75C430.594 112.464 430.45 111.888 430.294 111.264L429.262 107.484H428.194L427.186 111.264C427.018 111.876 426.886 112.464 426.742 113.076H426.682C426.562 112.464 426.442 111.888 426.31 111.264L425.326 107.484H424.21L426.034 114Z" fill="#D60C18"/>
<path d="M434.624 114H435.716V107.484H434.624V114ZM435.176 106.14C435.596 106.14 435.908 105.864 435.908 105.408C435.908 104.988 435.596 104.712 435.176 104.712C434.744 104.712 434.444 104.988 434.444 105.408C434.444 105.864 434.744 106.14 435.176 106.14Z" fill="#D60C18"/>
<path d="M440.136 114.168C440.928 114.168 441.612 113.748 442.128 113.232H442.152L442.248 114H443.148V104.46H442.056V106.956L442.104 108.084C441.54 107.604 441.036 107.328 440.28 107.328C438.792 107.328 437.448 108.636 437.448 110.76C437.448 112.932 438.504 114.168 440.136 114.168ZM440.376 113.244C439.236 113.244 438.588 112.308 438.588 110.748C438.588 109.26 439.416 108.24 440.46 108.24C441 108.24 441.504 108.432 442.056 108.936V112.356C441.516 112.944 440.988 113.244 440.376 113.244Z" fill="#D60C18"/>
<path d="M447.41 114.168C447.818 114.168 448.25 114.048 448.61 113.916L448.394 113.1C448.19 113.184 447.89 113.28 447.662 113.28C446.906 113.28 446.654 112.812 446.654 112.02V108.372H448.418V107.484H446.654V105.648H445.73L445.61 107.484L444.59 107.556V108.372H445.562V111.996C445.562 113.292 446.018 114.168 447.41 114.168Z" fill="#D60C18"/>
<path d="M449.893 114H450.985V109.272C451.633 108.624 452.101 108.276 452.761 108.276C453.625 108.276 453.997 108.792 453.997 110.016V114H455.101V109.872C455.101 108.216 454.477 107.328 453.109 107.328C452.209 107.328 451.549 107.82 450.949 108.408L450.985 107.064V104.46H449.893V114Z" fill="#D60C18"/>
<path d="M459.818 114H464.642V113.088H462.866V105.456H462.026C461.558 105.732 460.994 105.936 460.202 106.08V106.788H461.774V113.088H459.818V114Z" fill="#D60C18"/>
<path d="M469.486 114H470.518V105.456H469.306L465.646 110.916V111.636H471.694V110.772H466.798L468.802 107.832C469.042 107.412 469.282 107.028 469.498 106.632H469.558C469.522 107.076 469.486 107.82 469.486 108.264V114Z" fill="#D60C18"/>
<path d="M475.41 114.168C477.102 114.168 478.134 112.572 478.134 109.704C478.134 106.836 477.102 105.3 475.41 105.3C473.694 105.3 472.662 106.836 472.662 109.704C472.662 112.572 473.694 114.168 475.41 114.168ZM475.41 113.28C474.402 113.28 473.718 112.212 473.718 109.704C473.718 107.184 474.402 106.176 475.41 106.176C476.406 106.176 477.078 107.184 477.078 109.704C477.078 112.212 476.406 113.28 475.41 113.28Z" fill="#D60C18"/>
<path fill-rule="evenodd" clip-rule="evenodd" d="M367 118L367 115.938L368 115.938L368 118L367 118ZM367 114.812L367 111.688L368 111.688L368 114.813L367 114.812ZM367 110.562L367 107.438L368 107.438L368 110.563L367 110.562ZM367 106.312L367 103.188L368 103.188L368 106.313L367 106.312ZM367 102.062L367 100L368 100L368 102.063L367 102.062Z" fill="#939EA7"/>
<path fill-rule="evenodd" clip-rule="evenodd" d="M367 49L367 46.9375L368 46.9375L368 49L367 49ZM367 45.8125L367 42.6875L368 42.6875L368 45.8125L367 45.8125ZM367 41.5625L367 38.4375L368 38.4375L368 41.5625L367 41.5625ZM367 37.3125L367 34.1875L368 34.1875L368 37.3125L367 37.3125ZM367 33.0625L367 31L368 31L368 33.0625L367 33.0625Z" fill="#939EA7"/>
<path fill-rule="evenodd" clip-rule="evenodd" d="M387 49L387 46.9375L388 46.9375L388 49L387 49ZM387 45.8125L387 42.6875L388 42.6875L388 45.8125L387 45.8125ZM387 41.5625L387 38.4375L388 38.4375L388 41.5625L387 41.5625ZM387 37.3125L387 34.1875L388 34.1875L388 37.3125L387 37.3125ZM387 33.0625L387 31L388 31L388 33.0625L387 33.0625Z" fill="#939EA7"/>
<path fill-rule="evenodd" clip-rule="evenodd" d="M506 118L506 115.938L507 115.938L507 118L506 118ZM506 114.812L506 111.688L507 111.688L507 114.813L506 114.812ZM506 110.562L506 107.438L507 107.438L507 110.563L506 110.562ZM506 106.312L506 103.188L507 103.188L507 106.313L506 106.312ZM506 102.062L506 100L507 100L507 102.063L506 102.062Z" fill="#939EA7"/>
<path d="M609.104 114H610.196V109.272C610.784 108.612 611.336 108.276 611.828 108.276C612.668 108.276 613.052 108.792 613.052 110.016V114H614.144V109.272C614.756 108.612 615.272 108.276 615.776 108.276C616.616 108.276 617 108.792 617 110.016V114H618.092V109.872C618.092 108.216 617.444 107.328 616.112 107.328C615.32 107.328 614.636 107.844 613.952 108.564C613.7 107.796 613.16 107.328 612.164 107.328C611.384 107.328 610.7 107.82 610.136 108.432H610.1L609.992 107.484H609.104V114Z" fill="#D60C18"/>
<path d="M620.213 114H621.305V107.484H620.213V114ZM620.765 106.14C621.185 106.14 621.497 105.864 621.497 105.408C621.497 104.988 621.185 104.712 620.765 104.712C620.333 104.712 620.033 104.988 620.033 105.408C620.033 105.864 620.333 106.14 620.765 106.14Z" fill="#D60C18"/>
<path d="M623.518 114H624.61V109.272C625.258 108.624 625.726 108.276 626.386 108.276C627.25 108.276 627.622 108.792 627.622 110.016V114H628.726V109.872C628.726 108.216 628.102 107.328 626.734 107.328C625.834 107.328 625.162 107.82 624.55 108.432H624.514L624.406 107.484H623.518V114Z" fill="#D60C18"/>
<path d="M630.29 111.072H633.362V110.232H630.29V111.072Z" fill="#D60C18"/>
<path d="M636.034 114H637.306L638.218 110.508C638.398 109.884 638.53 109.284 638.662 108.612H638.722C638.878 109.284 638.998 109.872 639.166 110.496L640.114 114H641.446L643.198 107.484H642.154L641.206 111.264C641.05 111.888 640.93 112.464 640.798 113.076H640.75C640.594 112.464 640.45 111.888 640.294 111.264L639.262 107.484H638.194L637.186 111.264C637.018 111.876 636.886 112.464 636.742 113.076H636.682C636.562 112.464 636.442 111.888 636.31 111.264L635.326 107.484H634.21L636.034 114Z" fill="#D60C18"/>
<path d="M644.624 114H645.716V107.484H644.624V114ZM645.176 106.14C645.596 106.14 645.908 105.864 645.908 105.408C645.908 104.988 645.596 104.712 645.176 104.712C644.744 104.712 644.444 104.988 644.444 105.408C644.444 105.864 644.744 106.14 645.176 106.14Z" fill="#D60C18"/>
<path d="M650.136 114.168C650.928 114.168 651.612 113.748 652.128 113.232H652.152L652.248 114H653.148V104.46H652.056V106.956L652.104 108.084C651.54 107.604 651.036 107.328 650.28 107.328C648.792 107.328 647.448 108.636 647.448 110.76C647.448 112.932 648.504 114.168 650.136 114.168ZM650.376 113.244C649.236 113.244 648.588 112.308 648.588 110.748C648.588 109.26 649.416 108.24 650.46 108.24C651 108.24 651.504 108.432 652.056 108.936V112.356C651.516 112.944 650.988 113.244 650.376 113.244Z" fill="#D60C18"/>
<path d="M657.41 114.168C657.818 114.168 658.25 114.048 658.61 113.916L658.394 113.1C658.19 113.184 657.89 113.28 657.662 113.28C656.906 113.28 656.654 112.812 656.654 112.02V108.372H658.418V107.484H656.654V105.648H655.73L655.61 107.484L654.59 107.556V108.372H655.562V111.996C655.562 113.292 656.018 114.168 657.41 114.168Z" fill="#D60C18"/>
<path d="M659.893 114H660.985V109.272C661.633 108.624 662.101 108.276 662.761 108.276C663.625 108.276 663.997 108.792 663.997 110.016V114H665.101V109.872C665.101 108.216 664.477 107.328 663.109 107.328C662.209 107.328 661.549 107.82 660.949 108.408L660.985 107.064V104.46H659.893V114Z" fill="#D60C18"/>
<path d="M610.364 131H611.504C611.648 127.664 612.068 125.708 614.084 123.128V122.456H608.588V123.392H612.848C611.168 125.732 610.52 127.784 610.364 131Z" fill="#D60C18"/>
<path d="M617.992 131.168C619.684 131.168 620.716 129.572 620.716 126.704C620.716 123.836 619.684 122.3 617.992 122.3C616.276 122.3 615.244 123.836 615.244 126.704C615.244 129.572 616.276 131.168 617.992 131.168ZM617.992 130.28C616.984 130.28 616.3 129.212 616.3 126.704C616.3 124.184 616.984 123.176 617.992 123.176C618.988 123.176 619.66 124.184 619.66 126.704C619.66 129.212 618.988 130.28 617.992 130.28Z" fill="#D60C18"/>
<path fill-rule="evenodd" clip-rule="evenodd" d="M601 118L601 115.938L602 115.938L602 118L601 118ZM601 114.812L601 111.688L602 111.688L602 114.813L601 114.812ZM601 110.562L601 107.438L602 107.438L602 110.563L601 110.562ZM601 106.312L601 103.188L602 103.188L602 106.313L601 106.312ZM601 102.062L601 100L602 100L602 102.063L601 102.062Z" fill="#939EA7"/>
<path fill-rule="evenodd" clip-rule="evenodd" d="M670 118L670 115.938L671 115.938L671 118L670 118ZM670 114.812L670 111.688L671 111.688L671 114.813L670 114.812ZM670 110.562L670 107.438L671 107.438L671 110.563L670 110.562ZM670 106.312L670 103.188L671 103.188L671 106.313L670 106.312ZM670 102.062L670 100L671 100L671 102.063L670 102.062Z" fill="#939EA7"/>
</svg>
