<svg width="400" height="288" viewBox="0 0 400 288" fill="none" xmlns="http://www.w3.org/2000/svg">
<path d="M0 0H400V288H0V0Z" fill="#F7F7F7"/>
<rect width="180" height="60" transform="translate(110 40)" fill="#003A9F"/>
<path d="M188.39 70.206V71.448H199.316V70.206H188.39ZM196.094 68.712C195.608 74.616 193.574 77.1 187.994 78.216C188.228 78.54 188.57 79.152 188.66 79.458C194.582 78.054 196.868 75.3 197.552 68.766L196.094 68.712ZM189.506 74.238C192.494 75.678 196.328 77.892 198.182 79.386L199.082 78.306C197.138 76.812 193.268 74.688 190.334 73.32L189.506 74.238ZM192.674 63.078C192.98 63.96 193.358 65.112 193.502 65.868L194.87 65.58C194.726 64.842 194.348 63.69 193.988 62.826L192.674 63.078ZM189.506 74.238L190.892 74.49C191.882 72.708 193.214 69.738 193.934 67.308L192.548 67.11C191.9 69.432 190.568 72.42 189.506 74.238ZM188.894 65.202V68.712H190.172V66.39H197.696V68.676H199.01V65.202H188.894ZM182.54 73.014L182.864 74.328C184.538 73.824 186.716 73.122 188.786 72.456L188.588 71.232C186.374 71.916 184.088 72.6 182.54 73.014ZM182.738 66.516V67.776H188.426V66.516H182.738ZM185.168 62.898V77.892C185.168 78.144 185.06 78.234 184.844 78.234C184.61 78.234 183.854 78.234 183.044 78.216C183.206 78.576 183.404 79.116 183.44 79.44C184.646 79.458 185.366 79.422 185.834 79.206C186.302 79.008 186.482 78.63 186.482 77.892V62.898H185.168ZM208.676 63.942V65.238H215.336V63.942H208.676ZM208.118 70.548V71.826H217.28V70.548H208.118ZM207.344 77.622V78.918H217.28V77.622H207.344ZM210.872 64.356C210.62 68.658 210.044 74.814 209.558 78.234H210.836C211.286 74.904 211.844 68.802 212.15 64.446L210.872 64.356ZM214.598 63.942C214.562 68.406 214.292 74.706 213.968 78.252H215.3C215.552 74.778 215.786 68.496 215.876 63.942H214.598ZM202.016 67.47V68.64H206.768V67.47H202.016ZM201.026 70.62V71.79H207.326V70.62H201.026ZM201.368 72.978C201.674 74.058 201.962 75.426 202.034 76.344L202.97 76.074C202.862 75.174 202.574 73.806 202.25 72.744L201.368 72.978ZM200.828 77.622L201.116 78.828C202.826 78.45 205.166 77.892 207.38 77.37L207.308 76.272C204.896 76.794 202.412 77.316 200.828 77.622ZM206.156 72.528C205.976 73.518 205.634 74.958 205.346 75.84L206.138 76.128C206.444 75.282 206.822 73.968 207.146 72.852L206.156 72.528ZM203.708 67.992V77.784L204.842 77.604V67.992H203.708ZM204.23 62.79C203.402 64.554 201.962 66.228 200.558 67.272C200.738 67.614 201.044 68.334 201.134 68.64C202.682 67.344 204.302 65.31 205.292 63.258L204.23 62.79ZM203.798 64.644C205.058 65.49 206.462 66.678 207.29 67.542L207.938 66.462C207.092 65.616 205.688 64.5 204.356 63.672L203.798 64.644Z" fill="white"/>
<path d="M95.612 74.168C96.968 74.168 98.132 73.016 98.132 71.312C98.132 69.464 97.172 68.552 95.684 68.552C94.976 68.552 94.16 68.984 93.62 69.692L93.656 70.568C94.244 69.692 94.952 69.356 95.516 69.356C96.572 69.356 97.1 70.112 97.1 71.312C97.1 72.5 96.452 73.304 95.612 73.304C94.376 73.304 93.692 72.068 93.692 69.812C93.692 66.932 94.724 65.96 95.96 65.96C96.488 65.96 97.028 66.212 97.364 66.62L97.976 65.948C97.496 65.432 96.824 65.048 95.912 65.048C94.208 65.048 92.66 66.368 92.66 69.812C92.66 72.716 93.92 74.168 95.612 74.168Z" fill="#D60C18"/>
<path d="M101.992 74.168C103.648 74.168 104.716 72.644 104.716 69.572C104.716 66.524 103.648 65.048 101.992 65.048C100.312 65.048 99.2443 66.524 99.2443 69.572C99.2443 72.644 100.312 74.168 101.992 74.168ZM101.992 73.28C100.984 73.28 100.3 72.164 100.3 69.572C100.3 67.016 100.984 65.924 101.992 65.924C102.988 65.924 103.66 67.016 103.66 69.572C103.66 72.164 102.988 73.28 101.992 73.28Z" fill="#D60C18"/>
<path fill-rule="evenodd" clip-rule="evenodd" d="M92 40L94.0625 40L94.0625 41L92 41L92 40ZM95.1875 40L98.3125 40L98.3125 41L95.1875 41L95.1875 40ZM99.4375 40L102.562 40L102.562 41L99.4375 41L99.4375 40ZM103.688 40L106.812 40L106.812 41L103.687 41L103.688 40ZM107.938 40L110 40L110 41L107.937 41L107.938 40Z" fill="#939EA7"/>
<path fill-rule="evenodd" clip-rule="evenodd" d="M92 99L94.0625 99L94.0625 100L92 100L92 99ZM95.1875 99L98.3125 99L98.3125 100L95.1875 100L95.1875 99ZM99.4375 99L102.562 99L102.562 100L99.4375 100L99.4375 99ZM103.688 99L106.812 99L106.812 100L103.687 100L103.688 99ZM107.938 99L110 99L110 100L107.937 100L107.938 99Z" fill="#939EA7"/>
<path d="M161.104 114H162.196V109.272C162.784 108.612 163.336 108.276 163.828 108.276C164.668 108.276 165.052 108.792 165.052 110.016V114H166.144V109.272C166.756 108.612 167.272 108.276 167.776 108.276C168.616 108.276 169 108.792 169 110.016V114H170.092V109.872C170.092 108.216 169.444 107.328 168.112 107.328C167.32 107.328 166.636 107.844 165.952 108.564C165.7 107.796 165.16 107.328 164.164 107.328C163.384 107.328 162.7 107.82 162.136 108.432H162.1L161.992 107.484H161.104V114Z" fill="#D60C18"/>
<path d="M172.213 114H173.305V107.484H172.213V114ZM172.765 106.14C173.185 106.14 173.497 105.864 173.497 105.408C173.497 104.988 173.185 104.712 172.765 104.712C172.333 104.712 172.033 104.988 172.033 105.408C172.033 105.864 172.333 106.14 172.765 106.14Z" fill="#D60C18"/>
<path d="M175.518 114H176.61V109.272C177.258 108.624 177.726 108.276 178.386 108.276C179.25 108.276 179.622 108.792 179.622 110.016V114H180.726V109.872C180.726 108.216 180.102 107.328 178.734 107.328C177.834 107.328 177.162 107.82 176.55 108.432H176.514L176.406 107.484H175.518V114Z" fill="#D60C18"/>
<path d="M182.29 111.072H185.362V110.232H182.29V111.072Z" fill="#D60C18"/>
<path d="M188.034 114H189.306L190.218 110.508C190.398 109.884 190.53 109.284 190.662 108.612H190.722C190.878 109.284 190.998 109.872 191.166 110.496L192.114 114H193.446L195.198 107.484H194.154L193.206 111.264C193.05 111.888 192.93 112.464 192.798 113.076H192.75C192.594 112.464 192.45 111.888 192.294 111.264L191.262 107.484H190.194L189.186 111.264C189.018 111.876 188.886 112.464 188.742 113.076H188.682C188.562 112.464 188.442 111.888 188.31 111.264L187.326 107.484H186.21L188.034 114Z" fill="#D60C18"/>
<path d="M196.624 114H197.716V107.484H196.624V114ZM197.176 106.14C197.596 106.14 197.908 105.864 197.908 105.408C197.908 104.988 197.596 104.712 197.176 104.712C196.744 104.712 196.444 104.988 196.444 105.408C196.444 105.864 196.744 106.14 197.176 106.14Z" fill="#D60C18"/>
<path d="M202.136 114.168C202.928 114.168 203.612 113.748 204.128 113.232H204.152L204.248 114H205.148V104.46H204.056V106.956L204.104 108.084C203.54 107.604 203.036 107.328 202.28 107.328C200.792 107.328 199.448 108.636 199.448 110.76C199.448 112.932 200.504 114.168 202.136 114.168ZM202.376 113.244C201.236 113.244 200.588 112.308 200.588 110.748C200.588 109.26 201.416 108.24 202.46 108.24C203 108.24 203.504 108.432 204.056 108.936V112.356C203.516 112.944 202.988 113.244 202.376 113.244Z" fill="#D60C18"/>
<path d="M209.41 114.168C209.818 114.168 210.25 114.048 210.61 113.916L210.394 113.1C210.19 113.184 209.89 113.28 209.662 113.28C208.906 113.28 208.654 112.812 208.654 112.02V108.372H210.418V107.484H208.654V105.648H207.73L207.61 107.484L206.59 107.556V108.372H207.562V111.996C207.562 113.292 208.018 114.168 209.41 114.168Z" fill="#D60C18"/>
<path d="M211.893 114H212.985V109.272C213.633 108.624 214.101 108.276 214.761 108.276C215.625 108.276 215.997 108.792 215.997 110.016V114H217.101V109.872C217.101 108.216 216.477 107.328 215.109 107.328C214.209 107.328 213.549 107.82 212.949 108.408L212.985 107.064V104.46H211.893V114Z" fill="#D60C18"/>
<path d="M221.818 114H226.642V113.088H224.866V105.456H224.026C223.558 105.732 222.994 105.936 222.202 106.08V106.788H223.774V113.088H221.818V114Z" fill="#D60C18"/>
<path d="M230.766 114.168C232.41 114.168 233.526 113.172 233.526 111.888C233.526 110.736 232.794 110.136 232.038 109.68V109.62C232.554 109.224 233.214 108.468 233.214 107.568C233.214 106.236 232.302 105.3 230.802 105.3C229.422 105.3 228.378 106.164 228.378 107.484C228.378 108.384 228.942 109.02 229.578 109.464V109.512C228.774 109.932 227.958 110.7 227.958 111.828C227.958 113.184 229.146 114.168 230.766 114.168ZM231.366 109.344C230.334 108.936 229.386 108.504 229.386 107.484C229.386 106.656 229.974 106.104 230.778 106.104C231.726 106.104 232.278 106.776 232.278 107.616C232.278 108.252 231.954 108.816 231.366 109.344ZM230.79 113.34C229.734 113.34 228.942 112.656 228.942 111.72C228.942 110.928 229.446 110.304 230.154 109.848C231.39 110.352 232.47 110.736 232.47 111.852C232.47 112.728 231.798 113.34 230.79 113.34Z" fill="#D60C18"/>
<path d="M237.41 114.168C239.102 114.168 240.134 112.572 240.134 109.704C240.134 106.836 239.102 105.3 237.41 105.3C235.694 105.3 234.662 106.836 234.662 109.704C234.662 112.572 235.694 114.168 237.41 114.168ZM237.41 113.28C236.402 113.28 235.718 112.212 235.718 109.704C235.718 107.184 236.402 106.176 237.41 106.176C238.406 106.176 239.078 107.184 239.078 109.704C239.078 112.212 238.406 113.28 237.41 113.28Z" fill="#D60C18"/>
<path fill-rule="evenodd" clip-rule="evenodd" d="M110 118L110 115.938L111 115.938L111 118L110 118ZM110 114.812L110 111.688L111 111.688L111 114.813L110 114.812ZM110 110.562L110 107.438L111 107.438L111 110.563L110 110.562ZM110 106.312L110 103.188L111 103.188L111 106.313L110 106.312ZM110 102.062L110 100L111 100L111 102.063L110 102.062Z" fill="#939EA7"/>
<path fill-rule="evenodd" clip-rule="evenodd" d="M289 118L289 115.938L290 115.938L290 118L289 118ZM289 114.812L289 111.688L290 111.688L290 114.813L289 114.812ZM289 110.562L289 107.438L290 107.438L290 110.563L289 110.562ZM289 106.312L289 103.188L290 103.188L290 106.313L289 106.312ZM289 102.062L289 100L290 100L290 102.063L289 102.062Z" fill="#939EA7"/>
<rect width="140" height="50" transform="translate(75 167)" fill="#003A9F"/>
<path d="M102.68 192.072V193.176H112.392V192.072H102.68ZM109.528 190.744C109.096 195.992 107.288 198.2 102.328 199.192C102.536 199.48 102.84 200.024 102.92 200.296C108.184 199.048 110.216 196.6 110.824 190.792L109.528 190.744ZM103.672 195.656C106.328 196.936 109.736 198.904 111.384 200.232L112.184 199.272C110.456 197.944 107.016 196.056 104.408 194.84L103.672 195.656ZM106.488 185.736C106.76 186.52 107.096 187.544 107.224 188.216L108.44 187.96C108.312 187.304 107.976 186.28 107.656 185.512L106.488 185.736ZM103.672 195.656L104.904 195.88C105.784 194.296 106.968 191.656 107.608 189.496L106.376 189.32C105.8 191.384 104.616 194.04 103.672 195.656ZM103.128 187.624V190.744H104.264V188.68H110.952V190.712H112.12V187.624H103.128ZM97.48 194.568L97.768 195.736C99.256 195.288 101.192 194.664 103.032 194.072L102.856 192.984C100.888 193.592 98.856 194.2 97.48 194.568ZM97.656 188.792V189.912H102.712V188.792H97.656ZM99.816 185.576V198.904C99.816 199.128 99.72 199.208 99.528 199.208C99.32 199.208 98.648 199.208 97.928 199.192C98.072 199.512 98.248 199.992 98.28 200.28C99.352 200.296 99.992 200.264 100.408 200.072C100.824 199.896 100.984 199.56 100.984 198.904V185.576H99.816ZM120.712 186.504V187.656H126.632V186.504H120.712ZM120.216 192.376V193.512H128.36V192.376H120.216ZM119.528 198.664V199.816H128.36V198.664H119.528ZM122.664 186.872C122.44 190.696 121.928 196.168 121.496 199.208H122.632C123.032 196.248 123.528 190.824 123.8 186.952L122.664 186.872ZM125.976 186.504C125.944 190.472 125.704 196.072 125.416 199.224H126.6C126.824 196.136 127.032 190.552 127.112 186.504H125.976ZM114.792 189.64V190.68H119.016V189.64H114.792ZM113.912 192.44V193.48H119.512V192.44H113.912ZM114.216 194.536C114.488 195.496 114.744 196.712 114.808 197.528L115.64 197.288C115.544 196.488 115.288 195.272 115 194.328L114.216 194.536ZM113.736 198.664L113.992 199.736C115.512 199.4 117.592 198.904 119.56 198.44L119.496 197.464C117.352 197.928 115.144 198.392 113.736 198.664ZM118.472 194.136C118.312 195.016 118.008 196.296 117.752 197.08L118.456 197.336C118.728 196.584 119.064 195.416 119.352 194.424L118.472 194.136ZM116.296 190.104V198.808L117.304 198.648V190.104H116.296ZM116.76 185.48C116.024 187.048 114.744 188.536 113.496 189.464C113.656 189.768 113.928 190.408 114.008 190.68C115.384 189.528 116.824 187.72 117.704 185.896L116.76 185.48ZM116.376 187.128C117.496 187.88 118.744 188.936 119.48 189.704L120.056 188.744C119.304 187.992 118.056 187 116.872 186.264L116.376 187.128ZM134.68 192.072V193.176H144.392V192.072H134.68ZM141.528 190.744C141.096 195.992 139.288 198.2 134.328 199.192C134.536 199.48 134.84 200.024 134.92 200.296C140.184 199.048 142.216 196.6 142.824 190.792L141.528 190.744ZM135.672 195.656C138.328 196.936 141.736 198.904 143.384 200.232L144.184 199.272C142.456 197.944 139.016 196.056 136.408 194.84L135.672 195.656ZM138.488 185.736C138.76 186.52 139.096 187.544 139.224 188.216L140.44 187.96C140.312 187.304 139.976 186.28 139.656 185.512L138.488 185.736ZM135.672 195.656L136.904 195.88C137.784 194.296 138.968 191.656 139.608 189.496L138.376 189.32C137.8 191.384 136.616 194.04 135.672 195.656ZM135.128 187.624V190.744H136.264V188.68H142.952V190.712H144.12V187.624H135.128ZM129.48 194.568L129.768 195.736C131.256 195.288 133.192 194.664 135.032 194.072L134.856 192.984C132.888 193.592 130.856 194.2 129.48 194.568ZM129.656 188.792V189.912H134.712V188.792H129.656ZM131.816 185.576V198.904C131.816 199.128 131.72 199.208 131.528 199.208C131.32 199.208 130.648 199.208 129.928 199.192C130.072 199.512 130.248 199.992 130.28 200.28C131.352 200.296 131.992 200.264 132.408 200.072C132.824 199.896 132.984 199.56 132.984 198.904V185.576H131.816ZM152.712 186.504V187.656H158.632V186.504H152.712ZM152.216 192.376V193.512H160.36V192.376H152.216ZM151.528 198.664V199.816H160.36V198.664H151.528ZM154.664 186.872C154.44 190.696 153.928 196.168 153.496 199.208H154.632C155.032 196.248 155.528 190.824 155.8 186.952L154.664 186.872ZM157.976 186.504C157.944 190.472 157.704 196.072 157.416 199.224H158.6C158.824 196.136 159.032 190.552 159.112 186.504H157.976ZM146.792 189.64V190.68H151.016V189.64H146.792ZM145.912 192.44V193.48H151.512V192.44H145.912ZM146.216 194.536C146.488 195.496 146.744 196.712 146.808 197.528L147.64 197.288C147.544 196.488 147.288 195.272 147 194.328L146.216 194.536ZM145.736 198.664L145.992 199.736C147.512 199.4 149.592 198.904 151.56 198.44L151.496 197.464C149.352 197.928 147.144 198.392 145.736 198.664ZM150.472 194.136C150.312 195.016 150.008 196.296 149.752 197.08L150.456 197.336C150.728 196.584 151.064 195.416 151.352 194.424L150.472 194.136ZM148.296 190.104V198.808L149.304 198.648V190.104H148.296ZM148.76 185.48C148.024 187.048 146.744 188.536 145.496 189.464C145.656 189.768 145.928 190.408 146.008 190.68C147.384 189.528 148.824 187.72 149.704 185.896L148.76 185.48ZM148.376 187.128C149.496 187.88 150.744 188.936 151.48 189.704L152.056 188.744C151.304 187.992 150.056 187 148.872 186.264L148.376 187.128ZM166.68 192.072V193.176H176.392V192.072H166.68ZM173.528 190.744C173.096 195.992 171.288 198.2 166.328 199.192C166.536 199.48 166.84 200.024 166.92 200.296C172.184 199.048 174.216 196.6 174.824 190.792L173.528 190.744ZM167.672 195.656C170.328 196.936 173.736 198.904 175.384 200.232L176.184 199.272C174.456 197.944 171.016 196.056 168.408 194.84L167.672 195.656ZM170.488 185.736C170.76 186.52 171.096 187.544 171.224 188.216L172.44 187.96C172.312 187.304 171.976 186.28 171.656 185.512L170.488 185.736ZM167.672 195.656L168.904 195.88C169.784 194.296 170.968 191.656 171.608 189.496L170.376 189.32C169.8 191.384 168.616 194.04 167.672 195.656ZM167.128 187.624V190.744H168.264V188.68H174.952V190.712H176.12V187.624H167.128ZM161.48 194.568L161.768 195.736C163.256 195.288 165.192 194.664 167.032 194.072L166.856 192.984C164.888 193.592 162.856 194.2 161.48 194.568ZM161.656 188.792V189.912H166.712V188.792H161.656ZM163.816 185.576V198.904C163.816 199.128 163.72 199.208 163.528 199.208C163.32 199.208 162.648 199.208 161.928 199.192C162.072 199.512 162.248 199.992 162.28 200.28C163.352 200.296 163.992 200.264 164.408 200.072C164.824 199.896 164.984 199.56 164.984 198.904V185.576H163.816ZM184.712 186.504V187.656H190.632V186.504H184.712ZM184.216 192.376V193.512H192.36V192.376H184.216ZM183.528 198.664V199.816H192.36V198.664H183.528ZM186.664 186.872C186.44 190.696 185.928 196.168 185.496 199.208H186.632C187.032 196.248 187.528 190.824 187.8 186.952L186.664 186.872ZM189.976 186.504C189.944 190.472 189.704 196.072 189.416 199.224H190.6C190.824 196.136 191.032 190.552 191.112 186.504H189.976ZM178.792 189.64V190.68H183.016V189.64H178.792ZM177.912 192.44V193.48H183.512V192.44H177.912ZM178.216 194.536C178.488 195.496 178.744 196.712 178.808 197.528L179.64 197.288C179.544 196.488 179.288 195.272 179 194.328L178.216 194.536ZM177.736 198.664L177.992 199.736C179.512 199.4 181.592 198.904 183.56 198.44L183.496 197.464C181.352 197.928 179.144 198.392 177.736 198.664ZM182.472 194.136C182.312 195.016 182.008 196.296 181.752 197.08L182.456 197.336C182.728 196.584 183.064 195.416 183.352 194.424L182.472 194.136ZM180.296 190.104V198.808L181.304 198.648V190.104H180.296ZM180.76 185.48C180.024 187.048 178.744 188.536 177.496 189.464C177.656 189.768 177.928 190.408 178.008 190.68C179.384 189.528 180.824 187.72 181.704 185.896L180.76 185.48ZM180.376 187.128C181.496 187.88 182.744 188.936 183.48 189.704L184.056 188.744C183.304 187.992 182.056 187 180.872 186.264L180.376 187.128Z" fill="white"/>
<path d="M62.132 197.168C63.608 197.168 65.012 196.064 65.012 194.144C65.012 192.2 63.824 191.336 62.36 191.336C61.832 191.336 61.436 191.468 61.04 191.684L61.268 189.14H64.592V188.204H60.308L60.032 192.32L60.62 192.692C61.124 192.356 61.496 192.164 62.084 192.164C63.176 192.164 63.896 192.92 63.896 194.18C63.896 195.452 63.068 196.256 62.024 196.256C61.016 196.256 60.368 195.788 59.876 195.272L59.324 195.992C59.924 196.592 60.764 197.168 62.132 197.168Z" fill="#D60C18"/>
<path d="M68.9923 197.168C70.6483 197.168 71.7163 195.644 71.7163 192.572C71.7163 189.524 70.6483 188.048 68.9923 188.048C67.3123 188.048 66.2443 189.524 66.2443 192.572C66.2443 195.644 67.3123 197.168 68.9923 197.168ZM68.9923 196.28C67.9843 196.28 67.3003 195.164 67.3003 192.572C67.3003 190.016 67.9843 188.924 68.9923 188.924C69.9883 188.924 70.6603 190.016 70.6603 192.572C70.6603 195.164 69.9883 196.28 68.9923 196.28Z" fill="#D60C18"/>
<path d="M79.528 162H85.048V161.064H82.612C82.168 161.064 81.64 161.1 81.172 161.148C83.248 159.192 84.628 157.404 84.628 155.64C84.628 154.068 83.644 153.048 82.072 153.048C80.956 153.048 80.188 153.564 79.468 154.344L80.104 154.956C80.596 154.38 81.22 153.936 81.94 153.936C83.032 153.936 83.548 154.68 83.548 155.688C83.548 157.188 82.288 158.952 79.528 161.364V162Z" fill="#D60C18"/>
<path d="M88.9922 162.168C90.6482 162.168 91.7162 160.644 91.7162 157.572C91.7162 154.524 90.6482 153.048 88.9922 153.048C87.3122 153.048 86.2442 154.524 86.2442 157.572C86.2442 160.644 87.3122 162.168 88.9922 162.168ZM88.9922 161.28C87.9842 161.28 87.3002 160.164 87.3002 157.572C87.3002 155.016 87.9842 153.924 88.9922 153.924C89.9882 153.924 90.6602 155.016 90.6602 157.572C90.6602 160.164 89.9882 161.28 88.9922 161.28Z" fill="#D60C18"/>
<path fill-rule="evenodd" clip-rule="evenodd" d="M57 167L59.0625 167L59.0625 168L57 168L57 167ZM60.1875 167L63.3125 167L63.3125 168L60.1875 168L60.1875 167ZM64.4375 167L67.5625 167L67.5625 168L64.4375 168L64.4375 167ZM68.6875 167L71.8125 167L71.8125 168L68.6875 168L68.6875 167ZM72.9375 167L75 167L75 168L72.9375 168L72.9375 167Z" fill="#939EA7"/>
<path fill-rule="evenodd" clip-rule="evenodd" d="M57 216L59.0625 216L59.0625 217L57 217L57 216ZM60.1875 216L63.3125 216L63.3125 217L60.1875 217L60.1875 216ZM64.4375 216L67.5625 216L67.5625 217L64.4375 217L64.4375 216ZM68.6875 216L71.8125 216L71.8125 217L68.6875 217L68.6875 216ZM72.9375 216L75 216L75 217L72.9375 217L72.9375 216Z" fill="#939EA7"/>
<path d="M107.104 231H108.196V226.272C108.784 225.612 109.336 225.276 109.828 225.276C110.668 225.276 111.052 225.792 111.052 227.016V231H112.144V226.272C112.756 225.612 113.272 225.276 113.776 225.276C114.616 225.276 115 225.792 115 227.016V231H116.092V226.872C116.092 225.216 115.444 224.328 114.112 224.328C113.32 224.328 112.636 224.844 111.952 225.564C111.7 224.796 111.16 224.328 110.164 224.328C109.384 224.328 108.7 224.82 108.136 225.432H108.1L107.992 224.484H107.104V231Z" fill="#D60C18"/>
<path d="M118.213 231H119.305V224.484H118.213V231ZM118.765 223.14C119.185 223.14 119.497 222.864 119.497 222.408C119.497 221.988 119.185 221.712 118.765 221.712C118.333 221.712 118.033 221.988 118.033 222.408C118.033 222.864 118.333 223.14 118.765 223.14Z" fill="#D60C18"/>
<path d="M121.518 231H122.61V226.272C123.258 225.624 123.726 225.276 124.386 225.276C125.25 225.276 125.622 225.792 125.622 227.016V231H126.726V226.872C126.726 225.216 126.102 224.328 124.734 224.328C123.834 224.328 123.162 224.82 122.55 225.432H122.514L122.406 224.484H121.518V231Z" fill="#D60C18"/>
<path d="M128.29 228.072H131.362V227.232H128.29V228.072Z" fill="#D60C18"/>
<path d="M134.034 231H135.306L136.218 227.508C136.398 226.884 136.53 226.284 136.662 225.612H136.722C136.878 226.284 136.998 226.872 137.166 227.496L138.114 231H139.446L141.198 224.484H140.154L139.206 228.264C139.05 228.888 138.93 229.464 138.798 230.076H138.75C138.594 229.464 138.45 228.888 138.294 228.264L137.262 224.484H136.194L135.186 228.264C135.018 228.876 134.886 229.464 134.742 230.076H134.682C134.562 229.464 134.442 228.888 134.31 228.264L133.326 224.484H132.21L134.034 231Z" fill="#D60C18"/>
<path d="M142.624 231H143.716V224.484H142.624V231ZM143.176 223.14C143.596 223.14 143.908 222.864 143.908 222.408C143.908 221.988 143.596 221.712 143.176 221.712C142.744 221.712 142.444 221.988 142.444 222.408C142.444 222.864 142.744 223.14 143.176 223.14Z" fill="#D60C18"/>
<path d="M148.136 231.168C148.928 231.168 149.612 230.748 150.128 230.232H150.152L150.248 231H151.148V221.46H150.056V223.956L150.104 225.084C149.54 224.604 149.036 224.328 148.28 224.328C146.792 224.328 145.448 225.636 145.448 227.76C145.448 229.932 146.504 231.168 148.136 231.168ZM148.376 230.244C147.236 230.244 146.588 229.308 146.588 227.748C146.588 226.26 147.416 225.24 148.46 225.24C149 225.24 149.504 225.432 150.056 225.936V229.356C149.516 229.944 148.988 230.244 148.376 230.244Z" fill="#D60C18"/>
<path d="M155.41 231.168C155.818 231.168 156.25 231.048 156.61 230.916L156.394 230.1C156.19 230.184 155.89 230.28 155.662 230.28C154.906 230.28 154.654 229.812 154.654 229.02V225.372H156.418V224.484H154.654V222.648H153.73L153.61 224.484L152.59 224.556V225.372H153.562V228.996C153.562 230.292 154.018 231.168 155.41 231.168Z" fill="#D60C18"/>
<path d="M157.893 231H158.985V226.272C159.633 225.624 160.101 225.276 160.761 225.276C161.625 225.276 161.997 225.792 161.997 227.016V231H163.101V226.872C163.101 225.216 162.477 224.328 161.109 224.328C160.209 224.328 159.549 224.82 158.949 225.408L158.985 224.064V221.46H157.893V231Z" fill="#D60C18"/>
<path d="M167.818 231H172.642V230.088H170.866V222.456H170.026C169.558 222.732 168.994 222.936 168.202 223.08V223.788H169.774V230.088H167.818V231Z" fill="#D60C18"/>
<path d="M177.486 231H178.518V222.456H177.306L173.646 227.916V228.636H179.694V227.772H174.798L176.802 224.832C177.042 224.412 177.282 224.028 177.498 223.632H177.558C177.522 224.076 177.486 224.82 177.486 225.264V231Z" fill="#D60C18"/>
<path d="M183.41 231.168C185.102 231.168 186.134 229.572 186.134 226.704C186.134 223.836 185.102 222.3 183.41 222.3C181.694 222.3 180.662 223.836 180.662 226.704C180.662 229.572 181.694 231.168 183.41 231.168ZM183.41 230.28C182.402 230.28 181.718 229.212 181.718 226.704C181.718 224.184 182.402 223.176 183.41 223.176C184.406 223.176 185.078 224.184 185.078 226.704C185.078 229.212 184.406 230.28 183.41 230.28Z" fill="#D60C18"/>
<path fill-rule="evenodd" clip-rule="evenodd" d="M75 235L75 232.938L76 232.938L76 235L75 235ZM75 231.812L75 228.688L76 228.688L76 231.813L75 231.812ZM75 227.562L75 224.438L76 224.438L76 227.563L75 227.562ZM75 223.312L75 220.188L76 220.188L76 223.313L75 223.312ZM75 219.062L75 217L76 217L76 219.063L75 219.062Z" fill="#939EA7"/>
<path fill-rule="evenodd" clip-rule="evenodd" d="M75 166L75 163.938L76 163.938L76 166L75 166ZM75 162.812L75 159.688L76 159.688L76 162.813L75 162.812ZM75 158.562L75 155.438L76 155.438L76 158.563L75 158.562ZM75 154.312L75 151.188L76 151.188L76 154.313L75 154.312ZM75 150.062L75 148L76 148L76 150.063L75 150.062Z" fill="#939EA7"/>
<path fill-rule="evenodd" clip-rule="evenodd" d="M95 166L95 163.938L96 163.938L96 166L95 166ZM95 162.812L95 159.688L96 159.688L96 162.813L95 162.812ZM95 158.562L95 155.438L96 155.438L96 158.563L95 158.562ZM95 154.312L95 151.188L96 151.188L96 154.313L95 154.312ZM95 150.062L95 148L96 148L96 150.063L95 150.062Z" fill="#939EA7"/>
<path fill-rule="evenodd" clip-rule="evenodd" d="M214 235L214 232.938L215 232.938L215 235L214 235ZM214 231.812L214 228.688L215 228.688L215 231.813L214 231.812ZM214 227.562L214 224.438L215 224.438L215 227.563L214 227.562ZM214 223.312L214 220.188L215 220.188L215 223.313L214 223.312ZM214 219.062L214 217L215 217L215 219.063L214 219.062Z" fill="#939EA7"/>
<rect width="70" height="36" transform="translate(273 181)" fill="#003A9F"/>
<path d="M298.97 198.938V199.904H307.468V198.938H298.97ZM304.962 197.776C304.584 202.368 303.002 204.3 298.662 205.168C298.844 205.42 299.11 205.896 299.18 206.134C303.786 205.042 305.564 202.9 306.096 197.818L304.962 197.776ZM299.838 202.074C302.162 203.194 305.144 204.916 306.586 206.078L307.286 205.238C305.774 204.076 302.764 202.424 300.482 201.36L299.838 202.074ZM302.302 193.394C302.54 194.08 302.834 194.976 302.946 195.564L304.01 195.34C303.898 194.766 303.604 193.87 303.324 193.198L302.302 193.394ZM299.838 202.074L300.916 202.27C301.686 200.884 302.722 198.574 303.282 196.684L302.204 196.53C301.7 198.336 300.664 200.66 299.838 202.074ZM299.362 195.046V197.776H300.356V195.97H306.208V197.748H307.23V195.046H299.362ZM294.42 201.122L294.672 202.144C295.974 201.752 297.668 201.206 299.278 200.688L299.124 199.736C297.402 200.268 295.624 200.8 294.42 201.122ZM294.574 196.068V197.048H298.998V196.068H294.574ZM296.464 193.254V204.916C296.464 205.112 296.38 205.182 296.212 205.182C296.03 205.182 295.442 205.182 294.812 205.168C294.938 205.448 295.092 205.868 295.12 206.12C296.058 206.134 296.618 206.106 296.982 205.938C297.346 205.784 297.486 205.49 297.486 204.916V193.254H296.464ZM314.748 194.066V195.074H319.928V194.066H314.748ZM314.314 199.204V200.198H321.44V199.204H314.314ZM313.712 204.706V205.714H321.44V204.706H313.712ZM316.456 194.388C316.26 197.734 315.812 202.522 315.434 205.182H316.428C316.778 202.592 317.212 197.846 317.45 194.458L316.456 194.388ZM319.354 194.066C319.326 197.538 319.116 202.438 318.864 205.196H319.9C320.096 202.494 320.278 197.608 320.348 194.066H319.354ZM309.568 196.81V197.72H313.264V196.81H309.568ZM308.798 199.26V200.17H313.698V199.26H308.798ZM309.064 201.094C309.302 201.934 309.526 202.998 309.582 203.712L310.31 203.502C310.226 202.802 310.002 201.738 309.75 200.912L309.064 201.094ZM308.644 204.706L308.868 205.644C310.198 205.35 312.018 204.916 313.74 204.51L313.684 203.656C311.808 204.062 309.876 204.468 308.644 204.706ZM312.788 200.744C312.648 201.514 312.382 202.634 312.158 203.32L312.774 203.544C313.012 202.886 313.306 201.864 313.558 200.996L312.788 200.744ZM310.884 197.216V204.832L311.766 204.692V197.216H310.884ZM311.29 193.17C310.646 194.542 309.526 195.844 308.434 196.656C308.574 196.922 308.812 197.482 308.882 197.72C310.086 196.712 311.346 195.13 312.116 193.534L311.29 193.17ZM310.954 194.612C311.934 195.27 313.026 196.194 313.67 196.866L314.174 196.026C313.516 195.368 312.424 194.5 311.388 193.856L310.954 194.612Z" fill="white"/>
<path d="M260.156 204.168C261.728 204.168 262.988 203.22 262.988 201.66C262.988 200.448 262.148 199.668 261.116 199.416V199.368C262.052 199.032 262.676 198.324 262.676 197.256C262.676 195.852 261.596 195.048 260.12 195.048C259.112 195.048 258.332 195.492 257.672 196.092L258.26 196.8C258.752 196.296 259.376 195.936 260.084 195.936C260.996 195.936 261.56 196.488 261.56 197.328C261.56 198.288 260.948 199.008 259.136 199.008V199.86C261.164 199.86 261.872 200.556 261.872 201.612C261.872 202.62 261.128 203.256 260.084 203.256C259.076 203.256 258.416 202.776 257.9 202.236L257.348 202.956C257.924 203.592 258.776 204.168 260.156 204.168Z" fill="#D60C18"/>
<path d="M267.268 204.168C268.624 204.168 269.788 203.016 269.788 201.312C269.788 199.464 268.828 198.552 267.34 198.552C266.632 198.552 265.816 198.984 265.276 199.692L265.312 200.568C265.9 199.692 266.608 199.356 267.172 199.356C268.228 199.356 268.756 200.112 268.756 201.312C268.756 202.5 268.108 203.304 267.268 203.304C266.032 203.304 265.348 202.068 265.348 199.812C265.348 196.932 266.38 195.96 267.616 195.96C268.144 195.96 268.684 196.212 269.02 196.62L269.632 195.948C269.152 195.432 268.48 195.048 267.568 195.048C265.864 195.048 264.316 196.368 264.316 199.812C264.316 202.716 265.576 204.168 267.268 204.168Z" fill="#D60C18"/>
<path fill-rule="evenodd" clip-rule="evenodd" d="M255 181L257.062 181L257.062 182L255 182L255 181ZM258.188 181L261.312 181L261.312 182L258.187 182L258.188 181ZM262.438 181L265.562 181L265.562 182L262.437 182L262.438 181ZM266.688 181L269.812 181L269.812 182L266.687 182L266.688 181ZM270.938 181L273 181L273 182L270.937 182L270.938 181Z" fill="#939EA7"/>
<path fill-rule="evenodd" clip-rule="evenodd" d="M255 216L257.062 216L257.062 217L255 217L255 216ZM258.188 216L261.312 216L261.312 217L258.187 217L258.188 216ZM262.438 216L265.562 216L265.562 217L262.437 217L262.438 216ZM266.688 216L269.812 216L269.812 217L266.687 217L266.688 216ZM270.938 216L273 216L273 217L270.937 217L270.938 216Z" fill="#939EA7"/>
<path d="M281.104 231H282.196V226.272C282.784 225.612 283.336 225.276 283.828 225.276C284.668 225.276 285.052 225.792 285.052 227.016V231H286.144V226.272C286.756 225.612 287.272 225.276 287.776 225.276C288.616 225.276 289 225.792 289 227.016V231H290.092V226.872C290.092 225.216 289.444 224.328 288.112 224.328C287.32 224.328 286.636 224.844 285.952 225.564C285.7 224.796 285.16 224.328 284.164 224.328C283.384 224.328 282.7 224.82 282.136 225.432H282.1L281.992 224.484H281.104V231Z" fill="#D60C18"/>
<path d="M292.213 231H293.305V224.484H292.213V231ZM292.765 223.14C293.185 223.14 293.497 222.864 293.497 222.408C293.497 221.988 293.185 221.712 292.765 221.712C292.333 221.712 292.033 221.988 292.033 222.408C292.033 222.864 292.333 223.14 292.765 223.14Z" fill="#D60C18"/>
<path d="M295.518 231H296.61V226.272C297.258 225.624 297.726 225.276 298.386 225.276C299.25 225.276 299.622 225.792 299.622 227.016V231H300.726V226.872C300.726 225.216 300.102 224.328 298.734 224.328C297.834 224.328 297.162 224.82 296.55 225.432H296.514L296.406 224.484H295.518V231Z" fill="#D60C18"/>
<path d="M302.29 228.072H305.362V227.232H302.29V228.072Z" fill="#D60C18"/>
<path d="M308.034 231H309.306L310.218 227.508C310.398 226.884 310.53 226.284 310.662 225.612H310.722C310.878 226.284 310.998 226.872 311.166 227.496L312.114 231H313.446L315.198 224.484H314.154L313.206 228.264C313.05 228.888 312.93 229.464 312.798 230.076H312.75C312.594 229.464 312.45 228.888 312.294 228.264L311.262 224.484H310.194L309.186 228.264C309.018 228.876 308.886 229.464 308.742 230.076H308.682C308.562 229.464 308.442 228.888 308.31 228.264L307.326 224.484H306.21L308.034 231Z" fill="#D60C18"/>
<path d="M316.624 231H317.716V224.484H316.624V231ZM317.176 223.14C317.596 223.14 317.908 222.864 317.908 222.408C317.908 221.988 317.596 221.712 317.176 221.712C316.744 221.712 316.444 221.988 316.444 222.408C316.444 222.864 316.744 223.14 317.176 223.14Z" fill="#D60C18"/>
<path d="M322.136 231.168C322.928 231.168 323.612 230.748 324.128 230.232H324.152L324.248 231H325.148V221.46H324.056V223.956L324.104 225.084C323.54 224.604 323.036 224.328 322.28 224.328C320.792 224.328 319.448 225.636 319.448 227.76C319.448 229.932 320.504 231.168 322.136 231.168ZM322.376 230.244C321.236 230.244 320.588 229.308 320.588 227.748C320.588 226.26 321.416 225.24 322.46 225.24C323 225.24 323.504 225.432 324.056 225.936V229.356C323.516 229.944 322.988 230.244 322.376 230.244Z" fill="#D60C18"/>
<path d="M329.41 231.168C329.818 231.168 330.25 231.048 330.61 230.916L330.394 230.1C330.19 230.184 329.89 230.28 329.662 230.28C328.906 230.28 328.654 229.812 328.654 229.02V225.372H330.418V224.484H328.654V222.648H327.73L327.61 224.484L326.59 224.556V225.372H327.562V228.996C327.562 230.292 328.018 231.168 329.41 231.168Z" fill="#D60C18"/>
<path d="M331.893 231H332.985V226.272C333.633 225.624 334.101 225.276 334.761 225.276C335.625 225.276 335.997 225.792 335.997 227.016V231H337.101V226.872C337.101 225.216 336.477 224.328 335.109 224.328C334.209 224.328 333.549 224.82 332.949 225.408L332.985 224.064V221.46H331.893V231Z" fill="#D60C18"/>
<path d="M282.364 248H283.504C283.648 244.664 284.068 242.708 286.084 240.128V239.456H280.588V240.392H284.848C283.168 242.732 282.52 244.784 282.364 248Z" fill="#D60C18"/>
<path d="M289.992 248.168C291.684 248.168 292.716 246.572 292.716 243.704C292.716 240.836 291.684 239.3 289.992 239.3C288.276 239.3 287.244 240.836 287.244 243.704C287.244 246.572 288.276 248.168 289.992 248.168ZM289.992 247.28C288.984 247.28 288.3 246.212 288.3 243.704C288.3 241.184 288.984 240.176 289.992 240.176C290.988 240.176 291.66 241.184 291.66 243.704C291.66 246.212 290.988 247.28 289.992 247.28Z" fill="#D60C18"/>
<path fill-rule="evenodd" clip-rule="evenodd" d="M273 235L273 232.938L274 232.938L274 235L273 235ZM273 231.812L273 228.688L274 228.688L274 231.813L273 231.812ZM273 227.562L273 224.438L274 224.438L274 227.563L273 227.562ZM273 223.312L273 220.188L274 220.188L274 223.313L273 223.312ZM273 219.062L273 217L274 217L274 219.063L273 219.062Z" fill="#939EA7"/>
<path fill-rule="evenodd" clip-rule="evenodd" d="M342 235L342 232.938L343 232.938L343 235L342 235ZM342 231.812L342 228.688L343 228.688L343 231.813L342 231.812ZM342 227.562L342 224.438L343 224.438L343 227.563L342 227.562ZM342 223.312L342 220.188L343 220.188L343 223.313L342 223.312ZM342 219.062L342 217L343 217L343 219.063L342 219.062Z" fill="#939EA7"/>
</svg>
