<svg width="400" height="220" viewBox="0 0 400 220" fill="none" xmlns="http://www.w3.org/2000/svg">
<rect width="400" height="220" fill="#F7F7F7"/>
<rect width="140" height="50" transform="translate(40 40)" fill="#003A9F"/>
<path d="M43.68 65.072V66.176H53.392V65.072H43.68ZM50.528 63.744C50.096 68.992 48.288 71.2 43.328 72.192C43.536 72.48 43.84 73.024 43.92 73.296C49.184 72.048 51.216 69.6 51.824 63.792L50.528 63.744ZM44.672 68.656C47.328 69.936 50.736 71.904 52.384 73.232L53.184 72.272C51.456 70.944 48.016 69.056 45.408 67.84L44.672 68.656ZM47.488 58.736C47.76 59.52 48.096 60.544 48.224 61.216L49.44 60.96C49.312 60.304 48.976 59.28 48.656 58.512L47.488 58.736ZM44.672 68.656L45.904 68.88C46.784 67.296 47.968 64.656 48.608 62.496L47.376 62.32C46.8 64.384 45.616 67.04 44.672 68.656ZM44.128 60.624V63.744H45.264V61.68H51.952V63.712H53.12V60.624H44.128ZM38.48 67.568L38.768 68.736C40.256 68.288 42.192 67.664 44.032 67.072L43.856 65.984C41.888 66.592 39.856 67.2 38.48 67.568ZM38.656 61.792V62.912H43.712V61.792H38.656ZM40.816 58.576V71.904C40.816 72.128 40.72 72.208 40.528 72.208C40.32 72.208 39.648 72.208 38.928 72.192C39.072 72.512 39.248 72.992 39.28 73.28C40.352 73.296 40.992 73.264 41.408 73.072C41.824 72.896 41.984 72.56 41.984 71.904V58.576H40.816ZM61.712 59.504V60.656H67.632V59.504H61.712ZM61.216 65.376V66.512H69.36V65.376H61.216ZM60.528 71.664V72.816H69.36V71.664H60.528ZM63.664 59.872C63.44 63.696 62.928 69.168 62.496 72.208H63.632C64.032 69.248 64.528 63.824 64.8 59.952L63.664 59.872ZM66.976 59.504C66.944 63.472 66.704 69.072 66.416 72.224H67.6C67.824 69.136 68.032 63.552 68.112 59.504H66.976ZM55.792 62.64V63.68H60.016V62.64H55.792ZM54.912 65.44V66.48H60.512V65.44H54.912ZM55.216 67.536C55.488 68.496 55.744 69.712 55.808 70.528L56.64 70.288C56.544 69.488 56.288 68.272 56 67.328L55.216 67.536ZM54.736 71.664L54.992 72.736C56.512 72.4 58.592 71.904 60.56 71.44L60.496 70.464C58.352 70.928 56.144 71.392 54.736 71.664ZM59.472 67.136C59.312 68.016 59.008 69.296 58.752 70.08L59.456 70.336C59.728 69.584 60.064 68.416 60.352 67.424L59.472 67.136ZM57.296 63.104V71.808L58.304 71.648V63.104H57.296ZM57.76 58.48C57.024 60.048 55.744 61.536 54.496 62.464C54.656 62.768 54.928 63.408 55.008 63.68C56.384 62.528 57.824 60.72 58.704 58.896L57.76 58.48ZM57.376 60.128C58.496 60.88 59.744 61.936 60.48 62.704L61.056 61.744C60.304 60.992 59.056 60 57.872 59.264L57.376 60.128ZM75.68 65.072V66.176H85.392V65.072H75.68ZM82.528 63.744C82.096 68.992 80.288 71.2 75.328 72.192C75.536 72.48 75.84 73.024 75.92 73.296C81.184 72.048 83.216 69.6 83.824 63.792L82.528 63.744ZM76.672 68.656C79.328 69.936 82.736 71.904 84.384 73.232L85.184 72.272C83.456 70.944 80.016 69.056 77.408 67.84L76.672 68.656ZM79.488 58.736C79.76 59.52 80.096 60.544 80.224 61.216L81.44 60.96C81.312 60.304 80.976 59.28 80.656 58.512L79.488 58.736ZM76.672 68.656L77.904 68.88C78.784 67.296 79.968 64.656 80.608 62.496L79.376 62.32C78.8 64.384 77.616 67.04 76.672 68.656ZM76.128 60.624V63.744H77.264V61.68H83.952V63.712H85.12V60.624H76.128ZM70.48 67.568L70.768 68.736C72.256 68.288 74.192 67.664 76.032 67.072L75.856 65.984C73.888 66.592 71.856 67.2 70.48 67.568ZM70.656 61.792V62.912H75.712V61.792H70.656ZM72.816 58.576V71.904C72.816 72.128 72.72 72.208 72.528 72.208C72.32 72.208 71.648 72.208 70.928 72.192C71.072 72.512 71.248 72.992 71.28 73.28C72.352 73.296 72.992 73.264 73.408 73.072C73.824 72.896 73.984 72.56 73.984 71.904V58.576H72.816ZM93.712 59.504V60.656H99.632V59.504H93.712ZM93.216 65.376V66.512H101.36V65.376H93.216ZM92.528 71.664V72.816H101.36V71.664H92.528ZM95.664 59.872C95.44 63.696 94.928 69.168 94.496 72.208H95.632C96.032 69.248 96.528 63.824 96.8 59.952L95.664 59.872ZM98.976 59.504C98.944 63.472 98.704 69.072 98.416 72.224H99.6C99.824 69.136 100.032 63.552 100.112 59.504H98.976ZM87.792 62.64V63.68H92.016V62.64H87.792ZM86.912 65.44V66.48H92.512V65.44H86.912ZM87.216 67.536C87.488 68.496 87.744 69.712 87.808 70.528L88.64 70.288C88.544 69.488 88.288 68.272 88 67.328L87.216 67.536ZM86.736 71.664L86.992 72.736C88.512 72.4 90.592 71.904 92.56 71.44L92.496 70.464C90.352 70.928 88.144 71.392 86.736 71.664ZM91.472 67.136C91.312 68.016 91.008 69.296 90.752 70.08L91.456 70.336C91.728 69.584 92.064 68.416 92.352 67.424L91.472 67.136ZM89.296 63.104V71.808L90.304 71.648V63.104H89.296ZM89.76 58.48C89.024 60.048 87.744 61.536 86.496 62.464C86.656 62.768 86.928 63.408 87.008 63.68C88.384 62.528 89.824 60.72 90.704 58.896L89.76 58.48ZM89.376 60.128C90.496 60.88 91.744 61.936 92.48 62.704L93.056 61.744C92.304 60.992 91.056 60 89.872 59.264L89.376 60.128ZM107.68 65.072V66.176H117.392V65.072H107.68ZM114.528 63.744C114.096 68.992 112.288 71.2 107.328 72.192C107.536 72.48 107.84 73.024 107.92 73.296C113.184 72.048 115.216 69.6 115.824 63.792L114.528 63.744ZM108.672 68.656C111.328 69.936 114.736 71.904 116.384 73.232L117.184 72.272C115.456 70.944 112.016 69.056 109.408 67.84L108.672 68.656ZM111.488 58.736C111.76 59.52 112.096 60.544 112.224 61.216L113.44 60.96C113.312 60.304 112.976 59.28 112.656 58.512L111.488 58.736ZM108.672 68.656L109.904 68.88C110.784 67.296 111.968 64.656 112.608 62.496L111.376 62.32C110.8 64.384 109.616 67.04 108.672 68.656ZM108.128 60.624V63.744H109.264V61.68H115.952V63.712H117.12V60.624H108.128ZM102.48 67.568L102.768 68.736C104.256 68.288 106.192 67.664 108.032 67.072L107.856 65.984C105.888 66.592 103.856 67.2 102.48 67.568ZM102.656 61.792V62.912H107.712V61.792H102.656ZM104.816 58.576V71.904C104.816 72.128 104.72 72.208 104.528 72.208C104.32 72.208 103.648 72.208 102.928 72.192C103.072 72.512 103.248 72.992 103.28 73.28C104.352 73.296 104.992 73.264 105.408 73.072C105.824 72.896 105.984 72.56 105.984 71.904V58.576H104.816ZM125.712 59.504V60.656H131.632V59.504H125.712ZM125.216 65.376V66.512H133.36V65.376H125.216ZM124.528 71.664V72.816H133.36V71.664H124.528ZM127.664 59.872C127.44 63.696 126.928 69.168 126.496 72.208H127.632C128.032 69.248 128.528 63.824 128.8 59.952L127.664 59.872ZM130.976 59.504C130.944 63.472 130.704 69.072 130.416 72.224H131.6C131.824 69.136 132.032 63.552 132.112 59.504H130.976ZM119.792 62.64V63.68H124.016V62.64H119.792ZM118.912 65.44V66.48H124.512V65.44H118.912ZM119.216 67.536C119.488 68.496 119.744 69.712 119.808 70.528L120.64 70.288C120.544 69.488 120.288 68.272 120 67.328L119.216 67.536ZM118.736 71.664L118.992 72.736C120.512 72.4 122.592 71.904 124.56 71.44L124.496 70.464C122.352 70.928 120.144 71.392 118.736 71.664ZM123.472 67.136C123.312 68.016 123.008 69.296 122.752 70.08L123.456 70.336C123.728 69.584 124.064 68.416 124.352 67.424L123.472 67.136ZM121.296 63.104V71.808L122.304 71.648V63.104H121.296ZM121.76 58.48C121.024 60.048 119.744 61.536 118.496 62.464C118.656 62.768 118.928 63.408 119.008 63.68C120.384 62.528 121.824 60.72 122.704 58.896L121.76 58.48ZM121.376 60.128C122.496 60.88 123.744 61.936 124.48 62.704L125.056 61.744C124.304 60.992 123.056 60 121.872 59.264L121.376 60.128ZM139.68 65.072V66.176H149.392V65.072H139.68ZM146.528 63.744C146.096 68.992 144.288 71.2 139.328 72.192C139.536 72.48 139.84 73.024 139.92 73.296C145.184 72.048 147.216 69.6 147.824 63.792L146.528 63.744ZM140.672 68.656C143.328 69.936 146.736 71.904 148.384 73.232L149.184 72.272C147.456 70.944 144.016 69.056 141.408 67.84L140.672 68.656ZM143.488 58.736C143.76 59.52 144.096 60.544 144.224 61.216L145.44 60.96C145.312 60.304 144.976 59.28 144.656 58.512L143.488 58.736ZM140.672 68.656L141.904 68.88C142.784 67.296 143.968 64.656 144.608 62.496L143.376 62.32C142.8 64.384 141.616 67.04 140.672 68.656ZM140.128 60.624V63.744H141.264V61.68H147.952V63.712H149.12V60.624H140.128ZM134.48 67.568L134.768 68.736C136.256 68.288 138.192 67.664 140.032 67.072L139.856 65.984C137.888 66.592 135.856 67.2 134.48 67.568ZM134.656 61.792V62.912H139.712V61.792H134.656ZM136.816 58.576V71.904C136.816 72.128 136.72 72.208 136.528 72.208C136.32 72.208 135.648 72.208 134.928 72.192C135.072 72.512 135.248 72.992 135.28 73.28C136.352 73.296 136.992 73.264 137.408 73.072C137.824 72.896 137.984 72.56 137.984 71.904V58.576H136.816ZM157.712 59.504V60.656H163.632V59.504H157.712ZM157.216 65.376V66.512H165.36V65.376H157.216ZM156.528 71.664V72.816H165.36V71.664H156.528ZM159.664 59.872C159.44 63.696 158.928 69.168 158.496 72.208H159.632C160.032 69.248 160.528 63.824 160.8 59.952L159.664 59.872ZM162.976 59.504C162.944 63.472 162.704 69.072 162.416 72.224H163.6C163.824 69.136 164.032 63.552 164.112 59.504H162.976ZM151.792 62.64V63.68H156.016V62.64H151.792ZM150.912 65.44V66.48H156.512V65.44H150.912ZM151.216 67.536C151.488 68.496 151.744 69.712 151.808 70.528L152.64 70.288C152.544 69.488 152.288 68.272 152 67.328L151.216 67.536ZM150.736 71.664L150.992 72.736C152.512 72.4 154.592 71.904 156.56 71.44L156.496 70.464C154.352 70.928 152.144 71.392 150.736 71.664ZM155.472 67.136C155.312 68.016 155.008 69.296 154.752 70.08L155.456 70.336C155.728 69.584 156.064 68.416 156.352 67.424L155.472 67.136ZM153.296 63.104V71.808L154.304 71.648V63.104H153.296ZM153.76 58.48C153.024 60.048 151.744 61.536 150.496 62.464C150.656 62.768 150.928 63.408 151.008 63.68C152.384 62.528 153.824 60.72 154.704 58.896L153.76 58.48ZM153.376 60.128C154.496 60.88 155.744 61.936 156.48 62.704L157.056 61.744C156.304 60.992 155.056 60 153.872 59.264L153.376 60.128ZM171.68 65.072V66.176H181.392V65.072H171.68ZM178.528 63.744C178.096 68.992 176.288 71.2 171.328 72.192C171.536 72.48 171.84 73.024 171.92 73.296C177.184 72.048 179.216 69.6 179.824 63.792L178.528 63.744ZM172.672 68.656C175.328 69.936 178.736 71.904 180.384 73.232L181.184 72.272C179.456 70.944 176.016 69.056 173.408 67.84L172.672 68.656ZM175.488 58.736C175.76 59.52 176.096 60.544 176.224 61.216L177.44 60.96C177.312 60.304 176.976 59.28 176.656 58.512L175.488 58.736ZM172.672 68.656L173.904 68.88C174.784 67.296 175.968 64.656 176.608 62.496L175.376 62.32C174.8 64.384 173.616 67.04 172.672 68.656ZM172.128 60.624V63.744H173.264V61.68H179.952V63.712H181.12V60.624H172.128ZM166.48 67.568L166.768 68.736C168.256 68.288 170.192 67.664 172.032 67.072L171.856 65.984C169.888 66.592 167.856 67.2 166.48 67.568ZM166.656 61.792V62.912H171.712V61.792H166.656ZM168.816 58.576V71.904C168.816 72.128 168.72 72.208 168.528 72.208C168.32 72.208 167.648 72.208 166.928 72.192C167.072 72.512 167.248 72.992 167.28 73.28C168.352 73.296 168.992 73.264 169.408 73.072C169.824 72.896 169.984 72.56 169.984 71.904V58.576H168.816Z" fill="white"/>
<g filter="url(#filter0_d_13_53)">
<rect width="140" height="50" transform="translate(220 130)" fill="#003A9F"/>
<path d="M263.68 155.072V156.176H273.392V155.072H263.68ZM270.528 153.744C270.096 158.992 268.288 161.2 263.328 162.192C263.536 162.48 263.84 163.024 263.92 163.296C269.184 162.048 271.216 159.6 271.824 153.792L270.528 153.744ZM264.672 158.656C267.328 159.936 270.736 161.904 272.384 163.232L273.184 162.272C271.456 160.944 268.016 159.056 265.408 157.84L264.672 158.656ZM267.488 148.736C267.76 149.52 268.096 150.544 268.224 151.216L269.44 150.96C269.312 150.304 268.976 149.28 268.656 148.512L267.488 148.736ZM264.672 158.656L265.904 158.88C266.784 157.296 267.968 154.656 268.608 152.496L267.376 152.32C266.8 154.384 265.616 157.04 264.672 158.656ZM264.128 150.624V153.744H265.264V151.68H271.952V153.712H273.12V150.624H264.128ZM258.48 157.568L258.768 158.736C260.256 158.288 262.192 157.664 264.032 157.072L263.856 155.984C261.888 156.592 259.856 157.2 258.48 157.568ZM258.656 151.792V152.912H263.712V151.792H258.656ZM260.816 148.576V161.904C260.816 162.128 260.72 162.208 260.528 162.208C260.32 162.208 259.648 162.208 258.928 162.192C259.072 162.512 259.248 162.992 259.28 163.28C260.352 163.296 260.992 163.264 261.408 163.072C261.824 162.896 261.984 162.56 261.984 161.904V148.576H260.816ZM281.712 149.504V150.656H287.632V149.504H281.712ZM281.216 155.376V156.512H289.36V155.376H281.216ZM280.528 161.664V162.816H289.36V161.664H280.528ZM283.664 149.872C283.44 153.696 282.928 159.168 282.496 162.208H283.632C284.032 159.248 284.528 153.824 284.8 149.952L283.664 149.872ZM286.976 149.504C286.944 153.472 286.704 159.072 286.416 162.224H287.6C287.824 159.136 288.032 153.552 288.112 149.504H286.976ZM275.792 152.64V153.68H280.016V152.64H275.792ZM274.912 155.44V156.48H280.512V155.44H274.912ZM275.216 157.536C275.488 158.496 275.744 159.712 275.808 160.528L276.64 160.288C276.544 159.488 276.288 158.272 276 157.328L275.216 157.536ZM274.736 161.664L274.992 162.736C276.512 162.4 278.592 161.904 280.56 161.44L280.496 160.464C278.352 160.928 276.144 161.392 274.736 161.664ZM279.472 157.136C279.312 158.016 279.008 159.296 278.752 160.08L279.456 160.336C279.728 159.584 280.064 158.416 280.352 157.424L279.472 157.136ZM277.296 153.104V161.808L278.304 161.648V153.104H277.296ZM277.76 148.48C277.024 150.048 275.744 151.536 274.496 152.464C274.656 152.768 274.928 153.408 275.008 153.68C276.384 152.528 277.824 150.72 278.704 148.896L277.76 148.48ZM277.376 150.128C278.496 150.88 279.744 151.936 280.48 152.704L281.056 151.744C280.304 150.992 279.056 150 277.872 149.264L277.376 150.128ZM297.712 149.504V150.656H303.632V149.504H297.712ZM297.216 155.376V156.512H305.36V155.376H297.216ZM296.528 161.664V162.816H305.36V161.664H296.528ZM299.664 149.872C299.44 153.696 298.928 159.168 298.496 162.208H299.632C300.032 159.248 300.528 153.824 300.8 149.952L299.664 149.872ZM302.976 149.504C302.944 153.472 302.704 159.072 302.416 162.224H303.6C303.824 159.136 304.032 153.552 304.112 149.504H302.976ZM291.792 152.64V153.68H296.016V152.64H291.792ZM290.912 155.44V156.48H296.512V155.44H290.912ZM291.216 157.536C291.488 158.496 291.744 159.712 291.808 160.528L292.64 160.288C292.544 159.488 292.288 158.272 292 157.328L291.216 157.536ZM290.736 161.664L290.992 162.736C292.512 162.4 294.592 161.904 296.56 161.44L296.496 160.464C294.352 160.928 292.144 161.392 290.736 161.664ZM295.472 157.136C295.312 158.016 295.008 159.296 294.752 160.08L295.456 160.336C295.728 159.584 296.064 158.416 296.352 157.424L295.472 157.136ZM293.296 153.104V161.808L294.304 161.648V153.104H293.296ZM293.76 148.48C293.024 150.048 291.744 151.536 290.496 152.464C290.656 152.768 290.928 153.408 291.008 153.68C292.384 152.528 293.824 150.72 294.704 148.896L293.76 148.48ZM293.376 150.128C294.496 150.88 295.744 151.936 296.48 152.704L297.056 151.744C296.304 150.992 295.056 150 293.872 149.264L293.376 150.128ZM311.68 155.072V156.176H321.392V155.072H311.68ZM318.528 153.744C318.096 158.992 316.288 161.2 311.328 162.192C311.536 162.48 311.84 163.024 311.92 163.296C317.184 162.048 319.216 159.6 319.824 153.792L318.528 153.744ZM312.672 158.656C315.328 159.936 318.736 161.904 320.384 163.232L321.184 162.272C319.456 160.944 316.016 159.056 313.408 157.84L312.672 158.656ZM315.488 148.736C315.76 149.52 316.096 150.544 316.224 151.216L317.44 150.96C317.312 150.304 316.976 149.28 316.656 148.512L315.488 148.736ZM312.672 158.656L313.904 158.88C314.784 157.296 315.968 154.656 316.608 152.496L315.376 152.32C314.8 154.384 313.616 157.04 312.672 158.656ZM312.128 150.624V153.744H313.264V151.68H319.952V153.712H321.12V150.624H312.128ZM306.48 157.568L306.768 158.736C308.256 158.288 310.192 157.664 312.032 157.072L311.856 155.984C309.888 156.592 307.856 157.2 306.48 157.568ZM306.656 151.792V152.912H311.712V151.792H306.656ZM308.816 148.576V161.904C308.816 162.128 308.72 162.208 308.528 162.208C308.32 162.208 307.648 162.208 306.928 162.192C307.072 162.512 307.248 162.992 307.28 163.28C308.352 163.296 308.992 163.264 309.408 163.072C309.824 162.896 309.984 162.56 309.984 161.904V148.576H308.816Z" fill="white"/>
</g>
<rect width="140" height="50" transform="translate(220 40)" fill="#003A9F"/>
<path d="M247.68 53.072V54.176H257.392V53.072H247.68ZM254.528 51.744C254.096 56.992 252.288 59.2 247.328 60.192C247.536 60.48 247.84 61.024 247.92 61.296C253.184 60.048 255.216 57.6 255.824 51.792L254.528 51.744ZM248.672 56.656C251.328 57.936 254.736 59.904 256.384 61.232L257.184 60.272C255.456 58.944 252.016 57.056 249.408 55.84L248.672 56.656ZM251.488 46.736C251.76 47.52 252.096 48.544 252.224 49.216L253.44 48.96C253.312 48.304 252.976 47.28 252.656 46.512L251.488 46.736ZM248.672 56.656L249.904 56.88C250.784 55.296 251.968 52.656 252.608 50.496L251.376 50.32C250.8 52.384 249.616 55.04 248.672 56.656ZM248.128 48.624V51.744H249.264V49.68H255.952V51.712H257.12V48.624H248.128ZM242.48 55.568L242.768 56.736C244.256 56.288 246.192 55.664 248.032 55.072L247.856 53.984C245.888 54.592 243.856 55.2 242.48 55.568ZM242.656 49.792V50.912H247.712V49.792H242.656ZM244.816 46.576V59.904C244.816 60.128 244.72 60.208 244.528 60.208C244.32 60.208 243.648 60.208 242.928 60.192C243.072 60.512 243.248 60.992 243.28 61.28C244.352 61.296 244.992 61.264 245.408 61.072C245.824 60.896 245.984 60.56 245.984 59.904V46.576H244.816ZM265.712 47.504V48.656H271.632V47.504H265.712ZM265.216 53.376V54.512H273.36V53.376H265.216ZM264.528 59.664V60.816H273.36V59.664H264.528ZM267.664 47.872C267.44 51.696 266.928 57.168 266.496 60.208H267.632C268.032 57.248 268.528 51.824 268.8 47.952L267.664 47.872ZM270.976 47.504C270.944 51.472 270.704 57.072 270.416 60.224H271.6C271.824 57.136 272.032 51.552 272.112 47.504H270.976ZM259.792 50.64V51.68H264.016V50.64H259.792ZM258.912 53.44V54.48H264.512V53.44H258.912ZM259.216 55.536C259.488 56.496 259.744 57.712 259.808 58.528L260.64 58.288C260.544 57.488 260.288 56.272 260 55.328L259.216 55.536ZM258.736 59.664L258.992 60.736C260.512 60.4 262.592 59.904 264.56 59.44L264.496 58.464C262.352 58.928 260.144 59.392 258.736 59.664ZM263.472 55.136C263.312 56.016 263.008 57.296 262.752 58.08L263.456 58.336C263.728 57.584 264.064 56.416 264.352 55.424L263.472 55.136ZM261.296 51.104V59.808L262.304 59.648V51.104H261.296ZM261.76 46.48C261.024 48.048 259.744 49.536 258.496 50.464C258.656 50.768 258.928 51.408 259.008 51.68C260.384 50.528 261.824 48.72 262.704 46.896L261.76 46.48ZM261.376 48.128C262.496 48.88 263.744 49.936 264.48 50.704L265.056 49.744C264.304 48.992 263.056 48 261.872 47.264L261.376 48.128ZM279.68 53.072V54.176H289.392V53.072H279.68ZM286.528 51.744C286.096 56.992 284.288 59.2 279.328 60.192C279.536 60.48 279.84 61.024 279.92 61.296C285.184 60.048 287.216 57.6 287.824 51.792L286.528 51.744ZM280.672 56.656C283.328 57.936 286.736 59.904 288.384 61.232L289.184 60.272C287.456 58.944 284.016 57.056 281.408 55.84L280.672 56.656ZM283.488 46.736C283.76 47.52 284.096 48.544 284.224 49.216L285.44 48.96C285.312 48.304 284.976 47.28 284.656 46.512L283.488 46.736ZM280.672 56.656L281.904 56.88C282.784 55.296 283.968 52.656 284.608 50.496L283.376 50.32C282.8 52.384 281.616 55.04 280.672 56.656ZM280.128 48.624V51.744H281.264V49.68H287.952V51.712H289.12V48.624H280.128ZM274.48 55.568L274.768 56.736C276.256 56.288 278.192 55.664 280.032 55.072L279.856 53.984C277.888 54.592 275.856 55.2 274.48 55.568ZM274.656 49.792V50.912H279.712V49.792H274.656ZM276.816 46.576V59.904C276.816 60.128 276.72 60.208 276.528 60.208C276.32 60.208 275.648 60.208 274.928 60.192C275.072 60.512 275.248 60.992 275.28 61.28C276.352 61.296 276.992 61.264 277.408 61.072C277.824 60.896 277.984 60.56 277.984 59.904V46.576H276.816ZM297.712 47.504V48.656H303.632V47.504H297.712ZM297.216 53.376V54.512H305.36V53.376H297.216ZM296.528 59.664V60.816H305.36V59.664H296.528ZM299.664 47.872C299.44 51.696 298.928 57.168 298.496 60.208H299.632C300.032 57.248 300.528 51.824 300.8 47.952L299.664 47.872ZM302.976 47.504C302.944 51.472 302.704 57.072 302.416 60.224H303.6C303.824 57.136 304.032 51.552 304.112 47.504H302.976ZM291.792 50.64V51.68H296.016V50.64H291.792ZM290.912 53.44V54.48H296.512V53.44H290.912ZM291.216 55.536C291.488 56.496 291.744 57.712 291.808 58.528L292.64 58.288C292.544 57.488 292.288 56.272 292 55.328L291.216 55.536ZM290.736 59.664L290.992 60.736C292.512 60.4 294.592 59.904 296.56 59.44L296.496 58.464C294.352 58.928 292.144 59.392 290.736 59.664ZM295.472 55.136C295.312 56.016 295.008 57.296 294.752 58.08L295.456 58.336C295.728 57.584 296.064 56.416 296.352 55.424L295.472 55.136ZM293.296 51.104V59.808L294.304 59.648V51.104H293.296ZM293.76 46.48C293.024 48.048 291.744 49.536 290.496 50.464C290.656 50.768 290.928 51.408 291.008 51.68C292.384 50.528 293.824 48.72 294.704 46.896L293.76 46.48ZM293.376 48.128C294.496 48.88 295.744 49.936 296.48 50.704L297.056 49.744C296.304 48.992 295.056 48 293.872 47.264L293.376 48.128ZM311.68 53.072V54.176H321.392V53.072H311.68ZM318.528 51.744C318.096 56.992 316.288 59.2 311.328 60.192C311.536 60.48 311.84 61.024 311.92 61.296C317.184 60.048 319.216 57.6 319.824 51.792L318.528 51.744ZM312.672 56.656C315.328 57.936 318.736 59.904 320.384 61.232L321.184 60.272C319.456 58.944 316.016 57.056 313.408 55.84L312.672 56.656ZM315.488 46.736C315.76 47.52 316.096 48.544 316.224 49.216L317.44 48.96C317.312 48.304 316.976 47.28 316.656 46.512L315.488 46.736ZM312.672 56.656L313.904 56.88C314.784 55.296 315.968 52.656 316.608 50.496L315.376 50.32C314.8 52.384 313.616 55.04 312.672 56.656ZM312.128 48.624V51.744H313.264V49.68H319.952V51.712H321.12V48.624H312.128ZM306.48 55.568L306.768 56.736C308.256 56.288 310.192 55.664 312.032 55.072L311.856 53.984C309.888 54.592 307.856 55.2 306.48 55.568ZM306.656 49.792V50.912H311.712V49.792H306.656ZM308.816 46.576V59.904C308.816 60.128 308.72 60.208 308.528 60.208C308.32 60.208 307.648 60.208 306.928 60.192C307.072 60.512 307.248 60.992 307.28 61.28C308.352 61.296 308.992 61.264 309.408 61.072C309.824 60.896 309.984 60.56 309.984 59.904V46.576H308.816ZM329.712 47.504V48.656H335.632V47.504H329.712ZM329.216 53.376V54.512H337.36V53.376H329.216ZM328.528 59.664V60.816H337.36V59.664H328.528ZM331.664 47.872C331.44 51.696 330.928 57.168 330.496 60.208H331.632C332.032 57.248 332.528 51.824 332.8 47.952L331.664 47.872ZM334.976 47.504C334.944 51.472 334.704 57.072 334.416 60.224H335.6C335.824 57.136 336.032 51.552 336.112 47.504H334.976ZM323.792 50.64V51.68H328.016V50.64H323.792ZM322.912 53.44V54.48H328.512V53.44H322.912ZM323.216 55.536C323.488 56.496 323.744 57.712 323.808 58.528L324.64 58.288C324.544 57.488 324.288 56.272 324 55.328L323.216 55.536ZM322.736 59.664L322.992 60.736C324.512 60.4 326.592 59.904 328.56 59.44L328.496 58.464C326.352 58.928 324.144 59.392 322.736 59.664ZM327.472 55.136C327.312 56.016 327.008 57.296 326.752 58.08L327.456 58.336C327.728 57.584 328.064 56.416 328.352 55.424L327.472 55.136ZM325.296 51.104V59.808L326.304 59.648V51.104H325.296ZM325.76 46.48C325.024 48.048 323.744 49.536 322.496 50.464C322.656 50.768 322.928 51.408 323.008 51.68C324.384 50.528 325.824 48.72 326.704 46.896L325.76 46.48ZM325.376 48.128C326.496 48.88 327.744 49.936 328.48 50.704L329.056 49.744C328.304 48.992 327.056 48 325.872 47.264L325.376 48.128ZM263.68 77.072V78.176H273.392V77.072H263.68ZM270.528 75.744C270.096 80.992 268.288 83.2 263.328 84.192C263.536 84.48 263.84 85.024 263.92 85.296C269.184 84.048 271.216 81.6 271.824 75.792L270.528 75.744ZM264.672 80.656C267.328 81.936 270.736 83.904 272.384 85.232L273.184 84.272C271.456 82.944 268.016 81.056 265.408 79.84L264.672 80.656ZM267.488 70.736C267.76 71.52 268.096 72.544 268.224 73.216L269.44 72.96C269.312 72.304 268.976 71.28 268.656 70.512L267.488 70.736ZM264.672 80.656L265.904 80.88C266.784 79.296 267.968 76.656 268.608 74.496L267.376 74.32C266.8 76.384 265.616 79.04 264.672 80.656ZM264.128 72.624V75.744H265.264V73.68H271.952V75.712H273.12V72.624H264.128ZM258.48 79.568L258.768 80.736C260.256 80.288 262.192 79.664 264.032 79.072L263.856 77.984C261.888 78.592 259.856 79.2 258.48 79.568ZM258.656 73.792V74.912H263.712V73.792H258.656ZM260.816 70.576V83.904C260.816 84.128 260.72 84.208 260.528 84.208C260.32 84.208 259.648 84.208 258.928 84.192C259.072 84.512 259.248 84.992 259.28 85.28C260.352 85.296 260.992 85.264 261.408 85.072C261.824 84.896 261.984 84.56 261.984 83.904V70.576H260.816ZM281.712 71.504V72.656H287.632V71.504H281.712ZM281.216 77.376V78.512H289.36V77.376H281.216ZM280.528 83.664V84.816H289.36V83.664H280.528ZM283.664 71.872C283.44 75.696 282.928 81.168 282.496 84.208H283.632C284.032 81.248 284.528 75.824 284.8 71.952L283.664 71.872ZM286.976 71.504C286.944 75.472 286.704 81.072 286.416 84.224H287.6C287.824 81.136 288.032 75.552 288.112 71.504H286.976ZM275.792 74.64V75.68H280.016V74.64H275.792ZM274.912 77.44V78.48H280.512V77.44H274.912ZM275.216 79.536C275.488 80.496 275.744 81.712 275.808 82.528L276.64 82.288C276.544 81.488 276.288 80.272 276 79.328L275.216 79.536ZM274.736 83.664L274.992 84.736C276.512 84.4 278.592 83.904 280.56 83.44L280.496 82.464C278.352 82.928 276.144 83.392 274.736 83.664ZM279.472 79.136C279.312 80.016 279.008 81.296 278.752 82.08L279.456 82.336C279.728 81.584 280.064 80.416 280.352 79.424L279.472 79.136ZM277.296 75.104V83.808L278.304 83.648V75.104H277.296ZM277.76 70.48C277.024 72.048 275.744 73.536 274.496 74.464C274.656 74.768 274.928 75.408 275.008 75.68C276.384 74.528 277.824 72.72 278.704 70.896L277.76 70.48ZM277.376 72.128C278.496 72.88 279.744 73.936 280.48 74.704L281.056 73.744C280.304 72.992 279.056 72 277.872 71.264L277.376 72.128ZM295.68 77.072V78.176H305.392V77.072H295.68ZM302.528 75.744C302.096 80.992 300.288 83.2 295.328 84.192C295.536 84.48 295.84 85.024 295.92 85.296C301.184 84.048 303.216 81.6 303.824 75.792L302.528 75.744ZM296.672 80.656C299.328 81.936 302.736 83.904 304.384 85.232L305.184 84.272C303.456 82.944 300.016 81.056 297.408 79.84L296.672 80.656ZM299.488 70.736C299.76 71.52 300.096 72.544 300.224 73.216L301.44 72.96C301.312 72.304 300.976 71.28 300.656 70.512L299.488 70.736ZM296.672 80.656L297.904 80.88C298.784 79.296 299.968 76.656 300.608 74.496L299.376 74.32C298.8 76.384 297.616 79.04 296.672 80.656ZM296.128 72.624V75.744H297.264V73.68H303.952V75.712H305.12V72.624H296.128ZM290.48 79.568L290.768 80.736C292.256 80.288 294.192 79.664 296.032 79.072L295.856 77.984C293.888 78.592 291.856 79.2 290.48 79.568ZM290.656 73.792V74.912H295.712V73.792H290.656ZM292.816 70.576V83.904C292.816 84.128 292.72 84.208 292.528 84.208C292.32 84.208 291.648 84.208 290.928 84.192C291.072 84.512 291.248 84.992 291.28 85.28C292.352 85.296 292.992 85.264 293.408 85.072C293.824 84.896 293.984 84.56 293.984 83.904V70.576H292.816ZM313.056 71.408V72.528H319.024V71.408H313.056ZM312.416 77.328V78.432H321.28V77.328H312.416ZM312.576 83.728V84.848H321.024V83.728H312.576ZM315.232 71.84C315.056 75.712 314.608 81.168 314.192 84.256H315.424C315.776 81.232 316.192 75.792 316.416 71.84H315.232ZM318.576 71.408C318.592 75.44 318.416 81.12 318.192 84.32H319.408C319.6 81.168 319.728 75.504 319.728 71.408H318.576ZM310.416 76.864C310.88 77.904 311.344 79.28 311.52 80.096L312.384 79.76C312.224 78.96 311.728 77.616 311.248 76.592L310.416 76.864ZM308.944 80.976C309.136 82.048 309.312 83.456 309.344 84.384L310.256 84.16C310.208 83.248 310 81.872 309.824 80.8L308.944 80.976ZM307.264 80.864C307.12 82.16 306.88 83.6 306.512 84.576C306.752 84.64 307.216 84.8 307.424 84.912C307.76 83.92 308.064 82.416 308.24 81.024L307.264 80.864ZM306.896 76.56C306.896 76.32 307.648 75.936 307.648 75.936V75.92C308.704 74.64 309.792 72.768 310.608 70.976L309.504 70.512C308.864 72.256 307.76 74.112 307.408 74.576C307.088 75.072 306.8 75.408 306.528 75.472C306.656 75.776 306.832 76.32 306.896 76.56ZM306.896 76.56C307.152 76.432 307.6 76.352 310.128 76.048C310.128 75.824 310.176 75.408 310.224 75.104L307.44 75.36L306.88 75.696L306.896 76.56ZM307.008 80.16C307.008 79.92 307.76 79.584 307.76 79.584V79.536C309.264 77.984 310.784 75.76 312 73.584L310.992 72.992C309.952 75.152 308.32 77.424 307.808 78C307.328 78.592 306.976 79.008 306.624 79.072C306.768 79.376 306.944 79.936 307.008 80.16ZM307.008 80.16C307.328 80 307.84 79.872 311.68 79.28C311.68 79.056 311.68 78.64 311.728 78.352L307.52 78.928L306.96 79.296L307.008 80.16ZM310.528 80.656C310.864 81.568 311.232 82.752 311.376 83.536L312.24 83.248C312.096 82.48 311.696 81.296 311.36 80.384L310.528 80.656Z" fill="white"/>
<rect width="140" height="50" transform="translate(40 130)" fill="#003A9F"/>
<path d="M83.68 155.072V156.176H93.392V155.072H83.68ZM90.528 153.744C90.096 158.992 88.288 161.2 83.328 162.192C83.536 162.48 83.84 163.024 83.92 163.296C89.184 162.048 91.216 159.6 91.824 153.792L90.528 153.744ZM84.672 158.656C87.328 159.936 90.736 161.904 92.384 163.232L93.184 162.272C91.456 160.944 88.016 159.056 85.408 157.84L84.672 158.656ZM87.488 148.736C87.76 149.52 88.096 150.544 88.224 151.216L89.44 150.96C89.312 150.304 88.976 149.28 88.656 148.512L87.488 148.736ZM84.672 158.656L85.904 158.88C86.784 157.296 87.968 154.656 88.608 152.496L87.376 152.32C86.8 154.384 85.616 157.04 84.672 158.656ZM84.128 150.624V153.744H85.264V151.68H91.952V153.712H93.12V150.624H84.128ZM78.48 157.568L78.768 158.736C80.256 158.288 82.192 157.664 84.032 157.072L83.856 155.984C81.888 156.592 79.856 157.2 78.48 157.568ZM78.656 151.792V152.912H83.712V151.792H78.656ZM80.816 148.576V161.904C80.816 162.128 80.72 162.208 80.528 162.208C80.32 162.208 79.648 162.208 78.928 162.192C79.072 162.512 79.248 162.992 79.28 163.28C80.352 163.296 80.992 163.264 81.408 163.072C81.824 162.896 81.984 162.56 81.984 161.904V148.576H80.816ZM101.712 149.504V150.656H107.632V149.504H101.712ZM101.216 155.376V156.512H109.36V155.376H101.216ZM100.528 161.664V162.816H109.36V161.664H100.528ZM103.664 149.872C103.44 153.696 102.928 159.168 102.496 162.208H103.632C104.032 159.248 104.528 153.824 104.8 149.952L103.664 149.872ZM106.976 149.504C106.944 153.472 106.704 159.072 106.416 162.224H107.6C107.824 159.136 108.032 153.552 108.112 149.504H106.976ZM95.792 152.64V153.68H100.016V152.64H95.792ZM94.912 155.44V156.48H100.512V155.44H94.912ZM95.216 157.536C95.488 158.496 95.744 159.712 95.808 160.528L96.64 160.288C96.544 159.488 96.288 158.272 96 157.328L95.216 157.536ZM94.736 161.664L94.992 162.736C96.512 162.4 98.592 161.904 100.56 161.44L100.496 160.464C98.352 160.928 96.144 161.392 94.736 161.664ZM99.472 157.136C99.312 158.016 99.008 159.296 98.752 160.08L99.456 160.336C99.728 159.584 100.064 158.416 100.352 157.424L99.472 157.136ZM97.296 153.104V161.808L98.304 161.648V153.104H97.296ZM97.76 148.48C97.024 150.048 95.744 151.536 94.496 152.464C94.656 152.768 94.928 153.408 95.008 153.68C96.384 152.528 97.824 150.72 98.704 148.896L97.76 148.48ZM97.376 150.128C98.496 150.88 99.744 151.936 100.48 152.704L101.056 151.744C100.304 150.992 99.056 150 97.872 149.264L97.376 150.128ZM115.68 155.072V156.176H125.392V155.072H115.68ZM122.528 153.744C122.096 158.992 120.288 161.2 115.328 162.192C115.536 162.48 115.84 163.024 115.92 163.296C121.184 162.048 123.216 159.6 123.824 153.792L122.528 153.744ZM116.672 158.656C119.328 159.936 122.736 161.904 124.384 163.232L125.184 162.272C123.456 160.944 120.016 159.056 117.408 157.84L116.672 158.656ZM119.488 148.736C119.76 149.52 120.096 150.544 120.224 151.216L121.44 150.96C121.312 150.304 120.976 149.28 120.656 148.512L119.488 148.736ZM116.672 158.656L117.904 158.88C118.784 157.296 119.968 154.656 120.608 152.496L119.376 152.32C118.8 154.384 117.616 157.04 116.672 158.656ZM116.128 150.624V153.744H117.264V151.68H123.952V153.712H125.12V150.624H116.128ZM110.48 157.568L110.768 158.736C112.256 158.288 114.192 157.664 116.032 157.072L115.856 155.984C113.888 156.592 111.856 157.2 110.48 157.568ZM110.656 151.792V152.912H115.712V151.792H110.656ZM112.816 148.576V161.904C112.816 162.128 112.72 162.208 112.528 162.208C112.32 162.208 111.648 162.208 110.928 162.192C111.072 162.512 111.248 162.992 111.28 163.28C112.352 163.296 112.992 163.264 113.408 163.072C113.824 162.896 113.984 162.56 113.984 161.904V148.576H112.816ZM133.712 149.504V150.656H139.632V149.504H133.712ZM133.216 155.376V156.512H141.36V155.376H133.216ZM132.528 161.664V162.816H141.36V161.664H132.528ZM135.664 149.872C135.44 153.696 134.928 159.168 134.496 162.208H135.632C136.032 159.248 136.528 153.824 136.8 149.952L135.664 149.872ZM138.976 149.504C138.944 153.472 138.704 159.072 138.416 162.224H139.6C139.824 159.136 140.032 153.552 140.112 149.504H138.976ZM127.792 152.64V153.68H132.016V152.64H127.792ZM126.912 155.44V156.48H132.512V155.44H126.912ZM127.216 157.536C127.488 158.496 127.744 159.712 127.808 160.528L128.64 160.288C128.544 159.488 128.288 158.272 128 157.328L127.216 157.536ZM126.736 161.664L126.992 162.736C128.512 162.4 130.592 161.904 132.56 161.44L132.496 160.464C130.352 160.928 128.144 161.392 126.736 161.664ZM131.472 157.136C131.312 158.016 131.008 159.296 130.752 160.08L131.456 160.336C131.728 159.584 132.064 158.416 132.352 157.424L131.472 157.136ZM129.296 153.104V161.808L130.304 161.648V153.104H129.296ZM129.76 148.48C129.024 150.048 127.744 151.536 126.496 152.464C126.656 152.768 126.928 153.408 127.008 153.68C128.384 152.528 129.824 150.72 130.704 148.896L129.76 148.48ZM129.376 150.128C130.496 150.88 131.744 151.936 132.48 152.704L133.056 151.744C132.304 150.992 131.056 150 129.872 149.264L129.376 150.128Z" fill="white"/>
<path d="M70.7188 156C70.7188 160.815 66.8153 164.719 62 164.719C57.1847 164.719 53.2812 160.815 53.2812 156C53.2812 151.185 57.1847 147.281 62 147.281C66.8153 147.281 70.7188 151.185 70.7188 156ZM60.9915 160.617L67.4603 154.148C67.6799 153.928 67.6799 153.572 67.4603 153.352L66.6648 152.557C66.4451 152.337 66.0889 152.337 65.8693 152.557L60.5938 157.832L58.1308 155.369C57.9111 155.15 57.5549 155.15 57.3352 155.369L56.5398 156.165C56.3201 156.384 56.3201 156.741 56.5398 156.96L60.196 160.616C60.4157 160.836 60.7719 160.836 60.9915 160.616L60.9915 160.617Z" fill="white"/>
<defs>
<filter id="filter0_d_13_53" x="220" y="130" width="148" height="58" filterUnits="userSpaceOnUse" color-interpolation-filters="sRGB">
<feFlood flood-opacity="0" result="BackgroundImageFix"/>
<feColorMatrix in="SourceAlpha" type="matrix" values="0 0 0 0 0 0 0 0 0 0 0 0 0 0 0 0 0 0 127 0" result="hardAlpha"/>
<feOffset dx="4" dy="4"/>
<feGaussianBlur stdDeviation="2"/>
<feComposite in2="hardAlpha" operator="out"/>
<feColorMatrix type="matrix" values="0 0 0 0 0 0 0 0 0 0 0 0 0 0 0 0 0 0 0.25 0"/>
<feBlend mode="normal" in2="BackgroundImageFix" result="effect1_dropShadow_13_53"/>
<feBlend mode="normal" in="SourceGraphic" in2="effect1_dropShadow_13_53" result="shape"/>
</filter>
</defs>
</svg>
