<svg width="790" height="130" viewBox="0 0 790 130" fill="none" xmlns="http://www.w3.org/2000/svg">
<rect width="790" height="130" fill="#fafafa"/>
<rect width="140" height="50" transform="translate(40 40)" fill="#003A9F"/>
<path d="M43.68 65.072V66.176H53.392V65.072H43.68ZM50.528 63.744C50.096 68.992 48.288 71.2 43.328 72.192C43.536 72.48 43.84 73.024 43.92 73.296C49.184 72.048 51.216 69.6 51.824 63.792L50.528 63.744ZM44.672 68.656C47.328 69.936 50.736 71.904 52.384 73.232L53.184 72.272C51.456 70.944 48.016 69.056 45.408 67.84L44.672 68.656ZM47.488 58.736C47.76 59.52 48.096 60.544 48.224 61.216L49.44 60.96C49.312 60.304 48.976 59.28 48.656 58.512L47.488 58.736ZM44.672 68.656L45.904 68.88C46.784 67.296 47.968 64.656 48.608 62.496L47.376 62.32C46.8 64.384 45.616 67.04 44.672 68.656ZM44.128 60.624V63.744H45.264V61.68H51.952V63.712H53.12V60.624H44.128ZM38.48 67.568L38.768 68.736C40.256 68.288 42.192 67.664 44.032 67.072L43.856 65.984C41.888 66.592 39.856 67.2 38.48 67.568ZM38.656 61.792V62.912H43.712V61.792H38.656ZM40.816 58.576V71.904C40.816 72.128 40.72 72.208 40.528 72.208C40.32 72.208 39.648 72.208 38.928 72.192C39.072 72.512 39.248 72.992 39.28 73.28C40.352 73.296 40.992 73.264 41.408 73.072C41.824 72.896 41.984 72.56 41.984 71.904V58.576H40.816ZM61.712 59.504V60.656H67.632V59.504H61.712ZM61.216 65.376V66.512H69.36V65.376H61.216ZM60.528 71.664V72.816H69.36V71.664H60.528ZM63.664 59.872C63.44 63.696 62.928 69.168 62.496 72.208H63.632C64.032 69.248 64.528 63.824 64.8 59.952L63.664 59.872ZM66.976 59.504C66.944 63.472 66.704 69.072 66.416 72.224H67.6C67.824 69.136 68.032 63.552 68.112 59.504H66.976ZM55.792 62.64V63.68H60.016V62.64H55.792ZM54.912 65.44V66.48H60.512V65.44H54.912ZM55.216 67.536C55.488 68.496 55.744 69.712 55.808 70.528L56.64 70.288C56.544 69.488 56.288 68.272 56 67.328L55.216 67.536ZM54.736 71.664L54.992 72.736C56.512 72.4 58.592 71.904 60.56 71.44L60.496 70.464C58.352 70.928 56.144 71.392 54.736 71.664ZM59.472 67.136C59.312 68.016 59.008 69.296 58.752 70.08L59.456 70.336C59.728 69.584 60.064 68.416 60.352 67.424L59.472 67.136ZM57.296 63.104V71.808L58.304 71.648V63.104H57.296ZM57.76 58.48C57.024 60.048 55.744 61.536 54.496 62.464C54.656 62.768 54.928 63.408 55.008 63.68C56.384 62.528 57.824 60.72 58.704 58.896L57.76 58.48ZM57.376 60.128C58.496 60.88 59.744 61.936 60.48 62.704L61.056 61.744C60.304 60.992 59.056 60 57.872 59.264L57.376 60.128ZM75.68 65.072V66.176H85.392V65.072H75.68ZM82.528 63.744C82.096 68.992 80.288 71.2 75.328 72.192C75.536 72.48 75.84 73.024 75.92 73.296C81.184 72.048 83.216 69.6 83.824 63.792L82.528 63.744ZM76.672 68.656C79.328 69.936 82.736 71.904 84.384 73.232L85.184 72.272C83.456 70.944 80.016 69.056 77.408 67.84L76.672 68.656ZM79.488 58.736C79.76 59.52 80.096 60.544 80.224 61.216L81.44 60.96C81.312 60.304 80.976 59.28 80.656 58.512L79.488 58.736ZM76.672 68.656L77.904 68.88C78.784 67.296 79.968 64.656 80.608 62.496L79.376 62.32C78.8 64.384 77.616 67.04 76.672 68.656ZM76.128 60.624V63.744H77.264V61.68H83.952V63.712H85.12V60.624H76.128ZM70.48 67.568L70.768 68.736C72.256 68.288 74.192 67.664 76.032 67.072L75.856 65.984C73.888 66.592 71.856 67.2 70.48 67.568ZM70.656 61.792V62.912H75.712V61.792H70.656ZM72.816 58.576V71.904C72.816 72.128 72.72 72.208 72.528 72.208C72.32 72.208 71.648 72.208 70.928 72.192C71.072 72.512 71.248 72.992 71.28 73.28C72.352 73.296 72.992 73.264 73.408 73.072C73.824 72.896 73.984 72.56 73.984 71.904V58.576H72.816ZM93.712 59.504V60.656H99.632V59.504H93.712ZM93.216 65.376V66.512H101.36V65.376H93.216ZM92.528 71.664V72.816H101.36V71.664H92.528ZM95.664 59.872C95.44 63.696 94.928 69.168 94.496 72.208H95.632C96.032 69.248 96.528 63.824 96.8 59.952L95.664 59.872ZM98.976 59.504C98.944 63.472 98.704 69.072 98.416 72.224H99.6C99.824 69.136 100.032 63.552 100.112 59.504H98.976ZM87.792 62.64V63.68H92.016V62.64H87.792ZM86.912 65.44V66.48H92.512V65.44H86.912ZM87.216 67.536C87.488 68.496 87.744 69.712 87.808 70.528L88.64 70.288C88.544 69.488 88.288 68.272 88 67.328L87.216 67.536ZM86.736 71.664L86.992 72.736C88.512 72.4 90.592 71.904 92.56 71.44L92.496 70.464C90.352 70.928 88.144 71.392 86.736 71.664ZM91.472 67.136C91.312 68.016 91.008 69.296 90.752 70.08L91.456 70.336C91.728 69.584 92.064 68.416 92.352 67.424L91.472 67.136ZM89.296 63.104V71.808L90.304 71.648V63.104H89.296ZM89.76 58.48C89.024 60.048 87.744 61.536 86.496 62.464C86.656 62.768 86.928 63.408 87.008 63.68C88.384 62.528 89.824 60.72 90.704 58.896L89.76 58.48ZM89.376 60.128C90.496 60.88 91.744 61.936 92.48 62.704L93.056 61.744C92.304 60.992 91.056 60 89.872 59.264L89.376 60.128ZM107.68 65.072V66.176H117.392V65.072H107.68ZM114.528 63.744C114.096 68.992 112.288 71.2 107.328 72.192C107.536 72.48 107.84 73.024 107.92 73.296C113.184 72.048 115.216 69.6 115.824 63.792L114.528 63.744ZM108.672 68.656C111.328 69.936 114.736 71.904 116.384 73.232L117.184 72.272C115.456 70.944 112.016 69.056 109.408 67.84L108.672 68.656ZM111.488 58.736C111.76 59.52 112.096 60.544 112.224 61.216L113.44 60.96C113.312 60.304 112.976 59.28 112.656 58.512L111.488 58.736ZM108.672 68.656L109.904 68.88C110.784 67.296 111.968 64.656 112.608 62.496L111.376 62.32C110.8 64.384 109.616 67.04 108.672 68.656ZM108.128 60.624V63.744H109.264V61.68H115.952V63.712H117.12V60.624H108.128ZM102.48 67.568L102.768 68.736C104.256 68.288 106.192 67.664 108.032 67.072L107.856 65.984C105.888 66.592 103.856 67.2 102.48 67.568ZM102.656 61.792V62.912H107.712V61.792H102.656ZM104.816 58.576V71.904C104.816 72.128 104.72 72.208 104.528 72.208C104.32 72.208 103.648 72.208 102.928 72.192C103.072 72.512 103.248 72.992 103.28 73.28C104.352 73.296 104.992 73.264 105.408 73.072C105.824 72.896 105.984 72.56 105.984 71.904V58.576H104.816ZM125.712 59.504V60.656H131.632V59.504H125.712ZM125.216 65.376V66.512H133.36V65.376H125.216ZM124.528 71.664V72.816H133.36V71.664H124.528ZM127.664 59.872C127.44 63.696 126.928 69.168 126.496 72.208H127.632C128.032 69.248 128.528 63.824 128.8 59.952L127.664 59.872ZM130.976 59.504C130.944 63.472 130.704 69.072 130.416 72.224H131.6C131.824 69.136 132.032 63.552 132.112 59.504H130.976ZM119.792 62.64V63.68H124.016V62.64H119.792ZM118.912 65.44V66.48H124.512V65.44H118.912ZM119.216 67.536C119.488 68.496 119.744 69.712 119.808 70.528L120.64 70.288C120.544 69.488 120.288 68.272 120 67.328L119.216 67.536ZM118.736 71.664L118.992 72.736C120.512 72.4 122.592 71.904 124.56 71.44L124.496 70.464C122.352 70.928 120.144 71.392 118.736 71.664ZM123.472 67.136C123.312 68.016 123.008 69.296 122.752 70.08L123.456 70.336C123.728 69.584 124.064 68.416 124.352 67.424L123.472 67.136ZM121.296 63.104V71.808L122.304 71.648V63.104H121.296ZM121.76 58.48C121.024 60.048 119.744 61.536 118.496 62.464C118.656 62.768 118.928 63.408 119.008 63.68C120.384 62.528 121.824 60.72 122.704 58.896L121.76 58.48ZM121.376 60.128C122.496 60.88 123.744 61.936 124.48 62.704L125.056 61.744C124.304 60.992 123.056 60 121.872 59.264L121.376 60.128ZM139.68 65.072V66.176H149.392V65.072H139.68ZM146.528 63.744C146.096 68.992 144.288 71.2 139.328 72.192C139.536 72.48 139.84 73.024 139.92 73.296C145.184 72.048 147.216 69.6 147.824 63.792L146.528 63.744ZM140.672 68.656C143.328 69.936 146.736 71.904 148.384 73.232L149.184 72.272C147.456 70.944 144.016 69.056 141.408 67.84L140.672 68.656ZM143.488 58.736C143.76 59.52 144.096 60.544 144.224 61.216L145.44 60.96C145.312 60.304 144.976 59.28 144.656 58.512L143.488 58.736ZM140.672 68.656L141.904 68.88C142.784 67.296 143.968 64.656 144.608 62.496L143.376 62.32C142.8 64.384 141.616 67.04 140.672 68.656ZM140.128 60.624V63.744H141.264V61.68H147.952V63.712H149.12V60.624H140.128ZM134.48 67.568L134.768 68.736C136.256 68.288 138.192 67.664 140.032 67.072L139.856 65.984C137.888 66.592 135.856 67.2 134.48 67.568ZM134.656 61.792V62.912H139.712V61.792H134.656ZM136.816 58.576V71.904C136.816 72.128 136.72 72.208 136.528 72.208C136.32 72.208 135.648 72.208 134.928 72.192C135.072 72.512 135.248 72.992 135.28 73.28C136.352 73.296 136.992 73.264 137.408 73.072C137.824 72.896 137.984 72.56 137.984 71.904V58.576H136.816ZM157.712 59.504V60.656H163.632V59.504H157.712ZM157.216 65.376V66.512H165.36V65.376H157.216ZM156.528 71.664V72.816H165.36V71.664H156.528ZM159.664 59.872C159.44 63.696 158.928 69.168 158.496 72.208H159.632C160.032 69.248 160.528 63.824 160.8 59.952L159.664 59.872ZM162.976 59.504C162.944 63.472 162.704 69.072 162.416 72.224H163.6C163.824 69.136 164.032 63.552 164.112 59.504H162.976ZM151.792 62.64V63.68H156.016V62.64H151.792ZM150.912 65.44V66.48H156.512V65.44H150.912ZM151.216 67.536C151.488 68.496 151.744 69.712 151.808 70.528L152.64 70.288C152.544 69.488 152.288 68.272 152 67.328L151.216 67.536ZM150.736 71.664L150.992 72.736C152.512 72.4 154.592 71.904 156.56 71.44L156.496 70.464C154.352 70.928 152.144 71.392 150.736 71.664ZM155.472 67.136C155.312 68.016 155.008 69.296 154.752 70.08L155.456 70.336C155.728 69.584 156.064 68.416 156.352 67.424L155.472 67.136ZM153.296 63.104V71.808L154.304 71.648V63.104H153.296ZM153.76 58.48C153.024 60.048 151.744 61.536 150.496 62.464C150.656 62.768 150.928 63.408 151.008 63.68C152.384 62.528 153.824 60.72 154.704 58.896L153.76 58.48ZM153.376 60.128C154.496 60.88 155.744 61.936 156.48 62.704L157.056 61.744C156.304 60.992 155.056 60 153.872 59.264L153.376 60.128ZM171.68 65.072V66.176H181.392V65.072H171.68ZM178.528 63.744C178.096 68.992 176.288 71.2 171.328 72.192C171.536 72.48 171.84 73.024 171.92 73.296C177.184 72.048 179.216 69.6 179.824 63.792L178.528 63.744ZM172.672 68.656C175.328 69.936 178.736 71.904 180.384 73.232L181.184 72.272C179.456 70.944 176.016 69.056 173.408 67.84L172.672 68.656ZM175.488 58.736C175.76 59.52 176.096 60.544 176.224 61.216L177.44 60.96C177.312 60.304 176.976 59.28 176.656 58.512L175.488 58.736ZM172.672 68.656L173.904 68.88C174.784 67.296 175.968 64.656 176.608 62.496L175.376 62.32C174.8 64.384 173.616 67.04 172.672 68.656ZM172.128 60.624V63.744H173.264V61.68H179.952V63.712H181.12V60.624H172.128ZM166.48 67.568L166.768 68.736C168.256 68.288 170.192 67.664 172.032 67.072L171.856 65.984C169.888 66.592 167.856 67.2 166.48 67.568ZM166.656 61.792V62.912H171.712V61.792H166.656ZM168.816 58.576V71.904C168.816 72.128 168.72 72.208 168.528 72.208C168.32 72.208 167.648 72.208 166.928 72.192C167.072 72.512 167.248 72.992 167.28 73.28C168.352 73.296 168.992 73.264 169.408 73.072C169.824 72.896 169.984 72.56 169.984 71.904V58.576H168.816Z" fill="white"/>
<g filter="url(#filter0_d_11_40)">
<rect width="140" height="50" transform="translate(613 40)" fill="#003A9F"/>
<path d="M656.68 65.072V66.176H666.392V65.072H656.68ZM663.528 63.744C663.096 68.992 661.288 71.2 656.328 72.192C656.536 72.48 656.84 73.024 656.92 73.296C662.184 72.048 664.216 69.6 664.824 63.792L663.528 63.744ZM657.672 68.656C660.328 69.936 663.736 71.904 665.384 73.232L666.184 72.272C664.456 70.944 661.016 69.056 658.408 67.84L657.672 68.656ZM660.488 58.736C660.76 59.52 661.096 60.544 661.224 61.216L662.44 60.96C662.312 60.304 661.976 59.28 661.656 58.512L660.488 58.736ZM657.672 68.656L658.904 68.88C659.784 67.296 660.968 64.656 661.608 62.496L660.376 62.32C659.8 64.384 658.616 67.04 657.672 68.656ZM657.128 60.624V63.744H658.264V61.68H664.952V63.712H666.12V60.624H657.128ZM651.48 67.568L651.768 68.736C653.256 68.288 655.192 67.664 657.032 67.072L656.856 65.984C654.888 66.592 652.856 67.2 651.48 67.568ZM651.656 61.792V62.912H656.712V61.792H651.656ZM653.816 58.576V71.904C653.816 72.128 653.72 72.208 653.528 72.208C653.32 72.208 652.648 72.208 651.928 72.192C652.072 72.512 652.248 72.992 652.28 73.28C653.352 73.296 653.992 73.264 654.408 73.072C654.824 72.896 654.984 72.56 654.984 71.904V58.576H653.816ZM674.712 59.504V60.656H680.632V59.504H674.712ZM674.216 65.376V66.512H682.36V65.376H674.216ZM673.528 71.664V72.816H682.36V71.664H673.528ZM676.664 59.872C676.44 63.696 675.928 69.168 675.496 72.208H676.632C677.032 69.248 677.528 63.824 677.8 59.952L676.664 59.872ZM679.976 59.504C679.944 63.472 679.704 69.072 679.416 72.224H680.6C680.824 69.136 681.032 63.552 681.112 59.504H679.976ZM668.792 62.64V63.68H673.016V62.64H668.792ZM667.912 65.44V66.48H673.512V65.44H667.912ZM668.216 67.536C668.488 68.496 668.744 69.712 668.808 70.528L669.64 70.288C669.544 69.488 669.288 68.272 669 67.328L668.216 67.536ZM667.736 71.664L667.992 72.736C669.512 72.4 671.592 71.904 673.56 71.44L673.496 70.464C671.352 70.928 669.144 71.392 667.736 71.664ZM672.472 67.136C672.312 68.016 672.008 69.296 671.752 70.08L672.456 70.336C672.728 69.584 673.064 68.416 673.352 67.424L672.472 67.136ZM670.296 63.104V71.808L671.304 71.648V63.104H670.296ZM670.76 58.48C670.024 60.048 668.744 61.536 667.496 62.464C667.656 62.768 667.928 63.408 668.008 63.68C669.384 62.528 670.824 60.72 671.704 58.896L670.76 58.48ZM670.376 60.128C671.496 60.88 672.744 61.936 673.48 62.704L674.056 61.744C673.304 60.992 672.056 60 670.872 59.264L670.376 60.128ZM690.712 59.504V60.656H696.632V59.504H690.712ZM690.216 65.376V66.512H698.36V65.376H690.216ZM689.528 71.664V72.816H698.36V71.664H689.528ZM692.664 59.872C692.44 63.696 691.928 69.168 691.496 72.208H692.632C693.032 69.248 693.528 63.824 693.8 59.952L692.664 59.872ZM695.976 59.504C695.944 63.472 695.704 69.072 695.416 72.224H696.6C696.824 69.136 697.032 63.552 697.112 59.504H695.976ZM684.792 62.64V63.68H689.016V62.64H684.792ZM683.912 65.44V66.48H689.512V65.44H683.912ZM684.216 67.536C684.488 68.496 684.744 69.712 684.808 70.528L685.64 70.288C685.544 69.488 685.288 68.272 685 67.328L684.216 67.536ZM683.736 71.664L683.992 72.736C685.512 72.4 687.592 71.904 689.56 71.44L689.496 70.464C687.352 70.928 685.144 71.392 683.736 71.664ZM688.472 67.136C688.312 68.016 688.008 69.296 687.752 70.08L688.456 70.336C688.728 69.584 689.064 68.416 689.352 67.424L688.472 67.136ZM686.296 63.104V71.808L687.304 71.648V63.104H686.296ZM686.76 58.48C686.024 60.048 684.744 61.536 683.496 62.464C683.656 62.768 683.928 63.408 684.008 63.68C685.384 62.528 686.824 60.72 687.704 58.896L686.76 58.48ZM686.376 60.128C687.496 60.88 688.744 61.936 689.48 62.704L690.056 61.744C689.304 60.992 688.056 60 686.872 59.264L686.376 60.128ZM704.68 65.072V66.176H714.392V65.072H704.68ZM711.528 63.744C711.096 68.992 709.288 71.2 704.328 72.192C704.536 72.48 704.84 73.024 704.92 73.296C710.184 72.048 712.216 69.6 712.824 63.792L711.528 63.744ZM705.672 68.656C708.328 69.936 711.736 71.904 713.384 73.232L714.184 72.272C712.456 70.944 709.016 69.056 706.408 67.84L705.672 68.656ZM708.488 58.736C708.76 59.52 709.096 60.544 709.224 61.216L710.44 60.96C710.312 60.304 709.976 59.28 709.656 58.512L708.488 58.736ZM705.672 68.656L706.904 68.88C707.784 67.296 708.968 64.656 709.608 62.496L708.376 62.32C707.8 64.384 706.616 67.04 705.672 68.656ZM705.128 60.624V63.744H706.264V61.68H712.952V63.712H714.12V60.624H705.128ZM699.48 67.568L699.768 68.736C701.256 68.288 703.192 67.664 705.032 67.072L704.856 65.984C702.888 66.592 700.856 67.2 699.48 67.568ZM699.656 61.792V62.912H704.712V61.792H699.656ZM701.816 58.576V71.904C701.816 72.128 701.72 72.208 701.528 72.208C701.32 72.208 700.648 72.208 699.928 72.192C700.072 72.512 700.248 72.992 700.28 73.28C701.352 73.296 701.992 73.264 702.408 73.072C702.824 72.896 702.984 72.56 702.984 71.904V58.576H701.816Z" fill="white"/>
</g>
<rect width="140" height="50" transform="translate(231 40)" fill="#003A9F"/>
<path d="M258.68 53.072V54.176H268.392V53.072H258.68ZM265.528 51.744C265.096 56.992 263.288 59.2 258.328 60.192C258.536 60.48 258.84 61.024 258.92 61.296C264.184 60.048 266.216 57.6 266.824 51.792L265.528 51.744ZM259.672 56.656C262.328 57.936 265.736 59.904 267.384 61.232L268.184 60.272C266.456 58.944 263.016 57.056 260.408 55.84L259.672 56.656ZM262.488 46.736C262.76 47.52 263.096 48.544 263.224 49.216L264.44 48.96C264.312 48.304 263.976 47.28 263.656 46.512L262.488 46.736ZM259.672 56.656L260.904 56.88C261.784 55.296 262.968 52.656 263.608 50.496L262.376 50.32C261.8 52.384 260.616 55.04 259.672 56.656ZM259.128 48.624V51.744H260.264V49.68H266.952V51.712H268.12V48.624H259.128ZM253.48 55.568L253.768 56.736C255.256 56.288 257.192 55.664 259.032 55.072L258.856 53.984C256.888 54.592 254.856 55.2 253.48 55.568ZM253.656 49.792V50.912H258.712V49.792H253.656ZM255.816 46.576V59.904C255.816 60.128 255.72 60.208 255.528 60.208C255.32 60.208 254.648 60.208 253.928 60.192C254.072 60.512 254.248 60.992 254.28 61.28C255.352 61.296 255.992 61.264 256.408 61.072C256.824 60.896 256.984 60.56 256.984 59.904V46.576H255.816ZM276.712 47.504V48.656H282.632V47.504H276.712ZM276.216 53.376V54.512H284.36V53.376H276.216ZM275.528 59.664V60.816H284.36V59.664H275.528ZM278.664 47.872C278.44 51.696 277.928 57.168 277.496 60.208H278.632C279.032 57.248 279.528 51.824 279.8 47.952L278.664 47.872ZM281.976 47.504C281.944 51.472 281.704 57.072 281.416 60.224H282.6C282.824 57.136 283.032 51.552 283.112 47.504H281.976ZM270.792 50.64V51.68H275.016V50.64H270.792ZM269.912 53.44V54.48H275.512V53.44H269.912ZM270.216 55.536C270.488 56.496 270.744 57.712 270.808 58.528L271.64 58.288C271.544 57.488 271.288 56.272 271 55.328L270.216 55.536ZM269.736 59.664L269.992 60.736C271.512 60.4 273.592 59.904 275.56 59.44L275.496 58.464C273.352 58.928 271.144 59.392 269.736 59.664ZM274.472 55.136C274.312 56.016 274.008 57.296 273.752 58.08L274.456 58.336C274.728 57.584 275.064 56.416 275.352 55.424L274.472 55.136ZM272.296 51.104V59.808L273.304 59.648V51.104H272.296ZM272.76 46.48C272.024 48.048 270.744 49.536 269.496 50.464C269.656 50.768 269.928 51.408 270.008 51.68C271.384 50.528 272.824 48.72 273.704 46.896L272.76 46.48ZM272.376 48.128C273.496 48.88 274.744 49.936 275.48 50.704L276.056 49.744C275.304 48.992 274.056 48 272.872 47.264L272.376 48.128ZM290.68 53.072V54.176H300.392V53.072H290.68ZM297.528 51.744C297.096 56.992 295.288 59.2 290.328 60.192C290.536 60.48 290.84 61.024 290.92 61.296C296.184 60.048 298.216 57.6 298.824 51.792L297.528 51.744ZM291.672 56.656C294.328 57.936 297.736 59.904 299.384 61.232L300.184 60.272C298.456 58.944 295.016 57.056 292.408 55.84L291.672 56.656ZM294.488 46.736C294.76 47.52 295.096 48.544 295.224 49.216L296.44 48.96C296.312 48.304 295.976 47.28 295.656 46.512L294.488 46.736ZM291.672 56.656L292.904 56.88C293.784 55.296 294.968 52.656 295.608 50.496L294.376 50.32C293.8 52.384 292.616 55.04 291.672 56.656ZM291.128 48.624V51.744H292.264V49.68H298.952V51.712H300.12V48.624H291.128ZM285.48 55.568L285.768 56.736C287.256 56.288 289.192 55.664 291.032 55.072L290.856 53.984C288.888 54.592 286.856 55.2 285.48 55.568ZM285.656 49.792V50.912H290.712V49.792H285.656ZM287.816 46.576V59.904C287.816 60.128 287.72 60.208 287.528 60.208C287.32 60.208 286.648 60.208 285.928 60.192C286.072 60.512 286.248 60.992 286.28 61.28C287.352 61.296 287.992 61.264 288.408 61.072C288.824 60.896 288.984 60.56 288.984 59.904V46.576H287.816ZM308.712 47.504V48.656H314.632V47.504H308.712ZM308.216 53.376V54.512H316.36V53.376H308.216ZM307.528 59.664V60.816H316.36V59.664H307.528ZM310.664 47.872C310.44 51.696 309.928 57.168 309.496 60.208H310.632C311.032 57.248 311.528 51.824 311.8 47.952L310.664 47.872ZM313.976 47.504C313.944 51.472 313.704 57.072 313.416 60.224H314.6C314.824 57.136 315.032 51.552 315.112 47.504H313.976ZM302.792 50.64V51.68H307.016V50.64H302.792ZM301.912 53.44V54.48H307.512V53.44H301.912ZM302.216 55.536C302.488 56.496 302.744 57.712 302.808 58.528L303.64 58.288C303.544 57.488 303.288 56.272 303 55.328L302.216 55.536ZM301.736 59.664L301.992 60.736C303.512 60.4 305.592 59.904 307.56 59.44L307.496 58.464C305.352 58.928 303.144 59.392 301.736 59.664ZM306.472 55.136C306.312 56.016 306.008 57.296 305.752 58.08L306.456 58.336C306.728 57.584 307.064 56.416 307.352 55.424L306.472 55.136ZM304.296 51.104V59.808L305.304 59.648V51.104H304.296ZM304.76 46.48C304.024 48.048 302.744 49.536 301.496 50.464C301.656 50.768 301.928 51.408 302.008 51.68C303.384 50.528 304.824 48.72 305.704 46.896L304.76 46.48ZM304.376 48.128C305.496 48.88 306.744 49.936 307.48 50.704L308.056 49.744C307.304 48.992 306.056 48 304.872 47.264L304.376 48.128ZM322.68 53.072V54.176H332.392V53.072H322.68ZM329.528 51.744C329.096 56.992 327.288 59.2 322.328 60.192C322.536 60.48 322.84 61.024 322.92 61.296C328.184 60.048 330.216 57.6 330.824 51.792L329.528 51.744ZM323.672 56.656C326.328 57.936 329.736 59.904 331.384 61.232L332.184 60.272C330.456 58.944 327.016 57.056 324.408 55.84L323.672 56.656ZM326.488 46.736C326.76 47.52 327.096 48.544 327.224 49.216L328.44 48.96C328.312 48.304 327.976 47.28 327.656 46.512L326.488 46.736ZM323.672 56.656L324.904 56.88C325.784 55.296 326.968 52.656 327.608 50.496L326.376 50.32C325.8 52.384 324.616 55.04 323.672 56.656ZM323.128 48.624V51.744H324.264V49.68H330.952V51.712H332.12V48.624H323.128ZM317.48 55.568L317.768 56.736C319.256 56.288 321.192 55.664 323.032 55.072L322.856 53.984C320.888 54.592 318.856 55.2 317.48 55.568ZM317.656 49.792V50.912H322.712V49.792H317.656ZM319.816 46.576V59.904C319.816 60.128 319.72 60.208 319.528 60.208C319.32 60.208 318.648 60.208 317.928 60.192C318.072 60.512 318.248 60.992 318.28 61.28C319.352 61.296 319.992 61.264 320.408 61.072C320.824 60.896 320.984 60.56 320.984 59.904V46.576H319.816ZM340.712 47.504V48.656H346.632V47.504H340.712ZM340.216 53.376V54.512H348.36V53.376H340.216ZM339.528 59.664V60.816H348.36V59.664H339.528ZM342.664 47.872C342.44 51.696 341.928 57.168 341.496 60.208H342.632C343.032 57.248 343.528 51.824 343.8 47.952L342.664 47.872ZM345.976 47.504C345.944 51.472 345.704 57.072 345.416 60.224H346.6C346.824 57.136 347.032 51.552 347.112 47.504H345.976ZM334.792 50.64V51.68H339.016V50.64H334.792ZM333.912 53.44V54.48H339.512V53.44H333.912ZM334.216 55.536C334.488 56.496 334.744 57.712 334.808 58.528L335.64 58.288C335.544 57.488 335.288 56.272 335 55.328L334.216 55.536ZM333.736 59.664L333.992 60.736C335.512 60.4 337.592 59.904 339.56 59.44L339.496 58.464C337.352 58.928 335.144 59.392 333.736 59.664ZM338.472 55.136C338.312 56.016 338.008 57.296 337.752 58.08L338.456 58.336C338.728 57.584 339.064 56.416 339.352 55.424L338.472 55.136ZM336.296 51.104V59.808L337.304 59.648V51.104H336.296ZM336.76 46.48C336.024 48.048 334.744 49.536 333.496 50.464C333.656 50.768 333.928 51.408 334.008 51.68C335.384 50.528 336.824 48.72 337.704 46.896L336.76 46.48ZM336.376 48.128C337.496 48.88 338.744 49.936 339.48 50.704L340.056 49.744C339.304 48.992 338.056 48 336.872 47.264L336.376 48.128ZM274.68 77.072V78.176H284.392V77.072H274.68ZM281.528 75.744C281.096 80.992 279.288 83.2 274.328 84.192C274.536 84.48 274.84 85.024 274.92 85.296C280.184 84.048 282.216 81.6 282.824 75.792L281.528 75.744ZM275.672 80.656C278.328 81.936 281.736 83.904 283.384 85.232L284.184 84.272C282.456 82.944 279.016 81.056 276.408 79.84L275.672 80.656ZM278.488 70.736C278.76 71.52 279.096 72.544 279.224 73.216L280.44 72.96C280.312 72.304 279.976 71.28 279.656 70.512L278.488 70.736ZM275.672 80.656L276.904 80.88C277.784 79.296 278.968 76.656 279.608 74.496L278.376 74.32C277.8 76.384 276.616 79.04 275.672 80.656ZM275.128 72.624V75.744H276.264V73.68H282.952V75.712H284.12V72.624H275.128ZM269.48 79.568L269.768 80.736C271.256 80.288 273.192 79.664 275.032 79.072L274.856 77.984C272.888 78.592 270.856 79.2 269.48 79.568ZM269.656 73.792V74.912H274.712V73.792H269.656ZM271.816 70.576V83.904C271.816 84.128 271.72 84.208 271.528 84.208C271.32 84.208 270.648 84.208 269.928 84.192C270.072 84.512 270.248 84.992 270.28 85.28C271.352 85.296 271.992 85.264 272.408 85.072C272.824 84.896 272.984 84.56 272.984 83.904V70.576H271.816ZM292.712 71.504V72.656H298.632V71.504H292.712ZM292.216 77.376V78.512H300.36V77.376H292.216ZM291.528 83.664V84.816H300.36V83.664H291.528ZM294.664 71.872C294.44 75.696 293.928 81.168 293.496 84.208H294.632C295.032 81.248 295.528 75.824 295.8 71.952L294.664 71.872ZM297.976 71.504C297.944 75.472 297.704 81.072 297.416 84.224H298.6C298.824 81.136 299.032 75.552 299.112 71.504H297.976ZM286.792 74.64V75.68H291.016V74.64H286.792ZM285.912 77.44V78.48H291.512V77.44H285.912ZM286.216 79.536C286.488 80.496 286.744 81.712 286.808 82.528L287.64 82.288C287.544 81.488 287.288 80.272 287 79.328L286.216 79.536ZM285.736 83.664L285.992 84.736C287.512 84.4 289.592 83.904 291.56 83.44L291.496 82.464C289.352 82.928 287.144 83.392 285.736 83.664ZM290.472 79.136C290.312 80.016 290.008 81.296 289.752 82.08L290.456 82.336C290.728 81.584 291.064 80.416 291.352 79.424L290.472 79.136ZM288.296 75.104V83.808L289.304 83.648V75.104H288.296ZM288.76 70.48C288.024 72.048 286.744 73.536 285.496 74.464C285.656 74.768 285.928 75.408 286.008 75.68C287.384 74.528 288.824 72.72 289.704 70.896L288.76 70.48ZM288.376 72.128C289.496 72.88 290.744 73.936 291.48 74.704L292.056 73.744C291.304 72.992 290.056 72 288.872 71.264L288.376 72.128ZM306.68 77.072V78.176H316.392V77.072H306.68ZM313.528 75.744C313.096 80.992 311.288 83.2 306.328 84.192C306.536 84.48 306.84 85.024 306.92 85.296C312.184 84.048 314.216 81.6 314.824 75.792L313.528 75.744ZM307.672 80.656C310.328 81.936 313.736 83.904 315.384 85.232L316.184 84.272C314.456 82.944 311.016 81.056 308.408 79.84L307.672 80.656ZM310.488 70.736C310.76 71.52 311.096 72.544 311.224 73.216L312.44 72.96C312.312 72.304 311.976 71.28 311.656 70.512L310.488 70.736ZM307.672 80.656L308.904 80.88C309.784 79.296 310.968 76.656 311.608 74.496L310.376 74.32C309.8 76.384 308.616 79.04 307.672 80.656ZM307.128 72.624V75.744H308.264V73.68H314.952V75.712H316.12V72.624H307.128ZM301.48 79.568L301.768 80.736C303.256 80.288 305.192 79.664 307.032 79.072L306.856 77.984C304.888 78.592 302.856 79.2 301.48 79.568ZM301.656 73.792V74.912H306.712V73.792H301.656ZM303.816 70.576V83.904C303.816 84.128 303.72 84.208 303.528 84.208C303.32 84.208 302.648 84.208 301.928 84.192C302.072 84.512 302.248 84.992 302.28 85.28C303.352 85.296 303.992 85.264 304.408 85.072C304.824 84.896 304.984 84.56 304.984 83.904V70.576H303.816ZM324.056 71.408V72.528H330.024V71.408H324.056ZM323.416 77.328V78.432H332.28V77.328H323.416ZM323.576 83.728V84.848H332.024V83.728H323.576ZM326.232 71.84C326.056 75.712 325.608 81.168 325.192 84.256H326.424C326.776 81.232 327.192 75.792 327.416 71.84H326.232ZM329.576 71.408C329.592 75.44 329.416 81.12 329.192 84.32H330.408C330.6 81.168 330.728 75.504 330.728 71.408H329.576ZM321.416 76.864C321.88 77.904 322.344 79.28 322.52 80.096L323.384 79.76C323.224 78.96 322.728 77.616 322.248 76.592L321.416 76.864ZM319.944 80.976C320.136 82.048 320.312 83.456 320.344 84.384L321.256 84.16C321.208 83.248 321 81.872 320.824 80.8L319.944 80.976ZM318.264 80.864C318.12 82.16 317.88 83.6 317.512 84.576C317.752 84.64 318.216 84.8 318.424 84.912C318.76 83.92 319.064 82.416 319.24 81.024L318.264 80.864ZM317.896 76.56C317.896 76.32 318.648 75.936 318.648 75.936V75.92C319.704 74.64 320.792 72.768 321.608 70.976L320.504 70.512C319.864 72.256 318.76 74.112 318.408 74.576C318.088 75.072 317.8 75.408 317.528 75.472C317.656 75.776 317.832 76.32 317.896 76.56ZM317.896 76.56C318.152 76.432 318.6 76.352 321.128 76.048C321.128 75.824 321.176 75.408 321.224 75.104L318.44 75.36L317.88 75.696L317.896 76.56ZM318.008 80.16C318.008 79.92 318.76 79.584 318.76 79.584V79.536C320.264 77.984 321.784 75.76 323 73.584L321.992 72.992C320.952 75.152 319.32 77.424 318.808 78C318.328 78.592 317.976 79.008 317.624 79.072C317.768 79.376 317.944 79.936 318.008 80.16ZM318.008 80.16C318.328 80 318.84 79.872 322.68 79.28C322.68 79.056 322.68 78.64 322.728 78.352L318.52 78.928L317.96 79.296L318.008 80.16ZM321.528 80.656C321.864 81.568 322.232 82.752 322.376 83.536L323.24 83.248C323.096 82.48 322.696 81.296 322.36 80.384L321.528 80.656Z" fill="white"/>
<rect width="140" height="50" transform="translate(422 40)" fill="#003A9F"/>
<path d="M465.68 65.072V66.176H475.392V65.072H465.68ZM472.528 63.744C472.096 68.992 470.288 71.2 465.328 72.192C465.536 72.48 465.84 73.024 465.92 73.296C471.184 72.048 473.216 69.6 473.824 63.792L472.528 63.744ZM466.672 68.656C469.328 69.936 472.736 71.904 474.384 73.232L475.184 72.272C473.456 70.944 470.016 69.056 467.408 67.84L466.672 68.656ZM469.488 58.736C469.76 59.52 470.096 60.544 470.224 61.216L471.44 60.96C471.312 60.304 470.976 59.28 470.656 58.512L469.488 58.736ZM466.672 68.656L467.904 68.88C468.784 67.296 469.968 64.656 470.608 62.496L469.376 62.32C468.8 64.384 467.616 67.04 466.672 68.656ZM466.128 60.624V63.744H467.264V61.68H473.952V63.712H475.12V60.624H466.128ZM460.48 67.568L460.768 68.736C462.256 68.288 464.192 67.664 466.032 67.072L465.856 65.984C463.888 66.592 461.856 67.2 460.48 67.568ZM460.656 61.792V62.912H465.712V61.792H460.656ZM462.816 58.576V71.904C462.816 72.128 462.72 72.208 462.528 72.208C462.32 72.208 461.648 72.208 460.928 72.192C461.072 72.512 461.248 72.992 461.28 73.28C462.352 73.296 462.992 73.264 463.408 73.072C463.824 72.896 463.984 72.56 463.984 71.904V58.576H462.816ZM483.712 59.504V60.656H489.632V59.504H483.712ZM483.216 65.376V66.512H491.36V65.376H483.216ZM482.528 71.664V72.816H491.36V71.664H482.528ZM485.664 59.872C485.44 63.696 484.928 69.168 484.496 72.208H485.632C486.032 69.248 486.528 63.824 486.8 59.952L485.664 59.872ZM488.976 59.504C488.944 63.472 488.704 69.072 488.416 72.224H489.6C489.824 69.136 490.032 63.552 490.112 59.504H488.976ZM477.792 62.64V63.68H482.016V62.64H477.792ZM476.912 65.44V66.48H482.512V65.44H476.912ZM477.216 67.536C477.488 68.496 477.744 69.712 477.808 70.528L478.64 70.288C478.544 69.488 478.288 68.272 478 67.328L477.216 67.536ZM476.736 71.664L476.992 72.736C478.512 72.4 480.592 71.904 482.56 71.44L482.496 70.464C480.352 70.928 478.144 71.392 476.736 71.664ZM481.472 67.136C481.312 68.016 481.008 69.296 480.752 70.08L481.456 70.336C481.728 69.584 482.064 68.416 482.352 67.424L481.472 67.136ZM479.296 63.104V71.808L480.304 71.648V63.104H479.296ZM479.76 58.48C479.024 60.048 477.744 61.536 476.496 62.464C476.656 62.768 476.928 63.408 477.008 63.68C478.384 62.528 479.824 60.72 480.704 58.896L479.76 58.48ZM479.376 60.128C480.496 60.88 481.744 61.936 482.48 62.704L483.056 61.744C482.304 60.992 481.056 60 479.872 59.264L479.376 60.128ZM497.68 65.072V66.176H507.392V65.072H497.68ZM504.528 63.744C504.096 68.992 502.288 71.2 497.328 72.192C497.536 72.48 497.84 73.024 497.92 73.296C503.184 72.048 505.216 69.6 505.824 63.792L504.528 63.744ZM498.672 68.656C501.328 69.936 504.736 71.904 506.384 73.232L507.184 72.272C505.456 70.944 502.016 69.056 499.408 67.84L498.672 68.656ZM501.488 58.736C501.76 59.52 502.096 60.544 502.224 61.216L503.44 60.96C503.312 60.304 502.976 59.28 502.656 58.512L501.488 58.736ZM498.672 68.656L499.904 68.88C500.784 67.296 501.968 64.656 502.608 62.496L501.376 62.32C500.8 64.384 499.616 67.04 498.672 68.656ZM498.128 60.624V63.744H499.264V61.68H505.952V63.712H507.12V60.624H498.128ZM492.48 67.568L492.768 68.736C494.256 68.288 496.192 67.664 498.032 67.072L497.856 65.984C495.888 66.592 493.856 67.2 492.48 67.568ZM492.656 61.792V62.912H497.712V61.792H492.656ZM494.816 58.576V71.904C494.816 72.128 494.72 72.208 494.528 72.208C494.32 72.208 493.648 72.208 492.928 72.192C493.072 72.512 493.248 72.992 493.28 73.28C494.352 73.296 494.992 73.264 495.408 73.072C495.824 72.896 495.984 72.56 495.984 71.904V58.576H494.816ZM515.712 59.504V60.656H521.632V59.504H515.712ZM515.216 65.376V66.512H523.36V65.376H515.216ZM514.528 71.664V72.816H523.36V71.664H514.528ZM517.664 59.872C517.44 63.696 516.928 69.168 516.496 72.208H517.632C518.032 69.248 518.528 63.824 518.8 59.952L517.664 59.872ZM520.976 59.504C520.944 63.472 520.704 69.072 520.416 72.224H521.6C521.824 69.136 522.032 63.552 522.112 59.504H520.976ZM509.792 62.64V63.68H514.016V62.64H509.792ZM508.912 65.44V66.48H514.512V65.44H508.912ZM509.216 67.536C509.488 68.496 509.744 69.712 509.808 70.528L510.64 70.288C510.544 69.488 510.288 68.272 510 67.328L509.216 67.536ZM508.736 71.664L508.992 72.736C510.512 72.4 512.592 71.904 514.56 71.44L514.496 70.464C512.352 70.928 510.144 71.392 508.736 71.664ZM513.472 67.136C513.312 68.016 513.008 69.296 512.752 70.08L513.456 70.336C513.728 69.584 514.064 68.416 514.352 67.424L513.472 67.136ZM511.296 63.104V71.808L512.304 71.648V63.104H511.296ZM511.76 58.48C511.024 60.048 509.744 61.536 508.496 62.464C508.656 62.768 508.928 63.408 509.008 63.68C510.384 62.528 511.824 60.72 512.704 58.896L511.76 58.48ZM511.376 60.128C512.496 60.88 513.744 61.936 514.48 62.704L515.056 61.744C514.304 60.992 513.056 60 511.872 59.264L511.376 60.128Z" fill="white"/>
<path d="M452.719 66C452.719 70.8153 448.815 74.7188 444 74.7188C439.185 74.7188 435.281 70.8153 435.281 66C435.281 61.1847 439.185 57.2812 444 57.2812C448.815 57.2812 452.719 61.1847 452.719 66ZM442.991 70.6165L449.46 64.1477C449.68 63.9281 449.68 63.5719 449.46 63.3523L448.665 62.5568C448.445 62.3371 448.089 62.3371 447.869 62.5568L442.594 67.8322L440.131 65.3692C439.911 65.1496 439.555 65.1496 439.335 65.3692L438.54 66.1647C438.32 66.3843 438.32 66.7405 438.54 66.9602L442.196 70.6164C442.416 70.8361 442.772 70.8361 442.992 70.6165L442.991 70.6165Z" fill="white"/>
<defs>
<filter id="filter0_d_11_40" x="613" y="40" width="148" height="58" filterUnits="userSpaceOnUse" color-interpolation-filters="sRGB">
<feFlood flood-opacity="0" result="BackgroundImageFix"/>
<feColorMatrix in="SourceAlpha" type="matrix" values="0 0 0 0 0 0 0 0 0 0 0 0 0 0 0 0 0 0 127 0" result="hardAlpha"/>
<feOffset dx="4" dy="4"/>
<feGaussianBlur stdDeviation="2"/>
<feComposite in2="hardAlpha" operator="out"/>
<feColorMatrix type="matrix" values="0 0 0 0 0 0 0 0 0 0 0 0 0 0 0 0 0 0 0.25 0"/>
<feBlend mode="normal" in2="BackgroundImageFix" result="effect1_dropShadow_11_40"/>
<feBlend mode="normal" in="SourceGraphic" in2="effect1_dropShadow_11_40" result="shape"/>
</filter>
</defs>
</svg>
