<svg width="790" height="388" viewBox="0 0 790 388" fill="none" xmlns="http://www.w3.org/2000/svg">
<rect x="115" y="40" width="560" height="308" fill="white"/>
<path d="M146.024 162.936V164.152H159.992V162.936H146.024ZM148.616 170.072V171.288H157.352V170.072H148.616ZM152.344 159.576V174.28H153.608V159.576H152.344ZM151.192 163.336C150.088 166.36 147.928 169.336 145.592 170.776C145.88 171.016 146.264 171.448 146.472 171.752C148.888 170.072 151.064 167.016 152.28 163.672L151.192 163.336ZM154.728 163.384L153.656 163.704C154.856 167.032 157.016 170.104 159.496 171.704C159.704 171.368 160.12 170.904 160.44 170.664C157.992 169.288 155.816 166.392 154.728 163.384ZM168.28 159.576C167.784 162.12 166.904 164.632 165.688 166.184C166.008 166.328 166.6 166.68 166.872 166.872C168.056 165.176 169.016 162.552 169.592 159.816L168.28 159.576ZM168.104 162.312L167.576 163.496H174.968V162.312H168.104ZM174.6 162.312V162.6C174.36 163.88 173.704 165.592 173.208 166.584C173.48 166.712 173.96 166.952 174.216 167.08C174.776 165.976 175.496 164.296 175.896 162.728L175.016 162.248L174.776 162.312H174.6ZM171.048 165.736L170.024 165.912C170.808 169.944 172.408 172.872 175.608 174.184C175.784 173.848 176.152 173.368 176.408 173.128C173.352 172.056 171.752 169.32 171.048 165.736ZM169.88 164.152V165.4C169.88 167.704 169.528 171.048 164.888 173.384C165.176 173.608 165.592 174.04 165.784 174.344C170.696 171.8 171.144 168.072 171.144 165.416V164.152H169.88ZM162.136 162.088V163.256H166.36V162.088H162.136ZM161.784 168.696V169.88H166.856V168.696H161.784ZM188.152 166.84C187.304 167.672 185.688 168.424 184.248 168.856C184.488 169.032 184.776 169.336 184.936 169.56C186.456 169.064 188.104 168.232 189.08 167.208L188.152 166.84ZM189.688 168.376C188.6 169.512 186.504 170.424 184.472 170.888C184.696 171.096 184.936 171.448 185.096 171.672C187.24 171.096 189.384 170.088 190.6 168.76L189.688 168.376ZM191.192 170.12C189.752 171.768 186.808 172.792 183.592 173.256C183.832 173.512 184.104 173.928 184.216 174.216C187.608 173.624 190.632 172.472 192.216 170.568L191.192 170.12ZM186.024 159.56C185.368 161.272 184.2 162.936 182.92 164.008C183.192 164.168 183.64 164.536 183.832 164.728C185.128 163.544 186.36 161.736 187.144 159.832L186.024 159.56ZM185.672 161.304L185.064 162.312H192.184V161.304H185.672ZM189.992 161.528C188.904 164.248 186.28 165.816 183.048 166.648C183.272 166.872 183.624 167.352 183.768 167.592C187.08 166.568 189.832 164.84 191.128 161.8L189.992 161.528ZM185.56 161.928L184.824 162.52C185.88 164.504 188.28 166.6 192.04 167.448C192.184 167.16 192.472 166.712 192.696 166.488C188.952 165.784 186.536 163.848 185.56 161.928ZM181.96 161.464V171.624H183.016V161.464H181.96ZM180.712 159.656C179.944 162.136 178.664 164.6 177.272 166.2C177.48 166.504 177.8 167.144 177.896 167.416C179.496 165.56 180.92 162.744 181.832 159.976L180.712 159.656ZM179.432 163.576V174.28H180.584V162.504L180.552 162.472L179.432 163.576ZM201.976 162.536V163.64H208.216V162.536H201.976ZM202.536 159.56C202.008 162.264 201.096 164.888 199.768 166.536C200.04 166.744 200.504 167.192 200.696 167.416C202.072 165.576 203.096 162.744 203.72 159.784L202.536 159.56ZM205.976 163.192C205.256 168.296 203.576 171.496 199.64 173.256C199.88 173.512 200.248 174.056 200.376 174.344C204.52 172.296 206.36 168.888 207.224 163.336L205.976 163.192ZM202.52 163.544L201.448 163.752C202.392 168.616 204.168 172.44 207.64 174.216C207.832 173.896 208.184 173.432 208.472 173.208C205.144 171.672 203.336 167.992 202.52 163.544ZM194.392 173.512C194.76 173.208 195.352 172.92 200.024 171.128C199.96 170.856 199.88 170.36 199.88 170.008L194.808 171.816L194.248 172.328L194.392 173.512ZM194.392 173.512C194.392 173.08 195.624 172.536 195.624 172.536V165.272H194.424V171.368C194.424 171.96 194.152 172.168 193.912 172.264C194.12 172.584 194.328 173.176 194.392 173.512ZM194.216 160.68V161.864H198.696V165.272H194.696V166.456H199.896V160.68H194.216ZM214.184 161.048V161.976H224.312V161.048H214.184ZM214.632 168.92V169.832H223.816V168.92H214.632ZM214.984 170.936V171.848H223.464V170.936H214.984ZM213.976 173.064V174.008H224.36V173.064H213.976ZM218.6 163.512V173.576H219.784V163.512H218.6ZM216.024 165.592H222.44V167.096H216.024V165.592ZM214.92 164.728V167.96H223.592V164.728H214.92ZM216.344 159.56V163.944H222.12V159.56H220.952V163.096H217.48V159.56H216.344ZM213.224 159.624C212.328 162.056 210.824 164.456 209.24 166.008C209.464 166.28 209.8 166.92 209.928 167.192C211.656 165.4 213.304 162.696 214.36 159.976L213.224 159.624ZM211.56 163.752V174.264H212.712V162.632L212.68 162.616L211.56 163.752ZM228.12 160.696V161.848H238.472V160.696H228.12ZM228.12 164.424V165.56H238.456V164.424H228.12ZM228.04 168.248V169.384H238.488V168.248H228.04ZM227.448 160.696V166.488C227.448 168.744 227.272 171.592 225.512 173.576C225.768 173.736 226.248 174.136 226.44 174.376C228.344 172.248 228.632 168.936 228.632 166.504V160.696H227.448ZM237.992 160.696V172.648C237.992 172.952 237.88 173.048 237.576 173.064C237.272 173.064 236.184 173.08 235.048 173.032C235.224 173.352 235.416 173.88 235.464 174.2C236.984 174.216 237.912 174.2 238.456 174.008C238.984 173.8 239.176 173.432 239.176 172.648V160.696H237.992ZM232.472 161.128V174.136H233.688V161.128H232.472ZM241.8 162.2V163.32H248.296V162.2H241.8ZM244.2 165.544V166.648H247.016V165.544H244.2ZM243.4 162.792C243.352 167.4 243.272 171.208 241.48 173.352C241.784 173.544 242.2 173.944 242.392 174.232C244.36 171.816 244.52 167.736 244.584 162.792H243.4ZM246.584 165.544V165.784C246.392 170.616 246.2 172.312 245.896 172.728C245.768 172.888 245.64 172.936 245.432 172.92C245.208 172.92 244.728 172.92 244.2 172.872C244.36 173.176 244.472 173.656 244.488 173.976C245.064 174.008 245.624 174.008 245.96 173.96C246.376 173.928 246.632 173.816 246.888 173.448C247.336 172.888 247.512 171.144 247.704 166.088C247.72 165.928 247.72 165.544 247.72 165.544H246.584ZM250.376 166.536C251.352 167.192 252.568 168.152 253.16 168.76L253.976 167.864C253.368 167.256 252.136 166.36 251.16 165.752L250.376 166.536ZM249.4 171.08C250.92 171.864 252.84 173.08 253.768 173.928L254.584 172.888C253.624 172.072 251.656 170.904 250.168 170.184L249.4 171.08ZM243.704 159.912C244.248 160.632 244.824 161.576 245.032 162.2L246.152 161.736C245.912 161.128 245.32 160.184 244.76 159.512L243.704 159.912ZM252.504 160.488L251.576 160.824C252.456 162.856 254.056 165.016 255.656 166.056C255.864 165.736 256.264 165.304 256.552 165.08C254.984 164.216 253.32 162.264 252.504 160.488ZM251.784 159.48C251.08 161.944 249.64 164.056 247.768 165.224C248.072 165.464 248.424 165.864 248.6 166.168C250.632 164.76 252.088 162.504 252.904 159.816L251.784 159.48ZM258.456 164.408V165.368H263.368V164.408H258.456ZM258.456 166.504V167.464H263.352V166.504H258.456ZM257.752 162.28V163.288H263.864V162.28H257.752ZM259 168.648V169.656H262.232V172.312H259V173.32H263.304V168.648H259ZM258.456 168.648V174.072H259.512V168.648H258.456ZM259.544 159.976C259.976 160.632 260.504 161.544 260.744 162.136L261.72 161.56C261.464 161 260.952 160.152 260.488 159.496L259.544 159.976ZM264.184 160.92V162.088H272.376V160.92H264.184ZM268.696 161.256V172.472C268.696 172.776 268.584 172.872 268.264 172.888C267.912 172.92 266.712 172.92 265.48 172.872C265.688 173.208 265.896 173.784 265.976 174.12C267.528 174.12 268.536 174.104 269.128 173.896C269.704 173.704 269.896 173.304 269.896 172.488V161.256H268.696ZM280.328 164.68V174.28H281.56V164.68H280.328ZM276.696 167.384H285.4V168.776H276.696V167.384ZM276.696 165.096H285.4V166.456H276.696V165.096ZM275.528 164.12V169.736H286.616V164.12H275.528ZM273.912 170.968V172.024H288.104V170.968H273.912ZM276.184 161H279.256V162.52H276.184V161ZM275.096 160.2V163.32H280.376V160.2H275.096ZM282.76 161H285.864V162.52H282.76V161ZM281.672 160.2V163.32H287V160.2H281.672ZM294.12 161.336V162.456H304.392V161.336H294.12ZM295.704 165.032H302.696V167.432H295.704V165.032ZM294.6 164.008V168.456H303.864V164.008H294.6ZM295.592 168.776L294.6 169.112C296.296 172.04 299.576 173.704 303.816 174.312C303.976 173.976 304.28 173.496 304.536 173.24C300.376 172.776 297.096 171.288 295.592 168.776ZM298.568 159.624V166.696C298.568 169.4 298.296 172.136 293.544 173.336C293.784 173.592 294.12 174.072 294.264 174.344C299.224 172.872 299.752 169.8 299.752 166.712V159.624H298.568ZM293.432 159.528C292.504 161.96 290.936 164.344 289.32 165.864C289.544 166.152 289.88 166.776 289.992 167.048C291.768 165.272 293.48 162.584 294.568 159.88L293.432 159.528ZM291.752 163.72V174.36H292.904V162.6L292.888 162.584L291.752 163.72ZM308.12 160.696V161.848H318.472V160.696H308.12ZM308.12 164.424V165.56H318.456V164.424H308.12ZM308.04 168.248V169.384H318.488V168.248H308.04ZM307.448 160.696V166.488C307.448 168.744 307.272 171.592 305.512 173.576C305.768 173.736 306.248 174.136 306.44 174.376C308.344 172.248 308.632 168.936 308.632 166.504V160.696H307.448ZM317.992 160.696V172.648C317.992 172.952 317.88 173.048 317.576 173.064C317.272 173.064 316.184 173.08 315.048 173.032C315.224 173.352 315.416 173.88 315.464 174.2C316.984 174.216 317.912 174.2 318.456 174.008C318.984 173.8 319.176 173.432 319.176 172.648V160.696H317.992ZM312.472 161.128V174.136H313.688V161.128H312.472ZM327.688 169.992C329.368 169.416 330.456 168.104 330.456 166.376C330.456 165.256 329.976 164.52 329.08 164.52C328.44 164.52 327.864 164.92 327.864 165.672C327.864 166.424 328.408 166.824 329.064 166.824C329.368 166.824 329.688 166.744 329.912 166.456L329.048 165.24L329.352 166.584C329.352 167.8 328.632 168.616 327.32 169.144L327.688 169.992ZM341.72 172.408V173.496H349.976V172.408H341.72ZM343.8 163.16C342.68 166.728 340.552 169.416 337.496 171.016C337.768 171.24 338.232 171.72 338.408 171.96C341.48 170.184 343.72 167.32 345.016 163.448L343.8 163.16ZM341.16 168.312V174.28H342.36V169.4H349.608V174.248H350.856V168.312H341.16ZM337.864 165.032V166.152H352.152V165.032H337.864ZM337.96 161.016V162.104H344.648V161.016H337.96ZM340.824 159.56V163.72H342.024V159.56H340.824ZM347.88 159.56V163.736H349.08V159.56H347.88ZM345.32 161.016V162.104H352.136V161.016H345.32ZM354.904 160.248V161.16H367.048V160.248H354.904ZM360.344 160.552V166.824H361.528V160.552H360.344ZM354.2 162.344V165.8H355.352V163.288H366.6V165.8H367.8V162.344H354.2ZM355.64 166.04L355.992 166.968C357.032 166.776 358.248 166.52 359.496 166.264L359.464 165.496C358.024 165.72 356.648 165.928 355.64 166.04ZM356.04 164.216C357.096 164.424 358.44 164.84 359.144 165.144L359.496 164.424C358.776 164.104 357.432 163.752 356.392 163.576L356.04 164.216ZM365.432 163.496C364.664 163.784 363.304 164.264 362.392 164.472L362.824 165.096C363.752 164.888 365.048 164.584 365.976 164.184L365.432 163.496ZM362.184 166.152C363.448 166.328 365.08 166.712 365.96 167.016L366.216 166.2C365.336 165.896 363.72 165.544 362.472 165.416L362.184 166.152ZM354.024 167.304V168.28H368.008V167.304H354.024ZM358.776 170.056V174.168H359.896V170.056H358.776ZM362.328 170.056V174.168H363.432V170.056H362.328ZM355.272 169.432V174.264H356.408V170.424H366.248V169.432H355.272ZM365.944 169.432V173.08C365.944 173.224 365.896 173.272 365.72 173.288C365.544 173.304 365 173.304 364.36 173.288C364.504 173.576 364.68 173.992 364.728 174.28C365.608 174.28 366.2 174.296 366.6 174.104C367.016 173.928 367.096 173.64 367.096 173.096V169.432H365.944ZM360.376 167.672C360.264 168.328 359.976 169.288 359.736 169.944L360.792 170.056C361.064 169.464 361.4 168.584 361.688 167.72L360.376 167.672ZM370.264 164.408V165.368H374.6V164.408H370.264ZM370.776 168.648V169.656H373.624V172.312H370.776V173.32H374.616V168.648H370.776ZM370.264 168.648V174.056H371.256V168.648H370.264ZM370.264 166.504V167.464H374.6V166.504H370.264ZM369.64 162.28V163.288H375.096V162.28H369.64ZM371.352 159.992C371.752 160.664 372.264 161.576 372.504 162.152L373.448 161.672C373.192 161.128 372.68 160.248 372.232 159.592L371.352 159.992ZM375.992 160.296V166.296C375.992 168.584 375.88 171.608 374.68 173.72C374.904 173.816 375.336 174.136 375.528 174.312C376.824 172.104 377 168.712 377 166.296V160.296H375.992ZM376.504 160.296V161.368H383.384V160.296H376.504ZM382.872 160.296V172.808C382.872 173.032 382.792 173.096 382.552 173.112C382.344 173.128 381.624 173.128 380.792 173.096C380.952 173.384 381.112 173.864 381.144 174.136C382.248 174.136 382.92 174.12 383.336 173.944C383.736 173.768 383.88 173.416 383.88 172.808V160.296H382.872ZM376.76 163.08V164.072H383.096V163.08H376.76ZM376.712 165.704V166.68H383.128V165.704H376.712ZM379.4 160.904V166.232H380.424V160.904H379.4ZM378.248 167.752V168.648H381.048V170.616H378.248V171.528H381.992V167.752H378.248ZM377.704 167.752V172.264H378.6V167.752H377.704ZM386.824 168.312V169.32H399.224V168.312H386.824ZM385.896 160.568V161.48H393.208V160.568H385.896ZM393.032 170.568V171.512H398.184V170.568H393.032ZM385.752 172.824V173.864H400.28V172.824H385.752ZM392.376 168.68V173.272H393.56V168.68H392.376ZM389.08 159.56V167.864H390.152V159.56H389.08ZM388.376 170.152V173.352H389.528V170.152H388.376ZM387.352 163.112H391.752V164.296H387.352V163.112ZM386.376 162.296V165.08H392.792V162.296H386.376ZM395.208 159.576C394.76 161.192 393.96 162.68 392.904 163.656C393.144 163.848 393.56 164.248 393.72 164.472C394.84 163.368 395.784 161.64 396.296 159.816L395.208 159.576ZM394.968 161.352L394.472 162.36H400.216V161.352H394.968ZM398.184 161.784C397.544 164.616 395.736 166.28 392.936 167.16C393.16 167.368 393.512 167.832 393.64 168.056C396.552 166.952 398.52 165.128 399.304 161.912L398.184 161.784ZM395.096 161.944L394.312 162.472C395.032 164.536 396.728 166.984 399.704 168.088C399.832 167.816 400.152 167.368 400.392 167.144C397.432 166.2 395.768 163.928 395.096 161.944ZM388.968 164.776C388.248 165.736 386.856 166.744 385.624 167.208C385.848 167.384 386.168 167.752 386.328 167.992C387.576 167.416 389 166.232 389.752 165.112L388.968 164.776ZM390.088 165.768C390.872 166.168 391.784 166.76 392.264 167.208L392.792 166.504C392.328 166.056 391.368 165.496 390.616 165.144L390.088 165.768ZM404.632 164.984H413.304V167.4H404.632V164.984ZM403.608 164.168V168.216H414.392V164.168H403.608ZM406.232 162.488V163.336H411.816V162.488H406.232ZM408.44 164.456V167.8H409.448V164.456H408.44ZM405.608 165.464C406.008 166.04 406.376 166.824 406.504 167.336L407.432 167C407.272 166.488 406.888 165.736 406.472 165.176L405.608 165.464ZM411.368 165.112C411.176 165.656 410.776 166.504 410.472 167.048L411.304 167.336C411.624 166.856 412.04 166.12 412.392 165.432L411.368 165.112ZM404.552 168.984V174.28H405.736V169.832H412.376V174.216H413.592V168.984H404.552ZM405.256 170.904V171.784H412.904V170.904H405.256ZM405.256 172.872V173.736H412.904V172.872H405.256ZM408.872 159.496C407.384 161.448 404.52 162.856 401.592 163.656C401.816 163.864 402.152 164.36 402.28 164.6C405.24 163.64 408.248 162.104 409.944 159.896L408.872 159.496ZM409.576 160.056L408.648 160.456C410.264 162.232 413.176 163.768 415.768 164.472C415.944 164.184 416.28 163.752 416.536 163.544C413.944 162.936 411.048 161.592 409.576 160.056ZM421.224 161.16H428.824V162.808H421.224V161.16ZM420.024 160.184V163.8H430.088V160.184H420.024ZM420.536 167.592H429.496V168.728H420.536V167.592ZM420.536 169.576H429.496V170.728H420.536V169.576ZM420.536 165.624H429.496V166.744H420.536V165.624ZM419.336 164.728V171.608H430.728V164.728H419.336ZM422.392 171.592C421.384 172.248 419.288 173.016 417.608 173.416C417.896 173.656 418.296 174.04 418.504 174.296C420.152 173.88 422.232 173.112 423.512 172.328L422.392 171.592ZM426.296 172.424C427.992 172.92 430.168 173.752 431.352 174.312L432.392 173.448C431.144 172.92 429 172.136 427.336 171.64L426.296 172.424ZM437.048 167.928H445.112V169.016H437.048V167.928ZM437.048 169.8H445.112V170.92H437.048V169.8ZM437.048 166.056H445.112V167.144H437.048V166.056ZM435.88 165.256V171.72H446.312V165.256H435.88ZM442.52 172.472C444.248 173.032 445.976 173.72 447 174.232L448.072 173.544C446.936 173.032 445.064 172.328 443.32 171.8L442.52 172.472ZM438.568 171.816C437.416 172.456 435.496 173.016 433.848 173.368C434.12 173.576 434.536 174.04 434.728 174.264C436.328 173.832 438.36 173.096 439.656 172.328L438.568 171.816ZM440.408 160.648V161.592H447V160.648H440.408ZM440.664 159.528C440.296 160.68 439.624 161.816 438.792 162.584C439.064 162.728 439.512 163.016 439.704 163.192C440.536 162.376 441.304 161.08 441.736 159.768L440.664 159.528ZM442.568 161.24V161.752C442.568 162.568 442.168 163.672 438.008 164.216C438.216 164.44 438.536 164.856 438.648 165.144C443.16 164.44 443.672 163 443.672 161.784V161.24H442.568ZM443.512 162.184L442.664 162.392C443.544 163.816 445.384 164.728 447.688 165.064C447.832 164.76 448.136 164.328 448.376 164.088C446.152 163.896 444.328 163.224 443.512 162.184ZM434.12 160.52V161.464H437.976V160.52H434.12ZM433.768 163.016V163.992H438.376V163.016H433.768ZM446.6 160.648V160.824C446.312 161.512 445.864 162.328 445.496 162.856L446.44 163.192C446.888 162.616 447.4 161.688 447.8 160.872L446.984 160.6L446.808 160.648H446.6ZM452.328 159.576V174.28H453.448V159.576H452.328ZM449.752 164.936V166.072H456.072V164.936H449.752ZM449.864 160.824C450.28 161.944 450.664 163.432 450.728 164.376L451.688 164.152C451.576 163.176 451.208 161.72 450.744 160.6L449.864 160.824ZM455.032 160.536C454.808 161.624 454.328 163.208 453.96 164.168L454.744 164.408C455.176 163.512 455.672 162.008 456.088 160.808L455.032 160.536ZM461.24 159.576V174.28H462.376V159.576H461.24ZM456.04 169.752L456.232 170.872L464.456 169.384L464.264 168.28L456.04 169.752ZM457.24 161.528C458.168 162.104 459.272 162.968 459.784 163.592L460.424 162.664C459.896 162.072 458.792 161.256 457.864 160.712L457.24 161.528ZM456.424 165.56C457.384 166.088 458.536 166.904 459.096 167.48L459.704 166.536C459.128 165.96 457.944 165.208 456.984 164.712L456.424 165.56ZM451.128 167C450.872 168.44 450.184 170.216 449.528 171.16C449.752 171.512 450.024 172.088 450.152 172.488C450.984 171.352 451.672 169.08 452.008 167.288L451.128 167ZM454.184 167.016L453.512 167.496C453.864 168.2 454.744 170.248 455.016 171.128L455.896 170.216C455.64 169.688 454.488 167.496 454.184 167.016ZM471.688 169.992C473.368 169.416 474.456 168.104 474.456 166.376C474.456 165.256 473.976 164.52 473.08 164.52C472.44 164.52 471.864 164.92 471.864 165.672C471.864 166.424 472.408 166.824 473.064 166.824C473.368 166.824 473.688 166.744 473.912 166.456L473.048 165.24L473.352 166.584C473.352 167.8 472.632 168.616 471.32 169.144L471.688 169.992ZM487.592 160.872V161.784H496.2V160.872H487.592ZM487.992 162.776V163.656H495.896V162.776H487.992ZM487.416 164.744V165.672H496.36V164.744H487.416ZM491.224 159.56V165.24H492.392V159.56H491.224ZM494.296 166.632V173.032C494.296 173.208 494.248 173.272 494.04 173.272C493.832 173.288 493.176 173.288 492.456 173.256C492.6 173.544 492.76 173.96 492.808 174.248C493.8 174.264 494.472 174.248 494.888 174.088C495.304 173.912 495.432 173.608 495.432 173.032V166.632H494.296ZM488.952 168.744V169.624H494.872V168.744H488.952ZM488.952 170.808V171.672H494.872V170.808H488.952ZM488.36 166.632V169.576C488.36 170.856 488.248 172.472 487.304 173.688C487.528 173.832 487.976 174.248 488.136 174.472C489.256 173.112 489.464 171.096 489.464 169.592V166.632H488.36ZM489 166.632V167.576H494.696V166.632H489ZM482.088 164.296V165.256H486.76V164.296H482.088ZM482.744 168.68V169.672H485.672V172.344H482.744V173.352H486.728V168.68H482.744ZM482.168 168.68V174.088H483.208V168.68H482.168ZM482.104 166.472V167.448H486.776V166.472H482.104ZM481.704 162.248V163.256H487.24V162.248H481.704ZM483.608 159.912C483.912 160.6 484.264 161.512 484.408 162.088L485.464 161.704C485.304 161.144 484.952 160.264 484.616 159.592L483.608 159.912ZM497.848 162.088V163.208H512.152V162.088H497.848ZM499.496 167.24V168.184H503.976V167.24H499.496ZM499.496 169.8V170.744H503.976V169.8H499.496ZM506.648 164.776V171.352H507.784V164.776H506.648ZM503.544 164.632V172.888C503.544 173.096 503.48 173.16 503.256 173.176C503.032 173.192 502.296 173.192 501.496 173.16C501.656 173.464 501.832 173.912 501.896 174.216C502.984 174.216 503.688 174.216 504.12 174.024C504.568 173.832 504.712 173.512 504.712 172.904V164.632H503.544ZM509.896 164.296V172.792C509.896 173.016 509.816 173.08 509.56 173.096C509.288 173.112 508.424 173.112 507.448 173.08C507.624 173.4 507.816 173.912 507.88 174.232C509.128 174.232 509.928 174.2 510.424 174.024C510.92 173.832 511.08 173.496 511.08 172.792V164.296H509.896ZM500.328 159.96C500.936 160.648 501.592 161.624 501.848 162.232L503.032 161.8C502.728 161.176 502.056 160.232 501.432 159.544L500.328 159.96ZM508.552 159.496C508.152 160.36 507.432 161.592 506.856 162.36L507.912 162.76C508.504 162.008 509.224 160.904 509.832 159.912L508.552 159.496ZM498.92 164.632V168.44C498.92 170.056 498.792 172.136 497.72 173.64C497.992 173.768 498.456 174.12 498.632 174.328C499.816 172.712 500.008 170.248 500.008 168.456V164.632H498.92ZM499.608 164.632V165.624H504.104V164.632H499.608ZM517.304 163.16C516.392 164.824 514.904 166.456 513.48 167.528C513.688 167.8 514.024 168.44 514.136 168.696C515.672 167.432 517.32 165.496 518.376 163.576L517.304 163.16ZM516.968 159.608C516.312 160.744 514.936 162.072 513.704 162.904C513.896 163.128 514.2 163.608 514.344 163.88C515.72 162.92 517.208 161.432 518.12 160.04L516.968 159.608ZM515.832 166.12V174.296H517.048V164.984L517 164.952L515.832 166.12ZM519.16 167.368V168.52H527.4V167.368H519.16ZM518.12 172.648V173.784H528.328V172.648H518.12ZM518.584 162.616V163.768H527.912V162.616H518.584ZM522.648 163.272V173.192H523.88V163.272H522.648ZM521.768 159.896C522.296 160.744 522.872 161.864 523.096 162.568L524.248 162.104C524.008 161.4 523.4 160.312 522.856 159.496L521.768 159.896Z" fill="black"/>
<path d="M532.632 164.984H541.304V167.4H532.632V164.984ZM531.608 164.168V168.216H542.392V164.168H531.608ZM534.232 162.488V163.336H539.816V162.488H534.232ZM536.44 164.456V167.8H537.448V164.456H536.44ZM533.608 165.464C534.008 166.04 534.376 166.824 534.504 167.336L535.432 167C535.272 166.488 534.888 165.736 534.472 165.176L533.608 165.464ZM539.368 165.112C539.176 165.656 538.776 166.504 538.472 167.048L539.304 167.336C539.624 166.856 540.04 166.12 540.392 165.432L539.368 165.112ZM532.552 168.984V174.28H533.736V169.832H540.376V174.216H541.592V168.984H532.552ZM533.256 170.904V171.784H540.904V170.904H533.256ZM533.256 172.872V173.736H540.904V172.872H533.256ZM536.872 159.496C535.384 161.448 532.52 162.856 529.592 163.656C529.816 163.864 530.152 164.36 530.28 164.6C533.24 163.64 536.248 162.104 537.944 159.896L536.872 159.496ZM537.576 160.056L536.648 160.456C538.264 162.232 541.176 163.768 543.768 164.472C543.944 164.184 544.28 163.752 544.536 163.544C541.944 162.936 539.048 161.592 537.576 160.056ZM549.224 161.16H556.824V162.808H549.224V161.16ZM548.024 160.184V163.8H558.088V160.184H548.024ZM548.536 167.592H557.496V168.728H548.536V167.592ZM548.536 169.576H557.496V170.728H548.536V169.576ZM548.536 165.624H557.496V166.744H548.536V165.624ZM547.336 164.728V171.608H558.728V164.728H547.336ZM550.392 171.592C549.384 172.248 547.288 173.016 545.608 173.416C545.896 173.656 546.296 174.04 546.504 174.296C548.152 173.88 550.232 173.112 551.512 172.328L550.392 171.592ZM554.296 172.424C555.992 172.92 558.168 173.752 559.352 174.312L560.392 173.448C559.144 172.92 557 172.136 555.336 171.64L554.296 172.424ZM562.536 162.424V170.04H563.736V163.608H574.184V169.96H575.432V162.424H562.536ZM563.176 167.864V169.032H574.904V167.864H563.176ZM568.328 159.56V174.264H569.576V159.56H568.328ZM581.72 164.04V171.96C581.72 173.56 582.216 173.992 583.96 173.992C584.312 173.992 586.792 173.992 587.192 173.992C588.984 173.992 589.368 173.096 589.528 170.056C589.208 169.96 588.68 169.752 588.392 169.528C588.264 172.296 588.12 172.856 587.128 172.856C586.568 172.856 584.488 172.856 584.056 172.856C583.144 172.856 582.952 172.712 582.952 171.976V164.04H581.72ZM579.16 165.224C578.92 167.128 578.392 169.64 577.704 171.288L578.904 171.8C579.56 170.072 580.056 167.352 580.312 165.464L579.16 165.224ZM589.176 165.24C590.072 167.144 590.952 169.672 591.256 171.32L592.456 170.856C592.104 169.192 591.208 166.728 590.28 164.824L589.176 165.24ZM582.472 160.92C583.992 161.992 585.88 163.576 586.76 164.568L587.624 163.672C586.696 162.664 584.776 161.16 583.288 160.136L582.472 160.92Z" fill="#003A9F"/>
<path d="M529 175.4H593V176.2H529V175.4Z" fill="#003A9F"/>
<path d="M180.364 81.92V84.032H199.658V81.92H180.364ZM183.95 91.798V93.91H195.962V91.798H183.95ZM188.878 77.454V97.848H191.078V77.454H188.878ZM187.008 82.646C185.6 86.716 182.806 90.764 179.682 92.766C180.166 93.184 180.848 93.932 181.222 94.46C184.5 92.062 187.294 87.838 188.9 83.218L187.008 82.646ZM192.882 82.712L191.012 83.262C192.596 87.838 195.346 92.062 198.646 94.394C199.02 93.8 199.746 92.986 200.296 92.568C197.084 90.61 194.29 86.716 192.882 82.712ZM210.878 77.432C210.196 80.996 208.942 84.472 207.204 86.584C207.776 86.826 208.81 87.42 209.272 87.772C210.966 85.418 212.352 81.722 213.144 77.85L210.878 77.432ZM210.9 81.084L209.932 83.152H220.096V81.084H210.9ZM219.436 81.084V81.568C219.128 83.35 218.27 85.77 217.61 87.156C218.094 87.354 218.93 87.772 219.37 88.014C220.162 86.43 221.13 84.076 221.68 81.832L220.162 80.974L219.744 81.084H219.436ZM215.168 85.902L213.386 86.188C214.442 91.798 216.51 95.846 220.91 97.738C221.196 97.166 221.834 96.308 222.296 95.89C218.16 94.416 216.092 90.698 215.168 85.902ZM213.1 83.9V85.748C213.1 88.806 212.572 93.272 206.39 96.264C206.874 96.66 207.622 97.43 207.952 97.958C214.662 94.592 215.322 89.4 215.322 85.814V83.9H213.1ZM202.474 80.776V82.8H208.414V80.776H202.474ZM202.012 89.752V91.82H209.008V89.752H202.012ZM238.29 87.508C237.146 88.586 234.946 89.554 233.032 90.104C233.428 90.412 233.912 90.918 234.176 91.314C236.244 90.632 238.466 89.532 239.83 88.146L238.29 87.508ZM240.402 89.576C238.928 91.094 236.046 92.282 233.274 92.876C233.648 93.25 234.066 93.822 234.308 94.218C237.3 93.426 240.226 92.084 241.942 90.214L240.402 89.576ZM242.272 92.018C240.336 94.196 236.376 95.516 232.108 96.11C232.504 96.572 232.966 97.276 233.164 97.76C237.762 96.946 241.81 95.428 244.054 92.766L242.272 92.018ZM235.32 77.41C234.462 79.742 232.922 81.964 231.184 83.372C231.646 83.658 232.416 84.252 232.746 84.604C234.506 82.998 236.2 80.512 237.234 77.894L235.32 77.41ZM235.034 79.764L234.022 81.458H243.966V79.764H235.034ZM240.666 80.16C239.258 83.812 235.782 85.924 231.404 87.002C231.778 87.376 232.394 88.19 232.636 88.608C237.168 87.222 240.864 84.824 242.624 80.6L240.666 80.16ZM234.946 80.776L233.648 81.678C235.144 84.428 238.466 87.288 243.526 88.432C243.768 87.926 244.296 87.156 244.67 86.76C239.61 85.88 236.31 83.328 234.946 80.776ZM229.732 80.138V94.196H231.536V80.138H229.732ZM227.884 77.542C226.872 80.864 225.156 84.186 223.308 86.32C223.638 86.87 224.166 88.014 224.342 88.52C226.564 85.924 228.566 81.92 229.798 78.092L227.884 77.542ZM226.146 83.196V97.848H228.126V81.326L228.06 81.282L226.146 83.196ZM257.32 81.458V83.372H266.01V81.458H257.32ZM258.002 77.432C257.32 81.15 256.088 84.758 254.262 87.002C254.702 87.354 255.494 88.168 255.824 88.564C257.76 85.99 259.212 81.986 260.07 77.806L258.002 77.432ZM262.688 82.646C261.764 89.444 259.52 93.712 254.24 96.044C254.636 96.484 255.252 97.452 255.472 97.936C261.148 95.164 263.678 90.456 264.844 82.91L262.688 82.646ZM258.354 83.086L256.506 83.416C257.804 90.104 260.158 95.274 264.976 97.738C265.306 97.188 265.922 96.396 266.406 95.978C261.852 93.91 259.454 89.004 258.354 83.086ZM246.87 96.99C247.442 96.528 248.366 96.066 254.768 93.646C254.658 93.184 254.526 92.304 254.526 91.688L247.508 94.152L246.606 94.966L246.87 96.99ZM246.87 96.99C246.87 96.242 248.916 95.384 248.916 95.384V85.198H246.826V93.514C246.826 94.328 246.452 94.658 246.078 94.834C246.43 95.362 246.76 96.396 246.87 96.99ZM246.562 78.906V80.952H252.48V85.198H247.266V87.266H254.548V78.906H246.562ZM274.238 79.368V80.908H288.098V79.368H274.238ZM274.788 90.236V91.776H287.482V90.236H274.788ZM275.294 93.03V94.548H286.976V93.03H275.294ZM273.952 95.934V97.496H288.23V95.934H273.952ZM280.068 82.888V96.836H282.114V82.888H280.068ZM277.032 85.968H285.216V87.728H277.032V85.968ZM275.118 84.538V89.158H287.24V84.538H275.118ZM277.01 77.432V83.592H285.26V77.432H283.236V82.206H278.946V77.432H277.01ZM272.544 77.52C271.356 80.776 269.376 84.01 267.264 86.078C267.638 86.562 268.21 87.684 268.408 88.19C270.806 85.704 273.072 81.876 274.502 78.136L272.544 77.52ZM270.344 83.372V97.826H272.324V81.414L272.302 81.392L270.344 83.372ZM293.444 78.95V80.93H307.348V78.95H293.444ZM293.444 84.054V86.012H307.348V84.054H293.444ZM293.356 89.29V91.248H307.414V89.29H293.356ZM292.256 78.95V86.892C292.256 89.994 292.036 93.91 289.616 96.616C290.078 96.88 290.914 97.584 291.244 97.98C293.906 95.054 294.302 90.324 294.302 86.914V78.95H292.256ZM306.578 78.95V95.23C306.578 95.626 306.424 95.758 306.006 95.78C305.588 95.78 304.114 95.802 302.684 95.736C302.97 96.286 303.3 97.188 303.388 97.738C305.434 97.76 306.732 97.716 307.546 97.386C308.36 97.056 308.646 96.462 308.646 95.23V78.95H306.578ZM299.098 79.72V97.628H301.21V79.72H299.098ZM312.1 80.974V82.91H321.164V80.974H312.1ZM315.51 85.682V87.574H319.25V85.682H315.51ZM314.102 82.008C314.036 88.234 313.97 93.294 311.572 96.264C312.1 96.594 312.782 97.298 313.112 97.804C315.818 94.416 316.06 88.806 316.126 82.008H314.102ZM318.502 85.682V86.078C318.304 92.546 318.106 94.79 317.71 95.34C317.534 95.56 317.358 95.648 317.072 95.626C316.764 95.626 316.148 95.626 315.466 95.56C315.73 96.066 315.95 96.88 315.972 97.452C316.808 97.496 317.6 97.474 318.084 97.408C318.678 97.32 319.074 97.144 319.448 96.594C320.042 95.802 320.24 93.382 320.438 86.54C320.46 86.298 320.46 85.682 320.46 85.682H318.502ZM323.892 87.288C325.212 88.212 326.906 89.554 327.698 90.412L329.128 88.894C328.27 88.036 326.554 86.782 325.234 85.924L323.892 87.288ZM322.506 93.47C324.574 94.592 327.302 96.308 328.578 97.518L330.008 95.714C328.644 94.57 325.85 92.92 323.826 91.908L322.506 93.47ZM314.652 78.048C315.356 79.016 316.104 80.314 316.368 81.172L318.304 80.358C317.996 79.522 317.226 78.268 316.5 77.344L314.652 78.048ZM327.126 78.906L325.498 79.478C326.686 82.294 328.82 85.198 330.998 86.672C331.35 86.144 332.01 85.396 332.494 85C330.382 83.812 328.204 81.26 327.126 78.906ZM325.806 77.322C324.816 80.754 322.836 83.592 320.284 85.198C320.79 85.616 321.406 86.298 321.714 86.848C324.574 84.824 326.576 81.722 327.72 77.894L325.806 77.322ZM334.914 84.12V85.726H341.822V84.12H334.914ZM334.914 87.046V88.652H341.8V87.046H334.914ZM333.946 81.128V82.822H342.482V81.128H333.946ZM335.86 90.038V91.732H339.93V94.878H335.86V96.572H341.734V90.038H335.86ZM334.914 90.038V97.562H336.718V90.038H334.914ZM336.366 78.136C336.96 79.06 337.664 80.358 337.972 81.172L339.666 80.226C339.314 79.434 338.632 78.246 337.994 77.344L336.366 78.136ZM342.922 79.214V81.238H354.208V79.214H342.922ZM348.95 79.852V94.944C348.95 95.362 348.774 95.494 348.334 95.516C347.85 95.538 346.156 95.56 344.55 95.472C344.902 96.044 345.276 97.034 345.386 97.628C347.52 97.628 348.972 97.606 349.874 97.254C350.754 96.902 351.062 96.264 351.062 94.966V79.852H348.95ZM364.834 84.604V97.848H366.99V84.604H364.834ZM360.412 88.41H371.698V89.994H360.412V88.41ZM360.412 85.286H371.698V86.87H360.412V85.286ZM358.366 83.658V91.622H373.832V83.658H358.366ZM356.21 93.074V94.9H375.812V93.074H356.21ZM359.554 79.61H363.294V81.348H359.554V79.61ZM357.706 78.29V82.646H365.252V78.29H357.706ZM368.684 79.61H372.468V81.348H368.684V79.61ZM366.814 78.29V82.646H374.426V78.29H366.814ZM384.15 79.764V81.656H398.23V79.764H384.15ZM386.636 85.264H395.568V88.08H386.636V85.264ZM384.722 83.548V89.818H397.57V83.548H384.722ZM386.394 90.17L384.678 90.698C387.054 94.79 391.366 97.056 397.262 97.87C397.526 97.298 398.054 96.462 398.494 96C392.774 95.428 388.418 93.492 386.394 90.17ZM390.024 77.542V87.398C390.024 91.072 389.562 94.658 383.292 96.176C383.732 96.616 384.326 97.43 384.568 97.892C391.168 95.934 392.07 91.776 392.07 87.42V77.542H390.024ZM382.896 77.388C381.642 80.644 379.53 83.856 377.374 85.902C377.726 86.386 378.298 87.508 378.496 87.992C380.96 85.528 383.336 81.722 384.832 78.004L382.896 77.388ZM380.652 83.306V97.936H382.632V81.348L382.61 81.326L380.652 83.306ZM403.444 78.95V80.93H417.348V78.95H403.444ZM403.444 84.054V86.012H417.348V84.054H403.444ZM403.356 89.29V91.248H417.414V89.29H403.356ZM402.256 78.95V86.892C402.256 89.994 402.036 93.91 399.616 96.616C400.078 96.88 400.914 97.584 401.244 97.98C403.906 95.054 404.302 90.324 404.302 86.914V78.95H402.256ZM416.578 78.95V95.23C416.578 95.626 416.424 95.758 416.006 95.78C415.588 95.78 414.114 95.802 412.684 95.736C412.97 96.286 413.3 97.188 413.388 97.738C415.434 97.76 416.732 97.716 417.546 97.386C418.36 97.056 418.646 96.462 418.646 95.23V78.95H416.578ZM409.098 79.72V97.628H411.21V79.72H409.098ZM432.541 94.944V96.814H443.629V94.944H432.541ZM435.137 82.426C433.641 87.266 430.715 90.94 426.513 93.052C426.975 93.448 427.745 94.306 428.053 94.724C432.321 92.282 435.445 88.278 437.249 82.932L435.137 82.426ZM431.529 89.466V97.848H433.641V91.336H442.969V97.826H445.147V89.466H431.529ZM427.063 84.89V86.826H446.819V84.89H427.063ZM427.173 79.302V81.172H436.501V79.302H427.173ZM430.979 77.41V83.328H433.069V77.41H430.979ZM440.747 77.432V83.328H442.837V77.432H440.747ZM437.359 79.302V81.172H446.797V79.302H437.359ZM450.405 78.356V79.896H467.389V78.356H450.405ZM457.841 78.884V87.442H459.865V78.884H457.841ZM449.437 81.26V86.122H451.417V82.844H466.377V86.122H468.467V81.26H449.437ZM451.549 86.32L452.121 87.838C453.551 87.552 455.201 87.2 456.895 86.826L456.829 85.572C454.849 85.88 452.957 86.166 451.549 86.32ZM452.187 84.098C453.551 84.384 455.333 84.912 456.257 85.308L456.829 84.12C455.883 83.724 454.101 83.284 452.759 83.042L452.187 84.098ZM464.859 82.91C463.825 83.284 462.065 83.922 460.855 84.186L461.559 85.198C462.769 84.956 464.485 84.56 465.717 84.032L464.859 82.91ZM460.547 86.628C462.263 86.892 464.507 87.42 465.717 87.86L466.135 86.496C464.925 86.078 462.681 85.616 460.987 85.418L460.547 86.628ZM449.261 88.08V89.73H468.643V88.08H449.261ZM455.729 92.216V97.694H457.621V92.216H455.729ZM460.547 92.216V97.694H462.439V92.216H460.547ZM450.933 91.072V97.804H452.913V92.744H465.915V91.072H450.933ZM465.431 91.072V95.868C465.431 96.066 465.365 96.132 465.123 96.132C464.903 96.154 464.177 96.154 463.385 96.132C463.627 96.616 463.913 97.32 464.001 97.848C465.189 97.848 466.047 97.848 466.663 97.54C467.301 97.254 467.433 96.77 467.433 95.89V91.072H465.431ZM457.885 88.718C457.753 89.664 457.379 91.006 457.049 91.93L458.875 92.106C459.271 91.27 459.755 90.016 460.173 88.762L457.885 88.718ZM471.635 84.12V85.726H477.729V84.12H471.635ZM472.449 90.038V91.732H476.079V94.878H472.449V96.594H477.773V90.038H472.449ZM471.591 90.038V97.518H473.263V90.038H471.591ZM471.613 87.046V88.652H477.707V87.046H471.613ZM470.733 81.128V82.822H478.411V81.128H470.733ZM473.021 78.158C473.571 79.104 474.253 80.38 474.561 81.194L476.189 80.402C475.837 79.632 475.155 78.4 474.561 77.498L473.021 78.158ZM479.445 78.356V86.782C479.445 89.906 479.313 94.042 477.707 96.88C478.081 97.078 478.829 97.606 479.115 97.914C480.897 94.878 481.139 90.126 481.139 86.76V78.356H479.445ZM480.369 78.356V80.182H489.631V78.356H480.369ZM488.729 78.356V95.494C488.729 95.802 488.619 95.89 488.311 95.912C488.025 95.934 487.079 95.934 486.045 95.89C486.287 96.352 486.551 97.166 486.617 97.65C488.091 97.65 489.037 97.628 489.653 97.32C490.247 97.012 490.445 96.462 490.445 95.516V78.356H488.729ZM480.765 82.184V83.856H489.103V82.184H480.765ZM480.699 85.77V87.442H489.147V85.77H480.699ZM484.043 79.412V86.694H485.781V79.412H484.043ZM482.855 88.696V90.192H486.155V92.502H482.855V94.02H487.717V88.696H482.855ZM481.953 88.696V95.032H483.427V88.696H481.953ZM494.339 89.312V91.028H511.565V89.312H494.339ZM493.129 78.664V80.182H503.227V78.664H493.129ZM502.985 92.458V94.042H509.981V92.458H502.985ZM492.931 95.538V97.298H512.973V95.538H492.931ZM501.863 89.95V96.286H503.909V89.95H501.863ZM497.353 77.432V88.762H499.179V77.432H497.353ZM496.385 92.018V96.462H498.387V92.018H496.385ZM495.373 82.448H501.005V83.856H495.373V82.448ZM493.723 81.15V85.132H502.765V81.15H493.723ZM505.823 77.454C505.229 79.61 504.129 81.612 502.699 82.91C503.095 83.24 503.777 83.966 504.063 84.34C505.647 82.822 506.967 80.402 507.693 77.872L505.823 77.454ZM505.669 79.808L504.833 81.502H512.885V79.808H505.669ZM509.717 80.534C508.947 84.274 506.571 86.452 502.787 87.596C503.161 87.948 503.777 88.718 503.975 89.092C508.001 87.618 510.597 85.154 511.653 80.732L509.717 80.534ZM505.955 80.776L504.613 81.612C505.625 84.428 507.979 87.706 512.049 89.158C512.291 88.674 512.819 87.904 513.215 87.53C509.167 86.342 506.879 83.416 505.955 80.776ZM497.133 84.582C496.187 85.814 494.361 87.112 492.711 87.706C493.107 88.014 493.635 88.63 493.899 89.048C495.593 88.256 497.463 86.65 498.475 85.132L497.133 84.582ZM499.047 86.1C500.037 86.628 501.225 87.42 501.863 88.014L502.743 86.826C502.127 86.254 500.873 85.506 499.905 85.044L499.047 86.1ZM519.177 85.132H530.595V88.19H519.177V85.132ZM517.417 83.768V89.532H532.465V83.768H517.417ZM521.091 81.392V82.8H528.813V81.392H521.091ZM523.995 84.252V88.872H525.711V84.252H523.995ZM520.255 85.704C520.739 86.474 521.157 87.53 521.289 88.212L522.851 87.706C522.675 87.024 522.213 86.012 521.729 85.264L520.255 85.704ZM527.911 85.176C527.669 85.924 527.185 87.046 526.811 87.772L528.241 88.212C528.659 87.574 529.165 86.606 529.649 85.66L527.911 85.176ZM518.671 90.456V97.848H520.717V91.864H529.231V97.76H531.365V90.456H518.671ZM519.859 93.074V94.504H530.133V93.074H519.859ZM519.881 95.758V97.166H530.133V95.758H519.881ZM524.633 77.3C522.609 79.918 518.693 81.832 514.645 82.866C514.997 83.24 515.569 84.076 515.789 84.494C519.947 83.196 524.105 81.04 526.481 77.982L524.633 77.3ZM525.931 78.18L524.369 78.818C526.613 81.282 530.507 83.35 534.137 84.318C534.423 83.834 535.017 83.086 535.457 82.712C531.849 81.92 527.933 80.182 525.931 78.18ZM542.079 79.874H551.869V81.766H542.079V79.874ZM539.989 78.224V83.438H554.069V78.224H539.989ZM541.089 88.652H552.749V89.95H541.089V88.652ZM541.089 91.336H552.749V92.634H541.089V91.336ZM541.089 85.99H552.749V87.266H541.089V85.99ZM539.021 84.516V94.108H554.905V84.516H539.021ZM543.245 93.888C541.859 94.79 539.021 95.824 536.711 96.374C537.195 96.77 537.899 97.43 538.273 97.87C540.517 97.32 543.377 96.242 545.137 95.186L543.245 93.888ZM548.393 95.318C550.725 96 553.739 97.122 555.411 97.892L557.215 96.418C555.455 95.692 552.507 94.636 550.197 93.998L548.393 95.318ZM563.837 89.136H574.265V90.39H563.837V89.136ZM563.837 91.644H574.265V92.942H563.837V91.644ZM563.837 86.628H574.265V87.882H563.837V86.628ZM561.813 85.33V94.24H576.355V85.33H561.813ZM570.877 95.296C573.165 96.088 575.497 97.1 576.839 97.804L578.709 96.66C577.169 95.934 574.595 94.944 572.263 94.174L570.877 95.296ZM565.465 94.24C563.925 95.098 561.285 95.868 558.997 96.33C559.459 96.682 560.185 97.474 560.537 97.87C562.759 97.254 565.575 96.198 567.357 95.098L565.465 94.24ZM567.995 78.862V80.424H576.993V78.862H567.995ZM568.281 77.344C567.775 78.906 566.851 80.424 565.707 81.436C566.147 81.678 566.917 82.184 567.269 82.492C568.435 81.37 569.513 79.588 570.107 77.762L568.281 77.344ZM570.723 79.962V80.688C570.723 81.722 570.129 83.042 564.541 83.636C564.915 84.032 565.443 84.758 565.641 85.22C571.845 84.384 572.637 82.404 572.637 80.776V79.962H570.723ZM572.417 81.084L570.943 81.392C572.219 83.482 574.683 84.714 577.961 85.154C578.203 84.626 578.709 83.878 579.127 83.482C576.025 83.262 573.539 82.448 572.417 81.084ZM559.393 78.642V80.226H564.849V78.642H559.393ZM558.909 82.074V83.702H565.399V82.074H558.909ZM576.289 78.862V79.126C575.915 80.072 575.299 81.216 574.793 81.964L576.399 82.558C577.059 81.722 577.785 80.402 578.335 79.214L576.927 78.774L576.619 78.862H576.289ZM183.4 109.454V129.848H185.314V109.454H183.4ZM179.946 116.802V118.738H188.768V116.802H179.946ZM180.012 111.214C180.584 112.776 181.046 114.866 181.134 116.208L182.74 115.812C182.608 114.448 182.124 112.402 181.508 110.84L180.012 111.214ZM187.184 110.73C186.898 112.248 186.304 114.448 185.82 115.79L187.162 116.186C187.734 114.932 188.416 112.842 188.966 111.148L187.184 110.73ZM195.632 109.432V129.848H197.59V109.432H195.632ZM188.724 123.336L189.054 125.272L200.362 123.226L200.032 121.312L188.724 123.336ZM190.198 112.27C191.474 113.062 192.992 114.25 193.674 115.108L194.774 113.524C194.048 112.71 192.508 111.588 191.254 110.84L190.198 112.27ZM189.142 117.814C190.44 118.54 192.046 119.706 192.794 120.498L193.85 118.848C193.058 118.056 191.408 117 190.11 116.318L189.142 117.814ZM181.794 119.838C181.442 121.686 180.54 123.952 179.616 125.162C179.968 125.822 180.43 126.856 180.628 127.56C181.882 125.998 182.806 122.852 183.29 120.344L181.794 119.838ZM186.26 119.882L185.116 120.696C185.644 121.752 186.788 124.414 187.184 125.69L188.658 124.128C188.306 123.424 186.7 120.52 186.26 119.882ZM215.005 111.148V112.688H226.885V111.148H215.005ZM215.555 113.832V115.284H226.467V113.832H215.555ZM214.719 116.538V118.078H227.127V116.538H214.719ZM219.823 109.432V117.374H221.825V109.432H219.823ZM224.003 119.222V127.846C224.003 128.088 223.937 128.176 223.651 128.176C223.365 128.176 222.463 128.176 221.539 128.154C221.781 128.616 222.023 129.342 222.111 129.826C223.497 129.848 224.465 129.826 225.125 129.54C225.763 129.276 225.961 128.77 225.961 127.846V119.222H224.003ZM216.963 122.148V123.578H224.905V122.148H216.963ZM216.963 124.964V126.372H224.905V124.964H216.963ZM215.907 119.222V123.226C215.907 124.964 215.775 127.142 214.455 128.748C214.851 128.99 215.621 129.716 215.907 130.09C217.491 128.242 217.799 125.382 217.799 123.27V119.222H215.907ZM217.029 119.222V120.806H224.619V119.222H217.029ZM207.393 115.988V117.616H213.905V115.988H207.393ZM208.449 122.06V123.754H212.079V126.922H208.449V128.616H213.883V122.06H208.449ZM207.437 122.06V129.562H209.219V122.06H207.437ZM207.393 119.002V120.63H213.927V119.002H207.393ZM206.843 113.084V114.778H214.543V113.084H206.843ZM209.329 110.026C209.725 110.972 210.231 112.248 210.407 113.04L212.255 112.424C212.035 111.632 211.529 110.4 211.089 109.476L209.329 110.026ZM229.019 112.82V114.734H248.841V112.82H229.019ZM231.439 120.08V121.664H237.401V120.08H231.439ZM231.439 123.534V125.118H237.401V123.534H231.439ZM241.009 116.714V125.734H242.945V116.714H241.009ZM236.675 116.494V127.626C236.675 127.912 236.587 128 236.279 128C235.993 128.022 235.025 128.022 234.057 127.978C234.321 128.484 234.629 129.254 234.739 129.782C236.169 129.782 237.159 129.76 237.819 129.452C238.479 129.144 238.677 128.616 238.677 127.67V116.494H236.675ZM245.453 116.076V127.428C245.453 127.736 245.343 127.824 244.991 127.824C244.617 127.846 243.451 127.846 242.197 127.802C242.505 128.352 242.835 129.232 242.945 129.782C244.617 129.804 245.761 129.738 246.509 129.43C247.279 129.1 247.499 128.55 247.499 127.45V116.076H245.453ZM232.275 110.114C233.089 111.038 233.947 112.336 234.277 113.15L236.367 112.402C235.971 111.566 235.047 110.312 234.233 109.41L232.275 110.114ZM243.583 109.344C243.055 110.554 242.109 112.204 241.317 113.238L243.187 113.898C243.979 112.908 244.969 111.434 245.827 110.048L243.583 109.344ZM230.471 116.494V121.664C230.471 123.842 230.317 126.68 228.887 128.704C229.327 128.946 230.141 129.562 230.449 129.892C232.077 127.67 232.341 124.194 232.341 121.686V116.494H230.471ZM231.681 116.494V118.166H237.643V116.494H231.681ZM255.705 114.36C254.473 116.582 252.427 118.782 250.535 120.212C250.865 120.718 251.415 121.862 251.591 122.324C253.725 120.542 256.079 117.748 257.553 115.086L255.705 114.36ZM255.199 109.476C254.319 110.994 252.471 112.82 250.821 113.92C251.151 114.338 251.657 115.174 251.899 115.658C253.813 114.316 255.881 112.226 257.179 110.246L255.199 109.476ZM253.615 118.826V129.87H255.749V116.846L255.661 116.78L253.615 118.826ZM258.477 120.058V122.06H269.807V120.058H258.477ZM257.047 127.208V129.188H271.061V127.208H257.047ZM257.707 113.59V115.57H270.489V113.59H257.707ZM263.119 114.734V128.11H265.275V114.734H263.119ZM261.975 110.004C262.679 111.148 263.405 112.666 263.691 113.634L265.715 112.864C265.407 111.896 264.593 110.444 263.867 109.344L261.975 110.004ZM277.177 117.132H288.595V120.19H277.177V117.132ZM275.417 115.768V121.532H290.465V115.768H275.417ZM279.091 113.392V114.8H286.813V113.392H279.091ZM281.995 116.252V120.872H283.711V116.252H281.995ZM278.255 117.704C278.739 118.474 279.157 119.53 279.289 120.212L280.851 119.706C280.675 119.024 280.213 118.012 279.729 117.264L278.255 117.704ZM285.911 117.176C285.669 117.924 285.185 119.046 284.811 119.772L286.241 120.212C286.659 119.574 287.165 118.606 287.649 117.66L285.911 117.176ZM276.671 122.456V129.848H278.717V123.864H287.231V129.76H289.365V122.456H276.671ZM277.859 125.074V126.504H288.133V125.074H277.859ZM277.881 127.758V129.166H288.133V127.758H277.881ZM282.633 109.3C280.609 111.918 276.693 113.832 272.645 114.866C272.997 115.24 273.569 116.076 273.789 116.494C277.947 115.196 282.105 113.04 284.481 109.982L282.633 109.3ZM283.931 110.18L282.369 110.818C284.613 113.282 288.507 115.35 292.137 116.318C292.423 115.834 293.017 115.086 293.457 114.712C289.849 113.92 285.933 112.182 283.931 110.18ZM300.079 111.874H309.869V113.766H300.079V111.874ZM297.989 110.224V115.438H312.069V110.224H297.989ZM299.089 120.652H310.749V121.95H299.089V120.652ZM299.089 123.336H310.749V124.634H299.089V123.336ZM299.089 117.99H310.749V119.266H299.089V117.99ZM297.021 116.516V126.108H312.905V116.516H297.021ZM301.245 125.888C299.859 126.79 297.021 127.824 294.711 128.374C295.195 128.77 295.899 129.43 296.273 129.87C298.517 129.32 301.377 128.242 303.137 127.186L301.245 125.888ZM306.393 127.318C308.725 128 311.739 129.122 313.411 129.892L315.215 128.418C313.455 127.692 310.507 126.636 308.197 125.998L306.393 127.318ZM317.965 113.326V124.084H320.055V115.372H333.717V123.974H335.895V113.326H317.965ZM319.065 120.74V122.786H334.949V120.74H319.065ZM325.775 109.432V129.848H327.975V109.432H325.775ZM344.409 115.658V126.262C344.409 128.726 345.157 129.452 347.753 129.452C348.281 129.452 351.295 129.452 351.867 129.452C354.441 129.452 355.057 128.176 355.321 123.996C354.749 123.842 353.847 123.468 353.341 123.094C353.187 126.746 352.989 127.494 351.735 127.494C351.053 127.494 348.523 127.494 347.973 127.494C346.807 127.494 346.587 127.318 346.587 126.262V115.658H344.409ZM340.691 117.132C340.405 119.904 339.701 123.292 338.821 125.58L340.933 126.46C341.769 124.018 342.385 120.256 342.715 117.528L340.691 117.132ZM354.441 117.286C355.651 119.882 356.817 123.38 357.213 125.624L359.303 124.788C358.841 122.5 357.653 119.134 356.377 116.516L354.441 117.286ZM345.333 111.412C347.401 112.842 350.063 114.998 351.273 116.362L352.791 114.756C351.493 113.392 348.787 111.368 346.741 110.026L345.333 111.412Z" fill="black"/>
<rect width="140" height="50" transform="translate(503 268)" fill="#003A9F"/>
<path d="M562.296 292.992V294.112H572.056V292.992H562.296ZM562.792 289.568V290.672H571.656V289.568H562.792ZM566.488 290.112V292.304C566.488 294.032 566.232 296.528 562.136 298.272C562.424 298.496 562.792 298.88 562.952 299.136C567.192 297.152 567.672 294.352 567.672 292.32V290.112H566.488ZM569.432 286.56C569.048 287.552 568.344 288.976 567.784 289.84L568.744 290.192C569.336 289.36 570.056 288.064 570.648 286.96L569.432 286.56ZM563.608 286.976C564.104 287.776 564.712 288.864 565.016 289.504L566.072 289.04C565.768 288.416 565.112 287.376 564.616 286.608L563.608 286.976ZM566.296 294.976C567.944 296.256 570.12 298.064 571.176 299.136L572.04 298.288C570.92 297.232 568.712 295.488 567.112 294.256L566.296 294.976ZM558.328 287.088C558.984 287.888 559.816 289.008 560.2 289.68L561.16 289.056C560.76 288.4 559.928 287.36 559.24 286.576L558.328 287.088ZM557.736 290.256V291.264H561.192V290.256H557.736ZM560.584 297.6L559.784 297.968C561 300.608 563.096 301.024 566.856 301.024C568.616 301.024 570.632 300.992 572.152 300.896C572.216 300.576 572.36 300.032 572.536 299.776C570.888 299.92 568.552 299.984 566.856 299.984C563.656 299.984 561.576 299.696 560.584 297.6ZM560.584 294.256V294.464C560.184 297.344 559.064 299.392 557.48 300.48C557.72 300.656 558.12 301.072 558.28 301.312C559.944 300.08 561.176 297.808 561.688 294.448L561.144 294.224L560.936 294.256H560.584ZM557.976 295.456C558.088 295.328 558.504 295.232 558.92 295.232H561.08V294.256H558.552L557.976 294.544V295.456ZM557.976 295.456C557.976 295.152 558.872 294.704 558.872 294.704C559.784 293.68 561.224 291.632 561.976 290.544L561.176 290.176L560.824 290.336V290.384C560.296 291.232 558.776 293.408 558.296 293.888C558.024 294.208 557.768 294.304 557.528 294.368C557.656 294.624 557.896 295.184 557.976 295.456ZM580.312 286.576V299.712H581.624V286.576H580.312ZM586.008 294.56V301.248H587.32V294.56H586.008ZM575.384 288.016V293.536H586.68V288.016H585.384V292.368H576.632V288.016H575.384ZM574.664 294.56V300.352H586.648V299.152H575.976V294.56H574.664Z" fill="white"/>
<path d="M408.744 287.816V288.984H414.648V287.816H408.744ZM401.32 286.616V287.736H409.144V286.616H401.32ZM403.192 289.864V290.968H407.352V289.864H403.192ZM403.192 293.192V294.28H407.352V293.192H403.192ZM414.296 287.816V288.104C413.608 293.72 411.224 297.48 408.056 299.128C408.328 299.352 408.664 299.8 408.856 300.104C412.28 298.12 414.728 294.36 415.496 287.992L414.728 287.784L414.504 287.816H414.296ZM410.2 289.048L409.048 289.272C410.04 294.296 411.88 298.2 415.352 300.168C415.544 299.848 415.928 299.4 416.2 299.16C412.904 297.464 411.048 293.672 410.2 289.048ZM402.568 287.048V297.432H403.72V287.048H402.568ZM406.856 287.048V300.296H408.008V287.048H406.856ZM401 297.08L401.224 298.28C402.888 298.024 405.192 297.656 407.384 297.304L407.32 296.2C404.984 296.552 402.568 296.888 401 297.08Z" fill="#003A9F"/>
<path d="M423.16 290.184V291.288H430.168V290.184H423.16ZM422.6 290.184V294.616C422.6 296.216 422.52 298.232 421.704 299.704C421.96 299.832 422.44 300.2 422.616 300.392C423.576 298.792 423.72 296.408 423.72 294.616V290.184H422.6ZM423.928 296.104L424.344 297.144C425.976 296.76 428.136 296.216 430.184 295.688L430.072 294.744C427.832 295.256 425.48 295.8 423.928 296.104ZM424.216 293.112C425.64 293.432 427.448 294.056 428.376 294.552L428.856 293.688C427.912 293.192 426.104 292.616 424.696 292.344L424.216 293.112ZM430.36 286.056C429.976 287 429.24 288.296 428.68 289.112L429.688 289.544C430.264 288.744 430.952 287.576 431.528 286.52L430.36 286.056ZM422.184 286.6C422.856 287.544 423.544 288.792 423.8 289.624L424.872 289.096C424.6 288.28 423.88 287.048 423.192 286.152L422.184 286.6ZM429.768 290.184V298.824C429.768 299.048 429.688 299.112 429.448 299.128C429.192 299.144 428.344 299.144 427.432 299.096C427.592 299.432 427.768 299.928 427.816 300.248C429.032 300.248 429.832 300.248 430.328 300.056C430.792 299.864 430.936 299.496 430.936 298.84V290.184H429.768ZM426.216 285.608V290.888H427.416V285.608H426.216ZM418.008 286.664C418.984 287.24 420.28 288.056 420.92 288.568L421.656 287.592C420.984 287.128 419.656 286.36 418.712 285.832L418.008 286.664ZM417.144 291.08C418.12 291.592 419.448 292.36 420.104 292.808L420.776 291.832C420.088 291.368 418.744 290.664 417.8 290.2L417.144 291.08ZM417.688 299.304L418.696 300.12C419.64 298.632 420.76 296.632 421.608 294.936L420.728 294.152C419.8 295.976 418.536 298.088 417.688 299.304Z" fill="#003A9F"/>
<rect x="346.5" y="268.5" width="139.528" height="49" stroke="#003A9F"/>
<g clip-path="url(#clip0_32_125)">
<path d="M634.062 86L644.782 75.2797C645.075 74.9867 645.075 74.5109 644.782 74.218C644.489 73.925 644.013 73.925 643.72 74.218L633 84.9383L622.28 74.2203C621.987 73.9273 621.513 73.9273 621.22 74.2203C620.927 74.5133 620.927 74.9891 621.22 75.282L631.938 86L621.22 96.7203C620.927 97.0133 620.927 97.4891 621.22 97.782C621.366 97.9273 621.558 98.0023 621.75 98.0023C621.942 98.0023 622.134 97.9297 622.28 97.782L633 87.0617L643.72 97.782C643.866 97.9273 644.058 98.0023 644.25 98.0023C644.442 98.0023 644.634 97.9297 644.78 97.782C645.073 97.4891 645.073 97.0133 644.78 96.7203L634.062 86Z" fill="black"/>
</g>
<rect x="145" y="198" width="500" height="50" fill="#EEEEEE"/>
<rect width="500" height="1" transform="matrix(1 0 0 -1 145 248)" fill="#939EA7"/>
<path d="M166.768 218.388V219.186H174.3V218.388H166.768ZM167.118 220.054V220.824H174.034V220.054H167.118ZM166.614 221.776V222.588H174.44V221.776H166.614ZM169.946 217.24V222.21H170.968V217.24H169.946ZM172.634 223.428V229.028C172.634 229.182 172.592 229.238 172.41 229.238C172.228 229.252 171.654 229.252 171.024 229.224C171.15 229.476 171.29 229.84 171.332 230.092C172.2 230.106 172.788 230.092 173.152 229.952C173.516 229.798 173.628 229.532 173.628 229.028V223.428H172.634ZM167.958 225.276V226.046H173.138V225.276H167.958ZM167.958 227.082V227.838H173.138V227.082H167.958ZM167.44 223.428V226.004C167.44 227.124 167.342 228.538 166.516 229.602C166.712 229.728 167.104 230.092 167.244 230.288C168.224 229.098 168.406 227.334 168.406 226.018V223.428H167.44ZM168 223.428V224.254H172.984V223.428H168ZM161.952 221.384V222.224H166.04V221.384H161.952ZM162.526 225.22V226.088H165.088V228.426H162.526V229.308H166.012V225.22H162.526ZM162.022 225.22V229.952H162.932V225.22H162.022ZM161.966 223.288V224.142H166.054V223.288H161.966ZM161.616 219.592V220.474H166.46V219.592H161.616ZM163.282 217.548C163.548 218.15 163.856 218.948 163.982 219.452L164.906 219.116C164.766 218.626 164.458 217.856 164.164 217.268L163.282 217.548ZM182.812 220.642V221.454H186.578V220.642H182.812ZM181.874 224.478V225.262H184.114V224.478H181.874ZM181.832 226.536V227.32H184.086V226.536H181.832ZM185.5 222.756V227.796H186.242V222.756H185.5ZM183.848 222.49V229.042C183.848 229.168 183.806 229.21 183.68 229.21C183.554 229.21 183.12 229.224 182.644 229.21C182.756 229.434 182.882 229.784 182.924 230.008C183.582 230.008 184.002 229.994 184.296 229.854C184.576 229.714 184.66 229.462 184.66 229.042V222.49H183.848ZM187.166 222.252V228.958C187.166 229.126 187.11 229.168 186.956 229.182C186.774 229.196 186.228 229.196 185.584 229.182C185.696 229.406 185.808 229.742 185.85 229.966C186.69 229.966 187.208 229.966 187.544 229.826C187.866 229.686 187.964 229.434 187.964 228.972V222.252H187.166ZM184.506 217.156C183.736 218.654 182.294 220.068 180.796 220.852C181.034 221.048 181.314 221.356 181.468 221.594C183.05 220.656 184.52 219.158 185.36 217.464L184.506 217.156ZM184.996 217.702L184.212 217.982C185.22 219.564 186.424 220.628 187.908 221.524C188.048 221.258 188.314 220.95 188.552 220.754C187.152 220.012 185.934 219.102 184.996 217.702ZM181.846 222.49V223.274H184.086V222.49H181.846ZM181.426 222.49V225.458C181.426 226.718 181.342 228.356 180.6 229.574C180.796 229.672 181.146 229.952 181.286 230.106C182.112 228.762 182.238 226.858 182.238 225.458V222.49H181.426ZM175.728 218.738V219.648H180.838V218.738H175.728ZM175.588 226.844V227.754H180.866V226.844H175.588ZM177.842 217.254V221.146H178.766V217.254H177.842ZM177.926 221.104V225.164H177.828V230.106H178.794V225.164H178.682V221.104H177.926ZM176.834 223.596H179.732V224.954H176.834V223.596ZM176.834 221.51H179.732V222.84H176.834V221.51ZM176.022 220.712V225.752H180.572V220.712H176.022ZM192.178 218.094V219.158H196.14V218.094H192.178ZM195.608 218.094C195.608 220.726 196.07 226.69 201.67 230.078C201.866 229.826 202.286 229.378 202.524 229.196C196.994 225.92 196.686 220.6 196.686 218.094H195.608ZM195.216 220.838C194.362 224.8 192.612 227.628 189.504 229.252C189.784 229.448 190.26 229.882 190.456 230.106C193.55 228.286 195.398 225.332 196.406 221.062L195.216 220.838ZM214.158 217.268C212.03 217.926 207.942 218.304 204.61 218.458C204.708 218.696 204.834 219.116 204.862 219.382C208.264 219.242 212.408 218.864 214.942 218.122L214.158 217.268ZM204.624 221.216V222.224H215.544V221.216H204.624ZM203.686 224.506V225.528H216.328V224.506H203.686ZM209.468 218.752V228.65C209.468 228.944 209.356 229.042 209.034 229.042C208.726 229.056 207.606 229.07 206.444 229.028C206.612 229.308 206.808 229.784 206.878 230.078C208.362 230.092 209.272 230.064 209.804 229.896C210.336 229.728 210.56 229.406 210.56 228.664V218.752H209.468ZM217.672 219.956V220.922H221.2V219.956H217.672ZM219.156 217.24V230.106H220.08V217.24H219.156ZM219.142 220.53C218.834 222.462 218.106 224.842 217.364 226.074C217.518 226.34 217.742 226.802 217.854 227.11C218.652 225.71 219.38 222.952 219.702 220.768L219.142 220.53ZM219.996 221.72L219.576 222.14C219.856 222.644 220.598 224.128 220.836 224.772L221.354 223.988C221.144 223.624 220.248 222.07 219.996 221.72ZM221.494 224.478V225.332H230.104V224.478H221.494ZM222.726 226.34C223.426 226.9 224.308 227.698 224.756 228.188L225.4 227.558C224.952 227.082 224.042 226.326 223.356 225.794L222.726 226.34ZM227.304 223.582C227.808 223.904 228.424 224.352 228.76 224.66L229.306 224.1C228.984 223.792 228.34 223.372 227.85 223.078L227.304 223.582ZM228.564 225.486C227.766 227.18 226.1 228.58 223.972 229.378C224.168 229.546 224.42 229.868 224.546 230.05C226.73 229.168 228.522 227.712 229.46 225.822L228.564 225.486ZM225.022 217.352C225.26 224.59 226.1 229.91 229.222 230.12C229.796 230.148 230.23 229.644 230.51 228.09C230.314 228.006 229.964 227.754 229.796 227.558C229.67 228.58 229.488 229.112 229.194 229.084C226.968 228.888 226.072 224.002 225.918 217.352H225.022ZM223.79 221.566C224.07 222.252 224.35 223.148 224.462 223.708L225.162 223.456C225.05 222.938 224.756 222.056 224.448 221.384L223.79 221.566ZM221.662 221.188C221.662 220.992 222.166 220.74 222.166 220.74V220.726C222.754 219.984 223.412 218.836 223.902 217.716L223.118 217.464C222.768 218.528 222.124 219.62 221.928 219.9C221.746 220.18 221.564 220.362 221.41 220.404C221.494 220.614 221.62 221.006 221.662 221.188ZM221.662 221.188C221.83 221.09 222.152 221.02 223.762 220.81C223.804 220.642 223.916 220.32 224.028 220.11L222.054 220.306L221.648 220.572L221.662 221.188ZM221.788 223.582C221.788 223.4 222.264 223.134 222.264 223.134V223.12C223.146 222.224 224.084 220.88 224.868 219.508L224.084 219.214C223.496 220.502 222.53 221.832 222.236 222.154C221.984 222.504 221.746 222.756 221.536 222.798C221.62 222.994 221.746 223.414 221.788 223.582ZM221.788 223.582C221.984 223.47 222.348 223.4 224.658 223.078C224.588 222.91 224.504 222.602 224.476 222.392L222.152 222.686L221.76 222.938L221.788 223.582ZM228.816 221.314C229.11 222 229.432 222.924 229.558 223.47L230.244 223.218C230.104 222.686 229.782 221.79 229.474 221.132L228.816 221.314ZM226.674 220.908C226.674 220.712 227.164 220.46 227.164 220.46V220.432C227.696 219.76 228.284 218.724 228.704 217.688L227.92 217.436C227.626 218.388 227.052 219.396 226.898 219.662C226.73 219.914 226.576 220.096 226.422 220.11C226.52 220.334 226.632 220.726 226.674 220.908ZM226.674 220.908C226.842 220.81 227.15 220.74 228.69 220.544C228.746 220.376 228.858 220.054 228.956 219.844L227.066 220.026L226.674 220.278V220.908ZM226.828 223.316C226.828 223.134 227.318 222.854 227.318 222.854V222.84C228.172 221.93 229.082 220.572 229.81 219.2L228.998 218.892C228.452 220.18 227.528 221.524 227.248 221.86C226.996 222.21 226.772 222.448 226.562 222.49C226.646 222.714 226.786 223.148 226.828 223.316ZM226.828 223.316C227.024 223.204 227.374 223.134 229.67 222.784C229.628 222.616 229.544 222.336 229.502 222.126L227.192 222.42L226.8 222.672L226.828 223.316ZM222.558 224.8V225.514C222.558 226.704 222.208 228.314 220.556 229.504C220.766 229.63 221.116 229.952 221.256 230.134C223.02 228.818 223.468 226.942 223.468 225.542V224.8H222.558ZM233.03 218.654H235.438V220.754H233.03V218.654ZM232.232 217.856V221.552H236.278V217.856H232.232ZM231.56 222.658V223.582H236.614V222.658H231.56ZM232.876 223.05C232.722 223.946 232.47 225.094 232.246 225.864H233.17C233.366 225.136 233.618 223.988 233.786 223.05H232.876ZM232.974 225.01L232.75 225.864H235.508V225.01H232.974ZM235.144 225.01V225.164C234.962 227.74 234.78 228.72 234.514 228.986C234.416 229.098 234.29 229.126 234.08 229.126C233.87 229.126 233.352 229.112 232.806 229.07C232.96 229.308 233.044 229.686 233.058 229.952C233.618 229.994 234.178 229.994 234.458 229.966C234.836 229.938 235.046 229.854 235.27 229.602C235.648 229.21 235.83 228.16 236.04 225.43C236.054 225.29 236.068 225.01 236.068 225.01H235.144ZM240.464 218.206V219.074H243.824V218.206H240.464ZM237.706 220.026V220.88H243.838V220.026H237.706ZM237.23 220.026V223.596C237.23 225.388 237.104 227.824 235.956 229.574C236.18 229.686 236.572 229.966 236.726 230.148C237.972 228.286 238.154 225.542 238.154 223.596V220.026H237.23ZM238.448 222.28L238.546 223.036L242.746 222.602L242.662 221.86L238.448 222.28ZM243.558 220.026V220.152C243.46 220.894 243.278 221.804 243.124 222.378L243.922 222.574C244.104 221.958 244.342 220.978 244.51 220.152L243.866 219.984L243.698 220.026H243.558ZM239.274 225.346C239.19 227.292 238.924 228.65 237.608 229.42C237.818 229.574 238.084 229.896 238.196 230.12C239.722 229.182 240.086 227.6 240.17 225.346H239.274ZM241.36 225.346V228.58C241.36 229.21 241.416 229.42 241.64 229.602C241.836 229.77 242.158 229.826 242.466 229.826C242.606 229.826 243.04 229.826 243.222 229.826C243.474 229.826 243.782 229.77 243.964 229.686C244.16 229.574 244.3 229.406 244.384 229.154C244.454 228.902 244.51 228.202 244.524 227.544C244.258 227.474 243.922 227.278 243.74 227.11C243.754 227.754 243.726 228.3 243.698 228.524C243.67 228.664 243.586 228.776 243.516 228.818C243.446 228.874 243.278 228.888 243.138 228.888C242.984 228.888 242.774 228.888 242.662 228.888C242.536 228.888 242.424 228.874 242.368 228.818C242.27 228.79 242.256 228.692 242.256 228.594V225.346H241.36ZM239.988 217.24V220.474H240.996V217.24H239.988ZM239.932 220.964V223.316C239.932 224.226 240.128 224.618 241.024 224.618C241.248 224.618 242.438 224.618 242.718 224.618C243.068 224.618 243.432 224.604 243.628 224.534C243.586 224.31 243.558 224.016 243.53 223.75C243.348 223.806 242.928 223.82 242.676 223.82C242.438 223.82 241.402 223.82 241.178 223.82C240.884 223.82 240.842 223.694 240.842 223.344V220.964H239.932ZM245.672 217.912V218.878H250.81V217.912H245.672ZM247.114 222.28V223.204H249.354V227.404H247.114V228.328H250.292V222.28H247.114ZM247.366 218.374C247.03 221.006 246.442 223.512 245.336 225.108C245.532 225.332 245.854 225.836 245.952 226.06C247.226 224.226 247.94 221.468 248.374 218.528L247.366 218.374ZM246.652 222.28V229.49H247.576V222.28H246.652ZM251.93 220.04V220.894H257.6V220.04H251.93ZM251.93 222.196V223.064H257.6V222.196H251.93ZM251.412 224.394V225.318H257.558V224.394H251.412ZM254.31 218.318V224.786H255.262V218.318H254.31ZM252.574 226.438C252.728 227.264 252.812 228.328 252.784 229.028L253.554 228.902C253.568 228.216 253.47 227.166 253.302 226.326L252.574 226.438ZM254.058 226.326C254.338 227.012 254.604 227.922 254.688 228.496L255.416 228.286C255.304 227.712 255.038 226.816 254.744 226.144L254.058 226.326ZM255.472 226.018C255.836 226.55 256.228 227.25 256.396 227.712L257.026 227.418C256.844 226.984 256.438 226.284 256.032 225.78L255.472 226.018ZM251.216 226.004C251.09 227.152 250.81 228.37 250.194 229.07L250.936 229.49C251.608 228.72 251.874 227.418 252.014 226.2L251.216 226.004ZM251.412 217.842V224.856H252.378V218.766H257.95V217.842H251.412ZM257.25 224.394V224.562C257.124 227.684 256.956 228.832 256.704 229.112C256.592 229.238 256.48 229.266 256.256 229.266C256.046 229.266 255.486 229.252 254.884 229.196C255.038 229.462 255.136 229.84 255.15 230.12C255.766 230.148 256.368 230.148 256.69 230.12C257.068 230.092 257.306 229.994 257.53 229.728C257.894 229.322 258.048 228.118 258.202 224.828C258.216 224.688 258.216 224.394 258.216 224.394H257.25Z" fill="#939EA7"/>
<path d="M168.625 87C168.625 93.4204 163.42 98.625 157 98.625C150.58 98.625 145.375 93.4204 145.375 87C145.375 80.5796 150.58 75.375 157 75.375C163.42 75.375 168.625 80.5796 168.625 87ZM155.655 93.1553L164.28 84.5303C164.573 84.2375 164.573 83.7625 164.28 83.4697L163.22 82.409C162.927 82.1161 162.452 82.1161 162.159 82.409L155.125 89.443L151.841 86.159C151.548 85.8661 151.073 85.8661 150.78 86.159L149.72 87.2196C149.427 87.5125 149.427 87.9874 149.72 88.2803L154.595 93.1553C154.888 93.4481 155.362 93.4481 155.655 93.1553L155.655 93.1553Z" fill="black"/>
<defs>
<clipPath id="clip0_32_125">
<rect width="24" height="24" fill="white" transform="translate(621 74)"/>
</clipPath>
</defs>
</svg>
