<svg width="790" height="356" viewBox="0 0 790 356" fill="none" xmlns="http://www.w3.org/2000/svg">
<rect x="137" y="40" width="560" height="276" fill="white"/>
<path d="M168.024 130.936V132.152H181.992V130.936H168.024ZM170.616 138.072V139.288H179.352V138.072H170.616ZM174.344 127.576V142.28H175.608V127.576H174.344ZM173.192 131.336C172.088 134.36 169.928 137.336 167.592 138.776C167.88 139.016 168.264 139.448 168.472 139.752C170.888 138.072 173.064 135.016 174.28 131.672L173.192 131.336ZM176.728 131.384L175.656 131.704C176.856 135.032 179.016 138.104 181.496 139.704C181.704 139.368 182.12 138.904 182.44 138.664C179.992 137.288 177.816 134.392 176.728 131.384ZM190.28 127.576C189.784 130.12 188.904 132.632 187.688 134.184C188.008 134.328 188.6 134.68 188.872 134.872C190.056 133.176 191.016 130.552 191.592 127.816L190.28 127.576ZM190.104 130.312L189.576 131.496H196.968V130.312H190.104ZM196.6 130.312V130.6C196.36 131.88 195.704 133.592 195.208 134.584C195.48 134.712 195.96 134.952 196.216 135.08C196.776 133.976 197.496 132.296 197.896 130.728L197.016 130.248L196.776 130.312H196.6ZM193.048 133.736L192.024 133.912C192.808 137.944 194.408 140.872 197.608 142.184C197.784 141.848 198.152 141.368 198.408 141.128C195.352 140.056 193.752 137.32 193.048 133.736ZM191.88 132.152V133.4C191.88 135.704 191.528 139.048 186.888 141.384C187.176 141.608 187.592 142.04 187.784 142.344C192.696 139.8 193.144 136.072 193.144 133.416V132.152H191.88ZM184.136 130.088V131.256H188.36V130.088H184.136ZM183.784 136.696V137.88H188.856V136.696H183.784ZM210.152 134.84C209.304 135.672 207.688 136.424 206.248 136.856C206.488 137.032 206.776 137.336 206.936 137.56C208.456 137.064 210.104 136.232 211.08 135.208L210.152 134.84ZM211.688 136.376C210.6 137.512 208.504 138.424 206.472 138.888C206.696 139.096 206.936 139.448 207.096 139.672C209.24 139.096 211.384 138.088 212.6 136.76L211.688 136.376ZM213.192 138.12C211.752 139.768 208.808 140.792 205.592 141.256C205.832 141.512 206.104 141.928 206.216 142.216C209.608 141.624 212.632 140.472 214.216 138.568L213.192 138.12ZM208.024 127.56C207.368 129.272 206.2 130.936 204.92 132.008C205.192 132.168 205.64 132.536 205.832 132.728C207.128 131.544 208.36 129.736 209.144 127.832L208.024 127.56ZM207.672 129.304L207.064 130.312H214.184V129.304H207.672ZM211.992 129.528C210.904 132.248 208.28 133.816 205.048 134.648C205.272 134.872 205.624 135.352 205.768 135.592C209.08 134.568 211.832 132.84 213.128 129.8L211.992 129.528ZM207.56 129.928L206.824 130.52C207.88 132.504 210.28 134.6 214.04 135.448C214.184 135.16 214.472 134.712 214.696 134.488C210.952 133.784 208.536 131.848 207.56 129.928ZM203.96 129.464V139.624H205.016V129.464H203.96ZM202.712 127.656C201.944 130.136 200.664 132.6 199.272 134.2C199.48 134.504 199.8 135.144 199.896 135.416C201.496 133.56 202.92 130.744 203.832 127.976L202.712 127.656ZM201.432 131.576V142.28H202.584V130.504L202.552 130.472L201.432 131.576ZM223.976 130.536V131.64H230.216V130.536H223.976ZM224.536 127.56C224.008 130.264 223.096 132.888 221.768 134.536C222.04 134.744 222.504 135.192 222.696 135.416C224.072 133.576 225.096 130.744 225.72 127.784L224.536 127.56ZM227.976 131.192C227.256 136.296 225.576 139.496 221.64 141.256C221.88 141.512 222.248 142.056 222.376 142.344C226.52 140.296 228.36 136.888 229.224 131.336L227.976 131.192ZM224.52 131.544L223.448 131.752C224.392 136.616 226.168 140.44 229.64 142.216C229.832 141.896 230.184 141.432 230.472 141.208C227.144 139.672 225.336 135.992 224.52 131.544ZM216.392 141.512C216.76 141.208 217.352 140.92 222.024 139.128C221.96 138.856 221.88 138.36 221.88 138.008L216.808 139.816L216.248 140.328L216.392 141.512ZM216.392 141.512C216.392 141.08 217.624 140.536 217.624 140.536V133.272H216.424V139.368C216.424 139.96 216.152 140.168 215.912 140.264C216.12 140.584 216.328 141.176 216.392 141.512ZM216.216 128.68V129.864H220.696V133.272H216.696V134.456H221.896V128.68H216.216ZM236.184 129.048V129.976H246.312V129.048H236.184ZM236.632 136.92V137.832H245.816V136.92H236.632ZM236.984 138.936V139.848H245.464V138.936H236.984ZM235.976 141.064V142.008H246.36V141.064H235.976ZM240.6 131.512V141.576H241.784V131.512H240.6ZM238.024 133.592H244.44V135.096H238.024V133.592ZM236.92 132.728V135.96H245.592V132.728H236.92ZM238.344 127.56V131.944H244.12V127.56H242.952V131.096H239.48V127.56H238.344ZM235.224 127.624C234.328 130.056 232.824 132.456 231.24 134.008C231.464 134.28 231.8 134.92 231.928 135.192C233.656 133.4 235.304 130.696 236.36 127.976L235.224 127.624ZM233.56 131.752V142.264H234.712V130.632L234.68 130.616L233.56 131.752ZM250.12 128.696V129.848H260.472V128.696H250.12ZM250.12 132.424V133.56H260.456V132.424H250.12ZM250.04 136.248V137.384H260.488V136.248H250.04ZM249.448 128.696V134.488C249.448 136.744 249.272 139.592 247.512 141.576C247.768 141.736 248.248 142.136 248.44 142.376C250.344 140.248 250.632 136.936 250.632 134.504V128.696H249.448ZM259.992 128.696V140.648C259.992 140.952 259.88 141.048 259.576 141.064C259.272 141.064 258.184 141.08 257.048 141.032C257.224 141.352 257.416 141.88 257.464 142.2C258.984 142.216 259.912 142.2 260.456 142.008C260.984 141.8 261.176 141.432 261.176 140.648V128.696H259.992ZM254.472 129.128V142.136H255.688V129.128H254.472ZM263.8 130.2V131.32H270.296V130.2H263.8ZM266.2 133.544V134.648H269.016V133.544H266.2ZM265.4 130.792C265.352 135.4 265.272 139.208 263.48 141.352C263.784 141.544 264.2 141.944 264.392 142.232C266.36 139.816 266.52 135.736 266.584 130.792H265.4ZM268.584 133.544V133.784C268.392 138.616 268.2 140.312 267.896 140.728C267.768 140.888 267.64 140.936 267.432 140.92C267.208 140.92 266.728 140.92 266.2 140.872C266.36 141.176 266.472 141.656 266.488 141.976C267.064 142.008 267.624 142.008 267.96 141.96C268.376 141.928 268.632 141.816 268.888 141.448C269.336 140.888 269.512 139.144 269.704 134.088C269.72 133.928 269.72 133.544 269.72 133.544H268.584ZM272.376 134.536C273.352 135.192 274.568 136.152 275.16 136.76L275.976 135.864C275.368 135.256 274.136 134.36 273.16 133.752L272.376 134.536ZM271.4 139.08C272.92 139.864 274.84 141.08 275.768 141.928L276.584 140.888C275.624 140.072 273.656 138.904 272.168 138.184L271.4 139.08ZM265.704 127.912C266.248 128.632 266.824 129.576 267.032 130.2L268.152 129.736C267.912 129.128 267.32 128.184 266.76 127.512L265.704 127.912ZM274.504 128.488L273.576 128.824C274.456 130.856 276.056 133.016 277.656 134.056C277.864 133.736 278.264 133.304 278.552 133.08C276.984 132.216 275.32 130.264 274.504 128.488ZM273.784 127.48C273.08 129.944 271.64 132.056 269.768 133.224C270.072 133.464 270.424 133.864 270.6 134.168C272.632 132.76 274.088 130.504 274.904 127.816L273.784 127.48ZM280.456 132.408V133.368H285.368V132.408H280.456ZM280.456 134.504V135.464H285.352V134.504H280.456ZM279.752 130.28V131.288H285.864V130.28H279.752ZM281 136.648V137.656H284.232V140.312H281V141.32H285.304V136.648H281ZM280.456 136.648V142.072H281.512V136.648H280.456ZM281.544 127.976C281.976 128.632 282.504 129.544 282.744 130.136L283.72 129.56C283.464 129 282.952 128.152 282.488 127.496L281.544 127.976ZM286.184 128.92V130.088H294.376V128.92H286.184ZM290.696 129.256V140.472C290.696 140.776 290.584 140.872 290.264 140.888C289.912 140.92 288.712 140.92 287.48 140.872C287.688 141.208 287.896 141.784 287.976 142.12C289.528 142.12 290.536 142.104 291.128 141.896C291.704 141.704 291.896 141.304 291.896 140.488V129.256H290.696ZM302.328 132.68V142.28H303.56V132.68H302.328ZM298.696 135.384H307.4V136.776H298.696V135.384ZM298.696 133.096H307.4V134.456H298.696V133.096ZM297.528 132.12V137.736H308.616V132.12H297.528ZM295.912 138.968V140.024H310.104V138.968H295.912ZM298.184 129H301.256V130.52H298.184V129ZM297.096 128.2V131.32H302.376V128.2H297.096ZM304.76 129H307.864V130.52H304.76V129ZM303.672 128.2V131.32H309V128.2H303.672ZM316.12 129.336V130.456H326.392V129.336H316.12ZM317.704 133.032H324.696V135.432H317.704V133.032ZM316.6 132.008V136.456H325.864V132.008H316.6ZM317.592 136.776L316.6 137.112C318.296 140.04 321.576 141.704 325.816 142.312C325.976 141.976 326.28 141.496 326.536 141.24C322.376 140.776 319.096 139.288 317.592 136.776ZM320.568 127.624V134.696C320.568 137.4 320.296 140.136 315.544 141.336C315.784 141.592 316.12 142.072 316.264 142.344C321.224 140.872 321.752 137.8 321.752 134.712V127.624H320.568ZM315.432 127.528C314.504 129.96 312.936 132.344 311.32 133.864C311.544 134.152 311.88 134.776 311.992 135.048C313.768 133.272 315.48 130.584 316.568 127.88L315.432 127.528ZM313.752 131.72V142.36H314.904V130.6L314.888 130.584L313.752 131.72ZM330.12 128.696V129.848H340.472V128.696H330.12ZM330.12 132.424V133.56H340.456V132.424H330.12ZM330.04 136.248V137.384H340.488V136.248H330.04ZM329.448 128.696V134.488C329.448 136.744 329.272 139.592 327.512 141.576C327.768 141.736 328.248 142.136 328.44 142.376C330.344 140.248 330.632 136.936 330.632 134.504V128.696H329.448ZM339.992 128.696V140.648C339.992 140.952 339.88 141.048 339.576 141.064C339.272 141.064 338.184 141.08 337.048 141.032C337.224 141.352 337.416 141.88 337.464 142.2C338.984 142.216 339.912 142.2 340.456 142.008C340.984 141.8 341.176 141.432 341.176 140.648V128.696H339.992ZM334.472 129.128V142.136H335.688V129.128H334.472ZM349.688 137.992C351.368 137.416 352.456 136.104 352.456 134.376C352.456 133.256 351.976 132.52 351.08 132.52C350.44 132.52 349.864 132.92 349.864 133.672C349.864 134.424 350.408 134.824 351.064 134.824C351.368 134.824 351.688 134.744 351.912 134.456L351.048 133.24L351.352 134.584C351.352 135.8 350.632 136.616 349.32 137.144L349.688 137.992ZM363.72 140.408V141.496H371.976V140.408H363.72ZM365.8 131.16C364.68 134.728 362.552 137.416 359.496 139.016C359.768 139.24 360.232 139.72 360.408 139.96C363.48 138.184 365.72 135.32 367.016 131.448L365.8 131.16ZM363.16 136.312V142.28H364.36V137.4H371.608V142.248H372.856V136.312H363.16ZM359.864 133.032V134.152H374.152V133.032H359.864ZM359.96 129.016V130.104H366.648V129.016H359.96ZM362.824 127.56V131.72H364.024V127.56H362.824ZM369.88 127.56V131.736H371.08V127.56H369.88ZM367.32 129.016V130.104H374.136V129.016H367.32ZM376.904 128.248V129.16H389.048V128.248H376.904ZM382.344 128.552V134.824H383.528V128.552H382.344ZM376.2 130.344V133.8H377.352V131.288H388.6V133.8H389.8V130.344H376.2ZM377.64 134.04L377.992 134.968C379.032 134.776 380.248 134.52 381.496 134.264L381.464 133.496C380.024 133.72 378.648 133.928 377.64 134.04ZM378.04 132.216C379.096 132.424 380.44 132.84 381.144 133.144L381.496 132.424C380.776 132.104 379.432 131.752 378.392 131.576L378.04 132.216ZM387.432 131.496C386.664 131.784 385.304 132.264 384.392 132.472L384.824 133.096C385.752 132.888 387.048 132.584 387.976 132.184L387.432 131.496ZM384.184 134.152C385.448 134.328 387.08 134.712 387.96 135.016L388.216 134.2C387.336 133.896 385.72 133.544 384.472 133.416L384.184 134.152ZM376.024 135.304V136.28H390.008V135.304H376.024ZM380.776 138.056V142.168H381.896V138.056H380.776ZM384.328 138.056V142.168H385.432V138.056H384.328ZM377.272 137.432V142.264H378.408V138.424H388.248V137.432H377.272ZM387.944 137.432V141.08C387.944 141.224 387.896 141.272 387.72 141.288C387.544 141.304 387 141.304 386.36 141.288C386.504 141.576 386.68 141.992 386.728 142.28C387.608 142.28 388.2 142.296 388.6 142.104C389.016 141.928 389.096 141.64 389.096 141.096V137.432H387.944ZM382.376 135.672C382.264 136.328 381.976 137.288 381.736 137.944L382.792 138.056C383.064 137.464 383.4 136.584 383.688 135.72L382.376 135.672ZM392.264 132.408V133.368H396.6V132.408H392.264ZM392.776 136.648V137.656H395.624V140.312H392.776V141.32H396.616V136.648H392.776ZM392.264 136.648V142.056H393.256V136.648H392.264ZM392.264 134.504V135.464H396.6V134.504H392.264ZM391.64 130.28V131.288H397.096V130.28H391.64ZM393.352 127.992C393.752 128.664 394.264 129.576 394.504 130.152L395.448 129.672C395.192 129.128 394.68 128.248 394.232 127.592L393.352 127.992ZM397.992 128.296V134.296C397.992 136.584 397.88 139.608 396.68 141.72C396.904 141.816 397.336 142.136 397.528 142.312C398.824 140.104 399 136.712 399 134.296V128.296H397.992ZM398.504 128.296V129.368H405.384V128.296H398.504ZM404.872 128.296V140.808C404.872 141.032 404.792 141.096 404.552 141.112C404.344 141.128 403.624 141.128 402.792 141.096C402.952 141.384 403.112 141.864 403.144 142.136C404.248 142.136 404.92 142.12 405.336 141.944C405.736 141.768 405.88 141.416 405.88 140.808V128.296H404.872ZM398.76 131.08V132.072H405.096V131.08H398.76ZM398.712 133.704V134.68H405.128V133.704H398.712ZM401.4 128.904V134.232H402.424V128.904H401.4ZM400.248 135.752V136.648H403.048V138.616H400.248V139.528H403.992V135.752H400.248ZM399.704 135.752V140.264H400.6V135.752H399.704ZM408.824 136.312V137.32H421.224V136.312H408.824ZM407.896 128.568V129.48H415.208V128.568H407.896ZM415.032 138.568V139.512H420.184V138.568H415.032ZM407.752 140.824V141.864H422.28V140.824H407.752ZM414.376 136.68V141.272H415.56V136.68H414.376ZM411.08 127.56V135.864H412.152V127.56H411.08ZM410.376 138.152V141.352H411.528V138.152H410.376ZM409.352 131.112H413.752V132.296H409.352V131.112ZM408.376 130.296V133.08H414.792V130.296H408.376ZM417.208 127.576C416.76 129.192 415.96 130.68 414.904 131.656C415.144 131.848 415.56 132.248 415.72 132.472C416.84 131.368 417.784 129.64 418.296 127.816L417.208 127.576ZM416.968 129.352L416.472 130.36H422.216V129.352H416.968ZM420.184 129.784C419.544 132.616 417.736 134.28 414.936 135.16C415.16 135.368 415.512 135.832 415.64 136.056C418.552 134.952 420.52 133.128 421.304 129.912L420.184 129.784ZM417.096 129.944L416.312 130.472C417.032 132.536 418.728 134.984 421.704 136.088C421.832 135.816 422.152 135.368 422.392 135.144C419.432 134.2 417.768 131.928 417.096 129.944ZM410.968 132.776C410.248 133.736 408.856 134.744 407.624 135.208C407.848 135.384 408.168 135.752 408.328 135.992C409.576 135.416 411 134.232 411.752 133.112L410.968 132.776ZM412.088 133.768C412.872 134.168 413.784 134.76 414.264 135.208L414.792 134.504C414.328 134.056 413.368 133.496 412.616 133.144L412.088 133.768ZM426.632 132.984H435.304V135.4H426.632V132.984ZM425.608 132.168V136.216H436.392V132.168H425.608ZM428.232 130.488V131.336H433.816V130.488H428.232ZM430.44 132.456V135.8H431.448V132.456H430.44ZM427.608 133.464C428.008 134.04 428.376 134.824 428.504 135.336L429.432 135C429.272 134.488 428.888 133.736 428.472 133.176L427.608 133.464ZM433.368 133.112C433.176 133.656 432.776 134.504 432.472 135.048L433.304 135.336C433.624 134.856 434.04 134.12 434.392 133.432L433.368 133.112ZM426.552 136.984V142.28H427.736V137.832H434.376V142.216H435.592V136.984H426.552ZM427.256 138.904V139.784H434.904V138.904H427.256ZM427.256 140.872V141.736H434.904V140.872H427.256ZM430.872 127.496C429.384 129.448 426.52 130.856 423.592 131.656C423.816 131.864 424.152 132.36 424.28 132.6C427.24 131.64 430.248 130.104 431.944 127.896L430.872 127.496ZM431.576 128.056L430.648 128.456C432.264 130.232 435.176 131.768 437.768 132.472C437.944 132.184 438.28 131.752 438.536 131.544C435.944 130.936 433.048 129.592 431.576 128.056ZM443.224 129.16H450.824V130.808H443.224V129.16ZM442.024 128.184V131.8H452.088V128.184H442.024ZM442.536 135.592H451.496V136.728H442.536V135.592ZM442.536 137.576H451.496V138.728H442.536V137.576ZM442.536 133.624H451.496V134.744H442.536V133.624ZM441.336 132.728V139.608H452.728V132.728H441.336ZM444.392 139.592C443.384 140.248 441.288 141.016 439.608 141.416C439.896 141.656 440.296 142.04 440.504 142.296C442.152 141.88 444.232 141.112 445.512 140.328L444.392 139.592ZM448.296 140.424C449.992 140.92 452.168 141.752 453.352 142.312L454.392 141.448C453.144 140.92 451 140.136 449.336 139.64L448.296 140.424ZM459.048 135.928H467.112V137.016H459.048V135.928ZM459.048 137.8H467.112V138.92H459.048V137.8ZM459.048 134.056H467.112V135.144H459.048V134.056ZM457.88 133.256V139.72H468.312V133.256H457.88ZM464.52 140.472C466.248 141.032 467.976 141.72 469 142.232L470.072 141.544C468.936 141.032 467.064 140.328 465.32 139.8L464.52 140.472ZM460.568 139.816C459.416 140.456 457.496 141.016 455.848 141.368C456.12 141.576 456.536 142.04 456.728 142.264C458.328 141.832 460.36 141.096 461.656 140.328L460.568 139.816ZM462.408 128.648V129.592H469V128.648H462.408ZM462.664 127.528C462.296 128.68 461.624 129.816 460.792 130.584C461.064 130.728 461.512 131.016 461.704 131.192C462.536 130.376 463.304 129.08 463.736 127.768L462.664 127.528ZM464.568 129.24V129.752C464.568 130.568 464.168 131.672 460.008 132.216C460.216 132.44 460.536 132.856 460.648 133.144C465.16 132.44 465.672 131 465.672 129.784V129.24H464.568ZM465.512 130.184L464.664 130.392C465.544 131.816 467.384 132.728 469.688 133.064C469.832 132.76 470.136 132.328 470.376 132.088C468.152 131.896 466.328 131.224 465.512 130.184ZM456.12 128.52V129.464H459.976V128.52H456.12ZM455.768 131.016V131.992H460.376V131.016H455.768ZM468.6 128.648V128.824C468.312 129.512 467.864 130.328 467.496 130.856L468.44 131.192C468.888 130.616 469.4 129.688 469.8 128.872L468.984 128.6L468.808 128.648H468.6ZM474.328 127.576V142.28H475.448V127.576H474.328ZM471.752 132.936V134.072H478.072V132.936H471.752ZM471.864 128.824C472.28 129.944 472.664 131.432 472.728 132.376L473.688 132.152C473.576 131.176 473.208 129.72 472.744 128.6L471.864 128.824ZM477.032 128.536C476.808 129.624 476.328 131.208 475.96 132.168L476.744 132.408C477.176 131.512 477.672 130.008 478.088 128.808L477.032 128.536ZM483.24 127.576V142.28H484.376V127.576H483.24ZM478.04 137.752L478.232 138.872L486.456 137.384L486.264 136.28L478.04 137.752ZM479.24 129.528C480.168 130.104 481.272 130.968 481.784 131.592L482.424 130.664C481.896 130.072 480.792 129.256 479.864 128.712L479.24 129.528ZM478.424 133.56C479.384 134.088 480.536 134.904 481.096 135.48L481.704 134.536C481.128 133.96 479.944 133.208 478.984 132.712L478.424 133.56ZM473.128 135C472.872 136.44 472.184 138.216 471.528 139.16C471.752 139.512 472.024 140.088 472.152 140.488C472.984 139.352 473.672 137.08 474.008 135.288L473.128 135ZM476.184 135.016L475.512 135.496C475.864 136.2 476.744 138.248 477.016 139.128L477.896 138.216C477.64 137.688 476.488 135.496 476.184 135.016ZM493.688 137.992C495.368 137.416 496.456 136.104 496.456 134.376C496.456 133.256 495.976 132.52 495.08 132.52C494.44 132.52 493.864 132.92 493.864 133.672C493.864 134.424 494.408 134.824 495.064 134.824C495.368 134.824 495.688 134.744 495.912 134.456L495.048 133.24L495.352 134.584C495.352 135.8 494.632 136.616 493.32 137.144L493.688 137.992ZM509.592 128.872V129.784H518.2V128.872H509.592ZM509.992 130.776V131.656H517.896V130.776H509.992ZM509.416 132.744V133.672H518.36V132.744H509.416ZM513.224 127.56V133.24H514.392V127.56H513.224ZM516.296 134.632V141.032C516.296 141.208 516.248 141.272 516.04 141.272C515.832 141.288 515.176 141.288 514.456 141.256C514.6 141.544 514.76 141.96 514.808 142.248C515.8 142.264 516.472 142.248 516.888 142.088C517.304 141.912 517.432 141.608 517.432 141.032V134.632H516.296ZM510.952 136.744V137.624H516.872V136.744H510.952ZM510.952 138.808V139.672H516.872V138.808H510.952ZM510.36 134.632V137.576C510.36 138.856 510.248 140.472 509.304 141.688C509.528 141.832 509.976 142.248 510.136 142.472C511.256 141.112 511.464 139.096 511.464 137.592V134.632H510.36ZM511 134.632V135.576H516.696V134.632H511ZM504.088 132.296V133.256H508.76V132.296H504.088ZM504.744 136.68V137.672H507.672V140.344H504.744V141.352H508.728V136.68H504.744ZM504.168 136.68V142.088H505.208V136.68H504.168ZM504.104 134.472V135.448H508.776V134.472H504.104ZM503.704 130.248V131.256H509.24V130.248H503.704ZM505.608 127.912C505.912 128.6 506.264 129.512 506.408 130.088L507.464 129.704C507.304 129.144 506.952 128.264 506.616 127.592L505.608 127.912ZM519.848 130.088V131.208H534.152V130.088H519.848ZM521.496 135.24V136.184H525.976V135.24H521.496ZM521.496 137.8V138.744H525.976V137.8H521.496ZM528.648 132.776V139.352H529.784V132.776H528.648ZM525.544 132.632V140.888C525.544 141.096 525.48 141.16 525.256 141.176C525.032 141.192 524.296 141.192 523.496 141.16C523.656 141.464 523.832 141.912 523.896 142.216C524.984 142.216 525.688 142.216 526.12 142.024C526.568 141.832 526.712 141.512 526.712 140.904V132.632H525.544ZM531.896 132.296V140.792C531.896 141.016 531.816 141.08 531.56 141.096C531.288 141.112 530.424 141.112 529.448 141.08C529.624 141.4 529.816 141.912 529.88 142.232C531.128 142.232 531.928 142.2 532.424 142.024C532.92 141.832 533.08 141.496 533.08 140.792V132.296H531.896ZM522.328 127.96C522.936 128.648 523.592 129.624 523.848 130.232L525.032 129.8C524.728 129.176 524.056 128.232 523.432 127.544L522.328 127.96ZM530.552 127.496C530.152 128.36 529.432 129.592 528.856 130.36L529.912 130.76C530.504 130.008 531.224 128.904 531.832 127.912L530.552 127.496ZM520.92 132.632V136.44C520.92 138.056 520.792 140.136 519.72 141.64C519.992 141.768 520.456 142.12 520.632 142.328C521.816 140.712 522.008 138.248 522.008 136.456V132.632H520.92ZM521.608 132.632V133.624H526.104V132.632H521.608ZM539.304 131.16C538.392 132.824 536.904 134.456 535.48 135.528C535.688 135.8 536.024 136.44 536.136 136.696C537.672 135.432 539.32 133.496 540.376 131.576L539.304 131.16ZM538.968 127.608C538.312 128.744 536.936 130.072 535.704 130.904C535.896 131.128 536.2 131.608 536.344 131.88C537.72 130.92 539.208 129.432 540.12 128.04L538.968 127.608ZM537.832 134.12V142.296H539.048V132.984L539 132.952L537.832 134.12ZM541.16 135.368V136.52H549.4V135.368H541.16ZM540.12 140.648V141.784H550.328V140.648H540.12ZM540.584 130.616V131.768H549.912V130.616H540.584ZM544.648 131.272V141.192H545.88V131.272H544.648ZM543.768 127.896C544.296 128.744 544.872 129.864 545.096 130.568L546.248 130.104C546.008 129.4 545.4 128.312 544.856 127.496L543.768 127.896Z" fill="black"/>
<path d="M554.632 132.984H563.304V135.4H554.632V132.984ZM553.608 132.168V136.216H564.392V132.168H553.608ZM556.232 130.488V131.336H561.816V130.488H556.232ZM558.44 132.456V135.8H559.448V132.456H558.44ZM555.608 133.464C556.008 134.04 556.376 134.824 556.504 135.336L557.432 135C557.272 134.488 556.888 133.736 556.472 133.176L555.608 133.464ZM561.368 133.112C561.176 133.656 560.776 134.504 560.472 135.048L561.304 135.336C561.624 134.856 562.04 134.12 562.392 133.432L561.368 133.112ZM554.552 136.984V142.28H555.736V137.832H562.376V142.216H563.592V136.984H554.552ZM555.256 138.904V139.784H562.904V138.904H555.256ZM555.256 140.872V141.736H562.904V140.872H555.256ZM558.872 127.496C557.384 129.448 554.52 130.856 551.592 131.656C551.816 131.864 552.152 132.36 552.28 132.6C555.24 131.64 558.248 130.104 559.944 127.896L558.872 127.496ZM559.576 128.056L558.648 128.456C560.264 130.232 563.176 131.768 565.768 132.472C565.944 132.184 566.28 131.752 566.536 131.544C563.944 130.936 561.048 129.592 559.576 128.056ZM571.224 129.16H578.824V130.808H571.224V129.16ZM570.024 128.184V131.8H580.088V128.184H570.024ZM570.536 135.592H579.496V136.728H570.536V135.592ZM570.536 137.576H579.496V138.728H570.536V137.576ZM570.536 133.624H579.496V134.744H570.536V133.624ZM569.336 132.728V139.608H580.728V132.728H569.336ZM572.392 139.592C571.384 140.248 569.288 141.016 567.608 141.416C567.896 141.656 568.296 142.04 568.504 142.296C570.152 141.88 572.232 141.112 573.512 140.328L572.392 139.592ZM576.296 140.424C577.992 140.92 580.168 141.752 581.352 142.312L582.392 141.448C581.144 140.92 579 140.136 577.336 139.64L576.296 140.424ZM584.536 130.424V138.04H585.736V131.608H596.184V137.96H597.432V130.424H584.536ZM585.176 135.864V137.032H596.904V135.864H585.176ZM590.328 127.56V142.264H591.576V127.56H590.328ZM603.72 132.04V139.96C603.72 141.56 604.216 141.992 605.96 141.992C606.312 141.992 608.792 141.992 609.192 141.992C610.984 141.992 611.368 141.096 611.528 138.056C611.208 137.96 610.68 137.752 610.392 137.528C610.264 140.296 610.12 140.856 609.128 140.856C608.568 140.856 606.488 140.856 606.056 140.856C605.144 140.856 604.952 140.712 604.952 139.976V132.04H603.72ZM601.16 133.224C600.92 135.128 600.392 137.64 599.704 139.288L600.904 139.8C601.56 138.072 602.056 135.352 602.312 133.464L601.16 133.224ZM611.176 133.24C612.072 135.144 612.952 137.672 613.256 139.32L614.456 138.856C614.104 137.192 613.208 134.728 612.28 132.824L611.176 133.24ZM604.472 128.92C605.992 129.992 607.88 131.576 608.76 132.568L609.624 131.672C608.696 130.664 606.776 129.16 605.288 128.136L604.472 128.92Z" fill="#003A9F"/>
<path d="M551 143.4H615V144.2H551V143.4Z" fill="#003A9F"/>
<path d="M182.29 87.508C181.146 88.586 178.946 89.554 177.032 90.104C177.428 90.412 177.912 90.918 178.176 91.314C180.244 90.632 182.466 89.532 183.83 88.146L182.29 87.508ZM184.402 89.576C182.928 91.094 180.046 92.282 177.274 92.876C177.648 93.25 178.066 93.822 178.308 94.218C181.3 93.426 184.226 92.084 185.942 90.214L184.402 89.576ZM186.272 92.018C184.336 94.196 180.376 95.516 176.108 96.11C176.504 96.572 176.966 97.276 177.164 97.76C181.762 96.946 185.81 95.428 188.054 92.766L186.272 92.018ZM179.32 77.41C178.462 79.742 176.922 81.964 175.184 83.372C175.646 83.658 176.416 84.252 176.746 84.604C178.506 82.998 180.2 80.512 181.234 77.894L179.32 77.41ZM179.034 79.764L178.022 81.458H187.966V79.764H179.034ZM184.666 80.16C183.258 83.812 179.782 85.924 175.404 87.002C175.778 87.376 176.394 88.19 176.636 88.608C181.168 87.222 184.864 84.824 186.624 80.6L184.666 80.16ZM178.946 80.776L177.648 81.678C179.144 84.428 182.466 87.288 187.526 88.432C187.768 87.926 188.296 87.156 188.67 86.76C183.61 85.88 180.31 83.328 178.946 80.776ZM173.732 80.138V94.196H175.536V80.138H173.732ZM171.884 77.542C170.872 80.864 169.156 84.186 167.308 86.32C167.638 86.87 168.166 88.014 168.342 88.52C170.564 85.924 172.566 81.92 173.798 78.092L171.884 77.542ZM170.146 83.196V97.848H172.126V81.326L172.06 81.282L170.146 83.196ZM201.32 81.458V83.372H210.01V81.458H201.32ZM202.002 77.432C201.32 81.15 200.088 84.758 198.262 87.002C198.702 87.354 199.494 88.168 199.824 88.564C201.76 85.99 203.212 81.986 204.07 77.806L202.002 77.432ZM206.688 82.646C205.764 89.444 203.52 93.712 198.24 96.044C198.636 96.484 199.252 97.452 199.472 97.936C205.148 95.164 207.678 90.456 208.844 82.91L206.688 82.646ZM202.354 83.086L200.506 83.416C201.804 90.104 204.158 95.274 208.976 97.738C209.306 97.188 209.922 96.396 210.406 95.978C205.852 93.91 203.454 89.004 202.354 83.086ZM190.87 96.99C191.442 96.528 192.366 96.066 198.768 93.646C198.658 93.184 198.526 92.304 198.526 91.688L191.508 94.152L190.606 94.966L190.87 96.99ZM190.87 96.99C190.87 96.242 192.916 95.384 192.916 95.384V85.198H190.826V93.514C190.826 94.328 190.452 94.658 190.078 94.834C190.43 95.362 190.76 96.396 190.87 96.99ZM190.562 78.906V80.952H196.48V85.198H191.266V87.266H198.548V78.906H190.562ZM228.402 77.432C224.926 78.444 218.656 79.016 213.398 79.258C213.596 79.72 213.838 80.556 213.904 81.084C219.25 80.886 225.696 80.314 229.92 79.148L228.402 77.432ZM213.508 83.658V85.66H230.756V83.658H213.508ZM212.012 88.806V90.852H232.032V88.806H212.012ZM220.944 80.116V95.164C220.944 95.604 220.746 95.758 220.262 95.78C219.756 95.78 217.974 95.802 216.214 95.736C216.544 96.286 216.94 97.21 217.072 97.804C219.36 97.826 220.878 97.782 221.802 97.452C222.726 97.122 223.1 96.528 223.1 95.186V80.116H220.944ZM233.99 81.634V83.548H239.622V81.634H233.99ZM236.168 77.432V97.848H237.95V77.432H236.168ZM236.146 82.866C235.684 85.726 234.606 89.268 233.462 91.138C233.748 91.666 234.166 92.59 234.342 93.184C235.596 90.984 236.696 86.738 237.158 83.328L236.146 82.866ZM237.84 84.626L237.07 85.396C237.532 86.254 238.654 88.52 239.028 89.576L239.996 88.102C239.666 87.53 238.236 85.154 237.84 84.626ZM240.084 88.806V90.434H253.702V88.806H240.084ZM241.976 92.128C243.01 92.964 244.352 94.174 245.012 94.9L246.288 93.668C245.606 92.942 244.22 91.82 243.208 91.028L241.976 92.128ZM249.258 87.596C249.984 88.102 250.908 88.806 251.392 89.29L252.47 88.234C251.986 87.772 251.04 87.112 250.336 86.65L249.258 87.596ZM251.04 90.5C249.786 93.14 247.234 95.252 243.956 96.44C244.33 96.77 244.836 97.408 245.056 97.76C248.466 96.418 251.282 94.152 252.778 91.16L251.04 90.5ZM245.496 77.608C245.87 89.224 247.212 97.474 252.14 97.848C253.064 97.892 253.834 97.122 254.34 94.526C253.988 94.35 253.306 93.866 252.976 93.47C252.8 95.054 252.536 95.868 252.096 95.824C248.862 95.494 247.476 87.926 247.256 77.608H245.496ZM243.582 84.362C243.978 85.418 244.352 86.826 244.506 87.684L245.848 87.244C245.672 86.43 245.254 85.066 244.836 84.01L243.582 84.362ZM240.348 83.68C240.348 83.35 241.25 82.866 241.25 82.866V82.822C242.152 81.7 243.186 79.896 243.89 78.158L242.35 77.696C241.888 79.324 240.942 80.996 240.678 81.414C240.392 81.854 240.128 82.14 239.864 82.206C240.04 82.602 240.26 83.35 240.348 83.68ZM240.348 83.68C240.634 83.526 241.162 83.394 243.538 83.108C243.626 82.8 243.846 82.206 244.066 81.81L241.052 82.074L240.326 82.536L240.348 83.68ZM240.568 87.552C240.568 87.244 241.404 86.738 241.404 86.738V86.716C242.768 85.308 244.264 83.152 245.43 80.996L243.934 80.446C243.076 82.47 241.624 84.538 241.184 85.066C240.788 85.616 240.414 85.99 240.084 86.078C240.238 86.452 240.48 87.244 240.568 87.552ZM240.568 87.552C240.876 87.376 241.47 87.244 244.924 86.76C244.814 86.452 244.66 85.88 244.616 85.484L241.184 85.902L240.502 86.364L240.568 87.552ZM251.59 84.032C252.008 85.088 252.492 86.518 252.668 87.376L253.944 86.914C253.746 86.1 253.284 84.714 252.822 83.68L251.59 84.032ZM248.356 83.284C248.356 82.954 249.214 82.47 249.214 82.47V82.426C250.028 81.37 250.974 79.72 251.612 78.092L250.094 77.652C249.676 79.126 248.84 80.688 248.598 81.084C248.356 81.48 248.114 81.766 247.85 81.81C248.026 82.206 248.268 82.954 248.356 83.284ZM248.356 83.284C248.62 83.13 249.126 82.998 251.436 82.734C251.524 82.426 251.744 81.832 251.942 81.436L249.038 81.678L248.334 82.14L248.356 83.284ZM248.576 87.178C248.576 86.87 249.456 86.342 249.456 86.342V86.32C250.798 84.89 252.25 82.734 253.35 80.578L251.81 80.028C250.996 82.03 249.61 84.12 249.17 84.648C248.774 85.198 248.422 85.572 248.092 85.66C248.268 86.078 248.51 86.848 248.576 87.178ZM248.576 87.178C248.928 87.002 249.478 86.87 252.932 86.342C252.822 86.034 252.668 85.506 252.602 85.11L249.214 85.528L248.532 85.99L248.576 87.178ZM241.602 89.4V90.39C241.602 92.238 241.096 94.768 238.5 96.638C238.896 96.88 239.622 97.518 239.886 97.87C242.658 95.758 243.384 92.7 243.384 90.434V89.4H241.602ZM258.344 79.852H261.754V82.844H258.344V79.852ZM256.826 78.334V84.362H263.36V78.334H256.826ZM255.792 85.88V87.684H263.844V85.88H255.792ZM257.772 86.65C257.53 88.146 257.134 89.994 256.76 91.248H258.564C258.872 90.06 259.268 88.212 259.554 86.65H257.772ZM258.124 89.598L257.728 91.248H261.974V89.598H258.124ZM261.248 89.598V89.862C261.006 93.8 260.742 95.318 260.346 95.714C260.17 95.912 259.972 95.956 259.664 95.956C259.312 95.956 258.52 95.934 257.706 95.868C257.992 96.33 258.168 97.056 258.19 97.584C259.092 97.628 259.972 97.628 260.456 97.584C261.072 97.518 261.446 97.364 261.82 96.924C262.414 96.286 262.7 94.592 262.986 90.368C263.008 90.104 263.03 89.598 263.03 89.598H261.248ZM269.938 78.818V80.49H275.35V78.818H269.938ZM265.648 81.744V83.416H275.042V81.744H265.648ZM264.702 81.744V87.398C264.702 90.214 264.526 94.042 262.766 96.77C263.206 96.968 263.998 97.54 264.306 97.87C266.22 94.944 266.506 90.5 266.506 87.398V81.744H264.702ZM266.924 85.286L267.1 86.716L273.436 86.1L273.282 84.67L266.924 85.286ZM274.514 81.744V81.986C274.382 83.196 274.118 84.692 273.92 85.616L275.46 85.99C275.768 84.978 276.098 83.35 276.362 81.986L275.086 81.678L274.778 81.744H274.514ZM267.98 90.148C267.87 93.14 267.518 95.274 265.494 96.506C265.912 96.814 266.418 97.452 266.638 97.892C269.058 96.33 269.586 93.734 269.718 90.148H267.98ZM271.28 90.148V95.23C271.28 96.352 271.346 96.682 271.72 97.012C272.05 97.32 272.578 97.43 273.084 97.43C273.348 97.43 273.964 97.43 274.294 97.43C274.69 97.43 275.174 97.342 275.46 97.188C275.79 96.968 276.01 96.704 276.164 96.264C276.274 95.868 276.362 94.768 276.406 93.734C275.922 93.58 275.262 93.228 274.932 92.898C274.954 93.866 274.91 94.702 274.866 95.054C274.822 95.274 274.712 95.428 274.624 95.494C274.536 95.582 274.316 95.604 274.14 95.604C273.942 95.604 273.678 95.604 273.546 95.604C273.37 95.604 273.216 95.56 273.15 95.494C273.04 95.428 273.018 95.296 273.018 95.164V90.148H271.28ZM269.014 77.432V82.558H270.994V77.432H269.014ZM268.992 83.416V86.87C268.992 88.454 269.344 89.18 270.95 89.18C271.346 89.18 273.018 89.18 273.48 89.18C274.03 89.18 274.646 89.158 274.976 89.048C274.91 88.586 274.866 88.058 274.822 87.53C274.514 87.64 273.788 87.662 273.392 87.662C273.018 87.662 271.632 87.662 271.28 87.662C270.818 87.662 270.774 87.442 270.774 86.892V83.416H268.992ZM277.968 78.378V80.27H286.174V78.378H277.968ZM280.366 85.308V87.134H283.6V93.294H280.366V95.098H285.426V85.308H280.366ZM280.52 79.346C280.014 83.416 279.134 87.332 277.418 89.796C277.792 90.258 278.386 91.27 278.584 91.732C280.674 88.806 281.818 84.318 282.478 79.632L280.52 79.346ZM279.464 85.308V96.88H281.268V85.308H279.464ZM288.022 81.788V83.438H296.888V81.788H288.022ZM288.022 85.132V86.804H296.888V85.132H288.022ZM287.01 88.564V90.39H296.602V88.564H287.01ZM291.564 79.258V89.312H293.434V79.258H291.564ZM288.858 92.04C289.078 93.338 289.21 95.01 289.166 96.11L290.64 95.868C290.662 94.79 290.508 93.14 290.244 91.842L288.858 92.04ZM291.168 91.886C291.586 92.964 291.96 94.372 292.092 95.274L293.456 94.878C293.302 93.976 292.906 92.59 292.466 91.534L291.168 91.886ZM293.368 91.424C293.918 92.26 294.468 93.338 294.71 94.064L295.876 93.536C295.612 92.854 295.04 91.776 294.446 90.984L293.368 91.424ZM286.702 91.248C286.504 93.052 286.086 94.944 285.162 96.066L286.614 96.858C287.648 95.626 288.044 93.558 288.242 91.644L286.702 91.248ZM287.01 78.312V89.51H288.924V80.116H297.46V78.312H287.01ZM295.986 88.564V88.894C295.81 93.69 295.568 95.472 295.194 95.912C294.996 96.11 294.82 96.176 294.49 96.176C294.16 96.176 293.346 96.154 292.466 96.066C292.774 96.572 292.972 97.32 292.994 97.87C293.962 97.914 294.886 97.892 295.414 97.848C296.008 97.782 296.426 97.606 296.822 97.144C297.394 96.462 297.636 94.504 297.856 89.378C297.878 89.114 297.9 88.564 297.9 88.564H295.986Z" fill="black"/>
<path d="M178.156 60.168C179.728 60.168 180.988 59.22 180.988 57.66C180.988 56.448 180.148 55.668 179.116 55.416V55.368C180.052 55.032 180.676 54.324 180.676 53.256C180.676 51.852 179.596 51.048 178.12 51.048C177.112 51.048 176.332 51.492 175.672 52.092L176.26 52.8C176.752 52.296 177.376 51.936 178.084 51.936C178.996 51.936 179.56 52.488 179.56 53.328C179.56 54.288 178.948 55.008 177.136 55.008V55.86C179.164 55.86 179.872 56.556 179.872 57.612C179.872 58.62 179.128 59.256 178.084 59.256C177.076 59.256 176.416 58.776 175.9 58.236L175.348 58.956C175.924 59.592 176.776 60.168 178.156 60.168ZM184.992 60.168C186.648 60.168 187.716 58.644 187.716 55.572C187.716 52.524 186.648 51.048 184.992 51.048C183.312 51.048 182.244 52.524 182.244 55.572C182.244 58.644 183.312 60.168 184.992 60.168ZM184.992 59.28C183.984 59.28 183.3 58.164 183.3 55.572C183.3 53.016 183.984 51.924 184.992 51.924C185.988 51.924 186.66 53.016 186.66 55.572C186.66 58.164 185.988 59.28 184.992 59.28Z" fill="#D60C18"/>
<path d="M389.528 160H395.048V159.064H392.612C392.168 159.064 391.64 159.1 391.172 159.148C393.248 157.192 394.628 155.404 394.628 153.64C394.628 152.068 393.644 151.048 392.072 151.048C390.956 151.048 390.188 151.564 389.468 152.344L390.104 152.956C390.596 152.38 391.22 151.936 391.94 151.936C393.032 151.936 393.548 152.68 393.548 153.688C393.548 155.188 392.288 156.952 389.528 159.364V160ZM398.992 160.168C400.648 160.168 401.716 158.644 401.716 155.572C401.716 152.524 400.648 151.048 398.992 151.048C397.312 151.048 396.244 152.524 396.244 155.572C396.244 158.644 397.312 160.168 398.992 160.168ZM398.992 159.28C397.984 159.28 397.3 158.164 397.3 155.572C397.3 153.016 397.984 151.924 398.992 151.924C399.988 151.924 400.66 153.016 400.66 155.572C400.66 158.164 399.988 159.28 398.992 159.28Z" fill="#D60C18"/>
<path d="M389.528 117H395.048V116.064H392.612C392.168 116.064 391.64 116.1 391.172 116.148C393.248 114.192 394.628 112.404 394.628 110.64C394.628 109.068 393.644 108.048 392.072 108.048C390.956 108.048 390.188 108.564 389.468 109.344L390.104 109.956C390.596 109.38 391.22 108.936 391.94 108.936C393.032 108.936 393.548 109.68 393.548 110.688C393.548 112.188 392.288 113.952 389.528 116.364V117ZM398.992 117.168C400.648 117.168 401.716 115.644 401.716 112.572C401.716 109.524 400.648 108.048 398.992 108.048C397.312 108.048 396.244 109.524 396.244 112.572C396.244 115.644 397.312 117.168 398.992 117.168ZM398.992 116.28C397.984 116.28 397.3 115.164 397.3 112.572C397.3 110.016 397.984 108.924 398.992 108.924C399.988 108.924 400.66 110.016 400.66 112.572C400.66 115.164 399.988 116.28 398.992 116.28Z" fill="#D60C18"/>
<rect width="140" height="50" transform="translate(525 236)" fill="#003A9F"/>
<path d="M584.296 260.992V262.112H594.056V260.992H584.296ZM584.792 257.568V258.672H593.656V257.568H584.792ZM588.488 258.112V260.304C588.488 262.032 588.232 264.528 584.136 266.272C584.424 266.496 584.792 266.88 584.952 267.136C589.192 265.152 589.672 262.352 589.672 260.32V258.112H588.488ZM591.432 254.56C591.048 255.552 590.344 256.976 589.784 257.84L590.744 258.192C591.336 257.36 592.056 256.064 592.648 254.96L591.432 254.56ZM585.608 254.976C586.104 255.776 586.712 256.864 587.016 257.504L588.072 257.04C587.768 256.416 587.112 255.376 586.616 254.608L585.608 254.976ZM588.296 262.976C589.944 264.256 592.12 266.064 593.176 267.136L594.04 266.288C592.92 265.232 590.712 263.488 589.112 262.256L588.296 262.976ZM580.328 255.088C580.984 255.888 581.816 257.008 582.2 257.68L583.16 257.056C582.76 256.4 581.928 255.36 581.24 254.576L580.328 255.088ZM579.736 258.256V259.264H583.192V258.256H579.736ZM582.584 265.6L581.784 265.968C583 268.608 585.096 269.024 588.856 269.024C590.616 269.024 592.632 268.992 594.152 268.896C594.216 268.576 594.36 268.032 594.536 267.776C592.888 267.92 590.552 267.984 588.856 267.984C585.656 267.984 583.576 267.696 582.584 265.6ZM582.584 262.256V262.464C582.184 265.344 581.064 267.392 579.48 268.48C579.72 268.656 580.12 269.072 580.28 269.312C581.944 268.08 583.176 265.808 583.688 262.448L583.144 262.224L582.936 262.256H582.584ZM579.976 263.456C580.088 263.328 580.504 263.232 580.92 263.232H583.08V262.256H580.552L579.976 262.544V263.456ZM579.976 263.456C579.976 263.152 580.872 262.704 580.872 262.704C581.784 261.68 583.224 259.632 583.976 258.544L583.176 258.176L582.824 258.336V258.384C582.296 259.232 580.776 261.408 580.296 261.888C580.024 262.208 579.768 262.304 579.528 262.368C579.656 262.624 579.896 263.184 579.976 263.456ZM602.312 254.576V267.712H603.624V254.576H602.312ZM608.008 262.56V269.248H609.32V262.56H608.008ZM597.384 256.016V261.536H608.68V256.016H607.384V260.368H598.632V256.016H597.384ZM596.664 262.56V268.352H608.648V267.152H597.976V262.56H596.664Z" fill="white"/>
<path d="M430.744 256.316V257.484H436.648V256.316H430.744ZM423.32 255.116V256.236H431.144V255.116H423.32ZM425.192 258.364V259.468H429.352V258.364H425.192ZM425.192 261.692V262.78H429.352V261.692H425.192ZM436.296 256.316V256.604C435.608 262.22 433.224 265.98 430.056 267.628C430.328 267.852 430.664 268.3 430.856 268.604C434.28 266.62 436.728 262.86 437.496 256.492L436.728 256.284L436.504 256.316H436.296ZM432.2 257.548L431.048 257.772C432.04 262.796 433.88 266.7 437.352 268.668C437.544 268.348 437.928 267.9 438.2 267.66C434.904 265.964 433.048 262.172 432.2 257.548ZM424.568 255.548V265.932H425.72V255.548H424.568ZM428.856 255.548V268.796H430.008V255.548H428.856ZM423 265.58L423.224 266.78C424.888 266.524 427.192 266.156 429.384 265.804L429.32 264.7C426.984 265.052 424.568 265.388 423 265.58Z" fill="#003A9F"/>
<path d="M445.16 258.684V259.788H452.168V258.684H445.16ZM444.6 258.684V263.116C444.6 264.716 444.52 266.732 443.704 268.204C443.96 268.332 444.44 268.7 444.616 268.892C445.576 267.292 445.72 264.908 445.72 263.116V258.684H444.6ZM445.928 264.604L446.344 265.644C447.976 265.26 450.136 264.716 452.184 264.188L452.072 263.244C449.832 263.756 447.48 264.3 445.928 264.604ZM446.216 261.612C447.64 261.932 449.448 262.556 450.376 263.052L450.856 262.188C449.912 261.692 448.104 261.116 446.696 260.844L446.216 261.612ZM452.36 254.556C451.976 255.5 451.24 256.796 450.68 257.612L451.688 258.044C452.264 257.244 452.952 256.076 453.528 255.02L452.36 254.556ZM444.184 255.1C444.856 256.044 445.544 257.292 445.8 258.124L446.872 257.596C446.6 256.78 445.88 255.548 445.192 254.652L444.184 255.1ZM451.768 258.684V267.324C451.768 267.548 451.688 267.612 451.448 267.628C451.192 267.644 450.344 267.644 449.432 267.596C449.592 267.932 449.768 268.428 449.816 268.748C451.032 268.748 451.832 268.748 452.328 268.556C452.792 268.364 452.936 267.996 452.936 267.34V258.684H451.768ZM448.216 254.108V259.388H449.416V254.108H448.216ZM440.008 255.164C440.984 255.74 442.28 256.556 442.92 257.068L443.656 256.092C442.984 255.628 441.656 254.86 440.712 254.332L440.008 255.164ZM439.144 259.58C440.12 260.092 441.448 260.86 442.104 261.308L442.776 260.332C442.088 259.868 440.744 259.164 439.8 258.7L439.144 259.58ZM439.688 267.804L440.696 268.62C441.64 267.132 442.76 265.132 443.608 263.436L442.728 262.652C441.8 264.476 440.536 266.588 439.688 267.804Z" fill="#003A9F"/>
<rect x="368.5" y="236.5" width="139.528" height="50" stroke="#003A9F"/>
<path d="M389.528 231H395.048V230.064H392.612C392.168 230.064 391.64 230.1 391.172 230.148C393.248 228.192 394.628 226.404 394.628 224.64C394.628 223.068 393.644 222.048 392.072 222.048C390.956 222.048 390.188 222.564 389.468 223.344L390.104 223.956C390.596 223.38 391.22 222.936 391.94 222.936C393.032 222.936 393.548 223.68 393.548 224.688C393.548 226.188 392.288 227.952 389.528 230.364V231ZM398.992 231.168C400.648 231.168 401.716 229.644 401.716 226.572C401.716 223.524 400.648 222.048 398.992 222.048C397.312 222.048 396.244 223.524 396.244 226.572C396.244 229.644 397.312 231.168 398.992 231.168ZM398.992 230.28C397.984 230.28 397.3 229.164 397.3 226.572C397.3 224.016 397.984 222.924 398.992 222.924C399.988 222.924 400.66 224.016 400.66 226.572C400.66 229.164 399.988 230.28 398.992 230.28Z" fill="#D60C18"/>
<path d="M148.156 94.168C149.728 94.168 150.988 93.22 150.988 91.66C150.988 90.448 150.148 89.668 149.116 89.416V89.368C150.052 89.032 150.676 88.324 150.676 87.256C150.676 85.852 149.596 85.048 148.12 85.048C147.112 85.048 146.332 85.492 145.672 86.092L146.26 86.8C146.752 86.296 147.376 85.936 148.084 85.936C148.996 85.936 149.56 86.488 149.56 87.328C149.56 88.288 148.948 89.008 147.136 89.008V89.86C149.164 89.86 149.872 90.556 149.872 91.612C149.872 92.62 149.128 93.256 148.084 93.256C147.076 93.256 146.416 92.776 145.9 92.236L145.348 92.956C145.924 93.592 146.776 94.168 148.156 94.168ZM154.992 94.168C156.648 94.168 157.716 92.644 157.716 89.572C157.716 86.524 156.648 85.048 154.992 85.048C153.312 85.048 152.244 86.524 152.244 89.572C152.244 92.644 153.312 94.168 154.992 94.168ZM154.992 93.28C153.984 93.28 153.3 92.164 153.3 89.572C153.3 87.016 153.984 85.924 154.992 85.924C155.988 85.924 156.66 87.016 156.66 89.572C156.66 92.164 155.988 93.28 154.992 93.28Z" fill="#D60C18"/>
<path d="M511.056 301H515.88V300.088H514.104V292.204H513.264C512.796 292.492 512.232 292.696 511.44 292.828V293.536H513.012V300.088H511.056V301ZM519.788 301.168C521.264 301.168 522.668 300.064 522.668 298.144C522.668 296.2 521.48 295.336 520.016 295.336C519.488 295.336 519.092 295.468 518.696 295.684L518.924 293.14H522.248V292.204H517.964L517.688 296.32L518.276 296.692C518.78 296.356 519.152 296.164 519.74 296.164C520.832 296.164 521.552 296.92 521.552 298.18C521.552 299.452 520.724 300.256 519.68 300.256C518.672 300.256 518.024 299.788 517.532 299.272L516.98 299.992C517.58 300.592 518.42 301.168 519.788 301.168Z" fill="#D60C18"/>
<line x1="137.5" y1="81.5" x2="137.5" y2="98.5" stroke="#939EA7" stroke-linecap="square" stroke-dasharray="2 2"/>
<line x1="165.5" y1="81.5" x2="165.5" y2="98.5" stroke="#939EA7" stroke-linecap="square" stroke-dasharray="2 2"/>
<line x1="509.5" y1="287.5" x2="509.5" y2="304.5" stroke="#939EA7" stroke-linecap="square" stroke-dasharray="2 2"/>
<line x1="525.5" y1="287.5" x2="525.5" y2="304.5" stroke="#939EA7" stroke-linecap="square" stroke-dasharray="2 2"/>
<line x1="190.5" y1="40.5" x2="173.5" y2="40.5" stroke="#939EA7" stroke-linecap="square" stroke-dasharray="2 2"/>
<line x1="404.5" y1="145.5" x2="387.5" y2="145.5" stroke="#939EA7" stroke-linecap="square" stroke-dasharray="2 2"/>
<line x1="404.5" y1="102.5" x2="387.5" y2="102.5" stroke="#939EA7" stroke-linecap="square" stroke-dasharray="2 2"/>
<g clip-path="url(#clip0_32_79)">
<path d="M656.062 86L666.782 75.2797C667.075 74.9867 667.075 74.5109 666.782 74.218C666.489 73.925 666.013 73.925 665.72 74.218L655 84.9383L644.28 74.2203C643.987 73.9273 643.513 73.9273 643.22 74.2203C642.927 74.5133 642.927 74.9891 643.22 75.282L653.938 86L643.22 96.7203C642.927 97.0133 642.927 97.4891 643.22 97.782C643.366 97.9274 643.558 98.0024 643.75 98.0024C643.942 98.0024 644.134 97.9297 644.28 97.782L655 87.0617L665.72 97.782C665.866 97.9274 666.058 98.0024 666.25 98.0024C666.442 98.0024 666.634 97.9297 666.78 97.782C667.073 97.4891 667.073 97.0133 666.78 96.7203L656.062 86Z" fill="black"/>
</g>
<line x1="190.5" y1="70.5" x2="173.5" y2="70.5" stroke="#939EA7" stroke-linecap="square" stroke-dasharray="2 2"/>
<line x1="404.5" y1="216.5" x2="387.5" y2="216.5" stroke="#939EA7" stroke-linecap="square" stroke-dasharray="2 2"/>
<rect x="167" y="166" width="500" height="50" fill="#EEEEEE"/>
<rect width="500" height="1" transform="matrix(1 0 0 -1 167 216)" fill="#939EA7"/>
<path d="M188.768 186.388V187.186H196.3V186.388H188.768ZM189.118 188.054V188.824H196.034V188.054H189.118ZM188.614 189.776V190.588H196.44V189.776H188.614ZM191.946 185.24V190.21H192.968V185.24H191.946ZM194.634 191.428V197.028C194.634 197.182 194.592 197.238 194.41 197.238C194.228 197.252 193.654 197.252 193.024 197.224C193.15 197.476 193.29 197.84 193.332 198.092C194.2 198.106 194.788 198.092 195.152 197.952C195.516 197.798 195.628 197.532 195.628 197.028V191.428H194.634ZM189.958 193.276V194.046H195.138V193.276H189.958ZM189.958 195.082V195.838H195.138V195.082H189.958ZM189.44 191.428V194.004C189.44 195.124 189.342 196.538 188.516 197.602C188.712 197.728 189.104 198.092 189.244 198.288C190.224 197.098 190.406 195.334 190.406 194.018V191.428H189.44ZM190 191.428V192.254H194.984V191.428H190ZM183.952 189.384V190.224H188.04V189.384H183.952ZM184.526 193.22V194.088H187.088V196.426H184.526V197.308H188.012V193.22H184.526ZM184.022 193.22V197.952H184.932V193.22H184.022ZM183.966 191.288V192.142H188.054V191.288H183.966ZM183.616 187.592V188.474H188.46V187.592H183.616ZM185.282 185.548C185.548 186.15 185.856 186.948 185.982 187.452L186.906 187.116C186.766 186.626 186.458 185.856 186.164 185.268L185.282 185.548ZM204.812 188.642V189.454H208.578V188.642H204.812ZM203.874 192.478V193.262H206.114V192.478H203.874ZM203.832 194.536V195.32H206.086V194.536H203.832ZM207.5 190.756V195.796H208.242V190.756H207.5ZM205.848 190.49V197.042C205.848 197.168 205.806 197.21 205.68 197.21C205.554 197.21 205.12 197.224 204.644 197.21C204.756 197.434 204.882 197.784 204.924 198.008C205.582 198.008 206.002 197.994 206.296 197.854C206.576 197.714 206.66 197.462 206.66 197.042V190.49H205.848ZM209.166 190.252V196.958C209.166 197.126 209.11 197.168 208.956 197.182C208.774 197.196 208.228 197.196 207.584 197.182C207.696 197.406 207.808 197.742 207.85 197.966C208.69 197.966 209.208 197.966 209.544 197.826C209.866 197.686 209.964 197.434 209.964 196.972V190.252H209.166ZM206.506 185.156C205.736 186.654 204.294 188.068 202.796 188.852C203.034 189.048 203.314 189.356 203.468 189.594C205.05 188.656 206.52 187.158 207.36 185.464L206.506 185.156ZM206.996 185.702L206.212 185.982C207.22 187.564 208.424 188.628 209.908 189.524C210.048 189.258 210.314 188.95 210.552 188.754C209.152 188.012 207.934 187.102 206.996 185.702ZM203.846 190.49V191.274H206.086V190.49H203.846ZM203.426 190.49V193.458C203.426 194.718 203.342 196.356 202.6 197.574C202.796 197.672 203.146 197.952 203.286 198.106C204.112 196.762 204.238 194.858 204.238 193.458V190.49H203.426ZM197.728 186.738V187.648H202.838V186.738H197.728ZM197.588 194.844V195.754H202.866V194.844H197.588ZM199.842 185.254V189.146H200.766V185.254H199.842ZM199.926 189.104V193.164H199.828V198.106H200.794V193.164H200.682V189.104H199.926ZM198.834 191.596H201.732V192.954H198.834V191.596ZM198.834 189.51H201.732V190.84H198.834V189.51ZM198.022 188.712V193.752H202.572V188.712H198.022ZM214.178 186.094V187.158H218.14V186.094H214.178ZM217.608 186.094C217.608 188.726 218.07 194.69 223.67 198.078C223.866 197.826 224.286 197.378 224.524 197.196C218.994 193.92 218.686 188.6 218.686 186.094H217.608ZM217.216 188.838C216.362 192.8 214.612 195.628 211.504 197.252C211.784 197.448 212.26 197.882 212.456 198.106C215.55 196.286 217.398 193.332 218.406 189.062L217.216 188.838ZM236.158 185.268C234.03 185.926 229.942 186.304 226.61 186.458C226.708 186.696 226.834 187.116 226.862 187.382C230.264 187.242 234.408 186.864 236.942 186.122L236.158 185.268ZM226.624 189.216V190.224H237.544V189.216H226.624ZM225.686 192.506V193.528H238.328V192.506H225.686ZM231.468 186.752V196.65C231.468 196.944 231.356 197.042 231.034 197.042C230.726 197.056 229.606 197.07 228.444 197.028C228.612 197.308 228.808 197.784 228.878 198.078C230.362 198.092 231.272 198.064 231.804 197.896C232.336 197.728 232.56 197.406 232.56 196.664V186.752H231.468ZM239.672 187.956V188.922H243.2V187.956H239.672ZM241.156 185.24V198.106H242.08V185.24H241.156ZM241.142 188.53C240.834 190.462 240.106 192.842 239.364 194.074C239.518 194.34 239.742 194.802 239.854 195.11C240.652 193.71 241.38 190.952 241.702 188.768L241.142 188.53ZM241.996 189.72L241.576 190.14C241.856 190.644 242.598 192.128 242.836 192.772L243.354 191.988C243.144 191.624 242.248 190.07 241.996 189.72ZM243.494 192.478V193.332H252.104V192.478H243.494ZM244.726 194.34C245.426 194.9 246.308 195.698 246.756 196.188L247.4 195.558C246.952 195.082 246.042 194.326 245.356 193.794L244.726 194.34ZM249.304 191.582C249.808 191.904 250.424 192.352 250.76 192.66L251.306 192.1C250.984 191.792 250.34 191.372 249.85 191.078L249.304 191.582ZM250.564 193.486C249.766 195.18 248.1 196.58 245.972 197.378C246.168 197.546 246.42 197.868 246.546 198.05C248.73 197.168 250.522 195.712 251.46 193.822L250.564 193.486ZM247.022 185.352C247.26 192.59 248.1 197.91 251.222 198.12C251.796 198.148 252.23 197.644 252.51 196.09C252.314 196.006 251.964 195.754 251.796 195.558C251.67 196.58 251.488 197.112 251.194 197.084C248.968 196.888 248.072 192.002 247.918 185.352H247.022ZM245.79 189.566C246.07 190.252 246.35 191.148 246.462 191.708L247.162 191.456C247.05 190.938 246.756 190.056 246.448 189.384L245.79 189.566ZM243.662 189.188C243.662 188.992 244.166 188.74 244.166 188.74V188.726C244.754 187.984 245.412 186.836 245.902 185.716L245.118 185.464C244.768 186.528 244.124 187.62 243.928 187.9C243.746 188.18 243.564 188.362 243.41 188.404C243.494 188.614 243.62 189.006 243.662 189.188ZM243.662 189.188C243.83 189.09 244.152 189.02 245.762 188.81C245.804 188.642 245.916 188.32 246.028 188.11L244.054 188.306L243.648 188.572L243.662 189.188ZM243.788 191.582C243.788 191.4 244.264 191.134 244.264 191.134V191.12C245.146 190.224 246.084 188.88 246.868 187.508L246.084 187.214C245.496 188.502 244.53 189.832 244.236 190.154C243.984 190.504 243.746 190.756 243.536 190.798C243.62 190.994 243.746 191.414 243.788 191.582ZM243.788 191.582C243.984 191.47 244.348 191.4 246.658 191.078C246.588 190.91 246.504 190.602 246.476 190.392L244.152 190.686L243.76 190.938L243.788 191.582ZM250.816 189.314C251.11 190 251.432 190.924 251.558 191.47L252.244 191.218C252.104 190.686 251.782 189.79 251.474 189.132L250.816 189.314ZM248.674 188.908C248.674 188.712 249.164 188.46 249.164 188.46V188.432C249.696 187.76 250.284 186.724 250.704 185.688L249.92 185.436C249.626 186.388 249.052 187.396 248.898 187.662C248.73 187.914 248.576 188.096 248.422 188.11C248.52 188.334 248.632 188.726 248.674 188.908ZM248.674 188.908C248.842 188.81 249.15 188.74 250.69 188.544C250.746 188.376 250.858 188.054 250.956 187.844L249.066 188.026L248.674 188.278V188.908ZM248.828 191.316C248.828 191.134 249.318 190.854 249.318 190.854V190.84C250.172 189.93 251.082 188.572 251.81 187.2L250.998 186.892C250.452 188.18 249.528 189.524 249.248 189.86C248.996 190.21 248.772 190.448 248.562 190.49C248.646 190.714 248.786 191.148 248.828 191.316ZM248.828 191.316C249.024 191.204 249.374 191.134 251.67 190.784C251.628 190.616 251.544 190.336 251.502 190.126L249.192 190.42L248.8 190.672L248.828 191.316ZM244.558 192.8V193.514C244.558 194.704 244.208 196.314 242.556 197.504C242.766 197.63 243.116 197.952 243.256 198.134C245.02 196.818 245.468 194.942 245.468 193.542V192.8H244.558ZM255.03 186.654H257.438V188.754H255.03V186.654ZM254.232 185.856V189.552H258.278V185.856H254.232ZM253.56 190.658V191.582H258.614V190.658H253.56ZM254.876 191.05C254.722 191.946 254.47 193.094 254.246 193.864H255.17C255.366 193.136 255.618 191.988 255.786 191.05H254.876ZM254.974 193.01L254.75 193.864H257.508V193.01H254.974ZM257.144 193.01V193.164C256.962 195.74 256.78 196.72 256.514 196.986C256.416 197.098 256.29 197.126 256.08 197.126C255.87 197.126 255.352 197.112 254.806 197.07C254.96 197.308 255.044 197.686 255.058 197.952C255.618 197.994 256.178 197.994 256.458 197.966C256.836 197.938 257.046 197.854 257.27 197.602C257.648 197.21 257.83 196.16 258.04 193.43C258.054 193.29 258.068 193.01 258.068 193.01H257.144ZM262.464 186.206V187.074H265.824V186.206H262.464ZM259.706 188.026V188.88H265.838V188.026H259.706ZM259.23 188.026V191.596C259.23 193.388 259.104 195.824 257.956 197.574C258.18 197.686 258.572 197.966 258.726 198.148C259.972 196.286 260.154 193.542 260.154 191.596V188.026H259.23ZM260.448 190.28L260.546 191.036L264.746 190.602L264.662 189.86L260.448 190.28ZM265.558 188.026V188.152C265.46 188.894 265.278 189.804 265.124 190.378L265.922 190.574C266.104 189.958 266.342 188.978 266.51 188.152L265.866 187.984L265.698 188.026H265.558ZM261.274 193.346C261.19 195.292 260.924 196.65 259.608 197.42C259.818 197.574 260.084 197.896 260.196 198.12C261.722 197.182 262.086 195.6 262.17 193.346H261.274ZM263.36 193.346V196.58C263.36 197.21 263.416 197.42 263.64 197.602C263.836 197.77 264.158 197.826 264.466 197.826C264.606 197.826 265.04 197.826 265.222 197.826C265.474 197.826 265.782 197.77 265.964 197.686C266.16 197.574 266.3 197.406 266.384 197.154C266.454 196.902 266.51 196.202 266.524 195.544C266.258 195.474 265.922 195.278 265.74 195.11C265.754 195.754 265.726 196.3 265.698 196.524C265.67 196.664 265.586 196.776 265.516 196.818C265.446 196.874 265.278 196.888 265.138 196.888C264.984 196.888 264.774 196.888 264.662 196.888C264.536 196.888 264.424 196.874 264.368 196.818C264.27 196.79 264.256 196.692 264.256 196.594V193.346H263.36ZM261.988 185.24V188.474H262.996V185.24H261.988ZM261.932 188.964V191.316C261.932 192.226 262.128 192.618 263.024 192.618C263.248 192.618 264.438 192.618 264.718 192.618C265.068 192.618 265.432 192.604 265.628 192.534C265.586 192.31 265.558 192.016 265.53 191.75C265.348 191.806 264.928 191.82 264.676 191.82C264.438 191.82 263.402 191.82 263.178 191.82C262.884 191.82 262.842 191.694 262.842 191.344V188.964H261.932ZM267.672 185.912V186.878H272.81V185.912H267.672ZM269.114 190.28V191.204H271.354V195.404H269.114V196.328H272.292V190.28H269.114ZM269.366 186.374C269.03 189.006 268.442 191.512 267.336 193.108C267.532 193.332 267.854 193.836 267.952 194.06C269.226 192.226 269.94 189.468 270.374 186.528L269.366 186.374ZM268.652 190.28V197.49H269.576V190.28H268.652ZM273.93 188.04V188.894H279.6V188.04H273.93ZM273.93 190.196V191.064H279.6V190.196H273.93ZM273.412 192.394V193.318H279.558V192.394H273.412ZM276.31 186.318V192.786H277.262V186.318H276.31ZM274.574 194.438C274.728 195.264 274.812 196.328 274.784 197.028L275.554 196.902C275.568 196.216 275.47 195.166 275.302 194.326L274.574 194.438ZM276.058 194.326C276.338 195.012 276.604 195.922 276.688 196.496L277.416 196.286C277.304 195.712 277.038 194.816 276.744 194.144L276.058 194.326ZM277.472 194.018C277.836 194.55 278.228 195.25 278.396 195.712L279.026 195.418C278.844 194.984 278.438 194.284 278.032 193.78L277.472 194.018ZM273.216 194.004C273.09 195.152 272.81 196.37 272.194 197.07L272.936 197.49C273.608 196.72 273.874 195.418 274.014 194.2L273.216 194.004ZM273.412 185.842V192.856H274.378V186.766H279.95V185.842H273.412ZM279.25 192.394V192.562C279.124 195.684 278.956 196.832 278.704 197.112C278.592 197.238 278.48 197.266 278.256 197.266C278.046 197.266 277.486 197.252 276.884 197.196C277.038 197.462 277.136 197.84 277.15 198.12C277.766 198.148 278.368 198.148 278.69 198.12C279.068 198.092 279.306 197.994 279.53 197.728C279.894 197.322 280.048 196.118 280.202 192.828C280.216 192.688 280.216 192.394 280.216 192.394H279.25Z" fill="#939EA7"/>
<line x1="404.5" y1="165.5" x2="387.5" y2="165.5" stroke="#939EA7" stroke-linecap="square" stroke-dasharray="2 2"/>
<line x1="404.5" y1="122.5" x2="387.5" y2="122.5" stroke="#939EA7" stroke-linecap="square" stroke-dasharray="2 2"/>
<line x1="404.5" y1="235.5" x2="387.5" y2="235.5" stroke="#939EA7" stroke-linecap="square" stroke-dasharray="2 2"/>
<path d="M733.97 262.938V263.904H742.468V262.938H733.97ZM739.962 261.776C739.584 266.368 738.002 268.3 733.662 269.168C733.844 269.42 734.11 269.896 734.18 270.134C738.786 269.042 740.564 266.9 741.096 261.818L739.962 261.776ZM734.838 266.074C737.162 267.194 740.144 268.916 741.586 270.078L742.286 269.238C740.774 268.076 737.764 266.424 735.482 265.36L734.838 266.074ZM737.302 257.394C737.54 258.08 737.834 258.976 737.946 259.564L739.01 259.34C738.898 258.766 738.604 257.87 738.324 257.198L737.302 257.394ZM734.838 266.074L735.916 266.27C736.686 264.884 737.722 262.574 738.282 260.684L737.204 260.53C736.7 262.336 735.664 264.66 734.838 266.074ZM734.362 259.046V261.776H735.356V259.97H741.208V261.748H742.23V259.046H734.362ZM729.42 265.122L729.672 266.144C730.974 265.752 732.668 265.206 734.278 264.688L734.124 263.736C732.402 264.268 730.624 264.8 729.42 265.122ZM729.574 260.068V261.048H733.998V260.068H729.574ZM731.464 257.254V268.916C731.464 269.112 731.38 269.182 731.212 269.182C731.03 269.182 730.442 269.182 729.812 269.168C729.938 269.448 730.092 269.868 730.12 270.12C731.058 270.134 731.618 270.106 731.982 269.938C732.346 269.784 732.486 269.49 732.486 268.916V257.254H731.464ZM749.748 258.066V259.074H754.928V258.066H749.748ZM749.314 263.204V264.198H756.44V263.204H749.314ZM748.712 268.706V269.714H756.44V268.706H748.712ZM751.456 258.388C751.26 261.734 750.812 266.522 750.434 269.182H751.428C751.778 266.592 752.212 261.846 752.45 258.458L751.456 258.388ZM754.354 258.066C754.326 261.538 754.116 266.438 753.864 269.196H754.9C755.096 266.494 755.278 261.608 755.348 258.066H754.354ZM744.568 260.81V261.72H748.264V260.81H744.568ZM743.798 263.26V264.17H748.698V263.26H743.798ZM744.064 265.094C744.302 265.934 744.526 266.998 744.582 267.712L745.31 267.502C745.226 266.802 745.002 265.738 744.75 264.912L744.064 265.094ZM743.644 268.706L743.868 269.644C745.198 269.35 747.018 268.916 748.74 268.51L748.684 267.656C746.808 268.062 744.876 268.468 743.644 268.706ZM747.788 264.744C747.648 265.514 747.382 266.634 747.158 267.32L747.774 267.544C748.012 266.886 748.306 265.864 748.558 264.996L747.788 264.744ZM745.884 261.216V268.832L746.766 268.692V261.216H745.884ZM746.29 257.17C745.646 258.542 744.526 259.844 743.434 260.656C743.574 260.922 743.812 261.482 743.882 261.72C745.086 260.712 746.346 259.13 747.116 257.534L746.29 257.17ZM745.954 258.612C746.934 259.27 748.026 260.194 748.67 260.866L749.174 260.026C748.516 259.368 747.424 258.5 746.388 257.856L745.954 258.612Z" fill="black"/>
<line x1="667" y1="263.75" x2="726" y2="263.75" stroke="#D60C18" stroke-width="0.5"/>
<path d="M736.812 185.642V186.454H740.578V185.642H736.812ZM735.874 189.478V190.262H738.114V189.478H735.874ZM735.832 191.536V192.32H738.086V191.536H735.832ZM739.5 187.756V192.796H740.242V187.756H739.5ZM737.848 187.49V194.042C737.848 194.168 737.806 194.21 737.68 194.21C737.554 194.21 737.12 194.224 736.644 194.21C736.756 194.434 736.882 194.784 736.924 195.008C737.582 195.008 738.002 194.994 738.296 194.854C738.576 194.714 738.66 194.462 738.66 194.042V187.49H737.848ZM741.166 187.252V193.958C741.166 194.126 741.11 194.168 740.956 194.182C740.774 194.196 740.228 194.196 739.584 194.182C739.696 194.406 739.808 194.742 739.85 194.966C740.69 194.966 741.208 194.966 741.544 194.826C741.866 194.686 741.964 194.434 741.964 193.972V187.252H741.166ZM738.506 182.156C737.736 183.654 736.294 185.068 734.796 185.852C735.034 186.048 735.314 186.356 735.468 186.594C737.05 185.656 738.52 184.158 739.36 182.464L738.506 182.156ZM738.996 182.702L738.212 182.982C739.22 184.564 740.424 185.628 741.908 186.524C742.048 186.258 742.314 185.95 742.552 185.754C741.152 185.012 739.934 184.102 738.996 182.702ZM735.846 187.49V188.274H738.086V187.49H735.846ZM735.426 187.49V190.458C735.426 191.718 735.342 193.356 734.6 194.574C734.796 194.672 735.146 194.952 735.286 195.106C736.112 193.762 736.238 191.858 736.238 190.458V187.49H735.426ZM729.728 183.738V184.648H734.838V183.738H729.728ZM729.588 191.844V192.754H734.866V191.844H729.588ZM731.842 182.254V186.146H732.766V182.254H731.842ZM731.926 186.104V190.164H731.828V195.106H732.794V190.164H732.682V186.104H731.926ZM730.834 188.596H733.732V189.954H730.834V188.596ZM730.834 186.51H733.732V187.84H730.834V186.51ZM730.022 185.712V190.752H734.572V185.712H730.022ZM746.178 183.094V184.158H750.14V183.094H746.178ZM749.608 183.094C749.608 185.726 750.07 191.69 755.67 195.078C755.866 194.826 756.286 194.378 756.524 194.196C750.994 190.92 750.686 185.6 750.686 183.094H749.608ZM749.216 185.838C748.362 189.8 746.612 192.628 743.504 194.252C743.784 194.448 744.26 194.882 744.456 195.106C747.55 193.286 749.398 190.332 750.406 186.062L749.216 185.838ZM764.168 185.264V186.16H769.908V185.264H764.168ZM764.392 188.12V189.03H769.614V188.12H764.392ZM764.028 191.214V192.124H770.034V191.214H764.028ZM766.422 185.53V191.788H767.416V185.53H766.422ZM770.23 183.08H762.544V194.448H770.454V193.482H763.538V184.046H770.23V183.08ZM760.528 186.524L760.052 187.028C760.458 187.532 761.508 189.002 761.872 189.632L762.432 188.722C762.152 188.372 760.878 186.86 760.528 186.524ZM757.588 185.152V186.132H762.18V185.152H757.588ZM759.646 182.212V195.078H760.626V182.212H759.646ZM759.646 185.782C759.24 187.714 758.302 190.024 757.364 191.186C757.546 191.452 757.784 191.886 757.896 192.18C758.89 190.836 759.828 188.19 760.262 186.02L759.646 185.782Z" fill="black"/>
<line x1="667" y1="188.75" x2="726" y2="188.75" stroke="#D60C18" stroke-width="0.5"/>
<path d="M734.53 85.576C734.81 86.08 735.132 86.766 735.286 87.172L735.874 86.934C735.72 86.556 735.384 85.898 735.104 85.408L734.53 85.576ZM736.406 87.144V90.924H737.204V87.144H736.406ZM732.682 87.354V89.328H735.104V88.67H733.396V87.354H732.682ZM734.726 87.144V88.39C734.726 89.16 734.53 89.944 732.976 90.42C733.158 90.56 733.396 90.854 733.494 91.036C735.244 90.42 735.496 89.454 735.496 88.404V87.144H734.726ZM730.764 80.662V81.376H734.698V80.662H730.764ZM737.204 80.662V81.376H741.236V80.662H737.204ZM740.844 78.842V89.804C740.844 89.986 740.788 90.056 740.606 90.056C740.41 90.07 739.822 90.07 739.206 90.042C739.346 90.322 739.486 90.812 739.528 91.092C740.396 91.092 740.998 91.078 741.376 90.896C741.754 90.714 741.866 90.392 741.866 89.804V78.842H740.844ZM730.848 78.842V79.612H734.362V82.384H730.848V83.154H735.356V78.842H730.848ZM741.348 78.842H736.602V83.154H741.348V82.384H737.596V79.612H741.348V78.842ZM730.218 78.842V91.134H731.226V78.842H730.218ZM732.416 85.408C732.416 85.226 732.92 84.988 732.92 84.988V84.974C733.382 84.61 733.914 84.036 734.362 83.406L733.676 83.056C733.354 83.672 732.78 84.288 732.626 84.442C732.472 84.582 732.318 84.652 732.164 84.68C732.262 84.876 732.374 85.24 732.416 85.408ZM732.416 85.408C732.57 85.338 732.878 85.282 734.488 85.184C734.516 85.044 734.6 84.792 734.67 84.624L732.794 84.694L732.402 84.904L732.416 85.408ZM732.332 87.06C732.332 86.878 732.836 86.682 732.836 86.682V86.668C733.746 86.094 734.684 85.24 735.538 84.33L734.936 83.924C734.222 84.834 733.172 85.744 732.864 85.968C732.57 86.192 732.332 86.346 732.108 86.36C732.192 86.556 732.304 86.906 732.332 87.06ZM732.332 87.06C732.528 86.976 732.892 86.906 735.328 86.668C735.286 86.528 735.244 86.29 735.23 86.108L732.696 86.318L732.332 86.542V87.06ZM738.352 85.59C738.632 86.094 738.968 86.78 739.136 87.186L739.724 86.92C739.556 86.542 739.206 85.898 738.898 85.394L738.352 85.59ZM736.252 85.408C736.252 85.24 736.742 85.002 736.742 85.002V84.988C737.232 84.624 737.764 84.05 738.198 83.406L737.512 83.056C737.19 83.686 736.616 84.302 736.462 84.442C736.308 84.582 736.168 84.666 736 84.694C736.098 84.89 736.196 85.254 736.252 85.408ZM736.252 85.408C736.406 85.338 736.714 85.282 738.324 85.184C738.352 85.044 738.436 84.792 738.506 84.624L736.616 84.708L736.238 84.904L736.252 85.408ZM736.182 87.074C736.182 86.892 736.672 86.696 736.672 86.696V86.668C737.596 86.094 738.534 85.24 739.388 84.316L738.772 83.91C738.072 84.834 737.022 85.758 736.714 85.968C736.42 86.206 736.168 86.346 735.958 86.374C736.042 86.556 736.154 86.906 736.182 87.074ZM736.182 87.074C736.392 86.976 736.742 86.92 739.164 86.682C739.136 86.542 739.094 86.29 739.08 86.122L736.546 86.318L736.168 86.542L736.182 87.074ZM736.966 88.67V89.328H738.954V88.67H736.966ZM738.548 87.368V89.762H739.29V87.368H738.548ZM746.458 85.254V86.136H753.57V85.254H746.458ZM750.434 84.008V89.678C750.434 89.832 750.378 89.874 750.21 89.888C750.042 89.888 749.496 89.888 748.894 89.874C749.034 90.112 749.174 90.49 749.23 90.742C750.07 90.742 750.602 90.742 750.938 90.588C751.288 90.434 751.386 90.168 751.386 89.692V84.008H750.434ZM750.252 85.828C749.356 87.172 747.62 88.502 746.08 89.132C746.304 89.314 746.584 89.65 746.752 89.888C748.292 89.132 750.056 87.662 751.008 86.15L750.252 85.828ZM744.778 80.83V81.6H748.67V80.83H744.778ZM751.232 80.83V81.6H755.194V80.83H751.232ZM754.76 78.842V89.706C754.76 89.972 754.662 90.056 754.41 90.056C754.13 90.07 753.22 90.084 752.282 90.042C752.45 90.336 752.618 90.826 752.674 91.12C753.906 91.12 754.704 91.106 755.18 90.938C755.642 90.756 755.81 90.42 755.81 89.72V78.842H754.76ZM744.862 78.842V79.654H748.348V82.846H744.862V83.658H749.342V78.842H744.862ZM755.278 78.842H750.602V83.672H755.278V82.874H751.61V79.654H755.278V78.842ZM744.26 78.842V91.134H745.296V78.842H744.26Z" fill="black"/>
<line x1="667" y1="84.75" x2="726" y2="84.75" stroke="#D60C18" stroke-width="0.5"/>
<path d="M69.634 47.166C68.822 48.188 67.506 49.168 66.232 49.798C66.456 49.994 66.82 50.4 66.974 50.61C68.262 49.868 69.69 48.706 70.628 47.488L69.634 47.166ZM73.204 47.768C74.506 48.58 76.074 49.77 76.83 50.582L77.586 49.868C76.802 49.084 75.192 47.922 73.904 47.166L73.204 47.768ZM68.08 52.43V57.134H69.088V53.368H74.87V57.078H75.934V52.43H68.08ZM68.626 55.72V56.658H75.388V55.72H68.626ZM66.148 45.542V48.09H67.184V46.494H76.774V48.09H77.838V45.542H66.148ZM71.062 44.394C71.37 44.94 71.706 45.654 71.832 46.102L72.952 45.822C72.812 45.36 72.462 44.66 72.126 44.142L71.062 44.394ZM71.93 48.384C70.586 50.456 68.108 52.22 65.518 53.186C65.756 53.396 66.036 53.76 66.19 54.026C68.878 52.92 71.37 51.058 72.84 48.79L71.93 48.384ZM72.336 48.874L71.482 49.266C73.26 51.464 75.304 52.752 77.74 53.858C77.894 53.55 78.174 53.186 78.426 52.976C76.032 52.024 73.96 50.848 72.336 48.874ZM81.688 45.738H84.194V47.866H81.688V45.738ZM80.75 44.87V48.734H85.16V44.87H80.75ZM87.68 45.738H90.284V47.866H87.68V45.738ZM86.742 44.87V48.734H91.264V44.87H86.742ZM79.714 50.064V50.974H92.286V50.064H79.714ZM81.506 55.79V56.658H84.908V55.79H81.506ZM87.078 55.79V56.658H90.606V55.79H87.078ZM81.03 52.752V57.106H81.968V53.606H84.362V57.036H85.328V52.752H81.03ZM86.63 52.752V57.106H87.554V53.606H90.06V57.036H91.04V52.752H86.63ZM85.076 48.482C84.306 50.19 82.43 52.052 79.392 53.158C79.602 53.326 79.868 53.69 79.98 53.928C83.158 52.682 85.118 50.708 86.112 48.678L85.076 48.482ZM87.61 49.21C88.31 49.476 89.178 49.938 89.612 50.288L90.158 49.7C89.71 49.35 88.828 48.916 88.128 48.678L87.61 49.21ZM86.812 50.792C88.73 51.66 90.592 52.836 91.67 53.83L92.398 53.2C91.278 52.192 89.304 51.03 87.372 50.176L86.812 50.792Z" fill="black"/>
<line x1="96" y1="51.75" x2="137" y2="51.75" stroke="#D60C18" stroke-width="0.5"/>
<path d="M72.742 84.374V88.616H73.54V84.374H72.742ZM74.814 84.374V88.616H75.612V84.374H74.814ZM75.64 93.32C76.34 94.02 77.138 95.028 77.502 95.686L78.314 95.182C77.936 94.538 77.138 93.586 76.396 92.886L75.64 93.32ZM71.72 92.9C71.286 93.74 70.544 94.58 69.788 95.168C70.026 95.294 70.418 95.574 70.6 95.728C71.342 95.098 72.126 94.118 72.658 93.166L71.72 92.9ZM70.292 83.898V84.766H78.146V83.898H70.292ZM71.216 89.736V90.576H77.264V89.736H71.216ZM70.32 91.556V92.41H78.216V91.556H70.32ZM71.482 86.516H76.984V88.182H71.482V86.516ZM70.6 85.704V88.994H77.908V85.704H70.6ZM73.68 91.99V96.12H74.646V91.99H73.68ZM65.798 85.956V86.922H70.292V85.956H65.798ZM67.772 83.24V96.106H68.738V83.24H67.772ZM67.702 86.586C67.296 88.504 66.358 90.94 65.434 92.186C65.616 92.438 65.882 92.9 65.994 93.208C66.946 91.78 67.884 89.022 68.318 86.824L67.702 86.586ZM68.682 87.608L68.178 88C68.542 88.574 69.452 90.24 69.76 90.94L70.404 90.184C70.138 89.764 69.004 87.986 68.682 87.608ZM81.408 86.39H84.138V87.454H81.408V86.39ZM81.408 84.598H84.138V85.648H81.408V84.598ZM80.47 83.842V88.238H85.118V83.842H80.47ZM79.63 89.274V90.086H85.944V89.274H79.63ZM85.86 83.94V84.724H92.244V83.94H85.86ZM82.43 89.526V94.3L83.326 94.86V89.526H82.43ZM82.906 91.598V92.396H85.706V91.598H82.906ZM88.632 84.136C88.506 84.738 88.268 85.606 88.044 86.18L88.828 86.362C89.08 85.844 89.36 85.046 89.626 84.332L88.632 84.136ZM87.358 88.378H90.704V89.428H87.358V88.378ZM87.358 90.156H90.704V91.234H87.358V90.156ZM87.358 86.586H90.704V87.622H87.358V86.586ZM86.406 85.816V92.004H91.684V85.816H86.406ZM87.568 92.256C87.036 92.9 86.126 93.53 85.258 93.936C85.454 94.09 85.804 94.426 85.958 94.58C86.826 94.104 87.848 93.306 88.464 92.522L87.568 92.256ZM80.61 90.856C80.54 92.578 80.316 94.468 79.462 95.49C79.686 95.644 79.994 95.952 80.134 96.162C81.128 94.972 81.408 92.872 81.492 90.856H80.61ZM81.268 92.228L80.61 92.466C81.772 95.364 84.026 95.826 87.596 95.826H92.146C92.202 95.546 92.37 95.14 92.524 94.916C91.698 94.944 88.226 94.944 87.596 94.944C84.446 94.944 82.262 94.636 81.268 92.228ZM89.528 92.634C90.284 93.152 91.222 93.964 91.67 94.524L92.44 94.034C91.978 93.502 91.054 92.718 90.242 92.228L89.528 92.634Z" fill="black"/>
<line x1="96" y1="90.75" x2="137" y2="90.75" stroke="#D60C18" stroke-width="0.5"/>
<path d="M23.106 133.482V134.322H26.956V133.482H23.106ZM23.106 135.316V136.156H26.956V135.316H23.106ZM22.56 131.62V132.502H27.474V131.62H22.56ZM23.512 137.192V138.074H26.186V140.398H23.512V141.28H27.082V137.192H23.512ZM23.078 137.192V141.938H24.03V137.192H23.078ZM24.058 129.604C24.394 130.192 24.772 130.99 24.926 131.508L25.85 131.158C25.682 130.654 25.304 129.884 24.94 129.31L24.058 129.604ZM29.826 136.968C29.658 138.928 29.224 140.538 27.292 141.378C27.516 141.574 27.81 141.938 27.936 142.176C30.106 141.154 30.652 139.306 30.862 136.968H29.826ZM31.954 136.73V140.566C31.954 141.616 32.178 141.924 33.144 141.924C33.34 141.924 34.096 141.924 34.306 141.924C35.104 141.924 35.37 141.476 35.482 139.698C35.188 139.628 34.768 139.46 34.558 139.292C34.516 140.762 34.474 140.958 34.18 140.958C34.012 140.958 33.438 140.958 33.298 140.958C33.032 140.958 32.976 140.902 32.976 140.566V136.73H31.954ZM29.63 133.986H33.018V136.268H29.63V133.986ZM28.622 133.034V137.206H34.068V133.034H28.622ZM29.728 129.436C29.14 130.822 28.174 132.18 27.124 133.062C27.348 133.244 27.754 133.608 27.908 133.804C28.972 132.81 30.036 131.284 30.708 129.73L29.728 129.436ZM31.73 129.786C32.836 130.99 34.096 132.642 34.642 133.706L35.44 133.132C34.88 132.082 33.578 130.472 32.472 129.31L31.73 129.786ZM37.694 130.108V131.074H40.732V137.486H37.694V138.466H41.712V130.108H37.694ZM37.708 133.734V134.686H41.152V133.734H37.708ZM43.616 129.842V130.822H48.334V129.842H43.616ZM43.616 133.244V134.21H48.334V133.244H43.616ZM43.532 136.688V137.64H48.306V136.688H43.532ZM37.12 130.108V139.768H38.1V130.108H37.12ZM47.942 129.842V140.734C47.942 140.986 47.858 141.07 47.606 141.084C47.354 141.084 46.472 141.098 45.576 141.07C45.73 141.35 45.898 141.812 45.954 142.092C47.158 142.092 47.928 142.078 48.376 141.91C48.824 141.728 48.992 141.406 48.992 140.748V129.842H47.942ZM43 129.842V134.84C43 137.024 42.762 139.684 40.396 141.504C40.62 141.644 41.012 142.008 41.166 142.218C43.686 140.286 44.036 137.192 44.036 134.84V129.842H43ZM60.136 132.194C58.54 136.968 55.488 139.67 50.504 141.112C50.714 141.35 51.036 141.84 51.162 142.092C56.244 140.468 59.436 137.598 61.228 132.502L60.136 132.194ZM53.78 132.25L52.8 132.558C54.578 137.29 57.784 140.65 62.81 142.036C62.978 141.742 63.286 141.294 63.538 141.056C58.638 139.838 55.362 136.59 53.78 132.25ZM50.7 131.718V132.74H63.356V131.718H50.7ZM55.922 129.478C56.342 130.178 56.776 131.102 56.958 131.676L58.106 131.312C57.91 130.724 57.434 129.814 57.014 129.156L55.922 129.478ZM67.262 133.3V134.28H73.982V133.3H67.262ZM64.952 136.814V137.808H77.006V136.814H64.952ZM70.44 135.932V140.818C70.44 141.014 70.356 141.07 70.104 141.084C69.852 141.098 68.956 141.098 68.004 141.07C68.186 141.35 68.396 141.812 68.466 142.106C69.642 142.106 70.384 142.106 70.874 141.938C71.378 141.77 71.546 141.462 71.546 140.832V135.932H70.44ZM73.66 133.3V133.51C72.974 134.308 71.63 135.358 70.44 135.932C70.608 136.072 70.888 136.366 71.028 136.548C72.414 135.904 73.898 134.812 74.906 133.79L74.192 133.244L73.94 133.3H73.66ZM65.12 130.71V133.594H66.156V131.718H75.788V133.594H76.866V130.71H65.12ZM69.922 129.478C70.328 130.01 70.706 130.752 70.86 131.242L71.938 130.864C71.77 130.374 71.364 129.66 70.944 129.142L69.922 129.478ZM79.246 129.898V130.92H87.086V129.898H79.246ZM89.634 133.916V134.126C88.584 138.2 85.378 140.44 81.724 141.266C81.948 141.49 82.2 141.938 82.326 142.232C86.246 141.182 89.564 138.872 90.782 134.196L90.054 133.874L89.844 133.916H89.634ZM81.724 130.318V132.208C81.724 134.7 81.5 138.214 78.49 140.986C78.728 141.182 79.106 141.602 79.26 141.882C82.522 138.83 82.802 135.008 82.802 132.208V130.318H81.724ZM86.806 129.898C86.512 131.326 86.05 133.216 85.672 134.392H86.82C87.156 133.258 87.59 131.382 87.912 129.898H86.806ZM82.34 133.916L82.144 134.924H89.9V133.916H82.34ZM84.034 134.518L83.124 134.77C84.426 138.508 86.876 141.084 90.768 142.12C90.922 141.826 91.244 141.378 91.496 141.14C87.702 140.258 85.21 137.836 84.034 134.518ZM32.136 152.194C30.54 156.968 27.488 159.67 22.504 161.112C22.714 161.35 23.036 161.84 23.162 162.092C28.244 160.468 31.436 157.598 33.228 152.502L32.136 152.194ZM25.78 152.25L24.8 152.558C26.578 157.29 29.784 160.65 34.81 162.036C34.978 161.742 35.286 161.294 35.538 161.056C30.638 159.838 27.362 156.59 25.78 152.25ZM22.7 151.718V152.74H35.356V151.718H22.7ZM27.922 149.478C28.342 150.178 28.776 151.102 28.958 151.676L30.106 151.312C29.91 150.724 29.434 149.814 29.014 149.156L27.922 149.478ZM39.262 153.3V154.28H45.982V153.3H39.262ZM36.952 156.814V157.808H49.006V156.814H36.952ZM42.44 155.932V160.818C42.44 161.014 42.356 161.07 42.104 161.084C41.852 161.098 40.956 161.098 40.004 161.07C40.186 161.35 40.396 161.812 40.466 162.106C41.642 162.106 42.384 162.106 42.874 161.938C43.378 161.77 43.546 161.462 43.546 160.832V155.932H42.44ZM45.66 153.3V153.51C44.974 154.308 43.63 155.358 42.44 155.932C42.608 156.072 42.888 156.366 43.028 156.548C44.414 155.904 45.898 154.812 46.906 153.79L46.192 153.244L45.94 153.3H45.66ZM37.12 150.71V153.594H38.156V151.718H47.788V153.594H48.866V150.71H37.12ZM41.922 149.478C42.328 150.01 42.706 150.752 42.86 151.242L43.938 150.864C43.77 150.374 43.364 149.66 42.944 149.142L41.922 149.478ZM54.228 150.5V151.382H63.034V150.5H54.228ZM54.228 158.004V158.9H63.23V158.004H54.228ZM58.022 149.254V160.552H59.058V149.254H58.022ZM55.866 155.05H61.284V156.184H55.866V155.05ZM55.866 153.202H61.284V154.308H55.866V153.202ZM54.9 152.418V156.968H62.306V152.418H54.9ZM51.162 149.702C51.736 150.402 52.464 151.382 52.8 151.97L53.64 151.424C53.29 150.85 52.562 149.94 51.96 149.254L51.162 149.702ZM50.644 152.474V153.356H53.598V152.474H50.644ZM53.136 158.9L52.436 159.222C53.5 161.532 55.334 161.896 58.624 161.896C60.164 161.896 61.928 161.868 63.258 161.784C63.314 161.504 63.44 161.028 63.594 160.804C62.152 160.93 60.108 160.986 58.624 160.986C55.824 160.986 54.004 160.734 53.136 158.9ZM53.136 155.974V156.156C52.786 158.676 51.806 160.468 50.42 161.42C50.63 161.574 50.98 161.938 51.12 162.148C52.576 161.07 53.654 159.082 54.102 156.142L53.626 155.946L53.444 155.974H53.136ZM50.854 157.024C50.952 156.912 51.316 156.828 51.68 156.828H53.57V155.974H51.358L50.854 156.226V157.024ZM50.854 157.01C50.854 156.744 51.638 156.352 51.638 156.352C52.422 155.47 53.654 153.664 54.298 152.712L53.612 152.404L53.304 152.53V152.572C52.842 153.314 51.554 155.232 51.134 155.652C50.896 155.918 50.672 156.016 50.462 156.072C50.574 156.282 50.784 156.772 50.854 157.01ZM69.866 151.116V152.096H77.3V151.116H69.866ZM70.286 154.308V155.288H76.922V154.308H70.286ZM71.126 160.552V161.518H76.026V160.552H71.126ZM72.946 149.24V154.826H74.01V149.24H72.946ZM70.566 156.744V162.12H71.546V157.71H75.494V162.064H76.516V156.744H70.566ZM68.102 154.77C68.48 155.736 68.858 156.982 68.998 157.752L69.852 157.458C69.698 156.716 69.292 155.484 68.9 154.546L68.102 154.77ZM66.744 158.368C66.926 159.376 67.08 160.692 67.108 161.56L67.962 161.392C67.906 160.524 67.738 159.236 67.542 158.228L66.744 158.368ZM65.162 158.256C65.022 159.418 64.826 160.72 64.476 161.602C64.714 161.672 65.134 161.812 65.33 161.91C65.61 161.028 65.89 159.656 66.044 158.41L65.162 158.256ZM64.826 154.49C64.826 154.28 65.47 153.958 65.47 153.958V153.944C66.436 152.81 67.416 151.186 68.186 149.618L67.22 149.198C66.618 150.738 65.61 152.348 65.288 152.768C64.994 153.188 64.742 153.482 64.49 153.538C64.602 153.804 64.77 154.28 64.826 154.49ZM64.826 154.49C65.05 154.378 65.442 154.308 67.696 154.042C67.696 153.832 67.724 153.468 67.78 153.216L65.288 153.426L64.798 153.72L64.826 154.49ZM64.91 157.64C64.91 157.43 65.568 157.122 65.568 157.122V157.094C66.926 155.75 68.312 153.832 69.418 151.942L68.522 151.41C67.584 153.286 66.1 155.26 65.638 155.75C65.204 156.268 64.882 156.618 64.574 156.674C64.7 156.954 64.868 157.43 64.91 157.64ZM64.91 157.64C65.204 157.5 65.666 157.388 69.166 156.884C69.152 156.66 69.166 156.282 69.208 156.03L65.4 156.52L64.882 156.856L64.91 157.64ZM68.186 158.102C68.494 158.97 68.83 160.118 68.97 160.86L69.754 160.594C69.614 159.866 69.264 158.732 68.928 157.864L68.186 158.102Z" fill="black"/>
<line x1="96" y1="136.75" x2="137" y2="136.75" stroke="#D60C18" stroke-width="0.5"/>
<defs>
<clipPath id="clip0_32_79">
<rect width="24" height="24" fill="white" transform="translate(643 74)"/>
</clipPath>
</defs>
</svg>
