<svg width="790" height="704" viewBox="0 0 790 704" fill="none" xmlns="http://www.w3.org/2000/svg">
<path d="M112.132 91.168C113.608 91.168 115.012 90.064 115.012 88.144C115.012 86.2 113.824 85.336 112.36 85.336C111.832 85.336 111.436 85.468 111.04 85.684L111.268 83.14H114.592V82.204H110.308L110.032 86.32L110.62 86.692C111.124 86.356 111.496 86.164 112.084 86.164C113.176 86.164 113.896 86.92 113.896 88.18C113.896 89.452 113.068 90.256 112.024 90.256C111.016 90.256 110.368 89.788 109.876 89.272L109.324 89.992C109.924 90.592 110.764 91.168 112.132 91.168ZM118.992 91.168C120.648 91.168 121.716 89.644 121.716 86.572C121.716 83.524 120.648 82.048 118.992 82.048C117.312 82.048 116.244 83.524 116.244 86.572C116.244 89.644 117.312 91.168 118.992 91.168ZM118.992 90.28C117.984 90.28 117.3 89.164 117.3 86.572C117.3 84.016 117.984 82.924 118.992 82.924C119.988 82.924 120.66 84.016 120.66 86.572C120.66 89.164 119.988 90.28 118.992 90.28Z" fill="#D60C18"/>
<path d="M112.156 179.168C113.728 179.168 114.988 178.22 114.988 176.66C114.988 175.448 114.148 174.668 113.116 174.416V174.368C114.052 174.032 114.676 173.324 114.676 172.256C114.676 170.852 113.596 170.048 112.12 170.048C111.112 170.048 110.332 170.492 109.672 171.092L110.26 171.8C110.752 171.296 111.376 170.936 112.084 170.936C112.996 170.936 113.56 171.488 113.56 172.328C113.56 173.288 112.948 174.008 111.136 174.008V174.86C113.164 174.86 113.872 175.556 113.872 176.612C113.872 177.62 113.128 178.256 112.084 178.256C111.076 178.256 110.416 177.776 109.9 177.236L109.348 177.956C109.924 178.592 110.776 179.168 112.156 179.168ZM118.992 179.168C120.648 179.168 121.716 177.644 121.716 174.572C121.716 171.524 120.648 170.048 118.992 170.048C117.312 170.048 116.244 171.524 116.244 174.572C116.244 177.644 117.312 179.168 118.992 179.168ZM118.992 178.28C117.984 178.28 117.3 177.164 117.3 174.572C117.3 172.016 117.984 170.924 118.992 170.924C119.988 170.924 120.66 172.016 120.66 174.572C120.66 177.164 119.988 178.28 118.992 178.28Z" fill="#D60C18"/>
<line x1="124.5" y1="63.5" x2="107.5" y2="63.5" stroke="#939EA7" stroke-linecap="square" stroke-dasharray="2 2"/>
<path d="M269.156 55.168C270.728 55.168 271.988 54.22 271.988 52.66C271.988 51.448 271.148 50.668 270.116 50.416V50.368C271.052 50.032 271.676 49.324 271.676 48.256C271.676 46.852 270.596 46.048 269.12 46.048C268.112 46.048 267.332 46.492 266.672 47.092L267.26 47.8C267.752 47.296 268.376 46.936 269.084 46.936C269.996 46.936 270.56 47.488 270.56 48.328C270.56 49.288 269.948 50.008 268.136 50.008V50.86C270.164 50.86 270.872 51.556 270.872 52.612C270.872 53.62 270.128 54.256 269.084 54.256C268.076 54.256 267.416 53.776 266.9 53.236L266.348 53.956C266.924 54.592 267.776 55.168 269.156 55.168ZM275.992 55.168C277.648 55.168 278.716 53.644 278.716 50.572C278.716 47.524 277.648 46.048 275.992 46.048C274.312 46.048 273.244 47.524 273.244 50.572C273.244 53.644 274.312 55.168 275.992 55.168ZM275.992 54.28C274.984 54.28 274.3 53.164 274.3 50.572C274.3 48.016 274.984 46.924 275.992 46.924C276.988 46.924 277.66 48.016 277.66 50.572C277.66 53.164 276.988 54.28 275.992 54.28ZM282.649 55.168C284.305 55.168 285.372 53.644 285.372 50.572C285.372 47.524 284.305 46.048 282.649 46.048C280.969 46.048 279.901 47.524 279.901 50.572C279.901 53.644 280.969 55.168 282.649 55.168ZM282.649 54.28C281.641 54.28 280.957 53.164 280.957 50.572C280.957 48.016 281.641 46.924 282.649 46.924C283.645 46.924 284.317 48.016 284.317 50.572C284.317 53.164 283.645 54.28 282.649 54.28Z" fill="#D60C18"/>
<line x1="124.5" y1="160.5" x2="107.5" y2="160.5" stroke="#939EA7" stroke-linecap="square" stroke-dasharray="2 2"/>
<line x1="124.5" y1="110.5" x2="107.5" y2="110.5" stroke="#939EA7" stroke-linecap="square" stroke-dasharray="2 2"/>
<line x1="126.5" y1="57.5" x2="126.5" y2="40.5" stroke="#939EA7" stroke-linecap="square" stroke-dasharray="2 2"/>
<line x1="425.5" y1="57.5" x2="425.5" y2="40.5" stroke="#939EA7" stroke-linecap="square" stroke-dasharray="2 2"/>
<line x1="124.5" y1="189.5" x2="107.5" y2="189.5" stroke="#939EA7" stroke-linecap="square" stroke-dasharray="2 2"/>
<rect x="126.5" y="60.5" width="299" height="603" fill="white" stroke="#EEEEEE"/>
<rect x="426" y="60" width="200" height="604" fill="black" fill-opacity="0.4"/>
<path d="M126.056 219H130.88V218.088H129.104V210.204H128.264C127.796 210.492 127.232 210.696 126.44 210.828V211.536H128.012V218.088H126.056V219ZM134.992 219.168C136.648 219.168 137.716 217.644 137.716 214.572C137.716 211.524 136.648 210.048 134.992 210.048C133.312 210.048 132.244 211.524 132.244 214.572C132.244 217.644 133.312 219.168 134.992 219.168ZM134.992 218.28C133.984 218.28 133.3 217.164 133.3 214.572C133.3 212.016 133.984 210.924 134.992 210.924C135.988 210.924 136.66 212.016 136.66 214.572C136.66 217.164 135.988 218.28 134.992 218.28Z" fill="#D60C18"/>
<path d="M132.528 271H138.048V270.064H135.612C135.168 270.064 134.64 270.1 134.172 270.148C136.248 268.192 137.628 266.404 137.628 264.64C137.628 263.068 136.644 262.048 135.072 262.048C133.956 262.048 133.188 262.564 132.468 263.344L133.104 263.956C133.596 263.38 134.22 262.936 134.94 262.936C136.032 262.936 136.548 263.68 136.548 264.688C136.548 266.188 135.288 267.952 132.528 270.364V271ZM141.788 271.168C143.264 271.168 144.668 270.064 144.668 268.144C144.668 266.2 143.48 265.336 142.016 265.336C141.488 265.336 141.092 265.468 140.696 265.684L140.924 263.14H144.248V262.204H139.964L139.688 266.32L140.276 266.692C140.78 266.356 141.152 266.164 141.74 266.164C142.832 266.164 143.552 266.92 143.552 268.18C143.552 269.452 142.724 270.256 141.68 270.256C140.672 270.256 140.024 269.788 139.532 269.272L138.98 269.992C139.58 270.592 140.42 271.168 141.788 271.168Z" fill="#D60C18"/>
<path d="M406.528 271H412.048V270.064H409.612C409.168 270.064 408.64 270.1 408.172 270.148C410.248 268.192 411.628 266.404 411.628 264.64C411.628 263.068 410.644 262.048 409.072 262.048C407.956 262.048 407.188 262.564 406.468 263.344L407.104 263.956C407.596 263.38 408.22 262.936 408.94 262.936C410.032 262.936 410.548 263.68 410.548 264.688C410.548 266.188 409.288 267.952 406.528 270.364V271ZM415.788 271.168C417.264 271.168 418.668 270.064 418.668 268.144C418.668 266.2 417.48 265.336 416.016 265.336C415.488 265.336 415.092 265.468 414.696 265.684L414.924 263.14H418.248V262.204H413.964L413.688 266.32L414.276 266.692C414.78 266.356 415.152 266.164 415.74 266.164C416.832 266.164 417.552 266.92 417.552 268.18C417.552 269.452 416.724 270.256 415.68 270.256C414.672 270.256 414.024 269.788 413.532 269.272L412.98 269.992C413.58 270.592 414.42 271.168 415.788 271.168Z" fill="#D60C18"/>
<line x1="126.5" y1="275.5" x2="126.5" y2="258.5" stroke="#939EA7" stroke-linecap="square" stroke-dasharray="2 2"/>
<line x1="150.5" y1="275.5" x2="150.5" y2="258.5" stroke="#939EA7" stroke-linecap="square" stroke-dasharray="2 2"/>
<line x1="126.5" y1="206.5" x2="126.5" y2="189.5" stroke="#939EA7" stroke-linecap="square" stroke-dasharray="2 2"/>
<path d="M156.984 84H160.872V87.68H156.984V84ZM155.848 82.928V88.736H162.072V82.928H155.848ZM152.312 79.216V93.264H153.544V80.432H164.408V93.264H165.688V79.216H152.312ZM153 91.28V92.416H165.144V91.28H153ZM170.616 86.032V87.008H179.416V86.032H170.616ZM170.616 88.656V89.616H179.416V88.656H170.616ZM170.616 91.296V92.368H179.464V91.296H170.616ZM167.848 80.784V81.904H182.168V80.784H167.848ZM169.672 83.392V93.28H170.872V84.448H179.08V93.28H180.312V83.392H169.672ZM174.408 81.36C174.28 82.112 174.008 83.2 173.736 83.92L174.904 84.096C175.192 83.408 175.576 82.4 175.88 81.456L174.408 81.36ZM178.216 78.544C177.848 79.264 177.192 80.272 176.648 80.928L177.688 81.264C178.264 80.656 178.968 79.76 179.544 78.896L178.216 78.544ZM170.632 78.976C171.192 79.584 171.832 80.432 172.104 80.992L173.224 80.416C172.904 79.872 172.28 79.072 171.688 78.512L170.632 78.976ZM187.064 85.296H195.144V86.768H187.064V85.296ZM187.064 87.696H195.144V89.168H187.064V87.696ZM187.064 82.928H195.144V84.368H187.064V82.928ZM185.816 81.968V90.128H196.424V81.968H185.816ZM192.184 91.184C194.056 91.824 195.96 92.672 197.096 93.296L198.216 92.48C196.968 91.856 194.92 91.024 193.032 90.4L192.184 91.184ZM184.296 79.392V80.496H197.656V79.392H184.296ZM190.392 79.856C190.296 80.592 190.056 81.664 189.832 82.368L190.968 82.576C191.224 81.92 191.528 80.944 191.8 80.032L190.392 79.856ZM188.744 90.32C187.64 91.056 185.448 91.888 183.72 92.352C183.992 92.608 184.36 93.024 184.552 93.28C186.264 92.8 188.44 91.952 189.832 91.104L188.744 90.32Z" fill="black"/>
<path d="M158.52 212.384V213.504H166.376V212.384H158.52ZM163.128 208.624V221.776C163.128 222.048 163.048 222.128 162.776 222.128C162.536 222.144 161.736 222.144 160.84 222.128C161.032 222.448 161.208 222.976 161.272 223.296C162.488 223.296 163.224 223.264 163.688 223.056C164.136 222.848 164.328 222.496 164.328 221.776V208.624H163.128ZM162.936 212.848C161.976 215.616 160.104 218.48 158.152 219.856C158.424 220.064 158.776 220.464 158.984 220.736C160.968 219.152 162.84 216.192 163.896 213.136L162.936 212.848ZM153.48 219.6C153.08 220.72 152.36 221.856 151.528 222.592C151.8 222.752 152.296 223.104 152.504 223.312C153.336 222.48 154.152 221.184 154.632 219.888L153.48 219.6ZM155.768 220.048C156.408 220.848 157.128 221.968 157.448 222.688L158.472 222.16C158.152 221.44 157.4 220.384 156.728 219.584L155.768 220.048ZM153.528 213.168H156.824V215.232H153.528V213.168ZM153.528 216.16H156.824V218.256H153.528V216.16ZM153.528 210.176H156.824V212.224H153.528V210.176ZM152.376 209.184V219.248H158.008V209.184H152.376ZM173.608 209.36V210.448H182.12V209.36H173.608ZM173.96 217.664V218.736H181.624V217.664H173.96ZM173.08 221.808V222.912H182.28V221.808H173.08ZM177.176 218.176V222.48H178.376V218.176H177.176ZM175.144 210.976C174.776 211.744 174.072 212.944 173.432 213.92C174.28 215.04 175.032 216.272 175.368 217.104L176.376 216.688C176.024 215.968 175.304 214.832 174.6 213.904C175.144 213.088 175.768 212.064 176.184 211.248L175.144 210.976ZM177.912 210.992C177.544 211.744 176.84 212.944 176.168 213.904C177.048 215.008 177.832 216.24 178.184 217.072L179.176 216.64C178.824 215.92 178.072 214.8 177.352 213.888C177.896 213.088 178.52 212.08 178.968 211.264L177.912 210.992ZM180.68 210.976C180.296 211.744 179.576 212.96 178.888 213.92C179.8 215.024 180.648 216.272 181.048 217.104L182.024 216.64C181.64 215.92 180.84 214.816 180.088 213.904C180.632 213.088 181.272 212.08 181.752 211.264L180.68 210.976ZM171.448 214.88C171.88 215.968 172.296 217.408 172.456 218.256L173.432 217.936C173.272 217.088 172.808 215.68 172.376 214.624L171.448 214.88ZM169.992 219.008C170.184 220.08 170.36 221.488 170.392 222.416L171.368 222.224C171.32 221.296 171.112 219.92 170.92 218.832L169.992 219.008ZM168.328 218.864C168.184 220.192 167.944 221.648 167.56 222.64C167.816 222.736 168.312 222.896 168.536 223.008C168.872 222 169.192 220.448 169.368 219.04L168.328 218.864ZM167.944 214.56C167.944 214.32 168.664 213.952 168.664 213.952V213.936C169.736 212.656 170.824 210.784 171.656 208.992L170.568 208.544C169.928 210.288 168.808 212.128 168.456 212.592C168.12 213.088 167.848 213.424 167.56 213.488C167.704 213.776 167.88 214.32 167.944 214.56ZM167.944 214.56C168.2 214.432 168.648 214.336 171.224 214.048C171.224 213.808 171.256 213.376 171.32 213.088L168.488 213.328L167.912 213.68L167.944 214.56ZM168.04 218.16C168.04 217.92 168.792 217.568 168.792 217.568V217.536C170.312 215.984 171.832 213.76 173.048 211.6L172.024 211.008C170.984 213.152 169.336 215.424 168.84 216C168.36 216.576 168.008 216.992 167.656 217.056C167.8 217.376 167.976 217.92 168.04 218.16ZM168.04 218.16C168.36 218 168.856 217.888 172.472 217.36C172.456 217.12 172.472 216.688 172.52 216.4L168.584 216.912L168.008 217.28L168.04 218.16ZM171.544 218.688C171.864 219.552 172.2 220.688 172.328 221.424L173.24 221.12C173.096 220.4 172.728 219.28 172.408 218.416L171.544 218.688Z" fill="black"/>
<path d="M153.576 264.08V265.088H166.104V264.08H153.576ZM153.048 260.048V261.024H165.608V260.048H153.048ZM155.96 266.752V267.728H165.208V266.752H155.96ZM155.928 269.152V270.128H164.84V269.152H155.928ZM154.408 271.76V272.768H166.36V271.76H154.408ZM159.688 265.376V272.432H160.856V265.376H159.688ZM152.952 264.08V267.456C152.952 269.072 152.808 271.168 151.496 272.672C151.752 272.816 152.232 273.216 152.408 273.44C153.864 271.792 154.136 269.296 154.136 267.472V264.08H152.952ZM156.296 265.36C155.816 266.64 155.048 267.872 154.152 268.72C154.36 268.944 154.696 269.504 154.792 269.728C155.832 268.736 156.76 267.2 157.32 265.664L156.296 265.36ZM154.92 261.616C157.88 262.272 161.608 263.424 163.656 264.208L164.424 263.488C162.312 262.736 158.584 261.632 155.72 260.96L154.92 261.616ZM162.952 260.896C161.032 261.968 157.272 262.96 154.408 263.488C154.6 263.664 154.92 264 155.08 264.208C157.912 263.632 161.544 262.624 163.8 261.424L162.952 260.896ZM158.12 258.848C158.616 259.44 159.16 260.256 159.416 260.784L160.312 260.288C160.056 259.76 159.48 258.976 158.968 258.416L158.12 258.848ZM168.008 268.448V269.456H182.024V268.448H168.008ZM168.072 261.424V262.416H181.96V261.424H168.072ZM168.712 264.192V265.168H181.384V264.192H168.712ZM169.528 266.336V267.264H180.6V266.336H169.528ZM174.376 264.624V273.296H175.56V264.624H174.376ZM172.92 258.56V261.904H174.04V258.56H172.92ZM175.944 258.56V261.856H177.096V258.56H175.944ZM179.656 258.752C179.384 259.488 178.856 260.544 178.424 261.216L179.4 261.536C179.848 260.912 180.408 259.968 180.888 259.088L179.656 258.752ZM177.592 262.368C177.368 262.832 176.936 263.552 176.616 264.032L177.608 264.336C177.976 263.904 178.424 263.312 178.824 262.704L177.592 262.368ZM169.368 259.088C169.896 259.84 170.472 260.864 170.696 261.504L171.768 261.104C171.544 260.448 170.952 259.44 170.392 258.72L169.368 259.088ZM171.368 262.624C171.736 263.152 172.104 263.872 172.232 264.32L173.384 264.016C173.224 263.552 172.856 262.864 172.488 262.352L171.368 262.624ZM172.696 270.272C171.64 270.96 169.592 271.6 167.928 271.872C168.168 272.096 168.504 272.48 168.664 272.768C170.328 272.4 172.44 271.568 173.592 270.704L172.696 270.272ZM176.6 270.848C178.136 271.392 180.184 272.224 181.24 272.736L181.992 271.984C180.904 271.472 178.84 270.704 177.336 270.192L176.6 270.848Z" fill="black"/>
<path d="M154.328 312.512V313.424H163.704V312.512H154.328ZM161 311.2C161.608 311.504 162.344 311.968 162.728 312.352L163.304 311.712C162.92 311.344 162.184 310.896 161.56 310.624L161 311.2ZM162.056 314.16C161.368 316.928 159.896 319.008 157.72 320.272C157.928 320.448 158.28 320.848 158.424 321.04C160.632 319.616 162.232 317.376 163.032 314.352L162.056 314.16ZM154.168 319.056L154.328 319.968C155.656 319.728 157.368 319.376 159.032 319.056L159 318.208C157.192 318.544 155.4 318.848 154.168 319.056ZM155.752 315.184H157.576V316.8H155.752V315.184ZM154.888 314.432V317.536H158.456V314.432H154.888ZM159.064 310.8C159.352 315.744 160.008 320.288 162.216 320.768C163.064 321.072 163.624 320.432 163.832 318.672C163.608 318.576 163.24 318.32 163.048 318.128C162.936 319.168 162.776 319.84 162.552 319.792C161 319.552 160.296 315.328 160.088 310.8H159.064ZM152.312 309.312V323.344H153.448V310.4H164.488V323.344H165.688V309.312H152.312ZM153.016 321.504V322.592H165.16V321.504H153.016ZM168.232 309.216V323.248H169.288V310.304H171.944V309.216H168.232ZM171.576 309.216V309.52C171.256 310.624 170.696 312.464 170.12 313.92C171.24 315.216 171.512 316.304 171.512 317.184C171.512 317.68 171.416 318.144 171.176 318.32C171.064 318.416 170.888 318.448 170.696 318.464C170.44 318.48 170.152 318.464 169.784 318.448C169.96 318.736 170.056 319.184 170.072 319.456C170.424 319.488 170.824 319.488 171.128 319.456C171.448 319.408 171.72 319.328 171.944 319.152C172.376 318.832 172.552 318.144 172.552 317.296C172.552 316.288 172.296 315.136 171.16 313.792C171.688 312.512 172.264 310.928 172.696 309.6L171.96 309.168L171.784 309.216H171.576ZM174.936 314.976V315.968H179.896V314.976H174.936ZM173.368 317.456V318.48H181.528V317.456H173.368ZM174.296 309.792V310.656H176.872V309.792H174.296ZM173.656 311.536C174.344 312.048 175.176 312.784 175.576 313.264L176.152 312.608C175.736 312.144 174.888 311.44 174.216 310.96L173.656 311.536ZM179.224 319.696C180.008 320.576 181.032 321.792 181.528 322.496L182.456 321.872C181.928 321.184 180.904 320 180.104 319.152L179.224 319.696ZM176.584 309.792V310C175.976 312.672 174.344 314.928 172.568 315.984C172.792 316.16 173.08 316.512 173.208 316.736C175.144 315.488 176.856 313.168 177.56 310L176.92 309.744L176.744 309.792H176.584ZM178.248 309.44V310.304H181.416V309.44H178.248ZM174.504 308.56C173.992 310.112 173.096 311.552 171.992 312.496C172.216 312.64 172.616 312.944 172.792 313.104C173.88 312.08 174.856 310.496 175.464 308.784L174.504 308.56ZM181.048 309.44V309.632C180.68 310.704 179.96 312.112 179.176 312.944C179.384 313.104 179.704 313.408 179.864 313.616C180.744 312.672 181.64 311.184 182.152 309.76L181.48 309.376L181.272 309.44H181.048ZM174.52 319.264C173.96 320.192 173.144 321.232 172.392 321.952C172.664 322.096 173.128 322.416 173.352 322.592C174.056 321.824 174.968 320.64 175.592 319.632L174.52 319.264ZM178.488 310.096L177.56 310.336C178.36 313.04 179.832 315.52 181.72 316.784C181.88 316.512 182.2 316.128 182.44 315.936C180.648 314.864 179.208 312.544 178.488 310.096ZM176.888 317.904V323.264H178.024V317.904H176.888ZM172.28 313.552L172.424 314.384C173.176 314.272 173.912 314.16 174.76 314.016L174.728 313.28C173.768 313.392 172.984 313.488 172.28 313.552Z" fill="black"/>
<path d="M155.272 371.824V372.752H163.72V371.824H155.272ZM152.616 363.056V365.712H153.768V364.016H164.424V365.712H165.64V363.056H152.616ZM155.192 365.008V365.92H162.504V367.296H155.192V368.224H163.672V365.008H155.192ZM155.256 369.328V370.272H163.32V373.264H164.52V369.328H155.256ZM154.376 365.008V373.296H155.576V365.008H154.376ZM158.04 362.048C158.312 362.528 158.6 363.168 158.712 363.584L159.832 363.328C159.736 362.912 159.416 362.272 159.112 361.824L158.04 362.048ZM153.816 359.712V360.672H158.904V359.712H153.816ZM160.424 359.728V360.688H166.28V359.728H160.424ZM154.136 358.448C153.592 359.776 152.68 361.088 151.672 361.968C151.928 362.16 152.344 362.56 152.52 362.768C153.528 361.776 154.584 360.272 155.208 358.752L154.136 358.448ZM160.728 358.448C160.312 359.552 159.576 360.592 158.712 361.296C159 361.44 159.432 361.824 159.64 362.016C160.504 361.232 161.352 360 161.832 358.72L160.728 358.448ZM154.968 361.168C155.48 361.648 156.136 362.32 156.456 362.752L157.256 362.08C156.92 361.664 156.248 361.008 155.72 360.56L154.968 361.168ZM161.944 361.248C162.552 361.744 163.288 362.432 163.656 362.896L164.472 362.176C164.088 361.728 163.32 361.072 162.728 360.624L161.944 361.248ZM174.6 363.376H180.552V365.44H174.6V363.376ZM174.6 360.352H180.552V362.384H174.6V360.352ZM173.512 359.312V366.48H181.704V359.312H173.512ZM173.304 368.352V369.456H181.928V368.352H173.304ZM172.072 371.664V372.752H182.456V371.664H172.072ZM167.72 359.648V360.784H172.712V359.648H167.72ZM167.896 364.272V365.408H172.488V364.272H167.896ZM167.56 370.4L167.848 371.632C169.272 371.152 171.096 370.544 172.84 369.952L172.632 368.8C170.776 369.424 168.856 370.048 167.56 370.4ZM169.72 360.096V370.24L170.872 370.016V360.096H169.72ZM177.048 359.808V365.968H176.968V372.16H178.184V365.968H178.104V359.808H177.048Z" fill="black"/>
<path d="M159.547 138.773V140H153.523V138.773H159.547ZM153.828 128.625V140H152.32V128.625H153.828ZM158.75 133.516V134.742H153.523V133.516H158.75ZM159.469 128.625V129.859H153.523V128.625H159.469ZM162.641 133.352V140H161.195V131.547H162.562L162.641 133.352ZM162.297 135.453L161.695 135.43C161.701 134.852 161.786 134.318 161.953 133.828C162.12 133.333 162.354 132.904 162.656 132.539C162.958 132.174 163.318 131.893 163.734 131.695C164.156 131.492 164.622 131.391 165.133 131.391C165.549 131.391 165.924 131.448 166.258 131.562C166.591 131.672 166.875 131.849 167.109 132.094C167.349 132.339 167.531 132.656 167.656 133.047C167.781 133.432 167.844 133.904 167.844 134.461V140H166.391V134.445C166.391 134.003 166.326 133.648 166.195 133.383C166.065 133.112 165.875 132.917 165.625 132.797C165.375 132.672 165.068 132.609 164.703 132.609C164.344 132.609 164.016 132.685 163.719 132.836C163.427 132.987 163.174 133.195 162.961 133.461C162.753 133.727 162.589 134.031 162.469 134.375C162.354 134.714 162.297 135.073 162.297 135.453ZM175.516 131.547H176.828V139.82C176.828 140.565 176.677 141.201 176.375 141.727C176.073 142.253 175.651 142.651 175.109 142.922C174.573 143.198 173.953 143.336 173.25 143.336C172.958 143.336 172.615 143.289 172.219 143.195C171.828 143.107 171.443 142.953 171.062 142.734C170.688 142.521 170.372 142.232 170.117 141.867L170.875 141.008C171.229 141.435 171.599 141.732 171.984 141.898C172.375 142.065 172.76 142.148 173.141 142.148C173.599 142.148 173.995 142.062 174.328 141.891C174.661 141.719 174.919 141.464 175.102 141.125C175.289 140.792 175.383 140.38 175.383 139.891V133.406L175.516 131.547ZM169.695 135.867V135.703C169.695 135.057 169.771 134.471 169.922 133.945C170.078 133.414 170.299 132.958 170.586 132.578C170.878 132.198 171.229 131.906 171.641 131.703C172.052 131.495 172.516 131.391 173.031 131.391C173.562 131.391 174.026 131.484 174.422 131.672C174.823 131.854 175.161 132.122 175.438 132.477C175.719 132.826 175.94 133.247 176.102 133.742C176.263 134.237 176.375 134.797 176.438 135.422V136.141C176.38 136.76 176.268 137.318 176.102 137.812C175.94 138.307 175.719 138.729 175.438 139.078C175.161 139.427 174.823 139.695 174.422 139.883C174.021 140.065 173.552 140.156 173.016 140.156C172.51 140.156 172.052 140.049 171.641 139.836C171.234 139.622 170.885 139.323 170.594 138.938C170.302 138.552 170.078 138.099 169.922 137.578C169.771 137.052 169.695 136.482 169.695 135.867ZM171.141 135.703V135.867C171.141 136.289 171.182 136.685 171.266 137.055C171.354 137.424 171.487 137.75 171.664 138.031C171.846 138.312 172.078 138.534 172.359 138.695C172.641 138.852 172.977 138.93 173.367 138.93C173.846 138.93 174.242 138.828 174.555 138.625C174.867 138.422 175.115 138.154 175.297 137.82C175.484 137.487 175.63 137.125 175.734 136.734V134.852C175.677 134.565 175.589 134.289 175.469 134.023C175.354 133.753 175.203 133.513 175.016 133.305C174.833 133.091 174.607 132.922 174.336 132.797C174.065 132.672 173.747 132.609 173.383 132.609C172.987 132.609 172.646 132.693 172.359 132.859C172.078 133.021 171.846 133.245 171.664 133.531C171.487 133.812 171.354 134.141 171.266 134.516C171.182 134.885 171.141 135.281 171.141 135.703ZM180.594 128V140H179.141V128H180.594ZM184.484 131.547V140H183.031V131.547H184.484ZM182.922 129.305C182.922 129.07 182.992 128.872 183.133 128.711C183.279 128.549 183.492 128.469 183.773 128.469C184.049 128.469 184.26 128.549 184.406 128.711C184.557 128.872 184.633 129.07 184.633 129.305C184.633 129.529 184.557 129.721 184.406 129.883C184.26 130.039 184.049 130.117 183.773 130.117C183.492 130.117 183.279 130.039 183.133 129.883C182.992 129.721 182.922 129.529 182.922 129.305ZM191.727 137.758C191.727 137.549 191.68 137.357 191.586 137.18C191.497 136.997 191.312 136.833 191.031 136.688C190.755 136.536 190.339 136.406 189.781 136.297C189.312 136.198 188.888 136.081 188.508 135.945C188.133 135.81 187.812 135.646 187.547 135.453C187.286 135.26 187.086 135.034 186.945 134.773C186.805 134.513 186.734 134.208 186.734 133.859C186.734 133.526 186.807 133.211 186.953 132.914C187.104 132.617 187.315 132.354 187.586 132.125C187.862 131.896 188.193 131.716 188.578 131.586C188.964 131.456 189.393 131.391 189.867 131.391C190.544 131.391 191.122 131.51 191.602 131.75C192.081 131.99 192.448 132.31 192.703 132.711C192.958 133.107 193.086 133.547 193.086 134.031H191.641C191.641 133.797 191.57 133.57 191.43 133.352C191.294 133.128 191.094 132.943 190.828 132.797C190.568 132.651 190.247 132.578 189.867 132.578C189.466 132.578 189.141 132.641 188.891 132.766C188.646 132.885 188.466 133.039 188.352 133.227C188.242 133.414 188.188 133.612 188.188 133.82C188.188 133.977 188.214 134.117 188.266 134.242C188.323 134.362 188.422 134.474 188.562 134.578C188.703 134.677 188.901 134.771 189.156 134.859C189.411 134.948 189.737 135.036 190.133 135.125C190.826 135.281 191.396 135.469 191.844 135.688C192.292 135.906 192.625 136.174 192.844 136.492C193.062 136.81 193.172 137.195 193.172 137.648C193.172 138.018 193.094 138.357 192.938 138.664C192.786 138.971 192.565 139.237 192.273 139.461C191.987 139.68 191.643 139.852 191.242 139.977C190.846 140.096 190.401 140.156 189.906 140.156C189.161 140.156 188.531 140.023 188.016 139.758C187.5 139.492 187.109 139.148 186.844 138.727C186.578 138.305 186.445 137.859 186.445 137.391H187.898C187.919 137.786 188.034 138.102 188.242 138.336C188.451 138.565 188.706 138.729 189.008 138.828C189.31 138.922 189.609 138.969 189.906 138.969C190.302 138.969 190.633 138.917 190.898 138.812C191.169 138.708 191.375 138.565 191.516 138.383C191.656 138.201 191.727 137.992 191.727 137.758ZM196.516 128V140H195.07V128H196.516ZM196.172 135.453L195.57 135.43C195.576 134.852 195.661 134.318 195.828 133.828C195.995 133.333 196.229 132.904 196.531 132.539C196.833 132.174 197.193 131.893 197.609 131.695C198.031 131.492 198.497 131.391 199.008 131.391C199.424 131.391 199.799 131.448 200.133 131.562C200.466 131.672 200.75 131.849 200.984 132.094C201.224 132.339 201.406 132.656 201.531 133.047C201.656 133.432 201.719 133.904 201.719 134.461V140H200.266V134.445C200.266 134.003 200.201 133.648 200.07 133.383C199.94 133.112 199.75 132.917 199.5 132.797C199.25 132.672 198.943 132.609 198.578 132.609C198.219 132.609 197.891 132.685 197.594 132.836C197.302 132.987 197.049 133.195 196.836 133.461C196.628 133.727 196.464 134.031 196.344 134.375C196.229 134.714 196.172 135.073 196.172 135.453Z" fill="black"/>
<rect x="127" y="390" width="298" height="250" fill="#EEEEEE"/>
<line x1="400.5" y1="275.5" x2="400.5" y2="258.5" stroke="#939EA7" stroke-linecap="square" stroke-dasharray="2 2"/>
<line x1="424.5" y1="275.5" x2="424.5" y2="258.5" stroke="#939EA7" stroke-linecap="square" stroke-dasharray="2 2"/>
<line x1="136.5" y1="206.5" x2="136.5" y2="189.5" stroke="#939EA7" stroke-linecap="square" stroke-dasharray="2 2"/>
<path d="M181.272 421.824V422.752H189.72V421.824H181.272ZM178.616 413.056V415.712H179.768V414.016H190.424V415.712H191.64V413.056H178.616ZM181.192 415.008V415.92H188.504V417.296H181.192V418.224H189.672V415.008H181.192ZM181.256 419.328V420.272H189.32V423.264H190.52V419.328H181.256ZM180.376 415.008V423.296H181.576V415.008H180.376ZM184.04 412.048C184.312 412.528 184.6 413.168 184.712 413.584L185.832 413.328C185.736 412.912 185.416 412.272 185.112 411.824L184.04 412.048ZM179.816 409.712V410.672H184.904V409.712H179.816ZM186.424 409.728V410.688H192.28V409.728H186.424ZM180.136 408.448C179.592 409.776 178.68 411.088 177.672 411.968C177.928 412.16 178.344 412.56 178.52 412.768C179.528 411.776 180.584 410.272 181.208 408.752L180.136 408.448ZM186.728 408.448C186.312 409.552 185.576 410.592 184.712 411.296C185 411.44 185.432 411.824 185.64 412.016C186.504 411.232 187.352 410 187.832 408.72L186.728 408.448ZM180.968 411.168C181.48 411.648 182.136 412.32 182.456 412.752L183.256 412.08C182.92 411.664 182.248 411.008 181.72 410.56L180.968 411.168ZM187.944 411.248C188.552 411.744 189.288 412.432 189.656 412.896L190.472 412.176C190.088 411.728 189.32 411.072 188.728 410.624L187.944 411.248ZM200.6 413.376H206.552V415.44H200.6V413.376ZM200.6 410.352H206.552V412.384H200.6V410.352ZM199.512 409.312V416.48H207.704V409.312H199.512ZM199.304 418.352V419.456H207.928V418.352H199.304ZM198.072 421.664V422.752H208.456V421.664H198.072ZM193.72 409.648V410.784H198.712V409.648H193.72ZM193.896 414.272V415.408H198.488V414.272H193.896ZM193.56 420.4L193.848 421.632C195.272 421.152 197.096 420.544 198.84 419.952L198.632 418.8C196.776 419.424 194.856 420.048 193.56 420.4ZM195.72 410.096V420.24L196.872 420.016V410.096H195.72ZM203.048 409.808V415.968H202.968V422.16H204.184V415.968H204.104V409.808H203.048Z" fill="black"/>
<path d="M187.538 459.536V460.688H195.394V459.536H187.538ZM192.21 464.304V471.728C192.21 472 192.114 472.064 191.794 472.08C191.506 472.096 190.434 472.096 189.298 472.064C189.474 472.416 189.634 472.912 189.682 473.248C191.25 473.248 192.162 473.232 192.706 473.056C193.25 472.864 193.426 472.496 193.426 471.744V464.304H192.21ZM186.834 463.952V465.088H195.858V463.952H186.834ZM183.634 465.184V473.328H184.834V464.208L184.69 464.144L183.634 465.184ZM185.49 461.984C184.386 463.824 182.626 465.68 180.962 466.864C181.218 467.088 181.634 467.616 181.81 467.856C183.49 466.512 185.378 464.448 186.626 462.416L185.49 461.984ZM184.834 458.56C184.018 459.712 182.466 461.152 181.138 462.048C181.346 462.288 181.666 462.752 181.842 463.008C183.266 461.984 184.914 460.432 185.986 459.024L184.834 458.56ZM210.61 459.008C210.226 459.952 209.506 461.248 208.946 462.064L209.938 462.48C210.498 461.68 211.186 460.512 211.73 459.456L210.61 459.008ZM203.554 459.552C204.226 460.496 204.882 461.744 205.122 462.576L206.162 462.048C205.906 461.232 205.202 460 204.53 459.088L203.554 459.552ZM210.082 463.136V471.776C210.082 471.984 210.018 472.064 209.762 472.064C209.506 472.08 208.69 472.08 207.778 472.048C207.938 472.368 208.098 472.864 208.146 473.184C209.362 473.184 210.146 473.184 210.61 472.992C211.09 472.8 211.218 472.432 211.218 471.792V463.136H210.082ZM206.994 458.576V463.84H208.146V458.576H206.994ZM204.402 463.136V464.192H210.37V463.136H204.402ZM203.954 463.136V467.568C203.954 469.152 203.874 471.168 203.042 472.64C203.314 472.768 203.778 473.136 203.97 473.344C204.93 471.744 205.074 469.344 205.074 467.568V463.136H203.954ZM205.09 469.056L205.49 470.096C206.978 469.728 208.914 469.264 210.754 468.768L210.642 467.808C208.61 468.288 206.498 468.768 205.09 469.056ZM205.362 466.064C206.658 466.352 208.258 466.912 209.106 467.36L209.602 466.496C208.738 466.048 207.106 465.536 205.842 465.296L205.362 466.064ZM198.338 462.624V463.664H202.386V462.624H198.338ZM197.362 465.408V466.464H202.946V465.408H197.362ZM197.506 467.504C197.762 468.448 198.05 469.68 198.162 470.496L199.042 470.256C198.93 469.456 198.642 468.24 198.354 467.296L197.506 467.504ZM197.17 471.632L197.458 472.72C199.01 472.384 201.106 471.904 203.106 471.456L203.058 470.528C200.85 470.96 198.594 471.392 197.17 471.632ZM202.162 467.104C202.002 467.984 201.65 469.264 201.378 470.048L202.146 470.304C202.45 469.552 202.818 468.384 203.122 467.392L202.162 467.104ZM199.826 463.072V471.728L200.882 471.552V463.072H199.826ZM200.13 458.56C199.426 460.096 198.242 461.568 197.026 462.512C197.234 462.8 197.554 463.44 197.634 463.696C198.994 462.528 200.354 460.72 201.202 458.912L200.13 458.56ZM199.89 460C200.866 460.848 202.194 462.064 202.834 462.784L203.522 461.856C202.866 461.184 201.538 460.032 200.546 459.2L199.89 460Z" fill="black"/>
<path d="M187.368 510.336V519.184H188.488V510.336H187.368ZM190.392 508.64V521.696C190.392 521.968 190.28 522.048 190.008 522.064C189.752 522.08 188.888 522.08 187.912 522.048C188.072 522.4 188.248 522.928 188.312 523.248C189.624 523.248 190.424 523.216 190.888 523.024C191.352 522.816 191.544 522.448 191.544 521.696V508.64H190.392ZM179.656 515.44V516.24H185.016V515.44H179.656ZM180.392 521.568V522.512H185.336V521.568H180.392ZM178.968 513.52V515.68C178.968 517.504 178.808 520.144 177.528 522.096C177.832 522.208 178.328 522.432 178.552 522.624C179.848 520.592 180.088 517.68 180.088 515.68V513.52H178.968ZM179.64 513.52V514.416H184.424V517.344H179.576V518.24H185.528V513.52H179.64ZM179.928 518.976V523.184H180.968V519.872H184.84V523.152H185.912V518.976H179.928ZM182.088 508.688C181.112 510.288 179.336 511.664 177.56 512.512C177.768 512.768 178.104 513.36 178.232 513.616C180.12 512.592 182.056 510.976 183.192 509.088L182.088 508.688ZM181.72 510C183.08 510.832 184.92 512.048 185.832 512.816L186.472 511.824C185.56 511.088 183.672 509.936 182.344 509.152L181.72 510ZM180.712 511.92V512.72H184.088V511.92H180.712ZM202.552 513.968V515.088H208.328V513.968H202.552ZM193.976 510.24V511.264H201.032V510.24H193.976ZM193.8 516.592V517.632H201.112V516.592H193.8ZM193.72 513.904V514.928H201.288V513.904H193.72ZM205.4 514.448V523.216H206.568V514.448H205.4ZM195.016 511.584C195.304 512.288 195.544 513.232 195.624 513.84L196.648 513.552C196.568 512.96 196.296 512.048 195.992 511.36L195.016 511.584ZM199.032 511.344C198.808 512.144 198.408 513.344 198.072 514.08L199.064 514.32C199.4 513.616 199.8 512.528 200.136 511.584L199.032 511.344ZM207.08 508.848C205.928 509.344 203.88 509.808 202.072 510.112C202.216 510.368 202.392 510.768 202.456 511.024C204.344 510.752 206.536 510.304 208.056 509.744L207.08 508.848ZM196.424 508.784C196.792 509.456 197.192 510.352 197.368 510.912L198.6 510.544C198.424 510 197.992 509.12 197.608 508.48L196.424 508.784ZM202.072 510.112V515.648C202.072 517.792 201.96 520.544 200.6 522.48C200.856 522.624 201.32 522.992 201.512 523.216C202.984 521.12 203.192 517.952 203.192 515.648V510.112H202.072ZM198.92 518.816C199.4 519.616 199.976 520.72 200.232 521.408L201.08 520.912C200.84 520.224 200.264 519.184 199.736 518.384L198.92 518.816ZM195.224 518.48C194.872 519.536 194.328 520.64 193.704 521.392C193.944 521.52 194.36 521.824 194.536 521.984C195.16 521.168 195.816 519.904 196.2 518.752L195.224 518.48ZM197.016 514.432V523.216H198.184V514.432H197.016ZM219.368 510.336V519.184H220.488V510.336H219.368ZM222.392 508.64V521.696C222.392 521.968 222.28 522.048 222.008 522.064C221.752 522.08 220.888 522.08 219.912 522.048C220.072 522.4 220.248 522.928 220.312 523.248C221.624 523.248 222.424 523.216 222.888 523.024C223.352 522.816 223.544 522.448 223.544 521.696V508.64H222.392ZM211.656 515.44V516.24H217.016V515.44H211.656ZM212.392 521.568V522.512H217.336V521.568H212.392ZM210.968 513.52V515.68C210.968 517.504 210.808 520.144 209.528 522.096C209.832 522.208 210.328 522.432 210.552 522.624C211.848 520.592 212.088 517.68 212.088 515.68V513.52H210.968ZM211.64 513.52V514.416H216.424V517.344H211.576V518.24H217.528V513.52H211.64ZM211.928 518.976V523.184H212.968V519.872H216.84V523.152H217.912V518.976H211.928ZM214.088 508.688C213.112 510.288 211.336 511.664 209.56 512.512C209.768 512.768 210.104 513.36 210.232 513.616C212.12 512.592 214.056 510.976 215.192 509.088L214.088 508.688ZM213.72 510C215.08 510.832 216.92 512.048 217.832 512.816L218.472 511.824C217.56 511.088 215.672 509.936 214.344 509.152L213.72 510ZM212.712 511.92V512.72H216.088V511.92H212.712ZM226.008 518.448V519.456H240.024V518.448H226.008ZM226.072 511.424V512.416H239.96V511.424H226.072ZM226.712 514.192V515.168H239.384V514.192H226.712ZM227.528 516.336V517.264H238.6V516.336H227.528ZM232.376 514.624V523.296H233.56V514.624H232.376ZM230.92 508.56V511.904H232.04V508.56H230.92ZM233.944 508.56V511.856H235.096V508.56H233.944ZM237.656 508.752C237.384 509.488 236.856 510.544 236.424 511.216L237.4 511.536C237.848 510.912 238.408 509.968 238.888 509.088L237.656 508.752ZM235.592 512.368C235.368 512.832 234.936 513.552 234.616 514.032L235.608 514.336C235.976 513.904 236.424 513.312 236.824 512.704L235.592 512.368ZM227.368 509.088C227.896 509.84 228.472 510.864 228.696 511.504L229.768 511.104C229.544 510.448 228.952 509.44 228.392 508.72L227.368 509.088ZM229.368 512.624C229.736 513.152 230.104 513.872 230.232 514.32L231.384 514.016C231.224 513.552 230.856 512.864 230.488 512.352L229.368 512.624ZM230.696 520.272C229.64 520.96 227.592 521.6 225.928 521.872C226.168 522.096 226.504 522.48 226.664 522.768C228.328 522.4 230.44 521.568 231.592 520.704L230.696 520.272ZM234.6 520.848C236.136 521.392 238.184 522.224 239.24 522.736L239.992 521.984C238.904 521.472 236.84 520.704 235.336 520.192L234.6 520.848Z" fill="black"/>
<path d="M184.312 558.624C184.248 561.088 184.344 568.912 177.672 572.288C178.04 572.544 178.44 572.912 178.648 573.232C185.448 569.584 185.576 561.456 185.64 558.624H184.312ZM185.496 560.592L184.344 560.72C184.568 562.112 185.224 570.208 191.56 573.168C191.736 572.832 192.088 572.416 192.44 572.144C186.296 569.408 185.64 561.744 185.496 560.592ZM194.072 561.824V563.056H207.992V561.824H194.072ZM202.408 558.56V571.408C202.408 571.728 202.28 571.824 201.96 571.84C201.656 571.856 200.536 571.856 199.4 571.808C199.576 572.176 199.784 572.72 199.832 573.072C201.432 573.088 202.36 573.056 202.92 572.848C203.48 572.64 203.72 572.272 203.72 571.408V558.56H202.408ZM201.8 562.032C200.152 565.2 196.792 568.656 193.56 570.288C193.896 570.56 194.28 571.008 194.488 571.36C197.704 569.52 201.064 565.984 202.856 562.704L201.8 562.032Z" fill="black"/>
<path d="M182.648 613.392V614.432H192.296V613.392H182.648ZM182.904 610.288V611.264H187.752V610.288H182.904ZM189.704 609.888C190.216 610.768 190.728 611.936 190.92 612.672L191.88 612.288C191.672 611.568 191.128 610.416 190.6 609.568L189.704 609.888ZM186.312 611.392C186.2 612.032 185.96 612.976 185.768 613.584L186.6 613.76C186.824 613.2 187.048 612.336 187.288 611.568L186.312 611.392ZM183.352 611.536C183.544 612.24 183.736 613.152 183.768 613.744L184.696 613.568C184.632 612.992 184.456 612.08 184.232 611.408L183.352 611.536ZM191.16 615.312C190.2 618.448 188.248 620.992 186.04 622.48C186.28 622.64 186.584 622.944 186.744 623.136C189 621.584 191.032 618.976 192.104 615.792L191.16 615.312ZM188.2 608.576C188.344 616.752 188.824 623.2 191.032 623.248C191.56 623.248 192.104 622.608 192.408 620.192C192.232 620.096 191.8 619.824 191.624 619.584C191.512 621.04 191.32 621.92 191.048 621.92C189.896 621.872 189.288 615.76 189.24 608.576H188.2ZM184.344 608.864C184.616 609.504 184.936 610.336 185.064 610.864L186.12 610.592C185.976 610.096 185.64 609.28 185.336 608.672L184.344 608.864ZM183.72 617.696V618.576H187.016V617.696H183.72ZM183.256 615.344V622.096H184.216V615.344H183.256ZM183.656 615.344V616.24H186.504V621.392H187.448V615.344H183.656ZM183.704 620.096V620.96H187V620.096H183.704ZM177.672 609.248V610.336H182.872V609.248H177.672ZM179.048 612.608V613.632H181.656V612.608H179.048ZM179.048 615.904V616.928H181.656V615.904H179.048ZM178.52 609.808V620.048H179.448V609.808H178.52ZM181.128 609.792V623.296H182.088V609.792H181.128ZM177.512 619.856L177.752 620.896C178.904 620.624 180.344 620.288 181.736 619.968L181.672 618.992C180.104 619.328 178.6 619.664 177.512 619.856ZM198.28 615.136V616.192H208.36V615.136H198.28ZM200.088 617.312V618.288H207.064V617.312H200.088ZM200.872 615.536C200.136 617.12 198.808 618.512 197.336 619.392C197.576 619.568 197.992 619.936 198.152 620.144C199.64 619.152 201.096 617.584 201.912 615.808L200.872 615.536ZM206.84 617.312V617.488C206.616 620.624 206.36 621.824 206.056 622.128C205.928 622.288 205.8 622.304 205.56 622.304C205.336 622.304 204.808 622.288 204.2 622.24C204.36 622.496 204.472 622.928 204.472 623.232C205.112 623.264 205.72 623.248 206.072 623.232C206.456 623.2 206.744 623.104 207 622.832C207.432 622.368 207.688 621.104 207.928 617.792C207.96 617.616 207.976 617.312 207.976 617.312H206.84ZM200.952 612.064H206.104V613.344H200.952V612.064ZM200.952 609.936H206.104V611.2H200.952V609.936ZM199.864 609.04V614.24H207.224V609.04H199.864ZM193.832 612.032V613.184H198.584V612.032H193.832ZM195.704 608.688V618.528H196.84V608.688H195.704ZM193.528 619.168L193.992 620.368C195.352 619.712 197.096 618.848 198.728 618.016L198.472 616.96C196.648 617.808 194.76 618.656 193.528 619.168ZM204.792 617.488C204.216 619.472 202.872 621.648 201.368 622.656C201.672 622.832 202.04 623.104 202.248 623.344C203.704 622.24 205.032 619.968 205.64 617.936L204.792 617.488ZM202.296 617.536C201.512 619.216 199.832 621.056 198.248 621.92C198.536 622.096 198.872 622.4 199.064 622.656C200.616 621.664 202.296 619.76 203.112 618.016L202.296 617.536ZM217.192 609.792V610.752H223.64V609.792H217.192ZM217.032 612.864V613.84H224.008V612.864H217.032ZM218.024 611.424C218.296 612.048 218.584 612.864 218.696 613.408L219.72 613.12C219.576 612.624 219.272 611.824 219 611.216L218.024 611.424ZM221.608 611.152C221.464 611.728 221.16 612.592 220.92 613.152L221.816 613.392C222.088 612.864 222.392 612.096 222.68 611.376L221.608 611.152ZM218.68 617.824C218.504 619.984 217.992 621.616 215.784 622.496C216.024 622.688 216.344 623.088 216.472 623.344C218.888 622.272 219.528 620.384 219.752 617.824H218.68ZM220.744 617.824V621.44C220.744 622.352 220.824 622.608 221.08 622.8C221.304 623.008 221.72 623.072 222.04 623.072C222.216 623.072 222.728 623.072 222.936 623.072C223.208 623.072 223.592 623.04 223.784 622.944C224.024 622.848 224.2 622.672 224.296 622.416C224.392 622.176 224.44 621.472 224.472 620.832C224.184 620.736 223.8 620.56 223.576 620.384C223.56 621.024 223.56 621.52 223.512 621.744C223.464 621.952 223.4 622.048 223.304 622.08C223.224 622.144 223.032 622.16 222.872 622.16C222.696 622.16 222.408 622.16 222.28 622.16C222.12 622.16 222.008 622.128 221.928 622.08C221.848 622.016 221.816 621.856 221.816 621.568V617.824H220.744ZM219.32 608.752C219.544 609.248 219.816 609.936 219.928 610.368L221.016 610.08C220.888 609.68 220.616 609.024 220.36 608.528L219.32 608.752ZM210.2 609.792V610.752H216.568V609.792H210.2ZM209.944 612.912V613.888H216.648V612.912H209.944ZM211 611.44C211.304 612.08 211.624 612.912 211.768 613.456L212.792 613.168C212.632 612.64 212.28 611.84 211.976 611.216L211 611.44ZM214.648 611.152C214.52 611.76 214.216 612.64 213.992 613.216L214.904 613.456C215.16 612.912 215.448 612.144 215.736 611.408L214.648 611.152ZM211.816 617.856C211.688 619.84 211.336 621.504 209.736 622.432C209.976 622.608 210.312 623.008 210.44 623.28C212.264 622.144 212.728 620.24 212.904 617.856H211.816ZM212.36 608.736C212.584 609.232 212.872 609.92 212.984 610.352L214.088 610.064C213.944 609.648 213.672 608.992 213.4 608.512L212.36 608.736ZM214.024 622.608C214.216 622.384 214.6 622.144 217.048 620.768C216.968 620.56 216.84 620.144 216.808 619.856L214.216 621.184L213.88 621.632L214.024 622.608ZM211.704 615.552H215.064V617.216H211.704V615.552ZM210.696 614.704V618.064H216.136V614.704H210.696ZM214.024 622.608C214.024 622.256 215.096 621.664 215.096 621.664V617.824H214.04V620.528C214.04 621.136 213.784 621.36 213.576 621.472C213.752 621.76 213.944 622.32 214.024 622.608ZM218.52 615.552H222.232V617.2H218.52V615.552ZM217.496 614.704V618.048H223.304V614.704H217.496ZM232.328 613.488V621.744C232.328 622.016 232.216 622.096 231.912 622.112C231.592 622.128 230.472 622.128 229.288 622.096C229.48 622.416 229.688 622.928 229.768 623.264C231.24 623.264 232.2 623.248 232.776 623.072C233.352 622.88 233.544 622.528 233.544 621.76V613.488H232.328ZM227.496 613.216V614.224H237.176V619.616H238.376V613.216H227.496ZM225.624 615.888V616.896H240.392V615.888H225.624ZM227.224 618.64V619.616H237.688V618.64H227.224ZM238.216 608.512C235.496 609.04 230.632 609.392 226.6 609.536C226.728 609.792 226.904 610.208 226.92 610.496C231.016 610.384 235.928 610.048 239.048 609.44L238.216 608.512ZM227.992 610.976C228.44 611.584 228.872 612.4 229.032 612.96L230.2 612.528C230.024 612 229.576 611.2 229.112 610.608L227.992 610.976ZM231.848 610.736C232.2 611.408 232.552 612.304 232.664 612.912L233.832 612.56C233.704 611.984 233.32 611.104 232.936 610.432L231.848 610.736ZM237.432 610.048C236.968 610.896 236.152 612.128 235.496 612.864L236.536 613.248C237.192 612.512 238.024 611.44 238.68 610.464L237.432 610.048ZM242.312 612.064V613.28H254.728V612.064H242.312ZM254.264 612.064V612.32C253.944 618.672 253.592 621.168 252.984 621.76C252.776 621.952 252.584 622 252.232 622C251.832 622 250.808 621.984 249.72 621.888C249.944 622.24 250.104 622.768 250.12 623.12C251.112 623.184 252.136 623.216 252.696 623.152C253.304 623.104 253.688 622.976 254.072 622.512C254.776 621.712 255.112 619.328 255.48 612.704C255.496 612.512 255.512 612.064 255.512 612.064H254.264ZM247.544 608.592V611.376C247.544 614.688 247.16 619.232 241.848 622.4C242.136 622.608 242.584 623.056 242.76 623.344C248.36 619.968 248.808 615.024 248.808 611.376V608.592H247.544Z" fill="black"/>
<rect x="127" y="160" width="298" height="30" fill="#FAFAFA"/>
<path d="M141.088 169.598V170.998H143.748V169.598H141.088ZM137.448 172.062V173.546H144.084V172.062H137.448ZM140.29 168.254V172.818H141.76V168.254H140.29ZM138.232 169.29V173.14H139.548V169.29H138.232ZM142.474 176.052C141.662 178.152 139.94 179.328 137.532 179.93C137.896 180.28 138.288 180.854 138.442 181.302C141.13 180.434 142.964 178.992 143.888 176.472L142.474 176.052ZM142.124 174.274C142.488 174.988 142.838 175.94 142.95 176.528L144.28 176.038C144.14 175.45 143.748 174.54 143.37 173.854L142.124 174.274ZM140.29 173.238V176.528C140.29 176.654 140.248 176.682 140.122 176.682C139.996 176.696 139.59 176.696 139.212 176.682C139.38 177.074 139.548 177.634 139.576 178.04C140.304 178.04 140.836 178.026 141.242 177.816C141.676 177.592 141.76 177.214 141.76 176.556V173.238H140.29ZM138.428 173.896C138.218 174.862 137.826 175.898 137.322 176.556C137.672 176.71 138.316 177.046 138.624 177.27C139.128 176.528 139.618 175.338 139.87 174.218L138.428 173.896ZM144.028 168.66V170.074H150.398V168.66H144.028ZM145.806 174.33H148.634V175.184H145.806V174.33ZM145.806 176.36H148.634V177.228H145.806V176.36ZM145.806 172.286H148.634V173.154H145.806V172.286ZM144.364 171.04V178.474H150.132V171.04H144.364ZM146.436 169.43C146.394 170.102 146.24 171.04 146.114 171.684L147.458 171.936C147.682 171.348 147.962 170.48 148.2 169.626L146.436 169.43ZM145.568 178.46C145.022 179.062 143.916 179.846 142.964 180.238C143.328 180.532 143.818 180.98 144.084 181.288C145.036 180.854 146.226 180.056 146.926 179.342L145.568 178.46ZM147.458 179.356C148.158 179.93 149.068 180.756 149.488 181.274L150.79 180.378C150.328 179.846 149.39 179.076 148.69 178.558L147.458 179.356ZM155.368 169.64V170.998H164.342V169.64H155.368ZM158.868 170.298C158.812 170.844 158.658 171.628 158.518 172.188L159.876 172.426C160.142 171.922 160.52 171.166 160.8 170.41L158.868 170.298ZM161.234 168.1C161.066 168.576 160.716 169.262 160.45 169.724L161.85 170.074C162.158 169.668 162.536 169.08 162.928 168.464L161.234 168.1ZM156.67 168.618C157.034 169.066 157.398 169.71 157.524 170.116L158.91 169.57C158.77 169.15 158.378 168.548 157.986 168.128L156.67 168.618ZM154.878 173.574H151.602V175.128H153.24V178.726H154.878V173.574ZM154.878 177.998H153.338C152.694 178.502 151.938 178.992 151.308 179.384L152.134 181.134C152.89 180.518 153.52 179.986 154.136 179.44C155.046 180.532 156.208 180.938 157.93 181.008C159.61 181.078 162.438 181.05 164.132 180.966C164.202 180.462 164.482 179.65 164.664 179.258C162.774 179.412 159.596 179.454 157.958 179.384C156.502 179.328 155.438 178.922 154.878 177.998ZM151.63 169.444C152.456 170.074 153.464 171.012 153.884 171.67L155.228 170.564C154.738 169.906 153.716 169.024 152.876 168.436L151.63 169.444ZM157.902 174.806H161.724V175.534H157.902V174.806ZM157.902 176.654H161.724V177.396H157.902V176.654ZM157.902 172.958H161.724V173.686H157.902V172.958ZM156.32 171.74V178.614H163.376V171.74H156.32ZM167.716 173.252V174.89H175.29V173.252H167.716ZM174.744 173.252V173.56C174.618 177.452 174.464 179.02 174.128 179.384C173.974 179.538 173.82 179.58 173.568 179.58C173.218 179.58 172.49 179.566 171.706 179.496C172.014 179.972 172.238 180.7 172.266 181.19C173.092 181.218 173.904 181.232 174.394 181.162C174.926 181.078 175.318 180.952 175.668 180.476C176.158 179.902 176.326 178.236 176.48 173.98C176.494 173.77 176.508 173.252 176.508 173.252H174.744ZM169.298 168.296C168.458 170.424 166.904 172.384 165.14 173.546C165.546 173.868 166.274 174.54 166.596 174.904C168.36 173.518 170.068 171.264 171.118 168.828L169.298 168.296ZM174.632 168.268L172.98 168.926C174.086 171.068 175.808 173.336 177.39 174.792C177.712 174.316 178.356 173.63 178.818 173.266C177.278 172.09 175.514 170.046 174.632 168.268ZM170.222 173.728C169.998 176.22 169.662 178.586 165.91 179.818C166.302 180.182 166.792 180.896 167.002 181.358C171.174 179.804 171.776 176.878 172.042 173.728H170.222ZM179.63 175.8V177.242H185.692V175.8H179.63ZM179.63 170.508V171.81H185.58V170.508H179.63ZM184.264 168.352C184.124 168.856 183.858 169.584 183.62 170.074L184.698 170.424C184.964 169.99 185.3 169.36 185.65 168.716L184.264 168.352ZM181.87 168.282V174.54H183.326V168.282H181.87ZM179.742 168.828C180.05 169.346 180.33 170.032 180.4 170.48L181.59 170.018C181.492 169.57 181.184 168.912 180.862 168.408L179.742 168.828ZM182.024 178.362C182.878 178.95 184.054 179.832 184.6 180.378L185.636 179.244C185.048 178.712 183.858 177.886 183.004 177.354L182.024 178.362ZM183.256 171.768L182.43 172.482C183.06 172.902 184.348 173.896 184.894 174.414L185.762 173.238C185.384 172.972 183.76 172.006 183.256 171.768ZM181.772 171.25C181.254 172.174 180.26 173.168 179.322 173.686C179.63 173.938 180.078 174.442 180.288 174.764C181.282 174.092 182.29 172.832 182.85 171.642L181.772 171.25ZM185.748 168.66V170.102H192.426V168.66H185.748ZM187.652 174.26H190.466V175.114H187.652V174.26ZM187.652 176.276H190.466V177.158H187.652V176.276ZM187.652 172.244H190.466V173.098H187.652V172.244ZM186.14 170.984V178.404H192.048V170.984H186.14ZM188.212 169.43C188.114 170.102 187.904 171.04 187.694 171.684L189.094 171.964C189.374 171.376 189.738 170.508 190.06 169.64L188.212 169.43ZM187.344 178.418C186.798 179.02 185.692 179.79 184.726 180.196C185.09 180.476 185.552 180.952 185.818 181.274C186.826 180.826 188.002 180.028 188.716 179.3L187.344 178.418ZM189.234 179.342C190.004 179.902 191.026 180.728 191.488 181.246L192.776 180.35C192.244 179.818 191.194 179.034 190.424 178.516L189.234 179.342ZM181.828 174.834V176.318C181.828 177.466 181.548 178.894 179.266 179.832C179.56 180.112 179.994 180.714 180.162 181.078C182.934 179.888 183.34 177.956 183.34 176.36V174.834H181.828Z" fill="black"/>
<path d="M386.078 261.95L392.648 268.646C392.806 268.804 393.09 268.804 393.248 268.646L399.818 261.95C400.007 261.76 400.007 261.476 399.818 261.286C399.628 261.128 399.376 261.128 399.218 261.286L392.964 267.667L386.71 261.286C386.615 261.192 386.489 261.16 386.394 261.16C386.268 261.16 386.173 261.192 386.078 261.286C385.92 261.476 385.92 261.76 386.078 261.95V261.95Z" fill="black"/>
<path d="M386.078 211.95L392.648 218.646C392.806 218.804 393.09 218.804 393.248 218.646L399.818 211.95C400.007 211.76 400.007 211.476 399.818 211.286C399.628 211.128 399.376 211.128 399.218 211.286L392.964 217.667L386.71 211.286C386.615 211.192 386.489 211.16 386.394 211.16C386.268 211.16 386.173 211.192 386.078 211.286C385.92 211.476 385.92 211.76 386.078 211.95V211.95Z" fill="black"/>
<path d="M399.818 367.963L393.26 361.278C393.102 361.121 392.818 361.121 392.66 361.278L386.102 367.963C385.913 368.152 385.913 368.436 386.102 368.625C386.291 368.783 386.543 368.783 386.701 368.625L392.976 362.256L399.219 368.625C399.314 368.72 399.408 368.751 399.534 368.751C399.661 368.751 399.755 368.72 399.818 368.625C400.007 368.436 400.007 368.152 399.818 367.963V367.963Z" fill="black"/>
<line x1="126" y1="159.5" x2="426" y2="159.5" stroke="#D3D5D7"/>
<path d="M386.078 311.95L392.648 318.646C392.806 318.804 393.09 318.804 393.248 318.646L399.818 311.95C400.007 311.76 400.007 311.476 399.818 311.286C399.628 311.128 399.376 311.128 399.218 311.286L392.964 317.667L386.71 311.286C386.615 311.192 386.489 311.16 386.394 311.16C386.268 311.16 386.173 311.192 386.078 311.286C385.92 311.476 385.92 311.76 386.078 311.95V311.95Z" fill="black"/>
<path d="M148.132 470.168C149.608 470.168 151.012 469.064 151.012 467.144C151.012 465.2 149.824 464.336 148.36 464.336C147.832 464.336 147.436 464.468 147.04 464.684L147.268 462.14H150.592V461.204H146.308L146.032 465.32L146.62 465.692C147.124 465.356 147.496 465.164 148.084 465.164C149.176 465.164 149.896 465.92 149.896 467.18C149.896 468.452 149.068 469.256 148.024 469.256C147.016 469.256 146.368 468.788 145.876 468.272L145.324 468.992C145.924 469.592 146.764 470.168 148.132 470.168ZM154.992 470.168C156.648 470.168 157.716 468.644 157.716 465.572C157.716 462.524 156.648 461.048 154.992 461.048C153.312 461.048 152.244 462.524 152.244 465.572C152.244 468.644 153.312 470.168 154.992 470.168ZM154.992 469.28C153.984 469.28 153.3 468.164 153.3 465.572C153.3 463.016 153.984 461.924 154.992 461.924C155.988 461.924 156.66 463.016 156.66 465.572C156.66 468.164 155.988 469.28 154.992 469.28Z" fill="#D60C18"/>
<line x1="126.5" y1="474.5" x2="126.5" y2="457.5" stroke="#939EA7" stroke-linecap="square" stroke-dasharray="2 2"/>
<line x1="176.5" y1="474.5" x2="176.5" y2="457.5" stroke="#939EA7" stroke-linecap="square" stroke-dasharray="2 2"/>
<path d="M464.728 170.878V171.858H469.488V170.878H464.728ZM466.576 171.396V178.144H467.626V171.396H466.576ZM464.434 178.452L464.854 179.46C466.226 178.97 468.088 178.312 469.824 177.668L469.656 176.744C467.738 177.402 465.722 178.074 464.434 178.452ZM469.558 169.912V170.822H477.468V169.912H469.558ZM471.224 175.162H475.9V176.52H471.224V175.162ZM471.224 177.304H475.9V178.676H471.224V177.304ZM471.224 173.034H475.9V174.378H471.224V173.034ZM470.244 172.208V179.502H476.936V172.208H470.244ZM472.946 170.36C472.848 171.046 472.624 172.012 472.428 172.656L473.38 172.838C473.618 172.25 473.898 171.34 474.15 170.528L472.946 170.36ZM471.756 179.712C471.056 180.314 469.614 181.014 468.41 181.392C468.62 181.602 468.928 181.924 469.082 182.134C470.314 181.728 471.756 181.014 472.666 180.3L471.756 179.712ZM474.08 180.342C475.046 180.846 476.278 181.63 476.866 182.148L477.706 181.518C477.048 180.986 475.816 180.244 474.878 179.768L474.08 180.342ZM480.926 173.426V174.42H489.032V173.426H480.926ZM480.926 176.744V177.738H489.032V176.744H480.926ZM480.926 180.076V181.098H489.032V180.076H480.926ZM480.198 170.108V182.05H481.248V171.144H488.612V182.05H489.704V170.108H480.198ZM494.618 174.546V175.568H502.626V174.546H494.618ZM502.276 174.546V174.742C502.094 178.9 501.884 180.496 501.506 180.874C501.366 181.028 501.198 181.056 500.918 181.056C500.582 181.056 499.714 181.042 498.79 180.958C498.986 181.266 499.126 181.7 499.14 182.022C500.022 182.064 500.904 182.078 501.366 182.036C501.856 181.994 502.164 181.896 502.444 181.546C502.948 181.014 503.144 179.39 503.34 175.05C503.354 174.91 503.368 174.546 503.368 174.546H502.276ZM497.572 174.826C497.292 177.472 496.732 180.062 493.064 181.28C493.302 181.504 493.61 181.924 493.736 182.19C497.642 180.79 498.37 177.892 498.692 174.826H497.572ZM496.116 169.702C495.444 171.9 494.156 173.776 492.49 174.938C492.742 175.12 493.19 175.498 493.372 175.708C495.024 174.406 496.424 172.39 497.208 169.968L496.116 169.702ZM498.314 169.492V170.472H501.38V169.492H498.314ZM500.372 169.492V170.08H500.666C501.436 172.334 502.962 174.49 504.824 175.68C505.006 175.4 505.356 174.966 505.58 174.742C503.788 173.734 502.276 171.69 501.562 169.492H500.372ZM510.746 176.366C511.11 176.73 511.516 177.234 511.712 177.57L512.328 177.136C512.146 176.828 511.712 176.324 511.362 176.002L510.746 176.366ZM506.672 177.444V178.34H512.804V177.444H506.672ZM506.686 172.348V173.216H512.664V172.348H506.686ZM511.6 169.758C511.418 170.276 511.068 171.046 510.802 171.536L511.502 171.788C511.81 171.34 512.16 170.668 512.482 170.038L511.6 169.758ZM509.276 169.31V175.862H510.2V169.31H509.276ZM506.994 170.038C507.358 170.57 507.68 171.27 507.806 171.732L508.59 171.41C508.464 170.948 508.114 170.262 507.75 169.758L506.994 170.038ZM509.262 179.502C510.158 180.09 511.32 180.944 511.894 181.462L512.482 180.734C511.894 180.23 510.704 179.418 509.836 178.844L509.262 179.502ZM510.984 173.692L510.438 174.098C510.858 174.462 511.894 175.484 512.244 175.918L512.832 175.218C512.552 174.938 511.348 173.93 510.984 173.692ZM508.24 173.636C507.876 174.42 507.148 175.302 506.448 175.708C506.644 175.862 506.938 176.17 507.078 176.394C507.806 175.848 508.534 174.826 508.912 173.888L508.24 173.636ZM512.846 169.912V170.836H519.384V169.912H512.846ZM514.372 175.12H517.83V176.464H514.372V175.12ZM514.372 177.248H517.83V178.634H514.372V177.248ZM514.372 172.992H517.83V174.322H514.372V172.992ZM513.406 172.166V179.46H518.838V172.166H513.406ZM515.464 170.36C515.366 171.018 515.142 171.97 514.946 172.586L515.842 172.768C516.08 172.194 516.36 171.326 516.598 170.514L515.464 170.36ZM514.862 179.754C514.372 180.342 513.336 181.07 512.412 181.462C512.636 181.658 512.944 181.966 513.112 182.162C514.05 181.742 515.128 180.986 515.772 180.286L514.862 179.754ZM516.43 180.3C517.242 180.846 518.292 181.63 518.782 182.148L519.608 181.56C519.048 181.028 518.012 180.286 517.186 179.782L516.43 180.3ZM509.206 176.17V177.556C509.206 178.788 508.954 180.23 506.49 181.266C506.672 181.462 506.938 181.812 507.036 182.036C509.794 180.832 510.13 179.11 510.13 177.584V176.17H509.206Z" fill="black"/>
<path d="M643.038 102.196C643.976 102.196 644.83 101.706 645.544 101.104H645.6L645.712 102H646.762V97.338C646.762 95.448 645.978 94.216 644.116 94.216C642.898 94.216 641.834 94.748 641.134 95.196L641.638 96.092C642.226 95.686 643.024 95.266 643.92 95.266C645.166 95.266 645.474 96.204 645.474 97.184C642.24 97.548 640.812 98.374 640.812 100.026C640.812 101.398 641.764 102.196 643.038 102.196ZM643.388 101.16C642.646 101.16 642.058 100.81 642.058 99.942C642.058 98.962 642.912 98.332 645.474 98.038V100.152C644.746 100.81 644.13 101.16 643.388 101.16ZM650.521 102.196C650.871 102.196 651.067 102.14 651.249 102.084L651.081 101.104C650.927 101.132 650.871 101.132 650.815 101.132C650.619 101.132 650.451 100.978 650.451 100.572V90.87H649.177V100.488C649.177 101.58 649.555 102.196 650.521 102.196ZM653.155 105.206H654.429V102.644L654.401 101.314C655.087 101.874 655.801 102.196 656.487 102.196C658.237 102.196 659.791 100.684 659.791 98.094C659.791 95.742 658.741 94.216 656.767 94.216C655.885 94.216 655.045 94.706 654.359 95.28H654.317L654.191 94.398H653.155V105.206ZM656.291 101.118C655.787 101.118 655.115 100.908 654.429 100.334V96.33C655.171 95.644 655.815 95.28 656.459 95.28C657.901 95.28 658.475 96.414 658.475 98.108C658.475 99.984 657.537 101.118 656.291 101.118ZM661.837 102H663.111V96.484C663.867 95.728 664.413 95.322 665.183 95.322C666.191 95.322 666.625 95.924 666.625 97.352V102H667.913V97.184C667.913 95.252 667.185 94.216 665.589 94.216C664.539 94.216 663.769 94.79 663.069 95.476L663.111 93.908V90.87H661.837V102ZM672.091 102.196C673.029 102.196 673.883 101.706 674.597 101.104H674.653L674.765 102H675.815V97.338C675.815 95.448 675.031 94.216 673.169 94.216C671.951 94.216 670.887 94.748 670.187 95.196L670.691 96.092C671.279 95.686 672.077 95.266 672.973 95.266C674.219 95.266 674.527 96.204 674.527 97.184C671.293 97.548 669.865 98.374 669.865 100.026C669.865 101.398 670.817 102.196 672.091 102.196ZM672.441 101.16C671.699 101.16 671.111 100.81 671.111 99.942C671.111 98.962 671.965 98.332 674.527 98.038V100.152C673.799 100.81 673.183 101.16 672.441 101.16ZM684.818 102H686.022V92.032H684.608L680.338 98.402V99.242H687.394V98.234H681.682L684.02 94.804C684.3 94.314 684.58 93.866 684.832 93.404H684.902C684.86 93.922 684.818 94.79 684.818 95.308V102ZM691.73 102.196C693.704 102.196 694.908 100.334 694.908 96.988C694.908 93.642 693.704 91.85 691.73 91.85C689.728 91.85 688.524 93.642 688.524 96.988C688.524 100.334 689.728 102.196 691.73 102.196ZM691.73 101.16C690.554 101.16 689.756 99.914 689.756 96.988C689.756 94.048 690.554 92.872 691.73 92.872C692.892 92.872 693.676 94.048 693.676 96.988C693.676 99.914 692.892 101.16 691.73 101.16ZM698.474 98.024C699.888 98.024 700.812 96.848 700.812 94.776C700.812 92.718 699.888 91.556 698.474 91.556C697.06 91.556 696.136 92.718 696.136 94.776C696.136 96.848 697.06 98.024 698.474 98.024ZM698.474 97.24C697.662 97.24 697.102 96.4 697.102 94.776C697.102 93.138 697.662 92.34 698.474 92.34C699.286 92.34 699.832 93.138 699.832 94.776C699.832 96.4 699.286 97.24 698.474 97.24ZM698.768 102.196H699.636L705.292 91.556H704.424L698.768 102.196ZM705.628 102.196C707.014 102.196 707.952 101.02 707.952 98.934C707.952 96.89 707.014 95.714 705.628 95.714C704.214 95.714 703.29 96.89 703.29 98.934C703.29 101.02 704.214 102.196 705.628 102.196ZM705.628 101.412C704.816 101.412 704.256 100.572 704.256 98.934C704.256 97.296 704.816 96.512 705.628 96.512C706.426 96.512 706.986 97.296 706.986 98.934C706.986 100.572 706.426 101.412 705.628 101.412ZM647.392 116.904V123.12H648.358V117.87H651.886V123.064H652.894V116.904H647.392ZM649.422 110.268V117.212H650.458V110.268H649.422ZM650.024 113.306V114.286H653.454V113.306H650.024ZM647.896 121.496V122.462H652.376V121.496H647.896ZM641.904 111.528H645.754V114.916H641.904V111.528ZM641.078 110.758V115.686H646.608V110.758H641.078ZM642.1 112.214C642.338 112.9 642.52 113.782 642.548 114.37L643.094 114.202C643.052 113.642 642.87 112.76 642.632 112.074L642.1 112.214ZM642.618 120.306C642.772 121.076 642.842 122.098 642.8 122.742L643.542 122.658C643.556 122 643.486 120.992 643.318 120.236L642.618 120.306ZM644.06 120.292C644.34 121.02 644.592 121.958 644.662 122.574L645.376 122.42C645.292 121.804 645.026 120.88 644.732 120.166L644.06 120.292ZM645.488 120.278C645.88 120.964 646.258 121.888 646.398 122.49L647.112 122.224C646.972 121.608 646.58 120.712 646.174 120.04L645.488 120.278ZM641.372 120.04C641.218 120.894 640.91 121.972 640.462 122.63L641.232 122.966C641.666 122.294 641.932 121.174 642.1 120.292L641.372 120.04ZM644.97 112.032C644.844 112.676 644.564 113.67 644.354 114.272L644.816 114.454C645.054 113.894 645.334 112.984 645.586 112.27L644.97 112.032ZM640.98 116.638V117.492H646.706V116.638H640.98ZM643.43 111.122V115.322H643.318V118.934H644.256V115.322H644.144V111.122H643.43ZM640.728 118.598V119.438H646.874V118.598H640.728ZM664.626 110.688V112.13C664.626 113.012 664.808 113.334 665.662 113.334C665.844 113.334 666.488 113.334 666.684 113.334C666.936 113.334 667.23 113.334 667.398 113.264C667.356 113.054 667.328 112.718 667.314 112.48C667.132 112.522 666.838 112.536 666.656 112.536C666.502 112.536 665.914 112.536 665.774 112.536C665.578 112.536 665.55 112.438 665.55 112.144V110.688H664.626ZM655.722 118.878V119.606H666.04V118.878H655.722ZM654.532 120.334V121.076H667.468V120.334H654.532ZM660.468 117.632V122.07C660.468 122.266 660.398 122.322 660.174 122.336C659.95 122.35 659.138 122.35 658.312 122.322C658.438 122.56 658.592 122.896 658.648 123.134C659.796 123.134 660.496 123.134 660.93 123.008C661.364 122.868 661.518 122.644 661.518 122.098V117.632H660.468ZM665.55 117.1C663.296 117.45 658.802 117.59 655.232 117.548C655.302 117.716 655.386 118.024 655.4 118.206C659.054 118.276 663.576 118.122 666.292 117.674L665.55 117.1ZM654.868 110.94V111.57H660.902V110.94H654.868ZM654.644 114.916V115.518H661V114.916H654.644ZM656.072 113.474H659.684V113.978H656.072V113.474ZM656.072 112.522H659.684V112.998H656.072V112.522ZM655.316 112.032V114.468H660.454V112.032H655.316ZM657.416 110.254V116.778H658.27V110.254H657.416ZM661.574 113.698V114.426H665.746V113.698H661.574ZM662.484 110.688V111.444H665.116V110.688H662.484ZM665.494 113.698V113.81C664.794 115.434 662.792 116.246 660.622 116.554C660.762 116.722 660.93 117.058 661.014 117.268C663.408 116.848 665.508 115.91 666.376 113.852L665.858 113.656L665.676 113.698H665.494ZM662.568 114.356L661.784 114.608C662.75 116.078 664.682 117.002 666.992 117.366C667.104 117.128 667.342 116.778 667.538 116.596C665.312 116.344 663.408 115.574 662.568 114.356ZM661.924 110.688V111.486C661.924 112.06 661.7 112.592 660.356 113.026C660.524 113.166 660.846 113.516 660.972 113.712C662.47 113.166 662.834 112.34 662.834 111.514V110.688H661.924ZM655.344 115.686V117.072H660.468V115.686H659.67V116.456H656.114V115.686H655.344ZM672.732 114.566V115.588H675.42V114.566H672.732ZM672.354 110.254V121.608L673.446 121.468V110.254H672.354ZM669.75 113.082V122L670.786 121.86V113.082H669.75ZM668.616 121.818L668.798 122.938C670.562 122.602 673.11 122.14 675.504 121.692L675.42 120.642C672.942 121.09 670.31 121.552 668.616 121.818ZM676.12 110.254V120.726C676.12 122.266 676.498 122.658 677.8 122.658C678.066 122.658 679.634 122.658 679.928 122.658C681.188 122.658 681.468 121.874 681.608 119.606C681.3 119.536 680.866 119.34 680.586 119.13C680.516 121.118 680.418 121.636 679.844 121.636C679.494 121.636 678.206 121.636 677.926 121.636C677.338 121.636 677.24 121.496 677.24 120.754V110.254H676.12ZM676.862 114.566V115.588H680.67V114.566H676.862ZM688.048 113.502H691.268V115.112H688.048V113.502ZM687.068 112.746V115.868H692.304V112.746H687.068ZM686.424 117.59H688.286V119.662H686.424V117.59ZM685.528 116.82V120.432H689.21V116.82H685.528ZM691.058 117.59H693.018V119.662H691.058V117.59ZM690.162 116.82V120.432H693.942V116.82H690.162ZM682.812 110.898V111.836H694.628V110.898H682.812ZM683.4 110.968V119.718C683.4 121.776 684.436 122.476 686.592 122.476C687.11 122.476 691.8 122.476 692.794 122.476C693.886 122.476 694.95 122.448 695.328 122.35C695.272 122.112 695.202 121.622 695.16 121.342C694.656 121.44 693.578 121.496 692.822 121.496C691.828 121.496 687.39 121.496 686.48 121.496C684.968 121.496 684.422 120.992 684.422 119.802V110.968H683.4ZM696.588 113.67V114.664H700.34V113.67H696.588ZM698.072 110.408V119.788H699.052V110.408H698.072ZM696.49 120.194L696.896 121.244C698.002 120.698 699.36 119.998 700.648 119.34L700.368 118.402C698.94 119.102 697.47 119.788 696.49 120.194ZM700.564 112.326V113.278H709.272V112.326H700.564ZM700.102 120.572L700.382 121.566C701.726 121.188 703.49 120.684 705.184 120.194L705.072 119.298C703.252 119.788 701.348 120.292 700.102 120.572ZM705.254 110.254C705.31 117.1 705.898 123.12 708.11 123.12C708.992 123.12 709.286 122.518 709.44 120.656C709.216 120.544 708.894 120.334 708.684 120.096C708.642 121.552 708.502 122.112 708.236 122.112C707.032 122.112 706.22 116.876 706.276 110.254H705.254ZM706.822 110.8C707.438 111.248 708.152 111.892 708.516 112.326L709.146 111.724C708.796 111.304 708.04 110.688 707.438 110.282L706.822 110.8ZM708.054 114.608C707.2 118.024 705.576 120.712 703.056 122.308C703.28 122.476 703.672 122.826 703.826 123.008C706.346 121.23 708.04 118.444 709.02 114.79L708.054 114.608ZM701.81 115.462H703.63V117.814H701.81V115.462ZM700.984 114.608V118.682H704.484V114.608H700.984ZM720.444 111.556V121.594C720.444 121.888 720.346 121.986 720.038 122C719.702 122.014 718.568 122.028 717.434 121.972C717.602 122.28 717.812 122.798 717.882 123.106C719.268 123.106 720.248 123.092 720.808 122.91C721.354 122.742 721.536 122.378 721.536 121.622V111.556H720.444ZM712.212 114.356V120.698H713.234V114.356H712.212ZM712.646 114.356V115.35H716.902V118.57H712.646V119.578H717.952V114.356H712.646ZM710.77 111.234V112.298H723.258V111.234H710.77ZM731.686 112.97V113.964H737.37V112.97H731.686ZM732.078 110.24C731.672 112.69 730.93 114.972 729.726 116.4C729.95 116.596 730.328 117.058 730.482 117.282C731.798 115.63 732.666 113.138 733.142 110.422L732.078 110.24ZM735.354 113.474C734.696 117.842 733.226 120.698 729.964 122.28C730.188 122.49 730.51 122.924 730.636 123.148C734.024 121.314 735.606 118.304 736.39 113.614L735.354 113.474ZM732.078 113.852L731.21 114.048C732.148 118.094 733.87 121.482 736.754 123.064C736.922 122.798 737.258 122.42 737.496 122.21C734.682 120.824 732.932 117.576 732.078 113.852ZM728.522 110.45V123.134H729.572V110.45H728.522ZM725.288 120.6C725.582 120.376 726.03 120.138 729.264 118.99C729.18 118.766 729.054 118.36 729.012 118.08L725.652 119.172L725.176 119.606L725.288 120.6ZM725.288 120.6C725.288 120.222 726.366 119.634 726.366 119.634V111.808H725.344V118.696C725.344 119.242 725.05 119.522 724.854 119.648C725.008 119.872 725.204 120.348 725.288 120.6ZM741.472 114.818V115.798H748.542V114.818H741.472ZM741.22 121.328V122.322H748.724V121.328H741.22ZM740.744 117.478V123.092H741.794V118.43H748.332V123.05H749.438V117.478H740.744ZM745.224 110.212C743.796 112.382 741.22 114.244 738.546 115.294C738.84 115.546 739.134 115.938 739.316 116.218C742.018 115.028 744.594 113.012 746.148 110.674L745.224 110.212ZM745.434 111.024L744.538 111.486C746.4 113.614 748.43 114.944 750.824 116.092C750.978 115.77 751.286 115.378 751.552 115.14C749.2 114.146 747.142 112.914 745.434 111.024Z" fill="black"/>
<path d="M447.372 209.662V220.12H448.408V210.698H458.026V209.662H447.372ZM457.634 209.662V218.72C457.634 218.986 457.564 219.056 457.284 219.07C456.99 219.084 456.024 219.084 455.002 219.042C455.17 219.336 455.324 219.826 455.38 220.134C456.654 220.134 457.536 220.106 458.04 219.938C458.53 219.77 458.684 219.42 458.684 218.734V209.662H457.634ZM452.132 207.212C451.894 208.066 451.432 209.284 451.04 210.068L452.048 210.306C452.468 209.564 453 208.43 453.434 207.436L452.132 207.212ZM450.256 212.546V218.188H451.222V212.546H450.256ZM450.704 212.546V213.498H454.764V216.242H450.704V217.18H455.744V212.546H450.704ZM460.77 208.276V209.34H473.23V208.276H460.77ZM466.16 209.116V220.106H467.266V209.116H466.16ZM466.776 212.434C468.47 213.302 470.654 214.632 471.732 215.5L472.474 214.548C471.354 213.708 469.142 212.434 467.462 211.622L466.776 212.434ZM477.486 212.602V213.512H486.74V212.602H477.486ZM477.094 214.982V215.892H487.3V214.982H477.094ZM479.586 211.314V215.5H480.566V211.314H479.586ZM483.38 211.314V215.458H484.374V211.314H483.38ZM475.96 207.926V212.028C475.96 214.268 475.834 217.39 474.434 219.602C474.686 219.7 475.162 219.98 475.358 220.134C476.814 217.852 477.024 214.408 477.024 212.028V207.926H475.96ZM476.59 207.926V208.836H485.396V210.264H476.59V211.188H486.446V207.926H476.59ZM482.288 215.332L481.406 215.542C482.33 217.908 484.164 219.476 486.81 220.134C486.95 219.868 487.23 219.476 487.454 219.266C484.906 218.762 483.086 217.362 482.288 215.332ZM485.76 215.976C485.144 216.48 484.066 217.18 483.296 217.6L483.968 218.118C484.766 217.712 485.788 217.124 486.544 216.522L485.76 215.976ZM478.368 220.134C478.648 219.966 479.068 219.84 482.596 218.972C482.582 218.762 482.61 218.37 482.638 218.09L478.788 218.944L478.326 219.322L478.368 220.134ZM478.368 220.134C478.368 219.742 479.628 219 479.628 219V215.444L478.634 215.416V218.174C478.634 218.79 478.2 219.112 477.948 219.252C478.102 219.462 478.312 219.896 478.368 220.134ZM491.514 213.442V214.31H498.458V213.442H491.514ZM491.248 215.836V216.732H498.752V215.836H491.248ZM495.91 213.722V219.868H496.862V213.722H495.91ZM493.04 213.764V216.312C493.04 217.082 492.746 218.566 491.332 219.434C491.57 219.574 491.892 219.868 492.032 220.064C493.614 219 493.95 217.166 493.95 216.312V213.764H493.04ZM489.778 209.788V210.544H493.712V209.788H489.778ZM496.232 209.788V210.544H500.194V209.788H496.232ZM499.788 207.842V218.762C499.788 218.972 499.718 219.056 499.494 219.056C499.27 219.07 498.514 219.07 497.744 219.042C497.898 219.336 498.038 219.826 498.08 220.106C499.144 220.106 499.844 220.092 500.264 219.91C500.684 219.728 500.824 219.392 500.824 218.762V207.842H499.788ZM489.862 207.842V208.654H493.362V211.762H489.862V212.56H494.356V207.842H489.862ZM500.292 207.842H495.588V212.574H500.292V211.776H496.596V208.654H500.292V207.842ZM489.232 207.842V220.134H490.268V207.842H489.232Z" fill="black"/>
<path d="M447.372 361.662V372.12H448.408V362.698H458.026V361.662H447.372ZM457.634 361.662V370.72C457.634 370.986 457.564 371.056 457.284 371.07C456.99 371.084 456.024 371.084 455.002 371.042C455.17 371.336 455.324 371.826 455.38 372.134C456.654 372.134 457.536 372.106 458.04 371.938C458.53 371.77 458.684 371.42 458.684 370.734V361.662H457.634ZM452.132 359.212C451.894 360.066 451.432 361.284 451.04 362.068L452.048 362.306C452.468 361.564 453 360.43 453.434 359.436L452.132 359.212ZM450.256 364.546V370.188H451.222V364.546H450.256ZM450.704 364.546V365.498H454.764V368.242H450.704V369.18H455.744V364.546H450.704ZM466.58 363.776V364.826H472.334V363.776H466.58ZM460.714 370.412V371.462H473.286V370.412H460.714ZM465.978 359.45V370.972H467.084V359.45H465.978ZM481.686 361.97V362.964H487.37V361.97H481.686ZM482.078 359.24C481.672 361.69 480.93 363.972 479.726 365.4C479.95 365.596 480.328 366.058 480.482 366.282C481.798 364.63 482.666 362.138 483.142 359.422L482.078 359.24ZM485.354 362.474C484.696 366.842 483.226 369.698 479.964 371.28C480.188 371.49 480.51 371.924 480.636 372.148C484.024 370.314 485.606 367.304 486.39 362.614L485.354 362.474ZM482.078 362.852L481.21 363.048C482.148 367.094 483.87 370.482 486.754 372.064C486.922 371.798 487.258 371.42 487.496 371.21C484.682 369.824 482.932 366.576 482.078 362.852ZM478.522 359.45V372.134H479.572V359.45H478.522ZM475.288 369.6C475.582 369.376 476.03 369.138 479.264 367.99C479.18 367.766 479.054 367.36 479.012 367.08L475.652 368.172L475.176 368.606L475.288 369.6ZM475.288 369.6C475.288 369.222 476.366 368.634 476.366 368.634V360.808H475.344V367.696C475.344 368.242 475.05 368.522 474.854 368.648C475.008 368.872 475.204 369.348 475.288 369.6ZM491.472 363.818V364.798H498.542V363.818H491.472ZM491.22 370.328V371.322H498.724V370.328H491.22ZM490.744 366.478V372.092H491.794V367.43H498.332V372.05H499.438V366.478H490.744ZM495.224 359.212C493.796 361.382 491.22 363.244 488.546 364.294C488.84 364.546 489.134 364.938 489.316 365.218C492.018 364.028 494.594 362.012 496.148 359.674L495.224 359.212ZM495.434 360.024L494.538 360.486C496.4 362.614 498.43 363.944 500.824 365.092C500.978 364.77 501.286 364.378 501.552 364.14C499.2 363.146 497.142 361.914 495.434 360.024Z" fill="black"/>
<line x1="426" y1="175.75" x2="461" y2="175.75" stroke="#D60C18" stroke-width="0.5"/>
<line x1="602" y1="96.75" x2="637" y2="96.75" stroke="#D60C18" stroke-width="0.5"/>
<line x1="407" y1="214.75" x2="442" y2="214.75" stroke="#D60C18" stroke-width="0.5"/>
<line x1="407" y1="365.75" x2="442" y2="365.75" stroke="#D60C18" stroke-width="0.5"/>
<path d="M50.71 361.926V362.892H58.158V361.926H50.71ZM49.422 370.844V371.824H59.81V370.844H49.422ZM47.798 366.322V367.302H60.202V366.322H47.798ZM57.822 361.926V362.192C57.542 369.528 57.206 372.328 56.646 372.93C56.478 373.154 56.31 373.196 56.03 373.196C55.666 373.196 54.91 373.182 54.028 373.112C54.182 373.378 54.294 373.784 54.322 374.064C55.106 374.106 55.946 374.134 56.436 374.092C56.954 374.036 57.276 373.896 57.612 373.434C58.256 372.664 58.55 370.13 58.872 362.528C58.872 362.374 58.872 361.926 58.872 361.926H57.822ZM50.164 361.926C49.828 365.02 49.17 369.332 48.652 371.824H49.772C50.234 369.402 50.864 365.104 51.256 361.926H50.164ZM52.516 364.082C53.496 364.586 54.686 365.342 55.26 365.916L55.904 365.202C55.302 364.642 54.112 363.9 53.132 363.438L52.516 364.082ZM51.97 368.464C53.062 369.024 54.336 369.906 54.938 370.564L55.638 369.864C55.008 369.192 53.72 368.352 52.642 367.834L51.97 368.464ZM61.728 362.878V363.858H66.488V362.878H61.728ZM63.576 363.396V370.144H64.626V363.396H63.576ZM61.434 370.452L61.854 371.46C63.226 370.97 65.088 370.312 66.824 369.668L66.656 368.744C64.738 369.402 62.722 370.074 61.434 370.452ZM66.558 361.912V362.822H74.468V361.912H66.558ZM68.224 367.162H72.9V368.52H68.224V367.162ZM68.224 369.304H72.9V370.676H68.224V369.304ZM68.224 365.034H72.9V366.378H68.224V365.034ZM67.244 364.208V371.502H73.936V364.208H67.244ZM69.946 362.36C69.848 363.046 69.624 364.012 69.428 364.656L70.38 364.838C70.618 364.25 70.898 363.34 71.15 362.528L69.946 362.36ZM68.756 371.712C68.056 372.314 66.614 373.014 65.41 373.392C65.62 373.602 65.928 373.924 66.082 374.134C67.314 373.728 68.756 373.014 69.666 372.3L68.756 371.712ZM71.08 372.342C72.046 372.846 73.278 373.63 73.866 374.148L74.706 373.518C74.048 372.986 72.816 372.244 71.878 371.768L71.08 372.342ZM77.926 365.426V366.42H86.032V365.426H77.926ZM77.926 368.744V369.738H86.032V368.744H77.926ZM77.926 372.076V373.098H86.032V372.076H77.926ZM77.198 362.108V374.05H78.248V363.144H85.612V374.05H86.704V362.108H77.198Z" fill="black"/>
<line x1="91" y1="367.75" x2="149" y2="367.75" stroke="#D60C18" stroke-width="0.5"/>
<path d="M47.7 517.47V518.52H60.342V517.47H47.7ZM49.1 512.192V513.228H58.242V512.192H49.1ZM57.906 512.192V512.43C56.996 513.41 55.064 514.726 53.496 515.44C53.706 515.622 54.042 515.958 54.196 516.196C55.876 515.384 57.906 514.012 59.208 512.738L58.424 512.136L58.172 512.192H57.906ZM53.496 515.44V522.734C53.496 522.972 53.412 523.042 53.118 523.056C52.81 523.07 51.774 523.084 50.64 523.042C50.822 523.35 51.018 523.812 51.088 524.12C52.446 524.12 53.342 524.106 53.874 523.924C54.42 523.77 54.588 523.448 54.588 522.748V515.44H53.496ZM61.728 512.878V513.858H66.488V512.878H61.728ZM63.576 513.396V520.144H64.626V513.396H63.576ZM61.434 520.452L61.854 521.46C63.226 520.97 65.088 520.312 66.824 519.668L66.656 518.744C64.738 519.402 62.722 520.074 61.434 520.452ZM66.558 511.912V512.822H74.468V511.912H66.558ZM68.224 517.162H72.9V518.52H68.224V517.162ZM68.224 519.304H72.9V520.676H68.224V519.304ZM68.224 515.034H72.9V516.378H68.224V515.034ZM67.244 514.208V521.502H73.936V514.208H67.244ZM69.946 512.36C69.848 513.046 69.624 514.012 69.428 514.656L70.38 514.838C70.618 514.25 70.898 513.34 71.15 512.528L69.946 512.36ZM68.756 521.712C68.056 522.314 66.614 523.014 65.41 523.392C65.62 523.602 65.928 523.924 66.082 524.134C67.314 523.728 68.756 523.014 69.666 522.3L68.756 521.712ZM71.08 522.342C72.046 522.846 73.278 523.63 73.866 524.148L74.706 523.518C74.048 522.986 72.816 522.244 71.878 521.768L71.08 522.342ZM77.926 515.426V516.42H86.032V515.426H77.926ZM77.926 518.744V519.738H86.032V518.744H77.926ZM77.926 522.076V523.098H86.032V522.076H77.926ZM77.198 512.108V524.05H78.248V513.144H85.612V524.05H86.704V512.108H77.198Z" fill="black"/>
<line x1="91" y1="517.75" x2="149" y2="517.75" stroke="#D60C18" stroke-width="0.5"/>
</svg>
