<svg width="385" height="164" viewBox="0 0 385 164" fill="none" xmlns="http://www.w3.org/2000/svg">
<rect x="93" y="40" width="208" height="84" fill="#4A545C"/>
<path d="M130.488 75.592C129.944 77.112 129 78.568 127.912 79.528C128.184 79.688 128.632 80.072 128.808 80.28C129.928 79.208 130.968 77.576 131.592 75.864L130.488 75.592ZM130.456 79.992C130.024 81.112 129.288 82.216 128.44 82.968C128.696 83.144 129.16 83.48 129.336 83.672C130.184 82.84 131.048 81.56 131.576 80.296L130.456 79.992ZM130.296 77.08L129.88 78.12H137.24V77.08H130.296ZM134.904 80.408C135.672 81.416 136.52 82.792 136.872 83.688L137.896 83.144C137.528 82.264 136.68 80.936 135.864 79.96L134.904 80.408ZM136.888 77.08V77.24C136.6 78.056 136.136 79.064 135.768 79.688L136.808 79.912C137.192 79.256 137.704 78.168 138.104 77.24L137.288 77.032L137.08 77.08H136.888ZM127.384 75.528C126.488 77.304 125.032 79.08 123.544 80.2C123.784 80.424 124.184 80.904 124.344 81.144C125.864 79.864 127.448 77.88 128.472 75.88L127.384 75.528ZM125.896 78.568V84.712H127.048V77.448L127.032 77.432L125.896 78.568ZM127.192 85.56V88.344C127.192 89.656 127.688 89.992 129.592 89.992C129.992 89.992 133.016 89.992 133.432 89.992C135.016 89.992 135.416 89.496 135.576 87.464C135.24 87.4 134.744 87.224 134.472 87.016C134.376 88.648 134.232 88.872 133.352 88.872C132.68 88.872 130.152 88.872 129.64 88.872C128.584 88.872 128.392 88.792 128.392 88.328V85.56H127.192ZM129.624 84.856C130.488 85.704 131.48 86.904 131.896 87.688L132.888 87.096C132.44 86.296 131.432 85.144 130.536 84.328L129.624 84.856ZM135.272 85.784C136.008 86.92 136.728 88.472 136.968 89.448L138.12 88.984C137.848 87.992 137.096 86.504 136.344 85.368L135.272 85.784ZM125.384 85.64C125.016 86.712 124.408 88.168 123.752 89.112L124.888 89.64C125.48 88.664 126.056 87.144 126.456 86.088L125.384 85.64ZM132.84 78.728V84.664H133.992V78.728H132.84ZM141.32 79.336V87.368C141.32 89.368 142.136 89.832 144.744 89.832C145.336 89.832 150.104 89.832 150.76 89.832C153.4 89.832 153.912 88.968 154.232 86.008C153.864 85.944 153.336 85.736 153 85.512C152.792 88.104 152.52 88.648 150.76 88.648C149.688 88.648 145.512 88.648 144.664 88.648C142.904 88.648 142.552 88.408 142.552 87.4V79.336H141.32ZM141.992 81.96V83.16H151.432V81.96H141.992ZM140.488 76.568V77.752H150.952V83.944H152.184V76.568H140.488ZM156.456 80.408V81.368H161.368V80.408H156.456ZM156.456 82.504V83.464H161.352V82.504H156.456ZM155.752 78.28V79.288H161.864V78.28H155.752ZM157 84.648V85.656H160.232V88.312H157V89.32H161.304V84.648H157ZM156.456 84.648V90.072H157.512V84.648H156.456ZM157.544 75.976C157.976 76.632 158.504 77.544 158.744 78.136L159.72 77.56C159.464 77 158.952 76.152 158.488 75.496L157.544 75.976ZM162.184 76.92V78.088H170.376V76.92H162.184ZM166.696 77.256V88.472C166.696 88.776 166.584 88.872 166.264 88.888C165.912 88.92 164.712 88.92 163.48 88.872C163.688 89.208 163.896 89.784 163.976 90.12C165.528 90.12 166.536 90.104 167.128 89.896C167.704 89.704 167.896 89.304 167.896 88.488V77.256H166.696ZM176.888 84.104H180.84V85.608H176.888V84.104ZM175.912 83.32V86.392H181.864V83.32H175.912ZM179.368 86.008V88.232C179.368 89.208 179.624 89.48 180.648 89.48C180.856 89.48 181.832 89.48 182.04 89.48C182.808 89.48 183.096 89.144 183.192 87.784C182.904 87.72 182.488 87.576 182.296 87.416C182.264 88.456 182.184 88.584 181.896 88.584C181.704 88.584 180.936 88.584 180.776 88.584C180.44 88.584 180.408 88.536 180.408 88.232V86.008H179.368ZM177.064 86.232C176.872 87.608 176.248 88.424 174.312 88.888C174.52 89.064 174.808 89.464 174.92 89.72C177.096 89.08 177.832 88.008 178.072 86.232H177.064ZM177.256 81.096C176.648 81.976 175.32 82.92 174.12 83.48C174.328 83.64 174.664 83.928 174.84 84.12C176.088 83.496 177.448 82.456 178.248 81.416L177.256 81.096ZM172.984 78.04V78.824H177.48V78.04H172.984ZM180.312 78.072V78.856H184.92V78.072H180.312ZM184.52 76.2V88.744C184.52 88.952 184.456 89.016 184.248 89.032C184.056 89.032 183.4 89.032 182.728 89.016C182.888 89.32 183.032 89.816 183.08 90.12C184.04 90.12 184.728 90.088 185.128 89.912C185.544 89.704 185.672 89.384 185.672 88.744V76.2H184.52ZM173.08 76.184V77.032H177.096V79.88H173.08V80.728H178.232V76.184H173.08ZM185.08 76.2H179.656V80.728H185.08V79.88H180.792V77.048H185.08V76.2ZM172.36 76.184V90.28H173.496V76.184H172.36ZM179.48 81.624C180.68 82.36 182.12 83.448 182.824 84.184L183.528 83.608C182.792 82.872 181.336 81.816 180.152 81.112L179.48 81.624ZM199.234 82.328L198.13 82.616C199.346 86.392 201.618 89.048 205.218 90.248C205.394 89.912 205.746 89.416 206.034 89.16C202.562 88.168 200.29 85.688 199.234 82.328ZM192.194 76.808V78.024H204.882V76.808H192.194ZM191.634 81.72V82.952H205.57V81.72H191.634ZM197.842 77.224V79.912C197.842 82.84 197.298 86.792 191.234 89.256C191.49 89.496 191.858 89.96 192.018 90.264C198.45 87.592 199.09 83.24 199.09 79.928V77.224H197.842ZM207.458 76.744V77.96H221.698V76.744H207.458ZM213.618 77.704V90.264H214.882V77.704H213.618ZM214.322 81.496C216.258 82.488 218.754 84.008 219.986 85L220.834 83.912C219.554 82.952 217.026 81.496 215.106 80.568L214.322 81.496ZM225.762 85.16V85.976H235.346V85.16H225.762ZM225.794 83.192V84.056H234.85V87.08H225.794V87.96H236.034V83.192H225.794ZM229.89 83.624V88.44C229.89 89.752 230.402 90.072 232.194 90.072C232.594 90.072 235.49 90.072 235.906 90.072C237.426 90.072 237.794 89.56 237.97 87.624C237.634 87.56 237.186 87.4 236.914 87.208C236.834 88.824 236.69 89.096 235.826 89.096C235.202 89.096 232.738 89.096 232.258 89.096C231.234 89.096 231.042 89 231.042 88.44V83.624H229.89ZM225.17 83.192V88.792H226.322V83.192H225.17ZM224.482 76.2V77.064H236.626V76.2H224.482ZM229.922 76.424V82.584H231.106V76.424H229.922ZM223.778 78.088V81.528H224.93V78.936H236.178V81.528H237.378V78.088H223.778ZM225.218 81.72L225.586 82.648C226.626 82.44 227.842 82.2 229.074 81.944L229.042 81.176C227.618 81.4 226.242 81.608 225.218 81.72ZM225.634 79.896C226.674 80.104 228.018 80.52 228.738 80.824L229.09 80.104C228.37 79.784 227.01 79.432 225.986 79.256L225.634 79.896ZM235.026 79.176C234.242 79.464 232.898 79.944 231.97 80.152L232.402 80.776C233.33 80.584 234.642 80.248 235.554 79.864L235.026 79.176ZM231.778 81.832C233.026 82.008 234.658 82.392 235.538 82.696L235.81 81.88C234.914 81.576 233.298 81.224 232.066 81.096L231.778 81.832ZM239.378 82.68V83.88H253.826V82.68H239.378ZM240.978 76.648V77.832H251.426V76.648H240.978ZM251.042 76.648V76.92C250.002 78.04 247.794 79.544 246.002 80.36C246.242 80.568 246.626 80.952 246.802 81.224C248.722 80.296 251.042 78.728 252.53 77.272L251.634 76.584L251.346 76.648H251.042ZM246.002 80.36V88.696C246.002 88.968 245.906 89.048 245.57 89.064C245.218 89.08 244.034 89.096 242.738 89.048C242.946 89.4 243.17 89.928 243.25 90.28C244.802 90.28 245.826 90.264 246.434 90.056C247.058 89.88 247.25 89.512 247.25 88.712V80.36H246.002ZM263.474 81.752V82.744H268.706V81.752H263.474ZM262.898 76.312V90.264H264.002V77.384H268.594V76.312H262.898ZM268.018 76.312V79.384C268.018 79.56 267.954 79.624 267.698 79.64C267.442 79.656 266.61 79.656 265.618 79.624C265.778 79.928 265.938 80.36 265.986 80.68C267.218 80.68 268.018 80.664 268.514 80.488C269.01 80.312 269.138 79.992 269.138 79.4V76.312H268.018ZM265.026 82.296L264.082 82.552C265.026 85.864 266.802 88.792 269.282 90.184C269.474 89.88 269.842 89.432 270.114 89.208C267.698 88.024 265.89 85.304 265.026 82.296ZM268.338 81.752V82.008C267.826 84.952 266.226 87.944 263.73 89.496C264.002 89.704 264.354 90.04 264.53 90.312C267.202 88.584 268.866 85.432 269.506 81.96L268.77 81.688L268.562 81.752H268.338ZM255.81 77.208V78.248H261.89V77.208H255.81ZM255.314 85.976V87.016H262.306V85.976H255.314ZM255.33 79.848V80.904H262.274V79.848H255.33ZM255.666 83.176V84.216H262.002V83.176H255.666ZM258.322 75.592V80.216H259.442V75.592H258.322ZM258.322 83.592V90.232H259.442V83.592H258.322ZM260.418 80.904C260.146 81.672 259.586 82.776 259.122 83.464L260.018 83.736C260.482 83.08 261.01 82.072 261.474 81.176L260.418 80.904ZM256.402 81.224C256.738 81.848 257.074 82.68 257.17 83.208L258.114 82.888C258.002 82.376 257.65 81.56 257.298 80.952L256.402 81.224Z" fill="white"/>
<path d="M135.156 60.168C136.728 60.168 137.988 59.22 137.988 57.66C137.988 56.448 137.148 55.668 136.116 55.416V55.368C137.052 55.032 137.676 54.324 137.676 53.256C137.676 51.852 136.596 51.048 135.12 51.048C134.112 51.048 133.332 51.492 132.672 52.092L133.26 52.8C133.752 52.296 134.376 51.936 135.084 51.936C135.996 51.936 136.56 52.488 136.56 53.328C136.56 54.288 135.948 55.008 134.136 55.008V55.86C136.164 55.86 136.872 56.556 136.872 57.612C136.872 58.62 136.128 59.256 135.084 59.256C134.076 59.256 133.416 58.776 132.9 58.236L132.348 58.956C132.924 59.592 133.776 60.168 135.156 60.168ZM141.992 60.168C143.648 60.168 144.716 58.644 144.716 55.572C144.716 52.524 143.648 51.048 141.992 51.048C140.312 51.048 139.244 52.524 139.244 55.572C139.244 58.644 140.312 60.168 141.992 60.168ZM141.992 59.28C140.984 59.28 140.3 58.164 140.3 55.572C140.3 53.016 140.984 51.924 141.992 51.924C142.988 51.924 143.66 53.016 143.66 55.572C143.66 58.164 142.988 59.28 141.992 59.28Z" fill="#D60C18"/>
<line x1="147.5" y1="40.5" x2="130.5" y2="40.5" stroke="#939EA7" stroke-linecap="square" stroke-dasharray="2 2"/>
<line x1="147.5" y1="70.5" x2="130.5" y2="70.5" stroke="#939EA7" stroke-linecap="square" stroke-dasharray="2 2"/>
<path d="M105.156 88.168C106.728 88.168 107.988 87.22 107.988 85.66C107.988 84.448 107.148 83.668 106.116 83.416V83.368C107.052 83.032 107.676 82.324 107.676 81.256C107.676 79.852 106.596 79.048 105.12 79.048C104.112 79.048 103.332 79.492 102.672 80.092L103.26 80.8C103.752 80.296 104.376 79.936 105.084 79.936C105.996 79.936 106.56 80.488 106.56 81.328C106.56 82.288 105.948 83.008 104.136 83.008V83.86C106.164 83.86 106.872 84.556 106.872 85.612C106.872 86.62 106.128 87.256 105.084 87.256C104.076 87.256 103.416 86.776 102.9 86.236L102.348 86.956C102.924 87.592 103.776 88.168 105.156 88.168ZM111.992 88.168C113.648 88.168 114.716 86.644 114.716 83.572C114.716 80.524 113.648 79.048 111.992 79.048C110.312 79.048 109.244 80.524 109.244 83.572C109.244 86.644 110.312 88.168 111.992 88.168ZM111.992 87.28C110.984 87.28 110.3 86.164 110.3 83.572C110.3 81.016 110.984 79.924 111.992 79.924C112.988 79.924 113.66 81.016 113.66 83.572C113.66 86.164 112.988 87.28 111.992 87.28Z" fill="#D60C18"/>
<line x1="122.5" y1="91.5" x2="122.5" y2="74.5" stroke="#939EA7" stroke-linecap="square" stroke-dasharray="2 2"/>
<line x1="93.5" y1="91.5" x2="93.5" y2="74.5" stroke="#939EA7" stroke-linecap="square" stroke-dasharray="2 2"/>
<line x1="52" y1="59.75" x2="93" y2="59.75" stroke="#D60C18" stroke-width="0.5"/>
<path d="M24.634 55.166C23.822 56.188 22.506 57.168 21.232 57.798C21.456 57.994 21.82 58.4 21.974 58.61C23.262 57.868 24.69 56.706 25.628 55.488L24.634 55.166ZM28.204 55.768C29.506 56.58 31.074 57.77 31.83 58.582L32.586 57.868C31.802 57.084 30.192 55.922 28.904 55.166L28.204 55.768ZM23.08 60.43V65.134H24.088V61.368H29.87V65.078H30.934V60.43H23.08ZM23.626 63.72V64.658H30.388V63.72H23.626ZM21.148 53.542V56.09H22.184V54.494H31.774V56.09H32.838V53.542H21.148ZM26.062 52.394C26.37 52.94 26.706 53.654 26.832 54.102L27.952 53.822C27.812 53.36 27.462 52.66 27.126 52.142L26.062 52.394ZM26.93 56.384C25.586 58.456 23.108 60.22 20.518 61.186C20.756 61.396 21.036 61.76 21.19 62.026C23.878 60.92 26.37 59.058 27.84 56.79L26.93 56.384ZM27.336 56.874L26.482 57.266C28.26 59.464 30.304 60.752 32.74 61.858C32.894 61.55 33.174 61.186 33.426 60.976C31.032 60.024 28.96 58.848 27.336 56.874ZM36.688 53.738H39.194V55.866H36.688V53.738ZM35.75 52.87V56.734H40.16V52.87H35.75ZM42.68 53.738H45.284V55.866H42.68V53.738ZM41.742 52.87V56.734H46.264V52.87H41.742ZM34.714 58.064V58.974H47.286V58.064H34.714ZM36.506 63.79V64.658H39.908V63.79H36.506ZM42.078 63.79V64.658H45.606V63.79H42.078ZM36.03 60.752V65.106H36.968V61.606H39.362V65.036H40.328V60.752H36.03ZM41.63 60.752V65.106H42.554V61.606H45.06V65.036H46.04V60.752H41.63ZM40.076 56.482C39.306 58.19 37.43 60.052 34.392 61.158C34.602 61.326 34.868 61.69 34.98 61.928C38.158 60.682 40.118 58.708 41.112 56.678L40.076 56.482ZM42.61 57.21C43.31 57.476 44.178 57.938 44.612 58.288L45.158 57.7C44.71 57.35 43.828 56.916 43.128 56.678L42.61 57.21ZM41.812 58.792C43.73 59.66 45.592 60.836 46.67 61.83L47.398 61.2C46.278 60.192 44.304 59.03 42.372 58.176L41.812 58.792Z" fill="black"/>
<line x1="273" y1="82.75" x2="337" y2="82.75" stroke="#D60C18" stroke-width="0.5"/>
<path d="M347.136 78.194C345.54 82.968 342.488 85.67 337.504 87.112C337.714 87.35 338.036 87.84 338.162 88.092C343.244 86.468 346.436 83.598 348.228 78.502L347.136 78.194ZM340.78 78.25L339.8 78.558C341.578 83.29 344.784 86.65 349.81 88.036C349.978 87.742 350.286 87.294 350.538 87.056C345.638 85.838 342.362 82.59 340.78 78.25ZM337.7 77.718V78.74H350.356V77.718H337.7ZM342.922 75.478C343.342 76.178 343.776 77.102 343.958 77.676L345.106 77.312C344.91 76.724 344.434 75.814 344.014 75.156L342.922 75.478ZM354.262 79.3V80.28H360.982V79.3H354.262ZM351.952 82.814V83.808H364.006V82.814H351.952ZM357.44 81.932V86.818C357.44 87.014 357.356 87.07 357.104 87.084C356.852 87.098 355.956 87.098 355.004 87.07C355.186 87.35 355.396 87.812 355.466 88.106C356.642 88.106 357.384 88.106 357.874 87.938C358.378 87.77 358.546 87.462 358.546 86.832V81.932H357.44ZM360.66 79.3V79.51C359.974 80.308 358.63 81.358 357.44 81.932C357.608 82.072 357.888 82.366 358.028 82.548C359.414 81.904 360.898 80.812 361.906 79.79L361.192 79.244L360.94 79.3H360.66ZM352.12 76.71V79.594H353.156V77.718H362.788V79.594H363.866V76.71H352.12ZM356.922 75.478C357.328 76.01 357.706 76.752 357.86 77.242L358.938 76.864C358.77 76.374 358.364 75.66 357.944 75.142L356.922 75.478Z" fill="black"/>
</svg>
