<svg width="392" height="164" viewBox="0 0 392 164" fill="none" xmlns="http://www.w3.org/2000/svg">
<rect x="40" y="47" width="312" height="84" fill="#4A545C"/>
<path d="M111.488 82.592C110.944 84.112 110 85.568 108.912 86.528C109.184 86.688 109.632 87.072 109.808 87.28C110.928 86.208 111.968 84.576 112.592 82.864L111.488 82.592ZM111.456 86.992C111.024 88.112 110.288 89.216 109.44 89.968C109.696 90.144 110.16 90.48 110.336 90.672C111.184 89.84 112.048 88.56 112.576 87.296L111.456 86.992ZM111.296 84.08L110.88 85.12H118.24V84.08H111.296ZM115.904 87.408C116.672 88.416 117.52 89.792 117.872 90.688L118.896 90.144C118.528 89.264 117.68 87.936 116.864 86.96L115.904 87.408ZM117.888 84.08V84.24C117.6 85.056 117.136 86.064 116.768 86.688L117.808 86.912C118.192 86.256 118.704 85.168 119.104 84.24L118.288 84.032L118.08 84.08H117.888ZM108.384 82.528C107.488 84.304 106.032 86.08 104.544 87.2C104.784 87.424 105.184 87.904 105.344 88.144C106.864 86.864 108.448 84.88 109.472 82.88L108.384 82.528ZM106.896 85.568V91.712H108.048V84.448L108.032 84.432L106.896 85.568ZM108.192 92.56V95.344C108.192 96.656 108.688 96.992 110.592 96.992C110.992 96.992 114.016 96.992 114.432 96.992C116.016 96.992 116.416 96.496 116.576 94.464C116.24 94.4 115.744 94.224 115.472 94.016C115.376 95.648 115.232 95.872 114.352 95.872C113.68 95.872 111.152 95.872 110.64 95.872C109.584 95.872 109.392 95.792 109.392 95.328V92.56H108.192ZM110.624 91.856C111.488 92.704 112.48 93.904 112.896 94.688L113.888 94.096C113.44 93.296 112.432 92.144 111.536 91.328L110.624 91.856ZM116.272 92.784C117.008 93.92 117.728 95.472 117.968 96.448L119.12 95.984C118.848 94.992 118.096 93.504 117.344 92.368L116.272 92.784ZM106.384 92.64C106.016 93.712 105.408 95.168 104.752 96.112L105.888 96.64C106.48 95.664 107.056 94.144 107.456 93.088L106.384 92.64ZM113.84 85.728V91.664H114.992V85.728H113.84ZM122.32 86.336V94.368C122.32 96.368 123.136 96.832 125.744 96.832C126.336 96.832 131.104 96.832 131.76 96.832C134.4 96.832 134.912 95.968 135.232 93.008C134.864 92.944 134.336 92.736 134 92.512C133.792 95.104 133.52 95.648 131.76 95.648C130.688 95.648 126.512 95.648 125.664 95.648C123.904 95.648 123.552 95.408 123.552 94.4V86.336H122.32ZM122.992 88.96V90.16H132.432V88.96H122.992ZM121.488 83.568V84.752H131.952V90.944H133.184V83.568H121.488ZM137.456 87.408V88.368H142.368V87.408H137.456ZM137.456 89.504V90.464H142.352V89.504H137.456ZM136.752 85.28V86.288H142.864V85.28H136.752ZM138 91.648V92.656H141.232V95.312H138V96.32H142.304V91.648H138ZM137.456 91.648V97.072H138.512V91.648H137.456ZM138.544 82.976C138.976 83.632 139.504 84.544 139.744 85.136L140.72 84.56C140.464 84 139.952 83.152 139.488 82.496L138.544 82.976ZM143.184 83.92V85.088H151.376V83.92H143.184ZM147.696 84.256V95.472C147.696 95.776 147.584 95.872 147.264 95.888C146.912 95.92 145.712 95.92 144.48 95.872C144.688 96.208 144.896 96.784 144.976 97.12C146.528 97.12 147.536 97.104 148.128 96.896C148.704 96.704 148.896 96.304 148.896 95.488V84.256H147.696ZM157.888 91.104H161.84V92.608H157.888V91.104ZM156.912 90.32V93.392H162.864V90.32H156.912ZM160.368 93.008V95.232C160.368 96.208 160.624 96.48 161.648 96.48C161.856 96.48 162.832 96.48 163.04 96.48C163.808 96.48 164.096 96.144 164.192 94.784C163.904 94.72 163.488 94.576 163.296 94.416C163.264 95.456 163.184 95.584 162.896 95.584C162.704 95.584 161.936 95.584 161.776 95.584C161.44 95.584 161.408 95.536 161.408 95.232V93.008H160.368ZM158.064 93.232C157.872 94.608 157.248 95.424 155.312 95.888C155.52 96.064 155.808 96.464 155.92 96.72C158.096 96.08 158.832 95.008 159.072 93.232H158.064ZM158.256 88.096C157.648 88.976 156.32 89.92 155.12 90.48C155.328 90.64 155.664 90.928 155.84 91.12C157.088 90.496 158.448 89.456 159.248 88.416L158.256 88.096ZM153.984 85.04V85.824H158.48V85.04H153.984ZM161.312 85.072V85.856H165.92V85.072H161.312ZM165.52 83.2V95.744C165.52 95.952 165.456 96.016 165.248 96.032C165.056 96.032 164.4 96.032 163.728 96.016C163.888 96.32 164.032 96.816 164.08 97.12C165.04 97.12 165.728 97.088 166.128 96.912C166.544 96.704 166.672 96.384 166.672 95.744V83.2H165.52ZM154.08 83.184V84.032H158.096V86.88H154.08V87.728H159.232V83.184H154.08ZM166.08 83.2H160.656V87.728H166.08V86.88H161.792V84.048H166.08V83.2ZM153.36 83.184V97.28H154.496V83.184H153.36ZM160.48 88.624C161.68 89.36 163.12 90.448 163.824 91.184L164.528 90.608C163.792 89.872 162.336 88.816 161.152 88.112L160.48 88.624ZM180.234 89.328L179.13 89.616C180.346 93.392 182.618 96.048 186.218 97.248C186.394 96.912 186.746 96.416 187.034 96.16C183.562 95.168 181.29 92.688 180.234 89.328ZM173.194 83.808V85.024H185.882V83.808H173.194ZM172.634 88.72V89.952H186.57V88.72H172.634ZM178.842 84.224V86.912C178.842 89.84 178.298 93.792 172.234 96.256C172.49 96.496 172.858 96.96 173.018 97.264C179.45 94.592 180.09 90.24 180.09 86.928V84.224H178.842ZM188.458 83.744V84.96H202.698V83.744H188.458ZM194.618 84.704V97.264H195.882V84.704H194.618ZM195.322 88.496C197.258 89.488 199.754 91.008 200.986 92L201.834 90.912C200.554 89.952 198.026 88.496 196.106 87.568L195.322 88.496ZM206.762 92.16V92.976H216.346V92.16H206.762ZM206.794 90.192V91.056H215.85V94.08H206.794V94.96H217.034V90.192H206.794ZM210.89 90.624V95.44C210.89 96.752 211.402 97.072 213.194 97.072C213.594 97.072 216.49 97.072 216.906 97.072C218.426 97.072 218.794 96.56 218.97 94.624C218.634 94.56 218.186 94.4 217.914 94.208C217.834 95.824 217.69 96.096 216.826 96.096C216.202 96.096 213.738 96.096 213.258 96.096C212.234 96.096 212.042 96 212.042 95.44V90.624H210.89ZM206.17 90.192V95.792H207.322V90.192H206.17ZM205.482 83.2V84.064H217.626V83.2H205.482ZM210.922 83.424V89.584H212.106V83.424H210.922ZM204.778 85.088V88.528H205.93V85.936H217.178V88.528H218.378V85.088H204.778ZM206.218 88.72L206.586 89.648C207.626 89.44 208.842 89.2 210.074 88.944L210.042 88.176C208.618 88.4 207.242 88.608 206.218 88.72ZM206.634 86.896C207.674 87.104 209.018 87.52 209.738 87.824L210.09 87.104C209.37 86.784 208.01 86.432 206.986 86.256L206.634 86.896ZM216.026 86.176C215.242 86.464 213.898 86.944 212.97 87.152L213.402 87.776C214.33 87.584 215.642 87.248 216.554 86.864L216.026 86.176ZM212.778 88.832C214.026 89.008 215.658 89.392 216.538 89.696L216.81 88.88C215.914 88.576 214.298 88.224 213.066 88.096L212.778 88.832ZM220.378 89.68V90.88H234.826V89.68H220.378ZM221.978 83.648V84.832H232.426V83.648H221.978ZM232.042 83.648V83.92C231.002 85.04 228.794 86.544 227.002 87.36C227.242 87.568 227.626 87.952 227.802 88.224C229.722 87.296 232.042 85.728 233.53 84.272L232.634 83.584L232.346 83.648H232.042ZM227.002 87.36V95.696C227.002 95.968 226.906 96.048 226.57 96.064C226.218 96.08 225.034 96.096 223.738 96.048C223.946 96.4 224.17 96.928 224.25 97.28C225.802 97.28 226.826 97.264 227.434 97.056C228.058 96.88 228.25 96.512 228.25 95.712V87.36H227.002ZM244.474 88.752V89.744H249.706V88.752H244.474ZM243.898 83.312V97.264H245.002V84.384H249.594V83.312H243.898ZM249.018 83.312V86.384C249.018 86.56 248.954 86.624 248.698 86.64C248.442 86.656 247.61 86.656 246.618 86.624C246.778 86.928 246.938 87.36 246.986 87.68C248.218 87.68 249.018 87.664 249.514 87.488C250.01 87.312 250.138 86.992 250.138 86.4V83.312H249.018ZM246.026 89.296L245.082 89.552C246.026 92.864 247.802 95.792 250.282 97.184C250.474 96.88 250.842 96.432 251.114 96.208C248.698 95.024 246.89 92.304 246.026 89.296ZM249.338 88.752V89.008C248.826 91.952 247.226 94.944 244.73 96.496C245.002 96.704 245.354 97.04 245.53 97.312C248.202 95.584 249.866 92.432 250.506 88.96L249.77 88.688L249.562 88.752H249.338ZM236.81 84.208V85.248H242.89V84.208H236.81ZM236.314 92.976V94.016H243.306V92.976H236.314ZM236.33 86.848V87.904H243.274V86.848H236.33ZM236.666 90.176V91.216H243.002V90.176H236.666ZM239.322 82.592V87.216H240.442V82.592H239.322ZM239.322 90.592V97.232H240.442V90.592H239.322ZM241.418 87.904C241.146 88.672 240.586 89.776 240.122 90.464L241.018 90.736C241.482 90.08 242.01 89.072 242.474 88.176L241.418 87.904ZM237.402 88.224C237.738 88.848 238.074 89.68 238.17 90.208L239.114 89.888C239.002 89.376 238.65 88.56 238.298 87.952L237.402 88.224Z" fill="white"/>
<path d="M93.625 89C93.625 95.4204 88.4204 100.625 82 100.625C75.5796 100.625 70.375 95.4204 70.375 89C70.375 82.5796 75.5796 77.375 82 77.375C88.4204 77.375 93.625 82.5796 93.625 89ZM80.6553 95.1553L89.2803 86.5303C89.5732 86.2375 89.5732 85.7625 89.2803 85.4697L88.2197 84.409C87.9269 84.1161 87.4519 84.1161 87.159 84.409L80.125 91.443L76.841 88.159C76.5482 87.8661 76.0732 87.8661 75.7803 88.159L74.7197 89.2196C74.4268 89.5125 74.4268 89.9874 74.7197 90.2803L79.5947 95.1553C79.8876 95.4481 80.3625 95.4481 80.6554 95.1553L80.6553 95.1553Z" fill="white"/>
<rect width="60" height="36" transform="translate(262 71)" fill="#003A9F"/>
<path d="M285.294 90.016V90.828H290.768V90.016H285.294ZM285.294 92.312V93.138H290.768V92.312H285.294ZM285.308 94.622V95.518H291.356V94.622H285.308ZM283.642 84.682V87.076H284.552V85.592H290.096V87.048H291.062V84.682H283.642ZM287.758 88.35V95.098H288.724V88.35H287.758ZM285.672 87.678H285.588L284.678 88.63V96.12H285.672V88.588H290.936V87.678H285.672ZM287.114 83.226C286.372 85.83 285 88 283.054 89.344C283.264 89.554 283.586 89.988 283.698 90.212C285.756 88.7 287.24 86.32 288.108 83.422L287.114 83.226ZM287.338 86.404C287.632 86.978 287.996 87.776 288.15 88.28L289.06 87.874C288.906 87.384 288.542 86.628 288.206 86.054L287.338 86.404ZM278.728 84.22V85.2H283.32V84.22H278.728ZM280.072 88.322V89.246H282.186V93.362H280.072V94.286H283.11V88.322H280.072ZM280.478 84.57C280.128 87.132 279.498 89.568 278.378 91.108C278.574 91.332 278.882 91.822 278.994 92.046C280.282 90.282 281.038 87.594 281.486 84.724L280.478 84.57ZM279.722 88.322V95.434H280.632V88.322H279.722ZM294.954 87.566V88.574H303.116V87.566H294.954ZM298.986 90.87V91.864H303.704V90.87H298.986ZM298.426 88.042V94.986L299.518 95.126V88.042H298.426ZM295.136 89.708C294.828 92.256 294.072 94.258 292.504 95.462C292.756 95.63 293.19 95.98 293.358 96.162C294.94 94.776 295.808 92.648 296.2 89.82L295.136 89.708ZM295.794 91.5L294.94 91.836C296.144 95.252 298.426 95.896 301.758 95.896H305.034C305.09 95.588 305.272 95.098 305.44 94.832C304.754 94.86 302.332 94.86 301.814 94.86C298.972 94.846 296.788 94.356 295.794 91.5ZM293.148 84.822V87.888H294.184V85.83H303.774V87.888H304.852V84.822H293.148ZM297.95 83.45C298.286 84.01 298.608 84.752 298.734 85.214L299.826 84.878C299.686 84.402 299.322 83.688 298.986 83.156L297.95 83.45Z" fill="white"/>
</svg>
