<svg width="790" height="178" viewBox="0 0 790 178" fill="none" xmlns="http://www.w3.org/2000/svg">
<rect x="403.5" y="70.5" width="259" height="43" fill="white" stroke="#EEEEEE"/>
<g clip-path="url(#clip0_22_62)">
<path d="M647.744 100.446L645.816 98.522L643.267 95.9707C643.926 95.1554 644.422 94.2405 644.745 93.2493C645.089 92.1936 645.224 91.0948 645.147 89.9824C645.069 88.87 644.782 87.8006 644.295 86.8035C643.789 85.7713 643.091 84.8622 642.215 84.1017C641.339 83.3412 640.342 82.7742 639.249 82.4184C638.193 82.0704 637.095 81.9355 635.982 82.0137C634.87 82.0919 633.8 82.3793 632.803 82.8661C631.771 83.3725 630.862 84.0724 630.102 84.9463C629.341 85.8202 628.774 86.8192 628.418 87.9121C628.07 88.9678 627.935 90.0665 628.014 91.1789C628.092 92.2913 628.379 93.3607 628.866 94.3578C629.372 95.3901 630.07 96.2991 630.946 97.0596C632.508 98.4184 634.51 99.1652 636.581 99.1652C638.54 99.1652 640.448 98.4907 641.971 97.263L646.446 101.736C646.618 101.91 646.848 102.006 647.095 102.008H647.097C647.341 102.008 647.578 101.908 647.746 101.734C648.096 101.382 648.096 100.802 647.744 100.446L647.744 100.446ZM643.325 90.5885C643.325 91.4995 643.147 92.3812 642.796 93.2121C642.455 94.0156 641.971 94.7371 641.351 95.3548C640.731 95.9746 640.01 96.4594 639.208 96.7996C638.377 97.1515 637.494 97.3294 636.584 97.3294C635.673 97.3294 634.792 97.1495 633.961 96.7976C633.157 96.4575 632.438 95.9707 631.818 95.3529C631.198 94.7331 630.713 94.0117 630.373 93.2102C630.021 92.3793 629.844 91.4975 629.842 90.5865C629.842 89.6754 630.019 88.7937 630.371 87.9629C630.712 87.1593 631.196 86.4379 631.816 85.8201C632.436 85.2004 633.157 84.7136 633.959 84.3754C634.79 84.0235 635.673 83.8456 636.582 83.8456C637.494 83.8456 638.375 84.0235 639.206 84.3754C640.01 84.7155 640.731 85.2004 641.349 85.8201C641.969 86.4399 642.453 87.1613 642.794 87.9629C643.147 88.7957 643.325 89.6774 643.325 90.5885V90.5885Z" fill="black"/>
</g>
<line x1="613.5" y1="82" x2="613.5" y2="102" stroke="#D3D5D7"/>
<path d="M424.768 88.528V89.102H432.272V88.528H424.768ZM425.118 90.166V90.712H432.006V90.166H425.118ZM424.642 91.86V92.448H432.384V91.86H424.642ZM428.114 87.324V92.168H428.758V87.324H428.114ZM430.83 93.442V99.21C430.83 99.364 430.788 99.42 430.606 99.42C430.424 99.434 429.864 99.434 429.15 99.406C429.262 99.588 429.346 99.84 429.388 100.008C430.242 100.008 430.788 100.008 431.096 99.91C431.39 99.798 431.474 99.602 431.474 99.196V93.442H430.83ZM425.888 95.276V95.836H431.222V95.276H425.888ZM425.888 97.11V97.656H431.222V97.11H425.888ZM425.566 93.442V96.06C425.566 97.208 425.468 98.664 424.628 99.784C424.782 99.854 425.02 100.092 425.104 100.232C426.042 99.042 426.21 97.334 426.21 96.06V93.442H425.566ZM425.93 93.442V94.016H431.11V93.442H425.93ZM419.994 91.412V92H423.998V91.412H419.994ZM420.428 95.206V95.808H423.34V98.594H420.428V99.196H423.956V95.206H420.428ZM420.106 95.206V99.882H420.722V95.206H420.106ZM420.008 93.316V93.904H424.026V93.316H420.008ZM419.686 89.704V90.306H424.446V89.704H419.686ZM421.464 87.534C421.73 88.122 422.038 88.906 422.164 89.41L422.766 89.172C422.626 88.682 422.318 87.912 422.024 87.338L421.464 87.534ZM440.686 90.81V91.37H444.578V90.81H440.686ZM439.874 94.534V95.108H442.142V94.534H439.874ZM439.818 96.606V97.18H442.1V96.606H439.818ZM443.57 92.784V97.81H444.116V92.784H443.57ZM441.932 92.532V99.196C441.932 99.336 441.89 99.364 441.75 99.378C441.624 99.378 441.176 99.392 440.644 99.378C440.742 99.532 440.826 99.784 440.854 99.938C441.526 99.938 441.932 99.938 442.184 99.826C442.436 99.728 442.506 99.546 442.506 99.196V92.532H441.932ZM445.264 92.322V99.126C445.264 99.294 445.208 99.336 445.054 99.35C444.872 99.35 444.326 99.35 443.64 99.336C443.738 99.504 443.822 99.742 443.85 99.896C444.69 99.896 445.18 99.896 445.474 99.798C445.754 99.686 445.838 99.504 445.838 99.126V92.322H445.264ZM442.562 87.226C441.792 88.696 440.364 90.138 438.88 90.936C439.034 91.048 439.23 91.258 439.342 91.398C440.868 90.516 442.324 89.018 443.15 87.436L442.562 87.226ZM442.786 87.73L442.254 87.926C443.262 89.466 444.508 90.502 445.964 91.384C446.076 91.188 446.272 90.992 446.426 90.866C445.012 90.082 443.752 89.144 442.786 87.73ZM439.804 92.532V93.106H442.086V92.532H439.804ZM439.538 92.532V95.472C439.538 96.732 439.44 98.384 438.684 99.616C438.824 99.7 439.034 99.91 439.132 100.022C439.972 98.678 440.112 96.844 440.112 95.486V92.532H439.538ZM433.812 88.906V89.536H438.796V88.906H433.812ZM433.672 96.928V97.544H438.838V96.928H433.672ZM436.052 87.324V91.104H436.654V87.324H436.052ZM436.08 91.034V95.206H436.038V100.022H436.668V95.206H436.626V91.034H436.08ZM434.722 93.484H437.942V95.108H434.722V93.484ZM434.722 91.328H437.942V92.938H434.722V91.328ZM434.134 90.754V95.682H438.516V90.754H434.134ZM450.164 88.22V88.892H454.126V88.22H450.164ZM453.776 88.22C453.776 90.712 454.14 96.508 459.894 99.994C460.02 99.84 460.3 99.574 460.454 99.462C454.728 96.032 454.448 90.614 454.448 88.22H453.776ZM453.496 90.768C452.572 94.884 450.794 97.768 447.574 99.476C447.756 99.616 448.064 99.882 448.19 100.022C451.382 98.16 453.216 95.248 454.238 90.908L453.496 90.768ZM466.502 94.604C466.824 95.108 467.188 95.78 467.37 96.186L467.804 95.962C467.622 95.598 467.244 94.94 466.922 94.45L466.502 94.604ZM468.49 96.186V99.812H469.064V96.186H468.49ZM464.724 96.382V98.272H467.076V97.754H465.256V96.382H464.724ZM466.866 96.186V97.39C466.866 98.188 466.67 99 465.06 99.504C465.2 99.602 465.382 99.812 465.452 99.952C467.188 99.322 467.426 98.412 467.426 97.39V96.186H466.866ZM462.666 89.788V90.334H466.838V89.788H462.666ZM469.092 89.788V90.334H473.418V89.788H469.092ZM473.124 87.968V99.084C473.124 99.266 473.068 99.336 472.886 99.336C472.69 99.35 472.088 99.35 471.402 99.336C471.514 99.532 471.598 99.854 471.654 100.036C472.48 100.036 473.068 100.022 473.376 99.91C473.698 99.784 473.796 99.546 473.796 99.07V87.968H473.124ZM462.708 87.968V88.514H466.6V91.552H462.708V92.112H467.244V87.968H462.708ZM473.446 87.968H468.7V92.112H473.446V91.552H469.344V88.514H473.446V87.968ZM462.288 87.968V100.064H462.946V87.968H462.288ZM464.304 94.38C464.304 94.226 464.738 94.03 464.738 94.03V94.016C465.214 93.638 465.746 93.036 466.222 92.336L465.676 92.084C465.34 92.728 464.738 93.4 464.57 93.554C464.416 93.694 464.262 93.778 464.108 93.806C464.192 93.96 464.262 94.254 464.304 94.38ZM464.304 94.38C464.444 94.31 464.752 94.254 466.376 94.156C466.418 94.044 466.502 93.834 466.572 93.694L464.654 93.778L464.304 93.946V94.38ZM464.22 96.018C464.22 95.864 464.654 95.71 464.654 95.71V95.696C465.578 95.108 466.53 94.226 467.426 93.26L466.95 92.952C466.208 93.904 465.116 94.842 464.794 95.066C464.5 95.29 464.248 95.444 464.038 95.458C464.108 95.612 464.192 95.892 464.22 96.018ZM464.22 96.018C464.402 95.948 464.752 95.892 467.272 95.668C467.244 95.556 467.202 95.346 467.188 95.22L464.556 95.402L464.206 95.598L464.22 96.018ZM470.366 94.618C470.674 95.108 471.052 95.78 471.234 96.186L471.682 95.962C471.486 95.584 471.108 94.94 470.772 94.45L470.366 94.618ZM468.182 94.38C468.182 94.226 468.63 94.044 468.63 94.044V94.03C469.106 93.652 469.638 93.036 470.1 92.35L469.582 92.084C469.232 92.742 468.616 93.4 468.462 93.568C468.308 93.708 468.168 93.792 468 93.806C468.07 93.96 468.154 94.254 468.182 94.38ZM468.182 94.38C468.35 94.31 468.63 94.268 470.282 94.17C470.31 94.044 470.394 93.834 470.464 93.694L468.532 93.778L468.182 93.946V94.38ZM468.098 96.032C468.098 95.878 468.546 95.724 468.546 95.724V95.696C469.47 95.108 470.436 94.226 471.318 93.26L470.842 92.952C470.086 93.89 469.008 94.842 468.686 95.066C468.392 95.304 468.14 95.444 467.93 95.472C468 95.626 468.084 95.892 468.098 96.032ZM468.098 96.032C468.308 95.948 468.644 95.892 471.164 95.682C471.136 95.556 471.094 95.346 471.08 95.22L468.448 95.402L468.098 95.598V96.032ZM468.84 97.754V98.272H471.024V97.754H468.84ZM470.702 96.396V98.72H471.248V96.396H470.702ZM476.498 90.922V91.524H479.69V90.922H476.498ZM475.756 93.344V93.96H479.914V93.344H475.756ZM476.204 94.968C476.428 95.836 476.638 96.942 476.694 97.684L477.17 97.516C477.128 96.788 476.918 95.668 476.68 94.814L476.204 94.968ZM475.658 98.902L475.812 99.532C476.946 99.224 478.57 98.748 480.096 98.314L480.068 97.726C478.402 98.188 476.722 98.636 475.658 98.902ZM479.34 94.646C479.2 95.444 478.92 96.634 478.724 97.348L479.13 97.558C479.368 96.872 479.634 95.794 479.858 94.898L479.34 94.646ZM477.772 91.202V98.72L478.29 98.65V91.202H477.772ZM477.996 87.254C477.436 88.682 476.456 90.026 475.504 90.88C475.602 91.034 475.77 91.384 475.812 91.552C476.82 90.572 477.828 89.074 478.458 87.506L477.996 87.254ZM477.702 88.416C478.472 89.088 479.34 89.998 479.858 90.67L480.18 90.096C479.648 89.452 478.78 88.584 477.982 87.912L477.702 88.416ZM484.856 87.338V98.734H485.444V87.338H484.856ZM482.742 90.404V90.978H488.468V90.404H482.742ZM482.602 96.172V96.746H488.174V96.172H482.602ZM482.966 94.198V94.786H487.824V94.198H482.966ZM480.026 88.234V88.878H482.266V88.234H480.026ZM482.084 92.336V92.476C481.79 96.326 480.726 98.524 479.074 99.602C479.2 99.714 479.368 99.924 479.438 100.064C481.244 98.832 482.322 96.606 482.644 92.378L482.308 92.308L482.21 92.336H482.084ZM480.712 94.366L480.194 94.576C481.342 99.126 483.778 99.868 486.578 99.868H488.16C488.188 99.7 488.3 99.42 488.398 99.252C488.006 99.252 486.886 99.252 486.606 99.252C484.1 99.252 481.706 98.58 480.712 94.366ZM483.008 88.5V89.046H487.012V92.35H483.008V92.91H487.572V88.5H483.008ZM480.502 92.336L480.278 92.952H482.224V92.336H480.502ZM480.18 93.176C480.18 93.008 480.684 92.798 480.684 92.798V92.784C481.398 91.678 482.126 90.04 482.714 88.388L482.294 88.122L482.042 88.248V88.304C481.636 89.788 480.838 91.412 480.6 91.818C480.362 92.252 480.096 92.602 479.886 92.63C479.984 92.77 480.124 93.036 480.18 93.176ZM492.248 91.384V92.014H499.234V91.384H492.248ZM490.008 94.912V95.57H501.95V94.912H490.008ZM495.65 93.96V99.112C495.65 99.308 495.58 99.378 495.342 99.392C495.104 99.406 494.292 99.406 493.284 99.392C493.41 99.574 493.536 99.854 493.592 100.036C494.782 100.036 495.44 100.036 495.818 99.924C496.224 99.812 496.35 99.588 496.35 99.112V93.96H495.65ZM499.038 91.384V91.524C498.282 92.35 496.868 93.386 495.65 93.96C495.762 94.058 495.958 94.254 496.056 94.366C497.344 93.736 498.87 92.686 499.836 91.678L499.374 91.342L499.22 91.384H499.038ZM490.218 88.878V91.552H490.89V89.536H501.082V91.552H501.768V88.878H490.218ZM495.09 87.45C495.51 87.996 495.916 88.752 496.07 89.242L496.742 88.976C496.56 88.5 496.14 87.772 495.72 87.226L495.09 87.45Z" fill="#48545D"/>
<rect x="68.5" y="62.5" width="259" height="59" fill="white" stroke="#EEEEEE"/>
<g clip-path="url(#clip1_22_62)">
<path d="M312.744 100.446L310.816 98.522L308.267 95.9707C308.926 95.1554 309.422 94.2405 309.745 93.2493C310.089 92.1936 310.224 91.0948 310.147 89.9824C310.069 88.87 309.782 87.8006 309.295 86.8035C308.789 85.7713 308.091 84.8622 307.215 84.1017C306.339 83.3412 305.342 82.7742 304.249 82.4184C303.193 82.0704 302.095 81.9355 300.982 82.0137C299.87 82.0919 298.8 82.3793 297.803 82.8661C296.771 83.3725 295.862 84.0724 295.102 84.9463C294.341 85.8202 293.774 86.8192 293.418 87.9121C293.07 88.9678 292.935 90.0665 293.014 91.1789C293.092 92.2913 293.379 93.3607 293.866 94.3578C294.372 95.3901 295.07 96.2991 295.946 97.0596C297.508 98.4184 299.51 99.1652 301.581 99.1652C303.54 99.1652 305.448 98.4907 306.971 97.263L311.446 101.736C311.618 101.91 311.848 102.006 312.095 102.008H312.097C312.341 102.008 312.578 101.908 312.746 101.734C313.096 101.382 313.096 100.802 312.744 100.446L312.744 100.446ZM308.325 90.5885C308.325 91.4995 308.147 92.3812 307.796 93.2121C307.455 94.0156 306.971 94.7371 306.351 95.3548C305.731 95.9746 305.01 96.4594 304.208 96.7996C303.377 97.1515 302.494 97.3294 301.584 97.3294C300.673 97.3294 299.792 97.1495 298.961 96.7976C298.157 96.4575 297.438 95.9707 296.818 95.3529C296.198 94.7331 295.713 94.0117 295.373 93.2102C295.021 92.3793 294.844 91.4975 294.842 90.5865C294.842 89.6754 295.019 88.7937 295.371 87.9629C295.712 87.1593 296.196 86.4379 296.816 85.8201C297.436 85.2004 298.157 84.7136 298.959 84.3754C299.79 84.0235 300.673 83.8456 301.582 83.8456C302.494 83.8456 303.375 84.0235 304.206 84.3754C305.01 84.7155 305.731 85.2004 306.349 85.8201C306.969 86.4399 307.453 87.1613 307.794 87.9629C308.147 88.7957 308.325 89.6774 308.325 90.5885V90.5885Z" fill="black"/>
</g>
<line x1="278.5" y1="82" x2="278.5" y2="102" stroke="#D3D5D7"/>
<path d="M89.768 88.528V89.102H97.272V88.528H89.768ZM90.118 90.166V90.712H97.006V90.166H90.118ZM89.642 91.86V92.448H97.384V91.86H89.642ZM93.114 87.324V92.168H93.758V87.324H93.114ZM95.83 93.442V99.21C95.83 99.364 95.788 99.42 95.606 99.42C95.424 99.434 94.864 99.434 94.15 99.406C94.262 99.588 94.346 99.84 94.388 100.008C95.242 100.008 95.788 100.008 96.096 99.91C96.39 99.798 96.474 99.602 96.474 99.196V93.442H95.83ZM90.888 95.276V95.836H96.222V95.276H90.888ZM90.888 97.11V97.656H96.222V97.11H90.888ZM90.566 93.442V96.06C90.566 97.208 90.468 98.664 89.628 99.784C89.782 99.854 90.02 100.092 90.104 100.232C91.042 99.042 91.21 97.334 91.21 96.06V93.442H90.566ZM90.93 93.442V94.016H96.11V93.442H90.93ZM84.994 91.412V92H88.998V91.412H84.994ZM85.428 95.206V95.808H88.34V98.594H85.428V99.196H88.956V95.206H85.428ZM85.106 95.206V99.882H85.722V95.206H85.106ZM85.008 93.316V93.904H89.026V93.316H85.008ZM84.686 89.704V90.306H89.446V89.704H84.686ZM86.464 87.534C86.73 88.122 87.038 88.906 87.164 89.41L87.766 89.172C87.626 88.682 87.318 87.912 87.024 87.338L86.464 87.534ZM105.686 90.81V91.37H109.578V90.81H105.686ZM104.874 94.534V95.108H107.142V94.534H104.874ZM104.818 96.606V97.18H107.1V96.606H104.818ZM108.57 92.784V97.81H109.116V92.784H108.57ZM106.932 92.532V99.196C106.932 99.336 106.89 99.364 106.75 99.378C106.624 99.378 106.176 99.392 105.644 99.378C105.742 99.532 105.826 99.784 105.854 99.938C106.526 99.938 106.932 99.938 107.184 99.826C107.436 99.728 107.506 99.546 107.506 99.196V92.532H106.932ZM110.264 92.322V99.126C110.264 99.294 110.208 99.336 110.054 99.35C109.872 99.35 109.326 99.35 108.64 99.336C108.738 99.504 108.822 99.742 108.85 99.896C109.69 99.896 110.18 99.896 110.474 99.798C110.754 99.686 110.838 99.504 110.838 99.126V92.322H110.264ZM107.562 87.226C106.792 88.696 105.364 90.138 103.88 90.936C104.034 91.048 104.23 91.258 104.342 91.398C105.868 90.516 107.324 89.018 108.15 87.436L107.562 87.226ZM107.786 87.73L107.254 87.926C108.262 89.466 109.508 90.502 110.964 91.384C111.076 91.188 111.272 90.992 111.426 90.866C110.012 90.082 108.752 89.144 107.786 87.73ZM104.804 92.532V93.106H107.086V92.532H104.804ZM104.538 92.532V95.472C104.538 96.732 104.44 98.384 103.684 99.616C103.824 99.7 104.034 99.91 104.132 100.022C104.972 98.678 105.112 96.844 105.112 95.486V92.532H104.538ZM98.812 88.906V89.536H103.796V88.906H98.812ZM98.672 96.928V97.544H103.838V96.928H98.672ZM101.052 87.324V91.104H101.654V87.324H101.052ZM101.08 91.034V95.206H101.038V100.022H101.668V95.206H101.626V91.034H101.08ZM99.722 93.484H102.942V95.108H99.722V93.484ZM99.722 91.328H102.942V92.938H99.722V91.328ZM99.134 90.754V95.682H103.516V90.754H99.134ZM115.164 88.22V88.892H119.126V88.22H115.164ZM118.776 88.22C118.776 90.712 119.14 96.508 124.894 99.994C125.02 99.84 125.3 99.574 125.454 99.462C119.728 96.032 119.448 90.614 119.448 88.22H118.776ZM118.496 90.768C117.572 94.884 115.794 97.768 112.574 99.476C112.756 99.616 113.064 99.882 113.19 100.022C116.382 98.16 118.216 95.248 119.238 90.908L118.496 90.768ZM131.502 94.604C131.824 95.108 132.188 95.78 132.37 96.186L132.804 95.962C132.622 95.598 132.244 94.94 131.922 94.45L131.502 94.604ZM133.49 96.186V99.812H134.064V96.186H133.49ZM129.724 96.382V98.272H132.076V97.754H130.256V96.382H129.724ZM131.866 96.186V97.39C131.866 98.188 131.67 99 130.06 99.504C130.2 99.602 130.382 99.812 130.452 99.952C132.188 99.322 132.426 98.412 132.426 97.39V96.186H131.866ZM127.666 89.788V90.334H131.838V89.788H127.666ZM134.092 89.788V90.334H138.418V89.788H134.092ZM138.124 87.968V99.084C138.124 99.266 138.068 99.336 137.886 99.336C137.69 99.35 137.088 99.35 136.402 99.336C136.514 99.532 136.598 99.854 136.654 100.036C137.48 100.036 138.068 100.022 138.376 99.91C138.698 99.784 138.796 99.546 138.796 99.07V87.968H138.124ZM127.708 87.968V88.514H131.6V91.552H127.708V92.112H132.244V87.968H127.708ZM138.446 87.968H133.7V92.112H138.446V91.552H134.344V88.514H138.446V87.968ZM127.288 87.968V100.064H127.946V87.968H127.288ZM129.304 94.38C129.304 94.226 129.738 94.03 129.738 94.03V94.016C130.214 93.638 130.746 93.036 131.222 92.336L130.676 92.084C130.34 92.728 129.738 93.4 129.57 93.554C129.416 93.694 129.262 93.778 129.108 93.806C129.192 93.96 129.262 94.254 129.304 94.38ZM129.304 94.38C129.444 94.31 129.752 94.254 131.376 94.156C131.418 94.044 131.502 93.834 131.572 93.694L129.654 93.778L129.304 93.946V94.38ZM129.22 96.018C129.22 95.864 129.654 95.71 129.654 95.71V95.696C130.578 95.108 131.53 94.226 132.426 93.26L131.95 92.952C131.208 93.904 130.116 94.842 129.794 95.066C129.5 95.29 129.248 95.444 129.038 95.458C129.108 95.612 129.192 95.892 129.22 96.018ZM129.22 96.018C129.402 95.948 129.752 95.892 132.272 95.668C132.244 95.556 132.202 95.346 132.188 95.22L129.556 95.402L129.206 95.598L129.22 96.018ZM135.366 94.618C135.674 95.108 136.052 95.78 136.234 96.186L136.682 95.962C136.486 95.584 136.108 94.94 135.772 94.45L135.366 94.618ZM133.182 94.38C133.182 94.226 133.63 94.044 133.63 94.044V94.03C134.106 93.652 134.638 93.036 135.1 92.35L134.582 92.084C134.232 92.742 133.616 93.4 133.462 93.568C133.308 93.708 133.168 93.792 133 93.806C133.07 93.96 133.154 94.254 133.182 94.38ZM133.182 94.38C133.35 94.31 133.63 94.268 135.282 94.17C135.31 94.044 135.394 93.834 135.464 93.694L133.532 93.778L133.182 93.946V94.38ZM133.098 96.032C133.098 95.878 133.546 95.724 133.546 95.724V95.696C134.47 95.108 135.436 94.226 136.318 93.26L135.842 92.952C135.086 93.89 134.008 94.842 133.686 95.066C133.392 95.304 133.14 95.444 132.93 95.472C133 95.626 133.084 95.892 133.098 96.032ZM133.098 96.032C133.308 95.948 133.644 95.892 136.164 95.682C136.136 95.556 136.094 95.346 136.08 95.22L133.448 95.402L133.098 95.598V96.032ZM133.84 97.754V98.272H136.024V97.754H133.84ZM135.702 96.396V98.72H136.248V96.396H135.702ZM141.498 90.922V91.524H144.69V90.922H141.498ZM140.756 93.344V93.96H144.914V93.344H140.756ZM141.204 94.968C141.428 95.836 141.638 96.942 141.694 97.684L142.17 97.516C142.128 96.788 141.918 95.668 141.68 94.814L141.204 94.968ZM140.658 98.902L140.812 99.532C141.946 99.224 143.57 98.748 145.096 98.314L145.068 97.726C143.402 98.188 141.722 98.636 140.658 98.902ZM144.34 94.646C144.2 95.444 143.92 96.634 143.724 97.348L144.13 97.558C144.368 96.872 144.634 95.794 144.858 94.898L144.34 94.646ZM142.772 91.202V98.72L143.29 98.65V91.202H142.772ZM142.996 87.254C142.436 88.682 141.456 90.026 140.504 90.88C140.602 91.034 140.77 91.384 140.812 91.552C141.82 90.572 142.828 89.074 143.458 87.506L142.996 87.254ZM142.702 88.416C143.472 89.088 144.34 89.998 144.858 90.67L145.18 90.096C144.648 89.452 143.78 88.584 142.982 87.912L142.702 88.416ZM149.856 87.338V98.734H150.444V87.338H149.856ZM147.742 90.404V90.978H153.468V90.404H147.742ZM147.602 96.172V96.746H153.174V96.172H147.602ZM147.966 94.198V94.786H152.824V94.198H147.966ZM145.026 88.234V88.878H147.266V88.234H145.026ZM147.084 92.336V92.476C146.79 96.326 145.726 98.524 144.074 99.602C144.2 99.714 144.368 99.924 144.438 100.064C146.244 98.832 147.322 96.606 147.644 92.378L147.308 92.308L147.21 92.336H147.084ZM145.712 94.366L145.194 94.576C146.342 99.126 148.778 99.868 151.578 99.868H153.16C153.188 99.7 153.3 99.42 153.398 99.252C153.006 99.252 151.886 99.252 151.606 99.252C149.1 99.252 146.706 98.58 145.712 94.366ZM148.008 88.5V89.046H152.012V92.35H148.008V92.91H152.572V88.5H148.008ZM145.502 92.336L145.278 92.952H147.224V92.336H145.502ZM145.18 93.176C145.18 93.008 145.684 92.798 145.684 92.798V92.784C146.398 91.678 147.126 90.04 147.714 88.388L147.294 88.122L147.042 88.248V88.304C146.636 89.788 145.838 91.412 145.6 91.818C145.362 92.252 145.096 92.602 144.886 92.63C144.984 92.77 145.124 93.036 145.18 93.176ZM157.248 91.384V92.014H164.234V91.384H157.248ZM155.008 94.912V95.57H166.95V94.912H155.008ZM160.65 93.96V99.112C160.65 99.308 160.58 99.378 160.342 99.392C160.104 99.406 159.292 99.406 158.284 99.392C158.41 99.574 158.536 99.854 158.592 100.036C159.782 100.036 160.44 100.036 160.818 99.924C161.224 99.812 161.35 99.588 161.35 99.112V93.96H160.65ZM164.038 91.384V91.524C163.282 92.35 161.868 93.386 160.65 93.96C160.762 94.058 160.958 94.254 161.056 94.366C162.344 93.736 163.87 92.686 164.836 91.678L164.374 91.342L164.22 91.384H164.038ZM155.218 88.878V91.552H155.89V89.536H166.082V91.552H166.768V88.878H155.218ZM160.09 87.45C160.51 87.996 160.916 88.752 161.07 89.242L161.742 88.976C161.56 88.5 161.14 87.772 160.72 87.226L160.09 87.45Z" fill="#48545D"/>
<line x1="680" y1="90.25" x2="653" y2="90.25" stroke="#D60C18" stroke-width="0.5"/>
<line x1="614.25" y1="62" x2="614.25" y2="76" stroke="#D60C18" stroke-width="0.5"/>
<line x1="461.25" y1="62" x2="461.25" y2="82" stroke="#D60C18" stroke-width="0.5"/>
<path d="M692.69 83.768V91.734H693.684V83.768H692.69ZM689.204 91.286V92.182H696.162V91.286H689.204ZM694.3 87.058V87.94H696.638V87.058H694.3ZM689.862 87.058V87.94H692.102V87.058H689.862ZM689.358 89.326V90.222H692.186V89.326H689.358ZM689.358 85.126V89.942H690.31V85.434L689.358 85.126ZM691.584 84.146C691.024 84.454 690.03 84.902 689.358 85.126L689.848 85.742C690.534 85.56 691.472 85.252 692.242 84.902L691.584 84.146ZM695.896 91.286V91.44C694.762 93.932 691.668 95.248 688.406 95.71C688.588 95.948 688.812 96.368 688.896 96.634C692.354 96.032 695.602 94.59 696.96 91.552L696.288 91.244L696.106 91.286H695.896ZM691.08 92L690.184 92.336C691.598 94.562 694.216 96.046 697.352 96.62C697.506 96.354 697.786 95.92 698.024 95.696C694.944 95.234 692.326 93.918 691.08 92ZM694.202 84.776V85.672H696.204V89.34H694.202V90.236H697.128V84.776H694.202ZM685.032 91.174L685.326 92.182C686.404 91.776 687.776 91.258 689.064 90.754L688.882 89.802C687.468 90.334 686.012 90.866 685.032 91.174ZM685.172 86.568V87.548H688.924V86.568H685.172ZM686.74 83.768V95.29C686.74 95.472 686.684 95.514 686.516 95.528C686.348 95.528 685.844 95.528 685.27 95.514C685.41 95.794 685.536 96.228 685.564 96.508C686.404 96.508 686.922 96.48 687.258 96.298C687.58 96.13 687.72 95.836 687.72 95.29V83.768H686.74ZM701.104 84.44V85.196H708.888V87.688H701.034V88.43H709.924V84.44H701.104ZM706.774 89.9H709.994V91.272H706.774V89.9ZM705.78 89.158V92.014H711.016V89.158H705.78ZM699.284 86.064V86.806H709.406V86.064H699.284ZM709.378 86.008V86.848H711.786V86.008H709.378ZM699.69 89.158V89.942H704.814V89.158H699.69ZM699.144 92.868V93.75H711.856V92.868H699.144ZM707.922 91.888V95.514C707.922 95.724 707.866 95.766 707.614 95.794C707.39 95.794 706.536 95.808 705.612 95.766C705.752 96.032 705.906 96.382 705.962 96.634C707.166 96.634 707.908 96.634 708.37 96.494C708.818 96.354 708.958 96.102 708.958 95.542V91.888H707.922ZM701.734 89.452V91.51H702.714V89.452H701.734ZM699.41 91.44L699.494 92.294C700.978 92.182 703.078 92.014 705.094 91.846V91.062C702.994 91.216 700.838 91.37 699.41 91.44ZM701.468 94.282C702.294 94.758 703.232 95.486 703.666 96.018L704.422 95.346C703.96 94.814 702.98 94.114 702.182 93.666L701.468 94.282ZM713.788 95.5H715.062V87.898H713.788V95.5ZM714.432 86.33C714.922 86.33 715.286 86.008 715.286 85.476C715.286 84.986 714.922 84.664 714.432 84.664C713.928 84.664 713.578 84.986 713.578 85.476C713.578 86.008 713.928 86.33 714.432 86.33ZM720.625 95.696C721.535 95.696 722.417 95.332 723.089 94.73L722.543 93.876C722.067 94.296 721.437 94.632 720.751 94.632C719.351 94.632 718.385 93.456 718.385 91.72C718.385 89.956 719.393 88.78 720.793 88.78C721.381 88.78 721.857 89.046 722.305 89.452L722.949 88.612C722.417 88.122 721.717 87.716 720.723 87.716C718.777 87.716 717.069 89.172 717.069 91.72C717.069 94.226 718.609 95.696 720.625 95.696ZM727.365 95.696C729.227 95.696 730.879 94.226 730.879 91.72C730.879 89.172 729.227 87.716 727.365 87.716C725.489 87.716 723.837 89.172 723.837 91.72C723.837 94.226 725.489 95.696 727.365 95.696ZM727.365 94.632C726.035 94.632 725.153 93.456 725.153 91.72C725.153 89.956 726.035 88.78 727.365 88.78C728.681 88.78 729.563 89.956 729.563 91.72C729.563 93.456 728.681 94.632 727.365 94.632ZM732.901 95.5H734.175V89.984C734.931 89.228 735.477 88.822 736.247 88.822C737.255 88.822 737.689 89.424 737.689 90.852V95.5H738.977V90.684C738.977 88.752 738.249 87.716 736.653 87.716C735.603 87.716 734.819 88.29 734.105 89.004H734.063L733.937 87.898H732.901V95.5Z" fill="black"/>
<path d="M596.618 48.546V49.568H604.626V48.546H596.618ZM604.276 48.546V48.742C604.094 52.9 603.884 54.496 603.506 54.874C603.366 55.028 603.198 55.056 602.918 55.056C602.582 55.056 601.714 55.042 600.79 54.958C600.986 55.266 601.126 55.7 601.14 56.022C602.022 56.064 602.904 56.078 603.366 56.036C603.856 55.994 604.164 55.896 604.444 55.546C604.948 55.014 605.144 53.39 605.34 49.05C605.354 48.91 605.368 48.546 605.368 48.546H604.276ZM599.572 48.826C599.292 51.472 598.732 54.062 595.064 55.28C595.302 55.504 595.61 55.924 595.736 56.19C599.642 54.79 600.37 51.892 600.692 48.826H599.572ZM598.116 43.702C597.444 45.9 596.156 47.776 594.49 48.938C594.742 49.12 595.19 49.498 595.372 49.708C597.024 48.406 598.424 46.39 599.208 43.968L598.116 43.702ZM600.314 43.492V44.472H603.38V43.492H600.314ZM602.372 43.492V44.08H602.666C603.436 46.334 604.962 48.49 606.824 49.68C607.006 49.4 607.356 48.966 607.58 48.742C605.788 47.734 604.276 45.69 603.562 43.492H602.372ZM609.078 43.814V56.092H610.016V44.766H612.242V43.814H609.078ZM611.99 43.814V44.094C611.696 45.046 611.178 46.656 610.66 47.93C611.682 49.05 611.92 50.016 611.92 50.786C611.92 51.206 611.85 51.598 611.64 51.752C611.514 51.836 611.36 51.878 611.192 51.878C610.982 51.906 610.702 51.892 610.38 51.864C610.548 52.13 610.632 52.536 610.646 52.788C610.954 52.802 611.318 52.802 611.584 52.774C611.878 52.732 612.116 52.662 612.312 52.522C612.718 52.228 612.872 51.626 612.872 50.87C612.872 50.002 612.634 48.98 611.626 47.818C612.088 46.698 612.606 45.326 613.012 44.178L612.326 43.772L612.158 43.814H611.99ZM616.876 52.536V55.812H617.772V52.536H616.876ZM615.112 46.348H619.578V47.65H615.112V46.348ZM614.202 45.578V48.434H620.53V45.578H614.202ZM613.474 43.884V44.794H621.314V43.884H613.474ZM615.098 52.284V53.04H619.62V52.284H615.098ZM613.586 49.204V56.12H614.496V50.044H620.488V49.204H613.586ZM620.166 49.204V55.056C620.166 55.21 620.124 55.252 619.97 55.252C619.816 55.266 619.382 55.266 618.864 55.238C618.99 55.504 619.102 55.868 619.144 56.12C619.886 56.12 620.376 56.106 620.698 55.966C621.006 55.798 621.09 55.546 621.09 55.07V49.204H620.166ZM615.308 50.52C615.714 51.066 616.176 51.822 616.386 52.284L617.086 51.948C616.876 51.5 616.4 50.772 615.98 50.24L615.308 50.52ZM618.71 50.268C618.444 50.912 617.926 51.892 617.52 52.48L618.122 52.76C618.542 52.2 619.06 51.332 619.48 50.59L618.71 50.268ZM630.96 43.24C630.834 43.758 630.582 44.528 630.358 45.046L631.24 45.284C631.506 44.836 631.828 44.136 632.136 43.478L630.96 43.24ZM629.308 47.58H633.704V48.826H629.308V47.58ZM629.308 45.564H633.704V46.796H629.308V45.564ZM628.328 44.738V49.666H634.726V44.738H628.328ZM631.128 49.316V54.958C631.128 55.126 631.086 55.168 630.904 55.182C630.722 55.196 630.12 55.196 629.462 55.168C629.602 55.448 629.728 55.854 629.77 56.134C630.68 56.134 631.282 56.134 631.66 55.966C632.024 55.798 632.136 55.504 632.136 54.972V49.316H631.128ZM627.81 50.842V51.724H630.092V50.842H627.81ZM629.868 50.842V50.996C629.462 52.69 628.314 54.09 627.054 54.72C627.25 54.902 627.53 55.238 627.656 55.462C629.098 54.664 630.316 53.152 630.82 51.024L630.204 50.8L630.036 50.842H629.868ZM634.376 50.17C633.886 50.786 632.99 51.654 632.36 52.158L632.948 52.676C633.62 52.2 634.46 51.458 635.174 50.8L634.376 50.17ZM632.08 50.002L631.352 50.198C631.968 52.466 633.158 54.51 634.796 55.518C634.964 55.252 635.272 54.874 635.496 54.692C633.886 53.866 632.668 52.018 632.08 50.002ZM625.794 48.77C626.13 49.75 626.438 51.038 626.55 51.808L627.404 51.542C627.292 50.8 626.942 49.54 626.592 48.574L625.794 48.77ZM624.534 52.368C624.688 53.32 624.828 54.566 624.856 55.392L625.682 55.238C625.64 54.412 625.5 53.194 625.332 52.228L624.534 52.368ZM623.162 52.256C623.036 53.418 622.826 54.692 622.49 55.56C622.714 55.63 623.12 55.77 623.302 55.868C623.596 54.986 623.876 53.628 624.03 52.396L623.162 52.256ZM622.826 48.49C622.826 48.28 623.484 47.944 623.484 47.944V47.916C624.38 46.81 625.304 45.186 626.004 43.632L625.024 43.226C624.478 44.738 623.54 46.334 623.246 46.754C622.966 47.174 622.728 47.468 622.49 47.524C622.602 47.79 622.77 48.28 622.826 48.49ZM622.826 48.49C623.05 48.378 623.428 48.294 625.654 48.042C625.654 47.832 625.696 47.468 625.738 47.188L623.302 47.412L622.798 47.706L622.826 48.49ZM622.91 51.64C622.91 51.43 623.596 51.108 623.596 51.108V51.08C624.912 49.708 626.27 47.79 627.32 45.886L626.396 45.34C625.5 47.23 624.044 49.218 623.61 49.708C623.176 50.226 622.868 50.59 622.574 50.66C622.686 50.926 622.854 51.43 622.91 51.64ZM622.91 51.64C623.19 51.5 623.624 51.402 626.746 50.94C626.732 50.73 626.746 50.352 626.788 50.1L623.386 50.534L622.882 50.856L622.91 51.64ZM625.85 52.102C626.102 52.83 626.396 53.782 626.494 54.398L627.278 54.146C627.152 53.53 626.858 52.606 626.578 51.878L625.85 52.102Z" fill="black"/>
<path d="M426.288 58.206H427.562V55.644L427.534 54.314C428.22 54.874 428.934 55.196 429.62 55.196C431.37 55.196 432.924 53.684 432.924 51.094C432.924 48.742 431.874 47.216 429.9 47.216C429.018 47.216 428.178 47.706 427.492 48.28H427.45L427.324 47.398H426.288V58.206ZM429.424 54.118C428.92 54.118 428.248 53.908 427.562 53.334V49.33C428.304 48.644 428.948 48.28 429.592 48.28C431.034 48.28 431.608 49.414 431.608 51.108C431.608 52.984 430.67 54.118 429.424 54.118ZM436.314 55.196C436.664 55.196 436.86 55.14 437.042 55.084L436.874 54.104C436.72 54.132 436.664 54.132 436.608 54.132C436.412 54.132 436.244 53.978 436.244 53.572V43.87H434.97V53.488C434.97 54.58 435.348 55.196 436.314 55.196ZM440.698 55.196C441.636 55.196 442.49 54.706 443.204 54.104H443.26L443.372 55H444.422V50.338C444.422 48.448 443.638 47.216 441.776 47.216C440.558 47.216 439.494 47.748 438.794 48.196L439.298 49.092C439.886 48.686 440.684 48.266 441.58 48.266C442.826 48.266 443.134 49.204 443.134 50.184C439.9 50.548 438.472 51.374 438.472 53.026C438.472 54.398 439.424 55.196 440.698 55.196ZM441.048 54.16C440.306 54.16 439.718 53.81 439.718 52.942C439.718 51.962 440.572 51.332 443.134 51.038V53.152C442.406 53.81 441.79 54.16 441.048 54.16ZM449.819 55.196C450.729 55.196 451.611 54.832 452.283 54.23L451.737 53.376C451.261 53.796 450.631 54.132 449.945 54.132C448.545 54.132 447.579 52.956 447.579 51.22C447.579 49.456 448.587 48.28 449.987 48.28C450.575 48.28 451.051 48.546 451.499 48.952L452.143 48.112C451.611 47.622 450.911 47.216 449.917 47.216C447.971 47.216 446.263 48.672 446.263 51.22C446.263 53.726 447.803 55.196 449.819 55.196ZM456.67 55.196C457.706 55.196 458.504 54.846 459.176 54.412L458.714 53.558C458.154 53.936 457.552 54.174 456.824 54.174C455.368 54.174 454.388 53.124 454.29 51.514H459.414C459.456 51.318 459.47 51.052 459.47 50.786C459.47 48.602 458.378 47.216 456.446 47.216C454.696 47.216 453.03 48.742 453.03 51.22C453.03 53.712 454.64 55.196 456.67 55.196ZM454.276 50.59C454.444 49.092 455.396 48.238 456.46 48.238C457.664 48.238 458.35 49.064 458.35 50.59H454.276ZM461.356 55H462.63V49.484C463.386 48.728 463.932 48.322 464.702 48.322C465.71 48.322 466.144 48.924 466.144 50.352V55H467.432V50.184C467.432 48.252 466.704 47.216 465.108 47.216C464.058 47.216 463.288 47.79 462.588 48.476L462.63 46.908V43.87H461.356V55ZM472.814 55.196C474.676 55.196 476.328 53.726 476.328 51.22C476.328 48.672 474.676 47.216 472.814 47.216C470.938 47.216 469.286 48.672 469.286 51.22C469.286 53.726 470.938 55.196 472.814 55.196ZM472.814 54.132C471.484 54.132 470.602 52.956 470.602 51.22C470.602 49.456 471.484 48.28 472.814 48.28C474.13 48.28 475.012 49.456 475.012 51.22C475.012 52.956 474.13 54.132 472.814 54.132ZM479.695 55.196C480.045 55.196 480.241 55.14 480.423 55.084L480.255 54.104C480.101 54.132 480.045 54.132 479.989 54.132C479.793 54.132 479.625 53.978 479.625 53.572V43.87H478.351V53.488C478.351 54.58 478.729 55.196 479.695 55.196ZM484.905 55.196C485.829 55.196 486.627 54.706 487.229 54.104H487.257L487.369 55H488.419V43.87H487.145V46.782L487.201 48.098C486.543 47.538 485.955 47.216 485.073 47.216C483.337 47.216 481.769 48.742 481.769 51.22C481.769 53.754 483.001 55.196 484.905 55.196ZM485.185 54.118C483.855 54.118 483.099 53.026 483.099 51.206C483.099 49.47 484.065 48.28 485.283 48.28C485.913 48.28 486.501 48.504 487.145 49.092V53.082C486.515 53.768 485.899 54.118 485.185 54.118ZM494.077 55.196C495.113 55.196 495.911 54.846 496.583 54.412L496.121 53.558C495.561 53.936 494.959 54.174 494.231 54.174C492.775 54.174 491.795 53.124 491.697 51.514H496.821C496.863 51.318 496.877 51.052 496.877 50.786C496.877 48.602 495.785 47.216 493.853 47.216C492.103 47.216 490.437 48.742 490.437 51.22C490.437 53.712 492.047 55.196 494.077 55.196ZM491.683 50.59C491.851 49.092 492.803 48.238 493.867 48.238C495.071 48.238 495.757 49.064 495.757 50.59H491.683ZM498.763 55H500.037V50.128C500.541 48.826 501.325 48.364 501.955 48.364C502.263 48.364 502.431 48.406 502.697 48.49L502.935 47.37C502.683 47.258 502.459 47.216 502.123 47.216C501.269 47.216 500.485 47.818 499.967 48.784H499.925L499.799 47.398H498.763V55Z" fill="black"/>
<path d="M54.112 98.168C55.468 98.168 56.632 97.016 56.632 95.312C56.632 93.464 55.672 92.552 54.184 92.552C53.476 92.552 52.66 92.984 52.12 93.692L52.156 94.568C52.744 93.692 53.452 93.356 54.016 93.356C55.072 93.356 55.6 94.112 55.6 95.312C55.6 96.5 54.952 97.304 54.112 97.304C52.876 97.304 52.192 96.068 52.192 93.812C52.192 90.932 53.224 89.96 54.46 89.96C54.988 89.96 55.528 90.212 55.864 90.62L56.476 89.948C55.996 89.432 55.324 89.048 54.412 89.048C52.708 89.048 51.16 90.368 51.16 93.812C51.16 96.716 52.42 98.168 54.112 98.168ZM60.4923 98.168C62.1483 98.168 63.2162 96.644 63.2162 93.572C63.2162 90.524 62.1483 89.048 60.4923 89.048C58.8123 89.048 57.7443 90.524 57.7443 93.572C57.7443 96.644 58.8123 98.168 60.4923 98.168ZM60.4923 97.28C59.4843 97.28 58.8003 96.164 58.8003 93.572C58.8003 91.016 59.4843 89.924 60.4923 89.924C61.4883 89.924 62.1603 91.016 62.1603 93.572C62.1603 96.164 61.4883 97.28 60.4923 97.28Z" fill="#D60C18"/>
<line x1="49.5" y1="120.5" x2="66.5" y2="120.5" stroke="#939EA7" stroke-linecap="square" stroke-dasharray="2 2"/>
<line x1="49.5" y1="63.5" x2="66.5" y2="63.5" stroke="#939EA7" stroke-linecap="square" stroke-dasharray="2 2"/>
<path d="M390.568 98H391.6V89.204H390.388L386.728 94.856V95.576H392.776V94.712H387.88L389.884 91.712C390.124 91.28 390.364 90.836 390.58 90.404H390.64C390.604 90.86 390.568 91.568 390.568 92.012V98ZM397.224 98H398.256V89.204H397.044L393.384 94.856V95.576H399.432V94.712H394.536L396.54 91.712C396.78 91.28 397.02 90.836 397.236 90.404H397.296C397.26 90.86 397.224 91.568 397.224 92.012V98Z" fill="#D60C18"/>
<line x1="385.5" y1="113.5" x2="402.5" y2="113.5" stroke="#939EA7" stroke-linecap="square" stroke-dasharray="2 2"/>
<line x1="385.5" y1="71.5" x2="402.5" y2="71.5" stroke="#939EA7" stroke-linecap="square" stroke-dasharray="2 2"/>
<path d="M280.056 152H284.88V151.088H283.104V143.204H282.264C281.796 143.492 281.232 143.696 280.44 143.828V144.536H282.012V151.088H280.056V152ZM288.788 152.168C290.264 152.168 291.668 151.064 291.668 149.144C291.668 147.2 290.48 146.336 289.016 146.336C288.488 146.336 288.092 146.468 287.696 146.684L287.924 144.14H291.248V143.204H286.964L286.688 147.32L287.276 147.692C287.78 147.356 288.152 147.164 288.74 147.164C289.832 147.164 290.552 147.92 290.552 149.18C290.552 150.452 289.724 151.256 288.68 151.256C287.672 151.256 287.024 150.788 286.532 150.272L285.98 150.992C286.58 151.592 287.42 152.168 288.788 152.168Z" fill="#D60C18"/>
<path d="M315.056 152H319.88V151.088H318.104V143.204H317.264C316.796 143.492 316.232 143.696 315.44 143.828V144.536H317.012V151.088H315.056V152ZM323.788 152.168C325.264 152.168 326.668 151.064 326.668 149.144C326.668 147.2 325.48 146.336 324.016 146.336C323.488 146.336 323.092 146.468 322.696 146.684L322.924 144.14H326.248V143.204H321.964L321.688 147.32L322.276 147.692C322.78 147.356 323.152 147.164 323.74 147.164C324.832 147.164 325.552 147.92 325.552 149.18C325.552 150.452 324.724 151.256 323.68 151.256C322.672 151.256 322.024 150.788 321.532 150.272L320.98 150.992C321.58 151.592 322.42 152.168 323.788 152.168Z" fill="#D60C18"/>
<line x1="292.5" y1="139.5" x2="292.5" y2="122.5" stroke="#939EA7" stroke-linecap="square" stroke-dasharray="2 2"/>
<line x1="279.5" y1="139.5" x2="279.5" y2="122.5" stroke="#939EA7" stroke-linecap="square" stroke-dasharray="2 2"/>
<line x1="327.5" y1="139.5" x2="327.5" y2="122.5" stroke="#939EA7" stroke-linecap="square" stroke-dasharray="2 2"/>
<line x1="314.5" y1="139.5" x2="314.5" y2="122.5" stroke="#939EA7" stroke-linecap="square" stroke-dasharray="2 2"/>
<defs>
<clipPath id="clip0_22_62">
<rect width="20" height="20" fill="white" transform="translate(628 82)"/>
</clipPath>
<clipPath id="clip1_22_62">
<rect width="20" height="20" fill="white" transform="translate(293 82)"/>
</clipPath>
</defs>
</svg>
