<svg width="358" height="312" viewBox="0 0 358 312" fill="none" xmlns="http://www.w3.org/2000/svg">
<rect x="58.5" y="204.5" width="259" height="43" fill="white" stroke="#EEEEEE"/>
<g clip-path="url(#clip0_22_128)">
<path d="M302.744 234.446L300.816 232.522L298.267 229.971C298.926 229.155 299.422 228.24 299.745 227.249C300.089 226.194 300.224 225.095 300.147 223.982C300.069 222.87 299.782 221.801 299.295 220.804C298.789 219.771 298.091 218.862 297.215 218.102C296.339 217.341 295.342 216.774 294.249 216.418C293.193 216.07 292.095 215.936 290.982 216.014C289.87 216.092 288.8 216.379 287.803 216.866C286.771 217.372 285.862 218.072 285.102 218.946C284.341 219.82 283.774 220.819 283.418 221.912C283.07 222.968 282.935 224.067 283.014 225.179C283.092 226.291 283.379 227.361 283.866 228.358C284.372 229.39 285.07 230.299 285.946 231.06C287.508 232.418 289.51 233.165 291.581 233.165C293.54 233.165 295.448 232.491 296.971 231.263L301.446 235.736C301.618 235.91 301.848 236.006 302.095 236.008H302.097C302.341 236.008 302.578 235.908 302.746 235.734C303.096 235.382 303.096 234.802 302.744 234.446L302.744 234.446ZM298.325 224.588C298.325 225.5 298.147 226.381 297.796 227.212C297.455 228.016 296.971 228.737 296.351 229.355C295.731 229.975 295.01 230.459 294.208 230.8C293.377 231.152 292.494 231.329 291.584 231.329C290.673 231.329 289.792 231.15 288.961 230.798C288.157 230.457 287.438 229.971 286.818 229.353C286.198 228.733 285.713 228.012 285.373 227.21C285.021 226.379 284.844 225.498 284.842 224.587C284.842 223.675 285.019 222.794 285.371 221.963C285.712 221.159 286.196 220.438 286.816 219.82C287.436 219.2 288.157 218.714 288.959 218.375C289.79 218.023 290.673 217.846 291.582 217.846C292.494 217.846 293.375 218.023 294.206 218.375C295.01 218.716 295.731 219.2 296.349 219.82C296.969 220.44 297.453 221.161 297.794 221.963C298.147 222.796 298.325 223.677 298.325 224.588V224.588Z" fill="black"/>
</g>
<line x1="268.5" y1="216" x2="268.5" y2="236" stroke="#D3D5D7"/>
<path d="M79.768 222.528V223.102H87.272V222.528H79.768ZM80.118 224.166V224.712H87.006V224.166H80.118ZM79.642 225.86V226.448H87.384V225.86H79.642ZM83.114 221.324V226.168H83.758V221.324H83.114ZM85.83 227.442V233.21C85.83 233.364 85.788 233.42 85.606 233.42C85.424 233.434 84.864 233.434 84.15 233.406C84.262 233.588 84.346 233.84 84.388 234.008C85.242 234.008 85.788 234.008 86.096 233.91C86.39 233.798 86.474 233.602 86.474 233.196V227.442H85.83ZM80.888 229.276V229.836H86.222V229.276H80.888ZM80.888 231.11V231.656H86.222V231.11H80.888ZM80.566 227.442V230.06C80.566 231.208 80.468 232.664 79.628 233.784C79.782 233.854 80.02 234.092 80.104 234.232C81.042 233.042 81.21 231.334 81.21 230.06V227.442H80.566ZM80.93 227.442V228.016H86.11V227.442H80.93ZM74.994 225.412V226H78.998V225.412H74.994ZM75.428 229.206V229.808H78.34V232.594H75.428V233.196H78.956V229.206H75.428ZM75.106 229.206V233.882H75.722V229.206H75.106ZM75.008 227.316V227.904H79.026V227.316H75.008ZM74.686 223.704V224.306H79.446V223.704H74.686ZM76.464 221.534C76.73 222.122 77.038 222.906 77.164 223.41L77.766 223.172C77.626 222.682 77.318 221.912 77.024 221.338L76.464 221.534ZM95.686 224.81V225.37H99.578V224.81H95.686ZM94.874 228.534V229.108H97.142V228.534H94.874ZM94.818 230.606V231.18H97.1V230.606H94.818ZM98.57 226.784V231.81H99.116V226.784H98.57ZM96.932 226.532V233.196C96.932 233.336 96.89 233.364 96.75 233.378C96.624 233.378 96.176 233.392 95.644 233.378C95.742 233.532 95.826 233.784 95.854 233.938C96.526 233.938 96.932 233.938 97.184 233.826C97.436 233.728 97.506 233.546 97.506 233.196V226.532H96.932ZM100.264 226.322V233.126C100.264 233.294 100.208 233.336 100.054 233.35C99.872 233.35 99.326 233.35 98.64 233.336C98.738 233.504 98.822 233.742 98.85 233.896C99.69 233.896 100.18 233.896 100.474 233.798C100.754 233.686 100.838 233.504 100.838 233.126V226.322H100.264ZM97.562 221.226C96.792 222.696 95.364 224.138 93.88 224.936C94.034 225.048 94.23 225.258 94.342 225.398C95.868 224.516 97.324 223.018 98.15 221.436L97.562 221.226ZM97.786 221.73L97.254 221.926C98.262 223.466 99.508 224.502 100.964 225.384C101.076 225.188 101.272 224.992 101.426 224.866C100.012 224.082 98.752 223.144 97.786 221.73ZM94.804 226.532V227.106H97.086V226.532H94.804ZM94.538 226.532V229.472C94.538 230.732 94.44 232.384 93.684 233.616C93.824 233.7 94.034 233.91 94.132 234.022C94.972 232.678 95.112 230.844 95.112 229.486V226.532H94.538ZM88.812 222.906V223.536H93.796V222.906H88.812ZM88.672 230.928V231.544H93.838V230.928H88.672ZM91.052 221.324V225.104H91.654V221.324H91.052ZM91.08 225.034V229.206H91.038V234.022H91.668V229.206H91.626V225.034H91.08ZM89.722 227.484H92.942V229.108H89.722V227.484ZM89.722 225.328H92.942V226.938H89.722V225.328ZM89.134 224.754V229.682H93.516V224.754H89.134ZM105.164 222.22V222.892H109.126V222.22H105.164ZM108.776 222.22C108.776 224.712 109.14 230.508 114.894 233.994C115.02 233.84 115.3 233.574 115.454 233.462C109.728 230.032 109.448 224.614 109.448 222.22H108.776ZM108.496 224.768C107.572 228.884 105.794 231.768 102.574 233.476C102.756 233.616 103.064 233.882 103.19 234.022C106.382 232.16 108.216 229.248 109.238 224.908L108.496 224.768ZM121.502 228.604C121.824 229.108 122.188 229.78 122.37 230.186L122.804 229.962C122.622 229.598 122.244 228.94 121.922 228.45L121.502 228.604ZM123.49 230.186V233.812H124.064V230.186H123.49ZM119.724 230.382V232.272H122.076V231.754H120.256V230.382H119.724ZM121.866 230.186V231.39C121.866 232.188 121.67 233 120.06 233.504C120.2 233.602 120.382 233.812 120.452 233.952C122.188 233.322 122.426 232.412 122.426 231.39V230.186H121.866ZM117.666 223.788V224.334H121.838V223.788H117.666ZM124.092 223.788V224.334H128.418V223.788H124.092ZM128.124 221.968V233.084C128.124 233.266 128.068 233.336 127.886 233.336C127.69 233.35 127.088 233.35 126.402 233.336C126.514 233.532 126.598 233.854 126.654 234.036C127.48 234.036 128.068 234.022 128.376 233.91C128.698 233.784 128.796 233.546 128.796 233.07V221.968H128.124ZM117.708 221.968V222.514H121.6V225.552H117.708V226.112H122.244V221.968H117.708ZM128.446 221.968H123.7V226.112H128.446V225.552H124.344V222.514H128.446V221.968ZM117.288 221.968V234.064H117.946V221.968H117.288ZM119.304 228.38C119.304 228.226 119.738 228.03 119.738 228.03V228.016C120.214 227.638 120.746 227.036 121.222 226.336L120.676 226.084C120.34 226.728 119.738 227.4 119.57 227.554C119.416 227.694 119.262 227.778 119.108 227.806C119.192 227.96 119.262 228.254 119.304 228.38ZM119.304 228.38C119.444 228.31 119.752 228.254 121.376 228.156C121.418 228.044 121.502 227.834 121.572 227.694L119.654 227.778L119.304 227.946V228.38ZM119.22 230.018C119.22 229.864 119.654 229.71 119.654 229.71V229.696C120.578 229.108 121.53 228.226 122.426 227.26L121.95 226.952C121.208 227.904 120.116 228.842 119.794 229.066C119.5 229.29 119.248 229.444 119.038 229.458C119.108 229.612 119.192 229.892 119.22 230.018ZM119.22 230.018C119.402 229.948 119.752 229.892 122.272 229.668C122.244 229.556 122.202 229.346 122.188 229.22L119.556 229.402L119.206 229.598L119.22 230.018ZM125.366 228.618C125.674 229.108 126.052 229.78 126.234 230.186L126.682 229.962C126.486 229.584 126.108 228.94 125.772 228.45L125.366 228.618ZM123.182 228.38C123.182 228.226 123.63 228.044 123.63 228.044V228.03C124.106 227.652 124.638 227.036 125.1 226.35L124.582 226.084C124.232 226.742 123.616 227.4 123.462 227.568C123.308 227.708 123.168 227.792 123 227.806C123.07 227.96 123.154 228.254 123.182 228.38ZM123.182 228.38C123.35 228.31 123.63 228.268 125.282 228.17C125.31 228.044 125.394 227.834 125.464 227.694L123.532 227.778L123.182 227.946V228.38ZM123.098 230.032C123.098 229.878 123.546 229.724 123.546 229.724V229.696C124.47 229.108 125.436 228.226 126.318 227.26L125.842 226.952C125.086 227.89 124.008 228.842 123.686 229.066C123.392 229.304 123.14 229.444 122.93 229.472C123 229.626 123.084 229.892 123.098 230.032ZM123.098 230.032C123.308 229.948 123.644 229.892 126.164 229.682C126.136 229.556 126.094 229.346 126.08 229.22L123.448 229.402L123.098 229.598V230.032ZM123.84 231.754V232.272H126.024V231.754H123.84ZM125.702 230.396V232.72H126.248V230.396H125.702ZM131.498 224.922V225.524H134.69V224.922H131.498ZM130.756 227.344V227.96H134.914V227.344H130.756ZM131.204 228.968C131.428 229.836 131.638 230.942 131.694 231.684L132.17 231.516C132.128 230.788 131.918 229.668 131.68 228.814L131.204 228.968ZM130.658 232.902L130.812 233.532C131.946 233.224 133.57 232.748 135.096 232.314L135.068 231.726C133.402 232.188 131.722 232.636 130.658 232.902ZM134.34 228.646C134.2 229.444 133.92 230.634 133.724 231.348L134.13 231.558C134.368 230.872 134.634 229.794 134.858 228.898L134.34 228.646ZM132.772 225.202V232.72L133.29 232.65V225.202H132.772ZM132.996 221.254C132.436 222.682 131.456 224.026 130.504 224.88C130.602 225.034 130.77 225.384 130.812 225.552C131.82 224.572 132.828 223.074 133.458 221.506L132.996 221.254ZM132.702 222.416C133.472 223.088 134.34 223.998 134.858 224.67L135.18 224.096C134.648 223.452 133.78 222.584 132.982 221.912L132.702 222.416ZM139.856 221.338V232.734H140.444V221.338H139.856ZM137.742 224.404V224.978H143.468V224.404H137.742ZM137.602 230.172V230.746H143.174V230.172H137.602ZM137.966 228.198V228.786H142.824V228.198H137.966ZM135.026 222.234V222.878H137.266V222.234H135.026ZM137.084 226.336V226.476C136.79 230.326 135.726 232.524 134.074 233.602C134.2 233.714 134.368 233.924 134.438 234.064C136.244 232.832 137.322 230.606 137.644 226.378L137.308 226.308L137.21 226.336H137.084ZM135.712 228.366L135.194 228.576C136.342 233.126 138.778 233.868 141.578 233.868H143.16C143.188 233.7 143.3 233.42 143.398 233.252C143.006 233.252 141.886 233.252 141.606 233.252C139.1 233.252 136.706 232.58 135.712 228.366ZM138.008 222.5V223.046H142.012V226.35H138.008V226.91H142.572V222.5H138.008ZM135.502 226.336L135.278 226.952H137.224V226.336H135.502ZM135.18 227.176C135.18 227.008 135.684 226.798 135.684 226.798V226.784C136.398 225.678 137.126 224.04 137.714 222.388L137.294 222.122L137.042 222.248V222.304C136.636 223.788 135.838 225.412 135.6 225.818C135.362 226.252 135.096 226.602 134.886 226.63C134.984 226.77 135.124 227.036 135.18 227.176ZM147.248 225.384V226.014H154.234V225.384H147.248ZM145.008 228.912V229.57H156.95V228.912H145.008ZM150.65 227.96V233.112C150.65 233.308 150.58 233.378 150.342 233.392C150.104 233.406 149.292 233.406 148.284 233.392C148.41 233.574 148.536 233.854 148.592 234.036C149.782 234.036 150.44 234.036 150.818 233.924C151.224 233.812 151.35 233.588 151.35 233.112V227.96H150.65ZM154.038 225.384V225.524C153.282 226.35 151.868 227.386 150.65 227.96C150.762 228.058 150.958 228.254 151.056 228.366C152.344 227.736 153.87 226.686 154.836 225.678L154.374 225.342L154.22 225.384H154.038ZM145.218 222.878V225.552H145.89V223.536H156.082V225.552H156.768V222.878H145.218ZM150.09 221.45C150.51 221.996 150.916 222.752 151.07 223.242L151.742 222.976C151.56 222.5 151.14 221.772 150.72 221.226L150.09 221.45Z" fill="#48545D"/>
<line x1="292.75" y1="259" x2="292.75" y2="241" stroke="#D60C18" stroke-width="0.5"/>
<line x1="269.25" y1="196" x2="269.25" y2="210" stroke="#D60C18" stroke-width="0.5"/>
<line x1="116.25" y1="196" x2="116.25" y2="216" stroke="#D60C18" stroke-width="0.5"/>
<path d="M270.19 266.268V274.234H271.184V266.268H270.19ZM266.704 273.786V274.682H273.662V273.786H266.704ZM271.8 269.558V270.44H274.138V269.558H271.8ZM267.362 269.558V270.44H269.602V269.558H267.362ZM266.858 271.826V272.722H269.686V271.826H266.858ZM266.858 267.626V272.442H267.81V267.934L266.858 267.626ZM269.084 266.646C268.524 266.954 267.53 267.402 266.858 267.626L267.348 268.242C268.034 268.06 268.972 267.752 269.742 267.402L269.084 266.646ZM273.396 273.786V273.94C272.262 276.432 269.168 277.748 265.906 278.21C266.088 278.448 266.312 278.868 266.396 279.134C269.854 278.532 273.102 277.09 274.46 274.052L273.788 273.744L273.606 273.786H273.396ZM268.58 274.5L267.684 274.836C269.098 277.062 271.716 278.546 274.852 279.12C275.006 278.854 275.286 278.42 275.524 278.196C272.444 277.734 269.826 276.418 268.58 274.5ZM271.702 267.276V268.172H273.704V271.84H271.702V272.736H274.628V267.276H271.702ZM262.532 273.674L262.826 274.682C263.904 274.276 265.276 273.758 266.564 273.254L266.382 272.302C264.968 272.834 263.512 273.366 262.532 273.674ZM262.672 269.068V270.048H266.424V269.068H262.672ZM264.24 266.268V277.79C264.24 277.972 264.184 278.014 264.016 278.028C263.848 278.028 263.344 278.028 262.77 278.014C262.91 278.294 263.036 278.728 263.064 279.008C263.904 279.008 264.422 278.98 264.758 278.798C265.08 278.63 265.22 278.336 265.22 277.79V266.268H264.24ZM278.604 266.94V267.696H286.388V270.188H278.534V270.93H287.424V266.94H278.604ZM284.274 272.4H287.494V273.772H284.274V272.4ZM283.28 271.658V274.514H288.516V271.658H283.28ZM276.784 268.564V269.306H286.906V268.564H276.784ZM286.878 268.508V269.348H289.286V268.508H286.878ZM277.19 271.658V272.442H282.314V271.658H277.19ZM276.644 275.368V276.25H289.356V275.368H276.644ZM285.422 274.388V278.014C285.422 278.224 285.366 278.266 285.114 278.294C284.89 278.294 284.036 278.308 283.112 278.266C283.252 278.532 283.406 278.882 283.462 279.134C284.666 279.134 285.408 279.134 285.87 278.994C286.318 278.854 286.458 278.602 286.458 278.042V274.388H285.422ZM279.234 271.952V274.01H280.214V271.952H279.234ZM276.91 273.94L276.994 274.794C278.478 274.682 280.578 274.514 282.594 274.346V273.562C280.494 273.716 278.338 273.87 276.91 273.94ZM278.968 276.782C279.794 277.258 280.732 277.986 281.166 278.518L281.922 277.846C281.46 277.314 280.48 276.614 279.682 276.166L278.968 276.782ZM291.288 278H292.562V270.398H291.288V278ZM291.932 268.83C292.422 268.83 292.786 268.508 292.786 267.976C292.786 267.486 292.422 267.164 291.932 267.164C291.428 267.164 291.078 267.486 291.078 267.976C291.078 268.508 291.428 268.83 291.932 268.83ZM298.125 278.196C299.035 278.196 299.917 277.832 300.589 277.23L300.043 276.376C299.567 276.796 298.937 277.132 298.251 277.132C296.851 277.132 295.885 275.956 295.885 274.22C295.885 272.456 296.893 271.28 298.293 271.28C298.881 271.28 299.357 271.546 299.805 271.952L300.449 271.112C299.917 270.622 299.217 270.216 298.223 270.216C296.277 270.216 294.569 271.672 294.569 274.22C294.569 276.726 296.109 278.196 298.125 278.196ZM304.865 278.196C306.727 278.196 308.379 276.726 308.379 274.22C308.379 271.672 306.727 270.216 304.865 270.216C302.989 270.216 301.337 271.672 301.337 274.22C301.337 276.726 302.989 278.196 304.865 278.196ZM304.865 277.132C303.535 277.132 302.653 275.956 302.653 274.22C302.653 272.456 303.535 271.28 304.865 271.28C306.181 271.28 307.063 272.456 307.063 274.22C307.063 275.956 306.181 277.132 304.865 277.132ZM310.401 278H311.675V272.484C312.431 271.728 312.977 271.322 313.747 271.322C314.755 271.322 315.189 271.924 315.189 273.352V278H316.477V273.184C316.477 271.252 315.749 270.216 314.153 270.216C313.103 270.216 312.319 270.79 311.605 271.504H311.563L311.437 270.398H310.401V278Z" fill="black"/>
<path d="M251.618 182.546V183.568H259.626V182.546H251.618ZM259.276 182.546V182.742C259.094 186.9 258.884 188.496 258.506 188.874C258.366 189.028 258.198 189.056 257.918 189.056C257.582 189.056 256.714 189.042 255.79 188.958C255.986 189.266 256.126 189.7 256.14 190.022C257.022 190.064 257.904 190.078 258.366 190.036C258.856 189.994 259.164 189.896 259.444 189.546C259.948 189.014 260.144 187.39 260.34 183.05C260.354 182.91 260.368 182.546 260.368 182.546H259.276ZM254.572 182.826C254.292 185.472 253.732 188.062 250.064 189.28C250.302 189.504 250.61 189.924 250.736 190.19C254.642 188.79 255.37 185.892 255.692 182.826H254.572ZM253.116 177.702C252.444 179.9 251.156 181.776 249.49 182.938C249.742 183.12 250.19 183.498 250.372 183.708C252.024 182.406 253.424 180.39 254.208 177.968L253.116 177.702ZM255.314 177.492V178.472H258.38V177.492H255.314ZM257.372 177.492V178.08H257.666C258.436 180.334 259.962 182.49 261.824 183.68C262.006 183.4 262.356 182.966 262.58 182.742C260.788 181.734 259.276 179.69 258.562 177.492H257.372ZM264.078 177.814V190.092H265.016V178.766H267.242V177.814H264.078ZM266.99 177.814V178.094C266.696 179.046 266.178 180.656 265.66 181.93C266.682 183.05 266.92 184.016 266.92 184.786C266.92 185.206 266.85 185.598 266.64 185.752C266.514 185.836 266.36 185.878 266.192 185.878C265.982 185.906 265.702 185.892 265.38 185.864C265.548 186.13 265.632 186.536 265.646 186.788C265.954 186.802 266.318 186.802 266.584 186.774C266.878 186.732 267.116 186.662 267.312 186.522C267.718 186.228 267.872 185.626 267.872 184.87C267.872 184.002 267.634 182.98 266.626 181.818C267.088 180.698 267.606 179.326 268.012 178.178L267.326 177.772L267.158 177.814H266.99ZM271.876 186.536V189.812H272.772V186.536H271.876ZM270.112 180.348H274.578V181.65H270.112V180.348ZM269.202 179.578V182.434H275.53V179.578H269.202ZM268.474 177.884V178.794H276.314V177.884H268.474ZM270.098 186.284V187.04H274.62V186.284H270.098ZM268.586 183.204V190.12H269.496V184.044H275.488V183.204H268.586ZM275.166 183.204V189.056C275.166 189.21 275.124 189.252 274.97 189.252C274.816 189.266 274.382 189.266 273.864 189.238C273.99 189.504 274.102 189.868 274.144 190.12C274.886 190.12 275.376 190.106 275.698 189.966C276.006 189.798 276.09 189.546 276.09 189.07V183.204H275.166ZM270.308 184.52C270.714 185.066 271.176 185.822 271.386 186.284L272.086 185.948C271.876 185.5 271.4 184.772 270.98 184.24L270.308 184.52ZM273.71 184.268C273.444 184.912 272.926 185.892 272.52 186.48L273.122 186.76C273.542 186.2 274.06 185.332 274.48 184.59L273.71 184.268ZM285.96 177.24C285.834 177.758 285.582 178.528 285.358 179.046L286.24 179.284C286.506 178.836 286.828 178.136 287.136 177.478L285.96 177.24ZM284.308 181.58H288.704V182.826H284.308V181.58ZM284.308 179.564H288.704V180.796H284.308V179.564ZM283.328 178.738V183.666H289.726V178.738H283.328ZM286.128 183.316V188.958C286.128 189.126 286.086 189.168 285.904 189.182C285.722 189.196 285.12 189.196 284.462 189.168C284.602 189.448 284.728 189.854 284.77 190.134C285.68 190.134 286.282 190.134 286.66 189.966C287.024 189.798 287.136 189.504 287.136 188.972V183.316H286.128ZM282.81 184.842V185.724H285.092V184.842H282.81ZM284.868 184.842V184.996C284.462 186.69 283.314 188.09 282.054 188.72C282.25 188.902 282.53 189.238 282.656 189.462C284.098 188.664 285.316 187.152 285.82 185.024L285.204 184.8L285.036 184.842H284.868ZM289.376 184.17C288.886 184.786 287.99 185.654 287.36 186.158L287.948 186.676C288.62 186.2 289.46 185.458 290.174 184.8L289.376 184.17ZM287.08 184.002L286.352 184.198C286.968 186.466 288.158 188.51 289.796 189.518C289.964 189.252 290.272 188.874 290.496 188.692C288.886 187.866 287.668 186.018 287.08 184.002ZM280.794 182.77C281.13 183.75 281.438 185.038 281.55 185.808L282.404 185.542C282.292 184.8 281.942 183.54 281.592 182.574L280.794 182.77ZM279.534 186.368C279.688 187.32 279.828 188.566 279.856 189.392L280.682 189.238C280.64 188.412 280.5 187.194 280.332 186.228L279.534 186.368ZM278.162 186.256C278.036 187.418 277.826 188.692 277.49 189.56C277.714 189.63 278.12 189.77 278.302 189.868C278.596 188.986 278.876 187.628 279.03 186.396L278.162 186.256ZM277.826 182.49C277.826 182.28 278.484 181.944 278.484 181.944V181.916C279.38 180.81 280.304 179.186 281.004 177.632L280.024 177.226C279.478 178.738 278.54 180.334 278.246 180.754C277.966 181.174 277.728 181.468 277.49 181.524C277.602 181.79 277.77 182.28 277.826 182.49ZM277.826 182.49C278.05 182.378 278.428 182.294 280.654 182.042C280.654 181.832 280.696 181.468 280.738 181.188L278.302 181.412L277.798 181.706L277.826 182.49ZM277.91 185.64C277.91 185.43 278.596 185.108 278.596 185.108V185.08C279.912 183.708 281.27 181.79 282.32 179.886L281.396 179.34C280.5 181.23 279.044 183.218 278.61 183.708C278.176 184.226 277.868 184.59 277.574 184.66C277.686 184.926 277.854 185.43 277.91 185.64ZM277.91 185.64C278.19 185.5 278.624 185.402 281.746 184.94C281.732 184.73 281.746 184.352 281.788 184.1L278.386 184.534L277.882 184.856L277.91 185.64ZM280.85 186.102C281.102 186.83 281.396 187.782 281.494 188.398L282.278 188.146C282.152 187.53 281.858 186.606 281.578 185.878L280.85 186.102Z" fill="black"/>
<path d="M81.288 192.206H82.562V189.644L82.534 188.314C83.22 188.874 83.934 189.196 84.62 189.196C86.37 189.196 87.924 187.684 87.924 185.094C87.924 182.742 86.874 181.216 84.9 181.216C84.018 181.216 83.178 181.706 82.492 182.28H82.45L82.324 181.398H81.288V192.206ZM84.424 188.118C83.92 188.118 83.248 187.908 82.562 187.334V183.33C83.304 182.644 83.948 182.28 84.592 182.28C86.034 182.28 86.608 183.414 86.608 185.108C86.608 186.984 85.67 188.118 84.424 188.118ZM91.3136 189.196C91.6636 189.196 91.8596 189.14 92.0416 189.084L91.8736 188.104C91.7196 188.132 91.6636 188.132 91.6076 188.132C91.4116 188.132 91.2436 187.978 91.2436 187.572V177.87H89.9696V187.488C89.9696 188.58 90.3476 189.196 91.3136 189.196ZM95.6982 189.196C96.6362 189.196 97.4902 188.706 98.2042 188.104H98.2602L98.3722 189H99.4222V184.338C99.4222 182.448 98.6382 181.216 96.7762 181.216C95.5582 181.216 94.4942 181.748 93.7942 182.196L94.2982 183.092C94.8862 182.686 95.6842 182.266 96.5802 182.266C97.8262 182.266 98.1342 183.204 98.1342 184.184C94.9002 184.548 93.4722 185.374 93.4722 187.026C93.4722 188.398 94.4242 189.196 95.6982 189.196ZM96.0482 188.16C95.3062 188.16 94.7182 187.81 94.7182 186.942C94.7182 185.962 95.5722 185.332 98.1342 185.038V187.152C97.4062 187.81 96.7902 188.16 96.0482 188.16ZM104.819 189.196C105.729 189.196 106.611 188.832 107.283 188.23L106.737 187.376C106.261 187.796 105.631 188.132 104.945 188.132C103.545 188.132 102.579 186.956 102.579 185.22C102.579 183.456 103.587 182.28 104.987 182.28C105.575 182.28 106.051 182.546 106.499 182.952L107.143 182.112C106.611 181.622 105.911 181.216 104.917 181.216C102.971 181.216 101.263 182.672 101.263 185.22C101.263 187.726 102.803 189.196 104.819 189.196ZM111.67 189.196C112.706 189.196 113.504 188.846 114.176 188.412L113.714 187.558C113.154 187.936 112.552 188.174 111.824 188.174C110.368 188.174 109.388 187.124 109.29 185.514H114.414C114.456 185.318 114.47 185.052 114.47 184.786C114.47 182.602 113.378 181.216 111.446 181.216C109.696 181.216 108.03 182.742 108.03 185.22C108.03 187.712 109.64 189.196 111.67 189.196ZM109.276 184.59C109.444 183.092 110.396 182.238 111.46 182.238C112.664 182.238 113.35 183.064 113.35 184.59H109.276ZM116.356 189H117.63V183.484C118.386 182.728 118.932 182.322 119.702 182.322C120.71 182.322 121.144 182.924 121.144 184.352V189H122.432V184.184C122.432 182.252 121.704 181.216 120.108 181.216C119.058 181.216 118.288 181.79 117.588 182.476L117.63 180.908V177.87H116.356V189ZM127.814 189.196C129.676 189.196 131.328 187.726 131.328 185.22C131.328 182.672 129.676 181.216 127.814 181.216C125.938 181.216 124.286 182.672 124.286 185.22C124.286 187.726 125.938 189.196 127.814 189.196ZM127.814 188.132C126.484 188.132 125.602 186.956 125.602 185.22C125.602 183.456 126.484 182.28 127.814 182.28C129.13 182.28 130.012 183.456 130.012 185.22C130.012 186.956 129.13 188.132 127.814 188.132ZM134.695 189.196C135.045 189.196 135.241 189.14 135.423 189.084L135.255 188.104C135.101 188.132 135.045 188.132 134.989 188.132C134.793 188.132 134.625 187.978 134.625 187.572V177.87H133.351V187.488C133.351 188.58 133.729 189.196 134.695 189.196ZM139.905 189.196C140.829 189.196 141.627 188.706 142.229 188.104H142.257L142.369 189H143.419V177.87H142.145V180.782L142.201 182.098C141.543 181.538 140.955 181.216 140.073 181.216C138.337 181.216 136.769 182.742 136.769 185.22C136.769 187.754 138.001 189.196 139.905 189.196ZM140.185 188.118C138.855 188.118 138.099 187.026 138.099 185.206C138.099 183.47 139.065 182.28 140.283 182.28C140.913 182.28 141.501 182.504 142.145 183.092V187.082C141.515 187.768 140.899 188.118 140.185 188.118ZM149.077 189.196C150.113 189.196 150.911 188.846 151.583 188.412L151.121 187.558C150.561 187.936 149.959 188.174 149.231 188.174C147.775 188.174 146.795 187.124 146.697 185.514H151.821C151.863 185.318 151.877 185.052 151.877 184.786C151.877 182.602 150.785 181.216 148.853 181.216C147.103 181.216 145.437 182.742 145.437 185.22C145.437 187.712 147.047 189.196 149.077 189.196ZM146.683 184.59C146.851 183.092 147.803 182.238 148.867 182.238C150.071 182.238 150.757 183.064 150.757 184.59H146.683ZM153.763 189H155.037V184.128C155.541 182.826 156.325 182.364 156.955 182.364C157.263 182.364 157.431 182.406 157.697 182.49L157.935 181.37C157.683 181.258 157.459 181.216 157.123 181.216C156.269 181.216 155.485 181.818 154.967 182.784H154.925L154.799 181.398H153.763V189Z" fill="black"/>
<path d="M45.568 232H46.6V223.204H45.388L41.728 228.856V229.576H47.776V228.712H42.88L44.884 225.712C45.124 225.28 45.364 224.836 45.58 224.404H45.64C45.604 224.86 45.568 225.568 45.568 226.012V232ZM52.2243 232H53.2563V223.204H52.0443L48.3843 228.856V229.576H54.4323V228.712H49.5363L51.5403 225.712C51.7803 225.28 52.0203 224.836 52.2363 224.404H52.2963C52.2603 224.86 52.2243 225.568 52.2243 226.012V232Z" fill="#D60C18"/>
<line x1="40.5" y1="247.5" x2="57.5" y2="247.5" stroke="#939EA7" stroke-linecap="square" stroke-dasharray="2 2"/>
<line x1="40.5" y1="205.5" x2="57.5" y2="205.5" stroke="#939EA7" stroke-linecap="square" stroke-dasharray="2 2"/>
<rect x="59.5" y="40.5" width="259" height="59" fill="white" stroke="#EEEEEE"/>
<g clip-path="url(#clip1_22_128)">
<path d="M303.744 78.4458L301.816 76.522L299.267 73.9707C299.926 73.1554 300.422 72.2405 300.745 71.2493C301.089 70.1936 301.224 69.0948 301.147 67.9824C301.069 66.87 300.782 65.8006 300.295 64.8035C299.789 63.7713 299.091 62.8622 298.215 62.1017C297.339 61.3412 296.342 60.7742 295.249 60.4184C294.193 60.0704 293.095 59.9355 291.982 60.0137C290.87 60.0919 289.8 60.3793 288.803 60.8661C287.771 61.3725 286.862 62.0724 286.102 62.9463C285.341 63.8202 284.774 64.8192 284.418 65.9121C284.07 66.9678 283.935 68.0665 284.014 69.1789C284.092 70.2913 284.379 71.3607 284.866 72.3578C285.372 73.3901 286.07 74.2991 286.946 75.0596C288.508 76.4184 290.51 77.1652 292.581 77.1652C294.54 77.1652 296.448 76.4907 297.971 75.263L302.446 79.7361C302.618 79.9101 302.848 80.0059 303.095 80.0078H303.097C303.341 80.0078 303.578 79.9081 303.746 79.7341C304.096 79.3822 304.096 78.8016 303.744 78.4458L303.744 78.4458ZM299.325 68.5885C299.325 69.4995 299.147 70.3812 298.796 71.2121C298.455 72.0156 297.971 72.7371 297.351 73.3548C296.731 73.9746 296.01 74.4594 295.208 74.7996C294.377 75.1515 293.494 75.3294 292.584 75.3294C291.673 75.3294 290.792 75.1495 289.961 74.7976C289.157 74.4575 288.438 73.9707 287.818 73.3529C287.198 72.7331 286.713 72.0117 286.373 71.2102C286.021 70.3793 285.844 69.4975 285.842 68.5865C285.842 67.6754 286.019 66.7937 286.371 65.9629C286.712 65.1593 287.196 64.4379 287.816 63.8201C288.436 63.2004 289.157 62.7136 289.959 62.3754C290.79 62.0235 291.673 61.8456 292.582 61.8456C293.494 61.8456 294.375 62.0235 295.206 62.3754C296.01 62.7155 296.731 63.2004 297.349 63.8201C297.969 64.4399 298.453 65.1613 298.794 65.9629C299.147 66.7957 299.325 67.6774 299.325 68.5885V68.5885Z" fill="black"/>
</g>
<line x1="269.5" y1="60" x2="269.5" y2="80" stroke="#D3D5D7"/>
<path d="M80.768 66.528V67.102H88.272V66.528H80.768ZM81.118 68.166V68.712H88.006V68.166H81.118ZM80.642 69.86V70.448H88.384V69.86H80.642ZM84.114 65.324V70.168H84.758V65.324H84.114ZM86.83 71.442V77.21C86.83 77.364 86.788 77.42 86.606 77.42C86.424 77.434 85.864 77.434 85.15 77.406C85.262 77.588 85.346 77.84 85.388 78.008C86.242 78.008 86.788 78.008 87.096 77.91C87.39 77.798 87.474 77.602 87.474 77.196V71.442H86.83ZM81.888 73.276V73.836H87.222V73.276H81.888ZM81.888 75.11V75.656H87.222V75.11H81.888ZM81.566 71.442V74.06C81.566 75.208 81.468 76.664 80.628 77.784C80.782 77.854 81.02 78.092 81.104 78.232C82.042 77.042 82.21 75.334 82.21 74.06V71.442H81.566ZM81.93 71.442V72.016H87.11V71.442H81.93ZM75.994 69.412V70H79.998V69.412H75.994ZM76.428 73.206V73.808H79.34V76.594H76.428V77.196H79.956V73.206H76.428ZM76.106 73.206V77.882H76.722V73.206H76.106ZM76.008 71.316V71.904H80.026V71.316H76.008ZM75.686 67.704V68.306H80.446V67.704H75.686ZM77.464 65.534C77.73 66.122 78.038 66.906 78.164 67.41L78.766 67.172C78.626 66.682 78.318 65.912 78.024 65.338L77.464 65.534ZM96.686 68.81V69.37H100.578V68.81H96.686ZM95.874 72.534V73.108H98.142V72.534H95.874ZM95.818 74.606V75.18H98.1V74.606H95.818ZM99.57 70.784V75.81H100.116V70.784H99.57ZM97.932 70.532V77.196C97.932 77.336 97.89 77.364 97.75 77.378C97.624 77.378 97.176 77.392 96.644 77.378C96.742 77.532 96.826 77.784 96.854 77.938C97.526 77.938 97.932 77.938 98.184 77.826C98.436 77.728 98.506 77.546 98.506 77.196V70.532H97.932ZM101.264 70.322V77.126C101.264 77.294 101.208 77.336 101.054 77.35C100.872 77.35 100.326 77.35 99.64 77.336C99.738 77.504 99.822 77.742 99.85 77.896C100.69 77.896 101.18 77.896 101.474 77.798C101.754 77.686 101.838 77.504 101.838 77.126V70.322H101.264ZM98.562 65.226C97.792 66.696 96.364 68.138 94.88 68.936C95.034 69.048 95.23 69.258 95.342 69.398C96.868 68.516 98.324 67.018 99.15 65.436L98.562 65.226ZM98.786 65.73L98.254 65.926C99.262 67.466 100.508 68.502 101.964 69.384C102.076 69.188 102.272 68.992 102.426 68.866C101.012 68.082 99.752 67.144 98.786 65.73ZM95.804 70.532V71.106H98.086V70.532H95.804ZM95.538 70.532V73.472C95.538 74.732 95.44 76.384 94.684 77.616C94.824 77.7 95.034 77.91 95.132 78.022C95.972 76.678 96.112 74.844 96.112 73.486V70.532H95.538ZM89.812 66.906V67.536H94.796V66.906H89.812ZM89.672 74.928V75.544H94.838V74.928H89.672ZM92.052 65.324V69.104H92.654V65.324H92.052ZM92.08 69.034V73.206H92.038V78.022H92.668V73.206H92.626V69.034H92.08ZM90.722 71.484H93.942V73.108H90.722V71.484ZM90.722 69.328H93.942V70.938H90.722V69.328ZM90.134 68.754V73.682H94.516V68.754H90.134ZM106.164 66.22V66.892H110.126V66.22H106.164ZM109.776 66.22C109.776 68.712 110.14 74.508 115.894 77.994C116.02 77.84 116.3 77.574 116.454 77.462C110.728 74.032 110.448 68.614 110.448 66.22H109.776ZM109.496 68.768C108.572 72.884 106.794 75.768 103.574 77.476C103.756 77.616 104.064 77.882 104.19 78.022C107.382 76.16 109.216 73.248 110.238 68.908L109.496 68.768ZM122.502 72.604C122.824 73.108 123.188 73.78 123.37 74.186L123.804 73.962C123.622 73.598 123.244 72.94 122.922 72.45L122.502 72.604ZM124.49 74.186V77.812H125.064V74.186H124.49ZM120.724 74.382V76.272H123.076V75.754H121.256V74.382H120.724ZM122.866 74.186V75.39C122.866 76.188 122.67 77 121.06 77.504C121.2 77.602 121.382 77.812 121.452 77.952C123.188 77.322 123.426 76.412 123.426 75.39V74.186H122.866ZM118.666 67.788V68.334H122.838V67.788H118.666ZM125.092 67.788V68.334H129.418V67.788H125.092ZM129.124 65.968V77.084C129.124 77.266 129.068 77.336 128.886 77.336C128.69 77.35 128.088 77.35 127.402 77.336C127.514 77.532 127.598 77.854 127.654 78.036C128.48 78.036 129.068 78.022 129.376 77.91C129.698 77.784 129.796 77.546 129.796 77.07V65.968H129.124ZM118.708 65.968V66.514H122.6V69.552H118.708V70.112H123.244V65.968H118.708ZM129.446 65.968H124.7V70.112H129.446V69.552H125.344V66.514H129.446V65.968ZM118.288 65.968V78.064H118.946V65.968H118.288ZM120.304 72.38C120.304 72.226 120.738 72.03 120.738 72.03V72.016C121.214 71.638 121.746 71.036 122.222 70.336L121.676 70.084C121.34 70.728 120.738 71.4 120.57 71.554C120.416 71.694 120.262 71.778 120.108 71.806C120.192 71.96 120.262 72.254 120.304 72.38ZM120.304 72.38C120.444 72.31 120.752 72.254 122.376 72.156C122.418 72.044 122.502 71.834 122.572 71.694L120.654 71.778L120.304 71.946V72.38ZM120.22 74.018C120.22 73.864 120.654 73.71 120.654 73.71V73.696C121.578 73.108 122.53 72.226 123.426 71.26L122.95 70.952C122.208 71.904 121.116 72.842 120.794 73.066C120.5 73.29 120.248 73.444 120.038 73.458C120.108 73.612 120.192 73.892 120.22 74.018ZM120.22 74.018C120.402 73.948 120.752 73.892 123.272 73.668C123.244 73.556 123.202 73.346 123.188 73.22L120.556 73.402L120.206 73.598L120.22 74.018ZM126.366 72.618C126.674 73.108 127.052 73.78 127.234 74.186L127.682 73.962C127.486 73.584 127.108 72.94 126.772 72.45L126.366 72.618ZM124.182 72.38C124.182 72.226 124.63 72.044 124.63 72.044V72.03C125.106 71.652 125.638 71.036 126.1 70.35L125.582 70.084C125.232 70.742 124.616 71.4 124.462 71.568C124.308 71.708 124.168 71.792 124 71.806C124.07 71.96 124.154 72.254 124.182 72.38ZM124.182 72.38C124.35 72.31 124.63 72.268 126.282 72.17C126.31 72.044 126.394 71.834 126.464 71.694L124.532 71.778L124.182 71.946V72.38ZM124.098 74.032C124.098 73.878 124.546 73.724 124.546 73.724V73.696C125.47 73.108 126.436 72.226 127.318 71.26L126.842 70.952C126.086 71.89 125.008 72.842 124.686 73.066C124.392 73.304 124.14 73.444 123.93 73.472C124 73.626 124.084 73.892 124.098 74.032ZM124.098 74.032C124.308 73.948 124.644 73.892 127.164 73.682C127.136 73.556 127.094 73.346 127.08 73.22L124.448 73.402L124.098 73.598V74.032ZM124.84 75.754V76.272H127.024V75.754H124.84ZM126.702 74.396V76.72H127.248V74.396H126.702ZM132.498 68.922V69.524H135.69V68.922H132.498ZM131.756 71.344V71.96H135.914V71.344H131.756ZM132.204 72.968C132.428 73.836 132.638 74.942 132.694 75.684L133.17 75.516C133.128 74.788 132.918 73.668 132.68 72.814L132.204 72.968ZM131.658 76.902L131.812 77.532C132.946 77.224 134.57 76.748 136.096 76.314L136.068 75.726C134.402 76.188 132.722 76.636 131.658 76.902ZM135.34 72.646C135.2 73.444 134.92 74.634 134.724 75.348L135.13 75.558C135.368 74.872 135.634 73.794 135.858 72.898L135.34 72.646ZM133.772 69.202V76.72L134.29 76.65V69.202H133.772ZM133.996 65.254C133.436 66.682 132.456 68.026 131.504 68.88C131.602 69.034 131.77 69.384 131.812 69.552C132.82 68.572 133.828 67.074 134.458 65.506L133.996 65.254ZM133.702 66.416C134.472 67.088 135.34 67.998 135.858 68.67L136.18 68.096C135.648 67.452 134.78 66.584 133.982 65.912L133.702 66.416ZM140.856 65.338V76.734H141.444V65.338H140.856ZM138.742 68.404V68.978H144.468V68.404H138.742ZM138.602 74.172V74.746H144.174V74.172H138.602ZM138.966 72.198V72.786H143.824V72.198H138.966ZM136.026 66.234V66.878H138.266V66.234H136.026ZM138.084 70.336V70.476C137.79 74.326 136.726 76.524 135.074 77.602C135.2 77.714 135.368 77.924 135.438 78.064C137.244 76.832 138.322 74.606 138.644 70.378L138.308 70.308L138.21 70.336H138.084ZM136.712 72.366L136.194 72.576C137.342 77.126 139.778 77.868 142.578 77.868H144.16C144.188 77.7 144.3 77.42 144.398 77.252C144.006 77.252 142.886 77.252 142.606 77.252C140.1 77.252 137.706 76.58 136.712 72.366ZM139.008 66.5V67.046H143.012V70.35H139.008V70.91H143.572V66.5H139.008ZM136.502 70.336L136.278 70.952H138.224V70.336H136.502ZM136.18 71.176C136.18 71.008 136.684 70.798 136.684 70.798V70.784C137.398 69.678 138.126 68.04 138.714 66.388L138.294 66.122L138.042 66.248V66.304C137.636 67.788 136.838 69.412 136.6 69.818C136.362 70.252 136.096 70.602 135.886 70.63C135.984 70.77 136.124 71.036 136.18 71.176ZM148.248 69.384V70.014H155.234V69.384H148.248ZM146.008 72.912V73.57H157.95V72.912H146.008ZM151.65 71.96V77.112C151.65 77.308 151.58 77.378 151.342 77.392C151.104 77.406 150.292 77.406 149.284 77.392C149.41 77.574 149.536 77.854 149.592 78.036C150.782 78.036 151.44 78.036 151.818 77.924C152.224 77.812 152.35 77.588 152.35 77.112V71.96H151.65ZM155.038 69.384V69.524C154.282 70.35 152.868 71.386 151.65 71.96C151.762 72.058 151.958 72.254 152.056 72.366C153.344 71.736 154.87 70.686 155.836 69.678L155.374 69.342L155.22 69.384H155.038ZM146.218 66.878V69.552H146.89V67.536H157.082V69.552H157.768V66.878H146.218ZM151.09 65.45C151.51 65.996 151.916 66.752 152.07 67.242L152.742 66.976C152.56 66.5 152.14 65.772 151.72 65.226L151.09 65.45Z" fill="#48545D"/>
<path d="M45.112 76.168C46.468 76.168 47.632 75.016 47.632 73.312C47.632 71.464 46.672 70.552 45.184 70.552C44.476 70.552 43.66 70.984 43.12 71.692L43.156 72.568C43.744 71.692 44.452 71.356 45.016 71.356C46.072 71.356 46.6 72.112 46.6 73.312C46.6 74.5 45.952 75.304 45.112 75.304C43.876 75.304 43.192 74.068 43.192 71.812C43.192 68.932 44.224 67.96 45.46 67.96C45.988 67.96 46.528 68.212 46.864 68.62L47.476 67.948C46.996 67.432 46.324 67.048 45.412 67.048C43.708 67.048 42.16 68.368 42.16 71.812C42.16 74.716 43.42 76.168 45.112 76.168ZM51.4923 76.168C53.1483 76.168 54.2162 74.644 54.2162 71.572C54.2162 68.524 53.1483 67.048 51.4923 67.048C49.8123 67.048 48.7443 68.524 48.7443 71.572C48.7443 74.644 49.8123 76.168 51.4923 76.168ZM51.4923 75.28C50.4843 75.28 49.8003 74.164 49.8003 71.572C49.8003 69.016 50.4843 67.924 51.4923 67.924C52.4883 67.924 53.1603 69.016 53.1603 71.572C53.1603 74.164 52.4883 75.28 51.4923 75.28Z" fill="#D60C18"/>
<line x1="40.5" y1="98.5" x2="57.5" y2="98.5" stroke="#939EA7" stroke-linecap="square" stroke-dasharray="2 2"/>
<line x1="40.5" y1="41.5" x2="57.5" y2="41.5" stroke="#939EA7" stroke-linecap="square" stroke-dasharray="2 2"/>
<path d="M271.056 130H275.88V129.088H274.104V121.204H273.264C272.796 121.492 272.232 121.696 271.44 121.828V122.536H273.012V129.088H271.056V130ZM279.788 130.168C281.264 130.168 282.668 129.064 282.668 127.144C282.668 125.2 281.48 124.336 280.016 124.336C279.488 124.336 279.092 124.468 278.696 124.684L278.924 122.14H282.248V121.204H277.964L277.688 125.32L278.276 125.692C278.78 125.356 279.152 125.164 279.74 125.164C280.832 125.164 281.552 125.92 281.552 127.18C281.552 128.452 280.724 129.256 279.68 129.256C278.672 129.256 278.024 128.788 277.532 128.272L276.98 128.992C277.58 129.592 278.42 130.168 279.788 130.168Z" fill="#D60C18"/>
<path d="M306.056 130H310.88V129.088H309.104V121.204H308.264C307.796 121.492 307.232 121.696 306.44 121.828V122.536H308.012V129.088H306.056V130ZM314.788 130.168C316.264 130.168 317.668 129.064 317.668 127.144C317.668 125.2 316.48 124.336 315.016 124.336C314.488 124.336 314.092 124.468 313.696 124.684L313.924 122.14H317.248V121.204H312.964L312.688 125.32L313.276 125.692C313.78 125.356 314.152 125.164 314.74 125.164C315.832 125.164 316.552 125.92 316.552 127.18C316.552 128.452 315.724 129.256 314.68 129.256C313.672 129.256 313.024 128.788 312.532 128.272L311.98 128.992C312.58 129.592 313.42 130.168 314.788 130.168Z" fill="#D60C18"/>
<line x1="283.5" y1="117.5" x2="283.5" y2="100.5" stroke="#939EA7" stroke-linecap="square" stroke-dasharray="2 2"/>
<line x1="270.5" y1="117.5" x2="270.5" y2="100.5" stroke="#939EA7" stroke-linecap="square" stroke-dasharray="2 2"/>
<line x1="318.5" y1="117.5" x2="318.5" y2="100.5" stroke="#939EA7" stroke-linecap="square" stroke-dasharray="2 2"/>
<line x1="305.5" y1="117.5" x2="305.5" y2="100.5" stroke="#939EA7" stroke-linecap="square" stroke-dasharray="2 2"/>
<defs>
<clipPath id="clip0_22_128">
<rect width="20" height="20" fill="white" transform="translate(283 216)"/>
</clipPath>
<clipPath id="clip1_22_128">
<rect width="20" height="20" fill="white" transform="translate(284 60)"/>
</clipPath>
</defs>
</svg>
