<svg width="790" height="248" viewBox="0 0 790 248" fill="none" xmlns="http://www.w3.org/2000/svg">
<rect x="47.5" y="65.5" width="319" height="142" fill="white" stroke="#EBEBEB"/>
<rect x="439.5" y="65.5" width="319" height="142" fill="white" stroke="#EBEBEB"/>
<path d="M78.656 87.184V92.096H79.824V88.096H88.16V92.096H89.376V87.184H78.656ZM80.528 89.056V89.856H87.44V89.056H80.528ZM80.528 90.832V91.68H87.424V90.832H80.528ZM76.896 92.736V93.728H91.024V92.736H76.896ZM83.856 94.736V95.712H89.616V94.736H83.856ZM78.944 94.784V95.68H82.88V94.784H78.944ZM78.944 96.752V97.648H82.88V96.752H78.944ZM85.632 95.632L84.672 95.92C85.728 98.544 87.792 100.448 90.608 101.28C90.768 100.992 91.088 100.56 91.328 100.336C88.624 99.664 86.576 97.92 85.632 95.632ZM89.328 94.736V94.928C88.464 97.648 86.016 99.536 83.44 100.304C83.68 100.528 83.968 100.976 84.112 101.248C86.88 100.288 89.44 98.272 90.496 94.992L89.76 94.688L89.552 94.736H89.328ZM76.704 99.216L76.832 100.272C78.464 100.096 80.72 99.84 82.912 99.568L82.88 98.592C80.592 98.848 78.256 99.088 76.704 99.216ZM82.256 93.056V101.28H83.408V93.056H82.256ZM78.24 93.056V99.488H79.36V93.056H78.24ZM93.584 87.728V88.608H99.408V87.728H93.584ZM100.24 88.848V89.92H105.184V88.848H100.24ZM92.976 89.808V90.72H99.936V89.808H92.976ZM95.936 86.64V90.24H97.024V86.64H95.936ZM95.936 92.608V96.608H97.024V92.608H95.936ZM93.376 93.76V94.688H99.52V93.76H93.376ZM92.816 96.416L92.928 97.44C94.768 97.264 97.392 96.976 99.92 96.704V95.76C97.296 96.032 94.592 96.288 92.816 96.416ZM102.08 86.56C102.032 91.504 101.936 94.944 99.392 96.864C99.664 97.024 100 97.392 100.176 97.648C102.928 95.536 103.104 91.824 103.168 86.56H102.08ZM100.112 92.128C101.36 93.008 103.04 94.272 103.872 95.024L104.432 94.016C103.584 93.296 101.872 92.112 100.64 91.264L100.112 92.128ZM104.624 88.848V95.504C104.624 96.608 104.688 96.864 104.896 97.072C105.12 97.28 105.44 97.36 105.712 97.36C105.872 97.36 106.16 97.36 106.336 97.36C106.608 97.36 106.864 97.296 107.04 97.168C107.232 97.04 107.36 96.816 107.424 96.448C107.488 96.112 107.552 95.104 107.568 94.272C107.28 94.192 106.944 94.032 106.736 93.824C106.736 94.752 106.72 95.44 106.688 95.776C106.656 96.064 106.624 96.224 106.56 96.288C106.512 96.368 106.416 96.384 106.304 96.384C106.208 96.384 106.064 96.384 105.984 96.384C105.904 96.384 105.84 96.368 105.792 96.32C105.728 96.24 105.728 95.984 105.728 95.584V88.848H104.624ZM97.472 98.432C97.648 99.312 97.76 100.448 97.76 101.152L98.96 100.992C98.944 100.32 98.784 99.216 98.576 98.336L97.472 98.432ZM100.752 98.4C101.136 99.28 101.504 100.416 101.632 101.136L102.816 100.88C102.672 100.192 102.272 99.056 101.872 98.208L100.752 98.4ZM104.064 98.352C104.816 99.264 105.68 100.512 106.064 101.312L107.248 100.88C106.848 100.08 105.952 98.864 105.2 97.984L104.064 98.352ZM94.752 98.032C94.32 99.088 93.568 100.192 92.784 100.832L93.888 101.296C94.704 100.592 95.44 99.408 95.888 98.336L94.752 98.032ZM94.88 90.432C94.752 91.6 94.272 92.224 92.688 92.592C92.88 92.752 93.136 93.104 93.232 93.328C95.088 92.848 95.68 91.968 95.856 90.432H94.88ZM97.072 90.336V91.52C97.072 92.416 97.248 92.768 98.096 92.768C98.304 92.768 99.024 92.768 99.232 92.768C99.504 92.768 99.824 92.752 100 92.688C99.952 92.464 99.936 92.144 99.904 91.92C99.728 91.968 99.392 91.984 99.216 91.984C99.04 91.984 98.4 91.984 98.224 91.984C98.032 91.984 98 91.888 98 91.536V90.336H97.072ZM110.032 89.744V90.656H114.48V89.744H110.032ZM117.392 89.744V90.656H121.92V89.744H117.392ZM121.408 87.328V99.648C121.408 99.952 121.312 100.032 120.992 100.048C120.672 100.064 119.568 100.08 118.464 100.016C118.64 100.368 118.848 100.928 118.912 101.264C120.368 101.264 121.312 101.248 121.872 101.04C122.416 100.848 122.608 100.464 122.608 99.648V87.328H121.408ZM110.128 87.328V88.336H114.048V92.192H110.128V93.2H115.184V87.328H110.128ZM122.032 87.328H116.688V93.216H122.032V92.208H117.84V88.336H122.032V87.328ZM109.456 87.328V101.28H110.64V87.328H109.456Z" fill="#D60C18"/>
<path d="M192.656 87.184V92.096H193.824V88.096H202.16V92.096H203.376V87.184H192.656ZM194.528 89.056V89.856H201.44V89.056H194.528ZM194.528 90.832V91.68H201.424V90.832H194.528ZM190.896 92.736V93.728H205.024V92.736H190.896ZM197.856 94.736V95.712H203.616V94.736H197.856ZM192.944 94.784V95.68H196.88V94.784H192.944ZM192.944 96.752V97.648H196.88V96.752H192.944ZM199.632 95.632L198.672 95.92C199.728 98.544 201.792 100.448 204.608 101.28C204.768 100.992 205.088 100.56 205.328 100.336C202.624 99.664 200.576 97.92 199.632 95.632ZM203.328 94.736V94.928C202.464 97.648 200.016 99.536 197.44 100.304C197.68 100.528 197.968 100.976 198.112 101.248C200.88 100.288 203.44 98.272 204.496 94.992L203.76 94.688L203.552 94.736H203.328ZM190.704 99.216L190.832 100.272C192.464 100.096 194.72 99.84 196.912 99.568L196.88 98.592C194.592 98.848 192.256 99.088 190.704 99.216ZM196.256 93.056V101.28H197.408V93.056H196.256ZM192.24 93.056V99.488H193.36V93.056H192.24ZM215.552 91.968V93.088H221.328V91.968H215.552ZM206.976 88.24V89.264H214.032V88.24H206.976ZM206.8 94.592V95.632H214.112V94.592H206.8ZM206.72 91.904V92.928H214.288V91.904H206.72ZM218.4 92.448V101.216H219.568V92.448H218.4ZM208.016 89.584C208.304 90.288 208.544 91.232 208.624 91.84L209.648 91.552C209.568 90.96 209.296 90.048 208.992 89.36L208.016 89.584ZM212.032 89.344C211.808 90.144 211.408 91.344 211.072 92.08L212.064 92.32C212.4 91.616 212.8 90.528 213.136 89.584L212.032 89.344ZM220.08 86.848C218.928 87.344 216.88 87.808 215.072 88.112C215.216 88.368 215.392 88.768 215.456 89.024C217.344 88.752 219.536 88.304 221.056 87.744L220.08 86.848ZM209.424 86.784C209.792 87.456 210.192 88.352 210.368 88.912L211.6 88.544C211.424 88 210.992 87.12 210.608 86.48L209.424 86.784ZM215.072 88.112V93.648C215.072 95.792 214.96 98.544 213.6 100.48C213.856 100.624 214.32 100.992 214.512 101.216C215.984 99.12 216.192 95.952 216.192 93.648V88.112H215.072ZM211.92 96.816C212.4 97.616 212.976 98.72 213.232 99.408L214.08 98.912C213.84 98.224 213.264 97.184 212.736 96.384L211.92 96.816ZM208.224 96.48C207.872 97.536 207.328 98.64 206.704 99.392C206.944 99.52 207.36 99.824 207.536 99.984C208.16 99.168 208.816 97.904 209.2 96.752L208.224 96.48ZM210.016 92.432V101.216H211.184V92.432H210.016Z" fill="black"/>
<path d="M75.656 152.328L74.552 152.616C75.768 156.392 78.04 159.048 81.64 160.248C81.816 159.912 82.168 159.416 82.456 159.16C78.984 158.168 76.712 155.688 75.656 152.328ZM68.616 146.808V148.024H81.304V146.808H68.616ZM68.056 151.72V152.952H81.992V151.72H68.056ZM74.264 147.224V149.912C74.264 152.84 73.72 156.792 67.656 159.256C67.912 159.496 68.28 159.96 68.44 160.264C74.872 157.592 75.512 153.24 75.512 149.928V147.224H74.264ZM83.88 146.744V147.96H98.12V146.744H83.88ZM90.04 147.704V160.264H91.304V147.704H90.04ZM90.744 151.496C92.68 152.488 95.176 154.008 96.408 155L97.256 153.912C95.976 152.952 93.448 151.496 91.528 150.568L90.744 151.496ZM102.792 148.904H111.304V149.912H102.792V148.904ZM102.792 147.08H111.304V148.072H102.792V147.08ZM101.64 146.216V150.776H112.504V146.216H101.64ZM101.592 151.672V152.6H113.848V151.672H101.592ZM101.576 155.096V156.024H114.104V155.096H101.576ZM101.72 153.432V154.248H112.68V153.432H101.72ZM100.984 151.672V153.896C100.984 155.576 100.84 157.928 99.64 159.688C99.928 159.816 100.456 160.136 100.68 160.344C101.944 158.488 102.2 155.784 102.2 153.912V151.672H100.984ZM107.832 155.368L106.872 155.608C108.104 157.96 110.536 159.464 113.736 160.04C113.896 159.72 114.184 159.272 114.44 159.032C111.352 158.616 108.904 157.32 107.832 155.368ZM112.44 156.152C111.688 156.648 110.392 157.336 109.48 157.72L110.184 158.28C111.112 157.912 112.36 157.336 113.256 156.712L112.44 156.152ZM103.496 160.296C103.768 160.104 104.264 159.976 108.04 159.032C108.04 158.792 108.056 158.36 108.104 158.056L103.96 158.968L103.464 159.384L103.496 160.296ZM103.496 160.296C103.496 159.864 104.92 159.048 104.92 159.048V155.48L103.784 155.432V158.056C103.784 158.744 103.272 159.112 102.968 159.272C103.16 159.512 103.416 160.008 103.496 160.296ZM120.552 155.368V156.296H125.4V155.368H120.552ZM120.504 152.952V153.896H124.824V157.864H120.504V158.792H125.96V152.952H120.504ZM119.976 152.952V159.608H121.08V152.952H119.976ZM117.032 148.52V149.4H121.48V148.52H117.032ZM124.408 148.52V149.4H128.936V148.52H124.408ZM128.44 146.248V158.696C128.44 158.968 128.344 159.064 128.056 159.064C127.768 159.08 126.792 159.096 125.816 159.048C125.992 159.384 126.184 159.944 126.232 160.28C127.576 160.28 128.44 160.264 128.952 160.072C129.464 159.864 129.64 159.464 129.64 158.696V146.248H128.44ZM117.128 146.248V147.176H121.112V150.824H117.128V151.752H122.248V146.248H117.128ZM129.032 146.248H123.688V151.768H129.032V150.856H124.84V147.176H129.032V146.248ZM116.44 146.248V160.296H117.624V146.248H116.44ZM140.552 150.968V152.088H146.328V150.968H140.552ZM131.976 147.24V148.264H139.032V147.24H131.976ZM131.8 153.592V154.632H139.112V153.592H131.8ZM131.72 150.904V151.928H139.288V150.904H131.72ZM143.4 151.448V160.216H144.568V151.448H143.4ZM133.016 148.584C133.304 149.288 133.544 150.232 133.624 150.84L134.648 150.552C134.568 149.96 134.296 149.048 133.992 148.36L133.016 148.584ZM137.032 148.344C136.808 149.144 136.408 150.344 136.072 151.08L137.064 151.32C137.4 150.616 137.8 149.528 138.136 148.584L137.032 148.344ZM145.08 145.848C143.928 146.344 141.88 146.808 140.072 147.112C140.216 147.368 140.392 147.768 140.456 148.024C142.344 147.752 144.536 147.304 146.056 146.744L145.08 145.848ZM134.424 145.784C134.792 146.456 135.192 147.352 135.368 147.912L136.6 147.544C136.424 147 135.992 146.12 135.608 145.48L134.424 145.784ZM140.072 147.112V152.648C140.072 154.792 139.96 157.544 138.6 159.48C138.856 159.624 139.32 159.992 139.512 160.216C140.984 158.12 141.192 154.952 141.192 152.648V147.112H140.072ZM136.92 155.816C137.4 156.616 137.976 157.72 138.232 158.408L139.08 157.912C138.84 157.224 138.264 156.184 137.736 155.384L136.92 155.816ZM133.224 155.48C132.872 156.536 132.328 157.64 131.704 158.392C131.944 158.52 132.36 158.824 132.536 158.984C133.16 158.168 133.816 156.904 134.2 155.752L133.224 155.48ZM135.016 151.432V160.216H136.184V151.432H135.016ZM150.952 152.072V152.968H158.968V152.072H150.952ZM152.872 153.832V154.616H157.112V153.832H152.872ZM152.872 155.496V156.248H157.096V155.496H152.872ZM156.68 152.536V159.8H157.784V152.536H156.68ZM152.152 152.536V157.608H153.224V152.536H152.152ZM149.032 148.264V149.112H153.528V148.264H149.032ZM156.408 148.264V149.112H160.936V148.264H156.408ZM160.472 146.184V158.872C160.472 159.096 160.392 159.176 160.184 159.176C159.976 159.192 159.272 159.192 158.536 159.176C158.696 159.48 158.856 159.96 158.904 160.264C159.944 160.264 160.664 160.248 161.08 160.056C161.512 159.864 161.656 159.544 161.656 158.872V146.184H160.472ZM149.128 146.184V147.048H153.128V150.328H149.128V151.208H154.264V146.184H149.128ZM161.048 146.184H155.672V151.208H161.048V150.328H156.824V147.048H161.048V146.184ZM148.408 146.184V160.28H149.592V146.184H148.408ZM150.568 157.16V158.04H159.24V157.16H150.568ZM180.472 147.8V148.888H193.512V147.8H180.472ZM181.352 150.184V151.224H192.728V150.184H181.352ZM180.248 154.888V155.944H193.928V154.888H180.248ZM179.896 152.584V153.656H194.2V152.584H179.896ZM186.344 148.408V153.368H187.576V148.408H186.344ZM182.616 145.944C183.16 146.584 183.736 147.448 183.96 148.056L185.064 147.544C184.824 146.968 184.248 146.12 183.672 145.512L182.616 145.944ZM190.12 145.512C189.752 146.248 189.096 147.304 188.6 147.976L189.64 148.344C190.152 147.72 190.824 146.76 191.368 145.896L190.12 145.512ZM186.264 153.32C185.912 156.552 185.032 158.376 179.64 159.16C179.864 159.432 180.168 159.944 180.264 160.232C185.992 159.288 187.112 157.112 187.512 153.32H186.264ZM187.064 157C189.304 157.896 192.184 159.336 193.608 160.344L194.168 159.304C192.712 158.328 189.816 156.952 187.608 156.12L187.064 157ZM198.328 149.512V150.424H207.704V149.512H198.328ZM205 148.2C205.608 148.504 206.344 148.968 206.728 149.352L207.304 148.712C206.92 148.344 206.184 147.896 205.56 147.624L205 148.2ZM206.056 151.16C205.368 153.928 203.896 156.008 201.72 157.272C201.928 157.448 202.28 157.848 202.424 158.04C204.632 156.616 206.232 154.376 207.032 151.352L206.056 151.16ZM198.168 156.056L198.328 156.968C199.656 156.728 201.368 156.376 203.032 156.056L203 155.208C201.192 155.544 199.4 155.848 198.168 156.056ZM199.752 152.184H201.576V153.8H199.752V152.184ZM198.888 151.432V154.536H202.456V151.432H198.888ZM203.064 147.8C203.352 152.744 204.008 157.288 206.216 157.768C207.064 158.072 207.624 157.432 207.832 155.672C207.608 155.576 207.24 155.32 207.048 155.128C206.936 156.168 206.776 156.84 206.552 156.792C205 156.552 204.296 152.328 204.088 147.8H203.064ZM196.312 146.312V160.344H197.448V147.4H208.488V160.344H209.688V146.312H196.312ZM197.016 158.504V159.592H209.16V158.504H197.016ZM218.328 148.248C219.88 148.84 221.896 149.768 222.904 150.392L223.704 149.624C222.632 148.984 220.616 148.12 219.08 147.576L218.328 148.248ZM216.792 149.592V157.832H217.864V150.52H224.984V149.592H216.792ZM224.552 149.592V156.696C224.552 156.888 224.488 156.952 224.28 156.968C224.072 156.968 223.4 156.968 222.632 156.952C222.76 157.208 222.92 157.608 222.968 157.896C224.024 157.896 224.712 157.88 225.096 157.72C225.512 157.544 225.64 157.272 225.64 156.696V149.592H224.552ZM216.808 146.232V147.176H224.792V146.232H216.808ZM217.432 151.928V152.824H224.968V151.928H217.432ZM217.432 154.28V155.208H224.968V154.28H217.432ZM220.616 149.976V157.816H221.672V149.976H220.616ZM224.392 146.232V146.456C223.672 147.208 222.184 148.136 220.872 148.648C221.048 148.824 221.352 149.144 221.512 149.352C222.968 148.744 224.584 147.752 225.656 146.744L224.92 146.168L224.664 146.232H224.392ZM212.328 146.12C213.032 146.904 213.928 148.024 214.36 148.696L215.288 148.04C214.84 147.384 213.96 146.36 213.224 145.592L212.328 146.12ZM211.752 149.256V150.264H215.256V149.256H211.752ZM214.6 156.6L213.8 156.968C215 159.608 217.096 160.056 220.84 160.056C222.6 160.056 224.616 160.008 226.12 159.928C226.184 159.592 226.344 159.032 226.52 158.776C224.888 158.904 222.536 158.984 220.856 158.984C217.672 158.984 215.592 158.696 214.6 156.6ZM214.824 153.256V153.464C214.376 156.392 213.144 158.424 211.448 159.496C211.672 159.672 212.072 160.072 212.232 160.328C214.024 159.128 215.352 156.872 215.912 153.448L215.304 153.224L215.096 153.256H214.824ZM211.976 154.456C212.088 154.328 212.504 154.232 212.92 154.232H215.208L215.224 153.256H212.552L211.976 153.544V154.456ZM211.976 154.456C211.976 154.152 212.872 153.704 212.872 153.704C213.816 152.68 215.304 150.648 216.088 149.56L215.288 149.176L214.92 149.336V149.384C214.376 150.232 212.808 152.392 212.296 152.888C212.024 153.208 211.768 153.304 211.528 153.368C211.656 153.624 211.896 154.184 211.976 154.456ZM228.856 146.152V147.256H231.576V146.152H228.856ZM228.408 146.152V151.848C228.408 154.168 228.344 157.336 227.496 159.624C227.704 159.752 228.104 160.12 228.248 160.344C229.224 157.848 229.352 154.28 229.352 151.848V146.152H228.408ZM231.048 146.152V158.936C231.048 159.128 230.984 159.192 230.808 159.192C230.632 159.208 230.088 159.208 229.448 159.192C229.592 159.464 229.736 159.928 229.768 160.184C230.648 160.184 231.192 160.168 231.528 159.992C231.88 159.816 231.992 159.496 231.992 158.952V146.152H231.048ZM229.144 154.536L229.624 155.512C230.328 154.888 231.032 154.264 231.752 153.624L231.4 152.904C230.552 153.56 229.72 154.168 229.144 154.536ZM229.08 149.88C229.56 150.408 230.136 151.16 230.408 151.624L231.112 151.144C230.84 150.68 230.264 149.992 229.768 149.448L229.08 149.88ZM232.632 158.328L232.92 159.384C234.408 159.064 236.424 158.632 238.36 158.2L238.264 157.24C236.168 157.656 234.024 158.088 232.632 158.328ZM233.4 155.352C233.736 156.056 234.056 157 234.168 157.624L235.08 157.288C234.968 156.68 234.632 155.752 234.264 155.064L233.4 155.352ZM232.664 147.08V148.072H238.248V147.08H232.664ZM233.016 149.4V150.376H238.136V149.4H233.016ZM235 145.576V149.912H236.088V145.576H235ZM234.184 152.232H236.872V153.816H234.184V152.232ZM233.16 151.352V154.696H237.912V151.352H233.16ZM240.888 145.88C240.296 147.192 239.192 148.616 238.184 149.464C238.472 149.656 238.808 149.96 239.016 150.216C240.136 149.24 241.24 147.72 241.928 146.232L240.888 145.88ZM240.968 150.312C240.392 151.704 239.256 153.16 238.152 154.008C238.456 154.216 238.776 154.536 238.984 154.792C240.2 153.8 241.336 152.248 242.04 150.664L240.968 150.312ZM241.192 154.952C240.52 156.824 239.176 158.552 237.528 159.512C237.8 159.736 238.136 160.088 238.312 160.36C240.104 159.224 241.496 157.368 242.248 155.272L241.192 154.952ZM236.6 154.984C236.376 155.896 235.912 157.24 235.544 158.056L236.36 158.344C236.76 157.56 237.256 156.312 237.688 155.288L236.6 154.984ZM246.152 159H247.672C247.864 154.424 248.36 151.688 251.112 148.152V147.272H243.784V148.52H249.464C247.16 151.72 246.36 154.568 246.152 159ZM254.083 159.224C254.675 159.224 255.155 158.76 255.155 158.104C255.155 157.432 254.675 156.984 254.083 156.984C253.507 156.984 253.043 157.432 253.043 158.104C253.043 158.76 253.507 159.224 254.083 159.224ZM260.072 159.224C262.28 159.224 264.328 157.4 264.328 152.632C264.328 148.904 262.648 147.064 260.392 147.064C258.568 147.064 257.032 148.6 257.032 150.872C257.032 153.304 258.296 154.552 260.264 154.552C261.272 154.552 262.312 153.944 263.048 153.016L262.968 151.848C262.2 153.016 261.288 153.48 260.504 153.48C259.112 153.48 258.408 152.44 258.408 150.872C258.408 149.256 259.272 148.2 260.392 148.2C262.04 148.2 262.952 149.752 262.952 152.632C262.952 156.648 261.592 158.008 260.024 158.008C259.272 158.008 258.552 157.672 258.056 157.096L257.24 158.024C257.896 158.712 258.792 159.224 260.072 159.224ZM268.483 154.456C270.099 154.456 271.155 153.112 271.155 150.744C271.155 148.392 270.099 147.064 268.483 147.064C266.867 147.064 265.811 148.392 265.811 150.744C265.811 153.112 266.867 154.456 268.483 154.456ZM268.483 153.56C267.555 153.56 266.915 152.6 266.915 150.744C266.915 148.872 267.555 147.96 268.483 147.96C269.411 147.96 270.035 148.872 270.035 150.744C270.035 152.6 269.411 153.56 268.483 153.56ZM268.819 159.224H269.811L276.275 147.064H275.283L268.819 159.224ZM276.659 159.224C278.243 159.224 279.315 157.88 279.315 155.496C279.315 153.16 278.243 151.816 276.659 151.816C275.043 151.816 273.987 153.16 273.987 155.496C273.987 157.88 275.043 159.224 276.659 159.224ZM276.659 158.328C275.731 158.328 275.091 157.368 275.091 155.496C275.091 153.624 275.731 152.728 276.659 152.728C277.571 152.728 278.211 153.624 278.211 155.496C278.211 157.368 277.571 158.328 276.659 158.328ZM280.562 155.288V156.408H295.33V155.288H280.562ZM281.154 146.536V147.656H294.738V146.536H281.154ZM283.25 152.248V153.304H292.658V152.248H283.25ZM292.194 149.224V158.808C292.194 159.08 292.098 159.16 291.81 159.16C291.522 159.176 290.498 159.192 289.442 159.16C289.618 159.464 289.81 159.992 289.874 160.312C291.266 160.312 292.162 160.296 292.674 160.104C293.218 159.912 293.378 159.544 293.378 158.808V149.224H292.194ZM282.466 149.224V160.312H283.65V150.328H292.69V149.224H282.466ZM287.266 146.888V155.704H288.466V146.888H287.266ZM306.306 147.336V156.184H307.426V147.336H306.306ZM309.33 145.64V158.696C309.33 158.968 309.218 159.048 308.946 159.064C308.69 159.08 307.826 159.08 306.85 159.048C307.01 159.4 307.186 159.928 307.25 160.248C308.562 160.248 309.362 160.216 309.826 160.024C310.29 159.816 310.482 159.448 310.482 158.696V145.64H309.33ZM298.594 152.44V153.24H303.954V152.44H298.594ZM299.33 158.568V159.512H304.274V158.568H299.33ZM297.906 150.52V152.68C297.906 154.504 297.746 157.144 296.465 159.096C296.77 159.208 297.266 159.432 297.49 159.624C298.786 157.592 299.026 154.68 299.026 152.68V150.52H297.906ZM298.578 150.52V151.416H303.362V154.344H298.514V155.24H304.466V150.52H298.578ZM298.866 155.976V160.184H299.906V156.872H303.778V160.152H304.85V155.976H298.866ZM301.026 145.688C300.049 147.288 298.274 148.664 296.498 149.512C296.706 149.768 297.042 150.36 297.17 150.616C299.058 149.592 300.994 147.976 302.13 146.088L301.026 145.688ZM300.658 147C302.018 147.832 303.858 149.048 304.77 149.816L305.41 148.824C304.498 148.088 302.61 146.936 301.282 146.152L300.658 147ZM299.65 148.92V149.72H303.026V148.92H299.65ZM317.362 159H318.738V147.272H317.122L312.242 154.808V155.768H320.306V154.616H313.778L316.45 150.616C316.77 150.04 317.09 149.448 317.378 148.872H317.458C317.41 149.48 317.362 150.424 317.362 151.016V159ZM325.261 159.224C327.469 159.224 328.892 157.192 328.892 153.096C328.892 149.032 327.469 147.064 325.261 147.064C323.021 147.064 321.597 149.032 321.597 153.096C321.597 157.192 323.021 159.224 325.261 159.224ZM325.261 158.04C323.917 158.04 323.005 156.552 323.005 153.096C323.005 149.688 323.917 148.232 325.261 148.232C326.589 148.232 327.485 149.688 327.485 153.096C327.485 156.552 326.589 158.04 325.261 158.04ZM334.12 145.512C333.336 147.672 332.008 149.752 330.488 151.08C330.792 151.24 331.288 151.64 331.528 151.848C333.016 150.408 334.44 148.184 335.32 145.816L334.12 145.512ZM333.864 147.496L333.288 148.664H344.184V147.496H333.864ZM333.08 151.128V156.04H334.28V152.248H343.832V151.128H333.08ZM330.44 155.432V156.6H344.936V155.432H330.44ZM337.88 148.104V160.296H339.112V148.104H337.88ZM76.552 174.968V176.088H82.328V174.968H76.552ZM67.976 171.24V172.264H75.032V171.24H67.976ZM67.8 177.592V178.632H75.112V177.592H67.8ZM67.72 174.904V175.928H75.288V174.904H67.72ZM79.4 175.448V184.216H80.568V175.448H79.4ZM69.016 172.584C69.304 173.288 69.544 174.232 69.624 174.84L70.648 174.552C70.568 173.96 70.296 173.048 69.992 172.36L69.016 172.584ZM73.032 172.344C72.808 173.144 72.408 174.344 72.072 175.08L73.064 175.32C73.4 174.616 73.8 173.528 74.136 172.584L73.032 172.344ZM81.08 169.848C79.928 170.344 77.88 170.808 76.072 171.112C76.216 171.368 76.392 171.768 76.456 172.024C78.344 171.752 80.536 171.304 82.056 170.744L81.08 169.848ZM70.424 169.784C70.792 170.456 71.192 171.352 71.368 171.912L72.6 171.544C72.424 171 71.992 170.12 71.608 169.48L70.424 169.784ZM76.072 171.112V176.648C76.072 178.792 75.96 181.544 74.6 183.48C74.856 183.624 75.32 183.992 75.512 184.216C76.984 182.12 77.192 178.952 77.192 176.648V171.112H76.072ZM72.92 179.816C73.4 180.616 73.976 181.72 74.232 182.408L75.08 181.912C74.84 181.224 74.264 180.184 73.736 179.384L72.92 179.816ZM69.224 179.48C68.872 180.536 68.328 181.64 67.704 182.392C67.944 182.52 68.36 182.824 68.536 182.984C69.16 182.168 69.816 180.904 70.2 179.752L69.224 179.48ZM71.016 175.432V184.216H72.184V175.432H71.016ZM83.944 171.24V172.28H97.992V171.24H83.944ZM87.56 174.072H94.488V175.512H87.56V174.072ZM86.36 173.176V176.392H95.736V173.176H86.36ZM84.52 177.288V184.28H85.688V178.312H97.096V177.288H84.52ZM96.28 177.288V183.016C96.28 183.208 96.2 183.256 95.992 183.272C95.8 183.272 95.064 183.288 94.36 183.256C94.52 183.496 94.68 183.88 94.744 184.152C95.768 184.168 96.472 184.152 96.888 184.008C97.336 183.848 97.48 183.592 97.48 183.016V177.288H96.28ZM90.04 169.784C90.28 170.488 90.6 171.416 90.728 171.976L91.944 171.624C91.816 171.096 91.48 170.2 91.208 169.512L90.04 169.784ZM88.12 179.256V180.152H93.208V181.656H88.12V182.552H94.28V179.256H88.12ZM87.496 179.256V183.352H88.616V179.256H87.496ZM105.688 179.992C107.368 179.416 108.456 178.104 108.456 176.376C108.456 175.256 107.976 174.52 107.08 174.52C106.44 174.52 105.864 174.92 105.864 175.672C105.864 176.424 106.408 176.824 107.064 176.824C107.368 176.824 107.688 176.744 107.912 176.456L107.048 175.24L107.352 176.584C107.352 177.8 106.632 178.616 105.32 179.144L105.688 179.992ZM119.912 182.52V183.64H130.456V182.52H119.912ZM122.504 176.104H127.816V179.32H122.504V176.104ZM122.504 171.832H127.816V174.984H122.504V171.832ZM121.272 170.712V180.44H129.096V170.712H121.272ZM119.448 169.624C118.536 172.056 117.016 174.456 115.416 176.008C115.64 176.296 115.992 176.936 116.12 177.224C117.88 175.432 119.544 172.712 120.6 169.992L119.448 169.624ZM117.736 173.752V184.264H118.936V172.6L118.92 172.584L117.736 173.752ZM136.392 176.088V177.192H146.088V176.088H136.392ZM135.16 174.216C134.328 175.96 133 177.688 131.656 178.84C131.912 179.064 132.328 179.576 132.488 179.816C133.896 178.536 135.352 176.552 136.296 174.584L135.16 174.216ZM142.728 174.344V182.744C142.728 183.016 142.648 183.096 142.328 183.096C142.024 183.112 140.968 183.128 139.816 183.096C139.992 183.416 140.184 183.928 140.232 184.248C141.688 184.248 142.632 184.232 143.176 184.056C143.72 183.864 143.896 183.512 143.896 182.76V174.344H142.728ZM137.32 178.584C138.024 179.608 138.92 180.984 139.336 181.784L140.344 181.176C139.896 180.392 138.984 179.064 138.28 178.072L137.32 178.584ZM134.04 176.856V184.28H135.192V175.736V175.72L134.04 176.856ZM133.864 170.84V171.912H138.952V170.84H133.864ZM140.248 170.84V171.912H146.216V170.84H140.248ZM134.12 169.48C133.592 170.92 132.648 172.312 131.624 173.224C131.864 173.464 132.264 173.992 132.424 174.248C133.544 173.176 134.648 171.512 135.288 169.816L134.12 169.48ZM140.408 169.496C140.024 171.032 139.304 172.504 138.392 173.464C138.664 173.672 139.144 174.088 139.336 174.312C140.296 173.224 141.128 171.528 141.624 169.8L140.408 169.496ZM134.728 172.664C135.224 173.16 135.848 173.864 136.104 174.328L136.968 173.56C136.68 173.112 136.056 172.472 135.544 171.992L134.728 172.664ZM141.464 172.6C142.024 173.096 142.696 173.816 143 174.28L143.848 173.528C143.512 173.064 142.84 172.392 142.264 171.944L141.464 172.6ZM150.968 174.792V175.912H159.048V174.792H150.968ZM150.68 182.232V183.368H159.256V182.232H150.68ZM150.136 177.832V184.248H151.336V178.92H158.808V184.2H160.072V177.832H150.136ZM155.256 169.528C153.624 172.008 150.68 174.136 147.624 175.336C147.96 175.624 148.296 176.072 148.504 176.392C151.592 175.032 154.536 172.728 156.312 170.056L155.256 169.528ZM155.496 170.456L154.472 170.984C156.6 173.416 158.92 174.936 161.656 176.248C161.832 175.88 162.184 175.432 162.488 175.16C159.8 174.024 157.448 172.616 155.496 170.456ZM163.944 170.344V171.4H169.144V170.344H163.944ZM163.592 175.416V176.504H169.704V175.416H163.592ZM166.232 175.944V182.856C166.232 183.048 166.168 183.112 165.944 183.112C165.72 183.128 164.968 183.128 164.152 183.112C164.312 183.432 164.488 183.928 164.536 184.248C165.64 184.248 166.344 184.232 166.792 184.04C167.256 183.864 167.384 183.512 167.384 182.872V175.944H166.232ZM168.776 170.344V170.584C168.28 171.496 167.272 172.792 166.392 173.544C166.6 173.72 166.92 174.04 167.096 174.248C168.104 173.4 169.256 172.024 170.024 170.792L169.256 170.28L169.032 170.344H168.776ZM169.368 175.416V175.592C169.048 176.696 168.584 178.04 168.2 178.856L169.128 179.096C169.544 178.216 170.056 176.824 170.472 175.576L169.72 175.368L169.544 175.416H169.368ZM164.392 173.144C165.736 173.864 167.32 174.984 168.088 175.816L168.776 174.936C167.992 174.12 166.376 173.048 165.032 172.344L164.392 173.144ZM170.136 170.312V171.352H178.264V170.312H170.136ZM171.864 176.264H176.552V177.832H171.864V176.264ZM171.864 178.712H176.552V180.296H171.864V178.712ZM171.864 173.816H176.552V175.368H171.864V173.816ZM170.744 172.888V181.24H177.72V172.888H170.744ZM173.576 170.824C173.48 171.56 173.256 172.664 173.064 173.384L174.12 173.592C174.376 172.92 174.664 171.912 174.936 170.984L173.576 170.824ZM172.344 181.528C171.656 182.232 170.216 183.064 168.936 183.528C169.176 183.736 169.56 184.104 169.736 184.344C171.016 183.864 172.52 183 173.4 182.152L172.344 181.528ZM174.824 182.216C175.816 182.824 177.048 183.736 177.64 184.328L178.6 183.64C177.944 183.032 176.712 182.168 175.736 181.608L174.824 182.216ZM188.76 170.36V171.464H193.208V170.36H188.76ZM188.76 174.04V175.112H193.208V174.04H188.76ZM188.744 177.768V178.856H193.24V177.768H188.744ZM192.664 170.36V182.744C192.664 182.984 192.584 183.064 192.344 183.064C192.104 183.08 191.304 183.08 190.456 183.064C190.616 183.368 190.792 183.896 190.824 184.232C192.008 184.232 192.76 184.2 193.208 184.008C193.672 183.816 193.832 183.448 193.832 182.76V170.36H192.664ZM188.264 170.36V176.168C188.264 178.488 188.152 181.528 186.808 183.672C187.08 183.784 187.56 184.136 187.768 184.36C189.208 182.088 189.4 178.632 189.4 176.168V170.36H188.264ZM179.816 171.704V172.76H187.48V171.704H179.816ZM181.704 174.184V175.16H185.752V174.184H181.704ZM181.704 176.728V177.688H185.768V176.728H181.704ZM179.608 179.304V180.376H187.48V179.304H179.608ZM181.176 169.752V179.736H182.28V169.752H181.176ZM185.192 169.752V179.736H186.296V169.752H185.192ZM181.832 180.728C181.352 181.8 180.52 182.872 179.624 183.592C179.912 183.752 180.376 184.104 180.6 184.296C181.464 183.496 182.392 182.264 182.984 181.048L181.832 180.728ZM184.136 181.224C184.76 181.976 185.48 183.032 185.784 183.672L186.76 183.096C186.44 182.44 185.688 181.448 185.064 180.728L184.136 181.224Z" fill="black"/>
<path d="M284.656 87.184V92.096H285.824V88.096H294.16V92.096H295.376V87.184H284.656ZM286.528 89.056V89.856H293.44V89.056H286.528ZM286.528 90.832V91.68H293.424V90.832H286.528ZM282.896 92.736V93.728H297.024V92.736H282.896ZM289.856 94.736V95.712H295.616V94.736H289.856ZM284.944 94.784V95.68H288.88V94.784H284.944ZM284.944 96.752V97.648H288.88V96.752H284.944ZM291.632 95.632L290.672 95.92C291.728 98.544 293.792 100.448 296.608 101.28C296.768 100.992 297.088 100.56 297.328 100.336C294.624 99.664 292.576 97.92 291.632 95.632ZM295.328 94.736V94.928C294.464 97.648 292.016 99.536 289.44 100.304C289.68 100.528 289.968 100.976 290.112 101.248C292.88 100.288 295.44 98.272 296.496 94.992L295.76 94.688L295.552 94.736H295.328ZM282.704 99.216L282.832 100.272C284.464 100.096 286.72 99.84 288.912 99.568L288.88 98.592C286.592 98.848 284.256 99.088 282.704 99.216ZM288.256 93.056V101.28H289.408V93.056H288.256ZM284.24 93.056V99.488H285.36V93.056H284.24ZM310 86.944C310.592 87.344 311.376 87.92 311.776 88.288L312.512 87.68C312.096 87.328 311.312 86.784 310.72 86.416L310 86.944ZM300.48 88.24V89.264H313.136V88.24H300.48ZM301.792 90.4V91.28H307.728V90.4H301.792ZM311.536 90.192C310.624 92.608 309.024 94.704 307.072 96.016C307.312 96.192 307.744 96.608 307.92 96.8C309.84 95.36 311.552 93.12 312.576 90.48L311.536 90.192ZM308.48 86.56C308.608 93.904 309.952 101.216 312.064 101.216C313.072 101.216 313.456 100.448 313.616 97.888C313.328 97.76 312.928 97.52 312.688 97.264C312.64 99.2 312.464 100.096 312.208 100.096C311.184 100.08 309.616 93.792 309.632 86.56H308.48ZM299.904 88.24V91.616C299.904 94.16 299.776 97.936 298.496 100.656C298.752 100.768 299.248 101.104 299.456 101.296C300.8 98.448 301.008 94.304 301.008 91.616V88.24H299.904ZM302.784 96.896V99.792C302.784 100.816 303.088 101.088 304.256 101.088C304.48 101.088 305.904 101.088 306.16 101.088C307.136 101.088 307.408 100.624 307.504 98.736C307.232 98.672 306.848 98.528 306.624 98.368C306.592 99.984 306.496 100.208 306.048 100.208C305.744 100.208 304.576 100.208 304.368 100.208C303.872 100.208 303.792 100.144 303.792 99.792V96.896H302.784ZM304.064 96.32C304.56 97.072 305.184 98.112 305.472 98.72L306.288 98.304C305.984 97.696 305.344 96.704 304.832 95.968L304.064 96.32ZM307.28 97.312C307.792 98.368 308.4 99.776 308.688 100.608L309.6 100.224C309.296 99.424 308.656 98.032 308.112 97.008L307.28 97.312ZM301.536 97.104C301.36 98.112 301.024 99.456 300.608 100.272L301.44 100.688C301.856 99.824 302.176 98.416 302.336 97.376L301.536 97.104ZM303.12 93.216H306.432V95.056H303.12V93.216ZM302.128 92.368V95.92H307.408V92.368H302.128ZM314.752 96.352V97.472H329.216V96.352H314.752ZM320.56 89.456V90.288H323.312V89.456H320.56ZM325.216 87.28V88.288H327.792V87.28H325.216ZM325.296 90.432V91.424H327.664V90.432H325.296ZM325.2 93.424V94.416H327.52V93.424H325.2ZM316.352 90.384V91.376H318.72V90.384H316.352ZM316.432 93.376V94.368H318.8V93.376H316.432ZM319.216 87.392V96.944H320.128V88.336H323.824V96.944H324.752V87.392H319.216ZM321.392 92.144H322.576V94.288H321.392V92.144ZM320.768 91.36V95.072H323.216V91.36H320.768ZM327.168 87.28C327.168 90.336 327.04 94.624 326.848 97.072H327.904C328.08 94.688 328.192 90.4 328.224 87.28H327.168ZM318.528 86.752C317.808 87.104 316.688 87.488 315.792 87.76C315.904 88.032 316.048 88.416 316.08 88.672C317.024 88.464 318.176 88.128 319.104 87.792L318.528 86.752ZM315.792 87.76L316.048 96.672H317.104L316.832 88.08L315.792 87.76ZM323.536 98.48C325.216 99.312 326.992 100.384 328.08 101.168L328.88 100.24C327.76 99.472 325.904 98.464 324.192 97.648L323.536 98.48ZM319.36 97.776C318.336 98.64 316.4 99.728 314.864 100.352C315.104 100.608 315.408 101.008 315.568 101.264C317.136 100.576 319.088 99.504 320.384 98.496L319.36 97.776ZM336.288 87.216V88.256H341.712V87.216H336.288ZM341.296 88.496V89.504H344.256V88.496H341.296ZM337.552 90.16V91.104H340.304V90.16H337.552ZM337.552 93.088V94.064H340.304V93.088H337.552ZM339.856 87.632V99.264H340.848V87.632H339.856ZM337.152 87.568V97.024L338.128 96.848V87.568H337.152ZM336.24 96.752L336.48 97.776C337.696 97.472 339.232 97.072 340.72 96.672L340.608 95.76C338.976 96.16 337.376 96.528 336.24 96.752ZM343.936 88.496V88.752C343.536 92.832 342.4 96.192 340.768 98.016C341.008 98.176 341.392 98.576 341.552 98.832C343.232 96.864 344.48 93.264 344.976 88.672L344.336 88.464L344.128 88.496H343.936ZM331.184 88.464V89.52H336.192V88.464H331.184ZM330.768 91.408V92.496H336.48V91.408H330.768ZM334.112 94.608V95.68H336.448V94.608H334.112ZM333.344 86.56V92.08H334.432V86.56H333.344ZM333.696 92.16V99.392H334.768V92.16H333.696ZM332.48 95.68L331.6 95.984C332.704 100.016 334.688 100.864 338.992 100.864H344.944C345.024 100.512 345.232 99.968 345.44 99.68C344.464 99.728 339.728 99.712 338.992 99.712C335.28 99.712 333.392 99.04 332.48 95.68ZM331.568 93.808C331.616 95.936 331.504 98.624 330.368 100.56C330.624 100.672 331.008 101.024 331.184 101.264C332.464 99.136 332.608 96.256 332.576 93.856L331.568 93.808ZM341.088 90.912C342.432 93.28 343.856 96.432 344.4 98.304L345.36 97.904C344.8 96.032 343.328 92.96 341.952 90.608L341.088 90.912Z" fill="black"/>
<line x1="47" y1="119.5" x2="367" y2="119.5" stroke="#EEEEEE"/>
<rect x="47" y="117" width="106" height="3" fill="#D60C18"/>
<path d="M513.256 88.864V90.144H524.744V88.864H513.256ZM511.896 98.352V99.696H526.104V98.352H511.896ZM527.768 87.264V88.352H533.08V87.264H527.768ZM529.24 90.608V91.632H532.04V90.608H529.24ZM529.24 93.904V94.928H532.04V93.904H529.24ZM528.568 87.808V98.048H529.56V87.808H528.568ZM531.4 87.792V101.296H532.44V87.792H531.4ZM527.592 97.856L527.832 98.944C529.064 98.72 530.616 98.448 532.168 98.16L532.104 97.152C530.424 97.44 528.76 97.696 527.592 97.856ZM535.992 91.696C536.296 92.56 536.632 93.712 536.792 94.4L537.576 94.128C537.432 93.488 537.08 92.352 536.744 91.52L535.992 91.696ZM533.224 91.04C533.224 90.784 533.864 90.432 533.864 90.432V90.4C534.584 89.616 535.368 88.352 535.976 87.088L535.064 86.688C534.632 87.888 533.816 89.072 533.592 89.376C533.352 89.696 533.144 89.888 532.936 89.936C533.048 90.24 533.192 90.8 533.224 91.04ZM533.224 91.04C533.432 90.944 533.816 90.864 535.72 90.736C535.752 90.544 535.848 90.176 535.944 89.92L533.688 90.032L533.224 90.32V91.04ZM533.112 94.112C533.112 93.856 533.736 93.52 533.736 93.52V93.488C534.888 92.368 536.072 90.704 537.096 89.008L536.248 88.56C535.4 90.16 534.136 91.824 533.752 92.24C533.4 92.672 533.08 92.96 532.824 93.024C532.936 93.328 533.064 93.872 533.112 94.112ZM533.112 94.112C533.352 93.984 533.816 93.888 537.064 93.504C537.016 93.296 536.952 92.944 536.952 92.704L533.56 93.024L533.096 93.36L533.112 94.112ZM540.696 91.536C541.064 92.416 541.496 93.6 541.704 94.288L542.472 93.984C542.264 93.312 541.816 92.16 541.432 91.296L540.696 91.536ZM537.8 90.96C537.8 90.704 538.44 90.368 538.44 90.368V90.336C539.112 89.584 539.848 88.384 540.424 87.168L539.592 86.752C539.16 87.904 538.376 89.088 538.152 89.376C537.944 89.696 537.72 89.872 537.512 89.92C537.64 90.192 537.752 90.736 537.8 90.96ZM537.8 90.96C537.992 90.864 538.36 90.8 540.184 90.656C540.216 90.464 540.312 90.096 540.424 89.856L538.248 89.952L537.8 90.24V90.96ZM537.912 94.032C537.912 93.776 538.616 93.424 538.616 93.424V93.408C539.624 92.304 540.68 90.672 541.544 89.008L540.712 88.544C540.008 90.144 538.84 91.792 538.504 92.192C538.184 92.64 537.896 92.928 537.624 92.976C537.752 93.264 537.864 93.792 537.912 94.032ZM537.912 94.032C538.184 93.888 538.632 93.792 541.864 93.344C541.816 93.168 541.784 92.816 541.768 92.56L538.376 92.96L537.912 93.264V94.032ZM536.056 94.496V96.944C536.056 98.224 535.736 99.6 533.624 100.576C533.816 100.752 534.168 101.168 534.296 101.424C536.616 100.304 537.08 98.512 537.08 96.96V94.496H536.056ZM533.96 96.992V98.048H536.664V96.992H533.96ZM538.168 94.48V101.312H539.224V94.48H538.168ZM533.688 94.496V98.048H534.68V94.496H533.688ZM540.584 94.624V98.624H541.592V94.624H540.584ZM538.76 96.976V98.032H541.112V96.976H538.76ZM546.184 96.16V96.976H555.768V96.16H546.184ZM546.216 94.192V95.056H555.272V98.08H546.216V98.96H556.456V94.192H546.216ZM550.312 94.624V99.44C550.312 100.752 550.824 101.072 552.616 101.072C553.016 101.072 555.912 101.072 556.328 101.072C557.848 101.072 558.216 100.56 558.392 98.624C558.056 98.56 557.608 98.4 557.336 98.208C557.256 99.824 557.112 100.096 556.248 100.096C555.624 100.096 553.16 100.096 552.68 100.096C551.656 100.096 551.464 100 551.464 99.44V94.624H550.312ZM545.592 94.192V99.792H546.744V94.192H545.592ZM544.904 87.2V88.064H557.048V87.2H544.904ZM550.344 87.424V93.584H551.528V87.424H550.344ZM544.2 89.088V92.528H545.352V89.936H556.6V92.528H557.8V89.088H544.2ZM545.64 92.72L546.008 93.648C547.048 93.44 548.264 93.2 549.496 92.944L549.464 92.176C548.04 92.4 546.664 92.608 545.64 92.72ZM546.056 90.896C547.096 91.104 548.44 91.52 549.16 91.824L549.512 91.104C548.792 90.784 547.432 90.432 546.408 90.256L546.056 90.896ZM555.448 90.176C554.664 90.464 553.32 90.944 552.392 91.152L552.824 91.776C553.752 91.584 555.064 91.248 555.976 90.864L555.448 90.176ZM552.2 92.832C553.448 93.008 555.08 93.392 555.96 93.696L556.232 92.88C555.336 92.576 553.72 92.224 552.488 92.096L552.2 92.832ZM559.8 93.68V94.88H574.248V93.68H559.8ZM561.4 87.648V88.832H571.848V87.648H561.4ZM571.464 87.648V87.92C570.424 89.04 568.216 90.544 566.424 91.36C566.664 91.568 567.048 91.952 567.224 92.224C569.144 91.296 571.464 89.728 572.952 88.272L572.056 87.584L571.768 87.648H571.464ZM566.424 91.36V99.696C566.424 99.968 566.328 100.048 565.992 100.064C565.64 100.08 564.456 100.096 563.16 100.048C563.368 100.4 563.592 100.928 563.672 101.28C565.224 101.28 566.248 101.264 566.856 101.056C567.48 100.88 567.672 100.512 567.672 99.712V91.36H566.424ZM583.592 91.376V92.32H586.92V91.376H583.592ZM582.408 96.016V96.88H587.944V96.016H582.408ZM577.208 87.248V88.224H581.688V87.248H577.208ZM581.352 87.248V87.44C580.376 89.616 577.832 91.328 575.432 92.048C575.656 92.256 575.944 92.672 576.088 92.944C578.68 92.048 581.32 90.256 582.52 87.568L581.768 87.2L581.56 87.248H581.352ZM583.88 86.592L582.904 86.896C584.2 89.696 586.648 91.808 589.704 92.752C589.88 92.464 590.184 92.048 590.44 91.808C587.464 91.024 585.032 89.072 583.88 86.592ZM587.144 86.672C586.568 87.328 585.512 88.224 584.776 88.768L585.48 89.328C586.248 88.8 587.256 88.032 588.04 87.296L587.144 86.672ZM589.064 88.288C588.472 88.912 587.384 89.808 586.616 90.336L587.352 90.896C588.136 90.4 589.176 89.632 589.944 88.896L589.064 88.288ZM577.88 91.424V92.384H580.552V95.008H581.64V91.424H577.88ZM577.352 94.064C577.224 95.2 577 96.656 576.792 97.6H577.832C578.008 96.688 578.216 95.248 578.36 94.064H577.352ZM580.552 96.672V96.832C580.392 98.912 580.216 99.76 579.928 100C579.8 100.128 579.64 100.144 579.336 100.144C579.032 100.144 578.168 100.128 577.288 100.048C577.464 100.336 577.608 100.768 577.64 101.088C578.504 101.136 579.352 101.152 579.768 101.12C580.248 101.088 580.552 100.992 580.84 100.72C581.224 100.336 581.416 99.376 581.624 97.152C581.64 96.992 581.656 96.672 581.656 96.672H580.552ZM583.16 91.376V92.624C583.16 93.392 582.952 94.272 581.672 94.96C581.896 95.104 582.28 95.488 582.44 95.712C583.864 94.88 584.2 93.68 584.2 92.64V91.376H583.16ZM587.688 96.016V96.176C586.76 98.464 584.296 99.856 581.656 100.416C581.848 100.64 582.088 101.04 582.2 101.296C585.096 100.576 587.672 99.072 588.776 96.24L588.088 95.968L587.896 96.016H587.688ZM577.816 94.064L577.656 95.008H580.952V94.064H577.816ZM577.336 96.672L577.16 97.6H580.856V96.672H577.336ZM576.776 89.152C577.528 89.616 578.408 90.304 578.824 90.8L579.56 90.064C579.128 89.6 578.216 88.928 577.48 88.496L576.776 89.152ZM586.376 91.376V93.888C586.376 94.864 586.584 95.232 587.544 95.232C587.752 95.232 588.664 95.232 588.888 95.232C589.208 95.232 589.528 95.232 589.704 95.168C589.672 94.928 589.64 94.576 589.64 94.32C589.448 94.368 589.08 94.384 588.856 94.384C588.664 94.384 587.864 94.384 587.672 94.384C587.448 94.384 587.4 94.272 587.4 93.904V91.376H586.376ZM582.408 97.68C584.36 98.784 586.952 100.384 588.248 101.328L588.872 100.544C587.528 99.6 584.92 98.064 583 97.024L582.408 97.68ZM601.32 98.304C602.664 99.056 604.344 100.176 605.144 100.896L606.072 100.192C605.192 99.44 603.496 98.384 602.184 97.68L601.32 98.304ZM593.8 94.176V95.136H604.232V94.176H593.8ZM591.848 96.24V97.232H606.168V96.24H591.848ZM592.024 87.216V88.192H605.864V87.216H592.024ZM595.336 97.632C594.488 98.624 593.064 99.552 591.704 100.16C591.976 100.336 592.44 100.752 592.632 100.96C593.96 100.272 595.48 99.168 596.44 98.016L595.336 97.632ZM594.104 90.352H603.896V92.192H594.104V90.352ZM592.984 89.424V93.136H605.08V89.424H592.984ZM596.536 87.584V92.704H597.656V87.584H596.536ZM600.2 87.584V92.704H601.32V87.584H600.2ZM598.392 96.496V101.312H599.592V96.496H598.392Z" fill="#D60C18"/>
<path d="M492.632 150.984H501.304V153.4H492.632V150.984ZM491.608 150.168V154.216H502.392V150.168H491.608ZM494.232 148.488V149.336H499.816V148.488H494.232ZM496.44 150.456V153.8H497.448V150.456H496.44ZM493.608 151.464C494.008 152.04 494.376 152.824 494.504 153.336L495.432 153C495.272 152.488 494.888 151.736 494.472 151.176L493.608 151.464ZM499.368 151.112C499.176 151.656 498.776 152.504 498.472 153.048L499.304 153.336C499.624 152.856 500.04 152.12 500.392 151.432L499.368 151.112ZM492.552 154.984V160.28H493.736V155.832H500.376V160.216H501.592V154.984H492.552ZM493.256 156.904V157.784H500.904V156.904H493.256ZM493.256 158.872V159.736H500.904V158.872H493.256ZM496.872 145.496C495.384 147.448 492.52 148.856 489.592 149.656C489.816 149.864 490.152 150.36 490.28 150.6C493.24 149.64 496.248 148.104 497.944 145.896L496.872 145.496ZM497.576 146.056L496.648 146.456C498.264 148.232 501.176 149.768 503.768 150.472C503.944 150.184 504.28 149.752 504.536 149.544C501.944 148.936 499.048 147.592 497.576 146.056ZM509.224 147.16H516.824V148.808H509.224V147.16ZM508.024 146.184V149.8H518.088V146.184H508.024ZM508.536 153.592H517.496V154.728H508.536V153.592ZM508.536 155.576H517.496V156.728H508.536V155.576ZM508.536 151.624H517.496V152.744H508.536V151.624ZM507.336 150.728V157.608H518.728V150.728H507.336ZM510.392 157.592C509.384 158.248 507.288 159.016 505.608 159.416C505.896 159.656 506.296 160.04 506.504 160.296C508.152 159.88 510.232 159.112 511.512 158.328L510.392 157.592ZM514.296 158.424C515.992 158.92 518.168 159.752 519.352 160.312L520.392 159.448C519.144 158.92 517 158.136 515.336 157.64L514.296 158.424ZM532.68 146.376C533.496 147.032 534.44 147.992 534.872 148.632L535.784 147.976C535.32 147.32 534.36 146.424 533.528 145.768L532.68 146.376ZM521.848 149.112V150.12H536.2V149.112H521.848ZM522.568 146.856V147.816H529.528V146.856H522.568ZM522.296 151.192V152.088H529.816V151.192H522.296ZM522.04 157.768V158.696H529.88V157.768H522.04ZM525.48 145.56V149.96H526.632V145.56H525.48ZM523.576 155.256H528.536V156.168H523.576V155.256ZM523.576 153.672H528.536V154.568H523.576V153.672ZM522.664 152.968V156.872H529.464V152.968H522.664ZM525.56 153.384V156.616H525.496V160.296H526.568V156.616H526.488V153.384H525.56ZM525.48 150.168V153.208H526.584V150.168H525.48ZM530.408 145.592C530.456 153.544 531.48 160.28 534.616 160.28C535.8 160.28 536.216 159.528 536.408 156.984C536.104 156.872 535.688 156.632 535.432 156.376C535.336 158.344 535.16 159.112 534.728 159.112C532.744 159.112 531.544 153.224 531.624 145.592H530.408ZM534.408 151C533.32 154.52 531.272 157.64 528.44 159.4C528.744 159.64 529.112 160.008 529.288 160.296C532.216 158.328 534.296 155.064 535.48 151.336L534.408 151ZM546.68 157.656C548.44 158.488 550.312 159.528 551.416 160.312L552.376 159.4C551.192 158.648 549.24 157.624 547.448 156.808L546.68 157.656ZM537.816 155.656V156.76H552.2V155.656H537.816ZM540.824 148.712V149.624H549.16V148.712H540.824ZM540.824 150.984V151.896H549.16V150.984H540.824ZM540.824 153.288V154.2H549.16V153.288H540.824ZM542.232 156.872C541.24 157.752 539.256 158.808 537.64 159.416C537.912 159.656 538.312 160.056 538.52 160.296C540.136 159.656 542.104 158.6 543.368 157.608L542.232 156.872ZM540.376 146.344V156.184H541.528V147.336H548.616V156.184H549.816V146.344H540.376Z" fill="black"/>
<path d="M491.786 181.64V182.354H500.172V181.64H491.786ZM491.814 179.918V180.674H499.738V183.32H491.814V184.09H500.774V179.918H491.814ZM495.398 180.296V184.51C495.398 185.658 495.846 185.938 497.414 185.938C497.764 185.938 500.298 185.938 500.662 185.938C501.992 185.938 502.314 185.49 502.468 183.796C502.174 183.74 501.782 183.6 501.544 183.432C501.474 184.846 501.348 185.084 500.592 185.084C500.046 185.084 497.89 185.084 497.47 185.084C496.574 185.084 496.406 185 496.406 184.51V180.296H495.398ZM491.268 179.918V184.818H492.276V179.918H491.268ZM490.666 173.8V174.556H501.292V173.8H490.666ZM495.426 173.996V179.386H496.462V173.996H495.426ZM490.05 175.452V178.462H491.058V176.194H500.9V178.462H501.95V175.452H490.05ZM491.31 178.63L491.632 179.442C492.542 179.26 493.606 179.05 494.684 178.826L494.656 178.154C493.41 178.35 492.206 178.532 491.31 178.63ZM491.674 177.034C492.584 177.216 493.76 177.58 494.39 177.846L494.698 177.216C494.068 176.936 492.878 176.628 491.982 176.474L491.674 177.034ZM499.892 176.404C499.206 176.656 498.03 177.076 497.218 177.258L497.596 177.804C498.408 177.636 499.556 177.342 500.354 177.006L499.892 176.404ZM497.05 178.728C498.142 178.882 499.57 179.218 500.34 179.484L500.578 178.77C499.794 178.504 498.38 178.196 497.302 178.084L497.05 178.728ZM503.7 179.47V180.52H516.342V179.47H503.7ZM505.1 174.192V175.228H514.242V174.192H505.1ZM513.906 174.192V174.43C512.996 175.41 511.064 176.726 509.496 177.44C509.706 177.622 510.042 177.958 510.196 178.196C511.876 177.384 513.906 176.012 515.208 174.738L514.424 174.136L514.172 174.192H513.906ZM509.496 177.44V184.734C509.496 184.972 509.412 185.042 509.118 185.056C508.81 185.07 507.774 185.084 506.64 185.042C506.822 185.35 507.018 185.812 507.088 186.12C508.446 186.12 509.342 186.106 509.874 185.924C510.42 185.77 510.588 185.448 510.588 184.748V177.44H509.496ZM524.518 177.454V178.28H527.43V177.454H524.518ZM523.482 181.514V182.27H528.326V181.514H523.482ZM518.932 173.842V174.696H522.852V173.842H518.932ZM522.558 173.842V174.01C521.704 175.914 519.478 177.412 517.378 178.042C517.574 178.224 517.826 178.588 517.952 178.826C520.22 178.042 522.53 176.474 523.58 174.122L522.922 173.8L522.74 173.842H522.558ZM524.77 173.268L523.916 173.534C525.05 175.984 527.192 177.832 529.866 178.658C530.02 178.406 530.286 178.042 530.51 177.832C527.906 177.146 525.778 175.438 524.77 173.268ZM527.626 173.338C527.122 173.912 526.198 174.696 525.554 175.172L526.17 175.662C526.842 175.2 527.724 174.528 528.41 173.884L527.626 173.338ZM529.306 174.752C528.788 175.298 527.836 176.082 527.164 176.544L527.808 177.034C528.494 176.6 529.404 175.928 530.076 175.284L529.306 174.752ZM519.52 177.496V178.336H521.858V180.632H522.81V177.496H519.52ZM519.058 179.806C518.946 180.8 518.75 182.074 518.568 182.9H519.478C519.632 182.102 519.814 180.842 519.94 179.806H519.058ZM521.858 182.088V182.228C521.718 184.048 521.564 184.79 521.312 185C521.2 185.112 521.06 185.126 520.794 185.126C520.528 185.126 519.772 185.112 519.002 185.042C519.156 185.294 519.282 185.672 519.31 185.952C520.066 185.994 520.808 186.008 521.172 185.98C521.592 185.952 521.858 185.868 522.11 185.63C522.446 185.294 522.614 184.454 522.796 182.508C522.81 182.368 522.824 182.088 522.824 182.088H521.858ZM524.14 177.454V178.546C524.14 179.218 523.958 179.988 522.838 180.59C523.034 180.716 523.37 181.052 523.51 181.248C524.756 180.52 525.05 179.47 525.05 178.56V177.454H524.14ZM528.102 181.514V181.654C527.29 183.656 525.134 184.874 522.824 185.364C522.992 185.56 523.202 185.91 523.3 186.134C525.834 185.504 528.088 184.188 529.054 181.71L528.452 181.472L528.284 181.514H528.102ZM519.464 179.806L519.324 180.632H522.208V179.806H519.464ZM519.044 182.088L518.89 182.9H522.124V182.088H519.044ZM518.554 175.508C519.212 175.914 519.982 176.516 520.346 176.95L520.99 176.306C520.612 175.9 519.814 175.312 519.17 174.934L518.554 175.508ZM526.954 177.454V179.652C526.954 180.506 527.136 180.828 527.976 180.828C528.158 180.828 528.956 180.828 529.152 180.828C529.432 180.828 529.712 180.828 529.866 180.772C529.838 180.562 529.81 180.254 529.81 180.03C529.642 180.072 529.32 180.086 529.124 180.086C528.956 180.086 528.256 180.086 528.088 180.086C527.892 180.086 527.85 179.988 527.85 179.666V177.454H526.954ZM523.482 182.97C525.19 183.936 527.458 185.336 528.592 186.162L529.138 185.476C527.962 184.65 525.68 183.306 524 182.396L523.482 182.97ZM540.03 183.516C541.206 184.174 542.676 185.154 543.376 185.784L544.188 185.168C543.418 184.51 541.934 183.586 540.786 182.97L540.03 183.516ZM533.45 179.904V180.744H542.578V179.904H533.45ZM531.742 181.71V182.578H544.272V181.71H531.742ZM531.896 173.814V174.668H544.006V173.814H531.896ZM534.794 182.928C534.052 183.796 532.806 184.608 531.616 185.14C531.854 185.294 532.26 185.658 532.428 185.84C533.59 185.238 534.92 184.272 535.76 183.264L534.794 182.928ZM533.716 176.558H542.284V178.168H533.716V176.558ZM532.736 175.746V178.994H543.32V175.746H532.736ZM535.844 174.136V178.616H536.824V174.136H535.844ZM539.05 174.136V178.616H540.03V174.136H539.05ZM537.468 181.934V186.148H538.518V181.934H537.468ZM549.13 184.482V185.434H556.354V184.482H549.13ZM550.95 176.39C549.97 179.512 548.108 181.864 545.434 183.264C545.672 183.46 546.078 183.88 546.232 184.09C548.92 182.536 550.88 180.03 552.014 176.642L550.95 176.39ZM548.64 180.898V186.12H549.69V181.85H556.032V186.092H557.124V180.898H548.64ZM545.756 178.028V179.008H558.258V178.028H545.756ZM545.84 174.514V175.466H551.692V174.514H545.84ZM548.346 173.24V176.88H549.396V173.24H548.346ZM554.52 173.24V176.894H555.57V173.24H554.52ZM552.28 174.514V175.466H558.244V174.514H552.28ZM560.344 175.746V182.41H561.394V176.782H570.536V182.34H571.628V175.746H560.344ZM560.904 180.506V181.528H571.166V180.506H560.904ZM565.412 173.24V186.106H566.504V173.24H565.412ZM573.63 182.2V183.096H586.412V182.2H573.63ZM582.17 181.29C582.646 181.626 583.248 182.116 583.542 182.438L584.074 181.892C583.78 181.584 583.164 181.122 582.688 180.814L582.17 181.29ZM578.306 177.748V178.504H586.174V177.748H578.306ZM583.402 176.712V179.904C583.402 180.044 583.346 180.086 583.178 180.1C582.996 180.114 582.45 180.114 581.792 180.086C581.918 180.338 582.058 180.646 582.1 180.898C582.982 180.898 583.556 180.912 583.934 180.772C584.298 180.632 584.396 180.408 584.396 179.932V176.712H583.402ZM573.7 177.552V178.42H577.396V177.552H573.7ZM576.78 173.282V181.206H577.76V173.282H576.78ZM574.358 173.576V176.474H577.34V175.62H575.254V173.576H574.358ZM579.384 178.966C579.958 179.33 580.616 179.904 580.924 180.31L581.61 179.736C581.288 179.344 580.602 178.798 580.028 178.448L579.384 178.966ZM580.602 174.668C581.302 175.172 582.072 175.914 582.408 176.432L583.15 176.152C582.758 175.62 581.974 174.878 581.288 174.402L580.602 174.668ZM584.788 173.968V174.108C583.71 175.886 580.952 176.754 578.236 177.062C578.39 177.244 578.572 177.524 578.67 177.72C581.596 177.328 584.452 176.39 585.712 174.234L585.152 173.926L584.97 173.968H584.788ZM582.156 173.212C581.4 173.842 580.07 174.472 578.362 174.906C578.544 175.046 578.81 175.326 578.922 175.508C580.756 174.962 582.114 174.276 583.08 173.408L582.156 173.212ZM581.596 173.968L580.77 174.626H585.054V173.968H581.596ZM574.708 177.874V178.532C574.708 179.134 574.54 180.184 573.644 180.87C573.882 180.968 574.274 181.178 574.456 181.346C575.436 180.562 575.646 179.288 575.646 178.56V177.874H574.708ZM579.412 180.8V181.668C579.412 182.76 578.768 184.44 573.518 185.308C573.742 185.546 573.994 185.924 574.12 186.162C579.748 185.21 580.448 183.166 580.448 181.696V180.8H579.412ZM580.392 183.726C582.226 184.426 584.704 185.476 585.95 186.106L586.468 185.28C585.152 184.65 582.66 183.67 580.882 183.012L580.392 183.726ZM578.642 175.774L578.754 176.404C579.468 176.348 580.252 176.292 581.092 176.222V175.634C580.154 175.69 579.328 175.746 578.642 175.774ZM592.236 180.436V181.374H600.398V180.436H592.236ZM595.428 174.43L594.952 175.2H599.054L599.306 174.43H595.428ZM597.57 178.462V184.748C597.57 184.93 597.514 184.986 597.29 184.986C597.052 185 596.296 185.014 595.47 184.986C595.61 185.28 595.75 185.7 595.792 185.994C596.912 185.994 597.612 185.98 598.018 185.812C598.452 185.644 598.578 185.336 598.578 184.748V178.462H597.57ZM596.058 173.226C595.246 174.374 593.692 175.55 592.012 176.222C592.208 176.39 592.516 176.698 592.67 176.88C594.392 176.096 596.072 174.864 597.08 173.534L596.058 173.226ZM593.258 182.186C593.958 182.886 594.742 183.866 595.078 184.51L595.932 183.964C595.582 183.334 594.77 182.396 594.07 181.724L593.258 182.186ZM594.49 175.494C595.344 176.18 596.268 177.16 596.674 177.832L597.388 177.314C596.954 176.628 596.002 175.676 595.162 175.032L594.49 175.494ZM588.596 177.286V178.21H591.284V177.286H588.596ZM587.56 180.282V181.206H591.242V180.282H587.56ZM590.794 173.254V186.12H591.774V173.254H590.794ZM588.162 173.8V178.21H589.1V173.8H588.162ZM588.33 180.632V181.514C588.33 182.606 588.204 184.356 587.434 185.644C587.686 185.742 588.064 185.98 588.246 186.148C589.114 184.748 589.254 182.76 589.254 181.542V180.632H588.33ZM598.928 174.43V174.612C597.878 177.202 595.036 178.896 592.278 179.54C592.46 179.75 592.698 180.1 592.796 180.338C595.764 179.512 598.704 177.762 599.95 174.71L599.306 174.388L599.124 174.43H598.928ZM592.306 177.426L592.474 178.21C593.328 178.098 594.308 177.958 595.33 177.804L595.274 177.062C594.14 177.216 593.09 177.356 592.306 177.426ZM602.022 174.374V176.852H603.002V175.284H612.956V176.852H613.964V174.374H602.022ZM603.548 176.418V177.272H612.438V176.418H603.548ZM607.594 175.634C607.342 177.678 606.516 178.63 603.044 179.092C603.212 179.288 603.436 179.652 603.52 179.89C607.286 179.316 608.28 178.112 608.588 175.634H607.594ZM607.132 178.07C608.798 178.518 610.912 179.288 611.99 179.904L612.522 179.148C611.402 178.546 609.274 177.804 607.65 177.412L607.132 178.07ZM601.798 179.778V180.716H614.202V179.778H601.798ZM611.178 180.38V184.916C611.178 185.112 611.108 185.154 610.884 185.182C610.646 185.182 609.876 185.182 609.022 185.154C609.148 185.448 609.302 185.84 609.358 186.12C610.45 186.12 611.192 186.12 611.626 185.966C612.074 185.812 612.2 185.532 612.2 184.944V180.38H611.178ZM603.492 181.584V185.392H604.472V181.584H603.492ZM604.136 181.584V182.41H608.182V183.852H604.136V184.678H609.176V181.584H604.136ZM607.244 173.394C607.454 173.856 607.664 174.472 607.706 174.878L608.784 174.626C608.714 174.22 608.518 173.604 608.266 173.17L607.244 173.394ZM619.634 178.868V179.848H628.174V178.868H619.634ZM620.068 175.872V176.838H627.824V175.872H620.068ZM623.302 176.348V178.266C623.302 179.778 623.078 181.962 619.494 183.488C619.746 183.684 620.068 184.02 620.208 184.244C623.918 182.508 624.338 180.058 624.338 178.28V176.348H623.302ZM625.878 173.24C625.542 174.108 624.926 175.354 624.436 176.11L625.276 176.418C625.794 175.69 626.424 174.556 626.942 173.59L625.878 173.24ZM620.782 173.604C621.216 174.304 621.748 175.256 622.014 175.816L622.938 175.41C622.672 174.864 622.098 173.954 621.664 173.282L620.782 173.604ZM623.134 180.604C624.576 181.724 626.48 183.306 627.404 184.244L628.16 183.502C627.18 182.578 625.248 181.052 623.848 179.974L623.134 180.604ZM616.162 173.702C616.736 174.402 617.464 175.382 617.8 175.97L618.64 175.424C618.29 174.85 617.562 173.94 616.96 173.254L616.162 173.702ZM615.644 176.474V177.356H618.668V176.474H615.644ZM618.136 182.9L617.436 183.222C618.5 185.532 620.334 185.896 623.624 185.896C625.164 185.896 626.928 185.868 628.258 185.784C628.314 185.504 628.44 185.028 628.594 184.804C627.152 184.93 625.108 184.986 623.624 184.986C620.824 184.986 619.004 184.734 618.136 182.9ZM618.136 179.974V180.156C617.786 182.676 616.806 184.468 615.42 185.42C615.63 185.574 615.98 185.938 616.12 186.148C617.576 185.07 618.654 183.082 619.102 180.142L618.626 179.946L618.444 179.974H618.136ZM615.854 181.024C615.952 180.912 616.316 180.828 616.68 180.828H618.57V179.974H616.358L615.854 180.226V181.024ZM615.854 181.024C615.854 180.758 616.638 180.366 616.638 180.366C617.436 179.47 618.696 177.678 619.354 176.726L618.654 176.404L618.346 176.544V176.586C617.884 177.328 616.554 179.232 616.134 179.652C615.896 179.932 615.672 180.016 615.462 180.072C615.574 180.296 615.784 180.786 615.854 181.024ZM630.064 174.024V175.018H641.824V174.024H630.064ZM630.988 181.01V182.004H641.096V181.01H630.988ZM629.756 184.594V185.574H642.272V184.594H629.756ZM635.426 179.204V185.238H636.518V179.204H635.426ZM637.302 176.18C638.59 177.16 640.13 178.588 640.83 179.526L641.74 178.882C640.97 177.93 639.402 176.572 638.128 175.62L637.302 176.18ZM631.044 179.092C631.044 178.854 631.856 178.532 631.856 178.532V178.518C633.032 177.566 634.306 176.166 635.454 174.64L634.292 174.304C633.382 175.69 632.08 177.034 631.674 177.398C631.296 177.762 630.974 178 630.694 178.042C630.806 178.322 630.988 178.854 631.044 179.092ZM631.044 179.092C631.562 178.91 632.346 178.882 640.27 178.504C640.214 178.294 640.116 177.888 640.088 177.608L631.786 177.944L631.03 178.322L631.044 179.092ZM650.686 175.97V176.964H656.37V175.97H650.686ZM651.078 173.24C650.672 175.69 649.93 177.972 648.726 179.4C648.95 179.596 649.328 180.058 649.482 180.282C650.798 178.63 651.666 176.138 652.142 173.422L651.078 173.24ZM654.354 176.474C653.696 180.842 652.226 183.698 648.964 185.28C649.188 185.49 649.51 185.924 649.636 186.148C653.024 184.314 654.606 181.304 655.39 176.614L654.354 176.474ZM651.078 176.852L650.21 177.048C651.148 181.094 652.87 184.482 655.754 186.064C655.922 185.798 656.258 185.42 656.496 185.21C653.682 183.824 651.932 180.576 651.078 176.852ZM647.522 173.45V186.134H648.572V173.45H647.522ZM644.288 183.6C644.582 183.376 645.03 183.138 648.264 181.99C648.18 181.766 648.054 181.36 648.012 181.08L644.652 182.172L644.176 182.606L644.288 183.6ZM644.288 183.6C644.288 183.222 645.366 182.634 645.366 182.634V174.808H644.344V181.696C644.344 182.242 644.05 182.522 643.854 182.648C644.008 182.872 644.204 183.348 644.288 183.6ZM665.456 173.422V186.12H666.506V173.422H665.456ZM663.034 173.954C662.712 175.774 662.124 177.58 661.312 178.756C661.578 178.868 662.012 179.12 662.222 179.274C663.02 178.028 663.664 176.11 664.042 174.15L663.034 173.954ZM663.174 176.11L662.908 177.146H669.712V176.11H663.174ZM661.424 180.226V181.262H670.328V180.226H661.424ZM660.738 173.296C659.996 175.424 658.75 177.524 657.434 178.882C657.63 179.134 657.938 179.68 658.036 179.918C659.492 178.336 660.85 175.97 661.732 173.604L660.738 173.296ZM659.324 176.908V186.106H660.332V175.928L660.318 175.914L659.324 176.908ZM671.728 176.614V177.608H675.928V176.614H671.728ZM673.408 173.408V182.494H674.402V173.408H673.408ZM671.462 182.732L671.882 183.782C673.114 183.236 674.682 182.522 676.166 181.836L675.942 180.898C674.29 181.598 672.582 182.312 671.462 182.732ZM679.89 173.24V182.998H680.884V173.24H679.89ZM675.48 179.022L675.886 179.946L683.418 176.74L683.026 175.844L675.48 179.022ZM676.992 174.556V183.908C676.992 185.434 677.468 185.812 679.078 185.812C679.428 185.812 682.144 185.812 682.522 185.812C683.992 185.812 684.328 185.196 684.496 183.264C684.202 183.208 683.796 183.04 683.544 182.872C683.446 184.482 683.306 184.86 682.48 184.86C681.92 184.86 679.568 184.86 679.106 184.86C678.168 184.86 678 184.692 678 183.922V174.556H676.992ZM682.746 176.18C682.662 178.126 682.452 180.702 682.172 182.2L683.04 182.452C683.404 180.856 683.642 178.266 683.768 176.278L683.824 176.096L683.026 175.844L682.592 176.18H682.746ZM694.534 178.098V179.106H698.258V178.098H694.534ZM689.354 184.622V185.616H698.468V184.622H689.354ZM694.17 173.338V185.126H695.234V173.338H694.17ZM691.076 176.306V185.07H692.098V176.306H691.076ZM685.616 176.614V177.608H690.362V176.614H685.616ZM687.534 173.422V182.382H688.528V173.422H687.534ZM685.476 182.732L685.868 183.768C687.17 183.236 688.906 182.508 690.502 181.808L690.306 180.884C688.542 181.57 686.694 182.312 685.476 182.732Z" fill="#939EA7"/>
<path d="M660.76 95.632C662.024 97.344 663.576 99.712 664.312 101.184L665.512 100.528C664.744 99.104 663.208 96.832 661.896 95.12L660.76 95.632ZM656.056 87.04C655.064 89.472 653.384 91.84 651.576 93.328C651.896 93.552 652.424 94.048 652.648 94.304C654.44 92.656 656.216 90.08 657.368 87.44L656.056 87.04ZM653.592 100.512C653.592 100.208 654.568 99.808 654.568 99.808V99.776C656.504 97.776 658.44 94.912 660.04 92.048L658.696 91.472C657.352 94.208 655.272 97.088 654.616 97.824C654.008 98.576 653.544 99.104 653.112 99.216C653.288 99.568 653.512 100.24 653.592 100.512ZM653.592 100.512C654.216 100.256 655.128 100.208 664.152 99.6C664.072 99.328 663.944 98.816 663.88 98.464L654.44 99.008L653.56 99.488L653.592 100.512ZM660.824 86.96V87.68H661.144C661.992 90.288 663.64 92.848 665.576 94.304C665.8 93.936 666.232 93.424 666.52 93.184C664.632 91.936 663.016 89.52 662.248 86.96H660.824ZM658.344 86.96V88.192H661.848V86.96H658.344ZM668.408 87.6V88.752H680.472V87.6H668.408ZM668.504 90.432V91.504H678.152V90.432H668.504ZM679.992 87.6V99.488C679.992 99.792 679.896 99.872 679.592 99.888C679.256 99.904 678.168 99.904 677.048 99.872C677.24 100.224 677.416 100.816 677.48 101.184C678.904 101.184 679.912 101.168 680.472 100.96C681.032 100.736 681.192 100.32 681.192 99.488V87.6H679.992ZM669.528 93.232V99.536H670.696V93.232H669.528ZM670.488 93.232V94.304H675.864V97.296H670.488V98.352H677.048V93.232H670.488ZM686.184 96.16V96.976H695.768V96.16H686.184ZM686.216 94.192V95.056H695.272V98.08H686.216V98.96H696.456V94.192H686.216ZM690.312 94.624V99.44C690.312 100.752 690.824 101.072 692.616 101.072C693.016 101.072 695.912 101.072 696.328 101.072C697.848 101.072 698.216 100.56 698.392 98.624C698.056 98.56 697.608 98.4 697.336 98.208C697.256 99.824 697.112 100.096 696.248 100.096C695.624 100.096 693.16 100.096 692.68 100.096C691.656 100.096 691.464 100 691.464 99.44V94.624H690.312ZM685.592 94.192V99.792H686.744V94.192H685.592ZM684.904 87.2V88.064H697.048V87.2H684.904ZM690.344 87.424V93.584H691.528V87.424H690.344ZM684.2 89.088V92.528H685.352V89.936H696.6V92.528H697.8V89.088H684.2ZM685.64 92.72L686.008 93.648C687.048 93.44 688.264 93.2 689.496 92.944L689.464 92.176C688.04 92.4 686.664 92.608 685.64 92.72ZM686.056 90.896C687.096 91.104 688.44 91.52 689.16 91.824L689.512 91.104C688.792 90.784 687.432 90.432 686.408 90.256L686.056 90.896ZM695.448 90.176C694.664 90.464 693.32 90.944 692.392 91.152L692.824 91.776C693.752 91.584 695.064 91.248 695.976 90.864L695.448 90.176ZM692.2 92.832C693.448 93.008 695.08 93.392 695.96 93.696L696.232 92.88C695.336 92.576 693.72 92.224 692.488 92.096L692.2 92.832ZM699.8 93.68V94.88H714.248V93.68H699.8ZM701.4 87.648V88.832H711.848V87.648H701.4ZM711.464 87.648V87.92C710.424 89.04 708.216 90.544 706.424 91.36C706.664 91.568 707.048 91.952 707.224 92.224C709.144 91.296 711.464 89.728 712.952 88.272L712.056 87.584L711.768 87.648H711.464ZM706.424 91.36V99.696C706.424 99.968 706.328 100.048 705.992 100.064C705.64 100.08 704.456 100.096 703.16 100.048C703.368 100.4 703.592 100.928 703.672 101.28C705.224 101.28 706.248 101.264 706.856 101.056C707.48 100.88 707.672 100.512 707.672 99.712V91.36H706.424ZM723.592 91.376V92.32H726.92V91.376H723.592ZM722.408 96.016V96.88H727.944V96.016H722.408ZM717.208 87.248V88.224H721.688V87.248H717.208ZM721.352 87.248V87.44C720.376 89.616 717.832 91.328 715.432 92.048C715.656 92.256 715.944 92.672 716.088 92.944C718.68 92.048 721.32 90.256 722.52 87.568L721.768 87.2L721.56 87.248H721.352ZM723.88 86.592L722.904 86.896C724.2 89.696 726.648 91.808 729.704 92.752C729.88 92.464 730.184 92.048 730.44 91.808C727.464 91.024 725.032 89.072 723.88 86.592ZM727.144 86.672C726.568 87.328 725.512 88.224 724.776 88.768L725.48 89.328C726.248 88.8 727.256 88.032 728.04 87.296L727.144 86.672ZM729.064 88.288C728.472 88.912 727.384 89.808 726.616 90.336L727.352 90.896C728.136 90.4 729.176 89.632 729.944 88.896L729.064 88.288ZM717.88 91.424V92.384H720.552V95.008H721.64V91.424H717.88ZM717.352 94.064C717.224 95.2 717 96.656 716.792 97.6H717.832C718.008 96.688 718.216 95.248 718.36 94.064H717.352ZM720.552 96.672V96.832C720.392 98.912 720.216 99.76 719.928 100C719.8 100.128 719.64 100.144 719.336 100.144C719.032 100.144 718.168 100.128 717.288 100.048C717.464 100.336 717.608 100.768 717.64 101.088C718.504 101.136 719.352 101.152 719.768 101.12C720.248 101.088 720.552 100.992 720.84 100.72C721.224 100.336 721.416 99.376 721.624 97.152C721.64 96.992 721.656 96.672 721.656 96.672H720.552ZM723.16 91.376V92.624C723.16 93.392 722.952 94.272 721.672 94.96C721.896 95.104 722.28 95.488 722.44 95.712C723.864 94.88 724.2 93.68 724.2 92.64V91.376H723.16ZM727.688 96.016V96.176C726.76 98.464 724.296 99.856 721.656 100.416C721.848 100.64 722.088 101.04 722.2 101.296C725.096 100.576 727.672 99.072 728.776 96.24L728.088 95.968L727.896 96.016H727.688ZM717.816 94.064L717.656 95.008H720.952V94.064H717.816ZM717.336 96.672L717.16 97.6H720.856V96.672H717.336ZM716.776 89.152C717.528 89.616 718.408 90.304 718.824 90.8L719.56 90.064C719.128 89.6 718.216 88.928 717.48 88.496L716.776 89.152ZM726.376 91.376V93.888C726.376 94.864 726.584 95.232 727.544 95.232C727.752 95.232 728.664 95.232 728.888 95.232C729.208 95.232 729.528 95.232 729.704 95.168C729.672 94.928 729.64 94.576 729.64 94.32C729.448 94.368 729.08 94.384 728.856 94.384C728.664 94.384 727.864 94.384 727.672 94.384C727.448 94.384 727.4 94.272 727.4 93.904V91.376H726.376ZM722.408 97.68C724.36 98.784 726.952 100.384 728.248 101.328L728.872 100.544C727.528 99.6 724.92 98.064 723 97.024L722.408 97.68ZM741.32 98.304C742.664 99.056 744.344 100.176 745.144 100.896L746.072 100.192C745.192 99.44 743.496 98.384 742.184 97.68L741.32 98.304ZM733.8 94.176V95.136H744.232V94.176H733.8ZM731.848 96.24V97.232H746.168V96.24H731.848ZM732.024 87.216V88.192H745.864V87.216H732.024ZM735.336 97.632C734.488 98.624 733.064 99.552 731.704 100.16C731.976 100.336 732.44 100.752 732.632 100.96C733.96 100.272 735.48 99.168 736.44 98.016L735.336 97.632ZM734.104 90.352H743.896V92.192H734.104V90.352ZM732.984 89.424V93.136H745.08V89.424H732.984ZM736.536 87.584V92.704H737.656V87.584H736.536ZM740.2 87.584V92.704H741.32V87.584H740.2ZM738.392 96.496V101.312H739.592V96.496H738.392Z" fill="black"/>
<line x1="439" y1="119.5" x2="759" y2="119.5" stroke="#EEEEEE"/>
<rect x="489" y="117" width="140" height="3" fill="#D60C18"/>
<rect x="723" y="66" width="35" height="53" fill="white"/>
<g clip-path="url(#clip0_44_132)">
<path d="M737.708 99.8682C737.532 100.044 737.268 100.044 737.093 99.8682C737.005 99.8097 736.976 99.6926 736.976 99.6047C736.976 99.4876 737.005 99.3998 737.093 99.312L743.007 93.4854L737.093 87.7173C737.034 87.6295 736.976 87.5417 736.976 87.4246C736.976 87.3074 737.005 87.2196 737.093 87.1318C737.268 86.9561 737.532 86.9561 737.708 87.1318L743.915 93.2218C744.061 93.3682 744.061 93.6318 743.915 93.7782L737.708 99.8683V99.8682Z" fill="black"/>
</g>
<circle cx="469" cy="152" r="9.5" stroke="#48545D"/>
<line x1="367" y1="182.75" x2="383" y2="182.75" stroke="#D60C18" stroke-width="0.5"/>
<line x1="375" y1="94.75" x2="348" y2="94.75" stroke="#D60C18" stroke-width="0.5"/>
<line x1="741.25" y1="54" x2="741.25" y2="81" stroke="#D60C18" stroke-width="0.5"/>
<line x1="99.75" y1="80" x2="99.75" y2="54" stroke="#D60C18" stroke-width="0.5"/>
<path d="M380.228 89.878V90.858H384.988V89.878H380.228ZM382.076 90.396V97.144H383.126V90.396H382.076ZM379.934 97.452L380.354 98.46C381.726 97.97 383.588 97.312 385.324 96.668L385.156 95.744C383.238 96.402 381.222 97.074 379.934 97.452ZM385.058 88.912V89.822H392.968V88.912H385.058ZM386.724 94.162H391.4V95.52H386.724V94.162ZM386.724 96.304H391.4V97.676H386.724V96.304ZM386.724 92.034H391.4V93.378H386.724V92.034ZM385.744 91.208V98.502H392.436V91.208H385.744ZM388.446 89.36C388.348 90.046 388.124 91.012 387.928 91.656L388.88 91.838C389.118 91.25 389.398 90.34 389.65 89.528L388.446 89.36ZM387.256 98.712C386.556 99.314 385.114 100.014 383.91 100.392C384.12 100.602 384.428 100.924 384.582 101.134C385.814 100.728 387.256 100.014 388.166 99.3L387.256 98.712ZM389.58 99.342C390.546 99.846 391.778 100.63 392.366 101.148L393.206 100.518C392.548 99.986 391.316 99.244 390.378 98.768L389.58 99.342ZM396.426 92.426V93.42H404.532V92.426H396.426ZM396.426 95.744V96.738H404.532V95.744H396.426ZM396.426 99.076V100.098H404.532V99.076H396.426ZM395.698 89.108V101.05H396.748V90.144H404.112V101.05H405.204V89.108H395.698Z" fill="black"/>
<path d="M390.634 179.166C389.822 180.188 388.506 181.168 387.232 181.798C387.456 181.994 387.82 182.4 387.974 182.61C389.262 181.868 390.69 180.706 391.628 179.488L390.634 179.166ZM394.204 179.768C395.506 180.58 397.074 181.77 397.83 182.582L398.586 181.868C397.802 181.084 396.192 179.922 394.904 179.166L394.204 179.768ZM389.08 184.43V189.134H390.088V185.368H395.87V189.078H396.934V184.43H389.08ZM389.626 187.72V188.658H396.388V187.72H389.626ZM387.148 177.542V180.09H388.184V178.494H397.774V180.09H398.838V177.542H387.148ZM392.062 176.394C392.37 176.94 392.706 177.654 392.832 178.102L393.952 177.822C393.812 177.36 393.462 176.66 393.126 176.142L392.062 176.394ZM392.93 180.384C391.586 182.456 389.108 184.22 386.518 185.186C386.756 185.396 387.036 185.76 387.19 186.026C389.878 184.92 392.37 183.058 393.84 180.79L392.93 180.384ZM393.336 180.874L392.482 181.266C394.26 183.464 396.304 184.752 398.74 185.858C398.894 185.55 399.174 185.186 399.426 184.976C397.032 184.024 394.96 182.848 393.336 180.874ZM402.688 177.738H405.194V179.866H402.688V177.738ZM401.75 176.87V180.734H406.16V176.87H401.75ZM408.68 177.738H411.284V179.866H408.68V177.738ZM407.742 176.87V180.734H412.264V176.87H407.742ZM400.714 182.064V182.974H413.286V182.064H400.714ZM402.506 187.79V188.658H405.908V187.79H402.506ZM408.078 187.79V188.658H411.606V187.79H408.078ZM402.03 184.752V189.106H402.968V185.606H405.362V189.036H406.328V184.752H402.03ZM407.63 184.752V189.106H408.554V185.606H411.06V189.036H412.04V184.752H407.63ZM406.076 180.482C405.306 182.19 403.43 184.052 400.392 185.158C400.602 185.326 400.868 185.69 400.98 185.928C404.158 184.682 406.118 182.708 407.112 180.678L406.076 180.482ZM408.61 181.21C409.31 181.476 410.178 181.938 410.612 182.288L411.158 181.7C410.71 181.35 409.828 180.916 409.128 180.678L408.61 181.21ZM407.812 182.792C409.73 183.66 411.592 184.836 412.67 185.83L413.398 185.2C412.278 184.192 410.304 183.03 408.372 182.176L407.812 182.792Z" fill="black"/>
<path d="M714.372 37.662V48.12H715.408V38.698H725.026V37.662H714.372ZM724.634 37.662V46.72C724.634 46.986 724.564 47.056 724.284 47.07C723.99 47.084 723.024 47.084 722.002 47.042C722.17 47.336 722.324 47.826 722.38 48.134C723.654 48.134 724.536 48.106 725.04 47.938C725.53 47.77 725.684 47.42 725.684 46.734V37.662H724.634ZM719.132 35.212C718.894 36.066 718.432 37.284 718.04 38.068L719.048 38.306C719.468 37.564 720 36.43 720.434 35.436L719.132 35.212ZM717.256 40.546V46.188H718.222V40.546H717.256ZM717.704 40.546V41.498H721.764V44.242H717.704V45.18H722.744V40.546H717.704ZM727.896 37.858V38.88H740.132V37.858H727.896ZM731.382 46.328V47.35H738.424V46.328H731.382ZM730.752 41.596V48.148H731.788V42.618H738.018V48.078H739.124V41.596H730.752ZM732.754 35.24C732.012 38.782 730.486 42.45 727.434 44.536C727.658 44.746 727.98 45.124 728.134 45.362C731.34 43.094 732.95 39.272 733.86 35.45L732.754 35.24ZM742.288 47H743.562V39.398H742.288V47ZM742.932 37.83C743.422 37.83 743.786 37.508 743.786 36.976C743.786 36.486 743.422 36.164 742.932 36.164C742.428 36.164 742.078 36.486 742.078 36.976C742.078 37.508 742.428 37.83 742.932 37.83ZM749.125 47.196C750.035 47.196 750.917 46.832 751.589 46.23L751.043 45.376C750.567 45.796 749.937 46.132 749.251 46.132C747.851 46.132 746.885 44.956 746.885 43.22C746.885 41.456 747.893 40.28 749.293 40.28C749.881 40.28 750.357 40.546 750.805 40.952L751.449 40.112C750.917 39.622 750.217 39.216 749.223 39.216C747.277 39.216 745.569 40.672 745.569 43.22C745.569 45.726 747.109 47.196 749.125 47.196ZM755.865 47.196C757.727 47.196 759.379 45.726 759.379 43.22C759.379 40.672 757.727 39.216 755.865 39.216C753.989 39.216 752.337 40.672 752.337 43.22C752.337 45.726 753.989 47.196 755.865 47.196ZM755.865 46.132C754.535 46.132 753.653 44.956 753.653 43.22C753.653 41.456 754.535 40.28 755.865 40.28C757.181 40.28 758.063 41.456 758.063 43.22C758.063 44.956 757.181 46.132 755.865 46.132ZM761.401 47H762.675V41.484C763.431 40.728 763.977 40.322 764.747 40.322C765.755 40.322 766.189 40.924 766.189 42.352V47H767.477V42.184C767.477 40.252 766.749 39.216 765.153 39.216C764.103 39.216 763.319 39.79 762.605 40.504H762.563L762.437 39.398H761.401V47Z" fill="black"/>
<path d="M79.924 38.986V40.008H85.398V38.986H79.924ZM82.724 39.672V47.078H83.76V39.672H82.724ZM73.372 35.626V40.526C73.372 42.36 73.288 44.768 72.392 46.49C72.63 46.602 73.064 46.966 73.246 47.148C74.268 45.314 74.394 42.514 74.394 40.526V35.626H73.372ZM84.432 34.422C83.284 34.954 81.226 35.402 79.476 35.654C79.602 35.892 79.742 36.284 79.798 36.536C81.59 36.298 83.76 35.892 85.146 35.304L84.432 34.422ZM73.946 37.768V38.72H77.166V40.96H73.946V41.912H78.188V37.768H73.946ZM78.16 34.534C77.068 35.052 75.052 35.43 73.372 35.626C73.498 35.878 73.638 36.242 73.68 36.494C75.402 36.326 77.516 35.99 78.846 35.416L78.16 34.534ZM79.476 35.654V40.316C79.476 42.262 79.308 44.726 77.642 46.448C77.88 46.588 78.3 46.952 78.468 47.148C80.274 45.328 80.54 42.444 80.54 40.33V35.654H79.476ZM86.868 36.41V37.432H99.132V36.41H86.868ZM91.208 40.848V41.828H98.586V40.848H91.208ZM90.662 45.804V46.798H99.132V45.804H90.662ZM94.372 38.146V46.336H95.422V38.146H94.372ZM91.474 34.24C90.69 37.124 89.052 40.232 86.532 42.01C86.7 42.248 86.966 42.696 87.078 42.976C89.864 40.974 91.572 37.712 92.552 34.506L91.474 34.24ZM88.702 40.008V47.078H89.752V40.008H88.702ZM105.152 36.788V37.81H112.782V36.788H105.152ZM106.076 38.874C106.51 40.834 106.916 43.41 107.028 44.88L108.078 44.586C107.924 43.158 107.49 40.624 107.028 38.664L106.076 38.874ZM110.836 38.552C110.556 40.722 109.968 43.83 109.436 45.706L110.36 45.93C110.906 44.054 111.536 41.058 111.942 38.734L110.836 38.552ZM104.564 45.538V46.546H113.356V45.538H104.564ZM107.966 34.408C108.232 35.108 108.526 36.046 108.638 36.634L109.674 36.34C109.534 35.738 109.226 34.842 108.96 34.142L107.966 34.408ZM104.004 34.296C103.206 36.424 101.904 38.524 100.518 39.882C100.714 40.12 101.022 40.68 101.12 40.918C102.646 39.35 104.074 36.984 104.984 34.604L104.004 34.296ZM102.506 37.908V47.106H103.556V36.872V36.858L102.506 37.908ZM123.114 35.542H125.466V36.802H123.114V35.542ZM119.838 35.542H122.148V36.802H119.838V35.542ZM116.632 35.542H118.872V36.802H116.632V35.542ZM115.624 34.772V37.558H126.516V34.772H115.624ZM114.938 38.384V39.196H126.908V38.384H114.938ZM120.384 37.306C120.272 38.272 120.048 39.518 119.852 40.33H120.846C121.056 39.546 121.294 38.356 121.462 37.362L120.384 37.306ZM114.798 45.916V46.714H127.23V45.916H114.798ZM117.164 41.534V42.164H124.794V41.534H117.164ZM117.22 42.962V43.592H124.766V42.962H117.22ZM117.262 44.432V45.062H124.822V44.432H117.262ZM116.66 40.036V46.35H117.654V40.75H124.262V46.35H125.298V40.036H116.66Z" fill="black"/>
<path d="M461.132 116.168C462.608 116.168 464.012 115.064 464.012 113.144C464.012 111.2 462.824 110.336 461.36 110.336C460.832 110.336 460.436 110.468 460.04 110.684L460.268 108.14H463.592V107.204H459.308L459.032 111.32L459.62 111.692C460.124 111.356 460.496 111.164 461.084 111.164C462.176 111.164 462.896 111.92 462.896 113.18C462.896 114.452 462.068 115.256 461.024 115.256C460.016 115.256 459.368 114.788 458.876 114.272L458.324 114.992C458.924 115.592 459.764 116.168 461.132 116.168ZM467.992 116.168C469.648 116.168 470.716 114.644 470.716 111.572C470.716 108.524 469.648 107.048 467.992 107.048C466.312 107.048 465.244 108.524 465.244 111.572C465.244 114.644 466.312 116.168 467.992 116.168ZM467.992 115.28C466.984 115.28 466.3 114.164 466.3 111.572C466.3 109.016 466.984 107.924 467.992 107.924C468.988 107.924 469.66 109.016 469.66 111.572C469.66 114.164 468.988 115.28 467.992 115.28Z" fill="#D60C18"/>
<line x1="488.5" y1="119.5" x2="488.5" y2="102.5" stroke="#939EA7" stroke-linecap="square" stroke-dasharray="2 2"/>
<line x1="439.5" y1="119.5" x2="439.5" y2="102.5" stroke="#939EA7" stroke-linecap="square" stroke-dasharray="2 2"/>
<path d="M737.156 133.168C738.728 133.168 739.988 132.22 739.988 130.66C739.988 129.448 739.148 128.668 738.116 128.416V128.368C739.052 128.032 739.676 127.324 739.676 126.256C739.676 124.852 738.596 124.048 737.12 124.048C736.112 124.048 735.332 124.492 734.672 125.092L735.26 125.8C735.752 125.296 736.376 124.936 737.084 124.936C737.996 124.936 738.56 125.488 738.56 126.328C738.56 127.288 737.948 128.008 736.136 128.008V128.86C738.164 128.86 738.872 129.556 738.872 130.612C738.872 131.62 738.128 132.256 737.084 132.256C736.076 132.256 735.416 131.776 734.9 131.236L734.348 131.956C734.924 132.592 735.776 133.168 737.156 133.168ZM743.788 133.168C745.264 133.168 746.668 132.064 746.668 130.144C746.668 128.2 745.48 127.336 744.016 127.336C743.488 127.336 743.092 127.468 742.696 127.684L742.924 125.14H746.248V124.204H741.964L741.688 128.32L742.276 128.692C742.78 128.356 743.152 128.164 743.74 128.164C744.832 128.164 745.552 128.92 745.552 130.18C745.552 131.452 744.724 132.256 743.68 132.256C742.672 132.256 742.024 131.788 741.532 131.272L740.98 131.992C741.58 132.592 742.42 133.168 743.788 133.168Z" fill="#D60C18"/>
<line x1="758.5" y1="136.5" x2="758.5" y2="119.5" stroke="#939EA7" stroke-linecap="square" stroke-dasharray="2 2"/>
<line x1="723.5" y1="136.5" x2="723.5" y2="119.5" stroke="#939EA7" stroke-linecap="square" stroke-dasharray="2 2"/>
<line x1="67.5" y1="163.5" x2="67.5" y2="143.5" stroke="#939EA7" stroke-linecap="square" stroke-dasharray="2 2"/>
<line x1="47.5" y1="163.5" x2="47.5" y2="143.5" stroke="#939EA7" stroke-linecap="square" stroke-dasharray="2 2"/>
<line x1="26.5" y1="142" x2="46.5" y2="142" stroke="#939EA7" stroke-linecap="square" stroke-dasharray="2 2"/>
<path d="M51.528 157H57.048V156.064H54.612C54.168 156.064 53.64 156.1 53.172 156.148C55.248 154.192 56.628 152.404 56.628 150.64C56.628 149.068 55.644 148.048 54.072 148.048C52.956 148.048 52.188 148.564 51.468 149.344L52.104 149.956C52.596 149.38 53.22 148.936 53.94 148.936C55.032 148.936 55.548 149.68 55.548 150.688C55.548 152.188 54.288 153.952 51.528 156.364V157ZM60.9923 157.168C62.6483 157.168 63.7162 155.644 63.7162 152.572C63.7162 149.524 62.6483 148.048 60.9923 148.048C59.3123 148.048 58.2443 149.524 58.2443 152.572C58.2443 155.644 59.3123 157.168 60.9923 157.168ZM60.9923 156.28C59.9843 156.28 59.3003 155.164 59.3003 152.572C59.3003 150.016 59.9843 148.924 60.9923 148.924C61.9883 148.924 62.6603 150.016 62.6603 152.572C62.6603 155.164 61.9883 156.28 60.9923 156.28Z" fill="#D60C18"/>
<path d="M33.132 95.168C34.608 95.168 36.012 94.064 36.012 92.144C36.012 90.2 34.824 89.336 33.36 89.336C32.832 89.336 32.436 89.468 32.04 89.684L32.268 87.14H35.592V86.204H31.308L31.032 90.32L31.62 90.692C32.124 90.356 32.496 90.164 33.084 90.164C34.176 90.164 34.896 90.92 34.896 92.18C34.896 93.452 34.068 94.256 33.024 94.256C32.016 94.256 31.368 93.788 30.876 93.272L30.324 93.992C30.924 94.592 31.764 95.168 33.132 95.168ZM39.7883 95.168C41.2643 95.168 42.6683 94.064 42.6683 92.144C42.6683 90.2 41.4803 89.336 40.0163 89.336C39.4883 89.336 39.0923 89.468 38.6963 89.684L38.9243 87.14H42.2483V86.204H37.9643L37.6883 90.32L38.2763 90.692C38.7803 90.356 39.1523 90.164 39.7402 90.164C40.8323 90.164 41.5523 90.92 41.5523 92.18C41.5523 93.452 40.7243 94.256 39.6803 94.256C38.6723 94.256 38.0243 93.788 37.5323 93.272L36.9803 93.992C37.5803 94.592 38.4202 95.168 39.7883 95.168Z" fill="#D60C18"/>
<path d="M30.028 136H35.548V135.064H33.112C32.668 135.064 32.14 135.1 31.672 135.148C33.748 133.192 35.128 131.404 35.128 129.64C35.128 128.068 34.144 127.048 32.572 127.048C31.456 127.048 30.688 127.564 29.968 128.344L30.604 128.956C31.096 128.38 31.72 127.936 32.44 127.936C33.532 127.936 34.048 128.68 34.048 129.688C34.048 131.188 32.788 132.952 30.028 135.364V136ZM39.4923 136.168C41.1483 136.168 42.2162 134.644 42.2162 131.572C42.2162 128.524 41.1483 127.048 39.4923 127.048C37.8123 127.048 36.7443 128.524 36.7443 131.572C36.7443 134.644 37.8123 136.168 39.4923 136.168ZM39.4923 135.28C38.4843 135.28 37.8003 134.164 37.8003 131.572C37.8003 129.016 38.4843 127.924 39.4923 127.924C40.4883 127.924 41.1603 129.016 41.1603 131.572C41.1603 134.164 40.4883 135.28 39.4923 135.28Z" fill="#D60C18"/>
<path d="M23.156 123.168C24.728 123.168 25.988 122.22 25.988 120.66C25.988 119.448 25.148 118.668 24.116 118.416V118.368C25.052 118.032 25.676 117.324 25.676 116.256C25.676 114.852 24.596 114.048 23.12 114.048C22.112 114.048 21.332 114.492 20.672 115.092L21.26 115.8C21.752 115.296 22.376 114.936 23.084 114.936C23.996 114.936 24.56 115.488 24.56 116.328C24.56 117.288 23.948 118.008 22.136 118.008V118.86C24.164 118.86 24.872 119.556 24.872 120.612C24.872 121.62 24.128 122.256 23.084 122.256C22.076 122.256 21.416 121.776 20.9 121.236L20.348 121.956C20.924 122.592 21.776 123.168 23.156 123.168Z" fill="#D60C18"/>
<line x1="29" y1="115" x2="46" y2="115" stroke="#939EA7" stroke-linecap="square" stroke-dasharray="2 2"/>
<line x1="29" y1="121.5" x2="46" y2="121.5" stroke="#939EA7" stroke-linecap="square" stroke-dasharray="2 2"/>
<line x1="29" y1="66" x2="46" y2="66" stroke="#939EA7" stroke-linecap="square" stroke-dasharray="2 2"/>
<defs>
<clipPath id="clip0_44_132">
<rect width="13" height="13" fill="white" transform="translate(734 87)"/>
</clipPath>
</defs>
</svg>
