<svg width="329" height="304" viewBox="0 0 329 304" fill="none" xmlns="http://www.w3.org/2000/svg">
<rect x="50" y="179" width="230" height="50" fill="#EEEEEE"/>
<path d="M254.96 205C256.065 205 256.96 204.105 256.96 203C256.96 201.895 256.065 201 254.96 201C254.929 201 254.901 201.007 254.871 201.009C254.927 201.16 254.96 201.334 254.96 201.516C254.96 202.336 254.295 203 253.476 203C253.294 203 253.12 202.967 252.959 202.908L252.969 202.911C252.969 202.942 252.96 202.97 252.96 203C252.96 204.105 253.855 205 254.96 205ZM263.851 203.544C262.157 200.237 258.802 198 254.96 198C251.118 198 247.762 200.239 246.069 203.544C246 203.677 245.96 203.834 245.96 204C245.96 204.167 246 204.324 246.071 204.462L246.069 204.456C247.763 207.763 251.118 210 254.96 210C258.802 210 262.157 207.761 263.851 204.456C263.92 204.323 263.96 204.166 263.96 204C263.96 203.833 263.92 203.676 263.849 203.538L263.851 203.544V203.544ZM254.96 199C257.169 199 258.96 200.791 258.96 203C258.96 205.209 257.169 207 254.96 207C252.751 207 250.96 205.209 250.96 203C250.962 200.792 252.752 199.002 254.96 199H254.96ZM254.96 209C251.605 209 248.539 207.084 246.96 204C247.865 202.249 249.26 200.858 250.964 199.983L251.016 199.958C250.363 200.803 249.96 201.849 249.96 203C249.96 205.761 252.199 208 254.96 208C257.721 208 259.96 205.761 259.96 203C259.96 201.849 259.557 200.803 258.904 199.958C260.66 200.858 262.055 202.249 262.936 203.949L262.96 204C261.381 207.084 258.315 209 254.96 209Z" fill="black"/>
<path d="M240.752 246.196C242.586 246.196 243.748 244.46 243.748 240.876C243.748 237.32 242.586 235.612 240.752 235.612C238.876 235.612 237.728 237.32 237.728 240.876C237.728 244.46 238.876 246.196 240.752 246.196ZM240.752 245.496C239.422 245.496 238.54 243.956 238.54 240.876C238.54 237.824 239.422 236.298 240.752 236.298C242.068 236.298 242.936 237.824 242.936 240.876C242.936 243.956 242.068 245.496 240.752 245.496ZM244.618 248.492H245.29L249.896 234.996H249.238L244.618 248.492ZM253.6 246.196C255.336 246.196 256.694 245.09 256.694 243.312C256.694 241.87 255.672 240.932 254.454 240.666V240.61C255.532 240.246 256.33 239.406 256.33 238.076C256.33 236.536 255.126 235.612 253.558 235.612C252.396 235.612 251.542 236.158 250.842 236.816L251.318 237.362C251.878 236.76 252.662 236.312 253.544 236.312C254.72 236.312 255.476 237.054 255.476 238.132C255.476 239.35 254.706 240.316 252.452 240.316V241.016C254.902 241.016 255.84 241.94 255.84 243.298C255.84 244.628 254.902 245.482 253.572 245.482C252.27 245.482 251.486 244.866 250.884 244.236L250.436 244.796C251.08 245.482 252.018 246.196 253.6 246.196ZM261.246 246.196C263.08 246.196 264.242 244.46 264.242 240.876C264.242 237.32 263.08 235.612 261.246 235.612C259.37 235.612 258.222 237.32 258.222 240.876C258.222 244.46 259.37 246.196 261.246 246.196ZM261.246 245.496C259.916 245.496 259.034 243.956 259.034 240.876C259.034 237.824 259.916 236.298 261.246 236.298C262.562 236.298 263.43 237.824 263.43 240.876C263.43 243.956 262.562 245.496 261.246 245.496Z" fill="#48545D"/>
<path d="M66.484 246H67.31V240.96H72.616V246H73.456V235.794H72.616V240.218H67.31V235.794H66.484V246ZM79.1955 246.196C80.2595 246.196 80.9735 245.832 81.5755 245.454L81.2535 244.852C80.6935 245.244 80.0775 245.496 79.2795 245.496C77.6555 245.496 76.5775 244.222 76.5495 242.416H81.8415C81.8695 242.22 81.8835 242.024 81.8835 241.828C81.8835 239.644 80.7915 238.356 78.9855 238.356C77.3055 238.356 75.7095 239.854 75.7095 242.29C75.7095 244.74 77.2635 246.196 79.1955 246.196ZM76.5355 241.772C76.7035 240.05 77.7815 239.042 78.9995 239.042C80.3015 239.042 81.1275 239.966 81.1275 241.772H76.5355ZM84.8527 246.196C85.1187 246.196 85.2587 246.154 85.4127 246.112L85.2867 245.454C85.1327 245.482 85.0767 245.482 85.0067 245.482C84.8107 245.482 84.6847 245.328 84.6847 244.978V234.884H83.8587V244.894C83.8587 245.762 84.1807 246.196 84.8527 246.196ZM87.5774 249.332H88.4034V246.644L88.3894 245.286C89.1314 245.86 89.8874 246.196 90.5734 246.196C92.3374 246.196 93.8634 244.712 93.8634 242.164C93.8634 239.854 92.8554 238.356 90.8814 238.356C89.9714 238.356 89.1034 238.888 88.3894 239.462H88.3614L88.2634 238.538H87.5774V249.332ZM90.5174 245.482C89.9714 245.482 89.1874 245.23 88.4034 244.572V240.246C89.2574 239.49 90.0134 239.07 90.7274 239.07C92.3794 239.07 93.0094 240.372 93.0094 242.164C93.0094 244.152 91.9594 245.482 90.5174 245.482ZM101.244 246.196C101.594 246.196 102.07 246.056 102.504 245.902L102.294 245.272C102.042 245.384 101.664 245.496 101.398 245.496C100.39 245.496 100.152 244.88 100.152 243.942V239.238H102.28V238.538H100.152V236.382H99.4518L99.3678 238.538L98.1778 238.608V239.238H99.3398V243.886C99.3398 245.272 99.7738 246.196 101.244 246.196ZM106.744 246.196C107.808 246.196 108.522 245.832 109.124 245.454L108.802 244.852C108.242 245.244 107.626 245.496 106.828 245.496C105.204 245.496 104.126 244.222 104.098 242.416H109.39C109.418 242.22 109.432 242.024 109.432 241.828C109.432 239.644 108.34 238.356 106.534 238.356C104.854 238.356 103.258 239.854 103.258 242.29C103.258 244.74 104.812 246.196 106.744 246.196ZM104.084 241.772C104.252 240.05 105.33 239.042 106.548 239.042C107.85 239.042 108.676 239.966 108.676 241.772H104.084ZM110.177 246H111.045L112.249 244.026C112.529 243.564 112.795 243.102 113.089 242.668H113.159C113.453 243.102 113.747 243.564 114.013 244.026L115.287 246H116.197L113.677 242.178L115.987 238.538H115.119L114.013 240.372C113.761 240.792 113.523 241.198 113.285 241.618H113.215C112.949 241.198 112.683 240.792 112.431 240.372L111.283 238.538H110.387L112.697 242.108L110.177 246ZM119.537 246.196C119.887 246.196 120.363 246.056 120.797 245.902L120.587 245.272C120.335 245.384 119.957 245.496 119.691 245.496C118.683 245.496 118.445 244.88 118.445 243.942V239.238H120.573V238.538H118.445V236.382H117.745L117.661 238.538L116.471 238.608V239.238H117.633V243.886C117.633 245.272 118.067 246.196 119.537 246.196Z" fill="#48545D"/>
<rect x="50" y="228" width="230" height="1" fill="#003A9F"/>
<path d="M66.484 196H67.31V191.688H69.186C71.454 191.688 72.854 190.722 72.854 188.678C72.854 186.55 71.426 185.794 69.13 185.794H66.484V196ZM67.31 190.988V186.508H68.948C70.992 186.508 71.986 187.012 71.986 188.678C71.986 190.302 71.02 190.988 69.004 190.988H67.31ZM75.9523 196.196C76.2183 196.196 76.3583 196.154 76.5123 196.112L76.3863 195.454C76.2323 195.482 76.1763 195.482 76.1063 195.482C75.9103 195.482 75.7843 195.328 75.7843 194.978V184.884H74.9583V194.894C74.9583 195.762 75.2803 196.196 75.9523 196.196ZM80.329 196.196C81.295 196.196 82.191 195.664 82.933 195.062H82.975L83.059 196H83.745V191.268C83.745 189.616 83.101 188.356 81.323 188.356C80.105 188.356 79.069 188.93 78.509 189.322L78.859 189.924C79.391 189.532 80.231 189.056 81.225 189.056C82.639 189.056 82.947 190.204 82.919 191.31C79.629 191.688 78.159 192.472 78.159 194.124C78.159 195.51 79.139 196.196 80.329 196.196ZM80.497 195.496C79.671 195.496 78.985 195.104 78.985 194.082C78.985 192.948 79.979 192.248 82.919 191.926V194.348C82.051 195.104 81.323 195.496 80.497 195.496ZM89.1333 196.196C90.0713 196.196 90.8833 195.79 91.5273 195.216L91.1353 194.656C90.6313 195.118 89.9453 195.482 89.1893 195.482C87.6213 195.482 86.5713 194.194 86.5713 192.29C86.5713 190.372 87.7053 189.056 89.2033 189.056C89.8893 189.056 90.4353 189.392 90.9113 189.826L91.3593 189.266C90.8553 188.79 90.1833 188.356 89.1753 188.356C87.3273 188.356 85.7173 189.784 85.7173 192.29C85.7173 194.754 87.2013 196.196 89.1333 196.196ZM95.8888 196.196C96.9528 196.196 97.6668 195.832 98.2688 195.454L97.9468 194.852C97.3868 195.244 96.7708 195.496 95.9728 195.496C94.3488 195.496 93.2708 194.222 93.2428 192.416H98.5348C98.5628 192.22 98.5768 192.024 98.5768 191.828C98.5768 189.644 97.4848 188.356 95.6788 188.356C93.9988 188.356 92.4028 189.854 92.4028 192.29C92.4028 194.74 93.9568 196.196 95.8888 196.196ZM93.2288 191.772C93.3968 190.05 94.4748 189.042 95.6928 189.042C96.9948 189.042 97.8208 189.966 97.8208 191.772H93.2288ZM100.552 196H101.378V190.414C102.246 189.532 102.862 189.084 103.716 189.084C104.878 189.084 105.354 189.798 105.354 191.338V196H106.18V191.226C106.18 189.308 105.452 188.356 103.912 188.356C102.876 188.356 102.106 188.93 101.35 189.686L101.378 188.062V184.884H100.552V196ZM111.554 196.196C113.36 196.196 114.928 194.754 114.928 192.29C114.928 189.784 113.36 188.356 111.554 188.356C109.748 188.356 108.166 189.784 108.166 192.29C108.166 194.754 109.748 196.196 111.554 196.196ZM111.554 195.482C110.084 195.482 109.02 194.194 109.02 192.29C109.02 190.372 110.084 189.056 111.554 189.056C113.01 189.056 114.088 190.372 114.088 192.29C114.088 194.194 113.01 195.482 111.554 195.482ZM118.089 196.196C118.355 196.196 118.495 196.154 118.649 196.112L118.523 195.454C118.369 195.482 118.313 195.482 118.243 195.482C118.047 195.482 117.921 195.328 117.921 194.978V184.884H117.095V194.894C117.095 195.762 117.417 196.196 118.089 196.196ZM123.292 196.196C124.272 196.196 125.098 195.664 125.7 195.062H125.728L125.826 196H126.498V184.884H125.672V187.908L125.728 189.266C125.014 188.678 124.412 188.356 123.516 188.356C121.738 188.356 120.212 189.868 120.212 192.29C120.212 194.796 121.43 196.196 123.292 196.196ZM123.432 195.482C121.92 195.482 121.066 194.222 121.066 192.29C121.066 190.442 122.172 189.07 123.586 189.07C124.3 189.07 124.93 189.322 125.672 189.98V194.292C124.944 195.062 124.23 195.482 123.432 195.482ZM132.16 196.196C133.224 196.196 133.938 195.832 134.54 195.454L134.218 194.852C133.658 195.244 133.042 195.496 132.244 195.496C130.62 195.496 129.542 194.222 129.514 192.416H134.806C134.834 192.22 134.848 192.024 134.848 191.828C134.848 189.644 133.756 188.356 131.95 188.356C130.27 188.356 128.674 189.854 128.674 192.29C128.674 194.74 130.228 196.196 132.16 196.196ZM129.5 191.772C129.668 190.05 130.746 189.042 131.964 189.042C133.266 189.042 134.092 189.966 134.092 191.772H129.5ZM136.824 196H137.65V191.002C138.196 189.602 138.994 189.112 139.638 189.112C139.946 189.112 140.086 189.14 140.338 189.238L140.506 188.51C140.254 188.384 140.044 188.356 139.75 188.356C138.882 188.356 138.14 189 137.636 189.924H137.608L137.51 188.538H136.824V196Z" fill="#003A9F"/>
<path d="M67.6172 205.625V217H66.6562V205.625H67.6172ZM71.4219 210.352V217H70.4922V208.547H71.3828L71.4219 210.352ZM71.2109 212.25L70.7969 212.016C70.8281 211.516 70.9297 211.047 71.1016 210.609C71.2734 210.172 71.5052 209.786 71.7969 209.453C72.0938 209.12 72.4401 208.859 72.8359 208.672C73.237 208.484 73.6797 208.391 74.1641 208.391C74.5859 208.391 74.9635 208.448 75.2969 208.562C75.6302 208.677 75.9141 208.859 76.1484 209.109C76.3828 209.359 76.5599 209.68 76.6797 210.07C76.8047 210.461 76.8672 210.938 76.8672 211.5V217H75.9297V211.492C75.9297 210.909 75.849 210.453 75.6875 210.125C75.526 209.792 75.2969 209.555 75 209.414C74.7031 209.273 74.3516 209.203 73.9453 209.203C73.4974 209.203 73.1042 209.302 72.7656 209.5C72.4323 209.693 72.151 209.945 71.9219 210.258C71.6979 210.565 71.526 210.896 71.4062 211.25C71.2865 211.599 71.2214 211.932 71.2109 212.25ZM80.2109 210.172V220.25H79.2734V208.547H80.1484L80.2109 210.172ZM86.0859 212.695V212.859C86.0859 213.49 86.013 214.068 85.8672 214.594C85.7214 215.12 85.5104 215.576 85.2344 215.961C84.9635 216.341 84.6276 216.635 84.2266 216.844C83.8255 217.052 83.3698 217.156 82.8594 217.156C82.3542 217.156 81.9036 217.078 81.5078 216.922C81.112 216.766 80.7708 216.544 80.4844 216.258C80.2031 215.966 79.9766 215.628 79.8047 215.242C79.638 214.852 79.5208 214.424 79.4531 213.961V211.797C79.5312 211.286 79.6589 210.823 79.8359 210.406C80.013 209.99 80.2396 209.63 80.5156 209.328C80.7969 209.026 81.1302 208.794 81.5156 208.633C81.901 208.471 82.3411 208.391 82.8359 208.391C83.3516 208.391 83.8099 208.492 84.2109 208.695C84.6172 208.893 84.9583 209.182 85.2344 209.562C85.5156 209.938 85.7266 210.391 85.8672 210.922C86.013 211.448 86.0859 212.039 86.0859 212.695ZM85.1484 212.859V212.695C85.1484 212.201 85.0964 211.742 84.9922 211.32C84.8932 210.898 84.7396 210.531 84.5312 210.219C84.3281 209.901 84.0677 209.654 83.75 209.477C83.4375 209.299 83.0651 209.211 82.6328 209.211C82.1849 209.211 81.8021 209.286 81.4844 209.438C81.1719 209.583 80.9115 209.779 80.7031 210.023C80.4948 210.263 80.3307 210.526 80.2109 210.812C80.0911 211.099 80.0026 211.38 79.9453 211.656V214.148C80.0443 214.544 80.2031 214.911 80.4219 215.25C80.6406 215.583 80.9323 215.852 81.2969 216.055C81.6667 216.253 82.1172 216.352 82.6484 216.352C83.0755 216.352 83.4453 216.263 83.7578 216.086C84.0703 215.909 84.3281 215.661 84.5312 215.344C84.7396 215.026 84.8932 214.656 84.9922 214.234C85.0964 213.812 85.1484 213.354 85.1484 212.859ZM93.5781 215.047V208.547H94.5156V217H93.6172L93.5781 215.047ZM93.75 213.484L94.2344 213.469C94.2344 214 94.1719 214.49 94.0469 214.938C93.9219 215.385 93.7266 215.776 93.4609 216.109C93.1953 216.443 92.8516 216.701 92.4297 216.883C92.0078 217.065 91.5 217.156 90.9062 217.156C90.4948 217.156 90.1172 217.099 89.7734 216.984C89.4349 216.865 89.1432 216.677 88.8984 216.422C88.6536 216.167 88.4635 215.836 88.3281 215.43C88.1979 215.023 88.1328 214.531 88.1328 213.953V208.547H89.0625V213.969C89.0625 214.422 89.112 214.799 89.2109 215.102C89.3151 215.404 89.4557 215.646 89.6328 215.828C89.8151 216.01 90.0234 216.141 90.2578 216.219C90.4922 216.297 90.7448 216.336 91.0156 216.336C91.7031 216.336 92.2448 216.203 92.6406 215.938C93.0417 215.672 93.3255 215.323 93.4922 214.891C93.6641 214.453 93.75 213.984 93.75 213.484ZM100.156 208.547V209.312H95.9219V208.547H100.156ZM97.4766 206.375H98.4062V214.945C98.4062 215.336 98.4583 215.63 98.5625 215.828C98.6667 216.026 98.8021 216.159 98.9688 216.227C99.1354 216.294 99.3151 216.328 99.5078 216.328C99.6484 216.328 99.7839 216.32 99.9141 216.305C100.044 216.284 100.161 216.263 100.266 216.242L100.305 217.031C100.19 217.068 100.042 217.096 99.8594 217.117C99.6771 217.143 99.4948 217.156 99.3125 217.156C98.9531 217.156 98.6354 217.091 98.3594 216.961C98.0833 216.826 97.8672 216.596 97.7109 216.273C97.5547 215.945 97.4766 215.5 97.4766 214.938V206.375Z" fill="black"/>
<path d="M52.056 261H56.88V260.088H55.104V252.204H54.264C53.796 252.492 53.232 252.696 52.44 252.828V253.536H54.012V260.088H52.056V261ZM60.7883 261.168C62.2643 261.168 63.6683 260.064 63.6683 258.144C63.6683 256.2 62.4803 255.336 61.0163 255.336C60.4883 255.336 60.0923 255.468 59.6963 255.684L59.9243 253.14H63.2483V252.204H58.9643L58.6883 256.32L59.2763 256.692C59.7803 256.356 60.1523 256.164 60.7402 256.164C61.8323 256.164 62.5523 256.92 62.5523 258.18C62.5523 259.452 61.7243 260.256 60.6803 260.256C59.6723 260.256 59.0243 259.788 58.5323 259.272L57.9803 259.992C58.5803 260.592 59.4202 261.168 60.7883 261.168Z" fill="#D60C18"/>
<path d="M266.056 261H270.88V260.088H269.104V252.204H268.264C267.796 252.492 267.232 252.696 266.44 252.828V253.536H268.012V260.088H266.056V261ZM274.788 261.168C276.264 261.168 277.668 260.064 277.668 258.144C277.668 256.2 276.48 255.336 275.016 255.336C274.488 255.336 274.092 255.468 273.696 255.684L273.924 253.14H277.248V252.204H272.964L272.688 256.32L273.276 256.692C273.78 256.356 274.152 256.164 274.74 256.164C275.832 256.164 276.552 256.92 276.552 258.18C276.552 259.452 275.724 260.256 274.68 260.256C273.672 260.256 273.024 259.788 272.532 259.272L271.98 259.992C272.58 260.592 273.42 261.168 274.788 261.168Z" fill="#D60C18"/>
<path d="M248.528 189H254.048V188.064H251.612C251.168 188.064 250.64 188.1 250.172 188.148C252.248 186.192 253.628 184.404 253.628 182.64C253.628 181.068 252.644 180.048 251.072 180.048C249.956 180.048 249.188 180.564 248.468 181.344L249.104 181.956C249.596 181.38 250.22 180.936 250.94 180.936C252.032 180.936 252.548 181.68 252.548 182.688C252.548 184.188 251.288 185.952 248.528 188.364V189ZM257.992 189.168C259.648 189.168 260.716 187.644 260.716 184.572C260.716 181.524 259.648 180.048 257.992 180.048C256.312 180.048 255.244 181.524 255.244 184.572C255.244 187.644 256.312 189.168 257.992 189.168ZM257.992 188.28C256.984 188.28 256.3 187.164 256.3 184.572C256.3 182.016 256.984 180.924 257.992 180.924C258.988 180.924 259.66 182.016 259.66 184.572C259.66 187.164 258.988 188.28 257.992 188.28Z" fill="#D60C18"/>
<line x1="50.5" y1="229.5" x2="50.5" y2="246.5" stroke="#939EA7" stroke-linecap="square" stroke-dasharray="2 2"/>
<line x1="65.5" y1="229.5" x2="65.5" y2="246.5" stroke="#939EA7" stroke-linecap="square" stroke-dasharray="2 2"/>
<line x1="264.5" y1="229.5" x2="264.5" y2="246.5" stroke="#939EA7" stroke-linecap="square" stroke-dasharray="2 2"/>
<line x1="279.5" y1="229.5" x2="279.5" y2="246.5" stroke="#939EA7" stroke-linecap="square" stroke-dasharray="2 2"/>
<line x1="244.5" y1="176.5" x2="244.5" y2="193.5" stroke="#939EA7" stroke-linecap="square" stroke-dasharray="2 2"/>
<line x1="264.5" y1="176.5" x2="264.5" y2="193.5" stroke="#939EA7" stroke-linecap="square" stroke-dasharray="2 2"/>
<path d="M269.528 209H275.048V208.064H272.612C272.168 208.064 271.64 208.1 271.172 208.148C273.248 206.192 274.628 204.404 274.628 202.64C274.628 201.068 273.644 200.048 272.072 200.048C270.956 200.048 270.188 200.564 269.468 201.344L270.104 201.956C270.596 201.38 271.22 200.936 271.94 200.936C273.032 200.936 273.548 201.68 273.548 202.688C273.548 204.188 272.288 205.952 269.528 208.364V209ZM278.992 209.168C280.648 209.168 281.716 207.644 281.716 204.572C281.716 201.524 280.648 200.048 278.992 200.048C277.312 200.048 276.244 201.524 276.244 204.572C276.244 207.644 277.312 209.168 278.992 209.168ZM278.992 208.28C277.984 208.28 277.3 207.164 277.3 204.572C277.3 202.016 277.984 200.924 278.992 200.924C279.988 200.924 280.66 202.016 280.66 204.572C280.66 207.164 279.988 208.28 278.992 208.28Z" fill="#D60C18"/>
<line x1="283.5" y1="194.5" x2="266.5" y2="194.5" stroke="#939EA7" stroke-linecap="square" stroke-dasharray="2 2"/>
<line x1="283.5" y1="214.5" x2="266.5" y2="214.5" stroke="#939EA7" stroke-linecap="square" stroke-dasharray="2 2"/>
<path d="M34.632 95.168C36.108 95.168 37.512 94.064 37.512 92.144C37.512 90.2 36.324 89.336 34.86 89.336C34.332 89.336 33.936 89.468 33.54 89.684L33.768 87.14H37.092V86.204H32.808L32.532 90.32L33.12 90.692C33.624 90.356 33.996 90.164 34.584 90.164C35.676 90.164 36.396 90.92 36.396 92.18C36.396 93.452 35.568 94.256 34.524 94.256C33.516 94.256 32.868 93.788 32.376 93.272L31.824 93.992C32.424 94.592 33.264 95.168 34.632 95.168ZM41.4923 95.168C43.1483 95.168 44.2162 93.644 44.2162 90.572C44.2162 87.524 43.1483 86.048 41.4923 86.048C39.8123 86.048 38.7443 87.524 38.7443 90.572C38.7443 93.644 39.8123 95.168 41.4923 95.168ZM41.4923 94.28C40.4843 94.28 39.8003 93.164 39.8003 90.572C39.8003 88.016 40.4843 86.924 41.4923 86.924C42.4883 86.924 43.1603 88.016 43.1603 90.572C43.1603 93.164 42.4883 94.28 41.4923 94.28Z" fill="#D60C18"/>
<path d="M52.056 44H56.88V43.088H55.104V35.204H54.264C53.796 35.492 53.232 35.696 52.44 35.828V36.536H54.012V43.088H52.056V44ZM60.7883 44.168C62.2643 44.168 63.6683 43.064 63.6683 41.144C63.6683 39.2 62.4803 38.336 61.0163 38.336C60.4883 38.336 60.0923 38.468 59.6963 38.684L59.9243 36.14H63.2483V35.204H58.9643L58.6883 39.32L59.2763 39.692C59.7803 39.356 60.1523 39.164 60.7402 39.164C61.8323 39.164 62.5523 39.92 62.5523 41.18C62.5523 42.452 61.7243 43.256 60.6803 43.256C59.6723 43.256 59.0243 42.788 58.5323 42.272L57.9803 42.992C58.5803 43.592 59.4202 44.168 60.7883 44.168Z" fill="#D60C18"/>
<line x1="30.5" y1="114.5" x2="47.5" y2="114.5" stroke="#939EA7" stroke-linecap="square" stroke-dasharray="2 2"/>
<path d="M283.056 119H287.88V118.088H286.104V110.204H285.264C284.796 110.492 284.232 110.696 283.44 110.828V111.536H285.012V118.088H283.056V119Z" fill="#D60C18"/>
<line x1="50.5" y1="46.5" x2="50.5" y2="63.5" stroke="#939EA7" stroke-linecap="square" stroke-dasharray="2 2"/>
<line x1="65.5" y1="46.5" x2="65.5" y2="63.5" stroke="#939EA7" stroke-linecap="square" stroke-dasharray="2 2"/>
<line x1="30.5" y1="65.5" x2="47.5" y2="65.5" stroke="#939EA7" stroke-linecap="square" stroke-dasharray="2 2"/>
<line x1="262.5" y1="114.5" x2="279.5" y2="114.5" stroke="#D60C18" stroke-linecap="square" stroke-dasharray="2 2"/>
<rect x="50" y="65" width="230" height="50" fill="#EEEEEE"/>
<path d="M70.3125 90.3672H67.0703V89.5469H70.3125C70.9896 89.5469 71.5391 89.4375 71.9609 89.2188C72.388 88.9948 72.6979 88.6927 72.8906 88.3125C73.0885 87.9323 73.1875 87.5052 73.1875 87.0312C73.1875 86.5677 73.0885 86.1406 72.8906 85.75C72.6979 85.3594 72.388 85.0469 71.9609 84.8125C71.5391 84.5729 70.9896 84.4531 70.3125 84.4531H67.4062V95H66.4453V83.625H70.3125C71.1458 83.625 71.8464 83.7682 72.4141 84.0547C72.987 84.3411 73.4193 84.7396 73.7109 85.25C74.0026 85.7604 74.1484 86.349 74.1484 87.0156C74.1484 87.7135 74.0026 88.3151 73.7109 88.8203C73.4193 89.3203 72.9896 89.7031 72.4219 89.9688C71.8542 90.2344 71.151 90.3672 70.3125 90.3672ZM77.125 83V95H76.1953V83H77.125ZM84.8203 93.4844V89.125C84.8203 88.724 84.737 88.3776 84.5703 88.0859C84.4036 87.7943 84.1589 87.5703 83.8359 87.4141C83.513 87.2578 83.1146 87.1797 82.6406 87.1797C82.2031 87.1797 81.8125 87.2578 81.4688 87.4141C81.1302 87.5651 80.862 87.7708 80.6641 88.0312C80.4714 88.2865 80.375 88.5703 80.375 88.8828L79.4375 88.875C79.4375 88.5573 79.5156 88.25 79.6719 87.9531C79.8281 87.6562 80.0495 87.3906 80.3359 87.1562C80.6224 86.9219 80.9635 86.737 81.3594 86.6016C81.7604 86.4609 82.2005 86.3906 82.6797 86.3906C83.2839 86.3906 83.8151 86.4922 84.2734 86.6953C84.737 86.8984 85.099 87.2031 85.3594 87.6094C85.6198 88.0156 85.75 88.526 85.75 89.1406V93.2266C85.75 93.5182 85.7708 93.8203 85.8125 94.1328C85.8594 94.4453 85.9245 94.7031 86.0078 94.9062V95H85.0156C84.9531 94.8125 84.9036 94.5781 84.8672 94.2969C84.8359 94.0104 84.8203 93.7396 84.8203 93.4844ZM85.0391 90.0781L85.0547 90.7969H83.2188C82.7396 90.7969 82.3099 90.8411 81.9297 90.9297C81.5547 91.013 81.237 91.138 80.9766 91.3047C80.7161 91.4661 80.5156 91.6615 80.375 91.8906C80.2396 92.1198 80.1719 92.3802 80.1719 92.6719C80.1719 92.974 80.2474 93.25 80.3984 93.5C80.5547 93.75 80.7734 93.9505 81.0547 94.1016C81.3411 94.2474 81.6797 94.3203 82.0703 94.3203C82.5911 94.3203 83.0495 94.224 83.4453 94.0312C83.8464 93.8385 84.1771 93.5859 84.4375 93.2734C84.6979 92.9609 84.8724 92.6198 84.9609 92.25L85.3672 92.7891C85.2995 93.0495 85.1745 93.3177 84.9922 93.5938C84.8151 93.8646 84.5833 94.1198 84.2969 94.3594C84.0104 94.5938 83.6719 94.7865 83.2812 94.9375C82.8958 95.0833 82.4583 95.1562 81.9688 95.1562C81.4167 95.1562 80.9349 95.0521 80.5234 94.8438C80.1172 94.6354 79.7995 94.3516 79.5703 93.9922C79.3464 93.6276 79.2344 93.2161 79.2344 92.7578C79.2344 92.3411 79.3229 91.9688 79.5 91.6406C79.6771 91.3073 79.9323 91.026 80.2656 90.7969C80.6042 90.5625 81.0104 90.3854 81.4844 90.2656C81.9635 90.1406 82.5 90.0781 83.0938 90.0781H85.0391ZM91.375 94.3516C91.7708 94.3516 92.1406 94.2786 92.4844 94.1328C92.8333 93.9818 93.1198 93.7604 93.3438 93.4688C93.5729 93.1719 93.7031 92.8099 93.7344 92.3828H94.625C94.599 92.9193 94.4349 93.3984 94.1328 93.8203C93.8359 94.237 93.4453 94.5651 92.9609 94.8047C92.4818 95.0391 91.9531 95.1562 91.375 95.1562C90.7865 95.1562 90.2656 95.0495 89.8125 94.8359C89.3646 94.6224 88.9896 94.3255 88.6875 93.9453C88.3854 93.5599 88.1562 93.112 88 92.6016C87.849 92.0859 87.7734 91.5312 87.7734 90.9375V90.6094C87.7734 90.0156 87.849 89.4635 88 88.9531C88.1562 88.4375 88.3854 87.9896 88.6875 87.6094C88.9896 87.224 89.3646 86.9245 89.8125 86.7109C90.2604 86.4974 90.7786 86.3906 91.3672 86.3906C91.9714 86.3906 92.513 86.513 92.9922 86.7578C93.4766 87.0026 93.862 87.349 94.1484 87.7969C94.4401 88.2448 94.599 88.776 94.625 89.3906H93.7344C93.7083 88.9375 93.5885 88.5469 93.375 88.2188C93.1615 87.8906 92.8802 87.638 92.5312 87.4609C92.1823 87.2839 91.7943 87.1953 91.3672 87.1953C90.888 87.1953 90.4792 87.2891 90.1406 87.4766C89.8021 87.6589 89.526 87.9115 89.3125 88.2344C89.1042 88.5521 88.9505 88.9167 88.8516 89.3281C88.7526 89.7344 88.7031 90.1615 88.7031 90.6094V90.9375C88.7031 91.3906 88.75 91.8229 88.8438 92.2344C88.9427 92.6406 89.0964 93.0026 89.3047 93.3203C89.5182 93.638 89.7943 93.8906 90.1328 94.0781C90.4766 94.2604 90.8906 94.3516 91.375 94.3516ZM99.7734 95.1562C99.2214 95.1562 98.7135 95.0547 98.25 94.8516C97.7917 94.6484 97.3906 94.362 97.0469 93.9922C96.7083 93.6224 96.4453 93.1849 96.2578 92.6797C96.0755 92.1693 95.9844 91.612 95.9844 91.0078V90.6719C95.9844 90.0208 96.0807 89.4323 96.2734 88.9062C96.4661 88.3802 96.7318 87.9297 97.0703 87.5547C97.4089 87.1797 97.7943 86.8932 98.2266 86.6953C98.6641 86.4922 99.1224 86.3906 99.6016 86.3906C100.138 86.3906 100.615 86.487 101.031 86.6797C101.448 86.8672 101.797 87.1354 102.078 87.4844C102.365 87.8281 102.581 88.237 102.727 88.7109C102.872 89.1797 102.945 89.6979 102.945 90.2656V90.8359H96.5469V90.0391H102.016V89.9297C102.005 89.4557 101.909 89.013 101.727 88.6016C101.549 88.1849 101.284 87.8464 100.93 87.5859C100.576 87.3255 100.133 87.1953 99.6016 87.1953C99.2057 87.1953 98.8411 87.2786 98.5078 87.4453C98.1797 87.612 97.8958 87.8516 97.6562 88.1641C97.4219 88.4714 97.2396 88.8385 97.1094 89.2656C96.9844 89.6875 96.9219 90.1562 96.9219 90.6719V91.0078C96.9219 91.4766 96.9896 91.9141 97.125 92.3203C97.2656 92.7214 97.4635 93.0755 97.7188 93.3828C97.9792 93.6901 98.2865 93.9297 98.6406 94.1016C98.9948 94.2734 99.3854 94.3594 99.8125 94.3594C100.312 94.3594 100.755 94.2682 101.141 94.0859C101.526 93.8984 101.872 93.6042 102.18 93.2031L102.766 93.6562C102.583 93.9271 102.354 94.1771 102.078 94.4062C101.807 94.6354 101.482 94.8177 101.102 94.9531C100.721 95.0885 100.279 95.1562 99.7734 95.1562ZM105.719 83V95H104.789V83H105.719ZM105.508 90.25L105.094 90.0156C105.125 89.5156 105.227 89.0469 105.398 88.6094C105.57 88.1719 105.802 87.7865 106.094 87.4531C106.391 87.1198 106.737 86.8594 107.133 86.6719C107.534 86.4844 107.977 86.3906 108.461 86.3906C108.883 86.3906 109.26 86.4479 109.594 86.5625C109.927 86.6771 110.211 86.8594 110.445 87.1094C110.68 87.3594 110.857 87.6797 110.977 88.0703C111.102 88.4609 111.164 88.9375 111.164 89.5V95H110.227V89.4922C110.227 88.9089 110.146 88.4531 109.984 88.125C109.823 87.7917 109.594 87.5547 109.297 87.4141C109 87.2734 108.648 87.2031 108.242 87.2031C107.794 87.2031 107.401 87.3021 107.062 87.5C106.729 87.6927 106.448 87.9453 106.219 88.2578C105.995 88.5651 105.823 88.8958 105.703 89.25C105.583 89.599 105.518 89.9323 105.508 90.25ZM113.055 90.9062V90.6484C113.055 90.0339 113.143 89.4661 113.32 88.9453C113.497 88.4245 113.75 87.974 114.078 87.5938C114.411 87.2135 114.81 86.9193 115.273 86.7109C115.737 86.4974 116.253 86.3906 116.82 86.3906C117.393 86.3906 117.911 86.4974 118.375 86.7109C118.839 86.9193 119.237 87.2135 119.57 87.5938C119.904 87.974 120.159 88.4245 120.336 88.9453C120.513 89.4661 120.602 90.0339 120.602 90.6484V90.9062C120.602 91.5208 120.513 92.0885 120.336 92.6094C120.159 93.125 119.904 93.5729 119.57 93.9531C119.242 94.3333 118.846 94.6302 118.383 94.8438C117.919 95.0521 117.404 95.1562 116.836 95.1562C116.263 95.1562 115.745 95.0521 115.281 94.8438C114.818 94.6302 114.419 94.3333 114.086 93.9531C113.753 93.5729 113.497 93.125 113.32 92.6094C113.143 92.0885 113.055 91.5208 113.055 90.9062ZM113.984 90.6484V90.9062C113.984 91.3698 114.047 91.8099 114.172 92.2266C114.297 92.638 114.479 93.0052 114.719 93.3281C114.958 93.6458 115.255 93.8958 115.609 94.0781C115.964 94.2604 116.372 94.3516 116.836 94.3516C117.294 94.3516 117.698 94.2604 118.047 94.0781C118.401 93.8958 118.698 93.6458 118.938 93.3281C119.177 93.0052 119.357 92.638 119.477 92.2266C119.602 91.8099 119.664 91.3698 119.664 90.9062V90.6484C119.664 90.1901 119.602 89.7552 119.477 89.3438C119.357 88.9323 119.174 88.5651 118.93 88.2422C118.69 87.9193 118.393 87.6641 118.039 87.4766C117.685 87.2891 117.279 87.1953 116.82 87.1953C116.362 87.1953 115.956 87.2891 115.602 87.4766C115.253 87.6641 114.956 87.9193 114.711 88.2422C114.471 88.5651 114.289 88.9323 114.164 89.3438C114.044 89.7552 113.984 90.1901 113.984 90.6484ZM123.578 83V95H122.648V83H123.578ZM131.625 93.3594V83H132.562V95H131.688L131.625 93.3594ZM125.758 90.8594V90.6953C125.758 90.0391 125.833 89.4479 125.984 88.9219C126.135 88.3906 126.352 87.9375 126.633 87.5625C126.919 87.1823 127.263 86.8932 127.664 86.6953C128.065 86.4922 128.518 86.3906 129.023 86.3906C129.518 86.3906 129.956 86.4714 130.336 86.6328C130.716 86.7943 131.042 87.026 131.312 87.3281C131.589 87.6302 131.81 87.9896 131.977 88.4062C132.148 88.8229 132.273 89.2865 132.352 89.7969V91.8828C132.289 92.362 132.174 92.8021 132.008 93.2031C131.841 93.599 131.62 93.9453 131.344 94.2422C131.068 94.5339 130.734 94.7604 130.344 94.9219C129.958 95.0781 129.513 95.1562 129.008 95.1562C128.508 95.1562 128.057 95.0521 127.656 94.8438C127.255 94.6354 126.914 94.3411 126.633 93.9609C126.352 93.5755 126.135 93.1198 125.984 92.5938C125.833 92.0677 125.758 91.4896 125.758 90.8594ZM126.695 90.6953V90.8594C126.695 91.3542 126.745 91.8125 126.844 92.2344C126.943 92.6562 127.094 93.0234 127.297 93.3359C127.5 93.6484 127.758 93.8932 128.07 94.0703C128.383 94.2474 128.753 94.3359 129.18 94.3359C129.716 94.3359 130.167 94.2344 130.531 94.0312C130.896 93.8229 131.188 93.5495 131.406 93.2109C131.625 92.8672 131.784 92.4922 131.883 92.0859V89.6562C131.82 89.3802 131.729 89.099 131.609 88.8125C131.49 88.526 131.326 88.263 131.117 88.0234C130.914 87.7786 130.654 87.5833 130.336 87.4375C130.023 87.2865 129.643 87.2109 129.195 87.2109C128.763 87.2109 128.391 87.2995 128.078 87.4766C127.766 87.6536 127.505 87.901 127.297 88.2188C127.094 88.5312 126.943 88.8984 126.844 89.3203C126.745 89.7422 126.695 90.2005 126.695 90.6953ZM138.289 95.1562C137.737 95.1562 137.229 95.0547 136.766 94.8516C136.307 94.6484 135.906 94.362 135.562 93.9922C135.224 93.6224 134.961 93.1849 134.773 92.6797C134.591 92.1693 134.5 91.612 134.5 91.0078V90.6719C134.5 90.0208 134.596 89.4323 134.789 88.9062C134.982 88.3802 135.247 87.9297 135.586 87.5547C135.924 87.1797 136.31 86.8932 136.742 86.6953C137.18 86.4922 137.638 86.3906 138.117 86.3906C138.654 86.3906 139.13 86.487 139.547 86.6797C139.964 86.8672 140.312 87.1354 140.594 87.4844C140.88 87.8281 141.096 88.237 141.242 88.7109C141.388 89.1797 141.461 89.6979 141.461 90.2656V90.8359H135.062V90.0391H140.531V89.9297C140.521 89.4557 140.424 89.013 140.242 88.6016C140.065 88.1849 139.799 87.8464 139.445 87.5859C139.091 87.3255 138.648 87.1953 138.117 87.1953C137.721 87.1953 137.357 87.2786 137.023 87.4453C136.695 87.612 136.411 87.8516 136.172 88.1641C135.938 88.4714 135.755 88.8385 135.625 89.2656C135.5 89.6875 135.438 90.1562 135.438 90.6719V91.0078C135.438 91.4766 135.505 91.9141 135.641 92.3203C135.781 92.7214 135.979 93.0755 136.234 93.3828C136.495 93.6901 136.802 93.9297 137.156 94.1016C137.51 94.2734 137.901 94.3594 138.328 94.3594C138.828 94.3594 139.271 94.2682 139.656 94.0859C140.042 93.8984 140.388 93.6042 140.695 93.2031L141.281 93.6562C141.099 93.9271 140.87 94.1771 140.594 94.4062C140.323 94.6354 139.997 94.8177 139.617 94.9531C139.237 95.0885 138.794 95.1562 138.289 95.1562ZM144.234 87.9453V95H143.305V86.5469H144.211L144.234 87.9453ZM147.227 86.4844L147.203 87.3438C147.099 87.3281 146.997 87.3151 146.898 87.3047C146.799 87.2943 146.693 87.2891 146.578 87.2891C146.172 87.2891 145.815 87.3646 145.508 87.5156C145.206 87.6615 144.951 87.8672 144.742 88.1328C144.534 88.3932 144.375 88.7005 144.266 89.0547C144.156 89.4036 144.094 89.7786 144.078 90.1797L143.734 90.3125C143.734 89.7604 143.792 89.2474 143.906 88.7734C144.021 88.2995 144.195 87.8854 144.43 87.5312C144.669 87.1719 144.969 86.8932 145.328 86.6953C145.693 86.4922 146.12 86.3906 146.609 86.3906C146.729 86.3906 146.846 86.401 146.961 86.4219C147.081 86.4375 147.169 86.4583 147.227 86.4844Z" fill="#48545D"/>
<rect x="50" y="114" width="230" height="1" fill="#939EA7"/>
<path d="M126.104 131H127.196V126.272C127.784 125.612 128.336 125.276 128.828 125.276C129.668 125.276 130.052 125.792 130.052 127.016V131H131.144V126.272C131.756 125.612 132.272 125.276 132.776 125.276C133.616 125.276 134 125.792 134 127.016V131H135.092V126.872C135.092 125.216 134.444 124.328 133.112 124.328C132.32 124.328 131.636 124.844 130.952 125.564C130.7 124.796 130.16 124.328 129.164 124.328C128.384 124.328 127.7 124.82 127.136 125.432H127.1L126.992 124.484H126.104V131ZM137.213 131H138.305V124.484H137.213V131ZM137.765 123.14C138.185 123.14 138.497 122.864 138.497 122.408C138.497 121.988 138.185 121.712 137.765 121.712C137.333 121.712 137.033 121.988 137.033 122.408C137.033 122.864 137.333 123.14 137.765 123.14ZM140.518 131H141.61V126.272C142.258 125.624 142.726 125.276 143.386 125.276C144.25 125.276 144.622 125.792 144.622 127.016V131H145.726V126.872C145.726 125.216 145.102 124.328 143.734 124.328C142.834 124.328 142.162 124.82 141.55 125.432H141.514L141.406 124.484H140.518V131ZM147.29 128.072H150.362V127.232H147.29V128.072ZM153.034 131H154.306L155.218 127.508C155.398 126.884 155.53 126.284 155.662 125.612H155.722C155.878 126.284 155.998 126.872 156.166 127.496L157.114 131H158.446L160.198 124.484H159.154L158.206 128.264C158.05 128.888 157.93 129.464 157.798 130.076H157.75C157.594 129.464 157.45 128.888 157.294 128.264L156.262 124.484H155.194L154.186 128.264C154.018 128.876 153.886 129.464 153.742 130.076H153.682C153.562 129.464 153.442 128.888 153.31 128.264L152.326 124.484H151.21L153.034 131ZM161.624 131H162.716V124.484H161.624V131ZM162.176 123.14C162.596 123.14 162.908 122.864 162.908 122.408C162.908 121.988 162.596 121.712 162.176 121.712C161.744 121.712 161.444 121.988 161.444 122.408C161.444 122.864 161.744 123.14 162.176 123.14ZM167.136 131.168C167.928 131.168 168.612 130.748 169.128 130.232H169.152L169.248 131H170.148V121.46H169.056V123.956L169.104 125.084C168.54 124.604 168.036 124.328 167.28 124.328C165.792 124.328 164.448 125.636 164.448 127.76C164.448 129.932 165.504 131.168 167.136 131.168ZM167.376 130.244C166.236 130.244 165.588 129.308 165.588 127.748C165.588 126.26 166.416 125.24 167.46 125.24C168 125.24 168.504 125.432 169.056 125.936V129.356C168.516 129.944 167.988 130.244 167.376 130.244ZM174.41 131.168C174.818 131.168 175.25 131.048 175.61 130.916L175.394 130.1C175.19 130.184 174.89 130.28 174.662 130.28C173.906 130.28 173.654 129.812 173.654 129.02V125.372H175.418V124.484H173.654V122.648H172.73L172.61 124.484L171.59 124.556V125.372H172.562V128.996C172.562 130.292 173.018 131.168 174.41 131.168ZM176.893 131H177.985V126.272C178.633 125.624 179.101 125.276 179.761 125.276C180.625 125.276 180.997 125.792 180.997 127.016V131H182.101V126.872C182.101 125.216 181.477 124.328 180.109 124.328C179.209 124.328 178.549 124.82 177.949 125.408L177.985 124.064V121.46H176.893V131ZM186.29 131H191.81V130.064H189.326C188.882 130.064 188.342 130.1 187.886 130.148C189.914 128.012 191.39 126.416 191.39 124.808C191.39 123.284 190.406 122.3 188.834 122.3C187.718 122.3 186.95 122.804 186.23 123.584L186.866 124.208C187.358 123.632 187.982 123.176 188.702 123.176C189.794 123.176 190.31 123.872 190.31 124.844C190.31 126.248 188.87 127.796 186.29 130.364V131ZM195.574 131.168C197.146 131.168 198.406 130.244 198.406 128.72C198.406 127.556 197.566 126.788 196.534 126.548V126.5C197.47 126.152 198.094 125.492 198.094 124.46C198.094 123.08 197.014 122.3 195.538 122.3C194.53 122.3 193.75 122.744 193.09 123.356L193.678 124.052C194.17 123.548 194.794 123.176 195.502 123.176C196.414 123.176 196.978 123.704 196.978 124.532C196.978 125.432 196.366 126.14 194.554 126.14V126.98C196.582 126.98 197.29 127.664 197.29 128.684C197.29 129.644 196.546 130.256 195.502 130.256C194.494 130.256 193.834 129.776 193.318 129.236L192.766 129.956C193.342 130.592 194.194 131.168 195.574 131.168ZM202.41 131.168C204.102 131.168 205.134 129.572 205.134 126.704C205.134 123.836 204.102 122.3 202.41 122.3C200.694 122.3 199.662 123.836 199.662 126.704C199.662 129.572 200.694 131.168 202.41 131.168ZM202.41 130.28C201.402 130.28 200.718 129.212 200.718 126.704C200.718 124.184 201.402 123.176 202.41 123.176C203.406 123.176 204.078 124.184 204.078 126.704C204.078 129.212 203.406 130.28 202.41 130.28Z" fill="#D60C18"/>
<line x1="50.5" y1="134.5" x2="50.5" y2="117.5" stroke="#939EA7" stroke-linecap="square" stroke-dasharray="2 2"/>
<line x1="279.5" y1="134.5" x2="279.5" y2="117.5" stroke="#939EA7" stroke-linecap="square" stroke-dasharray="2 2"/>
</svg>
