<svg width="430" height="530" viewBox="0 0 430 530" fill="none" xmlns="http://www.w3.org/2000/svg">
<rect x="40" y="40" width="350" height="50" fill="#EEEEEE"/>
<path d="M60.768 46.528V47.102H68.272V46.528H60.768ZM61.118 48.166V48.712H68.006V48.166H61.118ZM60.642 49.86V50.448H68.384V49.86H60.642ZM64.114 45.324V50.168H64.758V45.324H64.114ZM66.83 51.442V57.21C66.83 57.364 66.788 57.42 66.606 57.42C66.424 57.434 65.864 57.434 65.15 57.406C65.262 57.588 65.346 57.84 65.388 58.008C66.242 58.008 66.788 58.008 67.096 57.91C67.39 57.798 67.474 57.602 67.474 57.196V51.442H66.83ZM61.888 53.276V53.836H67.222V53.276H61.888ZM61.888 55.11V55.656H67.222V55.11H61.888ZM61.566 51.442V54.06C61.566 55.208 61.468 56.664 60.628 57.784C60.782 57.854 61.02 58.092 61.104 58.232C62.042 57.042 62.21 55.334 62.21 54.06V51.442H61.566ZM61.93 51.442V52.016H67.11V51.442H61.93ZM55.994 49.412V50H59.998V49.412H55.994ZM56.428 53.206V53.808H59.34V56.594H56.428V57.196H59.956V53.206H56.428ZM56.106 53.206V57.882H56.722V53.206H56.106ZM56.008 51.316V51.904H60.026V51.316H56.008ZM55.686 47.704V48.306H60.446V47.704H55.686ZM57.464 45.534C57.73 46.122 58.038 46.906 58.164 47.41L58.766 47.172C58.626 46.682 58.318 45.912 58.024 45.338L57.464 45.534ZM69.924 47.62V48.292H82.062V47.62H69.924ZM74.138 52.002V52.646H81.544V52.002H74.138ZM73.578 57.07V57.728H82.09V57.07H73.578ZM77.47 49.076V57.434H78.142V49.076H77.47ZM74.642 45.324C73.83 48.25 72.178 51.33 69.644 53.178C69.77 53.318 69.966 53.598 70.036 53.752C72.71 51.778 74.39 48.614 75.342 45.506L74.642 45.324ZM71.884 51.036V57.98H72.556V51.036H71.884ZM87.382 47.046V47.634H96.202V47.046H87.382ZM88.53 50.714V51.288H94.984V50.714H88.53ZM88.53 48.852V49.426H94.984V48.852H88.53ZM89.034 53.15H94.34V55.236H89.034V53.15ZM88.376 52.576V55.81H95.012V52.576H88.376ZM90.588 45.464C91.036 45.94 91.554 46.598 91.778 47.018L92.422 46.71C92.17 46.29 91.652 45.632 91.218 45.184L90.588 45.464ZM84.288 45.646C84.904 46.332 85.66 47.298 86.038 47.872L86.57 47.522C86.206 46.948 85.436 46.052 84.806 45.352L84.288 45.646ZM83.7 48.544V49.146H86.822V48.544H83.7ZM85.996 55.152L85.534 55.404C86.598 57.49 88.488 57.854 91.778 57.854C93.262 57.854 95.012 57.826 96.23 57.742C96.272 57.56 96.356 57.224 96.482 57.056C95.138 57.168 93.234 57.224 91.778 57.224C88.852 57.224 86.906 56.958 85.996 55.152ZM86.486 52.086V52.226C86.066 54.844 84.96 56.636 83.476 57.602C83.616 57.7 83.854 57.938 83.952 58.092C85.478 57.042 86.654 55.138 87.13 52.198L86.78 52.072L86.654 52.086H86.486ZM83.854 52.856C83.952 52.758 84.288 52.674 84.666 52.674H86.766V52.086H84.288L83.854 52.296V52.856ZM83.854 52.856C83.854 52.66 84.442 52.366 84.442 52.366C85.282 51.47 86.64 49.664 87.326 48.712L86.836 48.474L86.57 48.586V48.614C86.094 49.342 84.666 51.302 84.204 51.75C83.966 52.016 83.742 52.1 83.546 52.156C83.63 52.324 83.798 52.674 83.854 52.856ZM101.802 46.248V58.036H102.446V46.878H109.194V57.938H109.852V46.248H101.802ZM103.146 49.104V49.678H108.62V49.104H103.146ZM102.18 56.566V57.196H109.614V56.566H102.18ZM105.568 47.41V51.82H106.17V47.41H105.568ZM104.448 51.974H107.36V54.578H104.448V51.974ZM103.86 51.414V55.152H107.948V51.414H103.86ZM100.5 45.408C99.772 47.606 98.596 49.762 97.294 51.19C97.42 51.344 97.63 51.68 97.7 51.834C99.072 50.252 100.332 47.942 101.13 45.576L100.5 45.408ZM99.324 48.586V58.064H99.968V47.97L99.954 47.956L99.324 48.586ZM116.208 47.984V48.642H123.712V47.984H116.208ZM117.188 49.874C117.65 51.862 118.098 54.508 118.21 55.992L118.896 55.796C118.742 54.354 118.294 51.764 117.818 49.734L117.188 49.874ZM121.976 49.594C121.668 51.764 121.038 54.998 120.478 56.916L121.08 57.07C121.64 55.138 122.284 52.016 122.69 49.72L121.976 49.594ZM115.564 56.79V57.448H124.342V56.79H115.564ZM119.106 45.464C119.386 46.178 119.666 47.102 119.792 47.704L120.45 47.494C120.324 46.906 120.002 45.996 119.736 45.282L119.106 45.464ZM115.228 45.38C114.388 47.578 113.03 49.748 111.574 51.148C111.714 51.288 111.938 51.624 112.008 51.778C113.52 50.224 114.948 47.942 115.872 45.562L115.228 45.38ZM113.688 48.824V58.022H114.36V48.18L114.346 48.166L113.688 48.824ZM134.016 46.416H136.788V47.942H134.016V46.416ZM130.642 46.416H133.372V47.942H130.642V46.416ZM127.366 46.416H130.012V47.942H127.366V46.416ZM126.722 45.87V48.502H137.46V45.87H126.722ZM125.966 49.468V50.028H137.908V49.468H125.966ZM131.566 48.278C131.412 49.216 131.146 50.462 130.936 51.26H131.58C131.804 50.49 132.084 49.3 132.252 48.334L131.566 48.278ZM125.854 57.042V57.616H138.174V57.042H125.854ZM128.122 52.52V53.024H135.808V52.52H128.122ZM128.178 53.99V54.494H135.766V53.99H128.178ZM128.22 55.488V55.992H135.794V55.488H128.22ZM127.842 51.036V57.35H128.486V51.568H135.444V57.35H136.116V51.036H127.842ZM146.686 48.81V49.37H150.578V48.81H146.686ZM145.874 52.534V53.108H148.142V52.534H145.874ZM145.818 54.606V55.18H148.1V54.606H145.818ZM149.57 50.784V55.81H150.116V50.784H149.57ZM147.932 50.532V57.196C147.932 57.336 147.89 57.364 147.75 57.378C147.624 57.378 147.176 57.392 146.644 57.378C146.742 57.532 146.826 57.784 146.854 57.938C147.526 57.938 147.932 57.938 148.184 57.826C148.436 57.728 148.506 57.546 148.506 57.196V50.532H147.932ZM151.264 50.322V57.126C151.264 57.294 151.208 57.336 151.054 57.35C150.872 57.35 150.326 57.35 149.64 57.336C149.738 57.504 149.822 57.742 149.85 57.896C150.69 57.896 151.18 57.896 151.474 57.798C151.754 57.686 151.838 57.504 151.838 57.126V50.322H151.264ZM148.562 45.226C147.792 46.696 146.364 48.138 144.88 48.936C145.034 49.048 145.23 49.258 145.342 49.398C146.868 48.516 148.324 47.018 149.15 45.436L148.562 45.226ZM148.786 45.73L148.254 45.926C149.262 47.466 150.508 48.502 151.964 49.384C152.076 49.188 152.272 48.992 152.426 48.866C151.012 48.082 149.752 47.144 148.786 45.73ZM145.804 50.532V51.106H148.086V50.532H145.804ZM145.538 50.532V53.472C145.538 54.732 145.44 56.384 144.684 57.616C144.824 57.7 145.034 57.91 145.132 58.022C145.972 56.678 146.112 54.844 146.112 53.486V50.532H145.538ZM139.812 46.906V47.536H144.796V46.906H139.812ZM139.672 54.928V55.544H144.838V54.928H139.672ZM142.052 45.324V49.104H142.654V45.324H142.052ZM142.08 49.034V53.206H142.038V58.022H142.668V53.206H142.626V49.034H142.08ZM140.722 51.484H143.942V53.108H140.722V51.484ZM140.722 49.328H143.942V50.938H140.722V49.328ZM140.134 48.754V53.682H144.516V48.754H140.134ZM156.164 46.22V46.892H160.126V46.22H156.164ZM159.776 46.22C159.776 48.712 160.14 54.508 165.894 57.994C166.02 57.84 166.3 57.574 166.454 57.462C160.728 54.032 160.448 48.614 160.448 46.22H159.776ZM159.496 48.768C158.572 52.884 156.794 55.768 153.574 57.476C153.756 57.616 154.064 57.882 154.19 58.022C157.382 56.16 159.216 53.248 160.238 48.908L159.496 48.768ZM168.736 57.196C169.128 57.196 169.464 56.888 169.464 56.44C169.464 55.964 169.128 55.656 168.736 55.656C168.372 55.656 168.036 55.964 168.036 56.44C168.036 56.888 168.372 57.196 168.736 57.196ZM172.236 57.196C172.628 57.196 172.964 56.888 172.964 56.44C172.964 55.964 172.628 55.656 172.236 55.656C171.872 55.656 171.536 55.964 171.536 56.44C171.536 56.888 171.872 57.196 172.236 57.196ZM175.736 57.196C176.128 57.196 176.464 56.888 176.464 56.44C176.464 55.964 176.128 55.656 175.736 55.656C175.372 55.656 175.036 55.964 175.036 56.44C175.036 56.888 175.372 57.196 175.736 57.196Z" fill="#003A9F"/>
<rect x="40" y="89" width="350" height="1" fill="#003A9F"/>
<rect x="40" y="110" width="350" height="50" fill="#EEEEEE"/>
<path d="M60.768 112.528V113.102H68.272V112.528H60.768ZM61.118 114.166V114.712H68.006V114.166H61.118ZM60.642 115.86V116.448H68.384V115.86H60.642ZM64.114 111.324V116.168H64.758V111.324H64.114ZM66.83 117.442V123.21C66.83 123.364 66.788 123.42 66.606 123.42C66.424 123.434 65.864 123.434 65.15 123.406C65.262 123.588 65.346 123.84 65.388 124.008C66.242 124.008 66.788 124.008 67.096 123.91C67.39 123.798 67.474 123.602 67.474 123.196V117.442H66.83ZM61.888 119.276V119.836H67.222V119.276H61.888ZM61.888 121.11V121.656H67.222V121.11H61.888ZM61.566 117.442V120.06C61.566 121.208 61.468 122.664 60.628 123.784C60.782 123.854 61.02 124.092 61.104 124.232C62.042 123.042 62.21 121.334 62.21 120.06V117.442H61.566ZM61.93 117.442V118.016H67.11V117.442H61.93ZM55.994 115.412V116H59.998V115.412H55.994ZM56.428 119.206V119.808H59.34V122.594H56.428V123.196H59.956V119.206H56.428ZM56.106 119.206V123.882H56.722V119.206H56.106ZM56.008 117.316V117.904H60.026V117.316H56.008ZM55.686 113.704V114.306H60.446V113.704H55.686ZM57.464 111.534C57.73 112.122 58.038 112.906 58.164 113.41L58.766 113.172C58.626 112.682 58.318 111.912 58.024 111.338L57.464 111.534ZM69.924 113.62V114.292H82.062V113.62H69.924ZM74.138 118.002V118.646H81.544V118.002H74.138ZM73.578 123.07V123.728H82.09V123.07H73.578ZM77.47 115.076V123.434H78.142V115.076H77.47ZM74.642 111.324C73.83 114.25 72.178 117.33 69.644 119.178C69.77 119.318 69.966 119.598 70.036 119.752C72.71 117.778 74.39 114.614 75.342 111.506L74.642 111.324ZM71.884 117.036V123.98H72.556V117.036H71.884ZM87.382 113.046V113.634H96.202V113.046H87.382ZM88.53 116.714V117.288H94.984V116.714H88.53ZM88.53 114.852V115.426H94.984V114.852H88.53ZM89.034 119.15H94.34V121.236H89.034V119.15ZM88.376 118.576V121.81H95.012V118.576H88.376ZM90.588 111.464C91.036 111.94 91.554 112.598 91.778 113.018L92.422 112.71C92.17 112.29 91.652 111.632 91.218 111.184L90.588 111.464ZM84.288 111.646C84.904 112.332 85.66 113.298 86.038 113.872L86.57 113.522C86.206 112.948 85.436 112.052 84.806 111.352L84.288 111.646ZM83.7 114.544V115.146H86.822V114.544H83.7ZM85.996 121.152L85.534 121.404C86.598 123.49 88.488 123.854 91.778 123.854C93.262 123.854 95.012 123.826 96.23 123.742C96.272 123.56 96.356 123.224 96.482 123.056C95.138 123.168 93.234 123.224 91.778 123.224C88.852 123.224 86.906 122.958 85.996 121.152ZM86.486 118.086V118.226C86.066 120.844 84.96 122.636 83.476 123.602C83.616 123.7 83.854 123.938 83.952 124.092C85.478 123.042 86.654 121.138 87.13 118.198L86.78 118.072L86.654 118.086H86.486ZM83.854 118.856C83.952 118.758 84.288 118.674 84.666 118.674H86.766V118.086H84.288L83.854 118.296V118.856ZM83.854 118.856C83.854 118.66 84.442 118.366 84.442 118.366C85.282 117.47 86.64 115.664 87.326 114.712L86.836 114.474L86.57 114.586V114.614C86.094 115.342 84.666 117.302 84.204 117.75C83.966 118.016 83.742 118.1 83.546 118.156C83.63 118.324 83.798 118.674 83.854 118.856ZM101.802 112.248V124.036H102.446V112.878H109.194V123.938H109.852V112.248H101.802ZM103.146 115.104V115.678H108.62V115.104H103.146ZM102.18 122.566V123.196H109.614V122.566H102.18ZM105.568 113.41V117.82H106.17V113.41H105.568ZM104.448 117.974H107.36V120.578H104.448V117.974ZM103.86 117.414V121.152H107.948V117.414H103.86ZM100.5 111.408C99.772 113.606 98.596 115.762 97.294 117.19C97.42 117.344 97.63 117.68 97.7 117.834C99.072 116.252 100.332 113.942 101.13 111.576L100.5 111.408ZM99.324 114.586V124.064H99.968V113.97L99.954 113.956L99.324 114.586ZM116.208 113.984V114.642H123.712V113.984H116.208ZM117.188 115.874C117.65 117.862 118.098 120.508 118.21 121.992L118.896 121.796C118.742 120.354 118.294 117.764 117.818 115.734L117.188 115.874ZM121.976 115.594C121.668 117.764 121.038 120.998 120.478 122.916L121.08 123.07C121.64 121.138 122.284 118.016 122.69 115.72L121.976 115.594ZM115.564 122.79V123.448H124.342V122.79H115.564ZM119.106 111.464C119.386 112.178 119.666 113.102 119.792 113.704L120.45 113.494C120.324 112.906 120.002 111.996 119.736 111.282L119.106 111.464ZM115.228 111.38C114.388 113.578 113.03 115.748 111.574 117.148C111.714 117.288 111.938 117.624 112.008 117.778C113.52 116.224 114.948 113.942 115.872 111.562L115.228 111.38ZM113.688 114.824V124.022H114.36V114.18L114.346 114.166L113.688 114.824ZM134.016 112.416H136.788V113.942H134.016V112.416ZM130.642 112.416H133.372V113.942H130.642V112.416ZM127.366 112.416H130.012V113.942H127.366V112.416ZM126.722 111.87V114.502H137.46V111.87H126.722ZM125.966 115.468V116.028H137.908V115.468H125.966ZM131.566 114.278C131.412 115.216 131.146 116.462 130.936 117.26H131.58C131.804 116.49 132.084 115.3 132.252 114.334L131.566 114.278ZM125.854 123.042V123.616H138.174V123.042H125.854ZM128.122 118.52V119.024H135.808V118.52H128.122ZM128.178 119.99V120.494H135.766V119.99H128.178ZM128.22 121.488V121.992H135.794V121.488H128.22ZM127.842 117.036V123.35H128.486V117.568H135.444V123.35H136.116V117.036H127.842ZM62.686 128.81V129.37H66.578V128.81H62.686ZM61.874 132.534V133.108H64.142V132.534H61.874ZM61.818 134.606V135.18H64.1V134.606H61.818ZM65.57 130.784V135.81H66.116V130.784H65.57ZM63.932 130.532V137.196C63.932 137.336 63.89 137.364 63.75 137.378C63.624 137.378 63.176 137.392 62.644 137.378C62.742 137.532 62.826 137.784 62.854 137.938C63.526 137.938 63.932 137.938 64.184 137.826C64.436 137.728 64.506 137.546 64.506 137.196V130.532H63.932ZM67.264 130.322V137.126C67.264 137.294 67.208 137.336 67.054 137.35C66.872 137.35 66.326 137.35 65.64 137.336C65.738 137.504 65.822 137.742 65.85 137.896C66.69 137.896 67.18 137.896 67.474 137.798C67.754 137.686 67.838 137.504 67.838 137.126V130.322H67.264ZM64.562 125.226C63.792 126.696 62.364 128.138 60.88 128.936C61.034 129.048 61.23 129.258 61.342 129.398C62.868 128.516 64.324 127.018 65.15 125.436L64.562 125.226ZM64.786 125.73L64.254 125.926C65.262 127.466 66.508 128.502 67.964 129.384C68.076 129.188 68.272 128.992 68.426 128.866C67.012 128.082 65.752 127.144 64.786 125.73ZM61.804 130.532V131.106H64.086V130.532H61.804ZM61.538 130.532V133.472C61.538 134.732 61.44 136.384 60.684 137.616C60.824 137.7 61.034 137.91 61.132 138.022C61.972 136.678 62.112 134.844 62.112 133.486V130.532H61.538ZM55.812 126.906V127.536H60.796V126.906H55.812ZM55.672 134.928V135.544H60.838V134.928H55.672ZM58.052 125.324V129.104H58.654V125.324H58.052ZM58.08 129.034V133.206H58.038V138.022H58.668V133.206H58.626V129.034H58.08ZM56.722 131.484H59.942V133.108H56.722V131.484ZM56.722 129.328H59.942V130.938H56.722V129.328ZM56.134 128.754V133.682H60.516V128.754H56.134ZM72.164 126.22V126.892H76.126V126.22H72.164ZM75.776 126.22C75.776 128.712 76.14 134.508 81.894 137.994C82.02 137.84 82.3 137.574 82.454 137.462C76.728 134.032 76.448 128.614 76.448 126.22H75.776ZM75.496 128.768C74.572 132.884 72.794 135.768 69.574 137.476C69.756 137.616 70.064 137.882 70.19 138.022C73.382 136.16 75.216 133.248 76.238 128.908L75.496 128.768ZM90.3458 137.196C91.4098 137.196 92.1238 136.832 92.7258 136.454L92.4038 135.852C91.8438 136.244 91.2278 136.496 90.4298 136.496C88.8058 136.496 87.7278 135.222 87.6998 133.416H92.9918C93.0198 133.22 93.0338 133.024 93.0338 132.828C93.0338 130.644 91.9418 129.356 90.1358 129.356C88.4558 129.356 86.8598 130.854 86.8598 133.29C86.8598 135.74 88.4138 137.196 90.3458 137.196ZM87.6858 132.772C87.8538 131.05 88.9318 130.042 90.1498 130.042C91.4518 130.042 92.2778 130.966 92.2778 132.772H87.6858ZM94.3758 133.486H97.8198V132.8H94.3758V133.486ZM99.8079 137H100.634V131.414C101.418 130.532 102.132 130.084 102.79 130.084C103.882 130.084 104.4 130.798 104.4 132.338V137H105.198V131.414C106.01 130.532 106.696 130.084 107.354 130.084C108.46 130.084 108.978 130.798 108.978 132.338V137H109.79V132.226C109.79 130.308 109.034 129.356 107.55 129.356C106.682 129.356 105.87 129.944 105.03 130.854C104.764 129.944 104.162 129.356 102.972 129.356C102.118 129.356 101.292 129.93 100.62 130.686H100.592L100.494 129.538H99.8079V137ZM114.12 137.196C115.086 137.196 115.982 136.664 116.724 136.062H116.766L116.85 137H117.536V132.268C117.536 130.616 116.892 129.356 115.114 129.356C113.896 129.356 112.86 129.93 112.3 130.322L112.65 130.924C113.182 130.532 114.022 130.056 115.016 130.056C116.43 130.056 116.738 131.204 116.71 132.31C113.42 132.688 111.95 133.472 111.95 135.124C111.95 136.51 112.93 137.196 114.12 137.196ZM114.288 136.496C113.462 136.496 112.776 136.104 112.776 135.082C112.776 133.948 113.77 133.248 116.71 132.926V135.348C115.842 136.104 115.114 136.496 114.288 136.496ZM120.124 137H120.95V129.538H120.124V137ZM120.544 127.788C120.922 127.788 121.188 127.536 121.188 127.102C121.188 126.724 120.922 126.458 120.544 126.458C120.166 126.458 119.9 126.724 119.9 127.102C119.9 127.536 120.166 127.788 120.544 127.788ZM124.714 137.196C124.98 137.196 125.12 137.154 125.274 137.112L125.148 136.454C124.994 136.482 124.938 136.482 124.868 136.482C124.672 136.482 124.546 136.328 124.546 135.978V125.884H123.72V135.894C123.72 136.762 124.042 137.196 124.714 137.196Z" fill="#003A9F"/>
<rect x="40" y="159" width="350" height="1" fill="#003A9F"/>
<rect x="40" y="180" width="350" height="50" fill="#EEEEEE"/>
<path d="M69.6875 205C69.6875 210.35 65.3503 214.688 60 214.688C54.6497 214.688 50.3125 210.35 50.3125 205C50.3125 199.65 54.6497 195.312 60 195.312C65.3503 195.312 69.6875 199.65 69.6875 205ZM58.8794 210.129L66.067 202.942C66.311 202.698 66.311 202.302 66.067 202.058L65.1831 201.174C64.939 200.93 64.5433 200.93 64.2992 201.174L58.4375 207.036L55.7008 204.299C55.4568 204.055 55.061 204.055 54.8169 204.299L53.9331 205.183C53.689 205.427 53.689 205.823 53.9331 206.067L57.9956 210.129C58.2396 210.373 58.6354 210.373 58.8795 210.129L58.8794 210.129Z" fill="black"/>
<path d="M83.768 186.528V187.102H91.272V186.528H83.768ZM84.118 188.166V188.712H91.006V188.166H84.118ZM83.642 189.86V190.448H91.384V189.86H83.642ZM87.114 185.324V190.168H87.758V185.324H87.114ZM89.83 191.442V197.21C89.83 197.364 89.788 197.42 89.606 197.42C89.424 197.434 88.864 197.434 88.15 197.406C88.262 197.588 88.346 197.84 88.388 198.008C89.242 198.008 89.788 198.008 90.096 197.91C90.39 197.798 90.474 197.602 90.474 197.196V191.442H89.83ZM84.888 193.276V193.836H90.222V193.276H84.888ZM84.888 195.11V195.656H90.222V195.11H84.888ZM84.566 191.442V194.06C84.566 195.208 84.468 196.664 83.628 197.784C83.782 197.854 84.02 198.092 84.104 198.232C85.042 197.042 85.21 195.334 85.21 194.06V191.442H84.566ZM84.93 191.442V192.016H90.11V191.442H84.93ZM78.994 189.412V190H82.998V189.412H78.994ZM79.428 193.206V193.808H82.34V196.594H79.428V197.196H82.956V193.206H79.428ZM79.106 193.206V197.882H79.722V193.206H79.106ZM79.008 191.316V191.904H83.026V191.316H79.008ZM78.686 187.704V188.306H83.446V187.704H78.686ZM80.464 185.534C80.73 186.122 81.038 186.906 81.164 187.41L81.766 187.172C81.626 186.682 81.318 185.912 81.024 185.338L80.464 185.534ZM99.686 188.81V189.37H103.578V188.81H99.686ZM98.874 192.534V193.108H101.142V192.534H98.874ZM98.818 194.606V195.18H101.1V194.606H98.818ZM102.57 190.784V195.81H103.116V190.784H102.57ZM100.932 190.532V197.196C100.932 197.336 100.89 197.364 100.75 197.378C100.624 197.378 100.176 197.392 99.644 197.378C99.742 197.532 99.826 197.784 99.854 197.938C100.526 197.938 100.932 197.938 101.184 197.826C101.436 197.728 101.506 197.546 101.506 197.196V190.532H100.932ZM104.264 190.322V197.126C104.264 197.294 104.208 197.336 104.054 197.35C103.872 197.35 103.326 197.35 102.64 197.336C102.738 197.504 102.822 197.742 102.85 197.896C103.69 197.896 104.18 197.896 104.474 197.798C104.754 197.686 104.838 197.504 104.838 197.126V190.322H104.264ZM101.562 185.226C100.792 186.696 99.364 188.138 97.88 188.936C98.034 189.048 98.23 189.258 98.342 189.398C99.868 188.516 101.324 187.018 102.15 185.436L101.562 185.226ZM101.786 185.73L101.254 185.926C102.262 187.466 103.508 188.502 104.964 189.384C105.076 189.188 105.272 188.992 105.426 188.866C104.012 188.082 102.752 187.144 101.786 185.73ZM98.804 190.532V191.106H101.086V190.532H98.804ZM98.538 190.532V193.472C98.538 194.732 98.44 196.384 97.684 197.616C97.824 197.7 98.034 197.91 98.132 198.022C98.972 196.678 99.112 194.844 99.112 193.486V190.532H98.538ZM92.812 186.906V187.536H97.796V186.906H92.812ZM92.672 194.928V195.544H97.838V194.928H92.672ZM95.052 185.324V189.104H95.654V185.324H95.052ZM95.08 189.034V193.206H95.038V198.022H95.668V193.206H95.626V189.034H95.08ZM93.722 191.484H96.942V193.108H93.722V191.484ZM93.722 189.328H96.942V190.938H93.722V189.328ZM93.134 188.754V193.682H97.516V188.754H93.134ZM109.164 186.22V186.892H113.126V186.22H109.164ZM112.776 186.22C112.776 188.712 113.14 194.508 118.894 197.994C119.02 197.84 119.3 197.574 119.454 197.462C113.728 194.032 113.448 188.614 113.448 186.22H112.776ZM112.496 188.768C111.572 192.884 109.794 195.768 106.574 197.476C106.756 197.616 107.064 197.882 107.19 198.022C110.382 196.16 112.216 193.248 113.238 188.908L112.496 188.768ZM127.346 197.196C128.41 197.196 129.124 196.832 129.726 196.454L129.404 195.852C128.844 196.244 128.228 196.496 127.43 196.496C125.806 196.496 124.728 195.222 124.7 193.416H129.992C130.02 193.22 130.034 193.024 130.034 192.828C130.034 190.644 128.942 189.356 127.136 189.356C125.456 189.356 123.86 190.854 123.86 193.29C123.86 195.74 125.414 197.196 127.346 197.196ZM124.686 192.772C124.854 191.05 125.932 190.042 127.15 190.042C128.452 190.042 129.278 190.966 129.278 192.772H124.686ZM131.376 193.486H134.82V192.8H131.376V193.486ZM136.808 197H137.634V191.414C138.418 190.532 139.132 190.084 139.79 190.084C140.882 190.084 141.4 190.798 141.4 192.338V197H142.198V191.414C143.01 190.532 143.696 190.084 144.354 190.084C145.46 190.084 145.978 190.798 145.978 192.338V197H146.79V192.226C146.79 190.308 146.034 189.356 144.55 189.356C143.682 189.356 142.87 189.944 142.03 190.854C141.764 189.944 141.162 189.356 139.972 189.356C139.118 189.356 138.292 189.93 137.62 190.686H137.592L137.494 189.538H136.808V197ZM151.12 197.196C152.086 197.196 152.982 196.664 153.724 196.062H153.766L153.85 197H154.536V192.268C154.536 190.616 153.892 189.356 152.114 189.356C150.896 189.356 149.86 189.93 149.3 190.322L149.65 190.924C150.182 190.532 151.022 190.056 152.016 190.056C153.43 190.056 153.738 191.204 153.71 192.31C150.42 192.688 148.95 193.472 148.95 195.124C148.95 196.51 149.93 197.196 151.12 197.196ZM151.288 196.496C150.462 196.496 149.776 196.104 149.776 195.082C149.776 193.948 150.77 193.248 153.71 192.926V195.348C152.842 196.104 152.114 196.496 151.288 196.496ZM157.124 197H157.95V189.538H157.124V197ZM157.544 187.788C157.922 187.788 158.188 187.536 158.188 187.102C158.188 186.724 157.922 186.458 157.544 186.458C157.166 186.458 156.9 186.724 156.9 187.102C156.9 187.536 157.166 187.788 157.544 187.788ZM161.714 197.196C161.98 197.196 162.12 197.154 162.274 197.112L162.148 196.454C161.994 196.482 161.938 196.482 161.868 196.482C161.672 196.482 161.546 196.328 161.546 195.978V185.884H160.72V195.894C160.72 196.762 161.042 197.196 161.714 197.196Z" fill="#003A9F"/>
<rect x="40" y="229" width="350" height="1" fill="#48545D"/>
<path d="M83.1797 208.305L79.2422 219H78.2422L82.5391 207.625H83.2344L83.1797 208.305ZM86.7578 219L82.8125 208.305L82.7578 207.625H83.4531L87.7578 219H86.7578ZM86.0547 214.984V215.812H80.0156V214.984H86.0547ZM93.3594 213.531H90.1562L90.1406 212.719H92.8984C93.4609 212.719 93.9401 212.638 94.3359 212.477C94.7318 212.315 95.0312 212.076 95.2344 211.758C95.4427 211.435 95.5469 211.039 95.5469 210.57C95.5469 210.091 95.4453 209.695 95.2422 209.383C95.0391 209.065 94.7344 208.831 94.3281 208.68C93.9219 208.529 93.4115 208.453 92.7969 208.453H90.4062V219H89.4453V207.625H92.7969C93.375 207.625 93.8932 207.682 94.3516 207.797C94.8099 207.911 95.2005 208.091 95.5234 208.336C95.8464 208.581 96.0911 208.891 96.2578 209.266C96.4297 209.635 96.5156 210.078 96.5156 210.594C96.5156 211.062 96.4115 211.487 96.2031 211.867C95.9948 212.242 95.7005 212.549 95.3203 212.789C94.9453 213.023 94.4948 213.169 93.9688 213.227L93.3594 213.531ZM93.2891 219H89.8516L90.3438 218.18H93.2891C93.8516 218.18 94.3307 218.086 94.7266 217.898C95.1276 217.706 95.4349 217.432 95.6484 217.078C95.862 216.724 95.9688 216.302 95.9688 215.812C95.9688 215.38 95.875 214.992 95.6875 214.648C95.5 214.305 95.2135 214.034 94.8281 213.836C94.4427 213.633 93.9531 213.531 93.3594 213.531H91.3672L91.3828 212.719H94.2031L94.375 213.008C94.8854 213.06 95.3307 213.219 95.7109 213.484C96.0964 213.745 96.3932 214.076 96.6016 214.477C96.8151 214.878 96.9219 215.318 96.9219 215.797C96.9219 216.484 96.7682 217.068 96.4609 217.547C96.1589 218.021 95.7344 218.383 95.1875 218.633C94.6458 218.878 94.013 219 93.2891 219ZM106.344 215.453H107.305C107.227 216.219 107.016 216.88 106.672 217.438C106.328 217.99 105.859 218.414 105.266 218.711C104.672 219.008 103.956 219.156 103.117 219.156C102.471 219.156 101.885 219.034 101.359 218.789C100.839 218.544 100.391 218.198 100.016 217.75C99.6406 217.297 99.3516 216.755 99.1484 216.125C98.9453 215.495 98.8438 214.794 98.8438 214.023V212.602C98.8438 211.831 98.9453 211.133 99.1484 210.508C99.3516 209.878 99.6432 209.336 100.023 208.883C100.404 208.43 100.859 208.081 101.391 207.836C101.922 207.591 102.521 207.469 103.188 207.469C103.995 207.469 104.693 207.617 105.281 207.914C105.87 208.206 106.333 208.628 106.672 209.18C107.016 209.732 107.227 210.398 107.305 211.18H106.344C106.271 210.565 106.109 210.044 105.859 209.617C105.609 209.19 105.263 208.865 104.82 208.641C104.383 208.411 103.839 208.297 103.188 208.297C102.656 208.297 102.182 208.398 101.766 208.602C101.349 208.805 100.995 209.096 100.703 209.477C100.411 209.852 100.188 210.302 100.031 210.828C99.8802 211.354 99.8047 211.94 99.8047 212.586V214.023C99.8047 214.648 99.8776 215.224 100.023 215.75C100.169 216.276 100.383 216.732 100.664 217.117C100.951 217.503 101.299 217.802 101.711 218.016C102.122 218.229 102.591 218.336 103.117 218.336C103.789 218.336 104.349 218.229 104.797 218.016C105.25 217.797 105.602 217.474 105.852 217.047C106.102 216.62 106.266 216.089 106.344 215.453ZM112.758 219H110.18L110.195 218.18H112.758C113.576 218.18 114.279 217.997 114.867 217.633C115.461 217.263 115.919 216.753 116.242 216.102C116.565 215.451 116.727 214.695 116.727 213.836V212.773C116.727 212.117 116.633 211.523 116.445 210.992C116.263 210.461 116 210.008 115.656 209.633C115.312 209.253 114.901 208.961 114.422 208.758C113.948 208.555 113.417 208.453 112.828 208.453H110.133V207.625H112.828C113.536 207.625 114.185 207.747 114.773 207.992C115.367 208.232 115.88 208.581 116.312 209.039C116.75 209.492 117.086 210.036 117.32 210.672C117.56 211.307 117.68 212.016 117.68 212.797V213.836C117.68 214.617 117.56 215.326 117.32 215.961C117.086 216.596 116.75 217.141 116.312 217.594C115.875 218.047 115.357 218.396 114.758 218.641C114.159 218.88 113.492 219 112.758 219ZM110.609 207.625V219H109.648V207.625H110.609ZM127.203 218.18V219H120.805V218.18H127.203ZM121.094 207.625V219H120.133V207.625H121.094ZM126.406 212.727V213.547H120.805V212.727H126.406ZM127.164 207.625V208.453H120.805V207.625H127.164ZM130.203 207.625V219H129.242V207.625H130.203ZM135.5 212.859V213.688H129.883V212.859H135.5ZM136.289 207.625V208.453H129.883V207.625H136.289ZM146.445 213.594V217.641C146.315 217.833 146.091 218.047 145.773 218.281C145.456 218.516 145.029 218.721 144.492 218.898C143.956 219.07 143.289 219.156 142.492 219.156C141.826 219.156 141.214 219.036 140.656 218.797C140.099 218.557 139.615 218.211 139.203 217.758C138.797 217.299 138.482 216.75 138.258 216.109C138.039 215.469 137.93 214.75 137.93 213.953V212.578C137.93 211.797 138.031 211.094 138.234 210.469C138.438 209.839 138.732 209.299 139.117 208.852C139.503 208.404 139.966 208.062 140.508 207.828C141.055 207.589 141.667 207.469 142.344 207.469C143.188 207.469 143.898 207.615 144.477 207.906C145.055 208.198 145.505 208.599 145.828 209.109C146.156 209.615 146.359 210.188 146.438 210.828H145.477C145.404 210.375 145.253 209.958 145.023 209.578C144.794 209.193 144.461 208.883 144.023 208.648C143.591 208.414 143.031 208.297 142.344 208.297C141.792 208.297 141.299 208.398 140.867 208.602C140.44 208.805 140.081 209.094 139.789 209.469C139.497 209.844 139.276 210.294 139.125 210.82C138.974 211.341 138.898 211.922 138.898 212.562V213.953C138.898 214.62 138.982 215.221 139.148 215.758C139.32 216.294 139.565 216.755 139.883 217.141C140.201 217.526 140.581 217.823 141.023 218.031C141.466 218.234 141.958 218.336 142.5 218.336C143.078 218.336 143.57 218.281 143.977 218.172C144.383 218.062 144.708 217.932 144.953 217.781C145.203 217.625 145.383 217.479 145.492 217.344V214.414H142.438V213.594H146.445ZM161.438 214.992C161.417 215.482 161.344 215.971 161.219 216.461C161.099 216.951 160.917 217.401 160.672 217.812C160.432 218.219 160.122 218.544 159.742 218.789C159.367 219.034 158.917 219.156 158.391 219.156C158.057 219.156 157.763 219.096 157.508 218.977C157.258 218.857 157.049 218.685 156.883 218.461C156.716 218.237 156.599 217.966 156.531 217.648C156.464 217.326 156.445 216.966 156.477 216.57L156.867 212.117H157.656L157.266 216.57C157.229 216.987 157.247 217.323 157.32 217.578C157.393 217.828 157.497 218.021 157.633 218.156C157.768 218.286 157.911 218.375 158.062 218.422C158.219 218.464 158.359 218.484 158.484 218.484C158.833 218.484 159.141 218.396 159.406 218.219C159.672 218.042 159.898 217.794 160.086 217.477C160.273 217.159 160.419 216.789 160.523 216.367C160.628 215.945 160.69 215.487 160.711 214.992C160.747 214.206 160.711 213.482 160.602 212.82C160.497 212.159 160.312 211.57 160.047 211.055C159.781 210.534 159.435 210.094 159.008 209.734C158.581 209.375 158.068 209.102 157.469 208.914C156.875 208.727 156.19 208.633 155.414 208.633C154.742 208.633 154.112 208.734 153.523 208.938C152.94 209.135 152.409 209.427 151.93 209.812C151.451 210.193 151.034 210.654 150.68 211.195C150.331 211.737 150.052 212.352 149.844 213.039C149.641 213.721 149.521 214.464 149.484 215.266C149.448 216.042 149.495 216.766 149.625 217.438C149.755 218.109 149.964 218.716 150.25 219.258C150.536 219.799 150.898 220.263 151.336 220.648C151.773 221.034 152.281 221.328 152.859 221.531C153.443 221.734 154.094 221.836 154.812 221.836C155.271 221.836 155.734 221.779 156.203 221.664C156.677 221.555 157.073 221.406 157.391 221.219L157.625 221.844C157.281 222.073 156.839 222.245 156.297 222.359C155.755 222.479 155.25 222.539 154.781 222.539C153.99 222.539 153.266 222.43 152.609 222.211C151.958 221.997 151.38 221.682 150.875 221.266C150.375 220.854 149.958 220.352 149.625 219.758C149.292 219.169 149.047 218.497 148.891 217.742C148.734 216.987 148.674 216.161 148.711 215.266C148.747 214.391 148.878 213.576 149.102 212.82C149.331 212.065 149.641 211.388 150.031 210.789C150.422 210.185 150.888 209.667 151.43 209.234C151.971 208.802 152.578 208.471 153.25 208.242C153.927 208.013 154.659 207.898 155.445 207.898C156.279 207.898 157.023 208.005 157.68 208.219C158.341 208.432 158.914 208.742 159.398 209.148C159.888 209.549 160.289 210.039 160.602 210.617C160.914 211.195 161.141 211.852 161.281 212.586C161.422 213.32 161.474 214.122 161.438 214.992ZM152.984 215.664C152.943 216.065 152.94 216.432 152.977 216.766C153.018 217.099 153.096 217.388 153.211 217.633C153.326 217.872 153.479 218.06 153.672 218.195C153.865 218.326 154.094 218.391 154.359 218.391C154.557 218.391 154.763 218.354 154.977 218.281C155.19 218.203 155.396 218.076 155.594 217.898C155.797 217.721 155.987 217.479 156.164 217.172C156.341 216.859 156.492 216.466 156.617 215.992L157 216.469C156.875 216.911 156.716 217.299 156.523 217.633C156.336 217.966 156.12 218.247 155.875 218.477C155.635 218.701 155.372 218.87 155.086 218.984C154.805 219.099 154.505 219.156 154.188 219.156C153.823 219.156 153.503 219.073 153.227 218.906C152.951 218.74 152.724 218.503 152.547 218.195C152.375 217.888 152.255 217.521 152.188 217.094C152.12 216.667 152.109 216.19 152.156 215.664C152.203 215.128 152.297 214.633 152.438 214.18C152.583 213.721 152.76 213.315 152.969 212.961C153.182 212.602 153.424 212.297 153.695 212.047C153.971 211.797 154.266 211.607 154.578 211.477C154.891 211.341 155.216 211.273 155.555 211.273C156.081 211.273 156.495 211.359 156.797 211.531C157.099 211.698 157.385 211.893 157.656 212.117L157.125 212.633C156.969 212.456 156.763 212.305 156.508 212.18C156.258 212.055 155.958 211.992 155.609 211.992C155.292 211.992 154.99 212.068 154.703 212.219C154.417 212.365 154.154 212.591 153.914 212.898C153.68 213.201 153.482 213.581 153.32 214.039C153.159 214.497 153.047 215.039 152.984 215.664ZM169.164 210.547H170.031V218.852C170.031 219.586 169.891 220.216 169.609 220.742C169.333 221.268 168.94 221.672 168.43 221.953C167.924 222.234 167.328 222.375 166.641 222.375C166.292 222.375 165.932 222.32 165.562 222.211C165.198 222.107 164.852 221.945 164.523 221.727C164.201 221.513 163.924 221.247 163.695 220.93L164.219 220.359C164.562 220.776 164.93 221.081 165.32 221.273C165.711 221.471 166.133 221.57 166.586 221.57C167.122 221.57 167.576 221.464 167.945 221.25C168.32 221.036 168.604 220.729 168.797 220.328C168.995 219.927 169.094 219.445 169.094 218.883V212.406L169.164 210.547ZM163.227 214.859V214.695C163.227 214.039 163.299 213.448 163.445 212.922C163.596 212.391 163.812 211.938 164.094 211.562C164.375 211.182 164.716 210.893 165.117 210.695C165.523 210.492 165.982 210.391 166.492 210.391C166.982 210.391 167.417 210.471 167.797 210.633C168.177 210.794 168.505 211.026 168.781 211.328C169.057 211.63 169.279 211.99 169.445 212.406C169.617 212.823 169.742 213.286 169.82 213.797V215.883C169.758 216.362 169.643 216.802 169.477 217.203C169.31 217.599 169.089 217.945 168.812 218.242C168.536 218.534 168.203 218.76 167.812 218.922C167.427 219.078 166.982 219.156 166.477 219.156C165.971 219.156 165.518 219.052 165.117 218.844C164.716 218.635 164.375 218.341 164.094 217.961C163.812 217.576 163.596 217.12 163.445 216.594C163.299 216.068 163.227 215.49 163.227 214.859ZM164.164 214.695V214.859C164.164 215.354 164.214 215.812 164.312 216.234C164.411 216.656 164.562 217.023 164.766 217.336C164.969 217.648 165.227 217.893 165.539 218.07C165.852 218.247 166.219 218.336 166.641 218.336C167.177 218.336 167.628 218.234 167.992 218.031C168.357 217.823 168.646 217.549 168.859 217.211C169.073 216.867 169.229 216.492 169.328 216.086V213.656C169.271 213.38 169.182 213.099 169.062 212.812C168.948 212.526 168.786 212.263 168.578 212.023C168.375 211.779 168.115 211.583 167.797 211.438C167.484 211.286 167.104 211.211 166.656 211.211C166.229 211.211 165.857 211.299 165.539 211.477C165.227 211.654 164.969 211.901 164.766 212.219C164.562 212.531 164.411 212.898 164.312 213.32C164.214 213.742 164.164 214.201 164.164 214.695ZM173.359 212.297V219H172.422V210.547H173.32L173.359 212.297ZM173.188 214.25L172.734 214.016C172.766 213.516 172.859 213.047 173.016 212.609C173.177 212.172 173.401 211.786 173.688 211.453C173.974 211.12 174.318 210.859 174.719 210.672C175.12 210.484 175.576 210.391 176.086 210.391C176.497 210.391 176.87 210.448 177.203 210.562C177.542 210.672 177.828 210.846 178.062 211.086C178.302 211.32 178.487 211.628 178.617 212.008C178.747 212.388 178.812 212.844 178.812 213.375V219H177.883V213.406C177.883 212.844 177.794 212.404 177.617 212.086C177.445 211.768 177.203 211.542 176.891 211.406C176.583 211.271 176.227 211.203 175.82 211.203C175.341 211.203 174.935 211.302 174.602 211.5C174.273 211.693 174.005 211.945 173.797 212.258C173.594 212.565 173.443 212.896 173.344 213.25C173.245 213.599 173.193 213.932 173.188 214.25ZM178.805 213.516L178.18 213.531C178.206 213.12 178.299 212.727 178.461 212.352C178.628 211.977 178.854 211.643 179.141 211.352C179.427 211.055 179.768 210.82 180.164 210.648C180.565 210.477 181.016 210.391 181.516 210.391C181.953 210.391 182.344 210.451 182.688 210.57C183.031 210.685 183.32 210.87 183.555 211.125C183.794 211.375 183.977 211.695 184.102 212.086C184.227 212.477 184.289 212.945 184.289 213.492V219H183.352V213.484C183.352 212.885 183.263 212.422 183.086 212.094C182.914 211.76 182.674 211.529 182.367 211.398C182.06 211.268 181.701 211.203 181.289 211.203C180.883 211.208 180.526 211.284 180.219 211.43C179.911 211.57 179.654 211.758 179.445 211.992C179.242 212.221 179.086 212.469 178.977 212.734C178.872 213 178.815 213.26 178.805 213.516ZM191.805 217.484V213.125C191.805 212.724 191.721 212.378 191.555 212.086C191.388 211.794 191.143 211.57 190.82 211.414C190.497 211.258 190.099 211.18 189.625 211.18C189.188 211.18 188.797 211.258 188.453 211.414C188.115 211.565 187.846 211.771 187.648 212.031C187.456 212.286 187.359 212.57 187.359 212.883L186.422 212.875C186.422 212.557 186.5 212.25 186.656 211.953C186.812 211.656 187.034 211.391 187.32 211.156C187.607 210.922 187.948 210.737 188.344 210.602C188.745 210.461 189.185 210.391 189.664 210.391C190.268 210.391 190.799 210.492 191.258 210.695C191.721 210.898 192.083 211.203 192.344 211.609C192.604 212.016 192.734 212.526 192.734 213.141V217.227C192.734 217.518 192.755 217.82 192.797 218.133C192.844 218.445 192.909 218.703 192.992 218.906V219H192C191.938 218.812 191.888 218.578 191.852 218.297C191.82 218.01 191.805 217.74 191.805 217.484ZM192.023 214.078L192.039 214.797H190.203C189.724 214.797 189.294 214.841 188.914 214.93C188.539 215.013 188.221 215.138 187.961 215.305C187.701 215.466 187.5 215.661 187.359 215.891C187.224 216.12 187.156 216.38 187.156 216.672C187.156 216.974 187.232 217.25 187.383 217.5C187.539 217.75 187.758 217.951 188.039 218.102C188.326 218.247 188.664 218.32 189.055 218.32C189.576 218.32 190.034 218.224 190.43 218.031C190.831 217.839 191.161 217.586 191.422 217.273C191.682 216.961 191.857 216.62 191.945 216.25L192.352 216.789C192.284 217.049 192.159 217.318 191.977 217.594C191.799 217.865 191.568 218.12 191.281 218.359C190.995 218.594 190.656 218.786 190.266 218.938C189.88 219.083 189.443 219.156 188.953 219.156C188.401 219.156 187.919 219.052 187.508 218.844C187.102 218.635 186.784 218.352 186.555 217.992C186.331 217.628 186.219 217.216 186.219 216.758C186.219 216.341 186.307 215.969 186.484 215.641C186.661 215.307 186.917 215.026 187.25 214.797C187.589 214.562 187.995 214.385 188.469 214.266C188.948 214.141 189.484 214.078 190.078 214.078H192.023ZM196.281 210.547V219H195.352V210.547H196.281ZM195.188 208.102C195.188 207.924 195.242 207.776 195.352 207.656C195.466 207.531 195.622 207.469 195.82 207.469C196.018 207.469 196.174 207.531 196.289 207.656C196.409 207.776 196.469 207.924 196.469 208.102C196.469 208.273 196.409 208.422 196.289 208.547C196.174 208.667 196.018 208.727 195.82 208.727C195.622 208.727 195.466 208.667 195.352 208.547C195.242 208.422 195.188 208.273 195.188 208.102ZM199.875 207V219H198.945V207H199.875ZM202.344 218.43C202.344 218.247 202.401 218.094 202.516 217.969C202.635 217.839 202.797 217.773 203 217.773C203.208 217.773 203.372 217.836 203.492 217.961C203.612 218.086 203.672 218.242 203.672 218.43C203.672 218.607 203.612 218.758 203.492 218.883C203.372 219.008 203.208 219.07 203 219.07C202.797 219.07 202.635 219.008 202.516 218.883C202.401 218.758 202.344 218.607 202.344 218.43ZM209.375 218.352C209.771 218.352 210.141 218.279 210.484 218.133C210.833 217.982 211.12 217.76 211.344 217.469C211.573 217.172 211.703 216.81 211.734 216.383H212.625C212.599 216.919 212.435 217.398 212.133 217.82C211.836 218.237 211.445 218.565 210.961 218.805C210.482 219.039 209.953 219.156 209.375 219.156C208.786 219.156 208.266 219.049 207.812 218.836C207.365 218.622 206.99 218.326 206.688 217.945C206.385 217.56 206.156 217.112 206 216.602C205.849 216.086 205.773 215.531 205.773 214.938V214.609C205.773 214.016 205.849 213.464 206 212.953C206.156 212.438 206.385 211.99 206.688 211.609C206.99 211.224 207.365 210.924 207.812 210.711C208.26 210.497 208.779 210.391 209.367 210.391C209.971 210.391 210.513 210.513 210.992 210.758C211.477 211.003 211.862 211.349 212.148 211.797C212.44 212.245 212.599 212.776 212.625 213.391H211.734C211.708 212.938 211.589 212.547 211.375 212.219C211.161 211.891 210.88 211.638 210.531 211.461C210.182 211.284 209.794 211.195 209.367 211.195C208.888 211.195 208.479 211.289 208.141 211.477C207.802 211.659 207.526 211.911 207.312 212.234C207.104 212.552 206.951 212.917 206.852 213.328C206.753 213.734 206.703 214.161 206.703 214.609V214.938C206.703 215.391 206.75 215.823 206.844 216.234C206.943 216.641 207.096 217.003 207.305 217.32C207.518 217.638 207.794 217.891 208.133 218.078C208.477 218.26 208.891 218.352 209.375 218.352ZM213.992 214.906V214.648C213.992 214.034 214.081 213.466 214.258 212.945C214.435 212.424 214.688 211.974 215.016 211.594C215.349 211.214 215.747 210.919 216.211 210.711C216.674 210.497 217.19 210.391 217.758 210.391C218.331 210.391 218.849 210.497 219.312 210.711C219.776 210.919 220.174 211.214 220.508 211.594C220.841 211.974 221.096 212.424 221.273 212.945C221.451 213.466 221.539 214.034 221.539 214.648V214.906C221.539 215.521 221.451 216.089 221.273 216.609C221.096 217.125 220.841 217.573 220.508 217.953C220.18 218.333 219.784 218.63 219.32 218.844C218.857 219.052 218.341 219.156 217.773 219.156C217.201 219.156 216.682 219.052 216.219 218.844C215.755 218.63 215.357 218.333 215.023 217.953C214.69 217.573 214.435 217.125 214.258 216.609C214.081 216.089 213.992 215.521 213.992 214.906ZM214.922 214.648V214.906C214.922 215.37 214.984 215.81 215.109 216.227C215.234 216.638 215.417 217.005 215.656 217.328C215.896 217.646 216.193 217.896 216.547 218.078C216.901 218.26 217.31 218.352 217.773 218.352C218.232 218.352 218.635 218.26 218.984 218.078C219.339 217.896 219.635 217.646 219.875 217.328C220.115 217.005 220.294 216.638 220.414 216.227C220.539 215.81 220.602 215.37 220.602 214.906V214.648C220.602 214.19 220.539 213.755 220.414 213.344C220.294 212.932 220.112 212.565 219.867 212.242C219.628 211.919 219.331 211.664 218.977 211.477C218.622 211.289 218.216 211.195 217.758 211.195C217.299 211.195 216.893 211.289 216.539 211.477C216.19 211.664 215.893 211.919 215.648 212.242C215.409 212.565 215.227 212.932 215.102 213.344C214.982 213.755 214.922 214.19 214.922 214.648ZM224.359 212.297V219H223.422V210.547H224.32L224.359 212.297ZM224.188 214.25L223.734 214.016C223.766 213.516 223.859 213.047 224.016 212.609C224.177 212.172 224.401 211.786 224.688 211.453C224.974 211.12 225.318 210.859 225.719 210.672C226.12 210.484 226.576 210.391 227.086 210.391C227.497 210.391 227.87 210.448 228.203 210.562C228.542 210.672 228.828 210.846 229.062 211.086C229.302 211.32 229.487 211.628 229.617 212.008C229.747 212.388 229.812 212.844 229.812 213.375V219H228.883V213.406C228.883 212.844 228.794 212.404 228.617 212.086C228.445 211.768 228.203 211.542 227.891 211.406C227.583 211.271 227.227 211.203 226.82 211.203C226.341 211.203 225.935 211.302 225.602 211.5C225.273 211.693 225.005 211.945 224.797 212.258C224.594 212.565 224.443 212.896 224.344 213.25C224.245 213.599 224.193 213.932 224.188 214.25ZM229.805 213.516L229.18 213.531C229.206 213.12 229.299 212.727 229.461 212.352C229.628 211.977 229.854 211.643 230.141 211.352C230.427 211.055 230.768 210.82 231.164 210.648C231.565 210.477 232.016 210.391 232.516 210.391C232.953 210.391 233.344 210.451 233.688 210.57C234.031 210.685 234.32 210.87 234.555 211.125C234.794 211.375 234.977 211.695 235.102 212.086C235.227 212.477 235.289 212.945 235.289 213.492V219H234.352V213.484C234.352 212.885 234.263 212.422 234.086 212.094C233.914 211.76 233.674 211.529 233.367 211.398C233.06 211.268 232.701 211.203 232.289 211.203C231.883 211.208 231.526 211.284 231.219 211.43C230.911 211.57 230.654 211.758 230.445 211.992C230.242 212.221 230.086 212.469 229.977 212.734C229.872 213 229.815 213.26 229.805 213.516Z" fill="black"/>
<rect x="40" y="270" width="350" height="230" fill="white"/>
<rect x="60.5" y="290.5" width="309" height="49" stroke="#939EA7"/>
<path d="M81.592 310.032V310.688H90.168V310.032H81.592ZM81.992 311.904V312.528H89.864V311.904H81.992ZM81.448 313.84V314.512H90.296V313.84H81.448ZM85.416 308.656V314.192H86.152V308.656H85.416ZM88.52 315.648V322.24C88.52 322.416 88.472 322.48 88.264 322.48C88.056 322.496 87.416 322.496 86.6 322.464C86.728 322.672 86.824 322.96 86.872 323.152C87.848 323.152 88.472 323.152 88.824 323.04C89.16 322.912 89.256 322.688 89.256 322.224V315.648H88.52ZM82.872 317.744V318.384H88.968V317.744H82.872ZM82.872 319.84V320.464H88.968V319.84H82.872ZM82.504 315.648V318.64C82.504 319.952 82.392 321.616 81.432 322.896C81.608 322.976 81.88 323.248 81.976 323.408C83.048 322.048 83.24 320.096 83.24 318.64V315.648H82.504ZM82.92 315.648V316.304H88.84V315.648H82.92ZM76.136 313.328V314H80.712V313.328H76.136ZM76.632 317.664V318.352H79.96V321.536H76.632V322.224H80.664V317.664H76.632ZM76.264 317.664V323.008H76.968V317.664H76.264ZM76.152 315.504V316.176H80.744V315.504H76.152ZM75.784 311.376V312.064H81.224V311.376H75.784ZM77.816 308.896C78.12 309.568 78.472 310.464 78.616 311.04L79.304 310.768C79.144 310.208 78.792 309.328 78.456 308.672L77.816 308.896ZM99.784 312.64V313.28H104.232V312.64H99.784ZM98.856 316.896V317.552H101.448V316.896H98.856ZM98.792 319.264V319.92H101.4V319.264H98.792ZM103.08 314.896V320.64H103.704V314.896H103.08ZM101.208 314.608V322.224C101.208 322.384 101.16 322.416 101 322.432C100.856 322.432 100.344 322.448 99.736 322.432C99.848 322.608 99.944 322.896 99.976 323.072C100.744 323.072 101.208 323.072 101.496 322.944C101.784 322.832 101.864 322.624 101.864 322.224V314.608H101.208ZM105.016 314.368V322.144C105.016 322.336 104.952 322.384 104.776 322.4C104.568 322.4 103.944 322.4 103.16 322.384C103.272 322.576 103.368 322.848 103.4 323.024C104.36 323.024 104.92 323.024 105.256 322.912C105.576 322.784 105.672 322.576 105.672 322.144V314.368H105.016ZM101.928 308.544C101.048 310.224 99.416 311.872 97.72 312.784C97.896 312.912 98.12 313.152 98.248 313.312C99.992 312.304 101.656 310.592 102.6 308.784L101.928 308.544ZM102.184 309.12L101.576 309.344C102.728 311.104 104.152 312.288 105.816 313.296C105.944 313.072 106.168 312.848 106.344 312.704C104.728 311.808 103.288 310.736 102.184 309.12ZM98.776 314.608V315.264H101.384V314.608H98.776ZM98.472 314.608V317.968C98.472 319.408 98.36 321.296 97.496 322.704C97.656 322.8 97.896 323.04 98.008 323.168C98.968 321.632 99.128 319.536 99.128 317.984V314.608H98.472ZM91.928 310.464V311.184H97.624V310.464H91.928ZM91.768 319.632V320.336H97.672V319.632H91.768ZM94.488 308.656V312.976H95.176V308.656H94.488ZM94.52 312.896V317.664H94.472V323.168H95.192V317.664H95.144V312.896H94.52ZM92.968 315.696H96.648V317.552H92.968V315.696ZM92.968 313.232H96.648V315.072H92.968V313.232ZM92.296 312.576V318.208H97.304V312.576H92.296ZM110.616 309.68V310.448H115.144V309.68H110.616ZM114.744 309.68C114.744 312.528 115.16 319.152 121.736 323.136C121.88 322.96 122.2 322.656 122.376 322.528C115.832 318.608 115.512 312.416 115.512 309.68H114.744ZM114.424 312.592C113.368 317.296 111.336 320.592 107.656 322.544C107.864 322.704 108.216 323.008 108.36 323.168C112.008 321.04 114.104 317.712 115.272 312.752L114.424 312.592ZM131.395 322.224C132.611 322.224 133.427 321.808 134.115 321.376L133.747 320.688C133.107 321.136 132.403 321.424 131.491 321.424C129.635 321.424 128.403 319.968 128.371 317.904H134.419C134.451 317.68 134.467 317.456 134.467 317.232C134.467 314.736 133.219 313.264 131.155 313.264C129.235 313.264 127.411 314.976 127.411 317.76C127.411 320.56 129.187 322.224 131.395 322.224ZM128.355 317.168C128.547 315.2 129.779 314.048 131.171 314.048C132.659 314.048 133.603 315.104 133.603 317.168H128.355ZM136.001 317.984H139.937V317.2H136.001V317.984ZM142.209 322H143.153V315.616C144.049 314.608 144.865 314.096 145.617 314.096C146.865 314.096 147.457 314.912 147.457 316.672V322H148.369V315.616C149.297 314.608 150.081 314.096 150.833 314.096C152.097 314.096 152.689 314.912 152.689 316.672V322H153.617V316.544C153.617 314.352 152.753 313.264 151.057 313.264C150.065 313.264 149.137 313.936 148.177 314.976C147.873 313.936 147.185 313.264 145.825 313.264C144.849 313.264 143.905 313.92 143.137 314.784H143.105L142.993 313.472H142.209V322ZM158.566 322.224C159.67 322.224 160.694 321.616 161.542 320.928H161.59L161.686 322H162.47V316.592C162.47 314.704 161.734 313.264 159.702 313.264C158.31 313.264 157.126 313.92 156.486 314.368L156.886 315.056C157.494 314.608 158.454 314.064 159.59 314.064C161.206 314.064 161.558 315.376 161.526 316.64C157.766 317.072 156.086 317.968 156.086 319.856C156.086 321.44 157.206 322.224 158.566 322.224ZM158.758 321.424C157.814 321.424 157.03 320.976 157.03 319.808C157.03 318.512 158.166 317.712 161.526 317.344V320.112C160.534 320.976 159.702 321.424 158.758 321.424ZM165.428 322H166.372V313.472H165.428V322ZM165.908 311.472C166.34 311.472 166.644 311.184 166.644 310.688C166.644 310.256 166.34 309.952 165.908 309.952C165.476 309.952 165.172 310.256 165.172 310.688C165.172 311.184 165.476 311.472 165.908 311.472ZM170.673 322.224C170.977 322.224 171.137 322.176 171.313 322.128L171.169 321.376C170.993 321.408 170.929 321.408 170.849 321.408C170.625 321.408 170.481 321.232 170.481 320.832V309.296H169.537V320.736C169.537 321.728 169.905 322.224 170.673 322.224Z" fill="#48545D"/>
<rect x="60.5" y="430.5" width="159" height="49" stroke="#939EA7"/>
<path d="M81.592 450.032V450.688H90.168V450.032H81.592ZM81.992 451.904V452.528H89.864V451.904H81.992ZM81.448 453.84V454.512H90.296V453.84H81.448ZM85.416 448.656V454.192H86.152V448.656H85.416ZM88.52 455.648V462.24C88.52 462.416 88.472 462.48 88.264 462.48C88.056 462.496 87.416 462.496 86.6 462.464C86.728 462.672 86.824 462.96 86.872 463.152C87.848 463.152 88.472 463.152 88.824 463.04C89.16 462.912 89.256 462.688 89.256 462.224V455.648H88.52ZM82.872 457.744V458.384H88.968V457.744H82.872ZM82.872 459.84V460.464H88.968V459.84H82.872ZM82.504 455.648V458.64C82.504 459.952 82.392 461.616 81.432 462.896C81.608 462.976 81.88 463.248 81.976 463.408C83.048 462.048 83.24 460.096 83.24 458.64V455.648H82.504ZM82.92 455.648V456.304H88.84V455.648H82.92ZM76.136 453.328V454H80.712V453.328H76.136ZM76.632 457.664V458.352H79.96V461.536H76.632V462.224H80.664V457.664H76.632ZM76.264 457.664V463.008H76.968V457.664H76.264ZM76.152 455.504V456.176H80.744V455.504H76.152ZM75.784 451.376V452.064H81.224V451.376H75.784ZM77.816 448.896C78.12 449.568 78.472 450.464 78.616 451.04L79.304 450.768C79.144 450.208 78.792 449.328 78.456 448.672L77.816 448.896ZM99.784 452.64V453.28H104.232V452.64H99.784ZM98.856 456.896V457.552H101.448V456.896H98.856ZM98.792 459.264V459.92H101.4V459.264H98.792ZM103.08 454.896V460.64H103.704V454.896H103.08ZM101.208 454.608V462.224C101.208 462.384 101.16 462.416 101 462.432C100.856 462.432 100.344 462.448 99.736 462.432C99.848 462.608 99.944 462.896 99.976 463.072C100.744 463.072 101.208 463.072 101.496 462.944C101.784 462.832 101.864 462.624 101.864 462.224V454.608H101.208ZM105.016 454.368V462.144C105.016 462.336 104.952 462.384 104.776 462.4C104.568 462.4 103.944 462.4 103.16 462.384C103.272 462.576 103.368 462.848 103.4 463.024C104.36 463.024 104.92 463.024 105.256 462.912C105.576 462.784 105.672 462.576 105.672 462.144V454.368H105.016ZM101.928 448.544C101.048 450.224 99.416 451.872 97.72 452.784C97.896 452.912 98.12 453.152 98.248 453.312C99.992 452.304 101.656 450.592 102.6 448.784L101.928 448.544ZM102.184 449.12L101.576 449.344C102.728 451.104 104.152 452.288 105.816 453.296C105.944 453.072 106.168 452.848 106.344 452.704C104.728 451.808 103.288 450.736 102.184 449.12ZM98.776 454.608V455.264H101.384V454.608H98.776ZM98.472 454.608V457.968C98.472 459.408 98.36 461.296 97.496 462.704C97.656 462.8 97.896 463.04 98.008 463.168C98.968 461.632 99.128 459.536 99.128 457.984V454.608H98.472ZM91.928 450.464V451.184H97.624V450.464H91.928ZM91.768 459.632V460.336H97.672V459.632H91.768ZM94.488 448.656V452.976H95.176V448.656H94.488ZM94.52 452.896V457.664H94.472V463.168H95.192V457.664H95.144V452.896H94.52ZM92.968 455.696H96.648V457.552H92.968V455.696ZM92.968 453.232H96.648V455.072H92.968V453.232ZM92.296 452.576V458.208H97.304V452.576H92.296ZM110.616 449.68V450.448H115.144V449.68H110.616ZM114.744 449.68C114.744 452.528 115.16 459.152 121.736 463.136C121.88 462.96 122.2 462.656 122.376 462.528C115.832 458.608 115.512 452.416 115.512 449.68H114.744ZM114.424 452.592C113.368 457.296 111.336 460.592 107.656 462.544C107.864 462.704 108.216 463.008 108.36 463.168C112.008 461.04 114.104 457.712 115.272 452.752L114.424 452.592ZM126.072 458.32V458.928H135.96V458.32H126.072ZM126.12 456.352V456.992H135.656V460.272H126.12V460.912H136.408V456.352H126.12ZM130.536 456.624V461.648C130.536 462.752 131 462.976 132.552 462.976C132.904 462.976 136.104 462.976 136.472 462.976C137.848 462.976 138.12 462.48 138.248 460.528C138.024 460.496 137.72 460.368 137.544 460.24C137.464 462.016 137.32 462.304 136.44 462.304C135.768 462.304 133.048 462.304 132.536 462.304C131.496 462.304 131.304 462.176 131.304 461.664V456.624H130.536ZM125.704 456.352V461.808H126.44V456.352H125.704ZM125.064 449.328V449.952H136.92V449.328H125.064ZM130.552 449.504V455.664H131.32V449.504H130.552ZM124.36 451.2V454.544H125.128V451.824H136.856V454.544H137.64V451.2H124.36ZM125.64 454.928L125.928 455.616C126.984 455.424 128.216 455.2 129.48 454.96L129.464 454.384C128.04 454.608 126.664 454.816 125.64 454.928ZM125.976 452.816C127.112 453.04 128.536 453.472 129.288 453.824L129.544 453.28C128.792 452.928 127.368 452.544 126.248 452.336L125.976 452.816ZM135.624 452.288C134.808 452.608 133.368 453.104 132.392 453.344L132.712 453.792C133.704 453.584 135.08 453.216 136.024 452.816L135.624 452.288ZM132.216 454.864C133.496 455.04 135.112 455.408 136.008 455.728L136.216 455.12C135.32 454.8 133.72 454.464 132.456 454.32L132.216 454.864ZM152.76 448.784C151.256 449.408 148.408 449.952 146.056 450.304C146.136 450.48 146.248 450.752 146.28 450.928C148.68 450.608 151.56 450.08 153.32 449.392L152.76 448.784ZM146.088 453.648V454.4H154.216V453.648H146.088ZM146.632 457.344V463.184H147.384V458.08H152.6V463.12H153.336V457.344H146.632ZM147.048 461.776V462.496H152.984V461.776H147.048ZM149.64 449.936V457.824H150.376V449.936H149.64ZM140.376 453.472V454.128H144.92V453.472H140.376ZM140.376 455.536V456.192H144.92V455.536H140.376ZM139.736 451.408V452.096H145.448V451.408H139.736ZM140.728 457.616V458.32H144.296V461.488H140.728V462.176H145.032V457.616H140.728ZM140.392 457.616V462.976H141.096V457.616H140.392ZM141.592 448.928C142.04 449.568 142.568 450.448 142.824 451.008L143.464 450.608C143.208 450.064 142.68 449.232 142.184 448.592L141.592 448.928Z" fill="#48545D"/>
<rect x="240" y="430" width="130" height="50" fill="#EEEEEE"/>
<path d="M261.592 450.032V450.688H270.168V450.032H261.592ZM261.992 451.904V452.528H269.864V451.904H261.992ZM261.448 453.84V454.512H270.296V453.84H261.448ZM265.416 448.656V454.192H266.152V448.656H265.416ZM268.52 455.648V462.24C268.52 462.416 268.472 462.48 268.264 462.48C268.056 462.496 267.416 462.496 266.6 462.464C266.728 462.672 266.824 462.96 266.872 463.152C267.848 463.152 268.472 463.152 268.824 463.04C269.16 462.912 269.256 462.688 269.256 462.224V455.648H268.52ZM262.872 457.744V458.384H268.968V457.744H262.872ZM262.872 459.84V460.464H268.968V459.84H262.872ZM262.504 455.648V458.64C262.504 459.952 262.392 461.616 261.432 462.896C261.608 462.976 261.88 463.248 261.976 463.408C263.048 462.048 263.24 460.096 263.24 458.64V455.648H262.504ZM262.92 455.648V456.304H268.84V455.648H262.92ZM256.136 453.328V454H260.712V453.328H256.136ZM256.632 457.664V458.352H259.96V461.536H256.632V462.224H260.664V457.664H256.632ZM256.264 457.664V463.008H256.968V457.664H256.264ZM256.152 455.504V456.176H260.744V455.504H256.152ZM255.784 451.376V452.064H261.224V451.376H255.784ZM257.816 448.896C258.12 449.568 258.472 450.464 258.616 451.04L259.304 450.768C259.144 450.208 258.792 449.328 258.456 448.672L257.816 448.896ZM276.28 455.584V456.224H285.64V455.584H276.28ZM275.56 458.016V458.672H286.12V458.016H275.56ZM278.68 454.24V458.368H279.416V454.24H278.68ZM282.36 454.24V458.368H283.08V454.24H282.36ZM281.848 459.344C283.16 459.952 284.456 460.736 285.208 461.408L285.88 460.992C285.064 460.336 283.672 459.568 282.392 458.976L281.848 459.344ZM279.192 458.96C278.392 459.696 277.112 460.432 275.96 460.928C276.168 461.04 276.456 461.296 276.6 461.44C277.704 460.896 279.032 460.032 279.912 459.2L279.192 458.96ZM276.536 449.344V449.952H279.688V451.232H276.536V451.856H280.376V449.344H276.536ZM281.672 449.36V449.968H284.856V451.248H281.672V451.872H285.576V449.36H281.672ZM281.352 449.36V452.688C281.352 453.6 281.576 453.904 282.472 453.904C282.696 453.904 284.6 453.904 284.984 453.904C285.416 453.904 285.832 453.888 286.04 453.84C286.008 453.68 285.976 453.424 285.96 453.232C285.704 453.28 285.24 453.296 284.952 453.296C284.616 453.296 282.84 453.296 282.488 453.296C282.104 453.296 282.024 453.168 282.024 452.704V449.36H281.352ZM276.2 454.288C276.44 454.144 276.872 454.032 280.616 453.328C280.6 453.184 280.584 452.944 280.6 452.752L276.584 453.424L276.184 453.712L276.2 454.288ZM276.2 454.288C276.2 454 276.904 453.584 276.904 453.584V449.344H276.232V452.752C276.232 453.344 276.024 453.504 275.864 453.584C275.976 453.776 276.136 454.096 276.2 454.288ZM272.2 449.136C272.904 449.92 273.768 451.024 274.184 451.68L274.808 451.264C274.376 450.624 273.512 449.584 272.792 448.8L272.2 449.136ZM271.8 452.336V453.024H274.696V452.336H271.8ZM274.28 459.888L273.768 460.176C274.984 462.576 277.176 462.976 281 462.976C282.696 462.976 284.728 462.944 286.152 462.848C286.2 462.64 286.28 462.256 286.424 462.064C284.872 462.192 282.68 462.256 280.984 462.256C277.592 462.256 275.352 461.952 274.28 459.888ZM274.648 456.384V456.544C274.232 459.488 273.096 461.568 271.56 462.688C271.736 462.8 271.976 463.072 272.104 463.248C273.688 462.016 274.904 459.808 275.4 456.512L274.984 456.368L274.84 456.384H274.648ZM271.992 457.264C272.104 457.168 272.504 457.056 272.888 457.056H274.856V456.384H272.504L271.992 456.624V457.264ZM271.992 457.264C271.992 457.024 272.68 456.688 272.68 456.688C273.432 455.696 274.68 453.552 275.304 452.48L274.728 452.256L274.456 452.368V452.416C274.04 453.232 272.744 455.552 272.328 456.032C272.12 456.32 271.864 456.416 271.656 456.48C271.752 456.656 271.944 457.056 271.992 457.264ZM299.048 449.904H301.048V451.968H299.048V449.904ZM296.408 449.904H298.392V451.968H296.408V449.904ZM293.864 449.904H295.736V451.968H293.864V449.904ZM293.176 449.28V452.608H301.736V449.28H293.176ZM293.352 453.728V454.4H301.368V453.728H293.352ZM292.616 455.76V456.432H301.928V455.76H292.616ZM292.936 458.144V458.816H301.608V458.144H292.936ZM292.44 460.208V460.864H302.152V460.208H292.44ZM296.952 452.368V456H297.704V452.368H296.952ZM296.952 458.384V463.184H297.704V458.384H296.952ZM294.6 456.64C294.904 457.136 295.208 457.824 295.32 458.272L296.008 458.032C295.896 457.6 295.56 456.944 295.272 456.464L294.6 456.64ZM299.4 456.432C299.208 456.976 298.792 457.808 298.488 458.336L299.08 458.544C299.432 458.064 299.816 457.328 300.168 456.656L299.4 456.432ZM287.672 457.072L287.912 457.824C289.16 457.392 290.776 456.8 292.328 456.208L292.232 455.488C290.536 456.096 288.808 456.688 287.672 457.072ZM287.8 452V452.736H292.392V452H287.8ZM289.896 448.672V462.08C289.896 462.288 289.816 462.352 289.624 462.368C289.432 462.368 288.776 462.384 288.008 462.352C288.12 462.576 288.232 462.896 288.264 463.104C289.272 463.104 289.832 463.088 290.152 462.944C290.504 462.832 290.648 462.576 290.648 462.064V448.672H289.896Z" fill="#48545D"/>
<path d="M339.982 452.8H350.032C350.728 452.8 351.075 453.64 350.583 454.132L345.56 459.159C345.255 459.464 344.759 459.464 344.454 459.159L339.431 454.132C338.939 453.64 339.286 452.8 339.982 452.8V452.8Z" fill="black"/>
<rect x="60" y="360" width="310" height="50" fill="#EEEEEE"/>
<path d="M81.592 380.032V380.688H90.168V380.032H81.592ZM81.992 381.904V382.528H89.864V381.904H81.992ZM81.448 383.84V384.512H90.296V383.84H81.448ZM85.416 378.656V384.192H86.152V378.656H85.416ZM88.52 385.648V392.24C88.52 392.416 88.472 392.48 88.264 392.48C88.056 392.496 87.416 392.496 86.6 392.464C86.728 392.672 86.824 392.96 86.872 393.152C87.848 393.152 88.472 393.152 88.824 393.04C89.16 392.912 89.256 392.688 89.256 392.224V385.648H88.52ZM82.872 387.744V388.384H88.968V387.744H82.872ZM82.872 389.84V390.464H88.968V389.84H82.872ZM82.504 385.648V388.64C82.504 389.952 82.392 391.616 81.432 392.896C81.608 392.976 81.88 393.248 81.976 393.408C83.048 392.048 83.24 390.096 83.24 388.64V385.648H82.504ZM82.92 385.648V386.304H88.84V385.648H82.92ZM76.136 383.328V384H80.712V383.328H76.136ZM76.632 387.664V388.352H79.96V391.536H76.632V392.224H80.664V387.664H76.632ZM76.264 387.664V393.008H76.968V387.664H76.264ZM76.152 385.504V386.176H80.744V385.504H76.152ZM75.784 381.376V382.064H81.224V381.376H75.784ZM77.816 378.896C78.12 379.568 78.472 380.464 78.616 381.04L79.304 380.768C79.144 380.208 78.792 379.328 78.456 378.672L77.816 378.896ZM99.784 382.64V383.28H104.232V382.64H99.784ZM98.856 386.896V387.552H101.448V386.896H98.856ZM98.792 389.264V389.92H101.4V389.264H98.792ZM103.08 384.896V390.64H103.704V384.896H103.08ZM101.208 384.608V392.224C101.208 392.384 101.16 392.416 101 392.432C100.856 392.432 100.344 392.448 99.736 392.432C99.848 392.608 99.944 392.896 99.976 393.072C100.744 393.072 101.208 393.072 101.496 392.944C101.784 392.832 101.864 392.624 101.864 392.224V384.608H101.208ZM105.016 384.368V392.144C105.016 392.336 104.952 392.384 104.776 392.4C104.568 392.4 103.944 392.4 103.16 392.384C103.272 392.576 103.368 392.848 103.4 393.024C104.36 393.024 104.92 393.024 105.256 392.912C105.576 392.784 105.672 392.576 105.672 392.144V384.368H105.016ZM101.928 378.544C101.048 380.224 99.416 381.872 97.72 382.784C97.896 382.912 98.12 383.152 98.248 383.312C99.992 382.304 101.656 380.592 102.6 378.784L101.928 378.544ZM102.184 379.12L101.576 379.344C102.728 381.104 104.152 382.288 105.816 383.296C105.944 383.072 106.168 382.848 106.344 382.704C104.728 381.808 103.288 380.736 102.184 379.12ZM98.776 384.608V385.264H101.384V384.608H98.776ZM98.472 384.608V387.968C98.472 389.408 98.36 391.296 97.496 392.704C97.656 392.8 97.896 393.04 98.008 393.168C98.968 391.632 99.128 389.536 99.128 387.984V384.608H98.472ZM91.928 380.464V381.184H97.624V380.464H91.928ZM91.768 389.632V390.336H97.672V389.632H91.768ZM94.488 378.656V382.976H95.176V378.656H94.488ZM94.52 382.896V387.664H94.472V393.168H95.192V387.664H95.144V382.896H94.52ZM92.968 385.696H96.648V387.552H92.968V385.696ZM92.968 383.232H96.648V385.072H92.968V383.232ZM92.296 382.576V388.208H97.304V382.576H92.296ZM110.616 379.68V380.448H115.144V379.68H110.616ZM114.744 379.68C114.744 382.528 115.16 389.152 121.736 393.136C121.88 392.96 122.2 392.656 122.376 392.528C115.832 388.608 115.512 382.416 115.512 379.68H114.744ZM114.424 382.592C113.368 387.296 111.336 390.592 107.656 392.544C107.864 392.704 108.216 393.008 108.36 393.168C112.008 391.04 114.104 387.712 115.272 382.752L114.424 382.592ZM123.896 382.592V383.328H128.584V382.592H123.896ZM125.96 378.816V389.072H126.712V378.816H125.96ZM123.64 389.664L123.944 390.416C125.32 389.84 127.112 389.056 128.824 388.288L128.664 387.584C126.808 388.368 124.904 389.184 123.64 389.664ZM133.32 378.656V389.712H134.056V378.656H133.32ZM128.12 385.36L128.424 386.048L137.24 382.32L136.936 381.648L128.12 385.36ZM129.928 380.112V391.008C129.928 392.464 130.424 392.816 132.056 392.816C132.408 392.816 135.928 392.816 136.312 392.816C137.864 392.816 138.136 392.128 138.296 389.968C138.072 389.936 137.768 389.808 137.576 389.664C137.464 391.616 137.304 392.096 136.328 392.096C135.592 392.096 132.584 392.096 132.024 392.096C130.904 392.096 130.68 391.872 130.68 391.024V380.112H129.928ZM136.712 382.016C136.568 384.208 136.264 387.136 135.912 388.848L136.552 389.04C136.984 387.28 137.288 384.304 137.48 382.016L137.528 381.856L136.936 381.648L136.536 382.016H136.712ZM149.928 384.32V385.088H154.104V384.32H149.928ZM143.976 391.888V392.624H154.296V391.888H143.976ZM149.64 378.768V392.24H150.424V378.768H149.64ZM146.104 382.144V392.192H146.856V382.144H146.104ZM139.8 382.592V383.328H145.112V382.592H139.8ZM142.136 378.848V388.96H142.872V378.848H142.136ZM139.64 389.664L139.944 390.416C141.416 389.808 143.432 388.944 145.304 388.128L145.16 387.44C143.144 388.272 141.032 389.136 139.64 389.664Z" fill="#48545D"/>
<rect x="60" y="409" width="310" height="1" fill="#939EA7"/>
</svg>
