<svg width="232" height="110" viewBox="0 0 232 110" fill="none" xmlns="http://www.w3.org/2000/svg">
<rect x="40" y="40" width="152" height="30" fill="#48545D"/>
<path d="M75.618 54.546V55.568H83.626V54.546H75.618ZM83.276 54.546V54.742C83.094 58.9 82.884 60.496 82.506 60.874C82.366 61.028 82.198 61.056 81.918 61.056C81.582 61.056 80.714 61.042 79.79 60.958C79.986 61.266 80.126 61.7 80.14 62.022C81.022 62.064 81.904 62.078 82.366 62.036C82.856 61.994 83.164 61.896 83.444 61.546C83.948 61.014 84.144 59.39 84.34 55.05C84.354 54.91 84.368 54.546 84.368 54.546H83.276ZM78.572 54.826C78.292 57.472 77.732 60.062 74.064 61.28C74.302 61.504 74.61 61.924 74.736 62.19C78.642 60.79 79.37 57.892 79.692 54.826H78.572ZM77.116 49.702C76.444 51.9 75.156 53.776 73.49 54.938C73.742 55.12 74.19 55.498 74.372 55.708C76.024 54.406 77.424 52.39 78.208 49.968L77.116 49.702ZM79.314 49.492V50.472H82.38V49.492H79.314ZM81.372 49.492V50.08H81.666C82.436 52.334 83.962 54.49 85.824 55.68C86.006 55.4 86.356 54.966 86.58 54.742C84.788 53.734 83.276 51.69 82.562 49.492H81.372ZM87.756 58.508V59.432H100.258V58.508H87.756ZM89.072 55.96V56.814H97.906V55.96H89.072ZM93.426 57.668V61.028C93.426 61.224 93.342 61.28 93.09 61.294C92.852 61.308 91.886 61.308 90.934 61.28C91.074 61.532 91.242 61.882 91.298 62.148C92.558 62.148 93.37 62.162 93.86 62.022C94.35 61.882 94.518 61.63 94.518 61.056V57.668H93.426ZM97.668 55.96V56.17C96.744 56.73 94.952 57.332 93.426 57.668C93.58 57.822 93.832 58.088 93.958 58.284C95.68 57.906 97.556 57.262 98.9 56.506L98.186 55.904L97.962 55.96H97.668ZM90.696 53.062H97.318V54.322H90.696V53.062ZM89.66 52.278V55.106H98.41V52.278H89.66ZM87.882 50.472V51.382H100.076V50.472H87.882ZM93.034 49.352C93.314 49.898 93.608 50.626 93.734 51.088L94.826 50.85C94.714 50.388 94.392 49.674 94.084 49.142L93.034 49.352ZM102.064 50.024V51.018H113.824V50.024H102.064ZM102.988 57.01V58.004H113.096V57.01H102.988ZM101.756 60.594V61.574H114.272V60.594H101.756ZM107.426 55.204V61.238H108.518V55.204H107.426ZM109.302 52.18C110.59 53.16 112.13 54.588 112.83 55.526L113.74 54.882C112.97 53.93 111.402 52.572 110.128 51.62L109.302 52.18ZM103.044 55.092C103.044 54.854 103.856 54.532 103.856 54.532V54.518C105.032 53.566 106.306 52.166 107.454 50.64L106.292 50.304C105.382 51.69 104.08 53.034 103.674 53.398C103.296 53.762 102.974 54 102.694 54.042C102.806 54.322 102.988 54.854 103.044 55.092ZM103.044 55.092C103.562 54.91 104.346 54.882 112.27 54.504C112.214 54.294 112.116 53.888 112.088 53.608L103.786 53.944L103.03 54.322L103.044 55.092ZM119.531 61H120.833V56.394H124.739V55.316H120.833V51.83H125.439V50.738H119.531V61ZM128.333 61.196C129.271 61.196 130.125 60.706 130.839 60.104H130.895L131.007 61H132.057V56.338C132.057 54.448 131.273 53.216 129.411 53.216C128.193 53.216 127.129 53.748 126.429 54.196L126.933 55.092C127.521 54.686 128.319 54.266 129.215 54.266C130.461 54.266 130.769 55.204 130.769 56.184C127.535 56.548 126.107 57.374 126.107 59.026C126.107 60.398 127.059 61.196 128.333 61.196ZM128.683 60.16C127.941 60.16 127.353 59.81 127.353 58.942C127.353 57.962 128.207 57.332 130.769 57.038V59.152C130.041 59.81 129.425 60.16 128.683 60.16ZM137.454 61.196C138.364 61.196 139.246 60.832 139.918 60.23L139.372 59.376C138.896 59.796 138.266 60.132 137.58 60.132C136.18 60.132 135.214 58.956 135.214 57.22C135.214 55.456 136.222 54.28 137.622 54.28C138.21 54.28 138.686 54.546 139.134 54.952L139.778 54.112C139.246 53.622 138.546 53.216 137.552 53.216C135.606 53.216 133.898 54.672 133.898 57.22C133.898 59.726 135.438 61.196 137.454 61.196ZM144.305 61.196C145.341 61.196 146.139 60.846 146.811 60.412L146.349 59.558C145.789 59.936 145.187 60.174 144.459 60.174C143.003 60.174 142.023 59.124 141.925 57.514H147.049C147.091 57.318 147.105 57.052 147.105 56.786C147.105 54.602 146.013 53.216 144.081 53.216C142.331 53.216 140.665 54.742 140.665 57.22C140.665 59.712 142.275 61.196 144.305 61.196ZM141.911 56.59C142.079 55.092 143.031 54.238 144.095 54.238C145.299 54.238 145.985 55.064 145.985 56.59H141.911ZM152.323 61.196C154.073 61.196 155.627 59.684 155.627 57.08C155.627 54.742 154.563 53.216 152.603 53.216C151.749 53.216 150.909 53.678 150.209 54.28L150.265 52.908V49.87H148.991V61H149.999L150.125 60.216H150.167C150.825 60.832 151.623 61.196 152.323 61.196ZM152.127 60.118C151.623 60.118 150.923 59.908 150.265 59.334V55.33C150.979 54.644 151.651 54.28 152.295 54.28C153.737 54.28 154.311 55.414 154.311 57.108C154.311 58.984 153.373 60.118 152.127 60.118ZM160.599 61.196C162.461 61.196 164.113 59.726 164.113 57.22C164.113 54.672 162.461 53.216 160.599 53.216C158.723 53.216 157.071 54.672 157.071 57.22C157.071 59.726 158.723 61.196 160.599 61.196ZM160.599 60.132C159.269 60.132 158.387 58.956 158.387 57.22C158.387 55.456 159.269 54.28 160.599 54.28C161.915 54.28 162.797 55.456 162.797 57.22C162.797 58.956 161.915 60.132 160.599 60.132ZM169.09 61.196C170.952 61.196 172.604 59.726 172.604 57.22C172.604 54.672 170.952 53.216 169.09 53.216C167.214 53.216 165.562 54.672 165.562 57.22C165.562 59.726 167.214 61.196 169.09 61.196ZM169.09 60.132C167.76 60.132 166.878 58.956 166.878 57.22C166.878 55.456 167.76 54.28 169.09 54.28C170.406 54.28 171.288 55.456 171.288 57.22C171.288 58.956 170.406 60.132 169.09 60.132ZM174.626 61H175.886V58.998L177.3 57.332L179.526 61H180.912L178.056 56.464L180.59 53.398H179.162L175.928 57.416H175.886V49.87H174.626V61Z" fill="white"/>
<path d="M67.7188 55C67.7188 59.8153 63.8153 63.7188 59 63.7188C54.1847 63.7188 50.2812 59.8153 50.2812 55C50.2812 50.1847 54.1847 46.2812 59 46.2812C63.8153 46.2812 67.7188 50.1847 67.7188 55ZM57.9915 59.6165L64.4603 53.1477C64.6799 52.9281 64.6799 52.5719 64.4603 52.3523L63.6648 51.5568C63.4451 51.3371 63.0889 51.3371 62.8693 51.5568L57.5938 56.8322L55.1308 54.3692C54.9111 54.1496 54.5549 54.1496 54.3352 54.3692L53.5398 55.1647C53.3201 55.3843 53.3201 55.7405 53.5398 55.9602L57.196 59.6164C57.4157 59.8361 57.7719 59.8361 57.9915 59.6165L57.9915 59.6165Z" fill="white"/>
</svg>
