<svg width="180" height="180" viewBox="0 0 180 180" fill="none" xmlns="http://www.w3.org/2000/svg">
<rect x="25" y="119" width="129" height="30" fill="#48545D"/>
<path d="M37.618 133.546V134.568H45.626V133.546H37.618ZM45.276 133.546V133.742C45.094 137.9 44.884 139.496 44.506 139.874C44.366 140.028 44.198 140.056 43.918 140.056C43.582 140.056 42.714 140.042 41.79 139.958C41.986 140.266 42.126 140.7 42.14 141.022C43.022 141.064 43.904 141.078 44.366 141.036C44.856 140.994 45.164 140.896 45.444 140.546C45.948 140.014 46.144 138.39 46.34 134.05C46.354 133.91 46.368 133.546 46.368 133.546H45.276ZM40.572 133.826C40.292 136.472 39.732 139.062 36.064 140.28C36.302 140.504 36.61 140.924 36.736 141.19C40.642 139.79 41.37 136.892 41.692 133.826H40.572ZM39.116 128.702C38.444 130.9 37.156 132.776 35.49 133.938C35.742 134.12 36.19 134.498 36.372 134.708C38.024 133.406 39.424 131.39 40.208 128.968L39.116 128.702ZM41.314 128.492V129.472H44.38V128.492H41.314ZM43.372 128.492V129.08H43.666C44.436 131.334 45.962 133.49 47.824 134.68C48.006 134.4 48.356 133.966 48.58 133.742C46.788 132.734 45.276 130.69 44.562 128.492H43.372ZM49.756 137.508V138.432H62.258V137.508H49.756ZM51.072 134.96V135.814H59.906V134.96H51.072ZM55.426 136.668V140.028C55.426 140.224 55.342 140.28 55.09 140.294C54.852 140.308 53.886 140.308 52.934 140.28C53.074 140.532 53.242 140.882 53.298 141.148C54.558 141.148 55.37 141.162 55.86 141.022C56.35 140.882 56.518 140.63 56.518 140.056V136.668H55.426ZM59.668 134.96V135.17C58.744 135.73 56.952 136.332 55.426 136.668C55.58 136.822 55.832 137.088 55.958 137.284C57.68 136.906 59.556 136.262 60.9 135.506L60.186 134.904L59.962 134.96H59.668ZM52.696 132.062H59.318V133.322H52.696V132.062ZM51.66 131.278V134.106H60.41V131.278H51.66ZM49.882 129.472V130.382H62.076V129.472H49.882ZM55.034 128.352C55.314 128.898 55.608 129.626 55.734 130.088L56.826 129.85C56.714 129.388 56.392 128.674 56.084 128.142L55.034 128.352ZM64.064 129.024V130.018H75.824V129.024H64.064ZM64.988 136.01V137.004H75.096V136.01H64.988ZM63.756 139.594V140.574H76.272V139.594H63.756ZM69.426 134.204V140.238H70.518V134.204H69.426ZM71.302 131.18C72.59 132.16 74.13 133.588 74.83 134.526L75.74 133.882C74.97 132.93 73.402 131.572 72.128 130.62L71.302 131.18ZM65.044 134.092C65.044 133.854 65.856 133.532 65.856 133.532V133.518C67.032 132.566 68.306 131.166 69.454 129.64L68.292 129.304C67.382 130.69 66.08 132.034 65.674 132.398C65.296 132.762 64.974 133 64.694 133.042C64.806 133.322 64.988 133.854 65.044 134.092ZM65.044 134.092C65.562 133.91 66.346 133.882 74.27 133.504C74.214 133.294 74.116 132.888 74.088 132.608L65.786 132.944L65.03 133.322L65.044 134.092ZM81.5309 140H82.8329V135.394H86.7389V134.316H82.8329V130.83H87.4389V129.738H81.5309V140ZM90.3329 140.196C91.2709 140.196 92.1249 139.706 92.8389 139.104H92.8949L93.0069 140H94.0569V135.338C94.0569 133.448 93.2729 132.216 91.4109 132.216C90.1929 132.216 89.1289 132.748 88.4289 133.196L88.9329 134.092C89.5209 133.686 90.3189 133.266 91.2149 133.266C92.4609 133.266 92.7689 134.204 92.7689 135.184C89.5349 135.548 88.1069 136.374 88.1069 138.026C88.1069 139.398 89.0589 140.196 90.3329 140.196ZM90.6829 139.16C89.9409 139.16 89.3529 138.81 89.3529 137.942C89.3529 136.962 90.2069 136.332 92.7689 136.038V138.152C92.0409 138.81 91.4249 139.16 90.6829 139.16ZM99.4536 140.196C100.364 140.196 101.246 139.832 101.918 139.23L101.372 138.376C100.896 138.796 100.266 139.132 99.5796 139.132C98.1796 139.132 97.2136 137.956 97.2136 136.22C97.2136 134.456 98.2216 133.28 99.6216 133.28C100.21 133.28 100.686 133.546 101.134 133.952L101.778 133.112C101.246 132.622 100.546 132.216 99.5516 132.216C97.6056 132.216 95.8976 133.672 95.8976 136.22C95.8976 138.726 97.4376 140.196 99.4536 140.196ZM106.305 140.196C107.341 140.196 108.139 139.846 108.811 139.412L108.349 138.558C107.789 138.936 107.187 139.174 106.459 139.174C105.003 139.174 104.023 138.124 103.925 136.514H109.049C109.091 136.318 109.105 136.052 109.105 135.786C109.105 133.602 108.013 132.216 106.081 132.216C104.331 132.216 102.665 133.742 102.665 136.22C102.665 138.712 104.275 140.196 106.305 140.196ZM103.911 135.59C104.079 134.092 105.031 133.238 106.095 133.238C107.299 133.238 107.985 134.064 107.985 135.59H103.911ZM114.323 140.196C116.073 140.196 117.627 138.684 117.627 136.08C117.627 133.742 116.563 132.216 114.603 132.216C113.749 132.216 112.909 132.678 112.209 133.28L112.265 131.908V128.87H110.991V140H111.999L112.125 139.216H112.167C112.825 139.832 113.623 140.196 114.323 140.196ZM114.127 139.118C113.623 139.118 112.923 138.908 112.265 138.334V134.33C112.979 133.644 113.651 133.28 114.295 133.28C115.737 133.28 116.311 134.414 116.311 136.108C116.311 137.984 115.373 139.118 114.127 139.118ZM122.599 140.196C124.461 140.196 126.113 138.726 126.113 136.22C126.113 133.672 124.461 132.216 122.599 132.216C120.723 132.216 119.071 133.672 119.071 136.22C119.071 138.726 120.723 140.196 122.599 140.196ZM122.599 139.132C121.269 139.132 120.387 137.956 120.387 136.22C120.387 134.456 121.269 133.28 122.599 133.28C123.915 133.28 124.797 134.456 124.797 136.22C124.797 137.956 123.915 139.132 122.599 139.132ZM131.09 140.196C132.952 140.196 134.604 138.726 134.604 136.22C134.604 133.672 132.952 132.216 131.09 132.216C129.214 132.216 127.562 133.672 127.562 136.22C127.562 138.726 129.214 140.196 131.09 140.196ZM131.09 139.132C129.76 139.132 128.878 137.956 128.878 136.22C128.878 134.456 129.76 133.28 131.09 133.28C132.406 133.28 133.288 134.456 133.288 136.22C133.288 137.956 132.406 139.132 131.09 139.132ZM136.626 140H137.886V137.998L139.3 136.332L141.526 140H142.912L140.056 135.464L142.59 132.398H141.162L137.928 136.416H137.886V128.87H136.626V140Z" fill="white"/>
<circle cx="89" cy="90" r="23.5" fill="white" stroke="#EEEEEE"/>
<path d="M89 81C84.0294 81 80 85.0294 80 90C80 94.4921 83.2912 98.2155 87.5938 98.8907V92.6016H85.3086V90H87.5938V88.0172C87.5938 85.7616 88.9374 84.5156 90.9932 84.5156C91.9776 84.5156 93.0078 84.6914 93.0078 84.6914V86.9062H91.873C90.755 86.9062 90.4062 87.6001 90.4062 88.3125V90H92.9023L92.5033 92.6016H90.4062V98.8907C94.7088 98.2155 98 94.4921 98 90C98 85.0294 93.9706 81 89 81Z" fill="#6B7780"/>
</svg>
