<svg width="180" height="180" viewBox="0 0 180 180" fill="none" xmlns="http://www.w3.org/2000/svg">
<rect x="77" y="75" width="76" height="30" fill="#48545D"/>
<path d="M94.686 86.97V87.964H100.37V86.97H94.686ZM95.078 84.24C94.672 86.69 93.93 88.972 92.726 90.4C92.95 90.596 93.328 91.058 93.482 91.282C94.798 89.63 95.666 87.138 96.142 84.422L95.078 84.24ZM98.354 87.474C97.696 91.842 96.226 94.698 92.964 96.28C93.188 96.49 93.51 96.924 93.636 97.148C97.024 95.314 98.606 92.304 99.39 87.614L98.354 87.474ZM95.078 87.852L94.21 88.048C95.148 92.094 96.87 95.482 99.754 97.064C99.922 96.798 100.258 96.42 100.496 96.21C97.682 94.824 95.932 91.576 95.078 87.852ZM91.522 84.45V97.134H92.572V84.45H91.522ZM88.288 94.6C88.582 94.376 89.03 94.138 92.264 92.99C92.18 92.766 92.054 92.36 92.012 92.08L88.652 93.172L88.176 93.606L88.288 94.6ZM88.288 94.6C88.288 94.222 89.366 93.634 89.366 93.634V85.808H88.344V92.696C88.344 93.242 88.05 93.522 87.854 93.648C88.008 93.872 88.204 94.348 88.288 94.6ZM104.654 87.642V88.552H114.328V87.642H104.654ZM101.574 92.136V93.018H104.5V92.136H101.574ZM106.166 94.768V95.496H110.086V94.768H106.166ZM107.748 89.812V91.506H108.504V89.812H107.748ZM107.748 93.382V95.09H108.504V93.382H107.748ZM106.25 91.128V91.828H109.19V93.06H106.25V93.746H109.96V91.128H106.25ZM105.788 89.42V95.496H106.586V90.148H109.96V89.42H105.788ZM104.178 87.642V91.506C104.178 93.102 104.094 95.202 103.268 96.7C103.492 96.784 103.898 97.008 104.066 97.162C104.934 95.58 105.074 93.228 105.074 91.52V87.642H104.178ZM110.38 86.718C110.562 93.424 111.556 97.148 113.208 97.148C114.006 97.148 114.342 96.798 114.496 94.922C114.258 94.838 113.95 94.642 113.754 94.446C113.684 95.818 113.558 96.196 113.278 96.21C112.438 96.21 111.374 93.13 111.332 86.718H110.38ZM111.794 86.746C112.298 87.054 112.872 87.516 113.138 87.866L113.796 87.334C113.516 86.998 112.914 86.55 112.41 86.256L111.794 86.746ZM112.676 89.42C112.074 92.542 110.856 95.006 108.77 96.504C109.008 96.658 109.4 96.98 109.554 97.148C111.626 95.496 112.928 92.934 113.614 89.574L112.676 89.42ZM102.344 92.444V93.634C102.344 94.516 102.232 95.776 101.476 96.686C101.658 96.784 101.966 96.994 102.12 97.134C102.988 96.126 103.142 94.67 103.142 93.662V92.444H102.344ZM101.84 85.22V86.116H107.58V85.22H101.84ZM104.822 84.24V87.124H105.858V84.24H104.822ZM110.044 84.24V87.054H111.08V84.24H110.044ZM108.28 85.22V86.116H114.216V85.22H108.28ZM102.19 87.712V90.974H104.542V90.106H103.016V87.712H102.19ZM125.136 87.194C123.54 91.968 120.488 94.67 115.504 96.112C115.714 96.35 116.036 96.84 116.162 97.092C121.244 95.468 124.436 92.598 126.228 87.502L125.136 87.194ZM118.78 87.25L117.8 87.558C119.578 92.29 122.784 95.65 127.81 97.036C127.978 96.742 128.286 96.294 128.538 96.056C123.638 94.838 120.362 91.59 118.78 87.25ZM115.7 86.718V87.74H128.356V86.718H115.7ZM120.922 84.478C121.342 85.178 121.776 86.102 121.958 86.676L123.106 86.312C122.91 85.724 122.434 84.814 122.014 84.156L120.922 84.478ZM129.644 94.544V95.412H142.286V94.544H129.644ZM135.426 93.228V97.12H136.518V93.228H135.426ZM132.318 91.786H139.654V92.794H132.318V91.786ZM132.318 90.064H139.654V91.058H132.318V90.064ZM131.296 89.308V93.564H140.704V89.308H131.296ZM130.61 85.388V86.242H141.418V85.388H130.61ZM129.672 87.684V88.552H142.314V87.684H129.672ZM138.268 86.242C138.086 86.732 137.68 87.46 137.4 87.922L138.366 88.146C138.674 87.712 139.038 87.096 139.374 86.494L138.268 86.242ZM132.682 86.522C132.99 87.012 133.312 87.684 133.438 88.118L134.474 87.838C134.334 87.404 134.012 86.76 133.676 86.284L132.682 86.522ZM135.062 84.296C135.356 84.8 135.692 85.486 135.832 85.948L136.896 85.654C136.742 85.206 136.406 84.534 136.07 84.044L135.062 84.296Z" fill="white"/>
<circle cx="48" cy="90" r="23.5" fill="white" stroke="#EEEEEE"/>
<path d="M53.1523 81H43.0273C42.0954 81 41.3398 81.7555 41.3398 82.6875V99L48.0898 95.0625L54.8398 99V82.6875C54.8398 81.7555 54.0843 81 53.1523 81ZM53.7148 97.0413L48.0898 93.7601L42.4648 97.0413V82.6875C42.4648 82.3774 42.7172 82.125 43.0273 82.125H53.1523C53.4625 82.125 53.7148 82.3774 53.7148 82.6875V97.0413V97.0413Z" fill="#6B7780"/>
</svg>
