<svg width="282" height="92" viewBox="0 0 282 92" fill="none" xmlns="http://www.w3.org/2000/svg">
<g clip-path="url(#clip0_811_3287)">
<path d="M130 4.97546H0V52.7872H130V4.97546Z" fill="#D60C18"/>
<path d="M14.0825 18.5627C14.7932 19.0153 15.653 19.1714 16.4774 18.9974C17.2641 18.8061 18.0465 18.5888 18.8245 18.3671C20.1893 17.976 21.5455 17.5544 22.919 17.1849C23.6014 17.0023 24.2881 16.8285 24.9792 16.6764C25.2922 16.6273 25.6005 16.5517 25.9007 16.4503C26.2093 16.3286 26.4831 16.133 26.77 16.0157C27.2046 15.8114 27.6393 15.6245 28.1044 15.4419C29.4083 14.9117 32.1988 14.2553 31.5077 12.2473C31.2904 11.5996 30.6384 11.3128 30.069 11.0128C29.4678 10.7507 28.8042 10.6663 28.1565 10.7694C27.5275 10.7769 26.9177 10.9873 26.4179 11.3693C25.7398 12.2168 24.6141 12.4733 23.7665 13.1513C23.4666 13.3773 23.058 13.3817 22.7581 13.6121C22.6104 13.7251 22.5625 13.8207 22.3843 13.8728C22.2288 13.8952 22.072 13.9069 21.9149 13.9076C21.6193 13.9467 21.3281 13.9859 21.0456 14.0337C20.2034 14.1449 19.3801 14.3701 18.5985 14.703C18.2075 14.8942 17.8324 15.1166 17.4771 15.3681C17.1337 15.5984 16.8078 15.5071 16.4166 15.5332C16.0254 15.5593 15.7081 15.5984 15.3517 15.6506L14.2911 15.8288L13.7565 15.907C13.5758 15.8943 13.3943 15.9164 13.2219 15.9722C13.0932 16.0849 13.0071 16.2382 12.9778 16.4067C12.9486 16.5752 12.9779 16.7486 13.0611 16.898C13.3697 17.5413 13.4131 18.1716 14.0825 18.5627Z" fill="white"/>
<path d="M67.2319 17.6325C67.8708 17.463 68.4228 17.3196 68.7618 16.7023C68.8662 16.5111 68.9792 16.3199 69.0748 16.1243C69.2884 15.7428 69.3908 15.3092 69.3704 14.8725C69.2051 14.531 68.9418 14.2465 68.6141 14.0553C67.9958 13.7516 67.3323 13.5505 66.6494 13.4598C65.8584 13.2903 65.0325 13.0947 64.2328 12.9904C63.7593 12.9351 63.2796 12.972 62.8201 13.0991C61.9107 13.3417 61.0237 13.6616 60.1688 14.0553C59.1865 14.49 57.9955 14.2292 57.0784 14.829C56.6818 15.0156 56.2548 15.129 55.8179 15.1637C55.2746 15.2897 54.7617 15.5071 54.2314 15.6809C53.323 15.9721 52.4146 16.2547 51.4931 16.5068C50.8368 16.685 50.1544 16.5068 49.5024 16.8197C49.2495 17.0034 48.982 17.1662 48.7027 17.3065C48.4114 17.4065 48.1159 17.5412 47.8334 17.6412C46.7902 18.0063 45.6601 18.2584 44.5909 18.5409C42.6958 19.1929 40.579 18.9104 38.6318 19.2755C38.0667 19.4189 37.4756 19.5015 37.054 19.9535C36.9149 20.6229 37.4017 20.8794 37.8364 21.1966C38.271 21.5139 38.6492 22.1355 39.1707 22.4658C39.6417 22.7263 40.1347 22.9445 40.6442 23.1178C41.783 23.5785 42.8522 24.1827 44.078 24.4218C44.7517 24.5522 46.1339 24.713 46.7467 24.3044C47.4682 23.8219 48.281 23.4873 48.9808 22.9657C49.3068 22.7223 49.5676 22.405 49.9023 22.1746C50.2796 21.9673 50.6452 21.7395 50.9976 21.4922C51.4299 21.0514 51.9128 20.6633 52.4363 20.336C53.11 20.223 53.7403 19.4667 54.4096 19.9405C54.7313 20.0883 54.5792 20.3752 54.5965 20.6664C54.6139 20.9576 54.8269 21.3097 54.8269 21.6574C54.8169 21.9933 54.7629 22.3265 54.6661 22.6484V23.1874C55.0008 29.6506 54.4401 35.7923 53.875 42.312C53.6142 43.1161 53.9315 43.8507 54.1141 44.6287C54.1392 44.9378 54.2065 45.242 54.314 45.5328C54.6306 46.0924 55.1054 46.546 55.6788 46.8368C56.8307 47.2193 58.4432 47.4105 59.3516 46.4021C60.2774 45.9675 60.5643 45.0982 60.6991 44.1463C60.8301 43.3025 60.9157 42.4522 60.9555 41.5992C60.9546 40.9256 60.852 40.2559 60.6512 39.6128C60.573 39.2782 60.5513 38.9348 60.473 38.6001C60.3426 38.0698 60.1731 37.5396 60.0818 37.0006C59.6873 34.423 59.4897 31.8192 59.4907 29.2116C59.5472 27.473 59.0952 25.2998 58.8692 23.7959C58.3606 22.6658 59.0691 21.5357 58.5301 20.4056C58.2911 19.8449 58.3954 19.1581 58.391 18.567C58.391 18.0628 58.7388 17.8759 59.1473 17.6586C59.3006 17.5762 59.446 17.4802 59.582 17.3717C59.7314 17.2723 59.8979 17.2016 60.0732 17.1631C60.2383 17.1066 60.4035 17.0588 60.573 17.0153C61.79 16.7023 63.1592 16.5024 64.2806 17.2196C64.5697 17.4444 64.9029 17.6059 65.2585 17.6934C65.9113 17.8363 66.5892 17.8154 67.2319 17.6325Z" fill="white"/>
<path d="M45.2253 42.0513C44.9765 41.8289 44.7004 41.639 44.4038 41.4862C44.0648 41.3558 43.691 41.3341 43.3476 41.2124C42.475 40.8729 41.6439 40.4355 40.8701 39.9084C40.7052 39.7783 40.5309 39.6606 40.3485 39.5564C40.1682 39.5085 39.9829 39.4822 39.7965 39.4781C39.4444 39.4042 39.2358 39.0783 38.9272 38.9174C38.7837 38.8392 38.5968 38.8131 38.4925 38.6827C38.1724 38.4095 37.8153 38.1827 37.432 38.009C37.0842 37.7743 36.7018 37.7004 36.3453 37.4961C36.0403 37.3048 35.7497 37.0912 35.476 36.8572C34.9818 36.3573 34.4287 35.9195 33.8287 35.5532C31.7163 34.5753 30.2776 32.1238 28.7085 30.5113C27.6914 29.5811 26.3962 28.2859 26.4222 26.6733C26.8569 25.6606 28.087 25.3215 28.991 24.8391C30.1211 23.9958 31.7293 23.5351 32.377 22.1877C32.4904 21.9418 32.5422 21.672 32.5278 21.4016C32.5134 21.1312 32.4333 20.8684 32.2944 20.636C31.9249 19.871 30.9904 19.9014 30.2602 19.6189C29.8065 19.5793 29.3496 19.6325 28.9171 19.7754C28.2003 20.047 27.5476 20.4643 27.0003 21.0011C26.7395 21.2358 26.5092 21.5314 26.2353 21.753C25.9403 21.9362 25.6173 22.0698 25.2791 22.1486C25.1135 22.2373 24.9237 22.27 24.738 22.2418C24.5523 22.2136 24.3807 22.126 24.249 21.9921C23.9767 21.2384 23.5864 20.5327 23.0928 19.9014C22.9299 19.8156 22.7507 19.7652 22.5669 19.7536C22.393 19.7102 22.2844 19.5711 22.1322 19.5276C21.8758 19.4537 21.5411 19.6363 21.2629 19.6363C20.9218 19.5941 20.5759 19.6133 20.2415 19.6928C19.8522 19.8487 19.519 20.1183 19.2853 20.4665C19.0245 20.8533 19.1375 21.1445 19.0853 21.5748C19.0549 21.866 18.9853 22.1486 18.9288 22.4441C18.8597 22.729 18.8203 23.0204 18.8115 23.3134C18.8513 23.5797 18.9108 23.8427 18.9897 24.1002C19.0117 24.4835 18.9359 24.8661 18.7694 25.212C18.6028 25.558 18.3511 25.8559 18.0378 26.0778C17.7556 26.3181 17.4498 26.5293 17.125 26.7081C16.7469 26.9167 16.3166 26.9689 15.9254 27.1427C15.5659 27.3163 15.2201 27.5168 14.8909 27.7425C14.5562 27.9642 14.2259 28.1772 13.8738 28.3815C13.5218 28.5858 13.1002 28.6336 12.7524 28.8161C12.1309 29.1247 11.3963 29.1812 10.7748 29.4377C10.0967 29.5768 8.91447 29.3247 8.60152 30.1679C8.71827 30.9196 9.07506 31.6134 9.6186 32.1456C9.98371 32.9627 11.0573 33.2452 11.7919 33.7842C12.8915 34.1493 13.9955 33.6147 15.0387 33.6973C15.4342 35.1664 15.3212 36.6877 14.3041 37.7613C14.1161 38.339 13.8325 38.8811 13.4653 39.3651C13.2834 39.5985 13.0859 39.8192 12.8741 40.0258C12.6829 40.2083 12.609 40.4604 12.4178 40.6517C12.2073 40.9126 11.9665 41.1475 11.7006 41.3515C11.3094 41.5775 11.1703 41.2906 10.8617 41.0994C10.6686 40.9861 10.4588 40.9039 10.2402 40.856C9.80864 40.7645 9.36146 40.7779 8.9362 40.8951C8.63527 41.0388 8.38954 41.2769 8.23641 41.5732C8.00777 41.792 7.85541 42.0784 7.80176 42.3903C7.83768 42.5847 7.88706 42.7764 7.94954 42.964C8.03212 43.3683 7.88 43.616 8.15817 43.9898C8.3755 44.2767 8.31465 44.394 8.36246 44.7374C8.39714 44.8958 8.46696 45.0443 8.56675 45.1721C8.754 45.4065 8.97521 45.6116 9.22307 45.7806C9.43455 45.9384 9.6672 46.0657 9.91417 46.1587C10.1545 46.1994 10.3925 46.2531 10.627 46.3196C11.0516 46.5649 11.5364 46.6869 12.0266 46.6716C12.8524 46.6325 13.5565 46.2848 14.3302 46.037C14.7016 45.9492 15.0618 45.8194 15.4038 45.6502C15.7164 45.4403 16.0076 45.2 16.2731 44.933C16.6339 44.6157 16.9816 44.2854 17.3119 43.9377C17.9084 43.3257 18.4482 42.6608 18.9245 41.9513C19.1648 41.601 19.384 41.2367 19.5808 40.8603C19.759 40.5256 19.8416 40.1649 20.0155 39.8259C20.0981 39.639 20.2241 39.4738 20.3023 39.2869C20.4623 38.9445 20.5946 38.5899 20.6979 38.2263C20.772 37.9003 20.8935 37.5869 21.0586 37.2962C21.2918 36.7438 21.43 36.156 21.4672 35.5576C21.515 35.2924 21.615 35.036 21.6628 34.7709C21.7106 34.5057 21.7019 34.1232 21.7715 33.8059C21.8782 33.341 22.0682 32.8993 22.3322 32.502C22.9777 32.6248 23.5499 32.9943 23.9273 33.5321C24.148 33.7832 24.3847 34.0199 24.6358 34.2406C24.9314 34.4927 25.127 34.8361 25.4225 35.0795C26.2918 35.7662 26.8873 36.7876 27.5089 37.6874C28.2782 38.7827 29.0084 39.9041 29.7734 41.0038C30.5384 42.1034 31.1991 43.1336 32.2205 43.9116C32.9771 44.567 33.7757 45.1725 34.6111 45.7241C35.2326 46.0805 36.0367 45.9762 36.7235 45.9892C37.9788 45.9849 39.2328 45.9065 40.4789 45.7545C41.0961 45.6893 41.7176 45.6241 42.3348 45.5806C42.6256 45.5893 42.9165 45.5718 43.2041 45.5285C43.7257 45.472 44.2603 45.2329 44.7776 45.1503C45.2948 45.0678 45.9251 44.9634 46.2728 44.5375C46.4144 44.3662 46.5144 44.1644 46.5649 43.948C46.6154 43.7315 46.6151 43.5063 46.564 43.29C46.351 42.6902 45.7034 42.3903 45.2253 42.0513Z" fill="white"/>
<path d="M80.2018 37.5395C80.4443 37.5432 80.6865 37.5184 80.9233 37.4656C81.1504 37.4151 81.3707 37.3378 81.5796 37.2353L81.7361 36.705H81.6579C81.4763 36.8603 81.2689 36.9824 81.045 37.0658C80.8325 37.1523 80.6051 37.1966 80.3756 37.1962C80.1532 37.211 79.9305 37.1721 79.7263 37.0828C79.5221 36.9936 79.3423 36.8565 79.2021 36.6833C78.9058 36.2481 78.7635 35.7264 78.7978 35.2011C78.7663 34.7025 78.9075 34.2082 79.1977 33.8015C79.3275 33.6351 79.4958 33.5026 79.6881 33.4156C79.8804 33.3285 80.091 33.2894 80.3017 33.3017C80.5771 33.292 80.8497 33.3598 81.0885 33.4973C81.2979 33.6157 81.4536 33.8103 81.5231 34.0406H81.6187C81.6331 33.8944 81.6563 33.7493 81.6883 33.6059C81.715 33.4768 81.7483 33.3491 81.7883 33.2234C81.5511 33.1195 81.3053 33.0366 81.0537 32.9757C80.8138 32.9237 80.569 32.8975 80.3235 32.8975C79.6461 32.8617 78.9812 33.0891 78.4675 33.532C78.2357 33.7464 78.0534 34.0088 77.9333 34.3008C77.8132 34.5928 77.7582 34.9074 77.7721 35.2228C77.7533 35.5414 77.8008 35.8603 77.9115 36.1596C78.0222 36.4588 78.1938 36.7319 78.4154 36.9615C78.9117 37.3815 79.5535 37.5892 80.2018 37.5395Z" fill="white"/>
<path d="M85.3656 35.8792C85.3787 35.6555 85.347 35.4315 85.2724 35.2203C85.1977 35.009 85.0817 34.8148 84.931 34.6491C84.5969 34.3755 84.1729 34.236 83.7416 34.2578C83.3104 34.2796 82.9027 34.4611 82.5979 34.767C82.2931 35.0729 82.113 35.4813 82.0927 35.9126C82.0725 36.344 82.2134 36.7674 82.4882 37.1005C82.6509 37.2519 82.8427 37.3685 83.0519 37.4433C83.2612 37.518 83.4835 37.5493 83.7052 37.5352C83.903 37.555 84.1028 37.5356 84.2931 37.4782C84.4834 37.4207 84.6605 37.3263 84.8143 37.2004C84.9682 37.0744 85.0956 36.9194 85.1895 36.7442C85.2833 36.5689 85.3417 36.3769 85.3613 36.1791C85.3699 36.0793 85.3699 35.9789 85.3613 35.8792H85.3656ZM84.2399 36.9354C84.1915 37.0331 84.1154 37.1145 84.0211 37.1694C83.9268 37.2242 83.8185 37.2502 83.7096 37.244C83.6017 37.2507 83.4943 37.2249 83.4013 37.1699C83.3083 37.1149 83.234 37.0332 83.188 36.9354C83.0635 36.598 83.0131 36.2377 83.0402 35.8792C83.0178 35.5172 83.0711 35.1545 83.1967 34.8143C83.2729 34.6749 83.4013 34.5715 83.5537 34.5267C83.706 34.4819 83.87 34.4993 84.0095 34.5752C84.1095 34.6316 84.1921 34.7143 84.2486 34.8143C84.3736 35.1531 84.4269 35.5143 84.405 35.8748C84.4265 36.2361 84.3701 36.5977 84.2399 36.9354Z" fill="white"/>
<path d="M90.8379 37.4527C90.8379 37.2354 90.8292 37.0267 90.8118 36.8268V35.8358C90.8206 35.5364 90.8032 35.2368 90.7597 34.9404C90.7294 34.7922 90.6638 34.6535 90.5684 34.5362C90.4804 34.4327 90.3685 34.3521 90.2425 34.3015C90.0756 34.2394 89.8975 34.2135 89.7199 34.2255C89.5423 34.2375 89.3693 34.2871 89.2123 34.371C89.0318 34.4865 88.8825 34.6448 88.7777 34.8317C88.7125 34.6527 88.5904 34.4999 88.4299 34.3971C88.2615 34.2896 88.0647 34.2351 87.8649 34.2406C87.6798 34.2353 87.4962 34.2756 87.3303 34.358C87.1613 34.4569 87.0135 34.5884 86.8956 34.7448V34.3102H85.9785C85.9785 34.6666 86.0003 34.9752 86.0089 35.236C86.0176 35.4968 86.0089 35.7097 86.0089 35.8836V36.5356C86.0089 36.8007 86.0089 37.1137 85.9785 37.4614H86.9521V37.4005C86.9521 37.1484 86.9261 36.9659 86.9261 36.8659V35.8097C86.909 35.5343 86.952 35.2584 87.0521 35.0013C87.0975 34.934 87.1586 34.879 87.2303 34.8409C87.3019 34.8028 87.3817 34.7829 87.4629 34.7829C87.544 34.7829 87.6238 34.8028 87.6954 34.8409C87.7671 34.879 87.8282 34.934 87.8736 35.0013C87.9783 35.3533 88.0166 35.7218 87.9866 36.0879V36.7442C87.9866 36.9659 87.9649 37.2136 87.9475 37.457H88.9298V35.8097C88.9091 35.5359 88.9507 35.261 89.0515 35.0056C89.1004 34.9357 89.1654 34.8785 89.2411 34.8391C89.3168 34.7997 89.4008 34.7791 89.4862 34.7791C89.5715 34.7791 89.6556 34.7997 89.7312 34.8391C89.8069 34.8785 89.8719 34.9357 89.9208 35.0056C90.0225 35.3165 90.0623 35.6443 90.0382 35.9705V36.6573C90.0382 36.9094 90.0164 37.1658 89.9947 37.4527H90.864H90.8379Z" fill="white"/>
<path d="M93.6111 37.4526H94.5934V35.8096C94.5727 35.5358 94.6143 35.2609 94.7151 35.0055C94.764 34.9356 94.829 34.8785 94.9047 34.839C94.9803 34.7996 95.0644 34.779 95.1497 34.779C95.2351 34.779 95.3191 34.7996 95.3948 34.839C95.4705 34.8785 95.5355 34.9356 95.5844 35.0055C95.686 35.3164 95.7259 35.6442 95.7017 35.9705V36.6572C95.7017 36.9093 95.7017 37.1657 95.6583 37.4526H96.6406C96.6406 37.2353 96.6319 37.0267 96.6145 36.8267V35.8357C96.5925 35.5423 96.5445 35.2514 96.4711 34.9664C96.4408 34.8182 96.3752 34.6796 96.2798 34.5622C96.1918 34.4587 96.0799 34.3781 95.9538 34.3275C95.787 34.2654 95.6089 34.2395 95.4313 34.2515C95.2537 34.2635 95.0807 34.3131 94.9237 34.397C94.7432 34.5125 94.5939 34.6708 94.4891 34.8577C94.4239 34.6787 94.3017 34.5259 94.1413 34.4231C93.9729 34.3156 93.776 34.2611 93.5763 34.2666C93.3912 34.2613 93.2076 34.3016 93.0417 34.384C92.8716 34.4816 92.7237 34.6133 92.607 34.7708V34.3362H91.6855C91.6855 34.6926 91.7116 35.0012 91.716 35.262C91.7203 35.5228 91.716 35.7357 91.716 35.9096V36.5616C91.716 36.8267 91.716 37.1397 91.6855 37.4874H92.6418V37.4265C92.6418 37.1744 92.62 36.9919 92.62 36.8919V35.8096C92.5993 35.5344 92.6409 35.2581 92.7418 35.0012C92.7788 34.9469 92.8262 34.9005 92.8812 34.8645C92.9363 34.8286 92.9978 34.8039 93.0624 34.7918C93.127 34.7796 93.1934 34.7804 93.2577 34.794C93.322 34.8075 93.383 34.8336 93.4372 34.8708C93.4889 34.9051 93.5333 34.9494 93.5676 35.0012C93.668 35.3541 93.7062 35.7218 93.6806 36.0878V36.7441C93.6806 36.9658 93.6241 37.2092 93.6111 37.4526Z" fill="white"/>
<path d="M100.479 35.8792C100.494 35.6554 100.463 35.4308 100.388 35.2193C100.314 35.0078 100.196 34.8138 100.044 34.6492C99.7093 34.3843 99.2889 34.2518 98.8629 34.2769C98.4368 34.3021 98.0349 34.483 97.7336 34.7853C97.4323 35.0877 97.2528 35.4903 97.2292 35.9164C97.2056 36.3426 97.3396 36.7625 97.6056 37.0962C97.9493 37.3765 98.3792 37.5296 98.8227 37.5296C99.2661 37.5296 99.696 37.3765 100.04 37.0962C100.191 36.9332 100.308 36.7415 100.383 36.5324C100.458 36.3233 100.491 36.1012 100.479 35.8792ZM99.3486 36.9354C99.27 37.0747 99.1395 37.1772 98.9855 37.2204C98.8315 37.2636 98.6666 37.2439 98.5271 37.1658C98.4311 37.111 98.3515 37.0315 98.2967 36.9354C98.1713 36.5982 98.118 36.2384 98.1403 35.8792C98.1178 35.5172 98.1711 35.1545 98.2967 34.8143C98.3345 34.7436 98.386 34.6812 98.4482 34.6307C98.5105 34.5802 98.5822 34.5427 98.6592 34.5205C98.7362 34.4982 98.8168 34.4915 98.8964 34.501C98.976 34.5104 99.0529 34.5356 99.1226 34.5753C99.2225 34.6317 99.3052 34.7144 99.3616 34.8143C99.4906 35.1522 99.5454 35.5139 99.5225 35.8749C99.5454 36.2358 99.4906 36.5975 99.3616 36.9354H99.3486Z" fill="white"/>
<path d="M102.952 34.9925C103.056 35.2893 103.096 35.6048 103.069 35.9183V36.7876C103.077 37.0113 103.065 37.2353 103.034 37.4569H104.012C104.012 37.2874 103.986 37.1092 103.977 36.9267C103.969 36.7441 103.977 36.5485 103.977 36.3442V35.514C103.986 35.2985 103.97 35.0827 103.93 34.8708C103.904 34.7537 103.851 34.6447 103.773 34.5535C103.684 34.4458 103.569 34.3621 103.439 34.3101C103.276 34.2506 103.103 34.2242 102.93 34.2324C102.756 34.2406 102.587 34.2833 102.43 34.3579C102.258 34.4564 102.11 34.5914 101.995 34.7534V34.3188H101.1C101.117 34.5795 101.131 34.8403 101.139 35.1011V36.6441C101.139 36.9006 101.139 37.1788 101.1 37.47H102.052C102.052 37.1266 102.052 36.8224 102.026 36.5616C102.013 36.3372 102.013 36.1122 102.026 35.8879C102.008 35.6021 102.052 35.3158 102.156 35.049C102.194 34.9793 102.249 34.9203 102.316 34.8774C102.383 34.8345 102.459 34.809 102.539 34.8034C102.618 34.7978 102.697 34.8121 102.769 34.8452C102.841 34.8782 102.904 34.9289 102.952 34.9925Z" fill="white"/>
<path d="M110.523 32.9757H110.219C110.084 33.5321 109.936 34.0797 109.784 34.6187C109.632 35.1577 109.45 35.6923 109.267 36.2226C109.067 35.6575 108.88 35.1055 108.702 34.5665C108.524 34.0276 108.363 33.4973 108.206 32.9757H107.541C107.368 33.4886 107.194 34.0189 107.007 34.5578C106.82 35.0968 106.629 35.6662 106.42 36.266C106.25 35.7227 106.094 35.175 105.946 34.6274C105.798 34.0797 105.659 33.5277 105.512 32.9757H104.395C104.664 33.7523 104.913 34.5173 105.142 35.2707C105.372 36.0183 105.577 36.7572 105.768 37.4787H106.437C106.62 36.918 106.803 36.3747 106.989 35.8401C107.176 35.3054 107.372 34.7926 107.567 34.2884C107.772 34.8447 107.963 35.3924 108.141 35.9226C108.319 36.4529 108.48 36.9702 108.632 37.4787H109.315C109.58 36.6398 109.841 35.8488 110.088 35.0968C110.336 34.3449 110.575 33.6407 110.81 32.9757H110.523Z" fill="white"/>
<path d="M112.549 34.2145C112.338 34.2035 112.127 34.2365 111.929 34.3113C111.732 34.3862 111.552 34.5012 111.401 34.6491C111.255 34.8046 111.141 34.9877 111.066 35.1877C110.992 35.3877 110.958 35.6007 110.966 35.814C110.939 36.2737 111.096 36.7255 111.401 37.0701C111.56 37.2224 111.75 37.3398 111.957 37.4146C112.164 37.4895 112.385 37.5202 112.605 37.5048C112.809 37.505 113.012 37.4787 113.209 37.4265C113.382 37.3797 113.547 37.3048 113.696 37.2049L113.839 36.8311L113.779 36.7833C113.656 36.883 113.518 36.9622 113.37 37.018C113.231 37.0699 113.084 37.0964 112.935 37.0962C112.796 37.1008 112.658 37.073 112.531 37.0149C112.404 36.9568 112.293 36.8701 112.205 36.7615C112.01 36.5018 111.913 36.1817 111.931 35.8574H113.952V35.6488C113.967 35.4535 113.943 35.2572 113.881 35.0713C113.819 34.8855 113.721 34.7139 113.592 34.5665C113.451 34.4397 113.286 34.3431 113.107 34.2825C112.927 34.222 112.737 34.1988 112.549 34.2145ZM113.031 35.4706V35.5619H111.914V35.501C111.897 35.2432 111.953 34.9858 112.075 34.7578C112.117 34.6789 112.179 34.6129 112.256 34.567C112.332 34.521 112.42 34.4968 112.509 34.497C112.589 34.4964 112.667 34.5176 112.735 34.5582C112.803 34.5988 112.859 34.6573 112.896 34.7274C112.997 34.9371 113.043 35.1687 113.031 35.4011C113.033 35.4242 113.033 35.4475 113.031 35.4706Z" fill="white"/>
<path d="M117.061 37.0876C116.981 36.9276 116.949 36.7479 116.969 36.5703V36.4443L116.991 35.2968V35.262C116.999 35.1163 116.975 34.9705 116.92 34.8352C116.865 34.6999 116.781 34.5785 116.674 34.4797C116.413 34.2806 116.088 34.1833 115.761 34.2058C115.556 34.2061 115.353 34.249 115.165 34.3319C114.954 34.4269 114.759 34.5545 114.587 34.71C114.609 34.7665 114.631 34.823 114.648 34.8839C114.668 34.9688 114.696 35.0517 114.731 35.1316C114.817 34.984 114.931 34.8542 115.065 34.7491C115.186 34.6668 115.328 34.6229 115.474 34.6231C115.555 34.6223 115.635 34.6376 115.709 34.6682C115.784 34.6988 115.852 34.7441 115.909 34.8013C115.967 34.8652 116.012 34.94 116.041 35.0213C116.07 35.1026 116.083 35.1888 116.078 35.2751V35.4011C115.856 35.5288 115.618 35.6254 115.37 35.688L115.035 35.7923C114.835 35.8492 114.654 35.9606 114.513 36.114C114.396 36.2555 114.333 36.4342 114.335 36.6182C114.329 36.74 114.347 36.8619 114.388 36.9768C114.429 37.0917 114.492 37.1973 114.574 37.2875C114.66 37.3716 114.762 37.437 114.874 37.4796C114.987 37.5223 115.106 37.5412 115.226 37.5353C115.407 37.5386 115.586 37.4936 115.744 37.4049C115.899 37.3195 116.028 37.1932 116.117 37.0398C116.142 37.1775 116.214 37.3021 116.322 37.3918C116.432 37.4771 116.569 37.5202 116.708 37.5135C116.825 37.5136 116.942 37.5005 117.056 37.4744C117.176 37.4508 117.292 37.4144 117.404 37.3657V37.2049H117.378C117.32 37.2092 117.261 37.2009 117.206 37.1806C117.152 37.1604 117.102 37.1287 117.061 37.0876ZM116.109 36.4834C116.119 36.6441 116.077 36.8038 115.991 36.9398C115.952 36.9909 115.901 37.0318 115.843 37.059C115.785 37.0862 115.721 37.099 115.657 37.0963C115.598 37.1001 115.539 37.0894 115.485 37.0652C115.431 37.0409 115.384 37.0038 115.348 36.9572C115.274 36.8249 115.239 36.674 115.248 36.5225C115.242 36.425 115.257 36.3274 115.291 36.236C115.326 36.1445 115.379 36.0615 115.448 35.9923C115.639 35.8408 115.867 35.7432 116.109 35.7097V36.4834Z" fill="white"/>
<path d="M118.855 32.5063C118.765 32.5123 118.675 32.5239 118.586 32.5411H118.151C118.06 32.5411 117.973 32.5411 117.882 32.5063C117.882 32.8671 117.908 33.2453 117.917 33.6538C117.925 34.0624 117.917 34.5231 117.917 34.9926V36.2965C117.917 36.7051 117.895 37.0876 117.882 37.457C117.961 37.4426 118.041 37.4325 118.121 37.4266C118.29 37.4092 118.46 37.4092 118.629 37.4266C118.708 37.4325 118.787 37.4426 118.864 37.457C118.864 37.1006 118.834 36.7181 118.825 36.3139C118.816 35.9097 118.825 35.4446 118.825 34.9708V33.6625C118.816 33.2279 118.838 32.8801 118.855 32.5063Z" fill="white"/>
<path d="M120.977 37.1788C120.916 37.1843 120.854 37.1694 120.802 37.1364C120.75 37.1034 120.711 37.0541 120.69 36.9962C120.624 36.6878 120.599 36.3722 120.616 36.0574V35.7922C120.616 35.601 120.616 35.275 120.638 34.8186V34.6665H121.29C121.285 34.6173 121.285 34.5678 121.29 34.5187V34.3448H120.651V33.7537C120.648 33.5432 120.658 33.3327 120.681 33.1234L120.607 33.0713C120.468 33.1408 120.325 33.206 120.173 33.2712L119.738 33.4538C119.733 33.5745 119.74 33.6954 119.76 33.8145C119.771 33.9055 119.771 33.9974 119.76 34.0884V34.3405H119.325V34.4057C119.33 34.4417 119.33 34.4783 119.325 34.5143V34.6838H119.76V36.6746C119.75 36.7926 119.765 36.9113 119.803 37.0234C119.841 37.1355 119.902 37.2387 119.982 37.3265C120.068 37.4056 120.17 37.4664 120.28 37.5052C120.391 37.5441 120.508 37.5602 120.625 37.5526C120.745 37.5534 120.865 37.5388 120.981 37.5091C121.119 37.4744 121.253 37.4264 121.381 37.3657V37.1396C121.248 37.1688 121.113 37.1819 120.977 37.1788Z" fill="white"/>
<path d="M124.68 36.9659V35.5141C124.686 35.3015 124.67 35.0889 124.632 34.8795C124.602 34.7599 124.545 34.6485 124.467 34.5536C124.377 34.4459 124.262 34.3622 124.132 34.3102C123.993 34.2582 123.846 34.2317 123.697 34.2319C123.495 34.2279 123.295 34.2742 123.115 34.3667C122.938 34.4666 122.789 34.6084 122.68 34.7796V33.0888C122.686 32.8938 122.703 32.6993 122.733 32.5063L122.485 32.5455H122.024L121.768 32.5063C121.768 32.7845 121.802 33.1149 121.811 33.4974C121.82 33.8798 121.811 34.4188 121.811 35.1056V36.5921C121.811 36.9355 121.789 37.2223 121.768 37.4614H122.728C122.734 37.1713 122.724 36.8811 122.698 36.5921C122.682 36.3547 122.682 36.1166 122.698 35.8792C122.68 35.5935 122.724 35.3072 122.828 35.0404C122.871 34.9682 122.931 34.9077 123.002 34.8645C123.074 34.8212 123.155 34.7966 123.239 34.7927C123.323 34.7888 123.406 34.8058 123.482 34.8422C123.557 34.8787 123.622 34.9333 123.671 35.0013C123.772 35.2989 123.81 35.614 123.784 35.9271V36.7964C123.792 37.0201 123.781 37.244 123.75 37.4657H124.723C124.7 37.3 124.685 37.1332 124.68 36.9659Z" fill="white"/>
<path d="M83.1096 43.4595L82.7315 40.304H82.1273C81.8839 40.8473 81.6405 41.3732 81.3884 41.8861C81.1363 42.399 80.8842 42.8988 80.6234 43.39C80.3539 42.8814 80.0888 42.3729 79.8367 41.8644C79.5846 41.3558 79.3325 40.8299 79.0978 40.304H78.524L78.0894 43.4204C78.0726 43.5941 78.0464 43.7668 78.0112 43.9376C77.972 44.181 77.9242 44.4723 77.8721 44.8069L78.0112 44.7809H78.2589L78.4023 44.8069C78.4023 44.3071 78.4588 43.8029 78.524 43.3074V43.2552L78.6849 41.8861C78.9196 42.3207 79.1586 42.7858 79.4064 43.2726C79.6541 43.7594 79.8975 44.2723 80.154 44.8069H80.4322C80.6886 44.2636 80.9407 43.7377 81.1885 43.2379C81.4362 42.738 81.6796 42.2512 81.9274 41.7774L82.1403 43.8811C82.1403 43.9942 82.1708 44.2767 82.1882 44.7504V44.8156L82.4707 44.7896H82.9923L83.2922 44.8113C83.2574 44.6548 83.2226 44.481 83.1922 44.281C83.1618 44.0811 83.1487 43.8073 83.1096 43.4595Z" fill="white"/>
<path d="M86.5175 44.4462C86.4398 44.2856 86.4082 44.1065 86.4262 43.929V43.8029L86.4479 42.6555V42.6207C86.4562 42.4749 86.4321 42.3291 86.3772 42.1938C86.3223 42.0585 86.2381 41.9371 86.1307 41.8383C85.8697 41.6393 85.5453 41.5419 85.2179 41.5645C85.0128 41.5647 84.81 41.6076 84.6224 41.6905C84.4111 41.7855 84.216 41.9131 84.0443 42.0687C84.0661 42.1208 84.0878 42.1773 84.1095 42.2425C84.1313 42.3077 84.1573 42.386 84.1878 42.4903C84.2706 42.3389 84.3865 42.2082 84.5268 42.1078C84.6445 42.0234 84.7862 41.9792 84.931 41.9817C85.0114 41.9806 85.0911 41.9954 85.1657 42.0252C85.2403 42.055 85.3083 42.0994 85.3657 42.1556C85.4827 42.2866 85.5436 42.4583 85.5352 42.6337V42.7467C85.3147 42.873 85.0777 42.9681 84.8311 43.0293L84.4964 43.1379C84.2953 43.1958 84.1136 43.3069 83.9704 43.4596C83.8527 43.6038 83.7924 43.7864 83.8009 43.9724C83.7936 44.095 83.8111 44.2178 83.8521 44.3336C83.8932 44.4493 83.9571 44.5556 84.04 44.6462C84.1257 44.7302 84.2278 44.7956 84.34 44.8383C84.4522 44.8809 84.5721 44.8999 84.692 44.8939C84.8742 44.8968 85.0541 44.8518 85.2135 44.7635C85.3671 44.6751 85.4946 44.5477 85.583 44.3941C85.6025 44.5343 85.6752 44.6618 85.7861 44.7499C85.8969 44.8381 86.0374 44.8803 86.1785 44.8678C86.2938 44.8672 86.4088 44.8556 86.5218 44.8331C86.6408 44.8074 86.7572 44.7711 86.8696 44.7244V44.5592H86.8478C86.7878 44.5663 86.727 44.5598 86.6698 44.5402C86.6127 44.5207 86.5606 44.4885 86.5175 44.4462ZM85.5656 43.8421C85.5707 43.9954 85.5298 44.1468 85.4483 44.2767C85.4092 44.3278 85.3583 44.3687 85.3001 44.3959C85.2418 44.4232 85.1778 44.4359 85.1136 44.4332C85.0549 44.4366 84.9964 44.4252 84.9432 44.4001C84.8901 44.3751 84.844 44.3371 84.8093 44.2897C84.7297 44.1594 84.6932 44.0073 84.705 43.8551C84.699 43.7583 84.7138 43.6613 84.7482 43.5706C84.7827 43.4799 84.8361 43.3976 84.9049 43.3292C85.096 43.1777 85.3241 43.0801 85.5656 43.0466V43.8421Z" fill="white"/>
<path d="M89.8949 44.4462C89.6465 44.3586 89.3845 44.3159 89.1212 44.3201H89.0039C88.378 44.3201 88.0694 44.1854 88.0694 43.9854C88.0658 43.9054 88.0939 43.8273 88.1476 43.7679C88.2013 43.7085 88.2763 43.6726 88.3562 43.6681H88.4692C88.8554 43.6901 89.2387 43.5897 89.5646 43.3813C89.6911 43.291 89.7932 43.1706 89.8615 43.031C89.9298 42.8913 89.9622 42.7368 89.9557 42.5815C89.9597 42.4445 89.9298 42.3087 89.8688 42.186C89.8084 42.0729 89.7202 41.9771 89.6124 41.9078H90.2643V41.5862H89.6732C89.4368 41.5895 89.2003 41.5808 88.9647 41.5601L88.5301 41.534C88.176 41.5132 87.8257 41.6162 87.5391 41.8252C87.4211 41.9151 87.3261 42.0317 87.2619 42.1655C87.1977 42.2992 87.166 42.4462 87.1696 42.5945C87.1626 42.7087 87.1782 42.8232 87.2155 42.9313C87.2528 43.0395 87.311 43.1392 87.3869 43.2248C87.5593 43.3986 87.7836 43.5115 88.0259 43.5464V43.6594C87.8407 43.7316 87.6732 43.8428 87.5347 43.9854C87.4791 44.043 87.4354 44.1111 87.4063 44.1857C87.3772 44.2604 87.3632 44.34 87.3652 44.4201C87.361 44.5383 87.3996 44.654 87.4739 44.7461C87.5556 44.8419 87.6649 44.9102 87.7868 44.9417V44.9938C87.5941 45.0517 87.4201 45.1597 87.2826 45.3068C87.1682 45.4424 87.1092 45.6163 87.1175 45.7936C87.1166 45.921 87.1506 46.0462 87.2157 46.1558C87.2808 46.2653 87.3746 46.355 87.4869 46.4151C87.8027 46.5844 88.1594 46.6627 88.517 46.6412C88.983 46.6635 89.4427 46.5272 89.821 46.2543C89.9791 46.1414 90.1076 45.9919 90.1954 45.8186C90.2832 45.6452 90.3277 45.4532 90.3252 45.259C90.3285 45.0973 90.2912 44.9374 90.2165 44.7939C90.1498 44.6462 90.037 44.5241 89.8949 44.4462ZM88.1954 42.0382C88.232 41.9745 88.2841 41.9212 88.3468 41.8831C88.4096 41.845 88.481 41.8235 88.5543 41.8204C88.6276 41.8174 88.7006 41.833 88.7662 41.8657C88.8319 41.8985 88.8883 41.9474 88.93 42.0078C89.0203 42.1707 89.0611 42.3565 89.0473 42.5424C89.0629 42.7689 89.0226 42.9958 88.93 43.2031C88.8577 43.3025 88.749 43.3693 88.6277 43.3888C88.5063 43.4084 88.3822 43.3791 88.2823 43.3074C88.2433 43.2771 88.2083 43.242 88.178 43.2031C88.0874 43.0183 88.0469 42.8129 88.0607 42.6076C88.048 42.4086 88.095 42.2104 88.1954 42.0382ZM89.2603 46.15C89.051 46.2846 88.8047 46.35 88.5562 46.3369C88.3347 46.3489 88.117 46.2758 87.9476 46.1326C87.872 46.0643 87.8122 45.9803 87.7724 45.8864C87.7326 45.7926 87.7138 45.6912 87.7173 45.5893C87.7145 45.4671 87.7461 45.3466 87.8086 45.2416C87.8676 45.1391 87.9552 45.056 88.0607 45.0025L88.8213 45.0416C89.0099 45.0382 89.1945 45.0961 89.3472 45.2068C89.4052 45.2625 89.4501 45.3304 89.4787 45.4056C89.5072 45.4807 89.5187 45.5613 89.5124 45.6415C89.5168 45.7406 89.496 45.8393 89.4519 45.9282C89.4078 46.0172 89.3419 46.0935 89.2603 46.15Z" fill="white"/>
<path d="M93.2199 44.4461C93.1423 44.2855 93.1107 44.1064 93.1287 43.9289V42.625C93.137 42.4792 93.1128 42.3334 93.0579 42.1981C93.0031 42.0628 92.9188 41.9414 92.8114 41.8426C92.5504 41.6435 92.226 41.5462 91.8986 41.5687C91.6935 41.569 91.4907 41.6119 91.3031 41.6948C91.0918 41.7898 90.8968 41.9174 90.725 42.0729C90.725 42.1251 90.7685 42.1816 90.7902 42.2468C90.812 42.312 90.8381 42.3902 90.8685 42.4946C90.9513 42.3432 91.0672 42.2125 91.2075 42.1121C91.3252 42.0277 91.4669 41.9835 91.6117 41.986C91.6921 41.9849 91.7718 41.9996 91.8465 42.0295C91.9211 42.0593 91.989 42.1036 92.0464 42.1599C92.1646 42.2904 92.227 42.462 92.2202 42.638V42.7075C92.2246 42.7217 92.2246 42.7368 92.2202 42.751C91.9997 42.8773 91.7628 42.9724 91.5161 43.0335L91.1814 43.1422C90.9803 43.2 90.7986 43.3112 90.6555 43.4638C90.5378 43.6081 90.4774 43.7907 90.486 43.9767C90.4787 44.0993 90.4961 44.2221 90.5372 44.3378C90.5782 44.4535 90.6421 44.5599 90.725 44.6504C90.8107 44.7345 90.9129 44.7999 91.0251 44.8426C91.1373 44.8852 91.2571 44.9041 91.377 44.8982C91.5593 44.901 91.7391 44.8561 91.8986 44.7678C92.0522 44.6794 92.1797 44.5519 92.2681 44.3983C92.2876 44.5386 92.3603 44.666 92.4711 44.7542C92.582 44.8424 92.7224 44.8846 92.8635 44.8721C92.9788 44.8715 93.0938 44.8599 93.2069 44.8373C93.3259 44.8117 93.4422 44.7753 93.5546 44.7287V44.5635C93.4937 44.5686 93.4324 44.5607 93.3748 44.5405C93.3171 44.5203 93.2643 44.4881 93.2199 44.4461ZM92.2724 43.842C92.2752 43.995 92.2345 44.1458 92.155 44.2766C92.1137 44.3263 92.0618 44.3661 92.0032 44.3931C91.9445 44.4202 91.8806 44.4338 91.816 44.4331C91.7574 44.4365 91.6988 44.4251 91.6457 44.4001C91.5925 44.375 91.5465 44.3371 91.5118 44.2897C91.4321 44.1594 91.3956 44.0073 91.4074 43.855C91.4031 43.758 91.4191 43.6611 91.4542 43.5705C91.4894 43.48 91.543 43.3978 91.6117 43.3291C91.8012 43.1749 92.0301 43.077 92.2724 43.0466V43.842Z" fill="white"/>
<path d="M95.2801 41.6818H93.9761C93.9805 41.7047 93.9805 41.7283 93.9761 41.7513C93.9805 41.7889 93.9805 41.8268 93.9761 41.8643C93.9807 41.9004 93.9807 41.9369 93.9761 41.973V42.0425H94.05C94.4354 42.0251 94.7179 42.0164 94.8976 42.0164H95.4409L94.8237 42.9596C94.3021 43.7594 93.9196 44.3418 93.6719 44.6982V44.8026L94.3412 44.7765H95.9103L96.5362 44.8026V44.4027C96.3537 44.4027 96.1668 44.4288 95.9755 44.4331C95.7843 44.4375 95.5887 44.4331 95.3888 44.4331H94.8107L95.9234 42.6945L96.5667 41.7078V41.66H95.9712L95.2801 41.6818Z" fill="white"/>
<path d="M98.0966 41.66H97.1187C97.1187 41.9426 97.1447 42.2164 97.1534 42.4728C97.1621 42.7293 97.1534 42.9857 97.1534 43.2378V43.9333C97.158 44.2234 97.1464 44.5137 97.1187 44.8026L97.3708 44.7765H97.8489L98.0966 44.8026C98.0966 44.4679 98.0705 44.1767 98.0618 43.9333C98.0532 43.6899 98.0618 43.4508 98.0618 43.2335V42.4685C98.0618 42.2077 98.0792 41.9426 98.0966 41.66Z" fill="white"/>
<path d="M97.6141 39.9693C97.4818 39.9646 97.3529 40.0121 97.2553 40.1015C97.1577 40.191 97.0992 40.3152 97.0925 40.4474C97.0905 40.5207 97.1042 40.5934 97.1327 40.6609C97.1612 40.7284 97.2038 40.789 97.2576 40.8386C97.3031 40.8858 97.3579 40.9229 97.4185 40.9476C97.4791 40.9723 97.5443 40.984 97.6097 40.9821C97.6757 40.9893 97.7425 40.9834 97.8062 40.9646C97.8699 40.9457 97.9292 40.9144 97.9807 40.8724C98.0321 40.8304 98.0747 40.7786 98.1059 40.7199C98.137 40.6613 98.1562 40.597 98.1623 40.5309C98.1684 40.4647 98.1612 40.398 98.1412 40.3347C98.1212 40.2714 98.0888 40.2127 98.0458 40.162C98.0029 40.1113 97.9502 40.0697 97.891 40.0396C97.8318 40.0095 97.7672 39.9915 97.701 39.9867H97.6097L97.6141 39.9693Z" fill="white"/>
<path d="M101.813 43.6986V42.8728C101.821 42.6558 101.805 42.4386 101.765 42.2251C101.74 42.1081 101.686 41.9991 101.608 41.9078C101.516 41.8026 101.4 41.7207 101.269 41.6688C101.131 41.6134 100.984 41.5854 100.835 41.5862C100.639 41.5833 100.445 41.6281 100.27 41.7166C100.098 41.8151 99.9492 41.9501 99.835 42.1121V41.6775H98.9092C98.9266 41.9354 98.9396 42.1961 98.9483 42.4598C98.957 42.7235 98.957 42.9887 98.9483 43.2552V44.0029C98.9541 44.2787 98.941 44.5546 98.9092 44.8287L99.1613 44.8026H99.5959L99.8393 44.8287C99.8393 44.4868 99.8306 44.1825 99.8133 43.9159V43.2248C99.7954 42.9405 99.8399 42.6557 99.9437 42.3903C99.9818 42.3093 100.044 42.242 100.122 42.1976C100.2 42.1533 100.289 42.134 100.378 42.1425C100.463 42.1305 100.55 42.1439 100.627 42.1811C100.705 42.2182 100.769 42.2774 100.813 42.3512C100.913 42.6488 100.952 42.9639 100.926 43.277V44.1463C100.934 44.37 100.922 44.594 100.891 44.8157L101.148 44.7896H101.608L101.869 44.8157C101.869 44.6461 101.843 44.4679 101.834 44.2854C101.826 44.1028 101.813 43.9029 101.813 43.6986Z" fill="white"/>
<path d="M104.051 41.5731C103.84 41.5624 103.628 41.5954 103.43 41.6702C103.232 41.745 103.051 41.8599 102.9 42.0078C102.752 42.1627 102.638 42.3457 102.563 42.5459C102.489 42.746 102.455 42.9592 102.465 43.1726C102.438 43.6324 102.594 44.0842 102.9 44.4288C103.06 44.581 103.25 44.6983 103.458 44.7731C103.666 44.8479 103.887 44.8787 104.108 44.8634C104.312 44.8637 104.515 44.8374 104.712 44.7852C104.885 44.7383 105.05 44.6635 105.199 44.5635L105.342 44.1897L105.277 44.1419C105.156 44.2415 105.019 44.3208 104.873 44.3766C104.734 44.4285 104.587 44.455 104.438 44.4549C104.298 44.4593 104.158 44.431 104.031 44.3721C103.903 44.3133 103.791 44.2255 103.704 44.1158C103.512 43.8546 103.417 43.5352 103.434 43.2118H105.451C105.455 43.1859 105.455 43.1594 105.451 43.1335C105.455 43.0902 105.455 43.0465 105.451 43.0031C105.477 42.6083 105.346 42.2191 105.086 41.9209C104.947 41.7942 104.783 41.6978 104.605 41.638C104.427 41.5781 104.239 41.556 104.051 41.5731ZM104.551 42.8293V42.9162H103.434V42.8597C103.42 42.6025 103.474 42.3462 103.591 42.1164C103.633 42.0382 103.696 41.9727 103.773 41.9269C103.849 41.881 103.936 41.8564 104.025 41.8557C104.104 41.8554 104.18 41.8763 104.248 41.9161C104.315 41.9559 104.37 42.0131 104.408 42.0817C104.507 42.2933 104.552 42.5264 104.538 42.7597L104.551 42.8293Z" fill="white"/>
<path d="M79.7628 18.8843C80.0786 19.3805 80.3687 19.8927 80.6321 20.4186L81.5014 19.5798C81.0624 19.0846 80.563 18.6465 80.0148 18.2758C80.1986 17.8551 80.344 17.4187 80.4495 16.9719L79.1934 16.7111C78.9313 18.2381 78.4078 19.7085 77.646 21.0576L78.0806 21.414C78.757 20.6537 79.3233 19.8021 79.7628 18.8843Z" fill="white"/>
<path d="M89.5034 16.585C89.1117 15.6403 88.5782 14.7609 87.9213 13.9771L87.4258 14.2248C87.7564 15.155 88.0251 16.1061 88.2299 17.0718L89.5034 16.585Z" fill="white"/>
<path d="M84.5918 15.8722H81.8361L82.4577 15.0029C81.6651 14.4854 80.7971 14.0939 79.8845 13.8424L79.6716 14.3205C80.2716 14.7983 80.8393 15.3152 81.3711 15.8679H77.9199V16.5633H84.5918V15.8722Z" fill="white"/>
<path d="M80.7235 24.4652V28.5205H82.0535V24.174C82.6055 24.7996 83.122 25.4555 83.6009 26.1386L84.518 25.1172C83.7646 24.4615 82.9376 23.8955 82.0535 23.4308V22.857H84.6223V22.1572H82.0535V20.7011H81.7928C82.1784 20.1771 82.5146 19.6184 82.7968 19.0321C83.1271 19.4966 83.4179 19.9881 83.6661 20.5012L84.392 19.8362C84.2527 20.2274 84.0916 20.6105 83.9095 20.9837L84.3442 21.3053C84.5789 20.9967 84.7788 20.6577 85.0092 20.3143V28.4466H86.3696V27.2514H91.5855V26.5385H89.2166V23.8611H91.0117V23.1656H89.2166V20.749H90.9987V20.0535H89.2166V17.9802H91.3899V17.2804H86.2957C86.5784 16.316 86.7647 15.326 86.8521 14.3248L85.4438 14.0466C85.2135 16.3068 85.0092 17.9802 84.4832 19.558C84.0742 19.1101 83.6063 18.7197 83.0924 18.3975C83.2781 17.9626 83.4236 17.5116 83.527 17.0501L82.2709 16.7415C82.147 18.1208 81.7635 19.4642 81.1408 20.7011H80.7409V22.1572H77.8244V22.857H80.3801C79.6893 24.4168 78.7068 25.8301 77.4854 27.021L77.8113 27.4556C78.9446 26.6312 79.9294 25.62 80.7235 24.4652ZM86.3262 17.9802H87.8214V20.0535H86.3175L86.3262 17.9802ZM86.3262 20.749H87.8214V23.1656H86.3175L86.3262 20.749ZM86.3262 23.8611H87.8214V26.5385H86.3175L86.3262 23.8611Z" fill="white"/>
<path d="M106.077 22.5006C105.249 21.7973 104.32 21.2229 103.321 20.7968L103.043 21.2314C103.791 21.9557 104.499 22.7204 105.164 23.522L106.077 22.5006Z" fill="white"/>
<path d="M103.578 20.0535H100.713V20.7489H108.02V20.0535H104.968V17.376H108.22V16.6762H104.968V14.077H103.578V16.6762H100.387V17.376H103.578V20.0535Z" fill="white"/>
<path d="M108.78 25.7649C108.258 24.641 107.551 23.6126 106.69 22.7223L106.255 23.0135C106.775 24.0982 107.211 25.2215 107.559 26.3734L108.78 25.7649Z" fill="white"/>
<path d="M102.165 26.2734C102.165 27.9468 102.474 28.1163 104.738 28.1163C107.15 28.1163 107.029 27.1253 106.316 24.5869H105.76C105.76 26.6472 105.76 26.8471 104.643 26.8471C103.669 26.8471 103.53 26.6472 103.53 26.0256V22.2355H102.165V26.2734Z" fill="white"/>
<path d="M100.061 16.6763H97.8184L98.6225 16.0591C97.9339 15.2419 97.1318 14.5276 96.2406 13.938L95.8538 14.3248C96.2102 14.8334 96.7839 15.794 97.2925 16.6763H94.9062V17.3761H100.061V16.6763Z" fill="white"/>
<path d="M98.3922 28.212H99.557V26.3386L100.596 27.1123C101.309 26.1691 101.665 24.8043 101.756 23.1657L101.213 23.057C101.005 24.2474 100.425 25.3414 99.557 26.1822V23.1396H95.3931V28.4467H96.6014V27.3166H98.3835L98.3922 28.212ZM98.3922 26.6168H96.6275V23.8003H98.3922V26.6168Z" fill="white"/>
<path d="M99.7049 20.9663H95.354V21.6183H99.7049V20.9663Z" fill="white"/>
<path d="M99.7049 18.8278H95.354V19.4797H99.7049V18.8278Z" fill="white"/>
<path d="M72.0998 27.5296L71.9651 27.46C71.7638 27.3163 71.5446 27.1994 71.3131 27.1123C70.9524 27.021 70.5699 27.0645 70.2091 26.9863C69.7006 26.8776 69.1964 26.7515 68.6835 26.6733C68.0419 26.5513 67.3812 26.5736 66.7493 26.7385C66.4411 26.8096 66.1565 26.9593 65.9234 27.1732C65.7947 27.3629 65.7182 27.5833 65.7018 27.8121C65.6495 28.0299 65.6233 28.2531 65.6235 28.4771C65.6534 29.3134 65.9022 30.1273 66.3451 30.8373C66.5683 31.2208 66.8243 31.5844 67.1101 31.9239C67.3716 32.2716 67.6753 32.5855 68.0141 32.8584C68.3236 33.0334 68.5872 33.2791 68.7835 33.5756C68.9312 33.8146 68.9443 33.8842 69.2181 34.0102C69.6895 34.1483 70.1787 34.2157 70.6698 34.2102C71.3182 34.2532 71.9694 34.2152 72.6084 34.0972C73.0822 34.0146 73.1691 33.6625 73.5559 33.4539C73.9428 33.2452 74.0949 33.2105 74.2601 32.8149C75.0077 31.0329 74.0862 29.5159 72.9952 28.2294C72.7379 27.9477 72.4353 27.7112 72.0998 27.5296Z" fill="white"/>
</g>
<path d="M189.285 22.6184C189.42 22.6184 189.548 22.6718 189.643 22.7667C189.738 22.8616 189.792 22.9904 189.792 23.1247V46.1692C189.792 53.5452 189.144 54.5071 183.995 54.7248V55.4639H209.216V54.74C203.298 54.6691 202.635 53.7882 202.635 46.1843V23.1449C202.635 23.0107 202.689 22.8819 202.784 22.787C202.878 22.692 203.007 22.6387 203.141 22.6387H208.624L211.297 19.2316H203.172C203.038 19.2316 202.909 19.1783 202.814 19.0833C202.719 18.9884 202.666 18.8596 202.666 18.7254V9.61287C202.666 6.99556 202.949 5.63375 203.754 4.39344C204.559 3.15313 205.663 2.43425 206.726 2.43425C207.14 2.45327 207.543 2.57643 207.897 2.79234C208.25 3.00825 208.544 3.30994 208.751 3.6695C209.176 4.45419 209.323 5.26925 209.475 7.65369C209.616 10.5596 209.758 11.7746 210.269 12.8022C210.643 13.5412 211.174 14.1896 211.825 14.702C212.475 15.2145 213.23 15.5786 214.036 15.7689L220.562 7.26387C218.663 3.72013 213.98 1.42175 208.604 1.42175C203.506 1.42175 200.894 3.32525 193.892 12.1492L185.61 22.6184H189.285Z" fill="#D1B158"/>
<path d="M188.754 44.5696V23.6767H185.61C185.411 23.6772 185.216 23.6218 185.048 23.5167C184.879 23.4117 184.743 23.2613 184.656 23.0828C184.569 22.9042 184.534 22.7047 184.555 22.5071C184.576 22.3096 184.652 22.1219 184.775 21.9655L188.374 17.4093C186.981 15.4811 185.338 13.7464 183.489 12.2506C178.684 8.22836 172.592 6.06853 166.327 6.16548C159.948 6.16548 154.369 8.19048 149.221 12.2405C146.313 14.4732 143.966 17.3528 142.366 20.6509C140.766 23.9489 139.956 27.5745 140.002 31.24C140.002 38.9249 143.039 45.3036 149.205 50.3054C154.013 54.284 160.072 56.4357 166.312 56.3804C170.736 56.4148 175.101 55.3544 179.016 53.2938C182.932 51.2331 186.277 48.2361 188.754 44.5696ZM174.503 49.7232C173.901 51.4084 172.792 52.8656 171.328 53.8939C169.863 54.9221 168.116 55.4707 166.327 55.4641C158.936 55.4641 155.746 48.2905 155.746 31.2552C155.746 14.2199 158.92 7.10711 166.327 7.10711C173.865 7.10711 176.958 14.3566 176.958 31.5336C176.958 39.3603 176.168 45.5213 174.503 49.7232Z" fill="#D1B158"/>
<path d="M232.737 1.38135C227.624 1.38135 224.925 3.40635 218.253 12.1088L210.234 22.6185H214.284V46.1693C214.284 52.6695 213.778 54.1832 210.285 54.6034C210.287 54.6438 210.287 54.6844 210.285 54.7249V55.464H233.364V54.7401C227.472 54.6692 226.834 53.7984 226.834 46.1844V22.6185H232.797L234.716 19.2115H226.844V9.59272C226.844 6.98047 227.127 5.60347 227.907 4.37328C228.687 3.1431 229.826 2.4141 230.818 2.4141C231.237 2.43322 231.644 2.55611 232.004 2.77171C232.364 2.98732 232.664 3.2889 232.878 3.64935C233.304 4.44416 233.445 5.31491 233.587 7.63353C233.729 10.6052 233.871 11.7645 234.367 12.7821C234.868 13.7741 235.642 14.602 236.598 15.168C237.555 15.7341 238.653 16.0146 239.763 15.9765C242.958 15.9765 245.302 13.7288 245.302 10.6103C245.302 5.44147 239.763 1.38135 232.737 1.38135Z" fill="#D1B158"/>
<line x1="253.302" y1="1.22498" x2="261.302" y2="1.22498" stroke="#939EA7"/>
<path d="M261.104 56.5001V1.0376" stroke="#939EA7"/>
<line x1="253.302" y1="56.225" x2="261.302" y2="56.225" stroke="#939EA7"/>
<path d="M267.783 28.6345L266.471 28.3132L267.011 23.3093H272.377V24.7039H268.378L268.104 27.1443C268.259 27.0531 268.474 26.9643 268.747 26.8777C269.021 26.7865 269.333 26.741 269.684 26.741C270.153 26.741 270.572 26.8184 270.941 26.9734C271.315 27.1238 271.632 27.3448 271.892 27.6365C272.151 27.9236 272.35 28.2745 272.486 28.6892C272.623 29.0994 272.691 29.5619 272.691 30.0769C272.691 30.5372 272.623 30.9679 272.486 31.3689C272.354 31.7699 272.154 32.1231 271.885 32.4285C271.616 32.7338 271.276 32.9731 270.866 33.1462C270.461 33.3149 269.98 33.3992 269.424 33.3992C269.009 33.3992 268.61 33.3399 268.228 33.2214C267.849 33.0984 267.51 32.9184 267.209 32.6814C266.908 32.4399 266.667 32.1436 266.484 31.7927C266.302 31.4373 266.197 31.0294 266.17 30.5691H267.783C267.824 30.8927 267.913 31.1684 268.05 31.3962C268.191 31.6195 268.378 31.7904 268.61 31.9089C268.843 32.0274 269.112 32.0867 269.417 32.0867C269.695 32.0867 269.934 32.0388 270.135 31.9431C270.335 31.8429 270.502 31.7016 270.634 31.5193C270.771 31.3324 270.871 31.1137 270.935 30.863C271.003 30.6124 271.037 30.3344 271.037 30.0291C271.037 29.7374 270.998 29.4708 270.921 29.2292C270.848 28.9877 270.736 28.7781 270.586 28.6003C270.44 28.4226 270.256 28.2859 270.032 28.1902C269.809 28.0899 269.551 28.0398 269.26 28.0398C268.868 28.0398 268.567 28.0968 268.357 28.2107C268.152 28.3246 267.961 28.4659 267.783 28.6345ZM275.6 28.6345L274.288 28.3132L274.828 23.3093H280.194V24.7039H276.195L275.922 27.1443C276.076 27.0531 276.291 26.9643 276.564 26.8777C276.838 26.7865 277.15 26.741 277.501 26.741C277.97 26.741 278.389 26.8184 278.758 26.9734C279.132 27.1238 279.449 27.3448 279.709 27.6365C279.968 27.9236 280.167 28.2745 280.303 28.6892C280.44 29.0994 280.508 29.5619 280.508 30.0769C280.508 30.5372 280.44 30.9679 280.303 31.3689C280.171 31.7699 279.971 32.1231 279.702 32.4285C279.433 32.7338 279.093 32.9731 278.683 33.1462C278.278 33.3149 277.797 33.3992 277.241 33.3992C276.826 33.3992 276.427 33.3399 276.045 33.2214C275.666 33.0984 275.327 32.9184 275.026 32.6814C274.725 32.4399 274.484 32.1436 274.301 31.7927C274.119 31.4373 274.014 31.0294 273.987 30.5691H275.6C275.641 30.8927 275.73 31.1684 275.867 31.3962C276.008 31.6195 276.195 31.7904 276.427 31.9089C276.66 32.0274 276.929 32.0867 277.234 32.0867C277.512 32.0867 277.751 32.0388 277.952 31.9431C278.152 31.8429 278.319 31.7016 278.451 31.5193C278.588 31.3324 278.688 31.1137 278.752 30.863C278.82 30.6124 278.854 30.3344 278.854 30.0291C278.854 29.7374 278.815 29.4708 278.738 29.2292C278.665 28.9877 278.553 28.7781 278.403 28.6003C278.257 28.4226 278.073 28.2859 277.849 28.1902C277.626 28.0899 277.368 28.0398 277.077 28.0398C276.685 28.0398 276.384 28.0968 276.174 28.2107C275.969 28.3246 275.778 28.4659 275.6 28.6345Z" fill="#171717"/>
<path d="M129.5 72.725V64.725" stroke="#939EA7"/>
<line x1="130" y1="72.225" x2="141" y2="72.225" stroke="#939EA7"/>
<line x1="140.5" y1="72.5054" x2="140.5" y2="64.725" stroke="#939EA7"/>
<path d="M132.363 79.9635V89.9508H130.716V81.9186L128.275 82.7457V81.3854L132.165 79.9635H132.363ZM142.169 84.1403V85.7672C142.169 86.5465 142.092 87.2119 141.937 87.7633C141.786 88.3102 141.568 88.7545 141.281 89.0963C140.993 89.4381 140.649 89.6888 140.248 89.8483C139.852 90.0078 139.408 90.0875 138.915 90.0875C138.523 90.0875 138.159 90.0374 137.822 89.9371C137.489 89.8369 137.188 89.6796 136.919 89.4655C136.65 89.2513 136.42 88.9755 136.229 88.6383C136.042 88.2965 135.896 87.8886 135.791 87.4147C135.691 86.9407 135.641 86.3916 135.641 85.7672V84.1403C135.641 83.3564 135.718 82.6956 135.873 82.1578C136.028 81.6155 136.249 81.1757 136.536 80.8385C136.824 80.4967 137.165 80.2483 137.562 80.0934C137.963 79.9384 138.409 79.861 138.902 79.861C139.298 79.861 139.663 79.9111 139.995 80.0114C140.333 80.1071 140.633 80.2597 140.898 80.4694C141.167 80.679 141.395 80.9524 141.581 81.2897C141.773 81.6224 141.919 82.0257 142.019 82.4996C142.119 82.969 142.169 83.5159 142.169 84.1403ZM140.522 85.9996V83.8942C140.522 83.4977 140.499 83.149 140.453 82.8483C140.408 82.5429 140.34 82.2854 140.248 82.0758C140.162 81.8616 140.052 81.6884 139.92 81.5563C139.788 81.4196 139.638 81.3216 139.469 81.2623C139.3 81.1985 139.111 81.1666 138.902 81.1666C138.646 81.1666 138.419 81.2168 138.218 81.317C138.018 81.4127 137.849 81.5677 137.712 81.7819C137.576 81.9961 137.471 82.2786 137.398 82.6295C137.329 82.9759 137.295 83.3974 137.295 83.8942V85.9996C137.295 86.4007 137.318 86.7539 137.364 87.0592C137.409 87.3645 137.478 87.6266 137.569 87.8453C137.66 88.0595 137.769 88.2373 137.897 88.3785C138.029 88.5153 138.179 88.6155 138.348 88.6793C138.521 88.7431 138.71 88.775 138.915 88.775C139.175 88.775 139.405 88.7249 139.606 88.6246C139.806 88.5244 139.975 88.3649 140.112 88.1461C140.248 87.9228 140.351 87.6334 140.419 87.278C140.488 86.9225 140.522 86.4964 140.522 85.9996Z" fill="#171717"/>
<defs>
<clipPath id="clip0_811_3287">
<rect width="130" height="47.8117" fill="white" transform="translate(0 4.97546)"/>
</clipPath>
</defs>
</svg>
