<svg width="267" height="84" viewBox="0 0 267 84" fill="none" xmlns="http://www.w3.org/2000/svg">
<g clip-path="url(#clip0_811_3336)">
<path d="M130 0.950806H0V48.7625H130V0.950806Z" fill="#D60C18"/>
<path d="M14.0825 14.5381C14.7932 14.9907 15.653 15.1467 16.4774 14.9727C17.2641 14.7815 18.0465 14.5642 18.8245 14.3425C20.1893 13.9513 21.5455 13.5297 22.919 13.1602C23.6014 12.9777 24.2881 12.8038 24.9792 12.6517C25.2922 12.6026 25.6005 12.527 25.9007 12.4257C26.2093 12.304 26.4831 12.1084 26.77 11.991C27.2046 11.7867 27.6393 11.5998 28.1044 11.4173C29.4083 10.887 32.1988 10.2307 31.5077 8.22259C31.2904 7.57496 30.6384 7.28809 30.069 6.98818C29.4678 6.72608 28.8042 6.64161 28.1565 6.74478C27.5275 6.75228 26.9177 6.96266 26.4179 7.3446C25.7398 8.19217 24.6141 8.44861 23.7665 9.12667C23.4666 9.35269 23.058 9.35704 22.7581 9.5874C22.6104 9.70041 22.5625 9.79603 22.3843 9.84819C22.2288 9.87057 22.072 9.88219 21.9149 9.88296C21.6193 9.92208 21.3281 9.9612 21.0456 10.009C20.2034 10.1202 19.3801 10.3454 18.5985 10.6784C18.2075 10.8695 17.8324 11.0919 17.4771 11.3434C17.1337 11.5738 16.8078 11.4825 16.4166 11.5086C16.0254 11.5346 15.7081 11.5738 15.3517 11.6259L14.2911 11.8041L13.7565 11.8824C13.5758 11.8696 13.3943 11.8917 13.2219 11.9476C13.0932 12.0602 13.0071 12.2136 12.9778 12.382C12.9486 12.5505 12.9779 12.7239 13.0611 12.8734C13.3697 13.5167 13.4131 14.1469 14.0825 14.5381Z" fill="white"/>
<path d="M67.2319 13.6078C67.8708 13.4383 68.4228 13.2949 68.7618 12.6777C68.8662 12.4864 68.9792 12.2952 69.0748 12.0996C69.2884 11.7182 69.3908 11.2845 69.3704 10.8478C69.2051 10.5063 68.9418 10.2218 68.6141 10.0307C67.9958 9.72693 67.3323 9.52581 66.6494 9.43519C65.8584 9.26567 65.0325 9.07008 64.2328 8.96576C63.7593 8.9104 63.2796 8.94731 62.8201 9.07443C61.9107 9.31704 61.0237 9.63695 60.1688 10.0307C59.1865 10.4653 57.9955 10.2045 57.0784 10.8043C56.6818 10.9909 56.2548 11.1043 55.8179 11.139C55.2746 11.2651 54.7617 11.4824 54.2314 11.6563C53.323 11.9475 52.4146 12.23 51.4931 12.4821C50.8368 12.6603 50.1544 12.4821 49.5024 12.795C49.2495 12.9787 48.982 13.1415 48.7027 13.2819C48.4114 13.3818 48.1159 13.5166 47.8334 13.6165C46.7902 13.9816 45.6601 14.2337 44.5909 14.5163C42.6958 15.1682 40.579 14.8857 38.6318 15.2508C38.0667 15.3943 37.4756 15.4768 37.054 15.9289C36.9149 16.5982 37.4017 16.8547 37.8364 17.172C38.271 17.4893 38.6492 18.1108 39.1707 18.4412C39.6417 18.7017 40.1347 18.9198 40.6442 19.0932C41.783 19.5539 42.8522 20.158 44.078 20.3971C44.7517 20.5275 46.1339 20.6883 46.7467 20.2798C47.4682 19.7973 48.281 19.4626 48.9808 18.941C49.3068 18.6976 49.5676 18.3803 49.9023 18.15C50.2796 17.9426 50.6452 17.7148 50.9976 17.4676C51.4299 17.0267 51.9128 16.6387 52.4363 16.3114C53.11 16.1984 53.7403 15.4421 54.4096 15.9158C54.7313 16.0636 54.5792 16.3505 54.5965 16.6417C54.6139 16.9329 54.8269 17.285 54.8269 17.6327C54.8169 17.9687 54.7629 18.3019 54.6661 18.6237V19.1627C55.0008 25.626 54.4401 31.7676 53.875 38.2874C53.6142 39.0915 53.9315 39.826 54.1141 40.6041C54.1392 40.9131 54.2065 41.2173 54.314 41.5081C54.6306 42.0677 55.1054 42.5213 55.6788 42.8121C56.8307 43.1946 58.4432 43.3858 59.3516 42.3774C60.2774 41.9428 60.5643 41.0735 60.6991 40.1216C60.8301 39.2778 60.9157 38.4275 60.9555 37.5745C60.9546 36.9009 60.852 36.2312 60.6512 35.5882C60.573 35.2535 60.5513 34.9101 60.473 34.5754C60.3426 34.0452 60.1731 33.5149 60.0818 32.9759C59.6873 30.3984 59.4897 27.7945 59.4907 25.187C59.5472 23.4484 59.0952 21.2751 58.8692 19.7712C58.3606 18.6411 59.0691 17.511 58.5301 16.3809C58.2911 15.8202 58.3954 15.1335 58.391 14.5423C58.391 14.0382 58.7388 13.8513 59.1473 13.6339C59.3006 13.5516 59.446 13.4556 59.582 13.3471C59.7314 13.2477 59.8979 13.1769 60.0732 13.1384C60.2383 13.0819 60.4035 13.0341 60.573 12.9906C61.79 12.6777 63.1592 12.4778 64.2806 13.1949C64.5697 13.4198 64.9029 13.5812 65.2585 13.6687C65.9113 13.8116 66.5892 13.7907 67.2319 13.6078Z" fill="white"/>
<path d="M45.2253 38.0266C44.9765 37.8043 44.7004 37.6144 44.4038 37.4616C44.0648 37.3312 43.691 37.3094 43.3476 37.1877C42.475 36.8483 41.6439 36.4108 40.8701 35.8838C40.7052 35.7536 40.5309 35.6359 40.3485 35.5317C40.1682 35.4838 39.9829 35.4576 39.7965 35.4535C39.4444 35.3796 39.2358 35.0536 38.9272 34.8928C38.7837 34.8145 38.5968 34.7885 38.4925 34.6581C38.1724 34.3849 37.8153 34.1581 37.432 33.9844C37.0842 33.7496 36.7018 33.6758 36.3453 33.4715C36.0403 33.2801 35.7497 33.0666 35.476 32.8325C34.9818 32.3327 34.4287 31.8948 33.8287 31.5286C31.7163 30.5506 30.2776 28.0992 28.7085 26.4866C27.6914 25.5565 26.3962 24.2612 26.4222 22.6486C26.8569 21.6359 28.087 21.2969 28.991 20.8144C30.1211 19.9712 31.7293 19.5104 32.377 18.163C32.4904 17.9172 32.5422 17.6473 32.5278 17.3769C32.5134 17.1066 32.4333 16.8437 32.2944 16.6113C31.9249 15.8463 30.9904 15.8768 30.2602 15.5942C29.8065 15.5546 29.3496 15.6078 28.9171 15.7507C28.2003 16.0223 27.5476 16.4397 27.0003 16.9764C26.7395 17.2111 26.5092 17.5067 26.2353 17.7284C25.9403 17.9115 25.6173 18.0451 25.2791 18.1239C25.1135 18.2126 24.9237 18.2453 24.738 18.2171C24.5523 18.1889 24.3807 18.1013 24.249 17.9674C23.9767 17.2138 23.5864 16.5081 23.0928 15.8768C22.9299 15.7909 22.7507 15.7406 22.5669 15.729C22.393 15.6855 22.2844 15.5464 22.1322 15.503C21.8758 15.4291 21.5411 15.6116 21.2629 15.6116C20.9218 15.5695 20.5759 15.5886 20.2415 15.6681C19.8522 15.8241 19.519 16.0937 19.2853 16.4418C19.0245 16.8286 19.1375 17.1199 19.0853 17.5502C19.0549 17.8414 18.9853 18.1239 18.9288 18.4195C18.8597 18.7044 18.8203 18.9957 18.8115 19.2888C18.8513 19.5551 18.9108 19.818 18.9897 20.0755C19.0117 20.4588 18.9359 20.8414 18.7694 21.1874C18.6028 21.5333 18.3511 21.8312 18.0378 22.0532C17.7556 22.2935 17.4498 22.5046 17.125 22.6834C16.7469 22.892 16.3166 22.9442 15.9254 23.1181C15.5659 23.2916 15.2201 23.4921 14.8909 23.7179C14.5562 23.9396 14.2259 24.1525 13.8738 24.3568C13.5218 24.5611 13.1002 24.6089 12.7524 24.7915C12.1309 25.1001 11.3963 25.1566 10.7748 25.413C10.0967 25.5521 8.91447 25.3 8.60152 26.1432C8.71827 26.8949 9.07506 27.5887 9.6186 28.1209C9.98371 28.938 11.0573 29.2206 11.7919 29.7595C12.8915 30.1246 13.9955 29.59 15.0387 29.6726C15.4342 31.1417 15.3212 32.663 14.3041 33.7366C14.1161 34.3143 13.8325 34.8565 13.4653 35.3405C13.2834 35.5738 13.0859 35.7945 12.8741 36.0011C12.6829 36.1837 12.609 36.4358 12.4178 36.627C12.2073 36.8879 11.9665 37.1228 11.7006 37.3268C11.3094 37.5528 11.1703 37.266 10.8617 37.0747C10.6686 36.9614 10.4588 36.8793 10.2402 36.8313C9.80864 36.7398 9.36146 36.7532 8.9362 36.8704C8.63527 37.0142 8.38954 37.2523 8.23641 37.5485C8.00777 37.7673 7.85541 38.0537 7.80176 38.3656C7.83768 38.5601 7.88706 38.7518 7.94954 38.9394C8.03212 39.3436 7.88 39.5914 8.15817 39.9652C8.3755 40.252 8.31465 40.3694 8.36246 40.7128C8.39714 40.8711 8.46696 41.0197 8.56675 41.1474C8.754 41.3818 8.97521 41.5869 9.22307 41.7559C9.43455 41.9138 9.6672 42.0411 9.91417 42.1341C10.1545 42.1748 10.3925 42.2285 10.627 42.2949C11.0516 42.5403 11.5364 42.6622 12.0266 42.647C12.8524 42.6078 13.5565 42.2601 14.3302 42.0124C14.7016 41.9245 15.0618 41.7948 15.4038 41.6255C15.7164 41.4156 16.0076 41.1754 16.2731 40.9084C16.6339 40.5911 16.9816 40.2607 17.3119 39.913C17.9084 39.301 18.4482 38.6362 18.9245 37.9266C19.1648 37.5764 19.384 37.2121 19.5808 36.8357C19.759 36.501 19.8416 36.1402 20.0155 35.8012C20.0981 35.6143 20.2241 35.4491 20.3023 35.2622C20.4623 34.9199 20.5946 34.5652 20.6979 34.2017C20.772 33.8756 20.8935 33.5623 21.0586 33.2715C21.2918 32.7192 21.43 32.1313 21.4672 31.5329C21.515 31.2678 21.615 31.0113 21.6628 30.7462C21.7106 30.4811 21.7019 30.0986 21.7715 29.7813C21.8782 29.3164 22.0682 28.8746 22.3322 28.4773C22.9777 28.6001 23.5499 28.9696 23.9273 29.5074C24.148 29.7586 24.3847 29.9952 24.6358 30.2159C24.9314 30.468 25.127 30.8114 25.4225 31.0548C26.2918 31.7416 26.8873 32.763 27.5089 33.6627C28.2782 34.758 29.0084 35.8794 29.7734 36.9791C30.5384 38.0788 31.1991 39.1089 32.2205 39.8869C32.9771 40.5424 33.7757 41.1478 34.6111 41.6994C35.2326 42.0558 36.0367 41.9515 36.7235 41.9646C37.9788 41.9603 39.2328 41.8819 40.4789 41.7298C41.0961 41.6646 41.7176 41.5995 42.3348 41.556C42.6256 41.5646 42.9165 41.5472 43.2041 41.5038C43.7257 41.4473 44.2603 41.2083 44.7776 41.1257C45.2948 41.0431 45.9251 40.9388 46.2728 40.5128C46.4144 40.3415 46.5144 40.1397 46.5649 39.9233C46.6154 39.7069 46.6151 39.4817 46.564 39.2654C46.351 38.6656 45.7034 38.3656 45.2253 38.0266Z" fill="white"/>
<path d="M80.2018 33.5149C80.4443 33.5185 80.6865 33.4937 80.9233 33.441C81.1504 33.3904 81.3707 33.3131 81.5796 33.2106L81.7361 32.6804H81.6579C81.4763 32.8357 81.2689 32.9578 81.045 33.0411C80.8325 33.1277 80.6051 33.172 80.3756 33.1715C80.1532 33.1863 79.9305 33.1474 79.7263 33.0582C79.5221 32.9689 79.3423 32.8319 79.2021 32.6586C78.9058 32.2235 78.7635 31.7018 78.7978 31.1765C78.7663 30.6778 78.9075 30.1836 79.1977 29.7769C79.3275 29.6104 79.4958 29.478 79.6881 29.3909C79.8804 29.3038 80.091 29.2648 80.3017 29.277C80.5771 29.2674 80.8497 29.3351 81.0885 29.4726C81.2979 29.591 81.4536 29.7856 81.5231 30.0159H81.6187C81.6331 29.8698 81.6563 29.7246 81.6883 29.5813C81.715 29.4521 81.7483 29.3245 81.7883 29.1988C81.5511 29.0949 81.3053 29.012 81.0537 28.951C80.8138 28.899 80.569 28.8728 80.3235 28.8728C79.6461 28.8371 78.9812 29.0644 78.4675 29.5074C78.2357 29.7218 78.0534 29.9841 77.9333 30.2761C77.8132 30.5681 77.7582 30.8828 77.7721 31.1982C77.7533 31.5167 77.8008 31.8357 77.9115 32.1349C78.0222 32.4342 78.1938 32.7072 78.4154 32.9368C78.9117 33.3568 79.5535 33.5645 80.2018 33.5149Z" fill="white"/>
<path d="M85.3656 31.8545C85.3787 31.6308 85.347 31.4068 85.2724 31.1956C85.1977 30.9844 85.0817 30.7902 84.931 30.6244C84.5969 30.3508 84.1729 30.2114 83.7416 30.2332C83.3104 30.255 82.9027 30.4365 82.5979 30.7424C82.2931 31.0483 82.113 31.4566 82.0927 31.888C82.0725 32.3193 82.2134 32.7428 82.4882 33.0759C82.6509 33.2272 82.8427 33.3439 83.0519 33.4186C83.2612 33.4933 83.4835 33.5246 83.7052 33.5105C83.903 33.5303 84.1028 33.511 84.2931 33.4535C84.4834 33.3961 84.6605 33.3017 84.8143 33.1757C84.9682 33.0498 85.0956 32.8948 85.1895 32.7195C85.2833 32.5443 85.3417 32.3522 85.3613 32.1544C85.3699 32.0546 85.3699 31.9543 85.3613 31.8545H85.3656ZM84.2399 32.9107C84.1915 33.0085 84.1154 33.0898 84.0211 33.1447C83.9268 33.1996 83.8185 33.2255 83.7096 33.2193C83.6017 33.2261 83.4943 33.2003 83.4013 33.1453C83.3083 33.0902 83.234 33.0085 83.188 32.9107C83.0635 32.5733 83.0131 32.2131 83.0402 31.8545C83.0178 31.4925 83.0711 31.1298 83.1967 30.7896C83.2729 30.6503 83.4013 30.5468 83.5537 30.502C83.706 30.4572 83.87 30.4747 84.0095 30.5505C84.1095 30.607 84.1921 30.6896 84.2486 30.7896C84.3736 31.1285 84.4269 31.4896 84.405 31.8501C84.4265 32.2114 84.3701 32.5731 84.2399 32.9107Z" fill="white"/>
<path d="M90.8379 33.428C90.8379 33.2107 90.8292 33.0021 90.8118 32.8021V31.8111C90.8206 31.5117 90.8032 31.2121 90.7597 30.9157C90.7294 30.7676 90.6638 30.6289 90.5684 30.5115C90.4804 30.408 90.3685 30.3275 90.2425 30.2768C90.0756 30.2148 89.8975 30.1889 89.7199 30.2009C89.5423 30.2128 89.3693 30.2624 89.2123 30.3463C89.0318 30.4619 88.8825 30.6201 88.7777 30.8071C88.7125 30.628 88.5904 30.4753 88.4299 30.3724C88.2615 30.265 88.0647 30.2105 87.8649 30.216C87.6798 30.2107 87.4962 30.251 87.3303 30.3333C87.1613 30.4323 87.0135 30.5638 86.8956 30.7202V30.2855H85.9785C85.9785 30.6419 86.0003 30.9505 86.0089 31.2113C86.0176 31.4721 86.0089 31.6851 86.0089 31.8589V32.5109C86.0089 32.7761 86.0089 33.089 85.9785 33.4367H86.9521V33.3759C86.9521 33.1238 86.9261 32.9412 86.9261 32.8413V31.7851C86.909 31.5096 86.952 31.2338 87.0521 30.9766C87.0975 30.9094 87.1586 30.8543 87.2303 30.8162C87.3019 30.7782 87.3817 30.7582 87.4629 30.7582C87.544 30.7582 87.6238 30.7782 87.6954 30.8162C87.7671 30.8543 87.8282 30.9094 87.8736 30.9766C87.9783 31.3287 88.0166 31.6971 87.9866 32.0632V32.7196C87.9866 32.9412 87.9649 33.189 87.9475 33.4324H88.9298V31.7851C88.9091 31.5113 88.9507 31.2363 89.0515 30.9809C89.1004 30.911 89.1654 30.8539 89.2411 30.8145C89.3168 30.775 89.4008 30.7544 89.4862 30.7544C89.5715 30.7544 89.6556 30.775 89.7312 30.8145C89.8069 30.8539 89.8719 30.911 89.9208 30.9809C90.0225 31.2919 90.0623 31.6197 90.0382 31.9459V32.6326C90.0382 32.8847 90.0164 33.1412 89.9947 33.428H90.864H90.8379Z" fill="white"/>
<path d="M93.6111 33.428H94.5934V31.785C94.5727 31.5112 94.6143 31.2363 94.7151 30.9809C94.764 30.9109 94.829 30.8538 94.9047 30.8144C94.9803 30.7749 95.0644 30.7543 95.1497 30.7543C95.2351 30.7543 95.3191 30.7749 95.3948 30.8144C95.4705 30.8538 95.5355 30.9109 95.5844 30.9809C95.686 31.2918 95.7259 31.6196 95.7017 31.9458V32.6325C95.7017 32.8846 95.7017 33.1411 95.6583 33.428H96.6406C96.6406 33.2106 96.6319 33.002 96.6145 32.8021V31.8111C96.5925 31.5176 96.5445 31.2267 96.4711 30.9417C96.4408 30.7936 96.3752 30.6549 96.2798 30.5375C96.1918 30.434 96.0799 30.3535 95.9538 30.3028C95.787 30.2408 95.6089 30.2149 95.4313 30.2269C95.2537 30.2388 95.0807 30.2884 94.9237 30.3724C94.7432 30.4879 94.5939 30.6461 94.4891 30.8331C94.4239 30.654 94.3017 30.5013 94.1413 30.3984C93.9729 30.291 93.776 30.2365 93.5763 30.242C93.3912 30.2367 93.2076 30.277 93.0417 30.3593C92.8716 30.4569 92.7237 30.5886 92.607 30.7462V30.3115H91.6855C91.6855 30.6679 91.7116 30.9765 91.716 31.2373C91.7203 31.4981 91.716 31.7111 91.716 31.8849V32.5369C91.716 32.8021 91.716 33.115 91.6855 33.4627H92.6418V33.4019C92.6418 33.1498 92.62 32.9672 92.62 32.8673V31.785C92.5993 31.5098 92.6409 31.2334 92.7418 30.9765C92.7788 30.9222 92.8262 30.8758 92.8812 30.8399C92.9363 30.8039 92.9978 30.7792 93.0624 30.7671C93.127 30.755 93.1934 30.7557 93.2577 30.7693C93.322 30.7829 93.383 30.809 93.4372 30.8461C93.4889 30.8804 93.5333 30.9248 93.5676 30.9765C93.668 31.3294 93.7062 31.6971 93.6806 32.0632V32.7195C93.6806 32.9411 93.6241 33.1846 93.6111 33.428Z" fill="white"/>
<path d="M100.479 31.8546C100.494 31.6307 100.463 31.4062 100.388 31.1947C100.314 30.9831 100.196 30.7891 100.044 30.6245C99.7093 30.3596 99.2889 30.2272 98.8629 30.2523C98.4368 30.2774 98.0349 30.4584 97.7336 30.7607C97.4323 31.063 97.2528 31.4656 97.2292 31.8917C97.2056 32.3179 97.3396 32.7378 97.6056 33.0716C97.9493 33.3519 98.3792 33.505 98.8227 33.505C99.2661 33.505 99.696 33.3519 100.04 33.0716C100.191 32.9086 100.308 32.7168 100.383 32.5077C100.458 32.2986 100.491 32.0765 100.479 31.8546ZM99.3486 32.9108C99.27 33.0501 99.1395 33.1526 98.9855 33.1957C98.8315 33.2389 98.6666 33.2193 98.5271 33.1411C98.4311 33.0864 98.3515 33.0068 98.2967 32.9108C98.1713 32.5735 98.118 32.2137 98.1403 31.8546C98.1178 31.4926 98.1711 31.1299 98.2967 30.7897C98.3345 30.719 98.386 30.6565 98.4482 30.606C98.5105 30.5556 98.5822 30.5181 98.6592 30.4958C98.7362 30.4735 98.8168 30.4669 98.8964 30.4763C98.976 30.4857 99.0529 30.511 99.1226 30.5506C99.2225 30.607 99.3052 30.6897 99.3616 30.7897C99.4906 31.1276 99.5454 31.4893 99.5225 31.8502C99.5454 32.2112 99.4906 32.5728 99.3616 32.9108H99.3486Z" fill="white"/>
<path d="M102.952 30.9678C103.056 31.2647 103.096 31.5802 103.069 31.8936V32.7629C103.077 32.9866 103.065 33.2106 103.034 33.4323H104.012C104.012 33.2628 103.986 33.0846 103.977 32.902C103.969 32.7195 103.977 32.5239 103.977 32.3196V31.4894C103.986 31.2739 103.97 31.0581 103.93 30.8461C103.904 30.7291 103.851 30.6201 103.773 30.5288C103.684 30.4211 103.569 30.3375 103.439 30.2854C103.276 30.2259 103.103 30.1996 102.93 30.2078C102.756 30.216 102.587 30.2586 102.43 30.3332C102.258 30.4317 102.11 30.5667 101.995 30.7287V30.2941H101.1C101.117 30.5549 101.131 30.8157 101.139 31.0765V32.6195C101.139 32.8759 101.139 33.1541 101.1 33.4453H102.052C102.052 33.102 102.052 32.7977 102.026 32.5369C102.013 32.3125 102.013 32.0876 102.026 31.8632C102.008 31.5774 102.052 31.2911 102.156 31.0243C102.194 30.9546 102.249 30.8956 102.316 30.8527C102.383 30.8098 102.459 30.7844 102.539 30.7787C102.618 30.7731 102.697 30.7875 102.769 30.8205C102.841 30.8536 102.904 30.9042 102.952 30.9678Z" fill="white"/>
<path d="M110.523 28.951H110.219C110.084 29.5074 109.936 30.0551 109.784 30.594C109.632 31.133 109.45 31.6676 109.267 32.1979C109.067 31.6329 108.88 31.0808 108.702 30.5419C108.524 30.0029 108.363 29.4726 108.206 28.951H107.541C107.368 29.4639 107.194 29.9942 107.007 30.5332C106.82 31.0722 106.629 31.6415 106.42 32.2414C106.25 31.698 106.094 31.1504 105.946 30.6027C105.798 30.0551 105.659 29.5031 105.512 28.951H104.395C104.664 29.7276 104.913 30.4926 105.142 31.246C105.372 31.9936 105.577 32.7325 105.768 33.454H106.437C106.62 32.8933 106.803 32.35 106.989 31.8154C107.176 31.2808 107.372 30.7679 107.567 30.2637C107.772 30.8201 107.963 31.3677 108.141 31.898C108.319 32.4283 108.48 32.9455 108.632 33.454H109.315C109.58 32.6152 109.841 31.8241 110.088 31.0722C110.336 30.3202 110.575 29.6161 110.81 28.951H110.523Z" fill="white"/>
<path d="M112.549 30.1898C112.338 30.1789 112.127 30.2119 111.929 30.2867C111.732 30.3615 111.552 30.4765 111.401 30.6245C111.255 30.7799 111.141 30.963 111.066 31.1631C110.992 31.3631 110.958 31.576 110.966 31.7893C110.939 32.2491 111.096 32.7008 111.401 33.0455C111.56 33.1978 111.75 33.3151 111.957 33.39C112.164 33.4648 112.385 33.4955 112.605 33.4801C112.809 33.4803 113.012 33.454 113.209 33.4019C113.382 33.355 113.547 33.2801 113.696 33.1802L113.839 32.8064L113.779 32.7586C113.656 32.8583 113.518 32.9376 113.37 32.9933C113.231 33.0452 113.084 33.0717 112.935 33.0715C112.796 33.0761 112.658 33.0483 112.531 32.9902C112.404 32.9321 112.293 32.8454 112.205 32.7369C112.01 32.4772 111.913 32.157 111.931 31.8328H113.952V31.6242C113.967 31.4288 113.943 31.2325 113.881 31.0467C113.819 30.8609 113.721 30.6892 113.592 30.5419C113.451 30.4151 113.286 30.3184 113.107 30.2579C112.927 30.1973 112.737 30.1742 112.549 30.1898ZM113.031 31.446V31.5372H111.914V31.4764C111.897 31.2185 111.953 30.9611 112.075 30.7331C112.117 30.6542 112.179 30.5883 112.256 30.5423C112.332 30.4964 112.42 30.4722 112.509 30.4723C112.589 30.4717 112.667 30.4929 112.735 30.5335C112.803 30.5741 112.859 30.6326 112.896 30.7027C112.997 30.9124 113.043 31.1441 113.031 31.3764C113.033 31.3995 113.033 31.4228 113.031 31.446Z" fill="white"/>
<path d="M117.061 33.0629C116.981 32.9029 116.949 32.7233 116.969 32.5457V32.4196L116.991 31.2722V31.2374C116.999 31.0916 116.975 30.9458 116.92 30.8105C116.865 30.6752 116.781 30.5538 116.674 30.455C116.413 30.256 116.088 30.1586 115.761 30.1812C115.556 30.1814 115.353 30.2243 115.165 30.3072C114.954 30.4022 114.759 30.5298 114.587 30.6854C114.609 30.7419 114.631 30.7984 114.648 30.8592C114.668 30.9441 114.696 31.027 114.731 31.107C114.817 30.9593 114.931 30.8295 115.065 30.7245C115.186 30.6422 115.328 30.5982 115.474 30.5984C115.555 30.5976 115.635 30.613 115.709 30.6436C115.784 30.6742 115.852 30.7194 115.909 30.7766C115.967 30.8406 116.012 30.9153 116.041 30.9966C116.07 31.0779 116.083 31.1642 116.078 31.2504V31.3765C115.856 31.5042 115.618 31.6007 115.37 31.6633L115.035 31.7677C114.835 31.8246 114.654 31.9359 114.513 32.0893C114.396 32.2308 114.333 32.4096 114.335 32.5935C114.329 32.7153 114.347 32.8372 114.388 32.9522C114.429 33.0671 114.492 33.1727 114.574 33.2629C114.66 33.3469 114.762 33.4123 114.874 33.455C114.987 33.4976 115.106 33.5166 115.226 33.5106C115.407 33.5139 115.586 33.4689 115.744 33.3802C115.899 33.2948 116.028 33.1686 116.117 33.0151C116.142 33.1528 116.214 33.2775 116.322 33.3672C116.432 33.4524 116.569 33.4956 116.708 33.4889C116.825 33.489 116.942 33.4759 117.056 33.4498C117.176 33.4261 117.292 33.3897 117.404 33.3411V33.1803H117.378C117.32 33.1845 117.261 33.1762 117.206 33.156C117.152 33.1357 117.102 33.104 117.061 33.0629ZM116.109 32.4587C116.119 32.6194 116.077 32.7791 115.991 32.9151C115.952 32.9662 115.901 33.0071 115.843 33.0343C115.785 33.0616 115.721 33.0744 115.657 33.0716C115.598 33.0754 115.539 33.0648 115.485 33.0405C115.431 33.0163 115.384 32.9792 115.348 32.9325C115.274 32.8002 115.239 32.6493 115.248 32.4979C115.242 32.4004 115.257 32.3027 115.291 32.2113C115.326 32.1199 115.379 32.0368 115.448 31.9676C115.639 31.8161 115.867 31.7185 116.109 31.6851V32.4587Z" fill="white"/>
<path d="M118.855 28.4817C118.765 28.4876 118.675 28.4993 118.586 28.5165H118.151C118.06 28.5165 117.973 28.5165 117.882 28.4817C117.882 28.8425 117.908 29.2206 117.917 29.6292C117.925 30.0377 117.917 30.4985 117.917 30.9679V32.2719C117.917 32.6804 117.895 33.0629 117.882 33.4324C117.961 33.418 118.041 33.4078 118.121 33.4019C118.29 33.3846 118.46 33.3846 118.629 33.4019C118.708 33.4078 118.787 33.418 118.864 33.4324C118.864 33.076 118.834 32.6935 118.825 32.2892C118.816 31.885 118.825 31.4199 118.825 30.9462V29.6379C118.816 29.2032 118.838 28.8555 118.855 28.4817Z" fill="white"/>
<path d="M120.977 33.1541C120.916 33.1597 120.854 33.1448 120.802 33.1118C120.75 33.0787 120.711 33.0294 120.69 32.9715C120.624 32.6632 120.599 32.3475 120.616 32.0327V31.7676C120.616 31.5763 120.616 31.2503 120.638 30.7939V30.6418H121.29C121.285 30.5926 121.285 30.5432 121.29 30.494V30.3202H120.651V29.729C120.648 29.5185 120.658 29.308 120.681 29.0988L120.607 29.0466C120.468 29.1162 120.325 29.1814 120.173 29.2466L119.738 29.4291C119.733 29.5498 119.74 29.6707 119.76 29.7899C119.771 29.8808 119.771 29.9728 119.76 30.0637V30.3158H119.325V30.381C119.33 30.4171 119.33 30.4536 119.325 30.4897V30.6592H119.76V32.6499C119.75 32.7679 119.765 32.8867 119.803 32.9988C119.841 33.1109 119.902 33.214 119.982 33.3019C120.068 33.381 120.17 33.4417 120.28 33.4806C120.391 33.5194 120.508 33.5355 120.625 33.5279C120.745 33.5287 120.865 33.5141 120.981 33.4844C121.119 33.4498 121.253 33.4017 121.381 33.341V33.115C121.248 33.1441 121.113 33.1573 120.977 33.1541Z" fill="white"/>
<path d="M124.68 32.9412V31.4895C124.686 31.2769 124.67 31.0642 124.632 30.8549C124.602 30.7353 124.545 30.6239 124.467 30.5289C124.377 30.4212 124.262 30.3376 124.132 30.2855C123.993 30.2336 123.846 30.2071 123.697 30.2073C123.495 30.2032 123.295 30.2495 123.115 30.342C122.938 30.442 122.789 30.5838 122.68 30.7549V29.0641C122.686 28.8691 122.703 28.6746 122.733 28.4817L122.485 28.5208H122.024L121.768 28.4817C121.768 28.7599 121.802 29.0902 121.811 29.4727C121.82 29.8552 121.811 30.3942 121.811 31.0809V32.5674C121.811 32.9108 121.789 33.1977 121.768 33.4367H122.728C122.734 33.1466 122.724 32.8564 122.698 32.5674C122.682 32.3301 122.682 32.092 122.698 31.8546C122.68 31.5688 122.724 31.2825 122.828 31.0157C122.871 30.9435 122.931 30.8831 123.002 30.8398C123.074 30.7966 123.155 30.7719 123.239 30.768C123.323 30.7641 123.406 30.7812 123.482 30.8176C123.557 30.854 123.622 30.9087 123.671 30.9766C123.772 31.2743 123.81 31.5893 123.784 31.9024V32.7717C123.792 32.9954 123.781 33.2194 123.75 33.4411H124.723C124.7 33.2754 124.685 33.1085 124.68 32.9412Z" fill="white"/>
<path d="M83.1096 39.4349L82.7315 36.2793H82.1273C81.8839 36.8226 81.6405 37.3485 81.3884 37.8614C81.1363 38.3743 80.8842 38.8742 80.6234 39.3653C80.3539 38.8568 80.0888 38.3482 79.8367 37.8397C79.5846 37.3312 79.3325 36.8052 79.0978 36.2793H78.524L78.0894 39.3957C78.0726 39.5694 78.0464 39.7421 78.0112 39.913C77.972 40.1564 77.9242 40.4476 77.8721 40.7823L78.0112 40.7562H78.2589L78.4023 40.7823C78.4023 40.2824 78.4588 39.7782 78.524 39.2827V39.2306L78.6849 37.8614C78.9196 38.2961 79.1586 38.7612 79.4064 39.248C79.6541 39.7348 79.8975 40.2477 80.154 40.7823H80.4322C80.6886 40.239 80.9407 39.713 81.1885 39.2132C81.4362 38.7133 81.6796 38.2265 81.9274 37.7528L82.1403 39.8565C82.1403 39.9695 82.1708 40.252 82.1882 40.7258V40.791L82.4707 40.7649H82.9923L83.2922 40.7866C83.2574 40.6302 83.2226 40.4563 83.1922 40.2564C83.1618 40.0564 83.1487 39.7826 83.1096 39.4349Z" fill="white"/>
<path d="M86.5175 40.4216C86.4398 40.2609 86.4082 40.0819 86.4262 39.9043V39.7783L86.4479 38.6308V38.596C86.4562 38.4503 86.4321 38.3045 86.3772 38.1692C86.3223 38.0339 86.2381 37.9125 86.1307 37.8136C85.8697 37.6146 85.5453 37.5173 85.2179 37.5398C85.0128 37.5401 84.81 37.583 84.6224 37.6659C84.4111 37.7609 84.216 37.8885 84.0443 38.044C84.0661 38.0962 84.0878 38.1527 84.1095 38.2179C84.1313 38.2831 84.1573 38.3613 84.1878 38.4656C84.2706 38.3143 84.3865 38.1835 84.5268 38.0831C84.6445 37.9988 84.7862 37.9546 84.931 37.9571C85.0114 37.9559 85.0911 37.9707 85.1657 38.0005C85.2403 38.0304 85.3083 38.0747 85.3657 38.1309C85.4827 38.2619 85.5436 38.4336 85.5352 38.6091V38.7221C85.3147 38.8484 85.0777 38.9434 84.8311 39.0046L84.4964 39.1133C84.2953 39.1711 84.1136 39.2822 83.9704 39.4349C83.8527 39.5792 83.7924 39.7618 83.8009 39.9478C83.7936 40.0704 83.8111 40.1932 83.8521 40.3089C83.8932 40.4246 83.9571 40.5309 84.04 40.6215C84.1257 40.7056 84.2278 40.771 84.34 40.8136C84.4522 40.8563 84.5721 40.8752 84.692 40.8692C84.8742 40.8721 85.0541 40.8271 85.2135 40.7389C85.3671 40.6505 85.4946 40.523 85.583 40.3694C85.6025 40.5097 85.6752 40.6371 85.7861 40.7253C85.8969 40.8135 86.0374 40.8557 86.1785 40.8432C86.2938 40.8426 86.4088 40.8309 86.5218 40.8084C86.6408 40.7828 86.7572 40.7464 86.8696 40.6997V40.5346H86.8478C86.7878 40.5416 86.727 40.5351 86.6698 40.5156C86.6127 40.496 86.5606 40.4639 86.5175 40.4216ZM85.5656 39.8174C85.5707 39.9707 85.5298 40.1221 85.4483 40.252C85.4092 40.3031 85.3583 40.344 85.3001 40.3713C85.2418 40.3985 85.1778 40.4113 85.1136 40.4085C85.0549 40.4119 84.9964 40.4005 84.9432 40.3755C84.8901 40.3504 84.844 40.3125 84.8093 40.2651C84.7297 40.1348 84.6932 39.9827 84.705 39.8304C84.699 39.7336 84.7138 39.6366 84.7482 39.5459C84.7827 39.4552 84.8361 39.3729 84.9049 39.3045C85.096 39.153 85.3241 39.0555 85.5656 39.022V39.8174Z" fill="white"/>
<path d="M89.8949 40.4215C89.6465 40.3339 89.3845 40.2913 89.1212 40.2955H89.0039C88.378 40.2955 88.0694 40.1607 88.0694 39.9608C88.0658 39.8808 88.0939 39.8026 88.1476 39.7432C88.2013 39.6838 88.2763 39.648 88.3562 39.6435H88.4692C88.8554 39.6655 89.2387 39.5651 89.5646 39.3566C89.6911 39.2664 89.7932 39.146 89.8615 39.0063C89.9298 38.8667 89.9622 38.7122 89.9557 38.5568C89.9597 38.4199 89.9298 38.284 89.8688 38.1613C89.8084 38.0482 89.7202 37.9525 89.6124 37.8831H90.2643V37.5615H89.6732C89.4368 37.5649 89.2003 37.5561 88.9647 37.5354L88.5301 37.5093C88.176 37.4886 87.8257 37.5915 87.5391 37.8005C87.4211 37.8905 87.3261 38.0071 87.2619 38.1408C87.1977 38.2745 87.166 38.4216 87.1696 38.5699C87.1626 38.6841 87.1782 38.7985 87.2155 38.9067C87.2528 39.0148 87.311 39.1145 87.3869 39.2001C87.5593 39.374 87.7836 39.4869 88.0259 39.5218V39.6348C87.8407 39.707 87.6732 39.8182 87.5347 39.9608C87.4791 40.0184 87.4354 40.0865 87.4063 40.1611C87.3772 40.2357 87.3632 40.3154 87.3652 40.3954C87.361 40.5136 87.3996 40.6294 87.4739 40.7214C87.5556 40.8172 87.6649 40.8855 87.7868 40.917V40.9692C87.5941 41.0271 87.4201 41.1351 87.2826 41.2821C87.1682 41.4178 87.1092 41.5916 87.1175 41.7689C87.1166 41.8963 87.1506 42.0216 87.2157 42.1311C87.2808 42.2406 87.3746 42.3303 87.4869 42.3905C87.8027 42.5598 88.1594 42.638 88.517 42.6165C88.983 42.6389 89.4427 42.5025 89.821 42.2297C89.9791 42.1167 90.1076 41.9672 90.1954 41.7939C90.2832 41.6206 90.3277 41.4286 90.3252 41.2343C90.3285 41.0726 90.2912 40.9127 90.2165 40.7692C90.1498 40.6215 90.037 40.4995 89.8949 40.4215ZM88.1954 38.0135C88.232 37.9499 88.2841 37.8965 88.3468 37.8585C88.4096 37.8204 88.481 37.7988 88.5543 37.7958C88.6276 37.7927 88.7006 37.8083 88.7662 37.8411C88.8319 37.8738 88.8883 37.9227 88.93 37.9831C89.0203 38.1461 89.0611 38.3319 89.0473 38.5177C89.0629 38.7442 89.0226 38.9711 88.93 39.1784C88.8577 39.2778 88.749 39.3446 88.6277 39.3642C88.5063 39.3837 88.3822 39.3544 88.2823 39.2827C88.2433 39.2524 88.2083 39.2174 88.178 39.1784C88.0874 38.9936 88.0469 38.7883 88.0607 38.5829C88.048 38.384 88.095 38.1857 88.1954 38.0135ZM89.2603 42.1253C89.051 42.2599 88.8047 42.3253 88.5562 42.3122C88.3347 42.3243 88.117 42.2512 87.9476 42.108C87.872 42.0396 87.8122 41.9556 87.7724 41.8618C87.7326 41.7679 87.7138 41.6665 87.7173 41.5646C87.7145 41.4425 87.7461 41.322 87.8086 41.2169C87.8676 41.1144 87.9552 41.0313 88.0607 40.9779L88.8213 41.017C89.0099 41.0135 89.1945 41.0715 89.3472 41.1821C89.4052 41.2379 89.4501 41.3057 89.4787 41.3809C89.5072 41.4561 89.5187 41.5366 89.5124 41.6168C89.5168 41.716 89.496 41.8146 89.4519 41.9036C89.4078 41.9925 89.3419 42.0688 89.2603 42.1253Z" fill="white"/>
<path d="M93.2199 40.4215C93.1423 40.2608 93.1107 40.0818 93.1287 39.9042V38.6003C93.137 38.4545 93.1128 38.3087 93.0579 38.1735C93.0031 38.0382 92.9188 37.9167 92.8114 37.8179C92.5504 37.6189 92.226 37.5215 91.8986 37.5441C91.6935 37.5443 91.4907 37.5873 91.3031 37.6701C91.0918 37.7651 90.8968 37.8927 90.725 38.0483C90.725 38.1004 90.7685 38.1569 90.7902 38.2221C90.812 38.2873 90.8381 38.3656 90.8685 38.4699C90.9513 38.3185 91.0672 38.1878 91.2075 38.0874C91.3252 38.003 91.4669 37.9588 91.6117 37.9614C91.6921 37.9602 91.7718 37.975 91.8465 38.0048C91.9211 38.0347 91.989 38.079 92.0464 38.1352C92.1646 38.2657 92.227 38.4374 92.2202 38.6133V38.6829C92.2246 38.697 92.2246 38.7122 92.2202 38.7263C91.9997 38.8526 91.7628 38.9477 91.5161 39.0089L91.1814 39.1175C90.9803 39.1754 90.7986 39.2865 90.6555 39.4392C90.5378 39.5834 90.4774 39.7661 90.486 39.9521C90.4787 40.0746 90.4961 40.1974 90.5372 40.3132C90.5782 40.4289 90.6421 40.5352 90.725 40.6258C90.8107 40.7098 90.9129 40.7753 91.0251 40.8179C91.1373 40.8605 91.2571 40.8795 91.377 40.8735C91.5593 40.8764 91.7391 40.8314 91.8986 40.7431C92.0522 40.6547 92.1797 40.5273 92.2681 40.3737C92.2876 40.514 92.3603 40.6414 92.4711 40.7296C92.582 40.8177 92.7224 40.8599 92.8635 40.8474C92.9788 40.8469 93.0938 40.8352 93.2069 40.8127C93.3259 40.787 93.4422 40.7507 93.5546 40.704V40.5388C93.4937 40.5439 93.4324 40.5361 93.3748 40.5158C93.3171 40.4956 93.2643 40.4635 93.2199 40.4215ZM92.2724 39.8173C92.2752 39.9704 92.2345 40.1211 92.155 40.252C92.1137 40.3016 92.0618 40.3414 92.0032 40.3685C91.9445 40.3955 91.8806 40.4092 91.816 40.4084C91.7574 40.4118 91.6988 40.4005 91.6457 40.3754C91.5925 40.3504 91.5465 40.3124 91.5118 40.265C91.4321 40.1347 91.3956 39.9826 91.4074 39.8304C91.4031 39.7333 91.4191 39.6364 91.4542 39.5459C91.4894 39.4553 91.543 39.3731 91.6117 39.3044C91.8012 39.1502 92.0301 39.0523 92.2724 39.0219V39.8173Z" fill="white"/>
<path d="M95.2801 37.6571H93.9761C93.9805 37.6801 93.9805 37.7037 93.9761 37.7267C93.9805 37.7642 93.9805 37.8021 93.9761 37.8397C93.9807 37.8757 93.9807 37.9122 93.9761 37.9483V38.0179H94.05C94.4354 38.0005 94.7179 37.9918 94.8976 37.9918H95.4409L94.8237 38.935C94.3021 39.7347 93.9196 40.3172 93.6719 40.6736V40.7779L94.3412 40.7518H95.9103L96.5362 40.7779V40.378C96.3537 40.378 96.1668 40.4041 95.9755 40.4085C95.7843 40.4128 95.5887 40.4085 95.3888 40.4085H94.8107L95.9234 38.6698L96.5667 37.6832V37.6354H95.9712L95.2801 37.6571Z" fill="white"/>
<path d="M98.0966 37.6354H97.1187C97.1187 37.9179 97.1447 38.1917 97.1534 38.4482C97.1621 38.7046 97.1534 38.9611 97.1534 39.2132V39.9086C97.158 40.1988 97.1464 40.489 97.1187 40.7779L97.3708 40.7518H97.8489L98.0966 40.7779C98.0966 40.4432 98.0705 40.152 98.0618 39.9086C98.0532 39.6652 98.0618 39.4261 98.0618 39.2088V38.4438C98.0618 38.183 98.0792 37.9179 98.0966 37.6354Z" fill="white"/>
<path d="M97.6141 35.9447C97.4818 35.9399 97.3529 35.9874 97.2553 36.0769C97.1577 36.1663 97.0992 36.2906 97.0925 36.4228C97.0905 36.496 97.1042 36.5688 97.1327 36.6363C97.1612 36.7037 97.2038 36.7643 97.2576 36.814C97.3031 36.8611 97.3579 36.8982 97.4185 36.9229C97.4791 36.9476 97.5443 36.9594 97.6097 36.9574C97.6757 36.9647 97.7425 36.9587 97.8062 36.9399C97.8699 36.9211 97.9292 36.8897 97.9807 36.8477C98.0321 36.8057 98.0747 36.7539 98.1059 36.6953C98.137 36.6366 98.1562 36.5723 98.1623 36.5062C98.1684 36.4401 98.1612 36.3734 98.1412 36.3101C98.1212 36.2467 98.0888 36.188 98.0458 36.1373C98.0029 36.0867 97.9502 36.0451 97.891 36.015C97.8318 35.9849 97.7672 35.9669 97.701 35.962H97.6097L97.6141 35.9447Z" fill="white"/>
<path d="M101.813 39.6739V38.8481C101.821 38.6311 101.805 38.4139 101.765 38.2005C101.74 38.0834 101.686 37.9744 101.608 37.8832C101.516 37.7779 101.4 37.696 101.269 37.6441C101.131 37.5888 100.984 37.5607 100.835 37.5615C100.639 37.5587 100.445 37.6034 100.27 37.6919C100.098 37.7904 99.9492 37.9254 99.835 38.0875V37.6528H98.9092C98.9266 37.9107 98.9396 38.1715 98.9483 38.4352C98.957 38.6989 98.957 38.964 98.9483 39.2306V39.9782C98.9541 40.254 98.941 40.53 98.9092 40.804L99.1613 40.778H99.5959L99.8393 40.804C99.8393 40.4621 99.8306 40.1578 99.8133 39.8913V39.2002C99.7954 38.9158 99.8399 38.631 99.9437 38.3656C99.9818 38.2846 100.044 38.2173 100.122 38.173C100.2 38.1286 100.289 38.1094 100.378 38.1179C100.463 38.1059 100.55 38.1193 100.627 38.1564C100.705 38.1935 100.769 38.2527 100.813 38.3265C100.913 38.6242 100.952 38.9392 100.926 39.2523V40.1216C100.934 40.3453 100.922 40.5693 100.891 40.791L101.148 40.7649H101.608L101.869 40.791C101.869 40.6215 101.843 40.4433 101.834 40.2607C101.826 40.0782 101.813 39.8782 101.813 39.6739Z" fill="white"/>
<path d="M104.051 37.5485C103.84 37.5377 103.628 37.5708 103.43 37.6456C103.232 37.7204 103.051 37.8353 102.9 37.9831C102.752 38.138 102.638 38.321 102.563 38.5212C102.489 38.7214 102.455 38.9346 102.465 39.148C102.438 39.6077 102.594 40.0595 102.9 40.4041C103.06 40.5564 103.25 40.6736 103.458 40.7484C103.666 40.8232 103.887 40.854 104.108 40.8388C104.312 40.839 104.515 40.8127 104.712 40.7606C104.885 40.7137 105.05 40.6388 105.199 40.5389L105.342 40.1651L105.277 40.1173C105.156 40.2169 105.019 40.2962 104.873 40.352C104.734 40.4039 104.587 40.4304 104.438 40.4302C104.298 40.4346 104.158 40.4063 104.031 40.3475C103.903 40.2886 103.791 40.2009 103.704 40.0912C103.512 39.8299 103.417 39.5105 103.434 39.1871H105.451C105.455 39.1612 105.455 39.1348 105.451 39.1089C105.455 39.0655 105.455 39.0218 105.451 38.9785C105.477 38.5836 105.346 38.1944 105.086 37.8962C104.947 37.7695 104.783 37.6732 104.605 37.6133C104.427 37.5534 104.239 37.5313 104.051 37.5485ZM104.551 38.8046V38.8915H103.434V38.835C103.42 38.5779 103.474 38.3215 103.591 38.0918C103.633 38.0135 103.696 37.9481 103.773 37.9022C103.849 37.8564 103.936 37.8318 104.025 37.831C104.104 37.8308 104.18 37.8517 104.248 37.8914C104.315 37.9312 104.37 37.9884 104.408 38.057C104.507 38.2687 104.552 38.5017 104.538 38.7351L104.551 38.8046Z" fill="white"/>
<path d="M79.7628 14.8597C80.0786 15.3559 80.3687 15.868 80.6321 16.394L81.5014 15.5551C81.0624 15.06 80.563 14.6219 80.0148 14.2511C80.1986 13.8304 80.344 13.394 80.4495 12.9472L79.1934 12.6864C78.9313 14.2134 78.4078 15.6838 77.646 17.0329L78.0806 17.3893C78.757 16.629 79.3233 15.7775 79.7628 14.8597Z" fill="white"/>
<path d="M89.5034 12.5603C89.1117 11.6156 88.5782 10.7362 87.9213 9.95239L87.4258 10.2001C87.7564 11.1303 88.0251 12.0814 88.2299 13.0471L89.5034 12.5603Z" fill="white"/>
<path d="M84.5918 11.8476H81.8361L82.4577 10.9783C81.6651 10.4608 80.7971 10.0693 79.8845 9.81775L79.6716 10.2959C80.2716 10.7736 80.8393 11.2905 81.3711 11.8432H77.9199V12.5387H84.5918V11.8476Z" fill="white"/>
<path d="M80.7235 20.4406V24.4959H82.0535V20.1494C82.6055 20.775 83.122 21.4308 83.6009 22.114L84.518 21.0926C83.7646 20.4368 82.9376 19.8709 82.0535 19.4061V18.8324H84.6223V18.1326H82.0535V16.6765H81.7928C82.1784 16.1525 82.5146 15.5937 82.7968 15.0074C83.1271 15.472 83.4179 15.9634 83.6661 16.4766L84.392 15.8115C84.2527 16.2027 84.0916 16.5858 83.9095 16.959L84.3442 17.2807C84.5789 16.9721 84.7788 16.633 85.0092 16.2897V24.422H86.3696V23.2267H91.5855V22.5139H89.2166V19.8364H91.0117V19.141H89.2166V16.7243H90.9987V16.0289H89.2166V13.9556H91.3899V13.2558H86.2957C86.5784 12.2914 86.7647 11.3013 86.8521 10.3001L85.4438 10.022C85.2135 12.2822 85.0092 13.9556 84.4832 15.5334C84.0742 15.0855 83.6063 14.6951 83.0924 14.3728C83.2781 13.9379 83.4236 13.4869 83.527 13.0254L82.2709 12.7168C82.147 14.0961 81.7635 15.4396 81.1408 16.6765H80.7409V18.1326H77.8244V18.8324H80.3801C79.6893 20.3921 78.7068 21.8055 77.4854 22.9963L77.8113 23.431C78.9446 22.6065 79.9294 21.5953 80.7235 20.4406ZM86.3262 13.9556H87.8214V16.0289H86.3175L86.3262 13.9556ZM86.3262 16.7243H87.8214V19.141H86.3175L86.3262 16.7243ZM86.3262 19.8364H87.8214V22.5139H86.3175L86.3262 19.8364Z" fill="white"/>
<path d="M106.077 18.4759C105.249 17.7727 104.32 17.1983 103.321 16.7721L103.043 17.2067C103.791 17.9311 104.499 18.6957 105.164 19.4974L106.077 18.4759Z" fill="white"/>
<path d="M103.578 16.0288H100.713V16.7243H108.02V16.0288H104.968V13.3514H108.22V12.6516H104.968V10.0524H103.578V12.6516H100.387V13.3514H103.578V16.0288Z" fill="white"/>
<path d="M108.78 21.7402C108.258 20.6163 107.551 19.5879 106.69 18.6976L106.255 18.9888C106.775 20.0735 107.211 21.1968 107.559 22.3487L108.78 21.7402Z" fill="white"/>
<path d="M102.165 22.2487C102.165 23.9221 102.474 24.0917 104.738 24.0917C107.15 24.0917 107.029 23.1006 106.316 20.5623H105.76C105.76 22.6225 105.76 22.8225 104.643 22.8225C103.669 22.8225 103.53 22.6225 103.53 22.001V18.2108H102.165V22.2487Z" fill="white"/>
<path d="M100.061 12.6516H97.8184L98.6225 12.0344C97.9339 11.2173 97.1318 10.503 96.2406 9.91333L95.8538 10.3002C96.2102 10.8087 96.7839 11.7693 97.2925 12.6516H94.9062V13.3514H100.061V12.6516Z" fill="white"/>
<path d="M98.3922 24.1873H99.557V22.314L100.596 23.0877C101.309 22.1445 101.665 20.7796 101.756 19.141L101.213 19.0323C101.005 20.2228 100.425 21.3167 99.557 22.1575V19.1149H95.3931V24.422H96.6014V23.2919H98.3835L98.3922 24.1873ZM98.3922 22.5921H96.6275V19.7756H98.3922V22.5921Z" fill="white"/>
<path d="M99.7049 16.9417H95.354V17.5936H99.7049V16.9417Z" fill="white"/>
<path d="M99.7049 14.8031H95.354V15.4551H99.7049V14.8031Z" fill="white"/>
<path d="M72.0998 23.5049L71.9651 23.4354C71.7638 23.2916 71.5446 23.1747 71.3131 23.0877C70.9524 22.9964 70.5699 23.0398 70.2091 22.9616C69.7006 22.8529 69.1964 22.7269 68.6835 22.6487C68.0419 22.5267 67.3812 22.5489 66.7493 22.7139C66.4411 22.7849 66.1565 22.9347 65.9234 23.1485C65.7947 23.3383 65.7182 23.5587 65.7018 23.7874C65.6495 24.0052 65.6233 24.2285 65.6235 24.4525C65.6534 25.2888 65.9022 26.1026 66.3451 26.8126C66.5683 27.1961 66.8243 27.5597 67.1101 27.8992C67.3716 28.2469 67.6753 28.5608 68.0141 28.8338C68.3236 29.0087 68.5872 29.2545 68.7835 29.5509C68.9312 29.79 68.9443 29.8595 69.2181 29.9856C69.6895 30.1237 70.1787 30.1911 70.6698 30.1855C71.3182 30.2285 71.9694 30.1905 72.6084 30.0725C73.0822 29.9899 73.1691 29.6379 73.5559 29.4292C73.9428 29.2206 74.0949 29.1858 74.2601 28.7903C75.0077 27.0082 74.0862 25.4913 72.9952 24.2047C72.7379 23.9231 72.4353 23.6866 72.0998 23.5049Z" fill="white"/>
</g>
<path d="M142.015 33.8319C142.314 33.83 142.603 33.9364 142.829 34.1313C143.055 34.3263 143.202 34.5965 143.244 34.892V34.9959H143.897V34.8444C143.843 34.3883 143.618 33.9697 143.267 33.6733C142.916 33.3769 142.465 33.2248 142.007 33.2477C141.751 33.2452 141.498 33.2932 141.261 33.389C141.024 33.4848 140.808 33.6265 140.626 33.8059C140.107 34.3165 140.107 34.8444 140.107 35.9781C140.107 37.1118 140.107 37.6397 140.618 38.1417C140.986 38.5032 141.482 38.7053 141.998 38.7042C142.457 38.7295 142.91 38.579 143.262 38.2833C143.615 37.9876 143.842 37.5688 143.897 37.1118V36.9734H143.274V37.0686C143.237 37.2967 143.138 37.5102 142.988 37.6858C142.838 37.8615 142.642 37.9926 142.423 38.0649C142.203 38.1372 141.968 38.1479 141.743 38.0958C141.518 38.0437 141.311 37.9309 141.145 37.7695C140.808 37.4364 140.786 37.0599 140.786 35.9825C140.786 34.905 140.786 34.5372 141.145 34.204C141.375 33.9701 141.688 33.8363 142.015 33.8319Z" fill="#595757"/>
<path d="M145.494 34.9007C145.299 34.898 145.105 34.9349 144.924 35.0093C144.743 35.0837 144.58 35.1939 144.443 35.3334C144.137 35.7697 143.974 36.2894 143.974 36.8219C143.974 37.3544 144.137 37.8741 144.443 38.3104C144.581 38.4499 144.747 38.5602 144.929 38.6345C145.111 38.7088 145.306 38.7458 145.503 38.7431C145.699 38.7459 145.894 38.709 146.075 38.6347C146.256 38.5603 146.421 38.45 146.559 38.3104C146.732 38.1051 146.863 37.8674 146.944 37.6112C147.025 37.355 147.054 37.0852 147.03 36.8176C147.054 36.5513 147.024 36.283 146.943 36.0282C146.862 35.7735 146.732 35.5373 146.559 35.3334C146.42 35.1921 146.255 35.0808 146.071 35.0063C145.888 34.9319 145.692 34.8959 145.494 34.9007ZM146.438 36.7916C146.484 37.1722 146.387 37.5565 146.165 37.8691C145.991 38.0257 145.765 38.1123 145.531 38.1123C145.297 38.1123 145.071 38.0257 144.897 37.8691C144.673 37.5574 144.575 37.1723 144.624 36.7916C144.578 36.411 144.675 36.0267 144.897 35.7142C145.067 35.55 145.294 35.4582 145.531 35.4582C145.767 35.4582 145.995 35.55 146.165 35.7142C146.383 36.0346 146.467 36.4275 146.399 36.8089L146.438 36.7916Z" fill="#595757"/>
<path d="M151.085 34.9006C150.861 34.8966 150.638 34.9427 150.434 35.0355C150.229 35.1283 150.048 35.2655 149.904 35.4371C149.776 35.2605 149.606 35.1188 149.41 35.025C149.213 34.9312 148.996 34.8884 148.779 34.9006C148.44 34.888 148.107 34.9919 147.835 35.1948V34.9482H147.26V38.7257H147.874V36.3631C147.836 36.1538 147.883 35.9379 148.004 35.7627C148.124 35.5876 148.31 35.4674 148.519 35.4285C148.591 35.4197 148.663 35.4197 148.735 35.4285C149.281 35.4285 149.566 35.74 149.566 36.3718V38.6608H150.181V36.3631C150.17 36.2579 150.18 36.1517 150.212 36.0507C150.243 35.9497 150.294 35.856 150.363 35.7752C150.431 35.6945 150.515 35.6283 150.609 35.5806C150.703 35.5329 150.806 35.5047 150.912 35.4977H151.037C151.595 35.4977 151.881 35.8093 151.881 36.441V38.7473H152.483V36.3631C152.493 36.1695 152.463 35.9759 152.396 35.7942C152.328 35.6125 152.223 35.4468 152.089 35.3073C151.82 35.0467 151.46 34.9009 151.085 34.9006Z" fill="#595757"/>
<path d="M156.706 34.9007C156.483 34.8971 156.262 34.9434 156.059 35.0362C155.856 35.1291 155.677 35.2661 155.533 35.4372C155.405 35.2627 155.236 35.1224 155.04 35.0288C154.845 34.9352 154.629 34.8912 154.413 34.9007C154.072 34.8875 153.738 34.9913 153.465 35.1949V34.9483H152.851V38.7258H153.465V36.3632C153.428 36.154 153.475 35.9387 153.596 35.7638C153.717 35.589 153.901 35.4685 154.11 35.4286C154.182 35.42 154.254 35.42 154.326 35.4286C154.884 35.4286 155.166 35.7401 155.166 36.3719V38.6609H155.78V36.3632C155.77 36.2581 155.781 36.1521 155.812 36.0514C155.844 35.9506 155.895 35.8572 155.963 35.7765C156.032 35.6959 156.115 35.6297 156.209 35.5818C156.303 35.534 156.406 35.5054 156.511 35.4978H156.641C157.199 35.4978 157.472 35.8094 157.472 36.4411V38.7474H158.086V36.3632C158.114 36.0146 158.002 35.6692 157.776 35.4025C157.55 35.1358 157.228 34.9694 156.879 34.9396H156.684L156.706 34.9007Z" fill="#595757"/>
<path d="M159.843 34.9006C159.646 34.897 159.451 34.9335 159.269 35.0079C159.086 35.0823 158.921 35.193 158.783 35.3333C158.438 35.7472 158.272 36.281 158.32 36.8175C158.271 37.3568 158.437 37.8936 158.783 38.3104C158.921 38.4507 159.086 38.5615 159.269 38.6358C159.451 38.7102 159.646 38.7467 159.843 38.7431C160.038 38.7467 160.232 38.7102 160.412 38.6358C160.592 38.5613 160.755 38.4505 160.89 38.3104C161.065 38.1061 161.197 37.8686 161.278 37.612C161.359 37.3555 161.388 37.0853 161.362 36.8175C161.388 36.5498 161.359 36.2795 161.278 36.023C161.197 35.7665 161.065 35.529 160.89 35.3247C160.753 35.1877 160.589 35.0796 160.41 35.0068C160.23 34.934 160.037 34.8979 159.843 34.9006ZM159.843 35.4761C160.078 35.48 160.303 35.571 160.475 35.7314C160.713 36.0371 160.82 36.4244 160.773 36.8089C160.822 37.1896 160.725 37.5747 160.501 37.8863C160.327 38.0429 160.101 38.1296 159.867 38.1296C159.633 38.1296 159.407 38.0429 159.233 37.8863C159.018 37.5692 158.897 37.1979 158.884 36.8152C158.871 36.4324 158.967 36.0538 159.159 35.7228C159.25 35.6362 159.357 35.5695 159.475 35.527C159.593 35.4845 159.718 35.4672 159.843 35.4761Z" fill="#595757"/>
<path d="M163.11 34.9007C162.786 34.8917 162.47 34.9957 162.214 35.1949V34.9483H161.591V38.7258H162.214V36.3632C162.214 35.7704 162.517 35.4199 163.08 35.4199C163.642 35.4199 163.945 35.7315 163.945 36.3632V38.6523H164.607V36.3632C164.621 36.1882 164.599 36.0123 164.544 35.8456C164.489 35.679 164.402 35.5249 164.286 35.3924C164.171 35.26 164.031 35.1517 163.874 35.074C163.716 34.9963 163.545 34.9506 163.37 34.9396H163.171L163.11 34.9007Z" fill="#595757"/>
<path d="M169.488 33.2866L168.497 37.3844L167.42 33.3775L167.398 33.2866H166.806L165.711 37.3844L164.737 33.3775L164.72 33.2866H164.045L165.399 38.6782H165.983L167.1 34.5501L168.221 38.6782H168.809L170.15 33.2866H169.488Z" fill="#595757"/>
<path d="M172.024 37.7522C171.918 37.8774 171.785 37.9773 171.635 38.0447C171.485 38.1121 171.322 38.1452 171.158 38.1416C170.384 38.1416 170.215 37.5575 170.15 37.0166H172.569V36.7223C172.569 35.6016 171.98 34.9006 171.046 34.9006C170.111 34.9006 169.536 35.6189 169.536 36.7916C169.536 37.9642 170.102 38.6782 171.132 38.6782C171.381 38.6843 171.628 38.6368 171.856 38.539C172.085 38.4412 172.289 38.2953 172.456 38.1113L172.56 38.0075L172.089 37.6397L172.024 37.7522ZM171.937 36.4541H170.15C170.142 36.2899 170.171 36.126 170.232 35.9738C170.301 35.8214 170.411 35.6921 170.552 35.6014C170.692 35.5106 170.855 35.4624 171.022 35.4624C171.189 35.4624 171.352 35.5106 171.492 35.6014C171.633 35.6921 171.743 35.8214 171.812 35.9738C171.883 36.1289 171.924 36.2964 171.933 36.467L171.937 36.4541Z" fill="#595757"/>
<path d="M174.248 34.9006C173.999 34.8746 173.748 34.915 173.52 35.0176C173.292 35.1202 173.095 35.2814 172.95 35.4848L172.872 35.58L173.322 35.9781L173.4 35.8656C173.49 35.7234 173.62 35.6108 173.774 35.5416C173.928 35.4725 174.098 35.4497 174.265 35.4761C174.879 35.4761 175.13 35.6838 175.13 36.2031V36.467H174.109C173.287 36.467 172.768 36.8997 172.768 37.5921C172.763 37.8751 172.866 38.1493 173.058 38.358C173.209 38.4949 173.389 38.5968 173.584 38.6566C173.779 38.7165 173.985 38.7327 174.187 38.7041C174.521 38.7348 174.854 38.6475 175.13 38.4575V38.6652H175.745V36.1555C175.723 35.5886 175.485 34.9006 174.248 34.9006ZM175.113 37.3108C175.126 37.4126 175.119 37.5159 175.091 37.6148C175.064 37.7137 175.017 37.806 174.953 37.8863C174.847 37.9761 174.723 38.0434 174.59 38.0843C174.457 38.1252 174.317 38.1388 174.178 38.1243C173.486 38.1243 173.395 37.8474 173.395 37.5661C173.395 37.2848 173.464 36.9733 174.152 36.9733H175.1L175.113 37.3108Z" fill="#595757"/>
<path d="M176.732 37.6397V33.2866H176.121V37.6483C176.11 37.7727 176.123 37.8983 176.16 38.0175C176.197 38.1368 176.258 38.2475 176.339 38.343C176.419 38.4385 176.518 38.517 176.629 38.5738C176.741 38.6306 176.862 38.6646 176.987 38.6738H177.519V38.1027H177.13C176.848 38.1027 176.732 37.9902 176.732 37.6397Z" fill="#595757"/>
<path d="M178.198 33.8318H177.584V34.9482H177.104V35.4674H177.584V37.631C177.571 37.7559 177.584 37.8822 177.621 38.0022C177.658 38.1223 177.718 38.2337 177.799 38.3301C177.88 38.4264 177.979 38.5056 178.09 38.5632C178.202 38.6207 178.324 38.6554 178.449 38.6651H178.947V38.1026H178.566C178.285 38.1026 178.159 37.9598 178.159 37.6699V35.5064H178.947V34.9871H178.177L178.198 33.8318Z" fill="#595757"/>
<path d="M180.626 34.9006C180.287 34.8874 179.954 34.9913 179.682 35.1949V33.304H179.068V38.7042H179.682V36.3675C179.644 36.1582 179.691 35.9423 179.812 35.7671C179.933 35.592 180.118 35.4718 180.327 35.4329C180.397 35.4242 180.469 35.4242 180.539 35.4329C181.089 35.4329 181.37 35.7444 181.37 36.3762V38.6652H181.976V36.3632C181.997 36.1902 181.984 36.0147 181.936 35.847C181.888 35.6793 181.807 35.523 181.698 35.3873C181.589 35.2516 181.453 35.1394 181.299 35.0573C181.145 34.9751 180.977 34.9248 180.803 34.9093C180.744 34.9025 180.685 34.8996 180.626 34.9006Z" fill="#595757"/>
<path d="M185.71 36.2593H188.034V35.6665H185.71V33.8794H188.436V33.2866H185.074V38.6782H188.436V38.0854H185.71V36.2593Z" fill="#595757"/>
<path d="M190.838 37.7435C190.759 37.8508 190.66 37.9413 190.546 38.0101C190.432 38.0788 190.306 38.1243 190.174 38.144C190.043 38.1638 189.909 38.1572 189.78 38.1249C189.651 38.0926 189.529 38.035 189.423 37.9556C189.343 37.895 189.271 37.8236 189.211 37.7435C189.068 37.4495 188.994 37.127 188.994 36.8002C188.994 36.4735 189.068 36.151 189.211 35.8569C189.307 35.7322 189.43 35.6311 189.571 35.5616C189.712 35.492 189.867 35.4559 190.024 35.4559C190.182 35.4559 190.337 35.492 190.478 35.5616C190.619 35.6311 190.742 35.7322 190.838 35.8569L190.924 35.9521L191.357 35.554L191.27 35.4632C191.128 35.2841 190.945 35.1411 190.737 35.0457C190.528 34.9502 190.301 34.905 190.072 34.9136C189.051 34.9136 188.419 35.6492 188.419 36.8046C188.419 37.9599 189.051 38.6912 190.072 38.6912C190.309 38.7024 190.546 38.6558 190.761 38.5556C190.977 38.4554 191.165 38.3044 191.309 38.1157L191.396 38.0205L190.963 37.6354L190.838 37.7435Z" fill="#595757"/>
<path d="M192.755 34.9007C192.559 34.8984 192.364 34.9355 192.183 35.0098C192.002 35.0842 191.837 35.1942 191.699 35.3334C191.389 35.768 191.223 36.2883 191.223 36.8219C191.223 37.3555 191.389 37.8758 191.699 38.3104C191.984 38.5769 192.36 38.7251 192.75 38.7251C193.141 38.7251 193.517 38.5769 193.802 38.3104C194.151 37.895 194.322 37.3585 194.278 36.8176C194.334 36.2852 194.179 35.7521 193.845 35.3334C193.704 35.1884 193.534 35.0749 193.346 35.0003C193.158 34.9257 192.957 34.8918 192.755 34.9007ZM193.698 36.7916C193.747 37.1723 193.65 37.5574 193.426 37.8691C193.251 38.0281 193.023 38.1162 192.787 38.1162C192.551 38.1162 192.324 38.0281 192.149 37.8691C191.931 37.5545 191.835 37.1719 191.876 36.7916C191.834 36.414 191.931 36.0339 192.149 35.7228C192.232 35.6366 192.333 35.5686 192.444 35.5231C192.555 35.4777 192.674 35.4558 192.794 35.4589C192.911 35.4576 193.028 35.4803 193.137 35.5257C193.245 35.5711 193.344 35.6382 193.426 35.7228C193.643 36.0404 193.728 36.4297 193.664 36.8089L193.698 36.7916Z" fill="#595757"/>
<path d="M196.035 34.9007C195.694 34.8875 195.36 34.9913 195.087 35.1949V34.9483H194.524V38.7258H195.139V36.3632C195.101 36.1538 195.147 35.938 195.268 35.7628C195.389 35.5877 195.574 35.4675 195.784 35.4286C195.855 35.4199 195.928 35.4199 196 35.4286C196.558 35.4286 196.839 35.7401 196.839 36.3719V38.6609H197.454V36.3632C197.462 36.1695 197.431 35.976 197.363 35.7946C197.294 35.6131 197.19 35.4474 197.056 35.3074C196.922 35.1733 196.763 35.068 196.587 34.998C196.412 34.928 196.224 34.8949 196.035 34.9007Z" fill="#595757"/>
<path d="M199.159 34.9006C198.963 34.8983 198.768 34.9354 198.587 35.0098C198.405 35.0841 198.241 35.1941 198.103 35.3333C197.93 35.5372 197.799 35.7734 197.718 36.0282C197.637 36.2829 197.608 36.5512 197.631 36.8175C197.607 37.0852 197.637 37.3549 197.718 37.6111C197.798 37.8674 197.929 38.105 198.103 38.3104C198.39 38.5777 198.768 38.7263 199.161 38.7263C199.553 38.7263 199.931 38.5777 200.219 38.3104C200.561 37.8911 200.729 37.3571 200.69 36.8175C200.736 36.2799 200.566 35.7461 200.219 35.3333C200.079 35.1946 199.914 35.0849 199.732 35.0106C199.55 34.9363 199.355 34.8989 199.159 34.9006ZM200.106 36.7915C200.158 37.173 200.058 37.5595 199.829 37.869C199.656 38.0253 199.431 38.1118 199.198 38.1118C198.964 38.1118 198.739 38.0253 198.566 37.869C198.338 37.5587 198.239 37.1729 198.289 36.7915C198.246 36.4175 198.349 36.0413 198.574 35.7401C198.741 35.5747 198.967 35.4819 199.202 35.4819C199.437 35.4819 199.662 35.5747 199.829 35.7401C200.038 36.0546 200.118 36.4369 200.054 36.8089L200.106 36.7915Z" fill="#595757"/>
<path d="M204.754 34.9006C204.529 34.8966 204.307 34.9427 204.103 35.0355C203.898 35.1283 203.717 35.2655 203.572 35.4371C203.443 35.2628 203.273 35.1227 203.077 35.0292C202.88 34.9357 202.664 34.8915 202.447 34.9006C202.109 34.888 201.776 34.9919 201.504 35.1948V34.9482H200.89V38.7257H201.504V36.3631C201.466 36.1537 201.513 35.9379 201.634 35.7627C201.754 35.5876 201.94 35.4674 202.149 35.4285C202.219 35.4198 202.29 35.4198 202.361 35.4285C202.91 35.4285 203.196 35.74 203.196 36.3718V38.6608H203.806V36.3631C203.797 36.2578 203.808 36.1517 203.84 36.0509C203.872 35.9501 203.924 35.8567 203.992 35.7762C204.061 35.6956 204.145 35.6295 204.239 35.5817C204.333 35.5339 204.436 35.5053 204.542 35.4977H204.667C205.225 35.4977 205.498 35.8093 205.498 36.441V38.7473H206.134V36.3631C206.148 36.1891 206.127 36.0142 206.072 35.8483C206.018 35.6825 205.932 35.529 205.818 35.3967C205.704 35.2644 205.565 35.1559 205.409 35.0774C205.253 34.999 205.084 34.9521 204.91 34.9395H204.723L204.754 34.9006Z" fill="#595757"/>
<path d="M207.164 34.9481H206.55V38.6781H207.164V34.9481Z" fill="#595757"/>
<path d="M207.212 33.2866H206.511V33.9876H207.212V33.2866Z" fill="#595757"/>
<path d="M213.426 33.8794H216.156V33.2866H212.794V38.6782H213.426V36.3459H215.749V35.7487H213.426V33.8794Z" fill="#595757"/>
<path d="M217.458 34.9007C217.262 34.8983 217.068 34.9355 216.887 35.0098C216.705 35.0841 216.541 35.1942 216.403 35.3334C216.229 35.5371 216.099 35.7733 216.018 36.0281C215.937 36.2829 215.907 36.5512 215.931 36.8175C215.907 37.0852 215.936 37.3549 216.017 37.6112C216.098 37.8674 216.229 38.1051 216.403 38.3104C216.689 38.5771 217.065 38.7255 217.456 38.7255C217.847 38.7255 218.224 38.5771 218.51 38.3104C218.683 38.1051 218.814 37.8674 218.895 37.6112C218.976 37.3549 219.005 37.0852 218.982 36.8175C219.005 36.5512 218.976 36.2829 218.895 36.0281C218.814 35.7733 218.683 35.5371 218.51 35.3334C218.373 35.1939 218.209 35.0836 218.028 35.0093C217.848 34.9349 217.654 34.8979 217.458 34.9007ZM218.406 36.7916C218.453 37.1728 218.354 37.5578 218.129 37.869C217.955 38.0278 217.728 38.1158 217.493 38.1158C217.258 38.1158 217.031 38.0278 216.857 37.869C216.616 37.5701 216.494 37.1924 216.515 36.8089C216.468 36.4323 216.562 36.0515 216.779 35.7401C216.955 35.5749 217.187 35.4829 217.428 35.4829C217.669 35.4829 217.901 35.5749 218.077 35.7401C218.328 36.0375 218.454 36.4207 218.428 36.8089L218.406 36.7916Z" fill="#595757"/>
<path d="M224.014 37.233C224.033 37.3368 224.032 37.4433 224.01 37.5465C223.988 37.6497 223.945 37.7476 223.886 37.8345C223.826 37.9213 223.749 37.9955 223.66 38.0527C223.572 38.1099 223.473 38.149 223.369 38.1677C223.298 38.1764 223.227 38.1764 223.157 38.1677C222.464 38.1677 222.322 37.6658 222.322 37.2201V34.9483H221.699V35.3162C221.578 35.1897 221.431 35.0913 221.268 35.0278C221.105 34.9642 220.93 34.9371 220.755 34.9483C220.431 34.9447 220.115 35.0515 219.86 35.2512V34.9483H219.245V38.7259H219.86V36.4585C219.846 36.3491 219.853 36.238 219.882 36.1316C219.911 36.0252 219.961 35.9256 220.028 35.8384C220.096 35.7512 220.18 35.6782 220.276 35.6234C220.372 35.5687 220.477 35.5334 220.587 35.5195H220.669C220.775 35.5115 220.882 35.5289 220.981 35.5702C221.079 35.6116 221.167 35.6758 221.236 35.7575L221.322 35.8484L221.72 35.4416V37.3326C221.728 37.6029 221.811 37.8658 221.958 38.0925C222.106 38.3192 222.313 38.5009 222.557 38.618C222.801 38.735 223.072 38.7827 223.341 38.7559C223.61 38.7292 223.867 38.629 224.083 38.4663V38.7043H224.693V34.9397H224.083L224.014 37.233Z" fill="#595757"/>
<path d="M228.899 34.9007C228.675 34.8942 228.453 34.9393 228.25 35.0323C228.047 35.1253 227.867 35.2639 227.726 35.4373C227.596 35.2617 227.424 35.1209 227.226 35.0273C227.029 34.9337 226.811 34.8902 226.592 34.9007C226.254 34.8882 225.921 34.992 225.649 35.1949V34.9483H225.035V38.7258H225.649V36.3632C225.611 36.1539 225.658 35.938 225.779 35.7629C225.899 35.5877 226.085 35.4675 226.294 35.4286C226.366 35.4199 226.438 35.4199 226.51 35.4286C227.055 35.4286 227.341 35.7402 227.341 36.3719V38.6609H227.964V36.3632C227.953 36.2596 227.962 36.1548 227.992 36.0549C228.022 35.955 228.071 35.862 228.137 35.7814C228.203 35.7008 228.285 35.6342 228.377 35.5855C228.469 35.5368 228.57 35.507 228.674 35.4978H228.812C229.37 35.4978 229.656 35.8094 229.656 36.4411V38.7475H230.257V36.3632C230.268 36.1697 230.238 35.976 230.171 35.7943C230.103 35.6127 229.998 35.4469 229.864 35.3074C229.604 35.056 229.26 34.9109 228.899 34.9007Z" fill="#595757"/>
<path d="M209.081 35.554C209.237 35.5481 209.391 35.581 209.531 35.6498C209.671 35.7185 209.791 35.8209 209.882 35.9478L209.968 36.043L210.401 35.6492L210.319 35.554C210.175 35.3647 209.987 35.2134 209.771 35.1131C209.556 35.0128 209.319 34.9666 209.081 34.9785C208.06 34.9785 207.428 35.7141 207.428 36.8651C207.428 38.0161 208.06 38.7561 209.081 38.7561C209.311 38.777 209.542 38.7441 209.757 38.66C209.972 38.5759 210.164 38.4428 210.319 38.2714L210.401 38.1762L209.968 37.7911L209.882 37.8733C209.788 38.0004 209.666 38.1036 209.525 38.1748C209.384 38.2459 209.228 38.283 209.07 38.283C208.912 38.283 208.757 38.2459 208.616 38.1748C208.475 38.1036 208.353 38.0004 208.259 37.8733C208.11 37.5813 208.032 37.258 208.032 36.93C208.032 36.6021 208.11 36.2788 208.259 35.9867C208.347 35.8495 208.469 35.7374 208.613 35.6616C208.757 35.5857 208.918 35.5486 209.081 35.554Z" fill="#595757"/>
<path d="M173.184 44.5068L172.617 44.4245C172.415 44.395 172.223 44.3162 172.058 44.1952C171.994 44.1351 171.944 44.0618 171.911 43.9803C171.878 43.8989 171.864 43.8113 171.868 43.7235C171.868 43.2908 172.188 42.949 172.811 42.949C173.011 42.9378 173.211 42.9665 173.4 43.0334C173.589 43.1002 173.762 43.2039 173.91 43.3384L174.391 42.8538C174.184 42.6602 173.94 42.5102 173.674 42.4129C173.408 42.3155 173.125 42.2727 172.842 42.287C172.634 42.2612 172.423 42.2799 172.223 42.3419C172.022 42.4038 171.838 42.5075 171.681 42.6462C171.523 42.7849 171.398 42.9553 171.311 43.1463C171.225 43.3372 171.18 43.5443 171.18 43.7538C171.171 43.9274 171.199 44.1008 171.261 44.2632C171.322 44.4256 171.417 44.5733 171.539 44.6971C171.809 44.9181 172.136 45.0564 172.483 45.0952L173.067 45.1774C173.268 45.1805 173.463 45.254 173.616 45.3851C173.684 45.4531 173.736 45.5344 173.771 45.6238C173.805 45.7132 173.82 45.8088 173.815 45.9044C173.815 46.3977 173.439 46.6703 172.785 46.6703C172.548 46.6888 172.309 46.6563 172.085 46.5749C171.861 46.4936 171.658 46.3653 171.487 46.1986L170.985 46.7006C171.216 46.9298 171.494 47.1065 171.799 47.2186C172.105 47.3306 172.431 47.3753 172.755 47.3496C173.802 47.3496 174.547 46.8131 174.547 45.8871C174.554 45.6955 174.52 45.5045 174.445 45.328C174.37 45.1514 174.257 44.9936 174.114 44.8659C173.849 44.651 173.524 44.5253 173.184 44.5068Z" fill="#009FD1"/>
<path d="M178.302 45.6275C178.338 45.8752 178.275 46.1272 178.126 46.3282C177.976 46.5293 177.754 46.6632 177.506 46.7006C177.426 46.7092 177.344 46.7092 177.264 46.7006C177.139 46.7125 177.013 46.6994 176.893 46.6623C176.773 46.6251 176.662 46.5645 176.566 46.484C176.47 46.4035 176.39 46.3047 176.333 46.1933C176.275 46.0819 176.24 45.9602 176.23 45.8352C176.219 45.7591 176.219 45.6819 176.23 45.6058V42.3173H175.485V45.6275C175.517 46.0811 175.719 46.5058 176.052 46.816C176.384 47.1261 176.822 47.2986 177.277 47.2986C177.731 47.2986 178.169 47.1261 178.502 46.816C178.834 46.5058 179.037 46.0811 179.068 45.6275V42.3259H178.302V45.6275Z" fill="#009FD1"/>
<path d="M182.504 45.4458L181.05 42.3259H180.284V47.3324H181.05V43.9875L182.231 46.4237H182.79L183.941 43.9875V47.3324H184.698V42.3259H183.941L182.504 45.4458Z" fill="#009FD1"/>
<path d="M188.22 45.4458L186.758 42.3259H186V47.3324H186.758V43.9875L187.939 46.4237H188.506L189.657 43.9875V47.3324H190.414V42.3259H189.657L188.22 45.4458Z" fill="#009FD1"/>
<path d="M191.716 47.3324H194.909V46.653H192.473V45.1515H194.55V44.4722H192.473V43.0053H194.909V42.3259H191.716V47.3324Z" fill="#009FD1"/>
<path d="M199.445 43.7884C199.453 43.4081 199.31 43.0401 199.047 42.7651C198.784 42.4901 198.423 42.3306 198.043 42.3215H195.948V47.328H196.688V45.225H197.636L198.692 47.3323H199.557L198.419 45.1212C198.718 45.0529 198.984 44.8825 199.172 44.6393C199.359 44.396 199.455 44.0951 199.445 43.7884ZM196.688 44.5846V42.9792H197.813C198.022 42.9563 198.232 43.0173 198.395 43.1487C198.559 43.2802 198.664 43.4714 198.687 43.6802C198.71 43.8891 198.649 44.0985 198.518 44.2624C198.386 44.4264 198.195 44.5314 197.986 44.5543C197.929 44.563 197.871 44.563 197.813 44.5543L196.688 44.5846Z" fill="#009FD1"/>
<path d="M229.912 44.4028H201.496V44.6019H229.912V44.4028Z" fill="#009FD1"/>
<path d="M168.969 44.4028H140.553V44.6019H168.969V44.4028Z" fill="#009FD1"/>
<path d="M197.41 31.3784H198.592C206.943 31.0928 213.689 24.6974 213.689 16.8784C213.689 9.05934 206.943 2.66824 198.574 2.35669H197.41C189.064 2.66824 182.365 9.06366 182.365 16.8784C182.365 24.6931 189.064 31.0928 197.41 31.3784ZM183.997 22.7243H188.363C189.635 26.7095 192.14 29.7514 195.286 30.9068C192.887 30.5373 190.611 29.6026 188.645 28.1798C186.679 26.757 185.08 24.8871 183.979 22.7243H183.997ZM213.395 16.7529H208.561C208.542 14.7889 208.222 12.8394 207.614 10.9719H211.962C212.867 12.7665 213.351 14.7435 213.377 16.7529H213.395ZM197.891 22.7243V31.1231C193.784 31.0452 190.249 27.6182 188.652 22.7243H197.891ZM188.557 22.43C188.029 20.6709 187.756 18.8449 187.748 17.0082H197.891V22.43H188.557ZM198.146 22.7243H207.389C205.775 27.6182 202.24 31.0452 198.129 31.1231L198.146 22.7243ZM198.146 22.43V17.0082H208.293C208.29 18.8456 208.016 20.6725 207.48 22.43H198.146ZM208.531 17.0082H213.347C213.335 18.8807 212.923 20.7291 212.14 22.43H207.757C208.277 20.6691 208.547 18.8442 208.561 17.0082H208.531ZM208.245 16.7529H198.129V10.9719H207.35C207.96 12.8384 208.272 14.7893 208.276 16.7529H208.245ZM198.137 10.695V2.63795C202.153 2.70718 205.61 5.97413 207.263 10.6777L198.137 10.695ZM197.882 10.695H188.761C190.405 5.97413 193.849 2.70718 197.873 2.63795L197.882 10.695ZM197.882 10.9892V16.7529H187.731C187.743 14.7885 188.061 12.8381 188.674 10.9719L197.882 10.9892ZM187.497 16.7702H182.629C182.649 14.763 183.124 12.7865 184.018 10.9892H188.371C187.769 12.8574 187.46 14.8074 187.454 16.7702H187.497ZM187.497 17.0255C187.5 18.862 187.77 20.6883 188.298 22.4473H183.836C183.053 20.7464 182.642 18.898 182.629 17.0255H187.497ZM200.747 30.9154C203.845 29.7601 206.415 26.7181 207.67 22.7329H212.036C210.936 24.8932 209.34 26.7614 207.377 28.184C205.414 29.6065 203.142 30.5427 200.747 30.9154ZM211.833 10.6777H207.549C206.251 6.90012 203.771 3.97069 200.747 2.85863C203.071 3.22403 205.279 4.11933 207.202 5.47521C209.124 6.83108 210.709 8.61117 211.833 10.6777ZM195.26 2.85863C192.231 3.97069 189.769 6.87416 188.466 10.6777H184.139C185.268 8.60781 186.858 6.82577 188.787 5.46979C190.715 4.1138 192.93 3.22031 195.26 2.85863Z" fill="#595757"/>
<path d="M184.356 6.07794H185.784V5.12598L181.855 5.14329V6.06928H183.3L178.385 22.5079L174.27 6.05197L175.628 6.06063L175.637 5.12598L168.42 5.10434V6.03899H169.687L172.625 16.8091L170.129 23.2911L165.897 6.03034L167.156 6.03899V5.10434L160.034 5.08704V6.02169H161.345L167.372 28.41L167.42 28.5917L169.138 28.6004L173.058 18.3798L175.853 28.609L177.576 28.6177L184.356 6.07794Z" fill="#595757"/>
<path d="M143.621 25.1604C144.718 26.2165 146 27.0627 147.403 27.6571C148.823 28.2694 150.352 28.5902 151.899 28.6004C152.553 28.6047 153.207 28.5438 153.85 28.4187C154.443 28.3062 155.01 28.185 155.542 28.0422L156.901 27.6658C157.353 27.4701 157.862 27.45 158.329 27.6095C158.454 27.7186 158.548 27.859 158.601 28.0163L158.666 28.1634H159.614V21.0064H158.67L158.623 21.1925C158.434 22.0309 158.143 22.8431 157.757 23.6113C157.385 24.3615 156.904 25.0527 156.329 25.6623C155.772 26.2479 155.116 26.7312 154.391 27.0903C153.631 27.4553 152.797 27.639 151.955 27.6268C150.957 27.6495 149.964 27.4867 149.025 27.1465C148.219 26.8152 147.539 26.2364 147.082 25.4936C146.498 24.4766 146.114 23.3575 145.949 22.1963C145.682 20.4323 145.559 18.6494 145.581 16.8654C145.581 15.2341 145.646 13.7109 145.767 12.3436C145.855 11.1389 146.143 9.9574 146.619 8.8473C147.013 7.93104 147.669 7.15235 148.506 6.6102C149.562 6.02378 150.761 5.74497 151.968 5.80536C152.903 5.77138 153.832 5.96908 154.672 6.38087C155.377 6.75261 156 7.26338 156.503 7.88236C157.005 8.50226 157.422 9.18616 157.744 9.91609C158.047 10.6301 158.32 11.3613 158.567 12.0796L158.623 12.2527H159.454V5.38564H158.493L158.445 5.58036C158.38 5.8746 158.294 5.9395 158.264 5.96114C158.089 6.02234 157.903 6.04737 157.718 6.0347C157.396 6.02638 157.076 5.96949 156.771 5.86594L155.442 5.46785C154.932 5.32939 154.391 5.19525 153.833 5.07409C153.212 4.9459 152.58 4.8821 151.946 4.8837C150.515 4.90272 149.1 5.19652 147.779 5.74911C144.892 6.90207 142.536 9.08545 141.167 11.8763C140.429 13.3587 140.031 14.9871 140.002 16.6429C139.973 18.2988 140.313 19.9402 140.999 21.4478C141.631 22.8396 142.52 24.0993 143.621 25.1604Z" fill="#595757"/>
<path d="M211.46 5.35095V6.29426H214.295V27.1638H211.46V28.1071H222.278V27.1638H219.37V17.311H221.261C221.858 17.2889 222.451 17.4091 222.992 17.6615C223.439 17.8902 223.831 18.2119 224.143 18.6048C224.475 19.026 224.732 19.5019 224.9 20.0111C225.103 20.5779 225.274 21.1558 225.411 21.7419V21.9323H226.276V11.7291H225.411V11.9281C225.269 12.5736 225.069 13.205 224.814 13.8147C224.616 14.3231 224.335 14.7953 223.983 15.2124C223.642 15.5874 223.222 15.8828 222.754 16.0778C222.15 16.3038 221.508 16.4096 220.863 16.3893H219.353V6.27695H223.832C224.538 6.26465 225.241 6.37594 225.909 6.6058C226.478 6.81512 227 7.13579 227.445 7.54911C227.906 7.9843 228.297 8.4878 228.604 9.04195C228.971 9.67988 229.288 10.3454 229.552 11.0324L229.617 11.1925H230.439V5.35095H211.46Z" fill="#595757"/>
<path d="M208.419 20.855H207.748V20.9632C207.549 21.8224 207.251 22.6559 206.861 23.447C206.485 24.1906 205.992 24.8698 205.403 25.459C204.823 26.0193 204.146 26.4681 203.404 26.7831C202.594 27.1033 201.73 27.2634 200.859 27.2548H195.853V17.2246H197.8C198.408 17.2085 199.012 17.3313 199.566 17.5838C200.023 17.8108 200.426 18.1341 200.747 18.5314C201.084 18.9662 201.346 19.4548 201.522 19.9766C201.712 20.5305 201.889 21.1103 202.032 21.7075V21.8286H202.703V11.8028H202.032V11.9153C201.903 12.561 201.716 13.1938 201.474 13.8062C201.271 14.3234 200.988 14.8054 200.634 15.2342C200.281 15.6452 199.836 15.9682 199.336 16.1775C198.733 16.399 198.093 16.5047 197.45 16.489H195.84V6.18191H201.387C202.261 6.15971 203.127 6.35133 203.91 6.7401C204.565 7.07243 205.152 7.52447 205.641 8.07284C206.056 8.54429 206.402 9.07156 206.671 9.63924C206.877 10.0727 207.051 10.5211 207.19 10.9806V11.0845H207.861V5.41602H188.181V6.15595H191.015V27.2591H187.835V27.9947H208.419V20.855Z" fill="#009FD1"/>
<line x1="238.439" y1="2.10974" x2="246.439" y2="2.10974" stroke="#939EA7"/>
<path d="M246.378 48.0627V1.65057" stroke="#939EA7"/>
<path d="M238.439 47.6055H246.439" stroke="#939EA7"/>
<path d="M258.047 30.4185V31.731H250.87L250.815 30.7397L255.108 24.0132H256.427L254.999 26.4604L252.531 30.4185H258.047ZM256.803 24.0132V33.9663H255.156V24.0132H256.803ZM260.737 29.3384L259.425 29.0171L259.965 24.0132H265.331V25.4077H261.332L261.059 27.8481C261.214 27.757 261.428 27.6681 261.701 27.5815C261.975 27.4904 262.287 27.4448 262.638 27.4448C263.107 27.4448 263.527 27.5223 263.896 27.6772C264.269 27.8276 264.586 28.0487 264.846 28.3403C265.106 28.6274 265.304 28.9784 265.441 29.3931C265.577 29.8032 265.646 30.2658 265.646 30.7808C265.646 31.241 265.577 31.6717 265.441 32.0728C265.308 32.4738 265.108 32.827 264.839 33.1323C264.57 33.4377 264.231 33.6769 263.82 33.8501C263.415 34.0187 262.934 34.103 262.378 34.103C261.963 34.103 261.565 34.0438 261.182 33.9253C260.804 33.8022 260.464 33.6222 260.163 33.3853C259.862 33.1437 259.621 32.8475 259.439 32.4966C259.256 32.1411 259.152 31.7332 259.124 31.2729H260.737C260.778 31.5965 260.867 31.8722 261.004 32.1001C261.145 32.3234 261.332 32.4943 261.565 32.6128C261.797 32.7313 262.066 32.7905 262.371 32.7905C262.649 32.7905 262.888 32.7427 263.089 32.647C263.29 32.5467 263.456 32.4054 263.588 32.2231C263.725 32.0363 263.825 31.8175 263.889 31.5669C263.957 31.3162 263.991 31.0382 263.991 30.7329C263.991 30.4412 263.953 30.1746 263.875 29.9331C263.802 29.6916 263.691 29.4819 263.54 29.3042C263.394 29.1265 263.21 28.9897 262.986 28.894C262.763 28.7938 262.506 28.7437 262.214 28.7437C261.822 28.7437 261.521 28.8006 261.312 28.9146C261.107 29.0285 260.915 29.1698 260.737 29.3384Z" fill="#171717"/>
<line x1="129.5" y1="64.7625" x2="129.5" y2="56.7625" stroke="#939EA7"/>
<line x1="130.006" y1="64.2625" x2="141.006" y2="64.4015" stroke="#939EA7"/>
<line x1="140.5" y1="64.7625" x2="140.5" y2="56.7625" stroke="#939EA7"/>
<path d="M132.363 71.9142V81.9015H130.716V73.8693L128.275 74.6964V73.3361L132.165 71.9142H132.363ZM142.169 76.0909V77.7179C142.169 78.4972 142.092 79.1626 141.937 79.714C141.786 80.2609 141.568 80.7052 141.281 81.047C140.993 81.3888 140.649 81.6394 140.248 81.799C139.852 81.9585 139.408 82.0382 138.915 82.0382C138.523 82.0382 138.159 81.9881 137.822 81.8878C137.489 81.7876 137.188 81.6303 136.919 81.4161C136.65 81.2019 136.42 80.9262 136.229 80.589C136.042 80.2472 135.896 79.8393 135.791 79.3654C135.691 78.8914 135.641 78.3422 135.641 77.7179V76.0909C135.641 75.3071 135.718 74.6463 135.873 74.1085C136.028 73.5662 136.249 73.1264 136.536 72.7892C136.824 72.4474 137.165 72.199 137.562 72.0441C137.963 71.8891 138.409 71.8116 138.902 71.8116C139.298 71.8116 139.663 71.8618 139.995 71.962C140.333 72.0577 140.633 72.2104 140.898 72.42C141.167 72.6297 141.395 72.9031 141.581 73.2404C141.773 73.573 141.919 73.9764 142.019 74.4503C142.119 74.9197 142.169 75.4666 142.169 76.0909ZM140.522 77.9503V75.8448C140.522 75.4484 140.499 75.0997 140.453 74.799C140.408 74.4936 140.34 74.2361 140.248 74.0265C140.162 73.8123 140.052 73.6391 139.92 73.507C139.788 73.3702 139.638 73.2723 139.469 73.213C139.3 73.1492 139.111 73.1173 138.902 73.1173C138.646 73.1173 138.419 73.1674 138.218 73.2677C138.018 73.3634 137.849 73.5184 137.712 73.7325C137.576 73.9467 137.471 74.2293 137.398 74.5802C137.329 74.9266 137.295 75.3481 137.295 75.8448V77.9503C137.295 78.3514 137.318 78.7045 137.364 79.0099C137.409 79.3152 137.478 79.5773 137.569 79.796C137.66 80.0102 137.769 80.1879 137.897 80.3292C138.029 80.4659 138.179 80.5662 138.348 80.63C138.521 80.6938 138.71 80.7257 138.915 80.7257C139.175 80.7257 139.405 80.6756 139.606 80.5753C139.806 80.4751 139.975 80.3156 140.112 80.0968C140.248 79.8735 140.351 79.5841 140.419 79.2286C140.488 78.8732 140.522 78.4471 140.522 77.9503Z" fill="#171717"/>
<defs>
<clipPath id="clip0_811_3336">
<rect width="130" height="47.8117" fill="white" transform="translate(0 0.950806)"/>
</clipPath>
</defs>
</svg>
