<?xml version="1.0" encoding="utf-8"?>
<!-- Generator: Adobe Illustrator 25.2.3, SVG Export Plug-In . SVG Version: 6.00 Build 0)  -->
<svg version="1.1" id="圖層_1" xmlns="http://www.w3.org/2000/svg" xmlns:xlink="http://www.w3.org/1999/xlink" x="0px" y="0px"
	 viewBox="0 0 793 80.2" style="enable-background:new 0 0 793 80.2;" xml:space="preserve">
<style type="text/css">
	.st0{opacity:0.1;enable-background:new    ;}
	.st1{fill:#D60C18;}
	.st2{fill:#FFFFFF;}
	.st3{enable-background:new    ;}
</style>
<rect class="st0" width="158.6" height="80"/>
<path class="st1" d="M48.2,33.4c0.4,0.3,1,0.4,1.5,0.3c0.5-0.1,1-0.3,1.4-0.4c0.8-0.2,1.7-0.5,2.5-0.7c0.4-0.1,0.8-0.2,1.3-0.3
	c0.2,0,0.4-0.1,0.6-0.1c0.2-0.1,0.4-0.2,0.5-0.3c0.3-0.1,0.5-0.2,0.8-0.4c0.8-0.3,2.5-0.7,2.1-2c-0.1-0.4-0.5-0.6-0.9-0.8
	c-0.4-0.2-0.8-0.2-1.2-0.1c-0.4,0-0.8,0.1-1.1,0.4c-0.4,0.5-1.1,0.7-1.6,1.1c-0.2,0.1-0.4,0.1-0.6,0.3c-0.1,0.1-0.1,0.1-0.2,0.2
	c-0.1,0-0.2,0-0.3,0c-0.2,0-0.4,0-0.5,0.1c-0.5,0.1-1,0.2-1.5,0.4c-0.2,0.1-0.5,0.3-0.7,0.4c-0.2,0.1-0.4,0.1-0.6,0.1
	c-0.2,0-0.4,0-0.6,0.1l-0.6,0.1l-0.3,0c-0.1,0-0.3,0-0.3,0c-0.1,0.1-0.1,0.2-0.2,0.3c0,0.1,0,0.2,0.1,0.3
	C47.8,32.7,47.8,33.1,48.2,33.4z"/>
<path class="st1" d="M80.7,32.8c0.4-0.1,0.7-0.2,0.9-0.6c0.1-0.1,0.1-0.2,0.2-0.4c0.1-0.2,0.2-0.5,0.2-0.8c-0.1-0.2-0.3-0.4-0.5-0.5
	c-0.4-0.2-0.8-0.3-1.2-0.4c-0.5-0.1-1-0.2-1.5-0.3c-0.3,0-0.6,0-0.9,0.1c-0.6,0.1-1.1,0.3-1.6,0.6c-0.6,0.3-1.3,0.1-1.9,0.5
	c-0.2,0.1-0.5,0.2-0.8,0.2c-0.3,0.1-0.6,0.2-1,0.3c-0.6,0.2-1.1,0.4-1.7,0.5c-0.4,0.1-0.8,0-1.2,0.2c-0.2,0.1-0.3,0.2-0.5,0.3
	c-0.2,0.1-0.4,0.1-0.5,0.2c-0.6,0.2-1.3,0.4-2,0.6c-1.2,0.4-2.4,0.2-3.6,0.5c-0.3,0.1-0.7,0.1-1,0.4c-0.1,0.4,0.2,0.6,0.5,0.8
	c0.3,0.2,0.5,0.6,0.8,0.8c0.3,0.2,0.6,0.3,0.9,0.4c0.7,0.3,1.3,0.7,2.1,0.8c0.4,0.1,1.3,0.2,1.6-0.1c0.4-0.3,0.9-0.5,1.4-0.8
	c0.2-0.1,0.4-0.3,0.6-0.5c0.2-0.1,0.5-0.3,0.7-0.4c0.3-0.3,0.6-0.5,0.9-0.7c0.4-0.1,0.8-0.5,1.2-0.2c0.2,0.1,0.1,0.3,0.1,0.4
	c0,0.2,0.1,0.4,0.1,0.6c0,0.2,0,0.4-0.1,0.6v0.3c0.2,4-0.1,7.8-0.5,11.8c-0.2,0.5,0,0.9,0.1,1.4c0,0.2,0.1,0.4,0.1,0.6
	c0.2,0.3,0.5,0.6,0.8,0.8c0.7,0.2,1.7,0.4,2.2-0.3c0.6-0.3,0.7-0.8,0.8-1.4c0.1-0.5,0.1-1,0.2-1.6c0-0.4-0.1-0.8-0.2-1.2
	c0-0.2-0.1-0.4-0.1-0.6c-0.1-0.3-0.2-0.7-0.2-1c-0.2-1.6-0.4-3.2-0.4-4.8c0-1.1-0.2-2.4-0.4-3.3c-0.3-0.7,0.1-1.4-0.2-2.1
	c-0.1-0.3-0.1-0.8-0.1-1.1c0-0.3,0.2-0.4,0.5-0.6c0.1-0.1,0.2-0.1,0.3-0.2c0.1-0.1,0.2-0.1,0.3-0.1c0.1,0,0.2-0.1,0.3-0.1
	c0.7-0.2,1.6-0.3,2.3,0.1c0.2,0.1,0.4,0.2,0.6,0.3C79.9,32.9,80.3,32.9,80.7,32.8z"/>
<path class="st1" d="M67.2,47.8c-0.2-0.1-0.3-0.3-0.5-0.3c-0.2-0.1-0.4-0.1-0.6-0.2c-0.5-0.2-1-0.5-1.5-0.8
	c-0.1-0.1-0.2-0.2-0.3-0.2c-0.1,0-0.2,0-0.3,0c-0.2,0-0.3-0.2-0.5-0.3c-0.1,0-0.2-0.1-0.3-0.1c-0.2-0.2-0.4-0.3-0.6-0.4
	c-0.2-0.1-0.4-0.2-0.7-0.3c-0.2-0.1-0.4-0.2-0.5-0.4c-0.3-0.3-0.6-0.6-1-0.8c-1.3-0.6-2.2-2.1-3.1-3.1c-0.6-0.6-1.4-1.4-1.4-2.4
	c0.3-0.6,1-0.8,1.6-1.1c0.7-0.5,1.7-0.8,2.1-1.6c0.1-0.2,0.1-0.3,0.1-0.5c0-0.2-0.1-0.3-0.1-0.5c-0.2-0.5-0.8-0.5-1.2-0.6
	c-0.3,0-0.6,0-0.8,0.1c-0.4,0.2-0.8,0.4-1.2,0.8c-0.2,0.1-0.3,0.3-0.5,0.5c-0.2,0.1-0.4,0.2-0.6,0.2c-0.1,0.1-0.2,0.1-0.3,0.1
	c-0.1,0-0.2-0.1-0.3-0.2c-0.2-0.5-0.4-0.9-0.7-1.3c-0.1-0.1-0.2-0.1-0.3-0.1c-0.1,0-0.2-0.1-0.3-0.1c-0.2,0-0.4,0.1-0.5,0.1
	c-0.2,0-0.4,0-0.6,0c-0.2,0.1-0.4,0.3-0.6,0.5c-0.2,0.2-0.1,0.4-0.1,0.7c0,0.2-0.1,0.4-0.1,0.5c0,0.2-0.1,0.4-0.1,0.5
	c0,0.2,0.1,0.3,0.1,0.5c0,0.2,0,0.5-0.1,0.7c-0.1,0.2-0.3,0.4-0.4,0.5c-0.2,0.1-0.4,0.3-0.6,0.4c-0.2,0.1-0.5,0.2-0.7,0.3
	c-0.2,0.1-0.4,0.2-0.6,0.4c-0.2,0.1-0.4,0.3-0.6,0.4c-0.2,0.1-0.5,0.2-0.7,0.3c-0.4,0.2-0.8,0.2-1.2,0.4c-0.4,0.1-1.1-0.1-1.3,0.4
	c0.1,0.5,0.3,0.9,0.6,1.2c0.2,0.5,0.9,0.7,1.3,1c0.7,0.2,1.3-0.1,2-0.1c0.2,0.9,0.2,1.8-0.4,2.5c-0.1,0.4-0.3,0.7-0.5,1
	c-0.1,0.1-0.2,0.3-0.4,0.4c-0.1,0.1-0.2,0.3-0.3,0.4c-0.1,0.1-0.3,0.3-0.4,0.4c-0.2,0.1-0.3,0-0.5-0.2c-0.1-0.1-0.2-0.1-0.4-0.1
	c-0.3-0.1-0.5,0-0.8,0c-0.2,0.1-0.3,0.2-0.4,0.4c-0.1,0.1-0.3,0.3-0.3,0.5c0,0.1,0.1,0.2,0.1,0.4c0.1,0.2,0,0.4,0.1,0.6
	c0.1,0.2,0.1,0.2,0.1,0.5c0,0.1,0.1,0.2,0.1,0.3c0.1,0.1,0.2,0.3,0.4,0.4c0.1,0.1,0.3,0.2,0.4,0.2c0.1,0,0.3,0.1,0.4,0.1
	c0.3,0.2,0.6,0.2,0.9,0.2c0.5,0,0.9-0.2,1.4-0.4c0.2-0.1,0.4-0.1,0.7-0.2c0.2-0.1,0.4-0.3,0.5-0.4c0.2-0.2,0.4-0.4,0.6-0.6
	c0.4-0.4,0.7-0.8,1-1.2c0.1-0.2,0.3-0.4,0.4-0.7c0.1-0.2,0.2-0.4,0.3-0.6c0.1-0.1,0.1-0.2,0.2-0.3c0.1-0.2,0.2-0.4,0.2-0.7
	c0-0.2,0.1-0.4,0.2-0.6c0.1-0.3,0.2-0.7,0.2-1.1c0-0.2,0.1-0.3,0.1-0.5c0-0.2,0-0.4,0.1-0.6c0.1-0.3,0.2-0.6,0.3-0.8
	c0.4,0.1,0.8,0.3,1,0.6c0.1,0.2,0.3,0.3,0.4,0.4c0.2,0.2,0.3,0.4,0.5,0.5c0.5,0.4,0.9,1.1,1.3,1.6c0.5,0.7,0.9,1.4,1.4,2
	c0.5,0.7,0.9,1.3,1.5,1.8c0.5,0.4,0.9,0.8,1.5,1.1c0.4,0.2,0.9,0.2,1.3,0.2c0.8,0,1.5-0.1,2.3-0.1c0.4,0,0.8-0.1,1.1-0.1
	c0.2,0,0.4,0,0.5,0c0.3,0,0.6-0.2,1-0.2c0.3-0.1,0.7-0.1,0.9-0.4c0.1-0.1,0.1-0.2,0.2-0.4c0-0.1,0-0.3,0-0.4
	C67.9,48.2,67.5,48,67.2,47.8z"/>
<path class="st1" d="M88.3,33.6c0.2,0.3,0.4,0.6,0.5,0.9l0.5-0.5c-0.3-0.3-0.6-0.6-0.9-0.8c0.1-0.3,0.2-0.5,0.3-0.8L88,32.2
	c-0.2,0.9-0.5,1.8-0.9,2.7l0.3,0.2C87.7,34.6,88.1,34.1,88.3,33.6z"/>
<path class="st1" d="M94.3,32.1c-0.2-0.6-0.6-1.1-1-1.6L93,30.7c0.2,0.6,0.4,1.2,0.5,1.8L94.3,32.1z"/>
<path class="st1" d="M91.3,31.7h-1.7l0.4-0.5c-0.5-0.3-1-0.6-1.6-0.7l-0.1,0.3c0.4,0.3,0.7,0.6,1,1h-2.1v0.4h4.1V31.7z"/>
<path class="st1" d="M88.9,37v2.5h0.8v-2.7c0.3,0.4,0.7,0.8,0.9,1.2l0.6-0.6c-0.5-0.4-1-0.8-1.5-1V36h1.6v-0.4h-1.6v-0.9h-0.2
	c0.2-0.3,0.4-0.7,0.6-1c0.2,0.3,0.4,0.6,0.5,0.9l0.4-0.4c-0.1,0.2-0.2,0.5-0.3,0.7l0.3,0.2c0.1-0.2,0.3-0.4,0.4-0.6v5h0.8v-0.7h3.2
	v-0.4h-1.4v-1.6h1.1v-0.4h-1.1v-1.5h1.1v-0.4h-1.1V33h1.3v-0.4h-3.1c0.2-0.6,0.3-1.2,0.3-1.8l-0.9-0.2C91.6,32,91.5,33,91.2,34
	c-0.2-0.3-0.5-0.5-0.8-0.7c0.1-0.3,0.2-0.5,0.3-0.8l-0.8-0.2c-0.1,0.8-0.3,1.7-0.7,2.4h-0.2v0.9h-1.8V36h1.6c-0.4,1-1,1.8-1.8,2.6
	l0.2,0.3C87.8,38.3,88.4,37.7,88.9,37z M92.3,33h0.9v1.3h-0.9L92.3,33z M92.3,34.7h0.9v1.5h-0.9L92.3,34.7z M92.3,36.6h0.9v1.6h-0.9
	L92.3,36.6z"/>
<path class="st1" d="M104.4,35.8c-0.5-0.4-1.1-0.8-1.7-1l-0.2,0.3c0.5,0.4,0.9,0.9,1.3,1.4L104.4,35.8z"/>
<path class="st1" d="M102.9,34.3h-1.7v0.4h4.5v-0.4h-1.9v-1.6h2v-0.4h-2v-1.6h-0.8v1.6h-1.9v0.4h1.9V34.3z"/>
<path class="st1" d="M106,37.8c-0.3-0.7-0.8-1.3-1.3-1.9l-0.3,0.2c0.3,0.7,0.6,1.4,0.8,2.1L106,37.8z"/>
<path class="st1" d="M102,38.1c0,1,0.2,1.1,1.6,1.1c1.5,0,1.4-0.6,1-2.2h-0.3c0,1.3,0,1.4-0.7,1.4c-0.6,0-0.7-0.1-0.7-0.5v-2.3H102
	V38.1z"/>
<path class="st1" d="M100.7,32.2h-1.4l0.5-0.4c-0.4-0.5-0.9-0.9-1.5-1.3l-0.2,0.2c0.2,0.3,0.6,0.9,0.9,1.4h-1.5v0.4h3.1V32.2z"/>
<path class="st1" d="M99.7,39.3h0.7v-1.2l0.6,0.5c0.4-0.6,0.7-1.4,0.7-2.4l-0.3-0.1c-0.1,0.7-0.5,1.4-1,1.9v-1.9h-2.5v3.3h0.7v-0.7
	h1.1L99.7,39.3z M99.7,38.3h-1.1v-1.7h1.1V38.3z"/>
<path class="st1" d="M100.5,34.8h-2.7v0.4h2.7V34.8z"/>
<path class="st1" d="M100.5,33.5h-2.7v0.4h2.7V33.5z"/>
<path class="st1" d="M83.6,38.9L83.6,38.9c-0.2-0.1-0.3-0.2-0.5-0.3c-0.2-0.1-0.5,0-0.7-0.1c-0.3-0.1-0.6-0.1-0.9-0.2
	c-0.4-0.1-0.8-0.1-1.2,0c-0.2,0-0.4,0.1-0.5,0.3c-0.1,0.1-0.1,0.3-0.1,0.4c0,0.1,0,0.3,0,0.4c0,0.5,0.2,1,0.4,1.5
	c0.1,0.2,0.3,0.5,0.5,0.7c0.2,0.2,0.3,0.4,0.6,0.6c0.2,0.1,0.4,0.3,0.5,0.4c0.1,0.1,0.1,0.2,0.3,0.3c0.3,0.1,0.6,0.1,0.9,0.1
	c0.4,0,0.8,0,1.2-0.1c0.3-0.1,0.3-0.3,0.6-0.4c0.2-0.1,0.3-0.2,0.4-0.4c0.5-1.1-0.1-2-0.8-2.8C84,39.1,83.8,39,83.6,38.9z"/>
<rect x="158.6" class="st1" width="158.6" height="80"/>
<path class="st2" d="M206.8,33.4c0.4,0.3,1,0.4,1.5,0.3c0.5-0.1,1-0.3,1.4-0.4c0.8-0.2,1.7-0.5,2.5-0.7c0.4-0.1,0.8-0.2,1.3-0.3
	c0.2,0,0.4-0.1,0.6-0.1c0.2-0.1,0.4-0.2,0.5-0.3c0.3-0.1,0.5-0.2,0.8-0.4c0.8-0.3,2.5-0.7,2.1-2c-0.1-0.4-0.5-0.6-0.9-0.8
	c-0.4-0.2-0.8-0.2-1.2-0.1c-0.4,0-0.8,0.1-1.1,0.4c-0.4,0.5-1.1,0.7-1.6,1.1c-0.2,0.1-0.4,0.1-0.6,0.3c-0.1,0.1-0.1,0.1-0.2,0.2
	c-0.1,0-0.2,0-0.3,0c-0.2,0-0.4,0-0.5,0.1c-0.5,0.1-1,0.2-1.5,0.4c-0.2,0.1-0.5,0.3-0.7,0.4c-0.2,0.1-0.4,0.1-0.6,0.1
	c-0.2,0-0.4,0-0.6,0.1l-0.6,0.1l-0.3,0c-0.1,0-0.3,0-0.3,0c-0.1,0.1-0.1,0.2-0.2,0.3c0,0.1,0,0.2,0.1,0.3
	C206.4,32.7,206.4,33.1,206.8,33.4z"/>
<path class="st2" d="M239.3,32.8c0.4-0.1,0.7-0.2,0.9-0.6c0.1-0.1,0.1-0.2,0.2-0.4c0.1-0.2,0.2-0.5,0.2-0.8
	c-0.1-0.2-0.3-0.4-0.5-0.5c-0.4-0.2-0.8-0.3-1.2-0.4c-0.5-0.1-1-0.2-1.5-0.3c-0.3,0-0.6,0-0.9,0.1c-0.6,0.1-1.1,0.3-1.6,0.6
	c-0.6,0.3-1.3,0.1-1.9,0.5c-0.2,0.1-0.5,0.2-0.8,0.2c-0.3,0.1-0.6,0.2-1,0.3c-0.6,0.2-1.1,0.4-1.7,0.5c-0.4,0.1-0.8,0-1.2,0.2
	c-0.2,0.1-0.3,0.2-0.5,0.3c-0.2,0.1-0.4,0.1-0.5,0.2c-0.6,0.2-1.3,0.4-2,0.6c-1.2,0.4-2.4,0.2-3.6,0.5c-0.3,0.1-0.7,0.1-1,0.4
	c-0.1,0.4,0.2,0.6,0.5,0.8c0.3,0.2,0.5,0.6,0.8,0.8c0.3,0.2,0.6,0.3,0.9,0.4c0.7,0.3,1.3,0.7,2.1,0.8c0.4,0.1,1.3,0.2,1.6-0.1
	c0.4-0.3,0.9-0.5,1.4-0.8c0.2-0.1,0.4-0.3,0.6-0.5c0.2-0.1,0.5-0.3,0.7-0.4c0.3-0.3,0.6-0.5,0.9-0.7c0.4-0.1,0.8-0.5,1.2-0.2
	c0.2,0.1,0.1,0.3,0.1,0.4c0,0.2,0.1,0.4,0.1,0.6c0,0.2,0,0.4-0.1,0.6v0.3c0.2,4-0.1,7.8-0.5,11.8c-0.2,0.5,0,0.9,0.1,1.4
	c0,0.2,0.1,0.4,0.1,0.6c0.2,0.3,0.5,0.6,0.8,0.8c0.7,0.2,1.7,0.4,2.2-0.3c0.6-0.3,0.7-0.8,0.8-1.4c0.1-0.5,0.1-1,0.2-1.6
	c0-0.4-0.1-0.8-0.2-1.2c0-0.2-0.1-0.4-0.1-0.6c-0.1-0.3-0.2-0.7-0.2-1c-0.2-1.6-0.4-3.2-0.4-4.8c0-1.1-0.2-2.4-0.4-3.3
	c-0.3-0.7,0.1-1.4-0.2-2.1c-0.1-0.3-0.1-0.8-0.1-1.1c0-0.3,0.2-0.4,0.5-0.6c0.1-0.1,0.2-0.1,0.3-0.2c0.1-0.1,0.2-0.1,0.3-0.1
	c0.1,0,0.2-0.1,0.3-0.1c0.7-0.2,1.6-0.3,2.3,0.1c0.2,0.1,0.4,0.2,0.6,0.3C238.5,32.9,238.9,32.9,239.3,32.8z"/>
<path class="st2" d="M225.8,47.8c-0.2-0.1-0.3-0.3-0.5-0.3c-0.2-0.1-0.4-0.1-0.6-0.2c-0.5-0.2-1-0.5-1.5-0.8
	c-0.1-0.1-0.2-0.2-0.3-0.2c-0.1,0-0.2,0-0.3,0c-0.2,0-0.3-0.2-0.5-0.3c-0.1,0-0.2-0.1-0.3-0.1c-0.2-0.2-0.4-0.3-0.6-0.4
	c-0.2-0.1-0.4-0.2-0.7-0.3c-0.2-0.1-0.4-0.2-0.5-0.4c-0.3-0.3-0.6-0.6-1-0.8c-1.3-0.6-2.2-2.1-3.1-3.1c-0.6-0.6-1.4-1.4-1.4-2.4
	c0.3-0.6,1-0.8,1.6-1.1c0.7-0.5,1.7-0.8,2.1-1.6c0.1-0.2,0.1-0.3,0.1-0.5c0-0.2-0.1-0.3-0.1-0.5c-0.2-0.5-0.8-0.5-1.2-0.6
	c-0.3,0-0.6,0-0.8,0.1c-0.4,0.2-0.8,0.4-1.2,0.8c-0.2,0.1-0.3,0.3-0.5,0.5c-0.2,0.1-0.4,0.2-0.6,0.2c-0.1,0.1-0.2,0.1-0.3,0.1
	c-0.1,0-0.2-0.1-0.3-0.2c-0.2-0.5-0.4-0.9-0.7-1.3c-0.1-0.1-0.2-0.1-0.3-0.1c-0.1,0-0.2-0.1-0.3-0.1c-0.2,0-0.4,0.1-0.5,0.1
	c-0.2,0-0.4,0-0.6,0c-0.2,0.1-0.4,0.3-0.6,0.5c-0.2,0.2-0.1,0.4-0.1,0.7c0,0.2-0.1,0.4-0.1,0.5c0,0.2-0.1,0.4-0.1,0.5
	c0,0.2,0.1,0.3,0.1,0.5c0,0.2,0,0.5-0.1,0.7c-0.1,0.2-0.3,0.4-0.4,0.5c-0.2,0.1-0.4,0.3-0.6,0.4c-0.2,0.1-0.5,0.2-0.7,0.3
	c-0.2,0.1-0.4,0.2-0.6,0.4c-0.2,0.1-0.4,0.3-0.6,0.4c-0.2,0.1-0.5,0.2-0.7,0.3c-0.4,0.2-0.8,0.2-1.2,0.4c-0.4,0.1-1.1-0.1-1.3,0.4
	c0.1,0.5,0.3,0.9,0.6,1.2c0.2,0.5,0.9,0.7,1.3,1c0.7,0.2,1.3-0.1,2-0.1c0.2,0.9,0.2,1.8-0.4,2.5c-0.1,0.4-0.3,0.7-0.5,1
	c-0.1,0.1-0.2,0.3-0.4,0.4c-0.1,0.1-0.2,0.3-0.3,0.4c-0.1,0.1-0.3,0.3-0.4,0.4c-0.2,0.1-0.3,0-0.5-0.2c-0.1-0.1-0.2-0.1-0.4-0.1
	c-0.3-0.1-0.5,0-0.8,0c-0.2,0.1-0.3,0.2-0.4,0.4c-0.1,0.1-0.3,0.3-0.3,0.5c0,0.1,0.1,0.2,0.1,0.4c0.1,0.2,0,0.4,0.1,0.6
	c0.1,0.2,0.1,0.2,0.1,0.5c0,0.1,0.1,0.2,0.1,0.3c0.1,0.1,0.2,0.3,0.4,0.4c0.1,0.1,0.3,0.2,0.4,0.2c0.1,0,0.3,0.1,0.4,0.1
	c0.3,0.2,0.6,0.2,0.9,0.2c0.5,0,0.9-0.2,1.4-0.4c0.2-0.1,0.4-0.1,0.7-0.2c0.2-0.1,0.4-0.3,0.5-0.4c0.2-0.2,0.4-0.4,0.6-0.6
	c0.4-0.4,0.7-0.8,1-1.2c0.1-0.2,0.3-0.4,0.4-0.7c0.1-0.2,0.2-0.4,0.3-0.6c0.1-0.1,0.1-0.2,0.2-0.3c0.1-0.2,0.2-0.4,0.2-0.7
	c0-0.2,0.1-0.4,0.2-0.6c0.1-0.3,0.2-0.7,0.2-1.1c0-0.2,0.1-0.3,0.1-0.5c0-0.2,0-0.4,0.1-0.6c0.1-0.3,0.2-0.6,0.3-0.8
	c0.4,0.1,0.8,0.3,1,0.6c0.1,0.2,0.3,0.3,0.4,0.4c0.2,0.2,0.3,0.4,0.5,0.5c0.5,0.4,0.9,1.1,1.3,1.6c0.5,0.7,0.9,1.4,1.4,2
	c0.5,0.7,0.9,1.3,1.5,1.8c0.5,0.4,0.9,0.8,1.5,1.1c0.4,0.2,0.9,0.2,1.3,0.2c0.8,0,1.5-0.1,2.3-0.1c0.4,0,0.8-0.1,1.1-0.1
	c0.2,0,0.4,0,0.5,0c0.3,0,0.6-0.2,1-0.2c0.3-0.1,0.7-0.1,0.9-0.4c0.1-0.1,0.1-0.2,0.2-0.4c0-0.1,0-0.3,0-0.4
	C226.5,48.2,226.1,48,225.8,47.8z"/>
<path class="st2" d="M246.9,33.6c0.2,0.3,0.4,0.6,0.5,0.9L248,34c-0.3-0.3-0.6-0.6-0.9-0.8c0.1-0.3,0.2-0.5,0.3-0.8l-0.8-0.2
	c-0.2,0.9-0.5,1.8-0.9,2.7l0.3,0.2C246.3,34.6,246.7,34.1,246.9,33.6z"/>
<path class="st2" d="M252.9,32.1c-0.2-0.6-0.6-1.1-1-1.6l-0.3,0.2c0.2,0.6,0.4,1.2,0.5,1.8L252.9,32.1z"/>
<path class="st2" d="M249.9,31.7h-1.7l0.4-0.5c-0.5-0.3-1-0.6-1.6-0.7l-0.1,0.3c0.4,0.3,0.7,0.6,1,1h-2.1v0.4h4.1V31.7z"/>
<path class="st2" d="M247.5,37v2.5h0.8v-2.7c0.3,0.4,0.7,0.8,0.9,1.2l0.6-0.6c-0.5-0.4-1-0.8-1.5-1V36h1.6v-0.4h-1.6v-0.9h-0.2
	c0.2-0.3,0.4-0.7,0.6-1c0.2,0.3,0.4,0.6,0.5,0.9l0.4-0.4c-0.1,0.2-0.2,0.5-0.3,0.7l0.3,0.2c0.1-0.2,0.3-0.4,0.4-0.6v5h0.8v-0.7h3.2
	v-0.4h-1.4v-1.6h1.1v-0.4h-1.1v-1.5h1.1v-0.4h-1.1V33h1.3v-0.4h-3.1c0.2-0.6,0.3-1.2,0.3-1.8l-0.9-0.2c-0.1,1.4-0.3,2.4-0.6,3.4
	c-0.2-0.3-0.5-0.5-0.8-0.7c0.1-0.3,0.2-0.5,0.3-0.8l-0.8-0.2c-0.1,0.8-0.3,1.7-0.7,2.4h-0.2v0.9h-1.8V36h1.6c-0.4,1-1,1.8-1.8,2.6
	l0.2,0.3C246.4,38.3,247,37.7,247.5,37z M250.9,33h0.9v1.3h-0.9L250.9,33z M250.9,34.7h0.9v1.5h-0.9L250.9,34.7z M250.9,36.6h0.9
	v1.6h-0.9L250.9,36.6z"/>
<path class="st2" d="M263,35.8c-0.5-0.4-1.1-0.8-1.7-1l-0.2,0.3c0.5,0.4,0.9,0.9,1.3,1.4L263,35.8z"/>
<path class="st2" d="M261.5,34.3h-1.7v0.4h4.5v-0.4h-1.9v-1.6h2v-0.4h-2v-1.6h-0.8v1.6h-1.9v0.4h1.9V34.3z"/>
<path class="st2" d="M264.6,37.8c-0.3-0.7-0.8-1.3-1.3-1.9l-0.3,0.2c0.3,0.7,0.6,1.4,0.8,2.1L264.6,37.8z"/>
<path class="st2" d="M260.6,38.1c0,1,0.2,1.1,1.6,1.1c1.5,0,1.4-0.6,1-2.2h-0.3c0,1.3,0,1.4-0.7,1.4c-0.6,0-0.7-0.1-0.7-0.5v-2.3
	h-0.8V38.1z"/>
<path class="st2" d="M259.3,32.2h-1.4l0.5-0.4c-0.4-0.5-0.9-0.9-1.5-1.3l-0.2,0.2c0.2,0.3,0.6,0.9,0.9,1.4h-1.5v0.4h3.1V32.2z"/>
<path class="st2" d="M258.3,39.3h0.7v-1.2l0.6,0.5c0.4-0.6,0.7-1.4,0.7-2.4l-0.3-0.1c-0.1,0.7-0.5,1.4-1,1.9v-1.9h-2.5v3.3h0.7v-0.7
	h1.1L258.3,39.3z M258.3,38.3h-1.1v-1.7h1.1V38.3z"/>
<path class="st2" d="M259.1,34.8h-2.7v0.4h2.7V34.8z"/>
<path class="st2" d="M259.1,33.5h-2.7v0.4h2.7V33.5z"/>
<path class="st2" d="M242.2,38.9L242.2,38.9c-0.2-0.1-0.3-0.2-0.5-0.3c-0.2-0.1-0.5,0-0.7-0.1c-0.3-0.1-0.6-0.1-0.9-0.2
	c-0.4-0.1-0.8-0.1-1.2,0c-0.2,0-0.4,0.1-0.5,0.3c-0.1,0.1-0.1,0.3-0.1,0.4c0,0.1,0,0.3,0,0.4c0,0.5,0.2,1,0.4,1.5
	c0.1,0.2,0.3,0.5,0.5,0.7c0.2,0.2,0.3,0.4,0.6,0.6c0.2,0.1,0.4,0.3,0.5,0.4c0.1,0.1,0.1,0.2,0.3,0.3c0.3,0.1,0.6,0.1,0.9,0.1
	c0.4,0,0.8,0,1.2-0.1c0.3-0.1,0.3-0.3,0.6-0.4c0.2-0.1,0.3-0.2,0.4-0.4c0.5-1.1-0.1-2-0.8-2.8C242.6,39.1,242.4,39,242.2,38.9z"/>
<rect x="317.2" class="st3" width="158.6" height="80"/>
<path class="st1" d="M365.4,33.4c0.4,0.3,1,0.4,1.5,0.3c0.5-0.1,1-0.3,1.4-0.4c0.8-0.2,1.7-0.5,2.5-0.7c0.4-0.1,0.8-0.2,1.3-0.3
	c0.2,0,0.4-0.1,0.6-0.1c0.2-0.1,0.4-0.2,0.5-0.3c0.3-0.1,0.5-0.2,0.8-0.4c0.8-0.3,2.5-0.7,2.1-2c-0.1-0.4-0.5-0.6-0.9-0.8
	c-0.4-0.2-0.8-0.2-1.2-0.1c-0.4,0-0.8,0.1-1.1,0.4c-0.4,0.5-1.1,0.7-1.6,1.1c-0.2,0.1-0.4,0.1-0.6,0.3c-0.1,0.1-0.1,0.1-0.2,0.2
	c-0.1,0-0.2,0-0.3,0c-0.2,0-0.4,0-0.5,0.1c-0.5,0.1-1,0.2-1.5,0.4c-0.2,0.1-0.5,0.3-0.7,0.4c-0.2,0.1-0.4,0.1-0.6,0.1
	c-0.2,0-0.4,0-0.6,0.1l-0.6,0.1l-0.3,0c-0.1,0-0.3,0-0.3,0c-0.1,0.1-0.1,0.2-0.2,0.3c0,0.1,0,0.2,0.1,0.3
	C365,32.7,365,33.1,365.4,33.4z"/>
<path class="st1" d="M397.9,32.8c0.4-0.1,0.7-0.2,0.9-0.6c0.1-0.1,0.1-0.2,0.2-0.4c0.1-0.2,0.2-0.5,0.2-0.8
	c-0.1-0.2-0.3-0.4-0.5-0.5c-0.4-0.2-0.8-0.3-1.2-0.4c-0.5-0.1-1-0.2-1.5-0.3c-0.3,0-0.6,0-0.9,0.1c-0.6,0.1-1.1,0.3-1.6,0.6
	c-0.6,0.3-1.3,0.1-1.9,0.5c-0.2,0.1-0.5,0.2-0.8,0.2c-0.3,0.1-0.6,0.2-1,0.3c-0.6,0.2-1.1,0.4-1.7,0.5c-0.4,0.1-0.8,0-1.2,0.2
	c-0.2,0.1-0.3,0.2-0.5,0.3c-0.2,0.1-0.4,0.1-0.5,0.2c-0.6,0.2-1.3,0.4-2,0.6c-1.2,0.4-2.4,0.2-3.6,0.5c-0.3,0.1-0.7,0.1-1,0.4
	c-0.1,0.4,0.2,0.6,0.5,0.8c0.3,0.2,0.5,0.6,0.8,0.8c0.3,0.2,0.6,0.3,0.9,0.4c0.7,0.3,1.3,0.7,2.1,0.8c0.4,0.1,1.3,0.2,1.6-0.1
	c0.4-0.3,0.9-0.5,1.4-0.8c0.2-0.1,0.4-0.3,0.6-0.5c0.2-0.1,0.5-0.3,0.7-0.4c0.3-0.3,0.6-0.5,0.9-0.7c0.4-0.1,0.8-0.5,1.2-0.2
	c0.2,0.1,0.1,0.3,0.1,0.4c0,0.2,0.1,0.4,0.1,0.6c0,0.2,0,0.4-0.1,0.6v0.3c0.2,4-0.1,7.8-0.5,11.8c-0.2,0.5,0,0.9,0.1,1.4
	c0,0.2,0.1,0.4,0.1,0.6c0.2,0.3,0.5,0.6,0.8,0.8c0.7,0.2,1.7,0.4,2.2-0.3c0.6-0.3,0.7-0.8,0.8-1.4c0.1-0.5,0.1-1,0.2-1.6
	c0-0.4-0.1-0.8-0.2-1.2c0-0.2-0.1-0.4-0.1-0.6c-0.1-0.3-0.2-0.7-0.2-1c-0.2-1.6-0.4-3.2-0.4-4.8c0-1.1-0.2-2.4-0.4-3.3
	c-0.3-0.7,0.1-1.4-0.2-2.1c-0.1-0.3-0.1-0.8-0.1-1.1c0-0.3,0.2-0.4,0.5-0.6c0.1-0.1,0.2-0.1,0.3-0.2c0.1-0.1,0.2-0.1,0.3-0.1
	c0.1,0,0.2-0.1,0.3-0.1c0.7-0.2,1.6-0.3,2.3,0.1c0.2,0.1,0.4,0.2,0.6,0.3C397.1,32.9,397.5,32.9,397.9,32.8z"/>
<path class="st1" d="M384.4,47.8c-0.2-0.1-0.3-0.3-0.5-0.3c-0.2-0.1-0.4-0.1-0.6-0.2c-0.5-0.2-1-0.5-1.5-0.8
	c-0.1-0.1-0.2-0.2-0.3-0.2c-0.1,0-0.2,0-0.3,0c-0.2,0-0.3-0.2-0.5-0.3c-0.1,0-0.2-0.1-0.3-0.1c-0.2-0.2-0.4-0.3-0.6-0.4
	c-0.2-0.1-0.4-0.2-0.7-0.3c-0.2-0.1-0.4-0.2-0.5-0.4c-0.3-0.3-0.6-0.6-1-0.8c-1.3-0.6-2.2-2.1-3.1-3.1c-0.6-0.6-1.4-1.4-1.4-2.4
	c0.3-0.6,1-0.8,1.6-1.1c0.7-0.5,1.7-0.8,2.1-1.6c0.1-0.2,0.1-0.3,0.1-0.5c0-0.2-0.1-0.3-0.1-0.5c-0.2-0.5-0.8-0.5-1.2-0.6
	c-0.3,0-0.6,0-0.8,0.1c-0.4,0.2-0.8,0.4-1.2,0.8c-0.2,0.1-0.3,0.3-0.5,0.5c-0.2,0.1-0.4,0.2-0.6,0.2c-0.1,0.1-0.2,0.1-0.3,0.1
	c-0.1,0-0.2-0.1-0.3-0.2c-0.2-0.5-0.4-0.9-0.7-1.3c-0.1-0.1-0.2-0.1-0.3-0.1c-0.1,0-0.2-0.1-0.3-0.1c-0.2,0-0.4,0.1-0.5,0.1
	c-0.2,0-0.4,0-0.6,0c-0.2,0.1-0.4,0.3-0.6,0.5c-0.2,0.2-0.1,0.4-0.1,0.7c0,0.2-0.1,0.4-0.1,0.5c0,0.2-0.1,0.4-0.1,0.5
	c0,0.2,0.1,0.3,0.1,0.5c0,0.2,0,0.5-0.1,0.7c-0.1,0.2-0.3,0.4-0.4,0.5c-0.2,0.1-0.4,0.3-0.6,0.4c-0.2,0.1-0.5,0.2-0.7,0.3
	c-0.2,0.1-0.4,0.2-0.6,0.4c-0.2,0.1-0.4,0.3-0.6,0.4c-0.2,0.1-0.5,0.2-0.7,0.3c-0.4,0.2-0.8,0.2-1.2,0.4c-0.4,0.1-1.1-0.1-1.3,0.4
	c0.1,0.5,0.3,0.9,0.6,1.2c0.2,0.5,0.9,0.7,1.3,1c0.7,0.2,1.3-0.1,2-0.1c0.2,0.9,0.2,1.8-0.4,2.5c-0.1,0.4-0.3,0.7-0.5,1
	c-0.1,0.1-0.2,0.3-0.4,0.4c-0.1,0.1-0.2,0.3-0.3,0.4c-0.1,0.1-0.3,0.3-0.4,0.4c-0.2,0.1-0.3,0-0.5-0.2c-0.1-0.1-0.2-0.1-0.4-0.1
	c-0.3-0.1-0.5,0-0.8,0c-0.2,0.1-0.3,0.2-0.4,0.4c-0.1,0.1-0.3,0.3-0.3,0.5c0,0.1,0.1,0.2,0.1,0.4c0.1,0.2,0,0.4,0.1,0.6
	c0.1,0.2,0.1,0.2,0.1,0.5c0,0.1,0.1,0.2,0.1,0.3c0.1,0.1,0.2,0.3,0.4,0.4c0.1,0.1,0.3,0.2,0.4,0.2c0.1,0,0.3,0.1,0.4,0.1
	c0.3,0.2,0.6,0.2,0.9,0.2c0.5,0,0.9-0.2,1.4-0.4c0.2-0.1,0.4-0.1,0.7-0.2c0.2-0.1,0.4-0.3,0.5-0.4c0.2-0.2,0.4-0.4,0.6-0.6
	c0.4-0.4,0.7-0.8,1-1.2c0.1-0.2,0.3-0.4,0.4-0.7c0.1-0.2,0.2-0.4,0.3-0.6c0.1-0.1,0.1-0.2,0.2-0.3c0.1-0.2,0.2-0.4,0.2-0.7
	c0-0.2,0.1-0.4,0.2-0.6c0.1-0.3,0.2-0.7,0.2-1.1c0-0.2,0.1-0.3,0.1-0.5c0-0.2,0-0.4,0.1-0.6c0.1-0.3,0.2-0.6,0.3-0.8
	c0.4,0.1,0.8,0.3,1,0.6c0.1,0.2,0.3,0.3,0.4,0.4c0.2,0.2,0.3,0.4,0.5,0.5c0.5,0.4,0.9,1.1,1.3,1.6c0.5,0.7,0.9,1.4,1.4,2
	c0.5,0.7,0.9,1.3,1.5,1.8c0.5,0.4,0.9,0.8,1.5,1.1c0.4,0.2,0.9,0.2,1.3,0.2c0.8,0,1.5-0.1,2.3-0.1c0.4,0,0.8-0.1,1.1-0.1
	c0.2,0,0.4,0,0.5,0c0.3,0,0.6-0.2,1-0.2c0.3-0.1,0.7-0.1,0.9-0.4c0.1-0.1,0.1-0.2,0.2-0.4c0-0.1,0-0.3,0-0.4
	C385.1,48.2,384.7,48,384.4,47.8z"/>
<path class="st1" d="M405.5,33.6c0.2,0.3,0.4,0.6,0.5,0.9l0.5-0.5c-0.3-0.3-0.6-0.6-0.9-0.8c0.1-0.3,0.2-0.5,0.3-0.8l-0.8-0.2
	c-0.2,0.9-0.5,1.8-0.9,2.7l0.3,0.2C404.9,34.6,405.3,34.1,405.5,33.6z"/>
<path class="st1" d="M411.5,32.1c-0.2-0.6-0.6-1.1-1-1.6l-0.3,0.2c0.2,0.6,0.4,1.2,0.5,1.8L411.5,32.1z"/>
<path class="st1" d="M408.5,31.7h-1.7l0.4-0.5c-0.5-0.3-1-0.6-1.6-0.7l-0.1,0.3c0.4,0.3,0.7,0.6,1,1h-2.1v0.4h4.1V31.7z"/>
<path class="st1" d="M406.1,37v2.5h0.8v-2.7c0.3,0.4,0.7,0.8,0.9,1.2l0.6-0.6c-0.5-0.4-1-0.8-1.5-1V36h1.6v-0.4h-1.6v-0.9h-0.2
	c0.2-0.3,0.4-0.7,0.6-1c0.2,0.3,0.4,0.6,0.5,0.9l0.4-0.4c-0.1,0.2-0.2,0.5-0.3,0.7l0.3,0.2c0.1-0.2,0.3-0.4,0.4-0.6v5h0.8v-0.7h3.2
	v-0.4h-1.4v-1.6h1.1v-0.4h-1.1v-1.5h1.1v-0.4h-1.1V33h1.3v-0.4h-3.1c0.2-0.6,0.3-1.2,0.3-1.8l-0.9-0.2c-0.1,1.4-0.3,2.4-0.6,3.4
	c-0.2-0.3-0.5-0.5-0.8-0.7c0.1-0.3,0.2-0.5,0.3-0.8l-0.8-0.2c-0.1,0.8-0.3,1.7-0.7,2.4h-0.2v0.9h-1.8V36h1.6c-0.4,1-1,1.8-1.8,2.6
	l0.2,0.3C405,38.3,405.6,37.7,406.1,37z M409.5,33h0.9v1.3h-0.9L409.5,33z M409.5,34.7h0.9v1.5h-0.9L409.5,34.7z M409.5,36.6h0.9
	v1.6h-0.9L409.5,36.6z"/>
<path class="st1" d="M421.6,35.8c-0.5-0.4-1.1-0.8-1.7-1l-0.2,0.3c0.5,0.4,0.9,0.9,1.3,1.4L421.6,35.8z"/>
<path class="st1" d="M420.1,34.3h-1.7v0.4h4.5v-0.4h-1.9v-1.6h2v-0.4h-2v-1.6h-0.8v1.6h-1.9v0.4h1.9V34.3z"/>
<path class="st1" d="M423.2,37.8c-0.3-0.7-0.8-1.3-1.3-1.9l-0.3,0.2c0.3,0.7,0.6,1.4,0.8,2.1L423.2,37.8z"/>
<path class="st1" d="M419.2,38.1c0,1,0.2,1.1,1.6,1.1c1.5,0,1.4-0.6,1-2.2h-0.3c0,1.3,0,1.4-0.7,1.4c-0.6,0-0.7-0.1-0.7-0.5v-2.3
	h-0.8V38.1z"/>
<path class="st1" d="M417.9,32.2h-1.4l0.5-0.4c-0.4-0.5-0.9-0.9-1.5-1.3l-0.2,0.2c0.2,0.3,0.6,0.9,0.9,1.4h-1.5v0.4h3.1V32.2z"/>
<path class="st1" d="M416.9,39.3h0.7v-1.2l0.6,0.5c0.4-0.6,0.7-1.4,0.7-2.4l-0.3-0.1c-0.1,0.7-0.5,1.4-1,1.9v-1.9h-2.5v3.3h0.7v-0.7
	h1.1L416.9,39.3z M416.9,38.3h-1.1v-1.7h1.1V38.3z"/>
<path class="st1" d="M417.7,34.8H415v0.4h2.7V34.8z"/>
<path class="st1" d="M417.7,33.5H415v0.4h2.7V33.5z"/>
<path class="st1" d="M400.8,38.9L400.8,38.9c-0.2-0.1-0.3-0.2-0.5-0.3c-0.2-0.1-0.5,0-0.7-0.1c-0.3-0.1-0.6-0.1-0.9-0.2
	c-0.4-0.1-0.8-0.1-1.2,0c-0.2,0-0.4,0.1-0.5,0.3c-0.1,0.1-0.1,0.3-0.1,0.4c0,0.1,0,0.3,0,0.4c0,0.5,0.2,1,0.4,1.5
	c0.1,0.2,0.3,0.5,0.5,0.7c0.2,0.2,0.3,0.4,0.6,0.6c0.2,0.1,0.4,0.3,0.5,0.4c0.1,0.1,0.1,0.2,0.3,0.3c0.3,0.1,0.6,0.1,0.9,0.1
	c0.4,0,0.8,0,1.2-0.1c0.3-0.1,0.3-0.3,0.6-0.4c0.2-0.1,0.3-0.2,0.4-0.4c0.5-1.1-0.1-2-0.8-2.8C401.2,39.1,401,39,400.8,38.9z"/>
<rect x="475.8" class="st0" width="158.6" height="80"/>
<path d="M524,33.4c0.4,0.3,1,0.4,1.5,0.3c0.5-0.1,1-0.3,1.4-0.4c0.8-0.2,1.7-0.5,2.5-0.7c0.4-0.1,0.8-0.2,1.3-0.3
	c0.2,0,0.4-0.1,0.6-0.1c0.2-0.1,0.4-0.2,0.5-0.3c0.3-0.1,0.5-0.2,0.8-0.4c0.8-0.3,2.5-0.7,2.1-2c-0.1-0.4-0.5-0.6-0.9-0.8
	c-0.4-0.2-0.8-0.2-1.2-0.1c-0.4,0-0.8,0.1-1.1,0.4c-0.4,0.5-1.1,0.7-1.6,1.1c-0.2,0.1-0.4,0.1-0.6,0.3c-0.1,0.1-0.1,0.1-0.2,0.2
	c-0.1,0-0.2,0-0.3,0c-0.2,0-0.4,0-0.5,0.1c-0.5,0.1-1,0.2-1.5,0.4c-0.2,0.1-0.5,0.3-0.7,0.4c-0.2,0.1-0.4,0.1-0.6,0.1
	c-0.2,0-0.4,0-0.6,0.1l-0.6,0.1l-0.3,0c-0.1,0-0.3,0-0.3,0c-0.1,0.1-0.1,0.2-0.2,0.3c0,0.1,0,0.2,0.1,0.3
	C523.6,32.7,523.6,33.1,524,33.4z"/>
<path d="M556.5,32.8c0.4-0.1,0.7-0.2,0.9-0.6c0.1-0.1,0.1-0.2,0.2-0.4c0.1-0.2,0.2-0.5,0.2-0.8c-0.1-0.2-0.3-0.4-0.5-0.5
	c-0.4-0.2-0.8-0.3-1.2-0.4c-0.5-0.1-1-0.2-1.5-0.3c-0.3,0-0.6,0-0.9,0.1c-0.6,0.1-1.1,0.3-1.6,0.6c-0.6,0.3-1.3,0.1-1.9,0.5
	c-0.2,0.1-0.5,0.2-0.8,0.2c-0.3,0.1-0.6,0.2-1,0.3c-0.6,0.2-1.1,0.4-1.7,0.5c-0.4,0.1-0.8,0-1.2,0.2c-0.2,0.1-0.3,0.2-0.5,0.3
	c-0.2,0.1-0.4,0.1-0.5,0.2c-0.6,0.2-1.3,0.4-2,0.6c-1.2,0.4-2.4,0.2-3.6,0.5c-0.3,0.1-0.7,0.1-1,0.4c-0.1,0.4,0.2,0.6,0.5,0.8
	c0.3,0.2,0.5,0.6,0.8,0.8c0.3,0.2,0.6,0.3,0.9,0.4c0.7,0.3,1.3,0.7,2.1,0.8c0.4,0.1,1.3,0.2,1.6-0.1c0.4-0.3,0.9-0.5,1.4-0.8
	c0.2-0.1,0.4-0.3,0.6-0.5c0.2-0.1,0.5-0.3,0.7-0.4c0.3-0.3,0.6-0.5,0.9-0.7c0.4-0.1,0.8-0.5,1.2-0.2c0.2,0.1,0.1,0.3,0.1,0.4
	c0,0.2,0.1,0.4,0.1,0.6c0,0.2,0,0.4-0.1,0.6v0.3c0.2,4-0.1,7.8-0.5,11.8c-0.2,0.5,0,0.9,0.1,1.4c0,0.2,0.1,0.4,0.1,0.6
	c0.2,0.3,0.5,0.6,0.8,0.8c0.7,0.2,1.7,0.4,2.2-0.3c0.6-0.3,0.7-0.8,0.8-1.4c0.1-0.5,0.1-1,0.2-1.6c0-0.4-0.1-0.8-0.2-1.2
	c0-0.2-0.1-0.4-0.1-0.6c-0.1-0.3-0.2-0.7-0.2-1c-0.2-1.6-0.4-3.2-0.4-4.8c0-1.1-0.2-2.4-0.4-3.3c-0.3-0.7,0.1-1.4-0.2-2.1
	c-0.1-0.3-0.1-0.8-0.1-1.1c0-0.3,0.2-0.4,0.5-0.6c0.1-0.1,0.2-0.1,0.3-0.2c0.1-0.1,0.2-0.1,0.3-0.1c0.1,0,0.2-0.1,0.3-0.1
	c0.7-0.2,1.6-0.3,2.3,0.1c0.2,0.1,0.4,0.2,0.6,0.3C555.7,32.9,556.1,32.9,556.5,32.8z"/>
<path d="M543,47.8c-0.2-0.1-0.3-0.3-0.5-0.3c-0.2-0.1-0.4-0.1-0.6-0.2c-0.5-0.2-1-0.5-1.5-0.8c-0.1-0.1-0.2-0.2-0.3-0.2
	c-0.1,0-0.2,0-0.3,0c-0.2,0-0.3-0.2-0.5-0.3c-0.1,0-0.2-0.1-0.3-0.1c-0.2-0.2-0.4-0.3-0.6-0.4c-0.2-0.1-0.4-0.2-0.7-0.3
	c-0.2-0.1-0.4-0.2-0.5-0.4c-0.3-0.3-0.6-0.6-1-0.8c-1.3-0.6-2.2-2.1-3.1-3.1c-0.6-0.6-1.4-1.4-1.4-2.4c0.3-0.6,1-0.8,1.6-1.1
	c0.7-0.5,1.7-0.8,2.1-1.6c0.1-0.2,0.1-0.3,0.1-0.5c0-0.2-0.1-0.3-0.1-0.5c-0.2-0.5-0.8-0.5-1.2-0.6c-0.3,0-0.6,0-0.8,0.1
	c-0.4,0.2-0.8,0.4-1.2,0.8c-0.2,0.1-0.3,0.3-0.5,0.5c-0.2,0.1-0.4,0.2-0.6,0.2c-0.1,0.1-0.2,0.1-0.3,0.1c-0.1,0-0.2-0.1-0.3-0.2
	c-0.2-0.5-0.4-0.9-0.7-1.3c-0.1-0.1-0.2-0.1-0.3-0.1c-0.1,0-0.2-0.1-0.3-0.1c-0.2,0-0.4,0.1-0.5,0.1c-0.2,0-0.4,0-0.6,0
	c-0.2,0.1-0.4,0.3-0.6,0.5c-0.2,0.2-0.1,0.4-0.1,0.7c0,0.2-0.1,0.4-0.1,0.5c0,0.2-0.1,0.4-0.1,0.5c0,0.2,0.1,0.3,0.1,0.5
	c0,0.2,0,0.5-0.1,0.7s-0.3,0.4-0.4,0.5c-0.2,0.1-0.4,0.3-0.6,0.4c-0.2,0.1-0.5,0.2-0.7,0.3c-0.2,0.1-0.4,0.2-0.6,0.4
	c-0.2,0.1-0.4,0.3-0.6,0.4c-0.2,0.1-0.5,0.2-0.7,0.3c-0.4,0.2-0.8,0.2-1.2,0.4c-0.4,0.1-1.1-0.1-1.3,0.4c0.1,0.5,0.3,0.9,0.6,1.2
	c0.2,0.5,0.9,0.7,1.3,1c0.7,0.2,1.3-0.1,2-0.1c0.2,0.9,0.2,1.8-0.4,2.5c-0.1,0.4-0.3,0.7-0.5,1c-0.1,0.1-0.2,0.3-0.4,0.4
	c-0.1,0.1-0.2,0.3-0.3,0.4c-0.1,0.1-0.3,0.3-0.4,0.4c-0.2,0.1-0.3,0-0.5-0.2c-0.1-0.1-0.2-0.1-0.4-0.1c-0.3-0.1-0.5,0-0.8,0
	c-0.2,0.1-0.3,0.2-0.4,0.4c-0.1,0.1-0.3,0.3-0.3,0.5c0,0.1,0.1,0.2,0.1,0.4c0,0.2,0,0.4,0.1,0.6c0.1,0.2,0.1,0.2,0.1,0.5
	c0,0.1,0.1,0.2,0.1,0.3c0.1,0.1,0.2,0.3,0.4,0.4c0.1,0.1,0.3,0.2,0.4,0.2c0.1,0,0.3,0.1,0.4,0.1c0.3,0.2,0.6,0.2,0.9,0.2
	c0.5,0,0.9-0.2,1.4-0.4c0.2-0.1,0.4-0.1,0.7-0.2c0.2-0.1,0.4-0.3,0.5-0.4c0.2-0.2,0.4-0.4,0.6-0.6c0.4-0.4,0.7-0.8,1-1.2
	c0.1-0.2,0.3-0.4,0.4-0.7c0.1-0.2,0.2-0.4,0.3-0.6c0-0.1,0.1-0.2,0.2-0.3c0.1-0.2,0.2-0.4,0.2-0.7c0-0.2,0.1-0.4,0.2-0.6
	c0.1-0.3,0.2-0.7,0.2-1.1c0-0.2,0.1-0.3,0.1-0.5c0-0.2,0-0.4,0.1-0.6c0.1-0.3,0.2-0.6,0.3-0.8c0.4,0.1,0.8,0.3,1,0.6
	c0.1,0.2,0.3,0.3,0.4,0.4c0.2,0.2,0.3,0.4,0.5,0.5c0.5,0.4,0.9,1.1,1.3,1.6c0.5,0.7,0.9,1.4,1.4,2c0.5,0.7,0.9,1.3,1.5,1.8
	c0.5,0.4,0.9,0.8,1.5,1.1c0.4,0.2,0.9,0.2,1.3,0.2c0.8,0,1.5-0.1,2.3-0.1c0.4,0,0.8-0.1,1.1-0.1c0.2,0,0.4,0,0.5,0
	c0.3,0,0.6-0.2,1-0.2c0.3-0.1,0.7-0.1,0.9-0.4c0.1-0.1,0.1-0.2,0.2-0.4c0-0.1,0-0.3,0-0.4C543.7,48.2,543.3,48,543,47.8z"/>
<path d="M564.1,33.6c0.2,0.3,0.4,0.6,0.5,0.9l0.5-0.5c-0.3-0.3-0.6-0.6-0.9-0.8c0.1-0.3,0.2-0.5,0.3-0.8l-0.8-0.2
	c-0.2,0.9-0.5,1.8-0.9,2.7l0.3,0.2C563.5,34.6,563.9,34.1,564.1,33.6z"/>
<path d="M570.1,32.1c-0.2-0.6-0.6-1.1-1-1.6l-0.3,0.2c0.2,0.6,0.4,1.2,0.5,1.8L570.1,32.1z"/>
<path d="M567.1,31.7h-1.7l0.4-0.5c-0.5-0.3-1-0.6-1.6-0.7l-0.1,0.3c0.4,0.3,0.7,0.6,1,1H563v0.4h4.1V31.7z"/>
<path d="M564.7,37v2.5h0.8v-2.7c0.3,0.4,0.7,0.8,0.9,1.2l0.6-0.6c-0.5-0.4-1-0.8-1.5-1V36h1.6v-0.4h-1.6v-0.9h-0.2
	c0.2-0.3,0.4-0.7,0.6-1c0.2,0.3,0.4,0.6,0.5,0.9l0.4-0.4c-0.1,0.2-0.2,0.5-0.3,0.7l0.3,0.2c0.1-0.2,0.3-0.4,0.4-0.6v5h0.8v-0.7h3.2
	v-0.4h-1.4v-1.6h1.1v-0.4h-1.1v-1.5h1.1v-0.4h-1.1V33h1.3v-0.4h-3.1c0.2-0.6,0.3-1.2,0.3-1.8l-0.9-0.2c-0.1,1.4-0.3,2.4-0.6,3.4
	c-0.2-0.3-0.5-0.5-0.8-0.7c0.1-0.3,0.2-0.5,0.3-0.8l-0.8-0.2c-0.1,0.8-0.3,1.7-0.7,2.4h-0.2v0.9h-1.8V36h1.6c-0.4,1-1,1.8-1.8,2.6
	l0.2,0.3C563.6,38.3,564.2,37.7,564.7,37z M568.1,33h0.9v1.3h-0.9L568.1,33z M568.1,34.7h0.9v1.5h-0.9L568.1,34.7z M568.1,36.6h0.9
	v1.6h-0.9L568.1,36.6z"/>
<path d="M580.2,35.8c-0.5-0.4-1.1-0.8-1.7-1l-0.2,0.3c0.5,0.4,0.9,0.9,1.3,1.4L580.2,35.8z"/>
<path d="M578.7,34.3h-1.7v0.4h4.5v-0.4h-1.9v-1.6h2v-0.4h-2v-1.6h-0.8v1.6h-1.9v0.4h1.9V34.3z"/>
<path d="M581.8,37.8c-0.3-0.7-0.8-1.3-1.3-1.9l-0.3,0.2c0.3,0.7,0.6,1.4,0.8,2.1L581.8,37.8z"/>
<path d="M577.8,38.1c0,1,0.2,1.1,1.6,1.1c1.5,0,1.4-0.6,1-2.2H580c0,1.3,0,1.4-0.7,1.4c-0.6,0-0.7-0.1-0.7-0.5v-2.3h-0.8V38.1z"/>
<path d="M576.5,32.2h-1.4l0.5-0.4c-0.4-0.5-0.9-0.9-1.5-1.3l-0.2,0.2c0.2,0.3,0.6,0.9,0.9,1.4h-1.5v0.4h3.1V32.2z"/>
<path d="M575.5,39.3h0.7v-1.2l0.6,0.5c0.4-0.6,0.7-1.4,0.7-2.4l-0.3-0.1c-0.1,0.7-0.5,1.4-1,1.9v-1.9h-2.5v3.3h0.7v-0.7h1.1
	L575.5,39.3z M575.5,38.3h-1.1v-1.7h1.1V38.3z"/>
<path d="M576.3,34.8h-2.7v0.4h2.7V34.8z"/>
<path d="M576.3,33.5h-2.7v0.4h2.7V33.5z"/>
<path d="M559.4,38.9L559.4,38.9c-0.2-0.1-0.3-0.2-0.5-0.3c-0.2-0.1-0.5,0-0.7-0.1c-0.3-0.1-0.6-0.1-0.9-0.2c-0.4-0.1-0.8-0.1-1.2,0
	c-0.2,0-0.4,0.1-0.5,0.3c-0.1,0.1-0.1,0.3-0.1,0.4c0,0.1,0,0.3,0,0.4c0,0.5,0.2,1,0.4,1.5c0.1,0.2,0.3,0.5,0.5,0.7
	c0.2,0.2,0.3,0.4,0.6,0.6c0.2,0.1,0.4,0.3,0.5,0.4c0.1,0.1,0.1,0.2,0.3,0.3c0.3,0.1,0.6,0.1,0.9,0.1c0.4,0,0.8,0,1.2-0.1
	c0.3-0.1,0.3-0.3,0.6-0.4c0.2-0.1,0.3-0.2,0.4-0.4c0.5-1.1-0.1-2-0.8-2.8C559.8,39.1,559.6,39,559.4,38.9z"/>
<rect x="634.4" class="st3" width="158.6" height="80"/>
<path class="st2" d="M682.6,33.4c0.4,0.3,1,0.4,1.5,0.3c0.5-0.1,1-0.3,1.4-0.4c0.8-0.2,1.7-0.5,2.5-0.7c0.4-0.1,0.8-0.2,1.3-0.3
	c0.2,0,0.4-0.1,0.6-0.1c0.2-0.1,0.4-0.2,0.5-0.3c0.3-0.1,0.5-0.2,0.8-0.4c0.8-0.3,2.5-0.7,2.1-2c-0.1-0.4-0.5-0.6-0.9-0.8
	c-0.4-0.2-0.8-0.2-1.2-0.1c-0.4,0-0.8,0.1-1.1,0.4c-0.4,0.5-1.1,0.7-1.6,1.1c-0.2,0.1-0.4,0.1-0.6,0.3c-0.1,0.1-0.1,0.1-0.2,0.2
	c-0.1,0-0.2,0-0.3,0c-0.2,0-0.4,0-0.5,0.1c-0.5,0.1-1,0.2-1.5,0.4c-0.2,0.1-0.5,0.3-0.7,0.4c-0.2,0.1-0.4,0.1-0.6,0.1
	s-0.4,0-0.7,0.1l-0.6,0.1l-0.3,0c-0.1,0-0.3,0-0.3,0c-0.1,0.1-0.1,0.2-0.2,0.3c0,0.1,0,0.2,0.1,0.3
	C682.2,32.7,682.2,33.1,682.6,33.4z"/>
<path class="st2" d="M715.1,32.8c0.4-0.1,0.7-0.2,0.9-0.6c0.1-0.1,0.1-0.2,0.2-0.4c0.1-0.2,0.2-0.5,0.2-0.8
	c-0.1-0.2-0.3-0.4-0.5-0.5c-0.4-0.2-0.8-0.3-1.2-0.4c-0.5-0.1-1-0.2-1.5-0.3c-0.3,0-0.6,0-0.9,0.1c-0.6,0.1-1.1,0.3-1.6,0.6
	c-0.6,0.3-1.3,0.1-1.9,0.5c-0.2,0.1-0.5,0.2-0.8,0.2c-0.3,0.1-0.6,0.2-1,0.3c-0.6,0.2-1.1,0.4-1.7,0.5c-0.4,0.1-0.8,0-1.2,0.2
	c-0.2,0.1-0.3,0.2-0.5,0.3c-0.2,0.1-0.4,0.1-0.5,0.2c-0.6,0.2-1.3,0.4-2,0.6c-1.2,0.4-2.4,0.2-3.6,0.5c-0.3,0.1-0.7,0.1-1,0.4
	c-0.1,0.4,0.2,0.6,0.5,0.8c0.3,0.2,0.5,0.6,0.8,0.8c0.3,0.2,0.6,0.3,0.9,0.4c0.7,0.3,1.3,0.7,2.1,0.8c0.4,0.1,1.3,0.2,1.6-0.1
	c0.4-0.3,0.9-0.5,1.4-0.8c0.2-0.1,0.4-0.3,0.6-0.5c0.2-0.1,0.5-0.3,0.7-0.4c0.3-0.3,0.6-0.5,0.9-0.7c0.4-0.1,0.8-0.5,1.2-0.2
	c0.2,0.1,0.1,0.3,0.1,0.4c0,0.2,0.1,0.4,0.1,0.6c0,0.2,0,0.4-0.1,0.6v0.3c0.2,4-0.1,7.8-0.5,11.8c-0.2,0.5,0,0.9,0.1,1.4
	c0,0.2,0.1,0.4,0.1,0.6c0.2,0.3,0.5,0.6,0.8,0.8c0.7,0.2,1.7,0.4,2.2-0.3c0.6-0.3,0.7-0.8,0.8-1.4c0.1-0.5,0.1-1,0.2-1.6
	c0-0.4-0.1-0.8-0.2-1.2c0-0.2-0.1-0.4-0.1-0.6c-0.1-0.3-0.2-0.7-0.2-1c-0.2-1.6-0.4-3.2-0.4-4.8c0-1.1-0.2-2.4-0.4-3.3
	c-0.3-0.7,0.1-1.4-0.2-2.1c-0.1-0.3-0.1-0.8-0.1-1.1c0-0.3,0.2-0.4,0.5-0.6c0.1-0.1,0.2-0.1,0.3-0.2c0.1-0.1,0.2-0.1,0.3-0.1
	c0.1,0,0.2-0.1,0.3-0.1c0.7-0.2,1.6-0.3,2.3,0.1c0.2,0.1,0.4,0.2,0.6,0.3C714.3,32.9,714.7,32.9,715.1,32.8z"/>
<path class="st2" d="M701.6,47.8c-0.2-0.1-0.3-0.3-0.5-0.3c-0.2-0.1-0.4-0.1-0.6-0.2c-0.5-0.2-1-0.5-1.5-0.8
	c-0.1-0.1-0.2-0.2-0.3-0.2c-0.1,0-0.2,0-0.3,0c-0.2,0-0.3-0.2-0.5-0.3c-0.1,0-0.2-0.1-0.3-0.1c-0.2-0.2-0.4-0.3-0.6-0.4
	c-0.2-0.1-0.4-0.2-0.7-0.3c-0.2-0.1-0.4-0.2-0.5-0.4c-0.3-0.3-0.6-0.6-1-0.8c-1.3-0.6-2.2-2.1-3.1-3.1c-0.6-0.6-1.4-1.4-1.4-2.4
	c0.3-0.6,1-0.8,1.6-1.1c0.7-0.5,1.7-0.8,2.1-1.6c0.1-0.2,0.1-0.3,0.1-0.5c0-0.2-0.1-0.3-0.1-0.5c-0.2-0.5-0.8-0.5-1.2-0.6
	c-0.3,0-0.6,0-0.8,0.1c-0.4,0.2-0.8,0.4-1.2,0.8c-0.2,0.1-0.3,0.3-0.5,0.5c-0.2,0.1-0.4,0.2-0.6,0.2c-0.1,0.1-0.2,0.1-0.3,0.1
	c-0.1,0-0.2-0.1-0.3-0.2c-0.2-0.5-0.4-0.9-0.7-1.3c-0.1-0.1-0.2-0.1-0.3-0.1c-0.1,0-0.2-0.1-0.3-0.1c-0.2,0-0.4,0.1-0.5,0.1
	c-0.2,0-0.4,0-0.6,0c-0.2,0.1-0.4,0.3-0.6,0.5c-0.2,0.2-0.1,0.4-0.1,0.7c0,0.2-0.1,0.4-0.1,0.5c0,0.2-0.1,0.4-0.1,0.5
	c0,0.2,0.1,0.3,0.1,0.5c0,0.2,0,0.5-0.1,0.7c-0.1,0.2-0.3,0.4-0.4,0.5c-0.2,0.1-0.4,0.3-0.6,0.4c-0.2,0.1-0.5,0.2-0.7,0.3
	c-0.2,0.1-0.4,0.2-0.6,0.4c-0.2,0.1-0.4,0.3-0.6,0.4c-0.2,0.1-0.5,0.2-0.7,0.3c-0.4,0.2-0.8,0.2-1.2,0.4c-0.4,0.1-1.1-0.1-1.3,0.4
	c0.1,0.5,0.3,0.9,0.6,1.2c0.2,0.5,0.9,0.7,1.3,1c0.7,0.2,1.3-0.1,2-0.1c0.2,0.9,0.2,1.8-0.4,2.5c-0.1,0.4-0.3,0.7-0.5,1
	c-0.1,0.1-0.2,0.3-0.4,0.4c-0.1,0.1-0.2,0.3-0.3,0.4c-0.1,0.1-0.3,0.3-0.4,0.4c-0.2,0.1-0.3,0-0.5-0.2c-0.1-0.1-0.2-0.1-0.4-0.1
	c-0.3-0.1-0.5,0-0.8,0c-0.2,0.1-0.3,0.2-0.4,0.4c-0.1,0.1-0.3,0.3-0.3,0.5c0,0.1,0.1,0.2,0.1,0.4c0,0.2,0,0.4,0.1,0.6
	c0.1,0.2,0.1,0.2,0.1,0.5c0,0.1,0.1,0.2,0.1,0.3c0.1,0.1,0.2,0.3,0.4,0.4c0.1,0.1,0.3,0.2,0.4,0.2c0.1,0,0.3,0.1,0.4,0.1
	c0.3,0.2,0.6,0.2,0.9,0.2c0.5,0,0.9-0.2,1.4-0.4c0.2-0.1,0.4-0.1,0.7-0.2c0.2-0.1,0.4-0.3,0.5-0.4c0.2-0.2,0.4-0.4,0.6-0.6
	c0.4-0.4,0.7-0.8,1-1.2c0.1-0.2,0.3-0.4,0.4-0.7c0.1-0.2,0.2-0.4,0.3-0.6c0-0.1,0.1-0.2,0.2-0.3c0.1-0.2,0.2-0.4,0.2-0.7
	c0-0.2,0.1-0.4,0.2-0.6c0.1-0.3,0.2-0.7,0.2-1.1c0-0.2,0.1-0.3,0.1-0.5c0-0.2,0-0.4,0.1-0.6c0.1-0.3,0.2-0.6,0.3-0.8
	c0.4,0.1,0.8,0.3,1,0.6c0.1,0.2,0.3,0.3,0.4,0.4c0.2,0.2,0.3,0.4,0.5,0.5c0.5,0.4,0.9,1.1,1.3,1.6c0.5,0.7,0.9,1.4,1.4,2
	c0.5,0.7,0.9,1.3,1.5,1.8c0.5,0.4,0.9,0.8,1.5,1.1c0.4,0.2,0.9,0.2,1.3,0.2c0.8,0,1.5-0.1,2.3-0.1c0.4,0,0.8-0.1,1.1-0.1
	c0.2,0,0.4,0,0.5,0c0.3,0,0.6-0.2,1-0.2c0.3-0.1,0.7-0.1,0.9-0.4c0.1-0.1,0.1-0.2,0.2-0.4c0-0.1,0-0.3,0-0.4
	C702.3,48.2,701.9,48,701.6,47.8z"/>
<path class="st2" d="M722.7,33.6c0.2,0.3,0.4,0.6,0.5,0.9l0.5-0.5c-0.3-0.3-0.6-0.6-0.9-0.8c0.1-0.3,0.2-0.5,0.3-0.8l-0.8-0.2
	c-0.2,0.9-0.5,1.8-0.9,2.7l0.3,0.2C722.1,34.6,722.5,34.1,722.7,33.6z"/>
<path class="st2" d="M728.7,32.1c-0.2-0.6-0.6-1.1-1-1.6l-0.3,0.2c0.2,0.6,0.4,1.2,0.5,1.8L728.7,32.1z"/>
<path class="st2" d="M725.7,31.7H724l0.4-0.5c-0.5-0.3-1-0.6-1.6-0.7l-0.1,0.3c0.4,0.3,0.7,0.6,1,1h-2.1v0.4h4.1V31.7z"/>
<path class="st2" d="M723.3,37v2.5h0.8v-2.7c0.3,0.4,0.7,0.8,0.9,1.2l0.6-0.6c-0.5-0.4-1-0.8-1.5-1V36h1.6v-0.4h-1.6v-0.9H724
	c0.2-0.3,0.4-0.7,0.6-1c0.2,0.3,0.4,0.6,0.5,0.9l0.4-0.4c-0.1,0.2-0.2,0.5-0.3,0.7l0.3,0.2c0.1-0.2,0.3-0.4,0.4-0.6v5h0.8v-0.7h3.2
	v-0.4h-1.4v-1.6h1.1v-0.4h-1.1v-1.5h1.1v-0.4h-1.1V33h1.3v-0.4h-3.1c0.2-0.6,0.3-1.2,0.3-1.8l-0.9-0.2c-0.1,1.4-0.3,2.4-0.6,3.4
	c-0.2-0.3-0.5-0.5-0.8-0.7c0.1-0.3,0.2-0.5,0.3-0.8l-0.8-0.2c-0.1,0.8-0.3,1.7-0.7,2.4h-0.2v0.9h-1.8V36h1.6c-0.4,1-1,1.8-1.8,2.6
	l0.2,0.3C722.2,38.3,722.8,37.7,723.3,37z M726.7,33h0.9v1.3h-0.9L726.7,33z M726.7,34.7h0.9v1.5h-0.9L726.7,34.7z M726.7,36.6h0.9
	v1.6h-0.9L726.7,36.6z"/>
<path class="st2" d="M738.8,35.8c-0.5-0.4-1.1-0.8-1.7-1l-0.2,0.3c0.5,0.4,0.9,0.9,1.3,1.4L738.8,35.8z"/>
<path class="st2" d="M737.3,34.3h-1.7v0.4h4.5v-0.4h-1.9v-1.6h2v-0.4h-2v-1.6h-0.8v1.6h-1.9v0.4h1.9V34.3z"/>
<path class="st2" d="M740.4,37.8c-0.3-0.7-0.8-1.3-1.3-1.9l-0.3,0.2c0.3,0.7,0.6,1.4,0.8,2.1L740.4,37.8z"/>
<path class="st2" d="M736.4,38.1c0,1,0.2,1.1,1.6,1.1c1.5,0,1.4-0.6,1-2.2h-0.3c0,1.3,0,1.4-0.7,1.4c-0.6,0-0.7-0.1-0.7-0.5v-2.3
	h-0.8V38.1z"/>
<path class="st2" d="M735.1,32.2h-1.4l0.5-0.4c-0.4-0.5-0.9-0.9-1.5-1.3l-0.2,0.2c0.2,0.3,0.6,0.9,0.9,1.4H732v0.4h3.1V32.2z"/>
<path class="st2" d="M734.1,39.3h0.7v-1.2l0.6,0.5c0.4-0.6,0.7-1.4,0.7-2.4l-0.3-0.1c-0.1,0.7-0.5,1.4-1,1.9v-1.9h-2.5v3.3h0.7v-0.7
	h1.1L734.1,39.3z M734.1,38.3H733v-1.7h1.1V38.3z"/>
<path class="st2" d="M734.9,34.8h-2.7v0.4h2.7V34.8z"/>
<path class="st2" d="M734.9,33.5h-2.7v0.4h2.7V33.5z"/>
<path class="st2" d="M718,38.9L718,38.9c-0.2-0.1-0.3-0.2-0.5-0.3c-0.2-0.1-0.5,0-0.7-0.1c-0.3-0.1-0.6-0.1-0.9-0.2
	c-0.4-0.1-0.8-0.1-1.2,0c-0.2,0-0.4,0.1-0.5,0.3c-0.1,0.1-0.1,0.3-0.1,0.4c0,0.1,0,0.3,0,0.4c0,0.5,0.2,1,0.4,1.5
	c0.1,0.2,0.3,0.5,0.5,0.7c0.2,0.2,0.3,0.4,0.6,0.6c0.2,0.1,0.3,0.3,0.5,0.4c0.1,0.1,0.1,0.2,0.3,0.3c0.3,0.1,0.6,0.1,0.9,0.1
	c0.4,0,0.8,0,1.2-0.1c0.3-0.1,0.3-0.3,0.6-0.4c0.2-0.1,0.3-0.2,0.4-0.4c0.5-1.1-0.1-2-0.8-2.8C718.4,39.1,718.2,39,718,38.9z"/>
<g>
	<path class="st1" d="M89.5,42.9L89.5,42.9c-0.1-0.1-0.2-0.3-0.3-0.3c-0.1-0.1-0.3-0.1-0.5-0.1c-0.3,0-0.5,0.1-0.7,0.3
		c-0.2,0.3-0.3,0.6-0.3,0.9c0,0.3,0.1,0.6,0.3,0.9c0.2,0.2,0.4,0.3,0.7,0.3c0.1,0,0.3,0,0.4-0.1c0.1-0.1,0.3-0.1,0.4-0.2h0.1
		l-0.1,0.4c-0.1,0.1-0.3,0.1-0.4,0.1c-0.1,0-0.3,0-0.4,0c-0.4,0-0.8-0.1-1.1-0.4c-0.3-0.3-0.4-0.7-0.4-1.1c0-0.4,0.1-0.8,0.4-1
		c0.3-0.3,0.7-0.4,1.1-0.4c0.2,0,0.3,0,0.4,0c0.2,0,0.3,0.1,0.5,0.2c0,0.1,0,0.2-0.1,0.2C89.5,42.7,89.5,42.8,89.5,42.9z"/>
	<path class="st1" d="M89.8,44c0-0.3,0.1-0.6,0.3-0.8c0.4-0.4,1.1-0.4,1.5,0c0.4,0.4,0.4,1,0,1.4c-0.2,0.2-0.5,0.3-0.8,0.3
		c-0.3,0-0.6-0.1-0.8-0.3C89.8,44.6,89.7,44.3,89.8,44z M90.3,44c0,0.2,0,0.4,0.1,0.6c0.1,0.2,0.3,0.2,0.5,0.1
		c0.1,0,0.1-0.1,0.1-0.1c0.1-0.2,0.1-0.4,0.1-0.6c0-0.2,0-0.4-0.1-0.7c-0.1-0.1-0.2-0.2-0.3-0.2c-0.1,0-0.3,0.1-0.3,0.2
		C90.4,43.6,90.3,43.8,90.3,44z"/>
	<path class="st1" d="M92.1,45c0-0.2,0-0.4,0-0.6c0-0.2,0-0.3,0-0.4c0-0.1,0-0.3,0-0.4s0-0.4,0-0.6l0.1,0h0.3l0.1,0v0.3
		c0.1-0.1,0.2-0.2,0.3-0.2c0.1,0,0.2-0.1,0.3-0.1c0.1,0,0.2,0,0.3,0.1c0.1,0.1,0.2,0.2,0.2,0.3c0.1-0.1,0.2-0.2,0.3-0.3
		c0.1-0.1,0.2-0.1,0.4-0.1c0.1,0,0.2,0,0.3,0c0.1,0,0.1,0.1,0.2,0.1c0.1,0.1,0.1,0.2,0.1,0.3c0,0.2,0,0.4,0,0.6v0.3
		c0,0.1,0,0.2,0,0.4s0,0.3,0,0.4L95,45h-0.1h-0.1l-0.2,0c0-0.2,0-0.3,0-0.5s0-0.3,0-0.4c0-0.2,0-0.4-0.1-0.6c0-0.1-0.1-0.2-0.3-0.1
		c-0.1,0-0.2,0-0.3,0.1c-0.1,0.2-0.1,0.3-0.1,0.5v0.6c0,0.1,0,0.2,0,0.3c0,0,0,0,0,0l-0.2,0h-0.1h-0.1l-0.2,0c0-0.2,0-0.3,0-0.4
		c0-0.1,0-0.3,0-0.4c0-0.2,0-0.5-0.1-0.7c0-0.1-0.1-0.1-0.3-0.1c-0.1,0-0.2,0-0.3,0.1c-0.1,0.2-0.1,0.3-0.1,0.5v0.6
		c0,0.1,0,0.2,0,0.3v0l-0.1,0h-0.1h-0.1L92.1,45z"/>
	<path class="st1" d="M95.7,45c0-0.2,0-0.4,0-0.6c0-0.2,0-0.3,0-0.4c0-0.1,0-0.3,0-0.4s0-0.4,0-0.6l0.1,0h0.3l0.1,0v0.3
		c0.1-0.1,0.2-0.2,0.3-0.2c0.1,0,0.2-0.1,0.3-0.1c0.1,0,0.2,0,0.4,0.1c0.1,0.1,0.2,0.2,0.2,0.3c0.1-0.1,0.2-0.2,0.3-0.3
		C97.8,43,97.9,43,98,43c0.1,0,0.2,0,0.3,0c0.1,0,0.1,0.1,0.2,0.1c0.1,0.1,0.1,0.2,0.1,0.3c0,0.2,0,0.4,0,0.6v0.3c0,0.1,0,0.2,0,0.4
		s0,0.3,0,0.4l-0.2,0h-0.1h-0.1l-0.2,0c0-0.2,0-0.3,0-0.5s0-0.3,0-0.4c0-0.2,0-0.4-0.1-0.6c0-0.1-0.1-0.2-0.3-0.1
		c-0.1,0-0.2,0.1-0.3,0.1c-0.1,0.2-0.1,0.3-0.1,0.5v0.6c0,0.1,0,0.2,0,0.3c0,0,0,0,0,0l-0.2,0h-0.1H97l-0.2,0c0-0.2,0-0.3,0-0.4
		c0-0.1,0-0.3,0-0.4c0-0.2,0-0.5-0.1-0.7c0-0.1-0.1-0.1-0.3-0.1c-0.1,0-0.2,0-0.3,0.1c-0.1,0.2-0.1,0.3-0.1,0.5v0.6
		c0,0.1,0,0.2,0,0.3c0,0,0,0,0,0l-0.1,0h-0.1h-0.1L95.7,45z"/>
	<path class="st1" d="M99,44c-0.1-0.5,0.3-1,0.8-1c0.1,0,0.1,0,0.2,0c0.3,0,0.6,0.1,0.8,0.3c0.2,0.2,0.3,0.5,0.3,0.8
		c0,0.6-0.5,1-1,1C99.5,45,99,44.6,99,44L99,44z M99.6,44c0,0.2,0,0.4,0.1,0.6c0.1,0.1,0.2,0.2,0.3,0.2c0.1,0,0.3-0.1,0.3-0.2
		c0.1-0.2,0.1-0.4,0.1-0.6c0-0.2,0-0.4-0.1-0.7c-0.1-0.1-0.2-0.2-0.3-0.2c-0.1,0-0.3,0.1-0.3,0.2C99.7,43.6,99.6,43.8,99.6,44z"/>
	<path class="st1" d="M101.4,45c0-0.2,0-0.4,0-0.5c0-0.2,0-0.3,0-0.5s0-0.3,0-0.5c0-0.2,0-0.3,0-0.5l0.1,0h0.3l0.1,0v0.3
		c0.1-0.1,0.2-0.2,0.3-0.2c0.1-0.1,0.2-0.1,0.3-0.1c0.1,0,0.2,0,0.3,0.1c0.1,0,0.2,0.1,0.2,0.1c0,0.1,0.1,0.1,0.1,0.2
		c0,0.1,0,0.3,0,0.4V44c0,0.1,0,0.2,0,0.3c0,0.1,0,0.3,0,0.4s0,0.2,0,0.3l-0.2,0h-0.1h-0.1l-0.2,0c0-0.1,0-0.3,0-0.4
		c0-0.2,0-0.3,0-0.5c0-0.2,0-0.4-0.1-0.6c0-0.1-0.1-0.1-0.3-0.1c-0.1,0-0.2,0.1-0.3,0.2c-0.1,0.2-0.1,0.3-0.1,0.5c0,0.1,0,0.3,0,0.4
		s0,0.4,0,0.6c0,0-0.1,0-0.1,0h-0.1h-0.1L101.4,45z"/>
	<path class="st1" d="M104.3,45c-0.1-0.4-0.2-0.9-0.4-1.4c-0.1-0.5-0.3-0.9-0.5-1.4h0.2h0.4h0.2c0.1,0.3,0.2,0.7,0.3,1
		c0.1,0.3,0.2,0.7,0.3,1c0.1-0.4,0.2-0.7,0.4-1.1c0.1-0.3,0.2-0.7,0.3-1h0.1h0.2h0.1c0.1,0.3,0.2,0.6,0.3,1c0.1,0.3,0.2,0.7,0.3,1
		c0.1-0.3,0.2-0.7,0.3-1c0.1-0.3,0.2-0.7,0.3-1h0.1h0.2h0.1c-0.1,0.4-0.3,0.8-0.4,1.3c-0.2,0.5-0.3,0.9-0.5,1.5l-0.1,0h-0.1h-0.1
		l-0.1,0c-0.1-0.3-0.2-0.6-0.3-1c-0.1-0.3-0.2-0.7-0.4-1c-0.1,0.3-0.3,0.6-0.4,1c-0.1,0.3-0.2,0.7-0.3,1l-0.1,0h-0.1h-0.1L104.3,45z
		"/>
	<path class="st1" d="M108.1,44c0,0.2,0,0.4,0.2,0.6c0.1,0.1,0.3,0.2,0.5,0.2c0.1,0,0.2,0,0.3,0c0.1,0,0.2-0.1,0.3-0.1l0,0l-0.1,0.2
		c-0.1,0.1-0.2,0.1-0.3,0.1c-0.1,0-0.2,0-0.4,0c-0.3,0-0.5-0.1-0.7-0.3c-0.2-0.2-0.3-0.5-0.3-0.8c0-0.3,0.1-0.5,0.3-0.7
		c0.2-0.2,0.4-0.3,0.7-0.3c0.2,0,0.5,0.1,0.6,0.2c0.2,0.2,0.2,0.4,0.2,0.7V44c0,0,0,0,0,0.1L108.1,44z M108.1,43.8h0.7
		c0,0,0,0,0-0.1c0,0,0,0,0,0c0-0.1,0-0.3-0.1-0.4c0-0.1-0.1-0.1-0.2-0.1c-0.1,0-0.2,0.1-0.3,0.2C108.1,43.5,108.1,43.6,108.1,43.8
		L108.1,43.8z"/>
	<path class="st1" d="M110.7,44.7c-0.1,0.1-0.1,0.2-0.2,0.2c-0.1,0.1-0.2,0.1-0.3,0.1c-0.1,0-0.3,0-0.4-0.2
		c-0.1-0.1-0.2-0.3-0.1-0.4c0-0.1,0-0.2,0.1-0.3c0.1-0.1,0.2-0.2,0.3-0.2l0.2-0.1c0.2,0,0.3-0.1,0.4-0.2c0,0,0,0,0,0v0
		c0-0.1,0-0.2-0.1-0.3c-0.1-0.1-0.2-0.1-0.3-0.1c-0.1,0-0.2,0-0.3,0.1c-0.1,0.1-0.2,0.1-0.2,0.2l-0.1-0.2c0,0,0-0.1,0-0.1
		c0.1-0.1,0.2-0.2,0.4-0.2c0.1-0.1,0.2-0.1,0.4-0.1c0.2,0,0.4,0,0.6,0.2c0.1,0.1,0.2,0.3,0.2,0.5v0l0,0.7v0.1c0,0.1,0,0.2,0.1,0.3
		c0.1,0.1,0.1,0.1,0.2,0.1h0v0.1c-0.1,0-0.1,0.1-0.2,0.1c-0.1,0-0.1,0-0.2,0C110.9,45,110.7,44.9,110.7,44.7L110.7,44.7z
		 M110.7,43.9c-0.1,0-0.3,0.1-0.4,0.2c-0.1,0.1-0.1,0.2-0.1,0.3c0,0.1,0,0.2,0.1,0.3c0,0.1,0.1,0.1,0.2,0.1c0.1,0,0.2,0,0.2-0.1
		c0.1-0.1,0.1-0.2,0.1-0.3L110.7,43.9z"/>
	<path class="st1" d="M111.8,45c0-0.2,0-0.5,0-0.7c0-0.2,0-0.5,0-0.8s0-0.6,0-0.8c0-0.2,0-0.5,0-0.7l0.2,0h0.1h0.1
		c0.1,0,0.1,0,0.2,0c0,0.2,0,0.5,0,0.7c0,0.2,0,0.5,0,0.8c0,0.3,0,0.6,0,0.8c0,0.2,0,0.5,0,0.7c0,0-0.1,0-0.1,0c-0.1,0-0.1,0-0.2,0
		c-0.1,0-0.1,0-0.2,0C111.9,45,111.8,45,111.8,45z"/>
	<path class="st1" d="M112.9,43.3h-0.3c0,0,0,0,0,0v-0.1c0,0,0,0,0-0.1c0,0,0,0,0,0h0h0.2h0c0,0,0,0,0-0.1c0,0,0-0.1,0-0.1
		c0,0,0-0.1,0-0.2s0-0.1,0-0.2l0.3-0.1c0.1,0,0.2-0.1,0.3-0.1l0,0c0,0.2,0,0.3,0,0.4c0,0.1,0,0.2,0,0.2v0.2h0.2h0.2c0,0,0,0,0,0.1v0
		c0,0,0,0.1,0,0.1l0,0h-0.4v0.1c0,0.3,0,0.5,0,0.6v0.2c0,0.2,0,0.4,0,0.6c0,0.1,0.1,0.1,0.2,0.1c0.1,0,0.2,0,0.2,0l0,0v0.2
		c-0.1,0-0.2,0.1-0.3,0.1c-0.1,0-0.1,0-0.2,0c-0.1,0-0.3,0-0.4-0.1c-0.1-0.1-0.1-0.3-0.1-0.4c0,0,0-0.1,0-0.3c0-0.2,0-0.4,0-0.7
		L112.9,43.3z"/>
	<path class="st1" d="M114.2,45c0-0.1,0-0.3,0-0.5c0-0.2,0-0.5,0-0.9s0-0.8,0-1c0-0.2,0-0.4,0-0.6l0.2,0h0.1c0,0,0.1,0,0.1,0l0.2,0
		c0,0.1,0,0.2,0,0.4c0,0.1,0,0.3,0,0.4v0.6c0.1-0.1,0.2-0.2,0.3-0.3c0.1-0.1,0.2-0.1,0.4-0.1c0.1,0,0.2,0,0.3,0.1
		c0.1,0,0.2,0.1,0.2,0.1c0,0.1,0.1,0.1,0.1,0.2c0,0.1,0,0.3,0,0.4c0,0,0,0.1,0,0.2s0,0.2,0,0.3c0,0.1,0,0.3,0,0.4c0,0.1,0,0.2,0,0.3
		l-0.2,0h-0.1h-0.1l-0.2,0c0-0.1,0-0.3,0-0.4c0-0.2,0-0.3,0-0.5c0-0.2,0-0.4-0.1-0.6c0-0.1-0.1-0.1-0.3-0.1c-0.1,0-0.2,0.1-0.3,0.2
		c-0.1,0.2-0.1,0.3-0.1,0.5c0,0.1,0,0.3,0,0.4c0,0.2,0,0.3,0,0.5l-0.2,0h-0.1h-0.1L114.2,45z"/>
	<path class="st1" d="M87.2,49.5c0-0.2,0.1-0.4,0.1-0.5c0-0.1,0-0.3,0-0.3l0.3-1.9h0.1h0.1h0.1h0.1c0.1,0.3,0.3,0.6,0.5,1
		c0.2,0.3,0.3,0.6,0.5,0.9c0.2-0.3,0.3-0.6,0.5-0.9c0.2-0.3,0.3-0.6,0.5-1h0.1H90h0.1h0.1l0.2,1.9c0,0.2,0,0.4,0.1,0.5
		c0,0.1,0,0.2,0.1,0.3l-0.2,0h-0.2H90l-0.2,0c0,0,0,0,0,0c0-0.3,0-0.5,0-0.5l-0.1-1.3c-0.2,0.3-0.3,0.6-0.5,0.9
		c-0.2,0.3-0.3,0.6-0.5,1h0h-0.1h0c-0.2-0.3-0.3-0.7-0.5-0.9c-0.2-0.3-0.3-0.6-0.4-0.9l-0.1,0.8v0c0,0.4-0.1,0.8-0.1,0.9l-0.1,0
		h-0.1L87.2,49.5L87.2,49.5z"/>
	<path class="st1" d="M91.9,49.3c-0.1,0.1-0.1,0.2-0.2,0.2c-0.1,0.1-0.2,0.1-0.3,0.1c-0.1,0-0.3,0-0.4-0.2c-0.1-0.1-0.2-0.3-0.1-0.4
		c0-0.1,0-0.2,0.1-0.3c0.1-0.1,0.2-0.2,0.3-0.2l0.2-0.1c0.2,0,0.3-0.1,0.4-0.2c0,0,0,0,0,0v0c0-0.1,0-0.2-0.1-0.3
		c-0.1-0.1-0.2-0.1-0.3-0.1c-0.1,0-0.2,0-0.3,0.1c-0.1,0.1-0.2,0.1-0.2,0.2c0-0.1,0-0.1-0.1-0.2l0-0.1c0.1-0.1,0.2-0.2,0.4-0.2
		c0.1-0.1,0.2-0.1,0.4-0.1c0.2,0,0.4,0,0.6,0.2c0.1,0.1,0.2,0.3,0.2,0.5v0v0.7V49c0,0.1,0,0.2,0.1,0.3c0.1,0.1,0.1,0.1,0.2,0.1l0,0
		v0.1c-0.1,0-0.1,0.1-0.2,0.1c-0.1,0-0.1,0-0.2,0c-0.1,0-0.2,0-0.2-0.1C92,49.4,91.9,49.3,91.9,49.3z M91.9,48.4
		c-0.1,0-0.3,0.1-0.4,0.2c-0.1,0.1-0.1,0.2-0.1,0.3c0,0.1,0,0.2,0.1,0.3c0,0.1,0.1,0.1,0.2,0.1c0.1,0,0.2,0,0.2-0.1
		c0.1-0.1,0.1-0.2,0.1-0.3V48.4z"/>
	<path class="st1" d="M93.3,49.6L93.3,49.6c-0.1-0.1-0.1-0.1-0.2-0.2c0-0.1-0.1-0.1-0.1-0.2c0-0.1,0-0.2,0.1-0.3
		c0.1-0.1,0.2-0.2,0.3-0.2v-0.1c-0.1,0-0.3-0.1-0.4-0.2c-0.1-0.1-0.1-0.2-0.1-0.4c0-0.2,0.1-0.4,0.2-0.5c0.2-0.1,0.4-0.2,0.6-0.2
		l0.3,0c0.2,0,0.3,0,0.4,0h0.2h0.2v0.2l-0.3,0h-0.1c0.1,0,0.1,0.1,0.2,0.2c0,0.1,0.1,0.2,0.1,0.3c0,0.2-0.1,0.4-0.3,0.5
		c-0.2,0.1-0.4,0.2-0.7,0.2h-0.1c0,0-0.1,0-0.1,0.1c0,0,0,0.1,0,0.1c0,0.1,0.2,0.2,0.6,0.2h0.1c0.2,0,0.3,0,0.5,0.1
		c0.1,0,0.1,0.1,0.2,0.2c0,0.1,0.1,0.2,0.1,0.3c0,0.2-0.1,0.5-0.3,0.6c-0.2,0.2-0.5,0.3-0.8,0.3c-0.2,0-0.4,0-0.6-0.1
		c-0.1-0.1-0.2-0.2-0.2-0.4c0-0.1,0-0.2,0.1-0.3C93,49.7,93.1,49.6,93.3,49.6z M93.4,49.6c-0.1,0-0.1,0.1-0.2,0.1
		c0,0.1-0.1,0.1-0.1,0.2c0,0.1,0,0.2,0.1,0.3c0.1,0.1,0.2,0.1,0.4,0.1c0.2,0,0.3,0,0.4-0.1c0.1-0.1,0.2-0.2,0.2-0.3
		c0-0.1,0-0.2-0.1-0.3c-0.1-0.1-0.2-0.1-0.3-0.1L93.4,49.6z M93.4,48.2c0,0.1,0,0.3,0.1,0.4c0,0.1,0.1,0.1,0.2,0.1
		c0.1,0,0.2,0,0.2-0.1c0.1-0.1,0.1-0.3,0.1-0.4c0-0.1,0-0.2-0.1-0.3c0-0.1-0.1-0.1-0.2-0.1c-0.1,0-0.2,0-0.2,0.1
		C93.5,47.9,93.4,48,93.4,48.2L93.4,48.2z"/>
	<path class="st1" d="M96,49.3c-0.1,0.1-0.1,0.2-0.2,0.2c-0.1,0.1-0.2,0.1-0.3,0.1c-0.1,0-0.3,0-0.4-0.2c-0.1-0.1-0.2-0.3-0.1-0.4
		c0-0.1,0-0.2,0.1-0.3c0.1-0.1,0.2-0.2,0.3-0.2l0.2-0.1c0.2,0,0.3-0.1,0.4-0.2c0,0,0,0,0,0c0,0,0,0,0,0c0-0.1,0-0.2-0.1-0.3
		c-0.1-0.1-0.2-0.1-0.3-0.1c-0.1,0-0.2,0-0.3,0.1c-0.1,0.1-0.2,0.1-0.2,0.2c0-0.1,0-0.1,0-0.2l0-0.1c0.1-0.1,0.2-0.2,0.4-0.2
		c0.1,0,0.2-0.1,0.4-0.1c0.2,0,0.4,0,0.6,0.2c0.1,0.1,0.2,0.3,0.2,0.5v0v0.7V49c0,0.1,0,0.2,0.1,0.3c0.1,0.1,0.1,0.1,0.2,0.1h0v0.1
		c-0.1,0-0.1,0.1-0.2,0.1c-0.1,0-0.1,0-0.2,0c-0.1,0-0.2,0-0.3-0.1C96.1,49.4,96.1,49.3,96,49.3z M96,48.4c-0.1,0-0.3,0.1-0.4,0.2
		c-0.1,0.1-0.1,0.2-0.1,0.3c0,0.1,0,0.2,0.1,0.3c0,0.1,0.1,0.1,0.2,0.1c0.1,0,0.2,0,0.2-0.1C96,49.1,96,49,96,48.9V48.4z"/>
	<path class="st1" d="M96.9,49.5L96.9,49.5c0.2-0.3,0.4-0.7,0.7-1.1l0.4-0.6h-0.2h-0.1c-0.1,0-0.3,0-0.5,0h0c0,0,0,0,0,0
		c0,0,0,0,0-0.1s0-0.1,0-0.1c0,0,0,0,0,0h0.4h0.8h0.4v0.1c-0.1,0.1-0.2,0.3-0.4,0.6l-0.7,1.1h0.2h0.1c0.1,0,0.3,0,0.4,0l0.3,0
		c0,0,0,0,0,0.1c0,0,0,0,0,0.1c0,0,0,0,0,0c0,0,0,0,0,0.1c-0.1,0-0.2,0-0.4,0h-0.5h-0.5C97.2,49.5,97,49.5,96.9,49.5z"/>
	<path class="st1" d="M99,46.8c0-0.2,0.1-0.3,0.3-0.3c0,0,0,0,0,0c0.1,0,0.2,0,0.2,0.1c0.1,0.1,0.1,0.1,0.1,0.2c0,0.1,0,0.2-0.1,0.2
		c-0.1,0.1-0.1,0.1-0.2,0.1c-0.1,0-0.2,0-0.2-0.1C99,47,99,46.9,99,46.8z M99,49.5c0-0.2,0-0.4,0-0.5s0-0.3,0-0.4s0-0.3,0-0.5
		c0-0.2,0-0.3,0-0.5h0.1h0.3h0.1c0,0.2,0,0.3,0,0.5s0,0.3,0,0.5c0,0.2,0,0.3,0,0.4c0,0.2,0,0.3,0,0.5l-0.2,0h-0.1h-0.1L99,49.5z"/>
	<path class="st1" d="M100.1,49.5c0-0.2,0-0.4,0-0.5c0-0.2,0-0.3,0-0.5s0-0.3,0-0.5c0-0.2,0-0.3,0-0.5h0.1h0.3h0.1v0.3
		c0.1-0.1,0.2-0.2,0.3-0.3c0.1-0.1,0.2-0.1,0.3-0.1c0.1,0,0.2,0,0.3,0.1c0.1,0,0.2,0.1,0.2,0.1c0,0.1,0.1,0.1,0.1,0.2
		c0,0.1,0,0.3,0,0.4v0.2c0,0.1,0,0.2,0,0.3c0,0.1,0,0.3,0,0.4s0,0.2,0,0.3l-0.2,0h-0.1h-0.1l-0.2,0c0-0.1,0-0.3,0-0.4
		c0-0.2,0-0.3,0-0.5c0-0.2,0-0.4-0.1-0.6c0-0.1-0.1-0.1-0.3-0.1c-0.1,0-0.2,0.1-0.3,0.2c-0.1,0.2-0.1,0.3-0.1,0.5c0,0.1,0,0.3,0,0.4
		s0,0.4,0,0.6c0,0-0.1,0-0.1,0h-0.1h-0.1L100.1,49.5z"/>
	<path class="st1" d="M102.9,48.5c0,0.2,0,0.4,0.2,0.6c0.1,0.1,0.3,0.2,0.5,0.2c0.1,0,0.2,0,0.3,0c0.1,0,0.2-0.1,0.3-0.1l0,0
		l-0.1,0.2c-0.1,0.1-0.2,0.1-0.3,0.1c-0.1,0-0.2,0-0.4,0c-0.3,0-0.5-0.1-0.7-0.3c-0.2-0.2-0.3-0.5-0.3-0.8c0-0.3,0.1-0.5,0.3-0.7
		c0.2-0.2,0.4-0.3,0.7-0.3c0.2,0,0.5,0.1,0.6,0.2c0.2,0.2,0.2,0.4,0.2,0.7v0.1c0,0,0,0,0,0.1L102.9,48.5z M102.9,48.3h0.7
		c0,0,0,0,0-0.1c0,0,0,0,0,0c0-0.1,0-0.3-0.1-0.4c0-0.1-0.1-0.1-0.2-0.1c-0.1,0-0.2,0.1-0.3,0.2C102.9,48,102.9,48.2,102.9,48.3
		L102.9,48.3z"/>
</g>
<g>
	<path class="st2" d="M248.1,42.9L248.1,42.9c-0.1-0.1-0.2-0.3-0.3-0.3c-0.1-0.1-0.3-0.1-0.5-0.1c-0.3,0-0.5,0.1-0.7,0.3
		c-0.2,0.3-0.3,0.6-0.3,0.9c0,0.3,0.1,0.6,0.3,0.9c0.2,0.2,0.4,0.3,0.7,0.3c0.1,0,0.3,0,0.4-0.1c0.1-0.1,0.3-0.1,0.4-0.2h0.1
		l-0.1,0.4c-0.1,0.1-0.3,0.1-0.4,0.1c-0.1,0-0.3,0-0.4,0c-0.4,0-0.8-0.1-1.1-0.4c-0.3-0.3-0.4-0.7-0.4-1.1c0-0.4,0.1-0.8,0.4-1
		c0.3-0.3,0.7-0.4,1.1-0.4c0.2,0,0.3,0,0.4,0c0.2,0,0.3,0.1,0.5,0.2c0,0.1,0,0.2-0.1,0.2C248.1,42.7,248.1,42.8,248.1,42.9z"/>
	<path class="st2" d="M248.4,44c0-0.3,0.1-0.6,0.3-0.8c0.4-0.4,1.1-0.4,1.5,0c0.4,0.4,0.4,1,0,1.4c-0.2,0.2-0.5,0.3-0.8,0.3
		c-0.3,0-0.6-0.1-0.8-0.3C248.4,44.6,248.3,44.3,248.4,44z M248.9,44c0,0.2,0,0.4,0.1,0.6c0.1,0.2,0.3,0.2,0.5,0.1
		c0.1,0,0.1-0.1,0.1-0.1c0.1-0.2,0.1-0.4,0.1-0.6c0-0.2,0-0.4-0.1-0.7c-0.1-0.1-0.2-0.2-0.3-0.2c-0.1,0-0.3,0.1-0.3,0.2
		C249,43.6,248.9,43.8,248.9,44z"/>
	<path class="st2" d="M250.7,45c0-0.2,0-0.4,0-0.6c0-0.2,0-0.3,0-0.4c0-0.1,0-0.3,0-0.4s0-0.4,0-0.6l0.1,0h0.3l0.1,0v0.3
		c0.1-0.1,0.2-0.2,0.3-0.2c0.1,0,0.2-0.1,0.3-0.1c0.1,0,0.2,0,0.3,0.1c0.1,0.1,0.2,0.2,0.2,0.3c0.1-0.1,0.2-0.2,0.3-0.3
		c0.1-0.1,0.2-0.1,0.4-0.1c0.1,0,0.2,0,0.3,0c0.1,0,0.1,0.1,0.2,0.1c0.1,0.1,0.1,0.2,0.1,0.3c0,0.2,0,0.4,0,0.6v0.3
		c0,0.1,0,0.2,0,0.4s0,0.3,0,0.4l-0.2,0h-0.1h-0.1l-0.2,0c0-0.2,0-0.3,0-0.5s0-0.3,0-0.4c0-0.2,0-0.4-0.1-0.6c0-0.1-0.1-0.2-0.3-0.1
		c-0.1,0-0.2,0-0.3,0.1c-0.1,0.2-0.1,0.3-0.1,0.5v0.6c0,0.1,0,0.2,0,0.3c0,0,0,0,0,0l-0.2,0h-0.1h-0.1l-0.2,0c0-0.2,0-0.3,0-0.4
		c0-0.1,0-0.3,0-0.4c0-0.2,0-0.5-0.1-0.7c0-0.1-0.1-0.1-0.3-0.1c-0.1,0-0.2,0-0.3,0.1c-0.1,0.2-0.1,0.3-0.1,0.5v0.6
		c0,0.1,0,0.2,0,0.3v0l-0.1,0H251h-0.1L250.7,45z"/>
	<path class="st2" d="M254.3,45c0-0.2,0-0.4,0-0.6c0-0.2,0-0.3,0-0.4c0-0.1,0-0.3,0-0.4s0-0.4,0-0.6l0.1,0h0.3l0.1,0v0.3
		c0.1-0.1,0.2-0.2,0.3-0.2c0.1,0,0.2-0.1,0.3-0.1c0.1,0,0.2,0,0.4,0.1c0.1,0.1,0.2,0.2,0.2,0.3c0.1-0.1,0.2-0.2,0.3-0.3
		c0.1-0.1,0.2-0.1,0.4-0.1c0.1,0,0.2,0,0.3,0c0.1,0,0.1,0.1,0.2,0.1c0.1,0.1,0.1,0.2,0.1,0.3c0,0.2,0,0.4,0,0.6v0.3
		c0,0.1,0,0.2,0,0.4s0,0.3,0,0.4l-0.2,0h-0.1h-0.1l-0.2,0c0-0.2,0-0.3,0-0.5c0-0.2,0-0.3,0-0.4c0-0.2,0-0.4-0.1-0.6
		c0-0.1-0.1-0.2-0.3-0.1c-0.1,0-0.2,0.1-0.3,0.1c-0.1,0.2-0.1,0.3-0.1,0.5v0.6c0,0.1,0,0.2,0,0.3c0,0,0,0,0,0l-0.2,0h-0.1h-0.1
		l-0.2,0c0-0.2,0-0.3,0-0.4c0-0.1,0-0.3,0-0.4c0-0.2,0-0.5-0.1-0.7c0-0.1-0.1-0.1-0.3-0.1c-0.1,0-0.2,0-0.3,0.1
		c-0.1,0.2-0.1,0.3-0.1,0.5v0.6c0,0.1,0,0.2,0,0.3c0,0,0,0,0,0l-0.1,0h-0.1h-0.1L254.3,45z"/>
	<path class="st2" d="M257.6,44c-0.1-0.5,0.3-1,0.8-1c0.1,0,0.1,0,0.2,0c0.3,0,0.6,0.1,0.8,0.3c0.2,0.2,0.3,0.5,0.3,0.8
		c0,0.6-0.5,1-1,1C258.1,45,257.6,44.6,257.6,44L257.6,44z M258.2,44c0,0.2,0,0.4,0.1,0.6c0.1,0.1,0.2,0.2,0.3,0.2
		c0.1,0,0.3-0.1,0.3-0.2c0.1-0.2,0.1-0.4,0.1-0.6c0-0.2,0-0.4-0.1-0.7c-0.1-0.1-0.2-0.2-0.3-0.2c-0.1,0-0.3,0.1-0.3,0.2
		C258.3,43.6,258.2,43.8,258.2,44z"/>
	<path class="st2" d="M260,45c0-0.2,0-0.4,0-0.5c0-0.2,0-0.3,0-0.5s0-0.3,0-0.5c0-0.2,0-0.3,0-0.5l0.1,0h0.3l0.1,0v0.3
		c0.1-0.1,0.2-0.2,0.3-0.2c0.1-0.1,0.2-0.1,0.3-0.1c0.1,0,0.2,0,0.3,0.1c0.1,0,0.2,0.1,0.2,0.1c0,0.1,0.1,0.1,0.1,0.2
		c0,0.1,0,0.3,0,0.4V44c0,0.1,0,0.2,0,0.3c0,0.1,0,0.3,0,0.4s0,0.2,0,0.3l-0.2,0h-0.1h-0.1l-0.2,0c0-0.1,0-0.3,0-0.4
		c0-0.2,0-0.3,0-0.5c0-0.2,0-0.4-0.1-0.6c0-0.1-0.1-0.1-0.3-0.1c-0.1,0-0.2,0.1-0.3,0.2c-0.1,0.2-0.1,0.3-0.1,0.5c0,0.1,0,0.3,0,0.4
		s0,0.4,0,0.6c0,0-0.1,0-0.1,0h-0.1h-0.1L260,45z"/>
	<path class="st2" d="M262.9,45c-0.1-0.4-0.2-0.9-0.4-1.4c-0.1-0.5-0.3-0.9-0.5-1.4h0.2h0.4h0.2c0.1,0.3,0.2,0.7,0.3,1
		s0.2,0.7,0.3,1c0.1-0.4,0.2-0.7,0.4-1.1c0.1-0.3,0.2-0.7,0.3-1h0.1h0.2h0.1c0.1,0.3,0.2,0.6,0.3,1c0.1,0.3,0.2,0.7,0.3,1
		c0.1-0.3,0.2-0.7,0.3-1s0.2-0.7,0.3-1h0.1h0.2h0.1c-0.1,0.4-0.3,0.8-0.4,1.3c-0.2,0.5-0.3,0.9-0.5,1.5l-0.1,0h-0.1h-0.1l-0.1,0
		c-0.1-0.3-0.2-0.6-0.3-1c-0.1-0.3-0.2-0.7-0.4-1c-0.1,0.3-0.3,0.6-0.4,1c-0.1,0.3-0.2,0.7-0.3,1l-0.1,0h-0.1H263L262.9,45z"/>
	<path class="st2" d="M266.7,44c0,0.2,0,0.4,0.2,0.6c0.1,0.1,0.3,0.2,0.5,0.2c0.1,0,0.2,0,0.3,0c0.1,0,0.2-0.1,0.3-0.1l0,0l-0.1,0.2
		c-0.1,0.1-0.2,0.1-0.3,0.1c-0.1,0-0.2,0-0.4,0c-0.3,0-0.5-0.1-0.7-0.3c-0.2-0.2-0.3-0.5-0.3-0.8c0-0.3,0.1-0.5,0.3-0.7
		c0.2-0.2,0.4-0.3,0.7-0.3c0.2,0,0.5,0.1,0.6,0.2c0.2,0.2,0.2,0.4,0.2,0.7V44c0,0,0,0,0,0.1L266.7,44z M266.7,43.8h0.7
		c0,0,0,0,0-0.1c0,0,0,0,0,0c0-0.1,0-0.3-0.1-0.4c0-0.1-0.1-0.1-0.2-0.1c-0.1,0-0.2,0.1-0.3,0.2C266.7,43.5,266.7,43.6,266.7,43.8
		L266.7,43.8z"/>
	<path class="st2" d="M269.3,44.7c-0.1,0.1-0.1,0.2-0.2,0.2c-0.1,0.1-0.2,0.1-0.3,0.1c-0.1,0-0.3,0-0.4-0.2
		c-0.1-0.1-0.2-0.3-0.1-0.4c0-0.1,0-0.2,0.1-0.3c0.1-0.1,0.2-0.2,0.3-0.2l0.2-0.1c0.2,0,0.3-0.1,0.4-0.2c0,0,0,0,0,0v0
		c0-0.1,0-0.2-0.1-0.3c-0.1-0.1-0.2-0.1-0.3-0.1c-0.1,0-0.2,0-0.3,0.1c-0.1,0.1-0.2,0.1-0.2,0.2l-0.1-0.2c0,0,0-0.1,0-0.1
		c0.1-0.1,0.2-0.2,0.4-0.2c0.1-0.1,0.2-0.1,0.4-0.1c0.2,0,0.4,0,0.6,0.2c0.1,0.1,0.2,0.3,0.2,0.5v0l0,0.7v0.1c0,0.1,0,0.2,0.1,0.3
		c0.1,0.1,0.1,0.1,0.2,0.1h0v0.1c-0.1,0-0.1,0.1-0.2,0.1c-0.1,0-0.1,0-0.2,0C269.5,45,269.3,44.9,269.3,44.7L269.3,44.7z
		 M269.3,43.9c-0.1,0-0.3,0.1-0.4,0.2c-0.1,0.1-0.1,0.2-0.1,0.3c0,0.1,0,0.2,0.1,0.3c0,0.1,0.1,0.1,0.2,0.1c0.1,0,0.2,0,0.2-0.1
		c0.1-0.1,0.1-0.2,0.1-0.3L269.3,43.9z"/>
	<path class="st2" d="M270.4,45c0-0.2,0-0.5,0-0.7c0-0.2,0-0.5,0-0.8s0-0.6,0-0.8c0-0.2,0-0.5,0-0.7l0.2,0h0.1h0.1
		c0.1,0,0.1,0,0.2,0c0,0.2,0,0.5,0,0.7c0,0.2,0,0.5,0,0.8c0,0.3,0,0.6,0,0.8c0,0.2,0,0.5,0,0.7c0,0-0.1,0-0.1,0c-0.1,0-0.1,0-0.2,0
		c-0.1,0-0.1,0-0.2,0C270.5,45,270.4,45,270.4,45z"/>
	<path class="st2" d="M271.5,43.3h-0.3c0,0,0,0,0,0v-0.1c0,0,0,0,0-0.1c0,0,0,0,0,0h0h0.2h0c0,0,0,0,0-0.1c0,0,0-0.1,0-0.1
		c0,0,0-0.1,0-0.2s0-0.1,0-0.2l0.3-0.1c0.1,0,0.2-0.1,0.3-0.1l0,0c0,0.2,0,0.3,0,0.4s0,0.2,0,0.2v0.2h0.2h0.2c0,0,0,0,0,0.1v0
		c0,0,0,0.1,0,0.1l0,0h-0.4v0.1c0,0.3,0,0.5,0,0.6v0.2c0,0.2,0,0.4,0,0.6c0,0.1,0.1,0.1,0.2,0.1c0.1,0,0.2,0,0.2,0l0,0v0.2
		c-0.1,0-0.2,0.1-0.3,0.1c-0.1,0-0.1,0-0.2,0c-0.1,0-0.3,0-0.4-0.1c-0.1-0.1-0.1-0.3-0.1-0.4c0,0,0-0.1,0-0.3c0-0.2,0-0.4,0-0.7
		L271.5,43.3z"/>
	<path class="st2" d="M272.8,45c0-0.1,0-0.3,0-0.5s0-0.5,0-0.9s0-0.8,0-1c0-0.2,0-0.4,0-0.6l0.2,0h0.1c0,0,0.1,0,0.1,0l0.2,0
		c0,0.1,0,0.2,0,0.4c0,0.1,0,0.3,0,0.4v0.6c0.1-0.1,0.2-0.2,0.3-0.3c0.1-0.1,0.2-0.1,0.4-0.1c0.1,0,0.2,0,0.3,0.1
		c0.1,0,0.2,0.1,0.2,0.1c0,0.1,0.1,0.1,0.1,0.2c0,0.1,0,0.3,0,0.4c0,0,0,0.1,0,0.2s0,0.2,0,0.3c0,0.1,0,0.3,0,0.4c0,0.1,0,0.2,0,0.3
		l-0.2,0h-0.1h-0.1l-0.2,0c0-0.1,0-0.3,0-0.4s0-0.3,0-0.5c0-0.2,0-0.4-0.1-0.6c0-0.1-0.1-0.1-0.3-0.1c-0.1,0-0.2,0.1-0.3,0.2
		c-0.1,0.2-0.1,0.3-0.1,0.5c0,0.1,0,0.3,0,0.4c0,0.2,0,0.3,0,0.5l-0.2,0H273h-0.1L272.8,45z"/>
	<path class="st2" d="M245.8,49.5c0-0.2,0.1-0.4,0.1-0.5s0-0.3,0-0.3l0.3-1.9h0.1h0.1h0.1h0.1c0.1,0.3,0.3,0.6,0.5,1
		c0.2,0.3,0.3,0.6,0.5,0.9c0.2-0.3,0.3-0.6,0.5-0.9c0.2-0.3,0.3-0.6,0.5-1h0.1h0.1h0.1h0.1l0.2,1.9c0,0.2,0,0.4,0.1,0.5
		c0,0.1,0,0.2,0.1,0.3l-0.2,0h-0.2h-0.2l-0.2,0c0,0,0,0,0,0c0-0.3,0-0.5,0-0.5l-0.1-1.3c-0.2,0.3-0.3,0.6-0.5,0.9s-0.3,0.6-0.5,1h0
		h-0.1h0c-0.2-0.3-0.3-0.7-0.5-0.9c-0.2-0.3-0.3-0.6-0.4-0.9l-0.1,0.8v0c0,0.4-0.1,0.8-0.1,0.9l-0.1,0h-0.1L245.8,49.5L245.8,49.5z"
		/>
	<path class="st2" d="M250.5,49.3c-0.1,0.1-0.1,0.2-0.2,0.2c-0.1,0.1-0.2,0.1-0.3,0.1c-0.1,0-0.3,0-0.4-0.2
		c-0.1-0.1-0.2-0.3-0.1-0.4c0-0.1,0-0.2,0.1-0.3c0.1-0.1,0.2-0.2,0.3-0.2l0.2-0.1c0.2,0,0.3-0.1,0.4-0.2c0,0,0,0,0,0v0
		c0-0.1,0-0.2-0.1-0.3c-0.1-0.1-0.2-0.1-0.3-0.1c-0.1,0-0.2,0-0.3,0.1c-0.1,0.1-0.2,0.1-0.2,0.2c0-0.1,0-0.1-0.1-0.2l0-0.1
		c0.1-0.1,0.2-0.2,0.4-0.2c0.1-0.1,0.2-0.1,0.4-0.1c0.2,0,0.4,0,0.6,0.2c0.1,0.1,0.2,0.3,0.2,0.5v0v0.7V49c0,0.1,0,0.2,0.1,0.3
		c0.1,0.1,0.1,0.1,0.2,0.1l0,0v0.1c-0.1,0-0.1,0.1-0.2,0.1c-0.1,0-0.1,0-0.2,0c-0.1,0-0.2,0-0.2-0.1
		C250.6,49.4,250.5,49.3,250.5,49.3z M250.5,48.4c-0.1,0-0.3,0.1-0.4,0.2c-0.1,0.1-0.1,0.2-0.1,0.3c0,0.1,0,0.2,0.1,0.3
		c0,0.1,0.1,0.1,0.2,0.1c0.1,0,0.2,0,0.2-0.1c0.1-0.1,0.1-0.2,0.1-0.3V48.4z"/>
	<path class="st2" d="M251.9,49.6L251.9,49.6c-0.1-0.1-0.1-0.1-0.2-0.2c0-0.1-0.1-0.1-0.1-0.2c0-0.1,0-0.2,0.1-0.3
		c0.1-0.1,0.2-0.2,0.3-0.2v-0.1c-0.1,0-0.3-0.1-0.4-0.2c-0.1-0.1-0.1-0.2-0.1-0.4c0-0.2,0.1-0.4,0.2-0.5c0.2-0.1,0.4-0.2,0.6-0.2
		l0.3,0c0.2,0,0.3,0,0.4,0h0.2h0.2v0.2l-0.3,0H253c0.1,0,0.1,0.1,0.2,0.2c0,0.1,0.1,0.2,0.1,0.3c0,0.2-0.1,0.4-0.3,0.5
		c-0.2,0.1-0.4,0.2-0.7,0.2h-0.1c0,0-0.1,0-0.1,0.1c0,0,0,0.1,0,0.1c0,0.1,0.2,0.2,0.6,0.2h0.1c0.2,0,0.3,0,0.5,0.1
		c0.1,0,0.1,0.1,0.2,0.2c0,0.1,0.1,0.2,0.1,0.3c0,0.2-0.1,0.5-0.3,0.6c-0.2,0.2-0.5,0.3-0.8,0.3c-0.2,0-0.4,0-0.6-0.1
		c-0.1-0.1-0.2-0.2-0.2-0.4c0-0.1,0-0.2,0.1-0.3C251.6,49.7,251.7,49.6,251.9,49.6z M252,49.6c-0.1,0-0.1,0.1-0.2,0.1
		c0,0.1-0.1,0.1-0.1,0.2c0,0.1,0,0.2,0.1,0.3c0.1,0.1,0.2,0.1,0.4,0.1c0.2,0,0.3,0,0.4-0.1c0.1-0.1,0.2-0.2,0.2-0.3
		c0-0.1,0-0.2-0.1-0.3c-0.1-0.1-0.2-0.1-0.3-0.1L252,49.6z M252,48.2c0,0.1,0,0.3,0.1,0.4c0,0.1,0.1,0.1,0.2,0.1
		c0.1,0,0.2,0,0.2-0.1c0.1-0.1,0.1-0.3,0.1-0.4c0-0.1,0-0.2-0.1-0.3c0-0.1-0.1-0.1-0.2-0.1c-0.1,0-0.2,0-0.2,0.1
		C252.1,47.9,252,48,252,48.2L252,48.2z"/>
	<path class="st2" d="M254.6,49.3c-0.1,0.1-0.1,0.2-0.2,0.2c-0.1,0.1-0.2,0.1-0.3,0.1c-0.1,0-0.3,0-0.4-0.2
		c-0.1-0.1-0.2-0.3-0.1-0.4c0-0.1,0-0.2,0.1-0.3c0.1-0.1,0.2-0.2,0.3-0.2l0.2-0.1c0.2,0,0.3-0.1,0.4-0.2c0,0,0,0,0,0c0,0,0,0,0,0
		c0-0.1,0-0.2-0.1-0.3c-0.1-0.1-0.2-0.1-0.3-0.1c-0.1,0-0.2,0-0.3,0.1c-0.1,0.1-0.2,0.1-0.2,0.2c0-0.1,0-0.1,0-0.2l0-0.1
		c0.1-0.1,0.2-0.2,0.4-0.2c0.1,0,0.2-0.1,0.4-0.1c0.2,0,0.4,0,0.6,0.2c0.1,0.1,0.2,0.3,0.2,0.5v0v0.7V49c0,0.1,0,0.2,0.1,0.3
		c0.1,0.1,0.1,0.1,0.2,0.1h0v0.1c-0.1,0-0.1,0.1-0.2,0.1c-0.1,0-0.1,0-0.2,0c-0.1,0-0.2,0-0.3-0.1C254.7,49.4,254.7,49.3,254.6,49.3
		z M254.6,48.4c-0.1,0-0.3,0.1-0.4,0.2c-0.1,0.1-0.1,0.2-0.1,0.3c0,0.1,0,0.2,0.1,0.3c0,0.1,0.1,0.1,0.2,0.1c0.1,0,0.2,0,0.2-0.1
		c0.1-0.1,0.1-0.2,0.1-0.3V48.4z"/>
	<path class="st2" d="M255.5,49.5L255.5,49.5c0.2-0.3,0.4-0.7,0.7-1.1l0.4-0.6h-0.2h-0.1c-0.1,0-0.3,0-0.5,0h0c0,0,0,0,0,0
		c0,0,0,0,0-0.1s0-0.1,0-0.1c0,0,0,0,0,0h0.4h0.8h0.4v0.1c-0.1,0.1-0.2,0.3-0.4,0.6l-0.7,1.1h0.2h0.1c0.1,0,0.3,0,0.4,0l0.3,0
		c0,0,0,0,0,0.1c0,0,0,0,0,0.1c0,0,0,0,0,0c0,0,0,0,0,0.1c-0.1,0-0.2,0-0.4,0h-0.5h-0.5C255.8,49.5,255.6,49.5,255.5,49.5z"/>
	<path class="st2" d="M257.6,46.8c0-0.2,0.1-0.3,0.3-0.3c0,0,0,0,0,0c0.1,0,0.2,0,0.2,0.1c0.1,0.1,0.1,0.1,0.1,0.2
		c0,0.1,0,0.2-0.1,0.2c-0.1,0.1-0.1,0.1-0.2,0.1c-0.1,0-0.2,0-0.2-0.1C257.6,47,257.6,46.9,257.6,46.8z M257.6,49.5
		c0-0.2,0-0.4,0-0.5s0-0.3,0-0.4s0-0.3,0-0.5c0-0.2,0-0.3,0-0.5h0.1h0.3h0.1c0,0.2,0,0.3,0,0.5s0,0.3,0,0.5c0,0.2,0,0.3,0,0.4
		c0,0.2,0,0.3,0,0.5l-0.2,0h-0.1h-0.1L257.6,49.5z"/>
	<path class="st2" d="M258.7,49.5c0-0.2,0-0.4,0-0.5c0-0.2,0-0.3,0-0.5s0-0.3,0-0.5c0-0.2,0-0.3,0-0.5h0.1h0.3h0.1v0.3
		c0.1-0.1,0.2-0.2,0.3-0.3c0.1-0.1,0.2-0.1,0.3-0.1c0.1,0,0.2,0,0.3,0.1c0.1,0,0.2,0.1,0.2,0.1c0,0.1,0.1,0.1,0.1,0.2
		c0,0.1,0,0.3,0,0.4v0.2c0,0.1,0,0.2,0,0.3c0,0.1,0,0.3,0,0.4s0,0.2,0,0.3l-0.2,0h-0.1h-0.1l-0.2,0c0-0.1,0-0.3,0-0.4
		c0-0.2,0-0.3,0-0.5c0-0.2,0-0.4-0.1-0.6c0-0.1-0.1-0.1-0.3-0.1c-0.1,0-0.2,0.1-0.3,0.2c-0.1,0.2-0.1,0.3-0.1,0.5c0,0.1,0,0.3,0,0.4
		s0,0.4,0,0.6c0,0-0.1,0-0.1,0H259h-0.1L258.7,49.5z"/>
	<path class="st2" d="M261.5,48.5c0,0.2,0,0.4,0.2,0.6c0.1,0.1,0.3,0.2,0.5,0.2c0.1,0,0.2,0,0.3,0c0.1,0,0.2-0.1,0.3-0.1l0,0
		l-0.1,0.2c-0.1,0.1-0.2,0.1-0.3,0.1c-0.1,0-0.2,0-0.4,0c-0.3,0-0.5-0.1-0.7-0.3c-0.2-0.2-0.3-0.5-0.3-0.8c0-0.3,0.1-0.5,0.3-0.7
		c0.2-0.2,0.4-0.3,0.7-0.3c0.2,0,0.5,0.1,0.6,0.2c0.2,0.2,0.2,0.4,0.2,0.7v0.1c0,0,0,0,0,0.1L261.5,48.5z M261.5,48.3h0.7
		c0,0,0,0,0-0.1c0,0,0,0,0,0c0-0.1,0-0.3-0.1-0.4c0-0.1-0.1-0.1-0.2-0.1c-0.1,0-0.2,0.1-0.3,0.2C261.5,48,261.5,48.2,261.5,48.3
		L261.5,48.3z"/>
</g>
<g>
	<path class="st1" d="M406.7,42.9L406.7,42.9c-0.1-0.1-0.2-0.3-0.3-0.3c-0.1-0.1-0.3-0.1-0.5-0.1c-0.3,0-0.5,0.1-0.7,0.3
		c-0.2,0.3-0.3,0.6-0.3,0.9c0,0.3,0.1,0.6,0.3,0.9c0.2,0.2,0.4,0.3,0.7,0.3c0.1,0,0.3,0,0.4-0.1c0.1-0.1,0.3-0.1,0.4-0.2h0.1
		l-0.1,0.4c-0.1,0.1-0.3,0.1-0.4,0.1c-0.1,0-0.3,0-0.4,0c-0.4,0-0.8-0.1-1.1-0.4c-0.3-0.3-0.4-0.7-0.4-1.1c0-0.4,0.1-0.8,0.4-1
		c0.3-0.3,0.7-0.4,1.1-0.4c0.2,0,0.3,0,0.4,0c0.2,0,0.3,0.1,0.5,0.2c0,0.1,0,0.2-0.1,0.2C406.7,42.7,406.7,42.8,406.7,42.9z"/>
	<path class="st1" d="M407,44c0-0.3,0.1-0.6,0.3-0.8c0.4-0.4,1.1-0.4,1.5,0c0.4,0.4,0.4,1,0,1.4c-0.2,0.2-0.5,0.3-0.8,0.3
		c-0.3,0-0.6-0.1-0.8-0.3C407,44.6,406.9,44.3,407,44z M407.5,44c0,0.2,0,0.4,0.1,0.6c0.1,0.2,0.3,0.2,0.5,0.1
		c0.1,0,0.1-0.1,0.1-0.1c0.1-0.2,0.1-0.4,0.1-0.6c0-0.2,0-0.4-0.1-0.7c-0.1-0.1-0.2-0.2-0.3-0.2c-0.1,0-0.3,0.1-0.3,0.2
		C407.6,43.6,407.5,43.8,407.5,44z"/>
	<path class="st1" d="M409.3,45c0-0.2,0-0.4,0-0.6c0-0.2,0-0.3,0-0.4c0-0.1,0-0.3,0-0.4s0-0.4,0-0.6l0.1,0h0.3l0.1,0v0.3
		c0.1-0.1,0.2-0.2,0.3-0.2c0.1,0,0.2-0.1,0.3-0.1c0.1,0,0.2,0,0.3,0.1c0.1,0.1,0.2,0.2,0.2,0.3c0.1-0.1,0.2-0.2,0.3-0.3
		c0.1-0.1,0.2-0.1,0.4-0.1c0.1,0,0.2,0,0.3,0c0.1,0,0.1,0.1,0.2,0.1c0.1,0.1,0.1,0.2,0.1,0.3c0,0.2,0,0.4,0,0.6v0.3
		c0,0.1,0,0.2,0,0.4s0,0.3,0,0.4l-0.2,0H412h-0.1l-0.2,0c0-0.2,0-0.3,0-0.5c0-0.2,0-0.3,0-0.4c0-0.2,0-0.4-0.1-0.6
		c0-0.1-0.1-0.2-0.3-0.1c-0.1,0-0.2,0-0.3,0.1c-0.1,0.2-0.1,0.3-0.1,0.5v0.6c0,0.1,0,0.2,0,0.3c0,0,0,0,0,0l-0.2,0h-0.1h-0.1l-0.2,0
		c0-0.2,0-0.3,0-0.4c0-0.1,0-0.3,0-0.4c0-0.2,0-0.5-0.1-0.7c0-0.1-0.1-0.1-0.3-0.1c-0.1,0-0.2,0-0.3,0.1c-0.1,0.2-0.1,0.3-0.1,0.5
		v0.6c0,0.1,0,0.2,0,0.3v0l-0.1,0h-0.1h-0.1L409.3,45z"/>
	<path class="st1" d="M412.9,45c0-0.2,0-0.4,0-0.6c0-0.2,0-0.3,0-0.4c0-0.1,0-0.3,0-0.4s0-0.4,0-0.6l0.1,0h0.3l0.1,0v0.3
		c0.1-0.1,0.2-0.2,0.3-0.2c0.1,0,0.2-0.1,0.3-0.1c0.1,0,0.2,0,0.4,0.1c0.1,0.1,0.2,0.2,0.2,0.3c0.1-0.1,0.2-0.2,0.3-0.3
		c0.1-0.1,0.2-0.1,0.4-0.1c0.1,0,0.2,0,0.3,0c0.1,0,0.1,0.1,0.2,0.1c0.1,0.1,0.1,0.2,0.1,0.3c0,0.2,0,0.4,0,0.6v0.3
		c0,0.1,0,0.2,0,0.4s0,0.3,0,0.4l-0.2,0h-0.1h-0.1l-0.2,0c0-0.2,0-0.3,0-0.5s0-0.3,0-0.4c0-0.2,0-0.4-0.1-0.6c0-0.1-0.1-0.2-0.3-0.1
		c-0.1,0-0.2,0.1-0.3,0.1c-0.1,0.2-0.1,0.3-0.1,0.5v0.6c0,0.1,0,0.2,0,0.3c0,0,0,0,0,0l-0.2,0h-0.1h-0.1l-0.2,0c0-0.2,0-0.3,0-0.4
		c0-0.1,0-0.3,0-0.4c0-0.2,0-0.5-0.1-0.7c0-0.1-0.1-0.1-0.3-0.1c-0.1,0-0.2,0-0.3,0.1c-0.1,0.2-0.1,0.3-0.1,0.5v0.6
		c0,0.1,0,0.2,0,0.3c0,0,0,0,0,0l-0.1,0h-0.1H413L412.9,45z"/>
	<path class="st1" d="M416.2,44c-0.1-0.5,0.3-1,0.8-1c0.1,0,0.1,0,0.2,0c0.3,0,0.6,0.1,0.8,0.3c0.2,0.2,0.3,0.5,0.3,0.8
		c0,0.6-0.5,1-1,1S416.2,44.6,416.2,44L416.2,44z M416.8,44c0,0.2,0,0.4,0.1,0.6c0.1,0.1,0.2,0.2,0.3,0.2c0.1,0,0.3-0.1,0.3-0.2
		c0.1-0.2,0.1-0.4,0.1-0.6c0-0.2,0-0.4-0.1-0.7c-0.1-0.1-0.2-0.2-0.3-0.2c-0.1,0-0.3,0.1-0.3,0.2C416.9,43.6,416.8,43.8,416.8,44z"
		/>
	<path class="st1" d="M418.6,45c0-0.2,0-0.4,0-0.5c0-0.2,0-0.3,0-0.5s0-0.3,0-0.5c0-0.2,0-0.3,0-0.5l0.1,0h0.3l0.1,0v0.3
		c0.1-0.1,0.2-0.2,0.3-0.2c0.1-0.1,0.2-0.1,0.3-0.1c0.1,0,0.2,0,0.3,0.1c0.1,0,0.2,0.1,0.2,0.1c0,0.1,0.1,0.1,0.1,0.2
		c0,0.1,0,0.3,0,0.4V44c0,0.1,0,0.2,0,0.3c0,0.1,0,0.3,0,0.4s0,0.2,0,0.3l-0.2,0h-0.1H420l-0.2,0c0-0.1,0-0.3,0-0.4
		c0-0.2,0-0.3,0-0.5c0-0.2,0-0.4-0.1-0.6c0-0.1-0.1-0.1-0.3-0.1c-0.1,0-0.2,0.1-0.3,0.2c-0.1,0.2-0.1,0.3-0.1,0.5c0,0.1,0,0.3,0,0.4
		s0,0.4,0,0.6c0,0-0.1,0-0.1,0h-0.1h-0.1L418.6,45z"/>
	<path class="st1" d="M421.5,45c-0.1-0.4-0.2-0.9-0.4-1.4c-0.1-0.5-0.3-0.9-0.5-1.4h0.2h0.4h0.2c0.1,0.3,0.2,0.7,0.3,1
		s0.2,0.7,0.3,1c0.1-0.4,0.2-0.7,0.4-1.1c0.1-0.3,0.2-0.7,0.3-1h0.1h0.2h0.1c0.1,0.3,0.2,0.6,0.3,1c0.1,0.3,0.2,0.7,0.3,1
		c0.1-0.3,0.2-0.7,0.3-1s0.2-0.7,0.3-1h0.1h0.2h0.1c-0.1,0.4-0.3,0.8-0.4,1.3c-0.2,0.5-0.3,0.9-0.5,1.5l-0.1,0h-0.1h-0.1l-0.1,0
		c-0.1-0.3-0.2-0.6-0.3-1c-0.1-0.3-0.2-0.7-0.4-1c-0.1,0.3-0.3,0.6-0.4,1c-0.1,0.3-0.2,0.7-0.3,1l-0.1,0h-0.1h-0.1L421.5,45z"/>
	<path class="st1" d="M425.3,44c0,0.2,0,0.4,0.2,0.6c0.1,0.1,0.3,0.2,0.5,0.2c0.1,0,0.2,0,0.3,0c0.1,0,0.2-0.1,0.3-0.1l0,0l-0.1,0.2
		c-0.1,0.1-0.2,0.1-0.3,0.1c-0.1,0-0.2,0-0.4,0c-0.3,0-0.5-0.1-0.7-0.3c-0.2-0.2-0.3-0.5-0.3-0.8c0-0.3,0.1-0.5,0.3-0.7
		c0.2-0.2,0.4-0.3,0.7-0.3c0.2,0,0.5,0.1,0.6,0.2c0.2,0.2,0.2,0.4,0.2,0.7V44c0,0,0,0,0,0.1L425.3,44z M425.3,43.8h0.7
		c0,0,0,0,0-0.1c0,0,0,0,0,0c0-0.1,0-0.3-0.1-0.4c0-0.1-0.1-0.1-0.2-0.1c-0.1,0-0.2,0.1-0.3,0.2C425.3,43.5,425.3,43.6,425.3,43.8
		L425.3,43.8z"/>
	<path class="st1" d="M427.9,44.7c-0.1,0.1-0.1,0.2-0.2,0.2c-0.1,0.1-0.2,0.1-0.3,0.1c-0.1,0-0.3,0-0.4-0.2
		c-0.1-0.1-0.2-0.3-0.1-0.4c0-0.1,0-0.2,0.1-0.3c0.1-0.1,0.2-0.2,0.3-0.2l0.2-0.1c0.2,0,0.3-0.1,0.4-0.2c0,0,0,0,0,0v0
		c0-0.1,0-0.2-0.1-0.3c-0.1-0.1-0.2-0.1-0.3-0.1c-0.1,0-0.2,0-0.3,0.1c-0.1,0.1-0.2,0.1-0.2,0.2l-0.1-0.2c0,0,0-0.1,0-0.1
		c0.1-0.1,0.2-0.2,0.4-0.2c0.1-0.1,0.2-0.1,0.4-0.1c0.2,0,0.4,0,0.6,0.2c0.1,0.1,0.2,0.3,0.2,0.5v0l0,0.7v0.1c0,0.1,0,0.2,0.1,0.3
		c0.1,0.1,0.1,0.1,0.2,0.1h0v0.1c-0.1,0-0.1,0.1-0.2,0.1c-0.1,0-0.1,0-0.2,0C428.1,45,427.9,44.9,427.9,44.7L427.9,44.7z
		 M427.9,43.9c-0.1,0-0.3,0.1-0.4,0.2c-0.1,0.1-0.1,0.2-0.1,0.3c0,0.1,0,0.2,0.1,0.3c0,0.1,0.1,0.1,0.2,0.1c0.1,0,0.2,0,0.2-0.1
		c0.1-0.1,0.1-0.2,0.1-0.3V43.9z"/>
	<path class="st1" d="M429,45c0-0.2,0-0.5,0-0.7c0-0.2,0-0.5,0-0.8s0-0.6,0-0.8c0-0.2,0-0.5,0-0.7l0.2,0h0.1h0.1c0.1,0,0.1,0,0.2,0
		c0,0.2,0,0.5,0,0.7c0,0.2,0,0.5,0,0.8c0,0.3,0,0.6,0,0.8c0,0.2,0,0.5,0,0.7c0,0-0.1,0-0.1,0c-0.1,0-0.1,0-0.2,0c-0.1,0-0.1,0-0.2,0
		C429.1,45,429,45,429,45z"/>
	<path class="st1" d="M430.1,43.3h-0.3c0,0,0,0,0,0v-0.1c0,0,0,0,0-0.1c0,0,0,0,0,0h0h0.2h0c0,0,0,0,0-0.1c0,0,0-0.1,0-0.1
		c0,0,0-0.1,0-0.2s0-0.1,0-0.2l0.3-0.1c0.1,0,0.2-0.1,0.3-0.1l0,0c0,0.2,0,0.3,0,0.4c0,0.1,0,0.2,0,0.2v0.2h0.2h0.2c0,0,0,0,0,0.1v0
		c0,0,0,0.1,0,0.1l0,0h-0.4v0.1c0,0.3,0,0.5,0,0.6v0.2c0,0.2,0,0.4,0,0.6c0,0.1,0.1,0.1,0.2,0.1c0.1,0,0.2,0,0.2,0l0,0v0.2
		c-0.1,0-0.2,0.1-0.3,0.1c-0.1,0-0.1,0-0.2,0c-0.1,0-0.3,0-0.4-0.1c-0.1-0.1-0.1-0.3-0.1-0.4c0,0,0-0.1,0-0.3c0-0.2,0-0.4,0-0.7
		L430.1,43.3z"/>
	<path class="st1" d="M431.4,45c0-0.1,0-0.3,0-0.5s0-0.5,0-0.9s0-0.8,0-1c0-0.2,0-0.4,0-0.6l0.2,0h0.1c0,0,0.1,0,0.1,0l0.2,0
		c0,0.1,0,0.2,0,0.4c0,0.1,0,0.3,0,0.4v0.6c0.1-0.1,0.2-0.2,0.3-0.3c0.1-0.1,0.2-0.1,0.4-0.1c0.1,0,0.2,0,0.3,0.1
		c0.1,0,0.2,0.1,0.2,0.1c0,0.1,0.1,0.1,0.1,0.2c0,0.1,0,0.3,0,0.4c0,0,0,0.1,0,0.2s0,0.2,0,0.3c0,0.1,0,0.3,0,0.4c0,0.1,0,0.2,0,0.3
		l-0.2,0h-0.1h-0.1l-0.2,0c0-0.1,0-0.3,0-0.4s0-0.3,0-0.5c0-0.2,0-0.4-0.1-0.6c0-0.1-0.1-0.1-0.3-0.1c-0.1,0-0.2,0.1-0.3,0.2
		c-0.1,0.2-0.1,0.3-0.1,0.5c0,0.1,0,0.3,0,0.4c0,0.2,0,0.3,0,0.5l-0.2,0h-0.1h-0.1L431.4,45z"/>
	<path class="st1" d="M404.4,49.5c0-0.2,0.1-0.4,0.1-0.5c0-0.1,0-0.3,0-0.3l0.3-1.9h0.1h0.1h0.1h0.1c0.1,0.3,0.3,0.6,0.5,1
		c0.2,0.3,0.3,0.6,0.5,0.9c0.2-0.3,0.3-0.6,0.5-0.9c0.2-0.3,0.3-0.6,0.5-1h0.1h0.1h0.1h0.1l0.2,1.9c0,0.2,0,0.4,0.1,0.5
		c0,0.1,0,0.2,0.1,0.3l-0.2,0h-0.2h-0.2l-0.2,0c0,0,0,0,0,0c0-0.3,0-0.5,0-0.5l-0.1-1.3c-0.2,0.3-0.3,0.6-0.5,0.9s-0.3,0.6-0.5,1h0
		h-0.1h0c-0.2-0.3-0.3-0.7-0.5-0.9c-0.2-0.3-0.3-0.6-0.4-0.9l-0.1,0.8v0c0,0.4-0.1,0.8-0.1,0.9l-0.1,0h-0.1L404.4,49.5L404.4,49.5z"
		/>
	<path class="st1" d="M409.1,49.3c-0.1,0.1-0.1,0.2-0.2,0.2c-0.1,0.1-0.2,0.1-0.3,0.1c-0.1,0-0.3,0-0.4-0.2
		c-0.1-0.1-0.2-0.3-0.1-0.4c0-0.1,0-0.2,0.1-0.3c0.1-0.1,0.2-0.2,0.3-0.2l0.2-0.1c0.2,0,0.3-0.1,0.4-0.2c0,0,0,0,0,0v0
		c0-0.1,0-0.2-0.1-0.3c-0.1-0.1-0.2-0.1-0.3-0.1c-0.1,0-0.2,0-0.3,0.1c-0.1,0.1-0.2,0.1-0.2,0.2c0-0.1,0-0.1-0.1-0.2l0-0.1
		c0.1-0.1,0.2-0.2,0.4-0.2c0.1-0.1,0.2-0.1,0.4-0.1c0.2,0,0.4,0,0.6,0.2c0.1,0.1,0.2,0.3,0.2,0.5v0v0.7V49c0,0.1,0,0.2,0.1,0.3
		c0.1,0.1,0.1,0.1,0.2,0.1l0,0v0.1c-0.1,0-0.1,0.1-0.2,0.1c-0.1,0-0.1,0-0.2,0c-0.1,0-0.2,0-0.2-0.1
		C409.2,49.4,409.1,49.3,409.1,49.3z M409.1,48.4c-0.1,0-0.3,0.1-0.4,0.2c-0.1,0.1-0.1,0.2-0.1,0.3c0,0.1,0,0.2,0.1,0.3
		c0,0.1,0.1,0.1,0.2,0.1c0.1,0,0.2,0,0.2-0.1c0.1-0.1,0.1-0.2,0.1-0.3V48.4z"/>
	<path class="st1" d="M410.5,49.6L410.5,49.6c-0.1-0.1-0.1-0.1-0.2-0.2c0-0.1-0.1-0.1-0.1-0.2c0-0.1,0-0.2,0.1-0.3
		c0.1-0.1,0.2-0.2,0.3-0.2v-0.1c-0.1,0-0.3-0.1-0.4-0.2c-0.1-0.1-0.1-0.2-0.1-0.4c0-0.2,0.1-0.4,0.2-0.5c0.2-0.1,0.4-0.2,0.6-0.2
		l0.3,0c0.2,0,0.3,0,0.4,0h0.2h0.2v0.2l-0.3,0h-0.1c0.1,0,0.1,0.1,0.2,0.2c0,0.1,0.1,0.2,0.1,0.3c0,0.2-0.1,0.4-0.3,0.5
		c-0.2,0.1-0.4,0.2-0.7,0.2h-0.1c0,0-0.1,0-0.1,0.1c0,0,0,0.1,0,0.1c0,0.1,0.2,0.2,0.6,0.2h0.1c0.2,0,0.3,0,0.5,0.1
		c0.1,0,0.1,0.1,0.2,0.2c0,0.1,0.1,0.2,0.1,0.3c0,0.2-0.1,0.5-0.3,0.6c-0.2,0.2-0.5,0.3-0.8,0.3c-0.2,0-0.4,0-0.6-0.1
		c-0.1-0.1-0.2-0.2-0.2-0.4c0-0.1,0-0.2,0.1-0.3C410.2,49.7,410.3,49.6,410.5,49.6z M410.6,49.6c-0.1,0-0.1,0.1-0.2,0.1
		c0,0.1-0.1,0.1-0.1,0.2c0,0.1,0,0.2,0.1,0.3c0.1,0.1,0.2,0.1,0.4,0.1c0.2,0,0.3,0,0.4-0.1c0.1-0.1,0.2-0.2,0.2-0.3
		c0-0.1,0-0.2-0.1-0.3c-0.1-0.1-0.2-0.1-0.3-0.1L410.6,49.6z M410.6,48.2c0,0.1,0,0.3,0.1,0.4c0,0.1,0.1,0.1,0.2,0.1
		c0.1,0,0.2,0,0.2-0.1c0.1-0.1,0.1-0.3,0.1-0.4c0-0.1,0-0.2-0.1-0.3c0-0.1-0.1-0.1-0.2-0.1c-0.1,0-0.2,0-0.2,0.1
		C410.7,47.9,410.6,48,410.6,48.2L410.6,48.2z"/>
	<path class="st1" d="M413.2,49.3c-0.1,0.1-0.1,0.2-0.2,0.2c-0.1,0.1-0.2,0.1-0.3,0.1c-0.1,0-0.3,0-0.4-0.2
		c-0.1-0.1-0.2-0.3-0.1-0.4c0-0.1,0-0.2,0.1-0.3c0.1-0.1,0.2-0.2,0.3-0.2l0.2-0.1c0.2,0,0.3-0.1,0.4-0.2c0,0,0,0,0,0c0,0,0,0,0,0
		c0-0.1,0-0.2-0.1-0.3c-0.1-0.1-0.2-0.1-0.3-0.1c-0.1,0-0.2,0-0.3,0.1c-0.1,0.1-0.2,0.1-0.2,0.2c0-0.1,0-0.1,0-0.2l0-0.1
		c0.1-0.1,0.2-0.2,0.4-0.2c0.1,0,0.2-0.1,0.4-0.1c0.2,0,0.4,0,0.6,0.2c0.1,0.1,0.2,0.3,0.2,0.5v0v0.7V49c0,0.1,0,0.2,0.1,0.3
		c0.1,0.1,0.1,0.1,0.2,0.1h0v0.1c-0.1,0-0.1,0.1-0.2,0.1c-0.1,0-0.1,0-0.2,0c-0.1,0-0.2,0-0.3-0.1C413.3,49.4,413.3,49.3,413.2,49.3
		z M413.2,48.4c-0.1,0-0.3,0.1-0.4,0.2c-0.1,0.1-0.1,0.2-0.1,0.3c0,0.1,0,0.2,0.1,0.3c0,0.1,0.1,0.1,0.2,0.1c0.1,0,0.2,0,0.2-0.1
		c0.1-0.1,0.1-0.2,0.1-0.3V48.4z"/>
	<path class="st1" d="M414.1,49.5L414.1,49.5c0.2-0.3,0.4-0.7,0.7-1.1l0.4-0.6H415h-0.1c-0.1,0-0.3,0-0.5,0h0c0,0,0,0,0,0
		c0,0,0,0,0-0.1s0-0.1,0-0.1c0,0,0,0,0,0h0.4h0.8h0.4v0.1c-0.1,0.1-0.2,0.3-0.4,0.6l-0.7,1.1h0.2h0.1c0.1,0,0.3,0,0.4,0l0.3,0
		c0,0,0,0,0,0.1c0,0,0,0,0,0.1c0,0,0,0,0,0c0,0,0,0,0,0.1c-0.1,0-0.2,0-0.4,0H415h-0.5C414.4,49.5,414.2,49.5,414.1,49.5z"/>
	<path class="st1" d="M416.2,46.8c0-0.2,0.1-0.3,0.3-0.3c0,0,0,0,0,0c0.1,0,0.2,0,0.2,0.1c0.1,0.1,0.1,0.1,0.1,0.2
		c0,0.1,0,0.2-0.1,0.2c-0.1,0.1-0.1,0.1-0.2,0.1c-0.1,0-0.2,0-0.2-0.1C416.2,47,416.2,46.9,416.2,46.8z M416.2,49.5
		c0-0.2,0-0.4,0-0.5s0-0.3,0-0.4s0-0.3,0-0.5c0-0.2,0-0.3,0-0.5h0.1h0.3h0.1c0,0.2,0,0.3,0,0.5s0,0.3,0,0.5c0,0.2,0,0.3,0,0.4
		c0,0.2,0,0.3,0,0.5l-0.2,0h-0.1h-0.1L416.2,49.5z"/>
	<path class="st1" d="M417.3,49.5c0-0.2,0-0.4,0-0.5c0-0.2,0-0.3,0-0.5s0-0.3,0-0.5c0-0.2,0-0.3,0-0.5h0.1h0.3h0.1v0.3
		c0.1-0.1,0.2-0.2,0.3-0.3c0.1-0.1,0.2-0.1,0.3-0.1c0.1,0,0.2,0,0.3,0.1c0.1,0,0.2,0.1,0.2,0.1c0,0.1,0.1,0.1,0.1,0.2
		c0,0.1,0,0.3,0,0.4v0.2c0,0.1,0,0.2,0,0.3c0,0.1,0,0.3,0,0.4s0,0.2,0,0.3l-0.2,0h-0.1h-0.1l-0.2,0c0-0.1,0-0.3,0-0.4
		c0-0.2,0-0.3,0-0.5c0-0.2,0-0.4-0.1-0.6c0-0.1-0.1-0.1-0.3-0.1c-0.1,0-0.2,0.1-0.3,0.2c-0.1,0.2-0.1,0.3-0.1,0.5c0,0.1,0,0.3,0,0.4
		s0,0.4,0,0.6c0,0-0.1,0-0.1,0h-0.1h-0.1L417.3,49.5z"/>
	<path class="st1" d="M420.1,48.5c0,0.2,0,0.4,0.2,0.6c0.1,0.1,0.3,0.2,0.5,0.2c0.1,0,0.2,0,0.3,0c0.1,0,0.2-0.1,0.3-0.1l0,0
		l-0.1,0.2c-0.1,0.1-0.2,0.1-0.3,0.1c-0.1,0-0.2,0-0.4,0c-0.3,0-0.5-0.1-0.7-0.3c-0.2-0.2-0.3-0.5-0.3-0.8c0-0.3,0.1-0.5,0.3-0.7
		c0.2-0.2,0.4-0.3,0.7-0.3c0.2,0,0.5,0.1,0.6,0.2c0.2,0.2,0.2,0.4,0.2,0.7v0.1c0,0,0,0,0,0.1L420.1,48.5z M420.1,48.3h0.7
		c0,0,0,0,0-0.1c0,0,0,0,0,0c0-0.1,0-0.3-0.1-0.4c0-0.1-0.1-0.1-0.2-0.1c-0.1,0-0.2,0.1-0.3,0.2C420.1,48,420.1,48.2,420.1,48.3
		L420.1,48.3z"/>
</g>
<g>
	<path d="M565.3,42.9L565.3,42.9c-0.1-0.1-0.2-0.3-0.3-0.3c-0.1-0.1-0.3-0.1-0.5-0.1c-0.3,0-0.5,0.1-0.7,0.3
		c-0.2,0.3-0.3,0.6-0.3,0.9c0,0.3,0.1,0.6,0.3,0.9c0.2,0.2,0.4,0.3,0.7,0.3c0.1,0,0.3,0,0.4-0.1c0.1-0.1,0.3-0.1,0.4-0.2h0.1
		l-0.1,0.4c-0.1,0.1-0.3,0.1-0.4,0.1c-0.1,0-0.3,0-0.4,0c-0.4,0-0.8-0.1-1.1-0.4c-0.3-0.3-0.4-0.7-0.4-1.1c0-0.4,0.1-0.8,0.4-1
		c0.3-0.3,0.7-0.4,1.1-0.4c0.2,0,0.3,0,0.4,0c0.2,0,0.3,0.1,0.5,0.2c0,0.1,0,0.2-0.1,0.2C565.3,42.7,565.3,42.8,565.3,42.9z"/>
	<path d="M565.6,44c0-0.3,0.1-0.6,0.3-0.8c0.4-0.4,1.1-0.4,1.5,0c0.4,0.4,0.4,1,0,1.4c-0.2,0.2-0.5,0.3-0.8,0.3
		c-0.3,0-0.6-0.1-0.8-0.3C565.6,44.6,565.5,44.3,565.6,44z M566.1,44c0,0.2,0,0.4,0.1,0.6c0.1,0.2,0.3,0.2,0.5,0.1
		c0.1,0,0.1-0.1,0.1-0.1c0.1-0.2,0.1-0.4,0.1-0.6c0-0.2,0-0.4-0.1-0.7c-0.1-0.1-0.2-0.2-0.3-0.2c-0.1,0-0.3,0.1-0.3,0.2
		C566.2,43.6,566.1,43.8,566.1,44z"/>
	<path d="M567.9,45c0-0.2,0-0.4,0-0.6c0-0.2,0-0.3,0-0.4c0-0.1,0-0.3,0-0.4s0-0.4,0-0.6l0.1,0h0.3l0.1,0v0.3
		c0.1-0.1,0.2-0.2,0.3-0.2c0.1,0,0.2-0.1,0.3-0.1c0.1,0,0.2,0,0.3,0.1c0.1,0.1,0.2,0.2,0.2,0.3c0.1-0.1,0.2-0.2,0.3-0.3
		c0.1-0.1,0.2-0.1,0.4-0.1c0.1,0,0.2,0,0.3,0c0.1,0,0.1,0.1,0.2,0.1c0.1,0.1,0.1,0.2,0.1,0.3c0,0.2,0,0.4,0,0.6v0.3
		c0,0.1,0,0.2,0,0.4s0,0.3,0,0.4l-0.2,0h-0.1h-0.1l-0.2,0c0-0.2,0-0.3,0-0.5c0-0.2,0-0.3,0-0.4c0-0.2,0-0.4-0.1-0.6
		c0-0.1-0.1-0.2-0.3-0.1c-0.1,0-0.2,0-0.3,0.1c-0.1,0.2-0.1,0.3-0.1,0.5v0.6c0,0.1,0,0.2,0,0.3c0,0,0,0,0,0l-0.2,0h-0.1h-0.1l-0.2,0
		c0-0.2,0-0.3,0-0.4c0-0.1,0-0.3,0-0.4c0-0.2,0-0.5-0.1-0.7c0-0.1-0.1-0.1-0.3-0.1c-0.1,0-0.2,0-0.3,0.1c-0.1,0.2-0.1,0.3-0.1,0.5
		v0.6c0,0.1,0,0.2,0,0.3v0l-0.1,0h-0.1h-0.1L567.9,45z"/>
	<path d="M571.5,45c0-0.2,0-0.4,0-0.6c0-0.2,0-0.3,0-0.4c0-0.1,0-0.3,0-0.4s0-0.4,0-0.6l0.1,0h0.3l0.1,0v0.3
		c0.1-0.1,0.2-0.2,0.3-0.2c0.1,0,0.2-0.1,0.3-0.1c0.1,0,0.2,0,0.4,0.1c0.1,0.1,0.2,0.2,0.2,0.3c0.1-0.1,0.2-0.2,0.3-0.3
		c0.1-0.1,0.2-0.1,0.4-0.1c0.1,0,0.2,0,0.3,0c0.1,0,0.1,0.1,0.2,0.1c0.1,0.1,0.1,0.2,0.1,0.3c0,0.2,0,0.4,0,0.6v0.3
		c0,0.1,0,0.2,0,0.4s0,0.3,0,0.4l-0.2,0h-0.1H574l-0.2,0c0-0.2,0-0.3,0-0.5s0-0.3,0-0.4c0-0.2,0-0.4-0.1-0.6c0-0.1-0.1-0.2-0.3-0.1
		c-0.1,0-0.2,0.1-0.3,0.1c-0.1,0.2-0.1,0.3-0.1,0.5v0.6c0,0.1,0,0.2,0,0.3c0,0,0,0,0,0l-0.2,0h-0.1h-0.1l-0.2,0c0-0.2,0-0.3,0-0.4
		c0-0.1,0-0.3,0-0.4c0-0.2,0-0.5-0.1-0.7c0-0.1-0.1-0.1-0.3-0.1c-0.1,0-0.2,0-0.3,0.1c-0.1,0.2-0.1,0.3-0.1,0.5v0.6
		c0,0.1,0,0.2,0,0.3c0,0,0,0,0,0l-0.1,0h-0.1h-0.1L571.5,45z"/>
	<path d="M574.8,44c-0.1-0.5,0.3-1,0.8-1c0.1,0,0.1,0,0.2,0c0.3,0,0.6,0.1,0.8,0.3c0.2,0.2,0.3,0.5,0.3,0.8c0,0.6-0.5,1-1,1
		C575.3,45,574.8,44.6,574.8,44L574.8,44z M575.4,44c0,0.2,0,0.4,0.1,0.6c0.1,0.1,0.2,0.2,0.3,0.2c0.1,0,0.3-0.1,0.3-0.2
		c0.1-0.2,0.1-0.4,0.1-0.6c0-0.2,0-0.4-0.1-0.7c-0.1-0.1-0.2-0.2-0.3-0.2c-0.1,0-0.3,0.1-0.3,0.2C575.5,43.6,575.4,43.8,575.4,44z"
		/>
	<path d="M577.2,45c0-0.2,0-0.4,0-0.5c0-0.2,0-0.3,0-0.5s0-0.3,0-0.5c0-0.2,0-0.3,0-0.5l0.1,0h0.3l0.1,0v0.3
		c0.1-0.1,0.2-0.2,0.3-0.2c0.1-0.1,0.2-0.1,0.3-0.1c0.1,0,0.2,0,0.3,0.1c0.1,0,0.2,0.1,0.2,0.1c0,0.1,0.1,0.1,0.1,0.2
		c0,0.1,0,0.3,0,0.4V44c0,0.1,0,0.2,0,0.3c0,0.1,0,0.3,0,0.4s0,0.2,0,0.3l-0.2,0h-0.1h-0.1l-0.2,0c0-0.1,0-0.3,0-0.4
		c0-0.2,0-0.3,0-0.5c0-0.2,0-0.4-0.1-0.6c0-0.1-0.1-0.1-0.3-0.1c-0.1,0-0.2,0.1-0.3,0.2c-0.1,0.2-0.1,0.3-0.1,0.5c0,0.1,0,0.3,0,0.4
		s0,0.4,0,0.6c0,0-0.1,0-0.1,0h-0.1h-0.1L577.2,45z"/>
	<path d="M580.1,45c-0.1-0.4-0.2-0.9-0.4-1.4c-0.1-0.5-0.3-0.9-0.5-1.4h0.2h0.4h0.2c0.1,0.3,0.2,0.7,0.3,1s0.2,0.7,0.3,1
		c0.1-0.4,0.2-0.7,0.4-1.1c0.1-0.3,0.2-0.7,0.3-1h0.1h0.2h0.1c0.1,0.3,0.2,0.6,0.3,1c0.1,0.3,0.2,0.7,0.3,1c0.1-0.3,0.2-0.7,0.3-1
		s0.2-0.7,0.3-1h0.1h0.2h0.1c-0.1,0.4-0.3,0.8-0.4,1.3c-0.2,0.5-0.3,0.9-0.5,1.5l-0.1,0h-0.1H582l-0.1,0c-0.1-0.3-0.2-0.6-0.3-1
		c-0.1-0.3-0.2-0.7-0.4-1c-0.1,0.3-0.3,0.6-0.4,1c-0.1,0.3-0.2,0.7-0.3,1l-0.1,0h-0.1h-0.1L580.1,45z"/>
	<path d="M583.9,44c0,0.2,0,0.4,0.2,0.6c0.1,0.1,0.3,0.2,0.5,0.2c0.1,0,0.2,0,0.3,0c0.1,0,0.2-0.1,0.3-0.1l0,0l-0.1,0.2
		c-0.1,0.1-0.2,0.1-0.3,0.1c-0.1,0-0.2,0-0.4,0c-0.3,0-0.5-0.1-0.7-0.3c-0.2-0.2-0.3-0.5-0.3-0.8c0-0.3,0.1-0.5,0.3-0.7
		c0.2-0.2,0.4-0.3,0.7-0.3c0.2,0,0.5,0.1,0.6,0.2c0.2,0.2,0.2,0.4,0.2,0.7V44c0,0,0,0,0,0.1L583.9,44z M583.9,43.8h0.7
		c0,0,0,0,0-0.1c0,0,0,0,0,0c0-0.1,0-0.3-0.1-0.4c0-0.1-0.1-0.1-0.2-0.1c-0.1,0-0.2,0.1-0.3,0.2C583.9,43.5,583.9,43.6,583.9,43.8
		L583.9,43.8z"/>
	<path d="M586.5,44.7c-0.1,0.1-0.1,0.2-0.2,0.2c-0.1,0.1-0.2,0.1-0.3,0.1c-0.1,0-0.3,0-0.4-0.2c-0.1-0.1-0.2-0.3-0.1-0.4
		c0-0.1,0-0.2,0.1-0.3c0.1-0.1,0.2-0.2,0.3-0.2l0.2-0.1c0.2,0,0.3-0.1,0.4-0.2c0,0,0,0,0,0v0c0-0.1,0-0.2-0.1-0.3
		c-0.1-0.1-0.2-0.1-0.3-0.1c-0.1,0-0.2,0-0.3,0.1c-0.1,0.1-0.2,0.1-0.2,0.2l-0.1-0.2c0,0,0-0.1,0-0.1c0.1-0.1,0.2-0.2,0.4-0.2
		c0.1-0.1,0.2-0.1,0.4-0.1c0.2,0,0.4,0,0.6,0.2c0.1,0.1,0.2,0.3,0.2,0.5v0l0,0.7v0.1c0,0.1,0,0.2,0.1,0.3c0.1,0.1,0.1,0.1,0.2,0.1h0
		v0.1c-0.1,0-0.1,0.1-0.2,0.1c-0.1,0-0.1,0-0.2,0C586.7,45,586.5,44.9,586.5,44.7L586.5,44.7z M586.5,43.9c-0.1,0-0.3,0.1-0.4,0.2
		c-0.1,0.1-0.1,0.2-0.1,0.3c0,0.1,0,0.2,0.1,0.3c0,0.1,0.1,0.1,0.2,0.1c0.1,0,0.2,0,0.2-0.1c0.1-0.1,0.1-0.2,0.1-0.3V43.9z"/>
	<path d="M587.6,45c0-0.2,0-0.5,0-0.7c0-0.2,0-0.5,0-0.8s0-0.6,0-0.8c0-0.2,0-0.5,0-0.7l0.2,0h0.1h0.1c0.1,0,0.1,0,0.2,0
		c0,0.2,0,0.5,0,0.7c0,0.2,0,0.5,0,0.8c0,0.3,0,0.6,0,0.8c0,0.2,0,0.5,0,0.7c0,0-0.1,0-0.1,0c-0.1,0-0.1,0-0.2,0c-0.1,0-0.1,0-0.2,0
		C587.7,45,587.6,45,587.6,45z"/>
	<path d="M588.7,43.3h-0.3c0,0,0,0,0,0v-0.1c0,0,0,0,0-0.1c0,0,0,0,0,0h0h0.2h0c0,0,0,0,0-0.1c0,0,0-0.1,0-0.1c0,0,0-0.1,0-0.2
		s0-0.1,0-0.2l0.3-0.1c0.1,0,0.2-0.1,0.3-0.1l0,0c0,0.2,0,0.3,0,0.4c0,0.1,0,0.2,0,0.2v0.2h0.2h0.2c0,0,0,0,0,0.1v0c0,0,0,0.1,0,0.1
		l0,0h-0.4v0.1c0,0.3,0,0.5,0,0.6v0.2c0,0.2,0,0.4,0,0.6c0,0.1,0.1,0.1,0.2,0.1c0.1,0,0.2,0,0.2,0l0,0v0.2c-0.1,0-0.2,0.1-0.3,0.1
		c-0.1,0-0.1,0-0.2,0c-0.1,0-0.3,0-0.4-0.1c-0.1-0.1-0.1-0.3-0.1-0.4c0,0,0-0.1,0-0.3c0-0.2,0-0.4,0-0.7L588.7,43.3z"/>
	<path d="M590,45c0-0.1,0-0.3,0-0.5c0-0.2,0-0.5,0-0.9s0-0.8,0-1c0-0.2,0-0.4,0-0.6l0.2,0h0.1c0,0,0.1,0,0.1,0l0.2,0
		c0,0.1,0,0.2,0,0.4c0,0.1,0,0.3,0,0.4v0.6c0.1-0.1,0.2-0.2,0.3-0.3c0.1-0.1,0.2-0.1,0.4-0.1c0.1,0,0.2,0,0.3,0.1
		c0.1,0,0.2,0.1,0.2,0.1c0,0.1,0.1,0.1,0.1,0.2c0,0.1,0,0.3,0,0.4c0,0,0,0.1,0,0.2s0,0.2,0,0.3c0,0.1,0,0.3,0,0.4c0,0.1,0,0.2,0,0.3
		l-0.2,0h-0.1h-0.1l-0.2,0c0-0.1,0-0.3,0-0.4c0-0.2,0-0.3,0-0.5c0-0.2,0-0.4-0.1-0.6c0-0.1-0.1-0.1-0.3-0.1c-0.1,0-0.2,0.1-0.3,0.2
		c-0.1,0.2-0.1,0.3-0.1,0.5c0,0.1,0,0.3,0,0.4c0,0.2,0,0.3,0,0.5l-0.2,0h-0.1h-0.1L590,45z"/>
	<path d="M563,49.5c0-0.2,0.1-0.4,0.1-0.5s0-0.3,0-0.3l0.3-1.9h0.1h0.1h0.1h0.1c0.1,0.3,0.3,0.6,0.5,1c0.2,0.3,0.3,0.6,0.5,0.9
		c0.2-0.3,0.3-0.6,0.5-0.9c0.2-0.3,0.3-0.6,0.5-1h0.1h0.1h0.1h0.1l0.2,1.9c0,0.2,0,0.4,0.1,0.5c0,0.1,0,0.2,0.1,0.3l-0.2,0H566h-0.2
		l-0.2,0c0,0,0,0,0,0c0-0.3,0-0.5,0-0.5l-0.1-1.3c-0.2,0.3-0.3,0.6-0.5,0.9c-0.2,0.3-0.3,0.6-0.5,1h0h-0.1h0
		c-0.2-0.3-0.3-0.7-0.5-0.9c-0.2-0.3-0.3-0.6-0.4-0.9l-0.1,0.8v0c0,0.4-0.1,0.8-0.1,0.9l-0.1,0h-0.1L563,49.5L563,49.5z"/>
	<path d="M567.7,49.3c-0.1,0.1-0.1,0.2-0.2,0.2c-0.1,0.1-0.2,0.1-0.3,0.1c-0.1,0-0.3,0-0.4-0.2c-0.1-0.1-0.2-0.3-0.1-0.4
		c0-0.1,0-0.2,0.1-0.3c0.1-0.1,0.2-0.2,0.3-0.2l0.2-0.1c0.2,0,0.3-0.1,0.4-0.2c0,0,0,0,0,0v0c0-0.1,0-0.2-0.1-0.3
		c-0.1-0.1-0.2-0.1-0.3-0.1c-0.1,0-0.2,0-0.3,0.1c-0.1,0.1-0.2,0.1-0.2,0.2c0-0.1,0-0.1-0.1-0.2l0-0.1c0.1-0.1,0.2-0.2,0.4-0.2
		c0.1-0.1,0.2-0.1,0.4-0.1c0.2,0,0.4,0,0.6,0.2c0.1,0.1,0.2,0.3,0.2,0.5v0v0.7V49c0,0.1,0,0.2,0.1,0.3c0.1,0.1,0.1,0.1,0.2,0.1l0,0
		v0.1c-0.1,0-0.1,0.1-0.2,0.1c-0.1,0-0.1,0-0.2,0c-0.1,0-0.2,0-0.2-0.1C567.8,49.4,567.7,49.3,567.7,49.3z M567.7,48.4
		c-0.1,0-0.3,0.1-0.4,0.2c-0.1,0.1-0.1,0.2-0.1,0.3c0,0.1,0,0.2,0.1,0.3c0,0.1,0.1,0.1,0.2,0.1c0.1,0,0.2,0,0.2-0.1
		c0.1-0.1,0.1-0.2,0.1-0.3V48.4z"/>
	<path d="M569.1,49.6L569.1,49.6c-0.1-0.1-0.1-0.1-0.2-0.2c0-0.1-0.1-0.1-0.1-0.2c0-0.1,0-0.2,0.1-0.3c0.1-0.1,0.2-0.2,0.3-0.2v-0.1
		c-0.1,0-0.3-0.1-0.4-0.2c-0.1-0.1-0.1-0.2-0.1-0.4c0-0.2,0.1-0.4,0.2-0.5c0.2-0.1,0.4-0.2,0.6-0.2l0.3,0c0.2,0,0.3,0,0.4,0h0.2h0.2
		v0.2l-0.3,0h-0.1c0.1,0,0.1,0.1,0.2,0.2c0,0.1,0.1,0.2,0.1,0.3c0,0.2-0.1,0.4-0.3,0.5c-0.2,0.1-0.4,0.2-0.7,0.2h-0.1
		c0,0-0.1,0-0.1,0.1c0,0,0,0.1,0,0.1c0,0.1,0.2,0.2,0.6,0.2h0.1c0.2,0,0.3,0,0.5,0.1c0.1,0,0.1,0.1,0.2,0.2c0,0.1,0.1,0.2,0.1,0.3
		c0,0.2-0.1,0.5-0.3,0.6c-0.2,0.2-0.5,0.3-0.8,0.3c-0.2,0-0.4,0-0.6-0.1c-0.1-0.1-0.2-0.2-0.2-0.4c0-0.1,0-0.2,0.1-0.3
		C568.8,49.7,568.9,49.6,569.1,49.6z M569.2,49.6c-0.1,0-0.1,0.1-0.2,0.1c0,0.1-0.1,0.1-0.1,0.2c0,0.1,0,0.2,0.1,0.3
		c0.1,0.1,0.2,0.1,0.4,0.1c0.2,0,0.3,0,0.4-0.1c0.1-0.1,0.2-0.2,0.2-0.3c0-0.1,0-0.2-0.1-0.3c-0.1-0.1-0.2-0.1-0.3-0.1L569.2,49.6z
		 M569.2,48.2c0,0.1,0,0.3,0.1,0.4c0,0.1,0.1,0.1,0.2,0.1c0.1,0,0.2,0,0.2-0.1c0.1-0.1,0.1-0.3,0.1-0.4c0-0.1,0-0.2-0.1-0.3
		c0-0.1-0.1-0.1-0.2-0.1c-0.1,0-0.2,0-0.2,0.1C569.3,47.9,569.2,48,569.2,48.2L569.2,48.2z"/>
	<path d="M571.8,49.3c-0.1,0.1-0.1,0.2-0.2,0.2c-0.1,0.1-0.2,0.1-0.3,0.1c-0.1,0-0.3,0-0.4-0.2c-0.1-0.1-0.2-0.3-0.1-0.4
		c0-0.1,0-0.2,0.1-0.3c0.1-0.1,0.2-0.2,0.3-0.2l0.2-0.1c0.2,0,0.3-0.1,0.4-0.2c0,0,0,0,0,0c0,0,0,0,0,0c0-0.1,0-0.2-0.1-0.3
		c-0.1-0.1-0.2-0.1-0.3-0.1c-0.1,0-0.2,0-0.3,0.1c-0.1,0.1-0.2,0.1-0.2,0.2c0-0.1,0-0.1,0-0.2l0-0.1c0.1-0.1,0.2-0.2,0.4-0.2
		c0.1,0,0.2-0.1,0.4-0.1c0.2,0,0.4,0,0.6,0.2c0.1,0.1,0.2,0.3,0.2,0.5v0v0.7V49c0,0.1,0,0.2,0.1,0.3c0.1,0.1,0.1,0.1,0.2,0.1h0v0.1
		c-0.1,0-0.1,0.1-0.2,0.1c-0.1,0-0.1,0-0.2,0c-0.1,0-0.2,0-0.3-0.1C571.9,49.4,571.9,49.3,571.8,49.3z M571.8,48.4
		c-0.1,0-0.3,0.1-0.4,0.2c-0.1,0.1-0.1,0.2-0.1,0.3c0,0.1,0,0.2,0.1,0.3c0,0.1,0.1,0.1,0.2,0.1c0.1,0,0.2,0,0.2-0.1
		c0.1-0.1,0.1-0.2,0.1-0.3V48.4z"/>
	<path d="M572.7,49.5L572.7,49.5c0.2-0.3,0.4-0.7,0.7-1.1l0.4-0.6h-0.2h-0.1c-0.1,0-0.3,0-0.5,0h0c0,0,0,0,0,0c0,0,0,0,0-0.1
		s0-0.1,0-0.1c0,0,0,0,0,0h0.4h0.8h0.4v0.1c-0.1,0.1-0.2,0.3-0.4,0.6l-0.7,1.1h0.2h0.1c0.1,0,0.3,0,0.4,0l0.3,0c0,0,0,0,0,0.1
		c0,0,0,0,0,0.1c0,0,0,0,0,0c0,0,0,0,0,0.1c-0.1,0-0.2,0-0.4,0h-0.5h-0.5C573,49.5,572.8,49.5,572.7,49.5z"/>
	<path d="M574.8,46.8c0-0.2,0.1-0.3,0.3-0.3c0,0,0,0,0,0c0.1,0,0.2,0,0.2,0.1c0.1,0.1,0.1,0.1,0.1,0.2c0,0.1,0,0.2-0.1,0.2
		c-0.1,0.1-0.1,0.1-0.2,0.1c-0.1,0-0.2,0-0.2-0.1C574.8,47,574.8,46.9,574.8,46.8z M574.8,49.5c0-0.2,0-0.4,0-0.5c0-0.2,0-0.3,0-0.4
		s0-0.3,0-0.5c0-0.2,0-0.3,0-0.5h0.1h0.3h0.1c0,0.2,0,0.3,0,0.5s0,0.3,0,0.5c0,0.2,0,0.3,0,0.4c0,0.2,0,0.3,0,0.5l-0.2,0h-0.1H575
		L574.8,49.5z"/>
	<path d="M575.9,49.5c0-0.2,0-0.4,0-0.5c0-0.2,0-0.3,0-0.5s0-0.3,0-0.5c0-0.2,0-0.3,0-0.5h0.1h0.3h0.1v0.3c0.1-0.1,0.2-0.2,0.3-0.3
		c0.1-0.1,0.2-0.1,0.3-0.1c0.1,0,0.2,0,0.3,0.1c0.1,0,0.2,0.1,0.2,0.1c0,0.1,0.1,0.1,0.1,0.2c0,0.1,0,0.3,0,0.4v0.2
		c0,0.1,0,0.2,0,0.3c0,0.1,0,0.3,0,0.4s0,0.2,0,0.3l-0.2,0h-0.1h-0.1l-0.2,0c0-0.1,0-0.3,0-0.4c0-0.2,0-0.3,0-0.5
		c0-0.2,0-0.4-0.1-0.6c0-0.1-0.1-0.1-0.3-0.1c-0.1,0-0.2,0.1-0.3,0.2c-0.1,0.2-0.1,0.3-0.1,0.5c0,0.1,0,0.3,0,0.4s0,0.4,0,0.6
		c0,0-0.1,0-0.1,0h-0.1h-0.1L575.9,49.5z"/>
	<path d="M578.7,48.5c0,0.2,0,0.4,0.2,0.6c0.1,0.1,0.3,0.2,0.5,0.2c0.1,0,0.2,0,0.3,0c0.1,0,0.2-0.1,0.3-0.1l0,0l-0.1,0.2
		c-0.1,0.1-0.2,0.1-0.3,0.1c-0.1,0-0.2,0-0.4,0c-0.3,0-0.5-0.1-0.7-0.3c-0.2-0.2-0.3-0.5-0.3-0.8c0-0.3,0.1-0.5,0.3-0.7
		c0.2-0.2,0.4-0.3,0.7-0.3c0.2,0,0.5,0.1,0.6,0.2c0.2,0.2,0.2,0.4,0.2,0.7v0.1c0,0,0,0,0,0.1L578.7,48.5z M578.7,48.3h0.7
		c0,0,0,0,0-0.1c0,0,0,0,0,0c0-0.1,0-0.3-0.1-0.4c0-0.1-0.1-0.1-0.2-0.1c-0.1,0-0.2,0.1-0.3,0.2C578.7,48,578.7,48.2,578.7,48.3
		L578.7,48.3z"/>
</g>
<g>
	<path class="st2" d="M723.9,42.9L723.9,42.9c-0.1-0.1-0.2-0.3-0.3-0.3c-0.1-0.1-0.3-0.1-0.5-0.1c-0.3,0-0.5,0.1-0.7,0.3
		c-0.2,0.3-0.3,0.6-0.3,0.9c0,0.3,0.1,0.6,0.3,0.9c0.2,0.2,0.4,0.3,0.7,0.3c0.1,0,0.3,0,0.4-0.1c0.1-0.1,0.3-0.1,0.4-0.2h0.1
		l-0.1,0.4c-0.1,0.1-0.3,0.1-0.4,0.1c-0.1,0-0.3,0-0.4,0c-0.4,0-0.8-0.1-1.1-0.4c-0.3-0.3-0.4-0.7-0.4-1.1c0-0.4,0.1-0.8,0.4-1
		c0.3-0.3,0.7-0.4,1.1-0.4c0.2,0,0.3,0,0.4,0c0.2,0,0.3,0.1,0.5,0.2c0,0.1,0,0.2-0.1,0.2C723.9,42.7,723.9,42.8,723.9,42.9z"/>
	<path class="st2" d="M724.2,44c0-0.3,0.1-0.6,0.3-0.8c0.4-0.4,1.1-0.4,1.5,0c0.4,0.4,0.4,1,0,1.4c-0.2,0.2-0.5,0.3-0.8,0.3
		c-0.3,0-0.6-0.1-0.8-0.3C724.2,44.6,724.1,44.3,724.2,44z M724.7,44c0,0.2,0,0.4,0.1,0.6c0.1,0.2,0.3,0.2,0.5,0.1
		c0.1,0,0.1-0.1,0.1-0.1c0.1-0.2,0.1-0.4,0.1-0.6c0-0.2,0-0.4-0.1-0.7c-0.1-0.1-0.2-0.2-0.3-0.2c-0.1,0-0.3,0.1-0.3,0.2
		C724.8,43.6,724.7,43.8,724.7,44z"/>
	<path class="st2" d="M726.5,45c0-0.2,0-0.4,0-0.6c0-0.2,0-0.3,0-0.4c0-0.1,0-0.3,0-0.4s0-0.4,0-0.6l0.1,0h0.3l0.1,0v0.3
		c0.1-0.1,0.2-0.2,0.3-0.2c0.1,0,0.2-0.1,0.3-0.1c0.1,0,0.2,0,0.3,0.1c0.1,0.1,0.2,0.2,0.2,0.3c0.1-0.1,0.2-0.2,0.3-0.3
		c0.1-0.1,0.2-0.1,0.4-0.1c0.1,0,0.2,0,0.3,0c0.1,0,0.1,0.1,0.2,0.1c0.1,0.1,0.1,0.2,0.1,0.3c0,0.2,0,0.4,0,0.6v0.3
		c0,0.1,0,0.2,0,0.4s0,0.3,0,0.4l-0.2,0h-0.1h-0.1l-0.2,0c0-0.2,0-0.3,0-0.5c0-0.2,0-0.3,0-0.4c0-0.2,0-0.4-0.1-0.6
		c0-0.1-0.1-0.2-0.3-0.1c-0.1,0-0.2,0-0.3,0.1c-0.1,0.2-0.1,0.3-0.1,0.5v0.6c0,0.1,0,0.2,0,0.3c0,0,0,0,0,0l-0.2,0H728h-0.1l-0.2,0
		c0-0.2,0-0.3,0-0.4c0-0.1,0-0.3,0-0.4c0-0.2,0-0.5-0.1-0.7c0-0.1-0.1-0.1-0.3-0.1c-0.1,0-0.2,0-0.3,0.1c-0.1,0.2-0.1,0.3-0.1,0.5
		v0.6c0,0.1,0,0.2,0,0.3v0l-0.1,0h-0.1h-0.1L726.5,45z"/>
	<path class="st2" d="M730.1,45c0-0.2,0-0.4,0-0.6c0-0.2,0-0.3,0-0.4c0-0.1,0-0.3,0-0.4s0-0.4,0-0.6l0.1,0h0.3l0.1,0v0.3
		c0.1-0.1,0.2-0.2,0.3-0.2c0.1,0,0.2-0.1,0.3-0.1c0.1,0,0.2,0,0.4,0.1c0.1,0.1,0.2,0.2,0.2,0.3c0.1-0.1,0.2-0.2,0.3-0.3
		c0.1-0.1,0.2-0.1,0.4-0.1c0.1,0,0.2,0,0.3,0c0.1,0,0.1,0.1,0.2,0.1c0.1,0.1,0.1,0.2,0.1,0.3c0,0.2,0,0.4,0,0.6v0.3
		c0,0.1,0,0.2,0,0.4s0,0.3,0,0.4l-0.2,0h-0.1h-0.1l-0.2,0c0-0.2,0-0.3,0-0.5s0-0.3,0-0.4c0-0.2,0-0.4-0.1-0.6c0-0.1-0.1-0.2-0.3-0.1
		c-0.1,0-0.2,0.1-0.3,0.1c-0.1,0.2-0.1,0.3-0.1,0.5v0.6c0,0.1,0,0.2,0,0.3c0,0,0,0,0,0l-0.2,0h-0.1h-0.1l-0.2,0c0-0.2,0-0.3,0-0.4
		c0-0.1,0-0.3,0-0.4c0-0.2,0-0.5-0.1-0.7c0-0.1-0.1-0.1-0.3-0.1c-0.1,0-0.2,0-0.3,0.1c-0.1,0.2-0.1,0.3-0.1,0.5v0.6
		c0,0.1,0,0.2,0,0.3c0,0,0,0,0,0l-0.1,0h-0.1h-0.1L730.1,45z"/>
	<path class="st2" d="M733.4,44c-0.1-0.5,0.3-1,0.8-1c0.1,0,0.1,0,0.2,0c0.3,0,0.6,0.1,0.8,0.3c0.2,0.2,0.3,0.5,0.3,0.8
		c0,0.6-0.5,1-1,1C733.9,45,733.4,44.6,733.4,44L733.4,44z M734,44c0,0.2,0,0.4,0.1,0.6c0.1,0.1,0.2,0.2,0.3,0.2
		c0.1,0,0.3-0.1,0.3-0.2c0.1-0.2,0.1-0.4,0.1-0.6c0-0.2,0-0.4-0.1-0.7c-0.1-0.1-0.2-0.2-0.3-0.2c-0.1,0-0.3,0.1-0.3,0.2
		C734.1,43.6,734,43.8,734,44z"/>
	<path class="st2" d="M735.8,45c0-0.2,0-0.4,0-0.5c0-0.2,0-0.3,0-0.5s0-0.3,0-0.5c0-0.2,0-0.3,0-0.5l0.1,0h0.3l0.1,0v0.3
		c0.1-0.1,0.2-0.2,0.3-0.2c0.1-0.1,0.2-0.1,0.3-0.1c0.1,0,0.2,0,0.3,0.1c0.1,0,0.2,0.1,0.2,0.1c0,0.1,0.1,0.1,0.1,0.2
		c0,0.1,0,0.3,0,0.4V44c0,0.1,0,0.2,0,0.3c0,0.1,0,0.3,0,0.4s0,0.2,0,0.3l-0.2,0h-0.1h-0.1l-0.2,0c0-0.1,0-0.3,0-0.4
		c0-0.2,0-0.3,0-0.5c0-0.2,0-0.4-0.1-0.6c0-0.1-0.1-0.1-0.3-0.1c-0.1,0-0.2,0.1-0.3,0.2c-0.1,0.2-0.1,0.3-0.1,0.5c0,0.1,0,0.3,0,0.4
		s0,0.4,0,0.6c0,0-0.1,0-0.1,0h-0.1H736L735.8,45z"/>
	<path class="st2" d="M738.7,45c-0.1-0.4-0.2-0.9-0.4-1.4c-0.1-0.5-0.3-0.9-0.5-1.4h0.2h0.4h0.2c0.1,0.3,0.2,0.7,0.3,1
		s0.2,0.7,0.3,1c0.1-0.4,0.2-0.7,0.4-1.1c0.1-0.3,0.2-0.7,0.3-1h0.1h0.2h0.1c0.1,0.3,0.2,0.6,0.3,1c0.1,0.3,0.2,0.7,0.3,1
		c0.1-0.3,0.2-0.7,0.3-1c0.1-0.3,0.2-0.7,0.3-1h0.1h0.2h0.1c-0.1,0.4-0.3,0.8-0.4,1.3c-0.2,0.5-0.3,0.9-0.5,1.5l-0.1,0h-0.1h-0.1
		l-0.1,0c-0.1-0.3-0.2-0.6-0.3-1c-0.1-0.3-0.2-0.7-0.4-1c-0.1,0.3-0.3,0.6-0.4,1c-0.1,0.3-0.2,0.7-0.3,1l-0.1,0h-0.1h-0.1L738.7,45z
		"/>
	<path class="st2" d="M742.5,44c0,0.2,0,0.4,0.2,0.6c0.1,0.1,0.3,0.2,0.5,0.2c0.1,0,0.2,0,0.3,0c0.1,0,0.2-0.1,0.3-0.1l0,0l-0.1,0.2
		c-0.1,0.1-0.2,0.1-0.3,0.1c-0.1,0-0.2,0-0.4,0c-0.3,0-0.5-0.1-0.7-0.3c-0.2-0.2-0.3-0.5-0.3-0.8c0-0.3,0.1-0.5,0.3-0.7
		c0.2-0.2,0.4-0.3,0.7-0.3c0.2,0,0.5,0.1,0.6,0.2c0.2,0.2,0.2,0.4,0.2,0.7V44c0,0,0,0,0,0.1L742.5,44z M742.5,43.8h0.7
		c0,0,0,0,0-0.1c0,0,0,0,0,0c0-0.1,0-0.3-0.1-0.4c0-0.1-0.1-0.1-0.2-0.1c-0.1,0-0.2,0.1-0.3,0.2C742.5,43.5,742.5,43.6,742.5,43.8
		L742.5,43.8z"/>
	<path class="st2" d="M745.1,44.7c-0.1,0.1-0.1,0.2-0.2,0.2c-0.1,0.1-0.2,0.1-0.3,0.1c-0.1,0-0.3,0-0.4-0.2
		c-0.1-0.1-0.2-0.3-0.1-0.4c0-0.1,0-0.2,0.1-0.3c0.1-0.1,0.2-0.2,0.3-0.2l0.2-0.1c0.2,0,0.3-0.1,0.4-0.2c0,0,0,0,0,0v0
		c0-0.1,0-0.2-0.1-0.3c-0.1-0.1-0.2-0.1-0.3-0.1c-0.1,0-0.2,0-0.3,0.1c-0.1,0.1-0.2,0.1-0.2,0.2l-0.1-0.2c0,0,0-0.1,0-0.1
		c0.1-0.1,0.2-0.2,0.4-0.2c0.1-0.1,0.2-0.1,0.4-0.1c0.2,0,0.4,0,0.6,0.2c0.1,0.1,0.2,0.3,0.2,0.5v0l0,0.7v0.1c0,0.1,0,0.2,0.1,0.3
		c0.1,0.1,0.1,0.1,0.2,0.1h0v0.1c-0.1,0-0.1,0.1-0.2,0.1c-0.1,0-0.1,0-0.2,0C745.3,45,745.1,44.9,745.1,44.7L745.1,44.7z
		 M745.1,43.9c-0.1,0-0.3,0.1-0.4,0.2c-0.1,0.1-0.1,0.2-0.1,0.3c0,0.1,0,0.2,0.1,0.3c0,0.1,0.1,0.1,0.2,0.1c0.1,0,0.2,0,0.2-0.1
		c0.1-0.1,0.1-0.2,0.1-0.3V43.9z"/>
	<path class="st2" d="M746.2,45c0-0.2,0-0.5,0-0.7c0-0.2,0-0.5,0-0.8s0-0.6,0-0.8c0-0.2,0-0.5,0-0.7l0.2,0h0.1h0.1
		c0.1,0,0.1,0,0.2,0c0,0.2,0,0.5,0,0.7c0,0.2,0,0.5,0,0.8c0,0.3,0,0.6,0,0.8c0,0.2,0,0.5,0,0.7c0,0-0.1,0-0.1,0c-0.1,0-0.1,0-0.2,0
		c-0.1,0-0.1,0-0.2,0C746.3,45,746.2,45,746.2,45z"/>
	<path class="st2" d="M747.3,43.3H747c0,0,0,0,0,0v-0.1c0,0,0,0,0-0.1c0,0,0,0,0,0h0h0.2h0c0,0,0,0,0-0.1c0,0,0-0.1,0-0.1
		c0,0,0-0.1,0-0.2s0-0.1,0-0.2l0.3-0.1c0.1,0,0.2-0.1,0.3-0.1l0,0c0,0.2,0,0.3,0,0.4c0,0.1,0,0.2,0,0.2v0.2h0.2h0.2c0,0,0,0,0,0.1v0
		c0,0,0,0.1,0,0.1l0,0h-0.4v0.1c0,0.3,0,0.5,0,0.6v0.2c0,0.2,0,0.4,0,0.6c0,0.1,0.1,0.1,0.2,0.1c0.1,0,0.2,0,0.2,0l0,0v0.2
		c-0.1,0-0.2,0.1-0.3,0.1c-0.1,0-0.1,0-0.2,0c-0.1,0-0.3,0-0.4-0.1c-0.1-0.1-0.1-0.3-0.1-0.4c0,0,0-0.1,0-0.3c0-0.2,0-0.4,0-0.7
		L747.3,43.3z"/>
	<path class="st2" d="M748.6,45c0-0.1,0-0.3,0-0.5c0-0.2,0-0.5,0-0.9s0-0.8,0-1c0-0.2,0-0.4,0-0.6l0.2,0h0.1c0,0,0.1,0,0.1,0l0.2,0
		c0,0.1,0,0.2,0,0.4c0,0.1,0,0.3,0,0.4v0.6c0.1-0.1,0.2-0.2,0.3-0.3c0.1-0.1,0.2-0.1,0.4-0.1c0.1,0,0.2,0,0.3,0.1
		c0.1,0,0.2,0.1,0.2,0.1c0,0.1,0.1,0.1,0.1,0.2c0,0.1,0,0.3,0,0.4c0,0,0,0.1,0,0.2s0,0.2,0,0.3c0,0.1,0,0.3,0,0.4c0,0.1,0,0.2,0,0.3
		l-0.2,0h-0.1h-0.1l-0.2,0c0-0.1,0-0.3,0-0.4c0-0.2,0-0.3,0-0.5c0-0.2,0-0.4-0.1-0.6c0-0.1-0.1-0.1-0.3-0.1c-0.1,0-0.2,0.1-0.3,0.2
		c-0.1,0.2-0.1,0.3-0.1,0.5c0,0.1,0,0.3,0,0.4c0,0.2,0,0.3,0,0.5l-0.2,0h-0.1h-0.1L748.6,45z"/>
	<path class="st2" d="M721.6,49.5c0-0.2,0.1-0.4,0.1-0.5s0-0.3,0-0.3l0.3-1.9h0.1h0.1h0.1h0.1c0.1,0.3,0.3,0.6,0.5,1
		c0.2,0.3,0.3,0.6,0.5,0.9c0.2-0.3,0.3-0.6,0.5-0.9c0.2-0.3,0.3-0.6,0.5-1h0.1h0.1h0.1h0.1l0.2,1.9c0,0.2,0,0.4,0.1,0.5
		c0,0.1,0,0.2,0.1,0.3l-0.2,0h-0.2h-0.2l-0.2,0c0,0,0,0,0,0c0-0.3,0-0.5,0-0.5l-0.1-1.3c-0.2,0.3-0.3,0.6-0.5,0.9
		c-0.2,0.3-0.3,0.6-0.5,1h0H723h0c-0.2-0.3-0.3-0.7-0.5-0.9c-0.2-0.3-0.3-0.6-0.4-0.9l-0.1,0.8v0c0,0.4-0.1,0.8-0.1,0.9l-0.1,0h-0.1
		L721.6,49.5L721.6,49.5z"/>
	<path class="st2" d="M726.3,49.3c-0.1,0.1-0.1,0.2-0.2,0.2c-0.1,0.1-0.2,0.1-0.3,0.1c-0.1,0-0.3,0-0.4-0.2
		c-0.1-0.1-0.2-0.3-0.1-0.4c0-0.1,0-0.2,0.1-0.3c0.1-0.1,0.2-0.2,0.3-0.2l0.2-0.1c0.2,0,0.3-0.1,0.4-0.2c0,0,0,0,0,0v0
		c0-0.1,0-0.2-0.1-0.3c-0.1-0.1-0.2-0.1-0.3-0.1c-0.1,0-0.2,0-0.3,0.1c-0.1,0.1-0.2,0.1-0.2,0.2c0-0.1,0-0.1-0.1-0.2l0-0.1
		c0.1-0.1,0.2-0.2,0.4-0.2c0.1-0.1,0.2-0.1,0.4-0.1c0.2,0,0.4,0,0.6,0.2c0.1,0.1,0.2,0.3,0.2,0.5v0v0.7V49c0,0.1,0,0.2,0.1,0.3
		c0.1,0.1,0.1,0.1,0.2,0.1l0,0v0.1c-0.1,0-0.1,0.1-0.2,0.1c-0.1,0-0.1,0-0.2,0c-0.1,0-0.2,0-0.2-0.1
		C726.4,49.4,726.3,49.3,726.3,49.3z M726.3,48.4c-0.1,0-0.3,0.1-0.4,0.2c-0.1,0.1-0.1,0.2-0.1,0.3c0,0.1,0,0.2,0.1,0.3
		c0,0.1,0.1,0.1,0.2,0.1c0.1,0,0.2,0,0.2-0.1c0.1-0.1,0.1-0.2,0.1-0.3V48.4z"/>
	<path class="st2" d="M727.7,49.6L727.7,49.6c-0.1-0.1-0.1-0.1-0.2-0.2c0-0.1-0.1-0.1-0.1-0.2c0-0.1,0-0.2,0.1-0.3
		c0.1-0.1,0.2-0.2,0.3-0.2v-0.1c-0.1,0-0.3-0.1-0.4-0.2c-0.1-0.1-0.1-0.2-0.1-0.4c0-0.2,0.1-0.4,0.2-0.5c0.2-0.1,0.4-0.2,0.6-0.2
		l0.3,0c0.2,0,0.3,0,0.4,0h0.2h0.2v0.2l-0.3,0h-0.1c0.1,0,0.1,0.1,0.2,0.2c0,0.1,0.1,0.2,0.1,0.3c0,0.2-0.1,0.4-0.3,0.5
		c-0.2,0.1-0.4,0.2-0.7,0.2H728c0,0-0.1,0-0.1,0.1c0,0,0,0.1,0,0.1c0,0.1,0.2,0.2,0.6,0.2h0.1c0.2,0,0.3,0,0.5,0.1
		c0.1,0,0.1,0.1,0.2,0.2c0,0.1,0.1,0.2,0.1,0.3c0,0.2-0.1,0.5-0.3,0.6c-0.2,0.2-0.5,0.3-0.8,0.3c-0.2,0-0.4,0-0.6-0.1
		c-0.1-0.1-0.2-0.2-0.2-0.4c0-0.1,0-0.2,0.1-0.3C727.4,49.7,727.5,49.6,727.7,49.6z M727.8,49.6c-0.1,0-0.1,0.1-0.2,0.1
		c0,0.1-0.1,0.1-0.1,0.2c0,0.1,0,0.2,0.1,0.3c0.1,0.1,0.2,0.1,0.4,0.1c0.2,0,0.3,0,0.4-0.1c0.1-0.1,0.2-0.2,0.2-0.3
		c0-0.1,0-0.2-0.1-0.3c-0.1-0.1-0.2-0.1-0.3-0.1L727.8,49.6z M727.8,48.2c0,0.1,0,0.3,0.1,0.4c0,0.1,0.1,0.1,0.2,0.1
		c0.1,0,0.2,0,0.2-0.1c0.1-0.1,0.1-0.3,0.1-0.4c0-0.1,0-0.2-0.1-0.3c0-0.1-0.1-0.1-0.2-0.1c-0.1,0-0.2,0-0.2,0.1
		C727.9,47.9,727.8,48,727.8,48.2L727.8,48.2z"/>
	<path class="st2" d="M730.4,49.3c-0.1,0.1-0.1,0.2-0.2,0.2c-0.1,0.1-0.2,0.1-0.3,0.1c-0.1,0-0.3,0-0.4-0.2
		c-0.1-0.1-0.2-0.3-0.1-0.4c0-0.1,0-0.2,0.1-0.3c0.1-0.1,0.2-0.2,0.3-0.2l0.2-0.1c0.2,0,0.3-0.1,0.4-0.2c0,0,0,0,0,0c0,0,0,0,0,0
		c0-0.1,0-0.2-0.1-0.3c-0.1-0.1-0.2-0.1-0.3-0.1c-0.1,0-0.2,0-0.3,0.1c-0.1,0.1-0.2,0.1-0.2,0.2c0-0.1,0-0.1,0-0.2l0-0.1
		c0.1-0.1,0.2-0.2,0.4-0.2c0.1,0,0.2-0.1,0.4-0.1c0.2,0,0.4,0,0.6,0.2c0.1,0.1,0.2,0.3,0.2,0.5v0v0.7V49c0,0.1,0,0.2,0.1,0.3
		c0.1,0.1,0.1,0.1,0.2,0.1h0v0.1c-0.1,0-0.1,0.1-0.2,0.1c-0.1,0-0.1,0-0.2,0c-0.1,0-0.2,0-0.3-0.1C730.5,49.4,730.5,49.3,730.4,49.3
		z M730.4,48.4c-0.1,0-0.3,0.1-0.4,0.2c-0.1,0.1-0.1,0.2-0.1,0.3c0,0.1,0,0.2,0.1,0.3c0,0.1,0.1,0.1,0.2,0.1c0.1,0,0.2,0,0.2-0.1
		c0.1-0.1,0.1-0.2,0.1-0.3V48.4z"/>
	<path class="st2" d="M731.3,49.5L731.3,49.5c0.2-0.3,0.4-0.7,0.7-1.1l0.4-0.6h-0.2H732c-0.1,0-0.3,0-0.5,0h0c0,0,0,0,0,0
		c0,0,0,0,0-0.1s0-0.1,0-0.1c0,0,0,0,0,0h0.4h0.8h0.4v0.1c-0.1,0.1-0.2,0.3-0.4,0.6l-0.7,1.1h0.2h0.1c0.1,0,0.3,0,0.4,0l0.3,0
		c0,0,0,0,0,0.1c0,0,0,0,0,0.1c0,0,0,0,0,0c0,0,0,0,0,0.1c-0.1,0-0.2,0-0.4,0h-0.5h-0.5C731.6,49.5,731.4,49.5,731.3,49.5z"/>
	<path class="st2" d="M733.4,46.8c0-0.2,0.1-0.3,0.3-0.3c0,0,0,0,0,0c0.1,0,0.2,0,0.2,0.1c0.1,0.1,0.1,0.1,0.1,0.2
		c0,0.1,0,0.2-0.1,0.2c-0.1,0.1-0.1,0.1-0.2,0.1c-0.1,0-0.2,0-0.2-0.1C733.4,47,733.4,46.9,733.4,46.8z M733.4,49.5
		c0-0.2,0-0.4,0-0.5c0-0.2,0-0.3,0-0.4s0-0.3,0-0.5c0-0.2,0-0.3,0-0.5h0.1h0.3h0.1c0,0.2,0,0.3,0,0.5c0,0.2,0,0.3,0,0.5
		c0,0.2,0,0.3,0,0.4c0,0.2,0,0.3,0,0.5l-0.2,0h-0.1h-0.1L733.4,49.5z"/>
	<path class="st2" d="M734.5,49.5c0-0.2,0-0.4,0-0.5c0-0.2,0-0.3,0-0.5s0-0.3,0-0.5c0-0.2,0-0.3,0-0.5h0.1h0.3h0.1v0.3
		c0.1-0.1,0.2-0.2,0.3-0.3c0.1-0.1,0.2-0.1,0.3-0.1c0.1,0,0.2,0,0.3,0.1c0.1,0,0.2,0.1,0.2,0.1c0,0.1,0.1,0.1,0.1,0.2
		c0,0.1,0,0.3,0,0.4v0.2c0,0.1,0,0.2,0,0.3c0,0.1,0,0.3,0,0.4s0,0.2,0,0.3l-0.2,0H736h-0.1l-0.2,0c0-0.1,0-0.3,0-0.4
		c0-0.2,0-0.3,0-0.5c0-0.2,0-0.4-0.1-0.6c0-0.1-0.1-0.1-0.3-0.1c-0.1,0-0.2,0.1-0.3,0.2c-0.1,0.2-0.1,0.3-0.1,0.5c0,0.1,0,0.3,0,0.4
		s0,0.4,0,0.6c0,0-0.1,0-0.1,0h-0.1h-0.1L734.5,49.5z"/>
	<path class="st2" d="M737.3,48.5c0,0.2,0,0.4,0.2,0.6c0.1,0.1,0.3,0.2,0.5,0.2c0.1,0,0.2,0,0.3,0c0.1,0,0.2-0.1,0.3-0.1l0,0
		l-0.1,0.2c-0.1,0.1-0.2,0.1-0.3,0.1c-0.1,0-0.2,0-0.4,0c-0.3,0-0.5-0.1-0.7-0.3c-0.2-0.2-0.3-0.5-0.3-0.8c0-0.3,0.1-0.5,0.3-0.7
		c0.2-0.2,0.4-0.3,0.7-0.3c0.2,0,0.5,0.1,0.6,0.2c0.2,0.2,0.2,0.4,0.2,0.7v0.1c0,0,0,0,0,0.1L737.3,48.5z M737.3,48.3h0.7
		c0,0,0,0,0-0.1c0,0,0,0,0,0c0-0.1,0-0.3-0.1-0.4c0-0.1-0.1-0.1-0.2-0.1c-0.1,0-0.2,0.1-0.3,0.2C737.3,48,737.3,48.2,737.3,48.3
		L737.3,48.3z"/>
</g>
</svg>
