<svg width="161" height="125" viewBox="0 0 161 125" fill="none" xmlns="http://www.w3.org/2000/svg">
<g clip-path="url(#clip0_737_2795)">
<path d="M0.633374 91.3816V33.1364H160.033V91.3816H0.633374Z" fill="white" stroke="#171717" stroke-width="0.6"/>
<path d="M17.8273 49.3059L17.8271 49.3061C18.6344 49.8202 19.6107 49.9979 20.5473 49.8015C21.508 49.5679 22.4646 49.3022 23.4197 49.03L17.8273 49.3059ZM17.8273 49.3059L17.8174 49.3001M17.8273 49.3059L17.8174 49.3001M17.8174 49.3001C17.4736 49.0992 17.2897 48.8409 17.1431 48.5248C17.0719 48.3714 17.0115 48.209 16.9442 48.0282C16.9398 48.0162 16.9353 48.0042 16.9308 47.9921C16.8596 47.8006 16.7808 47.5921 16.6793 47.3805L16.6754 47.3724L16.671 47.3645C16.6021 47.2405 16.5777 47.0967 16.602 46.9569C16.6229 46.8366 16.6787 46.7257 16.7619 46.6375C16.9185 46.5945 17.0814 46.5784 17.2437 46.5898L17.2761 46.5921L17.3082 46.5874L17.9662 46.4911L17.9662 46.4912L17.9725 46.4901L19.2746 46.2713C19.7071 46.2081 20.0887 46.1612 20.5587 46.1299C20.6657 46.1227 20.7702 46.1235 20.8821 46.1251C20.8909 46.1252 20.8998 46.1253 20.9087 46.1254C21.0098 46.1269 21.12 46.1286 21.2294 46.1227C21.477 46.1095 21.7409 46.0576 22.0111 45.8764L22.0112 45.8764L22.0173 45.8721C22.4393 45.5734 22.8847 45.3091 23.349 45.0817C24.2838 44.6842 25.2682 44.4153 26.2753 44.2823L26.2753 44.2825L26.2861 44.2807C26.6219 44.2239 26.9691 44.177 27.3267 44.1296C27.5274 44.1278 27.7278 44.1125 27.9264 44.0839L27.9475 44.0809L27.9679 44.0749C28.1262 44.0286 28.232 43.9592 28.3214 43.8837C28.3512 43.8585 28.3818 43.8302 28.4075 43.8065C28.4149 43.7996 28.422 43.7931 28.4285 43.7871C28.4603 43.7581 28.4906 43.7313 28.526 43.7043L28.5265 43.7039C28.664 43.5983 28.8324 43.5395 29.0578 43.4655C29.0648 43.4632 29.0719 43.4609 29.079 43.4586C29.2847 43.3912 29.542 43.3069 29.7654 43.1385L29.7655 43.1386L29.7722 43.1332C30.1726 42.8129 30.6232 42.5753 31.0993 42.3241C31.2106 42.2654 31.3233 42.206 31.4372 42.1445C32.0127 41.8339 32.6037 41.4777 33.0582 40.9229C33.6167 40.5054 34.2936 40.2757 34.9915 40.2674L35.0134 40.2671L35.0351 40.2637C35.772 40.1463 36.5271 40.2414 37.2119 40.5377C37.2736 40.5701 37.3347 40.6018 37.3952 40.6332C37.6892 40.7857 37.9674 40.93 38.213 41.1087C38.5042 41.3206 38.7207 41.5619 38.828 41.8817L38.8287 41.8839C39.0168 42.4302 38.9627 42.8578 38.7768 43.2121C38.5844 43.5788 38.2347 43.8971 37.7804 44.1795C37.3282 44.4607 36.7958 44.6921 36.2669 44.8961C36.0392 44.9839 35.8032 45.0698 35.5763 45.1524C35.2969 45.254 35.0313 45.3506 34.8124 45.4396C34.2372 45.6654 33.6988 45.8968 33.1605 46.1496C32.9775 46.2252 32.8007 46.3227 32.6387 46.4121C32.6296 46.4171 32.6206 46.4221 32.6116 46.4271C32.4367 46.5235 32.2753 46.611 32.1082 46.6775C31.7572 46.7955 31.3968 46.8837 31.0309 46.9411L31.0218 46.9425L31.0129 46.9445C30.1563 47.133 29.3064 47.3482 28.4641 47.5735L28.4637 47.5736M17.8174 49.3001L28.4637 47.5736M28.4637 47.5736C27.3881 47.863 26.3169 48.1794 25.2503 48.4946M28.4637 47.5736L25.2503 48.4946M25.2503 48.4946C24.6388 48.6752 24.0287 48.8555 23.4202 49.0299L25.2503 48.4946Z" fill="white" stroke="#171717" stroke-width="0.6"/>
<path d="M83.0034 48.1243L83.0034 48.1244C83.8062 47.9114 84.353 47.7574 84.7002 47.1255C84.7427 47.0476 84.7847 46.9726 84.8258 46.8991C84.9154 46.7389 85.001 46.586 85.0791 46.4263L85.0827 46.4188L85.0868 46.4115C85.3122 46.009 85.4253 45.5538 85.4148 45.0934C85.238 44.7541 84.9695 44.4708 84.6394 44.2761C83.9105 43.9193 83.1286 43.6829 82.324 43.5762L82.3123 43.5746L82.3007 43.5721C82.125 43.5345 81.9489 43.496 81.7726 43.4575C80.9624 43.2806 80.1472 43.1026 79.3524 42.9988C78.8088 42.9354 78.258 42.9779 77.7306 43.1239L77.7279 43.1246L77.7279 43.1246C76.6251 43.4188 75.5495 43.8067 74.5128 44.2841L74.5087 44.286L74.5087 44.286C73.9244 44.5446 73.2858 44.6178 72.7023 44.6848C72.631 44.693 72.5606 44.7011 72.4912 44.7094C71.8322 44.7883 71.2479 44.888 70.748 45.2149L70.7305 45.2264L70.7115 45.2353C70.1976 45.4771 69.6448 45.6253 69.0791 45.673C68.6537 45.7733 68.2554 45.9162 67.8386 46.0658C67.6238 46.1429 67.4041 46.2218 67.1733 46.2975L67.1714 46.2981C66.052 46.6569 64.9291 47.0062 63.7888 47.3182L63.7882 47.3183C63.413 47.4202 63.0287 47.4362 62.6833 47.4506C62.62 47.4532 62.558 47.4558 62.4976 47.4588C62.1021 47.4788 61.7498 47.5174 61.4127 47.6734C61.095 47.9022 60.7597 48.1054 60.4099 48.2812L60.3918 48.2903L60.3726 48.2969C60.2018 48.3555 60.0282 48.4249 59.8483 48.4973L59.8166 48.5101C59.6491 48.5777 59.4758 48.6475 59.3053 48.7079L59.3044 48.7082C58.3322 49.0485 57.2952 49.3112 56.2897 49.5659C55.9557 49.6505 55.6251 49.7343 55.3016 49.8197C54.0965 50.2324 52.83 50.3469 51.5882 50.4164C51.3591 50.4292 51.1313 50.4405 50.9047 50.4517C49.8903 50.502 48.9016 50.5511 47.9447 50.7296C47.8396 50.7562 47.7382 50.7803 47.6395 50.8037C47.3945 50.8618 47.1665 50.9158 46.9424 50.9944C46.6647 51.0918 46.4216 51.2187 46.2178 51.4147C46.181 51.6828 46.2574 51.8551 46.384 52.0047C46.5123 52.1562 46.6826 52.2769 46.8912 52.4248C46.9505 52.4668 47.0128 52.511 47.0782 52.5587C47.3453 52.7537 47.5936 53.0294 47.8238 53.2849C47.851 53.3152 47.878 53.3451 47.9047 53.3746C48.1673 53.6646 48.4175 53.9263 48.6968 54.105C49.2585 54.415 49.8464 54.6749 50.4537 54.8815L50.4618 54.8842L50.4696 54.8874C50.8706 55.0496 51.279 55.2326 51.6808 55.4127C51.975 55.5445 52.2657 55.6747 52.5471 55.794C53.2319 56.0842 53.916 56.3345 54.6404 56.4758C55.0433 56.5538 55.657 56.6405 56.2569 56.6469C56.8752 56.6535 57.4064 56.573 57.7015 56.3763L57.8679 56.6259M83.0034 48.1243L60.4381 54.7379C60.0258 55.0451 59.5767 55.2999 59.1083 55.5572C59.0552 55.5864 59.0018 55.6156 58.9481 55.645C58.5339 55.8716 58.1063 56.1056 57.7011 56.3765L57.8679 56.6259M83.0034 48.1243L82.9982 48.1258M83.0034 48.1243L82.9982 48.1258M57.8679 56.6259C57.1136 57.1288 55.4124 56.9308 54.5833 56.7704L60.6176 54.9783C60.1377 55.3359 59.6147 55.6221 59.092 55.9082C58.6765 56.1356 58.2612 56.3629 57.8679 56.6259ZM82.9982 48.1258C82.2562 48.337 81.4734 48.3614 80.7196 48.197C80.3242 48.0992 79.9537 47.9194 79.6322 47.6693L79.6213 47.6608L79.6096 47.6534C78.1121 46.6957 76.3103 46.9784 74.8103 47.3641C74.6011 47.4178 74.3952 47.4771 74.1882 47.5474C73.9424 47.6036 73.7089 47.7039 73.499 47.8436L73.4881 47.8508L73.478 47.8589C73.3248 47.9812 73.1608 48.0894 72.9882 48.1822L72.9735 48.19C72.7358 48.3163 72.4676 48.4589 72.2649 48.6601C72.0404 48.8828 71.8994 49.1713 71.8993 49.5645L71.8994 49.5667C71.9006 49.7326 71.8945 49.9058 71.8881 50.0897L71.8872 50.1175C71.8805 50.3093 71.8739 50.5116 71.8766 50.7141C71.8822 51.1172 71.9248 51.5469 72.0946 51.945L72.0943 51.9451L72.0998 51.9565C72.392 52.5692 72.3517 53.1858 72.2942 53.8893C72.2929 53.9057 72.2915 53.9222 72.2902 53.9387C72.236 54.5985 72.1752 55.3393 72.4971 56.0844C72.5554 56.4689 72.6243 56.8839 72.6965 57.3188C72.9769 59.0073 73.3069 60.9948 73.253 62.6558L73.2528 62.6558L73.2528 62.6654C73.2515 65.89 73.4959 69.1099 73.9838 72.2974L73.9837 72.2974L73.9845 72.3021C74.0625 72.7626 74.1884 73.2293 74.3093 73.6773C74.3658 73.8866 74.4212 74.0919 74.4701 74.2905C74.5147 74.4818 74.5437 74.6775 74.5747 74.8876L74.5755 74.8933C74.6057 75.0982 74.638 75.3172 74.689 75.5354L74.6915 75.546L74.6948 75.5565C74.9322 76.3168 75.0538 77.1086 75.0556 77.9051C75.0069 78.9418 74.9028 79.9751 74.7435 81.0006L74.7429 81.0046C74.5801 82.1551 74.2477 83.085 73.2541 83.5515L73.1993 83.5773L73.1587 83.6223C72.6704 84.1643 71.9827 84.3977 71.22 84.4328C70.4634 84.4677 69.66 84.305 68.9772 84.0804C68.3401 83.7526 67.8114 83.2477 67.4545 82.6264C67.3365 82.301 67.2625 81.9612 67.2344 81.6161L67.2326 81.5938L67.2275 81.5719C67.1819 81.3776 67.1293 81.1843 67.0787 80.9981C67.0653 80.9489 67.0521 80.9003 67.0392 80.8522C66.9763 80.6186 66.9192 80.3948 66.8788 80.173C66.7984 79.7323 66.7866 79.313 66.9265 78.8817L66.9371 78.8491L66.94 78.815C66.9611 78.5725 66.9821 78.3303 67.0031 78.0885C67.6758 70.3388 68.3146 62.9784 67.9148 55.2433V54.6312C68.0335 54.2232 68.1 53.8018 68.1126 53.3769L68.1127 53.3769V53.368C68.1127 53.0998 68.0312 52.842 67.9639 52.6381C67.9586 52.6221 67.9534 52.6065 67.9484 52.5912C67.8821 52.391 67.8359 52.2514 67.8287 52.1305C67.8249 52.067 67.8301 51.999 67.8385 51.912C67.8392 51.9048 67.8399 51.8974 67.8407 51.8898C67.8481 51.8143 67.8576 51.718 67.8544 51.6251C67.8507 51.5181 67.8302 51.3901 67.7565 51.2669C67.6857 51.1485 67.5808 51.0594 67.4505 50.9948C66.9151 50.6294 66.3925 50.7642 65.9654 50.9532C65.8383 51.0095 65.6987 51.0806 65.5685 51.147C65.4921 51.1859 65.4189 51.2233 65.3534 51.2549C65.158 51.3493 64.9851 51.4184 64.8208 51.4459L64.762 51.4558L64.7114 51.4874C64.0549 51.8978 63.4487 52.3836 62.9051 52.9348C62.4872 53.2268 62.0539 53.4962 61.6072 53.7417L61.594 53.749M82.9982 48.1258L61.594 53.749M61.594 53.749L61.5816 53.7575M61.594 53.749L61.5816 53.7575M61.5816 53.7575C61.3548 53.9136 61.1566 54.0967 60.9754 54.2666M61.5816 53.7575L60.9754 54.2666M60.9754 54.2666C60.963 54.2782 60.9506 54.2898 60.9383 54.3014M60.9754 54.2666L60.9383 54.3014M60.9383 54.3014C60.767 54.4622 60.6101 54.6094 60.4383 54.7377L60.9383 54.3014Z" fill="white" stroke="#171717" stroke-width="0.6"/>
<path d="M27.5733 50.7468C27.3888 50.6936 27.1715 50.7483 26.9543 50.8029C26.7999 50.8417 26.6457 50.8805 26.5034 50.8805L27.5733 50.7468ZM27.5733 50.7468C27.6617 50.772 27.7382 50.8235 27.8169 50.8765C27.9048 50.9357 27.9953 50.9967 28.1082 51.0249C28.3344 51.0392 28.555 51.1012 28.7555 51.2068L27.5733 50.7468ZM55.7956 78.6919L55.8082 78.7031L55.822 78.7129C55.9477 78.8021 56.0831 78.8895 56.2143 78.9742C56.2435 78.993 56.2725 79.0117 56.3011 79.0303C56.4618 79.1345 56.6158 79.2371 56.758 79.3473C57.0383 79.5644 57.2495 79.7937 57.3549 80.0779C57.4034 80.2941 57.4025 80.5185 57.3521 80.7344C57.3005 80.9556 57.1983 81.1619 57.0535 81.337L57.0524 81.3384C56.8876 81.5403 56.6451 81.6789 56.347 81.7795C56.0474 81.8806 55.7188 81.9348 55.3972 81.9862C55.0853 82.036 54.7705 82.1285 54.4767 82.2149C54.449 82.2231 54.4213 82.2312 54.3939 82.2392C54.0679 82.3347 53.7667 82.418 53.4756 82.4496L53.4756 82.4493L53.4633 82.4512C53.127 82.5019 52.7869 82.5223 52.447 82.5122L52.4319 82.5117L52.417 82.5128C51.6513 82.5667 50.8812 82.6475 50.1223 82.7276L50.1175 82.7282C48.5966 82.9138 47.0661 83.0095 45.534 83.0149C45.3591 83.0116 45.1777 83.0143 44.9995 83.017C44.957 83.0177 44.9146 83.0183 44.8726 83.0188C44.65 83.0217 44.4317 83.0224 44.2183 83.0107C43.7928 82.9872 43.411 82.9151 43.0889 82.7328C42.0746 82.0625 41.105 81.3271 40.1861 80.531L40.1789 80.5249L40.1714 80.5191C39.074 79.6832 38.3272 78.6028 37.4878 77.3884C37.4011 77.2629 37.3133 77.1359 37.2241 77.0076C36.7868 76.3791 36.3588 75.7446 35.9294 75.1082L35.8349 74.9683C35.3745 74.286 34.9119 73.6021 34.4369 72.9259C34.3069 72.7376 34.1761 72.5421 34.0429 72.3429C33.4141 71.4028 32.7308 70.3813 31.8114 69.654C31.6557 69.5254 31.5223 69.3674 31.3695 69.1835L31.3548 69.1658C31.2111 68.9928 31.0485 68.797 30.8511 68.6283C30.5562 68.369 30.2781 68.0913 30.0185 67.7969C29.509 67.0785 28.741 66.5851 27.8754 66.4205L27.6797 66.3833L27.5695 66.5492C27.2246 67.0683 26.9764 67.6455 26.8369 68.2529L26.8362 68.2558C26.7883 68.4743 26.7685 68.7092 26.7532 68.9157C26.7513 68.9414 26.7495 68.9665 26.7477 68.9911C26.7343 69.1743 26.7231 69.3279 26.7003 69.4544C26.6739 69.6007 26.6327 69.7471 26.5865 69.91L26.5848 69.9162C26.5405 70.0726 26.4916 70.245 26.4596 70.4227L26.4565 70.4399L26.4554 70.4573C26.412 71.1544 26.252 71.8392 25.9822 72.4833C25.7703 72.8599 25.6137 73.2649 25.5172 73.686C25.3948 74.1154 25.2384 74.5343 25.0493 74.9389L25.0491 74.9387L25.0444 74.95C25.0051 75.0438 24.9524 75.1356 24.8878 75.2458L24.8784 75.2619C24.8203 75.3609 24.7527 75.476 24.6972 75.5999C24.587 75.8163 24.5051 76.0372 24.4302 76.2395L24.4213 76.2635C24.341 76.48 24.2671 76.6758 24.1683 76.8614L24.1673 76.8634C23.9305 77.316 23.6669 77.7542 23.3779 78.1754L23.3762 78.1779C22.8001 79.0361 22.1473 79.8403 21.4258 80.5805L21.4258 80.5805L21.4231 80.5833C21.0236 81.0038 20.6022 81.4042 20.164 81.7897L20.1564 81.7963L20.1493 81.8034C19.8411 82.1134 19.5035 82.3927 19.1414 82.6375C18.7461 82.8314 18.3303 82.9804 17.9018 83.0818L17.8904 83.0845L17.8793 83.088C17.6352 83.1662 17.3974 83.252 17.1668 83.3356L17.1352 83.347C16.9141 83.4272 16.6998 83.5049 16.4841 83.5754C16.0343 83.7223 15.5931 83.8324 15.1238 83.855C14.5771 83.8715 14.0367 83.7353 13.5631 83.4617L13.5307 83.443L13.4948 83.4328C13.2053 83.3508 12.9117 83.284 12.6152 83.2328C12.3473 83.1292 12.0948 82.9895 11.8645 82.8177L11.8647 82.8175L11.8541 82.8102C11.5742 82.6194 11.3244 82.3879 11.1128 82.1233C11.0204 82.0047 10.9551 81.8673 10.9214 81.7209C10.9094 81.6315 10.9038 81.5555 10.8987 81.4811L10.8978 81.4683C10.8929 81.3972 10.8874 81.3178 10.8744 81.239C10.8432 81.0513 10.7723 80.8827 10.6144 80.6739C10.4876 80.5033 10.4622 80.3742 10.4555 80.2236C10.4539 80.1875 10.4539 80.1434 10.4539 80.0932C10.454 79.9437 10.4541 79.7397 10.4116 79.5315L10.408 79.5139L10.4023 79.4968C10.3356 79.2966 10.2818 79.0923 10.2411 78.8852C10.3035 78.5845 10.4557 78.3094 10.6782 78.0965L10.7143 78.0619L10.7372 78.0175C10.8917 77.7187 11.1372 77.477 11.4379 77.3273C11.9068 77.2025 12.3986 77.1897 12.8736 77.2903C13.1104 77.3423 13.3375 77.4311 13.5468 77.5535C13.6225 77.6007 13.6897 77.6546 13.7678 77.7174L13.773 77.7215C13.845 77.7794 13.9355 77.8521 14.0352 77.9071C14.1441 77.9671 14.2751 78.0128 14.4311 78.0088C14.5844 78.0048 14.7342 77.9535 14.8844 77.8667L14.9014 77.8569L14.9169 77.8449C15.2591 77.5824 15.5692 77.2807 15.8409 76.9458C15.9766 76.8068 16.0706 76.6508 16.1454 76.5269L16.1547 76.5115C16.2386 76.3725 16.3014 76.2729 16.3859 76.1923L16.3859 76.1923L16.3882 76.19C16.6586 75.9262 16.9107 75.6445 17.1429 75.3466L17.1429 75.3466L17.1453 75.3435C17.604 74.7389 17.9612 74.0638 18.2029 73.3448C19.5109 71.9217 19.6281 69.9491 19.1325 68.1083L19.0775 67.904L18.8665 67.8873C18.3099 67.8432 17.7357 67.933 17.1966 68.0173C17.0717 68.0368 16.9488 68.056 16.8284 68.0732C16.1825 68.1655 15.5771 68.208 14.9841 68.0224C14.7525 67.8567 14.5011 67.7119 14.2549 67.5768C14.1745 67.5327 14.0954 67.4899 14.0173 67.4478C13.8368 67.3504 13.6621 67.2561 13.4916 67.1551C13.0035 66.8663 12.6307 66.5679 12.4458 66.1541L12.4225 66.1021L12.3818 66.0622C11.7789 65.4718 11.3765 64.7079 11.2301 63.8783C11.3769 63.5675 11.6797 63.4295 12.1313 63.3651C12.3564 63.3331 12.5949 63.3229 12.842 63.3123C12.8586 63.3116 12.8753 63.3109 12.892 63.3102C13.1474 63.2992 13.4191 63.2861 13.6552 63.2376L13.683 63.2319L13.7093 63.2211C14.0306 63.0885 14.3795 63.0019 14.7573 62.9081C14.7994 62.8976 14.8418 62.8871 14.8847 62.8764C15.3014 62.7722 15.7476 62.6534 16.1624 62.4475L16.1624 62.4475L16.1684 62.4444C16.3444 62.352 16.541 62.2906 16.7718 62.2185C16.7833 62.2149 16.7949 62.2113 16.8066 62.2076C17.0419 62.1341 17.3103 62.048 17.5597 61.9033C18.0006 61.6474 18.4129 61.3815 18.8266 61.1075L18.8266 61.1076L18.8306 61.1048C19.2219 60.8364 19.633 60.598 20.0602 60.3914C20.2499 60.3076 20.4478 60.249 20.6671 60.1841C20.699 60.1746 20.7314 60.165 20.7642 60.1552C21.016 60.08 21.292 59.9923 21.5553 59.847C21.9688 59.6194 22.3585 59.3508 22.7185 59.0455C23.1404 58.7438 23.4797 58.3406 23.7047 57.873C23.9317 57.4014 24.0351 56.8798 24.0051 56.3573L24.003 56.3212L23.9924 56.2866C23.9023 55.9926 23.8337 55.6925 23.787 55.3885C23.7988 55.0577 23.8441 54.7289 23.9222 54.4071L23.9239 54.3999L23.9253 54.3926C23.9429 54.3009 23.9623 54.2067 23.982 54.1108C24.036 53.8489 24.0926 53.574 24.1214 53.3C24.1392 53.1519 24.1426 53.0179 24.1436 52.8994C24.1439 52.8701 24.144 52.8423 24.1441 52.8158C24.1445 52.7301 24.1448 52.657 24.1494 52.5829C24.1604 52.4067 24.1945 52.2533 24.3181 52.07L24.3184 52.0695C24.5684 51.6972 24.9231 51.4075 25.3374 51.2368C25.7075 51.1515 26.0896 51.1317 26.4666 51.1782L26.4849 51.1805H26.5034C26.687 51.1805 26.8862 51.1299 27.0389 51.0911C27.0673 51.0839 27.0941 51.0771 27.1189 51.0711C27.3097 51.025 27.4182 51.0143 27.4902 51.035L27.4909 51.0352C27.5294 51.0462 27.5675 51.0704 27.6634 51.1348L27.6639 51.1351C27.7463 51.1906 27.8722 51.2752 28.0355 51.316L28.0621 51.3226L28.0894 51.3243C28.2528 51.3346 28.4125 51.3756 28.5605 51.4448C29.1289 52.1831 29.5796 53.0053 29.8964 53.8819L29.9187 53.9436L29.9647 53.9904C30.1723 54.2014 30.4427 54.3394 30.7353 54.3838C31.0143 54.4262 31.2993 54.3814 31.5513 54.2559C31.986 54.1506 32.4013 53.9766 32.7815 53.7406L32.7974 53.7307L32.812 53.7189C32.9973 53.5689 33.1643 53.3969 33.3175 53.2357C33.3373 53.2148 33.3568 53.1942 33.3761 53.1739C33.5106 53.032 33.6348 52.9009 33.7655 52.7832L33.7657 52.7834L33.7749 52.7744C34.4173 52.1444 35.1831 51.6542 36.0242 51.3345C36.5029 51.1772 37.008 51.1161 37.5102 51.1546C37.7418 51.2408 37.9833 51.3034 38.2109 51.3601C38.2402 51.3674 38.2693 51.3746 38.2981 51.3817C38.5119 51.4347 38.7115 51.4842 38.9007 51.547C39.3239 51.6877 39.6342 51.8765 39.8104 52.2414L39.8162 52.2534L39.8231 52.2648C39.969 52.509 40.0532 52.7851 40.0683 53.0691C40.0834 53.3524 40.0293 53.6351 39.9108 53.8929C39.5494 54.6433 38.9147 55.1617 38.1626 55.6304C37.8819 55.8053 37.593 55.9686 37.2987 56.1349C37.197 56.1923 37.0947 56.2502 36.9918 56.309C36.6031 56.5312 36.2122 56.7644 35.8541 57.0296C35.6227 57.1522 35.3733 57.2674 35.1104 57.3889C35.0741 57.4057 35.0375 57.4226 35.0006 57.4397C34.6938 57.5818 34.373 57.7333 34.0685 57.9075C33.4606 58.2553 32.8826 58.7125 32.5776 59.4231L32.5543 59.4775L32.5533 59.5366C32.5359 60.6136 32.9604 61.5696 33.5327 62.3899C34.1021 63.206 34.8319 63.9075 35.4582 64.4805C35.9296 64.9656 36.3936 65.5157 36.8693 66.0934C36.9697 66.2153 37.0707 66.3386 37.1723 66.4626C37.5519 66.9258 37.9405 67.4001 38.3416 67.8583C39.3532 69.0141 40.475 70.1051 41.827 70.7354C42.5391 71.1717 43.1959 71.6925 43.7831 72.2864L43.7919 72.2953L43.8014 72.3034C44.1495 72.6011 44.519 72.8727 44.907 73.116L44.9068 73.1162L44.9172 73.1221C45.1328 73.2457 45.3555 73.334 45.5554 73.4133C45.5799 73.423 45.604 73.4325 45.6278 73.442C45.8524 73.5317 46.0508 73.6168 46.2359 73.7417L46.2569 73.7559L46.2799 73.7663C46.7188 73.9652 47.128 74.2238 47.4959 74.5349C47.6053 74.6591 47.7414 74.725 47.8424 74.7674C47.8956 74.7897 47.936 74.8051 47.97 74.8179C48.0208 74.8372 48.0572 74.851 48.1003 74.8745L48.1003 74.8746L48.1054 74.8772C48.2253 74.9397 48.326 75.0246 48.454 75.1325C48.4896 75.1625 48.5274 75.1944 48.5683 75.228C48.7402 75.3694 48.9602 75.5335 49.2523 75.5948L49.2795 75.6006L49.3073 75.6012C49.5001 75.6054 49.6918 75.6311 49.8788 75.6778C50.0779 75.7937 50.2685 75.9235 50.4493 76.0663L50.4576 76.0728L50.4664 76.0788C51.4375 76.7402 52.4807 77.2893 53.5757 77.7153L53.5757 77.7154L53.5843 77.7185C53.8065 77.7972 54.0358 77.8445 54.2418 77.887L54.2757 77.894C54.492 77.9387 54.6836 77.9802 54.8618 78.0471C55.1987 78.2222 55.5124 78.4388 55.7956 78.6919Z" fill="white" stroke="#171717" stroke-width="0.6"/>
<path d="M95.9741 68.815C95.8116 69.21 95.7361 69.6352 95.7527 70.0618C95.7295 70.4901 95.7944 70.9186 95.9432 71.321C96.0939 71.7282 96.3274 72.0998 96.6289 72.4122C96.6359 72.4194 96.6433 72.4263 96.651 72.4328C97.3185 72.9978 98.1807 73.2786 99.0526 73.2155C99.37 73.2192 99.6868 73.1862 99.9966 73.1172L99.9967 73.1172C100.299 73.0498 100.593 72.9468 100.871 72.8102C100.947 72.7732 101.003 72.7063 101.027 72.6258L101.22 71.9731C101.246 71.8824 101.229 71.7844 101.172 71.7086C101.115 71.6328 101.026 71.5882 100.932 71.5882H100.836C100.764 71.5882 100.695 71.6138 100.641 71.6603C100.444 71.8285 100.219 71.9608 99.9766 72.0511L99.9765 72.051L99.9681 72.0544C99.7426 72.1462 99.5014 72.1932 99.258 72.1927C99.2512 72.1927 99.2443 72.1929 99.2375 72.1934C99.0117 72.2084 98.7857 72.169 98.5784 72.0783C98.3748 71.9894 98.1951 71.8536 98.0539 71.6822C97.7318 71.204 97.5773 70.6324 97.6149 70.0568C97.6157 70.044 97.6157 70.0312 97.6149 70.0183C97.5806 69.4756 97.7335 68.9377 98.0481 68.4943C98.1775 68.33 98.3445 68.1992 98.535 68.113C98.7274 68.0258 98.9381 67.9867 99.149 67.999C99.1583 67.9996 99.1677 67.9997 99.177 67.9993C99.4598 67.9894 99.7398 68.059 99.9851 68.2002L99.9851 68.2003L99.9871 68.2014C100.178 68.3091 100.319 68.4862 100.383 68.6957C100.421 68.8223 100.537 68.9089 100.67 68.9089H100.787C100.942 68.9089 101.071 68.7918 101.086 68.6382C101.102 68.4705 101.129 68.3038 101.166 68.1393L101.166 68.1393L101.167 68.1347C101.198 67.9859 101.236 67.8388 101.282 67.6941C101.328 67.5478 101.257 67.39 101.116 67.3284C100.808 67.1935 100.489 67.0859 100.163 67.0067L100.163 67.0066L100.155 67.0051C99.8419 66.9371 99.522 66.9026 99.2011 66.902C98.2929 66.8561 97.4018 67.1618 96.713 67.7559L96.7129 67.7557L96.7052 67.7628C96.388 68.0563 96.1385 68.4153 95.9741 68.815Z" fill="white" stroke="#171717" stroke-width="0.6" stroke-linejoin="round"/>
<path d="M105.697 70.9064C105.697 70.9008 105.698 70.8951 105.698 70.8894C105.717 70.5742 105.672 70.2586 105.567 69.9609C105.462 69.6633 105.298 69.3896 105.086 69.1561C105.076 69.1452 105.065 69.1351 105.054 69.1258C104.585 68.7418 103.99 68.5461 103.385 68.5767C102.78 68.6073 102.207 68.862 101.78 69.2913C101.352 69.7205 101.099 70.2936 101.071 70.8989C101.042 71.5042 101.24 72.0984 101.626 72.5659C101.634 72.5761 101.643 72.5857 101.653 72.5946C101.883 72.8087 102.154 72.9737 102.45 73.0794C102.738 73.1823 103.044 73.227 103.35 73.2108C103.624 73.2352 103.901 73.2068 104.165 73.127C104.437 73.0449 104.69 72.91 104.91 72.73C105.13 72.55 105.312 72.3285 105.446 72.078C105.58 71.8276 105.664 71.5532 105.692 71.2705L105.692 71.2705L105.692 71.2668C105.703 71.1469 105.704 71.0264 105.697 70.9064ZM103.253 69.495C103.364 69.4625 103.483 69.4749 103.584 69.5294C103.652 69.5683 103.71 69.6235 103.751 69.6899C103.884 70.0608 103.941 70.4548 103.917 70.8483C103.916 70.8603 103.916 70.8723 103.917 70.8842C103.94 71.2809 103.88 71.678 103.739 72.0494C103.705 72.1122 103.655 72.1645 103.593 72.2005C103.528 72.2384 103.453 72.2563 103.378 72.252C103.366 72.2514 103.354 72.2514 103.342 72.2521C103.269 72.2567 103.197 72.2393 103.134 72.2022C103.074 72.1671 103.026 72.1157 102.995 72.0542C102.86 71.6834 102.806 71.288 102.836 70.8945C102.837 70.8807 102.837 70.867 102.836 70.8532C102.812 70.4575 102.868 70.061 103.002 69.688C103.059 69.5949 103.148 69.5259 103.253 69.495Z" fill="white" stroke="#171717" stroke-width="0.6" stroke-linejoin="round"/>
<path d="M112.433 72.6714C112.43 72.4493 112.42 72.2338 112.402 72.0251V70.8226C112.413 70.4381 112.39 70.0534 112.334 69.6728C112.334 69.6672 112.333 69.6617 112.332 69.6563C112.285 69.4266 112.183 69.2116 112.035 69.0296L112.035 69.0295L112.031 69.0244C111.891 68.86 111.713 68.7321 111.513 68.6516L111.513 68.6515L111.506 68.6487C111.26 68.5575 110.999 68.5195 110.738 68.5371C110.477 68.5547 110.222 68.6276 109.992 68.7509C109.985 68.7546 109.978 68.7586 109.971 68.7628C109.845 68.844 109.728 68.9396 109.625 69.0474C109.54 68.9505 109.442 68.8654 109.332 68.7951L109.332 68.7947C109.076 68.6317 108.778 68.5483 108.475 68.5549C108.201 68.5485 107.929 68.6088 107.683 68.7307C107.677 68.7338 107.671 68.7371 107.665 68.7406C107.627 68.763 107.589 68.7866 107.553 68.8113C107.504 68.7103 107.401 68.6406 107.282 68.6406H106.153C105.987 68.6406 105.853 68.7749 105.853 68.9406C105.853 69.2496 105.866 69.5367 105.878 69.7858C105.883 69.8949 105.888 69.9968 105.891 70.0901C105.898 70.3045 105.895 70.4847 105.893 70.6504C105.892 70.7285 105.891 70.8034 105.891 70.8772V71.6796C105.891 72.0065 105.89 72.3796 105.854 72.7929C105.847 72.8767 105.875 72.9597 105.932 73.0217C105.989 73.0837 106.069 73.119 106.153 73.119H107.351C107.517 73.119 107.651 72.9847 107.651 72.819V72.7441C107.651 72.5786 107.643 72.4368 107.635 72.3232C107.632 72.2922 107.63 72.2647 107.628 72.2402C107.623 72.1679 107.619 72.1213 107.619 72.0862V70.7862C107.619 70.78 107.619 70.7738 107.619 70.7676C107.601 70.4847 107.643 70.2014 107.74 69.9357C107.766 69.9041 107.798 69.8779 107.835 69.8587C107.879 69.8349 107.929 69.8224 107.98 69.8224C108.031 69.8224 108.081 69.8349 108.125 69.8587C108.159 69.8763 108.188 69.8997 108.213 69.9277C108.32 70.3099 108.358 70.7082 108.326 71.1041C108.325 71.1122 108.325 71.1204 108.325 71.1286V71.9364C108.325 72.1509 108.307 72.3862 108.289 72.6357C108.285 72.6873 108.281 72.7395 108.277 72.7923C108.271 72.8754 108.3 72.9572 108.357 73.0181C108.414 73.0791 108.493 73.1137 108.576 73.1137H109.785C109.951 73.1137 110.085 72.9794 110.085 72.8137V70.7862C110.085 70.7787 110.085 70.7711 110.085 70.7636C110.063 70.485 110.103 70.2052 110.2 69.9436C110.23 69.9083 110.266 69.8791 110.307 69.8577C110.358 69.8314 110.413 69.8177 110.47 69.8177C110.527 69.8177 110.583 69.8314 110.633 69.8577C110.672 69.8779 110.707 69.9051 110.735 69.9378C110.837 70.2689 110.876 70.6162 110.85 70.962C110.85 70.9693 110.85 70.9767 110.85 70.9841V71.8294C110.85 72.097 110.829 72.3694 110.805 72.6838C110.802 72.7172 110.8 72.7512 110.797 72.7857C110.791 72.8689 110.819 72.9511 110.876 73.0123C110.933 73.0735 111.013 73.1083 111.096 73.1083H112.134H112.166C112.332 73.1083 112.466 72.974 112.466 72.8083C112.466 72.759 112.454 72.7124 112.433 72.6714Z" fill="white" stroke="#171717" stroke-width="0.6" stroke-linejoin="round"/>
<path d="M115.247 72.7923C115.243 72.8745 115.272 72.955 115.329 73.0147C115.386 73.0745 115.465 73.1083 115.547 73.1083H116.756C116.922 73.1083 117.056 72.974 117.056 72.8083V70.7862C117.056 70.7787 117.056 70.7711 117.055 70.7636C117.034 70.485 117.073 70.2052 117.171 69.9436C117.2 69.9083 117.237 69.8791 117.278 69.8577C117.328 69.8314 117.384 69.8177 117.441 69.8177C117.497 69.8177 117.553 69.8314 117.604 69.8577C117.642 69.8779 117.677 69.9051 117.706 69.9378C117.807 70.2689 117.846 70.6162 117.821 70.962C117.82 70.9693 117.82 70.9767 117.82 70.9841V71.8294C117.82 72.1412 117.82 72.4356 117.77 72.7634C117.757 72.8498 117.782 72.9377 117.839 73.0039C117.896 73.0702 117.979 73.1083 118.066 73.1083H119.275C119.441 73.1083 119.575 72.974 119.575 72.8083C119.575 72.5376 119.565 72.2765 119.543 72.0251V70.8183C119.543 70.8108 119.543 70.8034 119.543 70.7959C119.514 70.4194 119.453 70.0462 119.359 69.6805C119.312 69.4538 119.211 69.2416 119.064 69.0617L119.064 69.0616L119.06 69.0565C118.92 68.8921 118.742 68.7642 118.542 68.6837L118.542 68.6836L118.535 68.6808C118.29 68.5896 118.028 68.5516 117.767 68.5692C117.506 68.5868 117.252 68.6597 117.021 68.783C117.014 68.7867 117.007 68.7907 117.001 68.7949C116.874 68.8761 116.758 68.9717 116.654 69.0795C116.569 68.9826 116.471 68.8975 116.361 68.8272L116.361 68.8268C116.105 68.6638 115.807 68.5804 115.504 68.587C115.23 68.5806 114.958 68.6409 114.713 68.7628C114.707 68.7655 114.702 68.7684 114.697 68.7714C114.657 68.7939 114.619 68.8177 114.582 68.8427C114.533 68.7421 114.43 68.6727 114.311 68.6727L113.177 68.6727C113.011 68.6727 112.877 68.807 112.877 68.9727C112.877 69.1991 112.885 69.4092 112.894 69.6003C112.896 69.6366 112.897 69.672 112.899 69.7065C112.906 69.8565 112.912 69.9914 112.914 70.1172C112.918 70.3351 112.917 70.5218 112.916 70.6892C112.915 70.7663 112.914 70.8393 112.914 70.9092V71.7117C112.914 72.0386 112.914 72.4117 112.878 72.825C112.871 72.9088 112.899 72.9918 112.956 73.0538C113.013 73.1158 113.093 73.1511 113.177 73.1511H114.354C114.52 73.1511 114.654 73.0168 114.654 72.8511V72.7762C114.654 72.6125 114.647 72.472 114.64 72.3589C114.638 72.329 114.636 72.3021 114.635 72.2779C114.63 72.2046 114.627 72.1554 114.627 72.1183V70.7862C114.627 70.7787 114.627 70.7711 114.626 70.7636C114.605 70.4827 114.645 70.2007 114.742 69.9368C114.763 69.9126 114.786 69.8915 114.813 69.8742C114.847 69.8515 114.886 69.8359 114.927 69.8283C114.968 69.8207 115.009 69.8211 115.05 69.8297C115.091 69.8382 115.129 69.8547 115.163 69.8781L115.163 69.8782L115.167 69.8807C115.186 69.8935 115.204 69.9088 115.219 69.926C115.323 70.3107 115.361 70.71 115.333 71.1076C115.333 71.1146 115.332 71.1216 115.332 71.1286V71.9364C115.332 72.0505 115.318 72.1755 115.298 72.3229C115.296 72.338 115.294 72.3533 115.292 72.3688C115.275 72.4991 115.255 72.6455 115.247 72.7923Z" fill="white" stroke="#171717" stroke-width="0.6" stroke-linejoin="round"/>
<path d="M122.353 69.6912C122.49 70.0603 122.548 70.4542 122.523 70.8474C122.522 70.8601 122.522 70.8728 122.523 70.8855C122.547 71.2589 122.496 71.633 122.373 71.9858C122.363 71.9979 122.355 72.0108 122.347 72.0244C122.289 72.1267 122.193 72.2019 122.08 72.2336C121.968 72.2652 121.847 72.251 121.745 72.1941C121.68 72.157 121.626 72.1047 121.586 72.0419C121.453 71.6735 121.396 71.2816 121.421 70.8904C121.421 70.878 121.421 70.8656 121.421 70.8532C121.396 70.4569 121.453 70.0598 121.587 69.6864C121.614 69.6412 121.648 69.6012 121.689 69.5682C121.735 69.5313 121.787 69.5039 121.843 69.4876C121.899 69.4714 121.958 69.4665 122.017 69.4734C122.075 69.4803 122.131 69.4987 122.182 69.5277L122.183 69.5282C122.252 69.5675 122.311 69.6235 122.353 69.6912ZM123.684 69.1541C123.674 69.1427 123.663 69.1322 123.65 69.1226C123.181 68.751 122.591 68.565 121.993 68.6003C121.395 68.6355 120.831 68.8895 120.408 69.3137C119.985 69.738 119.733 70.303 119.7 70.901C119.667 71.499 119.855 72.0883 120.229 72.5567C120.242 72.5734 120.257 72.5886 120.274 72.6022C120.75 72.9908 121.346 73.2031 121.961 73.2031C122.576 73.2031 123.172 72.9908 123.649 72.6022C123.659 72.5934 123.669 72.5838 123.679 72.5736C123.892 72.3435 124.057 72.0727 124.164 71.7775C124.268 71.488 124.314 71.1809 124.3 70.8737C124.318 70.5635 124.274 70.2527 124.171 69.9597C124.065 69.6608 123.9 69.3867 123.684 69.1541Z" fill="white" stroke="#171717" stroke-width="0.6" stroke-linejoin="round"/>
<path d="M128.606 71.4442V70.4279C128.616 70.1422 128.594 69.8563 128.542 69.5753L128.542 69.5753L128.54 69.5676C128.499 69.3756 128.411 69.1969 128.284 69.0471C128.142 68.8768 127.96 68.7445 127.754 68.6621L127.754 68.662L127.745 68.6588C127.507 68.572 127.254 68.5334 127.002 68.5454C126.749 68.5574 126.501 68.6197 126.272 68.7286C126.265 68.7319 126.259 68.7354 126.252 68.7391C126.211 68.7624 126.171 68.7872 126.133 68.8133C126.083 68.717 125.982 68.6513 125.866 68.6513H124.764C124.681 68.6513 124.602 68.6857 124.545 68.7464C124.488 68.807 124.459 68.8884 124.465 68.9713C124.486 69.2873 124.502 69.6033 124.512 69.9192V71.8133C124.512 72.1311 124.512 72.4542 124.467 72.7898C124.455 72.8756 124.481 72.9621 124.538 73.0272C124.595 73.0924 124.678 73.1297 124.764 73.1297H125.936C126.101 73.1297 126.236 72.9954 126.236 72.8297V72.8187C126.236 72.4074 126.236 72.0227 126.203 71.6882C126.188 71.4257 126.188 71.1625 126.203 70.9C126.204 70.8879 126.204 70.8757 126.203 70.8636C126.184 70.5628 126.229 70.2614 126.336 69.9796C126.358 69.9441 126.388 69.9139 126.423 69.8912C126.463 69.8656 126.509 69.8504 126.556 69.847C126.603 69.8437 126.651 69.8523 126.694 69.872C126.725 69.8863 126.753 69.906 126.777 69.9302C126.878 70.2408 126.916 70.5687 126.889 70.8946C126.888 70.903 126.888 70.9115 126.888 70.9199V71.9899H126.887L126.888 72.0005C126.897 72.2584 126.883 72.5165 126.848 72.7721C126.836 72.858 126.861 72.945 126.918 73.0106C126.975 73.0761 127.058 73.1137 127.145 73.1137H128.348C128.514 73.1137 128.648 72.9794 128.648 72.8137C128.648 72.6955 128.639 72.5774 128.63 72.4677C128.628 72.4474 128.626 72.4274 128.625 72.4077C128.617 72.3175 128.609 72.2329 128.605 72.1468C128.599 72.0071 128.601 71.8677 128.603 71.7134C128.604 71.629 128.606 71.5401 128.606 71.4442Z" fill="white" stroke="#171717" stroke-width="0.6" stroke-linejoin="round"/>
<path d="M135.988 66.9983C135.849 66.9983 135.729 67.0931 135.696 67.2277C135.531 67.9076 135.35 68.5777 135.164 69.2389C135.057 69.6175 134.938 69.9948 134.812 70.3721C134.672 69.9632 134.537 69.5598 134.405 69.1621C134.187 68.503 133.991 67.8538 133.798 67.2121C133.76 67.0852 133.643 66.9983 133.511 66.9983H132.692C132.564 66.9983 132.449 67.0802 132.408 67.202C132.329 67.4347 132.251 67.6689 132.172 67.9049C132.035 68.3134 131.896 68.7272 131.751 69.1473C131.642 69.4612 131.534 69.7761 131.424 70.0981C131.394 70.1884 131.362 70.2792 131.331 70.3708C131.223 69.9991 131.119 69.6262 131.019 69.253C130.921 68.8916 130.829 68.538 130.736 68.1823C130.654 67.8658 130.571 67.5476 130.484 67.2207C130.449 67.0895 130.33 66.9983 130.194 66.9983H128.819C128.722 66.9983 128.631 67.0453 128.575 67.1244C128.518 67.2035 128.504 67.3049 128.536 67.3967C128.866 68.3489 129.172 69.2867 129.452 70.2101L129.452 70.2101L129.453 70.2112C129.734 71.126 129.985 72.0312 130.22 72.9173C130.254 73.0489 130.373 73.1404 130.51 73.1404H131.333C131.463 73.1404 131.578 73.0568 131.619 72.9333C131.843 72.245 132.067 71.5783 132.296 70.9227C132.433 70.5318 132.573 70.1501 132.716 69.7737C132.865 70.196 133.009 70.6126 133.146 71.0209C133.364 71.6694 133.561 72.3026 133.747 72.9264C133.785 73.0534 133.902 73.1404 134.035 73.1404H134.875C135.006 73.1404 135.121 73.0556 135.161 72.9309C135.482 71.9136 135.799 70.9534 136.1 70.0383L136.112 70.0028C136.416 69.0789 136.71 68.2143 136.998 67.3981C137.03 67.3063 137.016 67.2045 136.96 67.125C136.904 67.0455 136.812 66.9983 136.715 66.9983H136.362H135.988Z" fill="white" stroke="#171717" stroke-width="0.6" stroke-linejoin="round"/>
<path d="M139.331 72.3697C139.514 72.3699 139.695 72.3373 139.866 72.2734C139.935 72.2471 140.003 72.2167 140.069 72.1822L140.164 71.9359L140.343 72.0048C140.352 71.9981 140.36 71.9914 140.369 71.9845L140.444 72.0434L140.435 72.066L140.558 72.2173C140.48 72.281 140.397 72.3389 140.31 72.3906L140.267 72.5034C140.084 72.6264 139.881 72.7186 139.668 72.7762C139.425 72.8404 139.175 72.8728 138.924 72.8725C138.654 72.8915 138.382 72.8537 138.127 72.7616C137.872 72.6695 137.639 72.5251 137.443 72.3376L139.331 72.3697ZM139.331 72.3697C139.159 72.3753 138.989 72.3411 138.833 72.2696C138.677 72.1981 138.54 72.0913 138.432 71.9578L139.331 72.3697ZM139.015 69.5905C139.103 69.7756 139.149 69.9772 139.151 70.1813H138.375C138.391 69.9901 138.445 69.8033 138.536 69.6328L138.537 69.6323C138.563 69.5834 138.601 69.5425 138.649 69.514C138.696 69.4855 138.751 69.4705 138.806 69.4707L138.809 69.4706C138.852 69.4703 138.894 69.4818 138.931 69.5037C138.966 69.5248 138.995 69.5547 139.015 69.5905ZM138.025 73.0438C138.316 73.1489 138.626 73.1927 138.935 73.1725C139.208 73.1719 139.48 73.1362 139.745 73.0663L139.745 73.0663L139.746 73.0658C139.991 72.9996 140.223 72.8938 140.434 72.7526C140.485 72.7182 140.525 72.6687 140.547 72.6109L140.724 72.1508C140.771 72.028 140.732 71.8888 140.629 71.8075L140.554 71.7486C140.444 71.662 140.288 71.6633 140.179 71.7517C140.054 71.854 139.912 71.9353 139.761 71.9925C139.623 72.0437 139.478 72.0698 139.331 72.0697V72.0695L139.321 72.0698C139.196 72.074 139.072 72.049 138.958 71.9969C138.846 71.9454 138.747 71.869 138.669 71.7734C138.53 71.5876 138.441 71.3714 138.408 71.1451H140.583C140.748 71.1451 140.883 71.0107 140.883 70.8451V70.5992C140.902 70.3229 140.867 70.0455 140.779 69.7827C140.691 69.5161 140.549 69.27 140.364 69.0586C140.357 69.0497 140.348 69.0413 140.34 69.0334C140.136 68.8499 139.897 68.7101 139.638 68.6224C139.384 68.537 139.117 68.503 138.85 68.5224C138.556 68.5098 138.262 68.5572 137.986 68.6616C137.704 68.7684 137.448 68.9326 137.232 69.1437L137.232 69.1436L137.224 69.1523C137.017 69.3727 136.855 69.6323 136.749 69.9159C136.645 70.1948 136.597 70.4914 136.607 70.7888C136.573 71.4288 136.793 72.0567 137.218 72.5366C137.224 72.5428 137.229 72.5487 137.235 72.5544C137.462 72.7708 137.731 72.9375 138.025 73.0438Z" fill="white" stroke="#171717" stroke-width="0.6" stroke-linejoin="round"/>
<path d="M141.439 69.6467C141.433 69.6281 141.428 69.6098 141.422 69.5918C141.404 69.6152 141.386 69.639 141.369 69.6632M141.439 69.6467L141.369 69.6632M141.439 69.6467L141.366 69.6674M141.439 69.6467C141.464 69.7512 141.498 69.8532 141.54 69.9517M141.369 69.6632L141.147 69.716C141.147 69.7184 141.148 69.7209 141.149 69.7233C141.149 69.7252 141.15 69.7272 141.15 69.7292L141.366 69.6674M141.369 69.6632C141.368 69.6646 141.367 69.666 141.366 69.6674M141.366 69.6674C141.336 69.7105 141.308 69.7549 141.281 69.8004L141.54 69.9517M141.54 69.9517L141.815 69.832C141.792 69.777 141.771 69.7208 141.754 69.6634C141.673 69.7513 141.601 69.8479 141.54 69.9517ZM140.754 71.7752C140.745 71.9615 140.773 72.1478 140.836 72.3236C140.899 72.5024 140.998 72.6667 141.126 72.8071C141.13 72.8112 141.134 72.8153 141.138 72.8192C141.273 72.9517 141.434 73.0548 141.611 73.122C141.784 73.1879 141.969 73.2179 142.155 73.2101C142.427 73.2133 142.695 73.1449 142.933 73.0117C143.021 72.9628 143.105 72.9052 143.181 72.84C143.219 72.8845 143.261 72.9258 143.306 72.9636L143.306 72.9638L143.315 72.9709C143.505 73.1178 143.741 73.193 143.981 73.1832C144.144 73.1829 144.306 73.1645 144.465 73.1285C144.632 73.0952 144.794 73.0442 144.95 72.9764C145.06 72.9288 145.13 72.8207 145.13 72.7013V72.5034C145.13 72.3377 144.996 72.2034 144.83 72.2034H144.798C144.791 72.2034 144.784 72.2037 144.777 72.2042C144.748 72.2063 144.719 72.2022 144.691 72.1921C144.678 72.1871 144.665 72.1805 144.652 72.1727C144.598 72.0414 144.577 71.8981 144.594 71.7562C144.595 71.745 144.595 71.7337 144.595 71.7224V71.5701L144.622 70.1606L144.622 70.1606V70.155V70.1202C144.633 69.8995 144.596 69.679 144.513 69.4741C144.429 69.2664 144.3 69.08 144.135 68.9284C144.128 68.9222 144.121 68.9163 144.114 68.9107C143.737 68.6236 143.27 68.4822 142.798 68.5123L140.754 71.7752ZM140.754 71.7752C140.754 71.7785 140.754 71.7818 140.754 71.7852L141.054 71.7812L140.754 71.7654C140.754 71.7686 140.754 71.7719 140.754 71.7752ZM142.592 72.0579C142.576 72.0507 142.561 72.0407 142.549 72.0283C142.494 71.9214 142.469 71.8016 142.476 71.6814C142.477 71.6693 142.477 71.6571 142.476 71.645C142.472 71.5673 142.483 71.4895 142.511 71.4167C142.536 71.349 142.575 71.2871 142.624 71.2344C142.72 71.1604 142.825 71.0996 142.936 71.0534V71.6154C142.936 71.6215 142.936 71.6277 142.937 71.6338C142.945 71.7635 142.913 71.8925 142.846 72.0036C142.829 72.0241 142.807 72.0406 142.782 72.052C142.754 72.0651 142.724 72.0713 142.693 72.07C142.682 72.0695 142.671 72.0696 142.66 72.0703C142.637 72.0718 142.613 72.0676 142.592 72.0579ZM141.915 70.7648L141.833 70.4762C141.832 70.4766 141.83 70.477 141.829 70.4773L141.826 70.4784L141.915 70.7648ZM143.049 70.0234C143 70.0516 142.95 70.0786 142.9 70.1041C142.899 70.1072 142.899 70.1102 142.899 70.1133C142.899 70.1183 142.899 70.1232 142.899 70.1282V70.2833H143.199L143.109 70.1282L143.107 70.1236L143.049 70.0234ZM142.768 69.7467C142.77 69.7484 142.771 69.7502 142.773 69.7519C142.774 69.7534 142.776 69.755 142.777 69.7566L142.99 69.5451L142.768 69.7467ZM142.122 69.7285C142.124 69.7269 142.127 69.7252 142.129 69.7236C142.132 69.7216 142.134 69.7196 142.137 69.7176L141.952 69.4809L142.122 69.7285Z" fill="white" stroke="#171717" stroke-width="0.6" stroke-linejoin="round"/>
<path d="M146.917 66.7345C146.921 66.6492 146.888 66.5662 146.827 66.5064C146.766 66.4466 146.683 66.4156 146.597 66.4212C146.483 66.4287 146.37 66.4428 146.257 66.4633H145.75C145.632 66.4633 145.579 66.4606 145.525 66.4402C145.433 66.4051 145.33 66.4175 145.248 66.4735C145.167 66.5295 145.119 66.6219 145.119 66.7205C145.119 66.9785 145.13 67.2562 145.141 67.5376C145.149 67.7382 145.157 67.9406 145.162 68.1392C145.169 68.4677 145.166 68.8207 145.164 69.1909C145.163 69.3832 145.161 69.5801 145.161 69.7805V71.3854C145.161 71.7491 145.147 72.0931 145.133 72.4333C145.128 72.5568 145.123 72.6798 145.119 72.8031C145.116 72.8939 145.154 72.9812 145.222 73.0406C145.291 73.1 145.383 73.1251 145.472 73.1088C145.559 73.093 145.647 73.0819 145.735 73.0755L145.735 73.0756L145.744 73.0747C145.931 73.0554 146.12 73.0554 146.308 73.0747L146.308 73.0748L146.317 73.0754C146.403 73.0818 146.488 73.0929 146.573 73.1087C146.661 73.1249 146.751 73.1014 146.82 73.0444C146.888 72.9874 146.928 72.9028 146.928 72.8137C146.928 72.5669 146.915 72.2921 146.903 72.0155C146.893 71.8078 146.884 71.599 146.879 71.4003C146.873 71.0758 146.875 70.722 146.877 70.3496C146.878 70.1555 146.88 69.9564 146.88 69.7537V68.1435H146.88L146.879 68.1375C146.871 67.6882 146.888 67.3178 146.907 66.9272C146.911 66.8637 146.914 66.7996 146.917 66.7345Z" fill="white" stroke="#171717" stroke-width="0.6" stroke-linejoin="round"/>
<path d="M149.235 72.1714C149.223 72.1711 149.212 72.1715 149.2 72.1725C149.191 72.1734 149.182 72.1711 149.174 72.1661L149.167 72.1775L149.174 72.1661C149.169 72.1631 149.165 72.1591 149.162 72.1545C149.091 71.8102 149.065 71.4582 149.083 71.107C149.084 71.1017 149.084 71.0964 149.084 71.0911V70.7648V70.7647C149.084 70.5449 149.084 70.1823 149.106 69.6793H149.613C149.697 69.6793 149.777 69.6439 149.834 69.5818C149.891 69.5198 149.919 69.4367 149.912 69.3528C149.908 69.3099 149.908 69.2667 149.912 69.2238C149.912 69.215 149.913 69.2062 149.913 69.1974V68.9834C149.913 68.8177 149.779 68.6834 149.613 68.6834H149.126V68.2559H149.126L149.126 68.2513C149.123 68.0049 149.135 67.7585 149.162 67.5136C149.174 67.4049 149.126 67.2982 149.037 67.2351L148.946 67.1709C148.856 67.1072 148.738 67.0982 148.639 67.1476C148.475 67.2298 148.304 67.3074 148.121 67.3859L147.587 67.6101C147.48 67.6551 147.408 67.7579 147.403 67.8739C147.396 68.0407 147.406 68.2077 147.433 68.3723C147.442 68.4587 147.442 68.5458 147.432 68.6321C147.43 68.644 147.43 68.6559 147.43 68.6678V68.678H147.195C147.029 68.678 146.895 68.8124 146.895 68.978V69.0583C146.895 69.0708 146.896 69.0834 146.897 69.0958C146.9 69.1153 146.9 69.135 146.897 69.1545C146.896 69.167 146.895 69.1795 146.895 69.192V69.4007C146.895 69.5664 147.029 69.7007 147.195 69.7007H147.43V71.8396C147.417 72.0214 147.441 72.204 147.499 72.3767C147.559 72.5534 147.655 72.7159 147.78 72.8544C147.786 72.8614 147.793 72.8682 147.8 72.8746C147.936 72.9992 148.096 73.095 148.271 73.1562C148.441 73.2162 148.622 73.2417 148.803 73.2314C148.973 73.2317 149.142 73.2107 149.306 73.1688C149.495 73.1214 149.678 73.0556 149.854 72.9725C149.958 72.9229 150.025 72.8173 150.025 72.7013V72.4232C150.025 72.3323 149.984 72.2463 149.913 72.1894C149.842 72.1324 149.75 72.1107 149.661 72.1302C149.521 72.1609 149.378 72.1747 149.235 72.1714Z" fill="white" stroke="#171717" stroke-width="0.6" stroke-linejoin="round"/>
<path d="M151.712 68.7491C151.682 68.7659 151.653 68.7834 151.625 68.8017V67.4418C151.632 67.2153 151.652 66.9894 151.686 66.7653C151.7 66.6708 151.668 66.5751 151.6 66.5077C151.533 66.4403 151.437 66.4093 151.342 66.4242L151.061 66.4687H150.54L150.247 66.424C150.16 66.4108 150.072 66.436 150.006 66.493C149.94 66.55 149.901 66.6331 149.901 66.7205C149.901 66.9021 149.913 67.0983 149.925 67.3C149.925 67.3079 149.926 67.3159 149.926 67.3238C149.938 67.5209 149.95 67.727 149.955 67.9471C149.962 68.2435 149.96 68.615 149.958 69.0654C149.956 69.3239 149.955 69.6084 149.955 69.9196V71.7491C149.955 72.1588 149.929 72.5018 149.903 72.7919C149.895 72.8758 149.923 72.9591 149.98 73.0213C150.037 73.0836 150.117 73.119 150.201 73.119H151.384C151.547 73.119 151.68 72.9884 151.684 72.8252C151.691 72.4584 151.678 72.0915 151.645 71.7261C151.628 71.4481 151.628 71.1691 151.646 70.8911C151.646 70.8784 151.646 70.8656 151.646 70.8529C151.627 70.5538 151.671 70.2543 151.776 69.9739C151.802 69.9358 151.836 69.9037 151.876 69.8798C151.922 69.8523 151.973 69.8366 152.026 69.8342C152.08 69.8317 152.133 69.8425 152.181 69.8657C152.217 69.8831 152.249 69.9071 152.276 69.9363C152.375 70.2493 152.412 70.5786 152.385 70.906C152.384 70.9142 152.384 70.9224 152.384 70.9306V72.0006H152.383L152.384 72.0112C152.393 72.2691 152.38 72.5272 152.344 72.7828C152.332 72.8687 152.357 72.9557 152.414 73.0213C152.471 73.0868 152.554 73.1244 152.641 73.1244H153.839C153.926 73.1244 154.009 73.0867 154.066 73.021C154.123 72.9553 154.148 72.8681 154.136 72.782C154.109 72.5905 154.092 72.3977 154.086 72.2044V70.4265C154.093 70.1457 154.072 69.8648 154.022 69.5883C154.021 69.5816 154.019 69.575 154.018 69.5684C153.97 69.3777 153.88 69.2001 153.754 69.0488L153.754 69.0483C153.612 68.8775 153.429 68.7447 153.223 68.6621L153.223 68.662L153.217 68.6596C153.013 68.5835 152.797 68.5445 152.579 68.5443C152.282 68.5389 151.987 68.6073 151.723 68.7433L151.723 68.7431L151.712 68.7491Z" fill="white" stroke="#171717" stroke-width="0.6" stroke-linejoin="round"/>
<path d="M102.92 80.1679L102.92 80.1679L102.92 80.1657L102.455 76.282C102.437 76.1312 102.309 76.0177 102.157 76.0177H101.413C101.295 76.0177 101.188 76.0871 101.139 76.195C100.841 76.8616 100.543 77.5055 100.235 78.1326C100.011 78.587 99.7882 79.0323 99.5614 79.4709C99.3225 79.0149 99.0883 78.5597 98.8628 78.1049C98.5537 77.4813 98.2453 76.8378 97.9586 76.1954C97.9103 76.0873 97.803 76.0177 97.6846 76.0177H96.9785C96.8288 76.0177 96.702 76.128 96.6813 76.2762L96.1464 80.1118L96.1461 80.1118L96.1449 80.1243C96.1252 80.3275 96.0947 80.5294 96.0534 80.7292L96.0531 80.7292L96.051 80.7423C96.0384 80.8206 96.0251 80.9031 96.0111 80.9897C95.9717 81.2332 95.9271 81.5091 95.8796 81.8136C95.8646 81.9098 95.8973 82.0074 95.9672 82.0752C96.0371 82.143 96.1356 82.1726 96.2313 82.1547L96.3751 82.1277H96.6251L96.775 82.155C96.8625 82.1709 96.9526 82.1471 97.0209 82.0901C97.0892 82.0331 97.1287 81.9488 97.1287 81.8598C97.1287 81.2654 97.1959 80.6611 97.2759 80.0533C97.2776 80.0404 97.2785 80.0273 97.2785 80.0142V79.9676L97.3617 79.2586C97.5045 79.534 97.6494 79.8173 97.7971 80.1075C98.059 80.6222 98.3171 81.1609 98.5868 81.724C98.6289 81.8119 98.6713 81.9004 98.7141 81.9895C98.764 82.0936 98.8691 82.1598 98.9845 82.1598H99.3269C99.443 82.1598 99.5487 82.0928 99.5982 81.9879C99.9134 81.3201 100.223 80.6747 100.527 80.0618C100.676 79.7608 100.823 79.464 100.971 79.1715L101.129 80.7367C101.13 80.8061 101.137 80.9075 101.146 81.0289C101.148 81.0548 101.15 81.0815 101.151 81.1091C101.163 81.2837 101.178 81.5111 101.188 81.7958V81.8705C101.188 81.9549 101.224 82.0353 101.286 82.0922C101.348 82.149 101.432 82.177 101.516 82.1692L101.85 82.1384H102.467L102.825 82.1644C102.92 82.1712 103.012 82.133 103.074 82.0612C103.136 81.9894 103.16 81.8926 103.14 81.8001C103.098 81.6123 103.057 81.4052 103.02 81.1674C103.003 81.0554 102.991 80.9193 102.976 80.7491C102.975 80.733 102.973 80.7167 102.972 80.7001C102.958 80.544 102.943 80.3654 102.92 80.1679Z" fill="white" stroke="#171717" stroke-width="0.6" stroke-linejoin="round"/>
<path d="M107.003 80.8094C107.004 80.7994 107.004 80.7893 107.004 80.7792V80.6269L107.031 79.2175L107.031 79.2175V79.2118V79.177C107.042 78.9563 107.005 78.7358 106.922 78.5309C106.838 78.3232 106.708 78.1369 106.543 77.9852C106.537 77.979 106.53 77.9731 106.522 77.9675C106.146 77.6804 105.679 77.539 105.206 77.5691C104.916 77.5708 104.629 77.6323 104.363 77.7498L104.363 77.7498L104.361 77.7506C104.072 77.8804 103.806 78.0547 103.571 78.2672C103.477 78.3525 103.447 78.4878 103.496 78.605C103.52 78.6634 103.544 78.7261 103.568 78.7984C103.595 78.8782 103.625 78.9699 103.661 79.0925C103.695 79.209 103.796 79.2936 103.917 79.3067C104.037 79.3199 104.154 79.259 104.212 79.1525C104.293 79.0058 104.405 78.879 104.541 78.7817L104.541 78.7816C104.634 78.7153 104.745 78.6806 104.859 78.6825L104.859 78.6827L104.868 78.6826C104.927 78.6817 104.986 78.6926 105.041 78.7146C105.093 78.7354 105.141 78.7658 105.182 78.8041C105.263 78.8989 105.308 79.0196 105.308 79.1443C105.105 79.2464 104.89 79.3257 104.669 79.3807C104.662 79.3824 104.655 79.3843 104.648 79.3865L104.241 79.5187C103.943 79.6053 103.675 79.7702 103.463 79.9963C103.458 80.0013 103.453 80.0065 103.449 80.0118C103.261 80.2424 103.163 80.5333 103.173 80.8305C103.164 81.0163 103.191 81.2021 103.253 81.3774C103.317 81.5577 103.417 81.7233 103.546 81.8644C103.55 81.8684 103.553 81.8722 103.557 81.876C103.692 82.0085 103.853 82.1116 104.03 82.1788C104.204 82.2448 104.389 82.2748 104.575 82.2669C104.848 82.2695 105.118 82.2013 105.357 82.0688L105.357 82.0688L105.361 82.0663C105.446 82.0177 105.525 81.9614 105.598 81.8983C105.638 81.944 105.681 81.9862 105.729 82.0244C105.923 82.1781 106.167 82.2531 106.412 82.2346C106.57 82.2331 106.726 82.2168 106.88 82.1861L106.88 82.1861L106.885 82.1852C107.049 82.1498 107.21 82.0996 107.365 82.0352C107.477 81.9887 107.55 81.8794 107.55 81.7582V81.5549C107.55 81.3892 107.415 81.2549 107.25 81.2549H107.223C107.211 81.2549 107.2 81.2556 107.188 81.2569C107.159 81.2604 107.129 81.2572 107.101 81.2476C107.087 81.2429 107.074 81.2367 107.062 81.2292C107.009 81.0964 106.988 80.9524 107.003 80.8094ZM105.345 80.0834V80.6722H105.345L105.345 80.6822C105.349 80.8058 105.318 80.9279 105.255 81.0341C105.237 81.0543 105.215 81.0707 105.191 81.0821C105.163 81.0952 105.132 81.1013 105.101 81.1C105.091 81.0996 105.081 81.0997 105.071 81.1002C105.049 81.1015 105.027 81.0972 105.007 81.0877C104.99 81.0797 104.975 81.0682 104.962 81.0539C104.903 80.9503 104.875 80.8309 104.885 80.7115C104.886 80.6976 104.886 80.6837 104.885 80.6698C104.88 80.5932 104.892 80.5164 104.919 80.4447C104.945 80.3778 104.983 80.3168 105.032 80.265C105.128 80.1907 105.234 80.1298 105.345 80.0834Z" fill="white" stroke="#171717" stroke-width="0.6" stroke-linejoin="round"/>
<path d="M111.073 81.1328C111.088 81.1383 111.103 81.1449 111.117 81.1528C111.347 81.2787 111.53 81.475 111.639 81.7126C111.751 81.9304 111.807 82.1724 111.803 82.4172C111.806 82.7031 111.74 82.9854 111.61 83.2405C111.481 83.4968 111.291 83.7179 111.057 83.8849C110.541 84.257 109.915 84.4446 109.279 84.4177C108.789 84.4442 108.301 84.3356 107.868 84.1036L111.073 81.1328ZM111.073 81.1328C110.734 81.0135 110.377 80.9552 110.018 80.9606H109.876C109.506 80.9606 109.26 80.9199 109.118 80.8663C109.068 80.8471 109.04 80.8311 109.027 80.8209C109.029 80.8066 109.035 80.7931 109.045 80.7822L108.896 80.6476M111.073 81.1328L108.896 80.6476M108.896 80.6476L109.045 80.7822C109.057 80.7689 109.073 80.7604 109.091 80.7582M108.896 80.6476L109.091 80.7582M109.091 80.7582H109.21C109.745 80.7868 110.276 80.6469 110.728 80.3578C110.732 80.3551 110.737 80.3523 110.741 80.3494C110.937 80.2094 111.095 80.0225 111.201 79.8058C111.306 79.5923 111.356 79.3563 111.348 79.1188C111.352 78.938 111.319 78.7586 111.251 78.5916H111.428C111.593 78.5916 111.728 78.4573 111.728 78.2916V77.8958C111.728 77.7301 111.593 77.5958 111.428 77.5958H110.7V77.5957L110.696 77.5958C110.415 77.5998 110.134 77.5895 109.855 77.5648L109.855 77.5647L109.846 77.5642L109.311 77.5321L109.311 77.5321C108.806 77.5025 108.306 77.6494 107.897 77.9476L107.897 77.9476L107.892 77.9514C107.709 78.0908 107.562 78.2716 107.462 78.4789C107.364 78.6824 107.315 78.9057 107.319 79.1313C107.31 79.307 107.334 79.4828 107.392 79.6492C107.45 79.8196 107.542 79.9768 107.662 80.1116C107.666 80.1158 107.669 80.1198 107.673 80.1238C107.796 80.2479 107.937 80.3513 108.09 80.4312C108.006 80.4942 107.927 80.5639 107.853 80.6398L107.852 80.6403C107.756 80.7398 107.681 80.8574 107.631 80.9863C107.581 81.1124 107.557 81.2469 107.559 81.3822C107.554 81.5967 107.625 81.8062 107.76 81.9733L107.76 81.9734L107.765 81.9796C107.781 81.9979 107.797 82.0157 107.814 82.0328C107.714 82.1016 107.622 82.1811 107.539 82.2701C107.535 82.2739 107.532 82.2777 107.529 82.2816C107.341 82.5043 107.243 82.7892 107.255 83.0802C107.255 83.2889 107.311 83.4937 107.418 83.6732L107.676 83.5199L107.418 83.6732C107.526 83.8549 107.681 84.0037 107.868 84.1035L109.091 80.7582ZM109.584 78.2399C109.503 78.1996 109.413 78.1804 109.323 78.1841C109.233 78.1879 109.145 78.2144 109.068 78.2613C108.99 78.3081 108.926 78.3738 108.881 78.4521L108.988 80.0142M109.584 78.2399L109.45 78.5084C109.415 78.4906 109.375 78.4822 109.335 78.4839C109.296 78.4855 109.257 78.4972 109.223 78.5177C109.189 78.5383 109.161 78.5672 109.141 78.6016L109.14 78.6033L109.14 78.6033C109.047 78.7638 109.003 78.9485 109.015 79.1339C109.016 79.1469 109.016 79.16 109.015 79.173C109.002 79.3622 109.037 79.5514 109.115 79.7237M109.584 78.2399L109.45 78.5084C109.482 78.5242 109.509 78.5469 109.531 78.5748M109.584 78.2399C109.665 78.2802 109.734 78.3403 109.785 78.4147M109.115 79.7237C109.109 79.7166 109.103 79.7093 109.097 79.7018L108.86 79.8858L109.129 79.7537C109.124 79.7437 109.12 79.7338 109.115 79.7237ZM109.115 79.7237C109.131 79.7418 109.149 79.7585 109.168 79.7736M109.168 79.7736C109.166 79.7726 109.165 79.7716 109.163 79.7706L108.988 80.0142M109.168 79.7736C109.225 79.8134 109.296 79.8295 109.366 79.8183C109.428 79.8083 109.484 79.7772 109.526 79.7306M109.168 79.7736C109.169 79.7748 109.171 79.7761 109.172 79.7773L108.988 80.0142M108.988 80.0142L109.526 79.7306M109.526 79.7306C109.521 79.7416 109.516 79.7525 109.512 79.7634L109.785 79.8858L109.543 79.7095C109.537 79.7168 109.532 79.7239 109.526 79.7306ZM109.526 79.7306C109.61 79.5293 109.646 79.3111 109.631 79.0932C109.63 79.079 109.63 79.0647 109.631 79.0504C109.643 78.8856 109.608 78.7207 109.531 78.5748M109.526 79.7306L109.785 78.4147M109.531 78.5748C109.534 78.5782 109.536 78.5816 109.539 78.5851L109.785 78.4147M109.531 78.5748C109.528 78.5699 109.526 78.565 109.523 78.5602L109.785 78.4147M109.015 80.8088C109.015 80.8087 109.017 80.8106 109.019 80.8149C109.015 80.8111 109.014 80.8089 109.015 80.8088ZM108.665 82.5445C108.697 82.4893 108.74 82.4418 108.791 82.4048L109.636 82.4483C109.643 82.4486 109.65 82.4488 109.657 82.4486C109.817 82.4457 109.973 82.4925 110.105 82.5821C110.138 82.6171 110.163 82.6582 110.18 82.7032C110.2 82.7542 110.208 82.8088 110.203 82.8632C110.202 82.8756 110.202 82.8879 110.203 82.9003C110.206 82.9717 110.191 83.0426 110.159 83.1066C110.128 83.1692 110.082 83.2231 110.025 83.2635C109.821 83.3931 109.582 83.456 109.341 83.4433C109.33 83.4427 109.32 83.4427 109.309 83.4433C109.115 83.4539 108.923 83.3903 108.774 83.2656C108.715 83.2114 108.668 83.1451 108.637 83.0713C108.605 82.996 108.59 82.9147 108.593 82.833C108.593 82.8273 108.593 82.8216 108.593 82.8159C108.591 82.7218 108.615 82.6289 108.663 82.548L108.663 82.548L108.665 82.5445Z" fill="white" stroke="#171717" stroke-width="0.6" stroke-linejoin="round"/>
<path d="M112.588 78.5431C112.518 78.5937 112.452 78.6505 112.392 78.7128C112.412 78.7742 112.435 78.8454 112.459 78.9298L112.171 79.0138L111.908 78.8698C111.933 78.8246 111.96 78.7805 111.988 78.7378C112.008 78.708 112.029 78.6788 112.051 78.6503C112.046 78.6402 112.041 78.6303 112.037 78.6205C112.015 78.5758 111.995 78.5344 111.995 78.4949C112.206 78.3035 112.446 78.1464 112.706 78.0295L112.588 78.5431ZM112.588 78.5431C112.733 78.4392 112.908 78.3848 113.086 78.3879L112.588 78.5431ZM112.876 79.3918L112.468 79.5241C112.171 79.6106 111.902 79.7756 111.69 80.0016C111.686 80.0066 111.681 80.0118 111.677 80.0171C111.488 80.2478 111.39 80.5387 111.4 80.8359C111.391 81.0216 111.419 81.2074 111.481 81.3828C111.545 81.5631 111.644 81.7287 111.773 81.8698C111.777 81.8737 111.781 81.8776 111.785 81.8813C111.92 82.0138 112.081 82.1169 112.257 82.1841C112.431 82.2501 112.617 82.2801 112.802 82.2722C113.076 82.2748 113.345 82.2066 113.584 82.0741L113.584 82.0742L113.589 82.0717C113.673 82.0231 113.752 81.9668 113.826 81.9036C113.865 81.9493 113.909 81.9916 113.957 82.0297C114.15 82.1834 114.394 82.2584 114.64 82.24C114.797 82.2384 114.954 82.2222 115.108 82.1915L115.108 82.1915L115.112 82.1905C115.277 82.1551 115.437 82.105 115.592 82.0406C115.704 81.9941 115.777 81.8848 115.777 81.7635V81.5602C115.777 81.4763 115.742 81.3963 115.68 81.3395C115.619 81.2827 115.536 81.2543 115.452 81.2613C115.419 81.264 115.386 81.2598 115.355 81.2488C115.339 81.2433 115.324 81.2361 115.31 81.2273C115.257 81.095 115.237 80.9517 115.251 80.8094C115.252 80.7994 115.253 80.7893 115.253 80.7792V79.1824C115.264 78.9617 115.227 78.7411 115.144 78.5362C115.06 78.3286 114.93 78.1422 114.766 77.9906C114.759 77.9843 114.752 77.9784 114.744 77.9729C114.368 77.6858 113.901 77.5443 113.429 77.5744C113.138 77.5761 112.851 77.6376 112.585 77.7551L112.585 77.7551L112.583 77.7559C112.294 77.8857 112.028 78.0601 111.793 78.2726C111.731 78.3295 111.695 78.4102 111.695 78.4949C111.695 78.5994 111.736 78.6866 111.753 78.722C111.753 78.7227 111.753 78.7233 111.753 78.7239C111.763 78.7432 111.769 78.7566 111.774 78.7667C111.783 78.785 111.787 78.7925 111.79 78.8038C111.817 78.8835 111.847 78.9753 111.883 79.0978C111.917 79.2144 112.018 79.2989 112.139 79.3121C112.259 79.3252 112.376 79.2643 112.434 79.1578C112.515 79.0111 112.627 78.8844 112.763 78.7871L112.763 78.7869C112.856 78.7206 112.967 78.6859 113.081 78.6879L113.081 78.688L113.09 78.6879C113.15 78.6871 113.208 78.698 113.263 78.72C113.316 78.7409 113.364 78.7715 113.405 78.8101C113.487 78.9044 113.533 79.0249 113.535 79.1498C113.332 79.2519 113.117 79.3311 112.896 79.386C112.889 79.3877 112.882 79.3897 112.876 79.3918ZM113.288 80.2635C113.383 80.188 113.488 80.1265 113.599 80.0803V80.6722H113.599L113.599 80.6777C113.601 80.801 113.571 80.9225 113.511 81.0298C113.491 81.0499 113.468 81.0663 113.442 81.0781C113.41 81.0928 113.376 81.1002 113.341 81.0998C113.334 81.0997 113.327 81.0998 113.32 81.1002C113.298 81.1015 113.276 81.0972 113.256 81.0877C113.239 81.0797 113.224 81.0682 113.211 81.0539C113.152 80.9503 113.124 80.8309 113.134 80.7115C113.135 80.6993 113.135 80.6871 113.134 80.6749C113.131 80.5971 113.144 80.5194 113.172 80.4468C113.198 80.3786 113.238 80.3164 113.288 80.2635Z" fill="white" stroke="#171717" stroke-width="0.6" stroke-linejoin="round"/>
<path d="M117.13 78.7254H117.244L116.788 79.422L116.788 79.4224C116.145 80.4079 115.677 81.1206 115.375 81.5548C115.341 81.6051 115.322 81.6648 115.322 81.7261V81.8544C115.322 81.936 115.355 82.0141 115.414 82.0707C115.473 82.1272 115.552 82.1574 115.634 82.1542L116.451 82.1224H118.371L119.135 82.1542C119.216 82.1576 119.296 82.1275 119.355 82.071C119.414 82.0144 119.447 81.9362 119.447 81.8544V81.3623C119.447 81.1966 119.313 81.0623 119.147 81.0623C119.022 81.0623 118.898 81.0712 118.784 81.0799C118.775 81.0805 118.767 81.0811 118.758 81.0818C118.65 81.09 118.551 81.0975 118.45 81.0998C118.298 81.1033 118.147 81.1022 117.989 81.101C117.907 81.1004 117.823 81.0997 117.735 81.0997H117.572L118.645 79.4227L119.436 78.2094C119.468 78.1607 119.485 78.1037 119.485 78.0456V77.9867C119.485 77.821 119.35 77.6867 119.185 77.6867H118.452V77.6866L118.442 77.6869L117.596 77.7135H115.996C115.907 77.7135 115.822 77.7533 115.765 77.8221C115.711 77.8875 115.687 77.9726 115.699 78.0563C115.696 78.0819 115.695 78.1078 115.698 78.1336C115.701 78.1569 115.701 78.1804 115.698 78.2036C115.696 78.2276 115.696 78.2517 115.699 78.2757C115.701 78.2952 115.701 78.3149 115.699 78.3344C115.697 78.3468 115.696 78.3594 115.696 78.3719V78.4575C115.696 78.6232 115.831 78.7575 115.996 78.7575H116.087V78.7578L116.101 78.7572C116.574 78.7358 116.916 78.7254 117.13 78.7254Z" fill="white" stroke="#171717" stroke-width="0.6" stroke-linejoin="round"/>
<path d="M121.367 78.0051C121.372 77.9225 121.343 77.8415 121.286 77.7812C121.23 77.7209 121.15 77.6867 121.068 77.6867H119.864C119.698 77.6867 119.564 77.821 119.564 77.9867C119.564 78.2075 119.577 78.4392 119.59 78.652C119.597 78.7754 119.603 78.8925 119.607 78.9972C119.614 79.2016 119.612 79.4004 119.609 79.6053C119.608 79.7109 119.607 79.8181 119.607 79.9286V80.7845H119.607L119.607 80.7892C119.612 81.1353 119.598 81.4813 119.565 81.8258C119.557 81.9153 119.589 82.004 119.653 82.0674C119.717 82.1307 119.805 82.1621 119.895 82.1529L120.19 82.1224H120.747L121.036 82.1528C121.121 82.1617 121.205 82.1343 121.268 82.0774C121.332 82.0205 121.368 81.9395 121.368 81.8544C121.368 81.5752 121.353 81.3083 121.34 81.0795C121.334 80.9675 121.328 80.8646 121.325 80.7738C121.318 80.5787 121.32 80.3922 121.322 80.2058C121.324 80.1119 121.325 80.0181 121.325 79.9233V78.9817C121.325 78.6893 121.343 78.3913 121.363 78.0638C121.365 78.0443 121.366 78.0248 121.367 78.0051Z" fill="white" stroke="#171717" stroke-width="0.6" stroke-linejoin="round"/>
<path d="M119.605 76.8736C119.655 76.9934 119.731 77.1013 119.825 77.1903C119.909 77.2754 120.009 77.3425 120.12 77.3876C120.227 77.4311 120.341 77.4531 120.456 77.4524C120.57 77.4624 120.685 77.4509 120.795 77.4184C120.912 77.3839 121.02 77.3265 121.115 77.2496C121.209 77.1727 121.287 77.0778 121.344 76.9704C121.401 76.863 121.436 76.7454 121.447 76.6243L121.148 76.5969L121.447 76.6243C121.458 76.5032 121.445 76.3811 121.409 76.2651C121.372 76.1491 121.313 76.0416 121.234 75.9489L121.008 76.1404L121.234 75.9489C121.155 75.8561 121.059 75.78 120.951 75.7249C120.842 75.6698 120.724 75.6368 120.603 75.6279C120.597 75.6275 120.591 75.6273 120.585 75.6272C120.553 75.6145 120.519 75.6072 120.484 75.6059C120.243 75.5973 120.008 75.684 119.829 75.8473C119.651 76.0106 119.545 76.2375 119.532 76.4789L119.532 76.4789L119.532 76.486C119.528 76.6189 119.553 76.7511 119.605 76.8736Z" fill="white" stroke="#171717" stroke-width="0.6" stroke-linejoin="round"/>
<path d="M123.593 77.7959C123.552 77.8192 123.513 77.844 123.474 77.8701C123.424 77.7739 123.323 77.7081 123.207 77.7081H122.068C121.985 77.7081 121.905 77.7426 121.849 77.8032C121.792 77.8639 121.763 77.9454 121.769 78.0283C121.79 78.3422 121.806 78.6597 121.816 78.9809C121.827 79.2988 121.827 79.6186 121.816 79.9402L121.816 79.9402V79.95V80.8701H121.816L121.816 80.8764C121.823 81.2023 121.807 81.5282 121.77 81.8519C121.759 81.9423 121.79 82.0326 121.854 82.0973C121.918 82.1621 122.008 82.1943 122.099 82.185L122.394 82.1544H122.897L123.181 82.1848C123.265 82.1939 123.35 82.1666 123.413 82.1097C123.477 82.0528 123.513 81.9717 123.513 81.8865C123.513 81.465 123.502 81.0871 123.481 80.7534V79.9126C123.481 79.9063 123.48 79.9 123.48 79.8938C123.461 79.5913 123.508 79.2884 123.616 79.0056C123.637 78.9651 123.669 78.9315 123.709 78.9089C123.751 78.885 123.799 78.8746 123.848 78.8792C123.871 78.8814 123.895 78.8809 123.918 78.8776C123.964 78.8711 124.011 78.8783 124.053 78.8984C124.086 78.9147 124.116 78.9388 124.138 78.9686C124.24 79.2857 124.279 79.6199 124.251 79.9521C124.25 79.9603 124.25 79.9685 124.25 79.9768V81.0467H124.25L124.25 81.0573C124.259 81.3152 124.246 81.5733 124.21 81.8289C124.197 81.9201 124.227 82.0122 124.291 82.0786C124.355 82.145 124.446 82.1783 124.538 82.169L124.838 82.1384H125.375L125.681 82.169C125.765 82.1774 125.849 82.1498 125.912 82.0929C125.975 82.0361 126.011 81.9553 126.011 81.8705C126.011 81.7523 126.002 81.6342 125.992 81.5245C125.991 81.5042 125.989 81.4842 125.987 81.4645C125.979 81.3743 125.972 81.2897 125.968 81.2036C125.965 81.1548 125.963 81.1059 125.96 81.0568C125.951 80.8729 125.941 80.6867 125.941 80.4957V79.4847C125.952 79.1974 125.93 78.9098 125.877 78.6271L125.878 78.6271L125.876 78.619C125.834 78.4266 125.746 78.2474 125.619 78.0974L125.619 78.0974L125.615 78.0934C125.47 77.9285 125.288 77.8002 125.084 77.7188C124.879 77.6367 124.66 77.5949 124.439 77.5958C124.15 77.592 123.865 77.6582 123.607 77.7885C123.602 77.7909 123.598 77.7933 123.593 77.7959Z" fill="white" stroke="#171717" stroke-width="0.6" stroke-linejoin="round"/>
<path d="M129.408 81.3302C129.236 81.3941 129.055 81.4267 128.873 81.4265L126.979 81.3944C127.176 81.5817 127.41 81.726 127.666 81.8181C127.922 81.9102 128.195 81.9481 128.466 81.9293C128.717 81.9296 128.967 81.8972 129.21 81.833C129.423 81.7754 129.625 81.6832 129.809 81.5602L129.853 81.4451C129.938 81.3937 130.019 81.3362 130.096 81.273L129.975 81.1266L129.985 81.1002L129.905 81.0413C129.897 81.0477 129.889 81.0541 129.882 81.0603L129.705 80.9927L129.611 81.2376C129.545 81.2726 129.477 81.3036 129.408 81.3302ZM129.408 81.3302L129.301 81.0498C129.301 81.0497 129.301 81.0496 129.302 81.0495M129.408 81.3302L129.303 81.0491C129.302 81.0492 129.302 81.0494 129.302 81.0495M129.302 81.0495C129.165 81.1006 129.019 81.1266 128.873 81.1265L128.873 81.1263L128.863 81.1266C128.737 81.1306 128.612 81.1051 128.497 81.0522L128.371 81.3246L128.497 81.0522C128.384 81.0002 128.285 80.923 128.207 80.8266C128.071 80.6393 127.983 80.4228 127.95 80.1965H130.119C130.265 80.1965 130.39 80.0908 130.415 79.9465C130.423 79.8961 130.425 79.8448 130.421 79.794C130.424 79.7413 130.424 79.6884 130.42 79.6357C130.451 79.0787 130.263 78.5313 129.896 78.1105C129.888 78.1019 129.88 78.0938 129.872 78.0861C129.67 77.9021 129.433 77.7621 129.174 77.6751C128.922 77.5904 128.655 77.5578 128.391 77.5791C128.096 77.567 127.802 77.6144 127.526 77.7186C127.243 77.8252 126.986 77.989 126.77 78.1998L126.769 78.1996L126.761 78.208C126.552 78.428 126.39 78.6878 126.284 78.9721C126.18 79.2513 126.132 79.5485 126.144 79.8463C126.11 80.4861 126.329 81.1137 126.754 81.5934C126.76 81.5998 126.766 81.606 126.772 81.6119C127 81.8279 127.27 81.9942 127.565 82.1004C127.857 82.2054 128.167 82.2492 128.476 82.2293C128.75 82.2287 129.022 82.193 129.286 82.1231L129.286 82.1231L129.288 82.1226C129.533 82.0564 129.765 81.9506 129.976 81.8094C130.027 81.775 130.067 81.7255 130.089 81.6677L130.265 81.2076C130.314 81.0813 130.272 80.9382 130.163 80.8582L130.083 80.7994C129.972 80.7183 129.82 80.7225 129.715 80.8096C129.591 80.9114 129.451 80.9924 129.302 81.0495ZM128.568 78.6428C128.653 78.8281 128.698 79.0293 128.699 79.2327H127.94C127.957 79.0438 128.009 78.8591 128.095 78.6885C128.122 78.6406 128.161 78.6006 128.208 78.5723C128.256 78.5436 128.31 78.5281 128.366 78.5274C128.408 78.5275 128.449 78.5388 128.485 78.5601C128.52 78.5803 128.548 78.6087 128.568 78.6428Z" fill="white" stroke="#171717" stroke-width="0.6" stroke-linejoin="round"/>
<path d="M96.657 53.2679C97.388 52.4462 98.0168 51.5398 98.5301 50.5686C98.8063 51.0281 99.0648 51.4982 99.3048 51.9777C99.3476 52.0631 99.4284 52.123 99.5225 52.1391C99.6166 52.1552 99.7127 52.1256 99.7814 52.0593L100.851 51.0268C100.967 50.9152 100.974 50.7322 100.867 50.6119C100.365 50.0454 99.8005 49.5377 99.1844 49.0985C99.3729 48.6349 99.5254 48.1574 99.6404 47.6701C99.659 47.5913 99.6449 47.5083 99.6014 47.44C99.5579 47.3718 99.4887 47.3239 99.4094 47.3075L97.8634 46.9865C97.7837 46.97 97.7007 46.9865 97.6335 47.0323C97.5662 47.0781 97.5205 47.1493 97.5067 47.2295C97.19 49.0749 96.5574 50.8519 95.6367 52.4823C95.565 52.6092 95.595 52.7693 95.7077 52.8618L96.2427 53.3004C96.3672 53.4025 96.55 53.3882 96.657 53.2679Z" fill="white" stroke="#171717" stroke-width="0.6" stroke-linejoin="round"/>
<path d="M110.599 47.4053C110.674 47.3764 110.735 47.3181 110.767 47.2437C110.799 47.1692 110.8 47.085 110.769 47.0102C110.275 45.8193 109.602 44.7107 108.774 43.7227C108.685 43.6162 108.534 43.5849 108.41 43.647L107.8 43.952C107.665 44.0197 107.601 44.178 107.652 44.3208C108.054 45.4531 108.381 46.6109 108.631 47.7865C108.649 47.8723 108.704 47.9458 108.781 47.9878C108.858 48.0297 108.949 48.0358 109.031 48.0045L110.599 47.4053Z" fill="white" stroke="#171717" stroke-width="0.6" stroke-linejoin="round"/>
<path d="M104.746 46.2478C104.746 46.0821 104.612 45.9478 104.446 45.9478H101.638L102.064 45.3524C102.111 45.2858 102.13 45.2028 102.115 45.1224C102.1 45.0421 102.052 44.9714 101.984 44.9267C100.982 44.2728 99.8856 43.7781 98.7326 43.4603C98.5896 43.4209 98.4392 43.4919 98.3788 43.6275L98.1167 44.2159C98.0611 44.3408 98.0969 44.4875 98.2039 44.5727C98.745 45.0036 99.2646 45.4607 99.7606 45.9424H96.2349C96.0692 45.9424 95.9349 46.0767 95.9349 46.2424V47.0984C95.9349 47.264 96.0692 47.3984 96.2349 47.3984H104.446C104.612 47.3984 104.746 47.264 104.746 47.0984V46.2478Z" fill="white" stroke="#171717" stroke-width="0.6" stroke-linejoin="round"/>
<path d="M96.2777 60.747C97.4501 59.894 98.4959 58.8818 99.3854 57.7407V61.815C99.3854 61.9807 99.5197 62.115 99.6854 62.115H101.322C101.488 62.115 101.622 61.9807 101.622 61.815V57.277C102.099 57.851 102.553 58.4443 102.981 59.0556C103.034 59.1305 103.117 59.1774 103.209 59.1829C103.3 59.1884 103.389 59.1519 103.45 59.0839L104.579 57.8267C104.632 57.7669 104.66 57.6881 104.655 57.6079C104.65 57.5276 104.613 57.4528 104.553 57.4C103.653 56.6174 102.671 55.9369 101.622 55.3706V55.1445H104.484C104.55 55.1445 104.611 55.1233 104.66 55.0874V61.7241C104.66 61.8897 104.794 62.0241 104.96 62.0241H106.634C106.8 62.0241 106.934 61.8897 106.934 61.7241V60.5529H113.054C113.22 60.5529 113.354 60.4186 113.354 60.2529V59.3756C113.354 59.2099 113.22 59.0756 113.054 59.0756H110.438V56.3803H112.348C112.513 56.3803 112.648 56.246 112.648 56.0803V55.2243C112.648 55.0587 112.513 54.9243 112.348 54.9243H110.438V52.55H112.332C112.497 52.55 112.632 52.4157 112.632 52.25V51.3941C112.632 51.2284 112.497 51.0941 112.332 51.0941H110.438V49.1423H112.813C112.979 49.1423 113.113 49.008 113.113 48.8423V47.981C113.113 47.8153 112.979 47.681 112.813 47.681H106.94C107.233 46.5969 107.429 45.4887 107.527 44.3694C107.54 44.2168 107.437 44.0787 107.286 44.049L105.553 43.7066C105.47 43.6903 105.384 43.7096 105.317 43.7598C105.249 43.81 105.205 43.8865 105.197 43.9705C104.936 46.5255 104.705 48.4433 104.178 50.2144C103.807 49.8539 103.404 49.5276 102.973 49.2397C103.164 48.7603 103.316 48.2666 103.429 47.7631C103.464 47.6037 103.366 47.4451 103.207 47.4062L101.661 47.0264C101.576 47.0055 101.487 47.0227 101.415 47.0736C101.344 47.1244 101.299 47.2037 101.291 47.2908C101.147 48.8896 100.714 50.4484 100.013 51.8911H99.7068C99.5411 51.8911 99.4068 52.0255 99.4068 52.1911V53.6832H96.1172C95.9515 53.6832 95.8172 53.8176 95.8172 53.9832V54.8445C95.8172 55.0102 95.9515 55.1445 96.1172 55.1445H98.7945C97.9738 56.8627 96.8556 58.4236 95.4905 59.7546C95.3826 59.8598 95.3695 60.0288 95.46 60.1494L95.8612 60.6844C95.9596 60.8155 96.1451 60.8434 96.2777 60.747ZM104.484 53.6832H101.622V52.1911C101.622 52.1037 101.585 52.025 101.525 51.9702C101.798 51.5696 102.048 51.1542 102.275 50.7261C102.557 51.1593 102.812 51.6101 103.037 52.0757C103.078 52.161 103.157 52.2219 103.251 52.2397C103.311 52.2512 103.372 52.244 103.426 52.2203C103.397 52.2828 103.367 52.3452 103.337 52.4073C103.274 52.5373 103.312 52.694 103.428 52.78L103.963 53.1759C104.095 53.2735 104.281 53.247 104.38 53.1163C104.476 52.9899 104.569 52.8576 104.66 52.7228V53.7403C104.611 53.7044 104.55 53.6832 104.484 53.6832ZM106.872 51.0941L106.88 49.1423H108.121V51.0941H106.872ZM106.871 54.9243L106.88 52.55H108.121V54.9243H106.871ZM106.871 59.0756L106.88 56.3803H108.121V59.0756H106.871Z" fill="white" stroke="#171717" stroke-width="0.6" stroke-linejoin="round"/>
<path d="M131.113 54.6058C131.167 54.5455 131.194 54.466 131.189 54.3853C131.183 54.3046 131.145 54.2296 131.084 54.1772C130.042 53.2922 128.873 52.5692 127.616 52.0329C127.481 51.9754 127.324 52.0237 127.245 52.1471L126.903 52.6821C126.826 52.8023 126.844 52.9601 126.947 53.0593C127.86 53.9432 128.724 54.8763 129.535 55.8545C129.591 55.9217 129.673 55.9613 129.761 55.963C129.848 55.9646 129.932 55.928 129.99 55.8629L131.113 54.6058Z" fill="white" stroke="#171717" stroke-width="0.6" stroke-linejoin="round"/>
<path d="M133.281 51.0941H129.825V48.3987H133.527C133.692 48.3987 133.827 48.2644 133.827 48.0987V47.2374C133.827 47.0718 133.692 46.9374 133.527 46.9374H129.825V44.0384C129.825 43.8727 129.691 43.7384 129.525 43.7384H127.813C127.648 43.7384 127.513 43.8727 127.513 44.0384V46.9374H123.887C123.721 46.9374 123.587 47.0718 123.587 47.2374V48.0987C123.587 48.2644 123.721 48.3987 123.887 48.3987H127.513V51.0941H124.288C124.122 51.0941 123.988 51.2284 123.988 51.3941V52.25C123.988 52.4157 124.122 52.55 124.288 52.55H133.281C133.446 52.55 133.581 52.4157 133.581 52.25V51.3941C133.581 51.2284 133.446 51.0941 133.281 51.0941Z" fill="white" stroke="#171717" stroke-width="0.6" stroke-linejoin="round"/>
<path d="M134.351 58.6919C134.496 58.6194 134.557 58.4443 134.489 58.297C133.832 56.8834 132.943 55.5898 131.859 54.47C131.758 54.3658 131.597 54.3487 131.477 54.4294L130.942 54.7879C130.818 54.8709 130.774 55.0324 130.838 55.1669C131.472 56.488 132.003 57.8561 132.426 59.2589C132.452 59.3436 132.513 59.4126 132.595 59.4477C132.676 59.4828 132.768 59.4802 132.847 59.4408L134.351 58.6919Z" fill="white" stroke="#171717" stroke-width="0.6" stroke-linejoin="round"/>
<path d="M131.472 56.8925C131.436 56.7631 131.318 56.6736 131.184 56.6736H130.499C130.333 56.6736 130.199 56.808 130.199 56.9736C130.199 57.6111 130.199 58.0919 130.178 58.4611C130.157 58.8365 130.115 59.0566 130.054 59.1914C130.004 59.3006 129.943 59.3542 129.826 59.392C129.683 59.4383 129.47 59.4554 129.124 59.4554C128.832 59.4554 128.618 59.4402 128.46 59.4103C128.303 59.3804 128.223 59.3396 128.18 59.3043C128.107 59.2452 128.054 59.1329 128.054 58.7443V54.0795C128.054 53.9138 127.92 53.7795 127.754 53.7795H126.075C125.909 53.7795 125.775 53.9138 125.775 54.0795V59.0493C125.775 59.5666 125.798 59.9984 125.887 60.347C125.979 60.7072 126.147 60.996 126.441 61.2017C126.723 61.3985 127.09 61.4967 127.535 61.5505C127.982 61.6047 128.545 61.6175 129.242 61.6175C129.997 61.6175 130.592 61.5411 131.037 61.3548C131.499 61.1612 131.799 60.8483 131.941 60.4091C132.075 59.9921 132.057 59.489 131.964 58.9217C131.87 58.3496 131.691 57.6728 131.472 56.8925Z" fill="white" stroke="#171717" stroke-width="0.6" stroke-linejoin="round"/>
<path d="M123.786 47.2374C123.786 47.0718 123.651 46.9374 123.486 46.9374H121.609L121.898 46.7158C121.963 46.6659 122.004 46.5916 122.013 46.5101C122.022 46.4287 121.997 46.3472 121.944 46.2845C121.078 45.2569 120.07 44.3586 118.949 43.617C118.83 43.5383 118.672 43.5543 118.571 43.6551L118.095 44.1312C117.992 44.2342 117.978 44.3963 118.062 44.5155C118.433 45.0449 119.005 45.9896 119.557 46.9374H117.141C116.975 46.9374 116.841 47.0718 116.841 47.2374V48.0987C116.841 48.2644 116.975 48.3987 117.141 48.3987H123.486C123.651 48.3987 123.786 48.2644 123.786 48.0987V47.2374Z" fill="white" stroke="#171717" stroke-width="0.6" stroke-linejoin="round"/>
<path d="M121.131 61.4381C121.133 61.6026 121.267 61.7352 121.431 61.7352H122.865C123.031 61.7352 123.165 61.6009 123.165 61.4352V59.727L123.964 60.3223C124.097 60.4208 124.284 60.3941 124.383 60.2626C125.312 59.0327 125.758 57.2831 125.872 55.241C125.88 55.0919 125.777 54.9594 125.631 54.9302L124.962 54.7964C124.883 54.7806 124.801 54.7974 124.734 54.843C124.667 54.8886 124.622 54.9593 124.608 55.0389C124.406 56.1943 123.907 57.2727 123.165 58.1707V55.1922C123.165 55.0265 123.031 54.8922 122.865 54.8922H117.74C117.575 54.8922 117.44 55.0265 117.44 55.1922V61.724C117.44 61.8897 117.575 62.024 117.74 62.024H119.227C119.393 62.024 119.527 61.8897 119.527 61.724V60.6332H121.124L121.131 61.4381ZM121.131 59.1719H119.56V56.3054H121.131V59.1719Z" fill="white" stroke="#171717" stroke-width="0.6" stroke-linejoin="round"/>
<path d="M123.347 52.5175C123.347 52.3518 123.213 52.2175 123.047 52.2175H117.692C117.526 52.2175 117.392 52.3518 117.392 52.5175V53.3199C117.392 53.4856 117.526 53.6199 117.692 53.6199H123.047C123.213 53.6199 123.347 53.4856 123.347 53.3199V52.5175Z" fill="white" stroke="#171717" stroke-width="0.6" stroke-linejoin="round"/>
<path d="M123.347 49.8855C123.347 49.7198 123.213 49.5855 123.047 49.5855H117.692C117.526 49.5855 117.392 49.7198 117.392 49.8855V50.6879C117.392 50.8536 117.526 50.9879 117.692 50.9879H123.047C123.213 50.9879 123.347 50.8536 123.347 50.6879V49.8855Z" fill="white" stroke="#171717" stroke-width="0.6" stroke-linejoin="round"/>
<path d="M89.2148 60.3314L89.2148 60.3315C89.6571 60.571 90.0561 60.8829 90.3954 61.2542L90.4029 61.2624L90.4027 61.2626C91.7519 62.8536 93.0002 64.8497 92.0073 67.2164C91.8926 67.4909 91.7686 67.6712 91.5851 67.8156C91.4627 67.9119 91.3102 67.9915 91.1503 68.0749C91.1028 68.0997 91.0546 68.1248 91.0064 68.1508C90.8564 68.2317 90.7606 68.3273 90.6376 68.4501C90.604 68.4836 90.5684 68.5191 90.529 68.557C90.3489 68.7303 90.1245 68.9083 89.7508 68.9738C89.7503 68.9739 89.7498 68.9739 89.7493 68.974L89.6978 68.6785C88.9114 68.8238 88.1099 68.8705 87.3119 68.8176L89.2148 60.3314ZM89.2148 60.3314L89.2095 60.3287L89.0625 60.2528C88.7984 60.0666 88.5117 59.9147 88.2093 59.801C88.1988 59.797 88.1881 59.7937 88.1772 59.7909C87.9234 59.7267 87.6672 59.7112 87.4409 59.6986C87.4322 59.6981 87.4235 59.6977 87.4149 59.6972C87.1904 59.6847 86.9953 59.6739 86.8084 59.6334L86.8075 59.6332C86.6449 59.5985 86.4802 59.5617 86.3141 59.5246C85.8567 59.4224 85.3881 59.3177 84.9178 59.2457C84.0875 59.0887 83.2327 59.1176 82.4149 59.3303C81.9867 59.4299 81.5914 59.6383 81.2674 59.9356C81.2503 59.9513 81.235 59.9689 81.222 59.9882C81.0385 60.2585 80.9278 60.5713 80.9001 60.8965C80.834 61.1801 80.8007 61.4705 80.8011 61.7618L80.8009 61.7618L80.8013 61.7722C80.8398 62.8524 81.1607 63.9037 81.7321 64.8212C82.0137 65.3043 82.3361 65.7625 82.6958 66.1906C83.0315 66.6358 83.4209 67.0378 83.8552 67.3875C83.8679 67.3978 83.8814 67.407 83.8957 67.415C84.234 67.6063 84.5224 67.8746 84.7375 68.1983C84.7529 68.2233 84.7683 68.249 84.7838 68.2749C84.8426 68.373 84.9034 68.4745 84.9752 68.5554C85.0837 68.6776 85.2147 68.7588 85.3997 68.844C85.413 68.8501 85.4268 68.8553 85.4408 68.8594C86.0457 69.0366 86.6734 69.1236 87.3036 69.1177L89.2148 60.3314Z" fill="white" stroke="#171717" stroke-width="0.6" stroke-linejoin="round"/>
</g>
<path d="M140.333 2.83643L20.3334 122.836" stroke="#D60C18" stroke-width="3" stroke-linecap="square" stroke-linejoin="round"/>
<defs>
<clipPath id="clip0_737_2795">
<rect width="160" height="58.8452" fill="white" transform="translate(0.333374 32.8364)"/>
</clipPath>
</defs>
</svg>
