<svg width="161" height="125" viewBox="0 0 161 125" fill="none" xmlns="http://www.w3.org/2000/svg">
<g clip-path="url(#clip0_737_2788)">
<path d="M160.667 32.8364H0.666748V91.6816H160.667V32.8364Z" fill="#6EB92C"/>
<path d="M17.9994 49.5592C18.8741 50.1162 19.9323 50.3082 20.947 50.0941C21.9153 49.8587 22.8782 49.5913 23.8357 49.3184C25.5155 48.837 27.1846 48.3181 28.875 47.8633C29.7149 47.6387 30.5601 47.4247 31.4107 47.2375C31.796 47.177 32.1754 47.084 32.5448 46.9593C32.9247 46.8095 33.2617 46.5688 33.6147 46.4243C34.1497 46.1729 34.6847 45.9429 35.2571 45.7182C36.8619 45.0655 40.2963 44.2577 39.4458 41.7862C39.1783 40.9892 38.3759 40.6361 37.6751 40.267C36.9352 39.9444 36.1184 39.8404 35.3213 39.9674C34.5471 39.9766 33.7966 40.2356 33.1814 40.7056C32.3469 41.7488 30.9614 42.0644 29.9182 42.899C29.5491 43.1771 29.0462 43.1825 28.6771 43.466C28.4952 43.6051 28.4364 43.7228 28.217 43.787C28.0257 43.8145 27.8326 43.8288 27.6393 43.8298C27.2755 43.8779 26.9171 43.9261 26.5694 43.9849C25.5327 44.1218 24.5195 44.3989 23.5576 44.8087C23.0763 45.044 22.6147 45.3178 22.1774 45.6272C21.7548 45.9108 21.3535 45.7984 20.8721 45.8305C20.3906 45.8626 20.0001 45.9108 19.5614 45.975L18.2562 46.1943L17.5982 46.2906C17.3757 46.2749 17.1523 46.3021 16.9402 46.3708C16.7818 46.5095 16.6758 46.6982 16.6398 46.9056C16.6038 47.1129 16.6399 47.3264 16.7422 47.5103C17.122 48.302 17.1755 49.0777 17.9994 49.5592Z" fill="white"/>
<path d="M83.4137 48.4143C84.2001 48.2057 84.8795 48.0292 85.2968 47.2695C85.4252 47.0342 85.5643 46.7988 85.6819 46.558C85.9448 46.0886 86.0709 45.5548 86.0457 45.0174C85.8423 44.597 85.5182 44.2469 85.1149 44.0117C84.354 43.6378 83.5373 43.3903 82.6969 43.2788C81.7233 43.0701 80.7069 42.8294 79.7225 42.701C79.1398 42.6329 78.5494 42.6783 77.9839 42.8348C76.8646 43.1334 75.7729 43.5271 74.7207 44.0117C73.5117 44.5466 72.0459 44.2256 70.9172 44.9639C70.4291 45.1935 69.9035 45.3331 69.3658 45.3758C68.6971 45.5309 68.0658 45.7984 67.4132 46.0124C66.2951 46.3708 65.1771 46.7185 64.043 47.0288C63.2352 47.2481 62.3953 47.0288 61.5929 47.414C61.2815 47.64 60.9523 47.8404 60.6086 48.0131C60.2501 48.1362 59.8864 48.302 59.5386 48.425C58.2548 48.8744 56.8639 49.1847 55.5479 49.5324C53.2155 50.3348 50.6102 49.9871 48.2136 50.4365C47.5182 50.613 46.7906 50.7147 46.2717 51.271C46.1006 52.0948 46.6997 52.4105 47.2347 52.801C47.7696 53.1915 48.235 53.9565 48.877 54.3631C49.4566 54.6836 50.0634 54.9522 50.6905 55.1655C52.0921 55.7325 53.4081 56.4761 54.9166 56.7704C55.7458 56.9308 57.447 57.1288 58.2013 56.6259C59.0893 56.0321 60.0897 55.6202 60.9509 54.9783C61.3521 54.6787 61.6731 54.2882 62.085 54.0046C62.5494 53.7494 62.9994 53.469 63.4331 53.1648C63.9651 52.6222 64.5595 52.1446 65.2038 51.7418C66.033 51.6027 66.8087 50.6719 67.6325 51.255C68.0284 51.4368 67.8412 51.7899 67.8626 52.1483C67.884 52.5068 68.1461 52.9401 68.1461 53.368C68.1338 53.7815 68.0673 54.1916 67.9482 54.5877V55.2511C68.3601 63.2059 67.67 70.7648 66.9745 78.7891C66.6536 79.7788 67.0441 80.6829 67.2688 81.6405C67.2997 82.0208 67.3825 82.3952 67.5148 82.7532C67.9045 83.4419 68.4889 84.0002 69.1946 84.358C70.6122 84.8288 72.5969 85.0642 73.715 83.8231C74.8544 83.2881 75.2075 82.2182 75.3733 81.0467C75.5346 80.0081 75.64 78.9617 75.689 77.9118C75.6879 77.0827 75.5616 76.2585 75.3145 75.4671C75.2182 75.0551 75.1915 74.6325 75.0952 74.2206C74.9347 73.568 74.726 72.9153 74.6137 72.252C74.1281 69.0796 73.8849 65.8749 73.8862 62.6656C73.9557 60.5257 73.3994 57.851 73.1212 56C72.4953 54.6091 73.3673 53.2182 72.7039 51.8274C72.4097 51.1373 72.5381 50.292 72.5327 49.5645C72.5327 48.9439 72.9607 48.7139 73.4636 48.4464C73.6521 48.3451 73.8312 48.2269 73.9985 48.0934C74.1824 47.971 74.3873 47.884 74.603 47.8366C74.8063 47.767 75.0096 47.7082 75.2182 47.6547C76.7161 47.2695 78.4012 47.0235 79.7814 47.9061C80.1372 48.1829 80.5473 48.3815 80.985 48.4892C81.7884 48.6652 82.6228 48.6394 83.4137 48.4143Z" fill="white"/>
<path d="M56.3289 78.4682C56.0226 78.1945 55.6829 77.9608 55.3178 77.7727C54.9005 77.6122 54.4405 77.5855 54.0179 77.4357C52.944 77.0179 51.921 76.4795 50.9686 75.8308C50.7657 75.6706 50.5512 75.5258 50.3267 75.3975C50.1048 75.3386 49.8768 75.3063 49.6473 75.3012C49.214 75.2103 48.9572 74.8091 48.5774 74.6111C48.4008 74.5148 48.1708 74.4828 48.0424 74.3223C47.6484 73.986 47.209 73.7069 46.7371 73.4931C46.3092 73.2042 45.8384 73.1133 45.3997 72.8618C45.0242 72.6264 44.6666 72.3635 44.3298 72.0755C43.7216 71.4603 43.0407 70.9213 42.3023 70.4706C39.7024 69.2669 37.9317 66.2498 36.0005 64.2651C34.7488 63.1203 33.1546 61.5261 33.1867 59.5414C33.7216 58.295 35.2356 57.8777 36.3483 57.2839C37.7392 56.2461 39.7185 55.679 40.5156 54.0207C40.6552 53.7181 40.719 53.386 40.7013 53.0532C40.6835 52.7204 40.5849 52.397 40.4139 52.1109C39.9592 51.1694 38.8091 51.2068 37.9103 50.8591C37.352 50.8103 36.7895 50.8758 36.2573 51.0517C35.3751 51.386 34.5718 51.8996 33.8982 52.5603C33.5772 52.8491 33.2937 53.2129 32.9567 53.4857C32.5935 53.7111 32.196 53.8756 31.7797 53.9725C31.576 54.0817 31.3423 54.122 31.1138 54.0872C30.8852 54.0525 30.6741 53.9447 30.5119 53.78C30.1767 52.8523 29.6964 51.9838 29.0889 51.2068C28.8884 51.1012 28.6678 51.0392 28.4416 51.0249C28.2276 50.9714 28.0939 50.8003 27.9067 50.7468C27.591 50.6558 27.1791 50.8805 26.8368 50.8805C26.4169 50.8286 25.9912 50.8522 25.5796 50.95C25.1005 51.142 24.6904 51.4738 24.4027 51.9023C24.0817 52.3784 24.2208 52.7368 24.1566 53.2664C24.1192 53.6248 24.0336 53.9725 23.964 54.3363C23.8789 54.687 23.8305 55.0455 23.8196 55.4062C23.8686 55.734 23.9419 56.0576 24.0389 56.3745C24.066 56.8463 23.9727 57.3172 23.7678 57.7429C23.5628 58.1687 23.253 58.5354 22.8674 58.8085C22.52 59.1043 22.1436 59.3642 21.744 59.5842C21.2786 59.841 20.749 59.9052 20.2675 60.1192C19.8251 60.3328 19.3995 60.5796 18.9943 60.8574C18.5824 61.1303 18.1758 61.3924 17.7425 61.6438C17.3092 61.8952 16.7903 61.9541 16.3623 62.1788C15.5973 62.5586 14.6933 62.6281 13.9283 62.9438C13.0937 63.1149 11.6387 62.8047 11.2535 63.8425C11.3972 64.7676 11.8363 65.6215 12.5053 66.2765C12.9546 67.2822 14.276 67.63 15.1801 68.2933C16.5335 68.7427 17.8923 68.0847 19.1762 68.1863C19.663 69.9945 19.5239 71.8668 18.2721 73.1882C18.0407 73.8992 17.6917 74.5665 17.2396 75.1621C17.0158 75.4493 16.7727 75.721 16.5121 75.9753C16.2767 76.2 16.1858 76.5102 15.9504 76.7456C15.6913 77.0667 15.395 77.3558 15.0677 77.6069C14.5863 77.8851 14.4151 77.532 14.0353 77.2966C13.7976 77.1572 13.5394 77.0561 13.2703 76.997C12.7392 76.8844 12.1888 76.9009 11.6654 77.0452C11.295 77.2221 10.9926 77.5151 10.8041 77.8797C10.5227 78.149 10.3352 78.5016 10.2692 78.8854C10.3134 79.1247 10.3742 79.3607 10.4511 79.5916C10.5527 80.0891 10.3655 80.394 10.7078 80.8541C10.9753 81.2072 10.9004 81.3516 10.9593 81.7742C11.0019 81.9691 11.0879 82.1519 11.2107 82.3092C11.4412 82.5976 11.7134 82.8501 12.0185 83.0581C12.2788 83.2524 12.5651 83.409 12.8691 83.5235C13.1649 83.5736 13.4577 83.6397 13.7464 83.7214C14.269 84.0234 14.8656 84.1735 15.4689 84.1548C16.4854 84.1066 17.352 83.6786 18.3042 83.3737C18.7613 83.2656 19.2046 83.1059 19.6255 82.8976C20.0103 82.6392 20.3687 82.3436 20.6955 82.0149C21.1395 81.6244 21.5674 81.2178 21.974 80.7899C22.7081 80.0367 23.3724 79.2184 23.9587 78.3451C24.2544 77.914 24.5242 77.4657 24.7665 77.0024C24.9858 76.5905 25.0874 76.1465 25.3014 75.7292C25.4031 75.4992 25.5582 75.2959 25.6545 75.0659C25.8514 74.6445 26.0142 74.208 26.1413 73.7606C26.2325 73.3593 26.3821 72.9736 26.5853 72.6158C26.8723 71.9359 27.0423 71.2124 27.0882 70.4759C27.147 70.1496 27.2701 69.834 27.3289 69.5077C27.3878 69.1813 27.3771 68.7106 27.4627 68.3201C27.594 67.7479 27.8278 67.2042 28.1527 66.7152C28.9472 66.8663 29.6515 67.3211 30.116 67.983C30.3877 68.2921 30.6789 68.5834 30.988 68.855C31.3518 69.1653 31.5925 69.5879 31.9563 69.8875C33.0262 70.7327 33.7591 71.9899 34.5241 73.0972C35.4709 74.4453 36.3697 75.8255 37.3112 77.1789C38.2527 78.5324 39.0658 79.8002 40.323 80.7578C41.2542 81.5645 42.2371 82.3097 43.2653 82.9886C44.0302 83.4272 45.0199 83.2988 45.8651 83.3149C47.4102 83.3096 48.9535 83.2131 50.4872 83.026C51.2468 82.9458 52.0118 82.8655 52.7714 82.812C53.1293 82.8227 53.4873 82.8012 53.8413 82.7478C54.4833 82.6783 55.1413 82.3841 55.7779 82.2824C56.4145 82.1808 57.1902 82.0524 57.6181 81.5281C57.7924 81.3173 57.9155 81.0689 57.9776 80.8026C58.0398 80.5362 58.0395 80.259 57.9765 79.9928C57.7144 79.2546 56.9173 78.8854 56.3289 78.4682Z" fill="white"/>
<path d="M99.3768 72.9153C99.6753 72.9198 99.9734 72.8893 100.265 72.8244C100.544 72.7622 100.816 72.667 101.073 72.5409L101.265 71.8882H101.169C100.946 72.0794 100.69 72.2297 100.415 72.3322C100.153 72.4388 99.8732 72.4933 99.5908 72.4927C99.3171 72.5109 99.043 72.4631 98.7916 72.3532C98.5402 72.2434 98.319 72.0747 98.1464 71.8615C97.7818 71.3259 97.6066 70.6838 97.6489 70.0373C97.6101 69.4236 97.7839 68.8153 98.1411 68.3147C98.3008 68.1098 98.508 67.9468 98.7446 67.8397C98.9813 67.7325 99.2405 67.6844 99.4998 67.6995C99.8388 67.6876 100.174 67.7711 100.468 67.9403C100.726 68.086 100.917 68.3255 101.003 68.6089H101.121C101.138 68.4291 101.167 68.2504 101.206 68.074C101.239 67.915 101.28 67.7579 101.329 67.6032C101.038 67.4753 100.735 67.3733 100.425 67.2983C100.13 67.2343 99.8287 67.202 99.5266 67.202C98.6929 67.158 97.8745 67.4378 97.2423 67.983C96.9571 68.2469 96.7327 68.5698 96.5849 68.9292C96.4371 69.2885 96.3693 69.6758 96.3864 70.064C96.3633 70.4561 96.4217 70.8486 96.558 71.2169C96.6942 71.5852 96.9054 71.9213 97.1781 72.2038C97.789 72.7208 98.5789 72.9764 99.3768 72.9153Z" fill="white"/>
<path d="M105.732 70.8718C105.748 70.5965 105.709 70.3208 105.617 70.0609C105.526 69.8009 105.383 69.5619 105.197 69.3579C104.786 69.0211 104.264 68.8495 103.733 68.8763C103.203 68.9032 102.701 69.1266 102.326 69.503C101.951 69.8795 101.729 70.3821 101.704 70.913C101.679 71.4439 101.853 71.965 102.191 72.375C102.391 72.5613 102.627 72.7049 102.885 72.7968C103.142 72.8888 103.416 72.9273 103.689 72.91C103.932 72.9344 104.178 72.9105 104.412 72.8398C104.646 72.7691 104.864 72.6529 105.054 72.4979C105.243 72.3429 105.4 72.1521 105.515 71.9364C105.631 71.7207 105.703 71.4844 105.727 71.2409C105.737 71.1181 105.737 70.9946 105.727 70.8718H105.732ZM104.347 72.1717C104.287 72.2921 104.193 72.3922 104.077 72.4597C103.961 72.5273 103.828 72.5592 103.694 72.5516C103.561 72.5599 103.429 72.5282 103.315 72.4604C103.2 72.3927 103.109 72.2921 103.052 72.1717C102.899 71.7565 102.837 71.3131 102.87 70.8718C102.843 70.4263 102.908 69.9799 103.063 69.5612C103.157 69.3897 103.315 69.2624 103.502 69.2072C103.69 69.1521 103.891 69.1735 104.063 69.2669C104.186 69.3364 104.288 69.4381 104.357 69.5612C104.511 69.9782 104.577 70.4227 104.55 70.8664C104.576 71.3111 104.507 71.7562 104.347 72.1717Z" fill="white"/>
<path d="M112.467 72.8083C112.467 72.5409 112.457 72.2841 112.435 72.038V70.8183C112.446 70.4498 112.424 70.0811 112.371 69.7163C112.334 69.5339 112.253 69.3632 112.136 69.2188C112.027 69.0914 111.89 68.9923 111.734 68.9299C111.529 68.8535 111.31 68.8217 111.091 68.8364C110.873 68.8512 110.66 68.9122 110.467 69.0155C110.244 69.1577 110.061 69.3524 109.932 69.5826C109.851 69.3622 109.701 69.1742 109.504 69.0476C109.296 68.9153 109.054 68.8483 108.808 68.855C108.58 68.8485 108.354 68.8981 108.15 68.9995C107.942 69.1213 107.76 69.2831 107.615 69.4756V68.9406H106.486C106.486 69.3793 106.513 69.7591 106.524 70.0801C106.535 70.401 106.524 70.6632 106.524 70.8772V71.6796C106.524 72.0059 106.524 72.3911 106.486 72.819H107.685V72.7441C107.685 72.4339 107.653 72.2092 107.653 72.0862V70.7862C107.632 70.4472 107.685 70.1077 107.808 69.7912C107.864 69.7084 107.939 69.6407 108.027 69.5938C108.115 69.5469 108.214 69.5224 108.313 69.5224C108.413 69.5224 108.511 69.5469 108.6 69.5938C108.688 69.6407 108.763 69.7084 108.819 69.7912C108.948 70.2245 108.995 70.678 108.958 71.1286V71.9364C108.958 72.2092 108.931 72.5141 108.91 72.8137H110.119V70.7862C110.093 70.4492 110.145 70.1109 110.269 69.7965C110.329 69.7105 110.409 69.6402 110.502 69.5916C110.595 69.5431 110.699 69.5177 110.804 69.5177C110.909 69.5177 111.012 69.5431 111.105 69.5916C111.198 69.6402 111.278 69.7105 111.339 69.7965C111.464 70.1792 111.513 70.5826 111.483 70.9841V71.8294C111.483 72.1396 111.456 72.4553 111.429 72.8083H112.499H112.467Z" fill="white"/>
<path d="M115.88 72.8083H117.089V70.7862C117.064 70.4492 117.115 70.1109 117.239 69.7965C117.299 69.7105 117.379 69.6402 117.472 69.5916C117.565 69.5431 117.669 69.5177 117.774 69.5177C117.879 69.5177 117.982 69.5431 118.076 69.5916C118.169 69.6402 118.249 69.7105 118.309 69.7965C118.434 70.1792 118.483 70.5826 118.453 70.9841V71.8294C118.453 72.1396 118.453 72.4553 118.4 72.8083H119.609C119.609 72.5409 119.598 72.2841 119.577 72.038V70.8183C119.55 70.4571 119.491 70.0991 119.4 69.7484C119.363 69.566 119.282 69.3953 119.165 69.2509C119.056 69.1235 118.919 69.0244 118.764 68.962C118.558 68.8856 118.339 68.8538 118.121 68.8685C117.902 68.8833 117.689 68.9443 117.496 69.0476C117.274 69.1898 117.09 69.3845 116.961 69.6147C116.881 69.3942 116.73 69.2063 116.533 69.0797C116.326 68.9474 116.083 68.8804 115.837 68.8871C115.61 68.8806 115.384 68.9302 115.179 69.0316C114.97 69.1517 114.788 69.3138 114.644 69.5077V68.9727H113.51C113.51 69.4114 113.542 69.7912 113.548 70.1122C113.553 70.4331 113.548 70.6953 113.548 70.9092V71.7117C113.548 72.038 113.548 72.4232 113.51 72.8511H114.687V72.7762C114.687 72.466 114.661 72.2413 114.661 72.1183V70.7862C114.635 70.4475 114.686 70.1074 114.81 69.7912C114.856 69.7244 114.914 69.6672 114.982 69.623C115.05 69.5788 115.126 69.5483 115.205 69.5334C115.285 69.5185 115.366 69.5194 115.445 69.5361C115.524 69.5528 115.6 69.585 115.666 69.6307C115.73 69.6729 115.784 69.7275 115.827 69.7912C115.95 70.2256 115.997 70.6781 115.966 71.1286V71.9364C115.966 72.2092 115.896 72.5088 115.88 72.8083Z" fill="white"/>
<path d="M124.333 70.8718C124.351 70.5963 124.313 70.32 124.221 70.0596C124.129 69.7993 123.985 69.5605 123.798 69.3579C123.386 69.0319 122.868 68.8689 122.344 68.8998C121.819 68.9307 121.325 69.1534 120.954 69.5255C120.583 69.8976 120.362 70.3931 120.333 70.9176C120.304 71.4421 120.469 71.9589 120.797 72.3697C121.219 72.7147 121.749 72.9031 122.294 72.9031C122.84 72.9031 123.369 72.7147 123.792 72.3697C123.978 72.1691 124.122 71.933 124.215 71.6757C124.308 71.4184 124.348 71.145 124.333 70.8718ZM122.942 72.1717C122.845 72.3432 122.684 72.4693 122.495 72.5225C122.305 72.5756 122.102 72.5515 121.931 72.4553C121.812 72.3879 121.715 72.2899 121.647 72.1717C121.493 71.7567 121.427 71.3138 121.455 70.8718C121.427 70.4263 121.492 69.9799 121.647 69.5612C121.694 69.4741 121.757 69.3973 121.834 69.3352C121.91 69.273 121.998 69.2269 122.093 69.1995C122.188 69.1721 122.287 69.1639 122.385 69.1755C122.483 69.1871 122.578 69.2182 122.664 69.2669C122.787 69.3364 122.888 69.4381 122.958 69.5612C123.116 69.9771 123.184 70.4222 123.156 70.8665C123.184 71.3107 123.116 71.7558 122.958 72.1717H122.942Z" fill="white"/>
<path d="M127.376 69.7805C127.504 70.1459 127.554 70.5342 127.521 70.9199V71.9899C127.531 72.2652 127.516 72.5409 127.478 72.8137H128.682C128.682 72.6051 128.65 72.3857 128.639 72.161C128.628 71.9364 128.639 71.6956 128.639 71.4442V70.4224C128.649 70.1572 128.629 69.8916 128.58 69.6307C128.549 69.4866 128.483 69.3525 128.388 69.2402C128.277 69.1077 128.136 69.0047 127.976 68.9406C127.775 68.8674 127.562 68.8349 127.349 68.845C127.136 68.8552 126.927 68.9076 126.734 68.9995C126.523 69.1207 126.34 69.2868 126.2 69.4863V68.9513H125.098C125.119 69.2723 125.135 69.5933 125.146 69.9142V71.8133C125.146 72.1289 125.146 72.4713 125.098 72.8297H126.269C126.269 72.4071 126.269 72.0327 126.237 71.7117C126.221 71.4355 126.221 71.1587 126.237 70.8825C126.215 70.5308 126.27 70.1784 126.397 69.85C126.444 69.7643 126.512 69.6916 126.594 69.6388C126.676 69.586 126.77 69.5547 126.868 69.5478C126.965 69.5409 127.063 69.5586 127.152 69.5992C127.241 69.6399 127.318 69.7022 127.376 69.7805Z" fill="white"/>
<path d="M136.695 67.2983H136.321C136.155 67.983 135.973 68.6571 135.786 69.3204C135.599 69.9838 135.374 70.6418 135.149 71.2944C134.903 70.599 134.673 69.9196 134.454 69.2562C134.235 68.5929 134.037 67.9402 133.844 67.2983H133.026C132.812 67.9295 132.598 68.5822 132.368 69.2455C132.138 69.9089 131.902 70.6097 131.645 71.3479C131.437 70.6792 131.244 70.0052 131.062 69.3311C130.88 68.6571 130.709 67.9777 130.527 67.2983H129.152C129.484 68.2541 129.791 69.1956 130.073 70.1229C130.356 71.043 130.608 71.9524 130.843 72.8404H131.667C131.891 72.1504 132.116 71.4817 132.346 70.8237C132.576 70.1657 132.817 69.5344 133.058 68.9139C133.309 69.5986 133.544 70.2727 133.764 70.9253C133.983 71.5779 134.181 72.2145 134.368 72.8404H135.208C135.534 71.808 135.855 70.8344 136.16 69.9089C136.465 68.9834 136.76 68.1168 137.048 67.2983H136.695Z" fill="white"/>
<path d="M139.188 68.8229C138.929 68.8095 138.669 68.8501 138.426 68.9422C138.183 69.0342 137.962 69.1758 137.776 69.3579C137.596 69.5492 137.456 69.7746 137.364 70.0208C137.272 70.267 137.23 70.529 137.241 70.7916C137.208 71.3574 137.4 71.9134 137.776 72.3376C137.972 72.5251 138.205 72.6695 138.46 72.7616C138.716 72.8537 138.987 72.8915 139.258 72.8725C139.509 72.8728 139.759 72.8404 140.001 72.7762C140.215 72.7186 140.417 72.6264 140.601 72.5034L140.777 72.0434L140.702 71.9845C140.551 72.1072 140.381 72.2048 140.199 72.2734C140.028 72.3373 139.847 72.3699 139.664 72.3697C139.493 72.3753 139.322 72.3411 139.167 72.2696C139.011 72.1981 138.873 72.0913 138.766 71.9578C138.526 71.6382 138.406 71.2441 138.429 70.8451H140.916V70.5883C140.934 70.3479 140.905 70.1063 140.828 69.8775C140.752 69.6488 140.631 69.4376 140.472 69.2562C140.299 69.1002 140.096 68.9812 139.875 68.9067C139.654 68.8322 139.421 68.8036 139.188 68.8229ZM139.782 70.3689V70.4813H138.407V70.4064C138.387 70.089 138.456 69.7722 138.605 69.4916C138.657 69.3945 138.734 69.3133 138.828 69.2568C138.922 69.2002 139.03 69.1704 139.14 69.1706C139.238 69.1699 139.334 69.196 139.418 69.246C139.502 69.2959 139.57 69.3679 139.616 69.4542C139.74 69.7123 139.797 69.9974 139.782 70.2833C139.785 70.3118 139.785 70.3405 139.782 70.3689Z" fill="white"/>
<path d="M144.741 72.359C144.643 72.1621 144.604 71.941 144.629 71.7224V71.5672L144.656 70.155V70.1122C144.666 69.9328 144.636 69.7533 144.568 69.5868C144.501 69.4203 144.397 69.2709 144.265 69.1492C143.944 68.9043 143.545 68.7845 143.142 68.8122C142.889 68.8125 142.64 68.8654 142.409 68.9674C142.149 69.0843 141.909 69.2413 141.697 69.4328C141.724 69.5023 141.751 69.5719 141.772 69.6467C141.797 69.7512 141.831 69.8532 141.874 69.9517C141.98 69.77 142.12 69.6102 142.286 69.4809C142.434 69.3796 142.609 69.3255 142.789 69.3258C142.888 69.3248 142.986 69.3436 143.078 69.3813C143.17 69.419 143.253 69.4747 143.324 69.5451C143.395 69.6238 143.45 69.7158 143.486 69.8159C143.522 69.9159 143.537 70.0221 143.532 70.1282V70.2833C143.259 70.4405 142.966 70.5593 142.66 70.6364L142.248 70.7648C142.002 70.8349 141.78 70.9719 141.606 71.1607C141.462 71.3349 141.384 71.5549 141.387 71.7812C141.379 71.9312 141.401 72.0812 141.451 72.2227C141.502 72.3641 141.58 72.4941 141.681 72.6051C141.787 72.7085 141.912 72.789 142.05 72.8415C142.189 72.894 142.336 72.9173 142.484 72.91C142.706 72.9141 142.926 72.8587 143.12 72.7495C143.312 72.6444 143.471 72.489 143.58 72.3001C143.611 72.4696 143.7 72.623 143.832 72.7334C143.968 72.8384 144.136 72.8915 144.308 72.8832C144.452 72.8834 144.595 72.8672 144.736 72.8351C144.883 72.806 145.026 72.7612 145.164 72.7013V72.5034H145.132C145.06 72.5086 144.988 72.4984 144.921 72.4735C144.853 72.4486 144.792 72.4095 144.741 72.359ZM143.57 71.6154C143.582 71.8132 143.531 72.0097 143.425 72.1771C143.377 72.24 143.314 72.2903 143.243 72.3238C143.171 72.3573 143.092 72.3731 143.013 72.3697C142.941 72.3744 142.868 72.3612 142.802 72.3314C142.736 72.3016 142.678 72.2559 142.633 72.1985C142.542 72.0357 142.499 71.85 142.51 71.6635C142.503 71.5435 142.521 71.4233 142.563 71.3108C142.606 71.1983 142.672 71.0961 142.756 71.0109C142.992 70.8244 143.272 70.7044 143.57 70.6632V71.6154Z" fill="white"/>
<path d="M146.951 66.7205C146.839 66.7279 146.728 66.7422 146.619 66.7633H146.084C145.972 66.7633 145.865 66.7633 145.752 66.7205C145.752 67.1646 145.784 67.63 145.795 68.1328C145.806 68.6357 145.795 69.2027 145.795 69.7805V71.3854C145.795 71.8882 145.768 72.359 145.752 72.8137C145.85 72.796 145.948 72.7835 146.046 72.7763C146.255 72.7549 146.464 72.7549 146.672 72.7763C146.769 72.7835 146.866 72.796 146.961 72.8137C146.961 72.375 146.924 71.9043 146.913 71.4068C146.902 70.9093 146.913 70.3369 146.913 69.7537V68.1435C146.902 67.6086 146.929 67.1806 146.951 66.7205Z" fill="white"/>
<path d="M149.561 72.4713C149.486 72.4782 149.41 72.4599 149.346 72.4192C149.282 72.3785 149.234 72.3179 149.208 72.2466C149.127 71.8671 149.096 71.4786 149.117 71.0911V70.7648C149.117 70.5294 149.117 70.1282 149.144 69.5665V69.3793H149.946C149.941 69.3188 149.941 69.2579 149.946 69.1974V68.9834H149.16V68.2559C149.156 67.9968 149.168 67.7377 149.197 67.4802L149.106 67.416C148.935 67.5016 148.759 67.5818 148.571 67.6621L148.036 67.8867C148.03 68.0353 148.039 68.1841 148.063 68.3308C148.077 68.4427 148.077 68.5558 148.063 68.6678V68.978H147.528V69.0583C147.534 69.1027 147.534 69.1476 147.528 69.192V69.4007H148.063V71.8508C148.052 71.996 148.07 72.1422 148.117 72.2801C148.164 72.4181 148.238 72.5451 148.336 72.6532C148.442 72.7505 148.567 72.8253 148.703 72.8732C148.839 72.921 148.984 72.9408 149.128 72.9314C149.276 72.9324 149.423 72.9144 149.566 72.8779C149.736 72.8352 149.901 72.7761 150.059 72.7013V72.4232C149.895 72.459 149.728 72.4752 149.561 72.4713Z" fill="white"/>
<path d="M154.119 72.2092V70.4224C154.126 70.1608 154.106 69.899 154.06 69.6414C154.023 69.4942 153.954 69.3571 153.857 69.2402C153.746 69.1077 153.605 69.0047 153.445 68.9406C153.274 68.8767 153.093 68.8441 152.91 68.8443C152.661 68.8394 152.415 68.8964 152.193 69.0102C151.976 69.1332 151.792 69.3077 151.658 69.5184V67.4374C151.665 67.1974 151.686 66.958 151.722 66.7205L151.417 66.7687H150.85L150.535 66.7205C150.535 67.0629 150.577 67.4695 150.588 67.9402C150.599 68.411 150.588 69.0744 150.588 69.9196V71.7491C150.588 72.1717 150.561 72.5248 150.535 72.819H151.717C151.724 72.462 151.712 72.1048 151.679 71.7491C151.661 71.457 151.661 71.1639 151.679 70.8718C151.657 70.5201 151.712 70.1677 151.84 69.8393C151.892 69.7505 151.966 69.6761 152.054 69.6229C152.143 69.5696 152.243 69.5393 152.346 69.5345C152.449 69.5297 152.551 69.5507 152.644 69.5955C152.737 69.6403 152.817 69.7076 152.878 69.7912C153.001 70.1576 153.049 70.5453 153.017 70.9306V72.0006C153.027 72.2759 153.012 72.5516 152.974 72.8244H154.172C154.143 72.6205 154.125 72.4151 154.119 72.2092Z" fill="white"/>
<path d="M102.956 80.2014L102.49 76.3177H101.747C101.447 76.9863 101.148 77.6336 100.837 78.2649C100.527 78.8961 100.217 79.5113 99.8958 80.1158C99.5641 79.4899 99.2378 78.864 98.9275 78.2381C98.6172 77.6122 98.307 76.965 98.0181 76.3177H97.312L96.777 80.1533C96.7563 80.3671 96.7241 80.5796 96.6807 80.7899C96.6326 81.0895 96.5737 81.4479 96.5095 81.8598L96.6807 81.8277H96.9856L97.1622 81.8598C97.1622 81.2446 97.2317 80.6241 97.312 80.0142V79.95L97.5099 78.2649C97.7988 78.7998 98.093 79.3723 98.3979 79.9714C98.7028 80.5706 99.0024 81.2018 99.318 81.8598H99.6604C99.976 81.1911 100.286 80.5438 100.591 79.9286C100.896 79.3134 101.196 78.7143 101.501 78.1312L101.763 80.7203C101.763 80.8594 101.8 81.2072 101.822 81.7903V81.8705L102.169 81.8384H102.811L103.18 81.8651C103.138 81.6726 103.095 81.4586 103.057 81.2125C103.02 80.9664 103.004 80.6294 102.956 80.2014Z" fill="white"/>
<path d="M107.15 81.4158C107.054 81.2181 107.015 80.9977 107.037 80.7792V80.6241L107.064 79.2118V79.169C107.074 78.9896 107.045 78.8101 106.977 78.6436C106.91 78.4771 106.806 78.3277 106.674 78.2061C106.353 77.9611 105.953 77.8413 105.55 77.869C105.298 77.8693 105.048 77.9222 104.817 78.0242C104.557 78.1411 104.317 78.2981 104.106 78.4896C104.133 78.5538 104.159 78.6233 104.186 78.7036C104.213 78.7838 104.245 78.8801 104.282 79.0085C104.384 78.8222 104.527 78.6613 104.7 78.5377C104.845 78.4339 105.019 78.3795 105.197 78.3826C105.296 78.3812 105.394 78.3994 105.486 78.4361C105.578 78.4728 105.662 78.5274 105.732 78.5966C105.876 78.7578 105.951 78.9691 105.941 79.185V79.3241C105.669 79.4795 105.378 79.5966 105.074 79.6718L104.662 79.8056C104.415 79.8768 104.191 80.0135 104.015 80.2014C103.87 80.379 103.796 80.6038 103.806 80.8327C103.797 80.9836 103.819 81.1347 103.869 81.2771C103.92 81.4196 103.998 81.5504 104.101 81.6619C104.206 81.7653 104.332 81.8459 104.47 81.8983C104.608 81.9508 104.755 81.9741 104.903 81.9668C105.127 81.9703 105.349 81.915 105.545 81.8063C105.734 81.6975 105.891 81.5406 106 81.3516C106.024 81.5243 106.113 81.6811 106.25 81.7896C106.386 81.8981 106.559 81.9501 106.733 81.9347C106.874 81.934 107.016 81.9196 107.155 81.8919C107.302 81.8603 107.445 81.8156 107.583 81.7582V81.5549H107.556C107.482 81.5636 107.408 81.5556 107.337 81.5315C107.267 81.5074 107.203 81.4679 107.15 81.4158ZM105.978 80.6722C105.984 80.8609 105.934 81.0472 105.834 81.2072C105.786 81.27 105.723 81.3203 105.651 81.3539C105.58 81.3874 105.501 81.4031 105.422 81.3997C105.35 81.4039 105.278 81.3899 105.212 81.3591C105.147 81.3282 105.09 81.2815 105.047 81.2232C104.949 81.0628 104.904 80.8756 104.919 80.6882C104.912 80.5691 104.93 80.4497 104.972 80.3381C105.015 80.2264 105.08 80.1252 105.165 80.041C105.4 79.8545 105.681 79.7344 105.978 79.6932V80.6722Z" fill="white"/>
<path d="M111.306 81.4158C111.001 81.308 110.678 81.2555 110.354 81.2606H110.21C109.439 81.2606 109.06 81.0948 109.06 80.8487C109.055 80.7503 109.09 80.6541 109.156 80.581C109.222 80.5079 109.314 80.4637 109.413 80.4582H109.552C110.027 80.4853 110.499 80.3617 110.9 80.1051C111.056 79.9941 111.181 79.8459 111.265 79.674C111.349 79.5021 111.389 79.312 111.381 79.1208C111.386 78.9522 111.349 78.785 111.274 78.634C111.2 78.4949 111.091 78.377 110.959 78.2916H111.761V77.8958H111.034C110.743 77.8999 110.452 77.8892 110.162 77.8637L109.627 77.8316C109.191 77.806 108.76 77.9327 108.407 78.19C108.262 78.3007 108.145 78.4442 108.066 78.6088C107.987 78.7734 107.948 78.9543 107.952 79.1369C107.944 79.2774 107.963 79.4183 108.009 79.5514C108.055 79.6845 108.126 79.8072 108.22 79.9126C108.432 80.1265 108.708 80.2655 109.006 80.3084V80.4475C108.778 80.5364 108.572 80.6732 108.402 80.8487C108.333 80.9196 108.279 81.0034 108.244 81.0953C108.208 81.1871 108.191 81.2851 108.193 81.3837C108.188 81.5292 108.235 81.6716 108.327 81.7849C108.427 81.9028 108.562 81.9869 108.712 82.0256V82.0898C108.475 82.1611 108.26 82.294 108.091 82.475C107.95 82.642 107.878 82.856 107.888 83.0742C107.887 83.231 107.929 83.3851 108.009 83.5199C108.089 83.6547 108.204 83.7651 108.343 83.8391C108.731 84.0475 109.17 84.1438 109.611 84.1173C110.184 84.1449 110.75 83.977 111.215 83.6412C111.41 83.5022 111.568 83.3182 111.676 83.1049C111.784 82.8916 111.839 82.6553 111.836 82.4162C111.84 82.2172 111.794 82.0203 111.702 81.8438C111.62 81.662 111.481 81.5118 111.306 81.4158ZM109.215 78.4521C109.26 78.3738 109.324 78.3081 109.401 78.2613C109.478 78.2144 109.566 78.1879 109.656 78.1841C109.747 78.1804 109.836 78.1996 109.917 78.2399C109.998 78.2802 110.067 78.3403 110.119 78.4147C110.23 78.6153 110.28 78.844 110.263 79.0727C110.282 79.3515 110.233 79.6307 110.119 79.8858C110.03 80.0082 109.896 80.0904 109.747 80.1145C109.597 80.1385 109.445 80.1025 109.322 80.0142C109.274 79.9769 109.231 79.9338 109.193 79.8858C109.082 79.6584 109.032 79.4057 109.049 79.1529C109.033 78.908 109.091 78.6641 109.215 78.4521ZM110.525 83.5128C110.268 83.6785 109.965 83.7589 109.659 83.7428C109.386 83.7577 109.118 83.6677 108.91 83.4914C108.817 83.4073 108.743 83.3039 108.694 83.1884C108.645 83.0729 108.622 82.9481 108.626 82.8227C108.623 82.6724 108.662 82.5241 108.739 82.3948C108.811 82.2686 108.919 82.1664 109.049 82.1005L109.985 82.1487C110.217 82.1444 110.444 82.2158 110.632 82.352C110.704 82.4205 110.759 82.5041 110.794 82.5966C110.829 82.6891 110.843 82.7883 110.836 82.8869C110.841 83.009 110.815 83.1304 110.761 83.2399C110.707 83.3493 110.626 83.4433 110.525 83.5128Z" fill="white"/>
<path d="M115.399 81.4158C115.303 81.2181 115.264 80.9977 115.287 80.7792V79.1743C115.297 78.9949 115.267 78.8155 115.199 78.649C115.132 78.4825 115.028 78.333 114.896 78.2114C114.575 77.9664 114.176 77.8466 113.773 77.8744C113.52 77.8747 113.271 77.9275 113.04 78.0295C112.78 78.1464 112.54 78.3035 112.328 78.4949C112.328 78.5591 112.382 78.6287 112.408 78.7089C112.435 78.7892 112.467 78.8854 112.505 79.0138C112.607 78.8275 112.749 78.6666 112.922 78.5431C113.067 78.4392 113.241 78.3848 113.42 78.3879C113.518 78.3865 113.617 78.4047 113.708 78.4414C113.8 78.4782 113.884 78.5327 113.954 78.6019C114.1 78.7626 114.177 78.9738 114.168 79.1904V79.276C114.174 79.2934 114.174 79.312 114.168 79.3295C113.897 79.4849 113.605 79.6019 113.302 79.6772L112.89 79.8109C112.642 79.8821 112.419 80.0189 112.243 80.2068C112.098 80.3843 112.023 80.6091 112.034 80.838C112.025 80.9889 112.046 81.14 112.097 81.2825C112.148 81.4249 112.226 81.5557 112.328 81.6672C112.434 81.7707 112.559 81.8512 112.697 81.9037C112.836 81.9562 112.983 81.9795 113.131 81.9721C113.355 81.9757 113.576 81.9203 113.773 81.8117C113.962 81.7029 114.119 81.546 114.227 81.3569C114.251 81.5296 114.341 81.6864 114.477 81.795C114.614 81.9035 114.787 81.9554 114.96 81.94C115.102 81.9393 115.244 81.925 115.383 81.8972C115.529 81.8657 115.672 81.8209 115.811 81.7635V81.5602C115.736 81.5665 115.66 81.5568 115.589 81.5319C115.518 81.507 115.453 81.4675 115.399 81.4158ZM114.233 80.6722C114.236 80.8606 114.186 81.0461 114.088 81.2072C114.037 81.2682 113.973 81.3172 113.901 81.3505C113.829 81.3838 113.75 81.4007 113.671 81.3997C113.599 81.4039 113.527 81.3899 113.461 81.3591C113.396 81.3282 113.339 81.2815 113.296 81.2232C113.198 81.0628 113.154 80.8756 113.168 80.6882C113.163 80.5688 113.182 80.4496 113.226 80.3381C113.269 80.2267 113.335 80.1255 113.42 80.0409C113.653 79.8512 113.934 79.7307 114.233 79.6932V80.6722Z" fill="white"/>
<path d="M117.934 78.0135H116.33C116.335 78.0417 116.335 78.0708 116.33 78.0991C116.335 78.1453 116.335 78.1919 116.33 78.2382C116.335 78.2826 116.335 78.3275 116.33 78.3719V78.4575H116.42C116.895 78.4361 117.243 78.4254 117.464 78.4254H118.132L117.373 79.5862C116.731 80.5706 116.26 81.2874 115.955 81.7261V81.8544L116.779 81.8224H118.71L119.48 81.8544V81.3623C119.256 81.3623 119.026 81.3944 118.79 81.3997C118.555 81.4051 118.314 81.3997 118.068 81.3997H117.357L118.726 79.2599L119.518 78.0456V77.9867H118.785L117.934 78.0135Z" fill="white"/>
<path d="M121.401 77.9867H120.197C120.197 78.3344 120.229 78.6715 120.24 78.9871C120.251 79.3027 120.24 79.6183 120.24 79.9286V80.7845C120.246 81.1417 120.231 81.4989 120.197 81.8544L120.508 81.8224H121.096L121.401 81.8544C121.401 81.4425 121.369 81.0841 121.358 80.7845C121.347 80.485 121.358 80.1907 121.358 79.9233V78.9817C121.358 78.6608 121.38 78.3344 121.401 77.9867Z" fill="white"/>
<path d="M120.807 75.9057C120.644 75.8999 120.486 75.9583 120.366 76.0684C120.246 76.1785 120.174 76.3315 120.165 76.4942C120.163 76.5843 120.18 76.6739 120.215 76.7569C120.25 76.84 120.302 76.9146 120.369 76.9757C120.424 77.0337 120.492 77.0793 120.567 77.1097C120.641 77.1401 120.721 77.1546 120.802 77.1522C120.883 77.1611 120.965 77.1538 121.044 77.1307C121.122 77.1075 121.195 77.0689 121.258 77.0172C121.322 76.9655 121.374 76.9017 121.413 76.8295C121.451 76.7574 121.474 76.6783 121.482 76.5969C121.489 76.5155 121.481 76.4334 121.456 76.3555C121.431 76.2775 121.391 76.2052 121.339 76.1429C121.286 76.0805 121.221 76.0293 121.148 75.9923C121.075 75.9553 120.996 75.9331 120.914 75.9271H120.802L120.807 75.9057Z" fill="white"/>
<path d="M125.975 80.4957V79.4792C125.985 79.2122 125.965 78.9449 125.916 78.6822C125.885 78.5381 125.819 78.4039 125.723 78.2916C125.609 78.1621 125.466 78.0613 125.306 77.9974C125.136 77.9293 124.954 77.8948 124.771 77.8958C124.53 77.8922 124.291 77.9473 124.076 78.0563C123.864 78.1775 123.681 78.3436 123.541 78.5431V78.0081H122.401C122.423 78.3255 122.439 78.6465 122.45 78.971C122.46 79.2956 122.46 79.6219 122.45 79.95V80.8701C122.457 81.2096 122.441 81.5492 122.401 81.8865L122.712 81.8544H123.247L123.546 81.8865C123.546 81.4657 123.535 81.0912 123.514 80.7631V79.9126C123.492 79.5626 123.547 79.212 123.675 78.8854C123.721 78.7857 123.798 78.7029 123.894 78.6483C123.99 78.5937 124.1 78.57 124.21 78.5805C124.314 78.5657 124.421 78.5822 124.516 78.6279C124.611 78.6736 124.691 78.7465 124.744 78.8373C124.868 79.2037 124.915 79.5914 124.884 79.9768V81.0467C124.893 81.322 124.879 81.5977 124.841 81.8705L125.156 81.8384H125.723L126.044 81.8705C126.044 81.6619 126.012 81.4425 126.002 81.2179C125.991 80.9932 125.975 80.7471 125.975 80.4957Z" fill="white"/>
<path d="M128.73 77.8797C128.469 77.8665 128.209 77.9072 127.965 77.9992C127.721 78.0913 127.499 78.2327 127.312 78.4147C127.131 78.6053 126.99 78.8306 126.898 79.0769C126.807 79.3233 126.765 79.5857 126.777 79.8484C126.744 80.4142 126.936 80.9702 127.312 81.3944C127.51 81.5817 127.744 81.726 128 81.8181C128.256 81.9102 128.528 81.9481 128.799 81.9293C129.05 81.9296 129.3 81.8972 129.543 81.833C129.756 81.7754 129.959 81.6832 130.142 81.5602L130.319 81.1002L130.238 81.0413C130.089 81.1639 129.921 81.2615 129.741 81.3302C129.57 81.3941 129.389 81.4267 129.206 81.4265C129.033 81.4319 128.862 81.397 128.705 81.3246C128.548 81.2522 128.41 81.1442 128.302 81.0092C128.066 80.6877 127.949 80.2946 127.97 79.8965H130.452C130.458 79.8646 130.458 79.8321 130.452 79.8002C130.458 79.7469 130.458 79.6931 130.452 79.6397C130.485 79.1537 130.323 78.6747 130.003 78.3077C129.832 78.1518 129.631 78.0332 129.412 77.9595C129.192 77.8858 128.96 77.8586 128.73 77.8797ZM129.345 79.4257V79.5327H127.97V79.4632C127.953 79.1467 128.02 78.8312 128.163 78.5484C128.215 78.4521 128.293 78.3715 128.387 78.3151C128.481 78.2587 128.588 78.2284 128.698 78.2274C128.794 78.2272 128.889 78.2529 128.971 78.3018C129.054 78.3508 129.122 78.4212 129.169 78.5056C129.291 78.7661 129.346 79.053 129.329 79.3402L129.345 79.4257Z" fill="white"/>
<path d="M98.8366 49.955C99.2253 50.5658 99.5824 51.1961 99.9065 51.8434L100.976 50.811C100.436 50.2015 99.8214 49.6624 99.1468 49.2061C99.3729 48.6883 99.552 48.1511 99.6818 47.6012L98.1358 47.2802C97.8132 49.1597 97.169 50.9694 96.2313 52.6298L96.7663 53.0685C97.5988 52.1327 98.2957 51.0847 98.8366 49.955Z" fill="white"/>
<path d="M110.825 47.1251C110.343 45.9624 109.686 44.8801 108.878 43.9154L108.268 44.2203C108.675 45.3651 109.005 46.5357 109.257 47.7243L110.825 47.1251Z" fill="white"/>
<path d="M104.78 46.2478H101.388L102.153 45.1779C101.178 44.541 100.109 44.0591 98.9864 43.7495L98.7242 44.338C99.4627 44.926 100.161 45.5622 100.816 46.2424H96.5684V47.0984H104.78V46.2478Z" fill="white"/>
<path d="M100.019 56.8239V61.815H101.656V56.4654C102.335 57.2354 102.971 58.0427 103.56 58.8834L104.689 57.6263C103.762 56.8192 102.744 56.1227 101.656 55.5507V54.8445H104.817V53.9832H101.656V52.1911H101.335C101.809 51.5462 102.223 50.8585 102.57 50.1369C102.977 50.7087 103.335 51.3135 103.64 51.9451L104.534 51.1266C104.362 51.608 104.164 52.0795 103.94 52.5389L104.475 52.9347C104.764 52.5549 105.01 52.1376 105.293 51.715V61.7241H106.968V60.2529H113.387V59.3756H110.472V56.0803H112.681V55.2243H110.472V52.25H112.665V51.3941H110.472V48.8423H113.147V47.981H106.877C107.225 46.7941 107.454 45.5755 107.562 44.3433L105.828 44.001C105.545 46.7827 105.293 48.8423 104.646 50.7842C104.143 50.233 103.567 49.7525 102.934 49.3559C103.163 48.8206 103.342 48.2655 103.469 47.6975L101.923 47.3177C101.771 49.0153 101.299 50.6688 100.532 52.1911H100.04V53.9832H96.4506V54.8445H99.5961C98.7459 56.7642 97.5366 58.5037 96.0333 59.9694L96.4345 60.5044C97.8293 59.4896 99.0414 58.2451 100.019 56.8239ZM106.914 48.8423H108.755V51.3941H106.904L106.914 48.8423ZM106.914 52.25H108.755V55.2243H106.904L106.914 52.25ZM106.914 56.0803H108.755V59.3756H106.904L106.914 56.0803Z" fill="white"/>
<path d="M131.223 54.4059C130.204 53.5403 129.061 52.8333 127.831 52.3088L127.489 52.8438C128.41 53.7353 129.281 54.6764 130.099 55.663L131.223 54.4059Z" fill="white"/>
<path d="M128.147 51.3941H124.621V52.25H133.614V51.3941H129.859V48.0987H133.86V47.2374H129.859V44.0384H128.147V47.2374H124.22V48.0987H128.147V51.3941Z" fill="white"/>
<path d="M134.55 58.4234C133.908 57.0402 133.038 55.7744 131.977 54.6787L131.442 55.0371C132.083 56.3721 132.619 57.7546 133.047 59.1723L134.55 58.4234Z" fill="white"/>
<path d="M126.408 59.0493C126.408 61.1089 126.788 61.3175 129.575 61.3175C132.544 61.3175 132.394 60.0978 131.517 56.9736H130.832C130.832 59.5093 130.832 59.7554 129.457 59.7554C128.259 59.7554 128.088 59.5093 128.088 58.7443V54.0795H126.408V59.0493Z" fill="white"/>
<path d="M123.819 47.2374H121.059L122.048 46.4778C121.201 45.4721 120.214 44.593 119.117 43.8672L118.641 44.3433C119.079 44.9692 119.785 46.1515 120.411 47.2374H117.474V48.0987H123.819V47.2374Z" fill="white"/>
<path d="M121.765 61.4352H123.198V59.1295L124.477 60.0817C125.354 58.9209 125.793 57.2411 125.905 55.2243L125.237 55.0906C124.98 56.5557 124.267 57.9021 123.198 58.9369V55.1922H118.073V61.724H119.561V60.3332H121.754L121.765 61.4352ZM121.765 59.4719H119.593V56.0054H121.765V59.4719Z" fill="white"/>
<path d="M123.38 52.5175H118.025V53.3199H123.38V52.5175Z" fill="white"/>
<path d="M123.38 49.8855H118.025V50.6879H123.38V49.8855Z" fill="white"/>
<path d="M89.4053 60.5953L89.2395 60.5097C88.9917 60.3328 88.722 60.1889 88.437 60.0817C87.993 59.9694 87.5222 60.0229 87.0782 59.9266C86.4523 59.7929 85.8318 59.6377 85.2005 59.5414C84.4109 59.3913 83.5977 59.4187 82.82 59.6217C82.4406 59.7092 82.0904 59.8935 81.8036 60.1566C81.6451 60.3902 81.5509 60.6615 81.5307 60.943C81.4665 61.2111 81.4341 61.4858 81.4345 61.7615C81.4711 62.7908 81.7774 63.7924 82.3225 64.6663C82.5973 65.1383 82.9123 65.5858 83.264 66.0037C83.5859 66.4316 83.9597 66.818 84.3767 67.1539C84.7576 67.3692 85.0821 67.6717 85.3236 68.0365C85.5055 68.3308 85.5215 68.4164 85.8585 68.5715C86.4387 68.7415 87.0408 68.8244 87.6453 68.8176C88.4433 68.8705 89.2448 68.8238 90.0312 68.6785C90.6143 68.5768 90.7213 68.1435 91.1974 67.8868C91.6735 67.63 91.8607 67.5872 92.064 67.1004C92.9841 64.907 91.85 63.04 90.5073 61.4566C90.1906 61.11 89.8181 60.8189 89.4053 60.5953Z" fill="white"/>
</g>
<path d="M140.667 2.83643L20.6667 122.836" stroke="#D60C18" stroke-width="3" stroke-linecap="square" stroke-linejoin="round"/>
<defs>
<clipPath id="clip0_737_2788">
<rect width="160" height="58.8452" fill="white" transform="translate(0.666748 32.8364)"/>
</clipPath>
</defs>
</svg>
