<svg width="161" height="125" viewBox="0 0 161 125" fill="none" xmlns="http://www.w3.org/2000/svg">
<rect width="160" height="58.8452" transform="translate(0.669922 32.8364)" fill="url(#paint0_linear_737_2810)"/>
<path d="M18.0025 49.5592C18.8773 50.1162 19.9355 50.3082 20.9502 50.0941C21.9184 49.8587 22.8813 49.5913 23.8389 49.3184C25.5187 48.837 27.1877 48.3181 28.8782 47.8633C29.7181 47.6387 30.5633 47.4247 31.4139 47.2375C31.7991 47.177 32.1785 47.084 32.548 46.9593C32.9278 46.8095 33.2648 46.5688 33.6179 46.4243C34.1529 46.1729 34.6878 45.9429 35.2602 45.7182C36.8651 45.0655 40.2995 44.2577 39.4489 41.7862C39.1815 40.9892 38.379 40.6361 37.6782 40.267C36.9383 39.9444 36.1215 39.8404 35.3244 39.9674C34.5503 39.9766 33.7998 40.2356 33.1846 40.7056C32.3501 41.7488 30.9645 42.0644 29.9214 42.899C29.5523 43.1771 29.0494 43.1825 28.6803 43.466C28.4984 43.6051 28.4395 43.7228 28.2202 43.787C28.0288 43.8145 27.8358 43.8288 27.6425 43.8298C27.2787 43.8779 26.9203 43.9261 26.5725 43.9849C25.5359 44.1218 24.5227 44.3989 23.5607 44.8087C23.0794 45.044 22.6179 45.3178 22.1806 45.6272C21.7579 45.9108 21.3567 45.7984 20.8753 45.8305C20.3938 45.8626 20.0033 45.9108 19.5646 45.975L18.2593 46.1943L17.6013 46.2906C17.3789 46.2749 17.1555 46.3021 16.9433 46.3708C16.785 46.5095 16.679 46.6982 16.643 46.9056C16.607 47.1129 16.6431 47.3264 16.7454 47.5103C17.1252 48.302 17.1787 49.0777 18.0025 49.5592Z" fill="white"/>
<path d="M83.4169 48.4143C84.2033 48.2057 84.8827 48.0292 85.2999 47.2695C85.4283 47.0342 85.5674 46.7988 85.6851 46.558C85.948 46.0886 86.074 45.5548 86.0489 45.0174C85.8455 44.597 85.5214 44.2469 85.1181 44.0117C84.3571 43.6378 83.5405 43.3903 82.7001 43.2788C81.7264 43.0701 80.71 42.8294 79.7257 42.701C79.143 42.6329 78.5526 42.6783 77.9871 42.8348C76.8678 43.1334 75.7761 43.5271 74.7239 44.0117C73.5149 44.5466 72.0491 44.2256 70.9203 44.9639C70.4322 45.1935 69.9067 45.3331 69.369 45.3758C68.7003 45.5309 68.069 45.7984 67.4164 46.0124C66.2983 46.3708 65.1803 46.7185 64.0462 47.0288C63.2384 47.2481 62.3985 47.0288 61.596 47.414C61.2847 47.64 60.9555 47.8404 60.6117 48.0131C60.2533 48.1362 59.8895 48.302 59.5418 48.425C58.2579 48.8744 56.867 49.1847 55.551 49.5324C53.2186 50.3348 50.6134 49.9871 48.2168 50.4365C47.5214 50.613 46.7938 50.7147 46.2749 51.271C46.1037 52.0948 46.7029 52.4105 47.2378 52.801C47.7728 53.1915 48.2382 53.9565 48.8801 54.3631C49.4597 54.6836 50.0666 54.9522 50.6936 55.1655C52.0952 55.7325 53.4112 56.4761 54.9198 56.7704C55.749 56.9308 57.4501 57.1288 58.2044 56.6259C59.0925 56.0321 60.0928 55.6202 60.9541 54.9783C61.3553 54.6787 61.6763 54.2882 62.0882 54.0046C62.5525 53.7494 63.0026 53.469 63.4363 53.1648C63.9683 52.6222 64.5627 52.1446 65.207 51.7418C66.0362 51.6027 66.8119 50.6719 67.6357 51.255C68.0316 51.4368 67.8443 51.7899 67.8657 52.1483C67.8871 52.5068 68.1493 52.9401 68.1493 53.368C68.137 53.7815 68.0704 54.1916 67.9513 54.5877V55.2511C68.3632 63.2059 67.6732 70.7648 66.9777 78.7891C66.6567 79.7788 67.0473 80.6829 67.2719 81.6405C67.3029 82.0208 67.3857 82.3952 67.518 82.7532C67.9077 83.4419 68.492 84.0002 69.1978 84.358C70.6154 84.8288 72.6001 85.0642 73.7182 83.8231C74.8576 83.2881 75.2107 82.2182 75.3765 81.0467C75.5378 80.0081 75.6432 78.9617 75.6921 77.9118C75.6911 77.0827 75.5648 76.2585 75.3177 75.4671C75.2214 75.0551 75.1946 74.6325 75.0983 74.2206C74.9379 73.568 74.7292 72.9153 74.6169 72.252C74.1313 69.0796 73.8881 65.8749 73.8893 62.6656C73.9589 60.5257 73.4025 57.851 73.1244 56C72.4985 54.6091 73.3704 53.2182 72.7071 51.8274C72.4129 51.1373 72.5412 50.292 72.5359 49.5645C72.5359 48.9439 72.9639 48.7139 73.4667 48.4464C73.6553 48.3451 73.8343 48.2269 74.0017 48.0934C74.1855 47.971 74.3905 47.884 74.6062 47.8366C74.8095 47.767 75.0127 47.7082 75.2214 47.6547C76.7193 47.2695 78.4044 47.0235 79.7846 47.9061C80.1404 48.1829 80.5505 48.3815 80.9882 48.4892C81.7915 48.6652 82.6259 48.6394 83.4169 48.4143Z" fill="white"/>
<path d="M56.3321 78.4682C56.0258 78.1945 55.6861 77.9608 55.321 77.7727C54.9037 77.6122 54.4437 77.5855 54.021 77.4357C52.9472 77.0179 51.9242 76.4795 50.9718 75.8308C50.7689 75.6706 50.5543 75.5258 50.3298 75.3975C50.108 75.3386 49.8799 75.3063 49.6505 75.3012C49.2171 75.2103 48.9604 74.8091 48.5805 74.6111C48.404 74.5148 48.174 74.4828 48.0456 74.3223C47.6515 73.986 47.2121 73.7069 46.7403 73.4931C46.3123 73.2042 45.8416 73.1133 45.4029 72.8618C45.0274 72.6264 44.6698 72.3635 44.333 72.0755C43.7247 71.4603 43.0439 70.9213 42.3055 70.4706C39.7056 69.2669 37.9349 66.2498 36.0037 64.2651C34.7519 63.1203 33.1578 61.5261 33.1899 59.5414C33.7248 58.295 35.2387 57.8777 36.3514 57.2839C37.7423 56.2461 39.7217 55.679 40.5188 54.0207C40.6584 53.7181 40.7221 53.386 40.7044 53.0532C40.6867 52.7204 40.5881 52.397 40.4171 52.1109C39.9624 51.1694 38.8122 51.2068 37.9135 50.8591C37.3552 50.8103 36.7927 50.8758 36.2605 51.0517C35.3782 51.386 34.5749 51.8996 33.9013 52.5603C33.5804 52.8491 33.2968 53.2129 32.9598 53.4857C32.5967 53.7111 32.1992 53.8756 31.7829 53.9725C31.5792 54.0817 31.3455 54.122 31.1169 54.0872C30.8884 54.0525 30.6772 53.9447 30.5151 53.78C30.1799 52.8523 29.6996 51.9838 29.0921 51.2068C28.8916 51.1012 28.671 51.0392 28.4448 51.0249C28.2308 50.9714 28.0971 50.8003 27.9098 50.7468C27.5942 50.6558 27.1823 50.8805 26.8399 50.8805C26.4201 50.8286 25.9943 50.8522 25.5828 50.95C25.1037 51.142 24.6936 51.4738 24.4059 51.9023C24.0849 52.3784 24.224 52.7368 24.1598 53.2664C24.1224 53.6248 24.0368 53.9725 23.9672 54.3363C23.8821 54.687 23.8337 55.0455 23.8228 55.4062C23.8717 55.734 23.945 56.0576 24.0421 56.3745C24.0692 56.8463 23.9759 57.3172 23.7709 57.7429C23.566 58.1687 23.2562 58.5354 22.8706 58.8085C22.5232 59.1043 22.1468 59.3642 21.7471 59.5842C21.2817 59.841 20.7521 59.9052 20.2707 60.1192C19.8282 60.3328 19.4026 60.5796 18.9975 60.8574C18.5856 61.1303 18.179 61.3924 17.7457 61.6438C17.3124 61.8952 16.7935 61.9541 16.3655 62.1788C15.6005 62.5586 14.6964 62.6281 13.9314 62.9438C13.0969 63.1149 11.6418 62.8047 11.2567 63.8425C11.4004 64.7676 11.8395 65.6215 12.5085 66.2765C12.9578 67.2822 14.2792 67.63 15.1832 68.2933C16.5367 68.7427 17.8955 68.0847 19.1794 68.1863C19.6662 69.9945 19.5271 71.8668 18.2753 73.1882C18.0438 73.8992 17.6948 74.5665 17.2428 75.1621C17.019 75.4493 16.7759 75.721 16.5153 75.9753C16.2799 76.2 16.189 76.5102 15.9536 76.7456C15.6945 77.0667 15.3982 77.3558 15.0709 77.6069C14.5894 77.8851 14.4182 77.532 14.0384 77.2966C13.8008 77.1572 13.5426 77.0561 13.2734 76.997C12.7423 76.8844 12.192 76.9009 11.6686 77.0452C11.2982 77.2221 10.9958 77.5151 10.8073 77.8797C10.5259 78.149 10.3384 78.5016 10.2723 78.8854C10.3166 79.1247 10.3773 79.3607 10.4542 79.5916C10.5559 80.0891 10.3686 80.394 10.711 80.8541C10.9785 81.2072 10.9036 81.3516 10.9624 81.7742C11.0051 81.9691 11.091 82.1519 11.2139 82.3092C11.4443 82.5976 11.7166 82.8501 12.0216 83.0581C12.2819 83.2524 12.5683 83.409 12.8722 83.5235C13.168 83.5736 13.4609 83.6397 13.7496 83.7214C14.2722 84.0234 14.8688 84.1735 15.4721 84.1548C16.4885 84.1066 17.3552 83.6786 18.3074 83.3737C18.7645 83.2656 19.2077 83.1059 19.6287 82.8976C20.0135 82.6392 20.3718 82.3436 20.6986 82.0149C21.1426 81.6244 21.5706 81.2178 21.9772 80.7899C22.7113 80.0367 23.3756 79.2184 23.9619 78.3451C24.2576 77.914 24.5274 77.4657 24.7696 77.0024C24.989 76.5905 25.0906 76.1465 25.3046 75.7292C25.4062 75.4992 25.5614 75.2959 25.6577 75.0659C25.8546 74.6445 26.0174 74.208 26.1445 73.7606C26.2357 73.3593 26.3853 72.9736 26.5885 72.6158C26.8755 71.9359 27.0455 71.2124 27.0914 70.4759C27.1502 70.1496 27.2732 69.834 27.3321 69.5077C27.3909 69.1813 27.3802 68.7106 27.4658 68.3201C27.5972 67.7479 27.831 67.2042 28.1559 66.7152C28.9504 66.8663 29.6546 67.3211 30.1192 67.983C30.3908 68.2921 30.6821 68.5834 30.9912 68.855C31.355 69.1653 31.5957 69.5879 31.9595 69.8875C33.0294 70.7327 33.7623 71.9899 34.5272 73.0972C35.4741 74.4453 36.3728 75.8255 37.3144 77.1789C38.2559 78.5324 39.069 79.8002 40.3262 80.7578C41.2574 81.5645 42.2402 82.3097 43.2684 82.9886C44.0334 83.4272 45.0231 83.2988 45.8683 83.3149C47.4133 83.3096 48.9567 83.2131 50.4903 83.026C51.25 82.9458 52.015 82.8655 52.7746 82.812C53.1324 82.8227 53.4905 82.8012 53.8445 82.7478C54.4865 82.6783 55.1445 82.3841 55.781 82.2824C56.4176 82.1808 57.1933 82.0524 57.6213 81.5281C57.7956 81.3173 57.9186 81.0689 57.9808 80.8026C58.043 80.5362 58.0426 80.259 57.9797 79.9928C57.7176 79.2546 56.9205 78.8854 56.3321 78.4682Z" fill="white"/>
<path d="M99.38 72.9153C99.6785 72.9198 99.9766 72.8893 100.268 72.8244C100.548 72.7622 100.819 72.667 101.076 72.5409L101.268 71.8882H101.172C100.949 72.0794 100.693 72.2297 100.418 72.3322C100.156 72.4388 99.8764 72.4933 99.594 72.4927C99.3202 72.5109 99.0462 72.4631 98.7948 72.3532C98.5434 72.2434 98.3221 72.0747 98.1496 71.8615C97.7849 71.3259 97.6098 70.6838 97.6521 70.0373C97.6132 69.4236 97.787 68.8153 98.1442 68.3147C98.304 68.1099 98.5111 67.9468 98.7478 67.8397C98.9845 67.7325 99.2436 67.6844 99.503 67.6995C99.8419 67.6877 100.177 67.7711 100.471 67.9403C100.729 68.086 100.921 68.3255 101.006 68.6089H101.124C101.142 68.4291 101.17 68.2504 101.21 68.074C101.242 67.915 101.283 67.7579 101.333 67.6032C101.041 67.4753 100.738 67.3733 100.428 67.2983C100.133 67.2343 99.8319 67.202 99.5298 67.202C98.6961 67.158 97.8777 67.4378 97.2455 67.983C96.9602 68.2469 96.7359 68.5698 96.5881 68.9292C96.4402 69.2885 96.3725 69.6758 96.3896 70.064C96.3665 70.4561 96.4249 70.8486 96.5611 71.2169C96.6974 71.5852 96.9086 71.9213 97.1813 72.2039C97.7922 72.7208 98.5821 72.9764 99.38 72.9153Z" fill="white"/>
<path d="M105.735 70.8718C105.751 70.5965 105.712 70.3208 105.621 70.0609C105.529 69.8009 105.386 69.5619 105.2 69.3579C104.789 69.0211 104.267 68.8495 103.737 68.8763C103.206 68.9032 102.704 69.1266 102.329 69.503C101.954 69.8795 101.732 70.3821 101.707 70.913C101.682 71.4439 101.856 71.965 102.194 72.375C102.394 72.5613 102.63 72.7049 102.888 72.7968C103.145 72.8888 103.419 72.9273 103.692 72.91C103.935 72.9344 104.181 72.9105 104.415 72.8398C104.65 72.7691 104.868 72.6529 105.057 72.4979C105.246 72.3429 105.403 72.1521 105.519 71.9364C105.634 71.7207 105.706 71.4844 105.73 71.2409C105.741 71.1181 105.741 70.9946 105.73 70.8718H105.735ZM104.35 72.1717C104.29 72.2921 104.197 72.3922 104.081 72.4597C103.965 72.5273 103.831 72.5592 103.697 72.5516C103.564 72.5599 103.432 72.5282 103.318 72.4604C103.203 72.3927 103.112 72.2921 103.055 72.1717C102.902 71.7565 102.84 71.3131 102.873 70.8718C102.846 70.4263 102.911 69.9799 103.066 69.5612C103.16 69.3897 103.318 69.2624 103.505 69.2072C103.693 69.1521 103.895 69.1735 104.066 69.2669C104.189 69.3364 104.291 69.4381 104.361 69.5612C104.514 69.9782 104.58 70.4227 104.553 70.8664C104.579 71.3111 104.51 71.7562 104.35 72.1717Z" fill="white"/>
<path d="M112.47 72.8083C112.47 72.5409 112.46 72.2841 112.438 72.038V70.8183C112.449 70.4498 112.428 70.0811 112.374 69.7163C112.337 69.5339 112.256 69.3632 112.139 69.2188C112.03 69.0914 111.893 68.9923 111.738 68.9299C111.532 68.8535 111.313 68.8217 111.094 68.8364C110.876 68.8512 110.663 68.9122 110.47 69.0155C110.247 69.1577 110.064 69.3524 109.935 69.5826C109.855 69.3622 109.704 69.1742 109.507 69.0476C109.299 68.9153 109.057 68.8483 108.811 68.855C108.583 68.8485 108.358 68.8981 108.153 68.9995C107.945 69.1213 107.763 69.2831 107.618 69.4756V68.9406H106.49C106.49 69.3793 106.516 69.7591 106.527 70.0801C106.538 70.401 106.527 70.6632 106.527 70.8772V71.6796C106.527 72.0059 106.527 72.3911 106.49 72.819H107.688V72.7442C107.688 72.4339 107.656 72.2092 107.656 72.0862V70.7862C107.635 70.4472 107.688 70.1077 107.811 69.7912C107.867 69.7084 107.942 69.6407 108.03 69.5938C108.118 69.547 108.217 69.5224 108.317 69.5224C108.416 69.5224 108.515 69.547 108.603 69.5938C108.691 69.6407 108.766 69.7084 108.822 69.7912C108.951 70.2245 108.998 70.678 108.961 71.1286V71.9364C108.961 72.2092 108.934 72.5141 108.913 72.8137H110.122V70.7862C110.096 70.4492 110.148 70.1109 110.272 69.7965C110.332 69.7105 110.412 69.6402 110.505 69.5916C110.598 69.5431 110.702 69.5178 110.807 69.5178C110.912 69.5178 111.015 69.5431 111.108 69.5916C111.201 69.6402 111.282 69.7105 111.342 69.7965C111.467 70.1792 111.516 70.5826 111.486 70.9841V71.8294C111.486 72.1397 111.459 72.4553 111.433 72.8083H112.503H112.47Z" fill="white"/>
<path d="M115.883 72.8083H117.092V70.7862C117.067 70.4492 117.118 70.1109 117.242 69.7965C117.302 69.7105 117.382 69.6402 117.476 69.5916C117.569 69.5431 117.672 69.5177 117.777 69.5177C117.882 69.5177 117.986 69.5431 118.079 69.5916C118.172 69.6402 118.252 69.7105 118.312 69.7965C118.437 70.1792 118.486 70.5826 118.457 70.9841V71.8294C118.457 72.1396 118.457 72.4553 118.403 72.8083H119.612C119.612 72.5409 119.601 72.2841 119.58 72.038V70.8183C119.553 70.4571 119.494 70.0991 119.403 69.7484C119.366 69.566 119.285 69.3953 119.168 69.2509C119.06 69.1235 118.922 69.0244 118.767 68.962C118.561 68.8856 118.342 68.8538 118.124 68.8685C117.905 68.8833 117.692 68.9443 117.499 69.0476C117.277 69.1898 117.093 69.3845 116.964 69.6146C116.884 69.3942 116.733 69.2063 116.536 69.0797C116.329 68.9474 116.086 68.8804 115.841 68.8871C115.613 68.8806 115.387 68.9302 115.183 69.0315C114.973 69.1517 114.791 69.3138 114.648 69.5077V68.9727H113.514C113.514 69.4114 113.546 69.7912 113.551 70.1122C113.556 70.4331 113.551 70.6953 113.551 70.9092V71.7117C113.551 72.038 113.551 72.4232 113.514 72.8511H114.69V72.7762C114.69 72.466 114.664 72.2413 114.664 72.1182V70.7862C114.638 70.4475 114.689 70.1074 114.813 69.7912C114.859 69.7244 114.917 69.6672 114.985 69.623C115.053 69.5788 115.129 69.5483 115.208 69.5334C115.288 69.5185 115.369 69.5194 115.448 69.5361C115.528 69.5528 115.603 69.585 115.669 69.6307C115.733 69.6729 115.788 69.7275 115.83 69.7912C115.953 70.2255 116.001 70.6781 115.969 71.1286V71.9364C115.969 72.2092 115.899 72.5088 115.883 72.8083Z" fill="white"/>
<path d="M124.336 70.8718C124.354 70.5963 124.317 70.32 124.225 70.0596C124.133 69.7993 123.988 69.5605 123.801 69.3579C123.389 69.0319 122.871 68.8689 122.347 68.8998C121.823 68.9307 121.328 69.1534 120.957 69.5255C120.586 69.8976 120.365 70.3931 120.336 70.9176C120.307 71.4421 120.472 71.9589 120.8 72.3697C121.223 72.7147 121.752 72.9031 122.298 72.9031C122.843 72.9031 123.372 72.7147 123.795 72.3697C123.981 72.169 124.125 71.933 124.218 71.6757C124.311 71.4183 124.351 71.145 124.336 70.8718ZM122.945 72.1717C122.848 72.3432 122.687 72.4693 122.498 72.5225C122.308 72.5756 122.106 72.5515 121.934 72.4553C121.816 72.3879 121.718 72.2899 121.65 72.1717C121.496 71.7567 121.43 71.3138 121.458 70.8718C121.43 70.4263 121.496 69.9799 121.65 69.5612C121.697 69.4741 121.76 69.3973 121.837 69.3352C121.913 69.273 122.002 69.2269 122.096 69.1995C122.191 69.172 122.29 69.1639 122.388 69.1755C122.486 69.1871 122.581 69.2182 122.667 69.2669C122.79 69.3364 122.891 69.4381 122.961 69.5612C123.12 69.9771 123.187 70.4222 123.159 70.8665C123.187 71.3107 123.12 71.7558 122.961 72.1717H122.945Z" fill="white"/>
<path d="M127.38 69.7805C127.508 70.1459 127.557 70.5342 127.524 70.9199V71.9899C127.534 72.2652 127.519 72.5409 127.481 72.8137H128.685C128.685 72.6051 128.653 72.3857 128.642 72.161C128.631 71.9364 128.642 71.6956 128.642 71.4442V70.4224C128.652 70.1572 128.632 69.8916 128.583 69.6307C128.552 69.4866 128.486 69.3525 128.391 69.2402C128.28 69.1077 128.139 69.0047 127.979 68.9406C127.778 68.8674 127.565 68.8349 127.352 68.845C127.139 68.8552 126.93 68.9076 126.738 68.9995C126.526 69.1207 126.343 69.2868 126.203 69.4863V68.9513H125.101C125.122 69.2723 125.138 69.5933 125.149 69.9142V71.8133C125.149 72.1289 125.149 72.4713 125.101 72.8297H126.272C126.272 72.4071 126.272 72.0327 126.24 71.7117C126.224 71.4355 126.224 71.1587 126.24 70.8825C126.218 70.5308 126.273 70.1784 126.401 69.85C126.447 69.7643 126.515 69.6916 126.597 69.6388C126.68 69.586 126.774 69.5547 126.871 69.5478C126.969 69.5409 127.066 69.5586 127.155 69.5992C127.244 69.6399 127.321 69.7022 127.38 69.7805Z" fill="white"/>
<path d="M136.699 67.2983H136.324C136.158 67.983 135.976 68.6571 135.789 69.3204C135.602 69.9838 135.377 70.6418 135.152 71.2944C134.906 70.599 134.676 69.9196 134.457 69.2562C134.238 68.5929 134.04 67.9402 133.847 67.2983H133.029C132.815 67.9295 132.601 68.5822 132.371 69.2455C132.141 69.9089 131.905 70.6097 131.649 71.3479C131.44 70.6792 131.247 70.0052 131.065 69.3311C130.884 68.6571 130.712 67.9777 130.53 67.2983H129.156C129.487 68.2541 129.794 69.1956 130.076 70.1229C130.359 71.043 130.611 71.9524 130.846 72.8404H131.67C131.895 72.1504 132.119 71.4817 132.349 70.8237C132.579 70.1657 132.82 69.5344 133.061 68.9139C133.312 69.5986 133.548 70.2727 133.767 70.9253C133.986 71.5779 134.184 72.2145 134.371 72.8404H135.211C135.538 71.808 135.859 70.8344 136.164 69.9089C136.468 68.9834 136.763 68.1168 137.052 67.2983H136.699Z" fill="white"/>
<path d="M139.191 68.8229C138.932 68.8095 138.672 68.8501 138.429 68.9422C138.186 69.0342 137.965 69.1758 137.779 69.3579C137.599 69.5492 137.459 69.7746 137.367 70.0208C137.275 70.267 137.233 70.529 137.244 70.7916C137.211 71.3574 137.403 71.9134 137.779 72.3376C137.975 72.5251 138.208 72.6695 138.464 72.7616C138.719 72.8537 138.99 72.8915 139.261 72.8725C139.512 72.8728 139.762 72.8405 140.005 72.7762C140.218 72.7186 140.42 72.6264 140.604 72.5034L140.78 72.0434L140.705 71.9845C140.554 72.1072 140.385 72.2048 140.203 72.2734C140.031 72.3373 139.85 72.3699 139.668 72.3697C139.496 72.3753 139.326 72.3411 139.17 72.2696C139.014 72.1981 138.876 72.0914 138.769 71.9578C138.529 71.6382 138.41 71.2441 138.432 70.8451H140.919V70.5883C140.938 70.3479 140.908 70.1063 140.831 69.8775C140.755 69.6488 140.634 69.4376 140.475 69.2562C140.302 69.1002 140.099 68.9812 139.878 68.9067C139.657 68.8322 139.424 68.8037 139.191 68.8229ZM139.785 70.3689V70.4813H138.41V70.4064C138.39 70.089 138.459 69.7722 138.608 69.4916C138.66 69.3945 138.737 69.3133 138.831 69.2568C138.925 69.2002 139.033 69.1704 139.143 69.1706C139.241 69.1699 139.337 69.196 139.421 69.246C139.505 69.2959 139.574 69.3679 139.619 69.4542C139.743 69.7123 139.8 69.9974 139.785 70.2834C139.788 70.3118 139.788 70.3405 139.785 70.3689Z" fill="white"/>
<path d="M144.744 72.359C144.646 72.1621 144.607 71.941 144.632 71.7224V71.5672L144.659 70.155V70.1122C144.669 69.9328 144.639 69.7533 144.572 69.5868C144.504 69.4203 144.4 69.2709 144.268 69.1492C143.947 68.9043 143.548 68.7845 143.145 68.8122C142.892 68.8125 142.643 68.8654 142.412 68.9674C142.152 69.0843 141.912 69.2413 141.7 69.4328C141.727 69.5023 141.754 69.5719 141.775 69.6468C141.8 69.7512 141.834 69.8532 141.877 69.9517C141.983 69.77 142.123 69.6102 142.289 69.4809C142.437 69.3796 142.612 69.3255 142.792 69.3258C142.891 69.3248 142.99 69.3437 143.081 69.3813C143.173 69.419 143.257 69.4747 143.327 69.5451C143.398 69.6238 143.453 69.7158 143.489 69.8159C143.525 69.9159 143.541 70.0221 143.535 70.1282V70.2834C143.262 70.4405 142.969 70.5594 142.663 70.6364L142.251 70.7648C142.005 70.8349 141.783 70.9719 141.609 71.1607C141.465 71.3349 141.387 71.5549 141.39 71.7812C141.382 71.9312 141.404 72.0812 141.455 72.2227C141.505 72.3641 141.583 72.4941 141.684 72.6051C141.79 72.7085 141.916 72.789 142.054 72.8415C142.192 72.894 142.339 72.9173 142.487 72.91C142.709 72.9141 142.929 72.8587 143.123 72.7495C143.315 72.6444 143.474 72.489 143.583 72.3001C143.614 72.4696 143.703 72.623 143.835 72.7335C143.971 72.8384 144.14 72.8915 144.311 72.8832C144.455 72.8834 144.599 72.8672 144.739 72.8351C144.886 72.806 145.029 72.7612 145.167 72.7014V72.5034H145.135C145.063 72.5086 144.991 72.4984 144.924 72.4735C144.857 72.4486 144.795 72.4095 144.744 72.359ZM143.573 71.6154C143.585 71.8132 143.534 72.0097 143.428 72.1771C143.38 72.24 143.318 72.2903 143.246 72.3238C143.174 72.3573 143.095 72.3731 143.016 72.3697C142.944 72.3744 142.871 72.3612 142.805 72.3314C142.739 72.3016 142.681 72.2559 142.637 72.1985C142.545 72.0357 142.502 71.85 142.514 71.6635C142.506 71.5435 142.524 71.4233 142.567 71.3108C142.609 71.1983 142.675 71.0961 142.76 71.0109C142.995 70.8244 143.276 70.7044 143.573 70.6632V71.6154Z" fill="white"/>
<path d="M146.954 66.7206C146.842 66.7279 146.732 66.7422 146.622 66.7633H146.087C145.975 66.7633 145.868 66.7633 145.755 66.7206C145.755 67.1646 145.787 67.63 145.798 68.1328C145.809 68.6357 145.798 69.2027 145.798 69.7805V71.3854C145.798 71.8882 145.771 72.359 145.755 72.8137C145.853 72.796 145.951 72.7835 146.05 72.7763C146.258 72.7549 146.467 72.7549 146.676 72.7763C146.772 72.7835 146.869 72.796 146.964 72.8137C146.964 72.375 146.927 71.9043 146.916 71.4068C146.906 70.9093 146.916 70.3369 146.916 69.7538V68.1435C146.906 67.6086 146.932 67.1806 146.954 66.7206Z" fill="white"/>
<path d="M149.564 72.4713C149.489 72.4782 149.413 72.4599 149.349 72.4192C149.285 72.3785 149.237 72.3179 149.211 72.2466C149.13 71.8671 149.1 71.4786 149.12 71.0911V70.7648C149.12 70.5294 149.12 70.1282 149.147 69.5665V69.3793H149.949C149.944 69.3188 149.944 69.2579 149.949 69.1974V68.9834H149.163V68.2559C149.159 67.9968 149.172 67.7377 149.2 67.4802L149.109 67.416C148.938 67.5016 148.762 67.5818 148.575 67.6621L148.04 67.8867C148.033 68.0353 148.042 68.1841 148.066 68.3308C148.08 68.4427 148.08 68.5558 148.066 68.6678V68.978H147.531V69.0583C147.537 69.1027 147.537 69.1476 147.531 69.192V69.4007H148.066V71.8508C148.055 71.996 148.073 72.1422 148.12 72.2801C148.167 72.4181 148.241 72.5451 148.339 72.6532C148.446 72.7505 148.571 72.8253 148.707 72.8732C148.843 72.921 148.987 72.9408 149.131 72.9314C149.279 72.9324 149.426 72.9144 149.57 72.8779C149.739 72.8352 149.904 72.7761 150.062 72.7013V72.4232C149.898 72.459 149.731 72.4752 149.564 72.4713Z" fill="white"/>
<path d="M154.122 72.2092V70.4224C154.129 70.1608 154.11 69.899 154.063 69.6414C154.026 69.4942 153.957 69.3571 153.86 69.2402C153.75 69.1077 153.608 69.0047 153.448 68.9406C153.277 68.8767 153.096 68.8441 152.913 68.8443C152.664 68.8394 152.418 68.8964 152.196 69.0102C151.979 69.1332 151.795 69.3077 151.661 69.5184V67.4374C151.668 67.1974 151.69 66.958 151.725 66.7206L151.421 66.7687H150.853L150.538 66.7206C150.538 67.0629 150.581 67.4695 150.591 67.9403C150.602 68.411 150.591 69.0744 150.591 69.9196V71.7491C150.591 72.1718 150.565 72.5248 150.538 72.819H151.72C151.727 72.462 151.715 72.1048 151.683 71.7491C151.664 71.457 151.664 71.1639 151.683 70.8718C151.66 70.5201 151.715 70.1677 151.843 69.8393C151.895 69.7505 151.969 69.6761 152.057 69.6229C152.146 69.5696 152.246 69.5393 152.349 69.5345C152.452 69.5297 152.555 69.5507 152.647 69.5955C152.74 69.6403 152.821 69.7076 152.881 69.7912C153.005 70.1576 153.052 70.5453 153.02 70.9307V72.0006C153.03 72.2759 153.015 72.5516 152.977 72.8244H154.176C154.146 72.6205 154.129 72.4151 154.122 72.2092Z" fill="white"/>
<path d="M102.959 80.2014L102.493 76.3177H101.75C101.45 76.9864 101.151 77.6336 100.84 78.2649C100.53 78.8961 100.22 79.5113 99.899 80.1158C99.5673 79.4899 99.241 78.864 98.9307 78.2382C98.6204 77.6123 98.3101 76.965 98.0213 76.3177H97.3151L96.7802 80.1533C96.7595 80.3671 96.7273 80.5796 96.6839 80.7899C96.6357 81.0895 96.5769 81.4479 96.5127 81.8598L96.6839 81.8277H96.9888L97.1653 81.8598C97.1653 81.2446 97.2349 80.6241 97.3151 80.0142V79.95L97.5131 78.2649C97.8019 78.7999 98.0962 79.3723 98.4011 79.9714C98.706 80.5706 99.0056 81.2018 99.3212 81.8598H99.6636C99.9792 81.1911 100.289 80.5438 100.594 79.9286C100.899 79.3134 101.199 78.7143 101.504 78.1312L101.766 80.7203C101.766 80.8594 101.803 81.2072 101.825 81.7903V81.8705L102.173 81.8384H102.814L103.184 81.8652C103.141 81.6726 103.098 81.4586 103.061 81.2125C103.023 80.9664 103.007 80.6294 102.959 80.2014Z" fill="white"/>
<path d="M107.153 81.4158C107.057 81.2181 107.018 80.9977 107.041 80.7792V80.6241L107.067 79.2118V79.169C107.078 78.9896 107.048 78.8101 106.98 78.6436C106.913 78.4771 106.809 78.3277 106.677 78.2061C106.356 77.9611 105.956 77.8413 105.553 77.869C105.301 77.8693 105.051 77.9222 104.821 78.0242C104.56 78.1411 104.32 78.2981 104.109 78.4896C104.136 78.5538 104.163 78.6233 104.189 78.7036C104.216 78.7838 104.248 78.8801 104.286 79.0085C104.388 78.8222 104.53 78.6613 104.703 78.5377C104.848 78.4339 105.022 78.3795 105.2 78.3826C105.299 78.3812 105.397 78.3994 105.489 78.4361C105.581 78.4728 105.665 78.5274 105.735 78.5966C105.879 78.7578 105.954 78.9691 105.944 79.185V79.3241C105.673 79.4795 105.381 79.5966 105.077 79.6718L104.665 79.8056C104.418 79.8768 104.194 80.0135 104.018 80.2014C103.873 80.379 103.799 80.6038 103.809 80.8327C103.801 80.9836 103.822 81.1347 103.872 81.2771C103.923 81.4196 104.002 81.5504 104.104 81.6619C104.209 81.7653 104.335 81.8459 104.473 81.8983C104.611 81.9508 104.759 81.9741 104.906 81.9668C105.13 81.9703 105.352 81.915 105.548 81.8063C105.737 81.6975 105.894 81.5406 106.003 81.3516C106.027 81.5243 106.116 81.6811 106.253 81.7896C106.389 81.8981 106.562 81.9501 106.736 81.9347C106.878 81.934 107.019 81.9196 107.158 81.8919C107.305 81.8603 107.448 81.8156 107.586 81.7582V81.5549H107.56C107.486 81.5636 107.411 81.5556 107.34 81.5315C107.27 81.5074 107.206 81.4679 107.153 81.4158ZM105.981 80.6722C105.988 80.8609 105.937 81.0472 105.837 81.2072C105.789 81.27 105.726 81.3203 105.655 81.3539C105.583 81.3874 105.504 81.4031 105.425 81.3997C105.353 81.4039 105.281 81.3899 105.215 81.3591C105.15 81.3282 105.093 81.2815 105.051 81.2232C104.953 81.0628 104.908 80.8756 104.922 80.6882C104.915 80.5691 104.933 80.4497 104.975 80.3381C105.018 80.2264 105.084 80.1252 105.168 80.041C105.403 79.8545 105.684 79.7344 105.981 79.6932V80.6722Z" fill="white"/>
<path d="M111.31 81.4158C111.004 81.308 110.681 81.2555 110.357 81.2606H110.213C109.443 81.2606 109.063 81.0948 109.063 80.8487C109.058 80.7503 109.093 80.6541 109.159 80.581C109.225 80.5079 109.317 80.4637 109.416 80.4582H109.555C110.03 80.4853 110.502 80.3617 110.903 80.1051C111.059 79.9941 111.184 79.8459 111.268 79.674C111.353 79.5021 111.392 79.312 111.384 79.1208C111.389 78.9522 111.353 78.785 111.277 78.634C111.203 78.4949 111.095 78.377 110.962 78.2916H111.764V77.8958H111.037C110.746 77.8999 110.455 77.8892 110.165 77.8637L109.63 77.8316C109.194 77.806 108.763 77.9327 108.41 78.19C108.265 78.3007 108.148 78.4442 108.069 78.6088C107.99 78.7734 107.951 78.9543 107.955 79.1369C107.947 79.2774 107.966 79.4183 108.012 79.5514C108.058 79.6845 108.129 79.8072 108.223 79.9126C108.435 80.1265 108.711 80.2655 109.009 80.3084V80.4475C108.781 80.5364 108.575 80.6732 108.405 80.8487C108.336 80.9196 108.283 81.0034 108.247 81.0953C108.211 81.1871 108.194 81.2851 108.196 81.3837C108.191 81.5292 108.238 81.6716 108.33 81.7849C108.43 81.9028 108.565 81.9869 108.715 82.0256V82.0898C108.478 82.1611 108.264 82.294 108.094 82.475C107.954 82.642 107.881 82.856 107.891 83.0742C107.89 83.231 107.932 83.3851 108.012 83.5199C108.092 83.6547 108.208 83.7651 108.346 83.8391C108.735 84.0475 109.174 84.1438 109.614 84.1173C110.187 84.1449 110.753 83.977 111.219 83.6412C111.413 83.5022 111.571 83.3182 111.679 83.1049C111.787 82.8916 111.842 82.6553 111.839 82.4162C111.843 82.2172 111.797 82.0203 111.705 81.8438C111.623 81.662 111.484 81.5118 111.31 81.4158ZM109.218 78.4521C109.263 78.3738 109.327 78.3081 109.404 78.2613C109.481 78.2144 109.569 78.1879 109.66 78.1841C109.75 78.1804 109.84 78.1996 109.92 78.2399C110.001 78.2802 110.071 78.3403 110.122 78.4147C110.233 78.6153 110.283 78.844 110.266 79.0727C110.286 79.3515 110.236 79.6307 110.122 79.8858C110.033 80.0082 109.899 80.0904 109.75 80.1145C109.601 80.1385 109.448 80.1025 109.325 80.0142C109.277 79.9769 109.234 79.9338 109.196 79.8858C109.085 79.6584 109.035 79.4057 109.052 79.1529C109.037 78.908 109.094 78.6641 109.218 78.4521ZM110.529 83.5128C110.271 83.6785 109.968 83.7589 109.662 83.7428C109.389 83.7577 109.121 83.6677 108.913 83.4914C108.82 83.4073 108.746 83.3039 108.697 83.1884C108.648 83.0729 108.625 82.9481 108.629 82.8227C108.626 82.6724 108.665 82.5241 108.742 82.3948C108.814 82.2686 108.922 82.1664 109.052 82.1005L109.988 82.1487C110.22 82.1444 110.448 82.2158 110.636 82.352C110.707 82.4205 110.762 82.5041 110.797 82.5966C110.832 82.6891 110.847 82.7883 110.839 82.8869C110.844 83.009 110.819 83.1304 110.764 83.2399C110.71 83.3493 110.629 83.4433 110.529 83.5128Z" fill="white"/>
<path d="M115.402 81.4158C115.306 81.2181 115.268 80.9977 115.29 80.7792V79.1743C115.3 78.9949 115.27 78.8155 115.203 78.649C115.135 78.4825 115.031 78.333 114.899 78.2114C114.578 77.9664 114.179 77.8466 113.776 77.8744C113.523 77.8747 113.274 77.9275 113.043 78.0295C112.783 78.1464 112.543 78.3035 112.331 78.4949C112.331 78.5591 112.385 78.6287 112.412 78.7089C112.438 78.7892 112.47 78.8854 112.508 79.0138C112.61 78.8275 112.752 78.6666 112.925 78.5431C113.07 78.4392 113.244 78.3848 113.423 78.3879C113.522 78.3865 113.62 78.4047 113.712 78.4414C113.803 78.4782 113.887 78.5327 113.958 78.6019C114.103 78.7626 114.18 78.9738 114.172 79.1904V79.276C114.177 79.2934 114.177 79.312 114.172 79.3295C113.9 79.4849 113.609 79.6019 113.305 79.6772L112.893 79.8109C112.646 79.8821 112.422 80.0189 112.246 80.2068C112.101 80.3843 112.027 80.6091 112.037 80.838C112.028 80.9889 112.05 81.14 112.1 81.2825C112.151 81.4249 112.229 81.5557 112.331 81.6672C112.437 81.7707 112.563 81.8512 112.701 81.9037C112.839 81.9562 112.986 81.9795 113.134 81.9721C113.358 81.9757 113.579 81.9203 113.776 81.8117C113.965 81.7029 114.122 81.546 114.23 81.3569C114.254 81.5296 114.344 81.6864 114.48 81.795C114.617 81.9035 114.79 81.9554 114.963 81.94C115.105 81.9393 115.247 81.925 115.386 81.8972C115.532 81.8657 115.676 81.8209 115.814 81.7635V81.5602C115.739 81.5665 115.664 81.5568 115.593 81.5319C115.522 81.507 115.457 81.4675 115.402 81.4158ZM114.236 80.6722C114.239 80.8606 114.189 81.0461 114.091 81.2072C114.041 81.2682 113.977 81.3172 113.904 81.3505C113.832 81.3838 113.754 81.4007 113.674 81.3997C113.602 81.4039 113.53 81.3899 113.464 81.3591C113.399 81.3282 113.342 81.2815 113.3 81.2232C113.202 81.0628 113.157 80.8756 113.171 80.6882C113.166 80.5688 113.186 80.4496 113.229 80.3381C113.272 80.2267 113.338 80.1255 113.423 80.0409C113.656 79.8512 113.938 79.7307 114.236 79.6932V80.6722Z" fill="white"/>
<path d="M117.938 78.0135H116.333C116.338 78.0417 116.338 78.0708 116.333 78.0991C116.338 78.1453 116.338 78.1919 116.333 78.2382C116.338 78.2826 116.338 78.3275 116.333 78.3719V78.4575H116.424C116.898 78.4361 117.246 78.4254 117.467 78.4254H118.136L117.376 79.5862C116.734 80.5706 116.263 81.2874 115.958 81.7261V81.8545L116.782 81.8224H118.713L119.484 81.8545V81.3623C119.259 81.3623 119.029 81.3944 118.794 81.3997C118.558 81.4051 118.317 81.3997 118.071 81.3997H117.36L118.729 79.2599L119.521 78.0456V77.9867H118.788L117.938 78.0135Z" fill="white"/>
<path d="M121.404 77.9867H120.2C120.2 78.3344 120.233 78.6715 120.243 78.9871C120.254 79.3027 120.243 79.6183 120.243 79.9286V80.7845C120.249 81.1417 120.235 81.4989 120.2 81.8545L120.511 81.8224H121.099L121.404 81.8545C121.404 81.4425 121.372 81.0841 121.361 80.7845C121.351 80.485 121.361 80.1907 121.361 79.9233V78.9817C121.361 78.6608 121.383 78.3344 121.404 77.9867Z" fill="white"/>
<path d="M120.81 75.9057C120.648 75.8999 120.489 75.9583 120.369 76.0684C120.249 76.1785 120.177 76.3315 120.168 76.4942C120.166 76.5843 120.183 76.6739 120.218 76.7569C120.253 76.84 120.305 76.9146 120.372 76.9757C120.428 77.0337 120.495 77.0793 120.57 77.1097C120.644 77.1401 120.725 77.1546 120.805 77.1522C120.886 77.1611 120.969 77.1538 121.047 77.1307C121.125 77.1075 121.198 77.0689 121.262 77.0172C121.325 76.9655 121.377 76.9017 121.416 76.8295C121.454 76.7574 121.478 76.6783 121.485 76.5969C121.493 76.5155 121.484 76.4334 121.459 76.3555C121.435 76.2775 121.395 76.2052 121.342 76.1429C121.289 76.0805 121.224 76.0293 121.151 75.9923C121.078 75.9553 120.999 75.9331 120.917 75.9271H120.805L120.81 75.9057Z" fill="white"/>
<path d="M125.978 80.4957V79.4792C125.988 79.2122 125.968 78.9449 125.919 78.6822C125.888 78.5381 125.822 78.4039 125.727 78.2916C125.613 78.1621 125.47 78.0613 125.309 77.9974C125.139 77.9293 124.958 77.8948 124.774 77.8958C124.533 77.8922 124.294 77.9473 124.079 78.0563C123.867 78.1775 123.685 78.3436 123.544 78.5431V78.0081H122.405C122.426 78.3255 122.442 78.6465 122.453 78.971C122.463 79.2956 122.463 79.6219 122.453 79.95V80.8701C122.46 81.2096 122.444 81.5492 122.405 81.8865L122.715 81.8544H123.25L123.549 81.8865C123.549 81.4657 123.539 81.0912 123.517 80.7631V79.9126C123.495 79.5626 123.55 79.212 123.678 78.8854C123.725 78.7857 123.801 78.7029 123.897 78.6483C123.993 78.5937 124.103 78.57 124.213 78.5805C124.317 78.5657 124.424 78.5822 124.519 78.6279C124.614 78.6736 124.694 78.7465 124.748 78.8373C124.871 79.2037 124.919 79.5914 124.887 79.9768V81.0467C124.896 81.322 124.882 81.5977 124.844 81.8705L125.16 81.8384H125.727L126.048 81.8705C126.048 81.6619 126.015 81.4425 126.005 81.2179C125.994 80.9932 125.978 80.7471 125.978 80.4957Z" fill="white"/>
<path d="M128.733 77.8797C128.473 77.8665 128.212 77.9072 127.968 77.9992C127.724 78.0913 127.502 78.2327 127.315 78.4147C127.134 78.6053 126.994 78.8306 126.902 79.0769C126.81 79.3233 126.769 79.5857 126.78 79.8484C126.747 80.4142 126.939 80.9702 127.315 81.3944C127.513 81.5817 127.747 81.726 128.003 81.8181C128.259 81.9102 128.531 81.9481 128.803 81.9293C129.054 81.9296 129.304 81.8972 129.546 81.833C129.759 81.7754 129.962 81.6832 130.145 81.5602L130.322 81.1002L130.242 81.0413C130.093 81.1639 129.925 81.2615 129.744 81.3302C129.573 81.3941 129.392 81.4267 129.209 81.4265C129.036 81.4319 128.865 81.397 128.708 81.3246C128.551 81.2522 128.413 81.1442 128.305 81.0092C128.069 80.6877 127.952 80.2946 127.973 79.8965H130.456C130.461 79.8646 130.461 79.8321 130.456 79.8002C130.461 79.7469 130.461 79.6931 130.456 79.6397C130.488 79.1537 130.326 78.6747 130.006 78.3077C129.835 78.1518 129.634 78.0332 129.415 77.9595C129.196 77.8858 128.963 77.8586 128.733 77.8797ZM129.348 79.4257V79.5327H127.973V79.4632C127.956 79.1467 128.023 78.8312 128.166 78.5484C128.218 78.4521 128.296 78.3715 128.39 78.3151C128.484 78.2587 128.591 78.2284 128.701 78.2274C128.797 78.2272 128.892 78.2529 128.975 78.3018C129.057 78.3508 129.126 78.4212 129.172 78.5056C129.294 78.7661 129.349 79.053 129.332 79.3402L129.348 79.4257Z" fill="white"/>
<path d="M98.8397 49.955C99.2285 50.5658 99.5856 51.1961 99.9096 51.8434L100.98 50.811C100.439 50.2015 99.8246 49.6624 99.15 49.2061C99.3761 48.6883 99.5552 48.1511 99.685 47.6012L98.1389 47.2802C97.8164 49.1597 97.1722 50.9694 96.2345 52.6298L96.7695 53.0685C97.6019 52.1327 98.2988 51.0847 98.8397 49.955Z" fill="white"/>
<path d="M110.828 47.1251C110.346 45.9624 109.689 44.8801 108.881 43.9154L108.271 44.2203C108.678 45.3651 109.009 46.5357 109.261 47.7243L110.828 47.1251Z" fill="white"/>
<path d="M104.783 46.2478H101.391L102.156 45.1779C101.181 44.541 100.113 44.0591 98.9895 43.7495L98.7274 44.338C99.4659 44.926 100.165 45.5622 100.819 46.2424H96.5715V47.0984H104.783V46.2478Z" fill="white"/>
<path d="M100.022 56.8239V61.815H101.659V56.4654C102.338 57.2354 102.974 58.0427 103.563 58.8834L104.692 57.6263C103.765 56.8192 102.747 56.1227 101.659 55.5507V54.8445H104.82V53.9832H101.659V52.1911H101.338C101.813 51.5462 102.226 50.8585 102.574 50.1369C102.98 50.7087 103.338 51.3135 103.644 51.9451L104.537 51.1266C104.366 51.608 104.167 52.0795 103.943 52.5389L104.478 52.9347C104.767 52.5549 105.013 52.1376 105.297 51.715V61.7241H106.971V60.2529H113.39V59.3756H110.475V56.0803H112.684V55.2243H110.475V52.25H112.668V51.3941H110.475V48.8423H113.15V47.981H106.88C107.228 46.7941 107.457 45.5755 107.565 44.3433L105.832 44.001C105.548 46.7827 105.297 48.8423 104.649 50.7842C104.146 50.233 103.57 49.7525 102.937 49.3559C103.166 48.8206 103.345 48.2655 103.472 47.6975L101.926 47.3177C101.774 49.0153 101.302 50.6688 100.535 52.1911H100.043V53.9832H96.4538V54.8445H99.5993C98.7491 56.7642 97.5398 58.5037 96.0365 59.9694L96.4377 60.5044C97.8325 59.4896 99.0445 58.2451 100.022 56.8239ZM106.918 48.8423H108.758V51.3941H106.907L106.918 48.8423ZM106.918 52.25H108.758V55.2243H106.907L106.918 52.25ZM106.918 56.0803H108.758V59.3756H106.907L106.918 56.0803Z" fill="white"/>
<path d="M131.226 54.4059C130.207 53.5403 129.064 52.8333 127.834 52.3088L127.492 52.8438C128.413 53.7353 129.284 54.6764 130.103 55.663L131.226 54.4059Z" fill="white"/>
<path d="M128.15 51.3941H124.625V52.25H133.617V51.3941H129.862V48.0987H133.863V47.2374H129.862V44.0384H128.15V47.2374H124.223V48.0987H128.15V51.3941Z" fill="white"/>
<path d="M134.553 58.4234C133.911 57.0402 133.041 55.7744 131.98 54.6787L131.445 55.0371C132.086 56.3721 132.623 57.7546 133.05 59.1723L134.553 58.4234Z" fill="white"/>
<path d="M126.411 59.0493C126.411 61.1089 126.791 61.3175 129.578 61.3175C132.547 61.3175 132.398 60.0978 131.52 56.9736H130.835C130.835 59.5093 130.835 59.7554 129.461 59.7554C128.262 59.7554 128.091 59.5093 128.091 58.7443V54.0795H126.411V59.0493Z" fill="white"/>
<path d="M123.822 47.2374H121.062L122.051 46.4778C121.204 45.4721 120.217 44.593 119.12 43.8672L118.644 44.3433C119.082 44.9692 119.789 46.1515 120.414 47.2374H117.478V48.0987H123.822V47.2374Z" fill="white"/>
<path d="M121.768 61.4352H123.202V59.1295L124.48 60.0817C125.357 58.9209 125.796 57.2411 125.908 55.2243L125.24 55.0906C124.983 56.5557 124.27 57.9021 123.202 58.9369V55.1922H118.077V61.724H119.564V60.3332H121.757L121.768 61.4352ZM121.768 59.4719H119.596V56.0054H121.768V59.4719Z" fill="white"/>
<path d="M123.383 52.5175H118.029V53.3199H123.383V52.5175Z" fill="white"/>
<path d="M123.383 49.8855H118.029V50.6879H123.383V49.8855Z" fill="white"/>
<path d="M89.4085 60.5953L89.2426 60.5097C88.9949 60.3328 88.7251 60.1889 88.4402 60.0817C87.9962 59.9694 87.5254 60.0229 87.0814 59.9266C86.4555 59.7929 85.835 59.6377 85.2037 59.5414C84.4141 59.3913 83.6009 59.4187 82.8232 59.6217C82.4438 59.7092 82.0936 59.8935 81.8067 60.1566C81.6482 60.3902 81.5541 60.6615 81.5339 60.943C81.4696 61.2111 81.4373 61.4858 81.4376 61.7615C81.4743 62.7908 81.7805 63.7924 82.3257 64.6663C82.6005 65.1383 82.9155 65.5858 83.2672 66.0037C83.5891 66.4316 83.9628 66.818 84.3799 67.1539C84.7608 67.3692 85.0852 67.6717 85.3268 68.0365C85.5086 68.3308 85.5247 68.4164 85.8617 68.5715C86.4418 68.7415 87.044 68.8244 87.6485 68.8176C88.4464 68.8705 89.2479 68.8238 90.0344 68.6785C90.6175 68.5768 90.7245 68.1435 91.2006 67.8868C91.6767 67.63 91.8639 67.5872 92.0672 67.1004C92.9873 64.907 91.8532 63.04 90.5105 61.4566C90.1938 61.11 89.8213 60.8189 89.4085 60.5953Z" fill="white"/>
<path d="M140.67 2.83643L20.6699 122.836" stroke="#D60C18" stroke-width="3" stroke-linecap="square" stroke-linejoin="round"/>
<defs>
<linearGradient id="paint0_linear_737_2810" x1="160" y1="23.8561" x2="0.0216684" y2="26.002" gradientUnits="userSpaceOnUse">
<stop stop-color="#D60C18"/>
<stop offset="1" stop-color="#D60C18" stop-opacity="0"/>
</linearGradient>
</defs>
</svg>
