<svg width="140" height="50" viewBox="0 0 140 50" fill="none" xmlns="http://www.w3.org/2000/svg">
<rect x="0.5" y="0.5" width="139" height="49" stroke="#D3D5D7"/>
<path d="M20.28 25.584V26.224H29.64V25.584H20.28ZM19.56 28.016V28.672H30.12V28.016H19.56ZM22.68 24.24V28.368H23.416V24.24H22.68ZM26.36 24.24V28.368H27.08V24.24H26.36ZM25.848 29.344C27.16 29.952 28.456 30.736 29.208 31.408L29.88 30.992C29.064 30.336 27.672 29.568 26.392 28.976L25.848 29.344ZM23.192 28.96C22.392 29.696 21.112 30.432 19.96 30.928C20.168 31.04 20.456 31.296 20.6 31.44C21.704 30.896 23.032 30.032 23.912 29.2L23.192 28.96ZM20.536 19.344V19.952H23.688V21.232H20.536V21.856H24.376V19.344H20.536ZM25.672 19.36V19.968H28.856V21.248H25.672V21.872H29.576V19.36H25.672ZM25.352 19.36V22.688C25.352 23.6 25.576 23.904 26.472 23.904C26.696 23.904 28.6 23.904 28.984 23.904C29.416 23.904 29.832 23.888 30.04 23.84C30.008 23.68 29.976 23.424 29.96 23.232C29.704 23.28 29.24 23.296 28.952 23.296C28.616 23.296 26.84 23.296 26.488 23.296C26.104 23.296 26.024 23.168 26.024 22.704V19.36H25.352ZM20.2 24.288C20.44 24.144 20.872 24.032 24.616 23.328C24.6 23.184 24.584 22.944 24.6 22.752L20.584 23.424L20.184 23.712L20.2 24.288ZM20.2 24.288C20.2 24 20.904 23.584 20.904 23.584V19.344H20.232V22.752C20.232 23.344 20.024 23.504 19.864 23.584C19.976 23.776 20.136 24.096 20.2 24.288ZM16.2 19.136C16.904 19.92 17.768 21.024 18.184 21.68L18.808 21.264C18.376 20.624 17.512 19.584 16.792 18.8L16.2 19.136ZM15.8 22.336V23.024H18.696V22.336H15.8ZM18.28 29.888L17.768 30.176C18.984 32.576 21.176 32.976 25 32.976C26.696 32.976 28.728 32.944 30.152 32.848C30.2 32.64 30.28 32.256 30.424 32.064C28.872 32.192 26.68 32.256 24.984 32.256C21.592 32.256 19.352 31.952 18.28 29.888ZM18.648 26.384V26.544C18.232 29.488 17.096 31.568 15.56 32.688C15.736 32.8 15.976 33.072 16.104 33.248C17.688 32.016 18.904 29.808 19.4 26.512L18.984 26.368L18.84 26.384H18.648ZM15.992 27.264C16.104 27.168 16.504 27.056 16.888 27.056H18.856V26.384H16.504L15.992 26.624V27.264ZM15.992 27.264C15.992 27.024 16.68 26.688 16.68 26.688C17.432 25.696 18.68 23.552 19.304 22.48L18.728 22.256L18.456 22.368V22.416C18.04 23.232 16.744 25.552 16.328 26.032C16.12 26.32 15.864 26.416 15.656 26.48C15.752 26.656 15.944 27.056 15.992 27.264ZM31.896 20.592V21.344H37.304V20.592H31.896ZM34.184 20.944V28.736H34.952V20.944H34.184ZM31.624 29.296L31.928 30.048C33.464 29.504 35.592 28.736 37.624 28.016L37.496 27.312C35.32 28.064 33.064 28.848 31.624 29.296ZM37.304 19.488V20.192H46.296V19.488H37.304ZM38.904 25.216H44.92V27.088H38.904V25.216ZM38.904 27.728H44.92V29.632H38.904V27.728ZM38.904 22.72H44.92V24.576H38.904V22.72ZM38.168 22.048V30.288H45.688V22.048H38.168ZM41.416 19.776C41.272 20.544 41 21.664 40.744 22.368L41.464 22.528C41.736 21.856 42.024 20.816 42.28 19.936L41.416 19.776ZM39.912 30.72C39.128 31.424 37.464 32.208 36.072 32.656C36.232 32.8 36.472 33.056 36.584 33.216C37.992 32.752 39.64 31.952 40.648 31.136L39.912 30.72ZM42.696 31.184C43.848 31.76 45.256 32.64 45.96 33.232L46.568 32.752C45.832 32.144 44.424 31.296 43.304 30.752L42.696 31.184ZM47.752 25.344V26.192H62.296V25.344H47.752Z" fill="#D3D5D7"/>
<path d="M109.981 22.8H120.032C120.728 22.8 121.075 23.6398 120.583 24.132L115.56 29.1594C115.255 29.464 114.759 29.464 114.454 29.1594L109.431 24.132C108.938 23.6398 109.286 22.8 109.981 22.8V22.8Z" fill="#D3D5D7"/>
</svg>
