<svg width="140" height="50" viewBox="0 0 140 50" fill="none" xmlns="http://www.w3.org/2000/svg">
<rect x="0.5" y="0.5" width="139" height="49" stroke="#939EA7"/>
<path d="M21.592 20.032V20.688H30.168V20.032H21.592ZM21.992 21.904V22.528H29.864V21.904H21.992ZM21.448 23.84V24.512H30.296V23.84H21.448ZM25.416 18.656V24.192H26.152V18.656H25.416ZM28.52 25.648V32.24C28.52 32.416 28.472 32.48 28.264 32.48C28.056 32.496 27.416 32.496 26.6 32.464C26.728 32.672 26.824 32.96 26.872 33.152C27.848 33.152 28.472 33.152 28.824 33.04C29.16 32.912 29.256 32.688 29.256 32.224V25.648H28.52ZM22.872 27.744V28.384H28.968V27.744H22.872ZM22.872 29.84V30.464H28.968V29.84H22.872ZM22.504 25.648V28.64C22.504 29.952 22.392 31.616 21.432 32.896C21.608 32.976 21.88 33.248 21.976 33.408C23.048 32.048 23.24 30.096 23.24 28.64V25.648H22.504ZM22.92 25.648V26.304H28.84V25.648H22.92ZM16.136 23.328V24H20.712V23.328H16.136ZM16.632 27.664V28.352H19.96V31.536H16.632V32.224H20.664V27.664H16.632ZM16.264 27.664V33.008H16.968V27.664H16.264ZM16.152 25.504V26.176H20.744V25.504H16.152ZM15.784 21.376V22.064H21.224V21.376H15.784ZM17.816 18.896C18.12 19.568 18.472 20.464 18.616 21.04L19.304 20.768C19.144 20.208 18.792 19.328 18.456 18.672L17.816 18.896ZM36.28 25.584V26.224H45.64V25.584H36.28ZM35.56 28.016V28.672H46.12V28.016H35.56ZM38.68 24.24V28.368H39.416V24.24H38.68ZM42.36 24.24V28.368H43.08V24.24H42.36ZM41.848 29.344C43.16 29.952 44.456 30.736 45.208 31.408L45.88 30.992C45.064 30.336 43.672 29.568 42.392 28.976L41.848 29.344ZM39.192 28.96C38.392 29.696 37.112 30.432 35.96 30.928C36.168 31.04 36.456 31.296 36.6 31.44C37.704 30.896 39.032 30.032 39.912 29.2L39.192 28.96ZM36.536 19.344V19.952H39.688V21.232H36.536V21.856H40.376V19.344H36.536ZM41.672 19.36V19.968H44.856V21.248H41.672V21.872H45.576V19.36H41.672ZM41.352 19.36V22.688C41.352 23.6 41.576 23.904 42.472 23.904C42.696 23.904 44.6 23.904 44.984 23.904C45.416 23.904 45.832 23.888 46.04 23.84C46.008 23.68 45.976 23.424 45.96 23.232C45.704 23.28 45.24 23.296 44.952 23.296C44.616 23.296 42.84 23.296 42.488 23.296C42.104 23.296 42.024 23.168 42.024 22.704V19.36H41.352ZM36.2 24.288C36.44 24.144 36.872 24.032 40.616 23.328C40.6 23.184 40.584 22.944 40.6 22.752L36.584 23.424L36.184 23.712L36.2 24.288ZM36.2 24.288C36.2 24 36.904 23.584 36.904 23.584V19.344H36.232V22.752C36.232 23.344 36.024 23.504 35.864 23.584C35.976 23.776 36.136 24.096 36.2 24.288ZM32.2 19.136C32.904 19.92 33.768 21.024 34.184 21.68L34.808 21.264C34.376 20.624 33.512 19.584 32.792 18.8L32.2 19.136ZM31.8 22.336V23.024H34.696V22.336H31.8ZM34.28 29.888L33.768 30.176C34.984 32.576 37.176 32.976 41 32.976C42.696 32.976 44.728 32.944 46.152 32.848C46.2 32.64 46.28 32.256 46.424 32.064C44.872 32.192 42.68 32.256 40.984 32.256C37.592 32.256 35.352 31.952 34.28 29.888ZM34.648 26.384V26.544C34.232 29.488 33.096 31.568 31.56 32.688C31.736 32.8 31.976 33.072 32.104 33.248C33.688 32.016 34.904 29.808 35.4 26.512L34.984 26.368L34.84 26.384H34.648ZM31.992 27.264C32.104 27.168 32.504 27.056 32.888 27.056H34.856V26.384H32.504L31.992 26.624V27.264ZM31.992 27.264C31.992 27.024 32.68 26.688 32.68 26.688C33.432 25.696 34.68 23.552 35.304 22.48L34.728 22.256L34.456 22.368V22.416C34.04 23.232 32.744 25.552 32.328 26.032C32.12 26.32 31.864 26.416 31.656 26.48C31.752 26.656 31.944 27.056 31.992 27.264ZM59.048 19.904H61.048V21.968H59.048V19.904ZM56.408 19.904H58.392V21.968H56.408V19.904ZM53.864 19.904H55.736V21.968H53.864V19.904ZM53.176 19.28V22.608H61.736V19.28H53.176ZM53.352 23.728V24.4H61.368V23.728H53.352ZM52.616 25.76V26.432H61.928V25.76H52.616ZM52.936 28.144V28.816H61.608V28.144H52.936ZM52.44 30.208V30.864H62.152V30.208H52.44ZM56.952 22.368V26H57.704V22.368H56.952ZM56.952 28.384V33.184H57.704V28.384H56.952ZM54.6 26.64C54.904 27.136 55.208 27.824 55.32 28.272L56.008 28.032C55.896 27.6 55.56 26.944 55.272 26.464L54.6 26.64ZM59.4 26.432C59.208 26.976 58.792 27.808 58.488 28.336L59.08 28.544C59.432 28.064 59.816 27.328 60.168 26.656L59.4 26.432ZM47.672 27.072L47.912 27.824C49.16 27.392 50.776 26.8 52.328 26.208L52.232 25.488C50.536 26.096 48.808 26.688 47.672 27.072ZM47.8 22V22.736H52.392V22H47.8ZM49.896 18.672V32.08C49.896 32.288 49.816 32.352 49.624 32.368C49.432 32.368 48.776 32.384 48.008 32.352C48.12 32.576 48.232 32.896 48.264 33.104C49.272 33.104 49.832 33.088 50.152 32.944C50.504 32.832 50.648 32.576 50.648 32.064V18.672H49.896Z" fill="#48545D"/>
<path d="M109.981 22.8H120.032C120.728 22.8 121.075 23.6398 120.583 24.132L115.56 29.1594C115.255 29.464 114.759 29.464 114.454 29.1594L109.431 24.132C108.938 23.6398 109.286 22.8 109.981 22.8V22.8Z" fill="black"/>
</svg>
