<svg width="230" height="50" viewBox="0 0 230 50" fill="none" xmlns="http://www.w3.org/2000/svg">
<rect width="230" height="50" fill="#EEEEEE"/>
<path d="M20.768 6.528V7.102H28.272V6.528H20.768ZM21.118 8.166V8.712H28.006V8.166H21.118ZM20.642 9.86V10.448H28.384V9.86H20.642ZM24.114 5.324V10.168H24.758V5.324H24.114ZM26.83 11.442V17.21C26.83 17.364 26.788 17.42 26.606 17.42C26.424 17.434 25.864 17.434 25.15 17.406C25.262 17.588 25.346 17.84 25.388 18.008C26.242 18.008 26.788 18.008 27.096 17.91C27.39 17.798 27.474 17.602 27.474 17.196V11.442H26.83ZM21.888 13.276V13.836H27.222V13.276H21.888ZM21.888 15.11V15.656H27.222V15.11H21.888ZM21.566 11.442V14.06C21.566 15.208 21.468 16.664 20.628 17.784C20.782 17.854 21.02 18.092 21.104 18.232C22.042 17.042 22.21 15.334 22.21 14.06V11.442H21.566ZM21.93 11.442V12.016H27.11V11.442H21.93ZM15.994 9.412V10H19.998V9.412H15.994ZM16.428 13.206V13.808H19.34V16.594H16.428V17.196H19.956V13.206H16.428ZM16.106 13.206V17.882H16.722V13.206H16.106ZM16.008 11.316V11.904H20.026V11.316H16.008ZM15.686 7.704V8.306H20.446V7.704H15.686ZM17.464 5.534C17.73 6.122 18.038 6.906 18.164 7.41L18.766 7.172C18.626 6.682 18.318 5.912 18.024 5.338L17.464 5.534ZM36.686 8.81V9.37H40.578V8.81H36.686ZM35.874 12.534V13.108H38.142V12.534H35.874ZM35.818 14.606V15.18H38.1V14.606H35.818ZM39.57 10.784V15.81H40.116V10.784H39.57ZM37.932 10.532V17.196C37.932 17.336 37.89 17.364 37.75 17.378C37.624 17.378 37.176 17.392 36.644 17.378C36.742 17.532 36.826 17.784 36.854 17.938C37.526 17.938 37.932 17.938 38.184 17.826C38.436 17.728 38.506 17.546 38.506 17.196V10.532H37.932ZM41.264 10.322V17.126C41.264 17.294 41.208 17.336 41.054 17.35C40.872 17.35 40.326 17.35 39.64 17.336C39.738 17.504 39.822 17.742 39.85 17.896C40.69 17.896 41.18 17.896 41.474 17.798C41.754 17.686 41.838 17.504 41.838 17.126V10.322H41.264ZM38.562 5.226C37.792 6.696 36.364 8.138 34.88 8.936C35.034 9.048 35.23 9.258 35.342 9.398C36.868 8.516 38.324 7.018 39.15 5.436L38.562 5.226ZM38.786 5.73L38.254 5.926C39.262 7.466 40.508 8.502 41.964 9.384C42.076 9.188 42.272 8.992 42.426 8.866C41.012 8.082 39.752 7.144 38.786 5.73ZM35.804 10.532V11.106H38.086V10.532H35.804ZM35.538 10.532V13.472C35.538 14.732 35.44 16.384 34.684 17.616C34.824 17.7 35.034 17.91 35.132 18.022C35.972 16.678 36.112 14.844 36.112 13.486V10.532H35.538ZM29.812 6.906V7.536H34.796V6.906H29.812ZM29.672 14.928V15.544H34.838V14.928H29.672ZM32.052 5.324V9.104H32.654V5.324H32.052ZM32.08 9.034V13.206H32.038V18.022H32.668V13.206H32.626V9.034H32.08ZM30.722 11.484H33.942V13.108H30.722V11.484ZM30.722 9.328H33.942V10.938H30.722V9.328ZM30.134 8.754V13.682H34.516V8.754H30.134ZM46.164 6.22V6.892H50.126V6.22H46.164ZM49.776 6.22C49.776 8.712 50.14 14.508 55.894 17.994C56.02 17.84 56.3 17.574 56.454 17.462C50.728 14.032 50.448 8.614 50.448 6.22H49.776ZM49.496 8.768C48.572 12.884 46.794 15.768 43.574 17.476C43.756 17.616 44.064 17.882 44.19 18.022C47.382 16.16 49.216 13.248 50.238 8.908L49.496 8.768ZM64.3458 17.196C65.4098 17.196 66.1238 16.832 66.7258 16.454L66.4038 15.852C65.8438 16.244 65.2278 16.496 64.4298 16.496C62.8058 16.496 61.7278 15.222 61.6998 13.416H66.9918C67.0198 13.22 67.0338 13.024 67.0338 12.828C67.0338 10.644 65.9418 9.356 64.1358 9.356C62.4558 9.356 60.8598 10.854 60.8598 13.29C60.8598 15.74 62.4138 17.196 64.3458 17.196ZM61.6858 12.772C61.8538 11.05 62.9318 10.042 64.1498 10.042C65.4518 10.042 66.2778 10.966 66.2778 12.772H61.6858ZM68.3758 13.486H71.8198V12.8H68.3758V13.486ZM73.8079 17H74.6339V11.414C75.4179 10.532 76.1319 10.084 76.7899 10.084C77.8819 10.084 78.3999 10.798 78.3999 12.338V17H79.1979V11.414C80.0099 10.532 80.6959 10.084 81.3539 10.084C82.4599 10.084 82.9779 10.798 82.9779 12.338V17H83.7899V12.226C83.7899 10.308 83.0339 9.356 81.5499 9.356C80.6819 9.356 79.8699 9.944 79.0299 10.854C78.7639 9.944 78.1619 9.356 76.9719 9.356C76.1179 9.356 75.2919 9.93 74.6199 10.686H74.5919L74.4939 9.538H73.8079V17ZM88.12 17.196C89.086 17.196 89.982 16.664 90.724 16.062H90.766L90.85 17H91.536V12.268C91.536 10.616 90.892 9.356 89.114 9.356C87.896 9.356 86.86 9.93 86.3 10.322L86.65 10.924C87.182 10.532 88.022 10.056 89.016 10.056C90.43 10.056 90.738 11.204 90.71 12.31C87.42 12.688 85.95 13.472 85.95 15.124C85.95 16.51 86.93 17.196 88.12 17.196ZM88.288 16.496C87.462 16.496 86.776 16.104 86.776 15.082C86.776 13.948 87.77 13.248 90.71 12.926V15.348C89.842 16.104 89.114 16.496 88.288 16.496ZM94.1243 17H94.9503V9.538H94.1243V17ZM94.5443 7.788C94.9223 7.788 95.1883 7.536 95.1883 7.102C95.1883 6.724 94.9223 6.458 94.5443 6.458C94.1663 6.458 93.9003 6.724 93.9003 7.102C93.9003 7.536 94.1663 7.788 94.5443 7.788ZM98.714 17.196C98.98 17.196 99.12 17.154 99.274 17.112L99.148 16.454C98.994 16.482 98.938 16.482 98.868 16.482C98.672 16.482 98.546 16.328 98.546 15.978V5.884H97.72V15.894C97.72 16.762 98.042 17.196 98.714 17.196Z" fill="#48545D"/>
<rect y="49" width="230" height="1" fill="#48545D"/>
<path d="M20.1797 28.3047L16.2422 39H15.2422L19.5391 27.625H20.2344L20.1797 28.3047ZM23.7578 39L19.8125 28.3047L19.7578 27.625H20.4531L24.7578 39H23.7578ZM23.0547 34.9844V35.8125H17.0156V34.9844H23.0547ZM30.3594 33.5312H27.1562L27.1406 32.7188H29.8984C30.4609 32.7188 30.9401 32.638 31.3359 32.4766C31.7318 32.3151 32.0312 32.0755 32.2344 31.7578C32.4427 31.4349 32.5469 31.0391 32.5469 30.5703C32.5469 30.0911 32.4453 29.6953 32.2422 29.3828C32.0391 29.0651 31.7344 28.8307 31.3281 28.6797C30.9219 28.5286 30.4115 28.4531 29.7969 28.4531H27.4062V39H26.4453V27.625H29.7969C30.375 27.625 30.8932 27.6823 31.3516 27.7969C31.8099 27.9115 32.2005 28.0911 32.5234 28.3359C32.8464 28.5807 33.0911 28.8906 33.2578 29.2656C33.4297 29.6354 33.5156 30.0781 33.5156 30.5938C33.5156 31.0625 33.4115 31.487 33.2031 31.8672C32.9948 32.2422 32.7005 32.5495 32.3203 32.7891C31.9453 33.0234 31.4948 33.1693 30.9688 33.2266L30.3594 33.5312ZM30.2891 39H26.8516L27.3438 38.1797H30.2891C30.8516 38.1797 31.3307 38.0859 31.7266 37.8984C32.1276 37.7057 32.4349 37.4323 32.6484 37.0781C32.862 36.724 32.9688 36.3021 32.9688 35.8125C32.9688 35.3802 32.875 34.9922 32.6875 34.6484C32.5 34.3047 32.2135 34.0339 31.8281 33.8359C31.4427 33.6328 30.9531 33.5312 30.3594 33.5312H28.3672L28.3828 32.7188H31.2031L31.375 33.0078C31.8854 33.0599 32.3307 33.2188 32.7109 33.4844C33.0964 33.7448 33.3932 34.0755 33.6016 34.4766C33.8151 34.8776 33.9219 35.3177 33.9219 35.7969C33.9219 36.4844 33.7682 37.0677 33.4609 37.5469C33.1589 38.0208 32.7344 38.3828 32.1875 38.6328C31.6458 38.8776 31.013 39 30.2891 39ZM43.3438 35.4531H44.3047C44.2266 36.2188 44.0156 36.8802 43.6719 37.4375C43.3281 37.9896 42.8594 38.4141 42.2656 38.7109C41.6719 39.0078 40.9557 39.1562 40.1172 39.1562C39.4714 39.1562 38.8854 39.0339 38.3594 38.7891C37.8385 38.5443 37.3906 38.1979 37.0156 37.75C36.6406 37.2969 36.3516 36.7552 36.1484 36.125C35.9453 35.4948 35.8438 34.7943 35.8438 34.0234V32.6016C35.8438 31.8307 35.9453 31.1328 36.1484 30.5078C36.3516 29.8776 36.6432 29.3359 37.0234 28.8828C37.4036 28.4297 37.8594 28.0807 38.3906 27.8359C38.9219 27.5911 39.5208 27.4688 40.1875 27.4688C40.9948 27.4688 41.6927 27.6172 42.2812 27.9141C42.8698 28.2057 43.3333 28.6276 43.6719 29.1797C44.0156 29.7318 44.2266 30.3984 44.3047 31.1797H43.3438C43.2708 30.5651 43.1094 30.0443 42.8594 29.6172C42.6094 29.1901 42.263 28.8646 41.8203 28.6406C41.3828 28.4115 40.8385 28.2969 40.1875 28.2969C39.6562 28.2969 39.1823 28.3984 38.7656 28.6016C38.349 28.8047 37.9948 29.0964 37.7031 29.4766C37.4115 29.8516 37.1875 30.3021 37.0312 30.8281C36.8802 31.3542 36.8047 31.9401 36.8047 32.5859V34.0234C36.8047 34.6484 36.8776 35.224 37.0234 35.75C37.1693 36.276 37.3828 36.7318 37.6641 37.1172C37.9505 37.5026 38.2995 37.8021 38.7109 38.0156C39.1224 38.2292 39.5911 38.3359 40.1172 38.3359C40.7891 38.3359 41.349 38.2292 41.7969 38.0156C42.25 37.7969 42.6016 37.474 42.8516 37.0469C43.1016 36.6198 43.2656 36.0885 43.3438 35.4531ZM49.7578 39H47.1797L47.1953 38.1797H49.7578C50.5755 38.1797 51.2786 37.9974 51.8672 37.6328C52.4609 37.263 52.9193 36.7526 53.2422 36.1016C53.5651 35.4505 53.7266 34.6953 53.7266 33.8359V32.7734C53.7266 32.1172 53.6328 31.5234 53.4453 30.9922C53.263 30.4609 53 30.0078 52.6562 29.6328C52.3125 29.2526 51.901 28.9609 51.4219 28.7578C50.9479 28.5547 50.4167 28.4531 49.8281 28.4531H47.1328V27.625H49.8281C50.5365 27.625 51.1849 27.7474 51.7734 27.9922C52.3672 28.2318 52.8802 28.5807 53.3125 29.0391C53.75 29.4922 54.0859 30.0365 54.3203 30.6719C54.5599 31.3073 54.6797 32.0156 54.6797 32.7969V33.8359C54.6797 34.6172 54.5599 35.3255 54.3203 35.9609C54.0859 36.5964 53.75 37.1406 53.3125 37.5938C52.875 38.0469 52.3568 38.3958 51.7578 38.6406C51.1589 38.8802 50.4922 39 49.7578 39ZM47.6094 27.625V39H46.6484V27.625H47.6094ZM64.2031 38.1797V39H57.8047V38.1797H64.2031ZM58.0938 27.625V39H57.1328V27.625H58.0938ZM63.4062 32.7266V33.5469H57.8047V32.7266H63.4062ZM64.1641 27.625V28.4531H57.8047V27.625H64.1641ZM67.2031 27.625V39H66.2422V27.625H67.2031ZM72.5 32.8594V33.6875H66.8828V32.8594H72.5ZM73.2891 27.625V28.4531H66.8828V27.625H73.2891ZM83.4453 33.5938V37.6406C83.3151 37.8333 83.0911 38.0469 82.7734 38.2812C82.4557 38.5156 82.0286 38.7214 81.4922 38.8984C80.9557 39.0703 80.2891 39.1562 79.4922 39.1562C78.8255 39.1562 78.2135 39.0365 77.6562 38.7969C77.099 38.5573 76.6146 38.2109 76.2031 37.7578C75.7969 37.2995 75.4818 36.75 75.2578 36.1094C75.0391 35.4688 74.9297 34.75 74.9297 33.9531V32.5781C74.9297 31.7969 75.0312 31.0938 75.2344 30.4688C75.4375 29.8385 75.7318 29.2995 76.1172 28.8516C76.5026 28.4036 76.9661 28.0625 77.5078 27.8281C78.0547 27.5885 78.6667 27.4688 79.3438 27.4688C80.1875 27.4688 80.8984 27.6146 81.4766 27.9062C82.0547 28.1979 82.5052 28.599 82.8281 29.1094C83.1562 29.6146 83.3594 30.1875 83.4375 30.8281H82.4766C82.4036 30.375 82.2526 29.9583 82.0234 29.5781C81.7943 29.1927 81.4609 28.8828 81.0234 28.6484C80.5911 28.4141 80.0312 28.2969 79.3438 28.2969C78.7917 28.2969 78.2995 28.3984 77.8672 28.6016C77.4401 28.8047 77.0807 29.0938 76.7891 29.4688C76.4974 29.8438 76.276 30.2943 76.125 30.8203C75.974 31.3411 75.8984 31.9219 75.8984 32.5625V33.9531C75.8984 34.6198 75.9818 35.2214 76.1484 35.7578C76.3203 36.2943 76.5651 36.7552 76.8828 37.1406C77.2005 37.526 77.5807 37.8229 78.0234 38.0312C78.4661 38.2344 78.9583 38.3359 79.5 38.3359C80.0781 38.3359 80.5703 38.2812 80.9766 38.1719C81.3828 38.0625 81.7083 37.9323 81.9531 37.7812C82.2031 37.625 82.3828 37.4792 82.4922 37.3438V34.4141H79.4375V33.5938H83.4453ZM98.4375 34.9922C98.4167 35.4818 98.3438 35.9714 98.2188 36.4609C98.099 36.9505 97.9167 37.401 97.6719 37.8125C97.4323 38.2188 97.1224 38.5443 96.7422 38.7891C96.3672 39.0339 95.9167 39.1562 95.3906 39.1562C95.0573 39.1562 94.763 39.0964 94.5078 38.9766C94.2578 38.8568 94.0495 38.6849 93.8828 38.4609C93.7161 38.237 93.599 37.9661 93.5312 37.6484C93.4635 37.3255 93.4453 36.9661 93.4766 36.5703L93.8672 32.1172H94.6562L94.2656 36.5703C94.2292 36.987 94.2474 37.3229 94.3203 37.5781C94.3932 37.8281 94.4974 38.0208 94.6328 38.1562C94.7682 38.2865 94.9115 38.375 95.0625 38.4219C95.2188 38.4635 95.3594 38.4844 95.4844 38.4844C95.8333 38.4844 96.1406 38.3958 96.4062 38.2188C96.6719 38.0417 96.8984 37.7943 97.0859 37.4766C97.2734 37.1589 97.4193 36.7891 97.5234 36.3672C97.6276 35.9453 97.6901 35.487 97.7109 34.9922C97.7474 34.2057 97.7109 33.4818 97.6016 32.8203C97.4974 32.1589 97.3125 31.5703 97.0469 31.0547C96.7812 30.5339 96.4349 30.0938 96.0078 29.7344C95.5807 29.375 95.0677 29.1016 94.4688 28.9141C93.875 28.7266 93.1901 28.6328 92.4141 28.6328C91.7422 28.6328 91.112 28.7344 90.5234 28.9375C89.9401 29.1354 89.4089 29.4271 88.9297 29.8125C88.4505 30.1927 88.0339 30.6536 87.6797 31.1953C87.3307 31.737 87.0521 32.3516 86.8438 33.0391C86.6406 33.7214 86.5208 34.4635 86.4844 35.2656C86.4479 36.0417 86.4948 36.7656 86.625 37.4375C86.7552 38.1094 86.9635 38.7161 87.25 39.2578C87.5365 39.7995 87.8984 40.263 88.3359 40.6484C88.7734 41.0339 89.2812 41.3281 89.8594 41.5312C90.4427 41.7344 91.0938 41.8359 91.8125 41.8359C92.2708 41.8359 92.7344 41.7786 93.2031 41.6641C93.6771 41.5547 94.0729 41.4062 94.3906 41.2188L94.625 41.8438C94.2812 42.0729 93.8385 42.2448 93.2969 42.3594C92.7552 42.4792 92.25 42.5391 91.7812 42.5391C90.9896 42.5391 90.2656 42.4297 89.6094 42.2109C88.9583 41.9974 88.3802 41.6823 87.875 41.2656C87.375 40.8542 86.9583 40.3516 86.625 39.7578C86.2917 39.1693 86.0469 38.4974 85.8906 37.7422C85.7344 36.987 85.6745 36.1615 85.7109 35.2656C85.7474 34.3906 85.8776 33.5755 86.1016 32.8203C86.3307 32.0651 86.6406 31.388 87.0312 30.7891C87.4219 30.1849 87.888 29.6667 88.4297 29.2344C88.9714 28.8021 89.5781 28.4714 90.25 28.2422C90.9271 28.013 91.6589 27.8984 92.4453 27.8984C93.2786 27.8984 94.0234 28.0052 94.6797 28.2188C95.3411 28.4323 95.9141 28.7422 96.3984 29.1484C96.888 29.5495 97.2891 30.0391 97.6016 30.6172C97.9141 31.1953 98.1406 31.8516 98.2812 32.5859C98.4219 33.3203 98.474 34.1224 98.4375 34.9922ZM89.9844 35.6641C89.9427 36.0651 89.9401 36.4323 89.9766 36.7656C90.0182 37.099 90.0964 37.388 90.2109 37.6328C90.3255 37.8724 90.4792 38.0599 90.6719 38.1953C90.8646 38.3255 91.0938 38.3906 91.3594 38.3906C91.5573 38.3906 91.763 38.3542 91.9766 38.2812C92.1901 38.2031 92.3958 38.0755 92.5938 37.8984C92.7969 37.7214 92.987 37.4792 93.1641 37.1719C93.3411 36.8594 93.4922 36.4661 93.6172 35.9922L94 36.4688C93.875 36.9115 93.7161 37.2995 93.5234 37.6328C93.3359 37.9661 93.1198 38.2474 92.875 38.4766C92.6354 38.7005 92.3724 38.8698 92.0859 38.9844C91.8047 39.099 91.5052 39.1562 91.1875 39.1562C90.8229 39.1562 90.5026 39.0729 90.2266 38.9062C89.9505 38.7396 89.724 38.5026 89.5469 38.1953C89.375 37.888 89.2552 37.5208 89.1875 37.0938C89.1198 36.6667 89.1094 36.1901 89.1562 35.6641C89.2031 35.1276 89.2969 34.6328 89.4375 34.1797C89.5833 33.7214 89.7604 33.3151 89.9688 32.9609C90.1823 32.6016 90.4245 32.2969 90.6953 32.0469C90.9714 31.7969 91.2656 31.6068 91.5781 31.4766C91.8906 31.3411 92.2161 31.2734 92.5547 31.2734C93.0807 31.2734 93.4948 31.3594 93.7969 31.5312C94.099 31.6979 94.3854 31.8932 94.6562 32.1172L94.125 32.6328C93.9688 32.4557 93.763 32.3047 93.5078 32.1797C93.2578 32.0547 92.9583 31.9922 92.6094 31.9922C92.2917 31.9922 91.9896 32.0677 91.7031 32.2188C91.4167 32.3646 91.1536 32.5911 90.9141 32.8984C90.6797 33.2005 90.4818 33.5807 90.3203 34.0391C90.1589 34.4974 90.0469 35.0391 89.9844 35.6641ZM106.164 30.5469H107.031V38.8516C107.031 39.5859 106.891 40.2161 106.609 40.7422C106.333 41.2682 105.94 41.6719 105.43 41.9531C104.924 42.2344 104.328 42.375 103.641 42.375C103.292 42.375 102.932 42.3203 102.562 42.2109C102.198 42.1068 101.852 41.9453 101.523 41.7266C101.201 41.513 100.924 41.2474 100.695 40.9297L101.219 40.3594C101.562 40.776 101.93 41.0807 102.32 41.2734C102.711 41.4714 103.133 41.5703 103.586 41.5703C104.122 41.5703 104.576 41.4635 104.945 41.25C105.32 41.0365 105.604 40.7292 105.797 40.3281C105.995 39.9271 106.094 39.4453 106.094 38.8828V32.4062L106.164 30.5469ZM100.227 34.8594V34.6953C100.227 34.0391 100.299 33.4479 100.445 32.9219C100.596 32.3906 100.812 31.9375 101.094 31.5625C101.375 31.1823 101.716 30.8932 102.117 30.6953C102.523 30.4922 102.982 30.3906 103.492 30.3906C103.982 30.3906 104.417 30.4714 104.797 30.6328C105.177 30.7943 105.505 31.026 105.781 31.3281C106.057 31.6302 106.279 31.9896 106.445 32.4062C106.617 32.8229 106.742 33.2865 106.82 33.7969V35.8828C106.758 36.362 106.643 36.8021 106.477 37.2031C106.31 37.599 106.089 37.9453 105.812 38.2422C105.536 38.5339 105.203 38.7604 104.812 38.9219C104.427 39.0781 103.982 39.1562 103.477 39.1562C102.971 39.1562 102.518 39.0521 102.117 38.8438C101.716 38.6354 101.375 38.3411 101.094 37.9609C100.812 37.5755 100.596 37.1198 100.445 36.5938C100.299 36.0677 100.227 35.4896 100.227 34.8594ZM101.164 34.6953V34.8594C101.164 35.3542 101.214 35.8125 101.312 36.2344C101.411 36.6562 101.562 37.0234 101.766 37.3359C101.969 37.6484 102.227 37.8932 102.539 38.0703C102.852 38.2474 103.219 38.3359 103.641 38.3359C104.177 38.3359 104.628 38.2344 104.992 38.0312C105.357 37.8229 105.646 37.5495 105.859 37.2109C106.073 36.8672 106.229 36.4922 106.328 36.0859V33.6562C106.271 33.3802 106.182 33.099 106.062 32.8125C105.948 32.526 105.786 32.263 105.578 32.0234C105.375 31.7786 105.115 31.5833 104.797 31.4375C104.484 31.2865 104.104 31.2109 103.656 31.2109C103.229 31.2109 102.857 31.2995 102.539 31.4766C102.227 31.6536 101.969 31.901 101.766 32.2188C101.562 32.5312 101.411 32.8984 101.312 33.3203C101.214 33.7422 101.164 34.2005 101.164 34.6953ZM110.359 32.2969V39H109.422V30.5469H110.32L110.359 32.2969ZM110.188 34.25L109.734 34.0156C109.766 33.5156 109.859 33.0469 110.016 32.6094C110.177 32.1719 110.401 31.7865 110.688 31.4531C110.974 31.1198 111.318 30.8594 111.719 30.6719C112.12 30.4844 112.576 30.3906 113.086 30.3906C113.497 30.3906 113.87 30.4479 114.203 30.5625C114.542 30.6719 114.828 30.8464 115.062 31.0859C115.302 31.3203 115.487 31.6276 115.617 32.0078C115.747 32.388 115.812 32.8438 115.812 33.375V39H114.883V33.4062C114.883 32.8438 114.794 32.4036 114.617 32.0859C114.445 31.7682 114.203 31.5417 113.891 31.4062C113.583 31.2708 113.227 31.2031 112.82 31.2031C112.341 31.2031 111.935 31.3021 111.602 31.5C111.273 31.6927 111.005 31.9453 110.797 32.2578C110.594 32.5651 110.443 32.8958 110.344 33.25C110.245 33.599 110.193 33.9323 110.188 34.25ZM115.805 33.5156L115.18 33.5312C115.206 33.1198 115.299 32.7266 115.461 32.3516C115.628 31.9766 115.854 31.6432 116.141 31.3516C116.427 31.0547 116.768 30.8203 117.164 30.6484C117.565 30.4766 118.016 30.3906 118.516 30.3906C118.953 30.3906 119.344 30.4505 119.688 30.5703C120.031 30.6849 120.32 30.8698 120.555 31.125C120.794 31.375 120.977 31.6953 121.102 32.0859C121.227 32.4766 121.289 32.9453 121.289 33.4922V39H120.352V33.4844C120.352 32.8854 120.263 32.4219 120.086 32.0938C119.914 31.7604 119.674 31.5286 119.367 31.3984C119.06 31.2682 118.701 31.2031 118.289 31.2031C117.883 31.2083 117.526 31.2839 117.219 31.4297C116.911 31.5703 116.654 31.7578 116.445 31.9922C116.242 32.2214 116.086 32.4688 115.977 32.7344C115.872 33 115.815 33.2604 115.805 33.5156ZM128.805 37.4844V33.125C128.805 32.724 128.721 32.3776 128.555 32.0859C128.388 31.7943 128.143 31.5703 127.82 31.4141C127.497 31.2578 127.099 31.1797 126.625 31.1797C126.188 31.1797 125.797 31.2578 125.453 31.4141C125.115 31.5651 124.846 31.7708 124.648 32.0312C124.456 32.2865 124.359 32.5703 124.359 32.8828L123.422 32.875C123.422 32.5573 123.5 32.25 123.656 31.9531C123.812 31.6562 124.034 31.3906 124.32 31.1562C124.607 30.9219 124.948 30.737 125.344 30.6016C125.745 30.4609 126.185 30.3906 126.664 30.3906C127.268 30.3906 127.799 30.4922 128.258 30.6953C128.721 30.8984 129.083 31.2031 129.344 31.6094C129.604 32.0156 129.734 32.526 129.734 33.1406V37.2266C129.734 37.5182 129.755 37.8203 129.797 38.1328C129.844 38.4453 129.909 38.7031 129.992 38.9062V39H129C128.938 38.8125 128.888 38.5781 128.852 38.2969C128.82 38.0104 128.805 37.7396 128.805 37.4844ZM129.023 34.0781L129.039 34.7969H127.203C126.724 34.7969 126.294 34.8411 125.914 34.9297C125.539 35.013 125.221 35.138 124.961 35.3047C124.701 35.4661 124.5 35.6615 124.359 35.8906C124.224 36.1198 124.156 36.3802 124.156 36.6719C124.156 36.974 124.232 37.25 124.383 37.5C124.539 37.75 124.758 37.9505 125.039 38.1016C125.326 38.2474 125.664 38.3203 126.055 38.3203C126.576 38.3203 127.034 38.224 127.43 38.0312C127.831 37.8385 128.161 37.5859 128.422 37.2734C128.682 36.9609 128.857 36.6198 128.945 36.25L129.352 36.7891C129.284 37.0495 129.159 37.3177 128.977 37.5938C128.799 37.8646 128.568 38.1198 128.281 38.3594C127.995 38.5938 127.656 38.7865 127.266 38.9375C126.88 39.0833 126.443 39.1562 125.953 39.1562C125.401 39.1562 124.919 39.0521 124.508 38.8438C124.102 38.6354 123.784 38.3516 123.555 37.9922C123.331 37.6276 123.219 37.2161 123.219 36.7578C123.219 36.3411 123.307 35.9688 123.484 35.6406C123.661 35.3073 123.917 35.026 124.25 34.7969C124.589 34.5625 124.995 34.3854 125.469 34.2656C125.948 34.1406 126.484 34.0781 127.078 34.0781H129.023ZM133.281 30.5469V39H132.352V30.5469H133.281ZM132.188 28.1016C132.188 27.9245 132.242 27.776 132.352 27.6562C132.466 27.5312 132.622 27.4688 132.82 27.4688C133.018 27.4688 133.174 27.5312 133.289 27.6562C133.409 27.776 133.469 27.9245 133.469 28.1016C133.469 28.2734 133.409 28.4219 133.289 28.5469C133.174 28.6667 133.018 28.7266 132.82 28.7266C132.622 28.7266 132.466 28.6667 132.352 28.5469C132.242 28.4219 132.188 28.2734 132.188 28.1016ZM136.875 27V39H135.945V27H136.875ZM139.344 38.4297C139.344 38.2474 139.401 38.0938 139.516 37.9688C139.635 37.8385 139.797 37.7734 140 37.7734C140.208 37.7734 140.372 37.8359 140.492 37.9609C140.612 38.0859 140.672 38.2422 140.672 38.4297C140.672 38.6068 140.612 38.7578 140.492 38.8828C140.372 39.0078 140.208 39.0703 140 39.0703C139.797 39.0703 139.635 39.0078 139.516 38.8828C139.401 38.7578 139.344 38.6068 139.344 38.4297ZM146.375 38.3516C146.771 38.3516 147.141 38.2786 147.484 38.1328C147.833 37.9818 148.12 37.7604 148.344 37.4688C148.573 37.1719 148.703 36.8099 148.734 36.3828H149.625C149.599 36.9193 149.435 37.3984 149.133 37.8203C148.836 38.237 148.445 38.5651 147.961 38.8047C147.482 39.0391 146.953 39.1562 146.375 39.1562C145.786 39.1562 145.266 39.0495 144.812 38.8359C144.365 38.6224 143.99 38.3255 143.688 37.9453C143.385 37.5599 143.156 37.112 143 36.6016C142.849 36.0859 142.773 35.5312 142.773 34.9375V34.6094C142.773 34.0156 142.849 33.4635 143 32.9531C143.156 32.4375 143.385 31.9896 143.688 31.6094C143.99 31.224 144.365 30.9245 144.812 30.7109C145.26 30.4974 145.779 30.3906 146.367 30.3906C146.971 30.3906 147.513 30.513 147.992 30.7578C148.477 31.0026 148.862 31.349 149.148 31.7969C149.44 32.2448 149.599 32.776 149.625 33.3906H148.734C148.708 32.9375 148.589 32.5469 148.375 32.2188C148.161 31.8906 147.88 31.638 147.531 31.4609C147.182 31.2839 146.794 31.1953 146.367 31.1953C145.888 31.1953 145.479 31.2891 145.141 31.4766C144.802 31.6589 144.526 31.9115 144.312 32.2344C144.104 32.5521 143.951 32.9167 143.852 33.3281C143.753 33.7344 143.703 34.1615 143.703 34.6094V34.9375C143.703 35.3906 143.75 35.8229 143.844 36.2344C143.943 36.6406 144.096 37.0026 144.305 37.3203C144.518 37.638 144.794 37.8906 145.133 38.0781C145.477 38.2604 145.891 38.3516 146.375 38.3516ZM150.992 34.9062V34.6484C150.992 34.0339 151.081 33.4661 151.258 32.9453C151.435 32.4245 151.688 31.974 152.016 31.5938C152.349 31.2135 152.747 30.9193 153.211 30.7109C153.674 30.4974 154.19 30.3906 154.758 30.3906C155.331 30.3906 155.849 30.4974 156.312 30.7109C156.776 30.9193 157.174 31.2135 157.508 31.5938C157.841 31.974 158.096 32.4245 158.273 32.9453C158.451 33.4661 158.539 34.0339 158.539 34.6484V34.9062C158.539 35.5208 158.451 36.0885 158.273 36.6094C158.096 37.125 157.841 37.5729 157.508 37.9531C157.18 38.3333 156.784 38.6302 156.32 38.8438C155.857 39.0521 155.341 39.1562 154.773 39.1562C154.201 39.1562 153.682 39.0521 153.219 38.8438C152.755 38.6302 152.357 38.3333 152.023 37.9531C151.69 37.5729 151.435 37.125 151.258 36.6094C151.081 36.0885 150.992 35.5208 150.992 34.9062ZM151.922 34.6484V34.9062C151.922 35.3698 151.984 35.8099 152.109 36.2266C152.234 36.638 152.417 37.0052 152.656 37.3281C152.896 37.6458 153.193 37.8958 153.547 38.0781C153.901 38.2604 154.31 38.3516 154.773 38.3516C155.232 38.3516 155.635 38.2604 155.984 38.0781C156.339 37.8958 156.635 37.6458 156.875 37.3281C157.115 37.0052 157.294 36.638 157.414 36.2266C157.539 35.8099 157.602 35.3698 157.602 34.9062V34.6484C157.602 34.1901 157.539 33.7552 157.414 33.3438C157.294 32.9323 157.112 32.5651 156.867 32.2422C156.628 31.9193 156.331 31.6641 155.977 31.4766C155.622 31.2891 155.216 31.1953 154.758 31.1953C154.299 31.1953 153.893 31.2891 153.539 31.4766C153.19 31.6641 152.893 31.9193 152.648 32.2422C152.409 32.5651 152.227 32.9323 152.102 33.3438C151.982 33.7552 151.922 34.1901 151.922 34.6484ZM161.359 32.2969V39H160.422V30.5469H161.32L161.359 32.2969ZM161.188 34.25L160.734 34.0156C160.766 33.5156 160.859 33.0469 161.016 32.6094C161.177 32.1719 161.401 31.7865 161.688 31.4531C161.974 31.1198 162.318 30.8594 162.719 30.6719C163.12 30.4844 163.576 30.3906 164.086 30.3906C164.497 30.3906 164.87 30.4479 165.203 30.5625C165.542 30.6719 165.828 30.8464 166.062 31.0859C166.302 31.3203 166.487 31.6276 166.617 32.0078C166.747 32.388 166.812 32.8438 166.812 33.375V39H165.883V33.4062C165.883 32.8438 165.794 32.4036 165.617 32.0859C165.445 31.7682 165.203 31.5417 164.891 31.4062C164.583 31.2708 164.227 31.2031 163.82 31.2031C163.341 31.2031 162.935 31.3021 162.602 31.5C162.273 31.6927 162.005 31.9453 161.797 32.2578C161.594 32.5651 161.443 32.8958 161.344 33.25C161.245 33.599 161.193 33.9323 161.188 34.25ZM166.805 33.5156L166.18 33.5312C166.206 33.1198 166.299 32.7266 166.461 32.3516C166.628 31.9766 166.854 31.6432 167.141 31.3516C167.427 31.0547 167.768 30.8203 168.164 30.6484C168.565 30.4766 169.016 30.3906 169.516 30.3906C169.953 30.3906 170.344 30.4505 170.688 30.5703C171.031 30.6849 171.32 30.8698 171.555 31.125C171.794 31.375 171.977 31.6953 172.102 32.0859C172.227 32.4766 172.289 32.9453 172.289 33.4922V39H171.352V33.4844C171.352 32.8854 171.263 32.4219 171.086 32.0938C170.914 31.7604 170.674 31.5286 170.367 31.3984C170.06 31.2682 169.701 31.2031 169.289 31.2031C168.883 31.2083 168.526 31.2839 168.219 31.4297C167.911 31.5703 167.654 31.7578 167.445 31.9922C167.242 32.2214 167.086 32.4688 166.977 32.7344C166.872 33 166.815 33.2604 166.805 33.5156Z" fill="black"/>
</svg>
