<svg width="230" height="50" viewBox="0 0 230 50" fill="none" xmlns="http://www.w3.org/2000/svg">
<rect width="230" height="50" fill="#EEEEEE"/>
<path d="M20.768 6.528V7.102H28.272V6.528H20.768ZM21.118 8.166V8.712H28.006V8.166H21.118ZM20.642 9.86V10.448H28.384V9.86H20.642ZM24.114 5.324V10.168H24.758V5.324H24.114ZM26.83 11.442V17.21C26.83 17.364 26.788 17.42 26.606 17.42C26.424 17.434 25.864 17.434 25.15 17.406C25.262 17.588 25.346 17.84 25.388 18.008C26.242 18.008 26.788 18.008 27.096 17.91C27.39 17.798 27.474 17.602 27.474 17.196V11.442H26.83ZM21.888 13.276V13.836H27.222V13.276H21.888ZM21.888 15.11V15.656H27.222V15.11H21.888ZM21.566 11.442V14.06C21.566 15.208 21.468 16.664 20.628 17.784C20.782 17.854 21.02 18.092 21.104 18.232C22.042 17.042 22.21 15.334 22.21 14.06V11.442H21.566ZM21.93 11.442V12.016H27.11V11.442H21.93ZM15.994 9.412V10H19.998V9.412H15.994ZM16.428 13.206V13.808H19.34V16.594H16.428V17.196H19.956V13.206H16.428ZM16.106 13.206V17.882H16.722V13.206H16.106ZM16.008 11.316V11.904H20.026V11.316H16.008ZM15.686 7.704V8.306H20.446V7.704H15.686ZM17.464 5.534C17.73 6.122 18.038 6.906 18.164 7.41L18.766 7.172C18.626 6.682 18.318 5.912 18.024 5.338L17.464 5.534ZM36.686 8.81V9.37H40.578V8.81H36.686ZM35.874 12.534V13.108H38.142V12.534H35.874ZM35.818 14.606V15.18H38.1V14.606H35.818ZM39.57 10.784V15.81H40.116V10.784H39.57ZM37.932 10.532V17.196C37.932 17.336 37.89 17.364 37.75 17.378C37.624 17.378 37.176 17.392 36.644 17.378C36.742 17.532 36.826 17.784 36.854 17.938C37.526 17.938 37.932 17.938 38.184 17.826C38.436 17.728 38.506 17.546 38.506 17.196V10.532H37.932ZM41.264 10.322V17.126C41.264 17.294 41.208 17.336 41.054 17.35C40.872 17.35 40.326 17.35 39.64 17.336C39.738 17.504 39.822 17.742 39.85 17.896C40.69 17.896 41.18 17.896 41.474 17.798C41.754 17.686 41.838 17.504 41.838 17.126V10.322H41.264ZM38.562 5.226C37.792 6.696 36.364 8.138 34.88 8.936C35.034 9.048 35.23 9.258 35.342 9.398C36.868 8.516 38.324 7.018 39.15 5.436L38.562 5.226ZM38.786 5.73L38.254 5.926C39.262 7.466 40.508 8.502 41.964 9.384C42.076 9.188 42.272 8.992 42.426 8.866C41.012 8.082 39.752 7.144 38.786 5.73ZM35.804 10.532V11.106H38.086V10.532H35.804ZM35.538 10.532V13.472C35.538 14.732 35.44 16.384 34.684 17.616C34.824 17.7 35.034 17.91 35.132 18.022C35.972 16.678 36.112 14.844 36.112 13.486V10.532H35.538ZM29.812 6.906V7.536H34.796V6.906H29.812ZM29.672 14.928V15.544H34.838V14.928H29.672ZM32.052 5.324V9.104H32.654V5.324H32.052ZM32.08 9.034V13.206H32.038V18.022H32.668V13.206H32.626V9.034H32.08ZM30.722 11.484H33.942V13.108H30.722V11.484ZM30.722 9.328H33.942V10.938H30.722V9.328ZM30.134 8.754V13.682H34.516V8.754H30.134ZM46.164 6.22V6.892H50.126V6.22H46.164ZM49.776 6.22C49.776 8.712 50.14 14.508 55.894 17.994C56.02 17.84 56.3 17.574 56.454 17.462C50.728 14.032 50.448 8.614 50.448 6.22H49.776ZM49.496 8.768C48.572 12.884 46.794 15.768 43.574 17.476C43.756 17.616 44.064 17.882 44.19 18.022C47.382 16.16 49.216 13.248 50.238 8.908L49.496 8.768ZM64.3458 17.196C65.4098 17.196 66.1238 16.832 66.7258 16.454L66.4038 15.852C65.8438 16.244 65.2278 16.496 64.4298 16.496C62.8058 16.496 61.7278 15.222 61.6998 13.416H66.9918C67.0198 13.22 67.0338 13.024 67.0338 12.828C67.0338 10.644 65.9418 9.356 64.1358 9.356C62.4558 9.356 60.8598 10.854 60.8598 13.29C60.8598 15.74 62.4138 17.196 64.3458 17.196ZM61.6858 12.772C61.8538 11.05 62.9318 10.042 64.1498 10.042C65.4518 10.042 66.2778 10.966 66.2778 12.772H61.6858ZM68.3758 13.486H71.8198V12.8H68.3758V13.486ZM73.8079 17H74.6339V11.414C75.4179 10.532 76.1319 10.084 76.7899 10.084C77.8819 10.084 78.3999 10.798 78.3999 12.338V17H79.1979V11.414C80.0099 10.532 80.6959 10.084 81.3539 10.084C82.4599 10.084 82.9779 10.798 82.9779 12.338V17H83.7899V12.226C83.7899 10.308 83.0339 9.356 81.5499 9.356C80.6819 9.356 79.8699 9.944 79.0299 10.854C78.7639 9.944 78.1619 9.356 76.9719 9.356C76.1179 9.356 75.2919 9.93 74.6199 10.686H74.5919L74.4939 9.538H73.8079V17ZM88.12 17.196C89.086 17.196 89.982 16.664 90.724 16.062H90.766L90.85 17H91.536V12.268C91.536 10.616 90.892 9.356 89.114 9.356C87.896 9.356 86.86 9.93 86.3 10.322L86.65 10.924C87.182 10.532 88.022 10.056 89.016 10.056C90.43 10.056 90.738 11.204 90.71 12.31C87.42 12.688 85.95 13.472 85.95 15.124C85.95 16.51 86.93 17.196 88.12 17.196ZM88.288 16.496C87.462 16.496 86.776 16.104 86.776 15.082C86.776 13.948 87.77 13.248 90.71 12.926V15.348C89.842 16.104 89.114 16.496 88.288 16.496ZM94.1243 17H94.9503V9.538H94.1243V17ZM94.5443 7.788C94.9223 7.788 95.1883 7.536 95.1883 7.102C95.1883 6.724 94.9223 6.458 94.5443 6.458C94.1663 6.458 93.9003 6.724 93.9003 7.102C93.9003 7.536 94.1663 7.788 94.5443 7.788ZM98.714 17.196C98.98 17.196 99.12 17.154 99.274 17.112L99.148 16.454C98.994 16.482 98.938 16.482 98.868 16.482C98.672 16.482 98.546 16.328 98.546 15.978V5.884H97.72V15.894C97.72 16.762 98.042 17.196 98.714 17.196Z" fill="#003A9F"/>
<rect y="49" width="230" height="1" fill="#003A9F"/>
<rect x="15" y="26" width="1" height="16" fill="black"/>
</svg>
