<svg width="230" height="61" viewBox="0 0 230 61" fill="none" xmlns="http://www.w3.org/2000/svg">
<rect x="0.5" y="11.5" width="229" height="49" stroke="#D3D5D7"/>
<path d="M21.592 31.032V31.688H30.168V31.032H21.592ZM21.992 32.904V33.528H29.864V32.904H21.992ZM21.448 34.84V35.512H30.296V34.84H21.448ZM25.416 29.656V35.192H26.152V29.656H25.416ZM28.52 36.648V43.24C28.52 43.416 28.472 43.48 28.264 43.48C28.056 43.496 27.416 43.496 26.6 43.464C26.728 43.672 26.824 43.96 26.872 44.152C27.848 44.152 28.472 44.152 28.824 44.04C29.16 43.912 29.256 43.688 29.256 43.224V36.648H28.52ZM22.872 38.744V39.384H28.968V38.744H22.872ZM22.872 40.84V41.464H28.968V40.84H22.872ZM22.504 36.648V39.64C22.504 40.952 22.392 42.616 21.432 43.896C21.608 43.976 21.88 44.248 21.976 44.408C23.048 43.048 23.24 41.096 23.24 39.64V36.648H22.504ZM22.92 36.648V37.304H28.84V36.648H22.92ZM16.136 34.328V35H20.712V34.328H16.136ZM16.632 38.664V39.352H19.96V42.536H16.632V43.224H20.664V38.664H16.632ZM16.264 38.664V44.008H16.968V38.664H16.264ZM16.152 36.504V37.176H20.744V36.504H16.152ZM15.784 32.376V33.064H21.224V32.376H15.784ZM17.816 29.896C18.12 30.568 18.472 31.464 18.616 32.04L19.304 31.768C19.144 31.208 18.792 30.328 18.456 29.672L17.816 29.896ZM39.784 33.64V34.28H44.232V33.64H39.784ZM38.856 37.896V38.552H41.448V37.896H38.856ZM38.792 40.264V40.92H41.4V40.264H38.792ZM43.08 35.896V41.64H43.704V35.896H43.08ZM41.208 35.608V43.224C41.208 43.384 41.16 43.416 41 43.432C40.856 43.432 40.344 43.448 39.736 43.432C39.848 43.608 39.944 43.896 39.976 44.072C40.744 44.072 41.208 44.072 41.496 43.944C41.784 43.832 41.864 43.624 41.864 43.224V35.608H41.208ZM45.016 35.368V43.144C45.016 43.336 44.952 43.384 44.776 43.4C44.568 43.4 43.944 43.4 43.16 43.384C43.272 43.576 43.368 43.848 43.4 44.024C44.36 44.024 44.92 44.024 45.256 43.912C45.576 43.784 45.672 43.576 45.672 43.144V35.368H45.016ZM41.928 29.544C41.048 31.224 39.416 32.872 37.72 33.784C37.896 33.912 38.12 34.152 38.248 34.312C39.992 33.304 41.656 31.592 42.6 29.784L41.928 29.544ZM42.184 30.12L41.576 30.344C42.728 32.104 44.152 33.288 45.816 34.296C45.944 34.072 46.168 33.848 46.344 33.704C44.728 32.808 43.288 31.736 42.184 30.12ZM38.776 35.608V36.264H41.384V35.608H38.776ZM38.472 35.608V38.968C38.472 40.408 38.36 42.296 37.496 43.704C37.656 43.8 37.896 44.04 38.008 44.168C38.968 42.632 39.128 40.536 39.128 38.984V35.608H38.472ZM31.928 31.464V32.184H37.624V31.464H31.928ZM31.768 40.632V41.336H37.672V40.632H31.768ZM34.488 29.656V33.976H35.176V29.656H34.488ZM34.52 33.896V38.664H34.472V44.168H35.192V38.664H35.144V33.896H34.52ZM32.968 36.696H36.648V38.552H32.968V36.696ZM32.968 34.232H36.648V36.072H32.968V34.232ZM32.296 33.576V39.208H37.304V33.576H32.296ZM50.616 30.68V31.448H55.144V30.68H50.616ZM54.744 30.68C54.744 33.528 55.16 40.152 61.736 44.136C61.88 43.96 62.2 43.656 62.376 43.528C55.832 39.608 55.512 33.416 55.512 30.68H54.744ZM54.424 33.592C53.368 38.296 51.336 41.592 47.656 43.544C47.864 43.704 48.216 44.008 48.36 44.168C52.008 42.04 54.104 38.712 55.272 33.752L54.424 33.592ZM71.3953 43.224C72.6113 43.224 73.4273 42.808 74.1153 42.376L73.7473 41.688C73.1073 42.136 72.4033 42.424 71.4913 42.424C69.6353 42.424 68.4033 40.968 68.3713 38.904H74.4193C74.4513 38.68 74.4673 38.456 74.4673 38.232C74.4673 35.736 73.2193 34.264 71.1553 34.264C69.2353 34.264 67.4113 35.976 67.4113 38.76C67.4113 41.56 69.1873 43.224 71.3953 43.224ZM68.3553 38.168C68.5473 36.2 69.7793 35.048 71.1713 35.048C72.6593 35.048 73.6033 36.104 73.6033 38.168H68.3553ZM76.0009 38.984H79.9369V38.2H76.0009V38.984ZM82.209 43H83.153V36.616C84.049 35.608 84.865 35.096 85.617 35.096C86.865 35.096 87.457 35.912 87.457 37.672V43H88.369V36.616C89.297 35.608 90.081 35.096 90.833 35.096C92.097 35.096 92.689 35.912 92.689 37.672V43H93.617V37.544C93.617 35.352 92.753 34.264 91.057 34.264C90.065 34.264 89.137 34.936 88.177 35.976C87.873 34.936 87.185 34.264 85.825 34.264C84.849 34.264 83.905 34.92 83.137 35.784H83.105L82.993 34.472H82.209V43ZM98.5658 43.224C99.6698 43.224 100.694 42.616 101.542 41.928H101.59L101.686 43H102.47V37.592C102.47 35.704 101.734 34.264 99.7018 34.264C98.3098 34.264 97.1258 34.92 96.4858 35.368L96.8858 36.056C97.4938 35.608 98.4538 35.064 99.5898 35.064C101.206 35.064 101.558 36.376 101.526 37.64C97.7658 38.072 96.0858 38.968 96.0858 40.856C96.0858 42.44 97.2057 43.224 98.5658 43.224ZM98.7578 42.424C97.8138 42.424 97.0298 41.976 97.0298 40.808C97.0298 39.512 98.1658 38.712 101.526 38.344V41.112C100.534 41.976 99.7018 42.424 98.7578 42.424ZM105.428 43H106.372V34.472H105.428V43ZM105.908 32.472C106.34 32.472 106.644 32.184 106.644 31.688C106.644 31.256 106.34 30.952 105.908 30.952C105.476 30.952 105.172 31.256 105.172 31.688C105.172 32.184 105.476 32.472 105.908 32.472ZM110.673 43.224C110.977 43.224 111.137 43.176 111.313 43.128L111.169 42.376C110.993 42.408 110.929 42.408 110.849 42.408C110.625 42.408 110.481 42.232 110.481 41.832V30.296H109.537V41.736C109.537 42.728 109.905 43.224 110.673 43.224Z" fill="#D3D5D7"/>
</svg>
