<svg width="230" height="50" viewBox="0 0 230 50" fill="none" xmlns="http://www.w3.org/2000/svg">
<rect width="230" height="50" fill="#EEEEEE"/>
<path d="M21.592 20.032V20.688H30.168V20.032H21.592ZM21.992 21.904V22.528H29.864V21.904H21.992ZM21.448 23.84V24.512H30.296V23.84H21.448ZM25.416 18.656V24.192H26.152V18.656H25.416ZM28.52 25.648V32.24C28.52 32.416 28.472 32.48 28.264 32.48C28.056 32.496 27.416 32.496 26.6 32.464C26.728 32.672 26.824 32.96 26.872 33.152C27.848 33.152 28.472 33.152 28.824 33.04C29.16 32.912 29.256 32.688 29.256 32.224V25.648H28.52ZM22.872 27.744V28.384H28.968V27.744H22.872ZM22.872 29.84V30.464H28.968V29.84H22.872ZM22.504 25.648V28.64C22.504 29.952 22.392 31.616 21.432 32.896C21.608 32.976 21.88 33.248 21.976 33.408C23.048 32.048 23.24 30.096 23.24 28.64V25.648H22.504ZM22.92 25.648V26.304H28.84V25.648H22.92ZM16.136 23.328V24H20.712V23.328H16.136ZM16.632 27.664V28.352H19.96V31.536H16.632V32.224H20.664V27.664H16.632ZM16.264 27.664V33.008H16.968V27.664H16.264ZM16.152 25.504V26.176H20.744V25.504H16.152ZM15.784 21.376V22.064H21.224V21.376H15.784ZM17.816 18.896C18.12 19.568 18.472 20.464 18.616 21.04L19.304 20.768C19.144 20.208 18.792 19.328 18.456 18.672L17.816 18.896ZM39.784 22.64V23.28H44.232V22.64H39.784ZM38.856 26.896V27.552H41.448V26.896H38.856ZM38.792 29.264V29.92H41.4V29.264H38.792ZM43.08 24.896V30.64H43.704V24.896H43.08ZM41.208 24.608V32.224C41.208 32.384 41.16 32.416 41 32.432C40.856 32.432 40.344 32.448 39.736 32.432C39.848 32.608 39.944 32.896 39.976 33.072C40.744 33.072 41.208 33.072 41.496 32.944C41.784 32.832 41.864 32.624 41.864 32.224V24.608H41.208ZM45.016 24.368V32.144C45.016 32.336 44.952 32.384 44.776 32.4C44.568 32.4 43.944 32.4 43.16 32.384C43.272 32.576 43.368 32.848 43.4 33.024C44.36 33.024 44.92 33.024 45.256 32.912C45.576 32.784 45.672 32.576 45.672 32.144V24.368H45.016ZM41.928 18.544C41.048 20.224 39.416 21.872 37.72 22.784C37.896 22.912 38.12 23.152 38.248 23.312C39.992 22.304 41.656 20.592 42.6 18.784L41.928 18.544ZM42.184 19.12L41.576 19.344C42.728 21.104 44.152 22.288 45.816 23.296C45.944 23.072 46.168 22.848 46.344 22.704C44.728 21.808 43.288 20.736 42.184 19.12ZM38.776 24.608V25.264H41.384V24.608H38.776ZM38.472 24.608V27.968C38.472 29.408 38.36 31.296 37.496 32.704C37.656 32.8 37.896 33.04 38.008 33.168C38.968 31.632 39.128 29.536 39.128 27.984V24.608H38.472ZM31.928 20.464V21.184H37.624V20.464H31.928ZM31.768 29.632V30.336H37.672V29.632H31.768ZM34.488 18.656V22.976H35.176V18.656H34.488ZM34.52 22.896V27.664H34.472V33.168H35.192V27.664H35.144V22.896H34.52ZM32.968 25.696H36.648V27.552H32.968V25.696ZM32.968 23.232H36.648V25.072H32.968V23.232ZM32.296 22.576V28.208H37.304V22.576H32.296ZM50.616 19.68V20.448H55.144V19.68H50.616ZM54.744 19.68C54.744 22.528 55.16 29.152 61.736 33.136C61.88 32.96 62.2 32.656 62.376 32.528C55.832 28.608 55.512 22.416 55.512 19.68H54.744ZM54.424 22.592C53.368 27.296 51.336 30.592 47.656 32.544C47.864 32.704 48.216 33.008 48.36 33.168C52.008 31.04 54.104 27.712 55.272 22.752L54.424 22.592ZM71.3953 32.224C72.6113 32.224 73.4273 31.808 74.1153 31.376L73.7473 30.688C73.1073 31.136 72.4033 31.424 71.4913 31.424C69.6353 31.424 68.4033 29.968 68.3713 27.904H74.4193C74.4513 27.68 74.4673 27.456 74.4673 27.232C74.4673 24.736 73.2193 23.264 71.1553 23.264C69.2353 23.264 67.4113 24.976 67.4113 27.76C67.4113 30.56 69.1873 32.224 71.3953 32.224ZM68.3553 27.168C68.5473 25.2 69.7793 24.048 71.1713 24.048C72.6593 24.048 73.6033 25.104 73.6033 27.168H68.3553ZM76.0009 27.984H79.9369V27.2H76.0009V27.984ZM82.209 32H83.153V25.616C84.049 24.608 84.865 24.096 85.617 24.096C86.865 24.096 87.457 24.912 87.457 26.672V32H88.369V25.616C89.297 24.608 90.081 24.096 90.833 24.096C92.097 24.096 92.689 24.912 92.689 26.672V32H93.617V26.544C93.617 24.352 92.753 23.264 91.057 23.264C90.065 23.264 89.137 23.936 88.177 24.976C87.873 23.936 87.185 23.264 85.825 23.264C84.849 23.264 83.905 23.92 83.137 24.784H83.105L82.993 23.472H82.209V32ZM98.5658 32.224C99.6698 32.224 100.694 31.616 101.542 30.928H101.59L101.686 32H102.47V26.592C102.47 24.704 101.734 23.264 99.7018 23.264C98.3098 23.264 97.1258 23.92 96.4858 24.368L96.8858 25.056C97.4938 24.608 98.4538 24.064 99.5898 24.064C101.206 24.064 101.558 25.376 101.526 26.64C97.7658 27.072 96.0858 27.968 96.0858 29.856C96.0858 31.44 97.2057 32.224 98.5658 32.224ZM98.7578 31.424C97.8138 31.424 97.0298 30.976 97.0298 29.808C97.0298 28.512 98.1658 27.712 101.526 27.344V30.112C100.534 30.976 99.7018 31.424 98.7578 31.424ZM105.428 32H106.372V23.472H105.428V32ZM105.908 21.472C106.34 21.472 106.644 21.184 106.644 20.688C106.644 20.256 106.34 19.952 105.908 19.952C105.476 19.952 105.172 20.256 105.172 20.688C105.172 21.184 105.476 21.472 105.908 21.472ZM110.673 32.224C110.977 32.224 111.137 32.176 111.313 32.128L111.169 31.376C110.993 31.408 110.929 31.408 110.849 31.408C110.625 31.408 110.481 31.232 110.481 30.832V19.296H109.537V30.736C109.537 31.728 109.905 32.224 110.673 32.224Z" fill="#48545D"/>
<rect y="49" width="230" height="1" fill="#939EA7"/>
</svg>
