<svg width="230" height="50" viewBox="0 0 230 50" fill="none" xmlns="http://www.w3.org/2000/svg">
<rect width="230" height="50" fill="#EEEEEE"/>
<path d="M26.592 20.032V20.688H35.168V20.032H26.592ZM26.992 21.904V22.528H34.864V21.904H26.992ZM26.448 23.84V24.512H35.296V23.84H26.448ZM30.416 18.656V24.192H31.152V18.656H30.416ZM33.52 25.648V32.24C33.52 32.416 33.472 32.48 33.264 32.48C33.056 32.496 32.416 32.496 31.6 32.464C31.728 32.672 31.824 32.96 31.872 33.152C32.848 33.152 33.472 33.152 33.824 33.04C34.16 32.912 34.256 32.688 34.256 32.224V25.648H33.52ZM27.872 27.744V28.384H33.968V27.744H27.872ZM27.872 29.84V30.464H33.968V29.84H27.872ZM27.504 25.648V28.64C27.504 29.952 27.392 31.616 26.432 32.896C26.608 32.976 26.88 33.248 26.976 33.408C28.048 32.048 28.24 30.096 28.24 28.64V25.648H27.504ZM27.92 25.648V26.304H33.84V25.648H27.92ZM21.136 23.328V24H25.712V23.328H21.136ZM21.632 27.664V28.352H24.96V31.536H21.632V32.224H25.664V27.664H21.632ZM21.264 27.664V33.008H21.968V27.664H21.264ZM21.152 25.504V26.176H25.744V25.504H21.152ZM20.784 21.376V22.064H26.224V21.376H20.784ZM22.816 18.896C23.12 19.568 23.472 20.464 23.616 21.04L24.304 20.768C24.144 20.208 23.792 19.328 23.456 18.672L22.816 18.896ZM44.784 22.64V23.28H49.232V22.64H44.784ZM43.856 26.896V27.552H46.448V26.896H43.856ZM43.792 29.264V29.92H46.4V29.264H43.792ZM48.08 24.896V30.64H48.704V24.896H48.08ZM46.208 24.608V32.224C46.208 32.384 46.16 32.416 46 32.432C45.856 32.432 45.344 32.448 44.736 32.432C44.848 32.608 44.944 32.896 44.976 33.072C45.744 33.072 46.208 33.072 46.496 32.944C46.784 32.832 46.864 32.624 46.864 32.224V24.608H46.208ZM50.016 24.368V32.144C50.016 32.336 49.952 32.384 49.776 32.4C49.568 32.4 48.944 32.4 48.16 32.384C48.272 32.576 48.368 32.848 48.4 33.024C49.36 33.024 49.92 33.024 50.256 32.912C50.576 32.784 50.672 32.576 50.672 32.144V24.368H50.016ZM46.928 18.544C46.048 20.224 44.416 21.872 42.72 22.784C42.896 22.912 43.12 23.152 43.248 23.312C44.992 22.304 46.656 20.592 47.6 18.784L46.928 18.544ZM47.184 19.12L46.576 19.344C47.728 21.104 49.152 22.288 50.816 23.296C50.944 23.072 51.168 22.848 51.344 22.704C49.728 21.808 48.288 20.736 47.184 19.12ZM43.776 24.608V25.264H46.384V24.608H43.776ZM43.472 24.608V27.968C43.472 29.408 43.36 31.296 42.496 32.704C42.656 32.8 42.896 33.04 43.008 33.168C43.968 31.632 44.128 29.536 44.128 27.984V24.608H43.472ZM36.928 20.464V21.184H42.624V20.464H36.928ZM36.768 29.632V30.336H42.672V29.632H36.768ZM39.488 18.656V22.976H40.176V18.656H39.488ZM39.52 22.896V27.664H39.472V33.168H40.192V27.664H40.144V22.896H39.52ZM37.968 25.696H41.648V27.552H37.968V25.696ZM37.968 23.232H41.648V25.072H37.968V23.232ZM37.296 22.576V28.208H42.304V22.576H37.296ZM55.616 19.68V20.448H60.144V19.68H55.616ZM59.744 19.68C59.744 22.528 60.16 29.152 66.736 33.136C66.88 32.96 67.2 32.656 67.376 32.528C60.832 28.608 60.512 22.416 60.512 19.68H59.744ZM59.424 22.592C58.368 27.296 56.336 30.592 52.656 32.544C52.864 32.704 53.216 33.008 53.36 33.168C57.008 31.04 59.104 27.712 60.272 22.752L59.424 22.592ZM76.3953 32.224C77.6113 32.224 78.4273 31.808 79.1153 31.376L78.7473 30.688C78.1073 31.136 77.4033 31.424 76.4913 31.424C74.6353 31.424 73.4033 29.968 73.3713 27.904H79.4193C79.4513 27.68 79.4673 27.456 79.4673 27.232C79.4673 24.736 78.2193 23.264 76.1553 23.264C74.2353 23.264 72.4113 24.976 72.4113 27.76C72.4113 30.56 74.1873 32.224 76.3953 32.224ZM73.3553 27.168C73.5473 25.2 74.7793 24.048 76.1713 24.048C77.6593 24.048 78.6033 25.104 78.6033 27.168H73.3553ZM81.0009 27.984H84.9369V27.2H81.0009V27.984ZM87.209 32H88.153V25.616C89.049 24.608 89.865 24.096 90.617 24.096C91.865 24.096 92.457 24.912 92.457 26.672V32H93.369V25.616C94.297 24.608 95.081 24.096 95.833 24.096C97.097 24.096 97.689 24.912 97.689 26.672V32H98.617V26.544C98.617 24.352 97.753 23.264 96.057 23.264C95.065 23.264 94.137 23.936 93.177 24.976C92.873 23.936 92.185 23.264 90.825 23.264C89.849 23.264 88.905 23.92 88.137 24.784H88.105L87.993 23.472H87.209V32ZM103.566 32.224C104.67 32.224 105.694 31.616 106.542 30.928H106.59L106.686 32H107.47V26.592C107.47 24.704 106.734 23.264 104.702 23.264C103.31 23.264 102.126 23.92 101.486 24.368L101.886 25.056C102.494 24.608 103.454 24.064 104.59 24.064C106.206 24.064 106.558 25.376 106.526 26.64C102.766 27.072 101.086 27.968 101.086 29.856C101.086 31.44 102.206 32.224 103.566 32.224ZM103.758 31.424C102.814 31.424 102.03 30.976 102.03 29.808C102.03 28.512 103.166 27.712 106.526 27.344V30.112C105.534 30.976 104.702 31.424 103.758 31.424ZM110.428 32H111.372V23.472H110.428V32ZM110.908 21.472C111.34 21.472 111.644 21.184 111.644 20.688C111.644 20.256 111.34 19.952 110.908 19.952C110.476 19.952 110.172 20.256 110.172 20.688C110.172 21.184 110.476 21.472 110.908 21.472ZM115.673 32.224C115.977 32.224 116.137 32.176 116.313 32.128L116.169 31.376C115.993 31.408 115.929 31.408 115.849 31.408C115.625 31.408 115.481 31.232 115.481 30.832V19.296H114.537V30.736C114.537 31.728 114.905 32.224 115.673 32.224Z" fill="#D3D5D7"/>
</svg>
