<svg width="88" height="88" viewBox="0 0 88 88" fill="none" xmlns="http://www.w3.org/2000/svg">
<rect width="88" height="88" rx="19" fill="#D60C18"/>
<path d="M16.2435 54.2426V55.2754H27.3213V54.2426H16.2435ZM14.7542 64.9607V65.9934H29.9327V64.9607H14.7542ZM15.7742 50.5705V51.6033H29.8919V50.5705H15.7742ZM26.9133 54.2426V54.4951C26.6481 63.7443 26.3217 66.9803 25.7708 67.7377C25.5872 67.9902 25.4036 68.0361 25.016 68.0361C24.6284 68.0361 23.5879 68.0131 22.5066 67.9213C22.6494 68.1967 22.731 68.6098 22.7514 68.8623C23.7511 68.9541 24.7712 68.977 25.322 68.9541C25.9136 68.9082 26.2809 68.7705 26.6277 68.2885C27.3009 67.3475 27.5865 64.318 27.8518 54.8852C27.8518 54.7016 27.8722 54.2426 27.8722 54.2426H26.9133ZM15.7334 54.2426C15.3866 57.8459 14.693 63.0557 14.1625 65.9705H15.1622C15.6518 63.1246 16.3047 57.9607 16.7331 54.2426H15.7334ZM16.7535 48C15.6518 50.9377 13.8973 53.9213 12 55.8033C12.2652 55.9869 12.6936 56.3082 12.8773 56.4918C14.693 54.4721 16.5087 51.4426 17.7327 48.2984L16.7535 48ZM19.0384 56.377C20.4869 57.0885 22.1598 58.259 22.9963 59.1541L23.6083 58.3967C22.7514 57.5016 21.0581 56.4 19.6505 55.6885L19.0384 56.377ZM18.3652 61.5869C19.8953 62.459 21.711 63.8131 22.5882 64.823L23.1799 64.0426C22.2822 63.0557 20.4869 61.7475 18.9568 60.8984L18.3652 61.5869ZM12.0408 59.5443V60.577H15.5702V60.5541H27.2397V60.577H30.5651V59.5443H27.2397V59.5672H15.5702V59.5443H12.0408Z" fill="white"/>
<path d="M36.5736 49.7672V68.7246H37.5733V50.8918H48.4063V68.5639H49.4468V49.7672H36.5736ZM37.2265 57.8689V58.9705H48.8551V57.8689H37.2265ZM37.1856 66.1311V67.2328H48.896V66.1311H37.1856Z" fill="white"/>
<path d="M66.5743 56.9738V57.9377H73.5107V56.9738H66.5743ZM66.0847 49.2393V68.9311H67.0231V50.2721H73.2047V49.2393H66.0847ZM72.8171 49.2393V53.7377C72.8171 53.9902 72.7355 54.059 72.409 54.082C72.0622 54.1279 71.0422 54.1279 69.5937 54.082C69.7569 54.4033 69.8997 54.7934 69.9609 55.0918C71.5726 55.0918 72.5519 55.0918 73.0823 54.9082C73.6127 54.7246 73.7351 54.3803 73.7351 53.7148V49.2393H72.8171ZM68.2268 57.3869L67.3903 57.6393C68.6348 62.5279 71.0422 66.8426 74.2656 68.8393C74.4492 68.541 74.7756 68.1049 75 67.8754C71.8174 66.1541 69.3693 61.9771 68.2268 57.3869ZM73.2047 56.9738V57.2721C72.4498 61.4951 70.2465 65.9934 66.8395 68.2656C67.0843 68.4721 67.3699 68.7475 67.5331 69C71.083 66.5672 73.3475 62 74.2248 57.1803L73.5719 56.9049L73.3883 56.9738H73.2047ZM57.0469 50.6623V51.6721H64.6362V50.6623H57.0469ZM56.4145 62.9869V63.9738H65.2074V62.9869H56.4145ZM56.4349 54.4033V55.4361H65.1666V54.4033H56.4349ZM56.8225 59.0393V60.0492H64.8198V59.0393H56.8225ZM60.4131 48.1148V54.7246H61.3516V48.1148H60.4131ZM60.4131 59.4295V68.8852H61.3516V59.4295H60.4131ZM63.0653 55.5738C62.6573 56.6754 61.882 58.3049 61.2496 59.3148L62.0248 59.6131C62.6777 58.6262 63.3713 57.1344 63.9833 55.8721L63.0653 55.5738ZM57.9038 55.941C58.373 56.882 58.8422 58.1213 58.985 58.9246L59.8011 58.5803C59.6379 57.823 59.1482 56.5836 58.6586 55.6885L57.9038 55.941Z" fill="white"/>
<path fill-rule="evenodd" clip-rule="evenodd" d="M22.0099 20.9505C22.4487 22.2237 20.6751 22.6394 19.8555 22.9742C19.572 23.0898 19.2893 23.2085 19.0115 23.3377C18.821 23.4264 18.6467 23.5485 18.4514 23.6268C18.2658 23.7007 18.0636 23.7268 17.8692 23.7694C17.4318 23.866 16.9966 23.9747 16.5639 24.0916C15.696 24.3256 14.8364 24.5904 13.972 24.8386C13.4794 24.9799 12.9854 25.116 12.4876 25.2382C11.9619 25.3674 11.4275 25.2269 10.9709 24.9582C10.547 24.7091 10.5192 24.3121 10.3261 23.9025C10.2283 23.6955 10.2431 23.4707 10.4326 23.3085C10.4826 23.2664 10.7001 23.2785 10.7696 23.269C10.8835 23.2533 10.9966 23.2359 11.1101 23.2172C11.334 23.1811 11.5571 23.1403 11.781 23.1063C12.0049 23.0724 12.2297 23.0446 12.4554 23.0303C12.7032 23.015 12.9098 23.0733 13.1267 22.9281C13.3585 22.7733 13.5816 22.6224 13.8368 22.5059C14.3268 22.2824 14.8555 22.1645 15.3856 22.0811C15.5712 22.0519 15.7573 22.0267 15.9439 22.0028C16.0404 21.9902 16.1469 22.008 16.2413 21.9802C16.3539 21.9471 16.3843 21.8858 16.4761 21.8158C16.6657 21.6706 16.9257 21.668 17.1148 21.5228C17.651 21.0936 18.3654 20.9327 18.7941 20.3966C19.1028 20.1422 19.4959 20.0357 19.8894 20.0153C20.3037 19.994 20.7251 19.9635 21.0994 20.1692C21.4477 20.3605 21.8734 20.5423 22.0099 20.9505Z" fill="white"/>
<path fill-rule="evenodd" clip-rule="evenodd" d="M36.6604 27.5547C36.7161 27.3508 36.7639 27.1381 36.7631 26.926C36.7626 26.7064 36.633 26.5151 36.6183 26.2981C36.6061 26.1237 36.7035 25.9341 36.4991 25.8394C36.0704 25.5359 35.6773 26.0185 35.2486 26.0902C34.8977 26.265 34.6355 26.5716 34.3403 26.8216C34.1337 26.9968 33.8763 27.0903 33.6555 27.2434C33.4441 27.3886 33.2798 27.5895 33.0737 27.7434C32.6315 28.0739 32.1158 28.2856 31.6575 28.5913C31.2701 28.8496 30.3961 28.7478 29.9691 28.6656C29.1952 28.5165 28.516 28.1326 27.7968 27.8412C27.4829 27.7143 27.152 27.6147 26.8641 27.4312C26.5332 27.2194 26.351 26.8473 26.0193 26.6255C25.7214 26.4268 25.4249 26.2511 25.5119 25.8394C25.7797 25.5537 26.1549 25.5002 26.5124 25.4111C27.7446 25.1784 29.0847 25.3576 30.2822 24.9463C30.9601 24.768 31.6753 24.6071 32.3367 24.3745C32.5106 24.3136 32.6954 24.2266 32.8797 24.1649C33.0815 24.0975 33.2076 23.9484 33.3933 23.8557C33.8042 23.6496 34.2368 23.771 34.652 23.6575C35.2347 23.4988 35.8121 23.3205 36.3869 23.1344C36.7213 23.0261 37.047 22.8874 37.3901 22.8087C37.6618 22.7461 37.9475 22.7505 38.1892 22.5948C38.7771 22.2161 39.5224 22.3839 40.1446 22.1061C40.6698 21.8713 41.2647 21.6386 41.8234 21.4999C42.1152 21.4273 42.4169 21.3908 42.7165 21.4308C43.2222 21.4982 43.7457 21.623 44.2462 21.7286C44.6718 21.8187 45.1075 21.8821 45.4893 22.1052C45.6971 22.2265 45.865 22.4056 45.9689 22.6239C45.9976 22.9026 45.9032 23.1692 45.7815 23.4153C45.7202 23.5401 45.651 23.6605 45.5836 23.7823C45.3697 24.1714 45.0201 24.2627 44.6149 24.3714C44.2092 24.4806 43.7866 24.5227 43.3726 24.4258C43.1535 24.374 42.9291 24.2666 42.7535 24.1245C42.0434 23.6705 41.176 23.7983 40.4046 23.9975C40.2981 24.0249 40.1928 24.0549 40.0894 24.091C39.9763 24.1292 39.8733 24.1458 39.7785 24.2219C39.6902 24.2927 39.5985 24.3493 39.4985 24.4027C39.2402 24.5414 39.0167 24.6588 39.0184 24.9771C39.021 25.3537 38.9554 25.7876 39.1076 26.1437C39.4471 26.8581 39.0002 27.5725 39.3219 28.2873C39.4654 29.2522 39.7511 30.6097 39.7154 31.7171C39.7154 33.2538 39.8402 35.1652 40.0902 36.647C40.1481 36.9888 40.2555 37.3232 40.3359 37.6597C40.3868 37.8702 40.3989 38.0884 40.4494 38.2993C40.5577 38.7533 40.6629 39.0842 40.6437 39.5581C40.622 40.0986 40.5581 40.6364 40.4803 41.1713C40.395 41.76 40.2128 42.3374 39.6259 42.5974C39.0515 43.2279 38.0305 43.107 37.3031 42.8653C36.9892 42.7609 36.5978 42.3135 36.4387 42.0291C36.3413 41.8557 36.3556 41.6469 36.3108 41.4561C36.1961 40.9643 35.9943 40.4982 36.16 39.989C36.5169 35.8792 36.8739 31.9854 36.6604 27.8943" fill="white"/>
<path fill-rule="evenodd" clip-rule="evenodd" d="M16.687 25.8127C17.0444 26.2053 17.2045 26.6702 17.4193 27.135C17.6032 27.3359 17.8336 27.3246 18.0715 27.2359C18.2771 27.1593 18.5024 27.1254 18.6776 26.9841C18.8511 26.8441 18.9941 26.658 19.1611 26.5084C19.5216 26.1858 19.9068 25.8862 20.3725 25.734C20.649 25.6436 20.9343 25.6066 21.2247 25.6336C21.6895 25.8127 22.2791 25.7949 22.5113 26.2767C22.7253 26.581 22.6713 26.938 22.5644 27.2598C22.1539 28.0994 21.1356 28.4038 20.4208 28.9394C19.8485 29.2425 19.0807 29.4573 18.795 30.1004C18.7772 31.1192 19.5994 31.9401 20.2421 32.5297C21.2247 33.5485 22.1361 35.1016 23.4579 35.7095C23.8475 35.8886 24.1728 36.2556 24.5006 36.5239C24.6793 36.67 24.8645 36.8113 25.065 36.9274C25.2893 37.0574 25.5337 37.1052 25.752 37.253C25.9694 37.3996 26.2494 37.4678 26.4233 37.6739C26.4929 37.7566 26.612 37.774 26.7029 37.8218C26.8955 37.924 27.0256 38.1309 27.249 38.1766C27.3725 38.2018 27.4817 38.1744 27.6004 38.2279C27.7156 38.2801 27.8239 38.3792 27.93 38.4492C28.4261 38.7749 28.9387 39.0836 29.4988 39.288C29.7149 39.3671 29.9505 39.3788 30.1653 39.4615C30.3723 39.5402 30.5058 39.7045 30.6832 39.8284C30.9876 40.0419 31.3998 40.2337 31.545 40.6015C31.6398 40.8411 31.515 41.2029 31.3606 41.3907C31.1402 41.6594 30.7362 41.7286 30.4132 41.779C30.0853 41.8299 29.747 41.9821 29.4179 42.019C29.2361 42.0395 29.0496 42.0368 28.867 42.0508C28.4756 42.0799 28.0843 42.1208 27.6934 42.1603C26.9034 42.2408 26.1098 42.3234 25.3146 42.3086C24.8802 42.3012 24.3702 42.3669 23.978 42.1412C23.4418 41.8329 22.9557 41.3698 22.4639 40.995C21.8182 40.5028 21.3786 39.8206 20.9156 39.1549C20.4321 38.4592 19.9694 37.7496 19.4829 37.0561C19.0898 36.496 18.6976 35.8508 18.1628 35.4138C17.9741 35.2599 17.8497 35.0425 17.6632 34.8829C17.501 34.7446 17.3575 34.5933 17.2153 34.4346C16.927 34.1115 16.6222 33.8206 16.1692 33.7802C16 34.0337 15.8831 34.3198 15.8152 34.6168C15.7696 34.8177 15.7796 35.0255 15.7452 35.2273C15.7165 35.3968 15.6535 35.5573 15.6226 35.7269C15.5561 36.0921 15.55 36.4856 15.3648 36.8174C15.2526 37.0174 15.1895 37.1813 15.1356 37.4074C15.083 37.6296 14.973 37.8666 14.8847 38.0779C14.8352 38.197 14.7565 38.3014 14.7034 38.4183C14.606 38.6336 14.5538 38.8623 14.4417 39.0753C14.3169 39.3132 14.1795 39.5458 14.0299 39.7693C13.7294 40.218 13.3842 40.6372 13.0094 41.0255C12.7985 41.2442 12.5785 41.4538 12.3506 41.6546C12.1728 41.8112 12.0202 41.9873 11.8132 42.1095C11.6028 42.2338 11.3658 42.2821 11.1349 42.3551C10.6444 42.5104 10.2001 42.7299 9.67525 42.7552C9.3661 42.7695 9.06043 42.683 8.78954 42.5338C8.67431 42.4708 8.46995 42.4804 8.33907 42.4308C8.18471 42.3725 8.0334 42.2916 7.90078 42.1929C7.75077 42.0808 7.59859 41.9586 7.48771 41.8055C7.4264 41.7212 7.37335 41.6316 7.35814 41.5277C7.32683 41.3111 7.3664 41.2372 7.22856 41.0546C7.05159 40.8189 7.14725 40.6615 7.09551 40.4063C7.07073 40.2837 7.01159 40.1672 7.00116 40.0424C6.9842 39.8371 7.15769 39.6763 7.27117 39.5249C7.39683 39.3571 7.50641 39.1745 7.71773 39.1032C7.95687 39.0232 8.29516 39.0314 8.53952 39.081C8.6791 39.1093 8.81302 39.1593 8.93433 39.2345C9.13 39.3558 9.21783 39.5371 9.4648 39.3932C9.65047 39.2858 9.75873 39.0866 9.91787 38.9492C10.0396 38.8449 10.0866 38.671 10.2066 38.5549C10.3409 38.424 10.467 38.2862 10.581 38.137C10.8149 37.8305 10.991 37.4857 11.1127 37.1204C11.7558 36.4413 11.8271 35.4777 11.5771 34.5485C10.9162 34.4955 10.2196 34.8342 9.52263 34.6024C9.05782 34.2633 8.37907 34.0846 8.14689 33.5663C7.82512 33.2271 7.55728 32.798 7.50336 32.3153C7.70033 31.7801 8.45038 31.9401 8.87954 31.8514C9.27261 31.6909 9.73699 31.6548 10.1296 31.4579C10.3518 31.3474 10.6131 31.3126 10.8392 31.19C11.0623 31.0687 11.2714 30.9239 11.4832 30.7848C11.6945 30.6456 11.9084 30.5087 12.1393 30.4039C12.3854 30.293 12.6585 30.2578 12.8994 30.1274C13.1059 30.0156 13.2964 29.8586 13.4768 29.7095C13.8512 29.3999 14.1416 28.9612 14.0786 28.4564C14.0573 28.2859 13.976 28.1311 13.9764 27.9463C13.9764 27.7628 14.0129 27.5815 14.0503 27.4028C14.0877 27.2232 14.1312 27.0445 14.1516 26.8619C14.1825 26.588 14.1125 26.4041 14.2782 26.1593C14.4238 25.9432 14.6395 25.7644 14.8826 25.6692C15.0782 25.5931 15.323 25.6336 15.5274 25.6344C15.6935 25.6349 15.9052 25.5192 16.0666 25.5649C16.1648 25.5927 16.2335 25.6805 16.3435 25.7079C16.4614 25.7375 16.5866 25.7318 16.687 25.8127Z" fill="white"/>
<path fill-rule="evenodd" clip-rule="evenodd" d="M53.7116 34.7221L53.652 34.7303C53.6077 34.5821 53.5186 34.4668 53.3851 34.3847C53.252 34.3025 53.0863 34.2612 52.8876 34.2612C52.5872 34.2612 52.3537 34.3668 52.1863 34.5773C52.0193 34.7882 51.9358 35.0834 51.9358 35.4643C51.9358 35.8748 52.0206 36.1878 52.1915 36.4031C52.362 36.6192 52.6094 36.7266 52.9346 36.7266C53.0742 36.7266 53.2159 36.6992 53.3577 36.6448C53.4999 36.5905 53.6286 36.5144 53.7442 36.4165L53.7955 36.4287L53.699 36.7796C53.5659 36.8448 53.4268 36.8931 53.2824 36.9253C53.1372 36.957 52.9846 36.9731 52.8246 36.9731C52.3363 36.9731 51.9567 36.8418 51.685 36.5796C51.4128 36.317 51.2771 35.9509 51.2771 35.4804C51.2771 35.0347 51.4232 34.6782 51.7163 34.4099C52.0093 34.142 52.4011 34.0085 52.8916 34.0085C53.0468 34.0085 53.2007 34.0255 53.3533 34.0594C53.5064 34.0933 53.6616 34.1455 53.8199 34.2164C53.7955 34.2925 53.7738 34.3725 53.7555 34.456C53.7368 34.5395 53.7225 34.6282 53.7116 34.7221Z" fill="white"/>
<path fill-rule="evenodd" clip-rule="evenodd" d="M54.6183 35.9193C54.6183 36.2363 54.6513 36.4589 54.717 36.588C54.7831 36.7172 54.8935 36.782 55.0483 36.782C55.2044 36.782 55.3162 36.7172 55.3827 36.5872C55.4492 36.4572 55.4827 36.235 55.4827 35.9193C55.4827 35.6028 55.4492 35.3788 55.3827 35.2475C55.3162 35.1162 55.2044 35.051 55.0483 35.051C54.8935 35.051 54.7831 35.1158 54.717 35.2453C54.6513 35.3754 54.6183 35.6002 54.6183 35.9193ZM54.0043 35.9173C54.0043 35.5842 54.0965 35.3255 54.2817 35.1407C54.4665 34.9555 54.723 34.8633 55.0526 34.8633C55.387 34.8633 55.6444 34.9546 55.8253 35.1372C56.0062 35.3203 56.0966 35.5803 56.0966 35.9173C56.0966 36.2477 56.0044 36.5051 55.8201 36.6891C55.6361 36.8734 55.3792 36.9656 55.0483 36.9656C54.7165 36.9656 54.4595 36.8734 54.2778 36.6899C54.0951 36.5069 54.0043 36.249 54.0043 35.9173Z" fill="white"/>
<path fill-rule="evenodd" clip-rule="evenodd" d="M56.4635 36.9187C56.4718 36.6961 56.4783 36.5013 56.4822 36.3326C56.4861 36.1648 56.4883 36.0261 56.4883 35.9178C56.4883 35.8091 56.4861 35.6726 56.4822 35.5078C56.4783 35.343 56.4718 35.1482 56.4635 34.9225C56.5092 34.9282 56.5548 34.9325 56.6022 34.9351C56.6496 34.9377 56.7013 34.939 56.7557 34.939C56.8127 34.939 56.8648 34.9377 56.9114 34.9351C56.9583 34.9325 57.0027 34.9282 57.0453 34.9225V35.1986C57.1305 35.0869 57.2227 35.0056 57.3214 34.9543C57.4197 34.9034 57.5323 34.8782 57.6588 34.8782C57.7988 34.8782 57.918 34.9112 58.018 34.9769C58.1167 35.043 58.1901 35.1386 58.238 35.2652C58.3197 35.1338 58.4145 35.036 58.5236 34.9725C58.6319 34.9095 58.7584 34.8782 58.9024 34.8782C59.0028 34.8782 59.0941 34.8947 59.1746 34.9282C59.2559 34.9612 59.3246 35.0108 59.382 35.0778C59.4389 35.143 59.4785 35.2278 59.5024 35.333C59.525 35.4373 59.5368 35.6261 59.5368 35.8991V36.1583C59.5368 36.2757 59.5385 36.397 59.5415 36.5226C59.5455 36.6483 59.5502 36.7805 59.5572 36.9187C59.4959 36.9118 59.4398 36.9074 59.3889 36.9035C59.338 36.9005 59.2885 36.8983 59.2411 36.8983C59.1933 36.8983 59.145 36.9005 59.0954 36.9035C59.0454 36.9074 58.9928 36.9118 58.9372 36.9187C58.9498 36.7366 58.9585 36.5679 58.965 36.4135C58.9706 36.2583 58.9741 36.1135 58.9741 35.9791C58.9741 35.6678 58.9498 35.4639 58.9006 35.3686C58.8515 35.2725 58.7645 35.2247 58.6397 35.2247C58.5158 35.2247 58.428 35.2725 58.3754 35.3686C58.3232 35.4639 58.2971 35.6343 58.2971 35.8787V36.5396C58.2971 36.6035 58.3015 36.7161 58.3115 36.8779C58.3123 36.897 58.3132 36.9105 58.3132 36.9187C58.2549 36.9118 58.2001 36.9074 58.1493 36.9035C58.098 36.9005 58.0488 36.8983 58.0014 36.8983C57.9536 36.8983 57.9049 36.9005 57.8553 36.9044C57.8058 36.9083 57.751 36.9127 57.6914 36.9187C57.7018 36.7626 57.7101 36.6113 57.7162 36.4657C57.721 36.32 57.7245 36.1822 57.7245 36.0513C57.7245 35.6865 57.7001 35.4578 57.6527 35.3643C57.6049 35.2712 57.5184 35.2247 57.3918 35.2247C57.2692 35.2247 57.1822 35.2721 57.1305 35.3673C57.0792 35.4621 57.0531 35.633 57.0531 35.8787V36.5396C57.0531 36.6048 57.0575 36.7183 57.067 36.88C57.0688 36.8979 57.0688 36.9105 57.067 36.9187C57.0157 36.9118 56.9653 36.9074 56.9153 36.9035C56.8661 36.9005 56.8166 36.8983 56.7674 36.8983C56.7226 36.8983 56.6757 36.9005 56.627 36.9035C56.5779 36.9074 56.5235 36.9118 56.4635 36.9187Z" fill="white"/>
<path fill-rule="evenodd" clip-rule="evenodd" d="M60.0851 36.9187C60.0929 36.6961 60.0994 36.5013 60.1033 36.3326C60.1077 36.1648 60.1094 36.0261 60.1094 35.9178C60.1094 35.8091 60.1077 35.6726 60.1033 35.5078C60.0994 35.343 60.0929 35.1482 60.0851 34.9225C60.1303 34.9282 60.176 34.9325 60.2238 34.9351C60.2712 34.9377 60.3225 34.939 60.3768 34.939C60.4338 34.939 60.486 34.9377 60.5329 34.9351C60.5799 34.9325 60.6242 34.9282 60.6664 34.9225V35.1986C60.7521 35.0869 60.8438 35.0056 60.943 34.9543C61.0412 34.9034 61.1534 34.8782 61.2804 34.8782C61.42 34.8782 61.5395 34.9112 61.6391 34.9769C61.7378 35.043 61.8113 35.1386 61.8595 35.2652C61.9409 35.1338 62.0356 35.036 62.1448 34.9725C62.253 34.9095 62.3796 34.8782 62.5235 34.8782C62.6244 34.8782 62.7153 34.8947 62.7961 34.9282C62.877 34.9612 62.9457 35.0108 63.0031 35.0778C63.0601 35.143 63.1001 35.2278 63.1235 35.333C63.1462 35.4373 63.1579 35.6261 63.1579 35.8991V36.1583C63.1579 36.2757 63.1601 36.397 63.1631 36.5226C63.1666 36.6483 63.1714 36.7805 63.1783 36.9187C63.117 36.9118 63.0609 36.9074 63.0101 36.9035C62.9592 36.9005 62.9096 36.8983 62.8627 36.8983C62.8144 36.8983 62.7661 36.9005 62.7166 36.9035C62.667 36.9074 62.6144 36.9118 62.5587 36.9187C62.5709 36.7366 62.58 36.5679 62.5861 36.4135C62.5922 36.2583 62.5952 36.1135 62.5952 35.9791C62.5952 35.6678 62.5709 35.4639 62.5218 35.3686C62.4731 35.2725 62.3857 35.2247 62.2609 35.2247C62.1374 35.2247 62.0491 35.2725 61.9965 35.3686C61.9448 35.4639 61.9182 35.6343 61.9182 35.8787V36.5396C61.9182 36.6035 61.9226 36.7161 61.9326 36.8779C61.9339 36.897 61.9348 36.9105 61.9348 36.9187C61.8761 36.9118 61.8213 36.9074 61.7704 36.9035C61.7195 36.9005 61.67 36.8983 61.623 36.8983C61.5747 36.8983 61.5265 36.9005 61.4769 36.9044C61.4269 36.9083 61.3721 36.9127 61.313 36.9187C61.3234 36.7626 61.3317 36.6113 61.3373 36.4657C61.3421 36.32 61.3456 36.1822 61.3456 36.0513C61.3456 35.6865 61.3217 35.4578 61.2739 35.3643C61.2265 35.2712 61.1395 35.2247 61.013 35.2247C60.8908 35.2247 60.8038 35.2721 60.7521 35.3673C60.7003 35.4621 60.6743 35.633 60.6743 35.8787V36.5396C60.6743 36.6048 60.679 36.7183 60.6886 36.88C60.6899 36.8979 60.6899 36.9105 60.6886 36.9187C60.6369 36.9118 60.5869 36.9074 60.5369 36.9035C60.4873 36.9005 60.4381 36.8983 60.389 36.8983C60.3442 36.8983 60.2973 36.9005 60.2481 36.9035C60.1994 36.9074 60.1451 36.9118 60.0851 36.9187Z" fill="white"/>
<path fill-rule="evenodd" clip-rule="evenodd" d="M64.1824 35.9193C64.1824 36.2363 64.2154 36.4589 64.2815 36.588C64.3476 36.7172 64.4576 36.782 64.6128 36.782C64.7689 36.782 64.8802 36.7172 64.9472 36.5872C65.0133 36.4572 65.0472 36.235 65.0472 35.9193C65.0472 35.6028 65.0133 35.3788 64.9472 35.2475C64.8802 35.1162 64.7689 35.051 64.6128 35.051C64.4576 35.051 64.3476 35.1158 64.2815 35.2453C64.2154 35.3754 64.1824 35.6002 64.1824 35.9193ZM63.5691 35.9173C63.5691 35.5842 63.6613 35.3255 63.8461 35.1407C64.0309 34.9555 64.2878 34.8633 64.6174 34.8633C64.9518 34.8633 65.2092 34.9546 65.3901 35.1372C65.5705 35.3203 65.6614 35.5803 65.6614 35.9173C65.6614 36.2477 65.5688 36.5051 65.3849 36.6891C65.2005 36.8734 64.9435 36.9656 64.6131 36.9656C64.2809 36.9656 64.0239 36.8734 63.8426 36.6899C63.66 36.5069 63.5691 36.249 63.5691 35.9173Z" fill="white"/>
<path fill-rule="evenodd" clip-rule="evenodd" d="M66.0291 36.9187C66.0399 36.7344 66.0482 36.56 66.0534 36.3961C66.0591 36.2317 66.0617 36.0748 66.0617 35.9239C66.0617 35.7543 66.0591 35.586 66.0534 35.4191C66.0482 35.2525 66.0399 35.0869 66.0291 34.9225C66.0725 34.9282 66.1178 34.9325 66.1651 34.9351C66.2117 34.9377 66.2625 34.939 66.3169 34.939C66.3713 34.939 66.4213 34.9377 66.4669 34.9351C66.5121 34.9325 66.5556 34.9282 66.5965 34.9225V35.2104C66.6817 35.0978 66.7774 35.0138 66.8839 34.9595C66.9896 34.9051 67.1083 34.8782 67.2404 34.8782C67.3422 34.8782 67.4357 34.8956 67.5196 34.9299C67.604 34.9647 67.6753 35.0151 67.7335 35.0817C67.7801 35.136 67.8131 35.203 67.8331 35.2825C67.8527 35.3621 67.8627 35.4982 67.8627 35.6917C67.8627 35.7187 67.8614 35.79 67.8605 35.9069C67.8588 36.0226 67.8583 36.1252 67.8583 36.2135C67.8583 36.3439 67.8605 36.467 67.8657 36.5826C67.8701 36.6979 67.8775 36.81 67.887 36.9187C67.8283 36.9118 67.7735 36.9074 67.7227 36.9035C67.6718 36.9005 67.6222 36.8983 67.5748 36.8983C67.527 36.8983 67.4787 36.9005 67.4292 36.9035C67.3792 36.9074 67.3257 36.9118 67.267 36.9187C67.2765 36.8009 67.2839 36.6592 67.2905 36.4948C67.2965 36.3304 67.2996 36.1478 67.2996 35.9465C67.2996 35.643 67.2757 35.4478 67.227 35.3604C67.1791 35.2725 67.0917 35.2286 66.9652 35.2286C66.8387 35.2286 66.7482 35.2808 66.693 35.3856C66.6382 35.4904 66.6104 35.6669 66.6104 35.9156C66.6104 36.0326 66.6126 36.1748 66.6161 36.3418C66.6208 36.5092 66.6256 36.7013 66.6326 36.9187C66.5808 36.9118 66.5304 36.9074 66.48 36.9035C66.4295 36.9005 66.3808 36.8983 66.333 36.8983C66.2869 36.8983 66.2386 36.9005 66.1886 36.9035C66.1378 36.9074 66.0847 36.9118 66.0291 36.9187Z" fill="white"/>
<path fill-rule="evenodd" clip-rule="evenodd" d="M69.019 36.918C68.899 36.4601 68.7668 35.9931 68.6225 35.5183C68.4777 35.0435 68.3203 34.5591 68.1503 34.0652C68.2033 34.0708 68.2585 34.0752 68.3168 34.0778C68.3742 34.0808 68.4372 34.0821 68.5051 34.0821C68.5716 34.0821 68.6333 34.0808 68.6903 34.0778C68.7477 34.0752 68.8029 34.0708 68.856 34.0652C68.936 34.4148 69.0229 34.7635 69.1169 35.1118C69.2108 35.4596 69.3104 35.8053 69.4164 36.1492C69.5482 35.7701 69.673 35.4096 69.7895 35.0674C69.9065 34.7261 70.0187 34.3917 70.1261 34.0652C70.1582 34.0708 70.1917 34.0752 70.2252 34.0778C70.2582 34.0808 70.2943 34.0821 70.3343 34.0821C70.3752 34.0821 70.4126 34.0808 70.447 34.0778C70.4822 34.0752 70.5157 34.0708 70.5483 34.0652C70.6461 34.3956 70.7513 34.7322 70.8631 35.0739C70.9757 35.4157 71.0935 35.7649 71.2187 36.121C71.3357 35.7862 71.4448 35.4483 71.5466 35.1066C71.6475 34.7648 71.7414 34.4178 71.8288 34.0652C71.8575 34.0708 71.8871 34.0752 71.9184 34.0778C71.9497 34.0808 71.9836 34.0821 72.0205 34.0821C72.0571 34.0821 72.0905 34.0808 72.1214 34.0778C72.1519 34.0752 72.1814 34.0708 72.2101 34.0652C72.0614 34.4883 71.9092 34.9365 71.7523 35.4101C71.5953 35.884 71.4322 36.3866 71.264 36.918C71.2257 36.911 71.1892 36.9067 71.1527 36.9028C71.1166 36.8997 71.0813 36.8975 71.0474 36.8975C71.0161 36.8975 70.9831 36.8997 70.9479 36.9028C70.9126 36.9067 70.8735 36.911 70.8318 36.918C70.7348 36.5962 70.6313 36.2671 70.5196 35.931C70.4083 35.5957 70.2878 35.2509 70.1582 34.8978C70.0334 35.2157 69.9117 35.5431 69.793 35.8801C69.6739 36.2175 69.5573 36.5636 69.443 36.918C69.4047 36.911 69.3682 36.9067 69.333 36.9028C69.2973 36.8997 69.2634 36.8975 69.2312 36.8975C69.1982 36.8975 69.1647 36.8997 69.1299 36.9028C69.0956 36.9067 69.0586 36.911 69.019 36.918Z" fill="white"/>
<path fill-rule="evenodd" clip-rule="evenodd" d="M72.9099 35.7148H73.6173C73.6173 35.7 73.6182 35.6813 73.6195 35.6587C73.6208 35.6365 73.6217 35.6217 73.6217 35.6152C73.6217 35.4261 73.5943 35.283 73.5391 35.1865C73.4843 35.0904 73.4025 35.0417 73.2956 35.0417C73.1734 35.0417 73.0782 35.0969 73.0108 35.2069C72.9434 35.3169 72.9099 35.4739 72.9099 35.6778V35.7148ZM72.9086 35.9216C72.9086 36.1621 72.966 36.3529 73.0808 36.4943C73.196 36.6356 73.3504 36.7064 73.5447 36.7064C73.6413 36.7064 73.7339 36.6899 73.8221 36.6573C73.9104 36.6251 73.9965 36.5756 74.0791 36.5086L74.12 36.5395L74.0282 36.776C73.9409 36.8369 73.8387 36.8839 73.7213 36.9165C73.6039 36.9491 73.476 36.9656 73.3386 36.9656C73.0138 36.9656 72.7595 36.8695 72.5751 36.6777C72.3912 36.4864 72.2994 36.2212 72.2994 35.8829C72.2994 35.5785 72.3907 35.332 72.5742 35.1446C72.7577 34.9568 73.0008 34.8633 73.3025 34.8633C73.5887 34.8633 73.8091 34.9429 73.9617 35.102C74.1148 35.2607 74.1917 35.4894 74.1917 35.7868C74.1917 35.822 74.1913 35.8494 74.19 35.8686C74.1896 35.8877 74.1883 35.9047 74.187 35.9194L72.9086 35.9216Z" fill="white"/>
<path fill-rule="evenodd" clip-rule="evenodd" d="M75.5565 35.8177C75.3634 35.8573 75.2247 35.9168 75.1386 35.9973C75.053 36.0773 75.0103 36.1886 75.0103 36.3312C75.0103 36.4512 75.0316 36.5408 75.0751 36.6004C75.119 36.6604 75.1834 36.6904 75.2686 36.6904C75.3612 36.6904 75.4321 36.6569 75.4825 36.5904C75.5317 36.5238 75.5565 36.4282 75.5565 36.3029V35.8177ZM75.5743 36.6543C75.5147 36.7547 75.436 36.8321 75.339 36.8865C75.2416 36.9408 75.132 36.9682 75.0099 36.9682C74.8342 36.9682 74.6964 36.9161 74.5968 36.8121C74.4968 36.7082 74.4468 36.566 74.4468 36.3869C74.4468 36.2551 74.4824 36.1464 74.5529 36.0608C74.6237 35.9751 74.7346 35.9073 74.8846 35.8569C74.9342 35.8403 75.0046 35.8182 75.0973 35.7895C75.3147 35.7242 75.4638 35.6642 75.5438 35.6099C75.5451 35.6021 75.546 35.5925 75.5469 35.5829C75.5473 35.5721 75.5477 35.5577 75.5477 35.5386C75.5477 35.4125 75.5116 35.312 75.4395 35.2372C75.3677 35.1625 75.2721 35.1246 75.1525 35.1246C75.0586 35.1246 74.9733 35.1512 74.8964 35.2046C74.8198 35.2577 74.7485 35.3381 74.6833 35.4468C74.6629 35.382 74.6459 35.3294 74.632 35.2899C74.6185 35.2507 74.605 35.2138 74.5916 35.1799C74.7151 35.0725 74.8372 34.9925 74.9581 34.9403C75.0794 34.8881 75.2055 34.8616 75.336 34.8616C75.586 34.8616 75.7782 34.9194 75.9117 35.0351C76.0456 35.1507 76.113 35.3155 76.113 35.5307V35.5507L76.0999 36.2786V36.3586C76.0999 36.5282 76.1191 36.6373 76.1565 36.6856C76.1939 36.7339 76.2669 36.7582 76.3756 36.7582H76.3882V36.8621C76.3169 36.8917 76.2439 36.9148 76.1678 36.93C76.0917 36.9456 76.0186 36.9539 75.9499 36.9539C75.8486 36.9539 75.7669 36.9282 75.7025 36.8774C75.639 36.8265 75.596 36.7517 75.5743 36.6543Z" fill="white"/>
<path fill-rule="evenodd" clip-rule="evenodd" d="M76.6713 36.9157C76.6813 36.6809 76.69 36.4357 76.696 36.18C76.7004 35.9243 76.7039 35.6504 76.7039 35.3582C76.7039 35.0482 76.7004 34.7651 76.696 34.509C76.69 34.2529 76.6813 34.0107 76.6713 33.7842C76.7374 33.7946 76.7943 33.8024 76.8422 33.8064C76.8895 33.8103 76.9356 33.8124 76.9813 33.8124C77.0252 33.8124 77.073 33.8098 77.1235 33.8055C77.1735 33.8007 77.2304 33.7933 77.2931 33.7842C77.2818 34.019 77.2739 34.2642 77.2683 34.5199C77.2626 34.7756 77.26 35.0495 77.26 35.3417C77.26 35.6517 77.2626 35.9348 77.2683 36.1909C77.2739 36.4474 77.2818 36.6892 77.2931 36.9157C77.2465 36.9066 77.1978 36.8996 77.1461 36.8944C77.0943 36.8896 77.0404 36.8874 76.9848 36.8874C76.9291 36.8874 76.8756 36.8896 76.8235 36.8944C76.7721 36.8996 76.7208 36.9066 76.6713 36.9157Z" fill="white"/>
<path fill-rule="evenodd" clip-rule="evenodd" d="M77.8661 35.1535H77.7904C77.7343 35.1535 77.6926 35.1539 77.663 35.1544C77.6339 35.1552 77.6069 35.1561 77.583 35.1574C77.5847 35.1426 77.5869 35.1283 77.5878 35.1148C77.5882 35.1009 77.5887 35.0791 77.5887 35.0496C77.5887 35.0196 77.5878 34.997 77.5861 34.9813C77.5847 34.9657 77.5839 34.9517 77.583 34.9391C77.5878 34.9409 77.5961 34.9422 77.6069 34.9435C77.7061 34.9531 77.7769 34.9578 77.8195 34.9578L77.8661 34.9557C77.8674 34.9365 77.8682 34.9161 77.8691 34.8948C77.8695 34.873 77.87 34.8396 77.87 34.7948C77.87 34.7404 77.8687 34.6822 77.8661 34.6213C77.863 34.56 77.8591 34.4839 77.8539 34.393C77.95 34.3561 78.0452 34.3178 78.1391 34.2769C78.233 34.236 78.3244 34.1939 78.4126 34.1504L78.457 34.1852C78.4491 34.3439 78.4426 34.4769 78.4391 34.5839C78.4348 34.6904 78.4331 34.7713 78.4331 34.827V34.9578C78.5087 34.9578 78.5805 34.9561 78.6457 34.9535C78.7118 34.9513 78.7761 34.947 78.8387 34.9413C78.834 34.9726 78.8322 34.9952 78.8318 35.0087C78.8309 35.0226 78.8309 35.0361 78.8309 35.0496C78.8309 35.0726 78.8326 35.1048 78.8366 35.1452C78.8392 35.1509 78.8396 35.1548 78.8387 35.1574C78.8057 35.1561 78.7626 35.1552 78.7096 35.1544C78.6561 35.1539 78.5618 35.1535 78.4248 35.1535C78.4248 35.1739 78.4235 35.2057 78.4226 35.2496C78.4131 35.5379 78.4083 35.7431 78.4083 35.8662V36.034C78.4083 36.3531 78.4235 36.551 78.4552 36.6271C78.4865 36.7036 78.547 36.7419 78.6365 36.7419C78.6818 36.7419 78.7618 36.7271 78.8774 36.6971L78.8796 36.6949V36.8501C78.7879 36.8906 78.7039 36.9206 78.6252 36.9397C78.5474 36.9588 78.4722 36.9684 78.4 36.9684C78.2222 36.9684 78.0861 36.921 77.9926 36.8262C77.8987 36.731 77.8522 36.594 77.8522 36.414C77.8522 36.4071 77.8543 36.2884 77.8587 36.057C77.8635 35.8257 77.8661 35.5983 77.8661 35.3744V35.1535Z" fill="white"/>
<path fill-rule="evenodd" clip-rule="evenodd" d="M79.1467 36.9157C79.1585 36.7692 79.1672 36.5874 79.1719 36.3704C79.1767 36.1539 79.1789 35.84 79.1789 35.4295C79.1789 34.9943 79.1767 34.6555 79.1719 34.412C79.1672 34.169 79.1585 33.9594 79.1467 33.7842C79.2037 33.7946 79.2567 33.8029 79.3063 33.8085C79.3559 33.8137 79.4041 33.8164 79.4502 33.8164C79.4994 33.8164 79.5485 33.8137 79.5989 33.8085C79.6489 33.8029 79.702 33.7946 79.7563 33.7842C79.7424 33.8985 79.732 34.0207 79.7242 34.1512C79.7172 34.2812 79.7129 34.4225 79.7129 34.5729V35.2217C79.7894 35.106 79.8811 35.0195 79.9885 34.9617C80.0959 34.9038 80.2185 34.8751 80.3572 34.8751C80.4581 34.8751 80.5503 34.8925 80.6338 34.9269C80.7177 34.9617 80.7881 35.0121 80.8447 35.0786C80.8938 35.1343 80.9282 35.2038 80.949 35.2869C80.969 35.3695 80.9795 35.5034 80.9795 35.6887C80.9795 35.7156 80.9786 35.7869 80.9773 35.9039C80.9755 36.0196 80.9751 36.1222 80.9751 36.2104C80.9751 36.3639 80.9773 36.4961 80.9816 36.607C80.9855 36.7179 80.9916 36.8205 80.9999 36.9157C80.9429 36.9087 80.8886 36.9044 80.8368 36.9005C80.7851 36.8974 80.7368 36.8953 80.6916 36.8953C80.6442 36.8953 80.5955 36.8974 80.5464 36.9005C80.4964 36.9044 80.4425 36.9087 80.3842 36.9157C80.3933 36.7979 80.4007 36.6561 80.4064 36.4918C80.4116 36.3274 80.4142 36.1448 80.4142 35.9435C80.4142 35.64 80.3912 35.4447 80.3433 35.3573C80.2959 35.2695 80.209 35.2256 80.0824 35.2256C79.9559 35.2256 79.8655 35.2778 79.8103 35.3826C79.7555 35.4873 79.7276 35.6639 79.7276 35.9126C79.7276 36.043 79.7298 36.1935 79.735 36.3635C79.7394 36.5331 79.7455 36.7174 79.7537 36.9157C79.6994 36.9087 79.6476 36.9044 79.5968 36.9005C79.5468 36.8974 79.4981 36.8953 79.4502 36.8953C79.4041 36.8953 79.3559 36.8974 79.305 36.9005C79.255 36.9044 79.2019 36.9087 79.1467 36.9157Z" fill="white"/>
<path fill-rule="evenodd" clip-rule="evenodd" d="M51.3589 41.5747C51.3928 41.3599 51.4224 41.176 51.4467 41.0221C51.4711 40.8686 51.4876 40.759 51.4959 40.6942L51.7628 38.7219C51.7898 38.7276 51.818 38.7319 51.8476 38.7345C51.8763 38.7376 51.9081 38.7389 51.942 38.7389C51.9759 38.7389 52.0085 38.7376 52.0389 38.7345C52.0694 38.7319 52.0994 38.7276 52.1276 38.7219C52.2768 39.0554 52.4324 39.3841 52.5938 39.7081C52.7546 40.0324 52.9207 40.3538 53.092 40.6738C53.2564 40.3651 53.4182 40.0481 53.5773 39.7233C53.7364 39.3985 53.8917 39.065 54.0443 38.7219C54.0739 38.7276 54.1047 38.7319 54.136 38.7345C54.1673 38.7376 54.2004 38.7389 54.236 38.7389C54.2713 38.7389 54.3052 38.7376 54.3369 38.7345C54.3691 38.7319 54.3995 38.7276 54.4274 38.7219L54.6661 40.7181C54.6922 40.939 54.7152 41.1125 54.7356 41.2386C54.7561 41.3647 54.7769 41.4765 54.7991 41.5747C54.7304 41.5686 54.6678 41.5643 54.61 41.5604C54.5526 41.5565 54.4974 41.5543 54.4439 41.5543C54.3913 41.5543 54.3356 41.5565 54.2778 41.5595C54.2199 41.563 54.1604 41.5678 54.0995 41.5747C54.0982 41.5652 54.0965 41.5508 54.0952 41.5317C54.083 41.2395 54.073 41.0586 54.0652 40.9895L53.9299 39.6581C53.7734 39.9572 53.6173 40.2651 53.4612 40.582C53.3047 40.8986 53.1451 41.2295 52.982 41.5747C52.9725 41.5721 52.962 41.5699 52.9503 41.5686C52.939 41.5673 52.9199 41.5665 52.8942 41.5665C52.8712 41.5665 52.8542 41.5673 52.8433 41.5686C52.8325 41.5699 52.822 41.5721 52.8125 41.5747C52.6507 41.2351 52.4924 40.9112 52.3376 40.6034C52.1829 40.2955 52.0302 40.0029 51.8811 39.7255L51.7811 40.592L51.7767 40.6242C51.7263 41.0747 51.7006 41.3912 51.6998 41.5747C51.668 41.5678 51.638 41.563 51.6102 41.5595C51.5811 41.5565 51.5546 41.5543 51.5302 41.5543C51.5032 41.5543 51.4759 41.5565 51.4489 41.5595C51.4215 41.563 51.3915 41.5678 51.3589 41.5747Z" fill="white"/>
<path fill-rule="evenodd" clip-rule="evenodd" d="M56.214 40.4757C56.021 40.5149 55.8818 40.5749 55.7957 40.6553C55.7105 40.7349 55.6675 40.8466 55.6675 40.9892C55.6675 41.1093 55.6892 41.1988 55.7331 41.2584C55.7766 41.3184 55.8414 41.348 55.9262 41.348C56.0188 41.348 56.0897 41.3149 56.1397 41.2484C56.1892 41.1819 56.214 41.0858 56.214 40.961V40.4757ZM56.2337 41.3118C56.1733 41.4127 56.095 41.4901 55.9981 41.5444C55.9007 41.5988 55.7911 41.6258 55.6685 41.6258C55.4933 41.6258 55.3554 41.574 55.2558 41.4701C55.1558 41.3657 55.1058 41.224 55.1058 41.0448C55.1058 40.9131 55.1411 40.8044 55.2119 40.7183C55.2828 40.6331 55.3937 40.5653 55.5441 40.5144C55.5928 40.4983 55.6637 40.4761 55.7559 40.4474C55.9737 40.3822 56.1229 40.3222 56.2029 40.2678C56.2042 40.26 56.205 40.2504 56.2063 40.2409C56.2068 40.23 56.2068 40.2157 56.2068 40.1965C56.2068 40.07 56.1707 39.9696 56.0985 39.8948C56.0268 39.82 55.9311 39.7826 55.8115 39.7826C55.7176 39.7826 55.6324 39.8091 55.5554 39.8622C55.4789 39.9152 55.4076 39.9961 55.3424 40.1048C55.3219 40.0396 55.305 39.9874 55.2915 39.9478C55.2776 39.9083 55.2641 39.8717 55.2502 39.8378C55.3741 39.7304 55.4963 39.6504 55.6176 39.5982C55.7385 39.5461 55.8641 39.5195 55.995 39.5195C56.245 39.5195 56.4372 39.5774 56.5707 39.693C56.7046 39.8082 56.772 39.9735 56.772 40.1883V40.2087L56.7594 40.9366V41.0166C56.7594 41.1862 56.7781 41.2953 56.8155 41.3436C56.8529 41.3918 56.926 41.4162 57.0347 41.4162H57.0473V41.5201C56.9764 41.5497 56.9029 41.5727 56.8268 41.5879C56.7507 41.6036 56.6777 41.6118 56.609 41.6118C56.5077 41.6118 56.4259 41.5862 56.362 41.5349C56.2981 41.4844 56.255 41.4097 56.2337 41.3118Z" fill="white"/>
<path fill-rule="evenodd" clip-rule="evenodd" d="M57.8012 40.1854C57.8012 40.3567 57.8264 40.4824 57.8756 40.5628C57.9256 40.6428 58.0038 40.6828 58.1112 40.6828C58.223 40.6828 58.303 40.6411 58.3521 40.5563C58.4008 40.4724 58.4256 40.3332 58.4256 40.1384C58.4256 39.988 58.4004 39.8754 58.3512 39.8023C58.3012 39.7288 58.2256 39.6919 58.1238 39.6919C58.0216 39.6919 57.9425 39.7349 57.886 39.8206C57.8295 39.9058 57.8012 40.0275 57.8012 40.1854ZM57.8006 41.696C57.7328 41.7312 57.6797 41.7816 57.6419 41.8469C57.6036 41.9121 57.5845 41.986 57.5845 42.069C57.5845 42.2117 57.6328 42.326 57.7284 42.4117C57.8245 42.4973 57.9532 42.5404 58.115 42.5404C58.3037 42.5404 58.4519 42.5012 58.5593 42.4238C58.6667 42.346 58.7202 42.2391 58.7202 42.1017C58.7202 41.9782 58.6854 41.886 58.6154 41.8251C58.5454 41.7651 58.4341 41.7303 58.2819 41.7225L57.8006 41.696ZM57.6176 41.67L57.6216 41.6369C57.5372 41.6113 57.4715 41.57 57.425 41.5126C57.3776 41.4556 57.3546 41.3869 57.3546 41.3069C57.3546 41.213 57.3907 41.126 57.4624 41.046C57.5346 40.966 57.6376 40.8969 57.7724 40.8399V40.7886C57.5942 40.7534 57.4602 40.686 57.3694 40.586C57.2794 40.486 57.2341 40.356 57.2341 40.1955C57.2341 39.9929 57.312 39.8303 57.4672 39.7073C57.6233 39.5846 57.8324 39.5225 58.0946 39.5225C58.119 39.5225 58.212 39.5285 58.3729 39.5399C58.5338 39.552 58.6829 39.5572 58.8203 39.5572C58.8764 39.5572 58.9351 39.5559 58.9977 39.5542C59.0599 39.5525 59.1264 39.5494 59.1956 39.5451V39.749C59.1099 39.7451 58.9943 39.7403 58.8473 39.7346C58.8169 39.7338 58.796 39.7329 58.7838 39.7329C58.856 39.779 58.9099 39.8377 58.946 39.9081C58.9817 39.9786 58.9999 40.0621 58.9999 40.159C58.9999 40.3751 58.9173 40.5443 58.7521 40.6656C58.5873 40.7873 58.356 40.8482 58.0599 40.8482H57.9885C57.9342 40.8539 57.8898 40.8747 57.8555 40.9117C57.8216 40.9482 57.805 40.9934 57.805 41.0478C57.805 41.1743 58.0025 41.2452 58.3986 41.26C58.4077 41.26 58.4155 41.26 58.4207 41.26C58.4329 41.2613 58.4499 41.2626 58.4721 41.2639C58.7255 41.2761 58.8899 41.303 58.9634 41.3439C59.0473 41.3926 59.1121 41.4591 59.1556 41.5435C59.2004 41.6278 59.2225 41.7257 59.2225 41.837C59.2225 42.0939 59.1164 42.3044 58.9043 42.4683C58.6921 42.6318 58.4168 42.714 58.0781 42.714C57.7998 42.714 57.582 42.6661 57.4259 42.5701C57.2694 42.4744 57.1915 42.3431 57.1915 42.1757C57.1915 42.0535 57.2263 41.9504 57.2976 41.8678C57.3676 41.7844 57.4746 41.7187 57.6176 41.67Z" fill="white"/>
<path fill-rule="evenodd" clip-rule="evenodd" d="M60.4664 40.4757C60.2734 40.5149 60.1342 40.5749 60.0482 40.6553C59.9629 40.7349 59.9203 40.8466 59.9203 40.9892C59.9203 41.1093 59.9416 41.1988 59.9851 41.2584C60.029 41.3184 60.0934 41.348 60.1786 41.348C60.2712 41.348 60.3425 41.3149 60.3921 41.2484C60.4417 41.1819 60.4664 41.0858 60.4664 40.961V40.4757ZM60.4841 41.3118C60.4237 41.4127 60.3454 41.4901 60.2484 41.5444C60.151 41.5988 60.0415 41.6258 59.9193 41.6258C59.7436 41.6258 59.6058 41.574 59.5062 41.4701C59.4062 41.3657 59.3562 41.224 59.3562 41.0448C59.3562 40.9131 59.3914 40.8044 59.4623 40.7183C59.5327 40.6331 59.644 40.5653 59.7945 40.5144C59.8432 40.4983 59.9141 40.4761 60.0067 40.4474C60.2241 40.3822 60.3728 40.3222 60.4532 40.2678C60.4545 40.26 60.4554 40.2504 60.4563 40.2409C60.4567 40.23 60.4571 40.2157 60.4571 40.1965C60.4571 40.07 60.4211 39.9696 60.3489 39.8948C60.2771 39.82 60.1815 39.7826 60.0619 39.7826C59.968 39.7826 59.8828 39.8091 59.8058 39.8622C59.7293 39.9152 59.658 39.9961 59.5927 40.1048C59.5723 40.0396 59.5553 39.9874 59.5414 39.9478C59.528 39.9083 59.5145 39.8717 59.501 39.8378C59.6245 39.7304 59.7471 39.6504 59.868 39.5982C59.9889 39.5461 60.1149 39.5195 60.2454 39.5195C60.4954 39.5195 60.6876 39.5774 60.8211 39.693C60.9554 39.8082 61.0224 39.9735 61.0224 40.1883V40.2087L61.0098 40.9366V41.0166C61.0098 41.1862 61.0285 41.2953 61.0659 41.3436C61.1033 41.3918 61.1763 41.4162 61.285 41.4162H61.2972V41.5201C61.2268 41.5497 61.1533 41.5727 61.0772 41.5879C61.0011 41.6036 60.928 41.6118 60.8593 41.6118C60.758 41.6118 60.6763 41.5862 60.6124 41.5349C60.5485 41.4844 60.5054 41.4097 60.4841 41.3118Z" fill="white"/>
<path fill-rule="evenodd" clip-rule="evenodd" d="M61.3495 41.5714L61.3478 41.5045C61.5043 41.2692 61.7474 40.8988 62.0778 40.3931L62.467 39.7978C62.38 39.7935 62.3122 39.7913 62.2644 39.79C62.2161 39.7896 62.1696 39.7891 62.1244 39.7891C62.0117 39.7891 61.833 39.7939 61.5882 39.8039C61.5665 39.8039 61.5508 39.8043 61.5417 39.8056C61.5439 39.7909 61.5461 39.7756 61.5478 39.7609C61.5491 39.7461 61.55 39.7226 61.55 39.6917C61.55 39.66 61.5491 39.6365 61.5478 39.6204C61.5461 39.6039 61.5439 39.5887 61.5417 39.5752C61.6665 39.5808 61.7974 39.5852 61.9339 39.5874C62.0704 39.59 62.2165 39.5917 62.3713 39.5917C62.5279 39.5917 62.6722 39.59 62.8057 39.5874C62.9388 39.5852 63.0649 39.5808 63.1849 39.5752V39.6261C63.087 39.773 62.9509 39.9809 62.7761 40.2492C62.6018 40.5179 62.3665 40.8801 62.0717 41.3371C62.1722 41.3414 62.2474 41.344 62.297 41.3444C62.3465 41.3449 62.3935 41.3449 62.4392 41.3449C62.5648 41.3449 62.6887 41.3431 62.8088 41.3384C62.9292 41.3331 63.0475 41.3266 63.1649 41.3188C63.1618 41.3444 63.1596 41.3666 63.1583 41.3857C63.157 41.4049 63.1566 41.4218 63.1566 41.4366C63.1566 41.4523 63.157 41.4692 63.1583 41.4879C63.1596 41.5071 63.1618 41.5349 63.1649 41.5714C63.0422 41.5645 62.9101 41.5597 62.7679 41.5562C62.6261 41.5532 62.4613 41.551 62.2757 41.551C62.0904 41.551 61.923 41.5532 61.7739 41.5562C61.6239 41.5597 61.483 41.5645 61.3495 41.5714Z" fill="white"/>
<path fill-rule="evenodd" clip-rule="evenodd" d="M63.5357 41.5718C63.5462 41.3587 63.5536 41.1731 63.5579 41.0165C63.5627 40.8591 63.5649 40.7117 63.5649 40.5748C63.5649 40.4174 63.5623 40.2565 63.557 40.0926C63.5518 39.9291 63.5449 39.7565 63.5357 39.5756C63.584 39.5799 63.6336 39.583 63.6853 39.5851C63.7371 39.5869 63.7905 39.5877 63.8449 39.5877C63.8997 39.5877 63.9532 39.5869 64.0058 39.5851C64.0579 39.583 64.1075 39.5799 64.154 39.5756C64.1445 39.7565 64.1371 39.9291 64.1327 40.0926C64.1275 40.2565 64.1253 40.4174 64.1253 40.5748C64.1253 40.7117 64.1275 40.8596 64.1327 41.0174C64.1371 41.1748 64.1445 41.36 64.154 41.5718C64.101 41.5648 64.0484 41.5601 63.9975 41.5566C63.9462 41.5535 63.8958 41.5514 63.8449 41.5514C63.7958 41.5514 63.7457 41.5535 63.6944 41.5566C63.6431 41.5601 63.5905 41.5648 63.5357 41.5718ZM63.5312 38.8239C63.5312 38.7357 63.5617 38.6609 63.6226 38.5996C63.6839 38.5382 63.7595 38.5078 63.8495 38.5078C63.9356 38.5078 64.0095 38.5387 64.0704 38.6004C64.1309 38.6626 64.1609 38.7365 64.1609 38.8239C64.1609 38.9122 64.1304 38.987 64.0695 39.047C64.0078 39.1079 63.933 39.1379 63.8448 39.1379C63.7565 39.1379 63.6821 39.1079 63.6217 39.047C63.5613 38.987 63.5312 38.9122 63.5312 38.8239Z" fill="white"/>
<path fill-rule="evenodd" clip-rule="evenodd" d="M64.678 41.574C64.6893 41.3896 64.6971 41.2152 64.7028 41.0513C64.708 40.887 64.711 40.73 64.711 40.5791C64.711 40.4095 64.708 40.2413 64.7028 40.0743C64.6971 39.9073 64.6893 39.7421 64.678 39.5777C64.7215 39.5834 64.7667 39.5877 64.8141 39.5899C64.8606 39.5925 64.9115 39.5943 64.9658 39.5943C65.0202 39.5943 65.0702 39.5925 65.1158 39.5899C65.1611 39.5877 65.2045 39.5834 65.2454 39.5777V39.8656C65.3306 39.7525 65.4267 39.6691 65.5328 39.6147C65.6389 39.5604 65.7576 39.533 65.8898 39.533C65.9911 39.533 66.0846 39.5508 66.169 39.5851C66.2533 39.6199 66.3242 39.6704 66.3829 39.7369C66.429 39.7912 66.462 39.8582 66.482 39.9378C66.5016 40.0173 66.5116 40.1534 66.5116 40.3465C66.5116 40.3739 66.5107 40.4452 66.5098 40.5617C66.5077 40.6778 66.5072 40.7804 66.5072 40.8687C66.5072 40.9991 66.5098 41.1222 66.5146 41.2379C66.5194 41.3531 66.5264 41.4653 66.5359 41.574C66.4777 41.567 66.4229 41.5622 66.372 41.5587C66.3207 41.5557 66.2711 41.5535 66.2242 41.5535C66.1763 41.5535 66.1276 41.5557 66.0785 41.5587C66.0285 41.5622 65.9746 41.567 65.9163 41.574C65.9255 41.4557 65.9333 41.3144 65.9398 41.1496C65.9455 40.9852 65.9489 40.8026 65.9489 40.6017C65.9489 40.2982 65.925 40.1026 65.8763 40.0152C65.8281 39.9273 65.7407 39.8834 65.6146 39.8834C65.488 39.8834 65.3972 39.936 65.3419 40.0408C65.2872 40.1456 65.2598 40.3221 65.2598 40.5709C65.2598 40.6878 65.2619 40.83 65.2654 40.997C65.2698 41.1644 65.275 41.3566 65.2819 41.574C65.2302 41.567 65.1793 41.5622 65.1289 41.5587C65.0789 41.5557 65.0297 41.5535 64.9823 41.5535C64.9363 41.5535 64.8876 41.5557 64.838 41.5587C64.7867 41.5622 64.7341 41.567 64.678 41.574Z" fill="white"/>
<path fill-rule="evenodd" clip-rule="evenodd" d="M67.5296 40.3746H68.2366C68.2366 40.3593 68.2375 40.3411 68.2388 40.318C68.2401 40.2959 68.2414 40.2811 68.2414 40.2746C68.2414 40.0854 68.2136 39.9428 68.1583 39.8463C68.1035 39.7502 68.0218 39.7015 67.9148 39.7015C67.7927 39.7015 67.6974 39.7567 67.6305 39.8667C67.5631 39.9767 67.5296 40.1337 67.5296 40.3376V40.3746ZM67.5295 40.5812C67.5295 40.8212 67.5869 41.0126 67.7017 41.1539C67.8165 41.2952 67.9709 41.3656 68.1652 41.3656C68.2622 41.3656 68.3544 41.3495 68.4426 41.3169C68.5309 41.2843 68.6166 41.2347 68.6996 41.1682L68.7405 41.1991L68.6487 41.4356C68.5613 41.4965 68.4596 41.5435 68.3418 41.5761C68.2244 41.6087 68.0965 41.6248 67.9591 41.6248C67.6343 41.6248 67.38 41.5291 67.1956 41.3374C67.0117 41.146 66.9199 40.8808 66.9199 40.5421C66.9199 40.2377 67.0112 39.9916 67.1947 39.8042C67.3782 39.6164 67.6213 39.5225 67.923 39.5225C68.2091 39.5225 68.4296 39.6025 68.5822 39.7612C68.7353 39.9203 68.8118 40.149 68.8118 40.4464C68.8118 40.4817 68.8118 40.509 68.8105 40.5282C68.81 40.5473 68.8087 40.5643 68.8074 40.5791L67.5295 40.5812Z" fill="white"/>
<path fill-rule="evenodd" clip-rule="evenodd" d="M57.9101 24.0109C57.8314 23.6092 57.6062 22.7565 57.4005 22.2073L57.714 22.0508C58.1158 22.4917 58.5371 23.2565 58.7136 23.707L57.9101 24.0109ZM56.7048 30.0082H57.6553V28.3129H56.7048V30.0082ZM56.7048 27.871H57.6553V26.3422H56.7048V27.871ZM56.7048 25.9007H57.6553V24.5876H56.7048V25.9007ZM55.6066 23.6968H51.3828V23.2559H53.5682C53.2156 22.8833 52.8625 22.5794 52.4903 22.2759L52.6273 21.9719C53.176 22.1285 53.8426 22.4128 54.2539 22.7068L53.8621 23.2559H55.6066V23.6968ZM51.4897 26.7564L51.2249 26.5311C51.6854 25.7863 52.0284 24.7175 52.205 23.767L52.9989 23.9536C52.9498 24.1984 52.842 24.4827 52.7146 24.7867C53.0872 25.041 53.4103 25.3158 53.6555 25.5998L53.0968 26.1294C52.9398 25.8154 52.7537 25.4824 52.548 25.1589C52.2541 25.7567 51.8619 26.3646 51.4897 26.7564ZM59.9964 30.0085V30.4594H56.7035V31.2042H55.8409L55.8509 26.0687C55.7135 26.2843 55.5765 26.5 55.4291 26.6961L55.1547 26.4904C55.2726 26.2452 55.3804 26.0104 55.4682 25.7652L55.0078 26.1865C54.8608 25.8826 54.6843 25.5591 54.4686 25.2556C54.2925 25.6278 54.0673 25.9904 53.832 26.3135H53.9986V27.2348H55.6252V27.6762H53.9986V28.0288C54.5864 28.3619 55.1452 28.7049 55.5565 29.0971L54.9786 29.7437C54.7038 29.3324 54.2925 28.8423 53.9986 28.4993V31.2629H53.1555V28.6954C52.7833 29.2541 52.1267 30.0181 51.3227 30.5964L51.1171 30.3124C51.8228 29.6067 52.4893 28.7441 52.9498 27.6762H51.3327V27.2348H53.1555V26.3135H53.4103C53.812 25.5886 54.0181 24.6968 54.126 23.8046L54.9195 24.0007C54.8708 24.2655 54.7725 24.5499 54.6551 24.8534C54.9982 25.079 55.3117 25.3238 55.5369 25.5886C55.88 24.589 55.9974 23.5302 56.1444 22.0997L57.0366 22.2762C56.9775 22.9228 56.8601 23.5502 56.6835 24.1481H59.8685V24.589H58.4967V25.9021H59.6237V26.343H58.4967V27.8718H59.6337V28.3132H58.4967V30.0085H59.9964Z" fill="white"/>
<path fill-rule="evenodd" clip-rule="evenodd" d="M70.9157 29.5166L70.1413 29.8988C69.8965 29.1148 69.6412 28.4383 69.3182 27.7721L69.5925 27.586C70.1413 28.1543 70.5922 28.8109 70.9157 29.5166ZM67.4462 26.3687C67.9262 26.5744 68.818 27.0644 69.1907 27.4466L68.6124 28.1032C68.2693 27.6723 67.6519 27.0157 67.2697 26.6531L67.4462 26.3687ZM69.3681 28.7625C69.8185 30.3696 69.8972 30.997 68.3684 30.997C66.9375 30.997 66.7414 30.8892 66.7414 29.8309V27.2824H67.6036V29.6739C67.6036 30.0656 67.6923 30.1935 68.3093 30.1935C69.015 30.1935 69.0246 30.0656 69.015 28.7625H69.3681ZM67.6222 24.2059H65.6034V23.7645H67.6222V22.1183H68.5044V23.7645H70.5628V24.2059H68.5044V25.9012H70.435V26.3421H65.8095V25.9012H67.6222V24.2059ZM63.2127 30.0557H64.3297V28.2721H63.2127V30.0557ZM66.1335 27.8011L66.4766 27.8694C66.4174 28.9082 66.1922 29.7708 65.7413 30.3687L65.0843 29.8787V31.0644H64.3399V30.4861H63.2129V31.2018H62.4485V27.8403H65.0843V29.7808C65.5843 29.2708 65.9665 28.6829 66.1335 27.8011ZM62.4188 26.8895H65.1729V26.4777H62.4188V26.8895ZM62.4188 25.5377H65.1729V25.126H62.4188V25.5377ZM65.3981 24.2068H62.1344V23.7655H63.6341C63.3106 23.2072 62.9479 22.5993 62.7227 22.2762L62.9675 22.031C63.428 22.3349 64.075 22.8641 64.4767 23.3737L63.9671 23.7655H65.3981V24.2068Z" fill="white"/>
<path fill-rule="evenodd" clip-rule="evenodd" d="M48.2588 31.0829C48.0475 30.8424 47.8205 30.6985 47.6997 30.6333C47.6705 30.6202 47.6423 30.6063 47.614 30.5902L47.6123 30.5894H47.6127C47.477 30.512 47.3496 30.4076 47.1996 30.3689C46.9731 30.3102 46.7309 30.3385 46.5022 30.2898C46.1804 30.2215 45.8604 30.1415 45.5347 30.0915C45.1291 30.0289 44.7086 30.0128 44.3112 30.1315C44.132 30.185 43.9177 30.2554 43.7881 30.3976C43.6803 30.5159 43.6829 30.655 43.649 30.8016C43.6172 30.9394 43.5994 31.0798 43.5981 31.2211C43.5937 31.7464 43.7964 32.2669 44.0568 32.7147C44.1964 32.9552 44.3599 33.1813 44.5403 33.3922C44.7056 33.5861 44.9004 33.8422 45.113 33.9844C45.3226 34.1244 45.466 34.2244 45.5987 34.4383C45.6913 34.5888 45.7021 34.6331 45.8782 34.7009C46.1657 34.8114 46.4931 34.8083 46.7961 34.8301C47.1931 34.8588 47.6218 34.8653 48.0149 34.7957C48.3136 34.7423 48.3706 34.5314 48.6136 34.3896C48.8415 34.257 48.9563 34.2353 49.0615 33.9844C49.5346 32.8547 48.9506 31.8955 48.2588 31.0829Z" fill="white"/>
</svg>
