<svg width="88" height="88" viewBox="0 0 88 88" fill="none" xmlns="http://www.w3.org/2000/svg">
<rect y="-0.000244141" width="88" height="88" rx="19" fill="#D60C18"/>
<path fill-rule="evenodd" clip-rule="evenodd" d="M21.8106 33.001C22.2727 34.3421 20.4045 34.7799 19.5412 35.1326C19.2426 35.2544 18.9449 35.3794 18.6522 35.5155C18.4516 35.6089 18.2679 35.7376 18.0623 35.8201C17.8667 35.8979 17.6537 35.9254 17.449 35.9703C16.9882 36.072 16.5298 36.1865 16.0741 36.3097C15.1599 36.5561 14.2544 36.835 13.3439 37.0965C12.825 37.2454 12.3047 37.3887 11.7802 37.5174C11.2265 37.6535 10.6636 37.5055 10.1827 37.2225C9.73615 36.96 9.70683 36.5419 9.50348 36.1104C9.40043 35.8924 9.416 35.6556 9.61569 35.4848C9.66836 35.4404 9.89736 35.4532 9.97065 35.4431C10.0906 35.4266 10.2097 35.4083 10.3293 35.3886C10.5651 35.3506 10.8001 35.3075 11.036 35.2718C11.2718 35.2361 11.5086 35.2068 11.7463 35.1917C12.0074 35.1756 12.225 35.237 12.4535 35.084C12.6976 34.921 12.9326 34.7621 13.2014 34.6393C13.7176 34.4039 14.2745 34.2798 14.8329 34.1918C15.0284 34.1611 15.2245 34.1346 15.4209 34.1094C15.5226 34.0961 15.6348 34.1149 15.7342 34.0856C15.8528 34.0508 15.8849 33.9862 15.9815 33.9124C16.1812 33.7595 16.4551 33.7567 16.6544 33.6038C17.2191 33.1517 17.9716 32.9822 18.4232 32.4175C18.7484 32.1496 19.1624 32.0374 19.5769 32.0158C20.0134 31.9934 20.4572 31.9613 20.8515 32.178C21.2184 32.3795 21.6668 32.5709 21.8106 33.001Z" fill="white"/>
<path fill-rule="evenodd" clip-rule="evenodd" d="M37.2427 39.9572C37.3013 39.7424 37.3517 39.5184 37.3508 39.2949C37.3503 39.0636 37.2139 38.8621 37.1983 38.6336C37.1855 38.4499 37.288 38.2502 37.0728 38.1504C36.6212 37.8307 36.2071 38.3391 35.7556 38.4146C35.3859 38.5988 35.1098 38.9217 34.7988 39.185C34.5812 39.3696 34.3101 39.4681 34.0774 39.6293C33.8548 39.7823 33.6817 39.9939 33.4646 40.156C32.9988 40.5041 32.4556 40.7271 31.9729 41.0491C31.5648 41.3212 30.6442 41.214 30.1944 41.1274C29.3792 40.9703 28.6638 40.5659 27.9062 40.259C27.5755 40.1253 27.227 40.0204 26.9238 39.8271C26.5752 39.6041 26.3833 39.212 26.0339 38.9785C25.7201 38.7691 25.4078 38.5841 25.4994 38.1504C25.7815 37.8495 26.1768 37.7931 26.5533 37.6992C27.8512 37.4542 29.2628 37.6429 30.5242 37.2096C31.2382 37.0218 31.9916 36.8524 32.6883 36.6073C32.8715 36.5432 33.0661 36.4516 33.2603 36.3866C33.4728 36.3156 33.6057 36.1585 33.8012 36.0609C34.234 35.8438 34.6898 35.9716 35.1272 35.8521C35.7409 35.6849 36.3491 35.4971 36.9546 35.3011C37.3068 35.1871 37.6499 35.041 38.0112 34.9581C38.2975 34.8921 38.5984 34.8967 38.8531 34.7327C39.4723 34.3338 40.2573 34.5106 40.9127 34.2179C41.466 33.9706 42.0926 33.7256 42.6811 33.5795C42.9884 33.503 43.3063 33.4645 43.6218 33.5066C44.1545 33.5776 44.7059 33.7091 45.2331 33.8204C45.6815 33.9152 46.1404 33.982 46.5426 34.217C46.7615 34.3448 46.9383 34.5335 47.0477 34.7634C47.078 35.057 46.9786 35.3377 46.8503 35.597C46.7858 35.7284 46.7129 35.8553 46.6419 35.9835C46.4166 36.3935 46.0484 36.4896 45.6215 36.6041C45.1942 36.7191 44.749 36.7635 44.313 36.6614C44.0821 36.6069 43.8458 36.4938 43.6608 36.344C42.9128 35.8658 41.9991 36.0005 41.1866 36.2103C41.0744 36.2391 40.9636 36.2707 40.8546 36.3087C40.7355 36.349 40.6269 36.3664 40.5271 36.4466C40.4341 36.5212 40.3375 36.5808 40.2321 36.6371C39.9601 36.7832 39.7247 36.9069 39.7265 37.2421C39.7292 37.6388 39.6601 38.0959 39.8204 38.471C40.1781 39.2235 39.7072 39.976 40.0462 40.729C40.1973 41.7453 40.4982 43.1752 40.4607 44.3417C40.4607 45.9603 40.5921 47.9737 40.8555 49.5346C40.9164 49.8946 41.0295 50.2468 41.1142 50.6013C41.1678 50.823 41.1807 51.0529 41.2338 51.2751C41.3478 51.7532 41.4587 52.1018 41.4385 52.601C41.4156 53.1703 41.3483 53.7368 41.2663 54.3002C41.1765 54.9203 40.9846 55.5286 40.3663 55.8025C39.7613 56.4666 38.6859 56.3393 37.9196 56.0846C37.589 55.9747 37.1768 55.5034 37.0091 55.2038C36.9065 55.0211 36.9216 54.8013 36.8745 54.6002C36.7536 54.0822 36.541 53.5912 36.7155 53.0549C37.0916 48.7258 37.4676 44.6243 37.2427 40.3149" fill="white"/>
<path fill-rule="evenodd" clip-rule="evenodd" d="M16.2038 38.1222C16.5803 38.5357 16.7488 39.0253 16.9751 39.515C17.1688 39.7266 17.4116 39.7147 17.6621 39.6212C17.8787 39.5406 18.116 39.5049 18.3006 39.356C18.4833 39.2086 18.634 39.0125 18.8099 38.855C19.1896 38.5151 19.5954 38.1996 20.0859 38.0393C20.3772 37.944 20.6776 37.9051 20.9836 37.9335C21.4732 38.1222 22.0943 38.1034 22.3388 38.6109C22.5642 38.9315 22.5074 39.3075 22.3947 39.6464C21.9623 40.5308 20.8897 40.8514 20.1367 41.4157C19.534 41.7349 18.7251 41.9612 18.4242 42.6386C18.4055 43.7117 19.2715 44.5764 19.9485 45.1975C20.9836 46.2706 21.9436 47.9066 23.3359 48.5469C23.7463 48.7356 24.0889 49.1221 24.4342 49.4047C24.6225 49.5586 24.8176 49.7075 25.0287 49.8298C25.265 49.9667 25.5224 50.0171 25.7524 50.1728C25.9814 50.3272 26.2763 50.3991 26.4595 50.6162C26.5328 50.7032 26.6583 50.7215 26.754 50.7719C26.9569 50.8795 27.0939 51.0975 27.3293 51.1456C27.4594 51.1722 27.5743 51.1433 27.6994 51.1997C27.8207 51.2546 27.9348 51.3591 28.0465 51.4328C28.5691 51.7758 29.1091 52.101 29.699 52.3163C29.9267 52.3996 30.1749 52.412 30.4011 52.499C30.6192 52.5819 30.7598 52.7551 30.9466 52.8856C31.2672 53.1105 31.7014 53.3125 31.8544 53.6999C31.9543 53.9523 31.8228 54.3334 31.6602 54.5312C31.428 54.8143 31.0025 54.8871 30.6622 54.9402C30.3169 54.9938 29.9605 55.1541 29.6138 55.193C29.4224 55.2146 29.2259 55.2118 29.0335 55.2265C28.6213 55.2572 28.2091 55.3002 27.7974 55.3419C26.9652 55.4266 26.1293 55.5136 25.2916 55.4981C24.8341 55.4903 24.2968 55.5594 23.8837 55.3217C23.319 54.997 22.8069 54.5092 22.2889 54.1144C21.6088 53.596 21.1457 52.8773 20.6579 52.1761C20.1486 51.4433 19.6613 50.6959 19.1488 49.9653C18.7348 49.3754 18.3216 48.6957 17.7583 48.2354C17.5595 48.0733 17.4285 47.8443 17.232 47.6762C17.0612 47.5306 16.9101 47.3712 16.7603 47.204C16.4566 46.8637 16.1356 46.5573 15.6583 46.5147C15.4802 46.7817 15.357 47.0831 15.2855 47.3959C15.2374 47.6075 15.2479 47.8264 15.2118 48.039C15.1815 48.2176 15.1151 48.3866 15.0826 48.5652C15.0125 48.9499 15.0061 49.3644 14.811 49.7139C14.6928 49.9246 14.6264 50.0972 14.5696 50.3354C14.5142 50.5694 14.3983 50.8191 14.3054 51.0417C14.2532 51.1671 14.1703 51.2771 14.1144 51.4003C14.0118 51.627 13.9568 51.8679 13.8387 52.0923C13.7072 52.3429 13.5625 52.5879 13.4049 52.8233C13.0884 53.296 12.7248 53.7375 12.33 54.1465C12.1078 54.3769 11.8761 54.5976 11.6361 54.8092C11.4488 54.9741 11.288 55.1596 11.07 55.2883C10.8483 55.4193 10.5987 55.4701 10.3555 55.5471C9.83887 55.7106 9.37078 55.9419 8.81797 55.9684C8.49232 55.9836 8.17034 55.8924 7.88501 55.7353C7.76363 55.6689 7.54837 55.679 7.41051 55.6268C7.24792 55.5654 7.08853 55.4802 6.94884 55.3762C6.79082 55.2581 6.63052 55.1294 6.51373 54.9682C6.44915 54.8793 6.39327 54.785 6.37724 54.6755C6.34427 54.4474 6.38594 54.3695 6.24076 54.1772C6.05435 53.9289 6.15511 53.7631 6.10061 53.4943C6.0745 53.3651 6.01221 53.2424 6.00122 53.1109C5.98335 52.8948 6.1661 52.7253 6.28564 52.5659C6.418 52.3891 6.53342 52.1967 6.75601 52.1216C7.00792 52.0374 7.36425 52.0461 7.62165 52.0983C7.76867 52.128 7.90974 52.1807 8.03752 52.26C8.24363 52.3877 8.33614 52.5787 8.59629 52.4271C8.79186 52.314 8.90591 52.1042 9.07354 51.9595C9.20178 51.8496 9.25124 51.6664 9.37765 51.5441C9.51918 51.4062 9.652 51.261 9.772 51.1039C10.0184 50.781 10.2039 50.4178 10.3321 50.0331C11.0095 49.3177 11.0847 48.3028 10.8213 47.324C10.1251 47.2681 9.39139 47.6249 8.65721 47.3808C8.1676 47.0235 7.45265 46.8353 7.20807 46.2894C6.86914 45.9321 6.58701 45.4801 6.53022 44.9717C6.73769 44.4079 7.52776 44.5764 7.97981 44.483C8.39385 44.314 8.88301 44.276 9.29659 44.0685C9.53063 43.9521 9.80589 43.9155 10.0441 43.7863C10.279 43.6586 10.4993 43.506 10.7224 43.3595C10.945 43.2129 11.1703 43.0686 11.4135 42.9583C11.6727 42.8415 11.9604 42.8044 12.2141 42.667C12.4317 42.5493 12.6323 42.3839 12.8223 42.2268C13.2167 41.9007 13.5226 41.4386 13.4562 40.9068C13.4338 40.7273 13.3481 40.5643 13.3486 40.3696C13.3486 40.1763 13.3871 39.9853 13.4264 39.7971C13.4658 39.6079 13.5116 39.4197 13.5332 39.2273C13.5657 38.9388 13.4919 38.745 13.6664 38.4872C13.8199 38.2596 14.047 38.0713 14.3031 37.971C14.5092 37.8909 14.767 37.9335 14.9823 37.9344C15.1573 37.9348 15.3803 37.813 15.5502 37.8611C15.6537 37.8904 15.7261 37.9829 15.842 38.0118C15.9661 38.0429 16.098 38.037 16.2038 38.1222Z" fill="white"/>
<path fill-rule="evenodd" clip-rule="evenodd" d="M55.2035 47.507L55.1408 47.5157C55.0941 47.3595 55.0002 47.2381 54.8596 47.1515C54.7194 47.065 54.5449 47.0215 54.3356 47.0215C54.0191 47.0215 53.7732 47.1328 53.5969 47.3544C53.421 47.5766 53.333 47.8876 53.333 48.2888C53.333 48.7211 53.4224 49.0509 53.6023 49.2776C53.7819 49.5053 54.0425 49.6184 54.3851 49.6184C54.5321 49.6184 54.6814 49.5895 54.8307 49.5323C54.9805 49.475 55.1161 49.3949 55.2379 49.2918L55.2919 49.3046L55.1903 49.6743C55.0501 49.743 54.9035 49.7938 54.7515 49.8277C54.5985 49.8611 54.4378 49.8781 54.2692 49.8781C53.7549 49.8781 53.355 49.7398 53.0688 49.4636C52.7821 49.1869 52.6392 48.8013 52.6392 48.3057C52.6392 47.8363 52.7931 47.4607 53.1017 47.1781C53.4104 46.896 53.8231 46.7554 54.3397 46.7554C54.5032 46.7554 54.6654 46.7732 54.8261 46.809C54.9874 46.8447 55.1509 46.8996 55.3176 46.9743C55.2919 47.0545 55.269 47.1387 55.2498 47.2267C55.2301 47.3146 55.215 47.408 55.2035 47.507Z" fill="white"/>
<path fill-rule="evenodd" clip-rule="evenodd" d="M56.1587 48.7684C56.1587 49.1023 56.1935 49.3368 56.2627 49.4728C56.3323 49.6089 56.4486 49.6771 56.6117 49.6771C56.7761 49.6771 56.8938 49.6089 56.9639 49.4719C57.0339 49.335 57.0692 49.1009 57.0692 48.7684C57.0692 48.435 57.0339 48.1991 56.9639 48.0608C56.8938 47.9225 56.7761 47.8538 56.6117 47.8538C56.4486 47.8538 56.3323 47.922 56.2627 48.0585C56.1935 48.1955 56.1587 48.4322 56.1587 48.7684ZM55.5118 48.7662C55.5118 48.4154 55.6089 48.1429 55.8041 47.9482C55.9987 47.7531 56.2689 47.656 56.6161 47.656C56.9683 47.656 57.2395 47.7522 57.43 47.9446C57.6205 48.1374 57.7158 48.4113 57.7158 48.7662C57.7158 49.1143 57.6187 49.3854 57.4245 49.5792C57.2307 49.7734 56.9601 49.8705 56.6115 49.8705C56.2621 49.8705 55.9914 49.7734 55.7999 49.5801C55.6076 49.3873 55.5118 49.1157 55.5118 48.7662Z" fill="white"/>
<path fill-rule="evenodd" clip-rule="evenodd" d="M58.1023 49.8211C58.111 49.5866 58.1179 49.3814 58.122 49.2037C58.1261 49.0269 58.1284 48.8808 58.1284 48.7667C58.1284 48.6522 58.1261 48.5084 58.122 48.3348C58.1179 48.1612 58.111 47.9561 58.1023 47.7183C58.1504 47.7243 58.1985 47.7289 58.2484 47.7316C58.2983 47.7344 58.3528 47.7358 58.4101 47.7358C58.4701 47.7358 58.525 47.7344 58.574 47.7316C58.6235 47.7289 58.6702 47.7243 58.7151 47.7183V48.0092C58.8049 47.8915 58.902 47.8058 59.0059 47.7518C59.1095 47.6982 59.2281 47.6716 59.3614 47.6716C59.5088 47.6716 59.6343 47.7064 59.7397 47.7756C59.8436 47.8452 59.921 47.946 59.9714 48.0793C60.0575 47.9409 60.1574 47.8379 60.2723 47.771C60.3864 47.7046 60.5197 47.6716 60.6713 47.6716C60.7771 47.6716 60.8732 47.689 60.958 47.7243C61.0436 47.7591 61.116 47.8113 61.1765 47.8819C61.2365 47.9506 61.2781 48.0399 61.3033 48.1507C61.3271 48.2606 61.3395 48.4594 61.3395 48.747V49.02C61.3395 49.1437 61.3413 49.2715 61.3445 49.4038C61.3487 49.5362 61.3537 49.6754 61.361 49.8211C61.2964 49.8137 61.2374 49.8092 61.1838 49.805C61.1302 49.8018 61.078 49.7995 61.0281 49.7995C60.9777 49.7995 60.9268 49.8018 60.8746 49.805C60.822 49.8092 60.7665 49.8137 60.7079 49.8211C60.7212 49.6292 60.7304 49.4515 60.7372 49.2889C60.7432 49.1253 60.7468 48.9728 60.7468 48.8313C60.7468 48.5034 60.7212 48.2886 60.6694 48.1883C60.6177 48.087 60.5261 48.0367 60.3946 48.0367C60.2641 48.0367 60.1716 48.087 60.1162 48.1883C60.0612 48.2886 60.0337 48.4681 60.0337 48.7255V49.4217C60.0337 49.489 60.0383 49.6076 60.0488 49.778C60.0497 49.7982 60.0507 49.8124 60.0507 49.8211C59.9893 49.8137 59.9316 49.8092 59.878 49.805C59.824 49.8018 59.7722 49.7995 59.7223 49.7995C59.6719 49.7995 59.6206 49.8018 59.5684 49.806C59.5162 49.8101 59.4585 49.8147 59.3957 49.8211C59.4067 49.6566 59.4154 49.4973 59.4218 49.3438C59.4269 49.1904 59.4305 49.0452 59.4305 48.9073C59.4305 48.5231 59.4049 48.2822 59.3549 48.1837C59.3046 48.0857 59.2134 48.0367 59.0801 48.0367C58.951 48.0367 58.8594 48.0866 58.8049 48.1869C58.7508 48.2867 58.7234 48.4667 58.7234 48.7255V49.4217C58.7234 49.4904 58.7279 49.6099 58.738 49.7803C58.7398 49.7991 58.7398 49.8124 58.738 49.8211C58.684 49.8137 58.6308 49.8092 58.5782 49.805C58.5264 49.8018 58.4742 49.7995 58.4224 49.7995C58.3753 49.7995 58.3258 49.8018 58.2745 49.805C58.2228 49.8092 58.1655 49.8137 58.1023 49.8211Z" fill="white"/>
<path fill-rule="evenodd" clip-rule="evenodd" d="M61.9171 49.8211C61.9254 49.5866 61.9322 49.3814 61.9364 49.2037C61.9409 49.0269 61.9428 48.8808 61.9428 48.7667C61.9428 48.6522 61.9409 48.5084 61.9364 48.3348C61.9322 48.1612 61.9254 47.9561 61.9171 47.7183C61.9647 47.7243 62.0128 47.7289 62.0632 47.7316C62.1131 47.7344 62.1672 47.7358 62.2244 47.7358C62.2844 47.7358 62.3394 47.7344 62.3889 47.7316C62.4383 47.7289 62.485 47.7243 62.5295 47.7183V48.0092C62.6197 47.8915 62.7163 47.8058 62.8208 47.7518C62.9243 47.6982 63.0424 47.6716 63.1762 47.6716C63.3232 47.6716 63.4492 47.7064 63.554 47.7756C63.658 47.8452 63.7354 47.946 63.7862 48.0793C63.8719 47.9409 63.9717 47.8379 64.0867 47.771C64.2007 47.7046 64.334 47.6716 64.4856 47.6716C64.5919 47.6716 64.6876 47.689 64.7728 47.7243C64.858 47.7591 64.9303 47.8113 64.9908 47.8819C65.0508 47.9506 65.0929 48.0399 65.1177 48.1507C65.1415 48.2606 65.1539 48.4594 65.1539 48.747V49.02C65.1539 49.1437 65.1561 49.2715 65.1594 49.4038C65.163 49.5362 65.1681 49.6754 65.1754 49.8211C65.1108 49.8137 65.0517 49.8092 64.9981 49.805C64.9445 49.8018 64.8923 49.7995 64.8429 49.7995C64.792 49.7995 64.7412 49.8018 64.689 49.805C64.6368 49.8092 64.5813 49.8137 64.5227 49.8211C64.5355 49.6292 64.5452 49.4515 64.5516 49.2889C64.558 49.1253 64.5612 48.9728 64.5612 48.8313C64.5612 48.5034 64.5355 48.2886 64.4838 48.1883C64.4325 48.087 64.3404 48.0367 64.209 48.0367C64.0789 48.0367 63.9859 48.087 63.9305 48.1883C63.876 48.2886 63.8481 48.4681 63.8481 48.7255V49.4217C63.8481 49.489 63.8527 49.6076 63.8632 49.778C63.8646 49.7982 63.8655 49.8124 63.8655 49.8211C63.8036 49.8137 63.7459 49.8092 63.6924 49.805C63.6388 49.8018 63.5866 49.7995 63.5371 49.7995C63.4862 49.7995 63.4354 49.8018 63.3832 49.806C63.3305 49.8101 63.2728 49.8147 63.2105 49.8211C63.2215 49.6566 63.2302 49.4973 63.2362 49.3438C63.2412 49.1904 63.2449 49.0452 63.2449 48.9073C63.2449 48.5231 63.2197 48.2822 63.1693 48.1837C63.1194 48.0857 63.0278 48.0367 62.8945 48.0367C62.7658 48.0367 62.6742 48.0866 62.6197 48.1869C62.5652 48.2867 62.5377 48.4667 62.5377 48.7255V49.4217C62.5377 49.4904 62.5428 49.6099 62.5528 49.7803C62.5542 49.7991 62.5542 49.8124 62.5528 49.8211C62.4983 49.8137 62.4457 49.8092 62.393 49.805C62.3408 49.8018 62.289 49.7995 62.2373 49.7995C62.1901 49.7995 62.1406 49.8018 62.0889 49.805C62.0376 49.8092 61.9803 49.8137 61.9171 49.8211Z" fill="white"/>
<path fill-rule="evenodd" clip-rule="evenodd" d="M66.2329 48.7684C66.2329 49.1023 66.2677 49.3368 66.3374 49.4728C66.407 49.6089 66.5229 49.6771 66.6864 49.6771C66.8508 49.6771 66.968 49.6089 67.0386 49.4719C67.1082 49.335 67.1439 49.1009 67.1439 48.7684C67.1439 48.435 67.1082 48.1991 67.0386 48.0608C66.968 47.9225 66.8508 47.8538 66.6864 47.8538C66.5229 47.8538 66.407 47.922 66.3374 48.0585C66.2677 48.1955 66.2329 48.4322 66.2329 48.7684ZM65.5869 48.7662C65.5869 48.4154 65.684 48.1429 65.8787 47.9482C66.0733 47.7531 66.344 47.656 66.6912 47.656C67.0434 47.656 67.3145 47.7522 67.5051 47.9446C67.6951 48.1374 67.7909 48.4113 67.7909 48.7662C67.7909 49.1143 67.6933 49.3854 67.4996 49.5792C67.3054 49.7734 67.0347 49.8705 66.6866 49.8705C66.3367 49.8705 66.066 49.7734 65.875 49.5801C65.6826 49.3873 65.5869 49.1157 65.5869 48.7662Z" fill="white"/>
<path fill-rule="evenodd" clip-rule="evenodd" d="M68.1781 49.8211C68.1896 49.6269 68.1983 49.4432 68.2037 49.2705C68.2097 49.0974 68.2125 48.9321 68.2125 48.7731C68.2125 48.5945 68.2097 48.4173 68.2037 48.2414C68.1983 48.066 68.1896 47.8915 68.1781 47.7183C68.2239 47.7243 68.2715 47.7289 68.3215 47.7316C68.3705 47.7344 68.4241 47.7358 68.4813 47.7358C68.5386 47.7358 68.5912 47.7344 68.6393 47.7316C68.6869 47.7289 68.7327 47.7243 68.7758 47.7183V48.0215C68.8656 47.9029 68.9663 47.8145 69.0785 47.7573C69.1898 47.7 69.3149 47.6716 69.4541 47.6716C69.5613 47.6716 69.6598 47.69 69.7482 47.7261C69.837 47.7628 69.9121 47.8159 69.9735 47.886C70.0225 47.9432 70.0573 48.0138 70.0784 48.0976C70.099 48.1814 70.1095 48.3248 70.1095 48.5286C70.1095 48.557 70.1081 48.6321 70.1072 48.7553C70.1054 48.8771 70.1049 48.9852 70.1049 49.0782C70.1049 49.2156 70.1072 49.3452 70.1127 49.467C70.1173 49.5884 70.1251 49.7066 70.1352 49.8211C70.0733 49.8137 70.0156 49.8092 69.962 49.805C69.9085 49.8018 69.8562 49.7995 69.8063 49.7995C69.7559 49.7995 69.7051 49.8018 69.6529 49.805C69.6002 49.8092 69.5439 49.8137 69.4821 49.8211C69.4921 49.6969 69.4999 49.5476 69.5068 49.3745C69.5132 49.2014 69.5164 49.009 69.5164 48.797C69.5164 48.4773 69.4912 48.2716 69.4399 48.1796C69.3895 48.087 69.2975 48.0408 69.1642 48.0408C69.0309 48.0408 68.9356 48.0957 68.8775 48.2061C68.8198 48.3165 68.7905 48.5025 68.7905 48.7644C68.7905 48.8876 68.7927 49.0374 68.7964 49.2133C68.8015 49.3896 68.8065 49.5921 68.8138 49.8211C68.7593 49.8137 68.7062 49.8092 68.6531 49.805C68.5999 49.8018 68.5486 49.7995 68.4982 49.7995C68.4497 49.7995 68.3989 49.8018 68.3462 49.805C68.2926 49.8092 68.2367 49.8137 68.1781 49.8211Z" fill="white"/>
<path fill-rule="evenodd" clip-rule="evenodd" d="M71.3275 49.8202C71.201 49.3379 71.0618 48.846 70.9098 48.3458C70.7572 47.8457 70.5914 47.3355 70.4124 46.8152C70.4682 46.8211 70.5264 46.8257 70.5878 46.8285C70.6482 46.8317 70.7146 46.833 70.7861 46.833C70.8562 46.833 70.9212 46.8317 70.9812 46.8285C71.0417 46.8257 71.0998 46.8211 71.1557 46.8152C71.24 47.1834 71.3316 47.5507 71.4305 47.9176C71.5294 48.284 71.6343 48.6481 71.7461 49.0104C71.8849 48.611 72.0163 48.2313 72.139 47.8709C72.2623 47.5114 72.3804 47.1591 72.4935 46.8152C72.5274 46.8211 72.5627 46.8257 72.598 46.8285C72.6328 46.8317 72.6708 46.833 72.7129 46.833C72.756 46.833 72.7954 46.8317 72.8316 46.8285C72.8687 46.8257 72.9039 46.8211 72.9383 46.8152C73.0413 47.1633 73.1522 47.5178 73.2699 47.8778C73.3885 48.2378 73.5126 48.6055 73.6445 48.9806C73.7677 48.628 73.8827 48.2721 73.9899 47.9121C74.0961 47.5521 74.195 47.1866 74.2871 46.8152C74.3173 46.8211 74.3485 46.8257 74.3815 46.8285C74.4144 46.8317 74.4502 46.833 74.4891 46.833C74.5276 46.833 74.5628 46.8317 74.5953 46.8285C74.6274 46.8257 74.6586 46.8211 74.6888 46.8152C74.5321 47.2608 74.3718 47.733 74.2065 48.2318C74.0412 48.731 73.8694 49.2605 73.6922 49.8202C73.6519 49.8129 73.6134 49.8083 73.5749 49.8041C73.5369 49.8009 73.4998 49.7987 73.4641 49.7987C73.4311 49.7987 73.3963 49.8009 73.3592 49.8041C73.3221 49.8083 73.2809 49.8129 73.2369 49.8202C73.1348 49.4813 73.0258 49.1345 72.908 48.7805C72.7908 48.4274 72.6639 48.0642 72.5274 47.6923C72.396 48.0271 72.2677 48.372 72.1427 48.7269C72.0172 49.0823 71.8945 49.4469 71.774 49.8202C71.7337 49.8129 71.6952 49.8083 71.6581 49.8041C71.6206 49.8009 71.5849 49.7987 71.551 49.7987C71.5162 49.7987 71.4809 49.8009 71.4442 49.8041C71.4081 49.8083 71.3691 49.8129 71.3275 49.8202Z" fill="white"/>
<path fill-rule="evenodd" clip-rule="evenodd" d="M75.426 48.5529H76.1711C76.1711 48.5373 76.172 48.5176 76.1734 48.4938C76.1748 48.4704 76.1757 48.4549 76.1757 48.448C76.1757 48.2488 76.1469 48.0981 76.0887 47.9964C76.031 47.8952 75.9449 47.8439 75.8322 47.8439C75.7035 47.8439 75.6032 47.9021 75.5322 48.0179C75.4612 48.1338 75.426 48.2992 75.426 48.514V48.5529ZM75.4248 48.7708C75.4248 49.0241 75.4852 49.2251 75.6061 49.374C75.7275 49.5228 75.8901 49.5975 76.0948 49.5975C76.1965 49.5975 76.294 49.5801 76.387 49.5457C76.48 49.5119 76.5707 49.4596 76.6577 49.3891L76.7008 49.4216L76.6041 49.6708C76.5121 49.7349 76.4044 49.7844 76.2808 49.8187C76.1571 49.8531 76.0225 49.8705 75.8777 49.8705C75.5356 49.8705 75.2677 49.7693 75.0735 49.5673C74.8797 49.3658 74.7831 49.0864 74.7831 48.73C74.7831 48.4094 74.8793 48.1497 75.0725 47.9523C75.2658 47.7545 75.5218 47.656 75.8397 47.656C76.1411 47.656 76.3733 47.7398 76.534 47.9075C76.6953 48.0746 76.7763 48.3155 76.7763 48.6288C76.7763 48.6659 76.7759 48.6948 76.7745 48.7149C76.774 48.7351 76.7727 48.7529 76.7713 48.7685L75.4248 48.7708Z" fill="white"/>
<path fill-rule="evenodd" clip-rule="evenodd" d="M78.2138 48.6615C78.0104 48.7032 77.8643 48.7659 77.7737 48.8507C77.6834 48.9349 77.6385 49.0522 77.6385 49.2024C77.6385 49.3288 77.661 49.4232 77.7068 49.4859C77.753 49.5491 77.8208 49.5807 77.9106 49.5807C78.0082 49.5807 78.0828 49.5455 78.1359 49.4754C78.1877 49.4053 78.2138 49.3046 78.2138 49.1726V48.6615ZM78.2327 49.5427C78.1699 49.6485 78.087 49.73 77.9849 49.7872C77.8823 49.8445 77.7669 49.8733 77.6382 49.8733C77.4531 49.8733 77.3079 49.8184 77.2031 49.7089C77.0977 49.5995 77.045 49.4497 77.045 49.261C77.045 49.1222 77.0826 49.0077 77.1568 48.9175C77.2315 48.8273 77.3482 48.7558 77.5063 48.7027C77.5585 48.6853 77.6327 48.6619 77.7302 48.6317C77.9592 48.563 78.1163 48.4998 78.2006 48.4425C78.202 48.4343 78.2029 48.4242 78.2038 48.4141C78.2043 48.4027 78.2047 48.3876 78.2047 48.3674C78.2047 48.2346 78.1667 48.1288 78.0907 48.05C78.0151 47.9712 77.9143 47.9314 77.7884 47.9314C77.6895 47.9314 77.5997 47.9593 77.5186 48.0157C77.438 48.0715 77.3629 48.1563 77.2942 48.2708C77.2727 48.2025 77.2548 48.1471 77.2402 48.1054C77.226 48.0642 77.2118 48.0253 77.1976 47.9896C77.3276 47.8764 77.4563 47.7922 77.5837 47.7372C77.7114 47.6822 77.8443 47.6543 77.9817 47.6543C78.245 47.6543 78.4475 47.7152 78.5881 47.837C78.7291 47.9589 78.8001 48.1325 78.8001 48.3592V48.3802L78.7864 49.1469V49.2312C78.7864 49.4098 78.8065 49.5248 78.8459 49.5756C78.8853 49.6265 78.9623 49.6521 79.0768 49.6521H79.0901V49.7616C79.0149 49.7927 78.938 49.817 78.8578 49.833C78.7777 49.8495 78.7007 49.8582 78.6284 49.8582C78.5217 49.8582 78.4356 49.8312 78.3678 49.7776C78.3009 49.724 78.2556 49.6453 78.2327 49.5427Z" fill="white"/>
<path fill-rule="evenodd" clip-rule="evenodd" d="M79.3881 49.8179C79.3986 49.5705 79.4078 49.3122 79.4142 49.0429C79.4187 48.7736 79.4224 48.4851 79.4224 48.1773C79.4224 47.8507 79.4187 47.5526 79.4142 47.2828C79.4078 47.013 79.3986 46.7579 79.3881 46.5193C79.4577 46.5303 79.5177 46.5385 79.5681 46.5426C79.618 46.5468 79.6665 46.5491 79.7146 46.5491C79.7609 46.5491 79.8113 46.5463 79.8644 46.5417C79.9171 46.5367 79.9771 46.5289 80.043 46.5193C80.0311 46.7666 80.0229 47.0249 80.0169 47.2942C80.011 47.5635 80.0082 47.8521 80.0082 48.1599C80.0082 48.4864 80.011 48.7846 80.0169 49.0544C80.0229 49.3246 80.0311 49.5792 80.043 49.8179C79.994 49.8082 79.9427 49.8009 79.8882 49.7954C79.8337 49.7904 79.7769 49.7881 79.7183 49.7881C79.6597 49.7881 79.6033 49.7904 79.5484 49.7954C79.4943 49.8009 79.4403 49.8082 79.3881 49.8179Z" fill="white"/>
<path fill-rule="evenodd" clip-rule="evenodd" d="M80.6467 47.9617H80.567C80.5079 47.9617 80.4639 47.9621 80.4328 47.9626C80.4021 47.9635 80.3737 47.9644 80.3485 47.9658C80.3503 47.9502 80.3526 47.9351 80.3535 47.9209C80.354 47.9062 80.3545 47.8833 80.3545 47.8522C80.3545 47.8206 80.3535 47.7968 80.3517 47.7803C80.3503 47.7638 80.3494 47.7491 80.3485 47.7359C80.3535 47.7377 80.3623 47.7391 80.3737 47.7404C80.4781 47.7505 80.5528 47.7556 80.5977 47.7556L80.6467 47.7533C80.648 47.7331 80.649 47.7116 80.6499 47.6891C80.6503 47.6662 80.6508 47.631 80.6508 47.5838C80.6508 47.5265 80.6494 47.4652 80.6467 47.4011C80.6435 47.3365 80.6393 47.2563 80.6338 47.1606C80.7351 47.1217 80.8354 47.0814 80.9343 47.0383C81.0332 46.9953 81.1294 46.9508 81.2224 46.905L81.2691 46.9417C81.2609 47.1088 81.254 47.249 81.2503 47.3617C81.2457 47.4739 81.2439 47.5591 81.2439 47.6177V47.7556C81.3236 47.7556 81.3992 47.7537 81.4679 47.751C81.5375 47.7487 81.6053 47.7441 81.6712 47.7381C81.6662 47.7711 81.6644 47.7949 81.6639 47.8091C81.663 47.8238 81.663 47.838 81.663 47.8522C81.663 47.8765 81.6648 47.9104 81.6689 47.953C81.6717 47.9589 81.6722 47.963 81.6712 47.9658C81.6364 47.9644 81.5911 47.9635 81.5352 47.9626C81.4789 47.9621 81.3795 47.9617 81.2352 47.9617C81.2352 47.9832 81.2338 48.0166 81.2329 48.0629C81.2228 48.3665 81.2178 48.5827 81.2178 48.7123V48.8891C81.2178 49.2253 81.2338 49.4337 81.2673 49.5138C81.3002 49.5945 81.3639 49.6348 81.4583 49.6348C81.5059 49.6348 81.5902 49.6192 81.712 49.5876L81.7143 49.5853V49.7488C81.6176 49.7914 81.5293 49.823 81.4464 49.8432C81.3644 49.8633 81.2851 49.8734 81.2091 49.8734C81.0218 49.8734 80.8784 49.8235 80.78 49.7236C80.681 49.6233 80.632 49.479 80.632 49.2894C80.632 49.2821 80.6343 49.1571 80.6389 48.9134C80.6439 48.6697 80.6467 48.4302 80.6467 48.1943V47.9617Z" fill="white"/>
<path fill-rule="evenodd" clip-rule="evenodd" d="M81.9957 49.8179C82.0081 49.6635 82.0173 49.4721 82.0223 49.2435C82.0273 49.0154 82.0296 48.6848 82.0296 48.2524C82.0296 47.7939 82.0273 47.4371 82.0223 47.1807C82.0173 46.9246 82.0081 46.7039 81.9957 46.5193C82.0557 46.5303 82.1116 46.539 82.1638 46.5449C82.216 46.5504 82.2669 46.5532 82.3154 46.5532C82.3672 46.5532 82.4189 46.5504 82.4721 46.5449C82.5247 46.539 82.5806 46.5303 82.6379 46.5193C82.6232 46.6397 82.6122 46.7684 82.604 46.9058C82.5966 47.0428 82.5921 47.1916 82.5921 47.3501V48.0335C82.6727 47.9116 82.7693 47.8205 82.8824 47.7596C82.9956 47.6987 83.1247 47.6684 83.2708 47.6684C83.3771 47.6684 83.4742 47.6868 83.5621 47.7229C83.6505 47.7596 83.7247 47.8127 83.7843 47.8828C83.836 47.9414 83.8722 48.0147 83.8942 48.1022C83.9152 48.1892 83.9262 48.3303 83.9262 48.5254C83.9262 48.5538 83.9253 48.6289 83.9239 48.7521C83.9221 48.8739 83.9217 48.982 83.9217 49.075C83.9217 49.2367 83.9239 49.3759 83.9285 49.4927C83.9326 49.6095 83.9391 49.7176 83.9478 49.8179C83.8878 49.8105 83.8305 49.806 83.776 49.8018C83.7215 49.7986 83.6707 49.7963 83.623 49.7963C83.5731 49.7963 83.5218 49.7986 83.4701 49.8018C83.4174 49.806 83.3606 49.8105 83.2992 49.8179C83.3088 49.6937 83.3166 49.5444 83.3226 49.3713C83.3281 49.1982 83.3308 49.0058 83.3308 48.7938C83.3308 48.4741 83.3065 48.2684 83.2562 48.1764C83.2062 48.0838 83.1146 48.0376 82.9814 48.0376C82.8481 48.0376 82.7528 48.0925 82.6946 48.2029C82.6369 48.3133 82.6076 48.4993 82.6076 48.7612C82.6076 48.8986 82.6099 49.0571 82.6154 49.2362C82.62 49.4148 82.6264 49.609 82.6351 49.8179C82.5779 49.8105 82.5234 49.806 82.4698 49.8018C82.4171 49.7986 82.3658 49.7963 82.3154 49.7963C82.2669 49.7963 82.216 49.7986 82.1624 49.8018C82.1098 49.806 82.0539 49.8105 81.9957 49.8179Z" fill="white"/>
<path fill-rule="evenodd" clip-rule="evenodd" d="M52.7253 54.7252C52.7611 54.499 52.7922 54.3052 52.8179 54.1431C52.8435 53.9814 52.8609 53.866 52.8696 53.7977L53.1508 51.7202C53.1792 51.7262 53.209 51.7307 53.2401 51.7335C53.2704 51.7367 53.3038 51.7381 53.3395 51.7381C53.3753 51.7381 53.4096 51.7367 53.4417 51.7335C53.4737 51.7307 53.5053 51.7262 53.5351 51.7202C53.6922 52.0715 53.8562 52.4178 54.0261 52.759C54.1955 53.1007 54.3705 53.4391 54.551 53.7762C54.7241 53.451 54.8945 53.1171 55.0621 52.775C55.2297 52.4329 55.3932 52.0816 55.554 51.7202C55.5851 51.7262 55.6177 51.7307 55.6506 51.7335C55.6836 51.7367 55.7184 51.7381 55.756 51.7381C55.7931 51.7381 55.8288 51.7367 55.8622 51.7335C55.8961 51.7307 55.9282 51.7262 55.9575 51.7202L56.2089 53.8229C56.2364 54.0556 56.2607 54.2383 56.2822 54.3712C56.3038 54.504 56.3257 54.6217 56.3491 54.7252C56.2767 54.7188 56.2108 54.7142 56.1499 54.7101C56.0894 54.706 56.0312 54.7037 55.9749 54.7037C55.9195 54.7037 55.8609 54.706 55.7999 54.7092C55.739 54.7128 55.6763 54.7179 55.6122 54.7252C55.6108 54.7151 55.609 54.7 55.6076 54.6799C55.5948 54.3721 55.5842 54.1816 55.576 54.1087L55.4335 52.7063C55.2687 53.0214 55.1042 53.3457 54.9398 53.6796C54.7749 54.013 54.6068 54.3615 54.4351 54.7252C54.425 54.7225 54.414 54.7202 54.4017 54.7188C54.3897 54.7174 54.3696 54.7165 54.3426 54.7165C54.3183 54.7165 54.3004 54.7174 54.289 54.7188C54.2775 54.7202 54.2665 54.7225 54.2565 54.7252C54.0861 54.3675 53.9194 54.0263 53.7563 53.702C53.5933 53.3777 53.4325 53.0695 53.2754 52.7773L53.1701 53.6901L53.1655 53.724C53.1124 54.1985 53.0853 54.5319 53.0844 54.7252C53.051 54.7179 53.0194 54.7128 52.9901 54.7092C52.9594 54.706 52.9314 54.7037 52.9058 54.7037C52.8774 54.7037 52.8485 54.706 52.8201 54.7092C52.7913 54.7128 52.7597 54.7179 52.7253 54.7252Z" fill="white"/>
<path fill-rule="evenodd" clip-rule="evenodd" d="M57.8395 53.5679C57.6362 53.6091 57.4896 53.6723 57.3989 53.757C57.3092 53.8408 57.2638 53.9585 57.2638 54.1088C57.2638 54.2352 57.2867 54.3295 57.333 54.3923C57.3788 54.4555 57.447 54.4866 57.5363 54.4866C57.6339 54.4866 57.7085 54.4518 57.7612 54.3817C57.8134 54.3117 57.8395 54.2104 57.8395 54.079V53.5679ZM57.8603 54.4485C57.7967 54.5547 57.7142 54.6362 57.6121 54.6935C57.5095 54.7507 57.3941 54.7791 57.2649 54.7791C57.0803 54.7791 56.9351 54.7246 56.8303 54.6152C56.7249 54.5053 56.6722 54.3559 56.6722 54.1672C56.6722 54.0285 56.7093 53.914 56.784 53.8233C56.8587 53.7335 56.9754 53.6621 57.1339 53.6085C57.1852 53.5915 57.2599 53.5682 57.357 53.5379C57.5864 53.4692 57.7435 53.406 57.8278 53.3488C57.8292 53.3405 57.8301 53.3305 57.8315 53.3204C57.8319 53.3089 57.8319 53.2938 57.8319 53.2737C57.8319 53.1404 57.7939 53.0346 57.7179 52.9558C57.6423 52.877 57.5415 52.8376 57.4156 52.8376C57.3167 52.8376 57.2269 52.8656 57.1458 52.9215C57.0652 52.9773 56.9901 53.0625 56.9214 53.177C56.8999 53.1083 56.882 53.0534 56.8678 53.0117C56.8532 52.97 56.839 52.9315 56.8243 52.8958C56.9548 52.7827 57.0835 52.6984 57.2113 52.6434C57.3386 52.5885 57.471 52.5605 57.6089 52.5605C57.8722 52.5605 58.0747 52.6215 58.2153 52.7433C58.3563 52.8647 58.4273 53.0387 58.4273 53.265V53.2865L58.4141 54.0532V54.1375C58.4141 54.3161 58.4337 54.4311 58.4731 54.4819C58.5125 54.5327 58.5895 54.5584 58.704 54.5584H58.7173V54.6678C58.6426 54.699 58.5652 54.7233 58.485 54.7393C58.4049 54.7558 58.3279 54.7645 58.2556 54.7645C58.1489 54.7645 58.0628 54.7375 57.9954 54.6834C57.9281 54.6303 57.8828 54.5515 57.8603 54.4485Z" fill="white"/>
<path fill-rule="evenodd" clip-rule="evenodd" d="M59.5113 53.262C59.5113 53.4425 59.5378 53.5748 59.5896 53.6596C59.6423 53.7438 59.7247 53.786 59.8378 53.786C59.9555 53.786 60.0398 53.742 60.0916 53.6527C60.1429 53.5643 60.169 53.4177 60.169 53.2126C60.169 53.0541 60.1424 52.9355 60.0906 52.8585C60.038 52.7811 59.9583 52.7422 59.8511 52.7422C59.7435 52.7422 59.6601 52.7875 59.6006 52.8778C59.541 52.9675 59.5113 53.0958 59.5113 53.262ZM59.5107 54.8532C59.4392 54.8903 59.3834 54.9435 59.3435 55.0122C59.3032 55.0809 59.2831 55.1587 59.2831 55.2462C59.2831 55.3964 59.3339 55.5169 59.4347 55.6071C59.5359 55.6974 59.6715 55.7427 59.8418 55.7427C60.0406 55.7427 60.1968 55.7015 60.3099 55.62C60.423 55.538 60.4794 55.4253 60.4794 55.2806C60.4794 55.1505 60.4427 55.0534 60.369 54.9893C60.2953 54.9261 60.178 54.8894 60.0177 54.8812L59.5107 54.8532ZM59.318 54.8261L59.3221 54.7913C59.2333 54.7642 59.1641 54.7207 59.1151 54.6603C59.0652 54.6003 59.0409 54.5279 59.0409 54.4436C59.0409 54.3447 59.0789 54.2531 59.1545 54.1688C59.2305 54.0846 59.3391 54.0117 59.481 53.9517V53.8977C59.2933 53.8606 59.1522 53.7896 59.0565 53.6843C58.9617 53.5789 58.914 53.442 58.914 53.273C58.914 53.0595 58.996 52.8882 59.1595 52.7586C59.3239 52.6295 59.5442 52.564 59.8204 52.564C59.8461 52.564 59.9441 52.5704 60.1136 52.5823C60.283 52.5951 60.4401 52.6006 60.5848 52.6006C60.6439 52.6006 60.7058 52.5992 60.7717 52.5974C60.8372 52.5956 60.9073 52.5924 60.9801 52.5878V52.8026C60.8899 52.7985 60.768 52.7934 60.6132 52.7875C60.5812 52.7866 60.5592 52.7856 60.5464 52.7856C60.6224 52.8342 60.6792 52.896 60.7172 52.9702C60.7548 53.0444 60.774 53.1324 60.774 53.2345C60.774 53.4621 60.687 53.6403 60.5129 53.7681C60.3394 53.8963 60.0957 53.9604 59.7838 53.9604H59.7087C59.6514 53.9664 59.6047 53.9884 59.5685 54.0273C59.5328 54.0658 59.5154 54.1134 59.5154 54.1707C59.5154 54.3039 59.7233 54.3786 60.1406 54.3942C60.1502 54.3942 60.1584 54.3942 60.1639 54.3942C60.1768 54.3955 60.1946 54.3969 60.218 54.3983C60.485 54.4111 60.6581 54.4395 60.7355 54.4826C60.8239 54.5339 60.8922 54.6039 60.938 54.6928C60.9851 54.7816 61.0085 54.8847 61.0085 55.0019C61.0085 55.2726 60.8967 55.4943 60.6732 55.667C60.4497 55.8392 60.1598 55.9257 59.803 55.9257C59.5099 55.9257 59.2804 55.8754 59.116 55.7741C58.9511 55.6734 58.8691 55.5351 58.8691 55.3587C58.8691 55.23 58.9058 55.1215 58.9809 55.0345C59.0546 54.9465 59.1673 54.8774 59.318 54.8261Z" fill="white"/>
<path fill-rule="evenodd" clip-rule="evenodd" d="M62.3188 53.5679C62.1154 53.6091 61.9689 53.6723 61.8782 53.757C61.7884 53.8408 61.7435 53.9585 61.7435 54.1088C61.7435 54.2352 61.766 54.3295 61.8118 54.3923C61.858 54.4555 61.9258 54.4866 62.0156 54.4866C62.1131 54.4866 62.1883 54.4518 62.2405 54.3817C62.2927 54.3117 62.3188 54.2104 62.3188 54.079V53.5679ZM62.3374 54.4485C62.2737 54.5547 62.1913 54.6362 62.0891 54.6935C61.9865 54.7507 61.8711 54.7791 61.7424 54.7791C61.5574 54.7791 61.4122 54.7246 61.3073 54.6152C61.202 54.5053 61.1493 54.3559 61.1493 54.1672C61.1493 54.0285 61.1864 53.914 61.261 53.8233C61.3352 53.7335 61.4525 53.6621 61.611 53.6085C61.6623 53.5915 61.7369 53.5682 61.8345 53.5379C62.0635 53.4692 62.2201 53.406 62.3048 53.3488C62.3062 53.3405 62.3071 53.3305 62.3081 53.3204C62.3085 53.3089 62.309 53.2938 62.309 53.2737C62.309 53.1404 62.271 53.0346 62.1949 52.9558C62.1194 52.877 62.0186 52.8376 61.8926 52.8376C61.7937 52.8376 61.7039 52.8656 61.6229 52.9215C61.5423 52.9773 61.4671 53.0625 61.3984 53.177C61.3769 53.1083 61.3591 53.0534 61.3444 53.0117C61.3302 52.97 61.316 52.9315 61.3018 52.8958C61.4319 52.7827 61.561 52.6984 61.6884 52.6434C61.8157 52.5885 61.9485 52.5605 62.0859 52.5605C62.3493 52.5605 62.5517 52.6215 62.6923 52.7433C62.8338 52.8647 62.9044 53.0387 62.9044 53.265V53.2865L62.8911 54.0532V54.1375C62.8911 54.3161 62.9108 54.4311 62.9502 54.4819C62.9896 54.5327 63.0665 54.5584 63.181 54.5584H63.1938V54.6678C63.1196 54.699 63.0422 54.7233 62.9621 54.7393C62.8819 54.7558 62.805 54.7645 62.7326 54.7645C62.6259 54.7645 62.5398 54.7375 62.4725 54.6834C62.4051 54.6303 62.3598 54.5515 62.3374 54.4485Z" fill="white"/>
<path fill-rule="evenodd" clip-rule="evenodd" d="M63.2489 54.7223L63.2471 54.6518C63.412 54.404 63.668 54.0138 64.0161 53.4811L64.426 52.8541C64.3344 52.8495 64.2629 52.8473 64.2126 52.8459C64.1617 52.8454 64.1127 52.845 64.0651 52.845C63.9465 52.845 63.7582 52.85 63.5003 52.8605C63.4774 52.8605 63.461 52.861 63.4513 52.8624C63.4536 52.8468 63.4559 52.8308 63.4578 52.8152C63.4591 52.7996 63.46 52.7749 63.46 52.7424C63.46 52.7089 63.4591 52.6842 63.4578 52.6673C63.4559 52.6499 63.4536 52.6338 63.4513 52.6196C63.5828 52.6256 63.7207 52.6302 63.8645 52.6325C64.0083 52.6352 64.1622 52.637 64.3252 52.637C64.4901 52.637 64.6422 52.6352 64.7828 52.6325C64.9229 52.6302 65.0558 52.6256 65.1822 52.6196V52.6732C65.0791 52.828 64.9358 53.047 64.7516 53.3295C64.568 53.6126 64.3202 53.9941 64.0097 54.4755C64.1155 54.4801 64.1947 54.4828 64.2469 54.4833C64.2991 54.4837 64.3486 54.4837 64.3967 54.4837C64.529 54.4837 64.6596 54.4819 64.786 54.4769C64.9129 54.4714 65.0374 54.4645 65.1611 54.4562C65.1579 54.4833 65.1556 54.5066 65.1542 54.5268C65.1528 54.5469 65.1524 54.5648 65.1524 54.5804C65.1524 54.5968 65.1528 54.6147 65.1542 54.6344C65.1556 54.6546 65.1579 54.6839 65.1611 54.7223C65.0319 54.715 64.8927 54.71 64.7429 54.7063C64.5936 54.7031 64.42 54.7008 64.2245 54.7008C64.0294 54.7008 63.853 54.7031 63.6959 54.7063C63.5379 54.71 63.3895 54.715 63.2489 54.7223Z" fill="white"/>
<path fill-rule="evenodd" clip-rule="evenodd" d="M65.5518 54.7224C65.5628 54.4979 65.5706 54.3024 65.5752 54.1375C65.5802 53.9717 65.5825 53.8164 65.5825 53.6722C65.5825 53.5064 65.5798 53.3369 65.5743 53.1642C65.5688 52.992 65.5614 52.8102 65.5518 52.6197C65.6027 52.6242 65.6549 52.6274 65.7094 52.6297C65.7639 52.6316 65.8202 52.6325 65.8775 52.6325C65.9352 52.6325 65.9915 52.6316 66.0469 52.6297C66.1019 52.6274 66.1541 52.6242 66.2031 52.6197C66.193 52.8102 66.1852 52.992 66.1807 53.1642C66.1752 53.3369 66.1729 53.5064 66.1729 53.6722C66.1729 53.8164 66.1752 53.9721 66.1807 54.1384C66.1852 54.3042 66.193 54.4993 66.2031 54.7224C66.1472 54.715 66.0918 54.71 66.0382 54.7063C65.9842 54.7031 65.9311 54.7008 65.8775 54.7008C65.8257 54.7008 65.773 54.7031 65.719 54.7063C65.6649 54.71 65.6095 54.715 65.5518 54.7224ZM65.547 51.8281C65.547 51.7351 65.5791 51.6563 65.6432 51.5918C65.7078 51.5272 65.7875 51.4951 65.8823 51.4951C65.9729 51.4951 66.0508 51.5276 66.1149 51.5927C66.1786 51.6582 66.2102 51.736 66.2102 51.8281C66.2102 51.9211 66.1781 51.9998 66.114 52.063C66.049 52.1272 65.9702 52.1588 65.8772 52.1588C65.7842 52.1588 65.7059 52.1272 65.6423 52.063C65.5786 51.9998 65.547 51.9211 65.547 51.8281Z" fill="white"/>
<path fill-rule="evenodd" clip-rule="evenodd" d="M66.7549 54.7248C66.7668 54.5306 66.775 54.347 66.781 54.1743C66.7865 54.0012 66.7897 53.8358 66.7897 53.6769C66.7897 53.4983 66.7865 53.321 66.781 53.1452C66.775 52.9693 66.7668 52.7953 66.7549 52.6221C66.8007 52.6281 66.8483 52.6327 66.8982 52.635C66.9472 52.6377 67.0008 52.6395 67.0581 52.6395C67.1153 52.6395 67.168 52.6377 67.2161 52.635C67.2637 52.6327 67.3095 52.6281 67.3526 52.6221V52.9253C67.4424 52.8062 67.5436 52.7183 67.6553 52.6611C67.7671 52.6038 67.8921 52.575 68.0314 52.575C68.1381 52.575 68.2365 52.5937 68.3254 52.6299C68.4142 52.6666 68.4889 52.7197 68.5507 52.7898C68.5993 52.847 68.6341 52.9175 68.6552 53.0014C68.6758 53.0852 68.6863 53.2285 68.6863 53.4319C68.6863 53.4607 68.6854 53.5359 68.6845 53.6586C68.6822 53.7809 68.6817 53.889 68.6817 53.982C68.6817 54.1194 68.6845 54.249 68.6895 54.3708C68.6945 54.4922 68.7019 54.6103 68.7119 54.7248C68.6506 54.7175 68.5929 54.7125 68.5393 54.7088C68.4852 54.7056 68.433 54.7033 68.3836 54.7033C68.3332 54.7033 68.2819 54.7056 68.2301 54.7088C68.1775 54.7125 68.1207 54.7175 68.0593 54.7248C68.0689 54.6003 68.0772 54.4514 68.084 54.2778C68.09 54.1047 68.0936 53.9123 68.0936 53.7007C68.0936 53.381 68.0684 53.1749 68.0172 53.0829C67.9663 52.9904 67.8743 52.9441 67.7414 52.9441C67.6082 52.9441 67.5124 52.9995 67.4543 53.1099C67.3966 53.2203 67.3677 53.4062 67.3677 53.6682C67.3677 53.7914 67.37 53.9412 67.3737 54.1171C67.3782 54.2934 67.3837 54.4958 67.3911 54.7248C67.3366 54.7175 67.283 54.7125 67.2298 54.7088C67.1772 54.7056 67.1254 54.7033 67.0755 54.7033C67.0269 54.7033 66.9756 54.7056 66.9234 54.7088C66.8694 54.7125 66.814 54.7175 66.7549 54.7248Z" fill="white"/>
<path fill-rule="evenodd" clip-rule="evenodd" d="M69.7586 53.4616H70.5034C70.5034 53.4455 70.5043 53.4263 70.5057 53.402C70.507 53.3787 70.5084 53.3631 70.5084 53.3562C70.5084 53.157 70.4791 53.0068 70.4209 52.9051C70.3632 52.8039 70.2771 52.7526 70.1644 52.7526C70.0357 52.7526 69.9354 52.8107 69.8649 52.9266C69.7939 53.0425 69.7586 53.2078 69.7586 53.4226V53.4616ZM69.7586 53.6792C69.7586 53.932 69.819 54.1336 69.94 54.2824C70.0609 54.4313 70.2235 54.5055 70.4282 54.5055C70.5303 54.5055 70.6274 54.4885 70.7204 54.4542C70.8134 54.4198 70.9036 54.3676 70.9911 54.2975L71.0341 54.33L70.9375 54.5792C70.8454 54.6433 70.7383 54.6928 70.6141 54.7271C70.4905 54.7615 70.3558 54.7784 70.2111 54.7784C69.869 54.7784 69.601 54.6777 69.4068 54.4757C69.2131 54.2742 69.1165 53.9948 69.1165 53.638C69.1165 53.3174 69.2126 53.0582 69.4059 52.8608C69.5992 52.6629 69.8552 52.564 70.1731 52.564C70.4745 52.564 70.7067 52.6482 70.8674 52.8154C71.0286 52.983 71.1093 53.224 71.1093 53.5372C71.1093 53.5743 71.1093 53.6032 71.1079 53.6233C71.1074 53.6435 71.106 53.6614 71.1047 53.6769L69.7586 53.6792Z" fill="white"/>
<path fill-rule="evenodd" clip-rule="evenodd" d="M59.6262 36.2247C59.5433 35.8015 59.306 34.9033 59.0894 34.3249L59.4196 34.16C59.8428 34.6244 60.2866 35.4301 60.4726 35.9046L59.6262 36.2247ZM58.3566 42.5416H59.3578V40.7559H58.3566V42.5416ZM58.3566 40.2905H59.3578V38.6801H58.3566V40.2905ZM58.3566 38.2152H59.3578V36.832H58.3566V38.2152ZM57.1998 35.8938H52.7507V35.4294H55.0527C54.6812 35.0369 54.3093 34.7167 53.9173 34.3971L54.0615 34.0769C54.6395 34.2418 55.3417 34.5413 55.775 34.8509L55.3623 35.4294H57.1998V35.8938ZM52.8632 39.1167L52.5843 38.8794C53.0693 38.0949 53.4307 36.9691 53.6166 35.9679L54.453 36.1643C54.4012 36.4222 54.2876 36.7217 54.1534 37.0419C54.5459 37.3098 54.8862 37.5993 55.1445 37.8984L54.556 38.4562C54.3907 38.1255 54.1946 37.7747 53.978 37.4339C53.6684 38.0637 53.2553 38.704 52.8632 39.1167ZM61.8237 42.5421V43.0171H58.3552V43.8017H57.4465L57.457 38.3921C57.3123 38.6193 57.168 38.8465 57.0128 39.053L56.7238 38.8364C56.8479 38.5781 56.9615 38.3308 57.054 38.0724L56.569 38.5163C56.4142 38.1961 56.2282 37.8554 56.001 37.5357C55.8155 37.9277 55.5783 38.3097 55.3305 38.65H55.5059V39.6205H57.2193V40.0854H55.5059V40.4568C56.1252 40.8077 56.7137 41.169 57.147 41.5822L56.5383 42.2632C56.2488 41.8299 55.8155 41.3138 55.5059 40.9524V43.8635H54.6178V41.159C54.2258 41.7475 53.5342 42.5522 52.6873 43.1614L52.4707 42.8623C53.2141 42.1189 53.9162 41.2103 54.4012 40.0854H52.6979V39.6205H54.6178V38.65H54.8862C55.3094 37.8865 55.5265 36.9471 55.6401 36.0073L56.476 36.2139C56.4247 36.4928 56.3212 36.7923 56.1975 37.112C56.5589 37.3497 56.8891 37.6076 57.1264 37.8865C57.4877 36.8335 57.6114 35.7183 57.7662 34.2114L58.706 34.3974C58.6437 35.0785 58.5201 35.7394 58.3341 36.3691H61.689V36.8335H60.244V38.2167H61.4312V38.6811H60.244V40.2915H61.4417V40.7564H60.244V42.5421H61.8237Z" fill="white"/>
<path fill-rule="evenodd" clip-rule="evenodd" d="M73.3253 42.0242L72.5096 42.4267C72.2518 41.601 71.9829 40.8883 71.6426 40.1866L71.9316 39.9906C72.5096 40.5892 72.9846 41.2808 73.3253 42.0242ZM69.6708 38.7085C70.1764 38.9252 71.1158 39.4413 71.5083 39.8439L70.8991 40.5355C70.5378 40.0816 69.8874 39.39 69.4848 39.0081L69.6708 38.7085ZM71.6952 41.2299C72.1697 42.9227 72.2526 43.5836 70.6422 43.5836C69.1349 43.5836 68.9283 43.47 68.9283 42.3552V39.6708H69.8366V42.1899C69.8366 42.6025 69.93 42.7372 70.5799 42.7372C71.3233 42.7372 71.3333 42.6025 71.3233 41.2299H71.6952ZM69.8563 36.4303H67.7297V35.9654H69.8563V34.2314H70.7856V35.9654H72.9538V36.4303H70.7856V38.2161H72.8191V38.6805H67.9468V38.2161H69.8563V36.4303ZM65.2116 42.592H66.3882V40.7132H65.2116V42.592ZM68.2881 40.2174L68.6495 40.2893C68.5872 41.3835 68.3499 42.2922 67.875 42.9219L67.1829 42.4057V43.6547H66.3988V43.0456H65.2116V43.7995H64.4065V40.2586H67.1829V42.3027C67.7096 41.7654 68.1122 41.1462 68.2881 40.2174ZM64.3753 39.2568H67.2763V38.823H64.3753V39.2568ZM64.3753 37.8332H67.2763V37.3995H64.3753V37.8332ZM67.5135 36.4313H64.0757V35.9664H65.6554C65.3146 35.3783 64.9326 34.738 64.6954 34.3977L64.9532 34.1394C65.4383 34.4596 66.1198 35.0169 66.543 35.5537L66.0062 35.9664H67.5135V36.4313Z" fill="white"/>
<path fill-rule="evenodd" clip-rule="evenodd" d="M49.46 43.674C49.2374 43.4207 48.9983 43.2691 48.871 43.2004C48.8403 43.1867 48.8105 43.172 48.7808 43.1551L48.7789 43.1541H48.7794C48.6365 43.0726 48.5023 42.9627 48.3443 42.9219C48.1057 42.8601 47.8506 42.8899 47.6096 42.8386C47.2707 42.7667 46.9336 42.6824 46.5906 42.6297C46.1633 42.5638 45.7204 42.5468 45.3017 42.6719C45.113 42.7282 44.8872 42.8024 44.7508 42.9522C44.6372 43.0767 44.6399 43.2233 44.6042 43.3777C44.5708 43.5228 44.552 43.6708 44.5506 43.8196C44.546 44.3729 44.7595 44.9211 45.0338 45.3929C45.1808 45.6462 45.353 45.8843 45.5431 46.1065C45.7172 46.3107 45.9223 46.5805 46.1463 46.7303C46.3671 46.8777 46.5182 46.9831 46.6579 47.2084C46.7555 47.3669 46.7669 47.4136 46.9524 47.4851C47.2551 47.6014 47.6 47.5982 47.9193 47.6211C48.3374 47.6513 48.789 47.6582 49.2031 47.5849C49.5177 47.5286 49.5777 47.3064 49.8337 47.1571C50.0737 47.0174 50.1946 46.9945 50.3055 46.7303C50.8038 45.5404 50.1887 44.53 49.46 43.674Z" fill="white"/>
</svg>
