<svg width="150" height="55" viewBox="0 0 150 55" fill="none" xmlns="http://www.w3.org/2000/svg">
<path d="M150 0H0V55H150V0Z" fill="#D60C18"/>
<path d="M16.2515 15.6292C17.0687 16.1522 18.0603 16.3318 19.0099 16.1287C19.9293 15.9087 20.8166 15.6704 21.7176 15.4046C23.2899 14.9462 24.8576 14.4879 26.4391 14.0296C27.2298 13.8233 28.0205 13.6217 28.8158 13.4475C29.1772 13.3926 29.5338 13.3098 29.8824 13.2C30.2364 13.0579 30.5536 12.8333 30.8846 12.6729C31.3857 12.4392 31.8868 12.2146 32.4247 12.0129C33.928 11.4033 37.1461 10.6379 36.3508 8.34624C36.0979 7.59916 35.3486 7.26916 34.6912 6.92541C33.9976 6.62358 33.2317 6.52655 32.4845 6.64582C31.761 6.65407 31.0595 6.89522 30.4847 7.33332C29.6985 8.30957 28.4021 8.60291 27.4229 9.38666C27.0781 9.64332 26.6046 9.64791 26.2598 9.91374C26.0897 10.0467 26.0345 10.1567 25.8276 10.2162C25.6478 10.24 25.4666 10.2523 25.2851 10.2529C24.9449 10.2987 24.6093 10.3446 24.2829 10.3996C23.3112 10.5269 22.3616 10.786 21.4602 11.1696C21.0103 11.384 20.5784 11.6338 20.1684 11.9167C19.7684 12.1825 19.396 12.0771 18.9409 12.1046C18.4858 12.1321 18.1272 12.1825 17.7134 12.2421L16.4905 12.4483L15.8745 12.5354C15.666 12.5198 15.4565 12.5463 15.2585 12.6133C15.1031 12.7428 14.9989 12.9231 14.9644 13.122C14.9299 13.3209 14.9673 13.5256 15.07 13.6996C15.4286 14.4558 15.4791 15.18 16.2515 15.6292Z" fill="white"/>
<path d="M77.5745 14.5612C78.3147 14.3642 78.9537 14.1992 79.3398 13.4887C79.4594 13.2687 79.5927 13.0304 79.703 12.8242C79.9476 12.385 80.0654 11.8868 80.0432 11.385C79.8515 10.9927 79.5476 10.6657 79.1697 10.4454C78.4554 10.0984 77.6904 9.86635 76.9033 9.75792C75.9838 9.56542 75.0368 9.34083 74.1127 9.22167C73.5673 9.15718 73.0146 9.19921 72.4853 9.34542C71.4353 9.62485 70.411 9.99285 69.4235 10.4454C68.2926 10.945 66.918 10.6471 65.8606 11.3346C65.4019 11.5489 64.9083 11.6793 64.4033 11.7196C63.7781 11.8662 63.185 12.1137 62.5644 12.3154C61.5162 12.65 60.468 12.9754 59.406 13.2642C58.6475 13.4704 57.8614 13.2642 57.1074 13.6262C56.8171 13.8378 56.5095 14.0249 56.1879 14.1854C55.8523 14.3 55.5076 14.4558 55.1811 14.5704C53.9813 14.9921 52.6756 15.2808 51.4436 15.6062C49.2553 16.3533 46.8141 16.0279 44.5476 16.4496C43.8948 16.6146 43.2144 16.7108 42.7087 17.2287C42.5478 17.9987 43.1087 18.2967 43.6282 18.6587C44.1477 19.0208 44.5476 19.7404 45.1683 20.1208C45.7117 20.42 46.281 20.6701 46.8693 20.8679C48.1841 21.3996 49.4162 22.0962 50.8321 22.3712C51.6091 22.5179 53.2043 22.7058 53.9123 22.2337C54.7444 21.6792 55.6822 21.3171 56.4868 20.6937C56.8638 20.4142 57.1672 20.0521 57.5533 19.7771C57.9972 19.5399 58.4284 19.2798 58.8452 18.9979C59.3433 18.4906 59.9005 18.0444 60.5048 17.6687C61.2817 17.5404 62.0081 16.6696 62.7804 17.2104C63.1528 17.38 62.9781 17.71 62.9965 18.0446C63.0149 18.3792 63.2632 18.7871 63.2632 19.1858C63.2509 19.5729 63.1875 19.9566 63.0747 20.3271V20.9458C63.4608 28.38 62.8172 35.4475 62.1552 42.9458C61.8518 43.8625 62.2196 44.715 62.4311 45.6087C62.4588 45.9645 62.5362 46.3147 62.6609 46.6492C63.0281 47.2929 63.5763 47.8155 64.2378 48.1525C65.5664 48.6108 67.4237 48.8125 68.4719 47.6483C69.543 47.1487 69.8511 46.1267 70.0304 45.0542C70.1789 44.0836 70.2771 43.1061 70.3246 42.1254C70.3239 41.3484 70.2062 40.5759 69.9752 39.8337C69.8832 39.4487 69.8557 39.0546 69.7683 38.6696C69.6166 38.06 69.4235 37.4504 69.3086 36.8362C68.8531 33.871 68.6241 30.8756 68.6236 27.8758C68.688 25.8775 68.1639 23.375 67.9064 21.6471C67.3226 20.3454 68.1363 19.0437 67.5156 17.7467C67.2398 17.1004 67.3593 16.3121 67.3547 15.6292C67.3547 15.0517 67.7593 14.8362 68.2282 14.5842C68.4068 14.4927 68.5748 14.382 68.7293 14.2542C68.9018 14.1413 69.0934 14.0605 69.2948 14.0158C69.4879 13.9517 69.6764 13.8967 69.874 13.8462C71.2762 13.4842 72.8577 13.255 74.1495 14.08C74.4838 14.3392 74.8692 14.525 75.2804 14.6254C76.0385 14.7953 76.8272 14.7733 77.5745 14.5612V14.5612Z" fill="white"/>
<path d="M52.1837 42.6479C51.8975 42.3925 51.5791 42.1752 51.2367 42.0017C50.8459 41.8504 50.4138 41.8229 50.0184 41.6854C49.0122 41.2936 48.0531 40.7909 47.1589 40.1867C46.9696 40.0346 46.7682 39.8982 46.5566 39.7787C46.3479 39.7244 46.1333 39.6952 45.9176 39.6917C45.5131 39.6046 45.274 39.2333 44.9154 39.0454C44.7499 38.9537 44.5338 38.9262 44.4143 38.775C44.0521 38.4653 43.6482 38.2077 43.2144 38.0096C42.8145 37.7392 42.3731 37.6567 41.9594 37.4183C41.5932 37.194 41.2444 36.9428 40.9158 36.6667C40.3475 36.0907 39.7097 35.5873 39.0171 35.1679C36.5943 34.0587 34.9393 31.24 33.1234 29.3837C31.9511 28.3158 30.457 26.8262 30.4891 24.97C30.9903 23.8058 32.4062 23.4162 33.4498 22.8617C34.7554 21.89 36.6127 21.3583 37.3575 19.8092C37.4886 19.5267 37.5483 19.2165 37.5315 18.9057C37.5147 18.5949 37.4218 18.293 37.2609 18.0262C36.838 17.1462 35.7576 17.1783 34.9163 16.8529C34.3928 16.8101 33.866 16.8724 33.367 17.0362C32.5405 17.3481 31.7876 17.8272 31.1558 18.4433C30.8523 18.7137 30.5857 19.0529 30.2731 19.3096C29.9338 19.5231 29.5608 19.6781 29.1697 19.7679C28.9786 19.8707 28.7592 19.9089 28.5445 19.8767C28.3297 19.8444 28.1313 19.7435 27.979 19.5892C27.6713 18.7213 27.2275 17.9076 26.6642 17.1783C26.4762 17.0784 26.2697 17.0175 26.0574 16.9996C25.8551 16.9492 25.731 16.7887 25.5563 16.7383C25.262 16.6558 24.8759 16.8667 24.5541 16.8667C24.1596 16.8168 23.7593 16.8386 23.3726 16.9308C22.9245 17.1115 22.5404 17.421 22.2692 17.82C21.9704 18.2783 22.0991 18.5992 22.0393 19.0942C22.0072 19.4287 21.9244 19.7542 21.8601 20.0933C21.7775 20.4219 21.7312 20.7585 21.7221 21.0971C21.7725 21.4065 21.8416 21.7126 21.929 22.0137C21.9579 22.4575 21.872 22.9013 21.6796 23.3025C21.4872 23.7038 21.1948 24.0491 20.8303 24.3054C20.5021 24.5746 20.1461 24.8082 19.7683 25.0021C19.3316 25.2404 18.8488 25.3 18.3891 25.5017C17.9733 25.6995 17.5737 25.9293 17.1938 26.1892C16.8076 26.4458 16.4307 26.6887 16.0215 26.9271C15.6124 27.1654 15.1296 27.2158 14.7297 27.4267C14.0125 27.7796 13.162 27.8437 12.431 28.1417C11.6495 28.3021 10.2841 28.0087 9.92552 28.9804C10.0552 29.8513 10.4669 30.656 11.0978 31.2721C11.5208 32.1887 12.7574 32.5371 13.6079 33.1604C14.8768 33.5775 16.1502 32.9633 17.3547 33.0596C17.8144 34.7462 17.6765 36.4971 16.5042 37.7346C16.2877 38.3953 15.9613 39.015 15.5388 39.5679C15.3278 39.8379 15.0989 40.0936 14.8538 40.3333C14.6331 40.5442 14.5504 40.8329 14.3297 41.0529C14.0865 41.3531 13.8087 41.6239 13.5022 41.8596C13.0425 42.1208 12.8908 41.7908 12.5322 41.5708C12.3104 41.4376 12.0681 41.3416 11.815 41.2867C11.3173 41.1833 10.8021 41.199 10.3117 41.3325C9.96436 41.4979 9.68038 41.7713 9.50257 42.1117C9.2397 42.3657 9.06428 42.6962 9.00146 43.0558C9.05324 43.2748 9.11771 43.4906 9.19455 43.7021C9.29109 44.1604 9.1164 44.4492 9.43821 44.88C9.68646 45.21 9.6175 45.3383 9.67267 45.7417C9.71358 45.9232 9.79358 46.0936 9.90713 46.2412C10.1232 46.5104 10.379 46.7452 10.6657 46.9379C10.9067 47.129 11.1747 47.2834 11.461 47.3962C11.7384 47.4448 12.013 47.5075 12.2839 47.5842C12.7757 47.8649 13.3358 48.0045 13.9022 47.9875C14.8538 47.9417 15.6675 47.5292 16.5594 47.2587C16.9874 47.1523 17.4022 46.9986 17.7961 46.8004C18.1572 46.5598 18.493 46.2834 18.7983 45.9754C19.2166 45.6087 19.6166 45.2283 19.9982 44.8296C20.6818 44.1249 21.2975 43.3576 21.8371 42.5379C22.1127 42.135 22.3659 41.7173 22.5956 41.2867C22.7979 40.9017 22.8944 40.4846 23.0553 40.095C23.1519 39.8796 23.299 39.6917 23.3864 39.4762C23.5722 39.0812 23.7259 38.672 23.8461 38.2525C23.935 37.8788 24.0758 37.5194 24.2644 37.1846C24.5266 36.5481 24.6819 35.873 24.7242 35.1862C24.7793 34.8792 24.8943 34.5858 24.9494 34.2696C25.0046 33.9533 24.9908 33.5271 25.0736 33.1604C25.2028 32.6253 25.4304 32.1187 25.7448 31.6662C26.4881 31.8082 27.1473 32.2321 27.5837 32.8487C27.8413 33.1354 28.1145 33.4077 28.402 33.6646C28.7422 33.9533 28.972 34.3521 29.3214 34.6317C30.342 35.42 31.0224 36.5933 31.7212 37.6292C32.6085 38.8896 33.4544 40.1821 34.3371 41.4471C35.2197 42.7121 35.9829 43.8946 37.1598 44.7883C38.0316 45.544 38.9531 46.2407 39.9182 46.8737C40.6353 47.2862 41.564 47.1671 42.3547 47.1808C43.8039 47.1755 45.2515 47.0852 46.69 46.9104C47.4025 46.8371 48.1197 46.7592 48.8277 46.7087C49.1644 46.7186 49.5013 46.6987 49.8345 46.6492C50.4367 46.585 51.0528 46.31 51.6734 46.1908C52.294 46.0717 52.9974 45.9754 53.3974 45.485C53.5607 45.288 53.6759 45.0559 53.7342 44.807C53.7924 44.5581 53.792 44.2991 53.733 44.0504C53.4801 43.3858 52.7354 43.0421 52.1837 42.6479Z" fill="white"/>
<path d="M92.5386 37.4596C92.8197 37.4619 93.1002 37.4342 93.3753 37.3771C93.6358 37.3168 93.8887 37.2277 94.1293 37.1113L94.3132 36.5017H94.2442C94.0328 36.6773 93.7935 36.8167 93.5363 36.9142C93.2907 37.0127 93.0286 37.064 92.7639 37.0654C92.5076 37.0815 92.2512 37.0363 92.0161 36.9334C91.781 36.8306 91.5739 36.6731 91.4123 36.4742C91.0707 35.9737 90.9087 35.3729 90.9526 34.7692C90.9173 34.1964 91.0795 33.6287 91.4123 33.1604C91.563 32.9687 91.7578 32.8161 91.9803 32.7155C92.2028 32.615 92.4464 32.5695 92.6903 32.5829C93.0124 32.5707 93.3314 32.6502 93.6098 32.8121C93.8405 32.9599 94.0038 33.1919 94.0649 33.4583H94.1753C94.1935 33.2904 94.2211 33.1236 94.258 32.9588C94.2834 32.803 94.3218 32.6497 94.373 32.5004C94.0983 32.3812 93.8137 32.2861 93.5225 32.2163C93.2461 32.1559 92.9641 32.1251 92.6812 32.1246C91.8996 32.0834 91.1321 32.3444 90.5388 32.8533C90.2713 33.1004 90.0612 33.4028 89.923 33.7392C89.7848 34.0756 89.722 34.4381 89.7389 34.8013C89.7157 35.1674 89.7696 35.5343 89.897 35.8785C90.0245 36.2226 90.2227 36.5364 90.4791 36.7996C91.0531 37.2787 91.7921 37.5155 92.5386 37.4596V37.4596Z" fill="white"/>
<path d="M98.4967 35.5483C98.5094 35.2904 98.4694 35.0326 98.3792 34.7905C98.2889 34.5484 98.1503 34.3272 97.9716 34.1401C97.793 33.9531 97.5781 33.8042 97.34 33.7024C97.102 33.6007 96.8456 33.5482 96.5866 33.5482C96.3275 33.5482 96.0712 33.6007 95.8331 33.7024C95.595 33.8042 95.3801 33.9531 95.2015 34.1401C95.0229 34.3272 94.8842 34.5484 94.794 34.7905C94.7037 35.0326 94.6637 35.2904 94.6764 35.5483C94.6604 35.8033 94.6952 36.059 94.7788 36.3005C94.8625 36.542 94.9933 36.7646 95.1637 36.9554C95.3518 37.1296 95.5736 37.2638 95.8155 37.3497C96.0574 37.4356 96.3142 37.4714 96.5705 37.455C96.7984 37.4778 97.0286 37.4556 97.2479 37.3895C97.4673 37.3235 97.6714 37.2151 97.8486 37.0703C98.0258 36.9256 98.1726 36.7474 98.2807 36.546C98.3887 36.3446 98.4559 36.124 98.4783 35.8967C98.4921 35.781 98.4921 35.664 98.4783 35.5483H98.4967ZM97.2003 36.7629C97.1452 36.876 97.0577 36.9703 96.9489 37.0339C96.8401 37.0976 96.7148 37.1277 96.5889 37.1204C96.4643 37.127 96.3405 37.0966 96.2333 37.0329C96.126 36.9693 96.0402 36.8753 95.9866 36.7629C95.8431 36.3749 95.785 35.9607 95.8165 35.5483C95.7881 35.1323 95.8492 34.7151 95.9958 34.3246C96.0549 34.2154 96.1425 34.1243 96.2493 34.0607C96.3562 33.9972 96.4783 33.9636 96.6027 33.9636C96.7271 33.9636 96.8491 33.9972 96.956 34.0607C97.0628 34.1243 97.1504 34.2154 97.2095 34.3246C97.3557 34.7136 97.4168 35.1293 97.3888 35.5438C97.4167 35.959 97.3524 36.3753 97.2003 36.7629V36.7629Z" fill="white"/>
<path d="M104.818 37.3588C104.818 37.1113 104.818 36.8683 104.786 36.6392V35.4979C104.798 35.1546 104.778 34.8109 104.726 34.4712C104.691 34.3027 104.615 34.1454 104.505 34.0129C104.402 33.895 104.273 33.8024 104.128 33.7425C103.936 33.6718 103.731 33.6426 103.526 33.6568C103.322 33.671 103.123 33.7283 102.942 33.825C102.735 33.9579 102.563 34.1387 102.441 34.3521C102.361 34.1495 102.222 33.9755 102.041 33.8525C101.846 33.7305 101.619 33.6683 101.388 33.6737C101.175 33.6679 100.963 33.7151 100.772 33.8112C100.573 33.9264 100.401 34.0827 100.267 34.2696V33.7471H99.2092C99.2092 34.155 99.2368 34.5079 99.246 34.8104C99.2552 35.1129 99.246 35.3558 99.246 35.5529V36.3046C99.246 36.6117 99.246 36.9692 99.2092 37.3679H100.313V37.2992C100.313 37.0104 100.285 36.7996 100.285 36.685V35.4704C100.265 35.1582 100.314 34.8453 100.428 34.5537C100.513 34.4283 100.644 34.3414 100.793 34.3122C100.942 34.283 101.097 34.3138 101.223 34.3979C101.284 34.4403 101.337 34.493 101.379 34.5537C101.498 34.9596 101.541 35.3836 101.508 35.805V36.5567C101.508 36.8133 101.48 37.0975 101.462 37.3771H102.597V35.4704C102.575 35.1585 102.622 34.8454 102.735 34.5537C102.792 34.4734 102.867 34.4077 102.954 34.3624C103.041 34.3171 103.138 34.2935 103.236 34.2935C103.335 34.2935 103.432 34.3171 103.519 34.3624C103.606 34.4077 103.681 34.4734 103.738 34.5537C103.857 34.9107 103.903 35.2877 103.875 35.6629V36.4558C103.875 36.7446 103.848 37.0379 103.825 37.3725H104.818V37.3588Z" fill="white"/>
<path d="M108.036 37.3588H109.167V35.4704C109.148 35.1582 109.197 34.8457 109.31 34.5538C109.366 34.4734 109.441 34.4078 109.528 34.3625C109.615 34.3171 109.712 34.2935 109.811 34.2935C109.909 34.2935 110.006 34.3171 110.093 34.3625C110.18 34.4078 110.255 34.4734 110.312 34.5538C110.431 34.9108 110.478 35.2878 110.45 35.6629V36.4559C110.45 36.7446 110.422 37.0379 110.399 37.3725H111.53C111.53 37.125 111.53 36.8821 111.502 36.6529V35.4979C111.475 35.1609 111.419 34.8268 111.337 34.4988C111.301 34.3307 111.225 34.1736 111.116 34.0404C111.013 33.9231 110.884 33.8306 110.739 33.77C110.546 33.6996 110.341 33.6702 110.136 33.6836C109.931 33.6971 109.731 33.753 109.549 33.8479C109.334 33.9785 109.154 34.1595 109.024 34.375C108.948 34.1701 108.808 33.995 108.625 33.8754C108.43 33.7508 108.203 33.6884 107.972 33.6967C107.759 33.693 107.548 33.7385 107.356 33.8296C107.157 33.9436 106.986 34.1001 106.855 34.2879V33.7746H105.793C105.793 34.1871 105.82 34.54 105.825 34.8379C105.829 35.1358 105.825 35.3833 105.825 35.585V36.3367C105.825 36.6392 105.825 37.0013 105.793 37.4H106.896V37.3313C106.896 37.0379 106.868 36.8317 106.868 36.7171V35.4704C106.849 35.1582 106.897 34.8454 107.011 34.5538C107.053 34.4914 107.108 34.4379 107.171 34.3965C107.234 34.3551 107.305 34.3266 107.379 34.3125C107.454 34.2985 107.53 34.2992 107.604 34.3146C107.678 34.3301 107.748 34.3599 107.811 34.4025C107.87 34.4433 107.922 34.4946 107.963 34.5538C108.079 34.9601 108.122 35.3836 108.091 35.805V36.5567C108.091 36.7996 108.036 37.0792 108.036 37.3588Z" fill="white"/>
<path d="M115.939 35.5483C115.954 35.2912 115.918 35.0335 115.831 34.7909C115.744 34.5482 115.609 34.3257 115.433 34.1367C115.053 33.7982 114.557 33.6182 114.047 33.6337C113.537 33.6491 113.053 33.8589 112.694 34.2198C112.335 34.5806 112.129 35.0651 112.117 35.5732C112.106 36.0813 112.291 36.5744 112.633 36.9508C113.03 37.2736 113.526 37.4499 114.038 37.4499C114.55 37.4499 115.046 37.2736 115.442 36.9508C115.615 36.762 115.748 36.5406 115.833 36.2997C115.918 36.0588 115.954 35.8033 115.939 35.5483ZM114.633 36.7629C114.573 36.8708 114.485 36.9607 114.378 37.0233C114.272 37.0859 114.15 37.1189 114.026 37.1189C113.902 37.1189 113.781 37.0859 113.674 37.0233C113.568 36.9607 113.48 36.8708 113.419 36.7629C113.273 36.3757 113.211 35.9613 113.24 35.5483C113.212 35.1323 113.273 34.7151 113.419 34.3246C113.508 34.1695 113.652 34.0543 113.824 34.0031C113.995 33.9519 114.18 33.9685 114.339 34.0496C114.454 34.1143 114.55 34.2094 114.615 34.3246C114.762 34.7133 114.825 35.1289 114.799 35.5438C114.826 35.9586 114.763 36.3744 114.615 36.7629H114.633Z" fill="white"/>
<path d="M118.789 34.5308C118.908 34.872 118.955 35.234 118.927 35.5942V36.5933C118.937 36.8507 118.923 37.1084 118.886 37.3633H120.012C120.012 37.1708 119.984 36.9646 119.975 36.7537C119.966 36.5429 119.975 36.2954 119.975 36.0846V35.1312C119.98 34.8826 119.961 34.634 119.92 34.3887C119.889 34.255 119.826 34.1307 119.736 34.0267C119.634 33.902 119.501 33.8057 119.35 33.7471C119.162 33.6776 118.963 33.6467 118.763 33.6562C118.563 33.6656 118.367 33.7153 118.187 33.8021C117.988 33.9155 117.816 34.0721 117.686 34.2604V33.7562H116.656C116.656 34.0542 116.688 34.3567 116.697 34.6729V36.4467C116.697 36.7446 116.674 37.0654 116.656 37.4H117.75C117.75 37.0012 117.75 36.6529 117.723 36.355C117.706 36.0971 117.706 35.8384 117.723 35.5804C117.699 35.2507 117.751 34.92 117.874 34.6133C117.917 34.5194 117.989 34.4414 118.079 34.3904C118.169 34.3394 118.272 34.3179 118.375 34.3292C118.456 34.327 118.535 34.3442 118.607 34.3793C118.679 34.4144 118.742 34.4664 118.789 34.5308V34.5308Z" fill="white"/>
<path d="M127.529 32.2117H127.175C127.018 32.8487 126.853 33.4812 126.673 34.1C126.494 34.7187 126.287 35.3329 126.076 35.9333C125.846 35.2825 125.616 34.6454 125.428 34.0267C125.239 33.4079 125.032 32.7983 124.853 32.1933H124.085C123.887 32.78 123.685 33.3896 123.469 34.0267C123.253 34.6637 123.032 35.3008 122.793 35.9883C122.596 35.365 122.416 34.7371 122.246 34.1046C122.076 33.4721 121.915 32.8396 121.745 32.2071H120.449C120.755 33.1024 121.043 33.9824 121.313 34.8471C121.58 35.7042 121.814 36.5567 122.035 37.3862H122.807C123.019 36.74 123.23 36.1167 123.446 35.5025C123.662 34.8883 123.906 34.2971 124.113 33.715C124.347 34.3567 124.572 34.9846 124.775 35.5942C124.977 36.2037 125.166 36.7996 125.34 37.3862H126.126C126.434 36.4192 126.733 35.5117 127.023 34.6362C127.312 33.7608 127.584 32.9633 127.855 32.1979H127.524L127.529 32.2117Z" fill="white"/>
<path d="M129.864 33.6371C129.621 33.6242 129.377 33.662 129.149 33.748C128.921 33.834 128.714 33.9663 128.54 34.1367C128.371 34.315 128.239 34.5253 128.153 34.7552C128.067 34.9851 128.028 35.2298 128.039 35.475C128.023 35.7367 128.058 35.9991 128.144 36.2469C128.23 36.4947 128.365 36.723 128.54 36.9187C128.723 37.0919 128.94 37.2257 129.177 37.3116C129.415 37.3976 129.667 37.4339 129.919 37.4183C130.155 37.4213 130.39 37.392 130.618 37.3312C130.817 37.2761 131.007 37.1894 131.179 37.0746L131.344 36.6437L131.275 36.5887C131.137 36.702 130.982 36.7932 130.816 36.8592C130.655 36.9191 130.486 36.9501 130.315 36.9508C130.154 36.9559 129.994 36.9237 129.848 36.8569C129.703 36.7901 129.574 36.6905 129.473 36.5658C129.25 36.2662 129.137 35.8984 129.156 35.5254H131.482V35.2917C131.5 35.0669 131.472 34.8408 131.401 34.6268C131.33 34.4127 131.217 34.2149 131.068 34.045C130.907 33.8969 130.717 33.784 130.51 33.7138C130.302 33.6435 130.082 33.6174 129.864 33.6371ZM130.42 35.0808V35.1862H129.133V35.1129C129.115 34.8173 129.179 34.5225 129.317 34.2604C129.367 34.1708 129.439 34.0956 129.527 34.0426C129.615 33.9895 129.715 33.9603 129.818 33.9579C129.912 33.9548 130.005 33.9781 130.086 34.0251C130.167 34.0721 130.234 34.1409 130.278 34.2237C130.392 34.4655 130.444 34.7316 130.429 34.9983C130.429 35.026 130.426 35.0536 130.42 35.0808V35.0808Z" fill="white"/>
<path d="M135.068 36.9417C134.979 36.7565 134.942 36.5504 134.962 36.3459V36.2084L134.99 34.8884V34.8334C135.002 34.6628 134.976 34.4916 134.912 34.3328C134.848 34.1739 134.749 34.0317 134.622 33.9167C134.321 33.6884 133.947 33.5761 133.569 33.6004C133.333 33.6031 133.1 33.653 132.884 33.7471C132.641 33.8568 132.416 34.0037 132.218 34.1825C132.245 34.248 132.269 34.3154 132.287 34.3842C132.31 34.4817 132.342 34.5769 132.383 34.6684C132.479 34.4909 132.611 34.3349 132.769 34.21C132.904 34.1164 133.065 34.0653 133.229 34.0634C133.322 34.0632 133.414 34.0814 133.5 34.1168C133.586 34.1522 133.664 34.2041 133.73 34.2696C133.798 34.3428 133.85 34.4287 133.884 34.5224C133.918 34.6161 133.933 34.7156 133.928 34.815V34.9434C133.671 35.0891 133.396 35.2001 133.11 35.2734L132.723 35.3925C132.491 35.457 132.283 35.5857 132.121 35.7638C131.989 35.9336 131.92 36.1446 131.928 36.3596C131.92 36.4999 131.94 36.6404 131.987 36.7727C132.034 36.9051 132.108 37.0265 132.204 37.1296C132.302 37.2258 132.42 37.3007 132.549 37.3496C132.678 37.3985 132.815 37.4204 132.953 37.4138C133.162 37.417 133.369 37.3648 133.551 37.2625C133.73 37.1644 133.879 37.0204 133.983 36.8454C134.012 37.003 134.095 37.1456 134.218 37.2488C134.349 37.3482 134.512 37.3985 134.677 37.3909C134.812 37.3874 134.946 37.3721 135.077 37.345C135.217 37.3183 135.352 37.2752 135.482 37.2167V37.0334H135.454C135.387 37.0457 135.318 37.0439 135.251 37.0281C135.185 37.0123 135.122 36.9829 135.068 36.9417ZM133.969 36.245C133.983 36.4305 133.937 36.6155 133.836 36.7721C133.791 36.8307 133.732 36.8776 133.665 36.9087C133.598 36.9399 133.524 36.9543 133.45 36.9509C133.382 36.9555 133.314 36.9433 133.252 36.9152C133.191 36.8872 133.137 36.8444 133.096 36.7904C133.006 36.6397 132.965 36.4656 132.976 36.2909C132.97 36.1785 132.987 36.066 133.028 35.9609C133.068 35.8558 133.13 35.7605 133.211 35.6813C133.43 35.5068 133.692 35.3944 133.969 35.3559V36.245Z" fill="white"/>
<path d="M137.141 31.6708C137.036 31.6763 136.932 31.6901 136.829 31.7121C136.743 31.7167 136.657 31.7167 136.571 31.7121C136.487 31.7167 136.403 31.7167 136.319 31.7121C136.213 31.7121 136.112 31.7121 136.006 31.6708C136.006 32.0833 136.038 32.5188 136.047 32.9908C136.057 33.4629 136.047 33.99 136.047 34.5308V36.0296C136.047 36.4879 136.024 36.9463 136.006 37.3633C136.098 37.3633 136.19 37.3358 136.282 37.3313C136.477 37.3083 136.675 37.3083 136.87 37.3313C136.961 37.3374 137.052 37.3481 137.141 37.3633C137.141 36.9554 137.105 36.5154 137.096 36.0479C137.086 35.5804 137.096 35.0488 137.096 34.5033V33C137.096 32.505 137.123 32.0833 137.141 31.6708Z" fill="white"/>
<path d="M139.587 37.0471C139.517 37.0518 139.446 37.0338 139.387 36.9959C139.327 36.958 139.281 36.902 139.256 36.8362C139.178 36.4813 139.15 36.1172 139.173 35.7546V35.4521C139.173 35.2321 139.173 34.8562 139.173 34.3292V34.155H139.927C139.923 34.0986 139.923 34.0418 139.927 33.9854C139.923 33.9612 139.923 33.9363 139.927 33.9121V33.7837H139.187V33.1054C139.183 32.8635 139.195 32.6215 139.224 32.3812L139.141 32.3217C138.98 32.3996 138.815 32.4729 138.635 32.5508L138.134 32.7617C138.128 32.8998 138.137 33.0381 138.162 33.1742C138.173 33.2793 138.173 33.3853 138.162 33.4904V33.7792H138.075C137.946 33.7883 137.817 33.7883 137.688 33.7792H137.642V33.8571C137.647 33.8982 137.647 33.9397 137.642 33.9808V34.1733H138.148V36.465C138.134 36.5997 138.15 36.7358 138.195 36.8636C138.24 36.9914 138.313 37.1077 138.408 37.2041C138.503 37.3005 138.619 37.3747 138.747 37.4212C138.874 37.4678 139.01 37.4856 139.146 37.4733C139.284 37.4749 139.421 37.458 139.555 37.4229C139.713 37.3824 139.867 37.3272 140.015 37.2579V36.9783C139.875 37.0156 139.732 37.0386 139.587 37.0471V37.0471Z" fill="white"/>
<path d="M143.863 36.7996V35.1313C143.867 34.8856 143.849 34.6401 143.807 34.3979C143.773 34.261 143.707 34.1339 143.614 34.0267C143.512 33.902 143.379 33.8057 143.228 33.7471C143.069 33.6849 142.898 33.6538 142.727 33.6554C142.494 33.6499 142.263 33.7035 142.056 33.8113C141.854 33.921 141.682 34.0784 141.555 34.2696V32.34C141.556 32.1164 141.57 31.893 141.596 31.6708L141.311 31.7167H140.778L140.484 31.6708C140.507 31.9917 140.525 32.3721 140.534 32.8121C140.543 33.2521 140.534 33.8708 140.534 34.6454V36.355C140.534 36.7492 140.507 37.0792 140.484 37.3542H141.596C141.603 37.0207 141.591 36.6871 141.559 36.355C141.543 36.0818 141.543 35.8078 141.559 35.5346C141.538 35.2065 141.59 34.8779 141.711 34.5721C141.76 34.4891 141.83 34.4196 141.913 34.3699C141.995 34.3201 142.089 34.2917 142.186 34.2872C142.283 34.2826 142.379 34.3021 142.466 34.3438C142.553 34.3856 142.629 34.4482 142.686 34.5263C142.801 34.8681 142.845 35.2301 142.814 35.5896V36.5933C142.824 36.8507 142.81 37.1084 142.773 37.3633H143.895C143.873 37.1762 143.862 36.988 143.863 36.7996V36.7996Z" fill="white"/>
<path d="M95.8946 44.2704L95.4349 40.6404H94.7407C94.4603 41.2637 94.1798 41.8687 93.8856 42.4737C93.5914 43.0787 93.3064 43.6379 93.0029 44.2017C92.6949 43.6196 92.3869 43.0329 92.0835 42.4508C91.7801 41.8687 91.4996 41.2592 91.2284 40.6542H90.5664L90.1066 44.2246C90.1066 44.3437 90.0607 44.5408 90.0193 44.8204C89.9779 45.1 89.9182 45.4346 89.8584 45.8196L90.0193 45.7921H90.3135L90.479 45.8196C90.4966 45.2431 90.5442 44.6678 90.6215 44.0962V44.0367L90.8054 42.46C91.0767 42.9596 91.3525 43.4958 91.6375 44.055C91.9226 44.6142 92.203 45.2054 92.5018 45.8196H92.8099C93.1087 45.1962 93.3983 44.5912 93.6833 44.0137C93.9684 43.4362 94.2488 42.8817 94.5384 42.3362L94.7821 44.7562C94.7821 44.8846 94.8189 45.2146 94.8373 45.7554V45.8333L95.1637 45.8058H95.7659H96.1107C96.0693 45.6271 96.0325 45.4254 95.9958 45.1962C95.959 44.9671 95.9406 44.6692 95.8946 44.2704Z" fill="white"/>
<path d="M99.8299 45.4071C99.7385 45.2226 99.7018 45.0159 99.7242 44.8113V44.6646L99.7471 43.3446V43.3033C99.7596 43.1327 99.733 42.9616 99.6692 42.8027C99.6055 42.6439 99.5064 42.5017 99.3794 42.3867C99.0784 42.1576 98.7044 42.0453 98.3266 42.0704C98.0905 42.0709 97.8571 42.1208 97.6416 42.2171C97.398 42.3268 97.1731 42.4737 96.975 42.6525C96.998 42.7121 97.0256 42.7763 97.0485 42.8496C97.0715 42.9229 97.1037 43.0146 97.1405 43.1383C97.234 42.9579 97.3677 42.8011 97.5313 42.68C97.6636 42.581 97.8256 42.5293 97.991 42.5333C98.0839 42.5313 98.1762 42.5482 98.2623 42.5828C98.3485 42.6175 98.4266 42.6693 98.4921 42.735C98.5598 42.8092 98.6121 42.896 98.646 42.9903C98.6799 43.0847 98.6948 43.1849 98.6898 43.285V43.4133C98.4357 43.5603 98.1616 43.67 97.8761 43.7388L97.4899 43.8625C97.2571 43.928 97.0471 44.0565 96.883 44.2338C96.749 44.4011 96.6804 44.6111 96.69 44.825C96.6813 44.966 96.7013 45.1072 96.7487 45.2403C96.7961 45.3734 96.8699 45.4956 96.9658 45.5996C97.0647 45.6954 97.1822 45.77 97.311 45.8189C97.4399 45.8677 97.5774 45.8898 97.7152 45.8838C97.9255 45.8848 98.1327 45.8328 98.3174 45.7325C98.4964 45.6321 98.6442 45.4847 98.7449 45.3063C98.7657 45.4681 98.8488 45.6155 98.9766 45.7173C99.1045 45.8191 99.2671 45.8673 99.4299 45.8517C99.5642 45.8554 99.6985 45.8431 99.8299 45.815C99.9666 45.7833 100.1 45.7404 100.23 45.6867V45.4988H100.221C100.153 45.5139 100.082 45.5136 100.015 45.4977C99.947 45.4818 99.8838 45.4508 99.8299 45.4071V45.4071ZM98.7311 44.7104C98.7362 44.8869 98.6882 45.0609 98.5932 45.21C98.5481 45.2686 98.4894 45.3155 98.4222 45.3466C98.3549 45.3778 98.2811 45.3922 98.2071 45.3888C98.1394 45.3943 98.0715 45.382 98.0102 45.353C97.9488 45.324 97.8962 45.2794 97.8577 45.2238C97.7658 45.074 97.724 44.8991 97.7381 44.7242C97.7313 44.6129 97.7483 44.5014 97.788 44.3971C97.8276 44.2928 97.8889 44.1981 97.968 44.1192C98.1892 43.9457 98.4525 43.8334 98.7311 43.7938V44.7104Z" fill="white"/>
<path d="M103.724 45.4071C103.438 45.3058 103.136 45.2561 102.832 45.2604H102.699C101.972 45.2329 101.618 45.1046 101.618 44.8754C101.614 44.7833 101.647 44.6934 101.709 44.6249C101.771 44.5563 101.857 44.5147 101.949 44.5088H102.06C102.506 44.5372 102.949 44.4214 103.324 44.1788C103.472 44.0773 103.592 43.9399 103.672 43.7796C103.753 43.6192 103.791 43.4412 103.784 43.2621C103.789 43.1038 103.756 42.9465 103.687 42.8037C103.617 42.6731 103.514 42.5626 103.388 42.4829H104.142V42.1162H103.462C103.189 42.1205 102.915 42.1097 102.643 42.0842L102.142 42.0567C101.733 42.032 101.328 42.1503 100.998 42.3912C100.86 42.4933 100.749 42.6271 100.675 42.7811C100.6 42.9352 100.564 43.1049 100.57 43.2758C100.556 43.5359 100.645 43.791 100.818 43.9863C101.018 44.184 101.276 44.3126 101.554 44.3529V44.4996C101.34 44.5821 101.147 44.7104 100.988 44.8754C100.924 44.9415 100.873 45.0197 100.839 45.1055C100.805 45.1912 100.789 45.2828 100.791 45.375C100.787 45.5109 100.831 45.6439 100.915 45.7508C101.01 45.8608 101.137 45.9391 101.278 45.9754V46.035C101.056 46.1046 100.855 46.2292 100.694 46.3971C100.564 46.5537 100.497 46.753 100.506 46.9563C100.505 47.1029 100.544 47.247 100.62 47.373C100.695 47.499 100.803 47.6021 100.933 47.6713C101.297 47.865 101.708 47.9538 102.119 47.9279C102.66 47.9517 103.192 47.7899 103.627 47.4696C103.809 47.3404 103.957 47.169 104.058 46.9702C104.159 46.7714 104.21 46.5511 104.206 46.3283C104.212 46.1419 104.169 45.9573 104.082 45.7921C104.005 45.6305 103.88 45.4963 103.724 45.4071ZM101.765 42.6571C101.811 42.588 101.872 42.5308 101.944 42.4902C102.016 42.4495 102.097 42.4267 102.18 42.4236C102.263 42.4204 102.345 42.4371 102.42 42.4721C102.495 42.5072 102.561 42.5596 102.611 42.625C102.715 42.8124 102.761 43.0259 102.745 43.2392C102.763 43.4998 102.717 43.761 102.611 44C102.527 44.1139 102.401 44.1898 102.26 44.2113C102.12 44.2328 101.977 44.198 101.862 44.1146C101.817 44.0824 101.776 44.0438 101.742 44C101.637 43.787 101.591 43.5495 101.609 43.3125C101.59 43.0728 101.644 42.8329 101.765 42.625V42.6571ZM102.979 47.3642C102.738 47.5217 102.453 47.5973 102.165 47.5796C101.91 47.5933 101.658 47.5097 101.462 47.3458C101.375 47.2663 101.307 47.169 101.262 47.0606C101.216 46.9522 101.195 46.8353 101.2 46.7179C101.196 46.5777 101.233 46.4393 101.306 46.3192C101.372 46.2003 101.473 46.1044 101.595 46.0442L102.473 46.09C102.69 46.0873 102.903 46.1531 103.08 46.2779C103.146 46.3435 103.197 46.4225 103.23 46.5095C103.262 46.5965 103.275 46.6895 103.269 46.7821C103.274 46.8956 103.25 47.0085 103.199 47.1102C103.148 47.212 103.073 47.2994 102.979 47.3642Z" fill="white"/>
<path d="M107.576 45.4071C107.485 45.2225 107.448 45.0158 107.471 44.8112V43.3033C107.484 43.1326 107.458 42.9611 107.394 42.8021C107.33 42.6432 107.231 42.501 107.103 42.3867C106.802 42.1584 106.428 42.0461 106.05 42.0704C105.814 42.0708 105.581 42.1208 105.365 42.2171C105.122 42.3268 104.897 42.4737 104.699 42.6525L104.772 42.8496C104.772 42.9275 104.827 43.0146 104.864 43.1383C104.958 42.9579 105.091 42.8011 105.255 42.68C105.387 42.5809 105.549 42.5293 105.715 42.5333C105.807 42.5313 105.9 42.5481 105.986 42.5828C106.072 42.6175 106.15 42.6693 106.216 42.735C106.285 42.8085 106.338 42.8951 106.373 42.9895C106.407 43.084 106.423 43.1845 106.418 43.285V43.4133C106.164 43.5603 105.89 43.6699 105.604 43.7387L105.218 43.8625C104.985 43.9269 104.774 44.0556 104.611 44.2337C104.477 44.401 104.409 44.6111 104.418 44.825C104.408 44.9661 104.428 45.1076 104.475 45.2409C104.523 45.3741 104.597 45.4962 104.694 45.5996C104.792 45.6958 104.91 45.7707 105.039 45.8196C105.168 45.8685 105.305 45.8903 105.443 45.8837C105.654 45.8848 105.861 45.8328 106.046 45.7325C106.224 45.6321 106.372 45.4847 106.473 45.3062C106.494 45.468 106.577 45.6155 106.705 45.7173C106.833 45.8191 106.995 45.8673 107.158 45.8517C107.291 45.8556 107.424 45.8433 107.553 45.815C107.692 45.784 107.827 45.7411 107.958 45.6867V45.4987C107.892 45.5125 107.823 45.5114 107.757 45.4955C107.691 45.4797 107.629 45.4495 107.576 45.4071ZM106.482 44.7104C106.485 44.8867 106.438 45.0601 106.344 45.21C106.299 45.2693 106.239 45.3166 106.171 45.3477C106.103 45.3789 106.028 45.3929 105.954 45.3887C105.886 45.3938 105.818 45.3813 105.757 45.3523C105.696 45.3234 105.643 45.2791 105.604 45.2237C105.512 45.074 105.47 44.8991 105.485 44.7242C105.478 44.6125 105.496 44.5008 105.537 44.3965C105.577 44.2922 105.639 44.1977 105.719 44.1192C105.939 43.9437 106.203 43.8312 106.482 43.7937V44.7104Z" fill="white"/>
<path d="M109.939 42.2263H108.422C108.427 42.252 108.427 42.2784 108.422 42.3042C108.427 42.3484 108.427 42.3929 108.422 42.4371C108.427 42.4782 108.427 42.5197 108.422 42.5609C108.427 42.5866 108.427 42.613 108.422 42.6388H108.496C108.943 42.6204 109.27 42.6113 109.475 42.6113H110.1L109.415 43.6929C108.802 44.6096 108.359 45.2772 108.087 45.6959V45.8334L108.859 45.8013H110.67L111.392 45.8334V45.6821C111.387 45.6517 111.387 45.6208 111.392 45.5904C111.387 45.5601 111.387 45.5292 111.392 45.4988V45.375C111.181 45.375 110.965 45.4025 110.744 45.4071C110.523 45.4117 110.284 45.4071 110.068 45.4071H109.401L110.684 43.4088L111.429 42.2721V42.2171H110.739L109.939 42.2263Z" fill="white"/>
<path d="M113.19 42.1987H112.059C112.059 42.5241 112.091 42.8404 112.1 43.1154C112.109 43.3904 112.1 43.7066 112.1 43.9954V44.7975C112.105 45.1311 112.092 45.4647 112.059 45.7967L112.353 45.7646H112.905L113.19 45.7967C113.19 45.4116 113.157 45.0771 113.148 44.7975C113.139 44.5179 113.148 44.2429 113.148 43.9908V43.1291C113.148 42.8312 113.167 42.5241 113.19 42.1987Z" fill="white"/>
<path d="M112.633 40.2554C112.557 40.2517 112.482 40.2631 112.41 40.2888C112.339 40.3145 112.273 40.354 112.217 40.4052C112.161 40.4563 112.116 40.518 112.084 40.5867C112.052 40.6554 112.034 40.7297 112.031 40.8054C112.027 40.8908 112.042 40.9761 112.075 41.0552C112.107 41.1343 112.157 41.2055 112.22 41.2637C112.272 41.3183 112.336 41.3612 112.407 41.3896C112.477 41.418 112.553 41.4314 112.629 41.4287C112.704 41.4363 112.78 41.4288 112.852 41.4068C112.925 41.3848 112.992 41.3486 113.05 41.3004C113.108 41.2522 113.156 41.1929 113.191 41.126C113.226 41.0591 113.248 40.986 113.254 40.9108C113.268 40.759 113.221 40.6078 113.124 40.4901C113.027 40.3725 112.887 40.298 112.734 40.2829H112.633V40.2554Z" fill="white"/>
<path d="M117.474 44.5454V43.5967C117.484 43.3464 117.465 43.0958 117.419 42.8496C117.39 42.7148 117.328 42.589 117.24 42.4829C117.132 42.3633 116.998 42.2693 116.849 42.2079C116.689 42.148 116.519 42.1169 116.348 42.1163C116.122 42.111 115.897 42.1613 115.695 42.2629C115.497 42.378 115.326 42.5343 115.194 42.7213V42.2217H114.127C114.127 42.515 114.16 42.8129 114.173 43.1383C114.187 43.4638 114.173 43.7479 114.173 44.055V44.9167C114.18 45.2351 114.165 45.5537 114.127 45.87L114.417 45.8379H114.932L115.212 45.87C115.212 45.4713 115.212 45.1229 115.18 44.8158V44C115.169 43.6862 115.226 43.3737 115.346 43.0833C115.389 42.9894 115.46 42.9114 115.55 42.8604C115.64 42.8094 115.744 42.788 115.847 42.7992C115.945 42.7846 116.045 42.7995 116.134 42.842C116.223 42.8844 116.298 42.9525 116.348 43.0375C116.464 43.3794 116.507 43.7413 116.477 44.1008V45.1046C116.485 45.3618 116.473 45.6193 116.44 45.8746L116.734 45.8425H117.267L117.566 45.8746C117.566 45.6775 117.539 45.4713 117.525 45.265C117.511 45.0588 117.474 44.7792 117.474 44.5454Z" fill="white"/>
<path d="M120.058 42.0979C119.814 42.0869 119.57 42.126 119.341 42.2127C119.113 42.2995 118.905 42.432 118.729 42.6021C118.56 42.7804 118.429 42.9907 118.343 43.2206C118.257 43.4505 118.218 43.6953 118.228 43.9404C118.213 44.2006 118.25 44.4613 118.336 44.7074C118.422 44.9536 118.555 45.1804 118.729 45.375C118.913 45.5482 119.13 45.6819 119.367 45.7679C119.604 45.8538 119.857 45.8902 120.109 45.8746C120.344 45.8781 120.58 45.8488 120.807 45.7875C121.007 45.7333 121.197 45.6465 121.368 45.5308L121.534 45.1L121.46 45.045C121.322 45.1586 121.167 45.2498 121 45.3154C120.84 45.3761 120.671 45.4072 120.499 45.4071C120.338 45.4123 120.177 45.3798 120.03 45.3121C119.883 45.2445 119.754 45.1436 119.653 45.0175C119.44 44.7221 119.331 44.3639 119.345 44H121.676V43.7571C121.704 43.3038 121.552 42.8578 121.253 42.515C121.093 42.3674 120.905 42.2541 120.699 42.1824C120.494 42.1106 120.275 42.0819 120.058 42.0979V42.0979ZM120.637 43.5417C120.633 43.5751 120.633 43.6091 120.637 43.6425H119.345V43.5738C119.33 43.2784 119.393 42.9841 119.529 42.7213C119.579 42.6313 119.651 42.5559 119.739 42.5028C119.827 42.4497 119.928 42.4207 120.03 42.4188C120.124 42.4152 120.216 42.4378 120.298 42.484C120.379 42.5301 120.446 42.598 120.49 42.68C120.605 42.9231 120.655 43.1912 120.637 43.4592V43.5417Z" fill="white"/>
<path d="M92.0328 16.0004C92.3972 16.571 92.7317 17.16 93.035 17.765L94.0418 16.7979C93.5332 16.239 92.9572 15.7448 92.3271 15.3267C92.5379 14.8411 92.7056 14.3381 92.8282 13.8233L91.3754 13.4842C91.0743 15.241 90.4708 16.9327 89.5917 18.4846L90.0928 18.8971C90.8732 18.0275 91.5264 17.0523 92.0328 16.0004V16.0004Z" fill="white"/>
<path d="M103.273 13.3558C102.818 12.2674 102.197 11.255 101.434 10.3538L100.864 10.6379C101.243 11.7087 101.551 12.8035 101.784 13.915L103.273 13.3558Z" fill="white"/>
<path d="M97.6048 12.5354H94.4281L95.1637 11.5363C94.2482 10.9414 93.2466 10.49 92.1938 10.1979L91.9456 10.7479C92.6387 11.2984 93.2945 11.894 93.9086 12.5309H89.9274V13.3284H97.6232L97.6048 12.5354Z" fill="white"/>
<path d="M93.1409 22.4217V27.0829H94.6764V22.0871C95.3143 22.8064 95.9114 23.5608 96.4648 24.3467L97.5222 23.1687C96.6523 22.4145 95.6973 21.7639 94.6764 21.23V20.57H97.6417V19.7633H94.6764V18.0904H94.3776C94.8204 17.486 95.2082 16.8433 95.5361 16.17C95.9207 16.7081 96.2576 17.2786 96.5429 17.875L97.3796 17.1096C97.2125 17.559 97.0222 17.9996 96.8096 18.4296L97.3107 18.8008C97.5819 18.4433 97.8118 18.0537 98.0784 17.6596V26.9821H99.6461V25.6071H105.664V24.805H102.933V21.725H105.002V20.9229H102.933V18.1454H104.988V17.3433H102.933V14.96H105.439V14.1533H99.5725C99.8991 13.0452 100.115 11.9076 100.216 10.7571L98.5887 10.4362C98.3221 13.035 98.0876 14.96 97.4808 16.775C97.0114 16.2576 96.4713 15.8086 95.8763 15.4412C96.0887 14.9405 96.2564 14.4221 96.3774 13.8921L94.9293 13.5346C94.7876 15.122 94.3446 16.668 93.6237 18.0904H93.1639V19.7633H89.7987V20.57H92.7456C91.9468 22.3626 90.8143 23.9878 89.408 25.3596L89.7803 25.8592C91.088 24.9116 92.2244 23.7492 93.1409 22.4217V22.4217ZM99.6093 14.96H101.333V17.3433H99.5955L99.6093 14.96ZM99.6093 18.1683H101.333V20.9458H99.5955L99.6093 18.1683ZM99.6093 21.7479H101.333V24.8279H99.5955L99.6093 21.7479Z" fill="white"/>
<path d="M122.398 20.1667C121.443 19.3563 120.37 18.6949 119.217 18.205L118.895 18.7046C119.766 19.5362 120.592 20.4145 121.368 21.3354L122.398 20.1667Z" fill="white"/>
<path d="M119.511 17.3433H116.21V18.1454H124.637V17.3433H121.115V14.2633H124.871V13.4612H121.115V10.4683H119.511V13.4612H115.833V14.2633H119.511V17.3433Z" fill="white"/>
<path d="M125.506 23.9159C124.903 22.6222 124.087 21.4386 123.092 20.4142L122.591 20.7488C123.201 21.9971 123.715 23.2904 124.126 24.6171L125.506 23.9159Z" fill="white"/>
<path d="M117.883 24.4979C117.883 26.4229 118.237 26.62 120.853 26.62C123.635 26.62 123.497 25.4787 122.692 22.5591H122.049C122.049 24.9287 122.049 25.1579 120.761 25.1579C119.635 25.1579 119.474 24.9287 119.474 24.2137V19.855H117.902L117.883 24.4979Z" fill="white"/>
<path d="M115.456 13.4613H112.868L113.787 12.7508C112.99 11.8092 112.061 10.9865 111.029 10.3079L110.569 10.7663C110.978 11.3483 111.64 12.4529 112.229 13.4704H109.47V14.2725H115.419L115.456 13.4613Z" fill="white"/>
<path d="M113.553 26.73H114.895V24.5758L116.095 25.465C116.918 24.3787 117.327 22.8112 117.433 20.9229L116.771 20.7992C116.528 22.1689 115.859 23.4278 114.858 24.3971V20.8954H110.068V27.0004H111.447V25.6987H113.507L113.553 26.73ZM113.553 24.8967H111.516V21.6562H113.553V24.8967Z" fill="white"/>
<path d="M115.042 18.3929H110.022V19.1446H115.042V18.3929Z" fill="white"/>
<path d="M115.042 15.9362H110.022V16.6879H115.042V15.9362Z" fill="white"/>
<path d="M83.2107 25.9462L83.0544 25.8637C82.8231 25.6988 82.5712 25.5647 82.305 25.465C81.8867 25.3596 81.4453 25.41 81.027 25.3183C80.4431 25.1946 79.8593 25.0479 79.2708 24.9608C78.5298 24.82 77.7667 24.8451 77.0366 25.0342C76.6819 25.1173 76.3544 25.2892 76.0849 25.5337C75.934 25.7521 75.845 26.007 75.8275 26.2717C75.7704 26.5228 75.7411 26.7795 75.7401 27.0371C75.7719 27.999 76.059 28.9353 76.5722 29.7504C76.8296 30.185 77.125 30.596 77.4549 30.9787C77.7559 31.3801 78.1066 31.742 78.4985 32.0558C78.8566 32.2555 79.161 32.5386 79.3858 32.8808C79.5559 33.1558 79.5697 33.2337 79.8869 33.3804C80.4302 33.5389 80.9942 33.6161 81.5603 33.6096C82.3083 33.6647 83.0602 33.6278 83.7992 33.4996C84.3462 33.4033 84.4428 33 84.8887 32.7617C85.3346 32.5233 85.5139 32.4821 85.7024 32.0237C86.5667 29.975 85.5047 28.2287 84.2451 26.7483C83.9482 26.4246 83.5985 26.1534 83.2107 25.9462Z" fill="white"/>
</svg>
