<svg width="150" height="55" viewBox="0 0 150 55" fill="none" xmlns="http://www.w3.org/2000/svg">
<path d="M16.2292 15.63C17.0491 16.1516 18.0419 16.3312 18.9934 16.13C19.9014 15.91 20.8044 15.66 21.7024 15.405C23.2777 14.955 24.8429 14.47 26.4282 14.045C27.2158 13.835 28.0085 13.635 28.8061 13.46C29.1674 13.4035 29.5232 13.3166 29.8697 13.2C30.2259 13.06 30.5419 12.835 30.873 12.675C31.3747 12.44 31.8764 12.225 32.4131 12.015C33.9182 11.405 37.1389 10.65 36.3412 8.34C36.0904 7.595 35.3379 7.265 34.6807 6.92C33.9865 6.61958 33.2209 6.52245 32.4733 6.64C31.7473 6.64828 31.0434 6.89032 30.4667 7.33C29.684 8.305 28.3847 8.6 27.4065 9.38C27.0603 9.64 26.5887 9.645 26.2426 9.91C26.072 10.04 26.0168 10.15 25.8111 10.21C25.6317 10.2359 25.4506 10.2493 25.2693 10.25C24.9282 10.295 24.5921 10.34 24.266 10.395C23.2939 10.5229 22.3437 10.782 21.4416 11.165C20.9908 11.386 20.5581 11.6418 20.1473 11.93C19.7509 12.195 19.3747 12.09 18.9232 12.12C18.4717 12.15 18.1055 12.195 17.6941 12.255L16.47 12.46L15.8529 12.55C15.7225 12.55 15.3262 12.55 15.2359 12.625C15.0813 12.756 14.978 12.937 14.9441 13.1363C14.9101 13.3357 14.9477 13.5406 15.0503 13.715C15.4065 14.455 15.4566 15.18 16.2292 15.63Z" fill="white"/>
<path d="M77.5736 14.56C78.3111 14.365 78.9482 14.2 79.3395 13.49C79.4599 13.27 79.5904 13.05 79.7007 12.825C79.9473 12.3862 80.0655 11.8874 80.0419 11.385C79.8511 10.9921 79.5472 10.6649 79.169 10.445C78.4548 10.0972 77.6892 9.86589 76.9014 9.76001C75.9884 9.56501 75.0352 9.34001 74.1121 9.22001C73.5656 9.15632 73.0119 9.19877 72.4817 9.34501C71.432 9.6241 70.4082 9.99211 69.4215 10.445C68.2877 10.945 66.9131 10.645 65.8546 11.335C65.3967 11.5491 64.9039 11.6795 64.3997 11.72C63.7726 11.865 63.1807 12.115 62.5686 12.315C61.5201 12.65 60.4716 12.975 59.4081 13.265C58.6506 13.47 57.8629 13.265 57.1104 13.625C56.8182 13.8359 56.5095 14.0231 56.1874 14.185C55.8512 14.3 55.5101 14.455 55.184 14.57C53.98 14.99 52.6757 15.28 51.4415 15.605C49.2542 16.355 46.8111 16.03 44.5636 16.45C43.9114 16.615 43.2292 16.71 42.7425 17.23C42.582 18 43.1439 18.295 43.6456 18.66C44.1472 19.025 44.5837 19.74 45.1857 20.12C45.7292 20.4197 46.2983 20.6706 46.8864 20.87C48.2007 21.4 49.4348 22.095 50.8496 22.37C51.6272 22.52 53.2225 22.705 53.9298 22.235C54.7626 21.68 55.7007 21.295 56.5084 20.695C56.8847 20.415 57.1857 20.05 57.572 19.785C58.0072 19.5462 58.4293 19.2841 58.8362 19C59.3351 18.4929 59.8925 18.0465 60.4967 17.67C61.2743 17.54 62.0017 16.67 62.7743 17.215C63.1456 17.385 62.97 17.715 62.99 18.05C63.0101 18.385 63.2559 18.79 63.2559 19.19C63.2444 19.5765 63.182 19.9597 63.0703 20.33V20.95C63.4566 28.385 62.8094 35.45 62.1573 42.95C61.8563 43.875 62.2225 44.72 62.4332 45.615C62.4611 45.9707 62.5388 46.3207 62.6639 46.655C63.0298 47.2983 63.5777 47.82 64.2392 48.155C65.5686 48.595 67.4298 48.815 68.4783 47.655C69.5469 47.155 69.878 46.13 70.0335 45.06C70.185 44.0894 70.2838 43.1113 70.3295 42.13C70.3285 41.3551 70.2101 40.5847 69.9783 39.845C69.888 39.46 69.8629 39.065 69.7726 38.68C69.6221 38.07 69.4265 37.46 69.3211 36.84C68.8658 33.8749 68.6377 30.8796 68.6389 27.88C68.7041 25.88 68.1823 23.38 67.9215 21.65C67.3345 20.35 68.1522 19.05 67.5302 17.75C67.2542 17.105 67.3746 16.315 67.3696 15.635C67.3696 15.055 67.771 14.84 68.2425 14.59C68.4198 14.496 68.5878 14.3855 68.7442 14.26C68.9166 14.1457 69.1089 14.0643 69.3111 14.02C69.5017 13.955 69.6924 13.9 69.888 13.85C71.2927 13.49 72.873 13.26 74.1673 14.085C74.501 14.3437 74.8856 14.5294 75.2961 14.63C76.0492 14.7961 76.8322 14.7721 77.5736 14.56V14.56Z" fill="white"/>
<path d="M52.174 42.65C51.8878 42.393 51.569 42.1744 51.2258 42C50.8345 41.85 50.4031 41.825 50.0067 41.685C49.0005 41.2926 48.0414 40.7895 47.1472 40.185C46.9582 40.0336 46.7568 39.8981 46.5452 39.78C46.3372 39.7249 46.1233 39.6947 45.9081 39.69C45.5017 39.605 45.2609 39.23 44.9047 39.045C44.7392 38.955 44.5235 38.925 44.4031 38.775C44.0332 38.4638 43.6211 38.2063 43.179 38.01C42.7776 37.74 42.3362 37.655 41.9248 37.42C41.5724 37.2003 41.237 36.9546 40.9214 36.685C40.352 36.1089 39.7134 35.6051 39.0201 35.185C36.582 34.06 34.9214 31.24 33.1104 29.385C31.9365 28.315 30.4415 26.825 30.4716 24.97C30.9733 23.805 32.393 23.415 33.4365 22.86C34.7408 21.89 36.597 21.36 37.3445 19.81C37.4747 19.527 37.534 19.2167 37.5174 18.9058C37.5008 18.5949 37.4087 18.2927 37.2492 18.025C36.8228 17.145 35.7442 17.18 34.9014 16.855C34.3778 16.8094 33.8503 16.8707 33.3512 17.035C32.5239 17.3475 31.7705 17.8276 31.1388 18.445C30.8378 18.715 30.572 19.055 30.2559 19.31C29.9152 19.5204 29.5424 19.674 29.1522 19.765C28.9611 19.8671 28.742 19.9047 28.5277 19.8722C28.3133 19.8398 28.1153 19.739 27.9633 19.585C27.6487 18.7181 27.1983 17.9064 26.6288 17.18C26.4416 17.0778 26.2346 17.0164 26.0218 17C25.8211 16.95 25.6957 16.79 25.5201 16.74C25.2241 16.655 24.8378 16.865 24.5168 16.865C24.1231 16.8162 23.7238 16.8382 23.3378 16.93C22.8884 17.1091 22.5037 17.4193 22.2342 17.82C21.9332 18.265 22.0636 18.6 22.0034 19.095C21.9683 19.43 21.888 19.755 21.8228 20.095C21.7419 20.4226 21.6965 20.7578 21.6873 21.095C21.7347 21.4011 21.8034 21.7035 21.893 22C21.9184 22.4409 21.8309 22.8811 21.6387 23.279C21.4465 23.677 21.156 24.0197 20.7944 24.275C20.469 24.552 20.116 24.7949 19.7408 25C19.3044 25.24 18.8077 25.3 18.3562 25.5C17.9407 25.6985 17.5415 25.9292 17.1623 26.19C16.776 26.445 16.3947 26.69 15.9883 26.925C15.582 27.16 15.0954 27.215 14.694 27.425C13.9766 27.78 13.1288 27.845 12.4114 28.14C11.6288 28.3 10.2643 28.01 9.90306 28.98C10.0375 29.8448 10.4493 30.643 11.077 31.255C11.4984 32.195 12.7375 32.52 13.5853 33.14C14.8546 33.56 16.1288 32.945 17.3328 33.04C17.7893 34.73 17.6589 36.48 16.485 37.715C16.2679 38.3796 15.9407 39.0032 15.5168 39.56C15.3067 39.8283 15.0787 40.0822 14.8345 40.32C14.6138 40.53 14.5285 40.82 14.3077 41.04C14.087 41.26 13.8061 41.65 13.48 41.845C13.0285 42.105 12.8679 41.775 12.5118 41.555C12.2899 41.4225 12.0475 41.3279 11.7944 41.275C11.2964 41.169 10.7801 41.1844 10.2893 41.32C9.94223 41.4856 9.6587 41.7594 9.48165 42.1C9.27597 42.375 8.97998 42.665 8.97998 43.04C9.02205 43.2635 9.07903 43.484 9.15055 43.7C9.24587 44.165 9.07028 44.45 9.39135 44.88C9.64219 45.21 9.57195 45.345 9.62714 45.74C9.66668 45.9223 9.7473 46.0933 9.86292 46.24C10.079 46.5096 10.3344 46.7456 10.6204 46.94C10.8645 47.1216 11.1331 47.268 11.4181 47.375C11.6955 47.4221 11.9701 47.4838 12.2408 47.56C12.731 47.8423 13.2904 47.9825 13.8562 47.965C14.8094 47.92 15.6221 47.52 16.5151 47.235C16.944 47.1348 17.3598 46.9855 17.7542 46.79C18.1148 46.5482 18.4509 46.2719 18.7576 45.965C19.174 45.6 19.5753 45.22 19.9566 44.82C20.6462 44.1171 21.2693 43.3522 21.8178 42.535C22.0951 42.132 22.348 41.713 22.5753 41.28C22.781 40.895 22.8763 40.48 23.0519 40.09C23.1472 39.875 23.2927 39.685 23.383 39.47C23.5669 39.0758 23.7195 38.6679 23.8395 38.25C23.9255 37.8751 24.0658 37.5147 24.2559 37.18C24.5249 36.5445 24.6843 35.8684 24.7275 35.18C24.7827 34.875 24.898 34.58 24.9532 34.275C25.0084 33.97 24.9984 33.53 25.0786 33.165C25.2017 32.6302 25.421 32.122 25.7258 31.665C26.4792 31.8022 27.1489 32.2275 27.592 32.85C27.848 33.1377 28.1211 33.4098 28.4097 33.665C28.7509 33.955 28.9766 34.35 29.3178 34.63C30.3211 35.42 31.0084 36.595 31.7258 37.63C32.6138 38.89 33.4566 40.18 34.3395 41.445C35.2225 42.71 35.985 43.895 37.1639 44.79C38.0382 45.5429 38.9598 46.2393 39.9231 46.875C40.6405 47.285 41.5686 47.165 42.3612 47.18C43.8101 47.1751 45.2575 47.0849 46.6957 46.91C47.4081 46.835 48.1255 46.76 48.8378 46.71C49.1689 46.71 49.5101 46.71 49.8412 46.65C50.4432 46.585 51.0602 46.31 51.6572 46.215C52.2542 46.12 52.9817 46 53.383 45.51C53.5471 45.3133 53.6629 45.0812 53.7213 44.8321C53.7796 44.583 53.7789 44.3238 53.7191 44.075C53.4733 43.385 52.7258 43.04 52.174 42.65Z" fill="white"/>
<path d="M92.5435 37.46C92.8234 37.4627 93.1027 37.4342 93.3763 37.375C93.6384 37.3168 93.8927 37.2279 94.1338 37.11L94.3144 36.5H94.2241C94.014 36.6779 93.7747 36.8183 93.5167 36.915C93.2709 37.0127 93.0088 37.0636 92.7441 37.065C92.4876 37.0812 92.2308 37.0361 91.9952 36.9335C91.7596 36.8309 91.552 36.6737 91.3896 36.475C91.0462 35.9751 90.8819 35.3744 90.9231 34.77C90.8867 34.1964 91.0497 33.6278 91.3846 33.16C91.5344 32.9685 91.7287 32.8162 91.9506 32.716C92.1726 32.6158 92.4156 32.5709 92.6589 32.585C92.9768 32.5728 93.2917 32.6508 93.5669 32.81C93.8096 32.945 93.9897 33.1693 94.0686 33.435H94.1789C94.196 33.2669 94.2228 33.1 94.2592 32.935C94.2887 32.7862 94.3273 32.6392 94.3746 32.495C94.1012 32.3747 93.8174 32.2794 93.5268 32.21C93.2498 32.1504 92.9673 32.1203 92.6839 32.12C91.9024 32.081 91.1357 32.3422 90.5418 32.85C90.2743 33.0966 90.0639 33.3984 89.9253 33.7343C89.7866 34.0702 89.7231 34.4322 89.7391 34.795C89.7162 35.1615 89.7704 35.5288 89.8983 35.8732C90.0261 36.2176 90.2248 36.5316 90.4816 36.795C91.0547 37.2777 91.7953 37.5165 92.5435 37.46V37.46Z" fill="white"/>
<path d="M98.5033 35.55C98.5188 35.2927 98.4823 35.0349 98.3962 34.7919C98.31 34.5489 98.1759 34.3255 98.0017 34.135C97.7321 33.848 97.3803 33.6506 96.9943 33.5698C96.6082 33.4889 96.2065 33.5284 95.8438 33.683C95.481 33.8375 95.1748 34.0996 94.9667 34.4336C94.7586 34.7677 94.6587 35.1574 94.6806 35.55C94.6654 35.8058 94.702 36.0619 94.7882 36.3033C94.8744 36.5447 95.0084 36.7663 95.1823 36.955C95.37 37.1291 95.5914 37.2633 95.8329 37.3493C96.0744 37.4352 96.331 37.4712 96.587 37.455C96.8443 37.4807 97.1042 37.4491 97.3479 37.3625C97.5915 37.2759 97.8128 37.1364 97.9957 36.9541C98.1786 36.7718 98.3186 36.5512 98.4055 36.3084C98.4924 36.0656 98.5241 35.8065 98.4983 35.55H98.5033ZM97.204 36.765C97.1487 36.8779 97.061 36.9719 96.952 37.0351C96.8431 37.0983 96.7178 37.1278 96.592 37.12C96.4676 37.1271 96.3439 37.0972 96.2367 37.0339C96.1295 36.9707 96.0436 36.8771 95.99 36.765C95.847 36.3767 95.7888 35.9625 95.8194 35.55C95.7918 35.1335 95.8534 34.716 96 34.325C96.0597 34.2165 96.1475 34.1261 96.2543 34.0631C96.3611 34 96.4829 33.9668 96.607 33.9668C96.7311 33.9668 96.853 34 96.9597 34.0631C97.0665 34.1261 97.1544 34.2165 97.214 34.325C97.3598 34.7145 97.4214 35.1302 97.3946 35.545C97.4195 35.9606 97.3545 36.3767 97.204 36.765V36.765Z" fill="white"/>
<path d="M104.819 37.36C104.819 37.11 104.809 36.87 104.789 36.64C104.789 36.415 104.789 36.19 104.789 35.98V35.5C104.8 35.1556 104.779 34.8109 104.729 34.47C104.695 34.2993 104.619 34.1396 104.508 34.005C104.406 33.887 104.277 33.7945 104.132 33.735C103.939 33.6639 103.734 33.6343 103.529 33.6481C103.324 33.6619 103.124 33.7188 102.943 33.815C102.735 33.9479 102.562 34.1299 102.441 34.345C102.364 34.1402 102.224 33.9652 102.04 33.845C101.846 33.7214 101.619 33.6587 101.388 33.665C101.174 33.6611 100.963 33.7073 100.771 33.8C100.575 33.9127 100.404 34.0642 100.269 34.245V33.745H100.028H99.7425H99.4666H99.2107C99.2107 34.155 99.2358 34.51 99.2458 34.81C99.2558 35.11 99.2458 35.355 99.2458 35.555C99.2458 35.755 99.2458 36 99.2458 36.305C99.2458 36.61 99.2458 36.97 99.2107 37.37H99.5067H99.7675H100.033H100.314V37.3C100.314 37.01 100.284 36.8 100.284 36.685V35.47C100.262 35.153 100.312 34.8352 100.43 34.54C100.482 34.4627 100.553 34.3993 100.635 34.3555C100.718 34.3117 100.81 34.2888 100.904 34.2888C100.997 34.2888 101.09 34.3117 101.172 34.3555C101.255 34.3993 101.326 34.4627 101.378 34.54C101.498 34.9452 101.542 35.3689 101.508 35.79C101.508 36.03 101.508 36.29 101.508 36.545C101.508 36.8 101.483 37.085 101.463 37.365H101.764H102.03H102.301H102.597V37.295C102.597 37 102.597 36.795 102.597 36.68V35.47C102.574 35.1551 102.622 34.8391 102.737 34.545C102.785 34.4564 102.859 34.3842 102.948 34.3378C103.038 34.2915 103.139 34.273 103.239 34.285C103.339 34.273 103.441 34.2915 103.53 34.3378C103.62 34.3842 103.693 34.4564 103.741 34.545C103.858 34.9027 103.904 35.2797 103.876 35.655C103.876 35.9 103.876 36.155 103.876 36.445C103.876 36.735 103.851 37.03 103.826 37.36H104.117H104.383H104.649H104.819Z" fill="white"/>
<path d="M108.02 37.36H108.316H108.582H108.853H109.154C109.154 37.36 109.154 37.325 109.154 37.29C109.154 36.995 109.154 36.79 109.154 36.675V35.47C109.131 35.1551 109.179 34.8391 109.294 34.545C109.342 34.4564 109.415 34.3842 109.505 34.3378C109.594 34.2915 109.696 34.273 109.796 34.285C109.896 34.273 109.998 34.2915 110.087 34.3378C110.177 34.3842 110.25 34.4564 110.298 34.545C110.415 34.9027 110.461 35.2797 110.433 35.655C110.433 35.9 110.433 36.155 110.433 36.445C110.433 36.735 110.408 37.03 110.383 37.36H110.674H110.94H111.211H111.517C111.517 37.11 111.507 36.87 111.487 36.64C111.487 36.415 111.487 36.19 111.487 35.98V35.5C111.461 35.1625 111.405 34.8279 111.321 34.5C111.287 34.3293 111.211 34.1696 111.1 34.035C110.998 33.917 110.869 33.8245 110.724 33.765C110.532 33.6939 110.326 33.6643 110.121 33.6781C109.916 33.6919 109.716 33.7488 109.535 33.845C109.327 33.9779 109.154 34.1599 109.034 34.375C108.956 34.1702 108.816 33.9952 108.632 33.875C108.438 33.7508 108.211 33.6881 107.98 33.695C107.767 33.6911 107.555 33.7373 107.363 33.83C107.166 33.941 106.995 34.0928 106.861 34.275V33.775H106.615H106.33H106.054H105.798C105.798 34.185 105.828 34.54 105.833 34.84C105.838 35.14 105.833 35.385 105.833 35.585C105.833 35.785 105.833 36.03 105.833 36.335C105.833 36.64 105.833 37 105.798 37.4H106.099H106.355H106.625H106.901V37.33C106.901 37.04 106.876 36.83 106.876 36.715V35.47C106.853 35.1534 106.901 34.8357 107.017 34.54C107.07 34.4627 107.141 34.3994 107.224 34.3556C107.307 34.3119 107.399 34.289 107.493 34.289C107.587 34.289 107.68 34.3119 107.763 34.3556C107.846 34.3994 107.917 34.4627 107.97 34.54C108.087 34.9458 108.131 35.3689 108.1 35.79C108.1 36.03 108.1 36.29 108.1 36.545C108.1 36.8 108.035 37.08 108.02 37.36Z" fill="white"/>
<path d="M115.947 35.55C115.963 35.2926 115.927 35.0345 115.841 34.7914C115.755 34.5482 115.62 34.3249 115.445 34.135C115.048 33.8104 114.551 33.633 114.038 33.633C113.524 33.633 113.027 33.8104 112.631 34.135C112.304 34.5319 112.126 35.0293 112.126 35.5425C112.126 36.0557 112.304 36.5531 112.631 36.95C113.027 37.2733 113.523 37.45 114.035 37.45C114.547 37.45 115.044 37.2733 115.44 36.95C115.614 36.7625 115.749 36.5419 115.836 36.3014C115.923 36.0608 115.961 35.8053 115.947 35.55V35.55ZM114.642 36.765C114.581 36.8721 114.493 36.9613 114.387 37.0233C114.28 37.0853 114.159 37.118 114.035 37.118C113.912 37.118 113.79 37.0853 113.684 37.0233C113.577 36.9613 113.489 36.8721 113.428 36.765C113.282 36.3775 113.22 35.9632 113.248 35.55C113.22 35.1335 113.282 34.716 113.428 34.325C113.488 34.2166 113.576 34.1261 113.682 34.0631C113.789 34 113.911 33.9668 114.035 33.9668C114.159 33.9668 114.281 34 114.388 34.0631C114.495 34.1261 114.583 34.2166 114.642 34.325C114.79 34.7139 114.854 35.1298 114.828 35.545C114.855 35.9603 114.791 36.3764 114.642 36.765V36.765Z" fill="white"/>
<path d="M118.801 34.53C118.92 34.8718 118.966 35.2345 118.937 35.595C118.937 35.96 118.937 36.29 118.937 36.595C118.937 36.9 118.937 37.15 118.896 37.365H119.192H119.458H119.724H120.025C120.025 37.17 119.995 36.965 119.985 36.755C119.975 36.545 119.985 36.32 119.985 36.085V35.525C119.985 35.31 119.985 35.18 119.985 35.13C119.993 34.8821 119.974 34.634 119.93 34.39C119.901 34.2553 119.839 34.1299 119.749 34.025C119.645 33.902 119.512 33.806 119.363 33.745C119.175 33.6766 118.975 33.6462 118.775 33.6557C118.576 33.6651 118.38 33.7142 118.199 33.8C118.001 33.9137 117.83 34.0689 117.697 34.255V33.755H117.462H117.186H116.91H116.664C116.684 34.055 116.699 34.355 116.709 34.655C116.709 34.96 116.709 35.265 116.709 35.575C116.709 35.885 116.709 36.135 116.709 36.43C116.709 36.725 116.684 37.045 116.664 37.38H116.955H117.216H117.487H117.763C117.763 36.985 117.763 36.635 117.732 36.335C117.702 36.035 117.732 35.77 117.732 35.56C117.71 35.2312 117.762 34.9016 117.883 34.595C117.927 34.5018 117.999 34.4244 118.089 34.3733C118.178 34.3223 118.282 34.3002 118.385 34.31C118.467 34.3099 118.548 34.3299 118.62 34.3682C118.693 34.4066 118.755 34.4621 118.801 34.53V34.53Z" fill="white"/>
<path d="M127.54 32.21H127.355H127.189C127.032 32.85 126.865 33.48 126.687 34.1C126.502 34.72 126.301 35.335 126.09 35.945C125.86 35.295 125.644 34.66 125.438 34.04C125.232 33.42 125.047 32.81 124.866 32.21H124.681H124.475H124.279H124.099C123.898 32.8 123.697 33.41 123.482 34.03C123.266 34.65 123.045 35.305 122.804 35.995C122.609 35.37 122.428 34.74 122.258 34.11C122.087 33.48 121.926 32.845 121.756 32.21H121.455H121.114H120.773H120.467C120.778 33.1067 121.065 33.9867 121.329 34.85C121.595 35.71 121.831 36.56 122.052 37.39H122.258H122.438H122.624H122.824C123.035 36.745 123.246 36.12 123.462 35.505C123.677 34.89 123.903 34.3 124.129 33.72C124.365 34.36 124.585 34.99 124.791 35.6C124.997 36.21 125.182 36.805 125.358 37.39H125.569H125.749H125.945H126.145C126.452 36.425 126.753 35.515 127.038 34.65C127.324 33.785 127.6 32.975 127.871 32.21H127.711H127.54Z" fill="white"/>
<path d="M129.878 33.635C129.635 33.6231 129.391 33.6613 129.163 33.7473C128.935 33.8334 128.728 33.9653 128.554 34.135C128.384 34.3134 128.252 34.5239 128.166 34.7542C128.08 34.9844 128.041 35.2295 128.052 35.475C128.02 36.0039 128.201 36.5236 128.554 36.92C128.738 37.095 128.956 37.2298 129.195 37.3159C129.435 37.402 129.689 37.4374 129.943 37.42C130.179 37.4223 130.413 37.392 130.64 37.33C130.841 37.2767 131.031 37.1905 131.202 37.075L131.368 36.645L131.298 36.59C131.155 36.7032 130.996 36.7942 130.826 36.86C130.666 36.9195 130.496 36.95 130.324 36.95C130.164 36.9553 130.004 36.9233 129.858 36.8565C129.711 36.7897 129.583 36.6899 129.482 36.565C129.258 36.2655 129.146 35.8978 129.166 35.525H131.498C131.498 35.495 131.498 35.465 131.498 35.43V35.285C131.515 35.0604 131.487 34.8347 131.415 34.621C131.344 34.4073 131.23 34.2098 131.082 34.04C130.92 33.8939 130.729 33.7826 130.522 33.7129C130.315 33.6432 130.096 33.6167 129.878 33.635V33.635ZM130.435 35.08C130.435 35.12 130.435 35.155 130.435 35.185H129.145V35.115C129.128 34.8184 129.192 34.5227 129.331 34.26C129.38 34.1696 129.452 34.094 129.541 34.0412C129.629 33.9884 129.73 33.9604 129.833 33.96C129.924 33.9594 130.014 33.9837 130.093 34.0304C130.172 34.0771 130.236 34.1444 130.279 34.225C130.394 34.4668 130.445 34.7332 130.43 35C130.433 35.0265 130.435 35.0533 130.435 35.08V35.08Z" fill="white"/>
<path d="M135.085 36.94C134.994 36.7558 134.957 36.5493 134.98 36.345V36.2L135.005 34.88V34.84C135.015 34.6723 134.987 34.5046 134.923 34.349C134.86 34.1934 134.763 34.0537 134.639 33.94C134.337 33.7123 133.963 33.6004 133.585 33.625C133.349 33.6259 133.115 33.6752 132.898 33.77C132.655 33.8801 132.43 34.0269 132.231 34.205C132.258 34.2703 132.281 34.3371 132.301 34.405C132.301 34.475 132.361 34.57 132.396 34.69C132.495 34.5195 132.626 34.37 132.783 34.25C132.921 34.1544 133.086 34.1038 133.254 34.105C133.347 34.1041 133.44 34.1217 133.526 34.1569C133.612 34.1921 133.69 34.2442 133.756 34.31C133.823 34.3834 133.875 34.4694 133.909 34.5629C133.942 34.6565 133.957 34.7558 133.951 34.855V34.935C133.951 34.935 133.951 34.97 133.951 34.985C133.695 35.1319 133.42 35.2429 133.134 35.315L132.747 35.435C132.516 35.4995 132.307 35.6277 132.145 35.805C132.011 35.9734 131.941 36.1847 131.95 36.4C131.942 36.5403 131.962 36.6807 132.009 36.813C132.056 36.9453 132.13 37.0667 132.226 37.17C132.325 37.2667 132.443 37.342 132.572 37.391C132.702 37.4401 132.84 37.4619 132.978 37.455C133.187 37.4584 133.393 37.4066 133.575 37.305C133.755 37.2068 133.904 37.0616 134.007 36.885C134.035 37.0433 134.119 37.1865 134.242 37.29C134.37 37.3877 134.528 37.4373 134.689 37.43C134.824 37.429 134.958 37.4139 135.09 37.385C135.228 37.3578 135.363 37.3159 135.492 37.26V37.075H135.467C135.397 37.0821 135.327 37.0737 135.261 37.0503C135.195 37.027 135.135 36.9893 135.085 36.94V36.94ZM133.987 36.245C133.999 36.43 133.952 36.614 133.851 36.77C133.806 36.8291 133.748 36.8764 133.68 36.9077C133.613 36.9391 133.539 36.9536 133.465 36.95C133.397 36.954 133.329 36.9415 133.267 36.9136C133.205 36.8858 133.151 36.8434 133.109 36.79C133.021 36.6386 132.981 36.4644 132.993 36.29C132.986 36.1779 133.003 36.0655 133.043 35.9603C133.083 35.8552 133.145 35.7597 133.224 35.68C133.445 35.5064 133.708 35.3942 133.987 35.355V36.245Z" fill="white"/>
<path d="M137.157 31.67C137.042 31.67 136.936 31.7 136.846 31.71C136.759 31.7148 136.672 31.7148 136.585 31.71C136.502 31.7149 136.418 31.7149 136.334 31.71C136.23 31.7022 136.126 31.6888 136.023 31.67C136.023 32.085 136.054 32.52 136.064 32.99C136.074 33.46 136.064 33.99 136.064 34.53C136.064 35.07 136.064 35.56 136.064 36.03C136.064 36.5 136.038 36.94 136.023 37.365C136.115 37.3481 136.207 37.3364 136.299 37.33C136.494 37.31 136.691 37.31 136.886 37.33C136.977 37.3361 137.068 37.3478 137.157 37.365C137.157 36.955 137.122 36.515 137.112 36.05C137.102 35.585 137.112 35.05 137.112 34.505C137.112 33.96 137.112 33.505 137.112 33.005C137.112 32.505 137.137 32.1 137.157 31.67Z" fill="white"/>
<path d="M143.88 36.8C143.88 36.6 143.88 36.36 143.88 36.08C143.88 35.92 143.88 35.735 143.88 35.525C143.88 35.315 143.88 35.18 143.88 35.13C143.887 34.8854 143.868 34.6408 143.824 34.4C143.79 34.2624 143.725 34.1343 143.634 34.025C143.53 33.9021 143.397 33.806 143.248 33.745C143.087 33.6838 142.917 33.6532 142.746 33.655C142.512 33.65 142.281 33.7032 142.074 33.81C141.87 33.9245 141.697 34.0877 141.572 34.285V33.105C141.572 32.83 141.572 32.575 141.572 32.34C141.572 32.105 141.607 31.88 141.632 31.67L141.346 31.715C141.256 31.72 141.166 31.72 141.075 31.715H140.814L140.518 31.67C140.544 31.99 140.559 32.37 140.569 32.81C140.579 33.25 140.569 33.87 140.569 34.66C140.569 35.45 140.569 35.975 140.569 36.37C140.569 36.765 140.544 37.095 140.518 37.37H140.809H141.075H141.341H141.627C141.627 37.01 141.627 36.675 141.592 36.37C141.557 36.065 141.592 35.785 141.592 35.55C141.57 35.2212 141.621 34.8916 141.743 34.585C141.786 34.4918 141.858 34.4144 141.948 34.3634C142.038 34.3123 142.141 34.2902 142.244 34.3C142.337 34.2922 142.431 34.3105 142.514 34.353C142.598 34.3954 142.667 34.4602 142.716 34.54C142.832 34.8824 142.876 35.2449 142.846 35.605C142.846 35.97 142.846 36.3 142.846 36.605C142.846 36.91 142.846 37.16 142.806 37.375H143.102H143.368H143.634H143.93C143.9 37.19 143.89 37 143.88 36.8Z" fill="white"/>
<path d="M95.8997 44.27L95.4632 40.64H95.2977H94.9314H94.7659C94.4849 41.265 94.204 41.87 93.913 42.46C93.6221 43.05 93.3311 43.625 93.0301 44.19C92.719 43.605 92.413 43.02 92.1221 42.435C91.8311 41.85 91.5401 41.245 91.2692 40.64H91.1087H90.7575H90.607L90.1053 44.225C90.1053 44.345 90.0602 44.54 90.015 44.82C89.9699 45.1 89.9147 45.435 89.8545 45.82L90.015 45.79H90.311L90.4766 45.82C90.4941 45.243 90.541 44.6673 90.617 44.095V44.035L90.8027 42.46C91.0736 42.96 91.3495 43.495 91.6354 44.055C91.9214 44.615 92.2023 45.205 92.4983 45.82H92.5535H92.7491H92.8093C93.1053 45.195 93.3963 44.59 93.6823 44.015C93.9682 43.44 94.2492 42.88 94.5351 42.335L94.7809 44.755C94.7809 44.885 94.816 45.21 94.8361 45.755C94.8361 45.785 94.8361 45.815 94.8361 45.83L95.1622 45.8H95.4632C95.5585 45.8 95.6639 45.8 95.7642 45.8L96.1104 45.825C96.0702 45.645 96.0301 45.445 95.995 45.215C95.9599 44.985 95.9448 44.67 95.8997 44.27Z" fill="white"/>
<path d="M99.8329 45.405C99.7419 45.2206 99.7054 45.0143 99.7275 44.81V44.665L99.7526 43.345V43.305C99.7622 43.1373 99.7343 42.9696 99.671 42.814C99.6076 42.6584 99.5104 42.5187 99.3864 42.405C99.0846 42.1773 98.7106 42.0654 98.3329 42.09C98.0962 42.0909 97.8623 42.1402 97.6456 42.235C97.4022 42.3451 97.1771 42.4918 96.9784 42.67C97.0034 42.73 97.0285 42.795 97.0536 42.87C97.0787 42.945 97.1088 43.035 97.1439 43.155C97.2409 42.9818 97.3744 42.8317 97.5352 42.715C97.6711 42.618 97.8347 42.5671 98.0018 42.57C98.0946 42.5681 98.1868 42.5849 98.273 42.6192C98.3592 42.6536 98.4375 42.7049 98.5034 42.77C98.6385 42.9207 98.7088 43.1182 98.6991 43.32V43.4C98.6991 43.4 98.6991 43.435 98.6991 43.45C98.445 43.5961 98.1713 43.7055 97.8864 43.775L97.5001 43.9C97.2671 43.9644 97.0568 44.0926 96.8931 44.27C96.7584 44.4366 96.6889 44.6462 96.6974 44.86C96.689 45.001 96.7091 45.1423 96.7565 45.2754C96.8039 45.4085 96.8776 45.5308 96.9733 45.635C97.0722 45.7317 97.1901 45.807 97.3197 45.856C97.4492 45.9051 97.5875 45.9269 97.7259 45.92C97.9361 45.9226 98.1435 45.8709 98.3279 45.77C98.5051 45.6683 98.6523 45.5217 98.7543 45.345C98.7768 45.5064 98.8607 45.653 98.9886 45.7544C99.1166 45.8558 99.2787 45.9044 99.4416 45.89C99.5747 45.8908 99.7076 45.8774 99.8379 45.85C99.9752 45.8205 100.11 45.7787 100.239 45.725V45.535H100.214C100.145 45.5428 100.075 45.5351 100.009 45.5126C99.943 45.4902 99.8828 45.4534 99.8329 45.405V45.405ZM98.7342 44.71C98.7401 44.8864 98.6929 45.0605 98.5988 45.21C98.5539 45.2691 98.4953 45.3163 98.428 45.3477C98.3607 45.3791 98.2867 45.3936 98.2125 45.39C98.1447 45.3944 98.077 45.3815 98.0155 45.3526C97.9541 45.3238 97.9011 45.2799 97.8613 45.225C97.7688 45.0754 97.7266 44.9002 97.7409 44.725C97.7343 44.6136 97.7515 44.5021 97.7913 44.3979C97.831 44.2936 97.8925 44.1989 97.9717 44.12C98.1925 43.9464 98.4557 43.8342 98.7342 43.795V44.71Z" fill="white"/>
<path d="M103.731 45.405C103.444 45.3053 103.142 45.2562 102.838 45.26H102.702C101.98 45.235 101.624 45.105 101.624 44.875C101.62 44.783 101.652 44.6931 101.714 44.6247C101.776 44.5564 101.863 44.5152 101.955 44.51H102.085C102.531 44.5363 102.974 44.4208 103.35 44.18C103.495 44.0759 103.613 43.9373 103.692 43.7767C103.771 43.6162 103.808 43.4386 103.801 43.26C103.804 43.1026 103.77 42.9467 103.701 42.805C103.633 42.6737 103.531 42.5632 103.405 42.485H103.52H104.157V42.115H103.796H103.475C103.224 42.115 102.973 42.115 102.657 42.085L102.156 42.055C101.747 42.032 101.343 42.1503 101.012 42.39C100.875 42.4926 100.764 42.6266 100.69 42.7806C100.616 42.9346 100.58 43.1042 100.585 43.275C100.572 43.5345 100.66 43.7892 100.831 43.985C101.031 44.1838 101.289 44.3135 101.569 44.355V44.5C101.355 44.5829 101.161 44.7108 101.002 44.875C100.938 44.9414 100.887 45.0198 100.854 45.1056C100.82 45.1914 100.804 45.2829 100.806 45.375C100.802 45.5109 100.847 45.6437 100.932 45.75C101.026 45.8605 101.152 45.9391 101.293 45.975V46.035C101.07 46.1016 100.869 46.2259 100.711 46.395C100.58 46.5515 100.512 46.7512 100.52 46.955C100.519 47.1016 100.558 47.2456 100.634 47.3717C100.709 47.4977 100.817 47.6008 100.947 47.67C101.312 47.8635 101.723 47.9535 102.136 47.93C102.673 47.9558 103.204 47.7989 103.641 47.485C103.823 47.3548 103.971 47.1828 104.072 46.9835C104.173 46.7841 104.225 46.5634 104.222 46.34C104.227 46.1539 104.184 45.9697 104.097 45.805C104.02 45.6366 103.892 45.4967 103.731 45.405V45.405ZM101.769 42.635C101.815 42.5622 101.879 42.5024 101.954 42.4612C102.03 42.4201 102.115 42.399 102.201 42.4C102.281 42.3976 102.361 42.4146 102.433 42.4494C102.506 42.4842 102.569 42.5358 102.617 42.6C102.72 42.7879 102.767 43.0013 102.753 43.215C102.771 43.4756 102.724 43.7365 102.617 43.975C102.567 44.0432 102.502 44.0987 102.427 44.1369C102.351 44.1752 102.268 44.1951 102.183 44.1951C102.099 44.1951 102.015 44.1752 101.94 44.1369C101.864 44.0987 101.799 44.0432 101.749 43.975C101.644 43.7625 101.598 43.5262 101.614 43.29C101.601 43.0613 101.655 42.8337 101.769 42.635V42.635ZM102.998 47.365C102.758 47.5221 102.473 47.5975 102.186 47.58C101.93 47.5938 101.679 47.5098 101.483 47.345C101.395 47.2669 101.326 47.1703 101.28 47.0622C101.234 46.9542 101.213 46.8373 101.217 46.72C101.215 46.5795 101.251 46.4411 101.323 46.32C101.391 46.2021 101.492 46.1065 101.614 46.045L102.492 46.09C102.709 46.086 102.922 46.1527 103.099 46.28C103.165 46.3443 103.217 46.4224 103.25 46.5088C103.283 46.5953 103.296 46.6878 103.289 46.78C103.294 46.8941 103.27 47.0076 103.22 47.1099C103.169 47.2122 103.093 47.3 102.998 47.365V47.365Z" fill="white"/>
<path d="M107.569 45.405C107.478 45.2206 107.441 45.0143 107.463 44.81V44.665V43.345V43.305C107.474 43.1372 107.447 42.9692 107.383 42.8134C107.32 42.6576 107.222 42.518 107.097 42.405C106.795 42.1773 106.421 42.0654 106.044 42.09C105.807 42.0909 105.573 42.1402 105.356 42.235C105.113 42.3451 104.888 42.4918 104.689 42.67C104.714 42.73 104.739 42.795 104.764 42.87C104.789 42.945 104.819 43.035 104.855 43.155C104.952 42.9818 105.085 42.8317 105.246 42.715C105.382 42.618 105.545 42.5671 105.712 42.57C105.805 42.5681 105.897 42.5849 105.984 42.6192C106.07 42.6536 106.148 42.7049 106.214 42.77C106.351 42.9202 106.423 43.1176 106.415 43.32C106.415 43.355 106.415 43.38 106.415 43.4C106.418 43.4166 106.418 43.4334 106.415 43.45C106.161 43.5961 105.887 43.7055 105.602 43.775L105.216 43.9C104.983 43.9644 104.772 44.0926 104.609 44.27C104.474 44.4366 104.405 44.6462 104.413 44.86C104.405 45.001 104.425 45.1423 104.472 45.2754C104.52 45.4085 104.593 45.5308 104.689 45.635C104.788 45.7317 104.906 45.807 105.035 45.856C105.165 45.9051 105.303 45.9269 105.442 45.92C105.652 45.9226 105.859 45.8709 106.044 45.77C106.221 45.6683 106.368 45.5217 106.47 45.345C106.493 45.5064 106.576 45.653 106.704 45.7544C106.832 45.8558 106.994 45.9044 107.157 45.89C107.29 45.8908 107.423 45.8774 107.554 45.85C107.691 45.8212 107.825 45.7794 107.955 45.725V45.535C107.885 45.5435 107.814 45.5363 107.747 45.5138C107.68 45.4913 107.619 45.4541 107.569 45.405V45.405ZM106.475 44.71C106.479 44.8861 106.432 45.0596 106.34 45.21C106.294 45.2692 106.234 45.3164 106.166 45.3477C106.098 45.3791 106.023 45.3936 105.948 45.39C105.88 45.3944 105.813 45.3815 105.751 45.3526C105.69 45.3238 105.637 45.2799 105.597 45.225C105.505 45.0754 105.462 44.9002 105.477 44.725C105.471 44.6133 105.489 44.5017 105.53 44.3974C105.57 44.2932 105.633 44.1986 105.712 44.12C105.932 43.9444 106.196 43.8321 106.475 43.795V44.71Z" fill="white"/>
<path d="M109.947 42.225H109.149H108.431C108.435 42.2516 108.435 42.2784 108.431 42.305C108.435 42.3483 108.435 42.3917 108.431 42.435C108.435 42.4766 108.435 42.5184 108.431 42.56C108.434 42.5866 108.434 42.6134 108.431 42.64H108.517C108.962 42.62 109.288 42.61 109.495 42.61H109.751H110.122L109.41 43.695C108.808 44.615 108.366 45.285 108.08 45.695V45.815L108.853 45.785H110.664L111.386 45.815C111.386 45.75 111.386 45.7 111.386 45.665C111.384 45.6334 111.384 45.6016 111.386 45.57C111.384 45.5401 111.384 45.51 111.386 45.48C111.386 45.445 111.386 45.405 111.386 45.355C111.176 45.355 110.96 45.385 110.739 45.39C110.518 45.395 110.293 45.39 110.062 45.39H109.806H109.395L110.679 43.39L111.421 42.255V42.2H110.734L109.947 42.225Z" fill="white"/>
<path d="M113.197 42.2H112.926H112.34H112.069C112.069 42.525 112.099 42.84 112.109 43.135C112.119 43.43 112.109 43.725 112.109 44.015C112.109 44.305 112.109 44.515 112.109 44.815C112.109 45.115 112.109 45.44 112.069 45.815L112.36 45.785H112.911L113.197 45.815C113.197 45.43 113.167 45.095 113.157 44.815C113.147 44.535 113.157 44.26 113.157 44.01C113.157 43.76 113.157 43.43 113.157 43.13C113.157 42.83 113.177 42.525 113.197 42.2Z" fill="white"/>
<path d="M112.641 40.255C112.522 40.2503 112.405 40.2819 112.306 40.3457C112.206 40.4094 112.128 40.5022 112.083 40.6114C112.038 40.7206 112.028 40.841 112.054 40.9561C112.081 41.0713 112.142 41.1756 112.229 41.255C112.281 41.3095 112.345 41.3524 112.415 41.3808C112.485 41.4092 112.56 41.4226 112.635 41.42C112.715 41.4275 112.796 41.4182 112.872 41.3928C112.948 41.3675 113.018 41.3265 113.078 41.2726C113.137 41.2187 113.185 41.1531 113.217 41.0799C113.249 41.0067 113.266 40.9275 113.266 40.8475C113.266 40.7675 113.249 40.6883 113.217 40.6151C113.185 40.5419 113.137 40.4763 113.078 40.4224C113.018 40.3685 112.948 40.3276 112.872 40.3022C112.796 40.2768 112.715 40.2676 112.635 40.275L112.641 40.255Z" fill="white"/>
<path d="M117.487 44.545C117.487 44.385 117.487 44.195 117.487 43.985C117.487 43.775 117.487 43.645 117.487 43.595C117.494 43.3454 117.476 43.0957 117.431 42.85C117.401 42.7157 117.339 42.5906 117.251 42.485C117.143 42.3645 117.01 42.2704 116.86 42.21C116.7 42.147 116.53 42.1148 116.358 42.115C116.132 42.1119 115.908 42.1634 115.706 42.265C115.507 42.3787 115.336 42.5339 115.204 42.72V42.22H114.968H114.381H114.135C114.156 42.5133 114.171 42.8133 114.181 43.12C114.191 43.4267 114.191 43.7317 114.181 44.035C114.181 44.31 114.181 44.595 114.181 44.895C114.181 45.195 114.181 45.51 114.135 45.845L114.426 45.815H114.953L115.234 45.845C115.234 45.4483 115.224 45.0983 115.204 44.795C115.204 44.495 115.204 44.235 115.204 44.02C115.182 43.6928 115.234 43.365 115.355 43.06C115.399 42.9668 115.47 42.8894 115.56 42.8383C115.65 42.7873 115.753 42.7652 115.856 42.775C115.954 42.7612 116.054 42.7766 116.144 42.8193C116.233 42.862 116.307 42.9301 116.358 43.015C116.475 43.3572 116.519 43.7198 116.488 44.08C116.488 44.445 116.488 44.775 116.488 45.08C116.488 45.385 116.488 45.635 116.448 45.85L116.744 45.82H117.276L117.577 45.85C117.577 45.655 117.547 45.45 117.537 45.24C117.527 45.03 117.487 44.78 117.487 44.545Z" fill="white"/>
<path d="M120.07 42.1C119.826 42.0879 119.582 42.1261 119.353 42.2121C119.125 42.2982 118.916 42.4302 118.741 42.6C118.571 42.7782 118.439 42.9887 118.353 43.219C118.267 43.4492 118.228 43.6945 118.239 43.94C118.208 44.4689 118.388 44.9886 118.741 45.385C118.926 45.5596 119.146 45.6941 119.386 45.7802C119.626 45.8662 119.881 45.9019 120.136 45.885C120.371 45.8869 120.606 45.8566 120.833 45.795C121.033 45.7417 121.223 45.6555 121.395 45.54L121.56 45.11L121.485 45.055C121.345 45.169 121.187 45.2602 121.018 45.325C120.858 45.3845 120.688 45.415 120.517 45.415C120.355 45.4209 120.193 45.3886 120.046 45.3209C119.899 45.2531 119.77 45.1518 119.669 45.025C119.448 44.7247 119.338 44.3571 119.358 43.985H121.686C121.688 43.9551 121.688 43.9249 121.686 43.895C121.689 43.845 121.689 43.795 121.686 43.745C121.716 43.2908 121.565 42.8431 121.264 42.5C121.104 42.355 120.915 42.2447 120.709 42.1759C120.504 42.1071 120.286 42.0812 120.07 42.1V42.1ZM120.647 43.545C120.645 43.5783 120.645 43.6117 120.647 43.645H119.358V43.58C119.341 43.2841 119.404 42.9891 119.539 42.725C119.588 42.6353 119.661 42.5603 119.749 42.5076C119.837 42.4549 119.937 42.4264 120.04 42.425C120.13 42.4248 120.219 42.4488 120.297 42.4945C120.375 42.5403 120.438 42.6061 120.482 42.685C120.596 42.9284 120.648 43.1966 120.632 43.465L120.647 43.545Z" fill="white"/>
<path d="M92.0368 16C92.401 16.571 92.7359 17.1601 93.0401 17.765L94.0435 16.8C93.5357 16.2387 92.9593 15.7432 92.3277 15.325C92.54 14.8411 92.7079 14.3391 92.8294 13.825L91.3796 13.485C91.0771 15.2416 90.4729 16.9331 89.5936 18.485L90.0953 18.895C90.8748 18.025 91.5283 17.0506 92.0368 16V16Z" fill="white"/>
<path d="M103.279 13.355C102.827 12.2685 102.211 11.257 101.453 10.355L100.881 10.64C101.265 11.7094 101.575 12.8036 101.809 13.915L103.279 13.355Z" fill="white"/>
<path d="M97.6105 12.535H94.4298L95.1472 11.535C94.2324 10.9398 93.2306 10.4894 92.1773 10.2L91.9315 10.75C92.6238 11.2998 93.2791 11.8944 93.8931 12.53H89.9098V13.33H97.6105V12.535Z" fill="white"/>
<path d="M93.1455 22.42V27.085H94.6807V22.085C95.3172 22.8051 95.9134 23.5595 96.4666 24.345L97.5251 23.17C96.6561 22.415 95.7015 21.7639 94.6807 21.23V20.57H97.6455V19.765H94.6807V18.09H94.3797C94.8238 17.4865 95.2117 16.8438 95.5385 16.17C95.9214 16.7033 96.2571 17.2688 96.5419 17.86L97.3797 17.095C97.2124 17.5447 97.0215 17.9853 96.8077 18.415L97.3094 18.785C97.5803 18.43 97.8111 18.04 98.077 17.645V26.98H99.6472V25.625H105.667V24.805H102.933V21.725H105.005V20.925H102.933V18.145H104.99V17.345H102.933V14.96H105.442V14.155H99.577C99.9029 13.0455 100.118 11.9066 100.219 10.755L98.5937 10.435C98.3278 13.035 98.092 14.96 97.485 16.775C97.0141 16.2585 96.4739 15.8092 95.8796 15.44C96.0935 14.9395 96.2614 14.4207 96.3813 13.89L94.9315 13.535C94.7893 15.1218 94.3467 16.6674 93.6271 18.09H93.1656V19.765H89.7994V20.57H92.7492C91.9505 22.3635 90.8166 23.989 89.4081 25.36L89.7843 25.86C91.0916 24.9107 92.2281 23.7476 93.1455 22.42V22.42ZM99.6121 14.96H101.338V17.345H99.6021L99.6121 14.96ZM99.6121 18.145H101.338V20.925H99.6021L99.6121 18.145ZM99.6121 21.725H101.338V24.805H99.6021L99.6121 21.725Z" fill="white"/>
<path d="M122.408 20.16C121.452 19.3519 120.38 18.6913 119.227 18.2L118.906 18.7C119.771 19.5325 120.588 20.4122 121.355 21.335L122.408 20.16Z" fill="white"/>
<path d="M119.523 17.345H116.217V18.145H124.651V17.345H121.129V14.265H124.881V13.46H121.129V10.47H119.523V13.46H115.841V14.265H119.523V17.345Z" fill="white"/>
<path d="M125.528 23.915C124.926 22.6222 124.11 21.4391 123.115 20.415L122.614 20.75C123.214 21.9979 123.718 23.29 124.119 24.615L125.528 23.915Z" fill="white"/>
<path d="M117.893 24.5C117.893 26.425 118.249 26.62 120.863 26.62C123.647 26.62 123.507 25.48 122.684 22.56H122.042C122.042 24.93 122.042 25.16 120.753 25.16C119.629 25.16 119.468 24.93 119.468 24.215V19.855H117.893V24.5Z" fill="white"/>
<path d="M115.465 13.46H112.876L113.804 12.75C113.01 11.81 112.084 10.9884 111.055 10.31L110.609 10.755C111.02 11.34 111.682 12.445 112.269 13.46H109.515V14.265H115.465V13.46Z" fill="white"/>
<path d="M113.538 26.73H114.883V24.575L116.082 25.465C116.905 24.38 117.316 22.81 117.421 20.925L116.794 20.8C116.553 22.1691 115.884 23.4274 114.883 24.395V20.895H110.077V27H111.472V25.7H113.528L113.538 26.73ZM113.538 24.895H111.502V21.655H113.538V24.895Z" fill="white"/>
<path d="M115.054 18.395H110.032V19.145H115.054V18.395Z" fill="white"/>
<path d="M115.054 15.935H110.032V16.685H115.054V15.935Z" fill="white"/>
<path d="M83.1923 25.945L83.0368 25.865C82.8044 25.6998 82.5514 25.5654 82.2843 25.465C81.8679 25.36 81.4264 25.41 81.0101 25.32C80.4231 25.195 79.8412 25.05 79.2492 24.96C78.5087 24.8195 77.7461 24.8451 77.0167 25.035C76.6608 25.1163 76.3323 25.2887 76.0636 25.535C75.9149 25.7533 75.8267 26.0069 75.8077 26.27C75.7499 26.521 75.7196 26.7775 75.7174 27.035C75.7504 27.9973 76.0377 28.9338 76.5502 29.75C76.8089 30.1843 77.1043 30.5958 77.4331 30.98C77.735 31.38 78.0855 31.741 78.4766 32.055C78.8347 32.255 79.1393 32.538 79.3646 32.88C79.5351 33.155 79.5502 33.235 79.8662 33.38C80.4103 33.5389 80.975 33.6164 81.5418 33.61C82.2894 33.6648 83.0408 33.6278 83.7793 33.5C84.3261 33.405 84.4264 33 84.8729 32.76C85.3194 32.52 85.495 32.48 85.6856 32.025C86.5485 29.975 85.485 28.23 84.2258 26.75C83.9297 26.4251 83.5802 26.1528 83.1923 25.945V25.945Z" fill="white"/>
</svg>
