<svg width="220" height="51" viewBox="0 0 220 51" fill="none" xmlns="http://www.w3.org/2000/svg">
<path d="M4.82833 38.6034H8.29226V37.9579H4.71013V36.0486H7.94677V35.4576H0.89163V36.0941H3.9828V38.0215H0.527963V38.667H3.9828C3.86436 39.2788 3.61965 39.8592 3.2643 40.3711C2.90894 40.8829 2.45076 41.3151 1.91899 41.64C1.3908 42.0154 0.816299 42.321 0.209755 42.5491H0.12793L0.546147 43.1128H0.591605C1.45018 42.8092 2.23537 42.3286 2.89631 41.7021C3.55725 41.0756 4.07919 40.3173 4.42829 39.4762C4.7543 40.2984 5.24512 41.0452 5.87054 41.6706C6.49596 42.296 7.24276 42.7868 8.06496 43.1128H8.16497L8.5741 42.5582H8.51046C6.43755 41.5127 5.14653 40.1671 4.82833 38.6034Z" fill="#7D7D7D"/>
<path d="M18.6841 35.9849H22.1207V42.9582H22.8026V37.7123C23.9209 38.5306 24.8573 39.3034 25.6392 39.9853H25.7029L26.1574 39.3852C25.0945 38.5016 23.9869 37.6732 22.839 36.9032V35.994H26.6757V35.3485H18.6841V35.9849Z" fill="#7D7D7D"/>
<path d="M39.8768 39.858L39.2495 40.0217L39.5586 41.8037L39.5677 41.8764L40.2041 41.7764L39.8768 39.858Z" fill="#7D7D7D"/>
<path d="M37.3402 39.9399C37.2187 40.7516 37.0177 41.5494 36.7401 42.3219V42.3946L37.3583 42.5674V42.5037C37.6491 41.7179 37.8593 40.9045 37.9857 40.0762V40.0035L37.3311 39.858L37.3402 39.9399Z" fill="#7D7D7D"/>
<path d="M39.7314 39.5127V39.5854L40.3496 39.3945V39.3399C40.1927 38.7842 39.9889 38.2428 39.7405 37.7216V37.658L39.1495 37.8762V37.9489L39.2222 38.1216L39.3768 38.4944L38.2221 38.6126C38.8886 37.8731 39.3879 36.9986 39.6859 36.0487V35.976L39.0768 35.8033V35.8669C38.931 36.313 38.739 36.7426 38.504 37.1488L38.0221 36.7124C38.2956 36.2155 38.5385 35.7024 38.7495 35.1759V35.1123L38.1676 34.8304V34.9032C37.9865 35.3819 37.777 35.8495 37.5403 36.3033C37.2948 36.1124 37.213 36.0669 37.1584 36.0578L36.8402 36.5851H36.9039C37.3631 36.8781 37.7871 37.2228 38.1676 37.6125C37.9314 37.9734 37.6733 38.3195 37.3948 38.6489L36.8493 38.6944L36.9948 39.3399L38.3131 39.2035V43.0039H38.9586V39.2035L39.6314 39.1308C39.6736 39.2556 39.707 39.3832 39.7314 39.5127V39.5127Z" fill="#7D7D7D"/>
<path d="M42.9133 40.2399H44.9589V39.5944H40.3222V40.2399H42.2769V42.0946H39.8403V42.7492H45.159V42.0946H42.9133V40.2399Z" fill="#7D7D7D"/>
<path d="M45.0226 35.1758H40.0404V35.8122H45.0226V35.1758Z" fill="#7D7D7D"/>
<path d="M44.759 36.3668L44.1862 36.085V36.1668C44.0609 36.6426 43.8515 37.0921 43.568 37.4942C43.5043 37.5942 43.4589 37.7487 43.6589 37.9397C43.9501 38.3406 44.1942 38.7738 44.3862 39.2307V39.3125L44.9317 38.9398V38.8852C44.7115 38.4663 44.4593 38.065 44.1771 37.6851V37.6215C44.4009 37.2177 44.5954 36.7984 44.759 36.3668V36.3668Z" fill="#7D7D7D"/>
<path d="M41.1951 37.0761C41.3157 36.8621 41.422 36.6404 41.5133 36.4124V36.3669L40.9405 36.0669V36.1396C40.7937 36.6319 40.5597 37.0938 40.2496 37.5034C40.1041 37.6579 40.2496 37.9034 40.3405 37.9852C40.6182 38.3953 40.8442 38.8381 41.0133 39.3035V39.3763L41.5679 39.049C41.3836 38.5949 41.1356 38.1694 40.8314 37.7852C40.8314 37.7852 40.8314 37.6398 41.1224 37.2488C41.142 37.1894 41.1663 37.1316 41.1951 37.0761Z" fill="#7D7D7D"/>
<path d="M43.1861 36.4214V36.3669L42.6497 36.0577V36.1305C42.4683 36.6104 42.2071 37.0561 41.8769 37.4488C41.7587 37.567 41.8042 37.7488 41.9951 37.9761C42.3057 38.3659 42.5653 38.7936 42.7679 39.2489V39.3217L43.3043 38.9398C43.0666 38.512 42.7896 38.1071 42.477 37.7306V37.6761C42.7506 37.28 42.9879 36.8601 43.1861 36.4214V36.4214Z" fill="#7D7D7D"/>
<path d="M56.6418 36.6305H56.6964L57.1055 36.1123C56.7287 35.7599 56.3104 35.4546 55.8599 35.2031H55.8145L55.4326 35.7214H55.5053C55.9125 35.9871 56.2931 36.2916 56.6418 36.6305V36.6305Z" fill="#7D7D7D"/>
<path d="M57.0055 39.4944L56.369 39.3853V39.458C56.2315 40.566 55.8327 41.6255 55.2053 42.5492L55.1508 42.6128L55.7599 42.8674V42.8128C56.389 41.8349 56.8042 40.735 56.9782 39.5853L57.0055 39.4944Z" fill="#7D7D7D"/>
<path d="M56.86 38.667L56.7872 38.7215L57.26 39.1852C57.4988 39.0325 57.7056 38.8349 57.8691 38.6034L57.9419 39.1125C58.2389 39.1979 58.554 39.1979 58.851 39.1125C58.979 39.0408 59.0832 38.9334 59.1511 38.8034C59.2856 38.1734 59.3345 37.5281 59.2965 36.885L59.7057 37.2942V39.358H60.3512V37.276L60.7057 36.9669L61.1421 36.5577L60.8967 36.0486H63.1696V35.4576H60.4421V35.0031H59.7966V35.4576H57.26V36.0941H59.442L59.0238 36.5214L59.1692 36.6396H57.26V37.276H57.7419C57.7147 37.5609 57.6207 37.8353 57.4674 38.0771C57.3142 38.3188 57.1061 38.5209 56.86 38.667V38.667ZM60.1512 36.6032C59.9432 36.3862 59.7215 36.1827 59.4875 35.994H60.7694L60.1512 36.6032ZM58.3328 37.2123H58.7329C58.7508 37.4453 58.7508 37.6794 58.7329 37.9124C58.7436 37.9977 58.7354 38.0844 58.7086 38.1661C58.6819 38.2479 58.6374 38.3227 58.5783 38.3852C58.3865 38.4262 58.1882 38.4262 57.9964 38.3852C58.1963 38.046 58.3203 37.6676 58.3601 37.276L58.3328 37.2123Z" fill="#7D7D7D"/>
<path d="M56.46 38.4306L56.8418 37.9033C56.4332 37.5535 55.9882 37.2487 55.5144 36.9941V36.9941L55.1508 37.5305H55.2235C55.6741 37.7905 56.0975 38.0951 56.4872 38.4397L56.46 38.4306Z" fill="#7D7D7D"/>
<path d="M62.3786 37.076L62.9878 36.7942H63.0605L62.6332 36.285H62.5787C62.1185 36.5424 61.617 36.7178 61.0967 36.8033H61.0058C60.983 36.8172 60.9648 36.8376 60.9535 36.8619C60.9422 36.8861 60.9382 36.9132 60.9422 36.9396V38.6307H60.5967L60.7149 39.2762H60.7694C61.2784 39.2205 61.7789 39.1045 62.2605 38.9307H62.3241L62.1604 38.3125H62.0877L61.5604 38.4761V37.276H61.7422C61.9725 37.9409 62.3239 38.5574 62.7787 39.0944V39.0944L63.3787 38.8398V38.7671C62.9438 38.27 62.6047 37.6966 62.3786 37.076Z" fill="#7D7D7D"/>
<path d="M61.8059 39.6944H58.4965V39.2217H57.851V41.2037C57.8426 41.4038 57.7901 41.5996 57.6974 41.7772C57.6047 41.9547 57.474 42.1097 57.3146 42.231C57.1863 42.3328 57.0458 42.4183 56.8964 42.4856H56.8146L57.2419 43.0038H57.2601C57.5581 42.8554 57.818 42.6405 58.0198 42.3756C58.2216 42.1108 58.3598 41.8031 58.4238 41.4764H61.8059V42.9311H62.4514V39.2217H61.8059V39.6944ZM58.5056 40.8582V40.349H61.8059V40.8582H58.5056Z" fill="#7D7D7D"/>
<path d="M75.8707 35.2395H73.6705V35.8759H75.8707V35.2395Z" fill="#7D7D7D"/>
<path d="M81.0802 37.8123H76.6708C76.6474 37.8098 76.6237 37.8121 76.6012 37.8191C76.5787 37.8261 76.5579 37.8376 76.54 37.8529C76.5221 37.8682 76.5076 37.8871 76.4972 37.9082C76.4869 37.9294 76.481 37.9524 76.4799 37.976V42.8855H77.1254V40.6125H77.8527V42.7309H78.4982V40.6125H79.3074V42.7309H79.8438V42.8855H79.9074C80.1177 42.9237 80.3303 42.948 80.5438 42.9582C80.7193 42.965 80.893 42.9207 81.0439 42.8309C81.1326 42.7734 81.2045 42.6936 81.2524 42.5994C81.3003 42.5052 81.3224 42.4 81.3166 42.2945V37.9941C81.3146 37.9457 81.2951 37.8996 81.2616 37.8645C81.2282 37.8294 81.1831 37.8076 81.1348 37.8032L81.0802 37.8123ZM80.6348 42.1399C80.6356 42.1752 80.6268 42.2099 80.6091 42.2404C80.5915 42.2709 80.5657 42.2959 80.5347 42.3127C80.3221 42.3403 80.1059 42.3121 79.9074 42.2309V40.6125H80.6348V42.1399ZM80.6348 38.4487V40.0034H79.9074V38.4487H80.6348ZM79.2619 38.4487V40.0034H78.4982V38.4487H79.2619ZM77.8527 38.4487V40.0034H77.1254V38.4487H77.8527Z" fill="#7D7D7D"/>
<path d="M75.7524 39.7944H73.825C73.7719 39.7988 73.7222 39.8225 73.6854 39.8611C73.6485 39.8996 73.627 39.9503 73.625 40.0035V42.9674H74.2705V42.2401H75.7706C75.8295 42.2452 75.8881 42.2272 75.9339 42.1899C75.9798 42.1525 76.0092 42.0988 76.0161 42.0401V40.0035C76.0199 39.9748 76.018 39.9457 76.0104 39.9177C76.0029 39.8898 75.9898 39.8637 75.972 39.8408C75.9543 39.818 75.9321 39.7989 75.9069 39.7847C75.8817 39.7705 75.8539 39.7614 75.8252 39.7581L75.7524 39.7944ZM75.3524 40.449V41.5491H74.316V40.4581H75.3524V40.449Z" fill="#7D7D7D"/>
<path d="M76.1071 36.2942H73.4614V36.9397H76.1071V36.2942Z" fill="#7D7D7D"/>
<path d="M79.0801 34.9395H78.6982C77.9934 35.5937 77.1775 36.1171 76.2889 36.485H76.2162L76.5889 37.0214L77.1163 36.7578V37.276H80.4529V36.7305C80.6347 36.8396 80.8439 36.9487 81.0621 37.0578L81.453 36.5487H81.3803C80.5469 36.1144 79.7737 35.5734 79.0801 34.9395V34.9395ZM77.3526 36.676C77.9089 36.3678 78.4249 35.9922 78.8891 35.5577C79.3127 36.0003 79.7999 36.3772 80.3347 36.676H77.3526Z" fill="#7D7D7D"/>
<path d="M75.8435 37.4669H73.7433V38.1033H75.8435V37.4669Z" fill="#7D7D7D"/>
<path d="M75.8435 38.667H73.7433V39.3034H75.8435V38.667Z" fill="#7D7D7D"/>
<path d="M99.809 42.24H94.0449V42.8764H99.809V42.24Z" fill="#7D7D7D"/>
<path d="M95.445 38.467H98.4453C98.4615 38.471 98.4783 38.4715 98.4947 38.4685C98.5111 38.4655 98.5267 38.459 98.5405 38.4496C98.5542 38.4401 98.5658 38.4279 98.5744 38.4137C98.5831 38.3994 98.5887 38.3835 98.5908 38.367V37.276C98.592 37.2604 98.5902 37.2448 98.5853 37.23C98.5805 37.2152 98.5728 37.2015 98.5627 37.1896C98.5525 37.1778 98.5402 37.1681 98.5263 37.1611C98.5124 37.154 98.4972 37.1498 98.4817 37.1487H95.445C95.3541 37.1487 95.3178 37.1487 95.3178 37.276V38.3124C95.3165 38.3279 95.3184 38.3436 95.3232 38.3584C95.328 38.3732 95.3357 38.3869 95.3458 38.3987C95.356 38.4106 95.3684 38.4203 95.3823 38.4273C95.3962 38.4343 95.4113 38.4385 95.4269 38.4397L95.445 38.467ZM97.9543 37.6851V37.9306H95.9542V37.6851H97.9543Z" fill="#7D7D7D"/>
<path d="M99.7363 35.2759H97.1543V34.9304H96.5088V35.2759H93.9449V35.9123H99.7363V35.2759Z" fill="#7D7D7D"/>
<path d="M99.2363 39.5126H94.6905C94.6581 39.51 94.626 39.5198 94.6006 39.5401C94.5753 39.5604 94.5586 39.5896 94.5541 39.6217V41.8856C94.5487 41.918 94.5561 41.9513 94.5748 41.9784C94.5934 42.0056 94.6218 42.0244 94.6541 42.031H99.2636C99.2983 42.0336 99.3328 42.0229 99.3598 42.0009C99.3869 41.9789 99.4045 41.9474 99.409 41.9128V39.649C99.409 39.6128 99.3947 39.5781 99.3691 39.5526C99.3435 39.527 99.3088 39.5126 99.2727 39.5126H99.2363ZM98.7453 41.0764V41.4219H95.1632V41.0764H98.7453ZM98.7453 40.1672V40.5127H95.1632V40.2127L98.7453 40.1672Z" fill="#7D7D7D"/>
<path d="M99.5272 39.0943V36.3668C99.5249 36.3299 99.5086 36.2952 99.4815 36.2698C99.4545 36.2445 99.4188 36.2304 99.3818 36.2305H94.4541C94.417 36.2304 94.3813 36.2445 94.3543 36.2698C94.3273 36.2952 94.3109 36.3299 94.3086 36.3668V39.0943C94.3083 39.13 94.3211 39.1645 94.3446 39.1913C94.368 39.2181 94.4005 39.2354 94.4359 39.2398H99.3818C99.4165 39.2424 99.451 39.2317 99.478 39.2097C99.5051 39.1877 99.5227 39.1562 99.5272 39.1216V39.0943ZM98.8726 36.8123V38.6307H94.9632V36.8123H98.8726Z" fill="#7D7D7D"/>
<path d="M94.4087 40.8399L93.9814 40.3671C93.7512 40.5496 93.5115 40.7196 93.2631 40.8763V37.976H94.0632V37.3305H93.2086V35.0212H92.5721V37.276H91.8539V37.9306H92.5721V41.2672C92.3358 41.3763 92.063 41.5218 91.7721 41.6854H91.6993L92.0903 42.2037C92.8735 41.8224 93.614 41.3591 94.2996 40.8217L94.4087 40.8399Z" fill="#7D7D7D"/>
<path d="M2.21908 45.5039C2.55482 45.4914 2.88338 45.6032 3.14176 45.8179C3.40014 46.0327 3.57015 46.3353 3.6192 46.6677V46.7859H4.32835V46.6131C4.25765 46.1184 4.0091 45.6665 3.62922 45.3418C3.24935 45.0172 2.76419 44.8421 2.26454 44.8493C1.97765 44.8402 1.6919 44.8895 1.42465 44.9943C1.1574 45.099 0.914213 45.2569 0.709861 45.4585C0.137085 46.0222 0.137085 46.5949 0.137085 47.8678C0.137085 49.1406 0.137085 49.6861 0.709861 50.268C0.907825 50.4704 1.14391 50.6317 1.40449 50.7425C1.66508 50.8533 1.94502 50.9114 2.22817 50.9135C2.73554 50.9171 3.22645 50.7337 3.60715 50.3982C3.98785 50.0628 4.23164 49.5989 4.29198 49.0951V48.9406H3.6192V49.0951C3.57288 49.4228 3.409 49.7225 3.15809 49.9383C2.90718 50.154 2.58636 50.2712 2.25545 50.268C2.06435 50.2772 1.87343 50.2464 1.69495 50.1775C1.51646 50.1086 1.35434 50.0031 1.21899 49.8679C0.891694 49.4406 0.837144 49.0951 0.837144 47.8769C0.837144 46.6586 0.837144 46.2676 1.22809 45.8949C1.49454 45.6399 1.85032 45.4996 2.21908 45.5039V45.5039Z" fill="#7D7D7D"/>
<path d="M6.07394 46.6767C5.85756 46.6731 5.6426 46.7122 5.44135 46.7918C5.2401 46.8713 5.05651 46.9898 4.90111 47.1404C4.56318 47.6243 4.38196 48.2003 4.38196 48.7906C4.38196 49.3808 4.56318 49.9568 4.90111 50.4407C5.05455 50.5946 5.23757 50.7159 5.43914 50.7971C5.64072 50.8784 5.85666 50.9179 6.07394 50.9135C6.29081 50.9228 6.50732 50.8881 6.71043 50.8115C6.91355 50.735 7.09908 50.6181 7.25586 50.468C7.59679 49.987 7.77992 49.412 7.77992 48.8224C7.77992 48.2328 7.59679 47.6578 7.25586 47.1768C6.94346 46.8604 6.51852 46.6807 6.07394 46.6767V46.6767ZM7.1013 48.7406C7.13248 48.9476 7.12201 49.1588 7.07049 49.3618C7.01897 49.5647 6.92744 49.7554 6.80127 49.9225C6.61065 50.1021 6.35861 50.2022 6.09667 50.2022C5.83473 50.2022 5.58269 50.1021 5.39206 49.9225C5.19229 49.5606 5.08751 49.1539 5.08751 48.7406C5.08751 48.3272 5.19229 47.9205 5.39206 47.5586C5.48278 47.4631 5.59319 47.3884 5.71564 47.3397C5.83809 47.291 5.96965 47.2696 6.10122 47.2768C6.36371 47.2781 6.61515 47.3826 6.80127 47.5677V47.5677C6.92613 47.7456 7.01452 47.9465 7.06133 48.1587C7.10815 48.3709 7.11246 48.5903 7.07403 48.8042L7.1013 48.7406Z" fill="#7D7D7D"/>
<path d="M12.2563 46.6768C12.0092 46.672 11.7641 46.7226 11.5392 46.8248C11.3142 46.9271 11.115 47.0785 10.9561 47.2678C10.8114 47.0763 10.6226 46.9226 10.4058 46.8197C10.1889 46.7168 9.95043 46.6678 9.71058 46.6768C9.34272 46.6689 8.98222 46.7806 8.68322 46.995V46.7314H8.01953V50.8499H8.70141V48.3315C8.66668 48.0995 8.72298 47.8631 8.85853 47.6716C8.99408 47.4802 9.19838 47.3485 9.42874 47.3042H9.64694C10.2531 47.3042 10.5561 47.6496 10.5561 48.3406V50.8681H11.238V48.2588C11.2371 48.0312 11.3215 47.8115 11.4747 47.6432C11.6279 47.4749 11.8387 47.3701 12.0653 47.3496H12.1926C12.8018 47.3496 13.1018 47.686 13.1018 48.377V50.9136H13.7837V48.2588C13.8112 47.8685 13.6833 47.4831 13.4278 47.1867C13.1723 46.8904 12.81 46.7071 12.4199 46.6768H12.2563Z" fill="#7D7D7D"/>
<path d="M18.475 46.6768C18.227 46.6718 17.9811 46.7232 17.7558 46.8271C17.5306 46.9311 17.3319 47.0849 17.1749 47.2769C17.0351 47.0796 16.8475 46.921 16.6296 46.816C16.4117 46.711 16.1708 46.6632 15.9293 46.6768C15.5618 46.6715 15.2021 46.7829 14.902 46.9951V46.7314H14.2201V50.8499H14.902V48.3315C14.8672 48.0995 14.9235 47.8631 15.0591 47.6716C15.1946 47.4802 15.3989 47.3485 15.6293 47.3042C15.7048 47.2947 15.7811 47.2947 15.8566 47.3042C16.4657 47.3042 16.7658 47.6497 16.7658 48.3406V50.8681H17.4931V48.2588C17.4924 48.0298 17.5781 47.8089 17.7332 47.6403C17.8882 47.4718 18.1012 47.368 18.3295 47.3496H18.4568C19.066 47.3496 19.366 47.686 19.366 48.377V50.9136H20.0388V48.2588C20.0536 48.0653 20.0301 47.8707 19.9695 47.6863C19.909 47.5019 19.8125 47.3313 19.6858 47.1843C19.5591 47.0373 19.4045 46.9168 19.2311 46.8297C19.0576 46.7426 18.8686 46.6907 18.675 46.6768H18.4568H18.475Z" fill="#7D7D7D"/>
<path d="M21.9388 46.6768C21.4992 46.6701 21.0746 46.8366 20.7569 47.1405C20.4239 47.6264 20.2456 48.2016 20.2456 48.7906C20.2456 49.3797 20.4239 49.9549 20.7569 50.4408C21.0751 50.738 21.4943 50.9033 21.9297 50.9033C22.3652 50.9033 22.7843 50.738 23.1026 50.4408C23.4356 49.9549 23.6139 49.3797 23.6139 48.7906C23.6139 48.2016 23.4356 47.6264 23.1026 47.1405C22.7878 46.8435 22.3716 46.6776 21.9388 46.6768V46.6768ZM21.9388 47.3223C22.0659 47.3191 22.1922 47.3424 22.3096 47.391C22.4271 47.4395 22.5331 47.5122 22.6207 47.6042C22.8263 47.9658 22.9345 48.3747 22.9345 48.7906C22.9345 49.2066 22.8263 49.6155 22.6207 49.9771C22.4296 50.1522 22.1798 50.2493 21.9206 50.2493C21.6615 50.2493 21.4117 50.1522 21.2206 49.9771C20.9735 49.636 20.8691 49.212 20.9296 48.7952C20.9 48.5861 20.9121 48.3732 20.9651 48.1688C21.0182 47.9644 21.1112 47.7725 21.2388 47.6042C21.3285 47.5098 21.4374 47.4358 21.5582 47.3872C21.6789 47.3386 21.8088 47.3165 21.9388 47.3223V47.3223Z" fill="#7D7D7D"/>
<path d="M25.5574 46.6768C25.1893 46.6676 24.8284 46.7794 24.53 46.995V46.7313H23.8481V50.8499H24.53V48.3315C24.4875 48.0953 24.5401 47.8519 24.6764 47.6543C24.8126 47.4567 25.0215 47.3211 25.2574 47.2768H25.4392C26.0453 47.2768 26.3484 47.6223 26.3484 48.3133V50.8408H27.0302V48.2588C27.0578 47.8684 26.9299 47.4831 26.6744 47.1867C26.4189 46.8903 26.0566 46.707 25.6665 46.6768H25.5028H25.5574Z" fill="#7D7D7D"/>
<path d="M32.6035 44.8948L31.5125 49.4224L30.2942 44.8948H29.6396L28.4213 49.4224L27.3576 45.0039L27.3303 44.8948H26.5939L28.0849 50.8589H28.7304L29.976 46.2858L31.2034 50.8589H31.867L33.349 44.8948H32.6035Z" fill="#7D7D7D"/>
<path d="M35.44 49.8408C35.3194 49.9793 35.1697 50.0895 35.0015 50.1634C34.8333 50.2372 34.6508 50.273 34.4672 50.2681C33.6126 50.2681 33.3853 49.6135 33.358 49.0134H36.0855V48.6952C36.0855 47.4497 35.44 46.6405 34.4036 46.6405C33.3671 46.6405 32.7125 47.4315 32.7125 48.6952C32.7125 49.959 33.3399 50.8136 34.5309 50.8136C34.8104 50.8235 35.0886 50.7706 35.3451 50.6589C35.6015 50.5472 35.8297 50.3795 36.0128 50.1681L36.1219 50.0681L35.6037 49.668L35.44 49.8408ZM35.3309 48.4134H33.3398C33.3421 48.2313 33.3824 48.0517 33.458 47.8861C33.5306 47.7081 33.6576 47.5576 33.821 47.4564C33.9843 47.3551 34.1755 47.3082 34.3672 47.3224C34.5578 47.3075 34.7483 47.3531 34.9115 47.4526C35.0747 47.5522 35.2024 47.7007 35.2764 47.877C35.3252 48.0514 35.3376 48.234 35.3127 48.4134H35.3309Z" fill="#7D7D7D"/>
<path d="M37.8766 46.6768C37.5964 46.6456 37.313 46.6899 37.0557 46.8049C36.7983 46.92 36.5764 47.1018 36.4129 47.3314L36.331 47.4314L36.8493 47.8679L36.9311 47.7406C37.0305 47.595 37.1676 47.4792 37.3278 47.4056C37.4879 47.3319 37.665 47.3032 37.8402 47.3223C38.513 47.3223 38.804 47.5587 38.804 48.1224V48.4134H37.7221C36.8129 48.4134 36.2401 48.8952 36.2401 49.6589C36.2435 49.9721 36.356 50.2744 36.5583 50.5135C36.7251 50.6623 36.9215 50.7741 37.1347 50.8415C37.3478 50.9089 37.5728 50.9304 37.7948 50.9045C38.1603 50.9245 38.5229 50.8291 38.8312 50.6317V50.859H39.504V48.077C39.5131 47.4405 39.2313 46.6768 37.8766 46.6768ZM37.7948 50.2681C37.0311 50.2681 36.8856 49.9771 36.8856 49.6589C36.8856 49.3407 36.9765 49.0134 37.7402 49.0134H38.804V49.3771C38.8185 49.4899 38.8099 49.6046 38.7787 49.714C38.7474 49.8235 38.6941 49.9254 38.6221 50.0135C38.3903 50.2033 38.0932 50.2947 37.7948 50.2681V50.2681Z" fill="#7D7D7D"/>
<path d="M40.6313 49.7043V44.8948H39.9858V49.7134C39.9551 49.9857 40.0335 50.2592 40.2039 50.4738C40.3742 50.6885 40.6227 50.827 40.8949 50.8589H41.5132V50.2225H41.0859C40.7404 50.2225 40.6313 50.0952 40.6313 49.7043Z" fill="#7D7D7D"/>
<path d="M42.2224 45.504H41.5497V46.7314H41.0223V47.2769H41.5497V49.6771C41.5319 49.8124 41.5416 49.9498 41.578 50.0813C41.6144 50.2127 41.6769 50.3355 41.7617 50.4424C41.8465 50.5492 41.9519 50.6379 42.0717 50.7033C42.1914 50.7686 42.3231 50.8092 42.4588 50.8227H43.0861V50.1862H42.6679C42.3588 50.1862 42.2133 50.0317 42.2133 49.6771V47.2769H43.1225V46.7314H42.277L42.2224 45.504Z" fill="#7D7D7D"/>
<path d="M44.9589 46.6768C44.5879 46.6663 44.2237 46.7781 43.9225 46.995V44.9403H43.2588V50.9135H43.9316V48.3315C43.8969 48.0995 43.9531 47.8631 44.0887 47.6716C44.2242 47.4801 44.4285 47.3485 44.6589 47.3041H44.8862C45.4923 47.3041 45.7954 47.6496 45.7954 48.3406V50.8681H46.4863V48.2588C46.5138 47.867 46.3847 47.4803 46.1273 47.1837C45.8699 46.8871 45.5052 46.7048 45.1135 46.6768H44.9589Z" fill="#7D7D7D"/>
<path d="M50.5595 48.186H53.1324V47.5223H50.5595V45.5494H53.5779V44.8948H49.8503V50.8589H53.5779V50.2043H50.5595V48.186Z" fill="#7D7D7D"/>
<path d="M56.2328 49.8316C56.1269 49.9727 55.9896 50.0873 55.8318 50.1662C55.674 50.2451 55.5 50.2862 55.3236 50.2862C55.1472 50.2862 54.9731 50.2451 54.8153 50.1662C54.6575 50.0873 54.5203 49.9727 54.4144 49.8316C54.253 49.5116 54.1689 49.1581 54.1689 48.7997C54.1689 48.4412 54.253 48.0878 54.4144 47.7678C54.5179 47.6233 54.6544 47.5055 54.8125 47.4242C54.9706 47.343 55.1458 47.3006 55.3236 47.3006C55.5013 47.3006 55.6766 47.343 55.8347 47.4242C55.9928 47.5055 56.1292 47.6233 56.2328 47.7678L56.3237 47.8678L56.8237 47.4405L56.7146 47.2768C56.5533 47.0711 56.3457 46.9062 56.1088 46.7956C55.8719 46.685 55.6122 46.6319 55.3509 46.6404C55.0899 46.638 54.8316 46.6918 54.5933 46.7981C54.355 46.9045 54.1424 47.0608 53.9699 47.2566C53.7974 47.4524 53.669 47.683 53.5936 47.9328C53.5181 48.1826 53.4973 48.4457 53.5325 48.7042C53.4978 48.965 53.5188 49.2301 53.5939 49.4822C53.669 49.7343 53.7966 49.9676 53.9684 50.1669C54.1401 50.3661 54.3521 50.5267 54.5904 50.6382C54.8287 50.7496 55.0878 50.8094 55.3509 50.8135C55.6122 50.822 55.8719 50.7689 56.1088 50.6583C56.3457 50.5477 56.5533 50.3829 56.7146 50.1771L56.8146 50.068L56.3509 49.6589L56.2328 49.8316Z" fill="#7D7D7D"/>
<path d="M58.342 46.6768C57.9083 46.6729 57.4904 46.8394 57.1783 47.1405C56.8452 47.6263 56.667 48.2016 56.667 48.7906C56.667 49.3796 56.8452 49.9549 57.1783 50.4407C57.4965 50.7379 57.9157 50.9032 58.3511 50.9032C58.7865 50.9032 59.2057 50.7379 59.5239 50.4407C59.857 49.9549 60.0352 49.3796 60.0352 48.7906C60.0352 48.2016 59.857 47.6263 59.5239 47.1405C59.2057 46.8374 58.7814 46.671 58.342 46.6768V46.6768ZM57.6783 50.0043C57.4818 49.6398 57.3789 49.2321 57.3789 48.8179C57.3789 48.4037 57.4818 47.996 57.6783 47.6314C57.869 47.4518 58.121 47.3517 58.3829 47.3517C58.6449 47.3517 58.8969 47.4518 59.0875 47.6314V47.6314C59.2827 47.9967 59.384 48.4048 59.3824 48.819C59.3809 49.2332 59.2764 49.6405 59.0785 50.0043C58.8883 50.1814 58.6382 50.2798 58.3784 50.2798C58.1186 50.2798 57.8685 50.1814 57.6783 50.0043Z" fill="#7D7D7D"/>
<path d="M61.9786 46.6768C61.6106 46.6676 61.2497 46.7794 60.9513 46.995V46.7313H60.2694V50.8499H60.9513V48.3315C60.9166 48.0995 60.9729 47.863 61.1084 47.6716C61.244 47.4801 61.4483 47.3485 61.6786 47.3041H61.8968C62.506 47.3041 62.806 47.6496 62.806 48.3406V50.8681H63.4879V48.2588C63.499 48.0444 63.4651 47.8301 63.3884 47.6297C63.3117 47.4293 63.1938 47.2471 63.0424 47.095C62.7569 46.8207 62.3745 46.6704 61.9786 46.6768V46.6768Z" fill="#7D7D7D"/>
<path d="M65.4426 46.6767C65.2262 46.6731 65.0112 46.7122 64.81 46.7918C64.6087 46.8713 64.4252 46.9898 64.2698 47.1404C63.9318 47.6243 63.7506 48.2003 63.7506 48.7906C63.7506 49.3808 63.9318 49.9568 64.2698 50.4407C64.5855 50.7393 65.0035 50.9057 65.438 50.9057C65.8726 50.9057 66.2906 50.7393 66.6063 50.4407C66.948 49.9583 67.1316 49.3817 67.1316 48.7906C67.1316 48.1994 66.948 47.6228 66.6063 47.1404C66.2936 46.8402 65.8761 46.6738 65.4426 46.6767V46.6767ZM65.4426 47.3223C65.5727 47.3164 65.7025 47.3385 65.8232 47.3871C65.944 47.4357 66.0529 47.5097 66.1426 47.6041C66.3392 47.9687 66.4421 48.3764 66.4421 48.7906C66.4421 49.2047 66.3392 49.6124 66.1426 49.977C65.952 50.1567 65.7 50.2567 65.438 50.2567C65.1761 50.2567 64.9241 50.1567 64.7334 49.977C64.4832 49.6372 64.3755 49.2131 64.4334 48.7951C64.3788 48.3744 64.486 47.9487 64.7334 47.6041C64.8242 47.5085 64.9346 47.4338 65.057 47.3852C65.1795 47.3365 65.311 47.315 65.4426 47.3223V47.3223Z" fill="#7D7D7D"/>
<path d="M71.6249 46.6767C71.3769 46.6717 71.131 46.7231 70.9057 46.827C70.6805 46.931 70.4818 47.0848 70.3248 47.2768C70.1833 47.0813 69.9953 46.9241 69.7779 46.8193C69.5604 46.7146 69.3203 46.6656 69.0792 46.6767C68.7087 46.6701 68.3457 46.7815 68.0428 46.9949V46.7313H67.37V50.8498H68.0428V48.3314C68.0081 48.0994 68.0644 47.863 68.1999 47.6715C68.3354 47.48 68.5398 47.3484 68.7701 47.3041H68.9974C69.6035 47.3041 69.9066 47.6495 69.9066 48.3405V50.868H70.5794V48.2587C70.578 48.0339 70.6599 47.8166 70.8094 47.6487C70.9588 47.4808 71.1651 47.3742 71.3885 47.3495H71.534C72.1522 47.3495 72.4431 47.6859 72.4431 48.3769V50.9134H73.1159V48.2587C73.133 48.0476 73.1063 47.8353 73.0375 47.635C72.9687 47.4348 72.8592 47.2509 72.7159 47.0949C72.4179 46.823 72.0283 46.6736 71.6249 46.6767V46.6767Z" fill="#7D7D7D"/>
<path d="M74.3433 44.8948H73.5706V45.6676H74.3433V44.8948Z" fill="#7D7D7D"/>
<path d="M74.2887 46.7313H73.6068V50.8589H74.2887V46.7313Z" fill="#7D7D7D"/>
<path d="M76.3526 47.3222C76.5282 47.3078 76.7046 47.3397 76.8641 47.4147C77.0236 47.4897 77.1607 47.6051 77.2617 47.7495L77.3527 47.8495L77.8345 47.4222L77.7436 47.3222C77.5805 47.1109 77.369 46.942 77.1269 46.8296C76.8848 46.7173 76.6192 46.6648 76.3526 46.6767C76.0916 46.6743 75.8333 46.7281 75.595 46.8344C75.3567 46.9407 75.1441 47.0971 74.9716 47.2929C74.7991 47.4887 74.6707 47.7193 74.5953 47.9691C74.5198 48.2189 74.499 48.482 74.5342 48.7405C74.4996 49.0013 74.5205 49.2664 74.5956 49.5185C74.6707 49.7706 74.7983 50.0039 74.9701 50.2032C75.1419 50.4024 75.3538 50.563 75.5921 50.6745C75.8304 50.7859 76.0896 50.8457 76.3526 50.8498C76.6172 50.8635 76.8813 50.8128 77.122 50.7019C77.3627 50.5911 77.5729 50.4234 77.7345 50.2134L77.8254 50.1133L77.3436 49.6769L77.2526 49.777C77.1457 49.9165 77.0081 50.0295 76.8504 50.1073C76.6927 50.1851 76.5193 50.2256 76.3435 50.2256C76.1677 50.2256 75.9942 50.1851 75.8366 50.1073C75.6789 50.0295 75.5413 49.9165 75.4343 49.777C75.2769 49.4557 75.1951 49.1028 75.1951 48.7451C75.1951 48.3873 75.2769 48.0344 75.4343 47.7131C75.5415 47.5753 75.6821 47.4671 75.8428 47.3987C76.0034 47.3303 76.1789 47.304 76.3526 47.3222Z" fill="#7D7D7D"/>
<path d="M81.2256 45.5494H84.235V44.8948H80.5165V50.8589H81.2256V48.2769H83.7986V47.6132H81.2256V45.5494Z" fill="#7D7D7D"/>
<path d="M85.6897 46.6767C85.2531 46.6714 84.8319 46.8379 84.5169 47.1404C84.1839 47.6262 84.0056 48.2015 84.0056 48.7905C84.0056 49.3796 84.1839 49.9548 84.5169 50.4407C84.8326 50.7393 85.2507 50.9057 85.6852 50.9057C86.1197 50.9057 86.5378 50.7393 86.8535 50.4407C87.1914 49.9568 87.3726 49.3808 87.3726 48.7905C87.3726 48.2003 87.1914 47.6243 86.8535 47.1404C86.6998 46.9901 86.5178 46.8717 86.318 46.7921C86.1183 46.7125 85.9047 46.6733 85.6897 46.6767ZM86.7171 48.7405C86.7776 49.1574 86.6733 49.5813 86.4262 49.9224C86.234 50.1027 85.9805 50.203 85.717 50.203C85.4536 50.203 85.2 50.1027 85.0079 49.9224C84.8152 49.5583 84.7145 49.1525 84.7145 48.7405C84.7145 48.3285 84.8152 47.9228 85.0079 47.5586C85.1009 47.4631 85.2128 47.3879 85.3365 47.3378C85.4601 47.2877 85.5928 47.2638 85.7261 47.2677C85.8569 47.2629 85.9871 47.2865 86.1079 47.3367C86.2287 47.3869 86.3373 47.4626 86.4262 47.5586V47.5586C86.6715 47.9208 86.7661 48.3643 86.6898 48.7951L86.7171 48.7405Z" fill="#7D7D7D"/>
<path d="M92.9358 49.2498C92.9705 49.4818 92.9143 49.7182 92.7787 49.9097C92.6432 50.1011 92.4389 50.2328 92.2085 50.2771H91.9812C91.2266 50.2771 91.072 49.7316 91.072 49.2407V46.7314H90.3992V47.1314C90.2676 46.9906 90.1063 46.8809 89.9271 46.8102C89.7478 46.7394 89.5551 46.7094 89.3628 46.7223C88.9906 46.7037 88.6246 46.8235 88.3354 47.0587V46.7677H87.6536V50.9135H88.3354V48.3679C88.319 48.2463 88.3273 48.1226 88.3599 48.0043C88.3925 47.886 88.4488 47.7755 88.5252 47.6795C88.6017 47.5835 88.6968 47.504 88.8048 47.4457C88.9128 47.3875 89.0315 47.3517 89.1537 47.3405H89.2355C89.3529 47.3281 89.4716 47.3448 89.5811 47.3892C89.6905 47.4336 89.7873 47.5043 89.8628 47.5951L89.9538 47.6951L90.3992 47.2496V49.3134C90.3868 49.5285 90.4191 49.7438 90.4942 49.9457C90.5694 50.1476 90.6856 50.3316 90.8357 50.4862C90.9826 50.6294 91.1583 50.7399 91.351 50.8105C91.5437 50.881 91.7492 50.9099 91.9539 50.8953C92.3231 50.9133 92.6869 50.8006 92.9813 50.5771V50.859H93.6268V46.7223H92.9449L92.9358 49.2498Z" fill="#7D7D7D"/>
<path d="M99.4454 47.095C99.2771 46.9468 99.0808 46.8338 98.8681 46.7626C98.6555 46.6914 98.4307 46.6634 98.207 46.6804C97.9834 46.6973 97.7654 46.7588 97.5659 46.8612C97.3664 46.9637 97.1893 47.105 97.0452 47.2769C96.8997 47.0811 96.7084 46.924 96.4881 46.8194C96.2678 46.7148 96.0252 46.6658 95.7815 46.6768C95.4108 46.6693 95.0486 46.7879 94.7541 47.0132V46.7314H94.0723V50.8499H94.7541V48.3315C94.7106 48.1005 94.7583 47.8616 94.8871 47.6649C95.0159 47.4683 95.2159 47.3292 95.4451 47.2769H95.6633C96.2725 47.2769 96.5725 47.6223 96.5725 48.3133V50.8408H97.2544V48.2588C97.253 48.034 97.3349 47.8167 97.4844 47.6488C97.6338 47.4809 97.8401 47.3743 98.0635 47.3496H98.1999C98.8181 47.3496 99.1091 47.686 99.1091 48.3769V50.9135H99.8364V48.2588C99.8526 48.0485 99.8263 47.8371 99.7591 47.6372C99.692 47.4373 99.5853 47.2529 99.4454 47.095Z" fill="#7D7D7D"/>
<path d="M81.4622 16.0651C81.4622 7.41893 74.0434 0.354697 64.8153 0.00012207H63.5061C54.269 0.354697 46.8593 7.41893 46.8593 16.0651C46.8593 24.7113 54.269 31.821 63.5061 32.1028H64.8153C74.0525 31.821 81.4622 24.7204 81.4622 16.0651ZM47.1502 16.2106H52.5234C52.5431 18.2465 52.8492 20.2695 53.4325 22.2202H48.4867C47.6241 20.3331 47.1687 18.2854 47.1502 16.2106V16.2106ZM81.1349 15.9196H75.8344C75.8136 13.7587 75.4673 11.6132 74.8071 9.55547H79.6257C80.6114 11.5342 81.1396 13.7092 81.1712 15.9196H81.1349ZM75.498 15.9196H64.2971V9.55547H74.5343C75.2037 11.611 75.5502 13.7579 75.5617 15.9196H75.498ZM64.2971 9.20999V0.309239C68.7338 0.391064 72.5341 4.00955 74.3888 9.20999H64.2971ZM64.0243 9.20999H53.9235C55.7418 4.05501 59.5785 0.391064 64.0243 0.309239V9.20999ZM64.0243 9.5282V15.8924H52.7961C52.8075 13.7306 53.1541 11.5837 53.8235 9.5282H64.0243ZM52.5234 15.8924H47.1502C47.174 13.682 47.6994 11.5059 48.6867 9.5282H53.4962C52.8515 11.5974 52.5235 13.7523 52.5234 15.9196V15.8924ZM52.8325 16.1833H64.0607V22.1929H53.7598C53.1495 20.2469 52.8249 18.2226 52.7961 16.1833H52.8325ZM64.0607 22.5475V31.821C59.5149 31.7483 55.6054 27.9661 53.8417 22.5566L64.0607 22.5475ZM64.3425 22.5475H74.5343C72.7705 28.0025 68.8611 31.7573 64.3153 31.8119L64.3425 22.5475ZM64.3425 22.2293V16.2106H75.5708C75.5509 18.2465 75.2448 20.2695 74.6616 22.2202L64.3425 22.2293ZM75.8799 16.2197H81.2076C81.1891 18.2945 80.7337 20.3421 79.8711 22.2293H74.9525C75.5361 20.2787 75.8422 18.2556 75.8617 16.2197H75.8799ZM79.5166 9.21908H74.7161C73.2615 4.99145 70.5158 1.81846 67.1973 0.554714C69.7719 0.957186 72.2191 1.94733 74.3493 3.44834C76.4794 4.94934 78.2351 6.92087 79.4802 9.20999L79.5166 9.21908ZM61.1241 0.554714C57.7965 1.81846 55.0509 4.99145 53.6235 9.20999H48.8412C50.0853 6.92 51.8407 4.94777 53.971 3.44662C56.1013 1.94547 58.5491 0.955858 61.1241 0.554714V0.554714ZM48.6503 22.5384H53.478C54.8872 26.9388 57.6965 30.3118 61.1241 31.5755C58.4774 31.1659 55.966 30.1328 53.7972 28.5615C51.6284 26.9902 49.8642 24.9257 48.6503 22.5384V22.5384ZM67.1973 31.5755C70.6249 30.3118 73.4342 26.9388 74.8434 22.5384H79.662C78.4514 24.9264 76.6893 26.9917 74.5217 28.5632C72.3542 30.1348 69.8434 31.1674 67.1973 31.5755Z" fill="#595757"/>
<path d="M50.6413 4.11859V3.06395L46.2954 3.08214V4.1095H47.8956L42.4497 22.2928L37.9038 4.09131H39.404L39.413 3.06395L31.4306 3.03668V4.08222H32.8307L36.0855 15.9832L33.3307 23.1656L28.6485 4.06404H30.0304V3.03668L22.1479 3.02759V4.05495H23.6026L30.2759 28.8207L30.3305 29.0298L32.2215 29.0389L36.5583 17.7288L39.604 28.8479L39.6585 29.048L41.5587 29.0571L49.0684 4.1095L50.6413 4.11859Z" fill="#595757"/>
<path d="M20.5933 20.8473C20.4048 21.7703 20.0993 22.6655 19.6841 23.5112C19.2752 24.3293 18.7483 25.0828 18.1204 25.7477C17.5024 26.4019 16.7727 26.9407 15.9656 27.3388C15.1146 27.7436 14.1803 27.9429 13.2381 27.9207C12.1289 27.9519 11.0239 27.7698 9.98332 27.3842C9.08682 27.028 8.33053 26.3897 7.82859 25.5659C7.17896 24.4463 6.75287 23.2112 6.57394 21.9292C6.26662 19.981 6.1267 18.01 6.15572 16.0378C6.15572 14.2195 6.22846 12.5375 6.36483 11.0374C6.45296 9.71107 6.76018 8.40848 7.274 7.18254C7.7012 6.17163 8.41964 5.31077 9.33781 4.7096C10.4973 4.04717 11.8227 3.73161 13.1563 3.80044C14.1933 3.76482 15.2233 3.9833 16.1566 4.43685C16.963 4.8578 17.6771 5.43586 18.2567 6.137C18.7914 6.82048 19.2317 7.57274 19.5659 8.37355C19.9023 9.15543 20.2024 9.93732 20.4751 10.7556L20.5388 10.9374H21.4479V3.34585H20.4297V3.56405C20.3569 3.89135 20.2569 3.96409 20.2296 3.97318C20.0236 4.07507 19.7957 4.12501 19.5659 4.11865C19.2155 4.11059 18.8686 4.04612 18.5386 3.92772L17.093 3.43677C16.5293 3.28221 15.9293 3.14584 15.2747 3.00946C14.5994 2.86406 13.9107 2.79091 13.22 2.79126C11.6368 2.8 10.0697 3.10849 8.60138 3.70043C5.38194 4.96331 2.75821 7.39546 1.25531 10.5101C0.414908 12.2048 -0.0148931 14.0735 0.000657138 15.9651C-0.0178461 17.7426 0.35461 19.5025 1.09166 21.1201C1.79209 22.6646 2.77934 24.0622 4.00099 25.2386C5.22983 26.4052 6.66703 27.3305 8.23772 27.9661C9.81241 28.6403 11.507 28.9898 13.22 28.9935C13.936 29.0042 14.6515 28.9463 15.3565 28.8207C16.0293 28.6844 16.6657 28.548 17.2294 28.4025C17.7931 28.257 18.2567 28.1116 18.7295 27.9752C19.2318 27.7635 19.7938 27.7409 20.3115 27.9116C20.4529 28.0294 20.5597 28.1833 20.6206 28.3571L20.6933 28.5207H21.7207V20.6019H20.6933L20.5933 20.8473Z" fill="#595757"/>
<path d="M79.0801 3.30945V4.33681H82.2713V27.4388H79.0801V28.4661H91.0447V27.4388H87.7808V16.5287H89.8446C90.4957 16.5006 91.144 16.6284 91.7357 16.9015C92.2329 17.1503 92.6703 17.5039 93.0176 17.938C93.3789 18.4212 93.6555 18.9623 93.8359 19.5381C94.0625 20.1632 94.2537 20.8007 94.4086 21.4473V21.6655H95.3178V10.3646H94.4086V10.5737C94.2707 11.2792 94.0668 11.9702 93.7995 12.6375C93.5838 13.1993 93.2766 13.7216 92.8903 14.1831C92.5135 14.5848 92.0503 14.8957 91.5357 15.0923C90.8758 15.3377 90.1759 15.4579 89.4719 15.4468H87.7808V4.3459H92.7176C93.4971 4.32574 94.2737 4.449 95.0087 4.70957C95.6355 4.93529 96.2106 5.28466 96.6997 5.73693C97.2066 6.22082 97.6414 6.77501 97.9908 7.38252C98.3826 8.09809 98.7258 8.83922 99.0181 9.60089L99.0909 9.77363H100V3.30945H79.0801Z" fill="#595757"/>
<path d="M74.9342 20.4655V20.5928C74.7048 21.5406 74.3597 22.4566 73.9068 23.3203C73.4954 24.1428 72.9518 24.8922 72.2976 25.5386C71.6375 26.1967 70.8508 26.7141 69.9851 27.0595C69.1194 27.4048 68.1926 27.571 67.2608 27.5479H61.8058V16.4833H63.9605C64.632 16.4556 65.3001 16.5929 65.9061 16.8834C66.41 17.1298 66.8562 17.4799 67.2153 17.9107C67.5823 18.4145 67.8676 18.9729 68.0609 19.5654C68.2791 20.2018 68.47 20.8382 68.6245 21.4837V21.611H69.361V10.4828H68.6245V10.6192C68.4764 11.339 68.2665 12.0447 67.9972 12.7285C67.7816 13.2987 67.4745 13.8299 67.088 14.3013C66.7032 14.7472 66.221 15.0987 65.6788 15.3287C65.0185 15.5559 64.3221 15.6607 63.6241 15.6378H61.8058V4.23683H67.9881C68.9558 4.20368 69.9161 4.41638 70.7793 4.85506C71.4921 5.23322 72.125 5.74571 72.6431 6.36428C73.099 6.88361 73.4786 7.46526 73.7704 8.0917C73.9964 8.57251 74.1908 9.06754 74.3523 9.57364V9.70093H75.0887V3.41858H53.2687V4.23683H56.4417V27.5479H52.905V28.3661H75.6797V20.4655H74.9342Z" fill="#D60C18"/>
<path d="M124.828 38.6034H128.292V37.9579H124.71V36.0486H127.947V35.4576H120.892V36.0941H123.983V38.0215H120.528V38.667H123.983C123.864 39.2788 123.62 39.8592 123.264 40.3711C122.909 40.8829 122.451 41.3151 121.919 41.64C121.391 42.0154 120.816 42.321 120.21 42.5491H120.128L120.546 43.1128H120.592C121.45 42.8092 122.235 42.3286 122.896 41.7021C123.557 41.0756 124.079 40.3173 124.428 39.4762C124.754 40.2984 125.245 41.0452 125.871 41.6706C126.496 42.296 127.243 42.7868 128.065 43.1128H128.165L128.574 42.5582H128.51C126.438 41.5127 125.147 40.1671 124.828 38.6034Z" fill="white"/>
<path d="M138.684 35.9849H142.121V42.9582H142.803V37.7123C143.921 38.5306 144.857 39.3034 145.639 39.9853H145.703L146.157 39.3852C145.094 38.5016 143.987 37.6732 142.839 36.9032V35.994H146.676V35.3485H138.684V35.9849Z" fill="white"/>
<path d="M159.877 39.858L159.25 40.0217L159.559 41.8037L159.568 41.8764L160.204 41.7764L159.877 39.858Z" fill="white"/>
<path d="M157.34 39.9399C157.219 40.7516 157.018 41.5494 156.74 42.3219V42.3946L157.358 42.5674V42.5037C157.649 41.7179 157.859 40.9045 157.986 40.0762V40.0035L157.331 39.858L157.34 39.9399Z" fill="white"/>
<path d="M159.731 39.5127V39.5854L160.35 39.3945V39.3399C160.193 38.7842 159.989 38.2428 159.74 37.7216V37.658L159.149 37.8762V37.9489L159.222 38.1216L159.377 38.4944L158.222 38.6126C158.889 37.8731 159.388 36.9986 159.686 36.0487V35.976L159.077 35.8033V35.8669C158.931 36.313 158.739 36.7426 158.504 37.1488L158.022 36.7124C158.296 36.2155 158.539 35.7024 158.749 35.1759V35.1123L158.168 34.8304V34.9032C157.986 35.3819 157.777 35.8495 157.54 36.3033C157.295 36.1124 157.213 36.0669 157.158 36.0578L156.84 36.5851H156.904C157.363 36.8781 157.787 37.2228 158.168 37.6125C157.931 37.9734 157.673 38.3195 157.395 38.6489L156.849 38.6944L156.995 39.3399L158.313 39.2035V43.0039H158.959V39.2035L159.631 39.1308C159.674 39.2556 159.707 39.3832 159.731 39.5127V39.5127Z" fill="white"/>
<path d="M162.913 40.2399H164.959V39.5944H160.322V40.2399H162.277V42.0946H159.84V42.7492H165.159V42.0946H162.913V40.2399Z" fill="white"/>
<path d="M165.023 35.1758H160.04V35.8122H165.023V35.1758Z" fill="white"/>
<path d="M164.759 36.3668L164.186 36.085V36.1668C164.061 36.6426 163.852 37.0921 163.568 37.4942C163.504 37.5942 163.459 37.7487 163.659 37.9397C163.95 38.3406 164.194 38.7738 164.386 39.2307V39.3125L164.932 38.9398V38.8852C164.712 38.4663 164.459 38.065 164.177 37.6851V37.6215C164.401 37.2177 164.595 36.7984 164.759 36.3668V36.3668Z" fill="white"/>
<path d="M161.195 37.0761C161.316 36.8621 161.422 36.6404 161.513 36.4124V36.3669L160.941 36.0669V36.1396C160.794 36.6319 160.56 37.0938 160.25 37.5034C160.104 37.6579 160.25 37.9034 160.34 37.9852C160.618 38.3953 160.844 38.8381 161.013 39.3035V39.3763L161.568 39.049C161.384 38.5949 161.136 38.1694 160.831 37.7852C160.831 37.7852 160.831 37.6398 161.122 37.2488C161.142 37.1894 161.166 37.1316 161.195 37.0761Z" fill="white"/>
<path d="M163.186 36.4214V36.3669L162.65 36.0577V36.1305C162.468 36.6104 162.207 37.0561 161.877 37.4488C161.759 37.567 161.804 37.7488 161.995 37.9761C162.306 38.3659 162.565 38.7936 162.768 39.2489V39.3217L163.304 38.9398C163.067 38.512 162.79 38.1071 162.477 37.7306V37.6761C162.751 37.28 162.988 36.8601 163.186 36.4214V36.4214Z" fill="white"/>
<path d="M176.642 36.6305H176.696L177.105 36.1123C176.729 35.7599 176.31 35.4546 175.86 35.2031H175.814L175.433 35.7214H175.505C175.913 35.9871 176.293 36.2916 176.642 36.6305V36.6305Z" fill="white"/>
<path d="M177.005 39.4944L176.369 39.3853V39.458C176.232 40.566 175.833 41.6255 175.205 42.5492L175.151 42.6128L175.76 42.8674V42.8128C176.389 41.8349 176.804 40.735 176.978 39.5853L177.005 39.4944Z" fill="white"/>
<path d="M176.86 38.667L176.787 38.7215L177.26 39.1852C177.499 39.0325 177.706 38.8349 177.869 38.6034L177.942 39.1125C178.239 39.1979 178.554 39.1979 178.851 39.1125C178.979 39.0408 179.083 38.9334 179.151 38.8034C179.286 38.1734 179.335 37.5281 179.297 36.885L179.706 37.2942V39.358H180.351V37.276L180.706 36.9669L181.142 36.5577L180.897 36.0486H183.17V35.4576H180.442V35.0031H179.797V35.4576H177.26V36.0941H179.442L179.024 36.5214L179.169 36.6396H177.26V37.276H177.742C177.715 37.5609 177.621 37.8353 177.467 38.0771C177.314 38.3188 177.106 38.5209 176.86 38.667V38.667ZM180.151 36.6032C179.943 36.3862 179.721 36.1827 179.487 35.994H180.769L180.151 36.6032ZM178.333 37.2123H178.733C178.751 37.4453 178.751 37.6794 178.733 37.9124C178.744 37.9977 178.735 38.0844 178.709 38.1661C178.682 38.2479 178.637 38.3227 178.578 38.3852C178.387 38.4262 178.188 38.4262 177.996 38.3852C178.196 38.046 178.32 37.6676 178.36 37.276L178.333 37.2123Z" fill="white"/>
<path d="M176.46 38.4306L176.842 37.9033C176.433 37.5535 175.988 37.2487 175.514 36.9941V36.9941L175.151 37.5305H175.223C175.674 37.7905 176.098 38.0951 176.487 38.4397L176.46 38.4306Z" fill="white"/>
<path d="M182.379 37.076L182.988 36.7942H183.061L182.633 36.285H182.579C182.118 36.5424 181.617 36.7178 181.097 36.8033H181.006C180.983 36.8172 180.965 36.8376 180.953 36.8619C180.942 36.8861 180.938 36.9132 180.942 36.9396V38.6307H180.597L180.715 39.2762H180.769C181.278 39.2205 181.779 39.1045 182.26 38.9307H182.324L182.16 38.3125H182.088L181.56 38.4761V37.276H181.742C181.973 37.9409 182.324 38.5574 182.779 39.0944V39.0944L183.379 38.8398V38.7671C182.944 38.27 182.605 37.6966 182.379 37.076Z" fill="white"/>
<path d="M181.806 39.6944H178.497V39.2217H177.851V41.2037C177.843 41.4038 177.79 41.5996 177.697 41.7772C177.605 41.9547 177.474 42.1097 177.315 42.231C177.186 42.3328 177.046 42.4183 176.896 42.4856H176.815L177.242 43.0038H177.26C177.558 42.8554 177.818 42.6405 178.02 42.3756C178.222 42.1108 178.36 41.8031 178.424 41.4764H181.806V42.9311H182.451V39.2217H181.806V39.6944ZM178.506 40.8582V40.349H181.806V40.8582H178.506Z" fill="white"/>
<path d="M195.871 35.2395H193.671V35.8759H195.871V35.2395Z" fill="white"/>
<path d="M201.08 37.8123H196.671C196.647 37.8098 196.624 37.8121 196.601 37.8191C196.579 37.8261 196.558 37.8376 196.54 37.8529C196.522 37.8682 196.508 37.8871 196.497 37.9082C196.487 37.9294 196.481 37.9524 196.48 37.976V42.8855H197.125V40.6125H197.853V42.7309H198.498V40.6125H199.307V42.7309H199.844V42.8855H199.907C200.118 42.9237 200.33 42.948 200.544 42.9582C200.719 42.965 200.893 42.9207 201.044 42.8309C201.133 42.7734 201.204 42.6936 201.252 42.5994C201.3 42.5052 201.322 42.4 201.317 42.2945V37.9941C201.315 37.9457 201.295 37.8996 201.262 37.8645C201.228 37.8294 201.183 37.8076 201.135 37.8032L201.08 37.8123ZM200.635 42.1399C200.636 42.1752 200.627 42.2099 200.609 42.2404C200.591 42.2709 200.566 42.2959 200.535 42.3127C200.322 42.3403 200.106 42.3121 199.907 42.2309V40.6125H200.635V42.1399ZM200.635 38.4487V40.0034H199.907V38.4487H200.635ZM199.262 38.4487V40.0034H198.498V38.4487H199.262ZM197.853 38.4487V40.0034H197.125V38.4487H197.853Z" fill="white"/>
<path d="M195.752 39.7944H193.825C193.772 39.7988 193.722 39.8225 193.685 39.8611C193.649 39.8996 193.627 39.9503 193.625 40.0035V42.9674H194.271V42.2401H195.771C195.83 42.2452 195.888 42.2272 195.934 42.1899C195.98 42.1525 196.009 42.0988 196.016 42.0401V40.0035C196.02 39.9748 196.018 39.9457 196.01 39.9177C196.003 39.8898 195.99 39.8637 195.972 39.8408C195.954 39.818 195.932 39.7989 195.907 39.7847C195.882 39.7705 195.854 39.7614 195.825 39.7581L195.752 39.7944ZM195.352 40.449V41.5491H194.316V40.4581H195.352V40.449Z" fill="white"/>
<path d="M196.107 36.2942H193.461V36.9397H196.107V36.2942Z" fill="white"/>
<path d="M199.08 34.9395H198.698C197.993 35.5937 197.177 36.1171 196.289 36.485H196.216L196.589 37.0214L197.116 36.7578V37.276H200.453V36.7305C200.635 36.8396 200.844 36.9487 201.062 37.0578L201.453 36.5487H201.38C200.547 36.1144 199.774 35.5734 199.08 34.9395V34.9395ZM197.353 36.676C197.909 36.3678 198.425 35.9922 198.889 35.5577C199.313 36.0003 199.8 36.3772 200.335 36.676H197.353Z" fill="white"/>
<path d="M195.843 37.4669H193.743V38.1033H195.843V37.4669Z" fill="white"/>
<path d="M195.843 38.667H193.743V39.3034H195.843V38.667Z" fill="white"/>
<path d="M219.809 42.24H214.045V42.8764H219.809V42.24Z" fill="white"/>
<path d="M215.445 38.467H218.445C218.461 38.471 218.478 38.4715 218.495 38.4685C218.511 38.4655 218.527 38.459 218.54 38.4496C218.554 38.4401 218.566 38.4279 218.574 38.4137C218.583 38.3994 218.589 38.3835 218.591 38.367V37.276C218.592 37.2604 218.59 37.2448 218.585 37.23C218.581 37.2152 218.573 37.2015 218.563 37.1896C218.553 37.1778 218.54 37.1681 218.526 37.1611C218.512 37.154 218.497 37.1498 218.482 37.1487H215.445C215.354 37.1487 215.318 37.1487 215.318 37.276V38.3124C215.317 38.3279 215.318 38.3436 215.323 38.3584C215.328 38.3732 215.336 38.3869 215.346 38.3987C215.356 38.4106 215.368 38.4203 215.382 38.4273C215.396 38.4343 215.411 38.4385 215.427 38.4397L215.445 38.467ZM217.954 37.6851V37.9306H215.954V37.6851H217.954Z" fill="white"/>
<path d="M219.736 35.2759H217.154V34.9304H216.509V35.2759H213.945V35.9123H219.736V35.2759Z" fill="white"/>
<path d="M219.236 39.5126H214.69C214.658 39.51 214.626 39.5198 214.601 39.5401C214.575 39.5604 214.559 39.5896 214.554 39.6217V41.8856C214.549 41.918 214.556 41.9513 214.575 41.9784C214.593 42.0056 214.622 42.0244 214.654 42.031H219.264C219.298 42.0336 219.333 42.0229 219.36 42.0009C219.387 41.9789 219.404 41.9474 219.409 41.9128V39.649C219.409 39.6128 219.395 39.5781 219.369 39.5526C219.344 39.527 219.309 39.5126 219.273 39.5126H219.236ZM218.745 41.0764V41.4219H215.163V41.0764H218.745ZM218.745 40.1672V40.5127H215.163V40.2127L218.745 40.1672Z" fill="white"/>
<path d="M219.527 39.0943V36.3668C219.525 36.3299 219.509 36.2952 219.482 36.2698C219.454 36.2445 219.419 36.2304 219.382 36.2305H214.454C214.417 36.2304 214.381 36.2445 214.354 36.2698C214.327 36.2952 214.311 36.3299 214.309 36.3668V39.0943C214.308 39.13 214.321 39.1645 214.345 39.1913C214.368 39.2181 214.401 39.2354 214.436 39.2398H219.382C219.417 39.2424 219.451 39.2317 219.478 39.2097C219.505 39.1877 219.523 39.1562 219.527 39.1216V39.0943ZM218.873 36.8123V38.6307H214.963V36.8123H218.873Z" fill="white"/>
<path d="M214.409 40.8399L213.981 40.3671C213.751 40.5496 213.511 40.7196 213.263 40.8763V37.976H214.063V37.3305H213.209V35.0212H212.572V37.276H211.854V37.9306H212.572V41.2672C212.336 41.3763 212.063 41.5218 211.772 41.6854H211.699L212.09 42.2037C212.873 41.8224 213.614 41.3591 214.3 40.8217L214.409 40.8399Z" fill="white"/>
<path d="M122.219 45.5039C122.555 45.4914 122.883 45.6032 123.142 45.8179C123.4 46.0327 123.57 46.3353 123.619 46.6677V46.7859H124.328V46.6131C124.258 46.1184 124.009 45.6665 123.629 45.3418C123.249 45.0172 122.764 44.8421 122.265 44.8493C121.978 44.8402 121.692 44.8895 121.425 44.9943C121.157 45.099 120.914 45.2569 120.71 45.4585C120.137 46.0222 120.137 46.5949 120.137 47.8678C120.137 49.1406 120.137 49.6861 120.71 50.268C120.908 50.4704 121.144 50.6317 121.404 50.7425C121.665 50.8533 121.945 50.9114 122.228 50.9135C122.736 50.9171 123.226 50.7337 123.607 50.3982C123.988 50.0628 124.232 49.5989 124.292 49.0951V48.9406H123.619V49.0951C123.573 49.4228 123.409 49.7225 123.158 49.9383C122.907 50.154 122.586 50.2712 122.255 50.268C122.064 50.2772 121.873 50.2464 121.695 50.1775C121.516 50.1086 121.354 50.0031 121.219 49.8679C120.892 49.4406 120.837 49.0951 120.837 47.8769C120.837 46.6586 120.837 46.2676 121.228 45.8949C121.495 45.6399 121.85 45.4996 122.219 45.5039V45.5039Z" fill="white"/>
<path d="M126.074 46.6767C125.858 46.6731 125.643 46.7122 125.441 46.7918C125.24 46.8713 125.057 46.9898 124.901 47.1404C124.563 47.6243 124.382 48.2003 124.382 48.7906C124.382 49.3808 124.563 49.9568 124.901 50.4407C125.055 50.5946 125.238 50.7159 125.439 50.7971C125.641 50.8784 125.857 50.9179 126.074 50.9135C126.291 50.9228 126.507 50.8881 126.71 50.8115C126.914 50.735 127.099 50.6181 127.256 50.468C127.597 49.987 127.78 49.412 127.78 48.8224C127.78 48.2328 127.597 47.6578 127.256 47.1768C126.943 46.8604 126.519 46.6807 126.074 46.6767V46.6767ZM127.101 48.7406C127.132 48.9476 127.122 49.1588 127.07 49.3618C127.019 49.5647 126.927 49.7554 126.801 49.9225C126.611 50.1021 126.359 50.2022 126.097 50.2022C125.835 50.2022 125.583 50.1021 125.392 49.9225C125.192 49.5606 125.088 49.1539 125.088 48.7406C125.088 48.3272 125.192 47.9205 125.392 47.5586C125.483 47.4631 125.593 47.3884 125.716 47.3397C125.838 47.291 125.97 47.2696 126.101 47.2768C126.364 47.2781 126.615 47.3826 126.801 47.5677V47.5677C126.926 47.7456 127.015 47.9465 127.061 48.1587C127.108 48.3709 127.112 48.5903 127.074 48.8042L127.101 48.7406Z" fill="white"/>
<path d="M132.256 46.6768C132.009 46.672 131.764 46.7226 131.539 46.8248C131.314 46.9271 131.115 47.0785 130.956 47.2678C130.811 47.0763 130.623 46.9226 130.406 46.8197C130.189 46.7168 129.95 46.6678 129.711 46.6768C129.343 46.6689 128.982 46.7806 128.683 46.995V46.7314H128.02V50.8499H128.701V48.3315C128.667 48.0995 128.723 47.8631 128.859 47.6716C128.994 47.4802 129.198 47.3485 129.429 47.3042H129.647C130.253 47.3042 130.556 47.6496 130.556 48.3406V50.8681H131.238V48.2588C131.237 48.0312 131.322 47.8115 131.475 47.6432C131.628 47.4749 131.839 47.3701 132.065 47.3496H132.193C132.802 47.3496 133.102 47.686 133.102 48.377V50.9136H133.784V48.2588C133.811 47.8685 133.683 47.4831 133.428 47.1867C133.172 46.8904 132.81 46.7071 132.42 46.6768H132.256Z" fill="white"/>
<path d="M138.475 46.6768C138.227 46.6718 137.981 46.7232 137.756 46.8271C137.531 46.9311 137.332 47.0849 137.175 47.2769C137.035 47.0796 136.847 46.921 136.63 46.816C136.412 46.711 136.171 46.6632 135.929 46.6768C135.562 46.6715 135.202 46.7829 134.902 46.9951V46.7314H134.22V50.8499H134.902V48.3315C134.867 48.0995 134.924 47.8631 135.059 47.6716C135.195 47.4802 135.399 47.3485 135.629 47.3042C135.705 47.2947 135.781 47.2947 135.857 47.3042C136.466 47.3042 136.766 47.6497 136.766 48.3406V50.8681H137.493V48.2588C137.492 48.0298 137.578 47.8089 137.733 47.6403C137.888 47.4718 138.101 47.368 138.33 47.3496H138.457C139.066 47.3496 139.366 47.686 139.366 48.377V50.9136H140.039V48.2588C140.054 48.0653 140.03 47.8707 139.97 47.6863C139.909 47.5019 139.813 47.3313 139.686 47.1843C139.559 47.0373 139.405 46.9168 139.231 46.8297C139.058 46.7426 138.869 46.6907 138.675 46.6768H138.457H138.475Z" fill="white"/>
<path d="M141.939 46.6768C141.499 46.6701 141.075 46.8366 140.757 47.1405C140.424 47.6264 140.246 48.2016 140.246 48.7906C140.246 49.3797 140.424 49.9549 140.757 50.4408C141.075 50.738 141.494 50.9033 141.93 50.9033C142.365 50.9033 142.784 50.738 143.103 50.4408C143.436 49.9549 143.614 49.3797 143.614 48.7906C143.614 48.2016 143.436 47.6264 143.103 47.1405C142.788 46.8435 142.372 46.6776 141.939 46.6768V46.6768ZM141.939 47.3223C142.066 47.3191 142.192 47.3424 142.31 47.391C142.427 47.4395 142.533 47.5122 142.621 47.6042C142.826 47.9658 142.934 48.3747 142.934 48.7906C142.934 49.2066 142.826 49.6155 142.621 49.9771C142.43 50.1522 142.18 50.2493 141.921 50.2493C141.661 50.2493 141.412 50.1522 141.221 49.9771C140.973 49.636 140.869 49.212 140.93 48.7952C140.9 48.5861 140.912 48.3732 140.965 48.1688C141.018 47.9644 141.111 47.7725 141.239 47.6042C141.328 47.5098 141.437 47.4358 141.558 47.3872C141.679 47.3386 141.809 47.3165 141.939 47.3223V47.3223Z" fill="white"/>
<path d="M145.557 46.6768C145.189 46.6676 144.828 46.7794 144.53 46.995V46.7313H143.848V50.8499H144.53V48.3315C144.488 48.0953 144.54 47.8519 144.676 47.6543C144.813 47.4567 145.021 47.3211 145.257 47.2768H145.439C146.045 47.2768 146.348 47.6223 146.348 48.3133V50.8408H147.03V48.2588C147.058 47.8684 146.93 47.4831 146.674 47.1867C146.419 46.8903 146.057 46.707 145.666 46.6768H145.503H145.557Z" fill="white"/>
<path d="M152.603 44.8948L151.512 49.4224L150.294 44.8948H149.64L148.421 49.4224L147.358 45.0039L147.33 44.8948H146.594L148.085 50.8589H148.73L149.976 46.2858L151.203 50.8589H151.867L153.349 44.8948H152.603Z" fill="white"/>
<path d="M155.44 49.8408C155.319 49.9793 155.17 50.0895 155.001 50.1634C154.833 50.2372 154.651 50.273 154.467 50.2681C153.613 50.2681 153.385 49.6135 153.358 49.0134H156.086V48.6952C156.086 47.4497 155.44 46.6405 154.404 46.6405C153.367 46.6405 152.713 47.4315 152.713 48.6952C152.713 49.959 153.34 50.8136 154.531 50.8136C154.81 50.8235 155.089 50.7706 155.345 50.6589C155.601 50.5472 155.83 50.3795 156.013 50.1681L156.122 50.0681L155.604 49.668L155.44 49.8408ZM155.331 48.4134H153.34C153.342 48.2313 153.382 48.0517 153.458 47.8861C153.531 47.7081 153.658 47.5576 153.821 47.4564C153.984 47.3551 154.176 47.3082 154.367 47.3224C154.558 47.3075 154.748 47.3531 154.911 47.4526C155.075 47.5522 155.202 47.7007 155.276 47.877C155.325 48.0514 155.338 48.234 155.313 48.4134H155.331Z" fill="white"/>
<path d="M157.877 46.6768C157.596 46.6456 157.313 46.6899 157.056 46.8049C156.798 46.92 156.576 47.1018 156.413 47.3314L156.331 47.4314L156.849 47.8679L156.931 47.7406C157.031 47.595 157.168 47.4792 157.328 47.4056C157.488 47.3319 157.665 47.3032 157.84 47.3223C158.513 47.3223 158.804 47.5587 158.804 48.1224V48.4134H157.722C156.813 48.4134 156.24 48.8952 156.24 49.6589C156.243 49.9721 156.356 50.2744 156.558 50.5135C156.725 50.6623 156.922 50.7741 157.135 50.8415C157.348 50.9089 157.573 50.9304 157.795 50.9045C158.16 50.9245 158.523 50.8291 158.831 50.6317V50.859H159.504V48.077C159.513 47.4405 159.231 46.6768 157.877 46.6768ZM157.795 50.2681C157.031 50.2681 156.886 49.9771 156.886 49.6589C156.886 49.3407 156.977 49.0134 157.74 49.0134H158.804V49.3771C158.819 49.4899 158.81 49.6046 158.779 49.714C158.747 49.8235 158.694 49.9254 158.622 50.0135C158.39 50.2033 158.093 50.2947 157.795 50.2681V50.2681Z" fill="white"/>
<path d="M160.631 49.7043V44.8948H159.986V49.7134C159.955 49.9857 160.033 50.2592 160.204 50.4738C160.374 50.6885 160.623 50.827 160.895 50.8589H161.513V50.2225H161.086C160.74 50.2225 160.631 50.0952 160.631 49.7043Z" fill="white"/>
<path d="M162.222 45.504H161.55V46.7314H161.022V47.2769H161.55V49.6771C161.532 49.8124 161.542 49.9498 161.578 50.0813C161.614 50.2127 161.677 50.3355 161.762 50.4424C161.847 50.5492 161.952 50.6379 162.072 50.7033C162.191 50.7686 162.323 50.8092 162.459 50.8227H163.086V50.1862H162.668C162.359 50.1862 162.213 50.0317 162.213 49.6771V47.2769H163.123V46.7314H162.277L162.222 45.504Z" fill="white"/>
<path d="M164.959 46.6768C164.588 46.6663 164.224 46.7781 163.922 46.995V44.9403H163.259V50.9135H163.932V48.3315C163.897 48.0995 163.953 47.8631 164.089 47.6716C164.224 47.4801 164.429 47.3485 164.659 47.3041H164.886C165.492 47.3041 165.795 47.6496 165.795 48.3406V50.8681H166.486V48.2588C166.514 47.867 166.385 47.4803 166.127 47.1837C165.87 46.8871 165.505 46.7048 165.113 46.6768H164.959Z" fill="white"/>
<path d="M170.559 48.186H173.132V47.5223H170.559V45.5494H173.578V44.8948H169.85V50.8589H173.578V50.2043H170.559V48.186Z" fill="white"/>
<path d="M176.233 49.8316C176.127 49.9727 175.99 50.0873 175.832 50.1662C175.674 50.2451 175.5 50.2862 175.324 50.2862C175.147 50.2862 174.973 50.2451 174.815 50.1662C174.658 50.0873 174.52 49.9727 174.414 49.8316C174.253 49.5116 174.169 49.1581 174.169 48.7997C174.169 48.4412 174.253 48.0878 174.414 47.7678C174.518 47.6233 174.654 47.5055 174.813 47.4242C174.971 47.343 175.146 47.3006 175.324 47.3006C175.501 47.3006 175.677 47.343 175.835 47.4242C175.993 47.5055 176.129 47.6233 176.233 47.7678L176.324 47.8678L176.824 47.4405L176.715 47.2768C176.553 47.0711 176.346 46.9062 176.109 46.7956C175.872 46.685 175.612 46.6319 175.351 46.6404C175.09 46.638 174.832 46.6918 174.593 46.7981C174.355 46.9045 174.142 47.0608 173.97 47.2566C173.797 47.4524 173.669 47.683 173.594 47.9328C173.518 48.1826 173.497 48.4457 173.533 48.7042C173.498 48.965 173.519 49.2301 173.594 49.4822C173.669 49.7343 173.797 49.9676 173.968 50.1669C174.14 50.3661 174.352 50.5267 174.59 50.6382C174.829 50.7496 175.088 50.8094 175.351 50.8135C175.612 50.822 175.872 50.7689 176.109 50.6583C176.346 50.5477 176.553 50.3829 176.715 50.1771L176.815 50.068L176.351 49.6589L176.233 49.8316Z" fill="white"/>
<path d="M178.342 46.6768C177.908 46.6729 177.49 46.8394 177.178 47.1405C176.845 47.6263 176.667 48.2016 176.667 48.7906C176.667 49.3796 176.845 49.9549 177.178 50.4407C177.497 50.7379 177.916 50.9032 178.351 50.9032C178.787 50.9032 179.206 50.7379 179.524 50.4407C179.857 49.9549 180.035 49.3796 180.035 48.7906C180.035 48.2016 179.857 47.6263 179.524 47.1405C179.206 46.8374 178.781 46.671 178.342 46.6768V46.6768ZM177.678 50.0043C177.482 49.6398 177.379 49.2321 177.379 48.8179C177.379 48.4037 177.482 47.996 177.678 47.6314C177.869 47.4518 178.121 47.3517 178.383 47.3517C178.645 47.3517 178.897 47.4518 179.088 47.6314V47.6314C179.283 47.9967 179.384 48.4048 179.382 48.819C179.381 49.2332 179.276 49.6405 179.078 50.0043C178.888 50.1814 178.638 50.2798 178.378 50.2798C178.119 50.2798 177.868 50.1814 177.678 50.0043Z" fill="white"/>
<path d="M181.979 46.6768C181.611 46.6676 181.25 46.7794 180.951 46.995V46.7313H180.269V50.8499H180.951V48.3315C180.917 48.0995 180.973 47.863 181.108 47.6716C181.244 47.4801 181.448 47.3485 181.679 47.3041H181.897C182.506 47.3041 182.806 47.6496 182.806 48.3406V50.8681H183.488V48.2588C183.499 48.0444 183.465 47.8301 183.388 47.6297C183.312 47.4293 183.194 47.2471 183.042 47.095C182.757 46.8207 182.375 46.6704 181.979 46.6768V46.6768Z" fill="white"/>
<path d="M185.443 46.6767C185.226 46.6731 185.011 46.7122 184.81 46.7918C184.609 46.8713 184.425 46.9898 184.27 47.1404C183.932 47.6243 183.751 48.2003 183.751 48.7906C183.751 49.3808 183.932 49.9568 184.27 50.4407C184.585 50.7393 185.004 50.9057 185.438 50.9057C185.873 50.9057 186.291 50.7393 186.606 50.4407C186.948 49.9583 187.132 49.3817 187.132 48.7906C187.132 48.1994 186.948 47.6228 186.606 47.1404C186.294 46.8402 185.876 46.6738 185.443 46.6767V46.6767ZM185.443 47.3223C185.573 47.3164 185.702 47.3385 185.823 47.3871C185.944 47.4357 186.053 47.5097 186.143 47.6041C186.339 47.9687 186.442 48.3764 186.442 48.7906C186.442 49.2047 186.339 49.6124 186.143 49.977C185.952 50.1567 185.7 50.2567 185.438 50.2567C185.176 50.2567 184.924 50.1567 184.733 49.977C184.483 49.6372 184.375 49.2131 184.433 48.7951C184.379 48.3744 184.486 47.9487 184.733 47.6041C184.824 47.5085 184.935 47.4338 185.057 47.3852C185.179 47.3365 185.311 47.315 185.443 47.3223V47.3223Z" fill="white"/>
<path d="M191.625 46.6767C191.377 46.6717 191.131 46.7231 190.906 46.827C190.681 46.931 190.482 47.0848 190.325 47.2768C190.183 47.0813 189.995 46.9241 189.778 46.8193C189.56 46.7146 189.32 46.6656 189.079 46.6767C188.709 46.6701 188.346 46.7815 188.043 46.9949V46.7313H187.37V50.8498H188.043V48.3314C188.008 48.0994 188.064 47.863 188.2 47.6715C188.335 47.48 188.54 47.3484 188.77 47.3041H188.997C189.604 47.3041 189.907 47.6495 189.907 48.3405V50.868H190.579V48.2587C190.578 48.0339 190.66 47.8166 190.809 47.6487C190.959 47.4808 191.165 47.3742 191.389 47.3495H191.534C192.152 47.3495 192.443 47.6859 192.443 48.3769V50.9134H193.116V48.2587C193.133 48.0476 193.106 47.8353 193.038 47.635C192.969 47.4348 192.859 47.2509 192.716 47.0949C192.418 46.823 192.028 46.6736 191.625 46.6767V46.6767Z" fill="white"/>
<path d="M194.343 44.8948H193.571V45.6676H194.343V44.8948Z" fill="white"/>
<path d="M194.289 46.7313H193.607V50.8589H194.289V46.7313Z" fill="white"/>
<path d="M196.353 47.3222C196.528 47.3078 196.705 47.3397 196.864 47.4147C197.024 47.4897 197.161 47.6051 197.262 47.7495L197.353 47.8495L197.835 47.4222L197.744 47.3222C197.581 47.1109 197.369 46.942 197.127 46.8296C196.885 46.7173 196.619 46.6648 196.353 46.6767C196.092 46.6743 195.833 46.7281 195.595 46.8344C195.357 46.9407 195.144 47.0971 194.972 47.2929C194.799 47.4887 194.671 47.7193 194.595 47.9691C194.52 48.2189 194.499 48.482 194.534 48.7405C194.5 49.0013 194.52 49.2664 194.596 49.5185C194.671 49.7706 194.798 50.0039 194.97 50.2032C195.142 50.4024 195.354 50.563 195.592 50.6745C195.83 50.7859 196.09 50.8457 196.353 50.8498C196.617 50.8635 196.881 50.8128 197.122 50.7019C197.363 50.5911 197.573 50.4234 197.735 50.2134L197.825 50.1133L197.344 49.6769L197.253 49.777C197.146 49.9165 197.008 50.0295 196.85 50.1073C196.693 50.1851 196.519 50.2256 196.343 50.2256C196.168 50.2256 195.994 50.1851 195.837 50.1073C195.679 50.0295 195.541 49.9165 195.434 49.777C195.277 49.4557 195.195 49.1028 195.195 48.7451C195.195 48.3873 195.277 48.0344 195.434 47.7131C195.542 47.5753 195.682 47.4671 195.843 47.3987C196.003 47.3303 196.179 47.304 196.353 47.3222Z" fill="white"/>
<path d="M201.226 45.5494H204.235V44.8948H200.516V50.8589H201.226V48.2769H203.799V47.6132H201.226V45.5494Z" fill="white"/>
<path d="M205.69 46.6767C205.253 46.6714 204.832 46.8379 204.517 47.1404C204.184 47.6262 204.006 48.2015 204.006 48.7905C204.006 49.3796 204.184 49.9548 204.517 50.4407C204.833 50.7393 205.251 50.9057 205.685 50.9057C206.12 50.9057 206.538 50.7393 206.853 50.4407C207.191 49.9568 207.373 49.3808 207.373 48.7905C207.373 48.2003 207.191 47.6243 206.853 47.1404C206.7 46.9901 206.518 46.8717 206.318 46.7921C206.118 46.7125 205.905 46.6733 205.69 46.6767ZM206.717 48.7405C206.778 49.1574 206.673 49.5813 206.426 49.9224C206.234 50.1027 205.98 50.203 205.717 50.203C205.454 50.203 205.2 50.1027 205.008 49.9224C204.815 49.5583 204.714 49.1525 204.714 48.7405C204.714 48.3285 204.815 47.9228 205.008 47.5586C205.101 47.4631 205.213 47.3879 205.336 47.3378C205.46 47.2877 205.593 47.2638 205.726 47.2677C205.857 47.2629 205.987 47.2865 206.108 47.3367C206.229 47.3869 206.337 47.4626 206.426 47.5586V47.5586C206.672 47.9208 206.766 48.3643 206.69 48.7951L206.717 48.7405Z" fill="white"/>
<path d="M212.936 49.2498C212.971 49.4818 212.914 49.7182 212.779 49.9097C212.643 50.1011 212.439 50.2328 212.208 50.2771H211.981C211.227 50.2771 211.072 49.7316 211.072 49.2407V46.7314H210.399V47.1314C210.268 46.9906 210.106 46.8809 209.927 46.8102C209.748 46.7394 209.555 46.7094 209.363 46.7223C208.991 46.7037 208.625 46.8235 208.335 47.0587V46.7677H207.654V50.9135H208.335V48.3679C208.319 48.2463 208.327 48.1226 208.36 48.0043C208.393 47.886 208.449 47.7755 208.525 47.6795C208.602 47.5835 208.697 47.504 208.805 47.4457C208.913 47.3875 209.031 47.3517 209.154 47.3405H209.236C209.353 47.3281 209.472 47.3448 209.581 47.3892C209.69 47.4336 209.787 47.5043 209.863 47.5951L209.954 47.6951L210.399 47.2496V49.3134C210.387 49.5285 210.419 49.7438 210.494 49.9457C210.569 50.1476 210.686 50.3316 210.836 50.4862C210.983 50.6294 211.158 50.7399 211.351 50.8105C211.544 50.881 211.749 50.9099 211.954 50.8953C212.323 50.9133 212.687 50.8006 212.981 50.5771V50.859H213.627V46.7223H212.945L212.936 49.2498Z" fill="white"/>
<path d="M219.445 47.095C219.277 46.9468 219.081 46.8338 218.868 46.7626C218.655 46.6914 218.431 46.6634 218.207 46.6804C217.983 46.6973 217.765 46.7588 217.566 46.8612C217.366 46.9637 217.189 47.105 217.045 47.2769C216.9 47.0811 216.708 46.924 216.488 46.8194C216.268 46.7148 216.025 46.6658 215.782 46.6768C215.411 46.6693 215.049 46.7879 214.754 47.0132V46.7314H214.072V50.8499H214.754V48.3315C214.711 48.1005 214.758 47.8616 214.887 47.6649C215.016 47.4683 215.216 47.3292 215.445 47.2769H215.663C216.272 47.2769 216.572 47.6223 216.572 48.3133V50.8408H217.254V48.2588C217.253 48.034 217.335 47.8167 217.484 47.6488C217.634 47.4809 217.84 47.3743 218.064 47.3496H218.2C218.818 47.3496 219.109 47.686 219.109 48.3769V50.9135H219.836V48.2588C219.853 48.0485 219.826 47.8371 219.759 47.6372C219.692 47.4373 219.585 47.2529 219.445 47.095Z" fill="white"/>
<path d="M201.462 16.0651C201.462 7.41893 194.043 0.354697 184.815 0.00012207H183.506C174.269 0.354697 166.859 7.41893 166.859 16.0651C166.859 24.7113 174.269 31.821 183.506 32.1028H184.815C194.052 31.821 201.462 24.7204 201.462 16.0651ZM167.15 16.2106H172.523C172.543 18.2465 172.849 20.2695 173.433 22.2202H168.487C167.624 20.3331 167.169 18.2854 167.15 16.2106V16.2106ZM201.135 15.9196H195.834C195.814 13.7587 195.467 11.6132 194.807 9.55547H199.626C200.611 11.5342 201.14 13.7092 201.171 15.9196H201.135ZM195.498 15.9196H184.297V9.55547H194.534C195.204 11.611 195.55 13.7579 195.562 15.9196H195.498ZM184.297 9.20999V0.309239C188.734 0.391064 192.534 4.00955 194.389 9.20999H184.297ZM184.024 9.20999H173.923C175.742 4.05501 179.579 0.391064 184.024 0.309239V9.20999ZM184.024 9.5282V15.8924H172.796C172.808 13.7306 173.154 11.5837 173.823 9.5282H184.024ZM172.523 15.8924H167.15C167.174 13.682 167.699 11.5059 168.687 9.5282H173.496C172.852 11.5974 172.524 13.7523 172.523 15.9196V15.8924ZM172.832 16.1833H184.061V22.1929H173.76C173.149 20.2469 172.825 18.2226 172.796 16.1833H172.832ZM184.061 22.5475V31.821C179.515 31.7483 175.605 27.9661 173.842 22.5566L184.061 22.5475ZM184.343 22.5475H194.534C192.771 28.0025 188.861 31.7573 184.315 31.8119L184.343 22.5475ZM184.343 22.2293V16.2106H195.571C195.551 18.2465 195.245 20.2695 194.662 22.2202L184.343 22.2293ZM195.88 16.2197H201.208C201.189 18.2945 200.734 20.3421 199.871 22.2293H194.953C195.536 20.2787 195.842 18.2556 195.862 16.2197H195.88ZM199.517 9.21908H194.716C193.261 4.99145 190.516 1.81846 187.197 0.554714C189.772 0.957186 192.219 1.94733 194.349 3.44834C196.479 4.94934 198.235 6.92087 199.48 9.20999L199.517 9.21908ZM181.124 0.554714C177.797 1.81846 175.051 4.99145 173.623 9.20999H168.841C170.085 6.92 171.841 4.94777 173.971 3.44662C176.101 1.94547 178.549 0.955858 181.124 0.554714V0.554714ZM168.65 22.5384H173.478C174.887 26.9388 177.697 30.3118 181.124 31.5755C178.477 31.1659 175.966 30.1328 173.797 28.5615C171.628 26.9902 169.864 24.9257 168.65 22.5384V22.5384ZM187.197 31.5755C190.625 30.3118 193.434 26.9388 194.843 22.5384H199.662C198.451 24.9264 196.689 26.9917 194.522 28.5632C192.354 30.1348 189.843 31.1674 187.197 31.5755Z" fill="white"/>
<path d="M170.641 4.11859V3.06395L166.295 3.08214V4.1095H167.896L162.45 22.2928L157.904 4.09131H159.404L159.413 3.06395L151.431 3.03668V4.08222H152.831L156.085 15.9832L153.331 23.1656L148.648 4.06404H150.03V3.03668L142.148 3.02759V4.05495H143.603L150.276 28.8207L150.33 29.0298L152.222 29.0389L156.558 17.7288L159.604 28.8479L159.659 29.048L161.559 29.0571L169.068 4.1095L170.641 4.11859Z" fill="white"/>
<path d="M140.593 20.8473C140.405 21.7703 140.099 22.6655 139.684 23.5112C139.275 24.3293 138.748 25.0828 138.12 25.7477C137.502 26.4019 136.773 26.9407 135.966 27.3388C135.115 27.7436 134.18 27.9429 133.238 27.9207C132.129 27.9519 131.024 27.7698 129.983 27.3842C129.087 27.028 128.331 26.3897 127.829 25.5659C127.179 24.4463 126.753 23.2112 126.574 21.9292C126.267 19.981 126.127 18.01 126.156 16.0378C126.156 14.2195 126.228 12.5375 126.365 11.0374C126.453 9.71107 126.76 8.40848 127.274 7.18254C127.701 6.17163 128.42 5.31077 129.338 4.7096C130.497 4.04717 131.823 3.73161 133.156 3.80044C134.193 3.76482 135.223 3.9833 136.157 4.43685C136.963 4.8578 137.677 5.43586 138.257 6.137C138.791 6.82048 139.232 7.57274 139.566 8.37355C139.902 9.15543 140.202 9.93732 140.475 10.7556L140.539 10.9374H141.448V3.34585H140.43V3.56405C140.357 3.89135 140.257 3.96409 140.23 3.97318C140.024 4.07507 139.796 4.12501 139.566 4.11865C139.215 4.11059 138.869 4.04612 138.539 3.92772L137.093 3.43677C136.529 3.28221 135.929 3.14584 135.275 3.00946C134.599 2.86406 133.911 2.79091 133.22 2.79126C131.637 2.8 130.07 3.10849 128.601 3.70043C125.382 4.96331 122.758 7.39546 121.255 10.5101C120.415 12.2048 119.985 14.0735 120.001 15.9651C119.982 17.7426 120.355 19.5025 121.092 21.1201C121.792 22.6646 122.779 24.0622 124.001 25.2386C125.23 26.4052 126.667 27.3305 128.238 27.9661C129.812 28.6403 131.507 28.9898 133.22 28.9935C133.936 29.0042 134.651 28.9463 135.356 28.8207C136.029 28.6844 136.666 28.548 137.229 28.4025C137.793 28.257 138.257 28.1116 138.73 27.9752C139.232 27.7635 139.794 27.7409 140.311 27.9116C140.453 28.0294 140.56 28.1833 140.621 28.3571L140.693 28.5207H141.721V20.6019H140.693L140.593 20.8473Z" fill="white"/>
<path d="M199.08 3.30945V4.33681H202.271V27.4388H199.08V28.4661H211.045V27.4388H207.781V16.5287H209.845C210.496 16.5006 211.144 16.6284 211.736 16.9015C212.233 17.1503 212.67 17.5039 213.018 17.938C213.379 18.4212 213.656 18.9623 213.836 19.5381C214.063 20.1632 214.254 20.8007 214.409 21.4473V21.6655H215.318V10.3646H214.409V10.5737C214.271 11.2792 214.067 11.9702 213.8 12.6375C213.584 13.1993 213.277 13.7216 212.89 14.1831C212.513 14.5848 212.05 14.8957 211.536 15.0923C210.876 15.3377 210.176 15.4579 209.472 15.4468H207.781V4.3459H212.718C213.497 4.32574 214.274 4.449 215.009 4.70957C215.635 4.93529 216.211 5.28466 216.7 5.73693C217.207 6.22082 217.641 6.77501 217.991 7.38252C218.383 8.09809 218.726 8.83922 219.018 9.60089L219.091 9.77363H220V3.30945H199.08Z" fill="white"/>
<path d="M194.934 20.4655V20.5928C194.705 21.5406 194.36 22.4566 193.907 23.3203C193.495 24.1428 192.952 24.8922 192.298 25.5386C191.638 26.1967 190.851 26.7141 189.985 27.0595C189.119 27.4048 188.193 27.571 187.261 27.5479H181.806V16.4833H183.961C184.632 16.4556 185.3 16.5929 185.906 16.8834C186.41 17.1298 186.856 17.4799 187.215 17.9107C187.582 18.4145 187.868 18.9729 188.061 19.5654C188.279 20.2018 188.47 20.8382 188.625 21.4837V21.611H189.361V10.4828H188.625V10.6192C188.476 11.339 188.266 12.0447 187.997 12.7285C187.782 13.2987 187.475 13.8299 187.088 14.3013C186.703 14.7472 186.221 15.0987 185.679 15.3287C185.018 15.5559 184.322 15.6607 183.624 15.6378H181.806V4.23683H187.988C188.956 4.20368 189.916 4.41638 190.779 4.85506C191.492 5.23322 192.125 5.74571 192.643 6.36428C193.099 6.88361 193.479 7.46526 193.77 8.0917C193.996 8.57251 194.191 9.06754 194.352 9.57364V9.70093H195.089V3.41858H173.269V4.23683H176.442V27.5479H172.905V28.3661H195.68V20.4655H194.934Z" fill="#D60C18"/>
</svg>
