<svg width="220" height="50" viewBox="0 0 220 50" fill="none" xmlns="http://www.w3.org/2000/svg">
<path d="M2.22862 34.8027C2.55861 34.8006 2.87816 34.9182 3.12803 35.1338C3.37789 35.3493 3.54111 35.6482 3.58742 35.9749V36.0897H4.30988V35.9223C4.2499 35.4179 4.00067 34.955 3.61255 34.6273C3.22444 34.2996 2.72639 34.1314 2.21905 34.1568C1.93653 34.154 1.65624 34.2071 1.3943 34.313C1.13237 34.4189 0.893963 34.5756 0.692794 34.774C0.118652 35.3386 0.118652 35.9223 0.118652 37.1758C0.118652 38.4294 0.118652 39.0131 0.683225 39.5681C1.09051 39.9679 1.63878 40.1913 2.20948 40.1901C2.71769 40.2181 3.21751 40.0517 3.60756 39.7247C3.99762 39.3977 4.2487 38.9347 4.30988 38.4294V38.2763H3.62091V38.3815C3.5797 38.6337 3.47009 38.8698 3.30403 39.0641C3.13796 39.2583 2.9218 39.4033 2.67906 39.4832C2.43633 39.5631 2.17632 39.5749 1.92734 39.5174C1.67835 39.4598 1.44993 39.335 1.26694 39.1566C0.893743 38.7882 0.869821 38.372 0.869821 37.1806C0.869821 35.9893 0.869821 35.5826 1.26694 35.2142C1.52066 34.9555 1.86633 34.8076 2.22862 34.8027Z" fill="#595757"/>
<path d="M6.07535 35.9845C5.85928 35.9815 5.64484 36.0223 5.44501 36.1046C5.24517 36.1868 5.06409 36.3087 4.91272 36.4629C4.57512 36.9454 4.39404 37.52 4.39404 38.1088C4.39404 38.6976 4.57512 39.2722 4.91272 39.7547C5.06604 39.9089 5.24883 40.0308 5.45021 40.113C5.65158 40.1952 5.86744 40.236 6.08492 40.2331C6.30172 40.2362 6.5169 40.1954 6.71753 40.1132C6.91815 40.031 7.10007 39.909 7.25234 39.7547C7.44401 39.5276 7.58878 39.2649 7.6783 38.9815C7.76781 38.6982 7.80029 38.4 7.77385 38.104C7.7998 37.8096 7.76706 37.5129 7.67754 37.2312C7.58802 36.9495 7.4435 36.6884 7.25234 36.4629C7.09947 36.3067 6.91609 36.1836 6.7136 36.1013C6.51112 36.019 6.29386 35.9792 6.07535 35.9845ZM7.11838 38.0753C7.17012 38.4961 7.0626 38.9211 6.81695 39.2666C6.62455 39.4398 6.37487 39.5356 6.11602 39.5356C5.85718 39.5356 5.60749 39.4398 5.41509 39.2666C5.16727 38.9221 5.05953 38.4963 5.11367 38.0753C5.06193 37.6545 5.16944 37.2295 5.41509 36.884C5.60327 36.7024 5.85454 36.601 6.11602 36.601C6.3775 36.601 6.62877 36.7024 6.81695 36.884C7.05777 37.2383 7.15049 37.6727 7.07531 38.0944L7.11838 38.0753Z" fill="#595757"/>
<path d="M12.2569 35.9844C12.0087 35.98 11.7628 36.031 11.5368 36.1336C11.3109 36.2363 11.1106 36.388 10.9507 36.5777C10.8098 36.3824 10.6219 36.2257 10.4046 36.122C10.1872 36.0183 9.94718 35.971 9.70671 35.9844C9.33208 35.9705 8.96399 36.0854 8.66368 36.3098V36.037H8.02734V40.2139H8.70674V37.6016C8.66483 37.3701 8.71629 37.1314 8.84989 36.9377C8.98348 36.744 9.18833 36.6112 9.41964 36.5681C9.49909 36.5585 9.57941 36.5585 9.65886 36.5681C10.2617 36.5681 10.5775 36.9126 10.5775 37.6111V40.1421H11.2569V37.6016C11.2451 37.4853 11.2568 37.3678 11.2914 37.2561C11.3259 37.1444 11.3826 37.0408 11.4581 36.9515C11.5335 36.8622 11.6262 36.789 11.7306 36.7363C11.8349 36.6836 11.9488 36.6524 12.0655 36.6447H12.2042C12.8214 36.6447 13.1372 36.9892 13.1372 37.6877V40.2378H13.8022V37.6016C13.8138 37.3875 13.7811 37.1734 13.7062 36.9725C13.6313 36.7716 13.5158 36.5884 13.3669 36.4342C13.0691 36.146 12.6712 35.9848 12.2569 35.9844V35.9844Z" fill="#595757"/>
<path d="M18.4719 35.9844C18.2252 35.9804 17.9807 36.0317 17.7564 36.1343C17.5321 36.237 17.3335 36.3884 17.1753 36.5777C17.0333 36.3847 16.846 36.2296 16.6299 36.1261C16.4137 36.0226 16.1755 35.974 15.9361 35.9844C15.5599 35.9698 15.19 36.0847 14.8883 36.3098V36.0371H14.2089V40.2139H14.8883V37.6016C14.8476 37.3702 14.8996 37.1322 15.033 36.9388C15.1664 36.7455 15.3705 36.6123 15.6012 36.5681C15.6806 36.5586 15.7609 36.5586 15.8404 36.5681C16.4576 36.5681 16.7686 36.9126 16.7686 37.6112V40.1422H17.448V37.6016C17.4368 37.4854 17.449 37.3682 17.4839 37.2567C17.5187 37.1453 17.5754 37.042 17.6508 36.9529C17.7261 36.8637 17.8185 36.7905 17.9225 36.7376C18.0266 36.6847 18.1401 36.6531 18.2566 36.6447H18.4001C19.0173 36.6447 19.3187 36.9892 19.3187 37.6877V40.2379H19.9981V37.6016C20.0286 37.2161 19.9053 36.8342 19.6552 36.5393C19.4051 36.2444 19.0485 36.0604 18.6632 36.0275H18.4479L18.4719 35.9844Z" fill="#595757"/>
<path d="M21.9408 35.9845C21.7232 35.9805 21.507 36.0208 21.3055 36.1031C21.104 36.1854 20.9213 36.3078 20.7686 36.463C20.3874 36.9206 20.2033 37.5108 20.2567 38.1041C20.2023 38.7003 20.3863 39.2939 20.7686 39.7547C20.9213 39.9099 21.104 40.0323 21.3055 40.1146C21.507 40.1969 21.7232 40.2372 21.9408 40.2332C22.1563 40.2372 22.3704 40.1968 22.5696 40.1145C22.7688 40.0322 22.9489 39.9097 23.0987 39.7547C23.2922 39.5288 23.4381 39.2662 23.5278 38.9826C23.6174 38.6989 23.6488 38.4001 23.6202 38.1041C23.6488 37.808 23.6174 37.5092 23.5278 37.2256C23.4381 36.9419 23.2922 36.6793 23.0987 36.4534C22.9467 36.302 22.766 36.1824 22.5672 36.1019C22.3683 36.0214 22.1554 35.9815 21.9408 35.9845V35.9845ZM21.9408 36.6209C22.2006 36.6251 22.4496 36.7257 22.6394 36.9032C22.9024 37.2411 23.0211 37.6694 22.9695 38.0945C23.0236 38.5155 22.9159 38.9413 22.6681 39.2858C22.4757 39.459 22.226 39.5548 21.9672 39.5548C21.7083 39.5548 21.4586 39.459 21.2662 39.2858C21.0288 38.9352 20.8952 38.5246 20.8808 38.1014C20.8664 37.6782 20.9718 37.2595 21.1849 36.8936C21.2848 36.7978 21.4038 36.7241 21.534 36.6771C21.6642 36.6301 21.8028 36.611 21.9408 36.6209V36.6209Z" fill="#595757"/>
<path d="M25.553 35.9845C25.1951 35.9745 24.8449 36.0896 24.5626 36.3098V36.0371H23.8737V40.214H24.5626V37.6016C24.5626 36.9462 24.8975 36.5586 25.5195 36.5586C26.1415 36.5586 26.4764 36.9031 26.4764 37.6016V40.1326H27.2085V37.6016C27.2234 37.4081 27.1998 37.2136 27.1389 37.0293C27.078 36.845 26.981 36.6747 26.8537 36.5282C26.7264 36.3818 26.5712 36.2621 26.3972 36.1761C26.2232 36.0901 26.0338 36.0396 25.8401 36.0275H25.62L25.553 35.9845Z" fill="#595757"/>
<path d="M32.6053 34.1998L31.5097 38.7308L30.3183 34.3003L30.2944 34.1998H29.6389L28.4285 38.7308L27.3519 34.3003L27.3328 34.1998H26.5864L28.084 40.1613H28.7299L29.9643 35.5969L31.2035 40.1613H31.8542L33.3374 34.1998H32.6053Z" fill="#595757"/>
<path d="M35.4092 39.1374C35.2918 39.2758 35.1449 39.3863 34.9794 39.4608C34.8138 39.5353 34.6338 39.5719 34.4523 39.568C33.5958 39.568 33.4092 38.9221 33.3375 38.324H36.012V37.9987C36.012 36.7595 35.3613 35.9844 34.3279 35.9844C33.2944 35.9844 32.6581 36.7786 32.6581 38.0752C32.6581 39.3718 33.2849 40.1613 34.4236 40.1613C34.6983 40.168 34.9713 40.1155 35.2239 40.0074C35.4765 39.8992 35.7029 39.7379 35.8876 39.5345L36.0025 39.4197L35.4809 39.013L35.4092 39.1374ZM35.3135 37.702H33.3375C33.3291 37.5205 33.3601 37.3393 33.4284 37.1709C33.5039 37.0025 33.6265 36.8595 33.7814 36.7592C33.9363 36.6589 34.117 36.6055 34.3016 36.6055C34.4861 36.6055 34.6668 36.6589 34.8217 36.7592C34.9766 36.8595 35.0992 37.0025 35.1747 37.1709C35.2539 37.3425 35.2994 37.5277 35.3087 37.7164L35.3135 37.702Z" fill="#595757"/>
<path d="M37.8683 35.9844C37.5933 35.9557 37.3156 36.0003 37.0635 36.1138C36.8114 36.2272 36.5938 36.4055 36.433 36.6304L36.3468 36.7356L36.8444 37.1758L36.9306 37.0514C37.0308 36.8942 37.1747 36.7697 37.3447 36.6932C37.5147 36.6167 37.7033 36.5916 37.8875 36.6208C38.5669 36.6208 38.8444 36.8504 38.8444 37.4246V37.7164H37.7152C36.8062 37.7164 36.232 38.1949 36.232 38.9604C36.2263 39.2734 36.341 39.5766 36.5526 39.8073C36.72 39.9586 36.9186 40.0714 37.1344 40.1375C37.3502 40.2037 37.5779 40.2216 37.8013 40.19C38.1702 40.2239 38.5393 40.1274 38.8444 39.9173V40.147H39.5238V37.372C39.4998 36.7452 39.2367 35.9844 37.8683 35.9844ZM38.8252 38.6494C38.8398 38.7619 38.8317 38.8762 38.8013 38.9856C38.7709 39.0949 38.7188 39.197 38.6482 39.2858C38.5305 39.385 38.394 39.4595 38.2468 39.5047C38.0997 39.5499 37.9449 39.565 37.7918 39.5489C37.0262 39.5489 36.9258 39.2427 36.9258 38.9317C36.9258 38.6207 37.0023 38.2762 37.7631 38.2762H38.8109L38.8252 38.6494Z" fill="#595757"/>
<path d="M40.6147 39.013V34.1998H39.9401V39.0226C39.927 39.1602 39.9415 39.299 39.9827 39.4309C40.0239 39.5628 40.0911 39.6851 40.1802 39.7907C40.2693 39.8963 40.3786 39.9831 40.5017 40.0459C40.6248 40.1087 40.7592 40.1463 40.897 40.1565H41.4855V39.525H41.0549C40.7439 39.525 40.6147 39.4006 40.6147 39.013Z" fill="#595757"/>
<path d="M42.2366 34.8026H41.5572V36.037H41.0261V36.6112H41.5572V39.0034C41.5434 39.1416 41.5573 39.2812 41.5982 39.4139C41.6391 39.5467 41.706 39.6699 41.7952 39.7764C41.8843 39.8829 41.9938 39.9706 42.1173 40.0342C42.2407 40.0978 42.3756 40.1361 42.5141 40.1469H43.0643V39.5249H42.6433C42.3323 39.5249 42.1935 39.367 42.1935 39.0465V36.6542H43.0643V36.0801H42.2127L42.2366 34.8026Z" fill="#595757"/>
<path d="M44.9208 35.9845C44.5461 35.9698 44.1777 36.0847 43.8778 36.3098V34.219H43.1984V40.1901H43.8778V37.6064C43.8358 37.3749 43.8873 37.1362 44.0209 36.9426C44.1545 36.7489 44.3594 36.616 44.5907 36.573C44.6685 36.5634 44.7472 36.5634 44.8251 36.573C45.4327 36.573 45.7437 36.9175 45.7437 37.616V40.147H46.4136V37.6016C46.4375 37.4104 46.4226 37.2163 46.3698 37.0309C46.3171 36.8455 46.2275 36.6726 46.1065 36.5226C45.9855 36.3726 45.8355 36.2485 45.6655 36.1576C45.4955 36.0668 45.3089 36.0112 45.117 35.9941C45.0518 35.9865 44.9863 35.9833 44.9208 35.9845V35.9845Z" fill="#595757"/>
<path d="M50.5426 37.4868H53.1118V36.8313H50.5426V34.8553H53.5568V34.1998H49.8392V40.1613H53.5568V39.5059H50.5426V37.4868Z" fill="#595757"/>
<path d="M56.2121 39.1279C56.1251 39.2464 56.0155 39.3466 55.8896 39.4226C55.7638 39.4986 55.6241 39.5489 55.4787 39.5707C55.3332 39.5925 55.1849 39.5853 55.0423 39.5496C54.8997 39.5138 54.7655 39.4502 54.6476 39.3623C54.5591 39.2953 54.4802 39.2164 54.4132 39.1279C54.2556 38.8028 54.1738 38.4462 54.1738 38.0849C54.1738 37.7236 54.2556 37.367 54.4132 37.0419C54.519 36.9039 54.6552 36.7922 54.8112 36.7153C54.9672 36.6384 55.1388 36.5984 55.3127 36.5984C55.4865 36.5984 55.6581 36.6384 55.8141 36.7153C55.9701 36.7922 56.1063 36.9039 56.2121 37.0419L56.3078 37.1471L56.7863 36.7069L56.6906 36.6065C56.5327 36.4085 56.3305 36.2504 56.1003 36.1448C55.8701 36.0393 55.6183 35.9893 55.3653 35.9988C54.2361 35.9988 53.5376 36.8122 53.5376 38.0897C53.5376 39.3671 54.2361 40.1757 55.3653 40.1757C55.6278 40.1881 55.8894 40.1366 56.1277 40.0258C56.366 39.915 56.5739 39.7481 56.7337 39.5394L56.8293 39.4341L56.3509 39.0083L56.2121 39.1279Z" fill="#595757"/>
<path d="M58.3318 35.9845C58.1151 35.9819 57.9 36.0229 57.6995 36.1051C57.4989 36.1873 57.317 36.309 57.1644 36.4629C56.8221 36.9435 56.6382 37.5188 56.6382 38.1088C56.6382 38.6988 56.8221 39.2741 57.1644 39.7546C57.4798 40.0493 57.8954 40.2132 58.327 40.2132C58.7586 40.2132 59.1742 40.0493 59.4896 39.7546C59.8757 39.2953 60.0648 38.7021 60.0159 38.104C60.0782 37.5154 59.9063 36.9259 59.5375 36.4629C59.3817 36.3026 59.1937 36.177 58.9859 36.0946C58.7781 36.0121 58.5551 35.9746 58.3318 35.9845V35.9845ZM59.3748 38.0753C59.4289 38.4963 59.3212 38.9221 59.0734 39.2666C58.8804 39.4425 58.6287 39.5399 58.3677 39.5399C58.1066 39.5399 57.8549 39.4425 57.662 39.2666C57.4213 38.9188 57.3142 38.4957 57.3605 38.0753C57.3135 37.6578 57.4207 37.2375 57.662 36.8935C57.7541 36.7981 57.865 36.7229 57.9877 36.6727C58.1105 36.6224 58.2423 36.5983 58.3748 36.6017C58.505 36.6002 58.6341 36.6254 58.7542 36.6756C58.8743 36.7257 58.9829 36.7999 59.0734 36.8935V36.8935C59.3134 37.2446 59.4077 37.6751 59.3365 38.0944L59.3748 38.0753Z" fill="#595757"/>
<path d="M61.9584 35.9844C61.5822 35.9698 61.2123 36.0846 60.9106 36.3097V36.037H60.2886V40.2139H60.968V37.6016C60.9261 37.37 60.9775 37.1314 61.1111 36.9377C61.2447 36.744 61.4496 36.6111 61.6809 36.5681C61.7603 36.5586 61.8406 36.5586 61.9201 36.5681C62.5373 36.5681 62.8483 36.9126 62.8483 37.6111V40.1421H63.5277V37.6016C63.5369 37.3873 63.5027 37.1735 63.427 36.9728C63.3514 36.7722 63.2359 36.5889 63.0875 36.4341C62.9401 36.2858 62.7639 36.1694 62.5696 36.092C62.3754 36.0147 62.1673 35.978 61.9584 35.9844V35.9844Z" fill="#595757"/>
<path d="M65.4128 35.9845C65.1961 35.9819 64.9811 36.023 64.7805 36.1052C64.58 36.1874 64.398 36.309 64.2454 36.4629C64.0542 36.6884 63.9097 36.9495 63.8202 37.2312C63.7307 37.5129 63.6979 37.8096 63.7239 38.104C63.6974 38.4 63.7299 38.6982 63.8194 38.9815C63.909 39.2649 64.0537 39.5276 64.2454 39.7547C64.5632 40.0503 64.9812 40.2146 65.4152 40.2146C65.8493 40.2146 66.2672 40.0503 66.585 39.7547C66.9631 39.2911 67.1496 38.7006 67.1065 38.104C67.1568 37.5095 66.9692 36.9194 66.585 36.4629C66.4311 36.3095 66.2481 36.1883 66.0469 36.1061C65.8457 36.024 65.6302 35.9826 65.4128 35.9845V35.9845ZM66.4606 38.0753C66.5174 38.4971 66.4075 38.9245 66.1544 39.2667C65.9628 39.4395 65.7139 39.5351 65.4559 39.5351C65.1978 39.5351 64.949 39.4395 64.7573 39.2667C64.506 38.9236 64.3964 38.497 64.4511 38.0753C64.4042 37.6617 64.5172 37.2457 64.7669 36.9127C64.9515 36.7298 65.2008 36.6272 65.4607 36.6272C65.7205 36.6272 65.9698 36.7298 66.1544 36.9127V36.9127C66.385 37.2605 66.474 37.6832 66.4032 38.0945L66.4606 38.0753Z" fill="#595757"/>
<path d="M71.5991 35.9843C71.351 35.9799 71.105 36.0309 70.8791 36.1335C70.6531 36.2362 70.4529 36.3878 70.2929 36.5776C70.1496 36.3848 69.9614 36.23 69.7446 36.1266C69.5278 36.0232 69.289 35.9743 69.049 35.9843C68.6743 35.9704 68.3062 36.0853 68.0059 36.3097V36.0369H67.3265V40.2138H68.0059V37.6015C67.964 37.37 68.0155 37.1313 68.1491 36.9376C68.2827 36.7439 68.4875 36.6111 68.7188 36.568C68.7967 36.5584 68.8754 36.5584 68.9533 36.568C69.5609 36.568 69.8767 36.9125 69.8767 37.611V40.142H70.5513V37.6015C70.5408 37.485 70.5537 37.3677 70.589 37.2562C70.6244 37.1448 70.6816 37.0416 70.7573 36.9525C70.833 36.8634 70.9257 36.7903 71.03 36.7374C71.1343 36.6846 71.2481 36.653 71.3647 36.6446H71.5034C72.1206 36.6446 72.422 36.9891 72.422 37.6876V40.2377H73.1254V37.6015C73.1404 37.4091 73.1172 37.2157 73.0572 37.0323C72.9972 36.8489 72.9015 36.6792 72.7757 36.5329C72.6498 36.3866 72.4963 36.2666 72.324 36.1799C72.1516 36.0931 71.9638 36.0413 71.7713 36.0274H71.5656L71.5991 35.9843Z" fill="#595757"/>
<path d="M74.2641 36.0371H73.5847V40.1614H74.2641V36.0371Z" fill="#595757"/>
<path d="M74.3167 34.1998H73.5416V34.9749H74.3167V34.1998Z" fill="#595757"/>
<path d="M81.1873 34.8553H84.2063V34.1998H80.4888V40.1613H81.1873V37.5825H83.7566V36.9222H81.1873V34.8553Z" fill="#595757"/>
<path d="M85.6465 35.9845C85.4297 35.982 85.2147 36.023 85.0142 36.1052C84.8136 36.1874 84.6316 36.3091 84.479 36.463C84.2877 36.6883 84.143 36.9494 84.0535 37.2311C83.9639 37.5129 83.9313 37.8096 83.9575 38.1041C83.9311 38.4 83.9636 38.6983 84.0531 38.9816C84.1426 39.2649 84.2874 39.5277 84.479 39.7547C84.7953 40.0497 85.2116 40.2137 85.6441 40.2137C86.0765 40.2137 86.4929 40.0497 86.8091 39.7547C87.0008 39.5277 87.1455 39.2649 87.2351 38.9816C87.3246 38.6983 87.357 38.4 87.3306 38.1041C87.3568 37.8096 87.3242 37.5129 87.2347 37.2311C87.1451 36.9494 87.0005 36.6883 86.8091 36.463C86.6577 36.3088 86.4766 36.1869 86.2768 36.1046C86.077 36.0224 85.8625 35.9815 85.6465 35.9845ZM86.6943 38.0754C86.7465 38.4969 86.6371 38.9226 86.3881 39.2667C86.1959 39.4422 85.945 39.5395 85.6847 39.5395C85.4245 39.5395 85.1736 39.4422 84.9814 39.2667C84.7148 38.9361 84.5802 38.5185 84.6034 38.0945C84.5514 37.678 84.6553 37.2571 84.8953 36.9127C85.0896 36.7301 85.3463 36.6284 85.613 36.6284C85.8797 36.6284 86.1363 36.7301 86.3306 36.9127V36.9127C86.6081 37.2416 86.747 37.6652 86.7182 38.0945L86.6943 38.0754Z" fill="#595757"/>
<path d="M92.8951 38.5634C92.9165 38.6781 92.915 38.7959 92.8907 38.91C92.8664 39.0241 92.8198 39.1323 92.7536 39.2284C92.6873 39.3244 92.6027 39.4064 92.5047 39.4696C92.4066 39.5329 92.297 39.5761 92.1822 39.5968C92.1043 39.6064 92.0256 39.6064 91.9478 39.5968C91.1822 39.5968 91.0243 39.0418 91.0243 38.549V36.0372H90.3354V36.4438C90.2017 36.3041 90.0391 36.1952 89.8589 36.125C89.6787 36.0547 89.4853 36.0247 89.2923 36.0372C88.9338 36.0331 88.5845 36.1512 88.302 36.3721V36.0372H87.6226V40.214H88.302V37.7069C88.2865 37.586 88.2951 37.4632 88.3271 37.3455C88.3592 37.2279 88.4141 37.1177 88.4887 37.0213C88.5634 36.9249 88.6563 36.8441 88.7622 36.7836C88.868 36.7231 88.9848 36.6841 89.1058 36.6687H89.1967C89.3145 36.6598 89.4328 36.679 89.5417 36.7248C89.6507 36.7705 89.7473 36.8415 89.8234 36.9319L89.9191 37.0323L90.3593 36.5826V38.6734C90.3684 38.9723 90.4595 39.263 90.6226 39.5137C90.7857 39.7643 91.0146 39.9653 91.2842 40.0947C91.5538 40.2241 91.8538 40.2769 92.1514 40.2473C92.449 40.2177 92.7328 40.1069 92.9716 39.927V40.1901H93.6463V36.0276H92.9716L92.8951 38.5634Z" fill="#595757"/>
<path d="M98.2967 35.9844C98.0496 35.9772 97.8041 36.027 97.5793 36.1299C97.3545 36.2328 97.1563 36.386 97.0001 36.5776C96.8559 36.3835 96.6661 36.2278 96.4475 36.1243C96.2289 36.0208 95.9882 35.9728 95.7466 35.9844C95.372 35.9705 95.0039 36.0853 94.7036 36.3097V36.037H94.0242V40.2139H94.7036V37.6015C94.6617 37.37 94.7131 37.1313 94.8467 36.9377C94.9803 36.744 95.1852 36.6111 95.4165 36.5681C95.4959 36.5584 95.5762 36.5584 95.6557 36.5681C96.2585 36.5681 96.5743 36.9126 96.5743 37.6111V40.1421H97.2633V37.6015C97.2507 37.487 97.2612 37.371 97.294 37.2606C97.3269 37.1501 97.3814 37.0473 97.4545 36.9581C97.5276 36.869 97.6177 36.7954 97.7196 36.7415C97.8215 36.6877 97.9331 36.6548 98.0479 36.6446H98.2011C98.8183 36.6446 99.134 36.9891 99.134 37.6876V40.2378H99.7991V37.6015C99.8106 37.3875 99.7779 37.1733 99.703 36.9724C99.6281 36.7716 99.5126 36.5883 99.3637 36.4341C99.0768 36.1561 98.6961 35.9956 98.2967 35.9844Z" fill="#595757"/>
<path d="M76.3837 36.7069C76.5558 36.7003 76.7268 36.7367 76.8813 36.8127C77.0358 36.8887 77.169 37.002 77.2688 37.1422L77.3645 37.2475L77.843 36.8121L77.7521 36.7069C77.5929 36.4975 77.3851 36.3302 77.1467 36.2193C76.9082 36.1084 76.6463 36.0573 76.3837 36.0705C75.2546 36.0705 74.556 36.8839 74.556 38.1566C74.556 39.4292 75.2546 40.2474 76.3837 40.2474C76.6378 40.2706 76.8937 40.2342 77.1312 40.1412C77.3688 40.0482 77.5813 39.9011 77.7521 39.7115L77.843 39.6063L77.3645 39.1804L77.2688 39.2714C77.1652 39.4118 77.0301 39.526 76.8742 39.6047C76.7184 39.6834 76.5463 39.7243 76.3718 39.7243C76.1972 39.7243 76.0251 39.6834 75.8693 39.6047C75.7134 39.526 75.5783 39.4118 75.4747 39.2714C75.3096 38.9484 75.2236 38.591 75.2236 38.2283C75.2236 37.8657 75.3096 37.5082 75.4747 37.1853C75.5717 37.0336 75.7065 36.9097 75.8659 36.8258C76.0252 36.7419 76.2037 36.7009 76.3837 36.7069V36.7069Z" fill="#595757"/>
<path d="M36.6914 46.606L36.0646 46.5151C35.8412 46.4824 35.6293 46.3953 35.4474 46.2615C35.3766 46.195 35.3211 46.114 35.2848 46.0239C35.2484 45.9339 35.2321 45.837 35.2369 45.74C35.2369 45.2616 35.591 44.8836 36.2799 44.8836C36.5009 44.8712 36.7222 44.9029 36.9308 44.9769C37.1394 45.0508 37.3313 45.1654 37.4952 45.3142L38.0263 44.7783C37.7974 44.5643 37.5279 44.3984 37.2336 44.2908C36.9393 44.1831 36.6264 44.1357 36.3134 44.1515C36.0835 44.1231 35.8501 44.1438 35.6288 44.2123C35.4075 44.2808 35.2032 44.3955 35.0295 44.5488C34.8559 44.7021 34.7167 44.8906 34.6213 45.1017C34.5259 45.3128 34.4764 45.5418 34.4762 45.7735C34.4665 45.9654 34.4969 46.1572 34.5652 46.3367C34.6336 46.5162 34.7385 46.6796 34.8733 46.8165C35.1712 47.0609 35.5334 47.2138 35.9163 47.2567L36.5622 47.3476C36.7853 47.351 37.0003 47.4322 37.1698 47.5773C37.2445 47.6524 37.3026 47.7422 37.3405 47.8411C37.3784 47.94 37.3952 48.0457 37.3899 48.1514C37.3899 48.6968 36.9737 48.9983 36.2512 48.9983C35.9886 49.0187 35.7247 48.9828 35.4771 48.8928C35.2296 48.8029 35.0041 48.661 34.8159 48.4767L34.2609 49.0317C34.5161 49.2852 34.8231 49.4806 35.1609 49.6045C35.4986 49.7283 35.8591 49.7778 36.2177 49.7494C37.3756 49.7494 38.1985 49.1561 38.1985 48.1323C38.2071 47.9204 38.1687 47.7093 38.086 47.514C38.0032 47.3188 37.8783 47.1443 37.7201 47.0031C37.4277 46.7655 37.0676 46.6265 36.6914 46.606V46.606Z" fill="#009FD1"/>
<path d="M42.3514 47.8453C42.3912 48.1193 42.3209 48.3979 42.156 48.6202C41.991 48.8425 41.7448 48.9905 41.4711 49.0319C41.382 49.0414 41.2922 49.0414 41.2031 49.0319C41.065 49.045 40.9257 49.0306 40.7933 48.9895C40.6608 48.9484 40.5378 48.8814 40.4314 48.7924C40.3251 48.7033 40.2374 48.5941 40.1736 48.471C40.1098 48.3478 40.071 48.2132 40.0596 48.075C40.0477 47.9909 40.0477 47.9055 40.0596 47.8214V44.1852H39.2367V47.8453C39.2716 48.3469 39.4954 48.8165 39.8631 49.1595C40.2307 49.5024 40.7147 49.6931 41.2175 49.6931C41.7202 49.6931 42.2043 49.5024 42.5719 49.1595C42.9395 48.8165 43.1634 48.3469 43.1983 47.8453V44.1948H42.3514V47.8453Z" fill="#009FD1"/>
<path d="M46.9972 47.6443L45.3896 44.1947H44.5427V49.7304H45.3896V46.032L46.6958 48.7256H47.313L48.5856 46.032V49.7304H49.4229V44.1947H48.5856L46.9972 47.6443Z" fill="#009FD1"/>
<path d="M53.3175 47.6443L51.7003 44.1947H50.863V49.7304H51.7003V46.032L53.0065 48.7256H53.6333L54.9059 46.032V49.7304H55.7432V44.1947H54.9059L53.3175 47.6443Z" fill="#009FD1"/>
<path d="M57.1835 49.7304H60.7144V48.9792H58.0208V47.319H60.3173V46.5678H58.0208V44.9459H60.7144V44.1947H57.1835V49.7304Z" fill="#009FD1"/>
<path d="M65.7286 45.8118C65.7375 45.3913 65.5794 44.9844 65.2888 44.6803C64.9982 44.3763 64.5989 44.1999 64.1784 44.1898H61.8627V49.7255H62.6808V47.4002H63.7286L64.8961 49.7303H65.853L64.5946 47.2854C64.9255 47.2099 65.2197 47.0215 65.4267 46.7526C65.6336 46.4836 65.7404 46.1509 65.7286 45.8118ZM62.6808 46.6921V44.9171H63.9248C64.1557 44.8917 64.3873 44.9591 64.5686 45.1044C64.7498 45.2498 64.8659 45.4612 64.8913 45.6922C64.9166 45.9231 64.8492 46.1547 64.7039 46.3359C64.5585 46.5172 64.3471 46.6332 64.1162 46.6586C64.0527 46.6682 63.9882 46.6682 63.9248 46.6586L62.6808 46.6921Z" fill="#009FD1"/>
<path d="M99.4162 46.4912H67.9963V46.7113H99.4162V46.4912Z" fill="#009FD1"/>
<path d="M32.0313 46.4912H0.61145V46.7113H32.0313V46.4912Z" fill="#009FD1"/>
<path d="M63.4797 32.0898H64.7859C74.02 31.7741 81.4791 24.7026 81.4791 16.0569C81.4791 7.41133 74.02 0.344607 64.7668 0.00012207H63.4797C54.2504 0.344607 46.844 7.41611 46.844 16.0569C46.844 24.6978 54.2504 31.7741 63.4797 32.0898ZM48.6478 22.5208H53.4753C54.882 26.9273 57.6522 30.2909 61.1305 31.5683C58.4785 31.1598 55.9617 30.1262 53.7879 28.5531C51.6141 26.9799 49.8457 24.9123 48.6286 22.5208H48.6478ZM81.1537 15.9182H75.8094C75.7875 13.7466 75.4341 11.5911 74.7616 9.52608H79.5701C80.57 11.5104 81.1051 13.6963 81.1346 15.9182H81.1537ZM64.0108 22.5208V31.8076C59.4703 31.7214 55.5614 27.9321 53.7959 22.5208H64.0108ZM53.6906 22.1955C53.1065 20.2504 52.8051 18.2314 52.7959 16.2005H64.0108V22.1955H53.6906ZM64.2931 22.5208H74.5128C72.7282 27.9321 68.8193 31.7214 64.274 31.8076L64.2931 22.5208ZM64.2931 22.1955V16.2005H75.5128C75.509 18.2321 75.2059 20.2522 74.6133 22.1955H64.2931ZM75.7759 16.2005H81.1011C81.0872 18.271 80.6321 20.3147 79.7662 22.1955H74.9195C75.4945 20.2485 75.794 18.2305 75.8094 16.2005H75.7759ZM75.4602 15.9182H64.274V9.52608H74.4698C75.1441 11.5899 75.4896 13.747 75.4936 15.9182H75.4602ZM64.2835 9.21987V0.311115C68.7236 0.387667 72.5464 3.99997 74.3741 9.20074L64.2835 9.21987ZM64.0012 9.21987H53.9155C55.7336 3.99997 59.5421 0.387667 63.9917 0.311115L64.0012 9.21987ZM64.0012 9.54522V15.9182H52.7768C52.7897 13.7462 53.1416 11.5895 53.8198 9.52608L64.0012 9.54522ZM52.5184 15.9373H47.1358C47.1583 13.718 47.6834 11.5325 48.6717 9.54522H53.4849C52.8193 11.6109 52.4772 13.7671 52.4706 15.9373H52.5184ZM52.5184 16.2196C52.5221 18.2502 52.8202 20.2696 53.4036 22.2146H48.4707C47.6048 20.3338 47.1497 18.2901 47.1358 16.2196H52.5184ZM67.1686 31.5779C70.5943 30.3004 73.4363 26.9369 74.8238 22.5304H79.6514C78.4356 24.919 76.6699 26.9848 74.4998 28.5577C72.3296 30.1306 69.817 31.1657 67.1686 31.5779V31.5779ZM79.4265 9.20074H74.6899C73.2545 5.02386 70.513 1.78474 67.1686 0.555125C69.7382 0.959157 72.1803 1.9491 74.3059 3.44831C76.4315 4.94752 78.1836 6.91579 79.4265 9.20074V9.20074ZM61.1018 0.555125C57.7527 1.78474 55.0303 4.99515 53.5902 9.20074H48.8056C50.0535 6.91207 51.8119 4.94165 53.9443 3.44232C56.0768 1.94298 58.5259 0.955038 61.1018 0.555125V0.555125Z" fill="#595757"/>
<path d="M49.0449 4.11482H50.6237V3.06223L46.2794 3.08136V4.10525H47.8774L42.4422 22.2816L37.8922 4.08611L39.3945 4.09568L39.4041 3.06223L31.4235 3.0383V4.07176H32.8254L36.074 15.9804L33.3134 23.1476L28.6341 4.06219L30.0264 4.07176V3.0383L22.1511 3.01917V4.05262H23.6008L30.2657 28.8077L30.3183 29.0086L32.2177 29.0182L36.5525 17.7172L39.6433 29.0278L41.5475 29.0373L49.0449 4.11482Z" fill="#595757"/>
<path d="M4.00358 25.2146C5.21723 26.3824 6.6345 27.318 8.18524 27.9752C9.75571 28.6523 11.4462 29.007 13.1563 29.0183C13.8805 29.0229 14.6033 28.9556 15.3142 28.8173C15.9696 28.6929 16.5964 28.5589 17.1849 28.401L18.6872 27.9848C19.1875 27.7684 19.7504 27.7463 20.2661 27.9226C20.4046 28.0432 20.5086 28.1984 20.5676 28.3723L20.6393 28.535H21.6871V20.6214H20.6441L20.5915 20.8272C20.3822 21.7542 20.0609 22.6523 19.6346 23.5017C19.2228 24.3313 18.6908 25.0955 18.0557 25.7696C17.4389 26.417 16.7134 26.9514 15.9122 27.3485C15.0724 27.7521 14.1503 27.9552 13.2185 27.9417C12.1153 27.9669 11.0169 27.7868 9.97943 27.4107C9.08783 27.0444 8.3356 26.4044 7.83119 25.583C7.1854 24.4584 6.75995 23.2211 6.57764 21.9372C6.28213 19.9866 6.14612 18.0153 6.17096 16.0427C6.17096 14.2389 6.24273 12.5547 6.37669 11.0428C6.47434 9.71086 6.79287 8.4044 7.31924 7.17696C7.75396 6.16383 8.48007 5.30283 9.40529 4.70336C10.573 4.05495 11.8989 3.74666 13.2329 3.81344C14.2669 3.77587 15.2941 3.99447 16.2232 4.44978C17.003 4.86083 17.6915 5.42559 18.2471 6.11001C18.8024 6.79544 19.2641 7.55164 19.6202 8.35873C19.9551 9.14817 20.2566 9.95676 20.5293 10.751L20.5915 10.9424H21.5101V3.34935H20.4479L20.3953 3.56465C20.3235 3.89 20.2279 3.96176 20.1944 3.98569C20.001 4.05336 19.7959 4.08103 19.5915 4.06702C19.2349 4.05783 18.8816 3.99492 18.5437 3.88043L17.0749 3.44025C16.5103 3.28715 15.9122 3.13883 15.295 3.00486C14.6088 2.86312 13.9097 2.79258 13.209 2.79434C11.626 2.81538 10.0619 3.14023 8.60149 3.75125C5.40957 5.02609 2.80443 7.44028 1.29076 10.5261C0.474502 12.1653 0.0341932 13.9659 0.00191318 15.7967C-0.0303668 17.6276 0.346195 19.4426 1.10416 21.1095C1.80301 22.6485 2.78679 24.0414 4.00358 25.2146V25.2146Z" fill="#595757"/>
<path d="M79.0151 3.31104V4.35406H82.149V27.4298H79.0151V28.4728H90.9764V27.4298H87.7612V16.5354H89.8521C90.5117 16.511 91.1677 16.6439 91.7659 16.923C92.2596 17.1759 92.6935 17.5315 93.0385 17.966C93.4059 18.4317 93.6893 18.9579 93.8758 19.521C94.1001 20.1477 94.2886 20.7866 94.4404 21.4348V21.6453H95.3973V10.3634H94.4404V10.5835C94.2831 11.2972 94.0621 11.9953 93.7801 12.6695C93.561 13.2317 93.2506 13.7538 92.8615 14.2149C92.4841 14.6296 92.0203 14.9562 91.5027 15.1718C90.8349 15.4218 90.1246 15.5388 89.4119 15.5163H87.7421V4.33492H92.6941C93.4749 4.32132 94.2521 4.44438 94.9906 4.69854C95.6204 4.92998 96.1978 5.28456 96.6891 5.74157C97.1987 6.22276 97.6311 6.77949 97.9714 7.39222C98.3771 8.09759 98.7275 8.83343 99.0192 9.5931L99.0909 9.77013H100V3.31104H79.0151Z" fill="#595757"/>
<path d="M75.6516 20.4539H74.91V20.5736C74.6897 21.5236 74.3605 22.4451 73.9292 23.3199C73.5129 24.1422 72.9687 24.8931 72.3168 25.5447C71.676 26.1641 70.9267 26.6604 70.1064 27.0087C69.2111 27.3627 68.2558 27.5398 67.2931 27.5302H61.7574V16.4397H63.9105C64.5829 16.4219 65.2505 16.5577 65.8625 16.8369C66.3683 17.0879 66.8139 17.4454 67.1687 17.8847C67.5419 18.3655 67.8314 18.9057 68.0251 19.4827C68.2356 20.0951 68.4318 20.7362 68.5897 21.3965V21.5305H69.3313V10.4448H68.5897V10.5691C68.4468 11.2831 68.2402 11.9829 67.9725 12.66C67.7482 13.2319 67.4349 13.7647 67.0443 14.2389C66.6534 14.6934 66.162 15.0505 65.609 15.2819C64.9414 15.5268 64.2337 15.6437 63.5229 15.6264H61.7431V4.22967H67.8768C68.843 4.20513 69.8005 4.41701 70.6662 4.84687C71.3905 5.21434 72.0396 5.71416 72.58 6.3205C73.0386 6.84179 73.4219 7.4248 73.7187 8.0525C73.9471 8.53174 74.1391 9.02755 74.2928 9.53569V9.65052H75.0344V3.38281H53.2745V4.20096H56.4083V27.535H52.8917V28.3484H75.6516V20.4539Z" fill="#009FD1"/>
<path d="M122.229 34.8027C122.559 34.8006 122.878 34.9182 123.128 35.1338C123.378 35.3493 123.541 35.6482 123.587 35.9749V36.0897H124.31V35.9223C124.25 35.4179 124.001 34.955 123.613 34.6273C123.224 34.2996 122.726 34.1314 122.219 34.1568C121.937 34.154 121.656 34.2071 121.394 34.313C121.132 34.4189 120.894 34.5756 120.693 34.774C120.119 35.3386 120.119 35.9223 120.119 37.1758C120.119 38.4294 120.119 39.0131 120.683 39.5681C121.091 39.9679 121.639 40.1913 122.209 40.1901C122.718 40.2181 123.218 40.0517 123.608 39.7247C123.998 39.3977 124.249 38.9347 124.31 38.4294V38.2763H123.621V38.3815C123.58 38.6337 123.47 38.8698 123.304 39.0641C123.138 39.2583 122.922 39.4033 122.679 39.4832C122.436 39.5631 122.176 39.5749 121.927 39.5174C121.678 39.4598 121.45 39.335 121.267 39.1566C120.894 38.7882 120.87 38.372 120.87 37.1806C120.87 35.9893 120.87 35.5826 121.267 35.2142C121.521 34.9555 121.866 34.8076 122.229 34.8027Z" fill="white"/>
<path d="M126.075 35.9845C125.859 35.9815 125.645 36.0223 125.445 36.1046C125.245 36.1868 125.064 36.3087 124.913 36.4629C124.575 36.9454 124.394 37.52 124.394 38.1088C124.394 38.6976 124.575 39.2722 124.913 39.7547C125.066 39.9089 125.249 40.0308 125.45 40.113C125.652 40.1952 125.867 40.236 126.085 40.2331C126.302 40.2362 126.517 40.1954 126.718 40.1132C126.918 40.031 127.1 39.909 127.252 39.7547C127.444 39.5276 127.589 39.2649 127.678 38.9815C127.768 38.6982 127.8 38.4 127.774 38.104C127.8 37.8096 127.767 37.5129 127.678 37.2312C127.588 36.9495 127.443 36.6884 127.252 36.4629C127.099 36.3067 126.916 36.1836 126.714 36.1013C126.511 36.019 126.294 35.9792 126.075 35.9845ZM127.118 38.0753C127.17 38.4961 127.063 38.9211 126.817 39.2666C126.625 39.4398 126.375 39.5356 126.116 39.5356C125.857 39.5356 125.607 39.4398 125.415 39.2666C125.167 38.9221 125.06 38.4963 125.114 38.0753C125.062 37.6545 125.169 37.2295 125.415 36.884C125.603 36.7024 125.855 36.601 126.116 36.601C126.377 36.601 126.629 36.7024 126.817 36.884C127.058 37.2383 127.15 37.6727 127.075 38.0944L127.118 38.0753Z" fill="white"/>
<path d="M132.257 35.9844C132.009 35.98 131.763 36.031 131.537 36.1336C131.311 36.2363 131.111 36.388 130.951 36.5777C130.81 36.3824 130.622 36.2257 130.405 36.122C130.187 36.0183 129.947 35.971 129.707 35.9844C129.332 35.9705 128.964 36.0854 128.664 36.3098V36.037H128.027V40.2139H128.707V37.6016C128.665 37.3701 128.716 37.1314 128.85 36.9377C128.983 36.744 129.188 36.6112 129.42 36.5681C129.499 36.5585 129.579 36.5585 129.659 36.5681C130.262 36.5681 130.577 36.9126 130.577 37.6111V40.1421H131.257V37.6016C131.245 37.4853 131.257 37.3678 131.291 37.2561C131.326 37.1444 131.383 37.0408 131.458 36.9515C131.534 36.8622 131.626 36.789 131.731 36.7363C131.835 36.6836 131.949 36.6524 132.065 36.6447H132.204C132.821 36.6447 133.137 36.9892 133.137 37.6877V40.2378H133.802V37.6016C133.814 37.3875 133.781 37.1734 133.706 36.9725C133.631 36.7716 133.516 36.5884 133.367 36.4342C133.069 36.146 132.671 35.9848 132.257 35.9844V35.9844Z" fill="white"/>
<path d="M138.472 35.9844C138.225 35.9804 137.981 36.0317 137.756 36.1343C137.532 36.237 137.334 36.3884 137.175 36.5777C137.033 36.3847 136.846 36.2296 136.63 36.1261C136.414 36.0226 136.175 35.974 135.936 35.9844C135.56 35.9698 135.19 36.0847 134.888 36.3098V36.0371H134.209V40.2139H134.888V37.6016C134.848 37.3702 134.9 37.1322 135.033 36.9388C135.166 36.7455 135.37 36.6123 135.601 36.5681C135.681 36.5586 135.761 36.5586 135.84 36.5681C136.458 36.5681 136.769 36.9126 136.769 37.6112V40.1422H137.448V37.6016C137.437 37.4854 137.449 37.3682 137.484 37.2567C137.519 37.1453 137.575 37.042 137.651 36.9529C137.726 36.8637 137.819 36.7905 137.923 36.7376C138.027 36.6847 138.14 36.6531 138.257 36.6447H138.4C139.017 36.6447 139.319 36.9892 139.319 37.6877V40.2379H139.998V37.6016C140.029 37.2161 139.905 36.8342 139.655 36.5393C139.405 36.2444 139.049 36.0604 138.663 36.0275H138.448L138.472 35.9844Z" fill="white"/>
<path d="M141.941 35.9845C141.723 35.9805 141.507 36.0208 141.305 36.1031C141.104 36.1854 140.921 36.3078 140.769 36.463C140.387 36.9206 140.203 37.5108 140.257 38.1041C140.202 38.7003 140.386 39.2939 140.769 39.7547C140.921 39.9099 141.104 40.0323 141.305 40.1146C141.507 40.1969 141.723 40.2372 141.941 40.2332C142.156 40.2372 142.37 40.1968 142.57 40.1145C142.769 40.0322 142.949 39.9097 143.099 39.7547C143.292 39.5288 143.438 39.2662 143.528 38.9826C143.617 38.6989 143.649 38.4001 143.62 38.1041C143.649 37.808 143.617 37.5092 143.528 37.2256C143.438 36.9419 143.292 36.6793 143.099 36.4534C142.947 36.302 142.766 36.1824 142.567 36.1019C142.368 36.0214 142.155 35.9815 141.941 35.9845V35.9845ZM141.941 36.6209C142.201 36.6251 142.45 36.7257 142.639 36.9032C142.902 37.2411 143.021 37.6694 142.97 38.0945C143.024 38.5155 142.916 38.9413 142.668 39.2858C142.476 39.459 142.226 39.5548 141.967 39.5548C141.708 39.5548 141.459 39.459 141.266 39.2858C141.029 38.9352 140.895 38.5246 140.881 38.1014C140.866 37.6782 140.972 37.2595 141.185 36.8936C141.285 36.7978 141.404 36.7241 141.534 36.6771C141.664 36.6301 141.803 36.611 141.941 36.6209V36.6209Z" fill="white"/>
<path d="M145.553 35.9845C145.195 35.9745 144.845 36.0896 144.563 36.3098V36.0371H143.874V40.214H144.563V37.6016C144.563 36.9462 144.898 36.5586 145.52 36.5586C146.142 36.5586 146.476 36.9031 146.476 37.6016V40.1326H147.208V37.6016C147.223 37.4081 147.2 37.2136 147.139 37.0293C147.078 36.845 146.981 36.6747 146.854 36.5282C146.726 36.3818 146.571 36.2621 146.397 36.1761C146.223 36.0901 146.034 36.0396 145.84 36.0275H145.62L145.553 35.9845Z" fill="white"/>
<path d="M152.605 34.1998L151.51 38.7308L150.318 34.3003L150.294 34.1998H149.639L148.428 38.7308L147.352 34.3003L147.333 34.1998H146.586L148.084 40.1613H148.73L149.964 35.5969L151.203 40.1613H151.854L153.337 34.1998H152.605Z" fill="white"/>
<path d="M155.409 39.1374C155.292 39.2758 155.145 39.3863 154.979 39.4608C154.814 39.5353 154.634 39.5719 154.452 39.568C153.596 39.568 153.409 38.9221 153.337 38.324H156.012V37.9987C156.012 36.7595 155.361 35.9844 154.328 35.9844C153.294 35.9844 152.658 36.7786 152.658 38.0752C152.658 39.3718 153.285 40.1613 154.424 40.1613C154.698 40.168 154.971 40.1155 155.224 40.0074C155.477 39.8992 155.703 39.7379 155.888 39.5345L156.002 39.4197L155.481 39.013L155.409 39.1374ZM155.313 37.702H153.337C153.329 37.5205 153.36 37.3393 153.428 37.1709C153.504 37.0025 153.626 36.8595 153.781 36.7592C153.936 36.6589 154.117 36.6055 154.302 36.6055C154.486 36.6055 154.667 36.6589 154.822 36.7592C154.977 36.8595 155.099 37.0025 155.175 37.1709C155.254 37.3425 155.299 37.5277 155.309 37.7164L155.313 37.702Z" fill="white"/>
<path d="M157.868 35.9844C157.593 35.9557 157.316 36.0003 157.064 36.1138C156.811 36.2272 156.594 36.4055 156.433 36.6304L156.347 36.7356L156.844 37.1758L156.931 37.0514C157.031 36.8942 157.175 36.7697 157.345 36.6932C157.515 36.6167 157.703 36.5916 157.887 36.6208C158.567 36.6208 158.844 36.8504 158.844 37.4246V37.7164H157.715C156.806 37.7164 156.232 38.1949 156.232 38.9604C156.226 39.2734 156.341 39.5766 156.553 39.8073C156.72 39.9586 156.919 40.0714 157.134 40.1375C157.35 40.2037 157.578 40.2216 157.801 40.19C158.17 40.2239 158.539 40.1274 158.844 39.9173V40.147H159.524V37.372C159.5 36.7452 159.237 35.9844 157.868 35.9844ZM158.825 38.6494C158.84 38.7619 158.832 38.8762 158.801 38.9856C158.771 39.0949 158.719 39.197 158.648 39.2858C158.531 39.385 158.394 39.4595 158.247 39.5047C158.1 39.5499 157.945 39.565 157.792 39.5489C157.026 39.5489 156.926 39.2427 156.926 38.9317C156.926 38.6207 157.002 38.2762 157.763 38.2762H158.811L158.825 38.6494Z" fill="white"/>
<path d="M160.615 39.013V34.1998H159.94V39.0226C159.927 39.1602 159.941 39.299 159.983 39.4309C160.024 39.5628 160.091 39.6851 160.18 39.7907C160.269 39.8963 160.379 39.9831 160.502 40.0459C160.625 40.1087 160.759 40.1463 160.897 40.1565H161.486V39.525H161.055C160.744 39.525 160.615 39.4006 160.615 39.013Z" fill="white"/>
<path d="M162.237 34.8026H161.557V36.037H161.026V36.6112H161.557V39.0034C161.543 39.1416 161.557 39.2812 161.598 39.4139C161.639 39.5467 161.706 39.6699 161.795 39.7764C161.884 39.8829 161.994 39.9706 162.117 40.0342C162.241 40.0978 162.376 40.1361 162.514 40.1469H163.064V39.5249H162.643C162.332 39.5249 162.194 39.367 162.194 39.0465V36.6542H163.064V36.0801H162.213L162.237 34.8026Z" fill="white"/>
<path d="M164.921 35.9845C164.546 35.9698 164.178 36.0847 163.878 36.3098V34.219H163.198V40.1901H163.878V37.6064C163.836 37.3749 163.887 37.1362 164.021 36.9426C164.155 36.7489 164.359 36.616 164.591 36.573C164.669 36.5634 164.747 36.5634 164.825 36.573C165.433 36.573 165.744 36.9175 165.744 37.616V40.147H166.414V37.6016C166.437 37.4104 166.423 37.2163 166.37 37.0309C166.317 36.8455 166.228 36.6726 166.107 36.5226C165.986 36.3726 165.836 36.2485 165.666 36.1576C165.496 36.0668 165.309 36.0112 165.117 35.9941C165.052 35.9865 164.986 35.9833 164.921 35.9845V35.9845Z" fill="white"/>
<path d="M170.543 37.4868H173.112V36.8313H170.543V34.8553H173.557V34.1998H169.839V40.1613H173.557V39.5059H170.543V37.4868Z" fill="white"/>
<path d="M176.212 39.1279C176.125 39.2464 176.016 39.3466 175.89 39.4226C175.764 39.4986 175.624 39.5489 175.479 39.5707C175.333 39.5925 175.185 39.5853 175.042 39.5496C174.9 39.5138 174.766 39.4502 174.648 39.3623C174.559 39.2953 174.48 39.2164 174.413 39.1279C174.256 38.8028 174.174 38.4462 174.174 38.0849C174.174 37.7236 174.256 37.367 174.413 37.0419C174.519 36.9039 174.655 36.7922 174.811 36.7153C174.967 36.6384 175.139 36.5984 175.313 36.5984C175.487 36.5984 175.658 36.6384 175.814 36.7153C175.97 36.7922 176.106 36.9039 176.212 37.0419L176.308 37.1471L176.786 36.7069L176.691 36.6065C176.533 36.4085 176.33 36.2504 176.1 36.1448C175.87 36.0393 175.618 35.9893 175.365 35.9988C174.236 35.9988 173.538 36.8122 173.538 38.0897C173.538 39.3671 174.236 40.1757 175.365 40.1757C175.628 40.1881 175.889 40.1366 176.128 40.0258C176.366 39.915 176.574 39.7481 176.734 39.5394L176.829 39.4341L176.351 39.0083L176.212 39.1279Z" fill="white"/>
<path d="M178.332 35.9845C178.115 35.9819 177.9 36.0229 177.699 36.1051C177.499 36.1873 177.317 36.309 177.164 36.4629C176.822 36.9435 176.638 37.5188 176.638 38.1088C176.638 38.6988 176.822 39.2741 177.164 39.7546C177.48 40.0493 177.895 40.2132 178.327 40.2132C178.759 40.2132 179.174 40.0493 179.49 39.7546C179.876 39.2953 180.065 38.7021 180.016 38.104C180.078 37.5154 179.906 36.9259 179.537 36.4629C179.382 36.3026 179.194 36.177 178.986 36.0946C178.778 36.0121 178.555 35.9746 178.332 35.9845V35.9845ZM179.375 38.0753C179.429 38.4963 179.321 38.9221 179.073 39.2666C178.88 39.4425 178.629 39.5399 178.368 39.5399C178.107 39.5399 177.855 39.4425 177.662 39.2666C177.421 38.9188 177.314 38.4957 177.361 38.0753C177.314 37.6578 177.421 37.2375 177.662 36.8935C177.754 36.7981 177.865 36.7229 177.988 36.6727C178.11 36.6224 178.242 36.5983 178.375 36.6017C178.505 36.6002 178.634 36.6254 178.754 36.6756C178.874 36.7257 178.983 36.7999 179.073 36.8935V36.8935C179.313 37.2446 179.408 37.6751 179.337 38.0944L179.375 38.0753Z" fill="white"/>
<path d="M181.958 35.9844C181.582 35.9698 181.212 36.0846 180.911 36.3097V36.037H180.289V40.2139H180.968V37.6016C180.926 37.37 180.978 37.1314 181.111 36.9377C181.245 36.744 181.45 36.6111 181.681 36.5681C181.76 36.5586 181.841 36.5586 181.92 36.5681C182.537 36.5681 182.848 36.9126 182.848 37.6111V40.1421H183.528V37.6016C183.537 37.3873 183.503 37.1735 183.427 36.9728C183.351 36.7722 183.236 36.5889 183.088 36.4341C182.94 36.2858 182.764 36.1694 182.57 36.092C182.375 36.0147 182.167 35.978 181.958 35.9844V35.9844Z" fill="white"/>
<path d="M185.413 35.9845C185.196 35.9819 184.981 36.023 184.781 36.1052C184.58 36.1874 184.398 36.309 184.245 36.4629C184.054 36.6884 183.91 36.9495 183.82 37.2312C183.731 37.5129 183.698 37.8096 183.724 38.104C183.697 38.4 183.73 38.6982 183.819 38.9815C183.909 39.2649 184.054 39.5276 184.245 39.7547C184.563 40.0503 184.981 40.2146 185.415 40.2146C185.849 40.2146 186.267 40.0503 186.585 39.7547C186.963 39.2911 187.15 38.7006 187.107 38.104C187.157 37.5095 186.969 36.9194 186.585 36.4629C186.431 36.3095 186.248 36.1883 186.047 36.1061C185.846 36.024 185.63 35.9826 185.413 35.9845V35.9845ZM186.461 38.0753C186.517 38.4971 186.408 38.9245 186.154 39.2667C185.963 39.4395 185.714 39.5351 185.456 39.5351C185.198 39.5351 184.949 39.4395 184.757 39.2667C184.506 38.9236 184.396 38.497 184.451 38.0753C184.404 37.6617 184.517 37.2457 184.767 36.9127C184.951 36.7298 185.201 36.6272 185.461 36.6272C185.721 36.6272 185.97 36.7298 186.154 36.9127V36.9127C186.385 37.2605 186.474 37.6832 186.403 38.0945L186.461 38.0753Z" fill="white"/>
<path d="M191.599 35.9843C191.351 35.9799 191.105 36.0309 190.879 36.1335C190.653 36.2362 190.453 36.3878 190.293 36.5776C190.15 36.3848 189.961 36.23 189.745 36.1266C189.528 36.0232 189.289 35.9743 189.049 35.9843C188.674 35.9704 188.306 36.0853 188.006 36.3097V36.0369H187.327V40.2138H188.006V37.6015C187.964 37.37 188.015 37.1313 188.149 36.9376C188.283 36.7439 188.488 36.6111 188.719 36.568C188.797 36.5584 188.875 36.5584 188.953 36.568C189.561 36.568 189.877 36.9125 189.877 37.611V40.142H190.551V37.6015C190.541 37.485 190.554 37.3677 190.589 37.2562C190.624 37.1448 190.682 37.0416 190.757 36.9525C190.833 36.8634 190.926 36.7903 191.03 36.7374C191.134 36.6846 191.248 36.653 191.365 36.6446H191.503C192.121 36.6446 192.422 36.9891 192.422 37.6876V40.2377H193.125V37.6015C193.14 37.4091 193.117 37.2157 193.057 37.0323C192.997 36.8489 192.901 36.6792 192.776 36.5329C192.65 36.3866 192.496 36.2666 192.324 36.1799C192.152 36.0931 191.964 36.0413 191.771 36.0274H191.566L191.599 35.9843Z" fill="white"/>
<path d="M194.264 36.0371H193.585V40.1614H194.264V36.0371Z" fill="white"/>
<path d="M194.317 34.1998H193.542V34.9749H194.317V34.1998Z" fill="white"/>
<path d="M201.187 34.8553H204.206V34.1998H200.489V40.1613H201.187V37.5825H203.757V36.9222H201.187V34.8553Z" fill="white"/>
<path d="M205.646 35.9845C205.43 35.982 205.215 36.023 205.014 36.1052C204.814 36.1874 204.632 36.3091 204.479 36.463C204.288 36.6883 204.143 36.9494 204.053 37.2311C203.964 37.5129 203.931 37.8096 203.958 38.1041C203.931 38.4 203.964 38.6983 204.053 38.9816C204.143 39.2649 204.287 39.5277 204.479 39.7547C204.795 40.0497 205.212 40.2137 205.644 40.2137C206.077 40.2137 206.493 40.0497 206.809 39.7547C207.001 39.5277 207.146 39.2649 207.235 38.9816C207.325 38.6983 207.357 38.4 207.331 38.1041C207.357 37.8096 207.324 37.5129 207.235 37.2311C207.145 36.9494 207 36.6883 206.809 36.463C206.658 36.3088 206.477 36.1869 206.277 36.1046C206.077 36.0224 205.863 35.9815 205.646 35.9845ZM206.694 38.0754C206.747 38.4969 206.637 38.9226 206.388 39.2667C206.196 39.4422 205.945 39.5395 205.685 39.5395C205.424 39.5395 205.174 39.4422 204.981 39.2667C204.715 38.9361 204.58 38.5185 204.603 38.0945C204.551 37.678 204.655 37.2571 204.895 36.9127C205.09 36.7301 205.346 36.6284 205.613 36.6284C205.88 36.6284 206.136 36.7301 206.331 36.9127V36.9127C206.608 37.2416 206.747 37.6652 206.718 38.0945L206.694 38.0754Z" fill="white"/>
<path d="M212.895 38.5634C212.916 38.6781 212.915 38.7959 212.891 38.91C212.866 39.0241 212.82 39.1323 212.754 39.2284C212.687 39.3244 212.603 39.4064 212.505 39.4696C212.407 39.5329 212.297 39.5761 212.182 39.5968C212.104 39.6064 212.026 39.6064 211.948 39.5968C211.182 39.5968 211.024 39.0418 211.024 38.549V36.0372H210.335V36.4438C210.202 36.3041 210.039 36.1952 209.859 36.125C209.679 36.0547 209.485 36.0247 209.292 36.0372C208.934 36.0331 208.584 36.1512 208.302 36.3721V36.0372H207.623V40.214H208.302V37.7069C208.287 37.586 208.295 37.4632 208.327 37.3455C208.359 37.2279 208.414 37.1177 208.489 37.0213C208.563 36.9249 208.656 36.8441 208.762 36.7836C208.868 36.7231 208.985 36.6841 209.106 36.6687H209.197C209.315 36.6598 209.433 36.679 209.542 36.7248C209.651 36.7705 209.747 36.8415 209.823 36.9319L209.919 37.0323L210.359 36.5826V38.6734C210.368 38.9723 210.459 39.263 210.623 39.5137C210.786 39.7643 211.015 39.9653 211.284 40.0947C211.554 40.2241 211.854 40.2769 212.151 40.2473C212.449 40.2177 212.733 40.1069 212.972 39.927V40.1901H213.646V36.0276H212.972L212.895 38.5634Z" fill="white"/>
<path d="M218.297 35.9844C218.05 35.9772 217.804 36.027 217.579 36.1299C217.354 36.2328 217.156 36.386 217 36.5776C216.856 36.3835 216.666 36.2278 216.448 36.1243C216.229 36.0208 215.988 35.9728 215.747 35.9844C215.372 35.9705 215.004 36.0853 214.704 36.3097V36.037H214.024V40.2139H214.704V37.6015C214.662 37.37 214.713 37.1313 214.847 36.9377C214.98 36.744 215.185 36.6111 215.416 36.5681C215.496 36.5584 215.576 36.5584 215.656 36.5681C216.259 36.5681 216.574 36.9126 216.574 37.6111V40.1421H217.263V37.6015C217.251 37.487 217.261 37.371 217.294 37.2606C217.327 37.1501 217.381 37.0473 217.454 36.9581C217.528 36.869 217.618 36.7954 217.72 36.7415C217.822 36.6877 217.933 36.6548 218.048 36.6446H218.201C218.818 36.6446 219.134 36.9891 219.134 37.6876V40.2378H219.799V37.6015C219.811 37.3875 219.778 37.1733 219.703 36.9724C219.628 36.7716 219.513 36.5883 219.364 36.4341C219.077 36.1561 218.696 35.9956 218.297 35.9844Z" fill="white"/>
<path d="M196.384 36.7069C196.556 36.7003 196.727 36.7367 196.881 36.8127C197.036 36.8887 197.169 37.002 197.269 37.1422L197.365 37.2475L197.843 36.8121L197.752 36.7069C197.593 36.4975 197.385 36.3302 197.147 36.2193C196.908 36.1084 196.646 36.0573 196.384 36.0705C195.255 36.0705 194.556 36.8839 194.556 38.1566C194.556 39.4292 195.255 40.2474 196.384 40.2474C196.638 40.2706 196.894 40.2342 197.131 40.1412C197.369 40.0482 197.581 39.9011 197.752 39.7115L197.843 39.6063L197.365 39.1804L197.269 39.2714C197.165 39.4118 197.03 39.526 196.874 39.6047C196.718 39.6834 196.546 39.7243 196.372 39.7243C196.197 39.7243 196.025 39.6834 195.869 39.6047C195.713 39.526 195.578 39.4118 195.475 39.2714C195.31 38.9484 195.224 38.591 195.224 38.2283C195.224 37.8657 195.31 37.5082 195.475 37.1853C195.572 37.0336 195.706 36.9097 195.866 36.8258C196.025 36.7419 196.204 36.7009 196.384 36.7069V36.7069Z" fill="white"/>
<path d="M156.691 46.606L156.065 46.5151C155.841 46.4824 155.629 46.3953 155.447 46.2615C155.377 46.195 155.321 46.114 155.285 46.0239C155.248 45.9339 155.232 45.837 155.237 45.74C155.237 45.2616 155.591 44.8836 156.28 44.8836C156.501 44.8712 156.722 44.9029 156.931 44.9769C157.139 45.0508 157.331 45.1654 157.495 45.3142L158.026 44.7783C157.797 44.5643 157.528 44.3984 157.234 44.2908C156.939 44.1831 156.626 44.1357 156.313 44.1515C156.083 44.1231 155.85 44.1438 155.629 44.2123C155.407 44.2808 155.203 44.3955 155.03 44.5488C154.856 44.7021 154.717 44.8906 154.621 45.1017C154.526 45.3128 154.476 45.5418 154.476 45.7735C154.467 45.9654 154.497 46.1572 154.565 46.3367C154.634 46.5162 154.738 46.6796 154.873 46.8165C155.171 47.0609 155.533 47.2138 155.916 47.2567L156.562 47.3476C156.785 47.351 157 47.4322 157.17 47.5773C157.244 47.6524 157.303 47.7422 157.34 47.8411C157.378 47.94 157.395 48.0457 157.39 48.1514C157.39 48.6968 156.974 48.9983 156.251 48.9983C155.989 49.0187 155.725 48.9828 155.477 48.8928C155.23 48.8029 155.004 48.661 154.816 48.4767L154.261 49.0317C154.516 49.2852 154.823 49.4806 155.161 49.6045C155.499 49.7283 155.859 49.7778 156.218 49.7494C157.376 49.7494 158.199 49.1561 158.199 48.1323C158.207 47.9204 158.169 47.7093 158.086 47.514C158.003 47.3188 157.878 47.1443 157.72 47.0031C157.428 46.7655 157.068 46.6265 156.691 46.606V46.606Z" fill="#009FD1"/>
<path d="M162.351 47.8453C162.391 48.1193 162.321 48.3979 162.156 48.6202C161.991 48.8425 161.745 48.9905 161.471 49.0319C161.382 49.0414 161.292 49.0414 161.203 49.0319C161.065 49.045 160.926 49.0306 160.793 48.9895C160.661 48.9484 160.538 48.8814 160.431 48.7924C160.325 48.7033 160.237 48.5941 160.174 48.471C160.11 48.3478 160.071 48.2132 160.06 48.075C160.048 47.9909 160.048 47.9055 160.06 47.8214V44.1852H159.237V47.8453C159.272 48.3469 159.495 48.8165 159.863 49.1595C160.231 49.5024 160.715 49.6931 161.217 49.6931C161.72 49.6931 162.204 49.5024 162.572 49.1595C162.94 48.8165 163.163 48.3469 163.198 47.8453V44.1948H162.351V47.8453Z" fill="#009FD1"/>
<path d="M166.997 47.6443L165.39 44.1947H164.543V49.7304H165.39V46.032L166.696 48.7256H167.313L168.586 46.032V49.7304H169.423V44.1947H168.586L166.997 47.6443Z" fill="#009FD1"/>
<path d="M173.317 47.6443L171.7 44.1947H170.863V49.7304H171.7V46.032L173.006 48.7256H173.633L174.906 46.032V49.7304H175.743V44.1947H174.906L173.317 47.6443Z" fill="#009FD1"/>
<path d="M177.183 49.7304H180.714V48.9792H178.021V47.319H180.317V46.5678H178.021V44.9459H180.714V44.1947H177.183V49.7304Z" fill="#009FD1"/>
<path d="M185.729 45.8118C185.738 45.3913 185.579 44.9844 185.289 44.6803C184.998 44.3763 184.599 44.1999 184.178 44.1898H181.863V49.7255H182.681V47.4002H183.729L184.896 49.7303H185.853L184.595 47.2854C184.926 47.2099 185.22 47.0215 185.427 46.7526C185.634 46.4836 185.74 46.1509 185.729 45.8118ZM182.681 46.6921V44.9171H183.925C184.156 44.8917 184.387 44.9591 184.569 45.1044C184.75 45.2498 184.866 45.4612 184.891 45.6922C184.917 45.9231 184.849 46.1547 184.704 46.3359C184.559 46.5172 184.347 46.6332 184.116 46.6586C184.053 46.6682 183.988 46.6682 183.925 46.6586L182.681 46.6921Z" fill="#009FD1"/>
<path d="M219.416 46.4912H187.996V46.7113H219.416V46.4912Z" fill="#009FD1"/>
<path d="M152.031 46.4912H120.611V46.7113H152.031V46.4912Z" fill="#009FD1"/>
<path d="M183.48 32.0898H184.786C194.02 31.7741 201.479 24.7026 201.479 16.0569C201.479 7.41133 194.02 0.344607 184.767 0.00012207H183.48C174.25 0.344607 166.844 7.41611 166.844 16.0569C166.844 24.6978 174.25 31.7741 183.48 32.0898ZM168.648 22.5208H173.475C174.882 26.9273 177.652 30.2909 181.131 31.5683C178.479 31.1598 175.962 30.1262 173.788 28.5531C171.614 26.9799 169.846 24.9123 168.629 22.5208H168.648ZM201.154 15.9182H195.809C195.787 13.7466 195.434 11.5911 194.762 9.52608H199.57C200.57 11.5104 201.105 13.6963 201.135 15.9182H201.154ZM184.011 22.5208V31.8076C179.47 31.7214 175.561 27.9321 173.796 22.5208H184.011ZM173.691 22.1955C173.106 20.2504 172.805 18.2314 172.796 16.2005H184.011V22.1955H173.691ZM184.293 22.5208H194.513C192.728 27.9321 188.819 31.7214 184.274 31.8076L184.293 22.5208ZM184.293 22.1955V16.2005H195.513C195.509 18.2321 195.206 20.2522 194.613 22.1955H184.293ZM195.776 16.2005H201.101C201.087 18.271 200.632 20.3147 199.766 22.1955H194.92C195.494 20.2485 195.794 18.2305 195.809 16.2005H195.776ZM195.46 15.9182H184.274V9.52608H194.47C195.144 11.5899 195.49 13.747 195.494 15.9182H195.46ZM184.284 9.21987V0.311115C188.724 0.387667 192.546 3.99997 194.374 9.20074L184.284 9.21987ZM184.001 9.21987H173.916C175.734 3.99997 179.542 0.387667 183.992 0.311115L184.001 9.21987ZM184.001 9.54522V15.9182H172.777C172.79 13.7462 173.142 11.5895 173.82 9.52608L184.001 9.54522ZM172.518 15.9373H167.136C167.158 13.718 167.683 11.5325 168.672 9.54522H173.485C172.819 11.6109 172.477 13.7671 172.471 15.9373H172.518ZM172.518 16.2196C172.522 18.2502 172.82 20.2696 173.404 22.2146H168.471C167.605 20.3338 167.15 18.2901 167.136 16.2196H172.518ZM187.169 31.5779C190.594 30.3004 193.436 26.9369 194.824 22.5304H199.651C198.436 24.919 196.67 26.9848 194.5 28.5577C192.33 30.1306 189.817 31.1657 187.169 31.5779V31.5779ZM199.427 9.20074H194.69C193.254 5.02386 190.513 1.78474 187.169 0.555125C189.738 0.959157 192.18 1.9491 194.306 3.44831C196.431 4.94752 198.184 6.91579 199.427 9.20074V9.20074ZM181.102 0.555125C177.753 1.78474 175.03 4.99515 173.59 9.20074H168.806C170.054 6.91207 171.812 4.94165 173.944 3.44232C176.077 1.94298 178.526 0.955038 181.102 0.555125V0.555125Z" fill="white"/>
<path d="M169.045 4.11482H170.624V3.06223L166.279 3.08136V4.10525H167.877L162.442 22.2816L157.892 4.08611L159.395 4.09568L159.404 3.06223L151.424 3.0383V4.07176H152.825L156.074 15.9804L153.313 23.1476L148.634 4.06219L150.026 4.07176V3.0383L142.151 3.01917V4.05262H143.601L150.266 28.8077L150.318 29.0086L152.218 29.0182L156.553 17.7172L159.643 29.0278L161.548 29.0373L169.045 4.11482Z" fill="white"/>
<path d="M124.004 25.2146C125.217 26.3824 126.634 27.318 128.185 27.9752C129.756 28.6523 131.446 29.007 133.156 29.0183C133.88 29.0229 134.603 28.9556 135.314 28.8173C135.97 28.6929 136.596 28.5589 137.185 28.401L138.687 27.9848C139.187 27.7684 139.75 27.7463 140.266 27.9226C140.405 28.0432 140.509 28.1984 140.568 28.3723L140.639 28.535H141.687V20.6214H140.644L140.591 20.8272C140.382 21.7542 140.061 22.6523 139.635 23.5017C139.223 24.3313 138.691 25.0955 138.056 25.7696C137.439 26.417 136.713 26.9514 135.912 27.3485C135.072 27.7521 134.15 27.9552 133.219 27.9417C132.115 27.9669 131.017 27.7868 129.979 27.4107C129.088 27.0444 128.336 26.4044 127.831 25.583C127.185 24.4584 126.76 23.2211 126.578 21.9372C126.282 19.9866 126.146 18.0153 126.171 16.0427C126.171 14.2389 126.243 12.5547 126.377 11.0428C126.474 9.71086 126.793 8.4044 127.319 7.17696C127.754 6.16383 128.48 5.30283 129.405 4.70336C130.573 4.05495 131.899 3.74666 133.233 3.81344C134.267 3.77587 135.294 3.99447 136.223 4.44978C137.003 4.86083 137.692 5.42559 138.247 6.11001C138.802 6.79544 139.264 7.55164 139.62 8.35873C139.955 9.14817 140.257 9.95676 140.529 10.751L140.591 10.9424H141.51V3.34935H140.448L140.395 3.56465C140.324 3.89 140.228 3.96176 140.194 3.98569C140.001 4.05336 139.796 4.08103 139.592 4.06702C139.235 4.05783 138.882 3.99492 138.544 3.88043L137.075 3.44025C136.51 3.28715 135.912 3.13883 135.295 3.00486C134.609 2.86312 133.91 2.79258 133.209 2.79434C131.626 2.81538 130.062 3.14023 128.601 3.75125C125.41 5.02609 122.804 7.44028 121.291 10.5261C120.475 12.1653 120.034 13.9659 120.002 15.7967C119.97 17.6276 120.346 19.4426 121.104 21.1095C121.803 22.6485 122.787 24.0414 124.004 25.2146V25.2146Z" fill="white"/>
<path d="M199.015 3.31104V4.35406H202.149V27.4298H199.015V28.4728H210.976V27.4298H207.761V16.5354H209.852C210.512 16.511 211.168 16.6439 211.766 16.923C212.26 17.1759 212.694 17.5315 213.039 17.966C213.406 18.4317 213.689 18.9579 213.876 19.521C214.1 20.1477 214.289 20.7866 214.44 21.4348V21.6453H215.397V10.3634H214.44V10.5835C214.283 11.2972 214.062 11.9953 213.78 12.6695C213.561 13.2317 213.251 13.7538 212.862 14.2149C212.484 14.6296 212.02 14.9562 211.503 15.1718C210.835 15.4218 210.125 15.5388 209.412 15.5163H207.742V4.33492H212.694C213.475 4.32132 214.252 4.44438 214.991 4.69854C215.62 4.92998 216.198 5.28456 216.689 5.74157C217.199 6.22276 217.631 6.77949 217.971 7.39222C218.377 8.09759 218.727 8.83343 219.019 9.5931L219.091 9.77013H220V3.31104H199.015Z" fill="white"/>
<path d="M195.652 20.4539H194.91V20.5736C194.69 21.5236 194.361 22.4451 193.929 23.3199C193.513 24.1422 192.969 24.8931 192.317 25.5447C191.676 26.1641 190.927 26.6604 190.106 27.0087C189.211 27.3627 188.256 27.5398 187.293 27.5302H181.757V16.4397H183.91C184.583 16.4219 185.251 16.5577 185.863 16.8369C186.368 17.0879 186.814 17.4454 187.169 17.8847C187.542 18.3655 187.831 18.9057 188.025 19.4827C188.236 20.0951 188.432 20.7362 188.59 21.3965V21.5305H189.331V10.4448H188.59V10.5691C188.447 11.2831 188.24 11.9829 187.973 12.66C187.748 13.2319 187.435 13.7647 187.044 14.2389C186.653 14.6934 186.162 15.0505 185.609 15.2819C184.941 15.5268 184.234 15.6437 183.523 15.6264H181.743V4.22967H187.877C188.843 4.20513 189.801 4.41701 190.666 4.84687C191.39 5.21434 192.04 5.71416 192.58 6.3205C193.039 6.84179 193.422 7.4248 193.719 8.0525C193.947 8.53174 194.139 9.02755 194.293 9.53569V9.65052H195.034V3.38281H173.274V4.20096H176.408V27.535H172.892V28.3484H195.652V20.4539Z" fill="#009FD1"/>
</svg>
