<svg width="189" height="35" viewBox="0 0 189 35" fill="none" xmlns="http://www.w3.org/2000/svg">
<g clip-path="url(#clip0_1278_4341)">
<path d="M95.165 6.10352e-05H0V35.0001H95.165V6.10352e-05Z" fill="#D60C18"/>
<path d="M10.3105 9.94591C10.8289 10.2788 11.458 10.3931 12.0605 10.2638C12.6438 10.1238 13.2067 9.97216 13.7784 9.80299C14.7759 9.51132 15.7705 9.21966 16.7738 8.92799C17.2755 8.79674 17.7771 8.66841 18.2817 8.55757C18.511 8.52262 18.7372 8.46996 18.9584 8.40007C19.183 8.30966 19.3842 8.16674 19.5942 8.06466C19.9121 7.91591 20.23 7.77299 20.5713 7.64466C21.525 7.25674 23.5667 6.76966 23.0621 5.31132C22.9017 4.8359 22.4263 4.6259 22.0092 4.40715C21.5692 4.21509 21.0833 4.15334 20.6092 4.22924C20.1502 4.23449 19.7052 4.38795 19.3405 4.66674C18.8417 5.28799 18.0192 5.47466 17.398 5.97341C17.1792 6.13674 16.8788 6.13966 16.66 6.30882C16.5521 6.39341 16.5171 6.46341 16.3859 6.50132C16.2718 6.51645 16.1568 6.52424 16.0417 6.52466C15.8259 6.55382 15.613 6.58299 15.4059 6.61799C14.7894 6.69902 14.1869 6.86388 13.615 7.10799C13.3296 7.24441 13.0556 7.40339 12.7955 7.58341C12.5417 7.75257 12.3055 7.68549 12.0167 7.70299C11.728 7.72049 11.5005 7.75257 11.238 7.79049L10.4621 7.92174L10.0713 7.97716C9.939 7.96722 9.80607 7.98408 9.68046 8.02674C9.58191 8.10915 9.5158 8.22385 9.4939 8.35044C9.472 8.47702 9.49574 8.60727 9.56088 8.71799C9.78838 9.19924 9.82046 9.66007 10.3105 9.94591Z" fill="white"/>
<path d="M49.2158 9.26632C49.6854 9.14091 50.0908 9.03591 50.3358 8.58382C50.4116 8.44382 50.4962 8.29215 50.5662 8.1609C50.7214 7.88144 50.7961 7.56443 50.7821 7.24507C50.6604 6.99541 50.4676 6.78735 50.2279 6.64716C49.7747 6.42632 49.2894 6.27866 48.79 6.20966C48.2066 6.08716 47.6058 5.94424 47.0196 5.86841C46.6735 5.82737 46.3228 5.85412 45.9871 5.94715C45.3209 6.12498 44.671 6.35916 44.0446 6.64716C43.3271 6.96507 42.455 6.77549 41.7841 7.21299C41.4931 7.34937 41.1799 7.43235 40.8596 7.45799C40.4629 7.55132 40.0866 7.70882 39.6929 7.83716C39.0279 8.05007 38.3629 8.25716 37.6891 8.44091C37.2079 8.57216 36.7091 8.4409 36.2308 8.67132C36.0466 8.80595 35.8515 8.92498 35.6475 9.02716C35.4346 9.10007 35.2158 9.19924 35.0087 9.27216C34.2475 9.54049 33.4191 9.72424 32.6375 9.93132C31.2491 10.4067 29.7004 10.1997 28.2625 10.468C27.8483 10.573 27.4166 10.6342 27.0958 10.9638C26.9937 11.4538 27.3496 11.6434 27.6791 11.8738C28.0087 12.1042 28.2625 12.5622 28.6562 12.8042C29.001 12.9946 29.3622 13.1538 29.7354 13.2797C30.5696 13.618 31.3512 14.0613 32.2496 14.2363C32.7425 14.3297 33.7546 14.4492 34.2037 14.1488C34.7316 13.7959 35.3266 13.5655 35.8371 13.1688C36.0762 12.9909 36.2687 12.7605 36.5137 12.5855C36.7953 12.4346 37.0689 12.2691 37.3333 12.0897C37.6494 11.7668 38.0028 11.4829 38.3862 11.2438C38.8791 11.1622 39.34 10.608 39.83 10.9522C40.0662 11.0601 39.9554 11.2701 39.9671 11.483C39.9787 11.6959 40.1362 11.9555 40.1362 12.2092C40.1285 12.4555 40.0882 12.6997 40.0166 12.9355V13.3292C40.2616 18.0601 39.8533 22.5576 39.4333 27.3292C39.2408 27.9126 39.4741 28.4551 39.6083 29.0238C39.6259 29.2502 39.675 29.4731 39.7541 29.6859C39.9871 30.0956 40.3349 30.4281 40.7546 30.6426C41.5975 30.9342 42.7758 31.0626 43.4408 30.3217C44.1204 30.0038 44.3158 29.3534 44.4296 28.6709C44.5238 28.0533 44.5861 27.4312 44.6162 26.8072C44.6158 26.3127 44.5411 25.8211 44.3946 25.3488C44.3362 25.1038 44.3187 24.853 44.2633 24.608C44.1671 24.2201 44.0446 23.8322 43.9716 23.4413C43.6827 21.5544 43.5374 19.6482 43.5371 17.7392C43.5779 16.4676 43.2454 14.8751 43.0821 13.7755C42.7116 12.9472 43.2279 12.1188 42.8341 11.2934C42.6591 10.8822 42.735 10.3805 42.7321 9.9459C42.7321 9.5784 42.9887 9.44132 43.2862 9.28091C43.3995 9.22268 43.5061 9.15227 43.6041 9.07091C43.7136 8.99907 43.8351 8.94768 43.9629 8.91924C44.0854 8.87841 44.205 8.8434 44.3304 8.81132C45.22 8.5809 46.2233 8.43507 47.0429 8.96007C47.2549 9.125 47.4994 9.24328 47.7604 9.30715C48.2413 9.41529 48.7417 9.40125 49.2158 9.26632Z" fill="white"/>
<path d="M33.1071 27.1396C32.9254 26.9771 32.7235 26.8389 32.5062 26.7284C32.2583 26.6321 31.9841 26.6146 31.7333 26.5271C31.0949 26.2778 30.4864 25.9579 29.9191 25.5734C29.799 25.4766 29.6712 25.3898 29.5371 25.3138C29.4046 25.2792 29.2685 25.2606 29.1316 25.2584C28.875 25.203 28.7233 24.9667 28.4958 24.8471C28.3908 24.7888 28.2537 24.7713 28.1779 24.6751C27.9481 24.478 27.6919 24.314 27.4166 24.188C27.1629 24.0159 26.8829 23.9634 26.6204 23.8117C26.3881 23.669 26.1668 23.5091 25.9583 23.3334C25.5978 22.9669 25.1932 22.6465 24.7537 22.3796C23.2166 21.6738 22.1666 19.8801 21.0146 18.6988C20.2708 18.0192 19.3229 17.0713 19.3433 15.89C19.6612 15.1492 20.5596 14.9013 21.2216 14.5484C22.05 13.93 23.2283 13.5917 23.7008 12.6059C23.784 12.4261 23.8219 12.2287 23.8112 12.031C23.8005 11.8332 23.7416 11.641 23.6396 11.4713C23.3712 10.9113 22.6858 10.9317 22.1521 10.7246C21.8199 10.6974 21.4857 10.737 21.1691 10.8413C20.6447 11.0398 20.1671 11.3446 19.7662 11.7367C19.5737 11.9088 19.4046 12.1246 19.2062 12.288C18.991 12.4239 18.7543 12.5225 18.5062 12.5796C18.385 12.6451 18.2458 12.6694 18.1095 12.6488C17.9733 12.6283 17.8474 12.5641 17.7508 12.4659C17.5556 11.9136 17.274 11.3958 16.9166 10.9317C16.7973 10.8681 16.6664 10.8294 16.5316 10.818C16.4033 10.7859 16.3246 10.6838 16.2137 10.6517C16.0271 10.5992 15.7821 10.7334 15.5779 10.7334C15.3276 10.7017 15.0737 10.7155 14.8283 10.7742C14.544 10.8892 14.3004 11.0862 14.1283 11.34C13.9387 11.6317 14.0204 11.8359 13.9825 12.1509C13.9621 12.3638 13.9096 12.5709 13.8687 12.7867C13.8163 12.9958 13.787 13.21 13.7812 13.4255C13.8132 13.6224 13.857 13.8172 13.9125 14.0088C13.9308 14.2912 13.8763 14.5736 13.7542 14.8289C13.6322 15.0843 13.4467 15.304 13.2154 15.4671C13.0072 15.6384 12.7814 15.7871 12.5416 15.9105C12.2646 16.0621 11.9583 16.1 11.6666 16.2284C11.4029 16.3543 11.1493 16.5005 10.9083 16.6659C10.6633 16.8292 10.4241 16.9838 10.1646 17.1355C9.90498 17.2871 9.59873 17.3192 9.34498 17.4534C8.88998 17.678 8.3504 17.7188 7.88665 17.9084C7.39082 18.0105 6.52457 17.8238 6.29707 18.4421C6.37936 18.9963 6.64054 19.5084 7.04081 19.9005C7.30915 20.4838 8.09373 20.7055 8.63331 21.1021C9.43831 21.3676 10.2462 20.9767 11.0104 21.038C11.3021 22.1113 11.2146 23.2255 10.4708 24.013C10.3334 24.4334 10.1264 24.8278 9.85831 25.1796C9.72444 25.3515 9.57926 25.5142 9.42373 25.6667C9.28373 25.8009 9.23123 25.9846 9.09123 26.1246C8.9369 26.3157 8.7607 26.488 8.56623 26.638C8.27456 26.8042 8.17831 26.5942 7.95081 26.4542C7.81008 26.3694 7.65637 26.3083 7.49581 26.2734C7.18006 26.2076 6.85322 26.2176 6.54207 26.3026C6.32171 26.4078 6.14154 26.5818 6.02873 26.7984C5.86196 26.9601 5.75067 27.1704 5.71082 27.3992C5.74366 27.5386 5.78456 27.6759 5.83332 27.8105C5.89457 28.1021 5.78373 28.2859 5.9879 28.5601C6.1454 28.7701 6.10165 28.8517 6.13665 29.1084C6.1626 29.2239 6.21336 29.3324 6.2854 29.4263C6.42248 29.5976 6.58475 29.747 6.76665 29.8696C6.91954 29.9912 7.08957 30.0895 7.27123 30.1613C7.44719 30.1922 7.62145 30.2321 7.79331 30.2809C8.1053 30.4595 8.46063 30.5484 8.81998 30.5376C9.42373 30.5084 9.93998 30.2459 10.5058 30.0738C10.7774 30.0061 11.0405 29.9082 11.2904 29.7821C11.5195 29.629 11.7325 29.4531 11.9262 29.2571C12.1916 29.0238 12.4454 28.7817 12.6875 28.528C13.1212 28.0795 13.5118 27.5913 13.8541 27.0696C14.029 26.8132 14.1897 26.5474 14.3354 26.2734C14.4637 26.0284 14.525 25.763 14.6271 25.5151C14.6883 25.378 14.7816 25.2584 14.8371 25.1213C14.9549 24.8699 15.0525 24.6095 15.1287 24.3426C15.1851 24.1048 15.2745 23.876 15.3941 23.663C15.5605 23.258 15.659 22.8283 15.6858 22.3913C15.7208 22.1959 15.7937 22.0092 15.8287 21.808C15.8637 21.6067 15.855 21.3355 15.9075 21.1021C15.9895 20.7616 16.1338 20.4392 16.3333 20.1513C16.8049 20.2417 17.2231 20.5114 17.5 20.9038C17.6634 21.0862 17.8367 21.2595 18.0191 21.423C18.235 21.6067 18.3808 21.8605 18.6025 22.0384C19.25 22.5401 19.6816 23.2867 20.125 23.9459C20.6879 24.748 21.2246 25.5705 21.7846 26.3755C22.3446 27.1805 22.8287 27.933 23.5754 28.5017C24.1285 28.9826 24.7131 29.426 25.3254 29.8288C25.7804 30.0913 26.3696 30.0155 26.8712 30.0242C27.7906 30.0208 28.709 29.9634 29.6216 29.8521C30.0737 29.8055 30.5287 29.7559 30.9779 29.7238C31.1915 29.7301 31.4053 29.7174 31.6166 29.6859C31.9987 29.6451 32.3896 29.4701 32.7833 29.3942C33.1771 29.3184 33.6233 29.2571 33.8771 28.9451C33.9806 28.8197 34.0538 28.672 34.0907 28.5136C34.1277 28.3552 34.1274 28.1904 34.09 28.0321C33.9296 27.6092 33.4571 27.3905 33.1071 27.1396Z" fill="white"/>
<path d="M58.7096 23.838C58.8879 23.8395 59.0659 23.8219 59.2405 23.7855C59.4057 23.7471 59.5662 23.6904 59.7188 23.6163L59.8355 23.2284H59.7917C59.6575 23.3402 59.5058 23.4289 59.3425 23.4909C59.1867 23.5536 59.0205 23.5862 58.8525 23.5872C58.69 23.5974 58.5273 23.5686 58.3781 23.5032C58.2289 23.4377 58.0976 23.3375 57.995 23.2109C57.7783 22.8925 57.6756 22.5101 57.7034 22.1259C57.681 21.7614 57.7839 21.4002 57.995 21.1022C58.0906 20.9802 58.2143 20.883 58.3554 20.819C58.4966 20.7551 58.6511 20.7261 58.8059 20.7347C59.0102 20.7269 59.2126 20.7775 59.3892 20.8805C59.5355 20.9745 59.6392 21.1222 59.678 21.2918H59.748C59.7595 21.1849 59.7771 21.0787 59.8005 20.9738C59.8166 20.8747 59.841 20.7772 59.8734 20.6822C59.6991 20.6063 59.5186 20.5458 59.3338 20.5013C59.1585 20.4629 58.9795 20.4433 58.8 20.443C58.3042 20.4168 57.8173 20.5829 57.4409 20.9068C57.2712 21.064 57.1379 21.2564 57.0502 21.4705C56.9625 21.6846 56.9227 21.9152 56.9334 22.1463C56.9187 22.3793 56.9528 22.6128 57.0337 22.8318C57.1146 23.0508 57.2404 23.2505 57.403 23.418C57.7672 23.7229 58.236 23.8736 58.7096 23.838Z" fill="white"/>
<path d="M62.4896 22.6217C62.4977 22.4576 62.4723 22.2935 62.415 22.1395C62.3578 21.9854 62.2698 21.8446 62.1565 21.7256C62.0432 21.6066 61.9068 21.5118 61.7558 21.4471C61.6047 21.3823 61.4421 21.3489 61.2778 21.3489C61.1134 21.3489 60.9508 21.3823 60.7997 21.4471C60.6487 21.5118 60.5124 21.6066 60.399 21.7256C60.2857 21.8446 60.1977 21.9854 60.1405 22.1395C60.0832 22.2935 60.0578 22.4576 60.0659 22.6217C60.0557 22.784 60.0778 22.9467 60.1309 23.1004C60.1839 23.2541 60.2669 23.3957 60.375 23.5172C60.4944 23.628 60.6351 23.7134 60.7886 23.768C60.942 23.8227 61.105 23.8455 61.2675 23.8351C61.4122 23.8496 61.5582 23.8354 61.6974 23.7934C61.8365 23.7514 61.966 23.6824 62.0784 23.5903C62.1908 23.4982 62.284 23.3848 62.3526 23.2566C62.4211 23.1285 62.4637 22.9881 62.478 22.8434C62.4867 22.7698 62.4867 22.6954 62.478 22.6217H62.4896ZM61.6671 23.3947C61.6321 23.4666 61.5766 23.5266 61.5076 23.5671C61.4386 23.6076 61.3591 23.6268 61.2792 23.6222C61.2002 23.6264 61.1216 23.607 61.0536 23.5665C60.9856 23.526 60.9311 23.4662 60.8971 23.3947C60.8061 23.1478 60.7692 22.8841 60.7892 22.6217C60.7712 22.357 60.81 22.0915 60.903 21.843C60.9405 21.7735 60.996 21.7155 61.0638 21.6751C61.1316 21.6346 61.209 21.6133 61.288 21.6133C61.3669 21.6133 61.4443 21.6346 61.5121 21.6751C61.5799 21.7155 61.6355 21.7735 61.673 21.843C61.7657 22.0905 61.8045 22.3551 61.7867 22.6188C61.8044 22.8831 61.7636 23.148 61.6671 23.3947Z" fill="white"/>
<path d="M66.5 23.7738C66.5 23.6163 66.5 23.4617 66.4796 23.3159V22.5896C66.4874 22.3711 66.4747 22.1524 66.4416 21.9363C66.4196 21.8291 66.3715 21.7289 66.3016 21.6446C66.2363 21.5696 66.1544 21.5107 66.0625 21.4725C65.9405 21.4275 65.8103 21.4089 65.6806 21.418C65.5509 21.427 65.4245 21.4635 65.31 21.525C65.1786 21.6096 65.0695 21.7247 64.9921 21.8605C64.9411 21.7315 64.8527 21.6208 64.7383 21.5425C64.6144 21.4649 64.4704 21.4253 64.3241 21.4288C64.1886 21.4251 64.0543 21.4551 63.9333 21.5163C63.8068 21.5896 63.6974 21.689 63.6125 21.808V21.4755H62.9417C62.9417 21.735 62.9592 21.9596 62.965 22.1521C62.9708 22.3446 62.965 22.4992 62.965 22.6246V23.103C62.965 23.2984 62.965 23.5259 62.9417 23.7796H63.6416V23.7359C63.6416 23.5521 63.6241 23.418 63.6241 23.345V22.5721C63.6114 22.3734 63.6422 22.1743 63.7146 21.9888C63.7685 21.9089 63.8518 21.8537 63.9464 21.8351C64.0409 21.8165 64.139 21.8361 64.2191 21.8896C64.2578 21.9166 64.2914 21.9501 64.3183 21.9888C64.3935 22.2471 64.4212 22.5169 64.4 22.785V23.2634C64.4 23.4267 64.3825 23.6075 64.3708 23.7855H65.0912V22.5721C65.0771 22.3736 65.1069 22.1744 65.1787 21.9888C65.2145 21.9376 65.2621 21.8959 65.3174 21.867C65.3728 21.8382 65.4342 21.8232 65.4966 21.8232C65.5591 21.8232 65.6205 21.8382 65.6759 21.867C65.7312 21.8959 65.7788 21.9376 65.8146 21.9888C65.8901 22.216 65.9198 22.4559 65.9021 22.6946V23.1992C65.9021 23.383 65.8846 23.5696 65.87 23.7825H66.5V23.7738Z" fill="white"/>
<path d="M68.5416 23.7738H69.2591V22.5722C69.2474 22.3735 69.2782 22.1746 69.3495 21.9888C69.3853 21.9377 69.4329 21.8959 69.4882 21.8671C69.5436 21.8383 69.605 21.8232 69.6675 21.8232C69.7299 21.8232 69.7914 21.8383 69.8467 21.8671C69.902 21.8959 69.9496 21.9377 69.9854 21.9888C70.0609 22.216 70.0906 22.4559 70.0729 22.6947V23.1992C70.0729 23.383 70.0554 23.5697 70.0408 23.7826H70.7583C70.7583 23.6251 70.7583 23.4705 70.7408 23.3247V22.5897C70.7231 22.3752 70.688 22.1626 70.6358 21.9538C70.613 21.8469 70.565 21.7469 70.4958 21.6622C70.4301 21.5875 70.3483 21.5287 70.2566 21.4901C70.1342 21.4453 70.0038 21.4266 69.8737 21.4351C69.7436 21.4437 69.6167 21.4793 69.5012 21.5397C69.3648 21.6228 69.2506 21.7379 69.1687 21.8751C69.1203 21.7447 69.0314 21.6333 68.915 21.5572C68.7918 21.4778 68.6472 21.4382 68.5008 21.4434C68.3657 21.4411 68.232 21.47 68.11 21.528C67.9837 21.6006 67.8752 21.7002 67.792 21.8197V21.493H67.1183C67.1183 21.7555 67.1358 21.9801 67.1387 22.1697C67.1416 22.3592 67.1387 22.5167 67.1387 22.6451V23.1234C67.1387 23.3159 67.1387 23.5463 67.1183 23.8001H67.8183V23.7563C67.8183 23.5697 67.8008 23.4384 67.8008 23.3655V22.5722C67.7882 22.3735 67.8191 22.1744 67.8912 21.9888C67.9182 21.9491 67.9527 21.9151 67.9928 21.8888C68.0329 21.8624 68.0778 21.8443 68.125 21.8353C68.1721 21.8264 68.2206 21.8268 68.2675 21.8367C68.3145 21.8465 68.3591 21.8655 68.3987 21.8926C68.4364 21.9185 68.469 21.9512 68.495 21.9888C68.5686 22.2474 68.5962 22.5169 68.5766 22.7851V23.2634C68.5766 23.418 68.5416 23.5959 68.5416 23.7738Z" fill="white"/>
<path d="M73.5554 22.6217C73.5654 22.4581 73.5421 22.2941 73.4869 22.1397C73.4318 21.9853 73.3459 21.8437 73.2345 21.7234C72.9932 21.508 72.6785 21.3935 72.3552 21.4033C72.0319 21.4131 71.7248 21.5466 71.497 21.7763C71.2692 22.0059 71.1382 22.3142 71.1311 22.6375C71.1239 22.9609 71.241 23.2747 71.4583 23.5142C71.7098 23.7196 72.0246 23.8318 72.3493 23.8318C72.6741 23.8318 72.9888 23.7196 73.2404 23.5142C73.3499 23.3941 73.4341 23.2532 73.4882 23.0999C73.5423 22.9466 73.5652 22.784 73.5554 22.6217ZM72.727 23.3946C72.6889 23.4633 72.6331 23.5205 72.5654 23.5603C72.4977 23.6002 72.4206 23.6212 72.342 23.6212C72.2635 23.6212 72.1864 23.6002 72.1187 23.5603C72.051 23.5205 71.9952 23.4633 71.9571 23.3946C71.8639 23.1482 71.8251 22.8845 71.8433 22.6217C71.8253 22.357 71.8641 22.0915 71.9571 21.843C72.013 21.7443 72.1049 21.671 72.2136 21.6384C72.3223 21.6058 72.4393 21.6164 72.5404 21.668C72.6137 21.7091 72.6742 21.7697 72.7154 21.843C72.809 22.0903 72.8488 22.3548 72.832 22.6188C72.8493 22.8828 72.8095 23.1474 72.7154 23.3946H72.727Z" fill="white"/>
<path d="M75.3637 21.9742C75.4392 22.1913 75.469 22.4217 75.4512 22.6509V23.2867C75.4572 23.4505 75.4485 23.6145 75.425 23.7767H76.1395C76.1395 23.6542 76.1221 23.523 76.1162 23.3888C76.1104 23.2546 76.1162 23.0971 76.1162 22.963V22.3563C76.1191 22.1981 76.1074 22.0399 76.0812 21.8838C76.0616 21.7987 76.0215 21.7196 75.9646 21.6534C75.8995 21.574 75.8151 21.5128 75.7195 21.4755C75.6005 21.4313 75.4738 21.4116 75.347 21.4176C75.2202 21.4236 75.0959 21.4552 74.9816 21.5105C74.8551 21.5826 74.7465 21.6823 74.6637 21.8021V21.4813H74.0104C74.0104 21.6709 74.0308 21.8634 74.0366 22.0646V23.1934C74.0366 23.383 74.022 23.5871 74.0104 23.8001H74.7045C74.7045 23.5463 74.7045 23.3246 74.687 23.1351C74.6768 22.9709 74.6768 22.8063 74.687 22.6421C74.672 22.4324 74.7049 22.2219 74.7833 22.0267C74.8105 21.967 74.8559 21.9173 74.913 21.8849C74.9701 21.8524 75.0359 21.8388 75.1012 21.8459C75.1521 21.8445 75.2025 21.8554 75.2482 21.8778C75.294 21.9001 75.3336 21.9332 75.3637 21.9742Z" fill="white"/>
<path d="M80.9083 20.4984H80.6837C80.5846 20.9038 80.4796 21.3063 80.3658 21.7001C80.2521 22.0938 80.1208 22.4847 79.9866 22.8668C79.8408 22.4526 79.695 22.0472 79.5754 21.6534C79.4558 21.2597 79.3245 20.8718 79.2108 20.4868H78.7237C78.5983 20.8601 78.47 21.248 78.3329 21.6534C78.1958 22.0588 78.0558 22.4643 77.9041 22.9018C77.7787 22.5051 77.665 22.1055 77.557 21.703C77.4491 21.3005 77.347 20.898 77.2391 20.4955H76.4166C76.6111 21.0652 76.7939 21.6252 76.965 22.1755C77.1341 22.7209 77.2829 23.2634 77.4229 23.7913H77.9129C78.047 23.3801 78.1812 22.9834 78.3183 22.5926C78.4554 22.2018 78.61 21.8255 78.7412 21.4551C78.89 21.8634 79.0329 22.263 79.1612 22.6509C79.2895 23.0388 79.4091 23.418 79.52 23.7913H80.0187C80.2141 23.1759 80.4037 22.5984 80.5875 22.0413C80.7712 21.4843 80.9433 20.9768 81.1154 20.4897H80.9054L80.9083 20.4984Z" fill="white"/>
<path d="M82.39 21.4055C82.2355 21.3973 82.0811 21.4213 81.9365 21.476C81.7919 21.5308 81.6602 21.615 81.55 21.7234C81.4427 21.8369 81.3592 21.9707 81.3046 22.117C81.25 22.2633 81.2253 22.4191 81.232 22.5751C81.2217 22.7416 81.2445 22.9086 81.299 23.0663C81.3536 23.224 81.4389 23.3693 81.55 23.4938C81.6662 23.604 81.8038 23.6891 81.9544 23.7438C82.1049 23.7985 82.2651 23.8216 82.425 23.8117C82.5746 23.8136 82.7237 23.795 82.8683 23.7563C82.9948 23.7212 83.115 23.6661 83.2241 23.593L83.3291 23.3188L83.2854 23.2838C83.1976 23.3559 83.0992 23.4139 82.9937 23.4559C82.892 23.494 82.7844 23.5138 82.6758 23.5142C82.5739 23.5174 82.4727 23.497 82.3801 23.4545C82.2875 23.4119 82.206 23.3485 82.142 23.2692C82.0001 23.0786 81.929 22.8445 81.9408 22.6071H83.4166V22.4584C83.4278 22.3154 83.4103 22.1715 83.3653 22.0353C83.3202 21.8991 83.2484 21.7732 83.1541 21.6651C83.052 21.5708 82.9312 21.499 82.7995 21.4543C82.6679 21.4096 82.5284 21.3929 82.39 21.4055ZM82.7429 22.3242V22.3913H81.9262V22.3446C81.9149 22.1566 81.9552 21.9689 82.0429 21.8021C82.0744 21.7451 82.1204 21.6973 82.1762 21.6635C82.2319 21.6298 82.2956 21.6112 82.3608 21.6096C82.4204 21.6077 82.4793 21.6225 82.5309 21.6524C82.5825 21.6823 82.6246 21.7261 82.6525 21.7788C82.7247 21.9327 82.7578 22.102 82.7487 22.2717C82.7482 22.2894 82.7463 22.3069 82.7429 22.3242Z" fill="white"/>
<path d="M85.6917 23.5084C85.635 23.3905 85.6118 23.2594 85.6246 23.1292V23.0417L85.6421 22.2017V22.1667C85.65 22.0582 85.6331 21.9492 85.5927 21.8482C85.5522 21.7471 85.4893 21.6566 85.4087 21.5834C85.2176 21.4381 84.9804 21.3667 84.7408 21.3821C84.5912 21.3838 84.4434 21.4156 84.3062 21.4755C84.1517 21.5453 84.009 21.6388 83.8833 21.7526C83.901 21.7942 83.9156 21.8371 83.9271 21.8809C83.9417 21.943 83.9622 22.0035 83.9883 22.0617C84.0492 21.9488 84.1326 21.8495 84.2333 21.7701C84.319 21.7105 84.4206 21.678 84.525 21.6767C84.584 21.6766 84.6425 21.6882 84.697 21.7107C84.7516 21.7332 84.8012 21.7663 84.8429 21.808C84.8859 21.8546 84.9191 21.9092 84.9407 21.9689C84.9622 22.0285 84.9716 22.0918 84.9683 22.1551V22.2367C84.8054 22.3295 84.6308 22.4001 84.4492 22.4467L84.2042 22.5226C84.057 22.5636 83.9246 22.6455 83.8221 22.7588C83.738 22.8669 83.6947 23.0011 83.6996 23.138C83.6942 23.2272 83.7069 23.3167 83.7369 23.4009C83.767 23.4851 83.8138 23.5624 83.8746 23.628C83.9371 23.6892 84.0116 23.7369 84.0934 23.768C84.1752 23.7991 84.2626 23.813 84.35 23.8088C84.4827 23.8109 84.6135 23.7776 84.7292 23.7126C84.8426 23.6501 84.9372 23.5585 85.0033 23.4471C85.0215 23.5474 85.0741 23.6382 85.1521 23.7038C85.2358 23.7671 85.339 23.7991 85.4438 23.7942C85.529 23.7921 85.614 23.7823 85.6975 23.7651C85.786 23.748 85.8721 23.7206 85.9542 23.6834V23.5667H85.9367C85.894 23.5746 85.8502 23.5734 85.808 23.5634C85.7658 23.5533 85.7262 23.5346 85.6917 23.5084ZM84.9946 23.0651C85.0035 23.1831 84.9738 23.3008 84.91 23.4005C84.8814 23.4378 84.8441 23.4676 84.8015 23.4874C84.7588 23.5072 84.712 23.5164 84.665 23.5142C84.622 23.5172 84.579 23.5094 84.5398 23.4916C84.5006 23.4738 84.4665 23.4465 84.4404 23.4121C84.3838 23.3162 84.3573 23.2054 84.3646 23.0942C84.3604 23.0227 84.3715 22.9511 84.3972 22.8843C84.4228 22.8174 84.4624 22.7567 84.5133 22.7063C84.6522 22.5953 84.8185 22.5237 84.9946 22.4992V23.0651Z" fill="white"/>
<path d="M87.007 20.1542C86.9403 20.1577 86.874 20.1665 86.8087 20.1805C86.7543 20.1834 86.6998 20.1834 86.6454 20.1805C86.5919 20.1834 86.5384 20.1834 86.4849 20.1805C86.4179 20.1805 86.3537 20.1805 86.2866 20.1542C86.2866 20.4167 86.307 20.6938 86.3129 20.9942C86.3187 21.2947 86.3129 21.6301 86.3129 21.9742V22.928C86.3129 23.2197 86.2983 23.5113 86.2866 23.7767C86.345 23.7767 86.4033 23.7592 86.4616 23.7563C86.5856 23.7417 86.7109 23.7417 86.8349 23.7563C86.8926 23.7602 86.95 23.7671 87.007 23.7767C87.007 23.5172 86.9837 23.2372 86.9779 22.9397C86.972 22.6422 86.9779 22.3038 86.9779 21.9567V21.0001C86.9779 20.6851 86.9954 20.4167 87.007 20.1542Z" fill="white"/>
<path d="M88.5587 23.5755C88.5139 23.5785 88.4694 23.5671 88.4316 23.5429C88.3939 23.5188 88.3648 23.4832 88.3487 23.4413C88.2993 23.2155 88.2816 22.9838 88.2962 22.753V22.5605C88.2962 22.4205 88.2962 22.1813 88.2962 21.8459V21.7351H88.7745C88.7716 21.6992 88.7716 21.6631 88.7745 21.6272C88.7716 21.6118 88.7716 21.5959 88.7745 21.5805V21.4988H88.3049V21.0672C88.3025 20.9132 88.3102 20.7593 88.3283 20.6063L88.2758 20.5684C88.1737 20.618 88.0687 20.6647 87.9549 20.7143L87.637 20.8484C87.633 20.9363 87.6388 21.0244 87.6545 21.1109C87.6618 21.1778 87.6618 21.2453 87.6545 21.3122V21.4959H87.5991C87.5176 21.5018 87.4357 21.5018 87.3541 21.4959H87.325V21.5455C87.3279 21.5717 87.3279 21.5981 87.325 21.6243V21.7468H87.6458V23.2051C87.6368 23.2908 87.6469 23.3774 87.6754 23.4588C87.704 23.5401 87.7501 23.6141 87.8106 23.6754C87.8712 23.7368 87.9445 23.784 88.0254 23.8136C88.1064 23.8432 88.1929 23.8545 88.2787 23.8468C88.3663 23.8478 88.4536 23.837 88.5383 23.8147C88.6386 23.7889 88.7362 23.7537 88.8299 23.7097V23.5318C88.7412 23.5555 88.6504 23.5701 88.5587 23.5755Z" fill="white"/>
<path d="M91.2712 23.418V22.3563C91.2742 22.2 91.2624 22.0438 91.2362 21.8897C91.2141 21.8025 91.1722 21.7217 91.1137 21.6534C91.0486 21.5741 90.9643 21.5128 90.8687 21.4755C90.7674 21.4359 90.6595 21.4161 90.5508 21.4172C90.4027 21.4136 90.2562 21.4478 90.1249 21.5163C89.9968 21.5862 89.8876 21.6863 89.807 21.808V20.5801C89.8079 20.4377 89.8167 20.2956 89.8333 20.1542L89.6524 20.1834H89.3141L89.1274 20.1542C89.142 20.3584 89.1537 20.6005 89.1595 20.8805C89.1654 21.1605 89.1595 21.5542 89.1595 22.0472V23.1351C89.1595 23.3859 89.142 23.5959 89.1274 23.7709H89.8333C89.8378 23.5587 89.83 23.3464 89.8099 23.1351C89.7997 22.9612 89.7997 22.7869 89.8099 22.613C89.7966 22.4042 89.8295 22.1951 89.9062 22.0005C89.9375 21.9477 89.9814 21.9034 90.034 21.8718C90.0865 21.8401 90.1462 21.8221 90.2075 21.8192C90.2688 21.8163 90.3299 21.8287 90.3852 21.8552C90.4406 21.8818 90.4884 21.9217 90.5245 21.9713C90.5979 22.1889 90.6257 22.4192 90.6062 22.648V23.2867C90.6121 23.4505 90.6033 23.6145 90.5799 23.7767H91.2916C91.2776 23.6577 91.2707 23.5379 91.2712 23.418Z" fill="white"/>
<path d="M60.8387 28.1721L60.5471 25.8621H60.1067C59.9287 26.2588 59.7508 26.6438 59.5642 27.0288C59.3775 27.4138 59.1967 27.7696 59.0042 28.1284C58.8087 27.758 58.6133 27.3846 58.4208 27.0142C58.2283 26.6438 58.0504 26.2559 57.8783 25.8709H57.4583L57.1667 28.143C57.1667 28.2188 57.1375 28.3442 57.1112 28.5221C57.085 28.7 57.0471 28.913 57.0092 29.158L57.1112 29.1405H57.2979L57.4029 29.158C57.4141 28.7911 57.4442 28.425 57.4933 28.0613V28.0234L57.61 27.02C57.7821 27.338 57.9571 27.6792 58.1379 28.035C58.3187 28.3909 58.4967 28.7671 58.6862 29.158H58.8817C59.0712 28.7613 59.255 28.3763 59.4358 28.0088C59.6167 27.6413 59.7946 27.2884 59.9783 26.9413L60.1329 28.4813C60.1329 28.563 60.1562 28.773 60.1679 29.1171V29.1667L60.375 29.1492H60.7571H60.9758C60.9496 29.0355 60.9262 28.9071 60.9029 28.7613C60.8796 28.6155 60.8679 28.4259 60.8387 28.1721Z" fill="white"/>
<path d="M63.3354 28.8955C63.2774 28.7781 63.2541 28.6465 63.2683 28.5163V28.423L63.2829 27.583V27.5568C63.2908 27.4482 63.2739 27.3393 63.2335 27.2382C63.193 27.1371 63.1301 27.0466 63.0495 26.9734C62.8586 26.8277 62.6213 26.7561 62.3816 26.7722C62.2318 26.7724 62.0837 26.8042 61.947 26.8655C61.7925 26.9353 61.6498 27.0288 61.5241 27.1426C61.5387 27.1805 61.5562 27.2213 61.5708 27.268C61.5854 27.3147 61.6058 27.373 61.6291 27.4518C61.6885 27.3369 61.7733 27.2372 61.877 27.1601C61.961 27.0971 62.0638 27.0642 62.1687 27.0668C62.2276 27.0655 62.2862 27.0762 62.3409 27.0982C62.3955 27.1203 62.4451 27.1533 62.4866 27.1951C62.5296 27.2423 62.5627 27.2975 62.5843 27.3576C62.6058 27.4176 62.6152 27.4814 62.612 27.5451V27.6268C62.4508 27.7203 62.277 27.79 62.0958 27.8338L61.8508 27.9126C61.7031 27.9543 61.5699 28.0361 61.4658 28.1488C61.3808 28.2553 61.3372 28.389 61.3433 28.5251C61.3378 28.6148 61.3505 28.7047 61.3805 28.7894C61.4106 28.8741 61.4575 28.9518 61.5183 29.018C61.581 29.079 61.6556 29.1264 61.7373 29.1575C61.8191 29.1886 61.9063 29.2027 61.9937 29.1988C62.1272 29.1995 62.2586 29.1664 62.3758 29.1026C62.4893 29.0387 62.5832 28.9449 62.647 28.8313C62.6602 28.9343 62.7129 29.0281 62.794 29.0929C62.8752 29.1577 62.9783 29.1883 63.0816 29.1784C63.1668 29.1808 63.252 29.173 63.3354 29.1551C63.4221 29.1349 63.507 29.1076 63.5891 29.0734V28.9538H63.5833C63.5403 28.9635 63.4956 28.9633 63.4526 28.9532C63.4097 28.9431 63.3696 28.9233 63.3354 28.8955ZM62.6383 28.4522C62.6415 28.5645 62.611 28.6752 62.5508 28.7701C62.5222 28.8074 62.4849 28.8372 62.4423 28.857C62.3996 28.8768 62.3528 28.886 62.3058 28.8838C62.2629 28.8874 62.2198 28.8795 62.1809 28.8611C62.142 28.8426 62.1086 28.8143 62.0841 28.7788C62.0259 28.6836 61.9993 28.5722 62.0083 28.4609C62.004 28.3901 62.0148 28.3191 62.0399 28.2528C62.065 28.1864 62.104 28.1261 62.1541 28.0759C62.2945 27.9655 62.4615 27.8941 62.6383 27.8688V28.4522Z" fill="white"/>
<path d="M65.8059 28.8955C65.6243 28.831 65.4327 28.7994 65.24 28.8021H65.1554C64.6946 28.7846 64.47 28.703 64.47 28.5571C64.4676 28.4985 64.4882 28.4413 64.5275 28.3977C64.5667 28.3541 64.6215 28.3276 64.68 28.3238H64.75C65.033 28.3419 65.3143 28.2682 65.5521 28.1138C65.6461 28.0492 65.7222 27.9618 65.7732 27.8598C65.8242 27.7578 65.8485 27.6444 65.8438 27.5305C65.8472 27.4297 65.8262 27.3297 65.7825 27.2388C65.7379 27.1556 65.6726 27.0853 65.5929 27.0346H66.0713V26.8013H65.6396C65.4663 26.804 65.293 26.7972 65.1204 26.7809L64.8025 26.7634C64.543 26.7477 64.2862 26.823 64.0763 26.9763C63.9889 27.0413 63.9187 27.1264 63.8714 27.2244C63.8242 27.3225 63.8014 27.4305 63.805 27.5392C63.7963 27.7047 63.8528 27.867 63.9625 27.9913C64.089 28.1172 64.2526 28.199 64.4292 28.2246V28.318C64.2935 28.3705 64.1711 28.4521 64.0704 28.5571C64.0295 28.5992 63.9974 28.649 63.9758 28.7035C63.9543 28.7581 63.9438 28.8164 63.945 28.8751C63.9425 28.9615 63.9704 29.0461 64.0238 29.1142C64.0843 29.1842 64.1646 29.234 64.2542 29.2571V29.2951C64.1132 29.3394 63.9858 29.4186 63.8838 29.5255C63.8012 29.6252 63.7585 29.752 63.7642 29.8813C63.7637 29.9746 63.7888 30.0663 63.8366 30.1465C63.8844 30.2267 63.9531 30.2923 64.0354 30.3363C64.2662 30.4596 64.5268 30.5161 64.7879 30.4996C65.1308 30.5148 65.4685 30.4118 65.7446 30.208C65.8601 30.1258 65.9539 30.0167 66.018 29.8902C66.082 29.7637 66.1143 29.6235 66.1121 29.4817C66.1156 29.3631 66.0885 29.2456 66.0334 29.1405C65.9841 29.0377 65.9048 28.9522 65.8059 28.8955ZM64.5633 27.1455C64.5922 27.1015 64.6311 27.0651 64.6769 27.0393C64.7226 27.0134 64.7739 26.9989 64.8264 26.9969C64.8789 26.9949 64.9312 27.0055 64.9788 27.0278C65.0264 27.0501 65.0679 27.0834 65.1 27.1251C65.1656 27.2443 65.195 27.3802 65.1846 27.5159C65.1963 27.6818 65.1672 27.848 65.1 28.0001C65.0465 28.0725 64.9664 28.1209 64.8773 28.1345C64.7883 28.1482 64.6974 28.1261 64.6246 28.073C64.5959 28.0525 64.5704 28.0279 64.5488 28.0001C64.4817 27.8645 64.4525 27.7133 64.4642 27.5626C64.4518 27.41 64.4864 27.2573 64.5633 27.1251V27.1455ZM65.3334 30.1409C65.1806 30.2411 64.9995 30.2892 64.8171 30.278C64.6549 30.2867 64.4954 30.2335 64.3708 30.1292C64.3159 30.0786 64.2725 30.0167 64.2438 29.9477C64.2151 29.8787 64.2017 29.8043 64.2046 29.7296C64.2022 29.6404 64.2255 29.5523 64.2717 29.4759C64.3137 29.4002 64.3778 29.3392 64.4554 29.3009L65.0125 29.3301C65.1503 29.3283 65.285 29.3702 65.3975 29.4496C65.4393 29.4914 65.4717 29.5417 65.4923 29.597C65.5129 29.6524 65.5214 29.7115 65.5171 29.7705C65.5202 29.8427 65.505 29.9145 65.4728 29.9793C65.4407 30.0441 65.3927 30.0996 65.3334 30.1409Z" fill="white"/>
<path d="M68.2501 28.8955C68.1921 28.7781 68.1688 28.6465 68.183 28.5163V27.5567C68.1915 27.4481 68.1749 27.339 68.1345 27.2378C68.094 27.1366 68.0308 27.0462 67.9496 26.9734C67.7585 26.8281 67.5213 26.7567 67.2817 26.7722C67.1319 26.7724 66.9838 26.8042 66.8471 26.8655C66.6926 26.9353 66.5499 27.0288 66.4242 27.1426L66.4709 27.268C66.4709 27.3176 66.5059 27.373 66.5292 27.4517C66.5886 27.3369 66.6734 27.2372 66.7771 27.1601C66.8611 27.097 66.9638 27.0642 67.0688 27.0667C67.1277 27.0655 67.1863 27.0762 67.2409 27.0982C67.2956 27.1203 67.3452 27.1532 67.3867 27.1951C67.4304 27.2419 67.4643 27.2969 67.4864 27.3571C67.5084 27.4172 67.5182 27.4811 67.515 27.5451V27.6267C67.3538 27.7203 67.18 27.79 66.9988 27.8338L66.7538 27.9126C66.6058 27.9536 66.4724 28.0354 66.3688 28.1488C66.2838 28.2553 66.2403 28.389 66.2463 28.5251C66.2401 28.6148 66.2525 28.7049 66.2826 28.7897C66.3127 28.8745 66.3599 28.9522 66.4213 29.018C66.4838 29.0792 66.5583 29.1269 66.6401 29.158C66.7219 29.1891 66.8093 29.203 66.8967 29.1988C67.0302 29.1995 67.1616 29.1664 67.2788 29.1026C67.3923 29.0387 67.4862 28.9449 67.5501 28.8313C67.5632 28.9343 67.6159 29.0281 67.697 29.0929C67.7782 29.1577 67.8813 29.1883 67.9846 29.1784C68.0689 29.1809 68.1531 29.1731 68.2355 29.1551C68.3232 29.1354 68.4091 29.108 68.4921 29.0734V28.9538C68.45 28.9626 68.4064 28.9619 68.3646 28.9518C68.3227 28.9417 68.2836 28.9225 68.2501 28.8955ZM67.5559 28.4522C67.5579 28.5643 67.5275 28.6747 67.4684 28.7701C67.4395 28.8078 67.4018 28.8379 67.3585 28.8577C67.3153 28.8775 67.2679 28.8865 67.2205 28.8838C67.1776 28.8871 67.1346 28.8791 67.0957 28.8607C67.0569 28.8422 67.0235 28.814 66.9988 28.7788C66.9405 28.6835 66.914 28.5722 66.923 28.4609C66.919 28.3899 66.9303 28.3188 66.9559 28.2524C66.9816 28.186 67.021 28.1259 67.0717 28.0759C67.2113 27.9643 67.3787 27.8927 67.5559 27.8688V28.4522Z" fill="white"/>
<path d="M69.7491 26.8713H68.7866C68.7895 26.8877 68.7895 26.9045 68.7866 26.9209C68.7896 26.949 68.7896 26.9774 68.7866 27.0055C68.7896 27.0316 68.7896 27.0581 68.7866 27.0842C68.7895 27.1006 68.7895 27.1174 68.7866 27.1338H68.8333C69.1172 27.1221 69.3243 27.1163 69.4546 27.1163H69.8512L69.4166 27.8046C69.0278 28.388 68.7468 28.8128 68.5737 29.0792V29.1667L69.0637 29.1463H70.2129L70.6708 29.1667V29.0705C70.6679 29.0511 70.6679 29.0315 70.6708 29.0121C70.6679 28.9928 70.6679 28.9731 70.6708 28.9538V28.8751C70.5367 28.8751 70.3996 28.8926 70.2596 28.8955C70.1196 28.8984 69.9679 28.8955 69.8308 28.8955H69.4079L70.2216 27.6238L70.6942 26.9005V26.8655H70.2567L69.7491 26.8713Z" fill="white"/>
<path d="M71.8112 26.8538H71.0938C71.0938 27.0609 71.1142 27.2622 71.12 27.4372C71.1258 27.6122 71.12 27.8134 71.12 27.9972V28.5076C71.1234 28.7198 71.1146 28.9321 71.0938 29.1434L71.2804 29.123H71.6304L71.8112 29.1434C71.8112 28.8984 71.7908 28.6855 71.785 28.5076C71.7792 28.3297 71.785 28.1547 71.785 27.9942V27.4459C71.785 27.2563 71.7967 27.0609 71.8112 26.8538Z" fill="white"/>
<path d="M71.4584 25.6171C71.4102 25.6148 71.3621 25.622 71.3168 25.6384C71.2715 25.6547 71.2299 25.6799 71.1943 25.7124C71.1588 25.745 71.1301 25.7843 71.1098 25.828C71.0895 25.8717 71.0781 25.919 71.0763 25.9671C71.0739 26.0215 71.0834 26.0757 71.104 26.1261C71.1247 26.1764 71.156 26.2217 71.1959 26.2588C71.2294 26.2935 71.2698 26.3208 71.3145 26.3389C71.3592 26.357 71.4072 26.3655 71.4555 26.3638C71.5032 26.3686 71.5515 26.3639 71.5974 26.3498C71.6433 26.3358 71.6859 26.3128 71.7229 26.2821C71.7598 26.2514 71.7902 26.2137 71.8124 26.1712C71.8346 26.1286 71.8481 26.082 71.8521 26.0342C71.8611 25.9376 71.8314 25.8413 71.7697 25.7665C71.7079 25.6916 71.6191 25.6442 71.5225 25.6346H71.4584V25.6171Z" fill="white"/>
<path d="M74.5296 28.3472V27.7434C74.5355 27.5841 74.5237 27.4247 74.4946 27.268C74.476 27.1822 74.437 27.1022 74.3808 27.0347C74.3123 26.9585 74.2276 26.8987 74.1329 26.8597C74.0312 26.8215 73.9236 26.8018 73.815 26.8013C73.6714 26.798 73.5291 26.83 73.4008 26.8947C73.2751 26.9679 73.1667 27.0674 73.0829 27.1863V26.8684H72.4062C72.4062 27.0551 72.4267 27.2447 72.4354 27.4517C72.4442 27.6588 72.4354 27.8397 72.4354 28.0351V28.5834C72.4397 28.7861 72.43 28.9888 72.4062 29.1901L72.59 29.1697H72.9167L73.0946 29.1901C73.0946 28.9363 73.0946 28.7147 73.0742 28.5192V28.0001C73.0672 27.8004 73.103 27.6015 73.1792 27.4167C73.2064 27.357 73.2518 27.3073 73.3089 27.2749C73.3659 27.2424 73.4318 27.2288 73.4971 27.2359C73.5592 27.2266 73.6226 27.2361 73.6792 27.2632C73.7359 27.2902 73.7832 27.3335 73.815 27.3876C73.8884 27.6051 73.9162 27.8355 73.8967 28.0642V28.703C73.9019 28.8667 73.8941 29.0305 73.8733 29.193L74.06 29.1726H74.3983L74.5879 29.193C74.5879 29.0676 74.5704 28.9363 74.5617 28.8051C74.5529 28.6738 74.5296 28.4959 74.5296 28.3472Z" fill="white"/>
<path d="M76.1688 26.7897C76.0138 26.7827 75.859 26.8076 75.7141 26.8627C75.5691 26.9179 75.437 27.0023 75.3259 27.1105C75.2186 27.224 75.1352 27.3578 75.0805 27.5041C75.0259 27.6504 75.0013 27.8062 75.008 27.9622C74.9984 28.1278 75.0216 28.2936 75.0761 28.4503C75.1306 28.6069 75.2155 28.7513 75.3259 28.8751C75.4421 28.9853 75.5797 29.0704 75.7303 29.1251C75.8808 29.1798 76.041 29.2029 76.2009 29.193C76.3505 29.1953 76.4997 29.1766 76.6442 29.1376C76.771 29.1031 76.8912 29.0479 77 28.9743L77.105 28.7001L77.0583 28.6651C76.9707 28.7374 76.8723 28.7954 76.7667 28.8372C76.6651 28.8758 76.5574 28.8956 76.4488 28.8955C76.3462 28.8988 76.2442 28.8781 76.1511 28.8351C76.0579 28.7921 75.9761 28.7278 75.9121 28.6476C75.7765 28.4596 75.7077 28.2317 75.7167 28.0001H77.1954V27.8455C77.213 27.5571 77.1167 27.2732 76.9271 27.0551C76.8257 26.9611 76.706 26.8891 76.5756 26.8434C76.4451 26.7978 76.3066 26.7795 76.1688 26.7897ZM76.5363 27.7084C76.5333 27.7297 76.5333 27.7513 76.5363 27.7726H75.7167V27.7288C75.7068 27.5409 75.7471 27.3536 75.8334 27.1863C75.8647 27.1291 75.9106 27.0811 75.9664 27.0473C76.0223 27.0135 76.086 26.9951 76.1513 26.9938C76.2106 26.9916 76.2693 27.006 76.3208 27.0353C76.3724 27.0647 76.4147 27.1079 76.4429 27.1601C76.5156 27.3148 76.5478 27.4854 76.5363 27.6559V27.7084Z" fill="white"/>
<path d="M58.3887 10.1821C58.6199 10.5452 58.8321 10.92 59.0245 11.305L59.6633 10.6896C59.3406 10.3339 58.9752 10.0195 58.5754 9.75337C58.7092 9.44441 58.8155 9.12429 58.8933 8.79671L57.9716 8.58087C57.7806 9.69886 57.3977 10.7754 56.84 11.763L57.1579 12.0255C57.653 11.4721 58.0674 10.8515 58.3887 10.1821Z" fill="white"/>
<path d="M65.52 8.49922C65.2309 7.80661 64.8375 7.16234 64.3534 6.58881L63.9917 6.76964C64.2322 7.45107 64.4271 8.14775 64.575 8.85506L65.52 8.49922Z" fill="white"/>
<path d="M61.9237 7.97713H59.9083L60.3749 7.34129C59.7941 6.96272 59.1587 6.67549 58.4908 6.48962L58.3333 6.83962C58.773 7.18992 59.189 7.56894 59.5787 7.97421H57.0529V8.48171H61.9354L61.9237 7.97713Z" fill="white"/>
<path d="M59.0917 14.2684V17.2346H60.0659V14.0555C60.4706 14.5132 60.8494 14.9933 61.2005 15.4934L61.8713 14.7438C61.3195 14.2638 60.7136 13.8498 60.0659 13.51V13.09H61.9471V12.5767H60.0659V11.5121H59.8763C60.1572 11.1275 60.4032 10.7185 60.6113 10.29C60.8553 10.6325 61.069 10.9955 61.2501 11.375L61.7809 10.888C61.6748 11.174 61.5541 11.4544 61.4192 11.728L61.7371 11.9642C61.9092 11.7367 62.0551 11.4888 62.2242 11.238V17.1705H63.2188V16.2955H67.0367V15.785H65.3042V13.825H66.6167V13.3146H65.3042V11.5471H66.608V11.0367H65.3042V9.52005H66.8938V9.00671H63.1721C63.3793 8.30155 63.5161 7.5776 63.5805 6.84546L62.548 6.6413C62.3788 8.29505 62.2301 9.52005 61.8451 10.675C61.5473 10.3458 61.2046 10.06 60.8271 9.8263C60.9619 9.50767 61.0683 9.17778 61.1451 8.84046L60.2263 8.61296C60.1364 9.62312 59.8553 10.607 59.398 11.5121H59.1063V12.5767H56.9713V13.09H58.8409C58.3341 14.2308 57.6156 15.265 56.7234 16.138L56.9596 16.4559C57.7893 15.8529 58.5102 15.1132 59.0917 14.2684ZM63.1955 9.52005H64.2892V11.0367H63.1867L63.1955 9.52005ZM63.1955 11.5617H64.2892V13.3292H63.1867L63.1955 11.5617ZM63.1955 13.8396H64.2892V15.7996H63.1867L63.1955 13.8396Z" fill="white"/>
<path d="M77.6533 12.8334C77.0474 12.3177 76.3669 11.8968 75.635 11.5851L75.4308 11.903C75.9838 12.4322 76.5076 12.9911 77 13.5772L77.6533 12.8334Z" fill="white"/>
<path d="M75.8217 11.0367H73.7276V11.5472H79.0738V11.0367H76.8396V9.07674H79.2225V8.56633H76.8396V6.66174H75.8217V8.56633H73.4884V9.07674H75.8217V11.0367Z" fill="white"/>
<path d="M79.6251 15.2192C79.2429 14.396 78.7253 13.6428 78.0938 12.9909L77.7759 13.2038C78.1631 13.9982 78.4888 14.8212 78.7501 15.6655L79.6251 15.2192Z" fill="white"/>
<path d="M74.7892 15.5897C74.7892 16.8147 75.0138 16.9401 76.6734 16.9401C78.4379 16.9401 78.3504 16.2138 77.84 14.3559H77.4317C77.4317 15.8638 77.4317 16.0097 76.615 16.0097C75.9004 16.0097 75.7983 15.8638 75.7983 15.4088V12.6351H74.8008L74.7892 15.5897Z" fill="white"/>
<path d="M73.2492 8.5663H71.6071L72.1904 8.11421C71.6844 7.51499 71.0951 6.99146 70.4404 6.55963L70.1487 6.8513C70.4083 7.22171 70.8283 7.92463 71.2017 8.57213H69.4517V9.08255H73.2258L73.2492 8.5663Z" fill="white"/>
<path d="M72.0416 17.0101H72.8933V15.6392L73.6546 16.2051C74.1767 15.5138 74.4362 14.5163 74.5033 13.3147L74.0833 13.2359C73.9293 14.1076 73.5048 14.9086 72.87 15.5255V13.2972H69.8308V17.1822H70.7058V16.3538H72.0125L72.0416 17.0101ZM72.0416 15.8434H70.7496V13.7813H72.0416V15.8434Z" fill="white"/>
<path d="M72.9866 11.7047H69.8016V12.183H72.9866V11.7047Z" fill="white"/>
<path d="M72.9866 10.1413H69.8016V10.6196H72.9866V10.1413Z" fill="white"/>
<path d="M52.7917 16.5113L52.6925 16.4588C52.5458 16.3538 52.386 16.2685 52.2171 16.2051C51.9517 16.138 51.6717 16.1701 51.4063 16.1117C51.0359 16.033 50.6655 15.9396 50.2921 15.8842C49.822 15.7946 49.3378 15.8106 48.8746 15.9309C48.6496 15.9838 48.4418 16.0932 48.2709 16.2488C48.1751 16.3878 48.1187 16.55 48.1075 16.7184C48.0714 16.8782 48.0528 17.0416 48.0521 17.2055C48.0723 17.8176 48.2544 18.4134 48.58 18.9321C48.7433 19.2087 48.9307 19.4702 49.14 19.7138C49.331 19.9692 49.5535 20.1995 49.8021 20.3992C50.0293 20.5263 50.2224 20.7064 50.365 20.9242C50.473 21.0992 50.4817 21.1488 50.683 21.2421C51.0277 21.343 51.3855 21.3921 51.7446 21.388C52.2192 21.4231 52.6962 21.3996 53.165 21.318C53.5121 21.2567 53.5734 21.0001 53.8563 20.8484C54.1392 20.6967 54.253 20.6705 54.3725 20.3788C54.9209 19.0751 54.2471 17.9638 53.448 17.0217C53.2596 16.8157 53.0377 16.6432 52.7917 16.5113Z" fill="white"/>
<path d="M175.467 17.4738V26.1888L183.003 21.8313L175.467 17.4738Z" fill="#D60C18"/>
<path d="M175.467 17.4738V26.1888L177.298 22.7034L175.467 17.4738Z" fill="url(#paint0_linear_1278_4341)"/>
<path d="M183.003 21.8313L175.467 17.4738L177.298 22.7034L183.003 21.8313Z" fill="url(#paint1_radial_1278_4341)"/>
<path d="M175.467 26.1888L183.003 21.8313L177.298 22.7034L175.467 26.1888Z" fill="url(#paint2_linear_1278_4341)"/>
<path d="M116.393 13.6909L108.809 31.1618L101.208 13.6909H103.037L108.821 27.4459L114.578 13.6909H116.393Z" fill="#D60C18"/>
<path d="M123.334 7.58339C123.337 7.77611 123.299 7.96725 123.224 8.14489C123.15 8.32254 123.039 8.48287 122.9 8.61589C122.766 8.75162 122.607 8.85922 122.431 8.93236C122.255 9.00549 122.066 9.04268 121.876 9.04172C121.489 9.04172 121.118 8.88807 120.845 8.61458C120.571 8.34109 120.417 7.97016 120.417 7.58339C120.417 7.19661 120.571 6.82568 120.845 6.55219C121.118 6.2787 121.489 6.12505 121.876 6.12505C122.066 6.12343 122.255 6.16031 122.431 6.23348C122.607 6.30666 122.766 6.41462 122.9 6.55088C123.04 6.68347 123.151 6.84372 123.225 7.02146C123.3 7.19921 123.337 7.39056 123.334 7.58339ZM122.713 30.5113H121.077V13.6909H122.713V30.5113Z" fill="#D60C18"/>
<path d="M144.769 30.5026H143.133V27.2942C142.479 28.4128 141.545 29.3417 140.423 29.9892C139.264 30.5948 137.971 30.8959 136.663 30.8642C134.316 30.8642 132.412 30.0767 130.95 28.5017C129.487 26.9267 128.755 24.853 128.753 22.2805C128.753 19.6147 129.48 17.4554 130.932 15.8026C131.623 14.9974 132.484 14.3569 133.454 13.928C134.424 13.499 135.478 13.2924 136.538 13.3234C138.288 13.3234 139.649 13.6015 140.621 14.1576C141.594 14.7137 142.432 15.6256 143.136 16.8934V0.466736H144.772L144.769 30.5026ZM143.133 22.0617C143.133 19.8451 142.543 18.0883 141.365 16.7913C140.187 15.4944 138.62 14.8459 136.663 14.8459C135.803 14.8205 134.947 14.991 134.162 15.3447C133.377 15.6984 132.682 16.226 132.131 16.8876C130.964 18.2487 130.381 20.0356 130.381 22.2484C130.381 24.4165 130.97 26.1402 132.148 27.4197C133.327 28.6991 134.9 29.3388 136.868 29.3388C138.775 29.3388 140.295 28.6816 141.426 27.3672C142.558 26.0527 143.127 24.2842 143.133 22.0617Z" fill="#D60C18"/>
<path d="M165.5 21.9888H151.477C151.512 24.3494 152.069 26.1626 153.148 27.4284C154.227 28.6943 155.732 29.3281 157.663 29.3301C158.903 29.3647 160.128 29.0504 161.198 28.423C162.245 27.745 163.085 26.7913 163.625 25.6667L165.048 26.3959C164.218 27.9242 163.205 29.0491 162.009 29.7705C160.685 30.5264 159.178 30.9019 157.655 30.8555C155.214 30.8555 153.3 30.0622 151.912 28.4755C150.523 26.8888 149.83 24.7256 149.832 21.9859C149.832 19.4581 150.573 17.3786 152.055 15.7472C152.755 14.9595 153.619 14.3339 154.587 13.9138C155.554 13.4938 156.6 13.2893 157.655 13.3147C160.011 13.3147 161.907 14.0545 163.342 15.5342C164.777 17.014 165.494 19.0051 165.492 21.5076L165.5 21.9888ZM163.75 20.443C163.703 18.9045 163.047 17.4476 161.927 16.3917C160.819 15.3592 159.401 14.844 157.672 14.8459C156.146 14.8124 154.665 15.3693 153.539 16.4005C152.388 17.4496 151.69 18.9058 151.594 20.4605L163.75 20.443Z" fill="#D60C18"/>
<path d="M186.565 22.0267C186.587 23.1901 186.371 24.3458 185.932 25.423C185.492 26.5003 184.837 27.4764 184.007 28.2917C183.202 29.1251 182.234 29.7838 181.164 30.2269C180.094 30.67 178.944 30.8879 177.785 30.8672C176.642 30.885 175.507 30.6653 174.453 30.222C173.398 29.7787 172.448 29.1214 171.66 28.2917C170.838 27.4738 170.189 26.4979 169.754 25.4227C169.318 24.3476 169.104 23.1954 169.126 22.0355C169.102 20.8873 169.313 19.7462 169.746 18.6824C170.178 17.6186 170.824 16.6545 171.643 15.8492C172.437 15.0322 173.39 14.3867 174.444 13.9528C175.497 13.5188 176.629 13.3056 177.768 13.3263C178.929 13.2941 180.085 13.4998 181.164 13.9306C182.243 14.3615 183.222 15.0085 184.042 15.8317C184.865 16.6361 185.513 17.6011 185.947 18.6669C186.381 19.7327 186.591 20.8763 186.565 22.0267ZM184.914 22.0617C184.938 21.111 184.77 20.1652 184.42 19.281C184.07 18.3969 183.544 17.5927 182.875 16.9167C182.228 16.2404 181.447 15.7062 180.583 15.3482C179.718 14.9902 178.788 14.8161 177.853 14.8372C176.915 14.8188 175.985 14.9939 175.118 15.3518C174.252 15.7096 173.469 16.2424 172.818 16.9167C172.147 17.5911 171.62 18.395 171.269 19.2794C170.918 20.1639 170.75 21.1105 170.777 22.0617C170.756 23.0174 170.929 23.9674 171.285 24.8546C171.64 25.7418 172.172 26.5479 172.848 27.2242C173.501 27.891 174.281 28.4208 175.141 28.7824C176.002 29.144 176.926 29.3303 177.86 29.3303C178.793 29.3303 179.718 29.144 180.578 28.7824C181.439 28.4208 182.219 27.891 182.872 27.2242C183.541 26.5446 184.067 25.7374 184.418 24.8505C184.77 23.9637 184.939 23.0153 184.917 22.0617H184.914Z" fill="#D60C18"/>
</g>
<defs>
<linearGradient id="paint0_linear_1278_4341" x1="176.383" y1="17.4738" x2="176.383" y2="26.1888" gradientUnits="userSpaceOnUse">
<stop offset="0.75" stop-color="#D70C18"/>
<stop offset="1" stop-color="#9D0505"/>
</linearGradient>
<radialGradient id="paint1_radial_1278_4341" cx="0" cy="0" r="1" gradientUnits="userSpaceOnUse" gradientTransform="translate(174.821 20.8493) rotate(1.64) scale(6.85415 4.18104)">
<stop stop-color="#EE969B"/>
<stop offset="0.5" stop-color="#D70C18"/>
</radialGradient>
<linearGradient id="paint2_linear_1278_4341" x1="172.964" y1="26.4046" x2="185.818" y2="19.0342" gradientUnits="userSpaceOnUse">
<stop offset="0.25" stop-color="#D70C18"/>
<stop offset="0.5" stop-color="#9D0505"/>
</linearGradient>
<clipPath id="clip0_1278_4341">
<rect width="189" height="35" fill="white"/>
</clipPath>
</defs>
</svg>
