<?xml version="1.0" encoding="utf-8"?>
<!-- Generator: Adobe Illustrator 25.2.3, SVG Export Plug-In . SVG Version: 6.00 Build 0)  -->
<svg version="1.1" id="圖層_1" xmlns="http://www.w3.org/2000/svg" xmlns:xlink="http://www.w3.org/1999/xlink" x="0px" y="0px"
	 viewBox="0 0 400 96" style="enable-background:new 0 0 400 96;" xml:space="preserve">
<style type="text/css">
	.st0{fill:#373737;}
	.st1{fill:#D7B788;}
</style>
<g>
	<g>
		<path class="st0" d="M388.5,42.7c-1.6,0-3.2,0.2-4.7,0.6l9.7,0.2C392.1,43,390.4,42.7,388.5,42.7z"/>
		<path class="st0" d="M394.5,43.8L381.4,44c-2,0.8-3.9,1.9-5.6,3.2l22.8,0.4C397.7,46,396.4,44.7,394.5,43.8z"/>
		<path class="st0" d="M352.1,44.5l-15.9,0.2c-1.1,0.5-2.1,1.2-3.1,1.9l21.5,0.3C354,46,353.2,45.2,352.1,44.5z"/>
		<path class="st0" d="M315.9,45.1l-9.7,0.2c-0.4,0.3-0.7,0.6-1.1,0.9l10.3,0.2L315.9,45.1z"/>
		<path class="st0" d="M385.9,50.9c1.2,0,2.1,0.3,2.7,0.8l11.3,0.2c-0.2-1.5-0.6-2.9-1.2-4l-24.1,0.4c-1.1,0.9-2.2,2-3.2,3.1
			l11.4,0.2C383.7,51.2,384.7,50.9,385.9,50.9z"/>
		<path class="st0" d="M342.3,50.8c0.3,0,0.5,0,0.8,0l13.2,0.2c-0.2-0.8-0.5-1.7-0.8-2.5l-25.2,0.4c-0.6,0.6-1.2,1.1-1.8,1.7
			l13.2,0.2C341.9,50.8,342.1,50.8,342.3,50.8z"/>
		<path class="st0" d="M314.1,49.2l-14.3,0.2c-0.6,0.3-1.3,0.5-1.9,0.8l15.7,0.2L314.1,49.2z"/>
		<path class="st0" d="M389.9,55.8l9.9,0.2c0.2-1.5,0.2-2.8,0.1-4.1L389,52.1C389.8,53,390,54.3,389.9,55.8z"/>
		<path class="st0" d="M381.6,52.2l-11.1,0.2c-0.8,1-1.6,2-2.4,3.1l10.1,0.2C379.2,54.3,380.3,53.1,381.6,52.2z"/>
		<path class="st0" d="M345.9,52.8c0.3,0.7,0.5,1.5,0.5,2.3l9.9,0.2c0.2-1,0.2-1.8,0.1-2.7L345.9,52.8z"/>
		<path class="st0" d="M337.1,52.9l-10.7,0.2c-0.4,0.6-0.9,1.1-1.3,1.7l10.1,0.2C335.8,54.2,336.4,53.5,337.1,52.9z"/>
		<polygon class="st0" points="289,54.2 311.8,54.6 312.3,53.3 289.2,53.7 		"/>
		<path class="st0" d="M389.6,58.3c-0.1,0.5-0.3,1-0.5,1.7l7.5,0.1l-7.7,0.2c-0.4,1.1-0.8,2.4-1.4,3.8l7.8,0.2l-7.8,0.1
			c-0.5,1.2-1,2.5-1.5,3.8l10.3,0.2l-10.4,0.2c-0.5,1.3-1.1,2.5-1.7,3.8l10.3,0.2H384c-0.6,1.3-1.2,2.6-1.8,3.8l10.4,0.2L382,76.7
			c-0.6,1.2-1.3,2.4-1.9,3.5c-0.1,0.1-0.1,0.2-0.2,0.3l10.5,0.2c3.3-5.3,5.8-11.1,7.6-16.5h-0.1c0.4-1.3,0.8-2.4,1.1-3.6
			c0.1-0.2,0.1-0.3,0.1-0.4h0.1c0.3-1.5,0.6-2.9,0.7-4.2l-9.9,0.2C389.9,56.9,389.8,57.6,389.6,58.3z"/>
		<path class="st0" d="M376.3,58.6c0.5-0.8,0.9-1.5,1.4-2.2l-10.3,0.2c-0.7,1-1.3,2-1.9,3l10.1,0.2C375.8,59.4,376,59,376.3,58.6z"
			/>
		<path class="st0" d="M346.1,58.3c-0.1,0.3-0.2,0.6-0.3,1l10,0.2c0.2-1,0.3-1.9,0.5-2.8l-9.9,0.2C346.3,57.4,346.2,57.8,346.1,58.3
			z"/>
		<path class="st0" d="M332.8,58.6c0.3-0.6,0.6-1.1,0.9-1.6l-10.3,0.2c-0.4,0.5-0.7,1.1-1,1.7l10.1,0.2
			C332.6,58.9,332.7,58.8,332.8,58.6z"/>
		<polygon class="st0" points="299.8,58.5 310,58.7 310.5,57.4 300.2,57.6 		"/>
		<path class="st0" d="M296.8,57.6l-9.5,0.1l-0.2,0.5l3.6,0.1C293,58.3,294.6,58.1,296.8,57.6z"/>
		<path class="st0" d="M375.3,60.5L365,60.7c-0.6,1-1.1,2-1.6,3l10.2,0.2C374.1,62.7,374.7,61.5,375.3,60.5z"/>
		<path class="st0" d="M344.2,63.4l10.3,0.2c0.4-1,0.7-1.9,0.9-2.8L345.1,61C344.8,61.7,344.6,62.5,344.2,63.4z"/>
		<path class="st0" d="M331.3,61.2L321,61.3c-0.3,0.5-0.6,1.1-0.9,1.6l10.2,0.2C330.7,62.5,331,61.8,331.3,61.2z"/>
		<polygon class="st0" points="298,62.6 308.2,62.8 308.7,61.5 298.4,61.7 		"/>
		<path class="st0" d="M373.2,64.6l-10.4,0.2c-0.5,1-0.9,2-1.3,3l10.2,0.2C372.2,66.8,372.7,65.7,373.2,64.6z"/>
		<path class="st0" d="M342.7,67.5l10.6,0.2c0.2-1,0.6-1.9,0.9-2.8l-10.5,0.2C343.4,65.9,343.1,66.7,342.7,67.5z"/>
		<path class="st0" d="M329.3,65.3l-10.4,0.2c-0.2,0.5-0.5,1.1-0.7,1.6l10.2,0.2C328.7,66.6,329,65.9,329.3,65.3z"/>
		<polygon class="st0" points="296.1,66.7 306.3,66.9 306.8,65.6 296.5,65.8 		"/>
		<path class="st0" d="M371.3,68.7L361,68.9c-0.4,1-0.8,2-1.2,3l10.1,0.2C370.4,70.9,370.8,69.8,371.3,68.7z"/>
		<path class="st0" d="M340.8,71.6l10.7,0.2c0.5-1,0.8-1.9,1.2-2.8l-10.8,0.2C341.6,70,341.2,70.8,340.8,71.6z"/>
		<path class="st0" d="M327.5,69.4l-10.3,0.2c-0.2,0.5-0.4,1.1-0.6,1.6l10.1,0.2C326.9,70.7,327.2,70.1,327.5,69.4z"/>
		<polygon class="st0" points="294.3,70.8 304.5,71 305,69.7 294.7,69.9 		"/>
		<path class="st0" d="M369.6,72.8L359.5,73c-0.4,1-0.7,2-1,3l9.8,0.2C368.7,75.1,369.2,74,369.6,72.8z"/>
		<path class="st0" d="M338.8,75.7l10.7,0.2c0.6-1,1-1.9,1.4-2.8L340,73.3C339.6,74.1,339.2,74.9,338.8,75.7z"/>
		<path class="st0" d="M325.8,73.5l-10.1,0.2c-0.2,0.6-0.4,1.1-0.5,1.6l9.9,0.2C325.3,74.8,325.5,74.2,325.8,73.5z"/>
		<polygon class="st0" points="292.5,74.9 302.7,75.1 303.2,73.9 292.9,74 		"/>
		<path class="st0" d="M368.1,76.9l-9.9,0.2c-0.1,0.5-0.3,1-0.4,1.5s-0.3,1-0.4,1.6l9.6,0.2C367.2,79.3,367.6,78.2,368.1,76.9z"/>
		<path class="st0" d="M336.8,79.8l10.6,0.2c0.5-0.9,1-1.9,1.5-2.8l-10.8,0.2C337.7,78.2,337.2,79,336.8,79.8z"/>
		<path class="st0" d="M314.3,78.6c-0.1,0.3-0.2,0.6-0.2,0.9l9.6,0.2c0.1-0.7,0.3-1.4,0.6-2.1l-9.8,0.2
			C314.4,78.1,314.4,78.3,314.3,78.6z"/>
		<polygon class="st0" points="290.7,79.1 300.9,79.3 301.4,78 291.1,78.2 		"/>
		<path class="st0" d="M377.1,84.6l10.6,0.2c0.9-1.4,1.9-2.7,2.8-4.1l-10.7,0.2C379,82.2,378.1,83.5,377.1,84.6z"/>
		<path class="st0" d="M366.7,81l-9.6,0.1c-0.2,1.1-0.3,2.1-0.4,3.1l9.6,0.2C366.3,83.5,366.4,82.3,366.7,81z"/>
		<path class="st0" d="M334.1,83.9l10.6,0.2c0.5-0.9,1.2-1.8,1.8-2.8l-10.7,0.2C335.3,82.3,334.7,83.1,334.1,83.9z"/>
		<path class="st0" d="M323,81.7l-9.5,0.1c-0.1,0.6-0.2,1.1-0.2,1.7l9.5,0.2C322.8,83.1,322.9,82.4,323,81.7z"/>
		<polygon class="st0" points="288.8,83.2 299,83.4 299.5,82.1 289.2,82.3 		"/>
		<path class="st0" d="M370.7,87.9c-2.2,0-3.7-0.9-4.1-2.7l-9.7,0.2c0,1.1,0.1,2.2,0.3,3.1l26.9,0.4c1.2-1.3,2.4-2.7,3.5-4.1
			L376.7,85C375,86.7,373.1,87.9,370.7,87.9z"/>
		<path class="st0" d="M327.1,87.9c-1.9,0-3.3-0.7-3.9-2l-9.9,0.2c0,0.6,0.1,1.2,0.2,1.8l27.7,0.4c0.8-1,1.6-1.9,2.3-2.8l-11.1,0.2
			C330.9,87,329.2,87.9,327.1,87.9z"/>
		<polygon class="st0" points="287,87.3 297.2,87.5 297.7,86.2 287.4,86.4 		"/>
		<path class="st0" d="M359.2,92.5l19.8,0.3c1.7-1,3.4-2.4,5-3.9l-26.6,0.4C357.8,90.5,358.4,91.6,359.2,92.5z"/>
		<path class="st0" d="M315.1,91.8l21.4,0.3c1.1-0.7,2.1-1.5,3.2-2.5L314.1,90C314.4,90.7,314.7,91.3,315.1,91.8z"/>
		<polygon class="st0" points="285.2,91.4 295.4,91.6 295.9,90.3 285.6,90.5 		"/>
		<path class="st0" d="M368.3,96C368.3,96,368.4,96,368.3,96c0.1,0,0.1,0,0.1,0h0.1c3.7,0,7.1-1.1,10.1-2.9l-18.7,0.3
			C361.8,95.1,364.5,96,368.3,96z"/>
		<path class="st0" d="M324.7,96L324.7,96c0.2,0,0.2,0,0.2,0c3.2,0,6.2-0.8,8.9-2.2L317.2,94C319,95.2,321.5,95.9,324.7,96z"/>
		<polygon class="st0" points="283.7,94.9 293.9,94.9 294.1,94.4 283.8,94.6 		"/>
	</g>
	<g>
		<path class="st1" d="M243.4,9.9L243.4,9.9c-0.2-0.3-0.4-0.6-0.5-0.9h0.1c-0.4-0.4-0.6-0.8-1-1.3l-61.2,1.2
			c-0.5,0.4-1.1,0.7-1.6,1.1l64.8,1.3C243.8,10.8,243.6,10.4,243.4,9.9z"/>
		<path class="st1" d="M231.2,0.8c-0.3-0.1-0.5-0.2-0.8-0.3h-0.1l0,0l-31,0.5c-1.8,0.5-3.6,1-5.4,1.6l43.5,0.9
			C235.7,2.3,233.6,1.4,231.2,0.8z"/>
		<path class="st1" d="M216.7,37.9c-0.1,0-0.2-0.1-0.3-0.1L216.7,37.9c-3.2-1.2-6.5-2.1-9.6-2.9l0,0l0,0l0,0l-45.3,0.8
			c-0.1,0.3-0.1,0.6-0.1,0.9l0,0v0.1L216.7,37.9z"/>
		<path class="st1" d="M226.7,42.6c-0.2-0.2-0.5-0.4-0.7-0.5l-63.9,1.3c0.1,0.3,0.2,0.7,0.3,1l67.5,1.3
			C229.1,44.6,228,43.5,226.7,42.6z"/>
		<path class="st1" d="M175,69.7l-19.7,0.4h-0.1l0.1-1.2l-83.1,1.6L71.8,71l83.2,1.6l0.1-1.2l20.9,0.4c0,0,0-0.1-0.1-0.1h0.2
			C175.6,71.1,175.2,70.5,175,69.7z"/>
		<path class="st1" d="M156.4,92.9c1.5,0.6,3.1,1.2,4.8,1.7l25.2,0.5c4.2-0.6,8.3-1.6,12.2-2.9h-0.3c0.1,0,0.2-0.1,0.3-0.1
			L156.4,92.9z"/>
		<path class="st1" d="M232.2,49.7L232.2,49.7L232.2,49.7c-0.2-0.4-0.3-0.9-0.5-1.3c-0.4-0.9-0.9-1.7-1.5-2.5L164,47.2
			c0.3,0.4,0.6,0.8,0.9,1.2L232.2,49.7L232.2,49.7l-64.6,1.2c0.3,0.2,0.6,0.5,1,0.7s0.7,0.5,1.1,0.7l60.9,1.2l-56.3,1.1
			c0.8,0.3,1.6,0.6,2.5,0.9c0.8,0.3,1.7,0.6,2.5,0.9l49.7,1l-43.3,0.8c1.5,0.4,3,0.8,4.3,1.1c1.4,0.4,2.7,0.8,3.9,1.2l33.4,0.7
			l-30.4,0.6c0.8,0.4,1.4,0.8,1.9,1.3s1,0.9,1.3,1.4l25.5,0.5l-25.2,0.5c0,0.2,0,0.4,0,0.6c0,0.6-0.1,1.3-0.4,1.9
			c-0.1,0.1-0.1,0.3-0.2,0.4l24.2,0.5l-24.7,0.5c-0.6,0.8-1.4,1.6-2.3,2.2c-0.3,0.2-0.6,0.4-0.9,0.6l26.3,0.5l-28.5,0.6
			c-0.7,0.2-1.3,0.5-2.1,0.7c-2.2,0.6-4.6,0.8-7.3,0.8c-2.2,0-4.3-0.4-6-1.3l0,0l0,0L155,74l0.1-1.4l-85.9,1.7l-0.3,0.4l85.9,1.7
			l0.1-1.2l65.7,1.3l0,0l0,0l-66.1,1.3l0.1-1.4l-88.5,1.8l-0.3,0.4l87.6,1.7L63,82.1l-0.3,0.3l45.1,0.9h15.7v0.3l28.2,0.6l-28.4,0.6
			l-0.4,2.7L150,88l-27.3,0.5l-0.4,2.8l26,0.5l-26.2,0.5l-0.4,2.7l31.4,0.6l0.4-4.9h0.1l46.6,0.9c2.7-1,5.2-2.1,7.7-3.4h-0.2
			c0.1,0,0.1-0.1,0.2-0.1l-54.2,1h-0.1l0.2-2.4h0.1v0.1l54.5,1.1c2.1-1.2,4-2.4,5.8-3.7L154,85.4v-0.1h-0.1l0.2-2.3h0.1l0,0
			l60.3,1.2c6.9-5,12.4-11.6,16-19.8C233.2,58.2,233.5,53.4,232.2,49.7z M154.3,81.6h-0.1l0.2-2.5l64.5,1.3l0,0L154.3,81.6
			L154.3,81.6L154.3,81.6L154.3,81.6z"/>
		<path class="st1" d="M244.7,13.6c0-0.3-0.1-0.5-0.2-0.8l0,0l0,0l0,0c-0.1-0.4-0.3-0.9-0.4-1.3H244l0,0l-68.3,1.3
			c-0.2,0.1-0.4,0.3-0.6,0.5s-0.4,0.3-0.6,0.5l70.4,1.4C244.9,14.6,244.8,14.1,244.7,13.6z"/>
		<path class="st1" d="M196.9,31.3L162.8,32c-0.1,0.3-0.2,0.6-0.3,0.8l40,0.8C200.3,32.9,198.4,32.2,196.9,31.3z"/>
		<path class="st1" d="M194,27.6L194,27.6l-29.7,0.6l-0.1,0.2c-0.1,0.2-0.2,0.4-0.3,0.6l30.9,0.6C194.3,29,194.1,28.3,194,27.6z"/>
		<path class="st1" d="M240.4,5.9c-0.2-0.2-0.3-0.4-0.5-0.6c-0.6-0.4-1.1-0.9-1.7-1.3l-50.3,1c-0.9,0.4-1.8,0.8-2.6,1.3l56.5,1.1
			c-0.4-0.5-0.8-1-1.2-1.4L240.4,5.9C240.5,6,240.4,5.9,240.4,5.9z"/>
		<path class="st1" d="M225.4,41.8h0.1c-2-1.3-4.3-2.3-6.7-3.3h-0.1l0,0l-57.2,1.1c0,0.3,0,0.6,0,0.9L225.4,41.8L225.4,41.8z"/>
		<path class="st1" d="M194.4,25.5c0.3-0.6,0.6-1.1,1-1.6h-0.1c0,0,0-0.1,0.1-0.1l-29.2,0.6c-0.2,0.3-0.3,0.5-0.5,0.8l28.6,0.6
			C194.3,25.7,194.4,25.6,194.4,25.5z"/>
		<path class="st1" d="M206.4,20.2c2.9,0,5.4,0.5,7.1,1.7c0.2,0.1,0.4,0.3,0.5,0.4l29.8,0.6l-28.9,0.6c0.4,0.7,0.6,1.6,0.5,2.7
			l26.7,0.5l-26.9,0.5c0,0.1-0.1,0.3-0.1,0.5s0,0.3-0.1,0.5l0,0h28.7c0.3-0.9,0.5-1.7,0.7-2.6c0.1-0.2,0.1-0.5,0.2-0.7l0,0
			c0-0.2,0.1-0.4,0.1-0.6s0.1-0.4,0.1-0.7c0-0.1,0-0.1,0-0.2c0.1-0.5,0.2-1,0.2-1.5c0-0.2,0.1-0.4,0.1-0.6s0-0.5,0.1-0.7v-0.1
			c0.1-0.4,0.1-0.8,0.1-1.2l0,0v-0.1l0,0l0,0c0-0.5,0-0.8,0-1.3c0-0.1,0-0.1,0-0.2c0-0.8-0.1-1.5-0.2-2.2l-73.3,1.4
			c-0.3,0.3-0.5,0.6-0.8,0.9l71.8,1.4l-74.1,1.5c-0.2,0.3-0.4,0.6-0.6,0.9l29.6,0.6C199.7,20.8,202.6,20.2,206.4,20.2z"/>
		<path class="st1" d="M236.7,1.6L236.5,2L322,3.7l-82.1,1.6c0.2,0.2,0.5,0.4,0.7,0.7l79.8,1.6L243,9.1c0.2,0.3,0.3,0.6,0.5,0.8
			l75.3,1.5l-74.1,1.4c0.1,0.3,0.2,0.6,0.3,1l72.2,1.4l-71.8,1.4c0,0.3,0.1,0.7,0.1,1.1l70.1,1.4l-70.1,1.4c0,0.4-0.1,0.7-0.1,1.1
			l68.6,1.3l-69,1.3c0,0.2-0.1,0.4-0.1,0.7h10.3l-0.3,0.7l31.3,0.6l0.6-1.3h28.4L325.8,0L236.7,1.6z"/>
		<polygon class="st1" points="224.3,94.4 255.7,95 256.9,92.3 225,92.9 		"/>
		<polygon class="st1" points="236.1,67.7 267.4,68.3 268.7,65.5 236.8,66.1 		"/>
		<polygon class="st1" points="242.8,52.4 274.1,53 275.4,50.2 243.5,50.8 		"/>
		<polygon class="st1" points="239.4,60 270.7,60.6 272,57.8 240.1,58.4 		"/>
		<polygon class="st1" points="241.1,56.2 272.4,56.8 273.7,54 241.8,54.6 		"/>
		<polygon class="st1" points="246.2,44.7 277.5,45.3 278.8,42.5 246.9,43.1 		"/>
		<polygon class="st1" points="244.5,48.6 275.8,49.2 277.1,46.4 245.2,47 		"/>
		<polygon class="st1" points="247.9,40.9 279.2,41.5 280.5,38.7 248.6,39.3 		"/>
		<polygon class="st1" points="252.9,29.4 284.2,30 285.5,27.2 253.6,27.8 		"/>
		<polygon class="st1" points="249.5,37.1 280.8,37.7 282.1,34.9 250.2,35.5 		"/>
		<polygon class="st1" points="251.2,33.2 282.5,33.8 283.8,31 251.9,31.6 		"/>
		<polygon class="st1" points="229.4,83 260.7,83.6 262,80.8 230.1,81.4 		"/>
		<polygon class="st1" points="231,79.2 262.3,79.8 263.6,77 231.7,77.6 		"/>
		<polygon class="st1" points="227.7,86.9 259,87.5 260.3,84.7 228.4,85.3 		"/>
		<polygon class="st1" points="226,90.7 257.3,91.3 258.6,88.5 226.7,89.1 		"/>
		<polygon class="st1" points="232.7,75.4 264,76 265.3,73.2 233.4,73.8 		"/>
		<polygon class="st1" points="234.4,71.6 265.7,72.2 267,69.3 235.1,70 		"/>
		<polygon class="st1" points="237.8,63.9 269.1,64.5 270.4,61.7 238.5,62.3 		"/>
		<polygon class="st1" points="59.2,31.3 27.3,32 26.9,32.9 58.2,33.5 		"/>
		<polygon class="st1" points="60.9,27.4 29,28.1 28.6,29 59.9,29.6 		"/>
		<polygon class="st1" points="57.5,35.1 25.6,35.8 25.2,36.7 56.5,37.3 		"/>
		<polygon class="st1" points="62.6,23.6 30.7,24.3 30.3,25.2 61.6,25.8 		"/>
		<polygon class="st1" points="106.7,22.1 116.4,0.1 40.7,1.4 40.3,2.3 113.6,3.7 39,5.2 38.6,6.1 111.9,7.5 37.4,9 37,10 
			110.3,11.4 35.7,12.8 35.3,13.7 108.6,15.1 34,16.7 33.6,17.6 106.9,19 32.3,20.4 31.9,21.3 64,22.1 		"/>
		<polygon class="st1" points="6.7,78.8 38,79.4 39,77.2 7.1,77.9 		"/>
		<polygon class="st1" points="1.7,90.3 33,91 33.9,88.8 2.1,89.4 		"/>
		<polygon class="st1" points="3.4,86.5 34.7,87.1 35.6,84.9 3.8,85.6 		"/>
		<polygon class="st1" points="5,82.7 36.3,83.3 37.3,81.1 5.4,81.8 		"/>
		<path class="st1" d="M81.3,59.6l27.9,0.6l1.3-1.8l-28.9,0.5l0.6-1.4l-66.7,1.3l-0.4,0.9L80.7,61L81.3,59.6z"/>
		<polygon class="st1" points="0,94.2 31.4,94.8 32.3,92.7 0.4,93.3 		"/>
		<polygon class="st1" points="10.1,71.2 41.4,71.8 42.4,69.6 10.5,70.3 		"/>
		<polygon class="st1" points="8.4,75 39.7,75.6 40.6,73.4 8.8,74.1 		"/>
		<polygon class="st1" points="11.8,67.3 43.1,68 44.1,65.8 12.2,66.4 		"/>
		<polygon class="st1" points="80.6,61.3 13.8,62.6 13.4,63.5 44.7,64.1 45.6,62.1 80.2,62.1 		"/>
		<polygon class="st1" points="90.1,39.6 55.6,39.6 55.9,39 23.9,39.6 23.5,40.5 89.1,41.8 		"/>
		<polygon class="st1" points="85.6,49.8 18.9,51.1 18.5,52 84.1,53.3 		"/>
		<polygon class="st1" points="88.9,42.2 22.2,43.5 21.8,44.4 87.4,45.7 		"/>
		<polygon class="st1" points="83.9,53.6 17.2,54.9 16.8,55.8 82.4,57.1 		"/>
		<polygon class="st1" points="87.3,46 20.6,47.3 20.2,48.2 85.8,49.5 		"/>
		<polygon class="st1" points="159.6,15.7 115.3,16.5 114.3,17.8 159.4,18.7 		"/>
		<polygon class="st1" points="111.2,21.6 159,22.5 159.2,19.5 112.2,20.4 		"/>
		<polygon class="st1" points="108.2,25.3 158.8,26.3 159,23.2 109.1,24.2 		"/>
		<polygon class="st1" points="105.2,29.2 131.1,29.7 131.9,28.7 131.7,29.8 158.5,30.3 158.8,27.1 106.1,28.1 		"/>
		<polygon class="st1" points="156.6,53.7 128.1,54.2 127.8,56.6 156.3,57.2 		"/>
		<polygon class="st1" points="157,49.9 128.7,50.4 128.4,52.8 156.7,53.4 		"/>
		<polygon class="st1" points="127.2,60.5 156,61 156.3,57.4 127.6,58 		"/>
		<polygon class="st1" points="59.7,86.2 89.5,86.8 90.6,85.3 59.9,85.9 		"/>
		<polygon class="st1" points="56.7,90 86.8,90.6 87.8,89.2 56.9,89.8 		"/>
		<path class="st1" d="M155.7,65l-80.4,1.6l-0.4,0.5l80.5,1.6l0.1-1.3l0,0v0.1l19.2,0.4v-0.1l0,0c0-0.6,0-1.2,0.2-1.9l-19.3,0.4
			L155.7,65z"/>
		<polygon class="st1" points="53.7,93.8 84,94.4 85,93.1 53.8,93.6 		"/>
		<polygon class="st1" points="78.3,62.8 77.8,63.4 155.6,64.9 155.9,61.3 127,61.8 126.8,63.2 106.8,63.2 107.5,62.2 		"/>
		<polygon class="st1" points="160.9,0.5 127.5,1.1 126.4,2.5 160.7,3.2 		"/>
		<polygon class="st1" points="87,52 114.6,52.5 115.9,50.6 87.6,51.2 		"/>
		<polygon class="st1" points="84,55.8 111.9,56.3 113.2,54.5 84.5,55.1 		"/>
		<polygon class="st1" points="93.1,44.4 120.1,44.9 121.5,43 93.8,43.5 		"/>
		<polygon class="st1" points="90,48.2 117.3,48.7 118.7,46.8 90.7,47.3 		"/>
		<polygon class="st1" points="160.6,4.2 124.5,4.9 123.4,6.3 160.4,7 		"/>
		<polygon class="st1" points="129.2,46.6 128.9,48.9 156.9,49.5 157.2,46.1 		"/>
		<polygon class="st1" points="160.2,8.1 121.4,8.8 120.3,10.2 160,11 		"/>
		<polygon class="st1" points="159.9,11.8 118.3,12.6 117.3,13.9 159.7,14.7 		"/>
		<polygon class="st1" points="130.3,39 130,41.2 157.5,41.7 157.8,38.4 		"/>
		<polygon class="st1" points="157.6,42.2 129.8,42.8 129.5,45.1 157.3,45.6 		"/>
		<polygon class="st1" points="158.2,34.6 130.9,35.2 130.6,37.4 157.9,37.9 		"/>
		<polygon class="st1" points="131.4,31.4 131.1,33.6 158.1,34.1 158.4,30.9 		"/>
		<polygon class="st1" points="99.1,36.8 125.6,37.3 127.1,35.3 99.9,35.8 		"/>
		<polygon class="st1" points="96.1,40.5 122.8,41 124.2,39 96.8,39.6 		"/>
		<polygon class="st1" points="102.2,32.9 128.4,33.4 129.9,31.3 103,31.9 		"/>
	</g>
</g>
</svg>
