<svg width="150" height="79" viewBox="0 0 150 79" fill="none" xmlns="http://www.w3.org/2000/svg">
<g clip-path="url(#clip0_1286_5094)">
<path d="M70.2043 30.3752C70.3955 30.3752 70.579 30.4512 70.7142 30.5865C70.8494 30.7217 70.9254 30.9051 70.9254 31.0964V63.9233C70.9254 74.4305 70.0023 75.8007 62.6682 76.1108V77.1637H98.5961V76.1325C90.1658 76.0315 89.2211 74.7767 89.2211 63.945V31.1253C89.2211 30.934 89.2971 30.7506 89.4323 30.6153C89.5676 30.4801 89.751 30.4041 89.9422 30.4041H97.7523L101.56 25.5507H89.9855C89.7943 25.5507 89.6108 25.4748 89.4756 25.3395C89.3403 25.2043 89.2644 25.0208 89.2644 24.8296V11.8488C89.2644 8.12045 89.6682 6.18054 90.8148 4.41371C91.9615 2.64689 93.5336 1.62285 95.048 1.62285C95.638 1.64994 96.2116 1.82538 96.7158 2.13295C97.2201 2.44052 97.6386 2.87027 97.9326 3.38246C98.5384 4.50025 98.7475 5.66131 98.9639 9.05795C99.1658 13.1974 99.3677 14.9281 100.096 16.3921C100.629 17.4448 101.385 18.3684 102.312 19.0983C103.238 19.8283 104.313 20.3469 105.461 20.618L114.757 8.50266C112.053 3.45458 105.382 0.180542 97.7235 0.180542C90.4615 0.180542 86.7403 2.89208 76.7668 15.4618L64.9687 30.3752H70.2043Z" fill="#D1B158"/>
<path d="M69.4471 61.6445V31.8825H64.9688C64.6857 31.8833 64.4082 31.8043 64.168 31.6547C63.9277 31.5051 63.7344 31.2908 63.6103 31.0365C63.4861 30.7822 63.4361 30.498 63.4659 30.2165C63.4957 29.9351 63.6042 29.6677 63.7789 29.445L68.9063 22.9546C66.922 20.2079 64.5819 17.7368 61.9471 15.6061C55.1025 9.87639 46.4253 6.7997 37.5 6.9378C28.4135 6.9378 20.4664 9.82242 13.1322 15.5917C8.99065 18.7721 5.64741 22.8742 3.36785 27.5723C1.08829 32.2703 -0.0648203 37.4351 2.77874e-05 42.6566C2.77874e-05 53.6037 4.32695 62.6902 13.1106 69.8152C19.9587 75.4828 28.5895 78.5479 37.4784 78.469C43.7812 78.5181 49.9983 77.0076 55.576 74.0721C61.1537 71.1367 65.9189 66.8674 69.4471 61.6445ZM49.1467 68.9859C48.2901 71.3865 46.7099 73.4623 44.6239 74.927C42.5379 76.3917 40.0489 77.1732 37.5 77.1638C26.9712 77.1638 22.4279 66.945 22.4279 42.6782C22.4279 18.4114 26.9495 8.27915 37.5 8.27915C48.238 8.27915 52.6443 18.6061 52.6443 43.0748C52.6443 54.2239 51.5193 63.0003 49.1467 68.9859Z" fill="#D1B158"/>
<path d="M132.101 0.122803C124.817 0.122803 120.974 3.00742 111.469 15.4041L100.046 30.3752H105.815V63.9233C105.815 73.1829 105.094 75.3391 100.118 75.9377C100.121 75.9953 100.121 76.0531 100.118 76.1108V77.1637H132.995V76.1324C124.601 76.0315 123.692 74.7911 123.692 63.9449V30.3752H132.187L134.921 25.5218H123.707V11.8199C123.707 8.09876 124.111 6.13723 125.221 4.38482C126.332 2.63242 127.954 1.59396 129.368 1.59396C129.964 1.6212 130.545 1.79625 131.057 2.10338C131.57 2.41052 131.998 2.84011 132.303 3.35357C132.909 4.48578 133.111 5.72617 133.312 9.02905C133.514 13.2622 133.716 14.9137 134.423 16.3632C135.137 17.7763 136.24 18.9556 137.602 19.762C138.964 20.5683 140.529 20.9679 142.111 20.9137C146.661 20.9137 150 17.7117 150 13.2694C150 5.90646 142.111 0.122803 132.101 0.122803Z" fill="#D1B158"/>
</g>
<defs>
<clipPath id="clip0_1286_5094">
<rect width="150" height="78.6058" fill="white" transform="translate(0 0.000244141)"/>
</clipPath>
</defs>
</svg>
