<?xml version="1.0" encoding="UTF-8"?><svg id="_層_1" xmlns="http://www.w3.org/2000/svg" viewBox="0 0 512 512"><defs><style>.cls-1,.cls-2{fill:#fff;}.cls-3{fill:#d60c18;}.cls-2{fill-rule:evenodd;}</style></defs><rect class="cls-3" x="0" y="0" width="512" height="512"/><g><path class="cls-2" d="M54.61,215.52c2.84,1.67,6.17,2.55,9.45,1.74,3.1-.76,6.18-1.61,9.25-2.49,5.39-1.55,10.74-3.2,16.15-4.65,2.7-.73,5.41-1.41,8.13-2.01,1.21-.27,2.47-.43,3.63-.89,1.22-.49,2.3-1.25,3.49-1.8,1.73-.81,3.49-1.54,5.26-2.26,5.11-2.09,16.16-4.68,13.42-12.61-.85-2.54-3.5-3.68-5.67-4.87-2.33-1.28-4.96-1.09-7.54-.96-2.45,.13-4.9,.79-6.82,2.38-2.67,3.34-7.12,4.34-10.46,7.02-1.18,.9-2.8,.92-3.98,1.83-.57,.44-.76,.82-1.46,1.02-.59,.17-1.25,.06-1.85,.14-1.16,.15-2.32,.31-3.48,.49-3.3,.52-6.6,1.25-9.65,2.65-1.59,.73-2.98,1.67-4.42,2.63-1.35,.91-2.64,.54-4.18,.64-1.41,.09-2.81,.26-4.2,.47-1.4,.21-2.79,.47-4.18,.69-.71,.12-1.41,.22-2.12,.32-.43,.06-1.79-.02-2.1,.25-1.18,1.01-1.27,2.41-.66,3.7,1.2,2.55,1.38,5.03,4.02,6.58Z"/><path class="cls-2" d="M264.22,211.86c2.52-.68,4.7-1.25,6.04-3.67,.42-.76,.85-1.51,1.23-2.29,.76-1.53,1.35-3.19,1.17-4.93-.65-1.36-1.69-2.48-2.99-3.23-2.38-1.39-5.09-1.78-7.75-2.35-3.12-.66-6.38-1.44-9.53-1.86-1.87-.25-3.75-.02-5.56,.43-3.48,.86-7.19,2.31-10.46,3.78-3.88,1.73-8.52,.69-12.18,3.04-1.51,.97-3.29,.94-4.98,1.33-2.14,.49-4.17,1.35-6.25,2.03-3.58,1.16-7.18,2.27-10.81,3.26-2.59,.71-5.28-.05-7.84,1.23-1.16,.58-1.94,1.51-3.2,1.93-1.15,.38-2.3,.93-3.38,1.31-4.12,1.45-8.58,2.45-12.8,3.56-7.46,2.56-15.81,1.45-23.49,2.9-2.23,.56-4.56,.89-6.23,2.67-.54,2.57,1.31,3.66,3.16,4.9,2.07,1.38,3.2,3.7,5.26,5.02,1.79,1.14,3.85,1.76,5.81,2.55,4.48,1.82,8.71,4.21,13.53,5.14,2.66,.51,8.11,1.15,10.52-.46,2.86-1.9,6.07-3.22,8.82-5.28,1.28-.96,2.31-2.21,3.62-3.12,1.38-.95,2.98-1.54,4.27-2.63,1.84-1.56,3.47-3.47,5.66-4.56,2.67-.45,5.12-3.45,7.79-1.56,1.27,.59,.67,1.77,.74,2.86,.09,1.35,.9,2.54,.9,3.91,0,1.32-.29,2.65-.64,3.92v2.12c1.33,25.49-.89,49.75-3.12,75.35-1.03,3.17,.23,6.08,.94,9.14,.28,1.19,.19,2.49,.8,3.57,.99,1.77,3.43,4.56,5.39,5.21,4.53,1.51,10.89,2.26,14.47-1.67,3.66-1.62,4.79-5.22,5.32-8.89,.49-3.33,.88-6.68,1.02-10.05,.12-2.95-.54-5.01-1.21-7.84-.31-1.31-.39-2.67-.71-3.98-.5-2.1-1.17-4.18-1.53-6.31-1.56-9.23-2.34-21.14-2.34-30.71,.22-6.9-1.56-15.36-2.45-21.37-2-4.45,.78-8.9-1.34-13.35-.95-2.22-.54-4.92-.56-7.27-.01-1.98,1.38-2.71,2.99-3.58,.62-.33,1.19-.69,1.74-1.13,.59-.47,1.23-.58,1.94-.82,.64-.22,1.3-.41,1.96-.58,4.81-1.24,10.21-2.04,14.63,.79,1.09,.89,2.49,1.55,3.86,1.88,2.58,.6,5.21,.34,7.74-.34Z"/><path class="cls-2" d="M177.42,308.16c-1.1-.77-1.94-1.8-3.23-2.29-1.34-.51-2.81-.59-4.15-1.08-3.49-1.27-6.68-3.2-9.77-5.23-.66-.44-1.34-1.05-2.05-1.38-.74-.33-1.42-.16-2.19-.32-1.39-.28-2.2-1.57-3.4-2.21-.57-.3-1.31-.41-1.74-.92-1.08-1.28-2.83-1.71-4.18-2.62-1.36-.92-2.88-1.22-4.28-2.03-1.25-.72-2.4-1.6-3.52-2.51-2.04-1.67-4.07-3.96-6.5-5.07-8.23-3.79-13.91-13.46-20.03-19.81-4-3.67-9.13-8.79-9.02-15.13,1.78-4.01,6.56-5.34,10.13-7.23,4.45-3.34,10.8-5.23,13.35-10.46,.67-2,1-4.23-.33-6.12-1.45-3-5.12-2.89-8.02-4.01-1.81-.17-3.59,.06-5.31,.63-2.9,.95-5.3,2.81-7.55,4.82-1.04,.93-1.93,2.09-3.01,2.96-1.09,.88-2.5,1.09-3.78,1.57-1.48,.55-2.92,.62-4.06-.63-1.34-2.9-2.33-5.79-4.56-8.24-.63-.5-1.41-.47-2.14-.65-.69-.17-1.11-.72-1.73-.89-1-.28-2.32,.44-3.36,.43-1.27,0-2.8-.26-4.02,.22-1.51,.59-2.86,1.71-3.77,3.05-1.03,1.52-.6,2.67-.79,4.38-.13,1.14-.4,2.25-.63,3.37-.23,1.11-.46,2.24-.46,3.39,0,1.15,.5,2.12,.64,3.18,.39,3.15-1.42,5.88-3.75,7.81-1.12,.93-2.31,1.91-3.6,2.6-1.5,.81-3.2,1.03-4.74,1.72-1.44,.65-2.77,1.51-4.09,2.37-1.32,.87-2.62,1.77-4.01,2.52-1.41,.76-3.04,.98-4.42,1.67-2.45,1.23-5.34,1.45-7.79,2.45-2.67,.55-7.35-.44-8.57,2.89,.34,3.01,2,5.68,4.01,7.79,1.45,3.23,5.68,4.34,8.57,6.46,4.34,1.44,8.68-.67,12.8-.34,1.56,5.79,1.11,11.79-2.89,16.02-.76,2.28-1.86,4.42-3.31,6.33-.71,.93-1.5,1.79-2.33,2.6-.75,.72-1.04,1.81-1.8,2.46-.99,.86-1.67,2.1-2.82,2.77-1.54,.9-2.09-.23-3.3-.99-.76-.47-1.59-.78-2.46-.96-1.52-.31-3.63-.36-5.12,.14-1.32,.44-2,1.58-2.78,2.63-.71,.94-1.79,1.95-1.68,3.22,.06,.78,.43,1.5,.59,2.27,.32,1.59-.27,2.57,.83,4.04,.86,1.14,.61,1.6,.81,2.95,.09,.65,.43,1.21,.81,1.73,.69,.95,1.64,1.71,2.57,2.41,.83,.62,1.77,1.12,2.73,1.48,.82,.31,2.09,.25,2.81,.64,1.69,.93,3.59,1.47,5.52,1.38,3.27-.16,6.04-1.52,9.09-2.49,1.44-.46,2.91-.76,4.23-1.53,1.29-.76,2.24-1.86,3.35-2.83,1.42-1.25,2.79-2.56,4.1-3.92,2.33-2.42,4.49-5.03,6.36-7.83,.93-1.39,1.79-2.84,2.57-4.32,.7-1.33,1.02-2.75,1.63-4.09,.33-.73,.82-1.38,1.13-2.12,.55-1.32,1.23-2.79,1.56-4.18,.34-1.41,.73-2.43,1.43-3.68,1.15-2.07,1.19-4.52,1.61-6.79,.19-1.06,.59-2.06,.76-3.11,.21-1.26,.15-2.55,.44-3.8,.42-1.85,1.15-3.63,2.2-5.21,2.82,.25,4.72,2.06,6.52,4.08,.89,.99,1.78,1.93,2.79,2.79,1.16,.99,1.94,2.35,3.11,3.31,3.33,2.72,5.78,6.74,8.22,10.23,3.03,4.32,5.91,8.74,8.93,13.08,2.89,4.15,5.62,8.4,9.65,11.46,3.06,2.34,6.09,5.22,9.43,7.14,2.44,1.41,5.62,1,8.33,1.04,4.95,.09,9.9-.42,14.82-.92,2.43-.25,4.87-.5,7.31-.68,1.14-.09,2.3-.07,3.43-.2,2.05-.23,4.16-1.18,6.2-1.5,2.01-.31,4.53-.74,5.9-2.42,.96-1.17,1.74-3.42,1.15-4.92-.91-2.29-3.47-3.49-5.37-4.82Z"/><path class="cls-2" d="M315.36,290.37c1,0,1.95-.1,2.85-.3,.9-.2,1.77-.5,2.6-.91l.6-2.19-.32-.08c-.72,.61-1.52,1.08-2.41,1.42-.88,.34-1.77,.51-2.64,.51-2.03,0-3.57-.67-4.63-2.02-1.06-1.34-1.59-3.29-1.59-5.85,0-2.37,.52-4.21,1.56-5.53,1.04-1.31,2.5-1.97,4.37-1.97,1.24,0,2.27,.26,3.1,.77,.83,.51,1.39,1.23,1.66,2.15l.37-.05c.07-.59,.16-1.14,.27-1.66,.11-.52,.25-1.02,.4-1.49-.99-.44-1.95-.77-2.91-.98-.95-.21-1.91-.32-2.88-.32-3.06,0-5.5,.83-7.32,2.5-1.83,1.67-2.74,3.89-2.74,6.67,0,2.93,.85,5.21,2.54,6.85,1.69,1.63,4.06,2.45,7.1,2.45Z"/><path class="cls-2" d="M335.75,283.79c0-2.1-.56-3.72-1.69-4.86-1.13-1.14-2.73-1.71-4.81-1.71s-3.65,.57-4.8,1.73c-1.15,1.15-1.73,2.76-1.73,4.84s.57,3.67,1.7,4.81c1.13,1.14,2.73,1.72,4.8,1.72s3.66-.57,4.81-1.72c1.15-1.15,1.72-2.75,1.72-4.81Zm-4.45,4.17c-.41,.81-1.11,1.21-2.08,1.21s-1.65-.4-2.06-1.21c-.41-.8-.62-2.19-.62-4.17s.21-3.39,.62-4.2c.41-.81,1.1-1.21,2.06-1.21s1.67,.41,2.08,1.22c.41,.82,.62,2.21,.62,4.18s-.21,3.35-.62,4.16Z"/><path class="cls-2" d="M357.31,290.03c-.04-.86-.07-1.69-.1-2.47-.02-.78-.03-1.54-.03-2.27v-1.61c0-1.7-.07-2.88-.21-3.53-.15-.66-.39-1.18-.75-1.59-.36-.42-.79-.73-1.29-.93-.5-.21-1.07-.31-1.7-.31-.9,0-1.69,.2-2.36,.59-.68,.4-1.27,1.01-1.78,1.82-.3-.79-.76-1.38-1.37-1.8-.62-.41-1.37-.62-2.24-.62-.79,0-1.49,.16-2.1,.47-.61,.32-1.19,.83-1.72,1.52v-1.72c-.27,.04-.54,.06-.83,.08-.29,.02-.61,.02-.97,.02s-.66,0-.96-.02c-.3-.02-.58-.04-.86-.08,.05,1.41,.09,2.62,.12,3.65,.02,1.03,.04,1.88,.04,2.55s-.01,1.54-.04,2.58c-.02,1.05-.06,2.26-.12,3.65,.37-.04,.71-.07,1.02-.1,.3-.02,.6-.03,.88-.03,.31,0,.62,.01,.92,.03,.31,.02,.63,.05,.95,.1,.01-.05,.01-.13,0-.24-.06-1.01-.09-1.71-.09-2.12v-4.12c0-1.53,.16-2.6,.48-3.19,.32-.59,.86-.89,1.63-.89s1.33,.29,1.63,.87c.3,.58,.45,2.01,.45,4.28,0,.82-.02,1.67-.05,2.58-.04,.91-.09,1.85-.15,2.82,.37-.04,.71-.06,1.02-.09,.31-.02,.61-.04,.91-.04s.6,.01,.92,.03c.32,.02,.66,.05,1.02,.1,0-.05,0-.14-.01-.25-.06-1.01-.09-1.71-.09-2.11v-4.12c0-1.52,.16-2.58,.49-3.18,.33-.6,.87-.9,1.65-.9s1.32,.3,1.63,.9c.31,.59,.46,1.86,.46,3.8,0,.84-.02,1.74-.06,2.71-.04,.96-.09,2.01-.17,3.15,.35-.04,.68-.07,.99-.1,.31-.02,.61-.03,.91-.03s.6,.01,.92,.03c.32,.02,.67,.05,1.05,.1Z"/><path class="cls-2" d="M368.25,290.03c.37-.04,.71-.06,1.02-.09,.31-.02,.61-.04,.91-.04s.6,.01,.92,.03c.32,.02,.66,.05,1.02,.1,0-.05,0-.14-.01-.25-.06-1.01-.09-1.71-.09-2.11v-4.12c0-1.52,.16-2.58,.49-3.18,.33-.6,.88-.9,1.65-.9s1.32,.3,1.63,.9c.31,.59,.46,1.86,.46,3.8,0,.84-.02,1.74-.06,2.71-.04,.96-.09,2.01-.17,3.15,.35-.04,.67-.07,.98-.1,.31-.02,.61-.03,.91-.03s.6,.01,.92,.03c.32,.02,.67,.05,1.05,.1-.04-.86-.07-1.69-.09-2.47-.02-.78-.03-1.54-.03-2.27v-1.61c0-1.7-.07-2.88-.21-3.53-.15-.66-.4-1.18-.75-1.59-.36-.42-.79-.73-1.29-.93-.5-.21-1.07-.31-1.7-.31-.9,0-1.69,.2-2.36,.59-.68,.4-1.27,1.01-1.78,1.82-.3-.79-.76-1.38-1.37-1.8-.62-.41-1.37-.62-2.23-.62-.79,0-1.49,.16-2.1,.47-.62,.32-1.19,.83-1.72,1.52v-1.72c-.26,.04-.54,.06-.83,.08-.29,.02-.62,.02-.97,.02s-.66,0-.95-.02c-.3-.02-.58-.04-.86-.08,.05,1.41,.09,2.62,.11,3.65,.03,1.03,.04,1.88,.04,2.55s-.01,1.54-.04,2.58c-.02,1.05-.06,2.26-.11,3.65,.37-.04,.71-.07,1.02-.1,.31-.02,.6-.03,.88-.03,.31,0,.61,.01,.92,.03,.31,.02,.62,.05,.95,.1,0-.05,0-.13,0-.24-.06-1.01-.09-1.71-.09-2.12v-4.12c0-1.53,.16-2.6,.48-3.19,.32-.59,.86-.89,1.63-.89s1.33,.29,1.63,.87c.3,.58,.45,2.01,.45,4.28,0,.82-.02,1.67-.05,2.58-.04,.91-.09,1.85-.15,2.82Z"/><path class="cls-2" d="M395.34,283.79c0-2.1-.57-3.72-1.69-4.86-1.13-1.14-2.73-1.71-4.81-1.71s-3.65,.57-4.81,1.73c-1.15,1.15-1.73,2.76-1.73,4.84s.57,3.67,1.7,4.81c1.13,1.14,2.73,1.72,4.8,1.72s3.66-.57,4.81-1.72c1.15-1.15,1.72-2.75,1.72-4.81Zm-4.45,4.17c-.42,.81-1.11,1.21-2.08,1.21s-1.65-.4-2.06-1.21c-.41-.8-.62-2.19-.62-4.17s.21-3.39,.62-4.2c.41-.81,1.1-1.21,2.06-1.21s1.67,.41,2.08,1.22c.41,.82,.62,2.21,.62,4.18s-.21,3.35-.62,4.16Z"/><path class="cls-2" d="M405.09,280.32c.3,.54,.45,1.76,.45,3.65,0,1.25-.02,2.39-.06,3.42-.04,1.02-.09,1.91-.15,2.64,.37-.04,.7-.07,1.01-.1,.31-.02,.61-.03,.91-.03s.6,.01,.92,.03c.32,.02,.66,.05,1.02,.1-.06-.68-.11-1.38-.13-2.09-.03-.72-.05-1.49-.05-2.3,0-.55,0-1.19,.01-1.91,0-.73,.01-1.17,.01-1.34,0-1.21-.06-2.05-.18-2.55-.12-.5-.33-.91-.62-1.25-.36-.41-.81-.73-1.33-.95-.52-.21-1.11-.32-1.74-.32-.82,0-1.56,.17-2.22,.51-.66,.34-1.26,.86-1.79,1.56v-1.79c-.25,.04-.53,.06-.81,.08-.28,.02-.6,.02-.93,.02s-.66,0-.95-.02c-.3-.02-.58-.04-.85-.08,.07,1.02,.12,2.06,.15,3.09,.04,1.04,.05,2.09,.05,3.14,0,.94-.02,1.92-.05,2.94-.03,1.02-.08,2.11-.15,3.26,.35-.04,.68-.07,.99-.1,.31-.02,.61-.03,.9-.03s.6,.01,.92,.03c.31,.02,.63,.05,.95,.1-.04-1.35-.07-2.55-.1-3.59-.02-1.04-.03-1.93-.03-2.66,0-1.55,.17-2.65,.51-3.3,.34-.65,.91-.98,1.7-.98s1.33,.27,1.63,.82Z"/><path class="cls-2" d="M434.95,272.36c-.23,0-.44,0-.64-.03-.2-.02-.38-.04-.56-.08-.54,2.2-1.13,4.36-1.76,6.49-.63,2.13-1.31,4.23-2.04,6.32-.78-2.22-1.51-4.39-2.22-6.52-.7-2.13-1.35-4.23-1.96-6.28-.2,.04-.41,.06-.63,.08-.21,.02-.45,.03-.7,.03s-.47,0-.68-.03c-.21-.02-.42-.04-.62-.08-.67,2.03-1.37,4.12-2.1,6.24-.73,2.13-1.5,4.38-2.32,6.74-.66-2.14-1.28-4.3-1.87-6.46-.58-2.17-1.13-4.34-1.63-6.52-.33,.04-.67,.06-1.03,.08-.35,.02-.74,.03-1.15,.03s-.82,0-1.17-.03c-.36-.02-.71-.04-1.04-.08,1.06,3.08,2.04,6.09,2.94,9.05,.9,2.96,1.72,5.87,2.47,8.72,.25-.04,.48-.07,.69-.1,.22-.02,.43-.03,.63-.03s.41,.01,.63,.03c.22,.02,.45,.05,.69,.1,.71-2.21,1.44-4.36,2.18-6.47,.74-2.1,1.5-4.14,2.28-6.12,.81,2.2,1.56,4.35,2.25,6.44,.7,2.09,1.34,4.14,1.95,6.15,.26-.04,.5-.07,.72-.1,.22-.02,.43-.03,.62-.03,.21,0,.43,.01,.66,.03,.23,.02,.46,.05,.69,.1,1.05-3.31,2.06-6.44,3.04-9.39,.98-2.95,1.93-5.74,2.85-8.38-.18,.04-.36,.06-.55,.08-.19,.02-.4,.03-.63,.03Z"/><path class="cls-2" d="M442.94,277.23c-1.88,0-3.39,.58-4.54,1.75-1.14,1.17-1.71,2.7-1.71,4.6,0,2.11,.57,3.76,1.72,4.95,1.15,1.19,2.73,1.79,4.76,1.79,.86,0,1.65-.1,2.38-.31,.73-.2,1.37-.5,1.91-.88l.57-1.47-.25-.19c-.51,.42-1.05,.73-1.6,.93-.55,.2-1.13,.31-1.73,.31-1.21,0-2.17-.44-2.89-1.32-.71-.88-1.07-2.07-1.07-3.57h7.96c0-.11,.02-.21,.02-.33,0-.12,.01-.29,.01-.51,0-1.85-.48-3.28-1.43-4.27-.95-.99-2.32-1.49-4.11-1.49Zm1.97,4.95c0,.14-.01,.26-.01,.35h-4.41v-.23c0-1.27,.21-2.25,.63-2.93,.42-.68,1.01-1.03,1.77-1.03,.67,0,1.18,.3,1.52,.9,.34,.6,.51,1.49,.51,2.67,0,.04,0,.13-.01,.27Z"/><path class="cls-2" d="M460.72,288.58c-.23-.3-.35-.98-.35-2.04v-.5l.08-4.53v-.12c0-1.34-.42-2.37-1.25-3.09-.83-.72-2.03-1.08-3.59-1.08-.81,0-1.6,.16-2.35,.49-.75,.33-1.51,.82-2.28,1.49,.08,.21,.17,.44,.25,.68,.09,.25,.19,.57,.32,.98,.41-.68,.85-1.18,1.33-1.51,.48-.33,1.01-.5,1.6-.5,.74,0,1.34,.24,1.79,.7,.45,.47,.67,1.09,.67,1.88,0,.12,0,.21,0,.28,0,.06-.01,.12-.02,.17-.5,.34-1.43,.71-2.78,1.12-.58,.18-1.02,.32-1.32,.42-.93,.31-1.63,.74-2.07,1.27-.44,.53-.66,1.21-.66,2.03,0,1.12,.31,2,.94,2.65,.62,.65,1.48,.97,2.57,.97,.76,0,1.44-.17,2.05-.51,.6-.34,1.09-.82,1.47-1.45,.14,.61,.4,1.07,.8,1.39,.4,.32,.91,.48,1.54,.48,.43,0,.88-.05,1.36-.15,.47-.09,.93-.24,1.37-.42v-.65h-.08c-.68,0-1.13-.15-1.37-.45Zm-3.74-2.38c0,.78-.15,1.38-.46,1.79-.31,.41-.76,.62-1.33,.62-.53,0-.93-.19-1.21-.56-.27-.37-.4-.93-.4-1.68,0-.89,.27-1.58,.8-2.08,.54-.5,1.4-.87,2.6-1.12v3.02Z"/><path class="cls-2" d="M467.8,270.5c-.39,.06-.74,.1-1.06,.13-.31,.03-.61,.04-.89,.04s-.57-.01-.87-.04c-.3-.02-.65-.07-1.06-.14,.06,1.41,.12,2.92,.15,4.52,.03,1.6,.05,3.36,.05,5.29,0,1.82-.02,3.53-.05,5.12-.04,1.59-.09,3.12-.15,4.58,.31-.06,.63-.1,.95-.13,.32-.03,.66-.04,1.01-.04s.68,.01,1,.04c.32,.03,.63,.08,.92,.13-.07-1.41-.12-2.92-.15-4.52-.04-1.6-.05-3.36-.05-5.29,0-1.82,.02-3.53,.05-5.12,.04-1.59,.08-3.12,.15-4.58Z"/><path class="cls-2" d="M476.17,288.93c-.56,0-.93-.24-1.13-.72-.2-.47-.29-1.71-.29-3.69v-1.05c0-.77,.03-2.05,.09-3.84,0-.27,.01-.47,.01-.6,.85,0,1.44,0,1.77,0,.33,0,.6,.01,.8,.02,0-.02,0-.04-.01-.08-.02-.25-.03-.45-.03-.6,0-.08,0-.17,0-.25,0-.08,.01-.22,.04-.42-.39,.04-.79,.06-1.2,.08-.41,.02-.85,.03-1.32,.03v-.82c0-.35,.01-.85,.04-1.51,.02-.67,.06-1.5,.11-2.48l-.28-.22c-.55,.27-1.12,.53-1.7,.79-.59,.26-1.18,.49-1.78,.72,.03,.57,.06,1.04,.08,1.42,.02,.38,.02,.74,.02,1.08,0,.28,0,.49,0,.62,0,.13-.01,.26-.02,.38h-.29c-.27,.01-.71-.02-1.32-.08-.07,0-.12-.02-.15-.03,0,.08,.01,.16,.02,.26,.01,.1,.02,.24,.02,.43s0,.32,0,.41c0,.08-.02,.17-.03,.27,.15,0,.32-.01,.5-.02,.18,0,.44,0,.79,0h.47v1.38c0,1.4-.02,2.81-.05,4.25-.03,1.44-.04,2.18-.04,2.22,0,1.12,.29,1.97,.88,2.57,.58,.59,1.43,.89,2.54,.89,.45,0,.92-.06,1.4-.18,.49-.12,1.01-.31,1.58-.56v-.97h-.01c-.72,.2-1.22,.29-1.5,.29Z"/><path class="cls-2" d="M490.78,288.09c-.03-.69-.04-1.51-.04-2.47,0-.55,0-1.19,.01-1.91,0-.73,.01-1.17,.01-1.34,0-1.15-.06-1.99-.19-2.5-.13-.52-.34-.95-.65-1.3-.35-.41-.79-.73-1.31-.95-.52-.21-1.09-.32-1.72-.32-.86,0-1.63,.18-2.3,.54-.67,.36-1.24,.9-1.72,1.62v-4.04c0-.94,.03-1.82,.07-2.63,.05-.81,.11-1.57,.2-2.29-.34,.06-.67,.12-.98,.15-.31,.03-.62,.05-.93,.05-.29,0-.59-.02-.9-.05-.31-.04-.64-.09-.99-.15,.07,1.09,.13,2.4,.16,3.91,.03,1.52,.04,3.63,.04,6.34,0,2.56-.01,4.51-.04,5.86-.03,1.35-.08,2.48-.16,3.4,.34-.04,.67-.07,.99-.09,.32-.02,.62-.03,.91-.03s.6,.01,.91,.03c.32,.02,.64,.05,.98,.09-.05-1.24-.09-2.38-.12-3.44-.03-1.06-.05-2-.05-2.81,0-1.55,.17-2.65,.51-3.3,.34-.65,.91-.98,1.7-.98s1.33,.27,1.63,.82c.3,.54,.44,1.76,.44,3.65,0,1.25-.02,2.39-.05,3.42-.04,1.02-.08,1.91-.14,2.64,.36-.04,.7-.07,1.01-.09,.31-.02,.61-.03,.9-.03s.58,.01,.91,.03c.32,.02,.66,.05,1.02,.09-.05-.59-.09-1.23-.11-1.92Z"/><path class="cls-2" d="M326.84,313.7l-1.49-12.44c-.17,.04-.36,.06-.56,.08-.2,.02-.41,.03-.63,.03s-.43,0-.62-.03c-.19-.02-.39-.04-.57-.08-.95,2.14-1.92,4.22-2.91,6.24-.99,2.02-2,4-3.02,5.92-1.07-1.99-2.1-4-3.1-6.02-1.01-2.02-1.97-4.07-2.9-6.14-.18,.04-.36,.06-.55,.08-.19,.02-.39,.03-.6,.03s-.41,0-.59-.03c-.18-.02-.36-.04-.53-.08l-1.66,12.29c-.05,.4-.15,1.09-.31,2.04-.15,.96-.34,2.1-.55,3.44,.2-.04,.39-.07,.56-.09,.17-.02,.34-.03,.51-.03,.15,0,.32,.01,.5,.03,.17,.02,.36,.05,.56,.09,0-1.14,.17-3.12,.48-5.92l.03-.2,.62-5.4c.93,1.73,1.88,3.55,2.84,5.47,.96,1.92,1.95,3.94,2.96,6.05,.06-.02,.12-.03,.19-.04,.07,0,.17-.01,.32-.01,.16,0,.28,0,.35,.01,.07,0,.14,.02,.2,.04,1.02-2.15,2.01-4.21,2.99-6.18,.97-1.97,1.95-3.89,2.92-5.76l.84,8.29c.05,.43,.11,1.56,.19,3.38,0,.12,.02,.21,.03,.27,.38-.04,.75-.07,1.11-.09,.36-.02,.71-.03,1.03-.03s.68,.01,1.03,.04c.36,.02,.75,.05,1.18,.09-.14-.61-.27-1.31-.4-2.09-.13-.79-.27-1.87-.43-3.24Z"/><path class="cls-2" d="M340.23,317.6c-.23-.3-.35-.98-.35-2.04v-.5l.08-4.53v-.13c0-1.34-.42-2.37-1.25-3.09-.83-.72-2.03-1.08-3.59-1.08-.82,0-1.6,.17-2.35,.49-.76,.33-1.52,.82-2.29,1.49,.09,.21,.17,.44,.26,.69,.08,.25,.19,.57,.32,.98,.41-.68,.85-1.18,1.33-1.51,.48-.33,1.01-.5,1.6-.5,.74,0,1.34,.23,1.79,.7,.45,.47,.67,1.09,.67,1.88,0,.12,0,.21,0,.28,0,.06-.01,.12-.02,.17-.5,.34-1.43,.71-2.78,1.12-.57,.18-1.02,.32-1.32,.42-.94,.32-1.63,.74-2.07,1.27-.44,.54-.66,1.21-.66,2.03,0,1.12,.31,2,.94,2.65,.62,.65,1.48,.97,2.57,.97,.76,0,1.45-.17,2.05-.51,.6-.34,1.09-.82,1.47-1.45,.13,.61,.4,1.08,.8,1.39,.4,.32,.91,.48,1.54,.48,.43,0,.88-.05,1.36-.15,.47-.09,.93-.24,1.37-.42v-.65h-.08c-.68,0-1.13-.15-1.37-.45Zm-3.75-2.38c0,.78-.15,1.38-.46,1.79-.31,.41-.75,.62-1.33,.62-.53,0-.93-.18-1.2-.56-.27-.37-.41-.93-.41-1.68,0-.89,.27-1.59,.8-2.08,.54-.5,1.4-.88,2.61-1.12v3.02Z"/><path class="cls-2" d="M353.61,317.6c-.46-.25-1.48-.42-3.06-.5-.14,0-.24-.02-.32-.02h-.14c-2.47-.09-3.7-.53-3.7-1.32,0-.34,.1-.62,.31-.85,.21-.23,.49-.36,.83-.4h.44c1.84,0,3.29-.38,4.31-1.14,1.03-.76,1.54-1.81,1.54-3.16,0-.6-.11-1.12-.34-1.56-.22-.44-.56-.8-1.01-1.09,.08,0,.21,0,.4,.01,.92,.04,1.64,.07,2.17,.09v-1.27c-.43,.03-.85,.05-1.23,.06-.39,.01-.76,.02-1.11,.02-.86,0-1.78-.03-2.79-.11-1-.07-1.58-.11-1.73-.11-1.63,0-2.94,.39-3.91,1.15-.97,.77-1.45,1.78-1.45,3.04,0,1,.28,1.81,.84,2.43,.57,.62,1.4,1.04,2.51,1.26v.32c-.84,.35-1.48,.79-1.93,1.28-.45,.5-.67,1.04-.67,1.63,0,.5,.14,.93,.44,1.28,.29,.36,.7,.61,1.22,.78l-.02,.21c-.89,.3-1.56,.71-1.99,1.23-.44,.51-.66,1.16-.66,1.92,0,1.04,.49,1.86,1.46,2.46,.97,.6,2.33,.9,4.06,.9,2.11,0,3.83-.51,5.15-1.53,1.32-1.02,1.98-2.33,1.98-3.93,0-.69-.14-1.3-.42-1.83-.27-.53-.67-.94-1.2-1.24Zm-6.71-9.49c.35-.53,.85-.8,1.48-.8s1.11,.23,1.42,.69c.31,.46,.46,1.16,.46,2.09,0,1.21-.15,2.08-.46,2.6-.31,.53-.81,.79-1.5,.79s-1.16-.25-1.47-.75c-.31-.5-.46-1.28-.46-2.35,0-.98,.18-1.74,.53-2.27Zm4.2,16.22c-.67,.48-1.59,.73-2.77,.73-1.01,0-1.81-.27-2.41-.8-.6-.53-.9-1.25-.9-2.13,0-.52,.12-.98,.36-1.38,.24-.41,.57-.72,.99-.94l3,.17c.95,.05,1.64,.27,2.08,.64,.44,.38,.65,.95,.65,1.72,0,.86-.33,1.52-1,2.01Z"/><path class="cls-2" d="M366.71,317.6c-.23-.3-.35-.98-.35-2.04v-.5l.08-4.53v-.13c0-1.34-.42-2.37-1.25-3.09-.83-.72-2.03-1.08-3.59-1.08-.81,0-1.6,.17-2.35,.49-.75,.33-1.52,.82-2.29,1.49,.08,.21,.17,.44,.25,.69,.09,.25,.19,.57,.32,.98,.41-.68,.85-1.18,1.33-1.51,.48-.33,1.01-.5,1.59-.5,.75,0,1.34,.23,1.79,.7,.45,.47,.68,1.09,.68,1.88,0,.12,0,.21,0,.28,0,.06-.01,.12-.02,.17-.5,.34-1.43,.71-2.78,1.12-.58,.18-1.02,.32-1.32,.42-.94,.32-1.63,.74-2.07,1.27-.44,.54-.66,1.21-.66,2.03,0,1.12,.31,2,.93,2.65,.62,.65,1.48,.97,2.57,.97,.76,0,1.44-.17,2.05-.51,.6-.34,1.09-.82,1.47-1.45,.13,.61,.4,1.08,.8,1.39,.4,.32,.91,.48,1.54,.48,.43,0,.88-.05,1.36-.15,.47-.09,.93-.24,1.37-.42v-.65h-.08c-.68,0-1.13-.15-1.37-.45Zm-3.73-2.38c0,.78-.15,1.38-.46,1.79-.31,.41-.75,.62-1.33,.62-.53,0-.93-.18-1.21-.56-.27-.37-.4-.93-.4-1.68,0-.89,.27-1.59,.8-2.08,.54-.5,1.4-.88,2.61-1.12v3.02Z"/><path class="cls-2" d="M374.84,306.69c-.96,0-1.87-.01-2.72-.03-.85-.01-1.67-.04-2.44-.08,.01,.08,.03,.18,.04,.28,0,.1,.01,.25,.01,.44s0,.34-.01,.43c-.01,.09-.02,.19-.04,.28,.06,0,.15-.01,.29-.01,1.53-.06,2.64-.09,3.34-.09,.28,0,.57,0,.87,0,.3,0,.72,.02,1.26,.05l-2.42,3.71c-2.06,3.15-3.57,5.46-4.55,6.92v.42c.84-.04,1.72-.07,2.65-.09,.93-.02,1.97-.03,3.13-.03s2.18,.01,3.07,.03c.89,.02,1.71,.05,2.47,.09-.02-.23-.03-.4-.04-.52,0-.12-.01-.22-.01-.32,0-.09,0-.2,.01-.32,0-.12,.02-.26,.04-.42-.73,.05-1.47,.09-2.22,.12-.75,.03-1.52,.04-2.3,.04-.28,0-.58,0-.89,0-.31,0-.78-.02-1.4-.05,1.84-2.85,3.3-5.1,4.39-6.78,1.09-1.67,1.94-2.97,2.55-3.88v-.32c-.75,.04-1.53,.06-2.36,.08-.83,.02-1.73,.03-2.71,.03Z"/><path class="cls-2" d="M385.95,306.58c-.29,.03-.6,.05-.92,.06-.33,.01-.66,.02-1,.02s-.67,0-.99-.02c-.32-.01-.63-.03-.93-.06,.06,1.13,.1,2.2,.13,3.22,.03,1.02,.05,2.02,.05,3,0,.85-.01,1.77-.04,2.75-.03,.98-.07,2.13-.14,3.46,.34-.04,.67-.07,.99-.1,.32-.02,.63-.03,.94-.03s.63,.01,.95,.03c.32,.02,.64,.05,.98,.1-.06-1.32-.11-2.47-.13-3.45-.03-.98-.05-1.9-.05-2.76,0-.98,.01-1.98,.05-3,.03-1.02,.07-2.09,.13-3.22Z"/><path class="cls-2" d="M384.05,299.93c-.56,0-1.03,.19-1.41,.57-.38,.38-.57,.85-.57,1.4s.19,1.02,.56,1.39c.38,.38,.84,.57,1.39,.57s1.02-.19,1.4-.57c.38-.37,.57-.84,.57-1.39s-.19-1.01-.56-1.39c-.38-.39-.84-.58-1.38-.58Z"/><path class="cls-2" d="M400.61,314.64c0-.55,0-1.19,.02-1.91,0-.73,.01-1.17,.01-1.34,0-1.2-.06-2.05-.18-2.55-.12-.5-.33-.91-.62-1.25-.37-.41-.81-.73-1.33-.95-.53-.21-1.11-.32-1.74-.32-.82,0-1.56,.17-2.22,.51-.66,.34-1.26,.86-1.79,1.56v-1.79c-.25,.04-.53,.06-.81,.08-.28,.02-.6,.03-.93,.03s-.66-.01-.95-.03c-.29-.01-.58-.04-.85-.08,.07,1.02,.12,2.05,.15,3.09,.03,1.04,.05,2.09,.05,3.14,0,.94-.02,1.92-.05,2.94-.04,1.02-.08,2.11-.15,3.26,.35-.04,.68-.07,1-.09,.31-.02,.61-.03,.9-.03s.6,.01,.91,.03c.31,.02,.63,.05,.95,.09-.04-1.35-.08-2.55-.1-3.59-.02-1.04-.04-1.93-.04-2.66,0-1.55,.17-2.65,.51-3.3,.34-.65,.91-.98,1.7-.98s1.33,.27,1.63,.82c.3,.54,.45,1.76,.45,3.65,0,1.25-.02,2.39-.06,3.41-.04,1.03-.09,1.91-.15,2.64,.36-.04,.7-.07,1.01-.09,.31-.02,.61-.03,.91-.03s.6,.01,.92,.03c.32,.02,.66,.05,1.02,.09-.06-.68-.1-1.38-.13-2.09-.03-.72-.05-1.49-.05-2.3Z"/><path class="cls-2" d="M409.43,306.25c-1.88,0-3.39,.58-4.54,1.76-1.14,1.17-1.71,2.7-1.71,4.6,0,2.11,.57,3.76,1.72,4.95,1.15,1.19,2.73,1.79,4.76,1.79,.86,0,1.65-.1,2.38-.3,.73-.2,1.37-.5,1.91-.87l.57-1.47-.25-.19c-.52,.41-1.05,.72-1.6,.93-.55,.2-1.12,.3-1.73,.3-1.21,0-2.17-.44-2.89-1.32-.72-.88-1.07-2.07-1.07-3.57h7.96c0-.11,.02-.21,.02-.33,0-.12,0-.29,0-.51,0-1.85-.48-3.28-1.43-4.27-.95-.99-2.32-1.49-4.11-1.49Zm1.97,4.96c0,.14-.01,.26-.01,.35h-4.41v-.23c0-1.27,.21-2.25,.63-2.93,.42-.69,1.01-1.03,1.77-1.03,.67,0,1.18,.3,1.52,.9,.34,.6,.52,1.49,.52,2.67,0,.04,0,.13-.02,.27Z"/><path class="cls-2" d="M313.64,216.77c1.28,2.02,2.44,4.09,3.42,6.05l3.48-3.3c-1.53-1.77-3.54-3.48-5.86-5.07,.79-1.89,1.47-3.67,1.77-5.19l-4.95-1.16c-1.1,5.92-3.24,12.58-6.11,17.22l1.65,1.4c2.32-2.44,4.76-6.23,6.59-9.95Z"/><path class="cls-2" d="M332.7,204.91h-10.87l2.44-3.42c-2.56-1.83-6.72-3.6-10.13-4.58l-.85,1.89c2.32,1.89,4.52,3.78,6.72,6.11h-13.61v2.75h26.31v-2.75Z"/><path class="cls-2" d="M317.43,238.8v16h5.25v-17.22c1.83,2.14,4.39,5.19,6.11,7.75l3.6-4.03c-2.56-2.44-6.04-4.58-9.71-6.66v-2.2h10.13v-2.75h-10.13v-5.74h-1.04c1.47-2.01,2.87-4.27,3.97-6.59,1.34,1.89,2.44,3.91,3.36,5.8l2.87-2.63c-.55,1.53-1.22,2.99-1.95,4.52l1.71,1.28c.92-1.22,1.77-2.56,2.63-3.91l-.06,32h5.37v-4.64h20.51v-2.81h-9.34v-10.56h7.08v-2.75h-7.08v-9.52h7.02v-2.75h-7.02v-8.18h8.55v-2.75h-19.84c1.1-3.72,1.83-7.63,2.2-11.66l-5.56-1.1c-.92,8.91-1.65,15.51-3.78,21.74-1.4-1.65-3.36-3.17-5.49-4.58,.73-1.89,1.34-3.66,1.65-5.31l-4.94-1.22c-.67,5.56-1.96,11.11-4.46,15.63h-1.59v5.74h-11.36v2.75h10.07c-2.87,6.65-7.02,12.03-11.42,16.42l1.28,1.77c5.01-3.6,9.1-8.36,11.42-11.84Zm22.11-25.59h5.92v8.18h-5.92v-8.18Zm0,10.93h5.92v9.52h-5.92v-9.52Zm0,12.28h5.92v10.56h-5.92v-10.56Z"/><path class="cls-2" d="M352.05,207.72c-1.1-2.81-3.73-7.57-6.23-10.32l-1.95,.98c1.28,3.42,2.68,8.73,3.17,11.24l5.01-1.89Z"/><polygon class="cls-2" points="407.55 221.39 396.26 221.39 396.26 224.14 425.08 224.14 425.08 221.39 413.05 221.39 413.05 210.83 425.87 210.83 425.87 208.08 413.05 208.08 413.05 197.83 407.55 197.83 407.55 208.08 394.98 208.08 394.98 210.83 407.55 210.83 407.55 221.39"/><path class="cls-2" d="M393.7,208.09h-8.91l3.17-2.44c-2.5-3.17-6.53-6.47-9.4-8.36l-1.52,1.53c1.4,2.01,3.66,5.8,5.68,9.28h-9.34v2.75h20.33v-2.75Z"/><path class="cls-2" d="M402.06,245.88c0,6.59,1.22,7.27,10.14,7.27,9.52,0,9.03-3.91,6.23-13.92h-2.2c.06,8.12,0,8.91-4.4,8.91-3.84,0-4.4-.8-4.4-3.24v-14.9h-5.37v15.88Z"/><path class="cls-2" d="M417.32,231.02c-2.32-2.38-7.88-5.43-10.87-6.72l-1.1,1.77c2.38,2.26,6.23,6.35,8.36,9.03l3.6-4.09Z"/><path class="cls-2" d="M428.07,243.92c-2.02-4.4-4.82-8.49-8.24-12.03l-1.71,1.16c2.01,4.15,3.6,8.37,5.13,13.25l4.82-2.38Z"/><path class="cls-2" d="M387.1,253.56h4.64v-7.39l4.09,3.05c2.81-3.72,4.21-9.1,4.58-15.57l-2.14-.43c-1.04,5.49-3.42,9.16-6.54,12.33v-12.09h-16.42v20.94h4.76v-4.46h7.02v3.6Zm-.06-6.29h-6.96v-11.11h6.96v11.11Z"/><rect class="cls-1" x="375.14" y="224.98" width="17.16" height="2.57"/><rect class="cls-1" x="375.14" y="216.56" width="17.16" height="2.57"/><path class="cls-2" d="M283.44,250.87c-.18-.08-.36-.17-.53-.27h0c-.85-.49-1.64-1.14-2.57-1.38-1.41-.37-2.92-.19-4.35-.49-2-.43-4-.92-6.03-1.24-2.53-.39-5.15-.49-7.62,.25-1.12,.33-2.45,.77-3.26,1.66-.67,.74-.66,1.6-.87,2.52-.2,.86-.31,1.73-.32,2.61-.03,3.27,1.24,6.51,2.86,9.31,.87,1.5,1.89,2.91,3.01,4.22,1.03,1.21,2.24,2.8,3.57,3.69,1.31,.87,2.2,1.5,3.03,2.83,.58,.94,.64,1.21,1.74,1.64,1.79,.69,3.83,.67,5.72,.8,2.47,.18,5.14,.22,7.59-.21,1.86-.33,2.22-1.65,3.73-2.53,1.42-.83,2.13-.96,2.79-2.52,2.95-7.04-.69-13.01-5-18.08-1.32-1.5-2.73-2.39-3.48-2.8Z"/></g></svg>